
<svg xmlns="http://www.w3.org/2000/svg" viewBox="0 0 58.92 34.37"><path fill="#d90037" d="M40.5 0h18.43v34.37H40.5z"/><path fill="#eee528" d="M18.43 0H40.5v34.37H18.43z"/><path fill="#221e88" d="M0 0h18.43v34.37H0z"/><path d="M30.18 10.16c-.1-.06-.08-.19-.02-.26s.17-.08.27-.02l.11.06c.01 0 .01.02.01.02 0 .01-.01.01-.01.01l-.12-.07c-.09-.05-.19-.04-.24.02-.05.06-.07.17 0 .24" fill="#272425"/><path d="M23.11 19.5l.09-.16c.03-.04.04-.07.07-.11l.09-.16.04-.08c0-.01.01-.01.02-.01s.01.01.01.02c-.01.04-.03.06-.04.08l-.05.06.01.01-.05.09-.07.12-.12.14z" fill="#dbc190"/><path d="M27.63 7.47c.73 0 1.02.62 1.75.62.45 0 .71-.15 1.1-.37.27-.15.45-.24.76-.24.32 0 .52.1.68.37.09.16.17.46.13.63-.08.33-.12.47-.26.78-.06.15-.12.23-.12.39 0 .39.53.52.88.52.08 0 .73.01 1.13-.4-.22-.01-.46-.18-.46-.39 0-.25.17-.42.41-.49.04-.01.12.03.16.01.06-.03.03-.09.08-.13.12-.09.19-.15.34-.15.1 0 .16.01.24.07.04.03.06.07.11.07.11 0 .16-.07.27-.07.09 0 .14.01.22.05.06.03.06.14.13.14.04 0 .23-.08.33-.08.21 0 .32.08.45.23.04.04.06.13.1.13.07 0 .24.05.35.15.04.05.07.07.1.12.02.04.06.14.1.15.05.02.09.02.16.06.15.1.27.28.27.46 0 .06-.03.14-.04.2-.18.62-.6.81-1.02 1.34-.18.23-.32.41-.32.7 0 .07.09.2.13.26-.02-.14.04-.3.18-.31.2-.01.35.14.38.33 0 .05-.01.13-.03.17.11-.07.25-.12.37-.13.07-.01.11-.01.18-.01.32.01.66.19.88.36.65.55.72 1.35.69 1.58-.08.5-.03 1.39-1.3 1.75.23.1.4.28.4.49 0 .24-.18.44-.42.44-.13 0-.23-.03-.32-.13-.26.26-.31.53-.31.91 0 .23.04.36.14.56.1.21.17.34.35.49.1-.14.19-.25.37-.25.17 0 .31.05.37.2.02.05 0 .08.03.13.03.06.08.07.11.13.05.09 0 .16.04.25.03.06.08.07.11.13.04.09.05.15.05.26 0 .28-.26.48-.54.48-.09 0-.13-.03-.21-.03.16.16.28.23.41.43.18.28.22.48.26.81.01.06.01.1.01.16 0 .42-.07.68-.26 1.06-.18.36-.33.56-.66.8-.51.37-.88.47-1.51.59-.4.08-.62.11-1.03.14-.52.03-.81.03-1.33.07-.68.04-1.15.14-1.63.62.23.16.38.33.38.61 0 .29-.18.49-.45.58-.06.02-.11 0-.17.03-.07.04-.07.12-.14.16-.12.08-.21.09-.36.09-.25 0-.42-.06-.6-.24-.21.17-.28.33-.51.46-.08.04-.12.1-.2.1-.14 0-.2-.09-.32-.17-.18-.13-.27-.22-.42-.38-.21.13-.34.23-.59.23a.64.64 0 0 1-.38-.1c-.07-.04-.08-.1-.14-.15-.07-.04-.13-.03-.2-.06-.29-.12-.47-.33-.47-.64 0-.27.17-.44.42-.56-.47-.47-.93-.55-1.6-.59-.51-.03-.81-.04-1.32-.07-.41-.03-.63-.07-1.04-.14-.3-.05-.49-.07-.76-.2-.96-.45-1.57-1.06-1.7-2.12-.01-.09-.01-.14-.01-.23 0-.55.22-.89.6-1.27-.1-.02-.17.01-.26-.03-.24-.09-.42-.26-.42-.51 0-.1 0-.16.05-.24.03-.06.1-.07.11-.14.02-.09 0-.15.04-.23.03-.05.07-.07.1-.12.08-.18.19-.32.38-.32.17 0 .27.09.36.23.16-.08.21-.2.3-.35.15-.25.22-.43.22-.73 0-.21-.02-.33-.09-.52-.04-.14-.06-.24-.17-.34-.1.09-.19.13-.32.13-.27 0-.48-.23-.48-.5 0-.2.1-.35.28-.43-.15-.12-.27-.14-.43-.24-.25-.15-.33-.32-.49-.56-.1-.16-.13-.27-.19-.45-.06-.22-.1-.35-.1-.58 0-.06 0-.09.01-.15.06-.46.14-.75.43-1.11.17-.22.29-.35.54-.46.21-.09.35-.16.58-.16.07 0 .11 0 .18.01.11.01.18.02.27.08.04.02.1.08.1.04 0-.05-.03-.07-.03-.12 0-.2.14-.38.34-.38.14 0 .2.12.27.25.05-.07.07-.13.07-.21 0-.32-.18-.49-.37-.74-.44-.55-.99-.8-.99-1.51 0-.21.1-.35.28-.46.05-.03.12 0 .17-.03.04-.03.04-.08.07-.13.04-.07.08-.1.14-.15.1-.09.19-.06.3-.14.06-.04.07-.09.11-.14.12-.15.23-.22.43-.22.1 0 .15 0 .24.04.03.01.09.06.1.05.02-.02.07-.08.13-.11.08-.04.11-.05.21-.05.1 0 .17.06.28.06.04 0 .05-.04.08-.06.09-.06.14-.1.26-.1.11 0 .17.04.26.09.09.05.1.13.19.18.05.03.09.02.14.03.24.08.43.24.43.5 0 .14-.03.24-.14.33-.08.07-.16.06-.26.09.34.27.63.34 1.06.34.4 0 .88-.16.88-.56 0-.18-.1-.28-.17-.45-.13-.3-.2-.48-.2-.8 0-.26.03-.42.18-.63.13-.19.32-.24.58-.24" fill="#dbc190"/><path d="M22.41 13.69c-.03 0-.07-.01-.1-.02-.01 0-.01-.01-.01-.02s.01-.01.02-.01c.06.03.13.03.18-.01.06-.04.08-.12.07-.2-.01-.09-.11-.19-.22-.2.13-.02.23.09.25.19.02.1-.01.18-.08.23-.04.02-.08.04-.11.04" fill="#272425"/><path d="M29.95 25.89c-.36-.05-.52-.27-.52-.46 0-.05 0-.1.01-.15.05-.26.22-.45.41-.64l.08-.07c.1-.09.17-.14.24-.18.27-.18.57-.3.97-.43l.24-.06c.18-.04.3-.06.42-.08l.14-.02c.18-.03.34-.04.52-.05l.19-.01c.26-.02.47-.01.68-.01h.9l.09-.01c.19-.01.32-.02.53-.03.54-.05.95-.13 1.35-.38.48-.31.84-1 .61-1.64-.02-.05-.04-.13-.1-.23-.03-.04-.07-.11-.1-.15a.58.58 0 0 0-.23-.18.497.497 0 0 0-.56.07c-.09.1-.12.2-.09.31.01.06.04.09.06.11v.02c0 .01-.01 0-.02 0a.222.222 0 0 1-.06-.12.35.35 0 0 1 .09-.33c.1-.11.37-.2.58-.08.08.04.17.1.25.2.03.04.07.11.1.15.06.1.09.19.1.23.23.66-.13 1.37-.62 1.68-.4.26-.82.34-1.36.39-.21.02-.34.02-.53.03h-.09c-.18.01-.33.01-.47 0h-.43c-.21 0-.42-.01-.68.01l-.19.01c-.19.01-.35.02-.52.05l-.14.02c-.11.02-.24.04-.37.07l-.3.07c-.4.12-.69.25-.91.39-.11.07-.18.11-.23.16l-.13.11c-.19.18-.36.37-.4.62-.01.05-.01.1-.01.15 0 .18.15.39.5.46" fill="#dbc190"/><path d="M31.26 25.9c-.16 0-.27-.11-.31-.21.1.07.2.17.35.15.06-.01.1-.03.13-.07.03-.04.04-.08.03-.14l-.01-.08-.03.01c-.01-.01-.03-.06-.06-.08l.03-.05c.05.03.08.1.08.1l.04.09c.01.07 0 .13-.04.18-.04.05-.1.08-.17.09-.01.01-.02.01-.04.01M22.54 23.17c-.36-.27-.65-.85-.44-1.46.02-.05.04-.14.1-.24.02-.04.07-.1.1-.14.09-.12.18-.18.25-.21.22-.13.49-.03.59.09.09.11.13.29.05.4-.07.09-.13.08-.18.06-.06-.01-.08-.04-.09-.06l.02-.07.03.04c.11.05.14.05.18-.01.07-.09.03-.24-.04-.33-.08-.11-.32-.19-.51-.08-.07.04-.15.09-.23.19-.04.05-.08.11-.11.15-.06.1-.08.18-.1.22-.21.59.07 1.15.38 1.45" fill="#4b2508"/><path d="M31.24 25.87c-.13 0-.24-.07-.3-.21.08.03.16.17.34.15.05-.01.1-.03.13-.07.03-.04.04-.08.03-.14 0-.02-.01-.04-.02-.07 0 0-.02-.03-.06-.07a.03.03 0 0 1 0-.04.03.03 0 0 1 .04 0c.04.04.07.08.07.08.02.04.03.06.03.09.01.07 0 .13-.04.18-.04.05-.1.09-.17.09-.02.01-.04.01-.05.01M28.72 10.2c.03-.11.02-.21-.03-.27-.04-.05-.14-.06-.23-.01l-.22.12c-.01.01-.03 0-.04-.01-.01-.01 0-.03.01-.04l.22-.12c.11-.06.25-.05.31.03.06.07.07.21-.02.3" fill="#4b2508"/><path d="M25 9.57c.03.1.11.19.23.23.08.02.25.01.36-.13.09-.12.09-.26.05-.38a.44.44 0 0 0-.16-.21l-.48.49z" fill="#272425"/><path d="M25.3 9.84c-.03 0-.06 0-.08-.01a.37.37 0 0 1-.25-.25l.49-.52c.13.07.19.14.21.22.03.09.06.26-.06.4-.1.15-.25.16-.31.16m.16-.73l-.44.48c.03.07.11.15.22.19l.06.01c.05 0 .18-.01.26-.13.1-.12.07-.27.04-.35-.01-.08-.06-.14-.14-.2" fill="#4b2508"/><path fill="#dbc190" d="M25.41 9.03l.07.05.07.08.04.09.03.08v.17l-.03.08-.04.06-.06.06-.08.04-.1.02-.09.02-.09-.05-.09-.06-.05-.07-.04-.09v-.04z"/><path d="M27.11 10.57l-.01-.06c.51-.1.94-.34 1.25-.51-.29.22-.72.46-1.24.57" fill="#4b2508"/><path d="M27.08 10.54l-.01-.06c.52-.11.94-.34 1.25-.51-.29.22-.71.46-1.24.57M29.44 26.86a1.64 1.64 0 0 1-.75-.59c.17.17.46.43.75.54.27-.11.55-.37.68-.57l.05.03c-.13.2-.43.48-.73.59M34.99 10.13c.15-.22.23-.32.28-.57.04-.17.01-.45-.14-.66-.13-.19-.31-.21-.56-.08-.01.01-.03 0-.04-.01-.01-.02 0-.03.01-.04.27-.15.48-.11.63.1.16.22.19.52.15.7-.05.27-.13.38-.33.56" fill="#4b2508"/><path d="M35.57 10.53c.21-.19.48-.48.49-.89a.871.871 0 0 0-.14-.56c-.17-.26-.48-.31-.74-.14-.01.01-.03.01-.04-.01-.01-.01-.01-.03.01-.04.29-.19.63-.13.82.15.12.18.16.34.15.59-.01.44-.29.75-.55.9" fill="#4b2508"/><path d="M35.8 13.12c-.06 0-.12-.01-.17-.04-.29-.13-.42-.38-.42-.82 0-.51.44-.97.75-1.3.1-.11.19-.2.25-.28l.05-.06c.19-.26.31-.41.31-.79 0-.31-.26-.59-.56-.63l.01-.06c.33.04.62.35.62.69 0 .4-.13.56-.32.82l-.05.07c-.07.08-.16.18-.27.29-.31.33-.74.78-.74 1.26 0 .41.12.64.38.76.17.08.38-.01.48-.09.13-.12.15-.28.12-.39a.28.28 0 0 0-.21-.21c-.11-.02-.17.04-.19.07-.04.06-.05.15-.02.21.03.05.08.07.14.06-.09.07-.16.03-.19-.03a.243.243 0 0 1 .02-.27c.05-.08.14-.12.25-.1.12.02.22.12.26.25.05.16-.01.33-.13.45-.08.07-.22.14-.37.14" fill="#4b2508"/><path d="M35.87 12.69c-.15 0-.29-.19-.3-.37-.01-.4.39-.79.71-1.11.11-.11.21-.2.27-.28.28-.35.38-.5.38-.85 0-.24-.18-.44-.4-.46v-.06c.25.02.46.25.46.52 0 .37-.1.53-.39.89-.07.08-.16.18-.27.29-.31.31-.7.69-.69 1.06.01.19.16.35.29.36-.03 0-.04.01-.06.01M36.84 16.38h-.08a.738.738 0 0 1-.54-.24.584.584 0 0 1-.13-.48c.02-.18.12-.32.26-.39a.42.42 0 0 1 .42.01c.16.09.2.24.18.36-.02.13-.12.22-.26.23-.1.01-.2-.04-.24-.13-.03-.07-.02-.14.03-.19-.01.09.01.14.02.17.03.06.1.11.18.1.11-.01.19-.08.21-.19.02-.09-.01-.22-.15-.3a.383.383 0 0 0-.36 0c-.13.06-.21.19-.23.35-.02.16.02.32.12.44.11.13.29.21.49.22.36.01.72-.08.98-.27.54-.39.73-1.03.59-1.95-.08-.52-.44-.94-.65-1.1-.43-.34-1.13-.44-1.51-.02-.24.26-.23.55-.14.74.09.19.24.3.44.3s.36-.11.41-.28c.05-.16 0-.32-.12-.4-.09-.06-.16-.08-.24-.06a.26.26 0 0 0-.16.15c-.04.08-.01.15.04.19.04.03.1.05.15 0 .01-.01.03-.01.04.01.01.01.01.03-.01.04-.07.05-.16.05-.22-.01a.216.216 0 0 1-.05-.26c.01-.03.07-.15.2-.18.09-.03.18 0 .28.06.14.09.19.28.14.47-.06.2-.23.32-.46.32-.22.01-.4-.12-.49-.33-.09-.2-.1-.52.15-.8.41-.45 1.14-.35 1.59.01.21.17.59.6.67 1.14.15.94-.05 1.6-.61 2.01-.26.16-.6.26-.94.26" fill="#4b2508"/><path d="M36.91 16c-.13 0-.3-.04-.4-.13a.25.25 0 0 1-.08-.18c.06.05.08.09.12.13.09.08.25.12.38.12.65-.03 1.02-.55 1.01-1.42-.01-.68-.43-1.42-1.03-1.43-.24 0-.48.03-.55.33l-.06-.01c.08-.34.38-.38.61-.38.66.01 1.08.78 1.09 1.48.01.9-.39 1.46-1.07 1.48-.01.01-.02.01-.02.01" fill="#4b2508"/><path d="M36.66 15.9c.83-.26.9-.82.9-1.33 0-.32-.08-1.09-.86-1.27l-.03-.01.01-.06.03.01c.57.13.9.62.9 1.32.01.39.01 1.1-.95 1.34M37.43 20.41c-.07 0-.14-.01-.21-.03-.13-.04-.32-.12-.4-.16-.25-.14-.42-.27-.55-.39-.28-.29-.47-.64-.56-1.07-.11-.52 0-1.04.02-1.14.15-.62.61-1.29 1.17-1.29.13 0 .23 0 .33.06.04.03.08.07.13.12.04.06.07.1.09.17.04.13.02.26-.04.37-.06.1-.14.17-.25.2-.14.04-.3.01-.4-.08a.396.396 0 0 1-.12-.35c.01-.09.1-.17.21-.18.12-.02.22.05.27.18.01.02 0 .03-.01.04-.01.01-.03 0-.04-.02-.04-.1-.12-.15-.21-.14-.08.01-.15.07-.16.13-.01.13.02.23.1.29.08.07.22.1.35.07.09-.02.17-.08.22-.17.05-.09.07-.22.04-.33-.02-.05-.04-.1-.08-.15a.57.57 0 0 0-.11-.11c-.07-.05-.15-.05-.3-.05-.53 0-.97.64-1.11 1.24-.02.1-.13.62-.02 1.12.09.42.27.76.54 1.04.12.13.28.24.53.38.07.04.26.12.38.16.12.03.23.04.36.01a.4.4 0 0 0 .3-.23c.05-.12.04-.25-.03-.39a.44.44 0 0 0-.36-.23c-.09-.01-.19.03-.27.17 0 .01-.04.06-.04.13 0 .08.04.17.08.2.07.05.16.05.22.02.05-.03.08-.09.07-.17.06.1.02.18-.05.22-.08.05-.19.04-.28-.02-.07-.05-.11-.16-.11-.24 0-.08.03-.15.04-.16.07-.13.19-.2.32-.2.16 0 .33.11.41.26.08.15.09.3.03.44-.06.13-.18.22-.35.26-.03.01-.09.02-.15.02" fill="#4b2508"/><path d="M37.39 20.1c-.05 0-.1-.02-.18-.05-.04-.02-.09-.05-.14-.08-.26-.15-.56-.36-.84-.88a1.72 1.72 0 0 1-.16-.43c-.03-.1-.04-.21-.05-.32 0-.18.01-.38.06-.59.07-.35.16-.55.39-.86.12-.16.22-.25.43-.25a.69.69 0 0 0-.38.29c-.22.31-.31.49-.38.84-.04.21-.06.4-.06.58.01.11.02.21.05.31.03.14.09.28.16.41.27.51.56.71.78.84.09.05.13.08.17.09.12.05.16.06.25.02l.02.05c-.04.02-.08.03-.12.03" fill="#4b2508"/><path d="M37.21 19.76c-.13-.03-.19-.14-.19-.26 0-.22.18-.4.4-.4.22 0 .4.18.4.4l-.04.04-.02-.04c0-.19-.15-.34-.34-.34-.19 0-.34.15-.34.34.01.1.05.2.13.26" fill="#4b2508"/><path d="M37.08 19.49c-.11-.03-.15-.13-.15-.23 0-.21.17-.38.37-.38.18 0 .34.13.37.32l-.06.01a.32.32 0 0 0-.31-.27c-.18 0-.32.15-.32.32.01.09.04.17.1.23" fill="#4b2508"/><path d="M36.95 19.21c-.29-.21-.59-.62-.6-1.18 0-.38.15-.79.35-.96-.15.2-.29.6-.29.96 0 .54.3.94.57 1.14l-.03.04zM37.08 19.54c-.34-.12-.5-.32-.63-.51-.01-.01-.01-.03.01-.04.01-.01.03-.01.04.01.12.18.27.38.58.54M31.46 25.13c.49-.69 1.41-.73 2.38-.77.78-.03 1.76-.1 2.4-.37 1.03-.43 1.3-1.02 1.4-1.24.12-.24.2-.62.21-.93 0-.18-.03-.38-.08-.53-.17-.49-.42-.78-.92-1.05-.28-.15-.51-.21-.76-.18-.28.04-.52.23-.6.33l-.04-.04c.13-.15.38-.32.64-.35.25-.03.5.03.79.19.51.28.77.57.95 1.08.06.15.09.36.08.55-.01.33-.09.7-.19.9-.13.29-.4.9-1.45 1.33-.66.27-1.64.34-2.42.37-.97.03-1.87.07-2.39.71" fill="#4b2508"/><path d="M35.77 21.94h-.01c-.16 0-.33-.09-.49-.26a.952.952 0 0 1-.17-.93c.07-.19.2-.32.41-.43.58-.29 1.21.05 1.45.21.01.01.02.03.01.04-.01.01-.03.02-.04.01-.23-.15-.84-.48-1.39-.2-.21.1-.32.22-.39.39-.13.34.01.72.16.87.15.15.3.23.45.24h.01c.36 0 .41-.27.41-.28.04-.26-.12-.34-.17-.36a.339.339 0 0 0-.19.02c-.04.02-.07.05-.08.08-.01.04-.02.11.02.17-.09-.03-.09-.12-.07-.18.02-.05.05-.09.11-.12.08-.04.19-.04.23-.02.04.02.26.11.21.42-.02.1-.13.33-.47.33" fill="#4b2508"/><path d="M29.95 25.88c-.38-.02-.54-.25-.54-.44 0-.05 0-.11.01-.16.05-.26.22-.45.42-.64l.08-.07c.1-.1.17-.14.24-.18.27-.18.57-.3.97-.43l.24-.06c.18-.04.3-.06.42-.08l.14-.02c.18-.03.34-.04.53-.05l.19-.01c.26-.02.47-.01.68-.01h.9l.18-.01c.15-.01.27-.01.44-.03.61-.07 1.01-.19 1.34-.38.47-.28.83-.98.6-1.62-.02-.05-.04-.13-.1-.23l-.11-.15c-.07-.1-.16-.15-.23-.19-.19-.1-.41-.07-.52.08-.08.11-.1.19-.08.29l-.05.02c-.03-.11 0-.22.08-.34.13-.17.38-.21.59-.09.07.04.17.09.25.2l.11.15c.06.1.09.19.1.23.24.68-.14 1.41-.63 1.7-.34.2-.75.31-1.36.39-.18.02-.3.03-.45.03l-.17.01c-.18.01-.33 0-.47 0h-.43c-.2 0-.42-.01-.67.01l-.19.01c-.19.01-.35.02-.52.05l-.14.02c-.11.02-.24.04-.37.07l-.28.08c-.4.12-.69.25-.91.39-.12.07-.18.11-.23.16l-.13.11c-.19.18-.36.36-.4.61-.01.05-.01.09-.01.15-.01.15.14.36.48.43" fill="#4b2508"/><path d="M31.19 26.29c-.17 0-.33-.07-.46-.19a.83.83 0 0 1-.25-.57c0-.88 1.46-1.23 1.52-1.25.51-.12.83-.17 1.69-.22.13-.01.24-.01.35-.01.19-.01.37-.01.6-.03.34-.04.51-.05.84-.13.46-.11.85-.3 1.17-.59.28-.25.43-.43.55-.76.11-.28.16-.86-.11-1.28a1.34 1.34 0 0 0-.95-.62c-.35-.05-.64.1-.81.43-.08.15-.06.42.01.55.06.1.22.26.42.27h.01c.36 0 .41-.27.41-.28.04-.26-.12-.34-.17-.36a.339.339 0 0 0-.19.02c-.04.02-.07.05-.08.08-.01.04-.01.11.02.17-.09-.04-.09-.12-.07-.18.02-.05.05-.09.1-.12.08-.04.19-.04.23-.02.04.02.26.11.21.42-.01.09-.12.33-.47.33h-.01c-.23 0-.41-.18-.47-.3-.08-.14-.1-.44-.01-.61.19-.35.5-.51.87-.46.42.06.76.28.99.65.29.44.23 1.04.12 1.34-.13.34-.28.52-.56.78-.33.3-.72.5-1.19.61-.33.08-.51.09-.82.13-.26.03-.45.03-.64.04-.11 0-.22.01-.35.01-.86.05-1.17.1-1.68.22s-1.48.53-1.48 1.19c0 .19.09.39.23.53.13.12.28.18.45.18.19-.01.37-.09.49-.22.09-.1.14-.23.13-.37a.648.648 0 0 0-.05-.21.482.482 0 0 0-.44-.31c-.12 0-.21.05-.28.13-.07.08-.11.19-.1.29.01.08.05.16.1.21.05.04.11.06.19.05a.22.22 0 0 0 .15-.08c.03-.05.02-.12-.02-.2-.01-.01 0-.03.01-.04.01-.01.03 0 .04.01.06.12.04.2.02.25-.03.06-.1.1-.19.11a.299.299 0 0 1-.23-.06.313.313 0 0 1-.12-.24c-.01-.12.03-.24.11-.33.09-.09.22-.15.32-.14.21 0 .4.14.49.34.03.07.04.15.05.23.01.15-.04.3-.14.41-.13.15-.32.23-.53.24 0-.04-.01-.04-.02-.04" fill="#4b2508"/><path d="M30.75 26.55c-.21 0-.38-.06-.54-.2a.98.98 0 0 1-.32-.74c0-.14.03-.34.12-.47.29-.46.64-.61 1.09-.81.01-.01.03 0 .04.02.01.01 0 .03-.01.04-.45.2-.78.35-1.06.79-.08.13-.11.31-.11.44 0 .27.12.54.3.69.18.15.37.21.61.19.17-.02.33-.15.35-.22.02.12-.16.26-.35.28-.05-.01-.09-.01-.12-.01M36.33 14.51a.93.93 0 0 1-.27-.04c-.63-.18-.86-.69-.86-.96 0-.23.08-.41.26-.56l.04.04c-.16.14-.24.31-.24.52 0 .26.22.74.82.91.23.06.44.05.56-.02-.06.07-.17.11-.31.11M35.62 17.08c-.21-.06-.42-.27-.42-.68 0-.34.17-.66.38-.73l.02.05c-.19.07-.34.37-.34.68 0 .38.2.57.36.68" fill="#4b2508"/><path d="M35.73 19.44c-.4-.39-.54-.77-.53-1.26.01-.58.23-.88.6-1.35.01-.01.03-.02.04 0 .01.01.01.03 0 .04-.37.46-.58.75-.59 1.31 0 .48.14.84.48 1.26M34.34 10.11c.17-.18.3-.35.33-.54.07-.36-.01-.64-.23-.81-.09-.07-.19-.09-.3-.07-.12.02-.23.09-.31.21h-.07l.02-.03c.1-.15.22-.23.36-.25.12-.02.24.01.34.08.24.18.33.5.25.87-.03.21-.17.4-.39.54M26.47 10.57c-.52 0-.96-.12-1.31-.36-.38-.26-.74-.58-.57-1.01a.48.48 0 0 1 .33-.29c.17-.05.37-.01.51.1.1.08.15.14.17.22.04.16.03.3-.05.4-.12.15-.3.17-.39.14a.398.398 0 0 1-.25-.24.301.301 0 0 1 .04-.26c.04-.05.11-.07.18-.06.08.02.14.08.15.17 0 .02-.01.03-.02.03-.01.01-.03-.01-.03-.02-.01-.06-.05-.1-.11-.12-.05-.01-.1 0-.12.04a.23.23 0 0 0-.03.2c.03.09.11.17.21.2.06.02.22.02.33-.12.09-.11.07-.26.04-.35a.476.476 0 0 0-.15-.19.56.56 0 0 0-.47-.09c-.13.05-.23.14-.28.27-.16.39.19.7.55.94.34.23.79.34 1.31.35.78-.01 1.4-.36 1.81-.59l.12-.07c.11-.06.23-.05.29.02.07.09.06.22-.03.3.03-.11.03-.2-.02-.26-.04-.05-.13-.06-.22-.01l-.12.06c-.42.23-1.04.59-1.84.59h-.03zM23.92 10.09c-.24-.14-.32-.25-.38-.51-.04-.2-.02-.5.15-.7.15-.18.36-.22.63-.1.01.01.02.02.01.04-.01.01-.02.02-.04.01-.24-.11-.42-.08-.56.08-.16.19-.18.47-.14.66.07.24.14.34.33.52" fill="#4b2508"/><path d="M23.33 10.48c-.29-.09-.56-.4-.58-.84-.01-.25.03-.41.15-.59.19-.28.53-.34.82-.15l-.03.05c-.27-.18-.56-.12-.74.14-.12.17-.15.32-.15.56.02.4.29.69.53.83" fill="#4b2508"/><path d="M23.08 13.12a.54.54 0 0 1-.36-.14c-.13-.11-.18-.29-.13-.45.04-.14.13-.23.25-.25.1-.02.2.02.25.1.06.08.06.19.02.27-.04.07-.11.1-.2.09.07-.05.12-.07.15-.12.03-.06.03-.14-.02-.21-.02-.04-.08-.09-.19-.07-.1.02-.18.1-.21.21-.03.11-.02.27.12.39.09.08.29.17.47.09.27-.12.39-.35.39-.76 0-.49-.43-.93-.74-1.26-.1-.11-.2-.21-.26-.29-.23-.32-.34-.49-.34-.92 0-.33.25-.62.59-.66l.01.06c-.31.04-.54.29-.54.6 0 .41.11.58.33.88.06.08.15.17.25.28.32.33.76.79.76 1.3 0 .43-.13.69-.42.82-.07.03-.13.04-.18.04" fill="#4b2508"/><path d="M22.98 12.75h-.03c.04-.05.06-.06.09-.08.08-.06.15-.22.15-.35.01-.38-.38-.78-.68-1.08-.1-.1-.19-.19-.25-.27-.3-.38-.44-.54-.44-.9 0-.28.26-.49.5-.5v.06c-.22.02-.45.2-.45.45 0 .34.13.5.4.83.09.11.18.2.27.3.3.3.71.71.69 1.12-.01.15-.08.32-.18.4 0 0-.04.02-.07.02M22.05 16.38c-.33 0-.65-.12-.94-.37-.05-.04-.07-.07-.11-.11l-.07-.08c-.04-.04-.08-.1-.12-.16-.13-.19-.24-.44-.29-.72-.04-.17-.05-.3-.05-.4 0-.16.02-.3.06-.48.14-.67.62-1.07.67-1.11.46-.36 1.16-.47 1.56-.02.2.23.25.55.13.82-.09.2-.28.35-.47.32-.23 0-.4-.13-.46-.33-.05-.18 0-.37.14-.46.14-.09.25-.09.31-.07.1.03.15.11.18.17.04.12 0 .22-.07.27a.18.18 0 0 1-.22 0c-.01-.01-.01-.03-.01-.04.01-.01.03-.02.04-.01.05.03.1.03.15 0 .05-.04.09-.12.05-.21a.227.227 0 0 0-.14-.13c-.08-.03-.17 0-.26.06-.11.08-.16.24-.12.4.05.17.21.28.41.29.17-.01.33-.11.42-.29.11-.24.06-.54-.12-.75-.37-.42-1.04-.32-1.48.03-.19.15-.54.55-.65 1.08-.04.18-.06.31-.06.47 0 .09.01.22.05.39.06.27.15.51.28.7.04.06.08.11.12.15l.08.08.1.1c.3.25.63.36.96.35.21-.01.38-.08.49-.22.1-.12.15-.28.13-.44a.452.452 0 0 0-.26-.37.324.324 0 0 0-.33.03c-.08.06-.14.19-.12.3.01.07.05.15.17.19.07.02.14-.02.17-.07.02-.04.04-.1-.01-.15.1.02.11.11.06.18-.04.07-.13.13-.23.1-.12-.04-.2-.12-.21-.24-.02-.13.04-.29.14-.36a.37.37 0 0 1 .38-.03c.16.07.27.23.3.42a.65.65 0 0 1-.14.49.74.74 0 0 1-.54.24c-.03-.01-.05-.01-.07-.01" fill="#4b2508"/><path d="M21.43 20.41a.531.531 0 0 1-.5-.29.478.478 0 0 1 .01-.42c.06-.15.22-.26.39-.26a.368.368 0 0 1 .39.36c0 .09-.04.2-.11.24-.09.06-.21.07-.28.02-.07-.04-.11-.12-.1-.22.05.08.08.15.13.17.06.03.15.03.22-.02.05-.03.08-.12.08-.2 0-.05-.02-.11-.03-.13-.07-.11-.17-.18-.3-.17-.14.01-.28.1-.34.23a.46.46 0 0 0-.01.38c.05.11.15.19.29.24.1.03.22.03.35-.01.13-.04.31-.12.38-.16.25-.15.42-.26.53-.38.27-.28.45-.62.54-1.04.11-.51 0-1.02-.02-1.12-.14-.6-.58-1.24-1.11-1.24-.15 0-.23.01-.3.05-.03.02-.07.05-.11.11-.04.05-.06.09-.07.15a.47.47 0 0 0 .03.33c.05.09.12.14.22.17.13.03.26.01.35-.07.08-.07.11-.17.09-.29-.01-.06-.08-.12-.16-.13-.09-.01-.17.04-.21.14-.01.02-.02.02-.04.02-.01-.01-.02-.02-.02-.04.05-.13.15-.19.27-.18.1.01.19.09.21.18.02.18-.05.29-.11.34-.1.09-.26.12-.4.08-.11-.03-.2-.1-.25-.2a.478.478 0 0 1-.04-.37.481.481 0 0 1 .21-.28c.09-.06.19-.06.33-.06.56 0 1.02.66 1.16 1.29.02.1.14.63.02 1.14-.09.43-.28.78-.56 1.07-.12.12-.29.24-.55.39-.07.04-.27.13-.4.16-.04.01-.11.02-.18.02" fill="#4b2508"/><path d="M21.48 20.1c-.04 0-.07-.01-.12-.02l.02-.05c.09.03.14.03.25-.02.03-.01.07-.04.11-.06l.06-.03c.22-.13.51-.33.78-.84.07-.13.12-.26.16-.41.03-.12.04-.22.05-.31.01-.18-.01-.36-.06-.58-.07-.35-.16-.53-.38-.84-.11-.15-.2-.23-.38-.23.23-.05.33.06.43.2.23.31.31.51.39.86.05.22.07.41.06.59a2.006 2.006 0 0 1-.21.75c-.28.52-.57.73-.8.86-.1.06-.14.08-.18.09-.08.02-.13.04-.18.04" fill="#4b2508"/><path d="M21.69 19.81c.04-.11.09-.21.09-.31 0-.19-.15-.34-.34-.34-.19 0-.34.15-.34.34l-.05.07-.01-.07c0-.22.18-.4.4-.4.22 0 .4.18.4.4 0 .12-.05.23-.15.31" fill="#4b2508"/><path d="M21.84 19.53c.02-.1.05-.18.05-.27 0-.18-.14-.32-.31-.32-.15 0-.29.11-.31.27l-.07-.01c.03-.18.19-.32.37-.32.21 0 .37.17.37.38 0 .1-.04.2-.1.27" fill="#4b2508"/><path d="M21.91 19.21l-.03-.05c.27-.2.57-.6.57-1.14 0-.4-.16-.78-.33-.92.24.13.39.54.38.92.01.56-.3.98-.59 1.19M21.82 19.59c.27-.22.42-.41.55-.6.01-.01.03-.02.04-.01.01.01.02.03.01.04-.13.2-.28.4-.6.57M27.47 25.08c-.56-.6-1.47-.63-2.43-.67-.84-.03-1.78-.1-2.42-.37-1.05-.43-1.32-1.04-1.43-1.27-.13-.25-.21-.63-.21-.95-.01-.19.02-.4.08-.55.18-.51.43-.8.95-1.08.29-.16.53-.21.79-.18.3.03.48.14.57.35l-.05.02c-.08-.19-.24-.28-.52-.31-.25-.03-.48.03-.75.18-.5.27-.75.55-.92 1.05-.05.15-.08.35-.08.53.01.35.1.71.18.87.13.28.4.88 1.43 1.3.63.26 1.57.33 2.4.37.96.01 1.87.05 2.41.71" fill="#4b2508"/><path d="M23.1 21.94c-.34 0-.45-.23-.47-.32-.05-.31.16-.4.21-.42.05-.02.15-.02.24.02.05.03.09.07.1.12.02.06.01.15-.02.21-.02-.08-.02-.15-.03-.2-.01-.04-.04-.06-.07-.08a.268.268 0 0 0-.19-.02c-.05.02-.21.1-.17.35 0 0 .04.27.42.28.2 0 .36-.15.45-.24.15-.16.29-.53.16-.87-.07-.18-.18-.29-.39-.39-.56-.28-1.16.05-1.4.2-.01.01-.03 0-.04-.01-.01-.01-.01-.03.01-.04.24-.16.87-.49 1.45-.21.22.1.34.24.42.43.14.37-.02.76-.17.93-.11.11-.28.25-.49.26h-.02z" fill="#4b2508"/><path d="M28.93 25.93c.32-.12.47-.33.47-.5 0-.05 0-.1-.01-.15-.04-.24-.21-.43-.4-.61a.435.435 0 0 0-.07-.06l-.06-.05c-.04-.05-.11-.08-.17-.12l-.06-.04c-.22-.14-.51-.27-.91-.39l-.1-.06-.01.03-.13-.03c-.17-.04-.3-.06-.41-.08l-.14-.02a4.17 4.17 0 0 0-.52-.05l-.19-.01c-.26-.02-.47-.01-.67-.01h-.99c-.19-.01-.32-.02-.53-.03-.54-.05-.96-.13-1.37-.39-.49-.31-.86-1.03-.63-1.69.01-.05.04-.13.1-.24.03-.05.08-.11.11-.15.08-.11.17-.16.25-.2.22-.12.48-.03.59.09.09.1.12.21.09.34l-.06-.01c.03-.11 0-.2-.07-.29a.45.45 0 0 0-.52-.08c-.06.03-.15.08-.23.19-.03.04-.08.1-.1.15-.06.1-.09.18-.1.22-.23.64.13 1.33.6 1.63.4.25.81.33 1.34.38.21.02.34.02.53.03h.09c.17.01.32.01.47 0h.43c.21-.01.42-.01.68.01l.19.01c.19.01.35.02.52.05l.14.02a8 8 0 0 1 .38.07c.08.02.13.03.17.04l.11.03c.41.13.7.25.93.4l.06.04c.06.04.13.08.17.13l.06.05c.03.02.05.04.07.06.19.19.37.38.41.64.01.05.01.1.01.15.01.2-.15.43-.52.5" fill="#4b2508"/><path d="M27.68 26.29h-.03c-.21-.01-.4-.1-.53-.24a.557.557 0 0 1-.14-.41c0-.1.02-.17.05-.23.09-.21.28-.34.49-.34.14 0 .24.05.33.14.08.09.13.21.11.33-.01.1-.06.19-.13.24-.06.05-.14.07-.23.06-.09-.01-.16-.05-.19-.11-.03-.05-.04-.13.02-.25l.05.03c-.04.08-.04.15-.02.2.02.05.08.07.15.08.07.01.14-.01.19-.05.06-.05.1-.12.1-.21a.36.36 0 0 0-.1-.29c-.07-.08-.17-.11-.28-.13-.19 0-.36.12-.44.31-.03.06-.04.12-.04.21-.01.13.04.27.13.37.11.13.29.21.49.22.17.01.32-.06.45-.18a.76.76 0 0 0 .23-.53c0-.66-.97-1.07-1.48-1.19-.51-.12-.82-.17-1.68-.22-.12-.01-.24-.01-.35-.01-.19-.01-.37-.01-.61-.04-.34-.03-.52-.05-.85-.13-.47-.11-.86-.31-1.19-.61-.28-.26-.44-.44-.56-.78-.11-.29-.17-.89.12-1.34.24-.37.57-.59.99-.65.37-.05.69.11.87.46.1.18.06.48-.01.61-.06.12-.24.29-.48.3-.36.03-.46-.23-.48-.33-.05-.31.16-.4.2-.42.05-.02.15-.02.24.03.05.03.09.07.1.12.02.06.01.15-.02.21-.02-.08-.02-.15-.03-.2-.01-.04-.04-.06-.08-.08a.268.268 0 0 0-.19-.02c-.05.02-.21.1-.17.36 0 0 .04.27.42.28.21 0 .37-.16.42-.27.06-.11.1-.39.01-.55-.17-.33-.46-.48-.81-.43-.41.06-.73.27-.95.62-.28.43-.22 1-.11 1.28.12.33.27.51.55.76.32.29.7.48 1.16.59.33.08.5.09.81.13.26.03.44.03.63.04.11 0 .23.01.35.01.86.05 1.17.1 1.69.22.06.02 1.52.38 1.52 1.25 0 .21-.09.42-.24.57-.12.15-.28.21-.45.21" fill="#4b2508"/><path d="M28.12 26.55h-.1c-.19-.02-.38-.16-.4-.27.08.06.24.19.41.21.24.02.42-.03.6-.19a.93.93 0 0 0 .31-.69c0-.13-.03-.32-.11-.44-.28-.44-.61-.59-1.06-.79l.02-.05c.46.21.8.36 1.09.81.09.14.12.34.12.48 0 .29-.12.57-.32.74-.18.12-.35.19-.56.19M22.59 14.5c-.16 0-.3-.05-.4-.1.15.02.37.08.6.02.6-.17.82-.65.82-.91 0-.21-.08-.38-.24-.52l.04-.04c.17.15.26.33.26.56 0 .28-.24.79-.86.96-.08.02-.16.03-.22.03" fill="#4b2508"/><path d="M22.63 15.02c-.21 0-.4-.06-.57-.17a.876.876 0 0 1-.37-.52c.09.13.18.33.41.48.16.11.37.15.55.16.35-.01.65-.19.8-.37.11-.11.17-.24.17-.34 0-.14-.04-.21-.14-.28l.03-.05c.11.08.16.17.16.33 0 .11-.07.25-.18.37-.16.18-.47.38-.85.39h-.01" fill="#4b2508"/><path d="M23.12 15.83c.04-.09.1-.13.15-.18.24-.2.34-.4.34-.65 0-.19-.04-.31-.15-.41l.04-.04c.12.11.17.25.17.45 0 .27-.11.47-.36.69-.05.06-.11.1-.19.14" fill="#4b2508"/><path d="M23.28 17.13c.13-.15.33-.35.33-.72 0-.29-.1-.49-.35-.68l.04-.05c.27.21.38.42.38.73-.01.39-.22.61-.4.72" fill="#4b2508"/><path d="M23.18 19.48c.3-.45.44-.82.42-1.3-.01-.56-.21-.84-.59-1.31a.03.03 0 0 1 0-.04.03.03 0 0 1 .04 0c.38.47.59.77.61 1.35.02.49-.12.87-.48 1.3M24.56 10.06a.683.683 0 0 1-.43-.48c-.07-.38.01-.69.25-.87.1-.08.22-.11.34-.08.14.02.26.1.35.23l.01.06-.02.02-.01-.01c-.1-.15-.21-.23-.33-.25a.41.41 0 0 0-.3.07c-.22.17-.3.46-.23.81.04.2.17.37.37.5M26.35 10.22h-.03c-.62-.02-.98-.17-1.34-.57.4.34.75.49 1.35.51.15 0 .5-.05.69-.19.18-.13.23-.28.17-.48-.02-.05-.05-.13-.09-.21-.11-.24-.26-.56-.27-.82-.03-.63.27-.87.52-.96.43-.15.88.1 1.24.31.14.08.27.16.38.19.2.07.3.07.48.07s.28-.01.47-.07c.11-.04.24-.11.38-.19.36-.2.81-.46 1.23-.31.25.09.55.33.52.96-.01.25-.16.58-.27.81-.04.09-.08.17-.09.22-.07.2-.01.35.17.48.2.14.52.18.69.19.6-.02.95-.17 1.3-.55l.04.04c-.37.4-.73.55-1.34.57-.17.01-.52-.05-.73-.2-.2-.14-.26-.32-.19-.54.02-.05.05-.13.1-.23.11-.23.25-.55.26-.79.02-.47-.15-.78-.48-.9-.4-.14-.84.1-1.19.3-.15.08-.28.16-.39.2-.2.07-.31.08-.49.08s-.29-.01-.5-.08a2.07 2.07 0 0 1-.39-.2c-.35-.2-.78-.45-1.19-.3-.33.12-.5.43-.48.9.01.24.16.56.26.8.04.09.08.17.1.22.07.22.01.4-.19.54s-.52.2-.7.2" fill="#4b2508"/><path d="M30.21 10.57a.51.51 0 0 1-.44-.27c-.09-.16-.1-.36-.01-.5.3-.51.88-.24 1.4-.01a.076.076 0 0 1-.02-.05c-.02-.06-.04-.12-.04-.23.01-.24.11-.4.22-.57.07-.11.15-.23.2-.38.07-.22.09-.39-.05-.53-.12-.11-.26-.13-.45-.06-.1.04-.21.1-.32.17-.31.17-.69.39-1.25.4-.56-.01-.95-.23-1.26-.4-.12-.07-.22-.13-.32-.16-.19-.07-.33-.06-.45.06-.14.14-.13.3-.05.53.05.15.12.26.2.38.11.17.22.33.22.57 0 .11-.02.17-.04.23-.01.03-.02.06-.03.11.54-.3 1.13-.58 1.41-.05.08.16.07.36-.03.52-.19.31-.66.33-.78-.04a.41.41 0 0 1 .08-.39c-.03.15-.06.26-.02.38.11.32.52.29.68.03.09-.15.1-.33.03-.47-.25-.48-.79-.23-1.31.01l-.05.02-.05-.03c.01-.05.02-.08.03-.11.02-.06.04-.11.03-.21-.01-.22-.11-.38-.22-.54-.08-.12-.15-.24-.21-.39-.06-.2-.11-.42.07-.59.13-.13.3-.15.51-.07.1.04.21.1.33.17.3.17.68.39 1.23.39.54-.01.92-.22 1.22-.39.12-.07.23-.13.33-.17.21-.08.37-.06.5.07.16.16.15.35.07.59-.05.15-.13.27-.21.39-.11.16-.21.31-.21.54 0 .1.01.15.03.21.01.03.02.07.03.11l.01.06-.08-.04c-.52-.24-1.06-.49-1.34-.02-.08.13-.07.3.01.44.16.29.59.32.69-.01.04-.13 0-.21-.07-.35l.05-.03c.08.14.13.24.08.39-.05.19-.18.29-.35.29" fill="#4b2508"/><path d="M29.44 9.18c-.29 0-.43-.04-.75-.21-.09-.05-.16-.1-.22-.14-.1-.07-.16-.12-.28-.12-.03 0-.08.02-.12.06-.03.03-.07.09-.07.18-.03-.1.01-.17.05-.2.04-.04.1-.07.14-.07.13 0 .2.05.3.12.05.04.12.09.21.14.31.17.45.2.73.21.28 0 .42-.04.73-.21.09-.05.15-.1.21-.14.1-.07.17-.13.3-.13.04 0 .09.02.14.07.03.04.07.1.07.19h-.03c0-.09-.03-.14-.06-.17a.194.194 0 0 0-.13-.06c-.13 0-.19.05-.29.12-.06.04-.12.09-.21.14-.3.17-.44.21-.72.22" fill="#dbc190"/><path d="M27.73 9.8h-.02c.03-.09.05-.14.05-.23-.01-.22-.1-.38-.21-.54-.07-.12-.15-.24-.2-.39-.07-.2-.12-.44.05-.61.17-.16.38-.11.53-.05.1.04.21.1.33.17.3.17.68.38 1.23.39-.56.05-.95-.17-1.25-.34-.12-.07-.22-.12-.32-.16-.19-.08-.33-.06-.45.06-.14.14-.13.31-.05.53.05.15.13.27.2.38.11.17.22.33.22.57 0 .1-.02.16-.04.22h-.07z" fill="#4b2508"/><path d="M29.49 8.6c.27-.03.49-.1.69-.18-.21.08-.44.14-.69.15v-.06c.51-.03.98-.28 1.29-.44.14-.08.25-.13.31-.15.2-.04.31-.01.45.11a.573.573 0 0 0-.48 0c-.1.04-.21.1-.32.17-.31.17-.69.39-1.25.4M30.41 10.57l-.03-.05c.06-.04.11-.1.14-.19.04-.14.04-.25-.02-.34.15.1.15.21.13.36-.02.1-.08.16-.15.22.01-.03.02-.05.03-.07-.04.02-.07.05-.1.07" fill="#4b2508"/><path d="M28.39 10.08c0-.1.08-.18.18-.18.1 0 .18.08.18.18 0 .1-.08.18-.18.18a.18.18 0 0 1-.18-.18" fill="#dbc190"/><path d="M35.27 20.56c-.05-.06-.04-.11-.03-.17.01-.09.01-.23.01-.23v-1.52h.06v1.52s0 .15-.01.24c-.01.06-.02.11-.03.16" fill="#4b2508"/><path d="M35.23 20.63c-.04-.09-.03-.17-.01-.26.01-.09.01-.23.01-.23l-.01-1.64h.06v1.64s0 .14-.01.24c-.01.09-.03.17-.04.25M35.28 17.95l-.06-1.37h.06z" fill="#4b2508"/><path fill="#4b2508" d="M35.3 17.8l-.05-1.11h.05zM35.3 16.11l-.05-.83h.05z"/><path fill="#4b2508" d="M35.28 16.2l-.06-1.02h.06zM35.28 13.34l-.06-.84h.06zM29.51 22.68c-.1-.07-.38-.25-.63-.35-.19-.08-.29-.1-.48-.13-.21-.04-.34-.04-.56-.04-.14 0-.24.01-.36.02l-.13.01c-.12.01-.21.02-.3.04-.1.02-.2.03-.34.04-.26.02-.39.02-.6.02-.25-.01-.4-.02-.65-.08-.24-.06-.39-.09-.63-.21-.22-.11-.36-.2-.55-.39l-.06-.06.1.02c.19.19.32.27.54.38.23.11.37.15.61.2.24.06.39.07.64.08.21.01.33 0 .52-.01.2-.01.3-.03.4-.04.09-.01.18-.03.3-.04l.13-.01c.13-.01.24-.03.4-.02.21 0 .33 0 .54.04.19.03.3.06.49.14.24.1.54.28.61.37.02-.09.32-.27.56-.37.19-.08.31-.1.49-.14.22-.04.37-.04.57-.04.14 0 .24.01.36.02l.14.01c.12.01.21.02.3.04.1.01.2.03.33.04.26.02.38.03.59.02.25-.01.39-.02.64-.08s.39-.09.61-.2c.22-.11.35-.19.54-.38.19-.19.27-.3.39-.53l.05.03c-.11.22-.21.35-.4.54-.2.19-.33.28-.55.39-.23.11-.37.15-.63.21-.25.06-.4.07-.65.08-.21.01-.34 0-.53-.01-.2-.01-.3-.03-.4-.04-.09-.01-.18-.03-.3-.04l-.14-.01c-.13-.01-.24-.02-.39-.02-.21 0-.33 0-.54.04-.19.03-.3.06-.48.13-.21.08-.49.25-.55.33"/><path d="M29.48 22.65c-.1-.07-.39-.25-.63-.35-.18-.08-.29-.1-.48-.14-.21-.04-.33-.04-.53-.04-.16 0-.27.01-.41.02l-.11.01c-.11.01-.2.02-.29.03-.11.02-.21.03-.35.04-.24.02-.37.03-.6.02-.25-.01-.4-.02-.65-.08s-.4-.09-.63-.21c-.23-.11-.36-.2-.55-.39-.1-.1-.17-.18-.24-.27.11.05.18.13.28.22.19.19.32.27.54.38.22.11.36.15.61.2.24.06.39.07.64.08.23.01.36 0 .58-.01.15-.01.25-.02.35-.04.09-.01.18-.03.29-.04l.11-.01c.14-.01.25-.02.42-.02.21 0 .33 0 .54.04.19.04.3.06.49.14.24.1.54.28.61.37.02-.08.3-.26.57-.37.19-.08.3-.1.49-.14.21-.04.33-.04.55-.04.16 0 .27.01.41.02l.12.01c.11.01.2.02.29.04.11.02.21.03.34.04.23.02.36.03.59.02.25-.01.4-.02.64-.08.26-.06.39-.09.61-.2.24-.12.37-.21.54-.38.19-.19.28-.31.39-.53l.09-.04-.02.05c-.12.25-.21.37-.41.56-.18.18-.3.26-.55.39-.22.11-.37.15-.62.21s-.4.07-.65.08c-.23.01-.36 0-.59-.02-.14-.01-.25-.02-.36-.04-.09-.01-.18-.02-.29-.03l-.12-.01c-.14-.01-.24-.02-.4-.02-.21 0-.33 0-.54.04-.19.03-.3.06-.48.14-.25.1-.53.28-.59.35" fill="#4b2508"/><path d="M22.7 21.48c0-.13.11-.24.24-.24s.23.1.23.24c0 .13-.11.23-.23.23-.13 0-.24-.11-.24-.23" fill="#dbc190"/><path d="M22.94 21.72c-.13 0-.24-.11-.24-.24s.11-.24.24-.24.24.11.24.24-.11.24-.24.24m0-.47c-.13 0-.23.1-.23.23s.1.23.23.23c.12 0 .23-.1.23-.23s-.11-.23-.23-.23" fill="#dbc190"/><path fill="#4b2508" d="M22.06 22.03l-.04-.14.09-.32.19-.31.21-.16.19-.07.02.05-.19.08-.19.14-.18.3zM23.16 21.99c-.36 0-.47-.24-.5-.32.08.05.18.26.5.26h.01c.15 0 .3-.09.45-.24.13-.14.24-.42.2-.7l.06-.01c.04.3-.08.6-.22.75-.16.17-.33.26-.49.26h-.01"/><path fill="#4b2508" d="M23.18 21.96l.36-.25.13-.17.11-.3.01-.17.06.01-.04.29-.09.2-.13.18-.26.17z"/><path d="M23.56 21.7l-.02-.02c.1-.17.12-.44.04-.59a.81.81 0 0 0-.17-.23l.04-.04c.07.07.13.15.18.25.09.17.07.46-.01.61l-.06.02zM27.46 25.07c-.57-.54-1.44-.58-2.37-.61-.79-.03-1.77-.1-2.42-.37-.43-.18-.78-.4-1.03-.67l.04-.04c.25.26.59.48 1.01.66.64.26 1.62.34 2.4.37.94.03 1.83.06 2.37.66M29.48 25.23a3.35 3.35 0 0 0-.43-.5l.04-.04c.17.16.32.32.39.54M28.96 25.99l-.07-.04c.44-.09.52-.32.54-.39l.06.01c-.03.08-.12.33-.53.42" fill="#4b2508"/><path d="M28.77 26.3c.05-.14.12-.27.16-.42 0-.02.02-.02.03-.02.02 0 .03.02.02.04-.04.15-.12.29-.21.4" fill="#4b2508"/><path d="M29.01 25.9c-.04-.09-.03-.16-.03-.24 0-.13-.03-.32-.11-.44-.28-.45-.61-.62-1.05-.82-.35-.15-.41-.17-.45-.18-.01-.01-.04-.03-.04-.05.01-.01 0-.03.01-.02l-.01.03.05-.02c.04.01.1.02.46.18.44.2.78.37 1.07.84.11.17.12.41.12.47.01.09 0 .17-.02.25M28.18 26.6c-.04 0-.07 0-.11-.01-.2-.02-.38-.16-.43-.26.1.06.26.18.43.2.24.03.42-.03.61-.19l.06-.06.04.04c-.02.02-.04.04-.07.06-.16.16-.32.22-.53.22" fill="#4b2508"/><path fill="#4b2508" d="M28.3 26.56l.4-.29.04.05-.09.08-.16.1z"/><path d="M29.47 26.89a1.64 1.64 0 0 1-.75-.59c.18.17.46.43.75.54.27-.11.55-.37.68-.57l.05.03c-.13.2-.43.48-.73.59" fill="#4b2508"/><path d="M29.49 26.9c-.3-.11-.6-.38-.73-.59.15.19.44.45.73.56.31-.12.59-.41.7-.58l.02.01c-.11.18-.39.48-.72.6" fill="#272425"/><path d="M27.58 26.3a.53.53 0 0 1-.4-.19l.01-.05.03.01c.1.12.28.21.46.22-.04 0-.07.01-.1.01" fill="#4b2508"/><path d="M27.71 26.32h-.02a.887.887 0 0 1-.32-.08l.03-.05c.09.04.19.07.29.08.16 0 .32-.06.45-.18a.76.76 0 0 0 .23-.53c0-.23-.11-.45-.33-.64.27.16.39.39.39.64 0 .21-.09.42-.24.57-.15.12-.31.19-.48.19" fill="#4b2508"/><path d="M27.68 25.87h-.04a.277.277 0 0 1-.21-.13c-.03-.05-.05-.14.01-.26.01-.01.02-.02.04-.01.01.01.02.02.01.04-.04.08-.04.15-.01.21.03.05.09.09.16.1.07.01.14-.01.19-.05.06-.05.1-.12.11-.2a.394.394 0 0 0-.18-.36c.17.04.26.21.24.37-.01.1-.06.19-.13.24-.05.03-.12.05-.19.05" fill="#4b2508"/><path d="M27.44 25.58c0-.12.1-.22.21-.22.12 0 .22.1.22.22s-.1.22-.22.22c-.11 0-.21-.1-.21-.22" fill="#dbc190"/><path d="M29.5 26.92c-.35-.12-.64-.42-.75-.59v-.06l.03-.02c.16.24.45.51.73.61.26-.1.55-.37.68-.57l.05.03c-.12.17-.41.47-.74.6" fill="#4b2508"/><path d="M30.76 24.45l.1-.07c.06-.03.12-.05.2-.08.08-.03.14-.04.21-.05l.12-.03c.01 0 .01 0 .02.01s0 .01-.01.02l-.12.03c-.07.01-.13.03-.2.05-.08.03-.14.05-.2.08l-.12.04zM30.34 24.91l.01-.05c.02-.03.03-.05.06-.09a.7.7 0 0 1 .17-.13c.08-.05.14-.09.23-.13.07-.04.12-.06.2-.09l.19-.08.16-.06-.15.09c-.08.03-.12.05-.19.08-.08.03-.12.05-.19.09-.09.05-.15.09-.23.13a.7.7 0 0 0-.17.13c-.03.03-.04.05-.06.08l-.03.03zM28.32 24.8s-.03-.04-.03-.05c-.01-.03-.03-.05-.05-.08a.383.383 0 0 0-.11-.08c-.11-.07-.14-.08-.2-.11l-.09-.04c-.08-.04-.12-.06-.19-.09l-.4-.16.22.05c.08.03.12.05.19.08.08.03.12.05.2.09l.09.04c.06.03.09.04.14.08.1.06.14.08.18.12.03.03.04.05.06.08 0 .01.01.04.01.04-.02.01-.01.03-.02.03" fill="#dbc190"/><path d="M30.79 26.6c-.21 0-.37-.06-.54-.2a.435.435 0 0 0-.07-.06l.03-.05.01.01c.02.02.04.04.06.05.18.16.36.21.6.19.17-.02.31-.13.36-.23l.1-.05c-.01.04-.04.08-.05.08-.06.11-.21.23-.4.25-.02.01-.06.01-.1.01" fill="#4b2508"/><path fill="#4b2508" d="M30.78 26.57l.3-.13.1-.08.06-.11.05.03-.07.12-.11.09-.17.07z"/><path d="M31.27 26.35l-.04-.06c.23-.01.41-.09.53-.22.09-.1.13-.23.13-.37a.868.868 0 0 0-.04-.21c-.04-.1-.12-.2-.21-.26l.04-.05c.09.07.18.18.23.28.03.06.04.13.05.23.01.15-.04.3-.14.41-.15.15-.34.24-.55.25" fill="#4b2508"/><path d="M31.22 26.32c-.18 0-.35-.07-.49-.21.17.09.34.16.51.15v.06h-.02" fill="#4b2508"/><path fill="#4b2508" d="M31.22 26.33l-.01-.06.17-.02.26-.13.18-.24.03-.22.05.08-.06.24-.16.19-.28.14z"/><path d="M31 25.59c0-.13.1-.22.22-.22s.22.1.22.22-.1.22-.22.22c-.12.01-.22-.1-.22-.22" fill="#dbc190"/><path d="M31.52 25.14c.49-.67 1.4-.7 2.36-.74.78-.03 1.76-.1 2.4-.37 1.03-.42 1.3-1.02 1.4-1.24.11-.22.2-.58.21-.93.01-.18-.02-.38-.08-.53-.1-.31-.24-.53-.44-.72l.04-.04c.2.19.35.43.46.74.06.16.09.36.08.55-.01.32-.08.7-.19.9-.13.29-.4.9-1.45 1.33-.65.27-1.64.34-2.42.37-.95.03-1.85.07-2.37.68" fill="#4b2508"/><path fill="#4b2508" d="M31.48 25.12l-.03-.05.28-.24.44-.24.78-.16-.97.31-.33.22zM36.61 21.29c-.11-.07-.19-.11-.26-.15a.45.45 0 0 0-.51.09l-.04-.03c.08-.11.35-.24.58-.11.07.04.16.09.23.2M24.25 22.26c.05-.05.09-.03.09-.06.01-.02-.01-.02-.03-.03-.03-.01-.05-.02-.08-.03a.3.3 0 0 1-.08-.04c-.01 0-.04-.02-.04 0-.01.04.1.04.06.13-.01.02-.02.05-.08.11l-.25.27c0 .01-.01.02-.02.02s-.01-.02-.01-.03l.01-.38c0-.07.01-.13.02-.16.02-.05.07-.01.08-.04.01-.02 0-.02-.03-.03-.02-.01-.05-.01-.11-.03-.03-.01-.06-.03-.09-.04-.01-.01-.04-.02-.05 0-.01.01.01.02.01.02.03.03.04.04.04.09l.01.7c0 .05.01.06.02.07.01 0 .02 0 .04-.03l.49-.51z"/><path d="M24.54 22.37c.03-.1.09-.04.1-.08 0-.01 0-.02-.03-.03-.06-.02-.09-.02-.13-.03-.04-.01-.07-.03-.11-.04-.01 0-.03-.01-.04 0-.01.04.11.04.08.14l-.16.51c-.03.1-.09.05-.1.09 0 .01 0 .02.01.02.02.01.07.02.11.03.07.02.11.04.15.05.02.01.03.01.03-.01.01-.03-.11-.02-.07-.15l.16-.5zM24.89 22.47c.02-.06.05-.06.09-.05.1.03.13.13.1.23-.02.06-.04.12-.19.08-.03-.01-.06-.02-.06-.04l.06-.22zm-.27.47c-.04.14-.11.08-.12.11 0 .02.02.03.03.03.05.01.1.02.15.04.04.01.06.02.08.03.02.01.03 0 .03-.01.01-.04-.1-.02-.06-.14l.06-.18c.01-.04.01-.05.06-.03.05.01.06.03.07.08l.03.19c.01.07.02.15.1.17.04.01.11.01.12-.03 0-.01 0-.02-.01-.02-.01-.01-.02 0-.03 0-.01 0-.03-.01-.03-.03-.03-.16-.07-.34-.06-.34 0-.01.04-.01.07-.03.04-.02.07-.05.09-.12.01-.05.04-.21-.17-.27-.07-.02-.13-.03-.2-.05-.06-.02-.07-.02-.11-.04-.01-.01-.02 0-.03.01-.01.04.11.03.07.15l-.14.48zM25.41 23.17c-.03.13-.13.05-.14.09-.01.02.01.03.03.03.04.01.07.01.14.03.06.02.1.03.13.04.03.01.05.02.05-.01.01-.03-.13-.03-.09-.16l.12-.49c.01-.05.02-.06.06-.05l.08.02c.12.02.05.14.1.15.02.01.02-.04.03-.05l.01-.1c0-.01.01-.03-.01-.03-.09-.02-.16-.03-.3-.07-.15-.03-.21-.05-.3-.08-.01 0-.02.01-.02.02l-.05.14c0 .01-.02.04 0 .04.04.01.05-.14.16-.11l.08.02c.04.01.05.02.04.07l-.12.5zM26.61 22.87c.04-.06.08-.05.08-.07 0-.02-.01-.02-.03-.02-.03-.01-.06-.01-.08-.01a.31.31 0 0 0-.08-.02c-.01 0-.04-.01-.04.01-.01.04.1.01.08.12 0 .02-.01.06-.06.12l-.2.31c0 .01-.01.02-.02.02 0 0-.01-.02-.01-.03l-.06-.38c-.01-.07-.01-.12-.01-.16.01-.04.07-.02.07-.05.01-.02 0-.02-.03-.03-.02 0-.04 0-.11-.02a.355.355 0 0 0-.1-.02c-.01 0-.04-.02-.05.01 0 .01.01.02.01.02.04.02.05.03.06.08l.13.69c.01.05.02.06.03.07.01 0 .02-.01.03-.03l.39-.61zM26.66 23.5c0 .03 0 .04.02.05.06.02.1.06.16.07.13.02.24-.06.26-.21.02-.14-.03-.2-.13-.27-.12-.09-.17-.11-.16-.19.01-.07.06-.11.13-.1.17.03.15.24.17.24.02 0 .03-.01.03-.03l.01-.15c0-.03.01-.04-.01-.04-.01 0-.04.01-.06.01-.03 0-.06-.05-.15-.07-.12-.02-.21.06-.23.19-.02.12.03.17.11.23.15.1.21.13.19.22-.02.09-.09.13-.16.12-.11-.02-.15-.13-.17-.24 0-.01 0-.02-.02-.03-.02-.01-.02.03-.02.04l.03.16zM28.15 23.08c.03-.06.07-.06.08-.08 0-.02-.01-.02-.03-.02h-.09c-.03 0-.06-.01-.08-.01-.01 0-.04-.01-.04.01 0 .04.1.01.1.11 0 .02-.01.06-.04.13l-.17.33c0 .01-.01.02-.01.02-.01 0-.01-.02-.01-.02l-.1-.37a.613.613 0 0 1-.03-.16c0-.05.06-.02.06-.05 0-.02 0-.02-.04-.02-.02 0-.04 0-.11-.01-.04 0-.07-.01-.1-.01-.02 0-.05-.01-.05.01 0 .01.01.02.01.02.04.02.05.03.07.07l.2.67c.01.05.02.06.03.06.01 0 .02-.01.03-.04l.32-.64z" fill="#4b2508"/><path d="M28.31 23.62c0 .12-.1.09-.1.14 0 .02.02.01.03.01.03 0 .05-.01.09 0 .04 0 .07.01.12.01.01 0 .04 0 .04-.01 0-.05-.13.02-.13-.19v-.38c0-.01 0-.02.01-.02l.02.02.48.59c.01.01.01.02.03.02.01 0 .01-.01.01-.03l.01-.63c0-.12.09-.09.09-.12 0 0 0-.01-.02-.01h-.11c-.07 0-.1-.01-.12-.01-.01 0-.02.01-.02.02 0 .04.12.02.12.12l-.01.37c0 .03 0 .04-.01.04s-.02-.01-.03-.03l-.4-.5c-.02-.02-.01-.03-.04-.03h-.11c-.02 0-.04-.01-.06-.01-.01 0-.02.01-.02.02 0 .06.11-.02.11.2l.02.41zM29.29 23.12c0-.11.08-.07.08-.1 0-.01 0-.02-.04-.02-.06 0-.09.01-.13 0h-.12c-.01 0-.04 0-.04.02 0 .04.11.01.11.11v.54c0 .11-.07.08-.07.12 0 .01 0 .02.01.02h.11c.08 0 .12.01.15.01.02 0 .03-.01.03-.02 0-.04-.11.02-.11-.12l.02-.56zM29.71 23.64c0 .13-.11.08-.11.13 0 .02.02.02.04.02.04 0 .07 0 .14-.01h.14c.03 0 .05 0 .05-.02 0-.03-.13 0-.13-.14v-.51c0-.05.01-.06.05-.06h.09c.12-.01.08.12.13.12.03 0 .01-.04.01-.06l-.01-.1c0-.01 0-.03-.02-.03-.1 0-.16 0-.31.01h-.31c-.01 0-.01.02-.02.03l-.01.15c0 .02-.01.04.01.04.04 0 .01-.15.13-.15h.09c.04 0 .05.01.05.06l-.01.52zM30.3 23.43c-.02 0-.03 0-.03-.01 0-.02.01-.03.01-.04l.06-.2.01-.01.01.01.1.2c.01.01.01.03.01.04 0 .01-.01.01-.03.01h-.14zm.17.04c.03 0 .03.01.07.09.01.03.02.05.03.08.01.06-.07.06-.07.09 0 .01.01.01.03.01.03 0 .07-.01.11-.01.07-.01.09 0 .13-.01.03 0 .04 0 .03-.02 0-.04-.05.01-.09-.06l-.32-.67c-.02-.03-.02-.03-.03-.03-.01 0-.02.02-.02.04l-.22.7c-.02.06-.07.06-.07.09 0 .01.02.01.03.01.03 0 .06-.01.09-.01h.09c.02 0 .06 0 .05-.02 0-.03-.11 0-.12-.08 0-.03.01-.07.01-.09.02-.08.04-.08.05-.08l.22-.03zM31.25 23.01c-.01-.07-.01-.08.11-.09.2-.02.13.12.18.11.02 0 .01-.04.01-.05l-.02-.11c0-.01-.01-.02-.02-.02-.09.01-.16.03-.23.03-.15.02-.23.03-.27.03-.01 0-.02.01-.02.02 0 .04.11-.01.13.09l.07.52c.02.14-.07.09-.06.14 0 .01.01.01.02.01.05-.01.1-.02.13-.02.04-.01.08-.01.12-.01.03 0 .05 0 .05-.02-.01-.03-.11.01-.13-.11l-.02-.16c-.01-.07-.01-.08.03-.08l.08-.01c.11-.01.09.11.12.1.02 0 .01-.04.01-.06l-.03-.2c-.01-.03-.01-.03-.02-.03-.02 0-.01.11-.1.12l-.06.01c-.05.01-.05 0-.05-.05l-.03-.16zM31.62 23.26c.04.22.2.35.4.31.31-.06.33-.34.3-.5-.04-.23-.22-.35-.41-.31-.23.05-.33.26-.29.5m.11-.08c-.03-.16-.01-.32.16-.35.13-.03.27.08.32.32.04.18.01.34-.16.38-.18.03-.29-.19-.32-.35M32.52 22.79c-.02-.07.01-.07.05-.08.1-.03.18.04.2.15.01.06.02.13-.13.16-.03.01-.07.02-.07-.01l-.05-.22zm0 .53c.03.14-.06.12-.05.16.01.02.03.02.04.01.05-.01.1-.03.15-.04.04-.01.07-.01.08-.02.02-.01.03-.01.03-.02-.01-.04-.1.03-.12-.09l-.04-.19c-.01-.04-.02-.05.04-.06.05-.01.07-.01.1.04l.12.15c.05.06.1.12.17.1.04-.01.1-.05.09-.08 0-.01-.01-.01-.02-.01s-.02.01-.03.01c-.01 0-.03.01-.04-.01-.1-.12-.23-.26-.23-.26 0-.01.02-.03.05-.06.02-.03.04-.08.03-.15-.01-.05-.07-.2-.28-.15-.07.02-.13.04-.2.05-.06.02-.07.01-.12.02-.01 0-.02.01-.02.02.01.04.11-.03.13.09l.12.49zM33.33 23.14c.03.13-.09.11-.08.15.01.03.02.02.04.02.04-.01.07-.02.13-.04.07-.02.1-.02.14-.03.03-.01.05-.01.04-.04-.01-.03-.13.03-.16-.1l-.13-.49c-.01-.05 0-.06.04-.07l.08-.02c.11-.03.11.1.15.08.03-.01 0-.04 0-.06l-.04-.1c0-.01-.01-.03-.02-.02-.09.03-.16.05-.3.08s-.21.05-.3.07c-.01 0-.01.02-.01.03l.02.15c0 .02 0 .04.02.03.04-.01-.02-.15.09-.17l.08-.02c.04-.01.05-.01.06.05l.15.5zM33.85 22.45c-.03-.1.05-.08.04-.12 0-.01-.01-.01-.04-.01-.06.02-.09.03-.13.04-.03.01-.07.02-.11.03-.01 0-.03.01-.03.02.01.04.11-.02.14.08l.14.52c.03.1-.05.09-.04.13 0 .01.01.01.01.01.03-.01.07-.02.11-.04.08-.02.11-.03.15-.04.02-.01.03-.01.03-.03-.01-.03-.1.05-.14-.09l-.13-.5zM34.06 22.7c.07.21.25.31.44.25.31-.1.28-.38.23-.53-.08-.23-.26-.31-.45-.25-.23.08-.3.3-.22.53m.1-.1c-.05-.15-.05-.32.11-.37.12-.04.28.04.36.28.06.18.06.34-.11.4-.17.05-.31-.15-.36-.31M34.87 22.09c-.02-.06 0-.08.04-.09.09-.04.18.02.22.12.02.06.04.12-.1.18-.03.01-.06.02-.07 0l-.09-.21zm.08.53c.05.13-.04.13-.02.16.01.02.03.01.04.01.05-.02.09-.04.14-.06a.22.22 0 0 0 .08-.03c.02-.01.03-.02.02-.03-.01-.04-.09.04-.13-.07l-.08-.18c-.01-.04-.02-.04.03-.06.05-.02.07-.01.11.02l.15.14c.05.05.11.1.18.07.04-.02.09-.06.08-.09 0-.01-.01-.01-.02-.01s-.01.01-.02.02c-.01 0-.03.01-.04-.01-.12-.11-.26-.22-.26-.23 0-.01.02-.03.04-.07.02-.04.03-.08 0-.15-.02-.05-.1-.19-.3-.11-.06.03-.13.06-.19.08-.06.02-.07.02-.11.04-.01.01-.02.01-.01.03.01.04.1-.04.15.08l.16.45zM36.72 19.73c-.17-.16-.32-.36-.46-.61a1.72 1.72 0 0 1-.16-.43c-.02-.09-.04-.2-.05-.32-.01-.18.01-.37.06-.59.07-.35.2-.63.39-.86.07-.09.14-.17.21-.22-.03.09-.1.17-.15.24-.19.24-.31.51-.38.85-.04.22-.06.4-.06.58a1.586 1.586 0 0 0 .2.72c.13.25.28.45.45.6l-.05.04z" fill="#4b2508"/><path d="M36.97 19.18l-.06-.01c-.03-.02-.06-.05-.09-.07-.26-.27-.41-.65-.41-1.02 0-.38.15-.79.35-.96-.15.2-.29.6-.29.96s.15.72.4.98c.02.03.05.05.08.07l.02.05z" fill="#4b2508"/><path fill="#4b2508" d="M36.44 17.98l-.05-.01.06-.39.15-.35.11-.12-.25.72zM37.49 20.47c-.07 0-.14-.01-.22-.03-.04-.01-.09-.03-.14-.05l.02-.06c.05.02.09.03.13.05.13.04.25.04.36.01.13-.04.24-.12.29-.23a.46.46 0 0 0-.01-.38.55.55 0 0 0-.15-.19c.11.01.17.09.21.17.07.15.07.3.01.42-.06.13-.18.22-.33.26-.05.02-.11.03-.17.03"/><path d="M37.87 19.63l-.06-.01.03.01-.02-.07c0-.1-.04-.19-.11-.25l-.05-.12c.02.01.05.03.07.05.11.1.15.21.15.32l-.01.07z" fill="#4b2508"/><path d="M37.66 19.25c0-.15-.13-.27-.3-.3.21-.02.35.12.36.3h-.06zM37.09 17.31c-.12 0-.24-.04-.32-.14l.05-.04c.09.12.26.14.38.11.09-.03.17-.08.22-.17.05-.1.07-.22.03-.33a.507.507 0 0 0-.07-.15.519.519 0 0 0-.12-.13v-.07c.08.06.14.13.17.17.04.06.07.1.08.16.04.12.02.26-.04.37a.444.444 0 0 1-.38.22" fill="#4b2508"/><path fill="#4b2508" d="M37.06 17.28l-.09-.01.36-.14.09-.19.01-.14.06.01-.05.25-.15.17zM37.41 20.1c-.05 0-.09-.01-.13-.03-.01-.01-.03-.03-.03-.05v-.01c.01-.01 0-.02.01-.01.11.05.21.04.28-.01.03-.03.07-.08.04-.16.09.07.07.15 0 .21-.04.04-.11.06-.17.06"/><path d="M37.23 19.85c0-.1.08-.18.19-.18s.19.08.19.18a.19.19 0 1 1-.38 0M36.48 15.67c0-.08.07-.15.14-.15.08 0 .14.07.14.15 0 .08-.06.15-.14.15-.07 0-.14-.07-.14-.15M36.38 13.57c0-.04.05-.08.11-.08s.11.04.11.08c0 .05-.05.08-.11.08-.06.01-.11-.03-.11-.08" fill="#dbc190"/><path d="M35.79 12.61c-.1-.03-.16-.14-.16-.24-.01-.4.39-.79.71-1.11.11-.1.2-.2.27-.28.29-.36.4-.51.41-.86 0-.24-.21-.48-.43-.5l.01-.06c.25.02.49.29.48.56-.01.37-.13.53-.41.88-.07.09-.17.19-.28.3-.3.29-.71.69-.7 1.07 0 .07.03.16.1.24" fill="#4b2508"/><path d="M35.8 12.54c0-.1.07-.18.15-.18.08 0 .15.08.15.18 0 .1-.07.18-.15.18a.176.176 0 0 1-.15-.18" fill="#dbc190"/><path d="M35.96 12.72c-.09 0-.16-.08-.16-.18 0-.2.31-.2.31 0 0 .1-.07.18-.15.18m0-.35c-.08 0-.15.08-.15.17 0 .18.29.19.29 0 0-.09-.07-.17-.14-.17" fill="#dbc190"/><path fill="#4b2508" d="M35.66 12.28l-.05-.01.03-.16.16-.3 1.12-1.37.04-.2.01-.25-.02-.06.08.05-.06.48-.21.36-1 1.17-.07.14zM36.32 12.82l-.06-.02c.04-.15.03-.29-.04-.38a.232.232 0 0 0-.19-.09c.1-.06.18-.02.23.05.09.12.11.28.06.44M35.8 13.15c-.05 0-.1-.01-.15-.03a.769.769 0 0 1-.2-.13l.04-.04c.05.05.11.09.18.12.11.05.25.04.38-.03-.07.07-.16.11-.25.11M35.86 11.14l.01-.09c.14-.14.26-.26.37-.38.16-.2.36-.43.36-.81 0-.34-.26-.65-.54-.65v-.06c.31 0 .59.34.59.71 0 .4-.21.65-.36.83-.12.14-.24.26-.38.4l-.05.05z"/><path d="M35.58 10.53c.21-.21.5-.48.51-.86.01-.24-.03-.39-.14-.56a.581.581 0 0 0-.25-.22c-.01-.01-.02-.02-.01-.04s.02-.02.04-.01c.1.05.2.13.27.24.12.18.16.34.15.59-.02.41-.32.69-.57.86" fill="#4b2508"/><path d="M35.47 10.51c-.01-.01-.02 0-.02 0l.04-.03c.02-.02.04-.03.07-.06l.11-.08-.01-.01c.04-.04.06-.06.09-.11.02-.03.04-.05.05-.08.01.04-.01.06-.03.1-.03.04-.05.07-.09.1-.02.02-.04.04-.06.05-.08.07-.1.09-.13.1.01.01-.01.02-.02.02" fill="#dbc190"/><path d="M34.98 10.13c.17-.2.25-.31.31-.54.04-.15.03-.45-.14-.65-.02-.02-.04-.04-.05-.06a.03.03 0 0 1 0-.04.03.03 0 0 1 .04 0c.02.02.04.04.06.07.18.22.19.54.15.7-.06.25-.15.36-.37.52" fill="#4b2508"/><path d="M34.84 10.14l.05-.05c.03-.02.05-.04.08-.08a.67.67 0 0 0 .09-.14c.02-.03.03-.05.04-.07.01.04 0 .06-.02.09-.03.06-.06.09-.1.14-.03.04-.05.06-.08.08 0 .01-.04.03-.04.02l-.02.01" fill="#dbc190"/><path d="M34.35 10.12c.18-.18.3-.33.35-.53.08-.34 0-.64-.23-.81-.01-.01-.02-.03-.01-.04.01-.01.03-.02.04-.01.25.19.34.51.25.87-.05.22-.17.38-.4.52" fill="#4b2508"/><path d="M34.28 10.1c-.01 0-.01 0 0 0-.01-.01-.02 0-.02 0l.04-.03c.03-.02.05-.03.08-.06s.05-.04.08-.07c.02-.02.03-.04.05-.06l.07-.08-.01-.01.06-.1h-.01c0-.01.02-.05.03-.05.01 0 .02-.03.02-.03l-.02.09c-.02.06-.03.08-.04.11l-.05.08c-.03.04-.04.05-.06.08-.03.03-.05.05-.08.07-.03.03-.06.04-.08.06-.04-.01-.06 0-.06 0" fill="#dbc190"/><path d="M32.95 10.56c.28-.11.54-.21.76-.36.38-.26.71-.55.55-.94a.55.55 0 0 0-.2-.23l.03-.05c.1.07.17.16.22.26.18.43-.19.75-.57 1.01-.23.15-.49.25-.79.31" fill="#4b2508"/><path d="M33.67 9.84c-.12 0-.22-.05-.32-.15a.282.282 0 0 1-.07-.11c.05 0 .07.02.12.07.11.12.21.13.28.13v.06zM31.9 10.06a.325.325 0 0 1-.13-.1.411.411 0 0 1-.08-.44c.02-.05.05-.13.1-.23.11-.23.25-.55.26-.79.02-.48-.15-.81-.48-.93.38.08.56.43.54.94-.01.25-.16.58-.27.81-.04.09-.08.17-.1.22-.05.15-.03.28.07.38.03.03.07.06.11.08l-.02.06z" fill="#4b2508"/><path d="M31.7 9.73l-.07-.08.06-.23.27-.64.06-.39c0-.02.02-.03.03-.03.02 0 .03.01.03.03l-.01.2-.24.67-.14.39.01.08zM36.29 14.52c-.07 0-.13-.01-.2-.03-.24-.07-.45-.19-.59-.34-.08-.08-.12-.12-.15-.19-.01-.01 0-.03.02-.04.01-.01.03 0 .04.02.02.06.05.09.09.13.18.19.38.3.61.37.2.06.4.03.57-.08-.11.11-.24.16-.39.16" fill="#4b2508"/><path d="M36.37 14.27c-.05 0-.07 0-.1-.01-.06-.01-.08-.01-.11-.02s-.05-.03-.08-.04l-.03-.05.04.03c.02.02.04.03.07.04.03.01.05.01.08.02.06.01.08.01.11.01h.13c.03 0 .05-.01.07-.02.04-.01.06-.01.09-.03l.09-.03v-.01l.1-.04.01.01-.18.09c-.03.01-.05.02-.08.03-.04.01-.06.01-.09.02h-.12M36.73 14.82h-.06l.05-.03c.02-.01.04-.02.07-.04.04-.03.06-.05.1-.08.04-.03.05-.05.08-.08s.04-.05.06-.08c.04-.07.05-.09.07-.13.02-.03.03-.06.04-.09l.03-.07.01.08c-.01.03-.02.06-.04.1-.02.04-.03.07-.06.11-.04.06-.05.08-.08.11s-.05.06-.08.08c-.04.04-.06.06-.11.09-.04.01-.06.02-.08.03M35.61 17.05c-.01 0-.01 0 0 0-.01-.01-.02-.02-.01-.02l.27-.28-.04.07-.22.23M35.66 17.17c-.01-.01-.02-.01-.01-.02l.31-.42-.3.44c.01 0 .01 0 0 0M35.82 19.56l-.08-.03-.11-.08-.09-.09c-.03-.04-.05-.06-.08-.11v-.02h.02c.03.04.04.07.08.1.03.04.05.05.08.08.05.04.08.07.11.09l.07.06zM35.71 21.58c-.03-.13.03-.25.14-.28.11-.03.22.05.25.18s-.03.25-.14.28c-.11.03-.22-.05-.25-.18" fill="#dbc190"/><path d="M35.92 21.78c-.1 0-.19-.08-.22-.19-.03-.13.03-.26.14-.29.14.01.23.07.26.19.03.13-.03.26-.14.29h-.04zm-.03-.48c-.14.03-.2.15-.17.27.03.11.11.18.2.18v.01l.04-.01c.1-.03.16-.15.13-.27-.03-.1-.11-.18-.2-.18M36.71 19.37c-.05-.01-.08-.04-.11-.08-.03-.03-.05-.05-.06-.08l-.04-.1-.01.01-.06-.13c0-.01 0-.01.01-.02.01 0 .01 0 .02.01l.12.22c.01.03.03.04.05.06.02.05.05.08.08.11M36.96 20.52c-.04 0-.06-.02-.09-.04-.04-.03-.06-.04-.1-.06-.05-.03-.06-.04-.09-.05-.04-.02-.06-.03-.09-.05-.03-.02-.06-.02-.09-.03l-.04-.03h.05c.03.01.05.02.09.03l.1.05c.03.01.05.02.07.04.06.04.09.05.12.08.02.03.04.04.07.06" fill="#dbc190"/><path d="M35.82 21.99h-.01c-.22 0-.47-.18-.54-.3 0 0-.04-.04-.06-.08-.01-.02 0-.03.01-.04.01-.01.03 0 .04.02.01.03.05.07.05.07.06.1.29.27.49.27.39.02.42-.27.42-.28.04-.25-.04-.32-.17-.39 0 0-.07-.04-.16-.02.09-.08.18-.03.19-.03.14.08.25.16.2.45.01.01-.05.33-.46.33" fill="#4b2508"/><path fill="#4b2508" d="M35.83 21.99l-.02-.05.26-.09.1-.13.03-.18.05.08-.08.21-.06.06-.12.07zM21.49 20.47a.88.88 0 0 1-.17-.02.643.643 0 0 1-.37-.29.481.481 0 0 1-.02-.39c.01.14.02.26.07.37.06.12.19.22.34.27.09.03.21.03.33 0l.01.06c-.07-.01-.13 0-.19 0"/><path fill="#4b2508" d="M21.47 20.44l-.12-.01v-.06l.12.01.14-.01.13-.05-.12.1zM21.47 20.1c-.05 0-.09-.01-.13-.03-.08-.04-.12-.13-.11-.23.05.08.08.15.14.18.07.04.17.03.24-.01.05-.03.08-.1.08-.18 0-.07-.03-.12-.03-.13-.07-.12-.17-.19-.29-.19-.02 0-.03-.01-.03-.03 0-.02.01-.03.03-.03.13 0 .25.08.33.22.02.04.04.1.04.16 0 .08-.04.19-.11.23-.04.02-.1.04-.16.04"/><path d="M21.26 19.82c0-.12.07-.21.17-.21.09 0 .17.09.17.21s-.07.21-.17.21-.17-.1-.17-.21" fill="#dbc190"/><path d="M21.43 20.03c-.1 0-.17-.1-.17-.22s.08-.22.17-.22c.1 0 .17.09.17.22 0 .12-.08.22-.17.22m0-.42c-.09 0-.16.09-.16.2 0 .11.07.2.16.2s.16-.09.16-.2c0-.11-.08-.2-.16-.2" fill="#dbc190"/><path d="M22.34 20.08l.07-.11c.07-.06.14-.11.2-.17.28-.29.46-.63.54-1.05.09-.4.04-.85-.02-1.12-.15-.62-.59-1.15-1.03-1.24l.01-.06c.46.09.93.64 1.08 1.28.07.27.11.73.02 1.15-.09.43-.27.78-.56 1.07-.06.06-.13.12-.2.17l-.11.08z" fill="#4b2508"/><path d="M21.89 17.31c-.04 0-.08-.01-.12-.02a.535.535 0 0 1-.3-.23.465.465 0 0 1-.06-.23c.06.07.08.14.11.2.05.08.17.17.27.2.13.03.26.01.35-.07.07-.06.11-.17.09-.29 0-.03-.01-.06-.03-.08l.04-.04c.03.03.04.08.05.12.02.18-.05.29-.11.34-.08.06-.19.1-.29.1" fill="#4b2508"/><path fill="#4b2508" d="M21.92 17.27l-.07-.05.26-.09.04-.05.05-.18.05.01-.05.2-.11.11zM21.86 19.55c.02-.1.05-.18.05-.27 0-.18-.16-.35-.33-.35v-.06c.2 0 .38.19.38.41.01.11-.03.2-.1.27"/><path d="M21.72 19.84c.04-.11.09-.21.09-.31a.38.38 0 0 0-.36-.36v-.07c.21 0 .42.21.42.42 0 .13-.06.24-.15.32" fill="#4b2508"/><path d="M22.17 19.37l.03-.04.05-.07c.03-.04.05-.06.06-.09l.06-.08h-.01c0-.01.04-.07.05-.07.01 0 .04-.04.04-.04l-.08.12.01.01-.06.08.01.01c-.02.03-.03.05-.05.07l-.07.08c0 .01-.03.03-.03.02h-.01M21.9 20.56l.06-.08c.05-.03.07-.05.12-.08.04-.02.06-.04.1-.06.03-.02.06-.03.09-.04.01 0 .04-.01.04-.01 0 .01.02 0 .02 0l-.06.03a.3.3 0 0 0-.08.04c-.04.02-.06.04-.1.06-.05.03-.07.05-.12.08l-.07.06zM23.25 17.03l-.01-.01-.16-.15c0-.01-.05-.05-.04-.05 0-.01-.03-.04-.03-.04l.09.07c.03.03.05.05.08.07l.08.08c0 .01.01.02-.01.03.01 0 0 0 0 0" fill="#dbc190"/><path d="M23.66 17.86a3.06 3.06 0 0 0-.41-.7c-.01-.01-.01-.03.01-.04.01-.01.03-.01.04.01.17.22.3.44.36.73M23.17 19.5c.09-.16.22-.33.29-.47.06-.13.11-.25.13-.37 0-.02.02-.03.03-.02.02 0 .03.02.02.03-.03.13-.07.25-.14.39-.06.14-.19.31-.33.44" fill="#4b2508"/><path d="M23.31 17.15c.13-.15.24-.29.29-.47l.06.02c-.06.19-.18.34-.35.45M23.66 16.15c-.1-.15-.21-.28-.38-.42l.04-.05c.18.15.29.3.34.47" fill="#4b2508"/><path d="M23.34 15.71c.12-.19.22-.31.27-.46 0-.02.02-.02.04-.02.01 0 .02.02.02.04-.06.16-.17.29-.33.44M22.66 15.04c-.22 0-.4-.05-.57-.17-.21-.14-.35-.33-.39-.54.1.18.23.37.43.49.16.11.34.16.55.16.35 0 .65-.19.8-.37.07-.07.11-.15.14-.22.01-.01.02-.02.04-.02.01.01.02.02.02.04-.03.08-.08.16-.15.23-.19.2-.49.4-.87.4z" fill="#4b2508"/><path d="M22.16 14.81c-.03 0-.05-.01-.08-.03-.05-.04-.08-.06-.13-.11s-.08-.09-.12-.15-.06-.09-.09-.16a.31.31 0 0 1-.02-.08c0-.01-.01-.04 0-.04s.01-.02.01-.02l.02.06c.01.03.01.05.02.08.03.07.05.1.09.16.04.06.06.09.12.15.05.05.07.07.13.1.03.02.06.03.09.05-.02-.01-.03-.01-.04-.01" fill="#dbc190"/><path d="M23.66 13.29c-.09-.1-.17-.2-.27-.29l.04-.04c.11.09.19.21.23.33M22.64 14.52c-.19 0-.38-.06-.46-.13.13.03.41.11.63.05.58-.15.75-.59.79-.72.01-.02.02-.02.04-.02s.02.02.02.04c-.04.14-.23.6-.83.76-.06.01-.12.02-.19.02" fill="#4b2508"/><path d="M22.56 14.43h-.03c-.06 0-.1 0-.16-.02-.05-.01-.07-.02-.12-.04-.03-.01-.06-.03-.08-.04-.01 0-.03-.02-.02-.03 0-.01-.01-.02 0-.02l.04.02c.02.02.05.03.08.04.04.02.07.03.11.04.06.02.1.02.16.02.07 0 .09 0 .17-.01-.07.03-.1.04-.15.04" fill="#dbc190"/><path d="M22.47 14.13c-.31 0-.51-.18-.54-.46l.06-.01c.02.26.2.41.48.41.2 0 .33-.1.42-.29.11-.24.07-.54-.12-.75.25.2.3.52.18.78-.11.2-.28.32-.48.32" fill="#4b2508"/><path d="M22.46 14.1c-.01 0-.02-.01-.03-.02 0-.02.01-.03.02-.04l.2-.05.11-.09.07-.1.09-.3.03.15-.15.29-.13.1-.21.06" fill="#4b2508"/><path d="M22.2 13.45c.03-.09.12-.14.2-.11.09.02.14.12.11.2-.02.09-.12.14-.2.11-.08-.02-.13-.12-.11-.2" fill="#dbc190"/><path d="M22.36 13.66l-.05-.01a.18.18 0 0 1-.12-.21c.02-.07.09-.13.17-.13.09.02.13.05.15.09.02.04.03.09.01.13-.01.08-.08.13-.16.13m.03-.32c-.1 0-.16.05-.18.11-.02.08.03.17.11.2l.04.01c.07 0 .13-.05.15-.12.01-.04.01-.08-.01-.12s-.05-.06-.1-.07c0-.01-.01-.01-.01-.01M21.29 14.49l-.02-.1.15-.51.16-.24.24-.18.18-.05v.02l-.17.05-.23.18-.16.23z" fill="#dbc190"/><path d="M21.41 15.7a.466.466 0 0 1-.18-.2c-.09-.16-.16-.35-.21-.59l-.03-.18c-.01-.13-.02-.38.05-.66.03-.1.04-.16.09-.25.03-.07.09-.17.13-.23.05-.07.09-.11.14-.15.05-.04.1-.08.15-.11.35-.22.66-.2.83-.11l-.01.02c-.17-.09-.47-.11-.8.11-.05.03-.1.07-.15.11-.05.04-.09.08-.13.15-.04.06-.1.16-.13.23a1.815 1.815 0 0 0-.15.83c.02.14.02.2.04.25.04.23.11.43.2.58.04.04.09.12.16.2M22.08 15.64c0-.1.07-.17.16-.17s.16.08.16.17c0 .09-.07.17-.16.17-.09.01-.16-.07-.16-.17" fill="#dbc190"/><path d="M21.75 16.33c-.21 0-.41-.11-.58-.26-.08-.07-.16-.14-.22-.22-.01-.01-.01-.03.01-.04a.03.03 0 0 1 .04 0c.06.08.13.15.21.21.17.15.35.25.54.31M22.24 16.43c-.02 0-.03-.01-.03-.02 0-.02.01-.03.03-.03.19-.02.34-.1.44-.23a.56.56 0 0 0 .11-.42c-.03-.26-.27-.44-.41-.45.19-.04.44.18.47.45.02.17-.02.34-.12.46-.12.12-.29.21-.49.24z" fill="#4b2508"/><path fill="#4b2508" d="M22.2 16.41l.41-.25.11-.19.03-.19.06.01-.07.3-.09.11-.23.15zM23.13 13.18c-.13 0-.26-.05-.34-.12.15.04.33.1.49.03.16-.08.27-.19.33-.36l.06.02c-.06.18-.18.31-.36.39-.06.02-.12.04-.18.04"/><path fill="#4b2508" d="M23.15 13.15l-.06-.01.06-.05.2-.08.21-.26.04-.12.05.02-.09.22-.17.19zM23.18 12.59c-.06-.07-.09-.14-.14-.19a.227.227 0 0 0-.16-.06v-.06c.07-.01.15.03.2.08.06.05.1.14.1.23"/><path d="M22.92 12.75h-.03c.14-.05.22-.12.26-.29 0-.01.02-.02.04-.02.01 0 .02.02.02.04-.02.07-.07.27-.29.27" fill="#4b2508"/><path d="M22.72 12.53c0-.11.08-.19.18-.19.1 0 .18.09.18.19 0 .11-.08.19-.18.19-.1.01-.18-.08-.18-.19" fill="#dbc190"/><path d="M22.9 12.73c-.1 0-.19-.09-.19-.2 0-.22.37-.22.37 0 0 .11-.08.2-.18.2m0-.38c-.1 0-.17.08-.17.19 0 .21.34.21.34 0 0-.11-.08-.19-.17-.19" fill="#dbc190"/><path d="M23.33 10.48c-.25-.07-.43-.28-.52-.51 0-.01 0-.03.02-.04.02-.01.03 0 .04.02.09.22.25.41.46.53" fill="#4b2508"/><path d="M23.38 10.59l-.07-.04c-.04-.02-.08-.04-.13-.07-.07-.05-.12-.08-.18-.15-.05-.05-.07-.07-.11-.12-.02-.03-.03-.05-.05-.07.04.01.05.03.07.06.04.05.06.08.11.12.06.06.1.09.18.14.05.03.08.05.12.07l.07.04c.01 0 .01.01 0 .02h-.01M23.99 10.19c-.05-.01-.08-.03-.11-.05a.83.83 0 0 1-.16-.13.669.669 0 0 1-.14-.19c-.02-.04-.03-.07-.04-.1 0-.01-.01-.04 0-.05.01 0 0-.03.01-.02l.02.06c.01.03.02.06.04.1.04.08.07.13.13.19.05.06.1.09.15.13.03.01.07.03.1.06M24.5 10.09c-.05 0-.08-.02-.13-.05a.797.797 0 0 1-.21-.25c-.02-.03-.03-.06-.04-.09 0-.01-.01-.04 0-.05.01 0 0-.02.01-.02l.02.06c.01.03.02.05.04.09.02.05.04.07.08.11.05.05.07.08.13.12.04.04.07.06.1.08zM24.96 9.47c-.01-.1.05-.18.13-.19.08-.01.16.06.17.16.01.09-.05.18-.13.19-.09.01-.16-.06-.17-.16" fill="#dbc190"/><path d="M36.47 14.11c-.17 0-.33-.09-.43-.25.14.11.29.2.44.19.24 0 .35-.14.39-.22.06-.13.05-.29-.02-.4-.01-.01-.01-.03.01-.04.01-.01.03-.01.04.01.09.12.1.31.03.46-.08.16-.24.25-.44.25h-.02zM21.99 16h-.05c-.31-.03-.56-.21-.75-.52-.1-.16-.17-.35-.21-.59a.88.88 0 0 1-.02-.17l-.01-.08c-.01-.07-.01-.32.06-.6.03-.1.04-.16.09-.25.04-.07.09-.17.14-.23.05-.07.09-.11.14-.15l.15-.12c.4-.25.8-.2.99-.01l-.04.04c-.17-.17-.54-.21-.92.02-.05.03-.09.07-.14.11-.04.04-.08.08-.13.14-.04.06-.1.16-.13.22-.04.09-.06.15-.09.24-.08.27-.07.51-.07.58l.01.08c.01.06.01.11.02.17.04.23.11.42.21.57.18.3.41.46.7.49.11.01.27-.02.36-.1.05-.04.07-.09.08-.15.05.08.02.14-.04.2-.09.08-.24.11-.35.11M32.4 10.57h-.03c-.79-.01-1.42-.36-1.83-.59l-.12-.07c-.08-.05-.17-.04-.21.01-.05.06-.04.16.02.22-.13-.04-.14-.17-.06-.26.06-.07.18-.08.29-.02l.12.07c.43.24 1.03.58 1.81.58.52-.01.96-.11 1.31-.35.36-.24.71-.55.55-.94a.443.443 0 0 0-.29-.26.56.56 0 0 0-.47.09c-.09.06-.13.12-.15.19-.03.08-.05.23.04.35.1.13.27.14.33.12.1-.03.17-.1.2-.19.02-.08.01-.16-.03-.21-.02-.03-.07-.05-.12-.04-.06.01-.1.06-.11.12 0 .02-.02.03-.03.02-.02 0-.03-.02-.02-.03.02-.08.08-.15.16-.16.07-.01.14.01.18.06.05.07.07.17.04.27-.04.11-.12.2-.24.23-.09.03-.27.01-.39-.14-.11-.14-.08-.32-.05-.41.02-.08.07-.14.17-.22.14-.11.34-.15.52-.1.15.04.27.15.33.29.18.43-.19.75-.57 1.01-.39.25-.82.36-1.35.36" fill="#4b2508"/><path d="M33.72 9.8c.08-.09.16-.16.19-.25.02-.08.01-.15-.03-.21-.03-.04-.05-.06-.12-.07-.02 0-.03-.01-.03-.03 0-.02 0-.02.03-.03.1.01.13.05.16.08.06.08.07.17.04.27-.03.12-.12.2-.24.24" fill="#4b2508"/><path d="M30.14 10.06c0-.1.08-.18.18-.18.1 0 .18.08.18.18 0 .1-.08.18-.18.18a.18.18 0 0 1-.18-.18M33.59 9.43c.02-.09.09-.15.17-.14.08.01.13.1.11.19-.02.09-.09.15-.17.14a.16.16 0 0 1-.11-.19" fill="#dbc190"/><path d="M28.95 10.57c.14-.17.2-.22.22-.45a.464.464 0 0 0-.22-.44c-.01-.01-.01-.03-.01-.04.01-.01.03-.01.04-.01.18.14.26.29.24.49-.01.25-.08.32-.27.45M35.3 12.01l-.05-1.49h.05z" fill="#4b2508"/><path d="M28.96 10.51c.11-.11.16-.19.17-.33 0-.02.02-.03.03-.03.02 0 .03.01.03.03-.01.17-.08.27-.23.33M30.73 8.88c-.01-.16-.16-.18-.22-.18-.18 0-.22.11-.44.22-.27.15-.39.18-.63.18s-.36-.03-.63-.18c-.22-.11-.25-.22-.43-.22-.1 0-.22.08-.21.23 0 0 0 .05.01.08 0 .01.02.01.02.02 0-.07.01-.11.05-.16.04-.06.12-.08.15-.08.18 0 .24.11.46.23.27.15.39.18.63.18s.36-.03.63-.18c.22-.12.28-.24.45-.24.06 0 .1.04.12.1.01.04.01.06.01.08 0 .01.01.01.01.01 0-.02.02-.03.02-.09" fill="#4b2508"/><path d="M29.48 9.23c-.25 0-.37-.04-.64-.18-.08-.04-.13-.08-.19-.12-.09-.06-.15-.11-.25-.11-.02 0-.09.01-.13.07-.03.04-.04.07-.04.14l-.08-.01c-.01-.03-.01-.09-.01-.09 0-.09.04-.15.07-.18.05-.05.11-.08.17-.08.12 0 .18.05.26.11.05.04.1.08.18.12.26.14.38.17.62.18.24 0 .35-.04.62-.18.08-.04.13-.08.18-.12.08-.06.15-.11.27-.11.06 0 .24.02.25.2 0 .05-.01.07-.01.09l-.01-.01-.07.01-.01-.06c-.01-.03-.03-.08-.1-.08-.1 0-.16.04-.24.11-.05.04-.11.08-.2.13-.26.14-.39.17-.64.17m-.79-.34c.05.03.1.07.18.11.27.14.38.17.62.18.24 0 .36-.04.62-.18.08-.04.14-.09.19-.12.09-.07.16-.12.28-.12.05 0 .09.02.12.06-.03-.08-.12-.09-.18-.09-.1 0-.16.04-.24.1-.05.04-.11.08-.19.12-.28.15-.4.18-.64.18-.25 0-.37-.04-.65-.18a.542.542 0 0 1-.11-.06m-.31-.16c-.05 0-.09.02-.13.06-.02.02-.04.05-.05.1.01-.01.01-.02.02-.03.05-.07.14-.09.18-.09.11 0 .17.04.25.09-.02-.01-.03-.02-.04-.03-.08-.06-.13-.1-.23-.1M25.34 9.81c.15-.09.24-.19.24-.33 0-.03.06-.03.06 0 .01.17-.11.29-.3.33M21.7 15.66a.09.09 0 0 1-.07-.03c-.04-.04-.07-.07-.1-.12-.1-.16-.18-.35-.22-.54-.06-.29-.03-.56-.02-.64.05-.25.13-.45.22-.58.11-.16.26-.27.47-.34l.02.06c-.19.06-.34.17-.44.31-.09.13-.16.32-.21.56-.01.07-.04.33.02.61.03.18.11.37.21.52.03.05.06.08.1.11.02.02.05.04.08.06-.03.02-.05.02-.06.02" fill="#4b2508"/><path d="M21.86 15.74c-.11 0-.19-.06-.28-.15-.03-.04-.07-.08-.1-.13-.1-.15-.18-.35-.22-.54-.05-.28-.03-.56-.01-.64.05-.26.13-.45.22-.58.13-.18.32-.3.58-.36l.01.06c-.24.06-.42.17-.54.34-.09.13-.16.31-.21.56-.02.08-.04.34.01.61a1.422 1.422 0 0 0 .3.64c.12.12.22.18.4.15-.06.03-.11.04-.16.04" fill="#4b2508"/><path d="M21.35 14.29c-.04-.26 0-.42.16-.61.1-.11.19-.16.3-.22.05-.03.1-.05.15-.08.01-.01.03 0 .04.01.01.01 0 .03-.01.04-.06.04-.11.06-.16.09-.1.05-.19.1-.29.2-.14.17-.17.32-.19.57M35.72 15.8c-.03 0-.07-.01-.13-.05-.14-.08-.32-.33-.36-.61-.02-.15-.02-.36.14-.54a.03.03 0 0 1 .04 0c.01.01.01.03 0 .04-.14.16-.15.35-.13.49.04.26.21.5.34.57.05.04.07.04.1.04.02 0 .05.01.09.03l-.09.03z" fill="#4b2508"/><path d="M36.27 15h-.01c-.32 0-.69-.15-.89-.36-.14-.14-.14-.29-.14-.4 0-.16.05-.25.16-.33l.03.05c-.1.07-.13.14-.14.28-.01.15.03.26.13.36.19.2.54.34.85.34.21-.01.38-.05.55-.16a.87.87 0 0 0 .35-.49c.02.16-.08.38-.32.54-.17.11-.36.17-.57.17" fill="#4b2508"/><path d="M35.23 20.11s0 .14-.01.23c-.04.26-.08.41-.2.65-.12.23-.21.35-.39.53-.18.19-.31.27-.55.39-.23.11-.37.15-.62.21s-.39.07-.64.08c-.23.01-.36 0-.6-.02-.25-.02-.39-.05-.64-.07-.2-.02-.32-.03-.53-.03-.21 0-.33 0-.54.04-.19.03-.3.06-.49.14-.25.1-.54.28-.6.36-.06-.08-.35-.26-.6-.36-.18-.07-.29-.1-.49-.14-.21-.04-.33-.04-.54-.04-.21 0-.32.02-.53.03-.25.02-.39.06-.63.07-.23.02-.36.03-.6.02-.25-.01-.4-.02-.64-.08-.25-.06-.39-.09-.62-.21-.23-.12-.36-.2-.55-.39-.18-.18-.28-.3-.39-.53-.12-.24-.16-.39-.2-.65-.01-.09-.01-.23-.01-.23v-9.57H35.2l.03 9.57z" fill="#dbc190"/><path d="M29.43 22.65l-.02-.03c-.06-.07-.34-.25-.59-.35-.19-.08-.3-.1-.48-.13-.21-.04-.33-.04-.53-.04-.16 0-.27.01-.4.02l-.12.01c-.12.01-.21.02-.3.04-.1.02-.2.03-.33.04-.24.02-.37.03-.6.02-.26-.01-.4-.02-.65-.08s-.4-.09-.63-.21c-.23-.12-.36-.2-.55-.39-.2-.19-.29-.31-.4-.54-.12-.23-.16-.39-.2-.66-.01-.09-.01-.24-.01-.24v-9.57l11.61-.03.03 9.6s0 .15-.01.24c-.04.27-.08.43-.2.66-.11.23-.2.35-.4.54-.19.19-.33.27-.55.39-.23.11-.37.15-.63.21-.25.06-.39.07-.65.08-.23.01-.36 0-.59-.01-.14-.01-.24-.02-.35-.04-.09-.01-.18-.03-.3-.04l-.12-.01c-.13-.01-.24-.02-.4-.02-.21 0-.33 0-.54.04-.19.03-.29.06-.48.13-.25.1-.53.28-.59.35l-.02.02zm-1.62-.61c.21 0 .33 0 .54.04.19.03.3.06.49.14.22.09.49.25.59.34.09-.09.35-.25.59-.34.19-.08.3-.11.49-.14.21-.04.33-.04.54-.04.16 0 .27.01.41.02l.12.01c.12.01.21.02.3.04.1.02.2.03.33.04.24.02.37.03.59.02.25-.01.4-.02.64-.08.26-.06.39-.09.61-.2.22-.11.35-.19.54-.38.19-.19.28-.3.39-.52.11-.23.16-.37.19-.64.01-.09.01-.23.01-.23v-9.57l-11.56.03.03 9.54s0 .14.01.23c.04.27.08.41.19.64.11.22.2.34.39.52.19.19.32.27.54.38.22.11.36.15.61.2.24.06.39.07.64.08.23.01.36 0 .58-.01.14-.01.24-.02.34-.04.09-.01.19-.03.3-.04l.12-.01c.17-.02.28-.03.44-.03" fill="#4b2508"/><path fill="#d90037" d="M24.22 11.12h4.94v4.94h-4.94z"/><path d="M29.2 16.09h-4.97l-.03-4.96 4.97-.03.03 4.99zm-.06-4.97l-4.91.03.03 4.91 4.89-.03v-4.91z" fill="#4b2508"/><path d="M27.22 14.92l-.15-.04-.21-.02-.02.14s0 .18.05.32c.06.16.06.16.11.24.07.11.15.19.23.23.12.08.24.11.36.1.33-.03.48-.38.56-.68.08-.31.31-.48.45-.36.08.07.09.18.02.28-.08.11-.25.17-.25.17l.18.23s.38-.05.45-.45c.03-.15-.01-.46-.29-.51-.33-.07-.5.12-.6.31-.13.26-.22.75-.59.68-.2-.04-.3-.34-.3-.47v-.17zM26.54 15.01s0 .18-.05.32c-.06.16-.06.16-.11.24-.07.11-.15.19-.23.23-.12.08-.24.11-.36.1-.33-.03-.49-.39-.56-.68-.08-.31-.3-.48-.45-.36-.08.07-.09.17-.02.28.07.11.25.17.25.17l-.18.23s-.38-.05-.46-.45c-.03-.15.05-.43.3-.51.32-.11.52.12.62.31.14.27.19.75.57.67.2-.04.3-.34.3-.47l.15-.16.23.08z" fill="#fff"/><path d="M27.14 12.91l.65-.7s.1-.08.1-.2l-.13.02-.03-.07-.01-.07.18-.04c0-.03 0-.05.01-.08 0-.03.01-.04.02-.07l-.2.01c.01-.03.01-.05.02-.08s.01-.04.03-.06c.04-.01.07-.01.11-.02s.07 0 .11-.01c.11-.2.55-.39.87-.06.23.24.18.68-.12.79-.17.07-.3.03-.41-.07l.12-.23c.16.1.3-.03.29-.15a.274.274 0 0 0-.26-.27c-.13-.01-.23.06-.29.19-.04.07-.02.13-.03.21-.01.09-.01.14-.03.23-.02.06-.07.15-.14.22l-.66.72-2.58 2.79-.19-.18 2.57-2.82z" fill="#f9eb2e"/><path d="M25.24 13.16s.16.81.71 2.01c.28-.1.45-.17.74-.17.3 0 .46.06.74.17.55-1.21.72-2.01.72-2.01l-1.46-1.88-1.45 1.88z" fill="#fff"/><path d="M26.84 11.92l1.01 1.3s-.13.63-.55 1.58a2.33 2.33 0 0 0-.46-.08v-2.8zM26.55 11.92l-1.01 1.3s.13.63.55 1.58c.16-.04.3-.07.46-.08v-2.8zM29.69 11.12h4.94v4.94h-4.94z" fill="#f9eb2e"/><path d="M34.66 16.09h-4.97l-.03-4.96 4.97-.03.03 4.99zm-.05-4.97l-4.91.03.03 4.91 4.89-.03v-4.91z" fill="#4b2508"/><path d="M34.62 20.34c-.01.09-.05.24-.13.4-.09.14-.06.14-.26.36-.1.11-.25.2-.37.27s-.21.1-.41.15c-.39.1-.67.11-1 .09-.26-.01-.46-.04-.62-.06-.23-.03-.4-.05-.67-.06h-.37c-.14.01-.29.03-.44.06-.33.07-.66.19-.66.19v-5.15h4.95v3.52s-.01.17-.02.23" fill="#f9eb2e"/><path d="M29.66 21.78v-.04l.01-5.15 4.97-.03.03 3.55s-.01.18-.02.23c-.02.1-.05.25-.13.41l-.06.09c-.04.06-.06.11-.21.27-.08.09-.21.18-.38.28-.12.06-.21.1-.42.15-.34.09-.64.11-1.01.1-.24-.01-.42-.04-.57-.06-.28-.04-.45-.06-.71-.07-.13-.01-.25-.01-.37 0-.14.01-.28.03-.43.06-.32.07-.66.19-.66.19l-.04.02zm4.95-5.19l-4.92.03.02 5.08c.1-.03.37-.13.63-.18.15-.03.3-.05.44-.06.12-.01.24-.01.37 0 .27.01.44.03.67.06.2.03.38.05.61.06.36.01.65-.01.99-.09.2-.05.29-.09.4-.15.17-.09.29-.18.37-.26.14-.16.16-.2.2-.26l.06-.09c.08-.15.11-.29.13-.39.01-.06.02-.23.02-.23v-3.52z" fill="#4b2508"/><path d="M30.99 18.04c-.05-.01-.12-.05-.12-.05.02-.01.04-.02.05-.03.02-.02.02-.05.04-.08.01-.03.01-.06.04-.08.02-.02.04-.02.07-.01.02.01.05.02.05.05.01.03-.01.05-.01.09-.01.03-.02.05-.01.09 0 .02.01.03.02.05-.01-.01-.08-.02-.13-.03M30.93 18.1c0-.02.01-.04.04-.04.02 0 .04.02.04.04s-.01.04-.04.04-.04-.02-.04-.04M30.82 17.1c-.03-.02-.03-.05-.05-.07-.01-.03-.01-.04-.02-.07v-.06-.06c0-.02 0-.04-.01-.06-.01-.01-.02-.02-.02-.03.01-.01.01 0 .02 0 .02 0 .04.01.06.03.02.02.03.04.04.06l.03.09c.01.02.01.03.02.04.01.02.02.02.03.04l-.05.05c-.01.02-.03.03-.05.04z" fill="#3227fc"/><path d="M33.57 17.74v.17c0 .08-.01.12-.01.16 0 .04.01.05.04.09.05.08.11.09.06.22-.03.08-.01.06-.02.1-.01.04-.01.06-.03.11-.01.05-.02.16-.04.27v.04c-.01.02-.02.02-.05.02-.03 0-.02.06-.03.1l-.02.02-.1-.03-.07-.02.01-.06c.01-.01.02-.01.04-.02.03-.03.05-.05.07-.09.02-.04.02-.07.03-.12.01-.05.02-.08.02-.14-.01-.05-.03-.07-.03-.11-.01-.04.01-.06-.01-.1-.02-.05.02-.04-.08-.09 0 0 .01.04.01.06 0 .02.01.02.01.04s-.02.03-.03.05c-.03.04-.06.05-.1.09-.08.08-.13.13-.18.24-.02.03-.02.07-.04.09-.02.02-.04.01-.06.01-.02 0-.03.01-.05.03-.01.02-.01.03-.01.04l-.02.01-.08-.01-.09-.03.01-.06c.06-.04.09-.02.13-.05.03-.02.04-.03.06-.06.01-.02.02-.03.04-.05.01-.02.02-.02.03-.04.03-.03.04-.06.06-.1a.3.3 0 0 0 .04-.08c.01-.02.01-.03.02-.06v-.05c-.01.01-.05.02-.06.02v.05c0 .02 0 .04-.02.05-.01.01-.02.01-.03.01-.01 0-.02-.01-.03-.03-.01-.01 0-.02 0-.04v-.03h-.05c-.02 0-.03 0-.05-.01v.04c-.01.02 0 .03-.02.05-.01.01-.02.02-.04.01-.01 0-.02-.01-.02-.02-.01-.01-.01-.03-.01-.04v-.06a.435.435 0 0 1-.16-.1s-.04.01-.05.01c-.21.05-.37.05-.56.02 0 .05-.01.09-.02.15-.01.05-.03.08-.04.13-.01.04-.01.06-.01.09 0 .06 0 .1.01.16.01.04.01.06.02.1 0 .02.01.03 0 .04-.01.01-.03 0-.05.01l-.03.03c-.01.01-.01.02-.01.04l-.04.02-.08-.02-.07-.03.01-.06c.02-.02.04-.02.06-.04.02-.02.02-.04.03-.06.01-.04.01-.06.01-.11v-.11c0-.02-.01-.03-.01-.04 0-.02-.01-.02-.02-.04-.02-.03 0-.15-.01-.21 0-.02 0-.03-.01-.04l-.02.01c-.02 0-.04.01-.07 0-.05-.01-.07-.03-.09-.02-.02 0-.04 0-.06-.01-.05.05-.07.06-.12.11-.02.02-.03.03-.02.04.01.06.06.07.1.11.02.02.06.04.04.07-.01.02-.04.02-.04.04s0 .03.02.05v.06l-.04.07-.04.04-.06-.02c0-.05-.01-.07-.02-.12-.01-.05-.03-.08-.05-.12-.04-.08-.06-.09-.09-.14-.06-.1-.03-.1.02-.17.03-.06.07-.08.12-.13-.02-.04-.03-.07-.07-.09-.02-.01-.05-.08-.09-.19v-.05c0-.01.01-.01.01-.02l-.13-.06c.01-.01.03-.01.04-.03h-.05c-.01 0-.02.01-.04.01h-.06c-.03-.01-.05-.01-.08-.03-.04-.02-.05-.04-.09-.05-.04-.02-.07-.02-.12-.03-.03 0-.05 0-.08-.01-.02-.01-.02-.03-.03-.05-.01-.01-.04-.07-.05-.09-.01-.01-.01-.02-.01-.04.02-.01.02-.04.05-.04h.04c.01 0 .01-.01.02-.01.03-.02.04-.04.06-.06.03-.02.04-.03.06-.06.02-.02.03-.03.04-.06.01-.02 0-.04.02-.06.01-.01.02-.01.03-.02.03-.02.05-.03.08-.05l.05-.05c.01-.01.04-.02.04-.02.08.01.11.03.18.05.06.02.13.07.13.07.01-.01.03-.03.05-.03.03-.01.04-.02.07-.02h.06c.02 0 .04.01.05.03-.02.02-.03.04-.04.06-.02.02-.02.04-.03.06-.02.03-.04.04-.09.06l.13.04s.12 0 .23-.01c.22-.02.22-.05.37-.06.08-.01.21.02.35.02.12 0 .18-.01.29-.02.12-.02.18-.04.31-.05.1-.01.16 0 .26.01s.16 0 .25.04c.06.02.12.03.16.09.01.02.03.03.03.05.01.02.02.03.02.06 0 .02.01.04.01.06 0 .03-.01.06-.02.09-.05.1-.07.11-.14.15-.01 0-.01.01-.02.01" fill="#d90037"/><path d="M32.66 17.88l.03-.07c-.04.03-.13.03-.2.01l.05-.07c-.02 0-.04 0-.07-.01-.03-.01-.04-.02-.07-.04l.11-.04c.04-.01.07-.02.09-.04a.29.29 0 0 1 .14-.04c.06-.01.16-.01.46.04.18.03.26.02.33-.01.04-.02.05-.05.06-.1 0-.04-.02-.08-.05-.1-.01 0-.04-.02-.04-.02 0-.01-.02-.02-.02-.02s.07.03.08.03c.03.02.06.06.06.12-.01.06-.03.1-.07.12-.07.03-.15.05-.34.02-.3-.05-.39-.05-.46-.04-.06.01-.1.02-.13.04-.03.01-.06.03-.1.04l-.1.02c.09.03.14.03.14.03l-.06.08c.03-.02.05-.02.08-.02.05 0 .12-.02.13-.02l.03-.01-.04.09c.03-.02.05-.02.09-.03.04-.01.07-.03.1-.05.03-.02.07-.04.12-.05.08-.01.15.01.22.03.07.02.13.03.21.02.07-.01.11-.01.15-.03.01 0 .04-.01.04 0s.02.01.02.01l-.05.01c-.05.02-.08.02-.14.03-.1.01-.17-.01-.24-.03-.06-.01-.13-.03-.21-.02-.04 0-.07.02-.1.04s-.06.04-.1.05c-.04.01-.06.01-.1.02l-.05.01zM30.97 17.22c-.03 0-.05 0-.08.02s-.03.04-.05.07c.03.01.04.02.07.02.02-.01.03-.02.04-.03.02-.03.03-.05.02-.08zM31.7 18.37l.02-.07-.02-.02c-.01-.07-.01-.09-.01-.12-.01-.03-.02-.05-.03-.08 0-.01-.01-.04-.01-.04.01 0 0-.02 0-.02l.03.05c.02.03.02.05.03.09.01.03.01.05.01.08l.01.08c0 .01-.01.04-.02.04 0-.01-.01.01-.01.01" fill="#f9eb2e"/><path d="M31.04 17.74l.13.06a.51.51 0 0 0 .21-.24c.05-.1.06-.16.08-.26l-.11-.03h-.02c-.03.1-.04.16-.1.25-.05.08-.11.14-.16.18l-.03.04z" fill="#3227fc"/><path fill="#d90037" d="M31.04 17.74v-.02h.04l.03.01z"/><path d="M31.34 18.83c.02-.03.03-.05.05-.08.03-.03.05-.04.08-.07.01 0 .02 0 .03.01 0 .03-.01.06-.01.09-.01.03-.01.05-.02.07-.01.02-.01.04-.02.06l-.03.03c-.04-.04-.08-.07-.08-.11M33.32 18.94c.04.01.06.02.09.03.04.02.05.03.09.06 0 .01.01.02 0 .03-.03.01-.05.02-.09.02h-.08c-.03 0-.04 0-.06-.01l-.04-.02c.04-.04.06-.1.09-.11M32.74 18.82c.03.01.05.02.09.03.03.02.05.03.09.06 0 .01.01.02.01.03-.03.01-.06.01-.09.02h-.08c-.03 0-.04 0-.06-.01-.01-.01-.02-.01-.04-.02.02-.04.04-.1.08-.11M31.69 18.95c.03.01.05.02.09.03.04.02.05.04.09.06 0 .01.01.02.01.03-.03.01-.06.01-.09.02h-.08c-.02 0-.04 0-.06-.01l-.04-.02c.03-.05.05-.1.08-.11M31.15 17.16c-.04-.02-.06-.06-.04-.09.01-.01.03-.01.04-.02.01-.02.01-.03.01-.05 0-.02-.01-.03-.01-.06 0-.02-.01-.04-.01-.06 0-.04 0-.06.02-.1.01-.02.04-.04.05-.04.01.01 0 .03 0 .05 0 .03.01.04.02.07.01.03.03.05.04.08.01.03.02.05.03.08 0 .03 0 .04-.01.07-.01.02-.02.03-.04.05-.02.02-.03.02-.05.03-.02-.01-.03-.01-.05-.01" fill="#3227fc"/><path d="M30.96 17.65l-.08-.01c-.09 0-.11 0-.14.01h-.04l.03-.01c.03 0 .05-.01.08-.01h.07c.1 0 .11-.01.13-.02l.13-.1-.12.11v.01c-.01 0-.03.01-.06.02" fill="#d90037"/><path d="M32.63 18.28c-.01 0-.01 0-.01-.01s0-.01.01-.02c.11-.03.21-.07.28-.11.07-.03.13-.06.17-.06-.04.03-.1.06-.16.09-.08.04-.17.08-.29.11z" fill="#f9eb2e"/><path d="M33.38 18.33l-.06-.04-.01.01a.522.522 0 0 1-.15-.11.53.53 0 0 0-.11-.09c-.08-.06-.1-.08-.16-.08l-.05-.02h.01c.1-.01.13.01.16.04.1.06.13.1.16.13.04.04.07.07.14.11.01 0 .04.03.04.04.01-.01.03.01.03.01" fill="#f9eb2e"/><path d="M32.78 18.01l.09.09.14-.02-.05-.05c-.01-.01-.01-.01-.03-.02h-.15zM33.53 17.42c-.01-.01-.01-.02-.03-.02a.393.393 0 0 0-.06-.02l-.01.1.11-.03c-.01.01-.01-.01-.01-.03M33.22 17.88l.03-.06c-.02 0-.03-.01-.06-.01-.03-.01-.04-.01-.07-.02-.03-.01-.05-.01-.08-.02-.02 0-.04-.01-.07 0-.02 0-.03.01-.05.02a.21.21 0 0 0-.06.04c-.03.02-.04.03-.07.04-.03.01-.04.01-.07.02-.05.01-.07.02-.12.02l.14.05.48-.08z" fill="#d90037"/><path d="M32.62 17.91l.06-.09s-.06.01-.1.02c-.07.01-.11.01-.18 0l.02.1.12.05.08-.08zM32.47 17.7s.06-.01.09-.02a.3.3 0 0 0 .08-.04c.02-.01.03-.01.05-.02.03-.01.04-.01.07-.01h.07c.04 0 .06.01.1.01.04 0 .06.01.09.01.04.01.06.01.1.02.06.01.1.02.16.03.05.01.08.01.13.01.04 0 .06 0 .1-.01l-.04.06-.33-.03-.35-.02-.25.03h-.04l-.03-.02z" fill="#d90037"/><path d="M30.54 17.46c.02.01.02.01.04 0 .02 0 .03-.02.05-.02.01 0 .03 0 .04.01.01 0 .01.01.02.02s.01.02.01.03c0 .02-.02.02-.04.02-.01 0-.03 0-.03-.02v-.02c-.02.01-.03.01-.05 0-.02 0-.03-.01-.04-.02" fill="#f9eb2e"/><path d="M30.99 20.24c-.05-.01-.12-.05-.12-.05.02-.01.04-.01.05-.03.02-.02.02-.05.04-.08.01-.03.01-.06.04-.08.02-.02.04-.02.07-.01s.05.02.05.05c.01.03-.01.05-.01.09-.01.03-.02.05-.01.09 0 .02.01.03.02.06-.01-.02-.08-.03-.13-.04M30.93 20.3c0-.02.01-.04.04-.04.02 0 .04.02.04.04s-.01.04-.04.04-.04-.02-.04-.04M30.82 19.3c-.03-.02-.03-.05-.05-.07-.01-.03-.01-.04-.02-.07v-.06-.06c0-.03 0-.04-.01-.06-.01-.01-.02-.02-.02-.03.01-.01.01 0 .02 0 .02 0 .04.01.06.03.02.02.03.03.04.06.01.03.02.05.03.09.01.02.01.03.02.04.01.02.02.02.03.04l-.05.05c-.01.02-.03.03-.05.04z" fill="#3227fc"/><path d="M33.57 19.94v.17c0 .08-.01.12-.01.16 0 .03.01.05.04.09.05.08.11.09.06.22-.03.08-.01.06-.02.1-.01.04-.01.06-.03.11-.01.05-.02.16-.04.27v.04c-.01.02-.02.02-.05.02-.03 0-.02.06-.03.1l-.02.02-.1-.03-.07-.02.01-.06c.01-.01.02-.01.04-.02.03-.03.05-.05.07-.1.02-.04.02-.07.03-.12.01-.05.02-.08.02-.14-.01-.05-.03-.07-.03-.11-.01-.04.01-.06-.01-.1-.02-.05.02-.04-.08-.09 0 0 .01.04.01.06 0 .02.01.02.01.04 0 .03-.02.04-.03.05-.03.04-.06.05-.1.09-.08.08-.13.13-.18.24-.02.03-.02.07-.04.09-.02.01-.04.01-.06.01-.02 0-.03.01-.05.03-.01.01-.01.03-.01.04l-.02.01-.08-.01-.09-.03.01-.06c.06-.04.09-.02.13-.05.03-.02.04-.04.06-.06.01-.02.02-.03.04-.06.01-.02.02-.02.03-.04.03-.03.04-.06.06-.09a.3.3 0 0 0 .04-.08c.01-.02.01-.03.02-.06v-.05c-.01.01-.05.02-.06.02v.05c0 .02 0 .04-.02.05-.01.01-.02.01-.03.01-.01 0-.02-.01-.03-.03-.01-.01 0-.02 0-.04v-.03h-.1v.04c-.01.02 0 .03-.02.04-.01.01-.02.02-.04.01-.01 0-.02-.01-.02-.02-.01-.01-.01-.03-.01-.04v-.06a.435.435 0 0 1-.16-.1s-.04.01-.05.01c-.21.05-.37.05-.56.02 0 .05-.01.09-.02.15-.01.05-.03.08-.04.13-.01.04-.01.06-.01.1 0 .06 0 .1.01.16.01.04.01.06.02.1 0 .03.01.03 0 .05-.01.01-.03 0-.05.01-.01 0-.02.02-.03.03-.01.01-.01.02-.01.04l-.04.02-.08-.02-.07-.03.01-.06c.02-.02.04-.02.06-.04.02-.02.02-.04.03-.06.01-.04.01-.07.01-.11v-.11c0-.02-.01-.03-.01-.04 0-.02-.01-.02-.02-.04-.02-.03 0-.15-.01-.21 0-.02 0-.03-.01-.04l-.02.01c-.02 0-.04.01-.07 0-.05-.01-.07-.03-.09-.02-.02 0-.04 0-.06-.01-.05.05-.07.06-.12.11-.02.02-.03.03-.02.04.01.06.06.07.1.11.02.02.06.04.04.07-.01.02-.04.02-.04.04s0 .03.02.05v.05l-.04.07-.04.04-.06-.02c0-.05-.01-.07-.02-.12-.01-.05-.03-.08-.05-.12-.04-.08-.06-.09-.09-.15-.06-.1-.03-.09.02-.17.03-.06.07-.08.12-.13-.02-.04-.03-.08-.07-.09-.02-.01-.05-.08-.09-.19V20c0-.01.01-.01.01-.02l-.13-.06c.01-.01.03-.01.04-.02h-.05c-.01 0-.02 0-.04.01-.02 0-.04 0-.06-.01-.03-.01-.05-.01-.08-.03-.04-.01-.05-.04-.09-.05-.04-.02-.07-.02-.12-.03-.03 0-.05 0-.08-.01-.02-.01-.02-.03-.03-.05-.01-.01-.04-.07-.05-.09-.01-.01-.01-.02-.01-.04.02-.01.02-.03.05-.04.01-.01.02 0 .04 0 .01 0 .01-.01.02-.01.03-.02.04-.04.06-.06.03-.02.04-.03.06-.06.02-.02.03-.03.04-.06.01-.02 0-.04.02-.06l.03-.03c.03-.02.05-.03.08-.05l.05-.05c.01-.01.04-.02.04-.02.08.01.11.03.18.06.06.02.13.07.13.07.01-.01.03-.03.05-.04.03-.01.04-.02.07-.02h.06c.02 0 .04.01.05.03-.02.02-.03.04-.04.06-.02.02-.02.04-.03.06-.02.03-.04.05-.09.06l.13.04s.12 0 .23-.01c.22-.02.22-.05.37-.06.08-.01.21.02.35.02.12 0 .18-.01.29-.02.12-.02.18-.04.31-.05.1-.01.16 0 .26.01s.16 0 .25.03c.06.02.12.03.16.09.01.02.03.03.03.05.01.02.02.03.02.06 0 .02.01.04.01.06 0 .03-.01.06-.02.09-.05.1-.07.11-.14.15-.01.04-.01.04-.02.04" fill="#d90037"/><path d="M32.66 20.08l.03-.07a.32.32 0 0 1-.2.01l.05-.07c-.02 0-.04 0-.07-.01-.03-.01-.04-.02-.07-.04.05-.03.07-.03.1-.04a.3.3 0 0 0 .1-.04.29.29 0 0 1 .14-.04c.06-.01.17-.01.46.04.18.03.26.02.33-.02.04-.02.05-.05.06-.1 0-.05-.03-.08-.05-.1-.01 0-.04-.01-.04-.02s-.02-.02-.02-.02.07.02.08.03c.02.02.06.06.06.12-.01.06-.03.1-.07.12-.07.03-.15.05-.34.02-.29-.05-.39-.05-.46-.04-.06.01-.1.02-.13.04-.03.01-.06.03-.1.04-.03.01-.06.01-.09.02.08.03.12.04.12.04l-.06.08c.03-.01.05-.01.08-.01.05 0 .12-.02.12-.02l.03-.01-.04.09a.14.14 0 0 1 .09-.03c.04-.01.07-.03.09-.05.03-.02.07-.04.12-.05.08-.01.15.01.22.03.07.02.13.03.21.02.07-.01.11-.01.15-.03.01 0 .04-.01.04 0s.02.01.02.01l-.05.01c-.05.02-.09.03-.14.03-.1.01-.17-.01-.24-.02a.665.665 0 0 0-.21-.03c-.04 0-.07.02-.1.04s-.06.04-.1.05c-.04.01-.06.01-.1.02h-.02zM30.97 19.42c-.03 0-.05 0-.08.02s-.03.04-.05.07c.03.01.04.02.07.02.02-.01.03-.01.04-.03.02-.03.03-.05.02-.08zM31.7 20.47v-.09c-.01-.07-.01-.09-.01-.12-.01-.03-.02-.05-.03-.09 0-.01-.01-.04-.01-.04v-.02l.03.05c.02.04.02.05.03.09.01.03.01.05.01.08l.01.08c0 .01-.01.05-.02.05 0-.01-.01.01-.01.01" fill="#f9eb2e"/><path d="M31.04 19.94l.13.06a.51.51 0 0 0 .21-.24c.05-.1.06-.16.08-.26l-.11-.03h-.02c-.03.1-.04.16-.1.25-.05.08-.11.14-.16.18l-.03.04z" fill="#3227fc"/><path fill="#d90037" d="M31.04 19.95v-.03h.04l.03.01z"/><path d="M31.34 21.03c.02-.03.03-.05.05-.08.03-.03.05-.04.08-.07.01 0 .02 0 .03.01 0 .03-.01.06-.01.09-.01.03-.01.05-.02.07-.01.03-.01.04-.02.06-.01.02-.02.02-.03.03-.04-.04-.08-.07-.08-.11M33.32 21.15c.04.01.06.02.09.03.04.02.05.04.09.06 0 .01.01.02 0 .03-.03.01-.05.01-.09.02h-.08c-.03 0-.04 0-.06-.01l-.04-.02c.04-.05.06-.11.09-.11M32.74 21.02c.03.01.05.02.09.03.03.02.05.03.09.06 0 .01.01.02.01.03-.03.01-.06.01-.09.02h-.08c-.03 0-.04 0-.06-.01-.01-.01-.02-.01-.04-.02.02-.04.04-.1.08-.11M31.69 21.15c.03.01.05.02.09.03.04.02.05.03.09.06 0 .01.01.02.01.03-.03.01-.06.01-.09.02h-.08c-.02 0-.04 0-.06-.01l-.04-.02c.03-.04.05-.1.08-.11M31.15 19.36c-.04-.02-.06-.06-.04-.1.01-.01.03-.01.04-.02.01-.02.01-.03.01-.05 0-.02-.01-.04-.01-.06 0-.03-.01-.04-.01-.06 0-.04 0-.06.02-.09.01-.02.04-.04.05-.04.01.01 0 .03 0 .05 0 .03.01.04.02.07.01.03.03.05.04.08.01.03.02.05.03.08 0 .03 0 .04-.01.07-.01.02-.02.03-.04.05-.02.02-.03.02-.05.03-.02 0-.03-.01-.05-.01" fill="#3227fc"/><path d="M32.63 20.48c-.01 0-.01 0-.01-.01s0-.01.01-.02c.11-.03.21-.07.28-.11.07-.03.13-.06.17-.06-.04.03-.1.06-.16.09-.08.04-.17.09-.29.11z" fill="#f9eb2e"/><path d="M33.38 20.53l-.07-.03a.647.647 0 0 1-.15-.11.53.53 0 0 0-.11-.09c-.08-.06-.1-.08-.15-.07l-.05-.01.04-.02c.08-.01.11.02.14.04.1.07.13.1.16.13.04.04.07.07.14.11.01 0 .04.03.04.04l.01.01" fill="#f9eb2e"/><path d="M32.78 20.21l.09.09.14-.02-.05-.05c-.01-.01-.01-.01-.03-.02h-.15zM33.53 19.62c-.01-.01-.01-.01-.03-.02a.393.393 0 0 0-.06-.02l-.01.11.11-.03c-.01 0-.01-.02-.01-.04M33.22 20.08l.03-.06c-.02 0-.03-.01-.06-.01-.03-.01-.04-.01-.07-.02-.03-.01-.05-.01-.08-.02-.02 0-.04-.01-.07-.01-.02 0-.03.01-.05.02a.21.21 0 0 0-.06.04c-.03.02-.04.03-.07.04-.03.01-.04.01-.07.02-.05.01-.07.02-.12.02l.14.05.48-.07z" fill="#d90037"/><path d="M32.62 20.11l.06-.1s-.06.01-.1.02c-.07.01-.11.01-.18 0l.02.1.12.05.08-.07z" fill="#d90037"/><path d="M30.54 19.66c.02.01.02.01.04.01s.03-.01.05-.02c.01 0 .03 0 .04.01l.02.02c.01.01.01.02.01.03 0 .02-.02.03-.04.03-.01 0-.03-.01-.03-.02v-.02c-.02.01-.03.01-.05 0-.02-.02-.03-.02-.04-.04M24.24 20.34c.01.09.04.24.13.4.09.14.06.14.26.36.1.11.25.21.37.27.12.07.21.1.41.15.39.1.67.11 1 .1.26-.01.46-.04.62-.06.23-.03.4-.05.67-.06.13 0 .25-.01.37 0 .14.01.29.03.44.06.33.06.66.19.66.19V16.6h-4.95v3.52c0-.01.01.16.02.22" fill="#f9eb2e"/><path d="M29.19 21.78l-.04-.02s-.33-.13-.65-.19a3.32 3.32 0 0 0-.44-.06c-.12-.01-.24-.01-.37 0-.26.01-.43.03-.67.06l-.09.01c-.14.02-.32.04-.53.05-.37.02-.66-.01-1.01-.1-.2-.05-.29-.08-.42-.15-.12-.06-.28-.16-.38-.28-.15-.16-.17-.21-.21-.27l-.05-.09a1.324 1.324 0 0 1-.16-.64v-3.52l4.97-.03.05 5.23zm-1.29-.32c.06 0 .11 0 .17.01.15.01.29.03.44.06.26.05.53.14.62.18V16.6l-4.92.03.03 3.49s.01.17.02.22a1 1 0 0 0 .13.39c.02.04.04.07.05.09a1.31 1.31 0 0 0 .57.52c.12.07.21.09.41.15.34.09.63.11.99.1.21-.01.38-.03.53-.05l.09-.01c.23-.03.41-.05.67-.06.06-.01.13-.01.2-.01" fill="#4b2508"/><path d="M24.82 21.19c.08.05.16.1.23.14.12.06.17.07.32.12v-4.83h-.55v4.57z" fill="#d90037"/><path d="M25.37 21.46l-.12-.04c-.07-.03-.13-.04-.21-.09-.07-.04-.15-.08-.23-.14v-4.58l.56-.01v4.86zm-.01-4.84l-.54.01.01 4.57c.07.05.15.09.23.13.08.04.14.06.21.09l.1.03v-4.83zM27.56 21.47v-4.85h-.55v4.89s.38-.03.55-.04" fill="#d90037"/><path d="M27.01 21.52v-4.9l.56-.01.01 4.86c-.19.01-.57.04-.57.05zm.55-4.9l-.54.01.01 4.88c.05-.01.38-.03.54-.04l-.01-4.85zM28.66 16.62h-.55v4.83c.18.02.36.04.55.1v-4.93z" fill="#d90037"/><path d="M28.67 21.55c-.21-.06-.41-.08-.56-.1l-.01-4.84.55-.01.02 4.95zm-.02-4.93l-.54.01.01 4.82c.14.01.34.03.54.09l-.01-4.92z" fill="#d90037"/><path d="M37.18 16.41c.37-.16 1.27-.4 1.26-1.87 0-.55-.18-.99-.51-1.32-.42-.41-.96-.51-1.21-.51v-.06c.24-.01.81.1 1.25.52.35.34.53.8.53 1.36.01 1.52-.95 1.78-1.32 1.88" fill="#4b2508"/><path d="M37.32 16.34c.3-.14 1.12-.6 1.09-1.73-.02-.68-.22-1.21-.57-1.55-.27-.25-.61-.38-.99-.36v-.06c.39-.02.75.12 1.03.38.37.34.57.89.59 1.59.02 1.17-.83 1.64-1.15 1.73" fill="#4b2508"/><path fill="#d90037" d="M30.4 11.13h.71v4.86h-.71z"/><path d="M31.11 16h-.71l-.01-4.86.71-.01.01 4.87zm-.01-4.87l-.7.01.01 4.85.69-.01v-4.85zM31.81 11.13h.71v4.86h-.71z" fill="#d90037"/><path d="M32.53 16h-.71l-.01-4.86.71-.01.01 4.87zm-.02-4.87l-.7.01.01 4.85.69-.01v-4.85zM33.23 11.13h.71v4.86h-.71z" fill="#d90037"/><path d="M33.94 16h-.71l-.01-4.86.71-.01.01 4.87zm-.01-4.87l-.7.01.01 4.85.69-.01v-4.85zM26.46 16.62v4.96s-.37.01-.55-.01v-4.95h.55z" fill="#d90037"/><path d="M26.27 21.58c-.12 0-.26 0-.36-.01l-.01-4.95.56-.01.01 4.97h-.2zm.19-4.96l-.55.01.01 4.94c.09 0 .24.01.35.01h.19v-4.96z" fill="#d90037"/></svg>
