<svg xmlns="http://www.w3.org/2000/svg" viewBox="0 0 58.92 34.37"><path fill="#1d2a6a" d="M0 0h58.92v34.37H0z"/><path fill="#fff" d="M27.43 0l-9.41 4.71V0h-5.15v4.71L3.45 0H0v1.73l6.84 3.42H0v5.14h6.84L0 13.72v1.72h3.45l9.42-4.71v4.71h5.15v-4.71l9.41 4.71h3.46v-1.72l-6.85-3.43h6.85V5.15h-6.85l6.85-3.42V0z"/><path fill="#bd0034" d="M30.89 0h-2.31L18.29 5.15h2.3zM0 0v1.15l7.99 4h2.31zM10.3 10.29L0 15.44h2.3l10.3-5.15zM20.59 10.29l10.3 5.15v-1.15l-8-4z"/><path fill="#bd0034" d="M13.9 0v6.18H0v3.09h13.9v6.17h3.09V9.27h13.89V6.18H16.99V0z"/><path d="M44.94 9.75c-2.39 1.37-4.96 1.33-6.57.23v8.53c0 2.96 1.8 6.27 6.57 8 4.77-1.73 6.57-5.04 6.57-8V9.97c-1.61 1.11-4.18 1.15-6.57-.22" fill="#fff"/><path d="M38.94 21.35c.85 2.05 2.73 3.97 6 5.16 3.27-1.19 5.14-3.11 6-5.16h-12z" fill="#3871b9"/><path d="M49.26 13.68c-.77-.71-1.67-.39-2.39-1.01-.62-.53-1.52-.75-2.21-.69.04-.09.1-.19.15-.28-3.25.78-3.61 5.07-.64 5.56.04-.45-.33-.73-.34-1.18.14.03.31.09.42.16-.04-.51-.49-.61-.48-1.24.03-1.27.68-2.06 1.84-2.15.55-.05 1.3.17 1.54.64.09.18.27.42.4.56.13.13.13.08.15-.1.04-.38.71-.55 1.51-.18.2.12.21.06.05-.09" fill="#d77035"/><path d="M46.41 16.06c-.24.14-.55.68-1.03.73.01-.18 0-.47-.03-.58-.27.43-.34.97-1.04 1.45-.79.54-2.18.71-2.89-.06-.37-.4-.61-.94-.4-1.7.14-.51.57-.53.81-.75.07-.06.01-.07-.1-.08-.44-.05-.57-.66-.19-1.58.08-.2-.03-.19-.27.23-.34.6-.34 1.17-.52 1.69-.45 1.22-.21 2.93.92 3.55-.06.08-.12.19-.19.27 2.56.61 5.13-.47 4.93-3.17" fill="#d77035"/><path d="M45.7 14.12c.15.3.58.51.72.91-.12 0-.34.06-.46.13.32.15.49.17.79.41l.07.04c.95 1.01 1.37 2.02 1.02 2.93-.18.45-.55.96-1.16 1.16-.82.26-1.04-.41-1.78-.29-.05.01-.01.05.06.08.46.2.3.72-.57 1.1-.07.03-.07.04.08.05.53.06 1.19-.11 1.54-.3.43-.23.96-.39 1.43-.61.9-.43 1.39-1.18 1.53-2.22.17.13.22.24.31.38.35-1.68-.82-3.84-3.58-3.77" fill="#d77035"/><path d="M43.09 15.86c.08 0 .15.07.15.15 0 .08-.07.15-.15.15-.09 0-.15-.07-.15-.15-.01-.08.06-.15.15-.15M45.94 16.97c-.09 0-.15.07-.15.15s.07.15.15.15c.08 0 .15-.07.15-.15s-.07-.15-.15-.15M47.13 14.47c-.09 0-.15.07-.15.15s.07.15.15.15c.08 0 .15-.07.15-.15s-.07-.15-.15-.15" fill="#fff"/></svg>
