<svg xmlns="http://www.w3.org/2000/svg" viewBox="0 0 58.92 34.37"><path fill="#bc0030" d="M0 0h58.92v34.37H0z"/><path d="M38.94 21.83a.605.605 0 0 0-.32-.09c-.11 0-.26-.04-.35-.08-.2-.09-.4-.06-.58.09-.12.1-.19.11-.65.15-.64.05-.84.05-.84.01 0-.02.16-.14.36-.26.27-.18.39-.23.47-.21.19.03.43-.06.61-.24.17-.18.21-.19.6-.17.1 0 .03.01.16-.01-.06-.16-.29-.47-.68-.36-.17.04-.27.05-.36.02-.25-.09-.59.09-.69.36-.05.14-.3.35-.75.62l-.33.21-.63-.24c-.71-.27-1.31-.54-1.31-.59 0-.02.09-.13.2-.26.11-.12.2-.23.2-.24 0-.01-.12-.09-.27-.16-.98-.5-1.69-1.2-1.98-1.99-.21-.55-.1-.68.15-.18.21.4.36.58.64.76.3.19.47.23.58.13.14-.12.11-.27-.09-.49-.43-.49-.56-1.24-.2-1.24.13 0 .15.02.43.66.39.89.78 1.48 1.09 1.64.26.14.69.03.76-.2.06-.18-.01-.29-.31-.48-.47-.31-.78-.8-.9-1.45-.04-.21-.04-.26.03-.36.11-.16.18-.1.49.35.57.86 1.61 1.99 2.03 2.23.75.42 1.49.4 1.94-.05.12-.12.16-.2.16-.31 0-.21-.16-.31-.5-.29-.78.04-.86.03-1.16-.11-.58-.28-1.15-.94-1.59-1.86-.42-.86-.32-.91.4-.18.96.98 1.74 1.34 2.45 1.13.34-.1.67-.41.67-.64 0-.25-.12-.32-.5-.3-.17.01-.49.02-.7.02-.36 0-.42-.01-.69-.14a3.4 3.4 0 0 1-.6-.43c-.46-.42-1.23-1.48-1.23-1.68 0-.2.18-.12.65.29.38.34 1.07.8 1.38.95.18.08.3.1.63.1.36 0 .45-.01.63-.11.29-.14.39-.29.41-.59.03-.43-.18-.53-.8-.38-.88.22-1.34.06-2.15-.76-.39-.4-.53-.62-.48-.74.04-.12.22-.07.97.31.82.42 1.05.5 1.44.5.34 0 .56-.07.77-.25.32-.27.4-.58.2-.77-.15-.16-.47-.15-.82.03-.17.08-.36.15-.52.16-.55.05-1.36-.26-1.76-.66-.27-.27-.4-.52-.33-.62.08-.09.2-.07.5.05.6.26.88.32 1.33.32.5 0 .81-.08 1.24-.32.34-.22.56-.46.56-.63a.58.58 0 0 0-.09-.26c-.13-.21-.35-.2-.79.04-.85.46-1.43.53-2.03.23-.25-.13-.68-.54-.79-.75-.07-.14-.07-.15-.01-.22.08-.08.14-.07.79.17.33.12.48.15.86.16.51.02.83-.03 1.16-.19.46-.2.9-.74.9-1.07 0-.16-.1-.37-.2-.41-.19-.07-.3-.03-.59.28-.46.47-.92.65-1.66.65-.78-.01-1.1-.12-1.1-.42 0-.2.15-.32.47-.37.97-.16 2.09-.66 2.69-1.22.36-.33.49-.56.49-.84-.01-.32-.14-.54-.39-.6-.22-.06-.38.04-.6.39-.37.59-.76.92-1.48 1.28-.43.21-1.1.44-1.23.41-.04-.01-.1-.09-.14-.19-.11-.3-.12-.3-.56-.12-.22.1-.67.27-1 .38-.67.24-.89.38-1.05.69-.08.15-.1.26-.1.73-.01.5-.02.56-.1.69-.14.19-.25.24-.53.24-.41 0-.63-.24-.66-.71-.02-.38.05-.7.23-1.09.19-.39.4-.63.8-.89.39-.25.76-.37 1.3-.42.48-.04.98-.23 1.1-.47-.5.15-1-.06-.95-.09s.93-.02 1.05-.04c.37-.04.52-.14.72-.29.24-.17.39-.33.33-.44-.06-.12-.24-.1-.36.04-.06.07-.18.19-.26.29-.14.16-.17.17-.59.24-.32.04-.38.04-.56 0-.06-.04-.11-.1-.11-.12 0-.06.17-.16.34-.2.12-.02.38.07.6.13-.05-.12-.05-.13-.12-.28-.11-.21-.29-.28-.76-.29-.33-.01-.44-.04-.5-.1a.678.678 0 0 0-.18-.13.536.536 0 0 0-.24-.05c-.3-.01-.76.1-1.2.3-.25.13-.36.16-.62.16-.17 0-.39-.02-.49-.05-.35-.09-.41-.09-.41-.03 0 .08.3.35.52.47.12.06.17.11.15.15-.03.09-.37.32-.57.39-.21.07-.2.16.02.27.1.05.18.11.19.14 0 .13-.43.41-.63.41-.24 0-.15.19.11.25.15.03.15.05.02.19-.14.17-.27.22-.42.19-.16-.03-.19.03-.1.2.08.13.08.14-.01.2-.03.03-.08.05-.13.06-.01 0-.02.01-.03.01h-.08c-.01 0-.02 0-.03-.01a.262.262 0 0 1-.13-.06c-.08-.06-.08-.07 0-.2.09-.17.06-.23-.1-.2-.14.03-.28-.03-.42-.19-.13-.14-.13-.16.02-.19.27-.06.36-.25.11-.25-.2 0-.63-.29-.63-.41 0-.03.08-.09.19-.14.23-.11.23-.19.02-.27-.21-.07-.54-.3-.57-.39-.02-.04.02-.09.15-.15.22-.11.52-.38.52-.47 0-.07-.07-.07-.42.03-.1.03-.32.05-.49.05-.25 0-.37-.03-.61-.14-.45-.2-.91-.31-1.2-.3-.1 0-.18.02-.24.05-.05.03-.13.08-.18.13-.07.06-.18.08-.5.1-.47.01-.66.09-.76.29-.08.14-.08.16-.12.28.22-.06.48-.15.59-.13.16.03.34.13.34.2 0 .02-.05.07-.11.12-.18.04-.24.04-.56 0-.42-.07-.45-.08-.59-.24-.08-.09-.2-.22-.26-.29-.12-.14-.3-.16-.36-.04-.06.11.1.27.33.44.2.15.35.25.72.29.12.01 1 .01 1.05.04.04.03-.46.24-.95.09.12.24.61.43 1.1.47.54.05.92.17 1.3.42.4.27.62.5.8.89.19.39.25.71.23 1.09-.02.47-.25.71-.66.71-.28 0-.39-.05-.52-.24-.09-.13-.1-.19-.1-.69 0-.47-.02-.57-.09-.73-.16-.31-.38-.46-1.05-.69-.33-.12-.78-.29-1-.38-.44-.18-.46-.18-.56.12-.04.1-.1.18-.14.19-.13.03-.8-.21-1.23-.41-.73-.37-1.11-.69-1.49-1.28-.22-.35-.38-.45-.6-.39-.25.07-.39.28-.39.6 0 .28.13.51.49.84.6.56 1.72 1.06 2.68 1.22.32.05.47.17.47.37 0 .3-.32.41-1.1.42-.73 0-1.19-.18-1.65-.65-.3-.31-.4-.36-.59-.28-.1.04-.2.25-.2.41 0 .33.44.87.89 1.07.34.16.65.21 1.16.19.38-.02.53-.05.86-.16.66-.24.71-.25.79-.17.06.06.06.08-.01.22-.11.22-.54.63-.79.75-.6.3-1.18.23-2.03-.23-.43-.23-.66-.24-.78-.04-.05.08-.09.2-.09.26 0 .16.22.4.56.59.43.24.74.32 1.24.32.45 0 .73-.07 1.33-.32.3-.13.42-.14.5-.05.07.1-.06.35-.33.62-.4.41-1.21.71-1.77.66-.16-.01-.35-.08-.52-.16-.35-.18-.66-.19-.82-.03-.2.2-.12.51.2.77.21.19.43.25.77.25.38 0 .62-.08 1.44-.5.75-.38.92-.43.96-.31.05.13-.09.34-.48.74-.81.82-1.27.98-2.15.76-.62-.16-.83-.05-.8.38.02.3.13.44.41.59.18.1.27.11.63.11.34-.01.46-.02.64-.1.31-.15.99-.61 1.38-.95.48-.42.66-.5.66-.29 0 .2-.77 1.26-1.23 1.68-.17.16-.44.35-.6.43-.27.13-.32.14-.69.14-.22 0-.53-.01-.7-.02-.38-.02-.5.05-.5.3 0 .23.33.54.67.64.71.21 1.49-.15 2.45-1.13.71-.73.82-.68.39.18-.44.93-1.01 1.59-1.59 1.86-.3.14-.38.15-1.16.11-.34-.02-.5.07-.5.29 0 .11.04.19.16.31.45.44 1.19.46 1.94.05.43-.24 1.46-1.37 2.03-2.23.31-.46.38-.52.49-.35.07.1.07.15.03.36-.12.65-.43 1.14-.9 1.45-.3.19-.37.31-.32.48.07.22.5.33.76.2.31-.16.7-.75 1.09-1.64.27-.64.29-.66.43-.66.36 0 .23.75-.2 1.24-.19.22-.23.37-.09.49.11.11.29.07.58-.13.28-.18.43-.36.64-.76.26-.49.36-.37.15.18-.29.79-.99 1.49-1.98 1.99-.15.07-.27.15-.27.16 0 .01.09.13.2.24.11.12.2.23.2.26 0 .04-.6.31-1.31.59l-.64.24-.31-.2c-.45-.28-.7-.48-.75-.62-.1-.27-.44-.45-.69-.36-.09.03-.19.03-.36-.02-.39-.1-.62.21-.68.36.13.02.07.02.16.01.39-.02.43-.01.61.17.18.18.42.28.61.24.09-.02.2.03.47.21.2.13.36.24.36.26 0 .04-.21.04-.84-.01-.45-.04-.53-.05-.65-.15-.18-.15-.39-.18-.58-.09-.09.04-.24.08-.35.08-.12 0-.24.04-.31.09-.13.1-.21.15-.27.34.24 0 .16 0 .33-.02.29-.05.32-.04.42.04.06.05.14.11.2.14.13.07.43.06.58-.02.09-.04.3-.06.77-.06.36-.01.67-.01.69 0 .03 0-.12.1-.31.21-.34.21-.37.21-.66.21-.38-.01-.6.11-.66.35-.02.09-.06.25-.09.34-.06.23-.08.27.09.67.19-.44.12-.3.18-.39.09-.14.13-.16.35-.18.3-.03.44-.12.56-.36.08-.17.16-.24.56-.49.55-.34.52-.34 1.14-.05.31.15.42.22.47.32.09.18.29.25.51.19.21-.06.3-.03.44.17.06.08.06.07.15.15.02-.12.03-.14.03-.26 0-.18-.02-.21-.25-.45-.27-.27-.44-.35-.63-.27-.09.04-.17.02-.4-.09-.26-.12-.36-.21-.23-.21.03 0 .45-.16.94-.35l.88-.34.13.1c.24.19.62.36.79.36.15 0 .17-.01.22-.17.07-.25.59-1.24.86-1.65.46-.71.71-.89.92-.67.06.08.08.16.08.43-.01.8-.46 1.85-1.06 2.44-.32.31-.66.49-1.08.55-.33.04-.54.13-.54.21 0 .09.21.34.35.41.12.06.23.07.48.06.3-.01.36-.03.65-.2.28-.17.33-.19.38-.13.06.06.06.1.02.26-.09.34-.34.5-.9.57-.58.07-.78.25-.58.52.13.18.34.27.65.27.34 0 .64-.15 1.02-.52.17-.15.32-.27.34-.25.06.04.06.39-.01.6-.06.21-.34.53-.5.6-.07.03-.23.08-.37.11-.48.13-.54.32-.21.54.22.15.58.16.85.03.18-.08.66-.53.75-.69.08-.14.16-.04.14.18-.02.18-.12.38-.36.71-.19.26-.13.62.2 1.1.22.32.42.55.52.59.09-.04.3-.27.52-.59.33-.48.39-.83.2-1.1-.24-.33-.34-.53-.36-.71-.03-.21.06-.32.13-.18.09.16.57.61.75.69.27.13.63.12.85-.03.34-.22.27-.41-.21-.54-.14-.03-.3-.09-.37-.11-.16-.06-.44-.39-.5-.6-.07-.21-.07-.56-.01-.6.03-.02.18.1.35.25.39.37.68.52 1.02.52.3 0 .52-.09.65-.27.19-.27-.01-.45-.58-.52s-.81-.23-.9-.57c-.05-.16-.04-.2.02-.26s.1-.04.38.13c.29.18.35.19.65.2.25.01.36 0 .48-.06.14-.07.35-.33.35-.41 0-.08-.22-.16-.54-.21-.42-.06-.76-.23-1.08-.55-.6-.59-1.06-1.64-1.06-2.44 0-.27.01-.35.08-.43.21-.23.46-.04.92.67.27.42.79 1.4.86 1.65.05.16.07.17.22.17.16 0 .55-.18.79-.36l.13-.1.88.34c.49.19.91.35.93.35.14 0 .04.1-.23.21-.24.11-.31.12-.4.09-.2-.08-.36 0-.63.27-.23.24-.25.27-.25.45 0 .12 0 .14.03.26.09-.08.09-.06.15-.15.14-.2.23-.23.44-.17.22.07.42-.01.51-.19.05-.1.17-.17.47-.32.62-.29.59-.29 1.14.05.4.25.48.32.56.49.11.24.25.33.55.36.22.02.25.04.35.18.06.08-.01-.05.18.39.17-.4.15-.44.08-.67-.03-.1-.07-.25-.09-.34-.06-.24-.28-.36-.66-.35-.29.01-.32 0-.66-.21-.2-.12-.34-.21-.31-.21.02-.01.33-.01.69 0 .48 0 .68.02.77.06.15.08.45.09.58.02.05-.03.14-.09.2-.14.09-.08.12-.09.42-.04.17.02.09.02.33.02-.15-.18-.23-.23-.36-.33m-6.3-14.36c.09-.06-.08-.24.11-.23.04 0 .11.01.2.04.14.03.21.18.12.27-.09.09-.57.13-.66.05-.16-.44.12-.06.23-.13m-6.13.12c-.09.07-.58.04-.66-.05-.09-.09-.02-.24.12-.27.09-.03.16-.04.2-.04.19-.01.02.17.11.23.12.08.4-.3.23.13"/></svg>
