<svg xmlns="http://www.w3.org/2000/svg" viewBox="0 0 58.92 34.37"><path fill="#bc0030" d="M0 0h58.92v34.37H0z"/><path d="M0 17.18h58.92v17.19H0z"/><path fill="#f1d62f" d="M26.83 16.59l1.82-1.32 1.82 1.32-.69-2.13 1.82-1.33h-2.25l-.7-2.13-.69 2.13h-2.25l1.82 1.33zM38.34 27.14c-.27-.43-.59-.75-1.02-1.13-.43-.38-1.02-.8-1.46-1.23l-.84.98c-.04.04-.02.14.02.14.94.16 1.23.49 1.61.81.5.51.71 1.13 1.04 1.35.6.43 1.04-.29.65-.92m-2.2-1.56c-.06 0-.11-.05-.11-.11s.05-.11.11-.11c.07 0 .12.05.12.11s-.05.11-.12.11m.85.74c-.06 0-.11-.05-.11-.12 0-.06.05-.11.11-.11s.12.05.12.11c0 .07-.05.12-.12.12m.75.76c-.07 0-.12-.05-.12-.11s.05-.11.12-.11c.06 0 .11.05.11.11.01.06-.04.11-.11.11M30.83 23.53c-.68.24-1.42.36-2.18.36-1.61 0-3.07-.59-4.23-1.54l-.98 1.19c.41.34.86.64 1.33.9l-.34.63c.52.28 1.06.5 1.62.67l.2-.67c.51.16 1.04.27 1.58.33l-.07.68c.58.06 1.17.06 1.75 0l-.07-.68c.55-.05 1.08-.16 1.59-.31l.2.65c.28-.08.55-.18.82-.29l-.36-1.41-.86-.51z"/><path d="M35.36 17.19a6.7 6.7 0 0 1-2.37 5.12l1.88 1.3c.25-.24.48-.49.7-.76l-.53-.43c.34-.42.64-.87.9-1.35l.6.32c.28-.52.5-1.06.67-1.62l-.66-.2c.16-.51.26-1.04.31-1.59l.68.07c.06-.58.06-1.17 0-1.75l-.68.07c-.05-.55-.16-1.08-.32-1.59l.66-.2c-.17-.56-.4-1.1-.67-1.62l-.61.33a9.23 9.23 0 0 0-.9-1.34l.55-.45c-.37-.45-.79-.87-1.24-1.24l-.45.56c-.42-.34-.86-.64-1.34-.89l.34-.64c-.52-.27-1.06-.5-1.62-.67l-.21.7c-.49-.15-1-.25-1.53-.31l-.16 1.53c3.36.37 6 3.19 6 6.65M32.74 23.2c-1.77-1.25-3.6-2.54-5.14-3.98-.01-.01-.01-.04 0-.05.01-.02.04-.02.05 0 1.53 1.45 3.36 2.73 5.13 3.98.87.62 1.78 1.25 2.63 1.9l.27-.32c-2.95-2.1-9.92-6.94-10-8.71-1.38 2.69.37 4.29 1.49 4.93 2.86 1.63 4.75 2.7 7.74 4.68l.45-.53c-.84-.65-1.74-1.28-2.62-1.9" fill="#f1d62f"/></svg>
