<svg xmlns="http://www.w3.org/2000/svg" viewBox="0 0 58.93 34.37"><path fill="#507aca" d="M0 0h58.93v34.37H0z"/><path d="M16.38 16.53c-.28-.56-.28-.56-.28-1.12-.14 0-.17.03-.25.01-.08-.02-.11.52-.38.41-.04-.05.19-.44-.06-.6-.08-.05.02-.37-.02-.52 0 0-.32.17-.56-.42-.12-.16-.28.14-.28.14s.07.18-.06.22c-.18-.13-.31-.06-.54-.24-.23-.18.05-.39-.39-.54.28-.7.28-.56.98-.84-.42-.28-.42-.28-.7-.7-.42-.14-.56-.28-.98-.56-.56-.7-.84-2.11-.84-3.09.36-.33.84 1.12 1.54 1.55l.98.42c.56.28.7.56 1.12.84l1.26.42c.56.42.84.98 1.26 1.12.46 0 .55-.26.69-.28.82-.04 1.24-.15 1.41-.4.17-.2.57.11 1.69-.31l-.14-.56s.3-.24.7-.14c-.01-.25-.04-.94.36-1.25-.24-.25-.08-.44-.08-.44s.22-.21.25-.33c-.12-.62.1-.63.15-.81.05-.18-.19-.12-.12-.37s.47-.31.53-.52c.05-.21-.12-.31-.11-.36.09-.2.02-.66 0-.84.76-.2 1-.82 1.27-.56.14-.84.28-1.12 1.12-1.12.12-.26-.31-.48-.14-.56.28-.04.5-.02.83.41.11.14.12-.2.23-.23.11-.04.36-.04.4-.2.04-.17.1-.39.24-.68.14-.24.23.07.33.52.59.02 1.93.15 2.49.31.42.11.7-.11 1.11-.15.3.3.58.08.74.71.22.34.59.03.67.13.47 1.29 2.08.42 2.21.44.21 0 .46.58.62.56.26-.04.19-.22.42-.15-.07.49.45 1.05.45 1.42 0 0 .13.06.24-.05.12-.11.22-.39.33-.38.25.03.35.07.63.12.76.26 1.15.32 1.44.45.14.25.27.38.55.33.23.15.06.36.2.37.28-.14.37-.29.65-.15.28.14.56.42.7.7 0 .14-.14.7 0 1.55.07.28.1.5.41.98-.08.49.38 1.33.38 1.54 0 .28-.22.42-.36.71.56.42 0 1.12-.28 1.54 2.1.42 1.12 1.27 2.81.84-.42.98-.27.9.15 1.89-.84.56-.02.73-.58 1.43-.04.04.33.61.85.61-.14 1.12-.56.7-.42 2.39-1.11-.02-.66 1.26-1.4 1.13.04.8.42.87.28 1.69-.56.14-.56.14-.84.56l-.42-.14c-.14.7-.42.84 0 1.54 0 0-.54.02-.7 0-.01.24.24.31.28.56-.02.1-.8.54-1.4.56-.16.34.42.71.38.89-.66.13-.95.93-.95.93s.34.14.28.28c-.18-.13-.28-.14-.56-.14-.15.05-.5 0-.83.56-.36.12-.53.08-.8.44-.12-.34-.29 0-.51.14-.21.13-.5.46-.54.45.01-.09.13-.45.13-.45l-.7.14s-.03 0-.09.01c-.05.01-.04-.41-.17-.39-.13.01-.51.52-.64.54-.13.02-.17-.16-.28-.15-.11.02-.33.53-.41.55-.08.01-.39-.32-.66-.27-1.38.49-1.6-.96-1.82-.14-.29-.16-.24-.07-.53.01-.19.05-.21-.25-.37-.24-.33.01-.32.33-.5.23-.15-.66-1.05-.54-1.14-.82-.07-.29.39-.29.54-.49.11-.29-.12-.39.34-.67.61-.41.26-.56.36-.87.19-.44.19-.55.03-.94 0 0-.47-1.27-.57-1.27-.28-.08-.28.46-.69.61-.84.28-2.33-.71-2.59-.71-.24.01-1.33.26-1.29-.29-.16.53-.77.13-.8.13-.56 0-.35.44-.72.42-.17-.06-1.9-.16-1.9-.16v.28l-1.12-.56-.98-.29c-.84-.28-.42-.98-1.83-.56v-.84h-.7c.28-1.68 0-.84-.14-2.39l-.56.14c-.56-.76.78-.61-.42-1.12 0 0 .02-.84-.28-.56-.06.03.14.42.14.42-1.13-.14-1.4-.42-1.4-1.54 0 0 .93.13.84 0-.13-.21-.3-1.58-.27-1.67-.01-.19.86-.65.69-1.09.1-.06.41-.06.41-.06M44.96 20.94c-.02 0-.05-.01-.06-.03-.06-.09-.06-.21-.02-.32.01-.03.04-.05.07-.04.03 0 .06.02.06.05.04.11.08.19 0 .31-.01.02-.03.03-.05.03M11.8 10.51s-.01 0 0 0c-.04 0-.08-.03-.09-.06-.02-.1 0-.16.03-.19.04-.05.11-.08.2-.08.03 0 .07.02.09.05.01.03.03.06.01.08-.07.05-.12.07-.16.15-.02.03-.05.05-.08.05M11.8 10.08s-.01 0 0 0a.09.09 0 0 1-.09-.06c-.02-.09-.02-.16.02-.2.06-.08.15-.08.23-.08.03 0 .07.01.09.04.02.02.04.05.04.08-.01.03-.05.06-.07.07a.23.23 0 0 0-.15.12c-.01.02-.04.03-.07.03" fill="#fff"/><path d="M12.96 12.6c-.03 0-.06-.02-.08-.05-.05-.1-.09-.12-.1-.14-.01-.03-.03-.07-.02-.1.01-.03.02-.06.05-.06.06 0 .14.01.2.08.03.04.05.1.03.21-.01.03-.04.06-.08.06.01 0 0 0 0 0" fill="#fff"/></svg>
