<svg xmlns="http://www.w3.org/2000/svg" viewBox="0 0 58.92 34.37"><path fill="#120065" d="M0 0h58.92v34.37H0z"/><path fill="#ac002b" d="M58.92 0L0 17.19l58.92 17.18z"/><path fill-rule="evenodd" clip-rule="evenodd" fill="#fff" d="M58.92 1.84v30.69L6.31 17.18z"/><path d="M47.38 21.04s-.43-.35.08-.92c-.28-.23-.02-.68-.02-.68s-.47-.18.02-.9c-.35-.23-.2-.76-.2-.76s-1.15-.43-.06-.84c-.9.39-1.74-.53-1.74-.53l-1.31.04c-.22-1.08-1.94-.14-.66-3.26-.33-.06-.7-.16-1.07.12-.37.27-1.42.86-2.05.27-.62-.58.41-1.42.43-1.44.02-.02 1.39-.72 1.58-1.19-.02-.35-.45-.62-.06-1.39.45-.72 3.2-1.4 4.45-1.64.61-.28.88-.8.88-.8l.14.51s2.77-.82 2.91-1.21c.14-.39.06.35.06.35 1.09-.1 2.48-1.04 2.67-.61.91-.16 2.67-.94 2.67-.94s.6-.02.18.64c.27.43-.08.8-.1.8-.02 0 .12.43-.23.66.12.37-.21.66-.21.66s.16.45-.47.68c.06.39-.35.47-.35.47s.06.41-.21.59c0 .31-.31.47-.31.47s.19.12-.08.31c-.27.2-3.1 1.93-3.1 1.91 0-.02 2.07.37 2.21.45.13.08 1.7 1.11 1.7 1.11l-1.58 1.95s-1.76-.19-1.83-.1c-.08.1.37.14.47.29.1.16.25.53.56.49.31-.04-.58.57-1.17.62 0 .22.74.23.94.06.19-.17-.47.51-.55.6-.08.1.88-.14.88-.14s-.16.64-.99.84c.33.54.19.9.18.9-.02 0-.55-.55-1.06-.45.14.53.55 1.02.66 1.09.12.08-.92.06-1.05-.23-.13-.29-.25.7.12 1.02-.43.02-.8-.23-.8-.23s-.25.58-.08.88c.18.29-.6-.59-.6-.59l-1.48.62-.37-.55z" fill-rule="evenodd" clip-rule="evenodd" fill="#8f3814"/><path d="M49.82 21.68c-.03 0-.08-.01-.67-.66l-1.42.64c-.03.01-.06 0-.07-.03l-.33-.56s-.16-.14-.18-.37c-.01-.19.06-.38.23-.57-.19-.22-.08-.54-.02-.66a.462.462 0 0 1-.16-.21c-.06-.18 0-.42.18-.7-.27-.22-.22-.6-.19-.74-.14-.06-.51-.24-.52-.48 0-.09.04-.16.12-.24-.75.02-1.35-.61-1.37-.64l-1.26.06c-.03-.01-.05-.02-.06-.05-.07-.34-.29-.46-.52-.59-.49-.28-1-.57-.16-2.63h-.02c-.32-.06-.67-.07-.94.12-.34.25-.9.54-1.41.54-.29 0-.53-.09-.72-.27a.64.64 0 0 1-.22-.49c.01-.46.5-.91.65-1.03.01-.01.01-.01.09-.05 1.09-.6 1.41-.94 1.48-1.12a.966.966 0 0 0-.1-.26c-.11-.25-.25-.57.04-1.13.57-.92 4.45-1.66 4.49-1.67.57-.26.83-.77.84-.77.01-.02.03-.04.06-.03.02 0 .04.02.05.04l.12.45c1.06-.32 2.72-.9 2.81-1.16.04-.1.06-.15.12-.15.06.04.1.08.07.46.46-.06.96-.25 1.41-.42.6-.23 1.07-.39 1.22-.18.91-.19 2.6-.94 2.62-.94.07-.01.29 0 .38.16.07.13.03.32-.13.57.19.24.1.51.02.64 0 .01-.05.1-.11.15.02.15.04.46-.22.66.08.36-.2.64-.24.68.03.01.13.44-.45.68.02.28-.19.43-.35.47.01.12 0 .43-.25.59.02.21-.15.36-.25.43.02.03.03.06.03.09 0 .08-.05.17-.17.25-.2.15-2.35 1.47-2.96 1.83.5.08 1.93.36 2.06.43.14.08 1.64 1.07 1.7 1.11.02.01.02.02.03.04 0 .02 0 .03-.01.05l-1.58 1.95c-.06.02-1.18-.1-1.66-.1-.07 0-.12 0-.14.01.03 0 .08.02.11.03.12.05.27.1.33.19l.04.08c.09.16.26.39.45.39.12 0 .15.04.15.07.01.16-.72.57-1.2.65.13.08.67.09.8-.03a.25.25 0 0 1 .07-.04c.07.08.07.08-.26.43-.08.08-.15.16-.21.22.25-.03.74-.15.75-.15.02-.01.04 0 .06.02.01.01.02.04.01.06-.01.03-.16.64-.96.86.26.46.19.8.15.88-.01.02-.04.04-.06.04a.35.35 0 0 1-.08-.05c-.13-.11-.5-.45-.9-.41.15.48.51.92.62.99.02.02.04.06.03.08-.01.04-.05.07-.23.07-.22 0-.82-.06-.94-.31 0 .01-.03.16-.01.35.01.13.05.44.22.59.02.02.03.04.02.06-.01.02-.03.04-.05.04-.36 0-.65-.14-.77-.21-.06.15-.18.55-.06.76.01.02.04.1.03.12l-.07.02zm-2.67-4.65c-.24.1-.36.2-.36.31 0 .17.36.35.49.39.03.01.04.04.04.07 0 0-.14.49.17.7.01.01.02.02.03.04 0 .02 0 .03-.01.05-.18.26-.25.48-.2.64.04.13.15.17.15.17.02.01.03.02.03.04.01.02 0 .03 0 .05 0 .01-.23.41.01.61.01.01.02.03.02.04 0 .02 0 .03-.01.04-.17.18-.24.36-.23.53.01.19.15.3.15.3l.32.54 1.43-.6c.21.2.41.41.54.53-.09-.32.1-.77.11-.79.01-.02.02-.03.04-.03.02-.01.04 0 .05.01 0 0 .28.19.63.22-.2-.29-.2-.79-.14-.97.06-.15.19-.04.21-.01.07.16.53.24.84.24h.05c-.18-.18-.49-.61-.61-1.06 0-.02 0-.03.01-.05.01-.01.02-.02.04-.03.46-.09.92.31 1.06.43-.01-.02.05-.33-.22-.79-.01-.02-.01-.04 0-.05.01-.02.02-.03.04-.03.61-.14.84-.52.92-.7-.19.04-.6.14-.74.14-.02 0-.09-.02-.1-.04-.01-.02 0-.06.01-.08.03-.04.16-.17.29-.31.04-.04.07-.07.1-.11-.35.08-.79.03-.79-.21 0-.03.02-.06.05-.06.47-.05 1.14-.46 1.18-.55l-.05.05c-.27 0-.43-.28-.53-.45l-.04-.07c-.04-.06-.17-.1-.27-.14-.12-.04-.2-.07-.22-.14-.01-.02.01-.07.02-.08.03-.03.08-.05.27-.05.49 0 1.57.12 1.62.13l1.49-1.88c-.28-.18-1.52-1.01-1.64-1.08-.11-.06-2.02-.44-2.17-.44-.02 0-.04-.01-.05-.03a.064.064 0 0 1 0-.06c.12-.06 2.81-1.71 3.12-1.93.08-.06.12-.11.12-.15 0-.04-.04-.06-.04-.06a.055.055 0 0 1-.03-.05c0-.02.01-.04.03-.05 0 0 .28-.14.28-.41.27-.2.22-.57.22-.58 0-.03.02-.06.05-.07.01 0 .35-.07.3-.4 0-.03.01-.05.04-.06.56-.21.44-.59.43-.61.02-.07.32-.33.22-.67-.01-.03 0-.05.02-.07.26-.17.22-.46.21-.57 0-.02 0-.07.01-.08.02-.02.35-.33.09-.73.13-.27.18-.42.13-.51-.06-.1-.23-.11-.25-.11-.05.03-1.75.78-2.67.96-.03 0-.05-.01-.06-.03-.01-.03-.05-.08-.17-.08-.21 0-.54.13-.93.28-.48.19-1.02.4-1.52.44-.02 0-.03-.01-.05-.02a.076.076 0 0 1-.02-.05c.01-.09.02-.19.02-.27-.34.42-2.64 1.11-2.91 1.19-.02 0-.03 0-.05-.01a.138.138 0 0 1-.03-.04l-.1-.38c-.12.18-.39.51-.83.71-1.56.3-4.02.97-4.42 1.62-.26.5-.14.78-.03 1.02.05.11.09.22.1.33-.12.31-.62.7-1.54 1.2l-.07.04c-.29.25-.6.62-.61.95 0 .15.06.29.18.4.17.16.38.23.63.23.62 0 1.27-.46 1.34-.51.29-.22.68-.21 1.03-.14l.09.02c.02 0 .03.02.04.03.01.01.01.03 0 .05-.83 2.03-.39 2.28.08 2.55.24.13.48.27.57.63l1.26-.04c.05.02.61.62 1.28.62.13 0 .25-.02.37-.06l.08-.03c.03-.01.06 0 .07.03.01.03 0 .06-.03.08l-.08.01z"/><path d="M35.92 19.88c.03 0 2.15-.03 3.13-.59a5.79 5.79 0 0 0 1.15 1.29l.31-1.11s.76.03.83.21c-.1.21-.14.49-.14.49s.52.03.56.1c.03.07-.14.66-.14.66l2.22.52s.17-.87.35-.76c.17.1.94 1.18 2.01 1.25 1.08.07 1.15-.9 1.15-.9l.24.14s.45-.97.52-.97.17.14.76.14c.17.21.24.7.24.7s-.66.66-.45 1.18c.21.52.24.38.24.38l4.8 1.15s.24.38-.18.59c0 .03-4.83-1.11-4.83-1.11s-.45.52-.8.42c-.35-.1-.1.21-.1.21l5.21.42s.38.49.1.63c-.35.04-5.63-.35-5.63-.35s-.31.66-.66.1c-.24.38-.52-.1-.52-.1s-.45.35-.52-.03c-.38.28-.63-.18-.63-.18l-2.22-.14-.14.21s.38.1-.21.35c-.59.24 3.54.14 3.65.18.1.03-.28.35-.28.35s2.12.14 2.5-.31c.38-.45-.14.59-.14.59s1.67-.07 1.67-.14-.04.52-1.18.45c.7.45 1.56.73 1.56.73s-.87.21-1.88-.03c.18.45.94.87.94.87s-.55.49-1.8-.69c.35.62.07.87.03.8-.03-.07-.63-.94-2.01-1.25.87.55.49.8.49.8s-.45-.8-1.18 0c-.28-.73-1.35-1.15-2.67-1.21-.42-.49-.66-.35-1.63-.63-.55-.63-1.35-1.32-1.35-1.32s.04-.94.97-.83c.1.31.1.21.1.21s1.04-.38 1.35.14c.45-.8 1.08-.12 1.18.16.3.05 1.81.09 1.81.09s-.17-.31-.07-.28c.1.03.94-.31.9-.42-.04-.1-.07-.45.07-.42.14.04-1.18-.17-1.91.38-.24-.24-.07-.91-.07-.91l-2.15-.45-.1.56s-.63.1-.59-.03l-.14.49s-.83-.21-.83-.24c0-.04.24-1.25.24-1.22 0 .04-.69.07-1.67.8-.27-.94-2.46-2.09-2.46-2.12" fill-rule="evenodd" clip-rule="evenodd" fill="#f4c034"/><path d="M47.68 27.59h-.04l-.03-.04c-.01-.01-.48-.77-1.66-1.14.22.18.33.34.33.49 0 .14-.11.21-.11.22l-.05.03-.03-.05s-.17-.29-.45-.32c-.2-.03-.41.09-.64.33l-.06.07-.03-.09c-.25-.66-1.23-1.1-2.62-1.18-.31-.34-.5-.38-.91-.45-.19-.04-.43-.09-.74-.17-.57-.63-1.37-1.33-1.38-1.33-.02-.07 0-.49.3-.75.18-.16.42-.21.72-.18.07.14.11.2.12.22.25-.11 1-.31 1.33.07.19-.29.4-.34.55-.33.35.03.63.39.69.57.21.01 1.31.04 1.65.04-.09-.19-.06-.23-.05-.25l.03-.03.07.01c.09.02.78-.27.83-.36a.649.649 0 0 1-.02-.36c-.96-.05-1.47.18-1.73.37l-.04.03-.04-.04c-.22-.22-.13-.72-.1-.9l-2.04-.43-.09.5c-.21.07-.48.11-.62.06-.04.15-.11.39-.11.39l-.01.05-.06-.01c-.88-.22-.88-.24-.88-.3 0-.02.04-.23.12-.64.05-.25.08-.4.1-.49-.22.05-.8.2-1.55.76l-.07.05-.03-.08c-.22-.69-1.75-1.6-2.25-1.9-.22-.13-.22-.13-.22-.17v-.06h.06c.02 0 2.14-.04 3.1-.58l.05-.03.03.05a5.4 5.4 0 0 0 1.06 1.21l.3-1.07h.05c.19.01.81.05.89.24-.07.17-.11.36-.13.45.49.04.53.11.54.13.03.06-.01.27-.12.64l2.11.49c.05-.21.16-.68.32-.75l.03-.01.08.02c.04.03.1.09.2.19.31.32.96 1 1.79 1.06 1.01.06 1.08-.81 1.08-.85l.01-.09.27.15c.44-.95.51-.95.55-.95l.09.03c.08.04.24.11.67.11.23.24.3.72.3.74-.02.06-.65.69-.46 1.17.13.32.18.36.18.36l4.81 1.13c.04.03.15.22.1.41-.03.12-.12.22-.26.29-.01.01-.02.02-.45-.08.09.12.2.32.16.48-.02.07-.06.13-.13.16-.36.04-5.35-.32-5.65-.34.02.02-.13.31-.36.33-.11.01-.21-.05-.31-.18-.06.07-.14.1-.21.1-.15 0-.27-.15-.33-.23-.09.06-.27.16-.41.11-.06-.02-.1-.07-.13-.13-.1.05-.2.07-.29.05-.22-.05-.34-.28-.35-.29l-2.17-.11-.06.12c.04.02.1.07.1.13.01.1-.11.2-.37.3.11.06 1.92.06 2.79.05.66 0 .82 0 .85.01l.03.01.02.05c.01.06-.06.16-.2.29.66.03 2.03.03 2.31-.3.08-.09.15-.16.21-.12.04.03.1.07-.21.69.67-.03 1.38-.08 1.52-.11l.01-.03.1.01v.06c0 .01 0 .03-.01.04-.07.16-.28.46-1.01.47.64.38 1.35.61 1.36.61l.2.06-.21.05c-.03.01-.83.19-1.78-.01.23.39.85.73.86.73l.07.04-.06.06c-.02.02-.54.46-1.67-.51.11.32.04.5 0 .55-.01.1-.06.13-.1.13m-2.35-1.45l.33.07c1.26.28 1.91 1.04 2.04 1.25 0-.02.02-.04.03-.07.02-.07.06-.28-.15-.65l-.18-.33.28.26c.92.88 1.45.81 1.64.74-.21-.13-.73-.47-.87-.84l-.04-.11.11.03c.69.17 1.31.12 1.63.07-.3-.11-.88-.35-1.36-.66l-.19-.12.22.01c.68.04.95-.16 1.06-.3-.2.03-.63.07-1.55.11h-.1l.04-.09c.09-.18.19-.39.24-.52-.4.47-2.46.34-2.55.33l-.15-.01.12-.09c.14-.11.26-.24.27-.28-.02.03-.39.03-.79.03-2.61.01-2.91-.05-2.93-.17-.01-.07.07-.1.09-.11.29-.12.29-.19.29-.19 0-.01-.04-.04-.08-.05l-.08-.02.19-.28 2.27.11c.05.03.15.22.32.26.08.02.17-.01.27-.07l.08-.05.02.09c.02.1.06.12.08.12.1.04.29-.08.35-.13l.05-.04.03.06c.04.06.15.22.26.22.06.01.11-.04.16-.12l.05-.08.05.08c.08.13.17.2.25.19.14-.01.27-.22.31-.29.1-.03 4.89.32 5.6.32h.07c.02-.01.04-.04.04-.07.03-.14-.13-.38-.19-.46l-5.17-.39c-.08-.08-.18-.21-.12-.3.05-.07.16-.05.24-.03.26.08.62-.26.74-.4l.13-.56.02.01c-.04-.05-.1-.16-.19-.39-.21-.54.41-1.19.46-1.24-.02 0-.09-.43-.24-.62-.41.02-.59-.06-.68-.1-.07.02-.31.49-.51.92l-.03.06-.23-.13c-.05.25-.27.93-1.19.87-.87-.06-1.54-.76-1.87-1.09-.08-.08-.14-.15-.17-.17-.06.01-.19.35-.26.72l-.01.04h.01l-.21.62-.01-.01c-.04.2-.08.56.04.74.29-.2.85-.42 1.85-.36v.01l.06-.01c.06.02.06.06.05.07l-.01.05h-.08c-.04.04-.03.23 0 .34l.01.04-.05.07c-.13.13-.74.41-.92.39.04.02.08.11.12.19l.05.09h-.1c-.06 0-1.52-.04-1.81-.09-.11-.2-.37-.51-.64-.53-.18-.01-.34.1-.48.34l-.05.09-.05-.09c-.28-.47-1.27-.12-1.28-.11-.08.03-.1-.02-.18-.24-.21.01-.42.06-.57.19-.26.22-.28.59-.28.62 0-.03.8.67 1.34 1.28.28.07.51.11.7.15.41.08.64.13.93.47 1.34.05 2.33.49 2.65 1.15.23-.23.45-.33.68-.31.25.03.42.21.49.32.01-.02.02-.04.02-.07 0-.09-.07-.28-.54-.58l-.29-.17zm3.44-2.94c1.92.42 4.63 1.06 4.76 1.07a.41.41 0 0 0 .18-.21c.04-.15-.05-.29-.05-.29l-4.73-1.11-.03.01-.13.53zm-.98.47h-.02c0 .01.04.08.08.13l4.61.35c-.7-.16-1.86-.43-3.77-.88.03.01-.42.53-.8.42-.05-.02-.08-.02-.1-.02m-7.91-1.32c.07 0 .4.09.72.17.04-.15.07-.25.09-.32l.44-1.98.01-.06c0-.01.04-.29.15-.51-.03-.03-.4-.1-.74-.12l-.32 1.15-.07-.05c-.01-.01-.65-.51-1.13-1.26-.82.44-2.37.54-2.91.57.01 0 .02.01.02.02.55.32 1.97 1.17 2.28 1.89.75-.54 1.32-.68 1.54-.73.03-.01.05-.01.07-.02.01-.01.02-.01.04-.01h.06v.06c0 .01 0 .02-.01.03-.03.14-.23 1.13-.24 1.19-.01-.02-.01-.02 0-.02m.97-.32h.01l-.02.08c.03.01.28 0 .52-.04l.07-.57h.01l.12-.55h-.01l.02-.06c.07-.26.15-.57.14-.62-.03-.01-.24-.04-.45-.06l-.41 1.82zm.7-.49l2.06.43.16-.48-2.11-.5-.11.55zm6.66 5.08h-.12c-.01-.05-.18-.21-1.54-.69-.18-.06-.19-.07-.17-.12l.08-.04c.1.02.83-.06 1.08-.09.09-.01.15-.02.16-.02v.12c-.01 0-.07.01-.15.02-.32.04-.59.07-.79.08 1.2.42 1.45.6 1.45.74m-2.49-.61c-.39-.25-.85-.51-1.07-.59-.1 0-.16 0-.18-.01l-.04-.06.05-.07c.04-.02.1-.01.18.02.3-.01.91-.09.98-.14l.08.08c-.07.07-.48.13-.82.16.3.15.68.38.88.51l-.06.1zm-2.15-.16c-.17 0-.56-.23-1.12-.6-.05-.03-.09-.06-.12-.08a.163.163 0 0 1-.06-.03l-.04-.04.03-.05c.03-.03.04-.04.13.02.15.04.68.05 1.14.04v.12c-.21.01-.62.02-.91-.01.56.37.89.55.96.52l.04.11c-.02-.01-.03 0-.05 0m-2.11-.67c-.58-.12-.84-.4-1.06-.65-.05-.06-.1-.11-.15-.16l-.14-.14.2.04c.21.05.59.18.84.27.12.04.21.08.23.08l-.01.12c-.02 0-.04-.01-.26-.08-.18-.06-.43-.15-.63-.21 0 .01.01.01.01.02.22.25.45.51.99.62l-.02.09zm.15-.92c-.03-.02-.21-.09-.37-.16-.71-.28-1.03-.43-1.03-.58v-.08l.08.03c.35.12.77.23 1.15.14l.03.11c-.32.08-.65.03-.96-.06.22.12.58.26.77.33.36.14.41.16.43.2l-.1.07z"/><path d="M38.63 17.03s-1.46 1.25 0 1.98c.07-.49.17-.56.17-.56s1.21.45 1.94-.63c-.31-.45-.87-.28-.87-.28s-1.14.01-1.24-.51" fill-rule="evenodd" clip-rule="evenodd" fill="#f4c034"/><path d="M46.88 24.68l-.05-.11c.05-.03.1-.34.12-.65-.02-.05-.11-.22-.17-.32l-.28.34c0 .15-.04.59-.17.66l-.05-.1c.05-.03.1-.31.12-.59l.01-.01h-.01c-.01-.03-.07-.21-.11-.31-.15.09-.32.22-.34.3-.01.05-.02.12-.03.2-.04.27-.07.43-.16.47l-.04-.11c.04-.03.07-.26.09-.38a.98.98 0 0 1 .04-.21c.01-.02.02-.04.03-.07h-.03c.01-.13 0-.27-.02-.29-.09.01-.58.46-.6.86l-.12-.01c.01-.18.1-.37.22-.54l-.61-.09.02-.12.68.1c.16-.19.34-.33.42-.33h.03l.06.04c.05.05.06.17.06.26.12-.11.29-.21.33-.23l.06-.03.02.07c.06.16.09.25.11.31l.23-.29a.36.36 0 0 1-.15-.08c-.06-.05-.09-.1-.09-.16-.18.02-.32-.02-.42-.11-.04-.04-.07-.08-.1-.12-.07 0-.39.02-.39.02l-.01-.12s.24-.01.35-.02c-.04-.12-.04-.24-.04-.3-.21-.01-.25 0-.26 0v.02l-.08-.08c.01-.06.01-.07.48-.06.13.01.25-.04.33-.12.18-.18.17-.5.17-.5h.12c0 .02.01.38-.21.59-.11.11-.25.16-.42.15H46c0 .09.01.32.15.44.1.08.24.11.43.07.5-.36.53-.75.55-.97.01-.06.01-.12.02-.16.04-.12-.14-.18-.14-.18l.04-.11c.08.03.2.1.22.21.06-.03.25-.12.4-.05.07.04.13.1.15.21.07-.05.22-.12.36-.08.08.03.14.09.18.19.07-.03.24-.07.37.04l-.08.09c-.09-.08-.23-.03-.26-.02.05.34-.16.9-.35 1.18-.08.12-.14.17-.2.18l-.01-.12c.01 0 .06-.03.14-.16.17-.28.38-.83.3-1.11-.02-.09-.07-.14-.12-.16-.11-.04-.25.06-.29.09l-.01-.02c.02.41-.31 1.03-.59 1.24l.02-.01c.1.22.4.2.46.18l.03.12c-.05.01-.23.03-.38-.04l.12.17.35-.03.01.12-.35.03.04.54-.12.01-.04-.65-.1-.13-.23.23c-.02.23-.06.67-.19.73m-.01-1.16c.04.08.12.23.16.31l.22-.23a.345.345 0 0 1-.1-.13c-.09.04-.19.05-.28.05m-.07-.13c.09.02.2.01.3-.03.26-.11.66-.84.6-1.22-.01-.09-.04-.14-.09-.17-.1-.05-.25.02-.31.05l-.04-.06c0 .02 0 .05-.01.07-.01.03-.01.07-.02.13-.02.23-.06.67-.63 1.07h-.02c0 .03.02.06.05.09.05.04.1.06.17.07zm-3.78.83l-.1-.06a.385.385 0 0 0-.02-.49l.09-.08c.09.09.22.35.03.63m-4.34-5.12l-.07-.04c-.41-.2-.64-.47-.68-.79-.08-.64.63-1.26.66-1.29l.08-.06.02.1c.08.39.89.47 1.19.47-.01 0 .58-.18.92.3-.7 1.09-1.84.77-2 .72.01.03-.06.15-.11.5l-.01.09zm-.08-1.96c-.17.17-.61.65-.56 1.12.03.26.21.48.54.66.07-.41.16-.5.19-.52.01 0 .02 0 .03.01l.94-.81c-.32-.02-.97-.1-1.14-.46m.34 1.3c.36.08 1.2.18 1.76-.65-.29-.34-.8-.19-.8-.19h-.04l.02.03-.94.81z"/><path d="M38.68 17.04s.19-.19.25-.43c.06-.23-.08-.49.16-.7.23-.22 3.32-1.52 3.57-1.78.25-.25.72-.8.78-.92.06-.12.24.59-.29.9.57-.15.94-.33 1.17-.25-.23.33-.86.88-1.15.88.69-.25 1.31-.47 1.48-.33.18.14-.84.82-1.25.86.69-.17 1.6-.45 1.72-.16-.37.12-.25.21-1.01.64-.1.08-.59.1-.59.1.59-.06 1.38-.29 1.46.14-.47.18-.64.41-1.03.51-.39.1-1.29.27-1.83.49-.55.22-1.35.84-1.35.84s-1.74.06-1.74.04c0-.03-.33-.81-.35-.83" fill-rule="evenodd" clip-rule="evenodd" fill="#fff"/><path d="M39.13 17.92c-.11 0-.16 0-.16-.06a17.1 17.1 0 0 0-.34-.79c-.02-.02-.01-.05.01-.07 0 0 .18-.19.24-.4.02-.07.02-.15.01-.23-.01-.16-.01-.34.16-.5.11-.1.7-.38 1.65-.82.84-.39 1.79-.83 1.92-.96.26-.26.72-.8.77-.9.01-.02.04-.04.07-.04.07 0 .09.08.1.11.05.18.03.49-.16.72.06-.02.12-.03.17-.05.35-.11.6-.18.77-.12.02.01.03.02.04.04.01.02 0 .04-.01.05-.11.15-.31.36-.53.55.39-.12.72-.18.85-.08.02.01.04.09.04.11-.02.14-.31.37-.61.55.54-.12.97-.15 1.05.07v.05c-.01.02-.02.03-.04.03-.17.05-.23.1-.34.19-.09.08-.21.18-.46.33.06-.01.12-.01.17-.01.12 0 .47 0 .52.3 0 .03-.01.06-.04.07-.21.08-.36.17-.51.26-.16.1-.32.2-.53.25l-.34.08c-.45.1-1.07.24-1.48.4-.53.21-1.32.82-1.33.83-.02 0-1.28.04-1.66.04m-.06-.12c.25 0 1.69-.04 1.69-.04 0-.01.78-.62 1.33-.83.42-.17 1.04-.31 1.5-.41l.34-.08c.2-.05.34-.14.5-.24.13-.08.28-.17.48-.25-.03-.08-.12-.16-.39-.16-.13 0-.29.02-.44.04-.15.06-.54.08-.55.08-.05 0-.06-.02-.06-.05 0-.03.02-.06.05-.06.12-.01.25-.03.38-.05l.17-.02c.4-.23.56-.36.67-.45.09-.08.16-.13.29-.18-.17-.11-.84.04-1.38.18-.08.03-.16.05-.23.06-.03.01-.06-.02-.06-.05-.01-.03.01-.06.04-.07l.2-.05c.47-.17 1.03-.6 1.02-.71-.02-.01-.05-.03-.13-.03-.23 0-.65.14-.98.26-.13.08-.24.12-.33.12-.03 0-.05-.02-.06-.05-.01-.03.01-.06.04-.07l.31-.11c.27-.16.58-.45.76-.67-.14 0-.35.06-.62.14-.13.04-.27.09-.43.13-.03.01-.06-.01-.07-.03-.01-.03 0-.06.02-.07.22-.13.3-.32.32-.46.04-.18 0-.32-.02-.35 0 .12-.47.68-.72.93-.13.13-.86.47-1.95.98-.74.34-1.51.7-1.62.8-.15.09-.14.23-.14.38 0 .09.01.17-.02.26-.05.2-.19.36-.24.43.08.15.27.59.33.75"/><path d="M39.56 16.91l-.12-.01c0-.02.02-.42.22-.57.06-.05.2-.11.37-.2.31-.16.75-.37.87-.55.05-.07.08-.11.13-.08s.04.06-.02.17c-.06.13-.26.53-.22.65l-.11.04c-.04-.11.03-.31.12-.53-.21.16-.48.29-.72.41-.04.02-.09.04-.13.06.16.09.36.27.29.52l-.11-.03c.08-.28-.28-.41-.29-.42v-.01c-.05.03-.08.05-.1.06-.14.1-.18.38-.18.49"/><path d="M40.03 16.92a.37.37 0 0 1-.37-.37c0-.21.17-.38.37-.38.21 0 .37.17.37.38.01.2-.16.37-.37.37m0-.65c-.15 0-.27.12-.27.27s.12.27.27.27c.15 0 .27-.12.27-.27s-.12-.27-.27-.27"/><path d="M53.56 15.85l3.38.65s.37-.43.17-.66c.51-.12.37-.78.37-.78s.58-.25.1-.84c.33-.33-.08-.58-.08-.58s.13-.58-.29-.64c.12-.47-.74-.62-.74-.62s-1.78.49-3.02.53c.41.41-.15.66-.15.66s.33.23.23.43c-.1.2.06.41-.37.55.57.25-.06.68-.06.68s.62.41.46.62" fill-rule="evenodd" clip-rule="evenodd" fill="#fff"/><path d="M49.81 20.77c-.56-.58-.36-1.5-.35-1.54l.12.03c0 .01-.2.89.32 1.43l-.09.08zm-.92-.31c-.01-.03-.02-.07.01-.45l.12-.05v.06c-.02.23-.02.36-.02.39l-.11.05zm-.81-.22c-.45-.4-.15-.99-.1-1.08-.18-.35.19-.85.21-.87l.02.02c-.09-.36.2-.9.26-.99-.06-.08-.12-.17-.18-.27-.11-.17-.22-.34-.33-.46-.22-.25-1.08-.34-1.21-.35v-.02c-.06.12-.21.19-.23.2l-1.07.06-.01-.12 1.05-.06c.03-.01.14-.08.16-.16.01-.05-.02-.09-.08-.15l.08-.09c.08.07.12.14.12.22.14.01 1.02.1 1.27.39.11.13.22.3.34.47.15.22.3.44.39.49.04.02.08.03.1.02l.14.01c0 .01-.02.07-.1.1-.06.02-.13.01-.21-.03a.61.61 0 0 1-.17-.16c-.15.27-.38.85-.1 1.04l-.07.1a.427.427 0 0 1-.13-.14c-.1.15-.34.58-.07.81l-.08.09c-.01-.01-.03-.02-.04-.04-.08.15-.24.58.1.88l-.06.09zm2.37-.3c-.51-.26-.65-.97-.65-1l.12-.02c0 .01.13.68.59.91l-.06.11zm-2.76-.25l-.28-.19.07-.1.28.19-.07.1zm3.2-.64c-.01-.1-.27-.33-.45-.46l.07-.1c.08.06.47.36.49.55l-.11.01zm-3.17-.3c-.16 0-.32-.15-.34-.17l.08-.08c.04.04.18.16.28.14l.02.12c-.01-.01-.03-.01-.04-.01m4.01-.04c-.43 0-.97-.35-.99-.37l.07-.1c.01 0 .63.41 1.03.34l.02.12c-.04 0-.08.01-.13.01m-.27-.68c-.53 0-.91-.17-.93-.18l.05-.11c.01 0 .63.28 1.37.12l.03.11c-.19.05-.36.06-.52.06m-4.13-.13c-.03 0-.06-.01-.09-.02l.05-.1c.1.05.48-.19.54-.24l.08.08c0 .01-.36.28-.58.28m3.83-.53c-.55 0-.93-.33-.95-.34l.08-.09c0 .01.55.46 1.23.26l.03.11c-.14.04-.27.06-.39.06m5.82-.84l-3.52-.64.05-.08c.01-.01.02-.03.01-.06-.03-.15-.31-.38-.44-.48l-.02.02c-.07-.06-.85-.25-1.57-.39l.02-.12c.31.06 1.23.26 1.54.38.08-.06.28-.23.27-.38-.01-.08-.07-.15-.2-.2v.03s-1.02-.04-1.05-.04v-.12c.02 0 .81.03 1.01.04l.05-.02c.23-.07.26-.16.28-.26-.16-.25-1.27-.27-1.98-.23l-.01-.12c.17-.01 1.59-.09 2 .2l.03-.11c.06-.12-.12-.29-.2-.35l-.02.02c-.11-.08-1.42-.17-2.59-.21v-.12c.68.03 2.18.1 2.58.21l.02-.01s.24-.11.27-.28c.02-.09-.03-.19-.13-.29l-.1-.1h.14c1.23-.04 2.99-.52 3.01-.52.05 0 .58.1.76.39.05.08.07.16.06.25.09.02.16.07.21.15.11.16.09.4.08.51 0 .01 0 .02-.01.03.02-.01.18.11.2.28.01.1-.02.21-.11.3.15.19.2.37.16.53-.04.19-.2.29-.27.34.04.24 0 .65-.35.78.16.28-.16.66-.18.67m-3.34-.73l3.3.63c.04-.09.25-.41.12-.57l-.05-.06c-.15-.13-.55-.27-.66-.27-.14 0-3.01-.34-3.13-.35v-.01l-.03.03c.13.1.42.33.45.53.01.03.01.05 0 .07m-.32-.72c.88.1 2.93.34 3.03.34.13 0 .63.16.78.34.34-.11.31-.52.29-.65l-4.05-.1v-.02c0 .03-.03.06-.05.09m.31-.18l3.84.09c.05-.02.2-.11.24-.27.03-.12-.01-.26-.12-.4-.55.33-3.13.53-3.96.58m-.34-.37c.1.07.15.14.16.23v.02c1.43-.09 3.66-.31 4.07-.57l-.02-.02.04-.04c.08-.08.12-.17.11-.24-.02-.14-.18-.24-.18-.25v-.02c-.17 0-2.41.23-3.91.39-.01.04-.01.07-.02.11-.01.15-.03.29-.25.39m.11-.96c.09.08.21.22.19.36 2.83-.31 3.63-.36 3.87-.36 0-.12.01-.3-.07-.42a.265.265 0 0 0-.19-.11l-.07-.01c-.42.04-2.39.33-3.73.54m.17-.63c.07.1.1.2.08.3-.01.07-.05.14-.1.19 2.47-.39 3.31-.48 3.61-.48.01-.07 0-.13-.04-.19-.16-.24-.65-.33-.66-.34.01 0-1.66.45-2.89.52m-2.34 3.04l-.03-.11c.31-.08.49-.1.55-.04l-.08.08c-.04-.01-.26.03-.44.07m-2.09-.25c-.37 0-.56-.15-.57-.16l.03-.04c-.44.1-.78-.07-.78-.07l.01-.02c-.18.08-.36.11-.54.1-.55-.04-.88-.51-.89-.53V15c-.22 0-.44-.04-.64-.13-.25-.11-.42-.27-.47-.42-.04-.17.06-.23.13-.28.08-.05.14-.09.1-.25-.06-.43-.92-.57-1.34-.63-.13-.02-.19-.03-.23-.04-.11-.04-.29-.26-.42-.44.04.16.05.32.03.46l-.12-.02c.11-.86-1.07-2.16-1.08-2.17l.09-.08c.04.04.71.79 1 1.55l.03-.02c.15.21.42.56.52.6.03.01.11.02.2.04.44.07 1.37.22 1.43.73.05.23-.07.31-.15.37-.07.04-.1.07-.08.15.03.12.19.26.4.35.45.19 1.02.15 1.52-.11l.05.1c-.27.15-.57.23-.85.24.1.12.37.4.76.42.37.03.75-.17 1.13-.59l.09.08c-.19.21-.38.36-.57.47.23.09 1 .26 1.67-.85l.1.06c-.34.56-.7.81-1.02.91.14.08.6.26 1.39-.17l.06.1c-.41.23-.74.3-.99.3m.9-2.46l-.1-.07c.18-.25.42-.34.61-.41.13-.05.25-.09.31-.17.1-.1.14-.18.13-.25-.01-.05-.06-.08-.09-.1-.02-.01-.03-.02-.03-.02l.01-.02-.01-.01-.02.06c-.12-.03-.22.04-.28.09l.01.07c-.04.18-.34.42-.9.71l-.05-.1c.64-.33.79-.53.83-.61h-.01c-.01 0-.22-.08-.41.09l-.04.03.01.01c-.02.02-.52.4-.96.58l-.05-.11c.4-.17.88-.53.93-.56-.08-.1-.22-.11-.26-.1h-.01c-.26.21-.9.71-1.12.68l.02-.12c.1.02.62-.33 1.04-.67 0-.05-.01-.12-.05-.16-.04-.04-.1-.04-.19-.02h-.01c-.12.08-.42.26-1.23.73l-.06-.1c.43-.25 1.07-.63 1.23-.73.02-.19-.01-.32-.08-.38-.11-.09-.31-.02-.31-.02l.01.02-1.46.9-.06-.1 1.43-.89c.01-.05.02-.18-.04-.24s-.18-.03-.27 0l-.01.01c-.15.1-.59.36-1.89 1.08l-.06-.1c.68-.37 1.68-.94 1.88-1.07.01-.11-.01-.2-.07-.26-.07-.08-.19-.09-.23-.09v.01c-.41.31-2.03 1.12-2.1 1.16l-.03-.11c.02-.01 1.68-.84 2.06-1.12.05-.13.05-.24-.02-.32-.11-.13-.36-.14-.44-.13-.02.08-.06.15-.12.23-.41.12-1.4.73-1.82.99-.2.12-.2.12-.22.12l-.02-.11c.01-.01.08-.05.18-.11.43-.26 1.42-.88 1.82-.98.09-.15.13-.34.05-.46-.06-.1-.19-.14-.35-.1l-.01-.04c-.11.18-.29.34-.42.38-.28.1-2.09 1.03-2.1 1.04l-.06-.11c.07-.04 1.83-.95 2.12-1.05.16-.06.48-.4.44-.61-.03-.16-.26-.2-.46-.2v-.02c-.72.31-2.25 1.09-2.62 1.33-.44.28-.96.01-.98 0l.05-.1c.01 0 .49.25.86 0 .43-.28 2.41-1.28 2.91-1.44.48-.15.76-1.08.86-1.48l.12.03c-.07.28-.2.68-.38 1.01l2.79-.82c-.01 0 .43-.38.45-1.05h.12c-.01.29-.09.53-.18.71.49-.06 2.73-.39 2.73-1.28h.12c0 .25-.15.46-.38.64.92-.26 2.91-.84 3.13-1.07l.09.08c-.28.3-2.84 1.01-3.29 1.13.14.13.2.27.18.41l2.93-.82.03.11-3 .84-.01.02c.05.02.16.07.21.2.03.08.04.17.01.28l2.52-.77.04.11-2.61.8c-.01.01-.01.02-.02.04.06.03.19.12.21.26 0 .03 0 .07-.01.1l2.17-.65.03.11-2.29.69c-.01.01-.01.02-.02.02.05.02.23.09.26.24 0 .02.01.04.01.06.63-.19 1.53-.47 1.59-.47v.12c-.07.01-.98.29-1.62.48-.02.05-.06.1-.11.16l.05-.02c.1.04.23.08.26.19l1.03-.42.04.11-1.07.43-.01-.03c-.02.08-.1.18-.24.29-.5.22-1.62.67-1.87.77l-.1.16c.05.01.11.04.15.11.02.04.03.08.03.13.08-.03 1.08-.42 1.55-.67.15-.1.24-.2.26-.3a.223.223 0 0 0-.03-.14l.09-.08s.05.07.06.17c.85-.37.89-.37.9-.37l.01.12c-.05.01-.59.24-.91.39l-.01-.03c-.03.11-.12.22-.27.33.03.03.07.08.07.15 0 .09-.05.18-.17.26-.07.04-.19.1-.33.17.04.04.09.1.07.2l-.12-.02c.01-.07-.04-.1-.05-.1l.02-.04c-.43.22-1.01.53-1.17.61v.01l-.04.02-.73.48c.04.03.08.08.1.14.02.11-.03.22-.15.35-.07.1-.21.15-.36.2-.19.06-.4.14-.55.36m-.19-.99c.06.01.12.03.16.08.01.01.02.02.03.04.17-.11.34-.09.42-.07.06-.06.21-.2.4-.16l.82-.54h.01c0-.08-.03-.11-.07-.14v.01c-.08 0-1.34.46-1.77.78m-.38-.31c.08 0 .14.02.19.07.05.05.07.12.08.18.38-.3 1.54-.75 1.81-.83l.01-.01c.16-.24.15-.34.13-.38-.03-.06-.14-.06-.14-.06h-.07l-2.04.89v.15c.01-.01.02-.01.03-.01m-.38-.51c.07 0 .16.02.23.07.05.04.09.1.11.17l2.1-.9.09-.2s.01 0 .01-.01c-.02-.05-.09-.17-.36-.24h-.02c-.07.07-.2.16-.36.21-.24.07-1.72.68-1.94.77.02.05.02.1.02.14.03-.01.07-.01.12-.01m2.6-.07c.06.05.1.1.12.16v.01c.34-.18 1.23-.64 1.49-.78.07-.05.12-.11.11-.16 0-.05-.06-.09-.06-.09l.01-.01c-.51.27-1.5.65-1.51.65l-.04-.1c0 .09-.04.2-.12.32m-2.99-.24c.08 0 .14.02.18.06l.01.01c.17-.07 1.71-.7 1.96-.78.18-.06.32-.18.37-.23-.01-.22-.25-.39-.32-.44-.01.05-.04.14-.1.18-.08.06-1.71.61-2.41.84.03.02.06.04.08.07.07.07.1.17.1.3.05-.01.09-.01.13-.01m-.5-.41c.98-.32 2.45-.82 2.54-.88.04-.03.07-.13.08-.18 0-.01.02-.01.04-.02 0-.07-.02-.22-.23-.37l-.03-.03c-.05.05-.13.13-.25.19-.19.1-1.96.61-2.54.77.11.02.23.06.31.14.07.07.13.18.08.38m3.16-.48c.25.07.34.2.37.29.34-.14 1.36-.55 1.82-.76.18-.15.2-.22.19-.24-.01-.05-.11-.09-.18-.11l-.07-.02.01-.02c-.48.29-1.87.77-2.14.86m-.35-.56c.11.08.29.24.33.45.35-.13 1.65-.58 2.09-.85.06-.06.11-.12.13-.17l-.01-.04c.01 0 .02-.01.03-.01.01-.02.01-.05 0-.07-.03-.11-.19-.16-.19-.16l.03-.09c-.03.03-.06.05-.1.08-.48.28-1.88.73-2.31.86m-3.78.08c.15 0 .28.06.35.17.04.06.06.13.06.2.87-.24 2.48-.71 2.65-.8a.77.77 0 0 0 .29-.24c.01 0 .03-.01.06-.02 0-.18-.15-.34-.21-.41l-.03-.05-3.19 1.07c-.01.03-.02.06-.03.08h.05m3.5-.57c.18.15.23.3.24.4.47-.17 1.83-.61 2.27-.86.09-.06.19-.16.18-.26-.01-.1-.13-.16-.16-.18-.76.3-2.13.73-2.51.85-.01.01-.01.03-.02.05m-3.88.02c.27.04.35.17.37.28 0 .02.01.04.01.06l3.13-1.04c.01-.05.09-.29.02-.43-.02-.05-.07-.08-.14-.1l.01-.03-2.83.83-.01-.04c-.14.21-.3.38-.5.45-.02 0-.04.01-.06.02m3.64-.66c.08.08.24.26.26.47.47-.15 1.76-.56 2.46-.83.08-.15.11-.3.07-.41-.04-.11-.16-.14-.16-.14l.01-.04c-.49.29-2.52.78-2.61.8l-.01-.04c-.02.1-.06.19-.07.21h.07-.06l.04-.02zm-.14-.66c.06.03.11.07.14.13.04.08.04.17.03.26.27-.07 2.13-.52 2.53-.77.14-.22 0-.38-.14-.49l-.03-.03c-.81.45-2.17.6-2.3.62-.09.14-.18.23-.23.28m3.23 2.73l-.05-.11.82-.39.05.11-.82.39z"/></svg>
