<svg xmlns="http://www.w3.org/2000/svg" viewBox="0 0 58.92 34.37"><path fill="#250392" d="M0 0h58.92v34.37H0z"/><path fill="#f5cc28" d="M13.31 0l34.37 34.37V0z"/><path fill="#fff" d="M8.31 0H5.93L5.2 2.25 7.12.86l1.92 1.39zM40.76 32.97h-2.37l1.91 1.4h2.38l1.92-1.4h-2.38l-.73-2.25zM11.42 5.16l1.92 1.39-.74-2.26 1.92-1.39h-2.37L11.42.64l-.74 2.26H8.31l1.92 1.39-.73 2.26zM15.71 9.45l1.92 1.4-.73-2.26 1.92-1.39h-2.37l-.74-2.26-.73 2.26h-2.37l1.92 1.39-.74 2.26zM20.01 13.75l1.92 1.39-.73-2.25 1.92-1.4h-2.38l-.73-2.25-.73 2.25H16.9l1.92 1.4-.73 2.25zM24.31 18.04l1.92 1.4-.74-2.26 1.92-1.39h-2.37l-.73-2.26-.74 2.26H21.2l1.92 1.39-.73 2.26zM28.6 22.34l1.92 1.4-.73-2.26 1.92-1.39h-2.37l-.74-2.26-.73 2.26H25.5l1.92 1.39-.74 2.26zM32.9 26.64l1.92 1.39-.73-2.25 1.92-1.4h-2.38l-.73-2.25-.73 2.25h-2.38l1.92 1.4-.73 2.25zM37.2 30.93l1.91 1.4-.73-2.26 1.92-1.39h-2.37l-.73-2.26-.74 2.26h-2.37l1.92 1.39-.73 2.26z"/></svg>