<svg xmlns="http://www.w3.org/2000/svg" viewBox="0 0 58.93 34.37"><path fill="#1b257d" d="M0 0h58.93v34.37H0z"/><path fill="#f4c638" d="M19.64 0h19.64v34.37H19.64z"/><path d="M29.46 7.67c-.64 1.74-1.29 3.55-2.68 4.94.43-.14 1.19-.27 1.67-.26v7.32l-2.06.31c-.08-.01-.1-.12-.1-.28-.2-2.27-.74-4.18-1.35-6.16-.04-.27-.83-1.3-.22-1.12.07.01.88.34.75.18-1.1-1.14-2.71-1.96-4.27-2.2-.14-.04-.22.03-.09.19 2.07 3.19 3.8 6.95 3.79 11.42.81 0 2.76-.48 3.56-.48v5.17h2.02v-5.17c.81 0 2.76.48 3.56.48-.01-4.47 1.72-8.23 3.79-11.42.13-.16.04-.23-.09-.19-1.56.24-3.17 1.06-4.27 2.2-.13.16.68-.17.75-.18.6-.18-.18.85-.22 1.12-.62 1.98-1.16 3.89-1.36 6.16 0 .16-.02.28-.1.28l-2.06-.31v-7.32c.48-.02 1.24.11 1.67.26-1.4-1.39-2.05-3.2-2.69-4.94"/></svg>