<svg xmlns="http://www.w3.org/2000/svg" viewBox="0 0 58.92 34.37"><path fill="#bc0030" d="M54.34 0H4.58l24.88 14.51zM4.58 34.37h49.76L29.46 19.86z"/><path fill="#50b63f" d="M58.92 31.7V2.67L34.04 17.19zM0 31.7l24.88-14.51L0 2.67z"/><path d="M58.92 0h-4.58L36.6 10.35a10.143 10.143 0 0 0-7.13-2.91c-2.79 0-5.32 1.11-7.14 2.91L4.58 0H0v2.67l19.9 11.61a9.629 9.629 0 0 0 0 5.82L0 31.7v2.67h4.58l17.75-10.35a10.14 10.14 0 0 0 7.14 2.9c2.79 0 5.32-1.11 7.13-2.9l17.75 10.35h4.58V31.7l-19.9-11.61c.3-.92.45-1.89.45-2.91 0-1.01-.16-1.99-.45-2.91l19.9-11.61V0z" fill="#fff"/><path fill="#50b63f" d="M30.12 11l-.66-1.15L28.8 11h-1.32l.66 1.15-.66 1.14h1.32l.66 1.15.66-1.15h1.33l-.67-1.14.67-1.15zM35.15 19.71l.66-1.15h-1.32l-.66-1.14-.66 1.14h-1.33l.66 1.15-.66 1.14h1.33l.66 1.15.66-1.15h1.32zM25.76 18.56l-.66-1.14-.67 1.14h-1.32l.66 1.15-.66 1.14h1.32L25.1 22l.66-1.15h1.32l-.66-1.14.66-1.15z"/><path fill="#bc0030" d="M30 11.21l-.54-.94-.54.94h-1.09l.55.94-.55.94h1.09l.54.93.54-.93h1.09l-.54-.94.54-.94zM34.91 19.71l.54-.94h-1.08l-.54-.94-.55.94H32.2l.54.94-.54.94h1.08l.55.94.54-.94h1.08zM25.64 18.77l-.55-.94-.54.94h-1.08l.54.94-.54.94h1.08l.54.94.55-.94h1.08l-.54-.94.54-.94z"/></svg>