<svg xmlns="http://www.w3.org/2000/svg" viewBox="0 0 58.92 34.37"><path fill="#ba0019" d="M0 0h58.92v34.37H0z"/><path fill="#120065" d="M0 0h30.11v15.05H0z"/><path d="M15.05 9.21l11.69 5.84h3.36v-1.68L18.42 7.53l-3.37 1.68zM0 13.37v1.68h3.37l11.69-5.84-3.36-1.68L0 13.37zM0 0v1.68l11.69 5.84 3.36-1.68L3.37 0H0zm26.74 0L15.05 5.84l3.37 1.68 11.69-5.84V0h-3.37z" fill="#fff"/><path fill="#fff" d="M12.55 0v5.02H0v5.02h12.55v5.01h5.01v-5.01h12.55V5.02H17.56V0z"/><path fill="#ba0019" d="M13.55 0v6.02H0v3.01h13.55v6.02h3.01V9.03h13.55V6.02H16.56V0z"/><path d="M10.03 10.04L0 15.05h2.24l10.04-5.02h-2.25zm10.04 0l10.03 5.02v-1.12l-7.79-3.9h-2.24zM0 1.12l7.79 3.9h2.24L0 0v1.12zM27.86 0L17.83 5.02h2.24L30.11 0h-2.25z" fill="#ba0019"/><path fill="#fff" d="M38.66 9.21h13.02v12.5H38.66z"/><path fill="#49902a" d="M38.69 21.37l.13.7.46.55 1.12.94 2.18 1.19 2.42 1.5 4.72-2.57 1.08-.7.79-.98.07-1.19-.19-.38.04.39-.12.32-.14-.09-.09-.59-.01.44-.23.26-.05-.32.06-.23-.09-.26-.03.52-.12.23-.11-.16.05-.22-.02-.22-.07-.1-.02.23-.04.07.01.14-.09.09-.06-.18.03-.17-.03-.15-.06-.17.01.27-.15.34-.12.07-.07-.09.01-.32-.11-.18.03.4-.15.35-.09-.11-.05-.11v-.16l.17-.43-.17.15-.13.37-.06.1-.08-.18.11-.41-.06-.07-.14.5-.12.07-.09-.03-.06.03-7.37.41-.19-.29-.05.29-.12.11-.12-.53-.1.56-.12-.27.06-.63-.06-.04-.09.33v.47l-.04.32-.1-.06-.12-.29-.01-.47.04-.33-.12.39v.49l-.01.24-.16-.33-.07-.28-.16-.31.1.41v.21l-.26-.23-.14-.64-.03.47.06.23-.07.09-.16-.27-.09-.37-.1-.35v.57l.07.3-.06.08-.12-.06-.04-.34-.04-.49-.12.34-.03.35-.05.27-.07.18z"/><path d="M45 26.27l-.01-.01-2.41-1.5-2.18-1.19-1.13-.94-.45-.55-.14-.71.22-.03.07-.17.07-.62.12-.34.1.82.12.06.04-.08-.07-.29v-.57l.12.35.09.37.16.27.05-.1-.06-.22.03-.47.16.64.25.22-.01-.21-.1-.4.18.31.08.27.15.34-.01-.73.12-.4-.02.34.02.47.11.29.09.05.03-.31v-.47l.09-.34.08.04-.06.64.12.27.08-.57.14.54.1-.11.05-.29.21.29 5.54-.32-5.55.33-.2-.29-.03.29-.12.11-.14-.54-.07.56-.15-.27.06-.63-.05-.03-.08.32v.47l-.04.32-.11-.05-.13-.29-.01-.48.04-.34-.1.4v.49l-.01.24-.18-.33-.07-.27-.15-.32.11.4v.22l-.28-.22-.14-.65-.01.47.06.23-.07.1-.18-.28-.19-.71.02.56.07.3-.06.08-.13-.06-.06-.34-.03-.49-.1.34-.07.62-.08.19-.22.02.15.69.45.54 1.12.95 2.18 1.18 2.41 1.5 4.71-2.57 1.08-.7.8-.97.06-1.19-.19-.38.06.39-.12.33-.15-.09-.1-.6.01.44-.23.26-.07-.32.06-.23-.09-.26-.01.52-.12.23-.13-.15.05-.24-.02-.21-.07-.1v.22l-.04.09.01.13-.09.1-.08-.19.03-.17-.09-.32.03.27-.15.34-.12.08-.09-.09.01-.33-.11-.17.06.39-.16.35-.11-.1-.05-.11v-.17l.17-.43-.15.16-.19.47-.1-.18.11-.42-.06-.07-.12.5-.13.08-.1-.03h-.04l.05-.02.09.03.12-.07.12-.5.09.07-.11.42.08.18.17-.47.17-.16-.15.44.01.16.04.11.09.1.13-.35-.03-.39.13.18-.01.32.07.09.11-.08.14-.33-.01-.27.08.16.03.16-.03.17.06.17.07-.09-.01-.13.04-.08.02-.22.09.1.02.22-.05.23.11.14.1-.23.03-.51.11.26-.06.23.05.32.21-.27.01-.43.11.59.14.08.1-.31-.05-.39.22.37-.07 1.2-.79.99-1.09.7z"/><path d="M45.36 9.56l-.3.24h-.32l-.05.11-.01.15-.04.05-.01.08h-.18l-.12-.07-.03.05-.12.34-.07.05h-.08l-.11.1h-.11v.1l.1.13.09.03.03.14.08.12-.11.11-.08.09-.04.07h-.03l-.02-.08-.04-.09-.1.06-.09.06.01.1.14.18.13.01-.12.23h-.02l-.01-.14-.06-.05-.04.01-.09.06-.06.09-.01.06-.03.05-.04.09.01.08.07.09.07.06.14.05.05.01h.25l-.07.16-.07.18-.08.15-.05.02-.02-.03v-.08l.1-.22-.01-.07-.06.02h-.07l-.03-.02-.15.12-.1.15-.02.11.03.15.09.16.07.05.06.02.02.03-.02.05.06.06.11.04-.03.05-.08.08-.05.07-.04.1.04.14-.04.07-.09.03-.2.03-.1.05-.02.1-.06.09-.19.07-.15.02-.17.02h-.09l-.05-.08v-.12l-.08-.15-.09-.1-.15-.06-.1-.01-.1.03-.08.09h-.07l-.1-.13-.09-.06-.05-.01-.09.03-.18.19-.09-.01-.11-.07-.11.07-.05.02-.1.09v.13l.06.15.06.06.06.01v.13l.03.06.14.14-.1.14-.02.09v.16l.02.08.2.27-.01.06-.19.14-.18.17-.05.13v.1l.01.02-.17.13-.01.15.03.25.08.11.12.08.1.03.14-.01.11-.07.07-.06.02-.18.13.09.15.19.11.17v.05h-.17l-.07-.04-.17.01-.1.04-.09-.01-.05-.02-.11.06-.22.11-.17.1-.08.01-.1.08-.08.01-.12.15-.03.1.01.19.06.12.01.21.03.04-.02.14-.07.1-.01.07-.04.09-.06.08-.01.21-.03.2.01.27.01.27-.08.17-.07.08-.01.1-.02.07h.1l.05-.04-.02.09.2-.2.02.09.09-.07.01-.15v-.08l.05.12.03.03.07-.06.01-.07.04.13.04.04.09-.1.01-.25-.06-.16.02-.02.09.22.04.08.08.13.04.15.13-.02.06-.38.1.32.13.49.08.28.1.17.06.19.09.14.14.19.15.11.19.06h.26v.1l-.1.09-.04.08-.1.17-.07.07-.26-.01-.15-.07-.08-.02-.17.03-.13.1h-.06l-.13.06-.08.08-.03.11-.09.14-.04.08.04.11-.05.08V23l.07.19.12.12.08.05.05-.02-.01-.2.04-.11.08.05.13-.06.11.08-.04.14.01.18.08.19.14.17.1.08.01-.05-.01-.4.09-.08h.11l.13-.1.06-.02.06-.05.01-.07.05.02.04.13-.01.14-.02.02.03.04.01.04h.1l.24-.22.06-.14.02-.21.05-.04v-.05l-.05-.08.06-.02.01.03h.08l.13-.08.07-.09.06-.02.28-.29.2.07.31.12.22.05.05.02.1.01.09.05.11.14.03.05-.04.02-.12-.06-.05.02-.13.11v.21l.12.16.27.02.12-.06.1.06.14-.06.13-.04.18.07.09.02.09-.02.08-.06.13.02h.12l.08-.06.06-.1.04-.08-.01-.11-.06-.08-.08-.03h-.08l.01-.05.11-.07.41-.21.08-.01.11-.08.11-.01.18-.14.06.03.07.06.11.16.09.13.07.05.08.14.1.11.07.05.08.01-.05.08-.02.09.03.13-.05.16v.18l.06.16.08-.05.27-.26.1-.01.1-.07.05-.15.03-.09.04.06.06.15.12.12.09.04.01.18v.2l.04.02.14-.1.12-.15.08-.18.02-.18-.04-.16-.01-.1.04-.11.13.13.1.05.04.3.09-.05.12-.13.1-.16.03-.18-.02-.26-.04-.26-.15-.21-.06-.02-.07-.09-.01-.05-.2-.15-.15-.03-.13.05-.07.11h-.05l-.16-.13-.01-.1-.08-.08v-.03l.09-.07.1-.01.16-.09.14-.1.12-.15.1-.16.04-.19.07-.21.11-.36.08-.32.1-.05.12-.05.1-.1.06-.01.05-.09h.06l.02-.11.04-.06.07-.03s.02.18 0 .2c-.02.02-.14.25-.14.25l-.04.15-.01.05.11.02.12-.05h.06l.14-.15.12-.23.04-.23.05.07.01.12-.04.19-.03.16-.04.05.04.07.1-.06.1-.02.28-.31.12-.41v-.39l-.04-.04.06-.07-.01-.14-.04-.12-.07-.07-.12.09-.07-.01-.09-.16-.01-.24-.03-.04.01-.09.07-.14.01-.2-.08-.19-.11-.14-.09-.03-.11-.01-.09-.06-.05-.02-.08.01-.08-.1h-.12l-.07-.05-.06.03s-.13-.04-.15-.04h-.09l-.11-.1-.04.02-.13-.01-.2-.07.02-.06.16-.14.1-.04.15.13.12.09.16.04.19-.06.12-.13-.03-.12-.04-.28-.14-.18-.07-.33-.15-.21-.04-.09-.02-.1.03-.12.22-.11.08-.13-.03-.19-.05-.17-.15-.22.11-.13.07-.17.02-.09-.02-.11-.05-.07.03-.03-.03-.06-.17-.06-.13-.05-.06.03-.17-.02-.08.04-.16.07-.17.08-.13.02-.25.16-.17.07-.3-.01-.13-.02-.24-.24-.05-.02-.02-.09-.07-.03-.11.06.02-.12-.03-.15-.12-.19-.1-.05-.17-.05-.04.13.01.18-.07.04h-.03v-.12l.01-.21-.05-.14-.1-.21.02-.02.09.2.1.03.12.05.14.03.16-.04.07-.07.1-.14.01-.14-.11-.14v-.07l.05-.07-.06-.07-.15.01-.09.1-.04.12v.05l-.06-.02-.04-.11-.05-.22-.05-.07-.05-.11-.1-.15.15.2.07.08.16.08.04.07.13-.03.12-.04.05-.11.05-.12v-.08l.02-.02-.06-.07-.05-.29s-.09.02-.11.04c-.02.02-.08.11-.08.11l-.04.07-.08-.03-.08-.11-.06-.07-.03-.01-.02-.03h.05s.03.02.09-.04c.07-.05.13-.08.13-.08s.04-.02.05-.04.08-.22.08-.22l-.01-.1-.1.05-.12.09-.12-.01-.17-.15.02-.05.12-.08.07-.16.08-.27s-.02-.02-.06-.02c-.04-.01-.08-.08-.08-.08l-.08-.05-.1-.09v-.39l-.12-.02-.28.03-.07-.16-.04-.06-.02-.11-.13.04-.17.06h-.06l-.08-.06-.07-.03-.1-.07-.11-.08z"/><path d="M41.78 23.86l-.1-.08-.14-.18-.08-.19-.01-.18.04-.14-.1-.07-.12.06-.09-.05-.03.1.01.2-.07.03-.08-.05-.12-.13-.08-.18.01-.32.05-.09-.04-.1.22-.42.33-.16.17-.03.24.09h.25l.06-.06.14-.25.1-.09-.01-.09-.24.01-.19-.06-.15-.11-.23-.33-.06-.19-.1-.17-.31-1.1-.04.38-.14.03-.05-.16-.17-.32.19.31.04.15.12-.03.05-.37.12.32.21.77.1.17.06.19.23.32.14.11.18.06h.25l.01.11-.14.18-.17.24h-.27l-.24-.09-.16.03-.13.1-.19.06-.06.08-.03.11-.12.22.04.11-.05.09.01.3.07.18.2.17.06-.33.1.05.11-.07.12.08-.03.15.02.17.08.19.22.24.01-.03-.01-.39.09-.08.11-.01.25-.16v-.06l.07.02.03.13v.25-.01h.1l.23-.22.06-.13.02-.21.06-.09-.01.01-.05-.1.08-.02.09.03.19-.16.34-.3.98.33.14.21-.04-.01-.11-.19-.09-.05h-.09l-.78-.27-.39.38-.13.08h-.09l-.01.06-.06.1h.01l-.02.21-.06.14-.24.23h-.11l-.05-.1.02-.15-.03-.12-.11.1-.19.11-.11.01-.08.07.01.39-.01.04-.03-.01zm6.68 0l-.01-.04.14-.08.12-.14.08-.18.02-.17-.05-.26.04-.11.24.18.05.31.08-.06.21-.29.03-.17-.06-.51-.09-.13.11.12.06.52-.03.18-.22.29-.1.05-.06-.31-.09-.04-.13-.13-.02.1.05.25-.02.18-.08.18-.12.15-.15.11zm-.99-.14l-.08-.17v-.19l.05-.16-.03-.12.08-.18-.08.01-.08-.05-.1-.11-.24-.32-.26-.22-.16.14-.11.01-.11.08-.08.01-.46.25.05-.05.6-.3.11-.01.17-.13.15.09.29.31.18.25.15.05-.07.19.03.13-.05.17v.18l.06.16.33-.32.1-.01.09-.1.08-.23.06.06.06.16.12.12.08.03.02.28-.02-.08-.01-.18-.08-.02-.13-.13-.11-.22-.06.24-.1.07-.1.02-.34.29zm-2.62-.42l-.11-.06-.11.06-.28-.02-.13-.16v-.22l.14-.12.04.01-.15.12v.21l.12.15.26.02.11-.06.12.06.26-.1.28.09.09-.02.08-.06.14.02h.12l.07-.06.1-.18-.02-.1-.06-.07-.08-.03h-.08l.04-.04.13.05.07.08.02.11-.1.19-.08.06-.13.01-.13-.02-.07.06-.1.02-.28-.09-.28.09zm4.3-1.21l-.08-.06-.21-.2-.15-.03-.13.05-.06.11-.04-.02.09-.1.14-.05.16.03.2.16.08.11zm-.9-.5l.05-.06.1-.02.3-.19.22-.31.11-.39.19-.67.22-.1.38-.39c.02.06.03.19.01.21-.01.01-.09.16-.14.25l-.04.15.09.05.12-.05.19-.15.12-.22.04-.23.07.07.01.13-.08.47.08-.07.1-.03.28-.31.11-.4v-.23l.02.23-.12.41-.28.32-.1.03-.1.06-.06-.08.04-.06.08-.35-.01-.12-.05-.07-.02.23-.12.23-.14.16-.19.05-.11-.02.04-.21c.01-.03.12-.24.14-.26a.56.56 0 0 0 0-.19l-.05.04-.04.16-.27.2-.22.1-.29 1.06-.23.32-.31.19-.14.06zm-8.22-1.49v-.02.02l.18-.22.04.09.07-.07V19.67l.04.06-.04-.06.02.07-.01.16-.09.08-.03-.09-.18.21zm-.14-.03l.03-.18.15-.25-.02-.53.04-.41.18-.34.01-.11.01.12-.19.33-.04.41.02.53-.19.43.02-.01-.02.01zm.68-.19l-.06-.05-.03-.1.02-.03.04.13.11-.07.01-.24-.06-.16.08.16-.01.25-.1.11zm10.25-1.01l.01-.04-.05-.25-.07-.07-.11.09-.08-.01-.09-.16-.01-.21.03.21.08.15.07.01.12-.09.09.08.04.13.01.14-.04.02zm-10.55-.7l-.03-.21-.06-.12-.01-.19.03-.1.13-.16.08-.02.1-.08.08-.01.5-.27.14.02.1-.04.18-.01.12.02-.06.02-.07-.02-.27.05h-.09l-.15.04-.65.31-.12.15-.03.1.01.18.06.12.01.22zm10.13-.03l-.01-.08.07-.14v-.2l-.08-.19-.11-.14-.42-.11-.09-.1-.12.01-.08-.05c-.06.03-.19 0-.21-.01h-.09l-.07-.06.08.04h.09c.02 0 .15.04.15.04l.07-.03.07.05.12-.01.09.1.08-.01.15.09.2.04.12.15.08.19v.21l-.09.21zm-1.42-1.09l-.21-.07.02-.07.16-.14.11-.05.28.22.15.04.18-.06.12-.13-.03-.11-.04-.29-.14-.18-.07-.33-.19-.3-.02-.11.03-.12.23-.12.07-.13-.08-.35-.15-.22.11-.14.08-.25-.02-.1-.05-.07v-.1l-.3-.1h-.04l.05-.02.3.1.06.17.02.11-.01.09-.07.17-.11.13.15.21.08.36-.08.14-.22.12-.02.11.06.18.15.21.07.33.14.18.07.41-.12.14-.21.09-.16-.04-.28-.22-.09.04-.15.14.18.1.13.01-.14.02zm-7.27-.07l-.25-.36-.13-.09v.17l-.18.14-.15.02-.11-.03-.12-.08-.08-.11-.03-.25.01-.15.15-.11-.13.12-.01.14.03.24.08.1.22.11.13-.01.17-.12.01-.17.14.08.27.36h-.02zm-.86-.89l-.01-.11.05-.14.37-.31-.21-.39.02-.26.11-.15-.18-.19-.01-.06.03.06.18.19-.12.25v.16l.02.08.2.26-.01.07-.36.3-.05.13v.09l-.03.02zm.07-1.69l-.07-.04-.06-.15v-.13l.1-.1.17-.09.12.08.09.01.17-.18.1-.03.14.07.11.13.24-.13.11.01.15.06.18.25v.13l.05.07.4-.04.19-.07.07-.19.1-.05.24-.07.04-.07-.04-.13.09-.19.08-.08-.13-.14.01-.08.03.03.03.1.1.04-.2.32.04.13-.04.08-.34.11-.02.09-.06.09-.2.07-.42.04-.06-.08v-.13l-.17-.24-.25-.06-.09.03-.08.1h-.07l-.2-.19-.13.02-.17.18h-.1l-.12-.08-.25.18v.12l.12.2zm7.12-.15l-.43-.03-.23-.23.24.21.42.03.16-.07.25-.16.14-.02.42-.2.14.01-.13.01-.43.2-.14.02-.41.23zm-.72-.34l-.03-.05-.06-.02-.1.05.01-.13-.03-.14-.11-.18-.26-.1-.03.12.02.17-.08.05-.01-.02.07-.04-.02-.17.05-.13.28.1.12.19.03.15-.02.12.09-.07.08.03v.07zm-.69-.3l-.02-.06.01-.21-.15-.34.12.2.05.14-.01.27zm.32-.32l-.37-.11-.04-.08.05.06.35.11.16-.04.16-.21.01-.14-.11-.14v-.07l.05-.08-.06-.06-.14.01-.08.09-.04.13-.08.02-.05-.11-.15-.41-.1-.15.24.27.25.11.25-.07.1-.23-.03-.16-.05-.29c-.01.01-.07.03-.09.05-.02.01-.06.08-.08.11l-.04.07-.1-.03-.15-.18c.01-.01.01-.02.02-.03l.14.19.08.03.02-.07c.01-.01.06-.1.08-.12.03-.02.11-.04.12-.04l.06.29.05.06-.13.35-.25.1-.26-.11-.1-.12.09.16.09.33.18-.25.16-.01.07.08-.04.09.11.19-.01.15-.17.22-.17.04zm-3.38-.05l-.13-.08-.09-.16-.03-.16.02-.11.1-.15.15-.12.12.02-.08.02-.18.09-.1.15-.02.1.03.15.08.16.13.09zm.2-.38l-.1-.02v-.08l.1-.22v-.02l.02.02-.1.22v.08l.13-.15.14-.34-.24.02-.2-.06-.14-.15-.01-.09.15-.3.09-.06.03.01-.11.06-.11.19.01.01-.04.09.01.08.13.14.14.04.3.01-.2.52zm-.01-.95l-.01-.02.11-.21-.13.01-.15-.18-.01-.1.19-.13.07.14-.07-.12-.17.12.01.09.14.18h.13l-.11.22zm3.08-.17c.02-.03.04-.04.08-.06.07-.05.13-.08.13-.08.06-.05.1-.16.13-.25l-.01-.09-.2.15-.13-.01-.17-.16.03-.04.15.17.12.01.21-.14.02.1c-.02.05-.07.22-.09.23-.06.04-.11.07-.18.12-.04.04-.07.05-.09.05m-2.96-.29l-.02-.02.24-.25-.08-.11-.03-.14-.08-.05-.1-.13v-.1l.12-.01.1-.09h.09l.06-.05.17-.38.12.07h.17v-.07l.1-.31h.33l.3-.24.38.24.35-.1.15.34.27-.04.13.03.01.4.18.13c.01.03.05.08.08.08l.07.03-.14.44-.08.06.06-.07.14-.43c-.1-.02-.14-.09-.14-.1l-.19-.14v-.4l-.12-.02-.28.03-.17-.35-.29.11-.07-.01-.36-.24-.29.24h-.33l-.04.1v.15l-.05.13-.19.01-.13-.08-.14.38-.07.05h-.09l-.1.09h-.11l.01.09.18.2.03.14.07.11-.22.28z"/><path d="M45.04 26.41l-.07-.05c-.88-.64-1.88-1.19-2.85-1.72-1.85-1.01-3.45-1.88-3.55-3.09V9.17h13.35l-.04 11.88c-.09 1.77-1.67 2.57-3.67 3.57-.95.48-2.03 1.02-3.1 1.74l-.07.05zm-6.23-17v12.13c.09 1.07 1.64 1.92 3.43 2.89.95.52 1.93 1.05 2.8 1.68 1.07-.71 2.13-1.24 3.06-1.71 2-1.01 3.45-1.73 3.53-3.36l.04-11.64H38.81z"/><path d="M45.3 11.68c-.02.33-.3.26-.38.17-.09-.3.37-.39.38-.17" fill="#c1001a"/><path d="M45.1 11.94c-.08 0-.15-.04-.19-.08-.03-.1 0-.17.03-.21.1-.13.36-.12.37.03-.01.23-.15.26-.21.26m.05-.37c-.07 0-.15.04-.19.09-.04.05-.05.11-.03.19.03.03.1.07.17.07s.18-.03.19-.24c-.01-.08-.08-.11-.14-.11"/><path d="M45.45 11.66c.03.26.33.3.39.19.1-.25-.28-.41-.39-.19" fill="#c1001a"/><path d="M45.71 11.92c-.12 0-.25-.09-.28-.26.08-.16.31-.14.39-.01.04.06.05.13.02.2-.01.04-.06.07-.13.07m-.09-.35c-.04 0-.12.01-.16.1.03.22.32.28.37.18a.18.18 0 0 0-.02-.18.228.228 0 0 0-.19-.1"/><path d="M45.27 11.41v.06h-.03l-.01-.01-.01-.09-.02-.01v-.04h.04v-.04h-.05l-.02.04-.01.05.02.04-.02.04-.04.02-.05.05-.04.02-.08.01-.07-.03-.07-.06s-.03-.05-.03-.06c0-.01-.02-.05-.02-.05l-.02-.04-.03-.03-.05-.01-.01.06-.02.02-.04.01-.05-.04-.03-.05-.03-.06-.02-.04-.04-.06-.02-.03-.02-.07-.05-.05-.03-.05-.04-.04-.05-.04h-.06l-.04-.03-.06-.05-.04-.06-.03-.03v-.03l.02-.03.04-.03h.04l.05-.01.05-.03.01-.04.01-.06.05-.09.02-.07v-.05l.07-.01.07.01.05.01.05.02.06-.03.05-.07.02-.12.02-.11.03-.06h.13l.05.03.04-.02.04-.02.08.01h.04s.04-.06.05-.07c.02-.01.08-.1.08-.1l.09-.02.11.03.06.07.05.03h.04l.11.07s.03.03.05.02c.01-.01.11-.05.11-.05h.09l.09-.03.03.07s.05.11.06.12c.02.01.07.12.07.12s.03-.01.04-.02c.02 0 .08.01.08.01l.19.01.03-.03.02.04-.03.13.01.1.03.14.05.06h.06l.07.06v.06l-.06.02-.05-.02-.06.04-.1.06-.09.09-.07.11-.05.11-.05.04-.04-.02h-.04l-.02.05-.04.05-.04.14-.08.09-.08.04-.06.05h-.04l-.07-.07-.03-.03-.01-.1-.07-.05h-.05l.07.06v.08l-.04.03-.02-.01-.02-.04h-.02l-.01.08-.08.1-.09-.07v-.09l-.03-.01z" fill="#c1001a"/><path d="M45.4 11.59s-.01 0 0 0l-.09-.07-.01-.09c.01-.01.02-.01.02-.01v.09l.07.06.08-.09v-.07s.06.03.06.04l.03-.1.03.07-.07.04-.12.13c.01 0 0 0 0 0m-.44-.04l-.14-.1-.03-.06-.04-.09-.01-.03.04.02.03.1h.01l.16.15.07-.01.14-.1v.03l-.09.07-.14.02zm.83-.01l-.04-.02.17-.09.08-.08.04-.13s.04-.06.05-.06l.02-.02c-.02.03-.05.09-.05.09l-.04.13-.08.09-.15.09zm-1.2-.22c-.02-.01-.04-.01-.04-.01l-.06-.11-.06-.1-.1-.21-.01.01-.09-.08v.01l-.1-.03-.06-.05-.04-.06-.02-.07.07-.06h.1l-.01-.01.06-.05h-.01l.06-.15c0-.01.03-.12.03-.12l.07-.01.18.05-.01-.01.11-.09.04-.22s.03-.07.04-.07h.13l.08.02.13-.01c.04 0 .07-.05.08-.06.01-.01.05-.05.08-.1l.1-.03.04.02-.12.02c-.02.03-.07.09-.08.1-.01.01-.03.04-.05.06l-.14-.01-.08.03-.17-.03-.06.27-.05.07-.06.03-.19-.04-.07.01-.02.11-.05.09-.02.1-.1.04-.09.02.01.01v.07l.09.1.09.03.1.08.07.1.02.08.05.08.13.18zm1.6-.18l-.04-.03-.03.01.02-.02.05.04.05-.05.12-.21.26-.19.11.01-.07-.11.08.04.01.07-.07.03-.11.02-.19.14-.12.21c-.01 0-.07.04-.07.04m-.03-1.06c-.04-.03-.06-.07-.07-.07-.02-.01-.05-.1-.07-.13L46 9.81l-.27.09-.17-.09-.1-.04-.06-.06.08.05.09.03.11.07.32-.06.04.08c.02.05.05.11.06.12.02 0 .05.05.06.08"/><path d="M44.75 10.65v.1l-.04.06h-.07l-.04.04-.01.03.08.07.07.05.03.04.02.01h.29l.03.04.06-.05.08-.12h.24l.13.1.01.08.03.01.07-.06h.06l.03.04h.05l.17-.15.03-.04h.07l-.01-.05-.07-.02-.06-.07-.02-.1-.05-.01-.09.05-.16.08-.06.04h-.05s-.02-.02-.03-.02h-.06l-.05.04h-.04l-.01-.01-.22-.02-.18-.05-.1-.06-.06-.05-.02-.02-.05.02z"/><path d="M45.67 11.12l-.04-.02-.02-.09-.13-.09h-.24l-.14.16-.33-.03-.2-.16.06-.1.11-.05h-.01v-.1l.05.02-.06.15-.08-.01-.03.05.14.15.33.04.09-.01.08-.12h.25l.14.1.03.1-.01-.01.07-.06h.07l.01.01-.01-.01v.01l-.13.07zm.45-.23l-.13-.12-.02-.11-.36.17-.05-.02.36-.17.07.02.02.1.06.06.07.03v.05l-.02-.01zm-.7-.03l-.47-.07-.15-.11.34.13.22.02.11-.03.09.03-.09-.02-.05.05z"/><path fill="#fdfbfb" d="M44.89 10.92h.13l.03.02v.04l-.06.02-.11.01-.07-.01-.05-.05-.02-.09.07-.08h.07l.01.03z"/><path d="M44.88 11.02l-.08-.01-.05-.05-.02-.1.08-.09h.07l.02.15.12-.01.04.07z"/><path fill="#fdfbfb" d="M45.74 10.91l-.02.02v.03l.02.02.13.01.14-.11v-.05l-.08-.07h-.07l-.02.02.02.04.02.03-.02.05z"/><path fill="#c1001a" d="M43.86 10.68h.12l.07.1.06.07.06.04.05.01.09.14v.02l.08.06.02.09.01.03-.01.04-.04.02-.05-.01-.03-.02-.09.08-.06.08-.03.01-.1.11-.05.01-.08.06h-.13l-.08-.1-.01-.03-.01-.08.07-.05.04.04-.02.04.01.04.04.02.04-.01.15-.12.04-.03.08-.08.05-.03v-.06l-.06-.09-.02-.07-.02-.06-.02-.04-.05-.07-.04-.04-.01-.04-.06-.04-.01-.01z"/><path d="M43.88 11.63h-.13l-.09-.1-.03-.12.08-.06.05.05-.02.02.01-.03-.01.01-.09.02.01.06.09.13h.11l.41-.34.08.03-.04.01-.11.06-.06.08-.26.18zm-.04-.13l-.1-.02.01-.04.01.03.34-.23.06-.07-.01.01-.21-.42-.01.01-.06-.05.02-.01.15.18.02.11h.01l.08.16-.06.09.01.01-.26.24zm.53-.2l.05-.06-.19-.3.17.18.02.09v.08l-.05.01z"/><path fill="#9a0015" d="M46.35 11.17h.07l.07-.04.05-.04h.05l.04.03h.05l.03-.04.02-.06.04-.06.02-.06.04-.09.01-.06h-.1l-.12.1h-.1l-.07.08-.06.01-.06.09-.02.06.01.05z"/><path d="M46.68 11.13l-.03-.02.03.01.14-.31-.08-.05-.12.1-.1.01-.18.17-.02.09-.02-.04.08-.15.13-.09.1-.01.12-.1h.12z"/><path fill="#c1001a" d="M45.07 12l-.08.08-.02.07.04.07.07.01.05-.03.05.06.01.1.1.11.05.01.03-.04.05-.04v-.04l.07-.03.01-.13.04.05.06-.04.08-.01v-.1l-.03-.07-.06-.05-.09-.04-.11-.03h-.05l-.09.05-.1.04z"/><path d="M45.33 12.49l-.04-.01-.1-.11-.03-.13.04.01.01.11.13.12-.01-.01.06-.06-.02.02.01.01c0 .01-.04.05-.05.05m.08-.11l-.01-.02.07-.04.01-.12.19-.01-.04-.16-.26-.12-.32.09-.09.14.03.06h.05l-.04.03-.04-.08.02-.08.08-.08.18-.04.09-.05.32.12.03.07v.11l-.15.05-.05.07-.07.06z"/><path d="M45.7 11.97l.15-.01c.1-.07.15-.34.22-.52.11-.14.24-.19.41-.11l.09.03.12.09h.09l.06.02.09.01.17-.14-.01.14-.12.1-.24.09-.19-.11-.01.03.4.44h.03l.07.07.04-.03.01-.12.14-.12.02.18.05.09v.17l-.13.16-.2.03-.24-.15-.01-.07-.22-.25v.11l.13.27.02.1.05.05.03.08v.1l.06.14.11.01.03-.07v-.1l.11-.11.08-.01.03.04-.04.03-.01.07v.05l.1.13.03.08-.14.22-.1.03-.17-.03-.1-.07h-.06l-.16-.24-.02-.12-.21-.33-.01.07.08.1.04.16.04.28.12.24.01.44.04.05h.05l.07-.05.05-.08-.01-.26h.07l.13.07.1.16.04.07v.14l-.05.01-.1.11-.16.07h-.27l-.06-.05h-.04l-.04-.04h-.08l-.21-.3-.01-.5.03-.11v-.15h-.04V13l-.03.09-.01.14.01.38.23.36.16.08.05.05h-.08l.01.05-.06-.01-.01.03-.04-.02-.06-.04-.08.01-.05.03h-.15l-.06-.12-.05-.1-.16-.15h-.12l-.03-.09.02-.16.03-.14v-.38l-.02.44-.08.24-.03.02-.01.28.05.13.19.21-.13.01-.1-.04-.1.02-.16-.03-.18-.06-.12-.11-.04-.12-.02-.13-.03-.14.03-.11.01-.11-.05.12v.29l-.08-.02v-.08l-.06-.08-.01-.11-.02-.16-.01-.27.01-.16.03-.18-.03-.01-.02.23-.01.46-.05.02-.11.15h-.24l-.1-.08.18-.2-.02-.16-.02-.18-.02-.31-.2.22-.24.17h-.2l-.12-.14-.02-.16.01-.12.12-.16.09-.01.03-.04.02.03-.05.14-.05.1.04.1.12.01.15-.23.11-.27.09-.14v-.08l-.08.06-.1.02-.28.01-.16-.1-.03-.08.01-.07.01-.1.18-.11.01.24.12-.1v-.05l.15-.2.36-.32h.22l.13.09.05.01.16.15.01.19.18.15-.11.13.01.07.1.07.09-.03.04.25.12.07.06.01.23-.27.1-.01.06-.14-.03-.11-.01-.06z" fill="#c1001a"/><path d="M45.55 14.37s-.01 0 0 0l-.1-.04-.1.02-.34-.1-.12-.12-.1-.35v.15l-.09-.01-.01-.09-.06-.08-.04-.35-.01.14-.16.17-.25.01-.1-.08.18-.21-.06-.65-.19.23-.24.17h-.21l-.12-.15-.02-.17.01-.12.13-.17.1-.02v.01l-.09.02-.12.16-.01.11.02.16.11.14h.2l.23-.17.21-.23.08.66-.19.21.1.07h.24l.1-.15.08-.7.01.11.02-.1-.02.15v.05l-.01.16.04.54.06.08v.09l.07.01-.01-.28.05-.13.01.11-.03.11.1.39.11.11.33.09.1-.02.1.04.13-.01-.2-.19-.05-.13.01-.28.1-.27.02-.43.02.38-.05.3.03.08.11-.01.17.15.11.22.27-.05.13.05c-.02.01-.03.03-.03.03l-.1-.05-.27.04-.12-.22-.16-.15h-.11l-.04-.1.02-.15-.05.15-.03.3.05.13.19.21-.14.02zm.9-.26l-.21-.12-.23-.36-.01-.39.04-.23v-.15l.03.07-.05.31.01.37.22.35.21.13-.01.02zm.06-.09l-.16-.11v.01h-.08l-.22-.31-.01-.5.03-.11v-.05l.02.06-.03.11.01.49.21.29.07-.01.1.04.07.07h.27l.15-.07.09-.1.05-.14-.13-.22-.13-.07h-.07l.02.24-.13.14-.11-.06-.01-.44-.12-.24-.08-.44-.08-.1s.01-.07.01-.08l.23.33.02.12.08.11-.1-.1-.02-.12-.21-.33.09.16.09.44.12.24.01.45.09.05-.01-.01.12-.13-.01-.25.09-.01.13.08.14.23v.15l-.15.12-.16.07h-.29zm.47-.78l-.18-.03-.1-.06.1.04.17.02.09-.03.14-.21-.03-.07-.1-.13.01-.13-.06-.06-.11.11v.09l-.03.07-.12-.01-.07-.15-.05-.23.08.12v.11l.06.14.1.01.02-.06v-.08l.12-.12.08-.01-.01.09h.01l-.01.07.12.25-.14.23-.09.03zm-3.21-.32l-.13-.01-.05-.1.06-.15.01.05-.05.1.04.09.11.01.14-.23.2-.41v-.07l-.07.07-.1.02-.28.01-.17-.1-.03-.09.01-.18.18-.12.02.25.02-.02-.03.03-.02-.25-.16.12.02.25.16.1.37-.03.08-.06.02.08-.09.14-.11.27-.15.23zm1.59-.35h-.08l-.12-.07-.05-.26-.08.04-.11-.07-.01-.08.11-.14-.18-.14-.01-.2-.15-.14.17.13.01.2.18.14-.11.14.11.13.09-.03.05.26.11.06.28-.26.11-.02.05-.13-.03-.1-.01-.04v-.01l.06.15-.06.15-.11.02-.22.27zm1.6-.1l-.25-.15s-.01-.07-.01-.08l-.22-.24.02.1.15.36-.17-.35V12l.24.25.01.07.23.14.2-.03.12-.16v-.16l-.05-.08-.02-.18-.12.13v.11l-.03-.01.02-.11.14-.13.08.44-.13.17-.21.02zm-1.26-.48c0-.01-.01-.02 0-.02l.15-.01c.06-.04.11-.18.15-.32.02-.07.04-.13.06-.19.12-.16.26-.19.43-.11l.09.03.13.1h.08l.16.02.16-.13.01.15-.12.11-.24.09-.08-.05.08.02.23-.09.11-.1v-.13l-.15.15-.25-.02-.22-.12c-.16-.07-.29-.04-.4.11-.02.05-.04.12-.06.18-.04.15-.09.29-.16.34l-.16-.01zm-1.89-.1l.11-.19.36-.32h.23l.17.13-.18-.1h-.21l-.35.31-.13.17z"/><path fill="#c1001a" d="M43.08 14.34v.04l.08.11-.01.11-.4.21-.18.01-.09.09-.24.07-.1-.02.02-.06.01-.1-.01-.05-.08-.04v-.09l.1-.03-.03-.04-.05-.01.01-.12.02-.04.01-.03-.01-.06-.02-.05-.07-.02-.18.08-.03-.03-.08.09h-.05v-.07l-.1-.12v-.02l-.17-.03-.12.15h-.08l-.07-.04h-.05l-.05.03-.04-.01-.05.09h-.03l-.03-.07-.05-.08-.02-.04.03-.09.07-.05.09-.05.07-.01.08.05.04.07.1-.09.1-.12.09-.03.11.01.12.16.11.02.14-.1.05-.03.13.02.12.07.13.19.02.19.03.05.23-.02.24-.04z"/><path d="M42.24 14.99l-.12-.03.03-.16-.08-.09-.01-.1.08-.03.02.02-.09.03.01.08.07.03.01.17.08.07.23-.07.09-.08.18-.02.4-.2v-.1l-.08-.1-.13-.03-.47.06-.04-.06-.02-.19-.13-.19-.12-.07-.1-.01.11-.01.13.07.13.2.03.19.24.02.38-.05.09.15v.12l-.41.21-.18.01-.08.08-.25.08zm-.12-.44l-.03-.02.01-.12.04-.07h-.01l-.02-.11v.01l-.35.12-.02-.02.09-.08.21-.05.08.02.03.11-.03.08-.01.12.01.01zm-1.14-.2l-.02-.02.06-.08.1-.03.12.05h.08l.11-.15.18.03.1.18-.11-.14-.16-.05-.11.15h-.09l-.07-.05-.19.11zm-.04-.04l-.09-.11.01-.15.24-.11.09.05.04.08.19-.22.09-.04.12.02.12.17h.1l.18-.1-.17.12-.12-.01-.13-.16-.1-.02-.08.04-.2.21-.06-.08-.07-.04-.22.1-.02.08.08.17z"/><path fill="#5953a2" d="M41.2 14.34l.08.13-.01.23-.03.03-.1-.09-.06-.08-.06-.1v-.08l.06-.05.07-.02z"/><path d="M41.24 14.74l-.17-.18-.06-.09v-.09l.06-.06.08-.02.03.04h-.1l-.05.04v.08l.11.17.1.09.02-.03.01-.22-.05-.09.07.08-.01.25z"/><path fill="#5953a2" d="M41.43 14.71l.17-.34v-.09l-.06-.09h-.09l-.09.08v.3z"/><path d="M41.43 14.74l-.09-.16v-.31l.1-.09h.09l.07.1v.1l-.17.36zm.1-.55l-.08.01-.08.08v.29l.06.11.16-.32v-.09l-.06-.08z"/><path fill="#5953a2" d="M41.72 14.71l.09-.04.22-.21.04-.06-.02-.05-.06-.05-.04-.01-.09.04-.06.05-.1.19z"/><path d="M41.71 14.73l-.02-.16.16-.25.09-.04.12.06-.01.04-.07-.07-.12.03-.05.05-.1.18.02.13.08-.04.24-.25-.01.06z"/><path fill="#5953a2" d="M42.11 14.86l-.08.06-.09-.01-.16-.11v-.03l.1-.01.1-.04h.09l.05.05.01.05z"/><path d="M42.04 14.93l-.1-.01-.17-.11.03-.02.15.11.08.01.08-.06.01-.08-.01.01-.13-.05-.16.05.15-.07h.1l.06.06-.01.1z"/><path fill="#dada54" d="M41.5 14.9l.16.14.11.08.09.03.12.06h.24l.21-.02.11-.04h.21l.18-.08.12-.09h.13l.06-.07h.1l.18-.14.26-.11.26-.1.3-.06.12.01.04.03.06.1.02.04-.03.1-.11.06-.02-.07.07-.05-.02-.04-.1-.01h-.08l-.07.07-.01.15.09.08.1.06.08.01.11-.06.14-.12.07-.14-.02-.2-.05-.13-.13-.1-.17-.07-.3.01-.18.04-.06.03-.19.12-.09.01-.19.12-.07.03-.09.04-.13.05-.25.12-.17.1-.09.01-.2.13-.28.02-.06-.03-.13-.02-.08-.03-.09-.05-.12-.14-.03-.02h-.11l-.04.04z"/><path d="M42.22 15.23h-.24l-.33-.18-.16-.14-.02-.1.05-.06h.11l.24.21.22.05.33.01.2-.13.09-.01.9-.46.08-.01.26-.15.18-.04.3-.01.17.07.14.1.05.13.03.21-.08.14-.25.19-.09-.01-.2-.14.01-.17.07-.07h.09l.1.01-.01.03-.17-.02-.06.06-.01.15.18.13.09.01.23-.18.07-.14-.06-.31-.14-.1-.17-.07-.29.01-.24.07-.19.12-.09.01-.48.24-.7.36-.29.02-.36-.13-.13-.14-.13-.02-.01.13.27.21.2.1.45-.03.11-.04h.21l.3-.17.13-.01.06-.06h.1l.17-.14.53-.21.29-.06.13.01.11.13v.05l-.08-.13-.16-.04-.28.06-.53.21-.18.14h-.1l-.06.06-.13.01-.29.17h-.22l-.1.04z"/><path fill="#c1001a" d="M43.22 14.08l-.07.28.08.08-.01.1.04.03.08-.03.07-.06.08-.02.08-.05.01-.05.09-.05.1-.03.13-.03.12-.02-.09-.06-.26-.17-.11-.01-.04.03-.16.01-.08.02zM44.48 13.8h-.3l-.1-.04-.08-.08-.01-.08-.06-.09-.06-.05h-.08l-.12.08-.06.1v.16l.06.15.23.17.13.03.09-.04.21-.09.13-.09.05-.08z"/><path d="M44.04 14.16l-.14-.03-.23-.17-.07-.15.01-.17.05-.11.12-.08h.09l.13.15.01.08.08.07.09.04h.12l.18.01.04.06-.05.08-.43.22zm-.17-.7h-.08l-.11.08-.05.1-.01.16.07.14.23.17.12.03.42-.21.04-.07-.42-.08-.08-.08-.02-.08-.11-.16z"/><path fill="#c1001a" d="M44.04 13.54l.1-.11.01-.24-.03-.03.03-.09.01-.08h-.04l-.22.21-.16.02-.08.05-.01.05.07.04.11-.01.07.01z"/><path d="M44.04 13.56l-.15-.19h-.17l-.07-.04.01-.07.08-.05.15-.02.22-.21.02.02-.23.21-.23.07.05.07.11-.01.08.01.13.17.09-.1.01-.18.01.19z"/><path fill="#c1001a" d="M44.13 14.19l.2-.02.16.01.08.02.16.09.09.05.18-.02-.07-.08-.07-.09-.04-.08-.02-.09-.04.01-.04-.01-.06-.07-.03-.11-.02-.14-.05-.01-.04.07.04.03.03.07-.05.08-.01.05-.07.06-.11.04-.09.05-.11.04z"/><path d="M44.82 14.35l-.33-.16-.16-.01-.2.02.01-.07.37-.17-.05.06-.31.13.42.04.25.14.18-.02-.19-.24-.02-.09-.08.01-.06-.08-.04-.17.12.23h.01l.07.01.06.17.14.17z"/><path fill="#d4d254" d="M44.83 14.42l.03.29-.06.17.13.01h.16l.13-.03.13-.01.12.01.1.01.12-.05.01-.09-.03-.08.06-.18-.03-.04z"/><path d="M45.09 14.9l-.29-.01.05-.19-.03-.28h.88v.05l-.87-.04.04.28-.06.18.54-.05.22.01.12-.04v-.08l-.03-.08.03-.1-.01.1.03.08-.01.09-.13.06-.22-.02z"/><path fill="#c1001a" d="M45.59 13.92l.01.25.08.07h.09l.06-.03.01-.05-.05-.04-.02-.06-.13-.14z"/><path d="M45.77 14.25h-.09l-.09-.07-.01-.26h.07l.15.2-.01.01.01.01-.02-.01-.03-.07-.11-.13-.03.24.08.07.13-.04.01.02z"/><path fill="#c1001a" d="M46.53 14.12l.24.16.08.03.06-.03.12-.09.05-.12.01-.09-.06-.01-.09.06-.13.02-.1.01h-.08l-.08.02z"/><path d="M46.85 14.32l-.08-.02-.25-.17.04-.03.29.2.06-.03.11-.09.06-.2-.13.06-.37.04.05-.03.31-.03.09-.06.07.02v.09l-.06.13z"/><path fill="#c1001a" d="M47.23 13.93l-.04.07-.05.12-.1.11.01.08H47v.06l.08.06.23.04.17-.23v-.06l-.09-.12-.07-.01z"/><path d="M47.31 14.48l-.23-.04-.08-.07.03-.14.1-.12.09-.19.05.06-.05-.04-.07.18-.1.11.04.19.21.04.18-.23-.09-.14.1.08v.08z"/><path fill="#c1001a" d="M48.27 14.57l.12.06v.04l-.05.06-.03.12-.01.07-.14.01-.14-.05-.08-.05h-.07l-.04-.04-.07-.04-.09-.06-.09-.12-.06-.08v-.06l.09-.11.08-.02h.38l.18-.07.14-.12.17-.03.04-.05.12-.02.28-.15.16.03.16-.01.14.04.05.05-.03.02-.07-.01-.09.05-.01.15.07.13-.01.03h-.09l-.06-.03-.03-.05v-.06l-.05-.08-.05-.01h-.1l-.04.21h-.05l-.1-.08-.14-.02-.1.09.04.11.14.14h.08l.06.08v.06l-.1-.02-.11-.02-.08-.04-.07.01-.08-.05-.08-.03-.05-.03z"/><path d="M48.16 14.94l-.23-.1h-.07l-.2-.14-.16-.2.02-.05.15.23.48.23.14-.01.03-.19.04-.06-.06.26-.14.03zm.72-.25l-.07-.13-.07.01-.15-.14-.04-.12.1-.1.15.01.06.05-.07-.03-.14-.01-.09.08.04.1.14.13h.07l.08.08-.01.07zm-.5-.03l-.11-.08.01-.01v-.01l.03-.05.2.09-.15-.05-.06.01.1.05-.02.05zm-.82-.26l.04-.09.09-.03h.38l.17-.06.14-.12.13-.03-.12.05-.14.12-.18.07-.47.03-.04.06zm1.72-.05l-.07-.04-.08-.18-.14-.01-.02.21-.05-.02.06-.2.11-.01.11.1.02.11.01-.01.11.03-.06.02zm.08-.03l-.06-.13.01-.16.09-.06.07.01-.14.06-.01.15.07.12-.03.01zm-.73-.28l.37-.19.17.03.16-.01.2.09-.04.01-.16-.08-.16.01-.17-.03-.37.17z"/><path fill="#d4d351" d="M46.18 14.74l-.03.02-.05-.02-.03-.08.05-.06.13.01.11.1v.15l-.15.07-.16.05-.18-.06-.1-.15-.03-.1.02-.17.03-.12.15-.11.17-.06.19-.02.23.05.45.18.3.13.34.18.2.09.26.13.16.05.18-.02.08.01.16-.06.11-.01.24-.28.1-.05-.02.12-.15.18-.14.15-.06.01-.07.06h-.15l-.33.02-.16-.06-.25-.05-.3-.13-.23-.12-.11-.02-.18-.09-.11-.01-.06-.05-.2-.05-.16-.06-.15-.02-.12-.01-.06.03-.06.08-.02.11.04.13.06.01.07-.03.02-.04z"/><path d="M48.19 15.14l-.71-.23-.23-.12-.11-.02-.18-.09-.11-.01-.07-.05-.62-.15-.1.11-.03.1.04.13.12-.01-.1-.06-.03-.08.06-.06h.13l.12.11v.16l-.16.08-.16.04-.18-.05-.11-.15-.03-.11.05-.3.16-.12.37-.08.22.06.76.31.96.45.18-.02.08.01.27-.06.22-.29.1-.06v.14l-.3.34-.13.07h-.15l-.33.01zm-2.03-.7l.27.03.82.28.53.25.41.1.33-.02.14.01.42-.4.01-.12-.08.07-.24.28-.27.08-.08-.01-.18.02-.63-.27-.64-.32-.67-.22-.35.08-.15.11-.04.28.03.1.11.15.17.05.31-.11-.01-.14-.11-.09h-.12l-.05.05.03.07h.08l.01.01v.07l-.07.04-.08-.02-.04-.13.03-.11.11-.17z"/><path fill="#4c4698" d="M48.48 14.7h.13l.08.04h.14v.05l-.08.07-.17.04-.07.03h-.06l-.04-.05v-.08l.03-.07z"/><path d="M48.51 14.95l-.06-.01-.05-.06v-.08l.07-.08-.05.08v.08l.09.05-.01-.01.33-.14-.23-.07h-.08l.09-.03.08.05.14-.01.01.08-.09.06z"/><path d="M49.39 14.52s.09-.05.11-.09c.02-.04.06-.13.06-.13l.04-.15-.04-.13-.11-.02-.07.01-.04.04-.01.11.04.09.04.05-.01.1-.01.12z" fill="#4c4698"/><path d="M49.37 14.54l.02-.22.02.08-.01.1c.03-.02.08-.05.09-.08.02-.04.06-.13.06-.13l.03-.15-.04-.12-.08-.02h-.06l.06-.03.09.02.05.13-.09.28c-.02.04-.11.09-.11.1l-.03.04z"/><path fill="#4c4698" d="M49.05 14.56l.09-.04.05-.11.01-.12-.05-.09-.06-.07H49l-.02.16.07.06z"/><path d="M49.03 14.58v-.23l-.06-.06.02-.17.1-.01.12.17-.01.13-.06.11-.11.06zm.05-.44H49l-.01.15.06.05v.2l.07-.04.05-.1.01-.12-.1-.14z"/><path fill="#4c4698" d="M48.94 14.67l.03-.04.02-.09-.04-.12-.05-.06-.06-.06-.07-.04h-.1l-.06.05.02.1.11.09.09.01z"/><path d="M48.93 14.67l-.1-.16-.08-.01-.12-.09-.02-.11.07-.06h.11l.19.16.02.14-.05.12-.02.01zm-.17-.41h-.09l-.06.05.02.09.11.08.08.01.1.15.02-.03.02-.08-.08-.17-.12-.1z"/><path d="M43.6 15.56l-.17.02-.12.01-.08.05-.06-.04-.04.02-.14-.07-.16.09-.08.07h-.05l-.04-.05-.08.05-.04-.04-.05-.02-.31.22-.11-.04-.05.04-.02.02v.05l-.05-.12-.04.03-.07-.02-.05.07-.01.18.03.23.07.25.07.1.06.01.02-.07.03.14.05.05.01.24.19.42.02.22.01.37-.07.08-.09.14v.04l-.09.17.01.27.02.02V19l.07.01.06.06.13-.01v-.08l.02.09.1.13.08.07h.06l.03-.05v-.29l.02.32h.06l.08-.07.11-.01h.04s.03.02.04.04c.02.03.07.05.07.05l.04.08.05.02.02-.05-.03-.61-.03-.5-.04-.63-.03-.81-.01-.26-.04-.03v-.08l.1-.03.06-.02-.03-.08-.04-.26v-.1l.03-.03h.07l.05.06.09.39.05.02h.17l.39.62.14.21.19.35.25.35.08.1.05.01.02-.38.11-.09-.09-.65-.08-.01-.1-.09-.06.01-.06.09-.07-.08-.01-.09-.07-.05h-.05l-.06-.08-.03-.01-.04.04-.01-.29-.06-.14-.01-.1-.11-.17-.12-.03s-.05-.12-.05-.14c0-.02-.02-.08-.02-.08l-.1-.08z" fill="#ddca63"/><path d="M43.16 19.36l-.05-.02-.04-.08s-.05-.03-.07-.05l-.07-.05v.01l-.11.01-.08.07-.01-.03.08-.05.11-.02.08.05h.01c.01.02.06.05.06.05l.09.11.02-.06-.13-2.63.01.08.13 2.55-.03.06zm-.59-.08l-.09-.07-.1-.13-.02-.09.01.08-.13.02-.06-.06h-.07l-.01-.14.03.11h.07l.06.06.12-.01-.01-.07.03.09.17.21.1-.05v-.29l.01.29-.11.05zm-.35-1.09l.11-.16-.03-.59-.19-.49.01.07.19.42.03.59-.12.16zm2.46-.22l-.05-.04.05-.34.11-.1-.09-.64-.1-.04.11.03.09.65-.11.1-.01.38zm-.11-.08l-.03-.02-.25-.35-.33-.56-.39-.62-.16.01-.01-.02.18.01.99 1.55zm-2.66-1.31l-.03-.02-.07-.25-.03-.23.01-.18.05-.07.03.01h-.02l-.05.06-.01.18.03.23.09.27zm2.17 0l-.01-.29-.19-.38-.12-.03a.938.938 0 0 1-.06-.15c0-.01-.02-.06-.02-.08l-.08-.09-.35.08-.02-.01h.02l.07-.05.29-.03.09.09c0 .01.02.06.02.08 0 .01.03.09.05.14l.12.03.11.17.01.09.06.14.01.29zm-1.07-.18l-.01-.02.1-.03.03-.09-.03-.36.11-.04.05.06.02.1-.08-.15-.1.03h.01l.05.43-.16.05v.02zm-.99-.52l.01-.02.05-.04.11.04.31-.22.09.07v-.01l.08-.05.09.05.08-.07.16-.09.04.02-.04-.01-.24.16-.09-.05v.01l-.08.05-.09-.07-.31.22-.12-.04-.05.05z"/><path fill="#d5c46d" d="M43.7 19.48l-.09-.1-.02-.11-.02-.24-.02-.23-.05-.36-.07-.44-.06-.35-.03-.21-.04-.25-.02-.17-.03-.14-.01-.2.06.18.09.42.11.29.04.2v.11l.07.17.05.2.1.43.11.35.06.26v.09l-.11.04-.05.03z"/><path d="M43.7 19.5l-.09-.11-.03-.12-.08-.83-.26-1.76.08.18.1.42.15.49v.11l.07.16.32 1.34-.26.12zm-.47-2.82l.4 2.7.08.09.23-.1-.07-.34-.64-2.35z"/><path fill="#dbcb77" d="M44.26 19.4l.06-.29.07-.22.03-.15.02-.12v-.18l-.05-.11-.22-.45-.14-.27-.05-.14-.1-.18-.14-.28-.12-.21-.1-.17-.09-.13-.03.03.08.32.08.28.06.3.12.4.07.28.06.16.06.24.18.57.03.15.09.17z"/><path d="M44.22 19.41l-.12-.33-.71-2.55.04.03.51 1.95.29.88h.02l.18-.77v-.18l-.95-1.85.05.03.92 1.81v.19l-.19.78z"/><path d="M42.8 21.03l-.07.07-.12-.07.05-.13.19-.03.1.16-.04.16-.15.15-.17.05-.18.02-.21-.01-.28-.06-.22-.26-.17-.33-.13-.28-.14-.57-.08-.24-.03-.22-.16-.3.06-.05.54-.48h.03l.12-.1.2-.38.02-.02.06-.23-.01-.4-.05-.19-.13-.21s-.04-.07 0-.06c.04.01-.11-.18-.11-.18l-.19-.2v-.04l-.14-.14-.09-.05h-.07l-.03-.04-.14-.04-.06.06-.04.13v.05l.09.04.03-.02-.03-.05.01-.06.07-.05.09.06-.01.16-.06.07-.16.01-.13-.06-.05-.1-.01-.17.04-.09.06-.05.1.02.17-.04.05-.02.14.02.1.09.1.06.26.29.07.07.14.2.17.37.04.26-.02.26-.14.38-.16.24-.22.27-.37.31-.05.01-.08.1.14.31.23.96.19.39.27.28.21.11.27.03.24-.06.1-.1-.05-.04z" fill="#d8d45d"/><path d="M42.42 21.41l-.21-.01-.28-.06-.22-.26-.3-.62-.25-1.03-.15-.3.06-.07.69-.58.2-.37.08-.25-.01-.39-.05-.19-.15-.28c.02-.02-.04-.1-.1-.17l-.42-.43h-.07l-.17-.08-.05.06-.04.13.08.07-.09-.01.03-.2.07-.07.35.13.14.14.19.24c.14.16.13.18.12.19l.17.45.01.4-.06.23-.22.4-.75.64.16.29.03.22.22.81.29.61.22.26.48.07.35-.07.14-.14.04-.15-.1-.15-.18.04-.04.13.11.06.06-.07.06.06-.11.11-.24.06-.27-.03-.21-.12-.28-.28-.19-.4-.23-.96-.14-.31.08-.11.43-.33.38-.51.13-.37.02-.26-.04-.26-.16-.37-.21-.27-.46-.45-.13-.02-.22.06-.11-.02-.05.05-.04.09.09.25.12.06.15-.01.05-.07.01-.15-.08-.05-.06.05.01.01.01.11-.04-.01v-.12l.08-.06.1.06-.01.17-.06.08-.16.01-.13-.06-.06-.11-.04-.16.04-.1.07-.06.11.02.16-.04h.19l.54.52.14.2.17.38.04.26-.02.26-.14.38-.16.24-.22.27-.51.43.15.3.23.96.19.39.27.28.21.11.27.03.24-.06.1-.09-.04-.05-.05.07-.13-.07.05-.15.2-.04.11.16-.04.16-.15.15-.39.11z"/><path fill="#d6d462" d="M43.24 21.25l-.03.06.04.08.11.02.07-.09v-.11l-.06-.11-.08-.03-.1.02-.13.09-.08.08-.04.2.11.32.16.22.42.27.45.17.28.04.21.21.1.25-.09.16-.13.01v-.06l.06-.02.06-.06-.03-.06-.13-.07-.1.08-.01.19.09.09.13.03.11-.04.1-.11.01-.14-.04-.2-.18-.25-.18-.09-.47-.17-.3-.11-.22-.16-.2-.21-.11-.3.05-.2.11-.08.06.02z"/><path d="M44.52 23.24l-.14-.03-.1-.1.01-.2.11-.09.14.07.03.06-.11.13.11-.01.09-.15-.11-.24-.21-.21-.27-.04-.45-.17-.42-.27-.17-.22-.11-.33.04-.2.08-.09.14-.1.1-.01.09.02.07.12v.11l-.07.1-.12-.02-.05-.09.06-.11-.17.06-.05.19.12.3.19.2.22.16.95.37.18.25.05.2-.01.14-.11.12-.11.08zm-.12-.39l-.09.08-.01.18.09.08.13.03.1-.04.1-.11.01-.13-.04-.2-.18-.25-.18-.09-.77-.28-.22-.16-.2-.21-.12-.31.05-.2.13-.09.07.03-.01.08.01.13.1.02.06-.09v-.1l-.06-.11-.08-.02-.09.01-.2.17-.04.19.1.32.16.21.41.27.45.17.28.04.21.21.11.25-.1.17-.14.02v-.07l.12-.08-.16-.12z"/><path fill="#e0dc63" d="M47.03 21.26l.08.06.01.08-.09.04-.13-.02v-.12l.07-.16.21-.01.1.11.06.22-.06.23-.24.2-.34.23-.36.15-.54.26-.16.12-.14.25.09.15.1.02v-.06l-.03-.04.02-.11.06-.07.13.08.03.15-.11.12-.13.02-.2-.09-.06-.11-.01-.15.08-.13.17-.17.26-.14.37-.16.56-.27.38-.42v-.16l-.08-.11z"/><path d="M45.66 23.17l-.2-.09-.07-.11-.01-.15.09-.15.16-.16.26-.15.38-.16.55-.27.38-.41v-.16l-.08-.1-.09.01.08.04.02.09-.1.05-.13-.02-.01-.13.07-.17.22-.01.1.12.07.22-.06.23-.58.44-.91.41-.15.12-.14.24.09.14.09.04-.1-.02-.09-.16.13-.26.16-.11.91-.42.57-.43.06-.22-.06-.22-.1-.11-.2.02-.06.15v.12l.12.01.08-.04-.01-.07-.08-.05.11-.03.09.11v.17l-.39.43-1.19.57-.24.3.01.14.06.1.19.09.12-.02.11-.11-.03-.15-.12-.07-.05.06-.02.13.01.04-.03-.06.02-.11.07-.07.14.07.03.16-.12.13z"/><path fill="#d3d64c" d="M47.5 20.96v.1h.08l.07-.02.03-.12-.06-.08-.09-.02-.1.03-.11.08-.01.17.05.11.1.16.19.09.19.05.28-.02.32-.15.3-.22.13-.31.16-.55.19-.69.13-.26.1-.1-.03-.04h-.09l-.24-.18-.25-.15-.32-.39-.17-.32-.05-.46.09-.45.2-.33.32-.27.29-.21.29-.01.05.11-.05.1-.06-.06-.09-.01-.04.16.1.05.19-.02.05-.12-.02-.18-.14-.13-.24.03-.17.02-.22.12-.23.24-.16.23-.2.32-.06.29.01.52.26.55.23.29.45.3.07.05-.13.31-.2.63-.12.51-.11.22-.33.29-.38.15-.32-.01-.16-.12-.04-.1-.01-.16z"/><path d="M47.84 21.52l-.19-.05-.19-.09-.16-.28.01-.17.12-.09.11-.02.09.01.07.09-.03.13-.16.02-.01-.11-.07.03.06.25.15.11.32.01.37-.15.33-.29.1-.22.12-.51.2-.63.14-.3-.07-.04-.45-.3-.23-.29-.26-.55-.01-.52.06-.29.36-.56.23-.24.22-.13.42-.04.14.13.03.18-.05.13-.2.03-.11-.05.04-.17h.11l.07.06.02-.09-.04-.11-.28.02-.62.47-.2.33-.09.45.05.45.16.32.32.38.49.33h.09l.04.06-.1.09-.12.26-.35 1.25-.12.3-.31.22-.32.16-.3.02zm-.31-.68l-.1.02-.11.08v.16l.15.26.37.14.28-.02.32-.16.3-.22.12-.3.36-1.25.13-.26.11-.1-.12-.02-.5-.33-.32-.39-.17-.32-.05-.46.09-.45.2-.33.62-.48.3-.01.05.12-.04.1-.08-.05-.09-.01-.03.15.1.04.18-.02.04-.12-.02-.17-.13-.12-.41.04-.21.12-.23.24-.35.55-.06.29.01.51.26.55.23.29.52.35-.13.31-.2.63-.12.51-.11.22-.34.3-.38.15-.33-.01-.16-.12-.05-.11-.01-.16.09-.03.01.1.14-.02.02-.12-.06-.07h-.09z"/><path fill="#cacaca" d="M45.91 17.25l-.02-.04.08-.08.14-.03.11-.09.14-.09.14-.04.2.17-.07.05-.07-.01-.12.08-.1.06-.08-.01-.07-.03-.05.04h-.06l-.05.03z"/><path d="M46.35 17.24l-.14-.03.06-.01.07.02.22-.14.07.01.06-.05-.19-.15-.14.04-.25.18-.17.06.02-.05.14-.03.25-.18.15-.04.2.17-.07.07-.07-.01z"/><path fill="#4c4698" d="M49.35 14.39v.11l-.1.01-.01-.14z"/><path fill="#cacaca" d="M46.81 17.05l.08-.03H47l.06.16v.05l.09-.03h.18l.12.06.11.11.12.07h.1v-.06h.09l.03.03.1.02.07-.02.03.06-.02.09-.02.07.03.28.13.48.25.4-.09-.04-.22-.03-.06.03-.1-.01-.1.1h-.05l-.04.04-.08-.11-.31-.41-.08-.09-.18-.38-.24-.53-.02-.21-.06-.06-.03-.01z"/><path d="M47.8 18.88l-.47-.61-.42-.91-.02-.22-.05-.05.01-.02.07.06.02.22.42.9.08.09.38.51.18-.12h.11l-.11.02-.1.1-.1.03zm.68-.09l-.26-.05h.16l.1.05-.27-.39-.13-.48-.03-.28.04-.16-.27-.07.06-.03.12.04.08-.02.03.08-.02.09.01.34.13.48.25.4zm-.8-1.34l-.12-.07-.11-.11-.12-.06-.26.03-.07-.22-.12.02.01-.03L47 17l.07.17.08.02h.18l.13.06.23.18h.03l-.04.02z"/><path d="M46.72 19.89l.13.06-.01-.06.09.06s.08.01.13.01c.04-.01.14-.1.14-.1l.03-.2.19-.33.14-.08.04-.01.13-.15.25-.13.12-.04.19.04.14.07.03.12.02.32.09.06.07-.04.07-.08.16-.06.12.02-.01.15-.05.27-.08.29-.13.46-.13.32-.31.24-.24.16h-.39l-.12-.11.15-.04.05-.11.01-.15-.13-.1-.13.01-.18.1-.06.09-.04.1h-.07l-.15-.01-.11.07-.08.1-.02.15.04.11.08.05.15-.01.04-.03h.03l-.13.15-.17.18-.22.15-.15.05-.24.09-.18.08-.2.01-.21.18-.14.11-.1.13-.05.23v.17l.11.15-.02.05-.07-.01-.03-.03h-.17l-.04-.07-.08.02-.12.04-.05.05-.09-.05.05-.13.01-.13-.04-.17-.11-.22-.1-.1-.17-.1-.32-.1-.36-.13-.26-.13-.1-.15-.04-.19.06.06-.05-.21.07.1.05.01.15.18.12.02.03.01h.04l.01-.01.11.06.13.04h.18l-.16-.04-.19-.09-.2-.11-.11-.15-.01-.07-.06-.01.01-.04.05-.05.06.01.02.04.06-.02.09.07.16.02.12.01-.1-.06-.16-.09-.16-.15-.05-.01-.16-.25-.09-.24-.07-.26v-.3l.1-.24.14-.22.08-.07.07.02.17-.13.12-.04.16.01.12.04.17.05.08.1.08.01.02.06-.05.01.06.08-.02.05.05.07-.02.12-.1.11.07.11-.01.04.08.09.07.11.13.02.29.01.21-.02.13-.01-.05-.06.09-.02.11-.02.2-.15s.15-.27.18-.3c.03-.04.09-.16.09-.16l.25-.26.1-.04.22-.11h.23l.06.07.1.01.09.11.04.3-.14.09h-.12l-.08-.05-.02.04-.1-.02z" fill="#cacaca"/><path d="M45.43 23.22l-.27-.04-.05-.07-.23.11-.1-.04.05-.27-.04-.17-.11-.22-.09-.1-.17-.1-.68-.23-.26-.13-.1-.15-.04-.19.08.05-.07-.2.02.02-.02-.02.07.2-.08-.05.06.18.1.14.25.12.68.23.17.1.1.1.11.22.04.17-.01.13-.05.14.08.03.04-.05.21-.05.05.07.15-.01.09.04.01-.04-.11-.14v-.17l.04-.23.1-.14.35-.29.21-.01.56-.21.22-.15.32-.31-.3.32-.22.15-.57.21-.2.01-.43.42-.04.39.11.14-.03.09zm-1.36-1.33l-.43-.12-.11-.13.12.11.11.02v-.01l.07.01.23.1h.17l-.16-.01-.39-.2-.12-.19.14.17.38.2.15.04-.16.01zm2.83-.34l-.09-.05-.04-.12.02-.16.09-.11.11-.08.16.01.16-.19.18-.11.14-.01.14.1-.03.17-.05.09-.15.04.12.09h.38l.55-.39.12-.32.27-1.16h-.11l-.15.06-.14.12-.1-.07-.05-.44-.14-.06-.19-.03-.36.17-.13.15-.18.09-.19.33-.03.19c-.01.02-.1.1-.15.11-.07 0-.13-.01-.13-.01l-.03-.02h.04c.01 0 .05.01.09.01.06-.01.14-.07.16-.1v-.02l-.14.11h-.13l-.04-.03h.15l.13-.09-.05-.29-.08-.1-.09-.01-.06-.07h-.22l-.31.15-.25.25s-.06.12-.09.16c-.03.04-.18.3-.18.3l-.2.16-.2.04.06.04-.35.05-.42-.03-.16-.2-.06-.15.1-.12v-.09l-.05-.06-.04-.13.03-.07-.08-.01-.09-.11-.43-.09-.11.04-.17.13-.07-.02-.07.07-.14.22-.1.24v.3l.16.5.1.16-.12-.15-.16-.51v-.3l.1-.25.23-.3.07.02.16-.13.12-.04.28.04.17.05.09.11h.08l.07.28v.1l-.1.12.21.33.41.03.34-.03-.06-.04.2-.06.19-.15s.15-.26.18-.3c.03-.04.09-.16.09-.16l.25-.26.32-.15h.23l.07.07.09.01.09.11.05.3.02-.16.19-.34.14-.08.17-.15.37-.18.2.04.14.07.04.13.02.32.09.06.29-.18.12.01v.16l-.13.56-.26.78-.55.39h-.4l-.13-.11.15-.06.05-.08.01-.15-.13-.09-.13.01-.17.1-.1.19-.22-.01-.18.17-.02.15.04.11.08.05.17-.01-.03.02-.13.01zm-2.94-.09l-.16-.02-.12-.08.03-.01.1.07.27.03-.27-.13-.15-.13.42.26-.12.01z"/><path d="M43.15 20.98s.02-.03.04-.03h.05v-.23s-.03-.02-.03-.03c-.01-.02-.01-.1-.01-.1l-.03-.03v-.91l-.09-.23-.07-.13-.06-.05-.1-.01-.11.07-.06.04-.14-.03-.05-.04-.08-.01-.07-.13-.15-.05-.07-.02-.21-.01-.06-.01-.08.05-.09.11-.07.13-.01.21.05.06v.09l.02.04v.08l-.07-.08-.07-.17-.03-.1-.03.04.01.14.01.11.04.1.03.15.07.19.05.2.05.19.09.17.08.11.18.18.11.08.17.06h.2l.06-.04-.08-.07s-.01-.05-.01-.06c0-.02.03-.11.03-.11l.08-.09.24-.04.08.06.11.12.08.03z" fill="#cacaca"/><path d="M42.36 21.18l-.29-.14-.26-.29-.09-.17-.26-1.08.03-.03v.17l.08.36.26.75.08.11.29.25.17.06.19-.01.05-.04-.08-.06-.01-.07c0-.02.02-.09.03-.11l.08-.09.24-.05.09.06.2.17.08-.03h-.01v-.17l.02.17v.01l-.1.04-.09-.05-.19-.18-.23.04-.08.08a.44.44 0 0 0-.02.1l.09.13-.06.06-.21.01zm.83-.86l-.02-.68-.17-.35-.06-.05-.09-.01-.17.1-.28-.07-.08-.14-.21-.07-.21-.02-.13.04-.15.23-.01.2.05.06.02.22-.09-.08-.1-.27.02-.01.1.27.07.08-.09-.27.01-.21.16-.24.08-.05.35.04.15.05.08.14h.07l.19.06.16-.1.1.01.06.05.08.13.09.23.02.71z"/><path fill="#fdfbfb" d="M48.65 18.98v.13l.04.02v.04l.14.02-.01-.04-.09-.08-.02-.06z"/><path d="M48.66 17.12l-.09.08-.06.12-.02.12-.04.15-.02.12.02.26.01.14.08.13.04.01.05.1.07-.2.03.03.02.15.12.1s-.11-.06-.14-.06c-.02 0-.03.03-.03.03l.03.06.07.07.12.05h.23l-.05.05h-.15l-.04.03.05.08.07.11.13.06.13-.03h.05l-.02.05.07.05.06.05.05.05.04.01v.07l-.08.19-.02.09-.05.07-.03.11-.08.13-.01.05h.04l.06-.07.08-.03.1-.13s.06.02.07-.01c.01-.02.07-.21.07-.21l.06-.01.03-.19.05.18.04.22-.02.19-.11.21-.01.05.02.07h.08l.09-.1.17-.22.06-.22.04-.43.07.2.07.19.04.15-.05.2-.07.23.09-.06.18-.21.14-.21.04-.16.03-.3-.02-.23.01-.09.03-.05v-.16l-.03-.07-.11.14-.04.01-.12-.08-.03-.01-.07-.1-.05-.16.01-.18h-.03s.01-.15.03-.19l.03-.11-.02-.16-.08-.15-.1-.09-.16-.05-.18-.05-.11-.09-.2-.02-.1.01-.2-.09-.13-.05h-.16l-.15-.02-.09.03z" fill="#c1001a"/><path d="M50.23 20.11l.13-.46-.18-.54-.02.42-.06.22-.26.33h-.09l-.03-.08.14-.25.02-.19-.09-.4-.01.2-.07.01c0 .01-.05.18-.07.2l-.08.01-.09.13-.09.04-.07.07-.03-.06.24-.61-.21-.22-.14-.02-.13-.06-.13-.2.05-.01.02.08.07.11.12.06.14-.03.01.07.18.14.04.08-.24.61.15-.08.1-.13c.08-.03.14-.21.14-.21v-.01l.07-.01.02-.18.07.18.05.23-.02.19-.13.31.07-.01.25-.32.06-.21.04-.43.2.54-.11.41.06-.04.32-.41.04-.15.03-.3-.02-.23.04-.29-.03-.06-.09.14-.04-.01.13-.14.05.07v.16l-.04.14.02.23-.07.46-.14.22-.29.29zm.29-1.44l-.08-.03-.1-.11-.05-.16v-.16l.07.31.07.1.09.05zm-1.5-.02l.09-.02.05-.05-.22.01-.13-.05-.11-.14c.01-.01.03-.01.04-.02v.08l.01-.01.07.07.12.04h.22l-.04.07-.1.02zm-.48-.43l-.09-.1-.03-.4.08-.39.06-.12.09-.08.08-.01.44.07.2.09.1-.02.21.02.11.09.34.1.1.09.09.15.02.16-.03.12c-.01.04-.02.17-.02.18-.02-.01-.01-.15 0-.19l.03-.11-.02-.16-.08-.15-.1-.08-.34-.1-.11-.09-.2-.02-.1.01-.33-.14-.31-.02-.08.01-.09.08-.12.38-.02.12.03.39.09.12z"/><path fill="#c1001a" d="M41.69 17.13h-.39l-.07-.04-.1.08h-.18l-.2.11-.13.11-.07-.01-.28.26.03.2.04.06.01.2.01.29-.06.04-.1.24-.06.21-.04.41.04.3-.06.16-.11.18-.02.09.09-.07-.02-.03.05.07.12-.21.05.08h.05v-.27l-.06-.42.14.44.03.16.02-.01.02-.36.09.2.01.18.04.03.02-.05v-.27l-.14-.42-.08-.39.2.51.11.11.1.28.09.16.02.1.06-.04.02-.04-.05-.04.04-.03-.01-.15-.05-.33h-.05l-.16-.35.15.21h.06l.01-.05-.07-.15-.02-.16.15.2.04-.02-.08-.23-.01-.27.05.12-.01.12.1.13.11.06.08-.1-.06-.04-.02-.11-.09-.1v-.12l.12.2.1.07.11.02.1-.07.17-.2-.02-.02h-.18l-.15-.09-.12-.12v-.11l.02.02.06.11.1.11.12.01.15.01.17-.15.09-.29.02-.16-.03-.2-.11-.23-.06-.1z"/><path d="M39.93 20.04l.03-.12.11-.18.05-.16-.04-.3.1-.62.09-.24.07-.05-.03-.48.04.2.01.29-.07.06-.15.44-.05.41.04.3-.06.17-.13.23.02-.01-.03.06zm.37-.18l-.05-.03.03-.24-.06-.42.17.51-.04-.07-.13-.44.08.42v.27zm.6-.01l-.03-.11-.09-.16-.1-.28-.11-.1-.2-.51.1.38.14.42v.27l-.01.01-.07.01-.01-.18-.09-.2v.36l-.02-.04.02-.32.11.2.01.18.04-.28-.14-.42-.08-.39.21.5.11.1.21.55.05-.05-.01-.01-.02-.07.03-.17-.02-.15.07.37-.1.09zm.01-.77l-.07-.01-.15-.22.17.2-.04-.36.17.2-.05-.25-.02-.27.07.1-.01.13.1.12.1.05.07-.09.02.02-.08.09-.12-.05-.11-.13.01-.14-.05-.11.04.26.08.23-.07.03-.14-.21.04.16.07.14-.03.11zm.51-.43l-.11-.02-.11-.07-.11-.2.02.12.09.16-.11-.15v-.13l.13.19.1.07.1.02.17-.15-.06.1-.11.06zm.07-.29l-.28-.22v-.11l.03.03v.07l.27.2.18-.01-.02.03-.18.01zm.19-.06l-.28-.02-.16-.2.17.18.26.02.16-.15.11-.44-.03-.2-.17-.33-.51-.06-.09.08h-.19l-.33.22-.07-.01-.27.25.05.26-.07-.26.29-.27.07.01.13-.1.2-.11h.19l.09-.08.08.03.46.04.06.1.1.23.03.2-.02.16-.09.29-.17.16z"/><path fill="#c1001a" d="M47.57 21.56l-.42.43-.06-.01-.15.13-.01.13.15.11.05.11.04-.01.14.18.14.19.06.03.04.09-.08.1.03.06.11-.01.13.01.08.05.03.14v.05l.09-.04.07-.11.01-.25-.02-.07.03-.2.02.26.05.08.05-.03.04.17.11.1.05.09.01-.06-.01-.13.06-.14.06-.17.07-.04.05.03.08.08-.01.03.08-.01-.02-.19-.1-.15-.16-.1-.08-.08-.07-.13.11.07.12.11.11.05.08.02.14.26.08.13.02-.18.06-.19.06-.09.08-.01.11.03-.02-.12-.09-.15-.15-.14-.17-.13-.15-.06-.12.11-.04.01-.07.07-.06-.03-.18-.17-.05-.04-.08-.19-.12-.05-.19.01z"/><path d="M47.86 23.35l-.05-.21-.08-.04-.12-.01-.12.02-.03-.07.07-.11-.04-.07.06.07-.07.11.34.09.04.15h.07l.07-.1.01-.25-.02-.07.03-.2.06.28-.04-.02-.03-.26v.19l.02.07-.01.26-.07.11-.09.06zm.49 0l-.18-.27.18.23v-.03l-.01-.13.12-.32.07-.05.06.02.08.08.03-.16-.1-.14-.24-.18-.07-.13.13.05.12.11.19.07.23.4-.01-.17.13-.29.09-.01.11.03-.12-.26-.32-.27-.14-.06-.23.19-.07-.03-.21-.21.22.2.11-.04.17-.13.15.06.33.27.08.15.03.12-.12-.02-.07.01-.06.08-.06.2-.01.17-.11-.12-.14-.27-.07-.01-.12-.06-.23-.18.17.19.16.1.11.15.02.2-.08.02-.08-.11-.11.02-.11.31.01.12-.02.05.01.01-.02.04zm-.86-.51l-.27-.33.11.1.16.23zm-.37-.43l-.19-.16v-.15l.63-.56.24.04.18-.02.13.06.07.16-.09-.15-.11-.05-.18.02-.23-.05-.41.45-.21.11v.13l.17.17z"/><path fill="#524a9b" d="M48.56 22.98l-.09.12v.2l.04.09-.04.38.2-.28.07-.15v-.19l-.06-.09-.06-.05z"/><path d="M48.46 23.81l.05-.42-.04-.09v-.2l.1-.13.13.09.06.09.01.2-.07.15-.24.31zm.15-.79l-.13.09v.19l.04.09-.04.34.25-.39-.01-.19-.11-.13z"/><path fill="#524a9b" d="M49.22 22.56l-.06.02-.07.15-.02.2.04.1v.15l.02.08.07-.1.1-.18.02-.12v-.18l-.05-.08z"/><path d="M49.12 23.29l-.06-.36.02-.2.07-.16.07-.02.06.04.05.08v.18l-.02.13-.19.31zm.04-.71l-.06.16-.02.19.04.1.01.21.16-.26.01-.3-.05-.07-.09-.03z"/><path fill="#524a9b" d="M47.48 23.6l.11-.07.08-.06.1-.14-.02-.1-.06-.05-.08-.03-.07.01-.08.11.01.23z"/><path d="M47.47 23.62l-.03-.35.08-.12.08-.01.15.08.02.11-.19.2-.11.09zm.14-.46l-.07.01-.07.11.02.3.17-.12.1-.14-.02-.09-.13-.07z"/><path fill="#4c45a1" d="M42.62 22.9l.08.03v.21l-.13.16-.16.11.01-.15-.04-.04v-.16l.03-.03v-.08l.14-.07z"/><path d="M42.4 23.43l.01-.12.01.08.14-.1.13-.15v-.21l-.14-.04-.13.07v.07l-.02.16-.03-.13.03-.11.14-.08.17.05v.23l-.14.15z"/><path fill="#4c45a1" d="M41.58 23.03l.11-.01.12.07.05.13-.07.07-.04.06-.02.11.01.16.01.15-.14-.16-.11-.18-.01-.17.05-.16z"/><path d="M41.76 23.81l-.27-.37-.01-.18.09-.24.12-.01.13.07.05.14-.11.14-.02.1.02.35zm-.07-.78l-.1.01-.08.22.01.17.23.31-.02-.29.07-.17.07-.07-.05-.12-.13-.06z"/><path fill="#4c45a1" d="M41.2 22.83l-.03.11-.04.02-.05.07v.23l-.08-.04-.09-.12-.05-.12.02-.3.04-.13.09-.03.1.03.08.19z"/><path d="M41.09 23.28l-.1-.06-.09-.11-.05-.12.05-.44.1-.04.1.03.1.28-.03.11-.09.09.01.26zm-.08-.75l-.09.03-.03.12-.02.3.05.11.14.15v-.22l.12-.2-.01-.08-.08-.18-.08-.03z"/><path d="M41.21 22.05l-.05.12-.13.1c-.02-.13.05-.2.18-.22" fill="#4c45a1"/><path fill="#c1001a" d="M42.77 21.45l.06.1.05.15.08.09-.01.05.11.09.11.18.18.15-.13.12-.32.24-.1.03-.14-.08.02.19.05.09-.14-.03-.17.01-.1.09-.03.09-.04-.06-.05-.09-.02-.02-.03.03.02.01.01.16-.04.03-.01.05-.18.12-.05-.12-.06-.14-.11-.05-.12.02-.14.08.04-.12.08-.13.15-.12.15-.1.12-.05.03-.01-.03-.04-.23.06-.16.11-.16.12-.13.18-.07.05v-.14l-.07-.18-.02-.12-.08-.09h-.08l-.12.02.09-.15.17-.09.08-.14.14-.12.12-.02.18.02.09.05.17.01.1-.01.13-.07.1-.19.14-.2.17-.09z"/><path d="M41.94 23.26l-.11-.27-.11-.05-.11.02-.13.08.02-.13.08-.13.31-.23.12-.05-.23.03-.32.22-.19.24-.02-.15-.16-.38-.2.02.08-.16.18-.1.07-.13.15-.13.12-.02.18.02.09.05.17.01.1-.01.12-.06.25-.4.17-.09.2-.02.07.1.05.16.18.22.11.18.18.15-.13.14-.32.24-.11.03-.15-.08.04.18.05.08-.15-.01-.17.02-.1.08-.02.08-.08-.09.04.02.04.06.01-.08.1-.09.18-.02.14.03-.06-.07-.02-.2.15.07.1-.03.45-.36-.18-.14-.12-.17-.11-.1-.18-.38-.19.02-.16.09-.24.39-.13.07-.11.01-.17-.01-.09-.05-.18-.02-.11.02-.14.12-.08.13-.18.1-.08.15.19-.04.09.09.09.45.18-.24.33-.23.22-.06.05.06-.3.16-.15.12-.12.24.12-.09.13-.02.11.06.12.25.22-.19h-.01l-.01-.16.03.02V23.05l-.05.08z"/><path fill="#714528" d="M46.65 19.26l-.23.07-.16.13-.21.21-.16.3-.2.23-.35.15-.32.01-.24-.07-.09-.14-.03-.18-.03-.21-.07-.14-.11-.13-.13-.09.14-.57.04-.13v-.17l.02-.22.12-.2.12-.12.21-.09.36-.1.37-.12.39-.08.43-.11.18-.01-.02.23.05.09-.01.63-.04.55z"/><path d="M45.02 20.37l-.25-.07-.09-.14-.06-.4-.18-.26-.13-.09.17-.72v-.16l.03-.22.12-.21.12-.11.21-.1 1.74-.43-.01.25.05.08-.01.63-.07.84-.24.07-.15.13-.21.22-.17.3-.19.23-.35.15-.33.01zm1.67-2.89l-.99.22-.94.3-.12.11-.11.2-.07.52-.14.57.12.08.19.27.06.4.09.13.24.07.32-.01.35-.14.19-.23.17-.3.37-.34.24-.07.06-.83.01-.62-.05-.08.01-.25z"/><path fill="#714528" d="M46.74 19.26l.22.04.18.11.07.1.1-.08.04-.13.17-.1.25-.22-.21-.33-.12-.16-.15-.18-.18-.33-.21-.46h-.11l-.02.91.01.32z"/><path d="M47.21 19.53l-.08-.11-.17-.1-.22-.05.03-.51-.01-.33.02-.9.12-.01.4.8.27.34.21.33-.26.24-.17.1-.04.13-.1.07zm-.32-2l-.1.01v.89l.01.33-.04.5.21.04.18.11.07.1.08-.07.04-.13.17-.1.25-.22-.48-.65-.39-.81z"/><path fill="#6f4124" d="M44.62 15.16l-.07.22.24-.04z"/><path fill="#955933" d="M44.47 15.78v.16l.69-.21v-.07z"/><path d="M44.46 15.96l-.01-.18.72-.13v.08l-.71.23zm.7-.24l-.69.07.01.14.68-.21z"/><path fill="#63b1c9" d="M44.66 16.03l-.02.16.05.35.17.97h.09l.01-.16z"/><path d="M44.96 17.52h-.1l-.24-1.33.02-.16.32 1.32v.17zm-.31-1.49v.16l.05.35.18.96.07-.01.01-.14-.31-1.32z"/><path fill="#68accb" d="M45.1 17.44l-.31-1.4.23 1.42z"/><path d="M45.01 17.47l-.24-1.43.34 1.39-.1.04zm-.24-1.43l.26 1.4.07-.02-.33-1.38z"/><path fill="#69adcb" d="M45.16 17.42l.11-.04-.41-1.34z"/><path d="M45.15 17.43l-.31-1.39.44 1.34-.13.05zm-.3-1.39l.32 1.36.1-.04-.42-1.32z"/><path fill="#68a9cb" d="M44.98 15.96l.48 1.39-.09.04z"/><path d="M45.36 17.4v-.01l-.39-1.43.51 1.39-.12.05zm-.39-1.44l.41 1.41.08-.03-.49-1.38z"/><path fill="#69aecb" d="M45.54 17.32l-.48-1.41.6 1.4z"/><path d="M45.53 17.34l-.47-1.42.62 1.39-.15.03zm-.48-1.43l.49 1.4.12-.02-.61-1.38z"/><path fill="#6ab1cb" d="M45.71 17.25l-.56-1.35.7 1.37z"/><path d="M45.87 17.28l-.16-.02-.57-1.36.73 1.38zm-.73-1.37l.58 1.34.11.01-.69-1.35z"/><path d="M41.33 14.78l-.08.01-.09.07-.04.1.01.18.06.11.11.11.05.09-.03.16-.16.1-.17.12-.06.1-.02.11.01.11.02.03.13-.01.07-.02.12-.01.11.02.17.12.24.21.11.12-.07-.18-.04-.22-.03-.21.04-.13.06-.08.06.04.05-.03.07.03.06-.03.09.03.11-.06.17-.13h.12l.04.03.07-.03.04.06.14-.11.12-.06.12.05.15.03.06-.05.12-.01.17-.02.08.06.08.2.06.06.09.02.05.02.08.2.06.16.03.2-.01.05.05-.01.08.08.07.03.06.06.02.1.05-.01.04-.05.08.02.07.08.07.01-.12-.81-.12-.06v-.19l.27-.1v-.07l-.04-.11-.05-.11-.1.01.08-.26.2.21-.09.01.08.32.35-.06.07.09-.02.08.03.05.02.09.11.13.27.59.26.53.11-.12.12-.03.13-.09.08-.03.06-.08.15-.01.23.2.03-.05.22-.01.07.14.01.06.09-.03.24.05.14.12.11.05.03.06.07-.08.04.01.08.02.24-.02.12-.24s.11-.23.16-.28c.05-.06.27-.29.27-.29l.26-.17.2-.11.18-.02.18-.01-.01-.16-.07-.15-.17-.23-.04-.18v-.11l.15-.1.18-.14.01-.15-.05-.18-.1-.16-.03-.03-.06-.01-.08.05-.16.23-.18.18-.22.13-.25.03-.41-.06-.29-.09-.35-.13-.37-.17-.2-.04-.31-.15-.12-.01-.01.05.09.09-.02.16-.08.09-.15.01s.02.01-.07.04c-.08.02-.16 0-.16 0l-.14-.09-.14-.02h-.33l-.31.03-.35.03-.17.15-.15.02-.16-.04-.17-.2.01-.11.12-.15-.06-.01-.38.14-.24.13-.13.08-.09-.01-.12.11-.15.01-.09.09-.03-.01-.24.06-.22.04s-.28.04-.31.04c-.03 0-.29-.04-.29-.04l-.2-.1-.09-.1-.09-.06-.12-.12.01-.09h-.05z" fill="#76b2ce"/><path d="M47.7 17.42l-.04-.07-.11-.04-.15-.12-.23-.05-.1.04-.01-.07-.06-.14-.07.01.08-.02.08.15.33.07.28.21.05-.06.13.02.24-.02.11-.24c0-.01.11-.23.16-.29l.27-.29.46-.29.37-.03-.02-.14-.07-.15-.17-.22-.04-.3.33-.25v-.14l-.05-.18-.1-.15-.08-.05.01.01-.08.05-.16.22-.18.18-.22.14-.26.03-.41-.06-.64-.22-.37-.18-.2-.04-.31-.15h-.11l.09.13-.02.17-.08.09-.16.01c.01.01 0 .02-.07.04s-.16 0-.17 0l-.15-.09-.13-.02-.93.06-.17.15-.16.03-.17-.04-.18-.2v-.12l.12-.15.02.01-.12.15v.1l.17.19.16.04.15-.02.17-.15.94-.06.14.02.15.09s.09.01.15 0l-.03-.02.25-.02.07-.08.02-.16-.09-.08.01-.07.11.01.31.15.2.04.73.31.28.09.4.06.25-.03.22-.13.18-.18.16-.23.09-.05.11.04.1.16.05.19-.01.15-.33.25.04.28.17.22.07.15.01.16-.37.04-.45.28-.26.29c-.05.06-.16.28-.16.28l-.12.24-.25.02-.08-.02-.09.06zm-1.82-.23l-.67-1.39.04.12.1.13.53 1.13.1-.13.13-.03.27-.19.16-.01.08.07-.08-.05-.14.01-.05.07-.09.03-.13.09-.13.03-.12.12zm-1.26-.36l-.08-.08-.07-.01-.05.02.05-.04.08.02.07.08h.06l-.14-.79-.11-.05-.01-.2.28-.11-.09-.28-.09.02.07-.28.22.2-.1.03.09.31.34-.07.07.09-.02.07v-.06l-.06-.08-.34.06-.09-.33.1-.02-.21-.19-.06.26.09-.03.11.23v.07l-.28.11.01.18.11.05.13.81-.08.01zm-.24-.04l-.02-.1-.2-.17h-.02l-.03-.06-.14-.49.13.29.03.2.25.22.02.1-.02.01zm-2.49-.18l-.53-.44-.11-.02-.32.04-.01-.04.14.01.19-.03.11.02.17.12.36.34-.1-.17-.07-.43.1-.22.05.02h-.04l-.08.2.07.42.07.18zm-.96-.47l-.02-.1.02-.11.07-.1.33-.22.02-.15-.23-.31-.01-.18.04-.1.1-.08.08-.01.01.03h-.08l-.09.07-.04.09.01.18.06.11.16.2-.03.16-.33.23-.06.1-.02.11.01.08zm3-.25l-.11-.03-.06-.07-.08-.2-.08-.05-.28.03-.05.05-.28-.08-.26.17-.05-.07-.05.03-.16-.03-.29.19-.06-.02h.06l.11-.06.17-.13H42.7l.05.06.25-.17.27.08.05-.05.3-.03.09.06.14.26.08.06zm-1.78-.56c-.03 0-.3-.04-.3-.04l-.2-.1-.3-.29v-.06l.02.05.29.27.19.1s.26.03.29.03c.03 0 .3-.04.3-.04l.46-.11.11-.08.16-.02.11-.11h.1l.36-.21.39-.14.05.01-.43.15-.36.21-.1-.01-.11.11-.16.02-.08.09-.5.1c.02.03-.26.07-.29.07M42.8 20.21l-.01-.01v.01l-.2-.14.17.09-.08-.12v.01l-.11-.15.03.02-.07-.12-.03-.16.08.2-.02.01.1.13.19.16-.01.02-.11-.08-.02.02.1.09z"/><path fill="#fdfbfb" d="M42.26 20.33l-.08.08-.13-.02v.17l.19.27-.19-.25.01-.18.13.01z"/><path d="M42.23 20.84l-.19-.26.07.08-.07-.09.21.26z"/><path fill="#fdfbfb" d="M42.04 20.8l-.04-.12v-.13z"/><path fill="#666" d="M44.65 20.38l.02.16.11.18.06.08z"/><path d="M44.84 20.81l-.18-.27-.02-.15.21.41z"/><path fill="#7f7f7f" d="M45.01 20.81l-.1-.03-.09-.09-.13-.22.13.17z"/><path d="M45 20.82l-.1-.03-.09-.09-.12-.22.32.32z"/><path d="M44.48 20.14l-.06.06-.1.03s-.11-.01-.13-.03c-.02-.02-.13-.08-.13-.08l.13.07h.24l.05-.05z" fill="#666"/><path d="M44.32 20.24c-.02 0-.11-.01-.13-.03-.02-.02-.13-.08-.13-.08.01-.01.07.02.11.04l.03.01h.23l.05-.05-.05.07.01-.01-.01-.01-.01.01-.19.01c.03.01.07.01.09.02l.09-.02-.09.04z"/><path fill="#666" d="M44.14 20.2l.02.44.04.17.06.13.08.13.02-.05.09.06.03-.03-.09-.09-.09-.12-.05-.12-.06-.21-.02-.23h.08l-.03-.04z"/><path d="M44.45 21.08l-.01-.01.01.01.02-.03-.18-.2-.11-.34-.02-.23h.05l-.02.23.11.33.17.21-.02.03zm-.18-.13l-.02-.01-.06-.13-.04-.17-.01-.44.08.03v.03l-.08-.06.02.44.11.31z"/><path fill="#7f7f7f" d="M46.1 20.9l.16-.02.15-.13.03-.09.07-.05-.01.15.04.08.1.03.06.06.11.01.15-.1.12-.12.09-.09.08-.03.02-.14h.05l.01-.07-.02-.13-.05-.12-.06-.09-.1-.09-.05.02.11.11.1.12v.19l-.02.07-.14.16-.18.19-.09.05-.19-.03-.07-.09-.01-.06-.02-.06v-.08l.03-.05-.2.22h-.07z"/><path d="M46.81 20.94l-.11-.01-.07-.06-.09-.03-.04-.08.01-.15-.07.06-.02.08-.16.13-.17.02.2-.18h.08l.19-.22-.02.13.04.12.06.09.19.02.08-.04.35-.43-.01-.18-.2-.23.08.04.13.19v.19l-.02.07-.32.36-.09.04-.19-.03-.07-.09-.03-.2-.16.17-.08.01-.2.17.16-.02.15-.13.03-.09.07-.05v.15l.03.08.1.03.06.05.11.01.15-.09.29-.24.02-.14.06-.07h-.01l-.06-.25-.08-.1.02.01.06.08.07.26-.08.21-.07.04z"/><path fill="#7f7f7f" d="M48.58 19.54l.04-.03.05.06.01.19v.13l-.07.13-.15.17-.18.08-.17.02-.11-.03-.05-.07-.02-.06v-.16l.03-.06.01.03v.17l.05.07.12.03.11-.03.13-.04.11-.06v-.04h-.04l.01-.02h.06l.08-.15.03-.13v-.1l-.03-.04-.02-.02z"/><path d="M48.11 20.29l-.12-.03-.07-.14.03-.22.01.06-.03.16.07.14.11.02.17-.02.18-.08.15-.16.07-.14-.02-.31-.04-.06.01-.01.04.07.02.32-.08.14-.15.17-.18.08-.17.01zm.03-.07l-.12-.04-.06-.07v-.1l.01.1.06.06.11.03.25-.08-.01.02-.24.08zm.37-.19l.09-.16.02-.23-.05-.06.02-.03-.02.03h.01l.05.06-.03.23-.09.16z"/><path fill="#666" d="M44.49 21.93l-.26.13-.24.07-.13-.02.26.09.09-.08.16-.07z"/><path d="M44.12 22.22l-.26-.1H44l.23-.07.26-.12-.11.13-.26.16zm-.26-.1l.25.07.09-.07.16-.08.12-.11-.25.14-.24.07-.13-.02z"/><path d="M44.69 22.46l.14.04.07.03.14.02-.11.07.14.03s-.14.02-.15.02c-.02 0-.1.05-.1.05s-.02.08.03.08.11-.02.14-.02.11.02.11.02l.05.04-.03.05-.22.01.03.03h.18l-.17.11.21-.01.17.07v.04l-.16.04-.04-.06-.21.06-.04.05-.08-.05.06-.13-.01-.14-.03-.11-.07-.16-.05-.18z" fill="#979797"/><path d="M44.87 23.2l-.08-.05.06-.14-.04-.24-.13-.31.36.08-.11.07.14.02c0 .01-.14.02-.15.02-.02 0-.07.03-.09.05l.03.07.07-.01c.03 0 .06-.01.07-.01.02 0 .11.02.11.02l.06.05-.04.01-.01-.05s-.08-.02-.11-.02c-.01 0-.04 0-.07.01l-.07.01c-.04-.03-.03-.08-.03-.08.01-.01.08-.05.1-.05.02 0 .15-.02.15-.02l-.14-.02.11-.07-.35-.08.16.41.01.14-.06.14.05.05.04-.06.21-.06.04.07.02-.01-.02.01-.04-.06-.25.11zm.41-.11l-.13-.08-.21.01.17-.12-.18.01.08-.02.1.01-.17.12.2-.01.17.07-.03.01z"/><path fill="#fdfbfb" d="M41.99 15.94l-.04.24.07.18.01.24-.01-.27-.07-.13z"/><path d="M42.01 16.6v-.24l-.04-.1v-.32l-.03.25.05.06-.02.01.06.07.01.27zM42.33 17.44l-.03-.54-.04-.09.01-.34-.05-.07-.01-.31h.03v.31l.05.06-.01.34.04.09zM42.52 16.47l.01-.25-.05-.38.07-.13.02.01-.07.12.05.38zM42.76 15.97l-.01.39.02.12v.21l.01.33v.22l-.18-.22.19.24.03.24.05.09-.03.12.01.21V18.5l-.19-.46.02.95.01-.55.07-.09.1.27.02.12-.02-.46z"/><path d="M42.69 18.99l-.04-.95.21.46-.01-.17.01.17-.21-.46.04.95-.01-.55.07-.11.13.27.02.13-.14-.39-.05.1-.02.55zm.17-.56l-.03-.72.03-.13-.05-.08-.04-.24-.19-.24.21.22-.05-.88.03-.39-.01.39.02.12.01.77-.21-.22.21.23.08.33-.03.13.02.71zM44.13 17.12l-.09-.42.03-.38-.01.37z"/><path d="M44.41 16.87l.07.82-.07-.82z" fill="#ddd680"/><path d="M44.5 17.69l-.1-.82h.02z"/><path fill="#d9d590" d="M42.3 18.09l.02.48.03.2.01.23z"/><path d="M42.37 18.99l-.07-.42-.01-.48h.02z"/><path fill="#c78a62" d="M44.77 18.97v-.08l.36-.08-.05.04v.24z"/><path d="M45.1 19.09l-.04-.25.07-.04-.35.1v.07h-.02v-.08l.37-.09-.05.06z"/><path fill="#c78a62" d="M45.76 18.76v-.1l.36-.07-.08.02.01.25z"/><path d="M45.77 18.76h-.02v-.1l.37-.08-.36.09z"/><path fill="#c78a62" d="M44.98 19.56v-.08l.3-.06-.01.31z"/><path d="M45.28 19.73l-.01-.31-.29.07.01.07h-.02v-.08l.31-.07z"/><path fill="#c78a62" d="M45.7 19.45v-.13l.33-.06.02.29z"/><path d="M46.06 19.55l-.04-.29-.32.07.01.12h-.02v-.13l.34-.07z"/><path d="M44.69 20.1l1.27-.29-1.27.29z" fill="#fdfbfb"/><path d="M44.7 20.12l-.01-.04 1.27-.29z"/><path fill="#ba6f3e" d="M44.38 19.3l.13.02 2.17-.5z"/><path d="M44.51 19.34l-.14-.02.01-.04.13.01 2.16-.49z"/><path fill="#ba6f3e" d="M44.5 18.74l.34-.05 1.87-.49z"/><path d="M44.5 18.76v-.04l.33-.05 1.88-.49-1.87.53z"/><path fill="#c78a62" d="M44.63 18.37v.21l-.07.01v-.1zM44.81 18.34v.2h-.05l-.02-.18zM44.94 18.3l-.06.03v.16l.08-.01zM45.09 18.24l-.06.05v.15l.1-.01zM45.27 18.2l-.08.03v.17l.09-.02zM45.45 18.15l-.08.01v.2l.09-.01zM45.67 18.11l-.08.03.01.14.08-.02zM45.87 18.05l-.08.04v.14h.08zM46.04 18l-.07.03v.16h.08zM46.22 17.98l-.07.05v.12h.09zM46.42 17.92l-.08.03.01.12.07-.01zM46.63 17.87l-.08.04v.13l.1-.01z"/><path fill="#73b5cf" d="M44.8 17.67l-.01.18.13-.03-.02-.17zM44.97 17.62v.15h.06v-.16z"/><path d="M45.04 17.78h-.07l-.01-.16h.06l-.04.15h.05-.01l.02-.16z"/><path fill="#73b5cf" d="M45.1 17.59v.16l.08-.02v-.15zM45.27 17.56l.01.12h.08l.01-.15zM45.44 17.52v.14h.11l-.01-.15zM45.62 17.48v.13l.1-.03-.03-.13z"/><path fill="#cacaca" d="M45.76 17.44v.13l.07-.02-.01-.11zM45.88 17.41v.1h.05v-.11zM45.99 17.4l.01.09.08-.02-.01-.1zM46.15 17.34v.12h.05l.02-.12zM46.29 17.31v.11l.07.01-.02-.12zM46.42 17.28v.12l.07.01v-.11zM46.56 17.24l-.03.14h.08l-.01-.11zM46.65 17.24v.11l.11-.05-.01-.12z"/><path d="M46.79 18.8l.71-.19-.71.19z" fill="#fdfbfb"/><path d="M46.8 18.83l-.02-.06.71-.19z"/><path fill="#d9d590" d="M43.36 19.55l-.09.1.01.03h.1l.04-.08zM43.25 19.43l.02.1.07-.01.04-.07v-.06l-.08.02zM43.43 19.39l.02.06h.15v-.04l-.06-.03zM43.42 19.27l.01.07h.09l.05-.06-.05-.06zM43.22 19.29l-.02.05.05.02.11-.02v-.04zM43.22 19.17v.06h.1l.04-.05-.04-.03zM43.43 19.12l-.02.05.1.02.05-.04-.07-.05zM43.23 18.99l-.02.07.07.01.05-.04.01-.06-.06-.01zM43.41 18.95v.08l.1.02v-.1l-.04-.02zM43.31 18.83h-.1l-.01.12.12-.05zM43.39 18.8l-.04.08h.11l.05-.11-.06-.01z"/><path d="M43.47 18.89h-.12l.03-.1.06-.04.06.02-.11.03h.01l-.04.08.1-.01.04-.1.02.01z"/><path fill="#d9d590" d="M43.37 18.66l.01.06.1-.01-.04-.08zM43.26 18.68l-.07-.01v.09l.11-.02zM43.19 18.53l-.01.09h.13l-.03-.09zM43.34 18.49v.1h.12l-.02-.1zM43.28 18.42l-.09.1-.03-.08.06-.1zM43.35 18.35l-.02.08h.11v-.08l-.04-.03zM43.22 18.25h-.06l-.01.06h.1z"/><path fill="#ddd680" d="M43.33 18.22l-.01.08h.08v-.08zM43.31 18.07l-.02.08h.12v-.07zM43.18 18.11l-.02.1.1-.04v-.05zM43.17 17.96l-.03.07.05.02.04-.06-.02-.05zM43.3 17.9l-.02.06.04.07.06-.01v-.09l-.06-.03zM43.17 17.82l-.02.06.04.04s.04-.01.04-.03c0-.01.01-.05.01-.05l-.05-.03-.02.01zM43.28 17.79l-.01.07.03.02.06.01v-.06c0-.02-.04-.03-.04-.03l-.04-.01zM43.15 17.7l-.01.07.05.01.02-.03c0-.01-.02-.05-.02-.05h-.04zM43.26 17.68l-.01.06s.02.03.04.03.03-.02.03-.03-.01-.05-.01-.05l-.05-.01zM43.15 17.61l-.02.05.05.02.03-.04-.03-.03zM43.26 17.57l-.01.05s.03.02.05.02c.01-.01.03-.04.03-.04l-.04-.03h-.03zM43.11 17.47l-.01.06.04.03c.01-.01.06-.02.06-.02l-.03-.06s-.03-.01-.04-.01h-.02M43.24 17.44l-.02.06.08.01s.01-.07 0-.07h-.06M43.12 17.36l-.01.03.04.03.03-.02-.02-.04zM43.24 17.33l-.03.05.05.02.04-.03zM43.12 17.23l-.02.03.03.04.04-.03zM43.21 17.21l-.02.02.03.04.05-.03v-.02l-.02-.02zM43.11 17.13l-.02.05.05.03.03-.04-.02-.03zM43.2 17.08l-.02.04.03.03.05-.02-.03-.04zM43.11 17.05h-.02v.04l.06-.01-.01-.04zM43.19 17l-.01.05.05-.01V17zM43.1 16.97l-.02.02.03.04.03-.03s.01-.04 0-.04h-.04zM43.11 16.89l-.03.02.03.02.03-.02zM43.11 16.83l-.02.04h.04zM43.17 16.85l.01.04h.03zM43.18 16.91s-.01.05 0 .05.03-.01.03-.01l-.03-.04z"/><path fill="#cdc463" d="M44.44 18.05l-.06.08.01.07.07.07.06-.09z"/><path d="M44.53 17.95l-.06.09.06.1.06-.04s.01-.08 0-.1a1.56 1.56 0 0 0-.06-.05" fill="#cdc663"/><path d="M44.41 17.82s-.03.04-.03.05c0 .01.01.08.01.08l.04.05s.05-.02.05-.03c0-.01.02-.07.02-.07l-.05-.07-.04-.01z" fill="#ddd680"/><path d="M44.31 17.93l-.01.02s-.01.06.01.07c.01.01.06.05.06.05s.04-.02.04-.04c0-.01-.03-.09-.03-.09l-.03-.03-.04.02z" fill="#cec963"/><path d="M44.21 17.76l-.02.04.03.06.04.04s.05-.01.05-.02v-.07l-.03-.05-.05-.02-.02.02z" fill="#ddd680"/><path d="M44.26 17.92l-.08-.11.05-.07.06.03.02.05-.1-.06v.05l.01.06.05.03-.01.01.05-.02v-.05l.01.06z"/><path d="M44.32 17.72l-.01.04s0 .05.01.06c.01.01.05.02.05.02l.03-.05-.03-.07h-.05zM44.27 17.6l-.02.05.01.04.03.02s.04-.02.04-.03v-.05l-.04-.03h-.02zM44.16 17.64l-.03.04.01.05.05.02.04-.04-.03-.06zM44.12 17.54l-.03.02v.03l.04.03.04-.02-.01-.04-.02-.03zM44.22 17.51l-.01.03.02.05.04-.02-.01-.04zM44.15 17.4l-.01.09.06-.01.02-.04-.03-.04zM44.09 17.42c-.01 0-.04.01-.04.01l.01.09.04-.01.02-.03-.01-.04-.02-.02zM44.02 17.34l-.03.03.03.05h.03l.01-.04zM44.11 17.31l-.02.03.02.03h.02l.02-.03-.02-.02zM43.96 17.25l-.02.05.05.01.01-.03-.01-.02zM44.04 17.23l-.01.05h.05v-.05zM43.9 17.17v.05h.05s.02-.05 0-.05h-.05M44 17.15v.04h.05l-.01-.04zM43.93 17.1h-.05v.05l.05-.01zM43.96 17.07v.04h.05v-.04zM43.91 17v.05s.06.01.06 0-.01-.04-.01-.04l-.05-.01zM43.88 17.01h-.05v.05h.06l.01-.04zM43.76 16.84l-.02.02.08.12h.04l-.04-.06s.01-.03-.01-.03c-.01-.01-.02-.01-.02-.01l-.03-.04z" fill="#ddd680"/><path d="M43.77 16.8l-.02.02.09.06v.05l.04.04.03.01-.01-.04-.02-.05-.03-.03-.02-.04h-.02c-.01 0-.02-.02-.02-.02h-.02z" fill="#ddd680"/><path d="M43.92 25.09c-.01-.16.02-.33.04-.49.09-.57.17-1.1-1.17-1.65 1.39.53 1.3 1.1 1.21 1.66-.03.16-.05.32-.04.48h-.04z" fill="#6cd14e"/><path d="M45.64 24.68h-.06c0-.43-.11-.75-.34-.95-.26-.23-.69-.31-1.26-.24.58-.13 1.02-.04 1.29.2.24.21.37.54.37.99" fill="#5bbc2f"/><path d="M43.95 25.1c.95-.7 1.69-.69 2.24-.03l-.03.03c-.53-.64-1.25-.64-2.21 0M45.74 24.42c.82-.37 1.65-.66 1.88-.23l-.04.02c-.21-.4-1.02-.12-1.84.21" fill="#6cc85a"/><path d="M50.47 22.9c-.22-.61-.59-.97-1.12-1.05.55.04.94.4 1.16 1.03l-.04.02z" fill="#87cc74"/><path d="M51.2 21.92c-.15-.35-.3-.6-.62-.51.38-.16.54.2.67.49l-.05.02z" fill="#63b23b"/><path d="M42.5 24.49l-.06-.02c.21-.7-.07-.89-.34-.98.45.08.57.41.4 1" fill="#75c95c"/><path d="M39.39 22.1l-.02-.05c.08-.04.16-.08.24-.13.26-.15.54-.3.95-.16-.41-.08-.66.06-.93.21-.07.05-.15.09-.24.13" fill="#81cf5e"/><path d="M39.53 22.07c-.12-.24-.29-.36-.6-.37v-.06c.33.01.54.15.6.43" fill="#81cf5e"/></svg>