<svg xmlns="http://www.w3.org/2000/svg" viewBox="0 0 58.92 34.37"><path fill="#f0e030" d="M0 0h58.92v34.37H0z"/><path fill="#fff" d="M0 10.5l58.92 14.32v-8.11L0 2.39z"/><path d="M0 17.66l58.92 14.33v-7.17L0 10.5z"/><path fill="#bd0030" d="M29.12 14.32h.62v1.65h-.62z"/><path d="M29.79 16.02h-.73v-1.76h.73v1.76zm-.62-.11h.51v-1.54h-.51v1.54z"/><path d="M30.36 18.68c-.01-1.13.03-2.22.11-2.53.08-.31.19-.37.34-.53-.34-.04-.72.29-.89.72-.11-.49-.32-.82-.5-.98-.18.17-.39.5-.49.99-.18-.36-.49-.76-.86-.72.13.16.25.21.33.52.08.3.12 1.39.09 2.52l1.87.01z" fill="#bd0030"/><path d="M30.25 18.68c-.01-1.02.03-2.21.11-2.56.03-.14.08-.24.13-.31-.19.11-.37.32-.47.58l-.13.33-.08-.35c-.08-.34-.22-.65-.39-.85-.11.13-.29.4-.38.85l-.06.32-.14-.29c-.06-.12-.22-.42-.44-.57.05.07.09.16.12.29.08.32.12 1.41.09 2.55l-.22-.01c.03-1.1-.01-2.2-.09-2.49a.682.682 0 0 0-.21-.37c-.03-.03-.06-.06-.09-.1l-.13-.16.2-.02c.37-.05.66.27.83.54.1-.32.26-.6.45-.77l.07-.07.08.07c.18.17.34.44.45.76.22-.35.55-.56.87-.53l.22.02-.23.24c-.1.1-.18.18-.23.4-.07.28-.12 1.31-.11 2.51l-.22-.01z"/><path d="M30.41 21.51c-.01-1.36.04-2.52.12-2.89.07-.37.19-.44.36-.6-.37-.04-.72.07-.93.7-.12-.59-.34-.88-.54-1.07-.2.2-.43.5-.53 1.08-.23-.63-.54-.77-.95-.71.17.17.3.24.38.6.08.36.09 1.51.06 2.88l2.03.01z" fill="#bd0030"/><path d="M30.32 21.51c-.01-1.32.04-2.52.12-2.91.05-.26.13-.38.22-.49-.23.03-.45.17-.6.64l-.12.35-.07-.36c-.1-.49-.27-.76-.44-.95-.17.19-.35.46-.44.96l-.06.35-.12-.34c-.18-.49-.4-.63-.63-.66.1.1.19.23.25.49.1.45.08 2.01.06 2.9h-.19c.03-1.52.01-2.53-.06-2.85-.06-.27-.14-.35-.27-.47l-.22-.22.19-.03c.42-.06.72.1.93.51.13-.43.32-.67.49-.84l.07-.07.07.07c.18.18.36.42.49.84.2-.38.5-.54.92-.49l.21.02-.21.2c-.14.12-.22.2-.28.49-.08.38-.12 1.56-.12 2.87l-.19-.01z"/><path d="M30.79 22.27c-.01-.32.03-.74.1-.91.07-.16.17-.29.27-.42-.43-.06-.88-.03-1.11.61-.15-.58-.38-.89-.63-1.08-.25.2-.46.5-.61 1.08-.23-.64-.68-.67-1.13-.61.1.14.21.26.28.42.08.16.12.59.11.91h2.72z" fill="#bd0030"/><path d="M28.17 22.27l-.17-.01c.01-.32-.03-.72-.1-.87-.06-.12-.13-.22-.21-.32l-.15-.2.14-.02c.38-.06.84-.05 1.12.45.14-.41.32-.7.58-.91l.05-.04.05.04c.27.21.46.5.59.91.28-.49.71-.5 1.11-.45l.14.02-.14.19c-.08.11-.16.21-.21.33-.06.15-.11.55-.1.87l-.17.01c-.01-.31.03-.75.11-.94.06-.12.12-.22.2-.32-.39-.02-.69.08-.87.57l-.09.26-.07-.27c-.15-.57-.37-.84-.54-.99-.24.22-.41.53-.53.99l-.07.27-.1-.26c-.19-.52-.53-.6-.89-.57.07.09.15.2.2.32.09.19.13.63.12.94"/><path fill="#bd0030" d="M29.2 11.11h.46v1.31h-.46z"/><path d="M29.75 12.5h-.63v-1.48h.63v1.48zm-.46-.17h.29V11.2h-.29v1.13z"/><path d="M32.4 27.21c.11.08.57.16 1.39.01 1.44-.25 1.43-1.67 3.67-1.01-.1-.2-.46-.82-1.33-.85.09-.29.15-.72-.01-.99-.17.38-.43.55-.62.67-.06-.03-.4-.31-.43-.73-.05-.83-.45-.97-.5-.95-.26-.01-1.82 2.46-5.16 2.47-3.29.02-4.93-2.45-5.12-2.47-.04-.02-.45.12-.5.95-.04.42-.38.68-.44.72-.19-.12-.45-.29-.62-.67-.16.27-.1.7-.01.99-.87.03-1.23.65-1.33.85 2.24-.66 2.25.76 3.69 1.01.82.14 1.25.08 1.36 0h5.96z" fill="#bd0030"/><path d="M25.93 27.39c-.22 0-.51-.02-.86-.09-.56-.1-.91-.36-1.24-.62-.53-.41-1.04-.8-2.4-.4l-.1-.12c.15-.31.52-.82 1.29-.89-.06-.23-.13-.66.05-.95l.15.01c.14.31.34.48.53.6.1-.08.33-.3.36-.62.04-.69.32-.92.44-.99.05-.03.12-.06.18-.03.03.01.08.05.27.24.59.61 2.15 2.22 4.78 2.22h.03c2.57-.01 4.08-1.51 4.73-2.15.24-.23.33-.33.43-.33.01-.02.08.01.14.04.12.07.4.3.44.99.03.32.25.55.35.63.17-.11.39-.28.54-.61l.15-.01c.18.29.11.73.05.95.77.07 1.14.58 1.29.89l-.1.12c-1.36-.4-1.86-.01-2.39.4-.33.26-.68.52-1.24.62-.89.15-1.33.06-1.46-.03l.1-.14c.09.06.53.14 1.33 0 .52-.09.85-.34 1.16-.59.51-.4 1.05-.8 2.34-.48-.19-.28-.54-.61-1.15-.62l-.08-.11c.07-.24.12-.53.06-.76-.18.29-.41.44-.56.54h-.09c-.07-.04-.44-.33-.48-.79-.04-.69-.33-.87-.4-.88-.04.01-.18.15-.32.28-.66.65-2.21 2.18-4.85 2.19h-.03c-2.71 0-4.3-1.65-4.9-2.27-.09-.09-.18-.19-.21-.2-.06.01-.34.19-.39.88-.04.42-.36.71-.48.78h-.09c-.14-.09-.38-.23-.56-.54-.06.23-.01.53.06.76l-.08.11c-.62.02-.97.35-1.15.62 1.29-.33 1.83.08 2.35.48.32.24.65.5 1.17.59.86.15 1.23.06 1.3.01l.1.14c-.08.09-.26.13-.56.13"/><path d="M25.45 26.5c-.78-.03-2.3-1.22-2.09-1.46.07-.07.4 0 .98.41.86.59 1.6 2.44 5.06 2.43 3.52-.02 4.25-1.84 5.11-2.43.58-.41.94-.47.98-.39.21.23-1.32 1.42-2.1 1.45l-7.94-.01z" fill="#bd0030"/><path d="M29.36 27.96c-2.11 0-3.23-.71-3.96-1.38-.71-.06-1.95-.96-2.12-1.37-.05-.12-.02-.19.02-.23.14-.14.56.02 1.1.4.2.14.39.34.62.57.74.78 1.75 1.84 4.36 1.84h.04c2.69-.01 3.71-1.07 4.45-1.85.22-.23.41-.43.61-.56.43-.3.83-.47 1.01-.43l.09.07c.02.02.05.09 0 .2-.18.41-1.42 1.31-2.14 1.37-.74.66-1.88 1.36-4.04 1.37h-.04zm6.05-2.85c-.08 0-.38.08-.85.41-.19.13-.37.32-.58.54-.09.1-.19.2-.3.31.59-.17 1.39-.75 1.67-1.1.09-.12.08-.16.08-.16h-.02m-11.99-.01c.01 0 .01.04.07.13.25.36 1.08.95 1.68 1.13-.1-.1-.2-.2-.29-.3-.22-.23-.4-.42-.59-.55-.55-.38-.82-.42-.87-.41"/><path d="M24.38 14.51c-3.08 3.25-1.43 10.72 4.98 10.82 6.44.07 8.32-7.47 5.12-10.84l-10.1.02zm.62.11c-1.64 2.76.06 7.61 4.45 7.61 4.42 0 6.04-4.88 4.42-7.62l-8.87.01z" fill="#bd0030"/><path d="M29.45 25.42h-.09c-2.78-.05-4.97-1.49-6-3.96-1.03-2.45-.63-5.33.96-7.01l.12.12c-1.55 1.63-1.93 4.43-.93 6.82 1.01 2.41 3.14 3.81 5.85 3.86 2.72 0 4.92-1.34 5.97-3.77 1.05-2.41.67-5.25-.91-6.92l.12-.12c1.63 1.72 2.02 4.64.95 7.11-1.07 2.46-3.27 3.87-6.04 3.87m0-3.1c-1.89 0-3.5-.92-4.41-2.53-.94-1.65-.98-3.74-.11-5.2l.15.09c-.84 1.42-.79 3.44.11 5.03.88 1.55 2.44 2.45 4.26 2.45 1.84 0 3.34-.86 4.23-2.42.92-1.6.96-3.65.11-5.08l.15-.09c.88 1.48.83 3.59-.11 5.25-.91 1.61-2.47 2.5-4.38 2.5"/><path d="M30.58 26.29c.22.05.43.28.35.52-.09.28-.43.35-.56.33-.14-.08-.06-.2.37-.25.28-.1.03-.29-.18-.38-.12-.04-.09-.24.02-.22" fill="#f4d02e"/><path d="M30.41 27.15h-.05c-.06-.04-.07-.07-.07-.1.02-.07.17-.14.43-.16.07-.03.11-.06.11-.11 0-.09-.15-.19-.3-.25-.07-.03-.08-.1-.07-.16.01-.05.04-.09.08-.09.15.03.27.12.34.24.05.09.06.19.03.29-.06.25-.33.34-.5.34m.16-.85c-.05 0-.08.04-.08.07-.01.05 0 .12.06.14.14.06.31.17.31.27 0 .05-.04.09-.13.12-.25.03-.41.08-.42.15-.01.03.03.06.06.08h.04c.16 0 .42-.09.5-.33.03-.09.02-.19-.03-.28a.444.444 0 0 0-.31-.22z" fill="#bd0030"/><path d="M29.88 26.22c.1-.12.19.25.21.5.03.25.03.55-.07.56-.06.01-.01-.28-.07-.55-.08-.31-.11-.46-.07-.51" fill="#f4d02e"/><path d="M30.02 27.29c-.04 0-.04-.07-.04-.19 0-.1-.01-.24-.04-.37-.08-.31-.12-.46-.07-.52h.04c-.06.08-.02.23.05.51.03.14.04.28.04.38 0 .09 0 .17.03.17v.02-.02c.09-.01.09-.29.06-.56-.01-.16-.05-.32-.09-.42.06.1.09.29.1.42.01.09.06.55-.08.58z" fill="#bd0030"/><path d="M29.64 26.66c.26.25-.18.99-1.15.67-.06-.1.38 0 .69-.06.6-.08.34-.72.46-.61" fill="#f4d02e"/><path d="M28.95 27.42c-.14 0-.3-.03-.46-.08 0-.01 0-.02.01-.03.16.07.31.09.45.09.42 0 .65-.22.73-.41.05-.13.04-.25-.04-.33-.03-.01-.03.03-.03.07 0 .16-.01.48-.42.55-.08.01-.16.02-.24.02-.07 0-.14 0-.2-.01h-.14c-.02 0-.1 0-.11.02.01-.03.05-.03.11-.03h.14c.14.01.3.01.44-.01.4-.06.41-.38.41-.53 0-.06 0-.09.03-.09.11.09.13.22.07.36-.09.18-.33.41-.75.41" fill="#bb4b4b"/><path d="M29.17 26.16c.1-.12.04.26.06.51.02.24 0 .53-.12.49-.06-.03.04-.3-.02-.55-.07-.31 0-.37.08-.45" fill="#f4d02e"/><path d="M29.13 27.17h-.02c-.03-.02-.03-.08-.02-.18.01-.1.02-.24-.01-.38-.07-.31 0-.38.07-.45.01 0 .02 0 .03.01-.1.09-.15.16-.09.44.03.14.02.28.01.38-.01.08-.01.15.01.16l.02.02.04-.03c.06-.07.07-.29.06-.47-.01-.09 0-.19 0-.28v-.2c.02.04.02.11.02.2v.27c.02.19 0 .41-.06.48l-.06.03z" fill="#bd0030"/><path d="M28.5 26.06c.19 0 .14.05.12.55-.01.55-.48.62-.59.46-.09-.12-.06-.16-.48-.11-.09-.05-.09-.15-.4-.12-.08.02-.08-.14-.22-.22-.25-.15-.33.11-.81-.16-.03-.02-.22-.14-.19-.38.04-.3-.24.04-.55-.1-.06-.03-.24-.1-.39-.24-.22-.19.01-.23.31-.03.19.12.46-.15.47-.42.02-.29-.13-.36.1-.36.12 0 .09.5-.12.72-.28.3-.09.24.01.23.1-.03.58-.62.66-.57.12.08-.37.46-.26.82.05.16.35.31.59.34.29.05.29-.34.4-.27.16.1-.31.3.18.45.11.03.17-.24.23-.23.15.02-.1.32.17.37.19.03.14-.28.26-.26.14-.01.01.49.39.44.18-.03-.07-.91.12-.91" fill="#f4d02e"/><path d="M28.2 27.15c-.08 0-.15-.03-.18-.07-.1-.14-.11-.15-.47-.11-.03-.01-.05-.03-.07-.05-.05-.05-.11-.09-.33-.08-.05.03-.07-.03-.09-.08-.03-.05-.06-.11-.13-.15-.08-.05-.17-.05-.26-.04-.1.01-.21.07-.54-.12a.377.377 0 0 1-.19-.39c.01-.06 0-.09-.01-.11-.06-.01-.1 0-.14.01-.11.03-.26.07-.39.01-.07-.03-.25-.11-.4-.24-.07-.06-.1-.11-.09-.14.01-.04.15-.07.41.1.17.11.45-.16.45-.42.01-.1-.01-.18-.02-.24-.01-.05-.02-.08 0-.1.01-.02.04-.02.1-.02.04 0 .07.01.08.05.06.14 0 .5-.17.68-.1.1-.13.16-.14.19 0-.04.03-.1.13-.2.17-.18.22-.53.17-.67l-.04-.05-.03.01c-.05 0-.07.01-.08.02-.01.02-.01.05 0 .09.01.06.03.13.02.24-.01.27-.29.55-.48.43-.14-.09-.26-.13-.33-.13-.06.04-.07.07.02.15.15.13.32.21.38.23.15.06.28.02.39-.01.04-.01.08-.03.11-.03.07.04.07.08.06.14-.04.24.16.36.18.37.32.19.43.14.53.12.1-.01.18-.01.27.04.07.05.11.11.14.16.02.04.04.07.07.07.05 0 .08-.01.1-.01.15 0 .2.04.25.08.02.02.03.03.06.04.36-.04.39-.01.45.08.06.08.12.11.2.11.19 0 .4-.17.41-.53l.01-.25c.01-.16.01-.23-.02-.26-.02-.02-.04-.02-.1-.02-.09.07-.08.27-.06.46.02.22.04.42-.05.43-.23-.02-.29-.17-.31-.3-.02-.08-.05-.16-.07-.14-.05 0-.07.05-.09.1-.02.07-.05.16-.15.16-.19-.03-.18-.15-.16-.24.01-.08.01-.12-.04-.13-.02 0-.05.05-.08.09-.04.07-.08.14-.14.14-.15-.04-.23-.09-.25-.14-.02-.06.01-.11.04-.16.04-.07.06-.11 0-.14-.06-.01-.07.03-.1.08-.05.08-.11.19-.25.19-.28-.03-.59-.18-.64-.35-.07-.21.08-.43.18-.59.07-.11.13-.19.08-.23-.06 0-.22.16-.36.31-.13.13-.24.25-.29.26-.06.01-.09.01-.11.01l-.03-.03c.05.01.08.01.1 0 .07-.02.19-.14.31-.26.15-.15.31-.31.36-.31.07.04.02.13-.06.25-.1.16-.24.37-.18.58.05.16.35.31.58.33.18.01.23-.1.28-.18.03-.05.06-.1.09-.1.1.05.06.11.03.17-.03.05-.06.1-.04.15.02.05.09.09.22.13.06 0 .1-.07.14-.13.03-.05.06-.1.09-.1.08.01.07.08.06.15-.01.1-.03.19.12.22h.01c.1 0 .13-.07.15-.14.02-.06.04-.11.09-.11.07 0 .08.07.1.16.03.13.06.29.25.29.12-.01.1-.22.08-.42-.02-.19-.03-.4.02-.46.1-.02.14-.02.16.01.03.04.03.11.02.27l-.01.25c.04.4-.18.57-.38.57" fill="#bd0030"/><path d="M25.05 25.41c.11-.02.3-.13.31-.29.02-.18-.24-.24-.54-.2-.16.02-.42-.08-.58-.21-.16-.2-.16-.42-.35-.32-.14.06.2.42.36.51.17.09.43.08.45.21.02.12-.05.31.35.3" fill="#f4d02e"/><path d="M25.01 25.42c-.31 0-.31-.14-.31-.25-.01-.14-.11-.16-.23-.19-.07-.02-.15-.04-.21-.07-.14-.07-.4-.34-.4-.47l.04-.04c-.03.16.22.42.36.5.06.03.14.05.21.07.12.03.23.06.24.14 0 .18 0 .3.29.3v.01l.04-.02c.09-.02.29-.12.3-.28a.15.15 0 0 0-.04-.11c-.08-.08-.26-.11-.49-.08-.21.02-.44-.09-.59-.21-.05-.07-.09-.13-.12-.19-.06-.12-.1-.19-.22-.13.04-.03.06-.04.07-.04.08 0 .11.07.16.16.03.06.06.12.11.19.14.12.37.21.53.21.11-.01.17-.02.23-.02.15 0 .26.04.32.1.03.03.05.08.04.12-.01.16-.19.27-.31.3h-.02z" fill="#bd0030"/><path d="M31.75 26.25c-.06.03-.11.58.23.59.43.02.65-.2.76-.28.18-.14.5-.41.35-.64-.07-.09-.12.16-.2.3-.12.21-.52.45-.83.42-.38-.02-.24-.41-.31-.39" fill="#f4d02e"/><path d="M32.02 26.85h-.04c-.14-.01-.24-.1-.27-.27-.03-.15-.01-.32.03-.34.04-.02.04.04.04.08.01.11.02.29.27.3.37-.01.71-.22.82-.42.03-.05.05-.11.07-.16.04-.09.06-.16.1-.16.01.01.01.02.02.03-.05 0-.08.06-.11.14-.02.06-.05.11-.08.16-.11.2-.47.43-.78.43-.32-.02-.34-.21-.35-.32 0-.04-.01-.07-.02-.07-.03.01-.06.17-.03.32.02.11.09.25.25.25l.08.03v-.02c.35 0 .54-.15.66-.25.3-.23.44-.41.43-.55.02.16-.11.33-.38.53-.15.13-.35.29-.71.29" fill="#bd0030"/><path d="M32.63 26c-.09-.07.19-.17.22-.28.03-.1-.12-.2-.04-.31.09-.15.1.28.21.29.32.03.09.24-.03.2-.13-.04-.31.15-.36.1" fill="#f4d02e"/><path d="M32.65 26.01l-.02-.01v-.03l.03.03c.03 0 .06-.02.11-.04.06-.03.13-.07.19-.07l.07.01c.07 0 .15-.06.15-.11 0-.04-.05-.07-.15-.08-.06-.01-.09-.11-.12-.2a.66.66 0 0 0-.04-.11c.03.01.04.06.06.11.02.08.05.18.1.19.15.02.17.07.17.1 0 .06-.09.12-.16.12l-.07-.01c-.06 0-.13.04-.19.07-.06.01-.1.03-.13.03zm-.03-.05c.01-.05.05-.08.1-.11.05-.04.12-.09.13-.13s-.01-.08-.03-.13c-.03-.06-.06-.12-.01-.19.01 0 .02-.01.03-.01-.06.08-.04.14-.01.19.02.04.04.09.03.14s-.07.09-.14.14c-.04.04-.09.08-.1.1" fill="#bd0030"/><path d="M32.39 25.35c-.02.14.07.18.09.1.03-.15-.06-.23-.09-.1M32.62 25.2c-.05 0-.06.18.01.19.07.01.04.13.1.13.07 0 .08-.2 0-.2-.09-.01-.07-.12-.11-.12" fill="#f4d02e"/><path d="M32.72 25.52l-.05-.06c-.01-.03-.02-.06-.05-.06-.04 0-.06-.06-.06-.1 0-.05.01-.1.05-.1.06.08.07.1.1.11.05 0 .07.06.07.11.01.04-.02.1-.06.1zm-.11-.29c-.02 0-.03.03-.03.06 0 .04.01.08.04.09.04 0 .05.04.06.07l.03.06v-.01c.03 0 .05-.05.05-.1s-.02-.09-.05-.09c-.05 0-.06-.04-.07-.07-.01 0-.02-.01-.03-.01" fill="#bd0030"/><path d="M33.19 25.17c-.06.08-.18-.29.21-.35.18.02.34.32.32.61-.01.11-.01.35-.07.47-.05.11-.23.49-.31.45-.09-.03.02-.19.17-.4.12-.18.16-.67.1-.76-.06-.09-.12.22-.24.28-.1.05-.21-.1-.23-.18-.01-.09.07-.15.13-.04.04.08.18-.08.18-.19-.01-.18-.13-.03-.26.11" fill="#f4d02e"/><path d="M33.35 26.37h-.01c-.01-.01-.01-.02-.01-.03l.03.02c.08 0 .23-.3.29-.45.05-.1.06-.3.07-.42.02-.33-.14-.63-.31-.65-.21.03-.27.15-.27.26 0 .05.02.08.04.08.13-.13.19-.2.24-.2.04.02.04.05.04.09 0 .07-.04.14-.08.18-.02.03-.05.04-.07.04-.06-.06-.08-.08-.1-.08-.05.03-.05.06-.05.09.01.06.09.18.18.18.1-.04.14-.13.18-.2.03-.07.06-.11.09-.11.01.01.01.02.02.03-.03-.01-.06.04-.09.09-.04.07-.08.16-.14.19-.14 0-.22-.11-.24-.18-.01-.03 0-.07.02-.09.06-.02.09-.01.12.04l.09-.02c.04-.04.08-.11.07-.17 0-.05-.01-.07-.01-.07-.05-.01-.12.07-.19.15l-.06.05c-.03 0-.05-.04-.05-.1-.01-.11.06-.25.28-.28.19.02.35.32.33.62-.01.17-.02.37-.07.47-.03.01-.23.47-.34.47m-.03-.09c.01-.08.08-.18.16-.3.12-.18.17-.59.14-.73.05.18-.01.57-.11.72-.09.13-.17.24-.19.31" fill="#bd0030"/><path d="M34.02 24.34c-.05.07-.22.23-.25.29-.03.06-.04.18.02.29.05.11.17.28.15.44-.02.16-.13.48-.07.45.06-.03.21-.35.17-.59-.03-.24-.15-.38-.12-.46.02-.08.16-.23.18-.33.03-.1-.02-.38-.06-.4-.04-.02-.17.03-.13.12.05.09.14.03.11.19" fill="#f4d02e"/><path d="M33.86 25.82l-.01-.01c-.02-.02 0-.11.04-.25.02-.07.04-.15.04-.21.02-.13-.06-.27-.11-.38-.09-.17-.08-.29-.05-.35.02-.04.08-.1.14-.17.04-.05.09-.09.11-.12.01-.09-.01-.1-.04-.12a.187.187 0 0 1-.07-.06.11.11 0 0 1 0-.08c.02-.04.07-.06.11-.06.07.03.11.31.08.42-.01.05-.06.12-.1.19-.04.06-.07.11-.08.15-.01.04.01.09.04.15.03.08.07.18.09.3.03.24-.11.57-.18.6h-.01zm.16-1.79c-.05 0-.09.02-.1.05.01.1.04.11.06.12.03.02.07.04.05.14-.02.03-.07.08-.11.13-.06.06-.12.13-.14.17-.03.06-.04.17.02.28.09.16.17.31.15.44-.01.06-.03.14-.04.21-.02.1-.05.22-.04.24.05-.02.2-.34.17-.58-.02-.13-.05-.22-.08-.3-.03-.07-.05-.12-.04-.16.01-.04.05-.09.08-.15.04-.06.09-.13.1-.18.03-.11-.02-.37-.05-.39-.02-.02-.02-.02-.03-.02" fill="#bd0030"/><path d="M34.24 24.47c-.06.06-.03.36.05.25.08-.11 0-.3-.05-.25M32.65 26.7c-.03.13.1.17.14.1.04-.14-.09-.22-.14-.1M32.85 26.59c-.04.11.15.12.2.06.07-.12-.12-.16-.2-.06" fill="#f4d02e"/><path d="M32.95 26.69c-.04 0-.08-.01-.1-.04.01-.02.01-.03.02-.05.04.13.15.07.18.03-.02-.16-.12-.1-.17-.06.06-.1.16-.06.19-.01.01.02.02.04-.01.08-.02.04-.07.05-.11.05M25.03 25.03c-.1-.05-.1.16-.05.21.05.06.33-.08.05-.21" fill="#bd0030"/><path d="M25.02 25.26l-.04-.02c-.03-.04-.05-.14-.02-.19l.08-.03c.12.05.13.11.12.14-.02.07-.09.1-.14.1m.01-.22c-.08.07-.07.16-.04.2l.03.01c.04 0 .11-.04.12-.08.01-.05-.03-.09-.11-.13M29.47 13.92c-1.01.2-1.71.8-1.38 1 .2.13 1.13-.23 1.33-.54.36.55 1.33.76 1.57.63l-1.52-1.09z" fill="#bd0030"/><path d="M30.79 15.13c-.39 0-1.04-.21-1.37-.61-.21.21-.66.42-1 .49-.18.04-.3.03-.38-.02a.235.235 0 0 1-.11-.25c.06-.33.76-.75 1.53-.9.05-.01.09.02.1.07.01.05-.02.09-.07.1-.79.16-1.35.56-1.39.76-.01.03 0 .05.04.08.02.01.1.03.25-.01.33-.07.84-.31.96-.51l.07-.11.07.11c.34.53 1.28.7 1.46.6.04-.02.09-.01.12.04.02.04.01.09-.04.12a.52.52 0 0 1-.24.04"/><path d="M24.23 13.6c.17.26 1.04.89 1.66.93.63.05 2.04.34 2.32.21.27-.12 1.05-.66 1.25-.56.2.09 1.36.73 1.78.72.43-.02 3.19-.79 3.28-.95.09-.15-.55-.55-.96-.55-.41 0-9.33.22-9.33.2" fill="#bd0030"/><path d="M26.66 14.86c0 .16.13.27.41.27.48.01 1.3-.22 1.79-.77l-2.2.5z" fill="#bd0030"/><path d="M27.1 15.22h-.03c-.44 0-.49-.25-.5-.35 0-.05.04-.09.08-.09.08.01.09.04.09.08 0 .12.11.19.33.19.51 0 1.28-.24 1.72-.74.03-.03.09-.04.12-.01.04.03.04.09.01.12-.52.59-1.36.8-1.82.8"/><path d="M25.21 14.63c-.03.13.19.3.61.31.42.01 1.89-.18 2.37-.67l-2.98.36z" fill="#bd0030"/><path d="M25.84 15.02h-.02c-.29 0-.53-.08-.64-.22a.241.241 0 0 1-.06-.19c.01-.05.05-.08.1-.07.05.01.08.05.07.1 0 .01 0 .03.02.05.06.07.22.15.51.16.46-.01 1.86-.18 2.3-.64.03-.03.09-.04.12 0 .03.03.04.09 0 .12-.5.53-2.01.69-2.4.69"/><path d="M24.21 14.23c-.23.29.49.4.93.39.43-.01 1.55-.01 2.05-.38l-2.98-.01z" fill="#bd0030"/><path d="M25.14 14.71c-.15 0-.9-.01-1.04-.28-.02-.04-.05-.14.04-.25.03-.04.08-.05.12-.02.04.03.04.08.02.12-.03.04-.02.06-.02.07.05.1.47.18.88.19.43-.01 1.53-.02 2-.37.04-.03.09-.02.12.02s.02.09-.02.12c-.51.38-1.61.39-2.08.4h-.02z"/><path d="M23.42 13.74c-.22.29.51.54 1.39.52.81-.02 1.64-.3 1.64-.3l-3.03-.22z" fill="#bd0030"/><path d="M24.73 14.35c-.61 0-1.26-.13-1.4-.4a.248.248 0 0 1 .03-.26c.03-.04.08-.05.12-.02.04.03.05.08.02.12-.03.04-.02.06-.01.08.08.16.64.32 1.34.3.79-.02 1.61-.3 1.62-.3a.1.1 0 0 1 .11.05c.01.05-.01.09-.05.11-.03.01-.85.29-1.67.31-.05.01-.08.01-.11.01"/><path d="M32.18 14.86c-.01.16-.13.27-.41.27-.48.01-1.3-.22-1.79-.77l2.2.5z" fill="#bd0030"/><path d="M31.74 15.22c-.46 0-1.3-.21-1.82-.8-.03-.04-.03-.09.01-.12.03-.03.09-.03.12.01.44.49 1.21.73 1.72.74.21 0 .32-.06.33-.19 0-.05.02-.08.09-.08.05 0 .08.04.08.09 0 .1-.06.35-.5.35h-.03"/><path d="M33.63 14.63c.02.13-.19.3-.61.31-.42.01-1.89-.18-2.37-.67l2.98.36z" fill="#bd0030"/><path d="M33 15.02c-.39 0-1.91-.16-2.42-.69a.091.091 0 0 1 0-.12c.03-.03.09-.03.12 0 .44.46 1.84.65 2.31.64.28 0 .45-.09.51-.16-.01-.05.03-.12.08-.13.05-.01.1 0 .11.04.01.06-.01.13-.06.19-.11.14-.35.22-.64.22H33z"/><path d="M34.62 14.24c.23.29-.49.39-.92.39-.43-.01-1.55-.01-2.05-.38l2.97-.01z" fill="#bd0030"/><path d="M33.72 14.71h-.02c-.49 0-1.58-.02-2.1-.4-.04-.03-.05-.08-.02-.12.03-.04.08-.04.12-.02.47.35 1.56.36 1.98.37.43.02.84-.08.9-.18-.03-.04-.03-.12 0-.15.04-.03.08-.05.11-.02.08.1.07.19.04.25-.13.25-.85.27-1.01.27"/><path d="M35.42 13.74c.22.29-.51.54-1.4.52-.81-.02-1.64-.3-1.64-.3l3.04-.22z" fill="#bd0030"/><path d="M34.11 14.35h-.09c-.82-.02-1.64-.3-1.67-.31-.05-.02-.07-.06-.05-.11.01-.04.06-.07.11-.05.01 0 .83.28 1.62.3.69.01 1.26-.15 1.34-.31.01-.02.01-.04-.01-.08-.03-.04-.02-.09.02-.12s.09-.02.12.02c.06.08.07.18.03.26-.15.26-.81.4-1.42.4"/><path d="M25.16 13.72c-1.12.16-1.64.08-1.87-.03-.28-.12-.76-.5-.05-.51.47-.01.71.03 1.24.02 1.37-.02 3.34-1.1 3.93-1.1.56 0 .7.25 1.02.26.32 0 .43-.26.98-.26.6.01 2.57 1.08 3.94 1.1.53 0 .77-.03 1.24-.02.71.01.23.39-.05.51-.22.11-.74.19-1.86.03h-8.52z" fill="#bd0030"/><path d="M34.77 13.89c-.28 0-.64-.02-1.1-.09-.05-.01-.08-.05-.07-.1.01-.05.05-.08.1-.07 1.18.17 1.65.06 1.82-.02.21-.09.38-.24.37-.29 0 0-.04-.05-.29-.06-.24-.01-.42 0-.61.01-.18.01-.37.01-.63.01-.84-.01-1.88-.41-2.72-.72-.53-.2-1-.38-1.22-.38-.29.01-.45.08-.59.15-.12.06-.23.12-.39.11-.15 0-.27-.06-.39-.11-.15-.07-.33-.15-.63-.15-.22 0-.68.18-1.22.38-.84.32-1.88.71-2.72.72-.25 0-.45-.01-.63-.01-.19-.01-.37-.02-.61-.01-.25.01-.28.06-.29.06 0 .05.16.2.37.29.17.08.63.19 1.82.02.05-.01.09.03.1.07.01.05-.03.09-.07.1-1.17.17-1.69.07-1.92-.04-.14-.06-.51-.27-.47-.48.03-.17.27-.19.45-.19.24-.01.43 0 .62.01.18.01.36.02.62.01.8-.01 1.83-.4 2.65-.71.57-.22 1.03-.39 1.28-.39.36.02.54.09.7.16.11.05.2.09.32.1.09-.02.21-.04.31-.09.15-.07.33-.15.67-.16.25 0 .71.17 1.28.39.82.31 1.85.7 2.65.71.26 0 .44-.01.62-.01.19-.01.38-.02.62-.01.18 0 .42.03.45.19.04.21-.32.42-.47.48-.11.06-.35.12-.78.12"/><path d="M29.42 9.68c-.53.03-1.26-.06-1.49.53-.36.68-.26 1.44-.1 1.46.29.03.31-.76.44-.77.13 0 .13.69.38.69.19-.01.3-.7.36-.69.06.01.18.66.42.66.25 0 .36-.66.42-.66.06-.01.18.69.36.69.25.01.25-.69.38-.69.12 0 .18.79.46.76.16-.02.24-.78-.12-1.45-.25-.6-.99-.51-1.51-.53" fill="#bd0030"/><path d="M27.85 11.75h-.03c-.04 0-.09-.03-.14-.11-.13-.23-.14-.89.17-1.47.22-.55.83-.56 1.32-.56.08 0 .17 0 .24-.01h.25c.5.01 1.11.02 1.33.57.31.58.3 1.24.18 1.46-.04.08-.1.1-.14.11-.25 0-.34-.31-.42-.55-.02-.06-.04-.13-.06-.18.01.05-.01.11-.02.17-.06.22-.13.49-.34.49-.18-.01-.28-.29-.36-.55 0-.01 0-.01-.01-.02-.08.22-.19.54-.42.54-.21 0-.33-.31-.41-.54.01 0 .01.01.01.02-.08.25-.17.54-.35.55-.21 0-.28-.27-.34-.49-.01-.05-.03-.11-.04-.16 0 .04-.02.11-.03.17-.08.25-.16.56-.39.56m1.56-1.99c-.07 0-.15.01-.24.01-.49.01-.99.02-1.17.46-.34.65-.24 1.28-.16 1.34.1 0 .17-.28.21-.43.06-.2.09-.33.2-.33.12 0 .16.14.21.32.03.13.09.36.17.36.06-.02.16-.32.19-.43.06-.19.08-.26.17-.26.08.01.11.07.16.23.05.13.16.44.25.44.11 0 .22-.31.26-.44.05-.15.07-.21.15-.22.07-.02.12.08.18.27.04.11.13.41.2.42.08 0 .14-.23.17-.36.05-.18.08-.32.2-.32.11 0 .15.13.21.33.05.16.13.43.23.43.07-.05.16-.69-.18-1.33-.18-.46-.71-.47-1.18-.47-.07-.01-.15-.01-.23-.02"/><path d="M28.15 9.92c.14.24 1.25.23 1.31.23.06 0 1.03.01 1.25-.22l-2.56-.01z" fill="#bd0030"/><path d="M29.49 10.24h-.04c-.47 0-1.24-.04-1.38-.27l.15-.09c.07.11.58.19 1.22.19h.04c.6 0 1.06-.08 1.17-.19l.12.12c-.21.2-.88.24-1.28.24"/><path d="M29.22 7.43v2.35s.01.13.21.13c.19.01.22-.11.22-.13l-.01-2.36-.42.01z" fill="#bd0030"/><path d="M29.43 10h-.01c-.22 0-.28-.14-.29-.21V7.43h.17v2.35s.02.05.12.05c.13 0 .14-.05.14-.05l-.01-2.35h.17l.01 2.36c0 .03-.02.08-.06.13-.04.04-.11.08-.24.08"/><path d="M29.44 7.7c.89-.05 1.15.48 1.4.59.25.11.37.16.71.14.34-.02-.59.57-.59.59l.34.61c-.32.05-.92-.25-1.16-.41-.27-.16-.57-.07-.68-.09l-.02-1.43z" fill="#bd0030"/><path d="M31.23 9.73c-.38 0-.94-.3-1.14-.43-.13-.07-.33-.09-.49-.08h-.1l-.07-.01-.07-.08-.01-1.52.19-.01c.61 0 .93.28 1.14.46.07.06.14.12.19.14.25.11.35.15.66.13.12 0 .15.05.16.08.03.11-.08.22-.56.56-.03.02-.05.04-.07.05l.37.66-.2.05zm-1.49-.69c.18 0 .32.03.44.11.23.15.67.36.97.4l-.27-.49c-.01-.09-.01-.1.16-.21.1-.07.32-.23.43-.33-.33.02-.43-.04-.67-.15-.08-.03-.15-.1-.23-.17-.2-.18-.48-.42-1.02-.42h-.02l.01 1.26h.05c.05.01.1 0 .15 0"/><path d="M29.93 6.99c0 .27-.23.49-.51.49s-.51-.22-.51-.49.23-.49.51-.49c.29 0 .51.22.51.49" fill="#bd0030"/><path d="M29.42 7.53c-.31 0-.57-.25-.57-.55 0-.3.25-.54.57-.54.31 0 .57.24.57.54 0 .31-.25.55-.57.55m0-.97c-.25 0-.45.19-.45.43s.2.43.45.43.45-.19.45-.43c.01-.24-.2-.43-.45-.43"/><path d="M23.95 18.67c-.07.09-.13-.15-.36.02-.13.11-.18.28-.18.64 0 .3.18.51.28.49.16-.02.08-.39.24-.46.24-.11.59.06.65.29.06.22-.12.46-.3.44-.11-.04.06-.2.07-.26.01-.07.04-.29-.13-.35-.16-.06-.14.16-.14.22-.01.06-.12.25-.25.24-.13-.01-.33-.01-.53-.22-.11-.11-.24-.41-.12-.79.11-.38.31-.41.42-.42.1-.01.38.05.35.16" fill="#f4d02e"/><path d="M24.3 20.1h-.03c-.06-.08-.02-.14.02-.2.02-.03.04-.06.04-.08 0-.01.05-.27-.12-.34-.11 0-.12.08-.12.17-.01.11-.12.3-.26.3-.16-.01-.35-.02-.55-.23-.11-.12-.24-.43-.12-.8.11-.37.3-.42.43-.43.13-.01.29.04.35.12l.02.07h-.1c-.06-.04-.14-.06-.26.02-.13.11-.18.28-.18.63 0 .29.16.47.25.47.08-.01.1-.1.12-.2.02-.1.04-.22.14-.26.23-.11.6.06.67.29.03.11 0 .24-.07.34-.07.08-.15.13-.23.13m-.13-.66c.25.08.19.37.19.38 0 .02-.03.06-.05.09-.03.05-.07.1-.06.13l.05.02c.07 0 .14-.04.2-.11a.35.35 0 0 0 .06-.31c-.06-.22-.41-.38-.63-.28-.08.03-.1.14-.12.24-.02.11-.04.21-.13.22-.12 0-.29-.2-.29-.5 0-.36.05-.54.19-.65.12-.09.23-.06.29-.02.01-.1-.17-.15-.26-.15-.09.01-.3.02-.42.41-.11.37.01.67.12.78.19.2.38.21.5.22.14 0 .25-.18.26-.23 0-.1 0-.24.1-.24" fill="#bd0030"/><path d="M23.67 20.24c-.11-.06.04-.28-.25-.2-.12.03.18.37.3.39.15-.02.11-.11-.05-.19" fill="#f4d02e"/><path d="M23.73 20.44c-.11-.01-.33-.24-.34-.35.08-.07.11-.07.14-.07.1 0 .1.06.11.12.01.04.01.08.05.1.1.05.16.11.15.15-.02.02-.04.04-.11.05zm-.21-.4c-.03 0-.06.01-.1.02-.01.13.2.35.3.36.04 0 .07-.02.07-.03.01-.03-.03-.07-.13-.12-.05-.03-.06-.08-.06-.12 0-.07 0-.11-.08-.11" fill="#bd0030"/><path d="M23.98 20.43c.06.28.12.25.13.39 0 .18-.3.1-.34.18-.04.08-.09.29.1.3.19.01.48-.06.53.07.15.38.48.33.63.27.17-.07.57-.43.67-.46.14-.05-.13-.15-.28-.01-.04.04-.38.39-.55.39-.13.01-.33-.31-.32-.42.01-.08.31-.02.35-.18.03-.12.03-.25-.06-.25-.09-.01-.54.05-.55-.02-.08-.2.08-.28.02-.33-.07-.03-.32-.08-.33.07" fill="#f4d02e"/><path d="M24.82 21.7c-.14 0-.32-.06-.42-.32-.03-.07-.16-.08-.33-.07h-.14c-.12-.01-.16-.03-.19-.07-.04-.08-.01-.2.02-.25.02-.04.08-.05.15-.06.1-.01.19-.02.19-.12a.4.4 0 0 0-.04-.13c-.02-.05-.06-.11-.09-.26 0-.08.07-.12.17-.12.06 0 .13.02.17.03.04.03.02.06 0 .1-.03.05-.06.12-.01.23 0 0 .01.02.14.02.07 0 .16-.01.24-.01.06 0 .11-.01.15-.01.05 0 .07.02.09.04.04.06.02.17 0 .23-.03.11-.14.13-.24.14-.06.01-.11.02-.11.04-.01.07.07.23.17.33.05.05.1.08.13.08.11-.01.31-.15.55-.39.19-.16.34-.08.35-.02-.08.06-.19.14-.3.23-.15.11-.32.24-.41.28-.06.05-.15.08-.24.08m-.63-.42c.09 0 .19.01.22.09.17.43.52.3.61.26.09-.04.26-.17.41-.28.12-.09.22-.17.26-.18.04-.05-.09-.15-.27.01-.15.15-.41.39-.56.39-.06 0-.12-.05-.16-.09-.1-.1-.18-.27-.17-.35.01-.04.07-.05.13-.06.09-.02.19-.03.22-.12.03-.1.03-.18 0-.21l-.07-.03c-.03 0-.08 0-.14.01-.19.01-.39.02-.4-.03-.05-.12-.01-.2.02-.25.02-.04.03-.06.01-.07-.06-.02-.29-.08-.3.06.03.14.06.21.09.25.02.04.04.07.04.14 0 .12-.12.14-.21.15-.06.01-.11.02-.13.04-.02.05-.06.16-.02.23.02.04.06.05.11.06h.19c.04-.01.08-.02.12-.02" fill="#bd0030"/><path d="M25.48 21.5c-.14.15-.52.39-.52.56 0 .09.11.25.19.28.13.05.33.04.48-.08.17-.14.25-.28.18-.31-.26-.07-.26.28-.39.29-.12.01-.3-.18-.06-.42s.56-.47.55-.54c-.01-.06-.33.12-.43.22" fill="#f4d02e"/><path d="M25.32 22.38c-.06 0-.12-.01-.17-.03-.09-.04-.2-.2-.2-.29 0-.13.19-.28.35-.41.07-.06.13-.11.17-.15.09-.09.33-.23.41-.23.01.01.01.02.01.03-.09 0-.32.13-.4.22-.04.05-.11.1-.17.16-.15.13-.34.28-.34.39 0 .09.1.24.18.27.14.05.34.02.47-.08.14-.11.21-.22.2-.26l-.08-.03c-.1 0-.15.09-.2.18-.04.06-.07.12-.12.13-.08 0-.15-.05-.18-.12-.02-.06-.04-.17.1-.32.09-.09.2-.18.29-.26.12-.1.24-.21.26-.26 0 .07-.09.15-.24.28-.09.08-.2.17-.29.26-.13.14-.12.24-.1.29.03.07.09.11.14.11.05 0 .08-.06.11-.12.05-.08.1-.19.22-.19l.07.01c.05.1-.04.22-.17.33-.09.05-.21.09-.32.09" fill="#bd0030"/><path d="M24.87 22.49c-.01.1.24.1.29.01.03-.06-.28-.1-.29-.01" fill="#f4d02e"/><path d="M25 22.58c-.06 0-.1-.02-.13-.04-.02-.17.25-.14.3-.06-.03.08-.11.1-.17.1m-.01-.13c-.05 0-.11.01-.11.04.03.05.07.06.12.06.07 0 .13-.02.15-.05-.02-.03-.09-.05-.16-.05" fill="#bd0030"/><path d="M25.72 22.56c-.14.15.02.32.13.46.06.07.2.15.29.18.13.05.39.03.54-.08.17-.14.18-.38.08-.38-.27 0-.08.36-.21.37-.12.01-.45-.07-.61-.41-.09-.2.17-.24.13-.33-.05-.1-.25.08-.35.19" fill="#f4d02e"/><path d="M26.3 23.24c-.07 0-.13-.01-.18-.03-.1-.04-.23-.11-.29-.19-.13-.17-.26-.33-.13-.48.1-.1.24-.22.31-.22.07.08.03.11-.01.14-.06.05-.13.1-.07.22.16.33.47.4.58.4.06-.01.06-.05.06-.13 0-.07 0-.15.05-.2.04-.05.16-.07.19.01.03.09-.02.25-.14.35-.08.09-.22.13-.37.13m-.27-.88c-.08 0-.18.08-.3.2-.12.13 0 .28.1.41.09.11.23.18.31.21.13.05.4.02.53-.08s.16-.25.13-.32c-.1-.04-.13-.03-.15-.01-.04.04-.04.12-.04.18 0 .07 0 .14-.06.15-.16 0-.47-.09-.62-.42-.06-.13.02-.2.08-.25.04-.03.06-.05.05-.08-.02.02-.02.01-.03.01" fill="#bd0030"/><path d="M26.42 22.54c.06.08.24-.09.22-.18-.02-.07-.28.1-.22.18" fill="#f4d02e"/><path d="M26.46 22.58l-.06-.03.01-.07c.04-.07.15-.15.21-.15.05.07.01.12-.01.15-.04.04-.1.1-.15.1" fill="#bd0030"/><path d="M26.79 23.25c-.01.11.02.26-.1.26-.13 0-.29-.17-.42-.16-.13 0-.18.1-.17.16.01.05.24.12.62.09s.3.21.57.19c.27-.02.31-.11.29-.17-.02-.06-.25-.02-.33-.04-.08-.02-.23-.15-.25-.26-.02-.11-.02-.31.08-.31.18 0 .1.17.11.22 0 .05.07.11.15.01.11-.13.05-.33-.05-.4-.13-.05-.48.15-.5.41" fill="#f4d02e"/><path d="M27.25 23.81c-.1 0-.15-.04-.2-.09-.06-.05-.12-.1-.28-.1-.11.01-.17.01-.22.01-.25 0-.45-.05-.47-.11-.01-.03 0-.07.03-.1.02-.03.07-.07.15-.08.07 0 .15.04.22.08s.14.08.2.08c.09 0 .09-.07.09-.18.02-.31.29-.49.43-.49.12.06.17.13.18.22.01.08-.01.16-.06.22-.03.04-.06.06-.1.06-.04 0-.07-.04-.07-.08.01-.1.02-.16 0-.19-.01-.02-.04-.03-.08-.03-.09.07-.09.2-.07.3.02.11.17.24.24.25h.2c.07 0 .13.01.14.04.01.03 0 .06-.01.08-.04.06-.13.09-.29.1l-.03.01zm-.52-.22c.22 0 .28.06.34.11.05.04.09.08.18.08v.01l.03-.02c.18-.01.25-.05.27-.09 0-.08-.04-.08-.11-.08H27.23c-.09-.02-.24-.16-.26-.28-.01-.08-.02-.23.03-.3l.07-.02c.05 0 .08.01.1.04.03.04.02.1.01.15-.01.14.06.13.12.06.04-.05.06-.12.05-.2-.01-.08-.05-.15-.1-.18-.16 0-.44.16-.45.39 0 .16 0 .27-.12.28-.07 0-.15-.04-.22-.08s-.14-.08-.2-.08c-.08 0-.12.04-.14.07-.02.03-.03.06-.02.08.01.04.21.11.61.08h.02z" fill="#bd0030"/><path d="M27.74 23.27c-.02.2-.16.21-.14.28.02.08.07.11.1.31.02.1.14.14.3.13.13 0 .22-.18.3-.17.12.01.02.28.3.27.22 0 .28-.19.36-.2.08-.01.07.22.25.22s.26-.21.35-.21c.09.01.09.22.36.21.27-.02.48-.05.54-.11.06-.05.09-.23.18-.24.09-.01.23.17.35.17s.38-.31.46-.32c.08-.01.14.19.32.19.28-.01.31-.36.44-.38.23-.02.24-.12.25-.14.03-.07 0-.4-.06-.54-.02-.08-.32-.74-.45-.76-.14-.02-.1.18-.01.29.08.11.49.65.43.8-.06.15-.34-.07-.57-.07-.32 0-.51.64-.73.66-.1.01-.2-.08-.17-.15.06-.1.14-.34-.11-.3-.25.03-.5.15-.46.28.04.13.19.27.02.32-.16.05-.45.07-.58.02-.14-.05-.06-.36-.14-.36-.09 0-.1.37-.23.38-.13.01-.25-.04-.28-.15-.03-.1.05-.23-.04-.25-.09-.02-.18.41-.31.4-.13-.01-.14-.04-.22-.12-.08-.08.07-.37-.06-.4-.13-.03-.27.43-.36.42-.09-.01-.22-.01-.26-.1-.02-.05-.01-.33-.01-.44 0-.02-.13 0-.12.06" fill="#f4d02e"/><path d="M29.21 24.14c-.12 0-.16-.09-.19-.15-.02-.04-.04-.07-.06-.07-.03 0-.05.03-.08.06-.06.06-.13.14-.28.14-.18 0-.21-.11-.24-.19-.02-.06-.03-.08-.06-.09-.02.03-.07.03-.11.07-.05.05-.11.1-.19.1-.18 0-.3-.05-.32-.15-.02-.13-.05-.19-.07-.23-.01-.03-.03-.05-.03-.08-.01-.04.01-.06.04-.09.04-.04.09-.09.1-.2.03-.06.06-.07.09-.07l.06.04c-.01.15-.01.39.01.43.04.08.16.09.25.09.04 0 .09-.09.13-.17.07-.12.14-.25.22-.25.1.02.08.12.07.22-.01.07-.02.15.01.18.08.09.1.11.21.12.07 0 .12-.12.17-.22.05-.1.09-.18.13-.18.07.01.06.07.06.13 0 .04-.01.09 0 .13.02.08.12.14.24.14.1-.01.13-.11.16-.21.03-.09.05-.17.11-.17.05 0 .05.07.06.14.01.09.01.19.08.21.13.04.42.03.58-.02.04-.01.06-.03.06-.05.01-.04-.01-.09-.04-.15-.02-.04-.04-.08-.05-.12-.01-.03 0-.07.02-.1.07-.1.28-.18.46-.2.1-.01.15.02.17.06.04.08-.01.2-.05.27.03.1.09.13.14.13.11-.01.2-.14.3-.28.13-.18.27-.38.45-.38.09 0 .2.04.29.07.13.05.24.08.27 0 .05-.13-.27-.56-.39-.73l-.04-.06c-.06-.08-.1-.21-.06-.27.01-.02.03-.04.07-.04.16.02.46.69.48.77.05.15.08.48.05.55-.02.05-.05.13-.27.15-.04.01-.08.06-.12.13-.07.11-.15.25-.32.25-.11 0-.18-.07-.24-.13-.03-.03-.06-.06-.08-.06-.03 0-.11.07-.17.13-.1.09-.22.19-.29.19-.07 0-.14-.05-.2-.1-.05-.04-.1-.07-.14-.07-.05 0-.08.07-.11.13-.02.04-.04.09-.07.11-.07.06-.27.1-.55.11-.19 0-.25-.09-.29-.15-.02-.03-.04-.06-.07-.06-.03 0-.06.03-.1.07-.07.09-.14.17-.26.17m-.25-.25c.04 0 .06.04.08.08.03.06.07.14.17.14s.18-.07.23-.13c.04-.04.08-.08.11-.08.04 0 .06.03.09.07.04.06.1.14.25.14.3-.02.5-.06.56-.11.02-.02.04-.06.06-.1.03-.07.07-.14.13-.15.05.01.11.04.16.08.06.04.13.09.19.09.07 0 .18-.1.27-.18.09-.08.15-.13.19-.13.04 0 .07.03.11.07.05.06.11.12.22.12.16 0 .23-.13.3-.24.04-.07.08-.14.14-.15.2-.02.23-.09.24-.12.03-.08 0-.4-.05-.55-.03-.09-.32-.73-.45-.75-.09.08-.06.2 0 .27l.04.08c.22.3.43.62.39.75-.03.09-.15.06-.3.01-.09-.03-.19-.07-.28-.07-.17 0-.31.2-.43.37-.1.15-.2.28-.3.3-.08 0-.14-.03-.17-.08a.097.097 0 0 1-.01-.09c.04-.06.08-.18.05-.24-.02-.03-.05-.05-.1-.05-.25.03-.43.11-.48.19-.02.03-.02.05-.01.08.01.04.03.08.05.11.03.06.06.12.04.17-.01.03-.04.05-.08.06a1.2 1.2 0 0 1-.59.03c-.09-.03-.09-.14-.1-.24-.01-.15-.07-.1-.12.03-.03.1-.07.22-.15.22h-.01c-.16 0-.26-.06-.29-.16a.33.33 0 0 1 0-.14c.01-.07.01-.1-.03-.1-.03 0-.08.09-.11.16-.06.12-.11.24-.19.24-.13-.01-.15-.03-.2-.09-.07-.08-.06-.16-.05-.24.01-.11.02-.18-.04-.19-.07 0-.14.13-.2.24-.06.1-.1.19-.15.19-.1-.01-.24-.01-.28-.11-.03-.06-.01-.44-.01-.44l-.09.01c-.02.15-.07.2-.11.24-.03.03-.04.04-.04.06.01.03.02.05.03.07.02.05.05.11.07.24.01.08.1.13.25.13.11 0 .16-.05.21-.1.04-.04.08-.08.13-.08.06 0 .08.05.09.11.02.08.05.17.21.17.14 0 .21-.07.26-.13.04-.05.07-.08.1-.08" fill="#bd0030"/><path d="M32.25 22.06c.24.37.46.87.6.9.09.01-.28-.67-.41-.82-.1-.17-.4-.4-.19-.08" fill="#f4d02e"/><path d="M32.85 22.97c-.1-.02-.22-.23-.37-.5-.08-.14-.16-.28-.24-.41-.08-.12-.08-.15-.07-.17.07-.02.22.13.29.23.1.13.46.75.42.83l-.03.02zm-.66-1.06s0 .02.07.14c.08.13.17.27.24.41.14.24.26.46.35.48.02-.06-.29-.65-.42-.8-.07-.11-.21-.23-.24-.23" fill="#bd0030"/><path d="M27.72 22.96c-.04.09-.02.18.04.16.06-.01.14-.16.12-.19-.02-.03-.11-.05-.16.03" fill="#f4d02e"/><path d="M27.75 23.14l-.05-.02c-.02-.03-.02-.09.01-.16.08-.13.16-.07.18-.03-.02.12-.08.2-.13.21h-.01z" fill="#bd0030"/><path d="M32.97 22.22c0 .2.14.43.4.41.26-.01.55-.31.58-.61.02-.3-.35-.52-.44-.46-.09.06.03.29.27.3.1.01.07.2-.13.36-.21.16-.51.16-.58.05-.06-.14-.11-.14-.1-.05" fill="#f4d02e"/><path d="M33.35 22.65c-.1 0-.2-.04-.27-.11a.463.463 0 0 1-.13-.32l.01-.07c.07-.02.09.07.11.13.07.1.39.09.56-.05.15-.12.19-.25.17-.31-.21-.04-.32-.15-.35-.24-.01-.05 0-.09.03-.11.14-.01.25.05.33.14.09.1.14.21.13.32-.02.3-.31.6-.59.62zm-.36-.48c-.01.17.03.28.11.35.07.07.15.1.25.1v.01l.02-.01c.26-.01.54-.31.56-.59.01-.1-.04-.21-.12-.3-.09-.1-.2-.15-.26-.15-.07.03-.06.07-.06.09.02.07.12.19.29.19h.01l.05.05c.02.07-.03.21-.18.33-.19.15-.52.17-.6.05-.04-.1-.06-.12-.07-.12" fill="#bd0030"/><path d="M33.13 21.61c-.04.08.04.26.13.26.08-.01-.11-.31-.13-.26" fill="#f4d02e"/><path d="M33.13 21.62c-.02.04 0 .12.03.17.03.04.05.06.08.06v.01-.01c.02-.08-.08-.23-.11-.23" fill="#bd0030"/><path d="M33.9 21.47c.05.12.11.3.22.3s.2.03.2.12-.28.4-.29.5c-.02.17.11.17.17.07.06-.1.23-.55.27-.67.02-.1.14-.28.14-.47-.01-.22.19-.04.29-.03.09 0 .18-.16.2-.28.01-.12-.09-.14-.09-.24 0-.06.11-.25.12-.37.01-.11-.22-.43-.31-.43-.08 0-.01.12.03.17.05.05.16.15.12.25-.08.18-.44.23-.46.42-.02.14.02.57-.1.57s-.21-.27-.38-.27c-.2-.01-.17.27-.13.36" fill="#f4d02e"/><path d="M34.1 22.55l-.06-.03a.227.227 0 0 1-.03-.13c0-.05.07-.15.15-.26.07-.09.14-.2.14-.24 0-.07-.06-.11-.18-.11-.1 0-.16-.15-.21-.26-.05-.11-.07-.27-.01-.36.08-.13.28-.02.37.1.05.06.09.11.14.11.07 0 .07-.24.08-.4 0-.07 0-.13.01-.16.01-.11.12-.17.24-.24.09-.05.19-.1.22-.19.03-.07-.05-.16-.1-.21-.05-.05-.11-.14-.09-.18.09-.02.15.03.19.07.09.1.19.26.18.34 0 .07-.04.17-.07.25-.02.05-.04.1-.04.12 0 .05.02.07.04.1.03.03.06.07.05.14-.03.11-.12.29-.22.29-.03 0-.07-.02-.11-.04a.337.337 0 0 0-.12-.04c-.05.03-.05.05-.05.1 0 .12-.05.24-.09.34-.02.06-.04.1-.05.14-.03.12-.2.58-.27.68-.03.04-.07.07-.11.07m-.07-1.43c-.05 0-.09.02-.11.05-.05.08-.03.23 0 .3.07.16.12.29.21.29.17 0 .21.07.21.13 0 .05-.07.15-.14.26-.07.1-.14.2-.15.25-.01.06.01.09.02.11l.04.02c.03 0 .07-.03.09-.06.06-.09.23-.54.26-.67.01-.04.03-.09.05-.14.04-.09.09-.21.09-.33 0-.05.01-.08.02-.1.09-.02.14 0 .18.02.04.02.07.03.1.03.08 0 .17-.15.18-.26.01-.06-.02-.09-.04-.12s-.05-.07-.05-.12c0-.03.02-.07.04-.13.03-.08.07-.17.07-.24.01-.06-.07-.21-.17-.32-.05-.06-.1-.09-.13-.09-.04.04 0 .11.04.15.07.08.16.17.12.26-.04.09-.14.14-.24.2-.11.06-.21.12-.22.22 0 .04-.01.09-.01.16 0 .2-.01.42-.1.42-.06 0-.1-.05-.16-.12-.04-.09-.11-.17-.2-.17z" fill="#bd0030"/><path d="M34.19 19.82c0 .08.17.41.26.41.14 0-.06-.16-.05-.22.01-.06.21-.15.13-.17-.14-.03-.35-.12-.34-.02" fill="#f4d02e"/><path d="M34.45 20.25c-.11 0-.27-.35-.28-.43l.07-.06c.05 0 .14.03.22.05l.07.02c.03.05 0 .07-.04.1-.03.03-.07.06-.08.08 0 .02.02.06.05.09.03.05.06.09.05.12l-.06.03zm-.2-.46c-.04.1.12.44.21.44v.01l.03-.02c.01-.02-.02-.06-.05-.09-.03-.04-.06-.08-.05-.11.01-.03.05-.06.09-.09.02-.02.06-.04.06-.06l-.08-.03c-.08-.02-.16-.05-.21-.05" fill="#bd0030"/><path d="M34.18 19.39c.03.11.48.27.67.33.19.05.43.28.51.21.09-.07-.59-.34-.69-.38-.1-.04-.51-.27-.49-.16" fill="#f4d02e"/><path d="M35.31 19.95c-.06 0-.14-.05-.23-.1a.898.898 0 0 0-.24-.12c-.13-.04-.64-.21-.68-.33.01 0 .03-.01.04-.01.03.11.43.26.64.32.08.02.17.07.25.12.08.05.17.1.22.1v.01l.04-.02c-.01-.08-.46-.27-.68-.36-.02-.01-.07-.03-.12-.05-.1-.05-.22-.11-.3-.12.1 0 .22.06.31.1.05.02.09.04.11.05.01 0 .68.26.7.37l-.06.04z" fill="#bd0030"/><path d="M35.52 20.09c.17 0 .08-.33.03-.4-.04-.08-.1.15-.1.22.02.06.02.18.07.18" fill="#f4d02e"/><path d="M35.53 20.1c-.06 0-.07-.1-.08-.17-.01-.08.02-.22.06-.26l.03.03c-.04.04-.07.16-.06.2.01.08.02.17.05.18v.01-.01c.03 0 .05-.01.06-.03.04-.07 0-.23-.03-.32.06.1.1.25.05.33a.09.09 0 0 1-.08.04" fill="#bd0030"/><path d="M34.55 18.45c0 .07.46.02.68.08.09.02.41.2.47.15.07-.09-.43-.28-.71-.28-.1.01-.44-.04-.44.05" fill="#f4d02e"/><path d="M35.67 18.7c-.06 0-.19-.06-.3-.1-.06-.03-.11-.05-.14-.06-.1-.03-.25-.03-.38-.03-.2 0-.31-.01-.31-.06 0-.1.23-.07.35-.06h.09c.25 0 .68.15.73.25l-.04.06zm-.95-.29c-.14 0-.16.02-.16.04 0 .03.17.03.28.03.13 0 .28.01.38.03.03.01.08.03.14.06.1.05.23.1.29.1v.01l.02-.02c-.04-.11-.45-.25-.71-.25l-.09-.01c-.03.01-.09.01-.15.01" fill="#bd0030"/><path d="M34.43 18.66c-.08.09.28.19.6.2.32.01.53.2.5.35-.04.24-.45.08-.4.21.03.1.21.06.22.17.01.11.13.13.12-.01 0-.11.25-.28.24-.33a.633.633 0 0 0-.55-.49c-.37-.03-.62-.21-.73-.1" fill="#f4d02e"/><path d="M35.43 19.7c-.03 0-.07-.04-.08-.1-.01-.05-.06-.06-.1-.08-.05-.02-.11-.03-.12-.09.02-.07.07-.08.13-.08.11-.01.24-.01.26-.14.01-.04-.01-.09-.05-.14-.07-.09-.22-.18-.44-.19-.27-.01-.59-.08-.62-.17.09-.19.19-.09.36-.04.11.03.25.08.41.09.38.04.54.38.56.5 0 .03-.03.06-.09.13-.07.07-.15.15-.15.21 0 .05-.01.08-.02.09l-.05.01zm-.9-1.06c-.04 0-.07.01-.09.04.02.09.31.17.59.18.23.01.39.11.46.2.04.05.06.11.05.16-.03.15-.18.15-.29.16-.05 0-.1.01-.11.02.01.07.06.08.1.1.05.02.11.04.12.1.01.05.03.08.06.08v.01l.02-.02c.01-.01.02-.04.02-.07 0-.07.08-.15.16-.23.04-.04.09-.09.09-.1a.625.625 0 0 0-.54-.48c-.16-.02-.3-.06-.42-.09a.521.521 0 0 0-.22-.06M24.17 21c-.05-.03-.24.14-.17.17.13.08.25-.12.17-.17" fill="#bd0030"/><path d="M24.06 21.19l-.06-.01v-.03l.06.04c.06 0 .12-.06.13-.12.01-.03 0-.06-.02-.07-.03 0-.08.02-.12.06.03-.04.08-.06.11-.06.04.02.05.04.04.08-.02.05-.07.11-.14.11M24.57 20.81c-.09-.01-.13.18-.06.19.19.02.23-.17.06-.19" fill="#bd0030"/><path d="M24.54 21h-.03c-.03 0-.04-.03-.04-.07 0-.06.04-.12.09-.12.09.01.12.06.12.1-.01.04-.05.09-.14.09M34.17 21.34c-.04 0-.18.06-.13.15.04.09.18.09.24.04.05-.05.04-.19-.11-.19" fill="#bd0030"/><path d="M34.17 21.57a.16.16 0 0 1-.14-.08c-.01-.03-.01-.06 0-.08.03-.05.1-.07.13-.07.06 0 .11.03.13.08.02.04.01.09-.02.12-.02.02-.06.03-.1.03m0-.23c-.03 0-.1.03-.13.07-.02.03-.02.05 0 .08.04.08.17.09.23.04.03-.03.04-.07.02-.11 0-.03-.04-.08-.12-.08M34.69 20.94c.01.1.09.08.15.06.07-.03.09-.12.02-.15-.07-.03-.18.02-.17.09" fill="#bd0030"/><path d="M34.76 21.02c-.04 0-.07-.03-.08-.08.01-.01.01-.03.02-.04-.01.15.08.11.13.09.03-.01.06-.05.06-.08 0-.02 0-.03-.01-.04.01.01.02.03.02.04 0 .04-.03.07-.06.09-.02.01-.05.02-.08.02M31.67 23.3c-.09.2-.01.39.13.36.14-.04.29-.31.18-.4-.1-.09-.25-.09-.31.04" fill="#bd0030"/><path d="M31.77 23.66a.11.11 0 0 1-.1-.06c-.05-.07-.04-.19 0-.3.06-.12.2-.14.32-.05.03.03.04.08.03.14-.02.1-.11.23-.21.26l-.04.01zm.06-.46c-.07 0-.12.04-.15.1-.05.11-.05.23 0 .3.03.04.06.06.1.06l.04-.01c.1-.03.19-.16.21-.26.01-.06 0-.11-.03-.14a.406.406 0 0 0-.17-.05M19.58 15.06c-.33-.03-1.09-.18-1.13-.03-.03.15.41 1.93.64 2.16.23.23 1.29.72 1.4.65.11-.06-.21-1.17-.33-1.37-.12-.2-.49-.91-.46-.94.03-.03-.14-.47-.12-.47" fill="#bd0030"/><path d="M18.91 15c.08-.43.58.09.53.64-.02.19.08.4.18.5L18.91 15z" fill="#bd0030"/><path d="M19.56 16.2c-.12-.12-.24-.36-.21-.57.03-.37-.2-.69-.31-.7-.02 0-.05.07-.05.09l-.17-.03c.05-.24.2-.23.24-.23.23.03.49.46.46.89-.02.16.07.34.16.43l-.12.12z"/><path d="M19.34 15.02l-.02.02c.25-.42.49.18.53.87l-.51-.89z" fill="#bd0030"/><path d="M19.76 15.92c-.03-.54-.18-.91-.27-.93-.02-.01-.05.02-.09.08l-.02.03-.14-.1c.11-.18.22-.2.29-.18.27.07.38.72.4 1.09l-.17.01z"/><path d="M18.48 14.95c-.02-.35.55-.45.51.81.25.16.53.76.55.98.18.04.49.27.57.46l-1.63-2.25z" fill="#bd0030"/><path d="M20.02 17.23c-.06-.16-.35-.37-.5-.4l-.06-.02v-.06c-.01-.2-.3-.78-.51-.91l-.05-.04v-.05c.02-.75-.18-.91-.22-.93-.03-.02-.05-.02-.07-.01-.03.02-.06.07-.05.13l-.17.01c0-.12.05-.23.14-.28.08-.05.17-.04.25 0 .12.07.31.3.3 1.04.24.19.49.69.54.96.21.07.49.29.57.49l-.17.07z"/><path d="M19.86 21.88c.03-.95.04-2.99-.06-3.21-.18-.41-1.06-.89-1.33-1.53-.27-.68-.5-2.24-.39-2.42.14-.27.62.33.49.99.58.68.46 1.08.56 1.17.36.27.9.46.99.71.2.44-.04-.62-.2-.84-.16-.22-.43-.69-.25-.81.19-.12.52.19.56.27.04.09.49.58.62.69.23.17.81.56.8.89 0 .54.05 4.06.05 4.06l-1.84.03z" fill="#bd0030"/><path d="M19.94 21.89h-.17c.03-1.21.03-3-.05-3.18-.07-.17-.29-.36-.51-.56-.31-.28-.66-.59-.82-.97-.25-.63-.53-2.26-.38-2.5.05-.09.14-.13.24-.1.23.08.5.58.41 1.11.39.47.46.82.49 1.01.01.05.02.11.03.12.13.1.29.19.44.28.17.09.32.18.43.27-.06-.21-.14-.48-.2-.56-.04-.05-.37-.52-.32-.78.01-.06.05-.11.1-.15.05-.03.13-.06.25-.02.19.05.4.25.44.33.04.07.46.54.6.67l.08.04c.29.21.77.56.76.9 0 .53.05 4.06.05 4.06h-.17s-.05-3.53-.05-4.06c.01-.26-.46-.6-.68-.76l-.08-.06c-.13-.11-.59-.62-.64-.72a.775.775 0 0 0-.33-.24.202.202 0 0 0-.11 0c-.04.16.11.46.27.68.11.15.34.91.28 1.03l-.03.05h-.06c-.07 0-.1-.06-.14-.16-.05-.13-.28-.26-.5-.38-.16-.09-.32-.18-.46-.29-.06-.05-.07-.12-.09-.22-.04-.19-.1-.51-.48-.96l-.03-.03.01-.04c.1-.49-.16-.91-.29-.96-.11.17.07 1.65.36 2.37.14.34.48.64.77.91.25.22.47.42.55.62.09.27.05 2.63.03 3.25"/><path d="M19.75 23.14v.39c.17.2.86.22 1.02.22.15-.01.8.01.96-.24 0-.01.01-.33.01-.41l-1.99.04z" fill="#bd0030"/><path d="M20.78 23.84c-.2 0-.91-.02-1.1-.25l-.02-.45h.17v.39c.09.08.61.13.93.14.53-.01.81-.08.88-.2-.01 0 0-.29 0-.37h.17c0 .12 0 .42-.02.45-.15.25-.6.29-.98.29h-.03z"/><path d="M19.72 22.57c-.19.04-.24.28-.11.45.11.14.57.3 1.09.31.52.01 1.22-.17 1.25-.46.01-.29-.26-.27-.23-.26l-2-.04z" fill="#bd0030"/><path d="M20.75 23.42h-.05c-.5-.01-1.01-.16-1.16-.34a.383.383 0 0 1-.07-.38c.04-.1.12-.18.23-.2l.04.17c-.07.01-.09.06-.11.09-.02.07 0 .15.05.22.09.11.52.27 1.02.28.54-.01 1.14-.18 1.16-.38 0-.06-.01-.1-.04-.13a.122.122 0 0 0-.09-.04l-.01-.08-.03.08-.06-.1.11-.06.02-.01c.13.02.28.12.27.35-.03.35-.75.53-1.28.53"/><path d="M19.72 22.04c-.19.04-.23.28-.09.46.11.14.57.33 1.1.34.52.01 1.18-.2 1.22-.49.01-.29-.19-.26-.2-.26l-2.03-.05z" fill="#bd0030"/><path d="M20.76 22.93h-.04c-.53-.01-1.03-.2-1.16-.38a.452.452 0 0 1-.08-.4c.04-.1.12-.17.22-.2l.04.17c-.05.01-.08.04-.1.09-.03.07 0 .16.05.23.08.1.5.3 1.03.31.54.01 1.11-.2 1.13-.42 0-.07-.01-.12-.04-.15l-.12-.18c.04-.02.13-.02.2.03.06.04.13.13.12.31-.02.38-.74.59-1.25.59"/><path d="M20.81 22.34c.69.01 1.14-.33 1.14-.51s-.22-.19-.36-.14c-.14.05-.35.19-.8.19-.46.01-.87-.32-1-.31-.14.01-.25.16-.2.32.04.16.53.47 1.22.45" fill="#bd0030"/><path d="M20.74 22.43c-.65 0-1.17-.3-1.24-.51a.352.352 0 0 1 .05-.3c.06-.08.14-.13.23-.14.1.03.17.04.29.1.18.09.43.21.69.21.38 0 .58-.09.72-.15l.08-.04c.22-.08.48.01.48.22 0 .24-.48.6-1.2.6h-.1zm-.95-.78c-.04 0-.08.03-.1.06a.16.16 0 0 0-.02.15c.03.09.43.39 1.08.39v.09l.07-.09c.7 0 1.06-.32 1.06-.43 0-.02 0-.08-.12-.08-.04 0-.08.01-.12.02l-.08.03c-.15.07-.37.16-.76.17-.33 0-.6-.13-.79-.23-.1-.03-.19-.08-.22-.08"/><path d="M39.35 15.06c.33-.03 1.09-.18 1.13-.03.03.15-.41 1.93-.64 2.16-.23.23-1.29.72-1.4.65-.11-.06.21-1.17.33-1.37.12-.2.49-.91.46-.94-.04-.03.13-.47.12-.47" fill="#bd0030"/><path d="M40.02 15c-.08-.43-.58.09-.53.64.02.19-.08.4-.18.5l.71-1.14z" fill="#bd0030"/><path d="M39.36 16.2l-.12-.12c.09-.09.18-.27.16-.43-.04-.44.22-.86.46-.9.04-.01.2-.01.24.23l-.17.03c0-.02-.01-.09-.05-.09-.11.01-.34.33-.31.71.03.21-.08.45-.21.57"/><path d="M39.59 15.02l.02.02c-.25-.42-.49.18-.53.87l.51-.89z" fill="#bd0030"/><path d="M39.16 15.92l-.17-.01c.02-.37.13-1.02.4-1.09.07-.02.18 0 .29.18l-.14.09.02-.02-.03.02c-.04-.07-.08-.11-.1-.1-.09.02-.24.39-.27.93"/><path d="M40.45 14.95c.01-.35-.55-.45-.51.81-.25.16-.53.76-.55.98-.18.04-.49.27-.56.46l1.62-2.25z" fill="#bd0030"/><path d="M38.9 17.23l-.16-.06c.08-.2.36-.42.57-.49.05-.26.3-.77.54-.96-.01-.74.18-.97.3-1.04.08-.05.17-.05.25 0 .09.05.14.16.14.28l-.17-.01c0-.06-.02-.11-.05-.13a.062.062 0 0 0-.07.01c-.06.02-.25.17-.23.93v.05l-.04.03c-.21.14-.49.71-.51.91v.06l-.06.02c-.16.03-.45.24-.51.4"/><path d="M39.07 21.88c-.03-.95-.04-2.99.06-3.21.18-.41 1.06-.89 1.33-1.53.27-.68.5-2.24.39-2.42-.14-.27-.62.33-.49.99-.58.68-.46 1.08-.56 1.17-.36.27-.9.46-.99.71-.2.44.04-.62.2-.84.16-.22.43-.69.25-.81-.19-.12-.52.19-.56.27-.04.09-.49.58-.62.69-.23.17-.81.56-.8.89 0 .54-.05 4.06-.05 4.06l1.84.03z" fill="#bd0030"/><path d="M38.98 21.89c-.02-.62-.06-2.98.06-3.25.09-.2.3-.39.55-.62.29-.27.63-.57.77-.91.28-.72.47-2.2.39-2.35-.17.03-.43.45-.33.94l.01.04-.03.03c-.38.45-.44.77-.48.96-.02.1-.03.18-.09.22-.14.11-.31.2-.47.29-.22.13-.45.26-.5.38-.04.09-.08.16-.14.16h-.05l-.03-.05c-.06-.12.17-.88.28-1.03.16-.22.32-.52.29-.65-.04-.05-.08-.05-.12-.03-.15.04-.31.2-.33.24-.05.11-.52.61-.64.72l-.09.06c-.22.17-.69.51-.68.76 0 .54-.05 4.07-.05 4.07h-.17s.05-3.53.05-4.06c-.01-.34.47-.69.76-.9l.08-.06c.13-.12.56-.59.6-.66.04-.08.24-.28.44-.33.12-.03.2-.01.25.02.05.03.09.08.1.15.05.27-.28.73-.32.79-.06.09-.15.35-.2.56.11-.09.26-.18.43-.27.15-.09.31-.18.44-.28.01-.01.02-.07.03-.12.04-.19.1-.54.49-1.01-.09-.53.18-1.03.41-1.11.1-.03.19 0 .25.1.14.24-.14 1.86-.39 2.49-.16.38-.51.69-.82.97-.23.2-.44.4-.51.56-.08.18-.09 1.97-.05 3.18h-.19z"/><path d="M39.18 23.14v.39c-.17.2-.86.22-1.02.22-.15-.01-.8.01-.96-.24 0-.01-.01-.33-.01-.41l1.99.04z" fill="#bd0030"/><path d="M38.17 23.84c-.44-.01-.89-.05-1.04-.28-.02-.04-.02-.33-.02-.46h.17c0 .08 0 .37.01.4.06.09.35.16.82.17.39-.01.89-.06 1-.19l-.02-.33h.17v.39c-.22.29-.97.3-1.09.3"/><path d="M39.21 22.57c.19.04.24.28.11.45-.11.14-.57.3-1.09.31-.52.01-1.22-.17-1.25-.46-.01-.29.26-.27.23-.26l2-.04z" fill="#bd0030"/><path d="M38.18 23.42c-.53 0-1.25-.18-1.29-.54-.01-.24.14-.34.26-.36l.08-.01.08.15-.08.03-.03-.08-.01.08c-.02-.01-.05.01-.09.04-.03.03-.04.08-.04.14.02.19.61.37 1.16.38.51-.01.94-.17 1.02-.28a.26.26 0 0 0 .05-.22.133.133 0 0 0-.11-.09l.04-.17c.11.03.19.1.23.2.04.12.01.27-.08.38-.14.18-.65.33-1.15.34-.01.01-.03.01-.04.01"/><path d="M39.21 22.04c.19.04.23.28.09.46-.11.14-.57.33-1.1.34-.52.01-1.18-.2-1.22-.49-.01-.29.19-.26.2-.26l2.03-.05z" fill="#bd0030"/><path d="M38.17 22.93c-.52 0-1.23-.21-1.27-.57-.01-.19.06-.28.12-.32.07-.05.17-.05.2-.03l-.07.16c-.07.05-.08.1-.08.18.02.2.6.4 1.13.41.53-.01.95-.21 1.03-.31.06-.07.08-.16.05-.23-.02-.05-.05-.07-.1-.09l.04-.17c.1.02.19.1.22.2.04.13.01.28-.08.4-.14.17-.64.36-1.16.38-.01-.01-.02-.01-.03-.01"/><path d="M38.12 22.34c-.69.01-1.14-.33-1.14-.51s.22-.19.36-.14c.14.05.35.19.8.19.46.01.87-.32 1-.31.14.01.25.16.2.32-.05.16-.54.47-1.22.45" fill="#bd0030"/><path d="M38.18 22.42h-.07c-.34 0-.64-.07-.88-.2-.22-.12-.35-.27-.35-.4 0-.21.26-.3.48-.22l.08.04c.13.06.33.15.69.15.29 0 .54-.12.72-.21.12-.06.21-.1.28-.1.1.01.19.06.24.14.06.09.08.19.05.29-.07.21-.59.51-1.24.51m-1-.68c-.13 0-.13.06-.13.08 0 .04.06.14.26.25.21.11.48.18.77.18h.1c.65 0 1.05-.3 1.08-.39.01-.05 0-.1-.03-.14a.11.11 0 0 0-.1-.06c-.03 0-.12.05-.2.08-.2.1-.46.23-.77.23-.42 0-.64-.1-.79-.17l-.07-.03a.213.213 0 0 0-.12-.03"/></svg>