<svg xmlns="http://www.w3.org/2000/svg" viewBox="0 0 58.92 34.37"><path fill="#e4b03a" d="M0 0h58.92v34.37H0z"/><path fill="#d03633" d="M58.92 0L0 34.37h58.92z"/><path d="M31.28 10.75c-.29-.1-.47.05-.46.42.01.37.2.58.49.44l-.03-.86z" fill="#fff"/><path d="M31.14 11.66c-.2 0-.33-.2-.33-.5-.01-.17.03-.3.11-.38.08-.09.21-.1.37-.05l.04.87a.32.32 0 0 1-.19.06m-.02-.93c-.08 0-.14.02-.18.07-.07.07-.1.2-.1.36.01.37.21.56.47.43l-.04-.84c-.05-.01-.1-.02-.15-.02"/><path d="M31.53 10.06c-.24-.19-.46-.11-.57.25-.11.35.01.61.32.58l.25-.83z" fill="#fff"/><path d="M31.22 10.9a.31.31 0 0 1-.25-.11c-.08-.11-.09-.28-.03-.48.11-.35.35-.45.59-.25l-.25.85-.06-.01zm.07-.93c-.14 0-.25.12-.32.33-.06.19-.05.36.02.46.05.07.13.1.23.1v.01l.06-.02.24-.81a.55.55 0 0 0-.23-.07"/><path d="M31.93 9.39c-.21-.22-.44-.18-.6.15-.16.33-.09.61.23.62l.37-.77z" fill="#fff"/><path d="M31.56 10.17c-.14-.01-.24-.06-.29-.14-.07-.12-.06-.3.04-.5.16-.33.41-.39.63-.16l-.38.8zm.11-.91c-.12 0-.24.1-.33.28-.1.19-.11.36-.05.47.05.08.13.12.25.13l.38-.76c-.08-.07-.17-.12-.25-.12"/><path d="M31.67 12.64c-.35.13-.39.61-.17.9s.63.35.85 0l-.68-.9z" fill="#fff"/><path d="M31.95 13.8c-.17 0-.34-.09-.46-.25a.702.702 0 0 1-.11-.61c.04-.15.15-.27.29-.32l.7.91c-.11.18-.26.27-.42.27m-.29-1.15c-.12.05-.21.16-.25.3a.67.67 0 0 0 .11.58c.11.15.27.24.43.24.16 0 .3-.08.39-.24l-.68-.88z"/><path d="M31.26 11.62c-.33-.11-.63.34-.68.74-.06.51-.78.67-.39 1.44.08-.49.41-.76.66-.78.26-.02.64-.07.81-.39l-.4-1.01z" fill="#fff"/><path d="M30.2 13.84l-.02-.04c-.26-.49-.05-.74.14-.99.11-.14.22-.28.25-.46.05-.42.38-.86.7-.75l.41 1.02c-.17.32-.55.39-.82.41-.26.02-.57.29-.65.76l-.01.05zm.96-2.22c-.28 0-.52.38-.56.74-.02.19-.14.33-.25.47-.19.24-.37.47-.16.92.09-.46.4-.73.67-.74.27-.02.64-.08.8-.38l-.4-1c-.04 0-.07-.01-.1-.01"/><path d="M32.31 13.59c-.39.09-.44.61-.17.98.23.32.98.24.96-.07l-.79-.91z" fill="#fff"/><path d="M32.65 14.79c-.22 0-.41-.08-.51-.21-.16-.22-.22-.5-.14-.71.05-.15.17-.25.32-.29l.81.91c.01.06-.01.12-.05.16-.1.09-.26.14-.43.14m-.35-1.19a.42.42 0 0 0-.28.27c-.08.21-.02.48.14.69.09.12.27.2.49.2.17 0 .32-.05.39-.13.04-.04.05-.08.05-.13l-.79-.9z"/><path d="M33.41 16.7c.02-.33-.52-.46-.77-.4-.26.07-.75-.01-.87-.29-.09.22.04.46.41.58.28.09.28.3.2.39.21.05.84.05 1.03-.28" fill="#fff"/><path d="M32.61 17.02c-.1 0-.18-.01-.23-.02.03-.06.05-.12.03-.2-.02-.06-.07-.14-.23-.19-.21-.07-.36-.18-.42-.31a.365.365 0 0 1 0-.29c.14.26.62.34.88.28.19-.05.54 0 .71.18.06.07.09.14.09.23-.18.29-.64.32-.83.32m-.85-.99c-.01.09-.01.18.03.27.06.13.2.23.4.3.17.06.23.15.25.21.02.07 0 .15-.05.2.05-.01.13-.01.22-.01.14 0 .63-.02.79-.3a.27.27 0 0 0-.08-.2c-.16-.17-.5-.22-.68-.17-.27.06-.77-.02-.88-.3"/><path d="M33.11 14.58c-.38-.16-.6.09-.75.33-.21.36-.87-.1-1.09.38.3-.13.6.15.75.24.41.27 1.19.18 1.3-.44l-.21-.51z" fill="#fff"/><path d="M32.54 15.69a.94.94 0 0 1-.53-.15l-.07-.05c-.16-.11-.43-.29-.66-.19.1-.3.37-.27.59-.26.19.01.38.03.48-.14.13-.22.39-.5.77-.34l.22.51c-.08.46-.48.62-.8.62m-1.1-.45c.2 0 .4.14.52.23l.07.05c.14.09.32.14.51.14.31 0 .69-.15.77-.58l-.21-.5a.585.585 0 0 0-.22-.05c-.25 0-.41.22-.5.38-.11.19-.32.16-.51.15-.22-.01-.46-.04-.58.22.03-.02.09-.04.15-.04"/><path d="M33.33 15.03c-.38.29-.53.63-.52.86.01.23.33.74.68.77.21-.43.31-1.3-.16-1.63" fill="#fff"/><path d="M33.5 16.66h-.01c-.36-.03-.69-.54-.7-.78-.01-.22.12-.57.52-.87.5.34.39 1.23.19 1.64v.01zm-.18-1.62c-.37.29-.5.64-.49.85.01.22.33.71.66.75.19-.41.29-1.27-.17-1.6"/><path d="M31.76 16.81c0-.14.2-.19.34-.15.14.05.35.18.28.33l-.62-.18z" fill="#fff"/><path d="M32.39 17.01l-.63-.19c-.01-.17.21-.22.35-.18.11.04.25.12.29.22.02.04.02.09 0 .13l-.01.02zm-.39-.35c-.11 0-.22.05-.22.15l.6.17c.01-.03.01-.06 0-.09-.04-.09-.16-.17-.27-.2-.04-.03-.08-.03-.11-.03"/><path d="M29.68 16.05c-.04-.17.23-.45.59-.3.36.16.4.46.26.58l-.85-.28z" fill="#fff"/><path d="M30.53 16.35l-.86-.29c-.02-.07 0-.15.05-.21.12-.15.34-.2.55-.11.19.08.32.22.34.38.02.09-.01.17-.08.23zm-.47-.63c-.12 0-.24.06-.31.15-.05.06-.07.13-.06.18l.83.27c.05-.05.08-.12.06-.2-.02-.14-.14-.28-.32-.35a.492.492 0 0 0-.2-.05"/><path d="M30.55 16.35c-.03-.09.23-.27.67-.17.44.11.55.39.53.62l-1.2-.45z" fill="#fff"/><path d="M31.77 16.83l-1.24-.47.03-.08c.07-.09.34-.19.67-.11.52.13.56.49.55.63l-.01.03zm-.81-.66c-.2 0-.33.06-.38.13l1.17.49c0-.15-.05-.46-.53-.58a.824.824 0 0 0-.26-.04"/><path d="M29.63 16.05c.23-.18.14-.51-.06-.61-.38-.19-.24-.66-.48-.76-.24-.09-.47-.26-.48-.42-.12.23-.05.44.12.59.16.15-.13.75.08.9l.82.3z" fill="#fff"/><path d="M29.63 16.07l-.83-.3c-.12-.09-.09-.3-.06-.5.03-.17.05-.34-.02-.4-.19-.17-.24-.39-.12-.61.04.17.28.33.5.42.11.05.15.17.18.31.04.16.09.35.3.45.11.05.2.18.21.31 0 .12-.05.23-.16.32zm-1.04-1.81c-.08.21-.04.42.14.58.08.07.06.25.03.43-.03.19-.06.4.05.47l.81.29c.09-.07.13-.18.12-.29a.374.374 0 0 0-.19-.29c-.22-.11-.27-.3-.31-.47-.04-.13-.07-.24-.17-.28-.23-.09-.47-.26-.48-.44"/><path d="M24.69 15.92c-.19-.3-.65-.25-.85-.04-.19.21-.17.52.02.66l.83-.62z" fill="#fff"/><path d="M23.86 16.57a.394.394 0 0 1-.16-.3.48.48 0 0 1 .13-.39c.21-.23.7-.23.87.04l-.84.65zm.41-.85c-.17 0-.33.07-.42.17-.09.1-.14.24-.13.37.01.11.06.2.14.27l.82-.62a.514.514 0 0 0-.41-.19"/><path d="M25.79 15.47c-.07-.4-.56-.45-.83-.35-.27.1-.45.51-.28.8l1.11-.45z" fill="#fff"/><path d="M24.68 15.94l-.01-.01a.586.586 0 0 1-.04-.47c.06-.17.18-.3.32-.35.28-.1.77-.06.85.36l-1.12.47zm.55-.85c-.09 0-.19.02-.26.05a.54.54 0 0 0-.3.34.53.53 0 0 0 .03.43l1.09-.45c-.08-.35-.45-.37-.56-.37"/><path d="M26.53 15.41c.17-.34-.17-.85-.55-.92-.32-.06-.71-.06-.83-.38-.08.28.13.45.37.61.24.16-.05.56.34.79l.67-.1z" fill="#fff"/><path d="M25.86 15.53c-.23-.14-.23-.32-.24-.49 0-.13-.01-.24-.11-.3-.23-.15-.46-.33-.38-.62.13.26.41.3.68.34l.17.03c.21.04.43.21.54.44.09.18.1.36.02.5l-.68.1zm-.73-1.41c-.05.27.17.45.39.59.11.07.12.2.12.33.01.17.01.34.22.46l.67-.1c.06-.13.05-.29-.04-.47-.11-.22-.31-.39-.52-.43l-.16-.03c-.28-.04-.57-.08-.68-.35"/><path d="M26.49 15.43c-.08-.25.08-.57.41-.55.33.02.52.26.38.57l-.79-.02z" fill="#fff"/><path d="M27.29 15.46l-.8-.02c-.06-.14-.03-.3.05-.41a.39.39 0 0 1 .33-.17c.21.01.35.09.42.21.07.11.07.24 0 .39zm-.39-.57c-.16 0-.26.06-.33.15-.08.11-.1.25-.06.38l.77.01c.06-.13.06-.25 0-.34-.07-.12-.2-.19-.38-.2z"/><path d="M27.23 15.44c-.05-.25.16-.55.49-.48.32.07.48.33.29.61l-.78-.13z" fill="#fff"/><path d="M28.02 15.59l-.79-.13c-.04-.14 0-.27.09-.38.1-.12.25-.17.41-.14.18.04.31.13.36.26.04.12.02.25-.07.39zm-.39-.63c-.11 0-.21.05-.29.14-.08.09-.11.22-.09.34l.75.12c.08-.11.09-.24.05-.34-.05-.12-.17-.21-.34-.24a.188.188 0 0 0-.08-.02"/><path d="M27.97 15.56c-.03-.25.19-.54.51-.46.32.09.46.36.26.63l-.77-.17z" fill="#fff"/><path d="M28.74 15.74l-.78-.17c-.03-.14.01-.27.1-.36.1-.12.26-.17.42-.12.17.05.3.15.35.28.03.11.01.24-.09.37zm-.38-.64c-.11 0-.21.05-.28.13a.4.4 0 0 0-.1.33l.75.15c.08-.11.1-.23.07-.34-.04-.12-.16-.22-.33-.26-.04-.01-.07-.01-.11-.01"/><path d="M22.4 19.78c-.62 0-.77.15-.86.78-.11.8.97.89.86-.78" fill="#fff"/><path d="M21.87 21.13c-.09 0-.17-.04-.24-.11-.09-.11-.13-.27-.1-.46.09-.65.25-.8.87-.8.06.77-.13 1.1-.25 1.22-.08.1-.18.15-.28.15m.51-1.34c-.59.01-.74.15-.83.79-.03.18.01.33.1.43.06.06.13.1.21.1.09 0 .18-.05.26-.13.13-.13.31-.45.26-1.19"/><path d="M22.68 18.95c-.95-.36-1.47 1.14-2.41.88.34.53 1.15 0 1.46.06.51.09 1.63-.11.95-.94" fill="#fff"/><path d="M20.74 20.09c-.22 0-.38-.08-.48-.25.09 0 .16.01.24.01.35 0 .65-.24.94-.48.37-.3.79-.6 1.25-.43.21.25.27.46.19.63-.12.26-.55.35-.88.35-.1 0-.19-.01-.26-.02-.12-.01-.27.04-.41.07-.2.06-.4.12-.59.12m-.47-.25c.11.14.26.21.47.21.18 0 .38-.06.56-.11.15-.04.28-.08.38-.08.13.02.22.03.31.03.32 0 .74-.09.86-.33.07-.16.01-.36-.18-.6-.42-.15-.84.13-1.21.43-.36.29-.75.58-1.19.45"/><path d="M22.06 21.01c-.47-.21-.98.51-.88.82.11.4 1.18.08.88-.82" fill="#fff"/><path d="M21.45 22.01c-.15 0-.26-.07-.29-.18-.04-.14.03-.35.17-.54.21-.28.5-.4.73-.29.13.35.03.59-.06.72-.14.2-.38.29-.55.29m.43-1.02c-.18 0-.38.12-.53.32-.14.18-.2.39-.17.52.03.1.13.16.26.16.16 0 .39-.09.53-.28.09-.13.18-.36.07-.69a.38.38 0 0 0-.16-.03"/><path d="M19.86 24.11c.26.07.57.22.52.72-.06.5-1 1.51-1.85 1.57-.85.06-1.15 1.08-1.88.79.68-.13.68-.9 1.22-1.14-.39-.14-.59.74-1.09.74s-.74.79-1.35.74c-.61-.06-.67.97-1.89.98-.93.01-2.08 1.1-2.5.63.9-.13 1.27-.63 1.81-1.18.87-.89 1.85-.49 2.18-1.27-.4.27-.86.4-1.31.39-.57-.01-1.19.9-1.83.5.37-.05.61-.2 1-.61.4-.42.98-.15 1.44-.57.72-.67 1.34-.11 2.03-.94-.19-.09-.61-.03-.99.18-.39.2-.89-.14-1.33.1.06-.54 1.09-.23 1.73-.61.73-.42 1.33-.3 1.91-.25-.8 0-1.12-.76-2.22-.54-.48.1-.87-.66-1.35-.28.01-.29.52-.52 1.03-.24.52.28.72-.24 1.75.41.42.27 1.15-.17 1.62.12-.06-.18-.33-.29-.63-.26.19-.43 1.44-.38 1.98.02" fill="#fff"/><path d="M11.33 29.26c-.13 0-.22-.04-.3-.12.79-.14 1.17-.54 1.61-1l.2-.2c.43-.44.88-.56 1.27-.67.41-.11.73-.2.9-.6-.36.27-.8.41-1.25.41-.27 0-.5.14-.74.29-.37.23-.78.43-1.13.21.36-.07.6-.22.99-.63.2-.21.45-.25.71-.29.25-.04.51-.08.73-.29.34-.31.66-.36.97-.4.36-.05.69-.1 1.06-.54-.17-.01-.61.01-.98.2-.16.08-.39.07-.62.04-.26-.04-.52-.04-.7.06.01-.33.37-.37.78-.41.31-.03.66-.06.94-.22.47-.27 1-.34 1.53-.29-.17-.06-.32-.13-.46-.21-.36-.19-.73-.39-1.37-.27-.21.04-.41-.08-.6-.19-.26-.16-.51-.28-.74-.09-.02-.34.58-.51 1.03-.26.17.09.34.09.53.07.25-.03.53-.1 1.22.33.17.11.46.09.77.05.33-.04.64-.06.85.07-.07-.14-.29-.24-.56-.24h-.08c.07-.2.37-.3.78-.3.46 0 .94.13 1.21.33.27.08.58.23.52.73-.06.53-1.02 1.53-1.86 1.58-.39.03-.65.25-.91.47-.3.25-.6.47-.97.32.38-.1.54-.37.71-.63.13-.2.26-.42.49-.53-.02.01-.03 0-.05 0-.15 0-.28.16-.41.33-.16.2-.34.43-.6.43-.23 0-.4.17-.58.34-.2.19-.41.4-.71.4l-.11-.01c-.22 0-.38.16-.55.35-.26.28-.58.62-1.29.63-.41 0-.88.22-1.29.42-.36.17-.69.33-.94.33m3.69-2.6c-.15.42-.5.52-.9.63-.39.11-.84.23-1.26.67l-.2.2c-.44.47-.83.87-1.62.98.08.05.16.09.28.09.24 0 .57-.16.91-.32.41-.2.88-.42 1.3-.42.69-.01 1.01-.35 1.27-.62.18-.19.34-.36.57-.36l.11.02v-.01c.29 0 .49-.2.68-.39.19-.18.36-.35.6-.35s.41-.21.57-.42c.16-.2.32-.39.52-.32-.23.13-.36.34-.5.56-.17.27-.34.54-.72.62.09.01.17.02.25.02.26 0 .47-.18.7-.37.25-.21.53-.45.93-.47.83-.05 1.77-1.04 1.83-1.56.05-.48-.24-.63-.51-.7-.27-.2-.74-.32-1.2-.32-.4 0-.69.1-.77.26l.07-.02c.28 0 .51.11.56.28-.23-.09-.53-.09-.85-.04-.31.04-.61.06-.79-.06-.68-.43-.96-.35-1.2-.33-.2.02-.38.02-.55-.08-.43-.23-1-.07-1.01.23.19-.23.5-.08.75.07.18.11.37.23.58.19.65-.13 1.02.07 1.38.27.2.11.39.21.62.25l.22.02c-.08.03-.16.02-.23.01-.17-.02-.35-.03-.53-.03-.42 0-.79.1-1.14.3-.28.16-.64.2-.95.23-.42.04-.75.07-.78.37.16-.13.44-.11.7-.08.23.03.45.04.6-.04.37-.19.81-.27 1.01-.18-.37.47-.73.52-1.07.57-.3.04-.62.09-.95.4-.23.21-.49.25-.75.29-.25.04-.49.07-.69.28-.4.42-.64.57-1 .61.11.04.22.07.34.07.26 0 .51-.16.76-.31.24-.15.48-.29.7-.29.56-.01.99-.15 1.36-.4"/><path d="M20.69 23.51c-.41-.31-.97.07-1.36-.08 0 .26.13.65.55.79.13-.09.71-.6.81-.71" fill="#fff"/><path d="M19.88 24.24a.853.853 0 0 1-.57-.81c.19.03.37.02.58-.02.3-.05.6-.06.8.09-.09.13-.68.64-.81.74zm-.56-.8c.02.26.16.62.56.77.13-.1.7-.59.79-.7-.19-.11-.49-.11-.78-.06-.21.02-.42.05-.57-.01"/><path d="M21.32 22.62c-.64-.32-.75.48-1.24.31.02.23.2.52.61.58l.63-.89z" fill="#fff"/><path d="M20.69 23.52c-.41-.06-.61-.34-.63-.59.06 0 .11.01.15.01.15 0 .26-.09.38-.19.19-.16.42-.3.74-.14l-.64.91zm-.62-.58c.04.22.23.49.61.55l.63-.89a.69.69 0 0 0-.7.16c-.15.13-.32.26-.54.18"/><path d="M21.7 21.89c-.94-.37-1.06.54-1.61.36.13.31.92.48 1.33.37l.28-.73z" fill="#fff"/><path d="M21.12 22.66c-.42 0-.94-.16-1.04-.41.07-.01.11 0 .15 0 .16 0 .29-.1.42-.2.24-.19.57-.38 1.06-.18l-.28.75c-.1.03-.2.04-.31.04m-1.04-.4c.14.27.94.45 1.33.34l.28-.72c-.14-.04-.28-.07-.41-.07-.27 0-.46.14-.62.26-.18.14-.35.26-.58.19"/><path d="M22.99 17.93c-.25-.35-.77-.06-.86.35-.08.42.12 1 .47.87l.39-1.22z" fill="#fff"/><path d="M22.51 19.18c-.09 0-.17-.04-.23-.13-.14-.17-.21-.51-.15-.78.08-.42.65-.68.88-.36l-.38 1.23c-.06.03-.09.04-.12.04m.19-1.39c-.24 0-.49.23-.55.5-.05.26.01.59.15.75.06.07.13.11.21.11.03 0 .06-.01.09-.02l.38-1.21a.372.372 0 0 0-.28-.13"/><path d="M23.63 16.82c-.43-.1-.93-.05-.88.37-.17.07-.21.62.24.74l.64-1.11z" fill="#fff"/><path d="M23 17.95a.488.488 0 0 1-.38-.44c-.01-.15.04-.29.12-.33-.02-.1 0-.2.07-.27.13-.15.46-.19.82-.1L23 17.95zm.26-1.16c-.14 0-.33.02-.43.14-.06.06-.08.15-.07.26-.08.05-.13.18-.12.32.02.2.14.35.34.41l.63-1.1c-.11-.01-.24-.03-.35-.03"/><path d="M23.91 16.54c-.43-.5-.9-.49-1.16-.28-.49.39-.96.17-.98.55.29-.22.55.05.79-.04s.41.38 1.08.19l.27-.42z" fill="#fff"/><path d="M23.34 17.03c-.23 0-.38-.09-.5-.16-.08-.04-.14-.08-.21-.08-.24.06-.25.02-.37-.01-.16-.04-.33-.06-.47.05-.02-.23.14-.27.34-.31.17-.04.39-.09.61-.26.11-.09.26-.14.41-.14.19 0 .48.07.77.42l-.27.44c-.11.03-.22.05-.31.05m-.74-.27c.11 0 .17.04.25.08.12.07.27.15.48.15.1 0 .2-.02.31-.05l.26-.42c-.29-.32-.57-.39-.75-.39a.63.63 0 0 0-.39.13c-.23.18-.45.23-.63.27-.2.05-.34.08-.34.27.11-.14.31-.11.48-.07.11.03.21.05.3.02.01.01.02.01.03.01"/><path d="M22.89 23.98c.06.12.46.18.65-.03.26-.27-.03-1.01-.43-1.07-.41-.05-.44.84-.22 1.1" fill="#fff"/><path d="M23.18 24.1c-.14 0-.27-.05-.31-.11-.15-.18-.18-.65-.06-.92.06-.13.15-.2.26-.2.28.04.46.3.53.51.09.24.07.47-.05.59-.08.08-.22.13-.37.13m-.08-1.2c-.15 0-.22.1-.26.18-.12.26-.09.72.06.89.03.06.15.1.28.1.14 0 .27-.05.35-.13.11-.11.13-.33.04-.56-.07-.22-.24-.45-.47-.48z"/><path d="M22.43 24c.58.21.83-.27.52-.57-.09.1-.39.47-.52.57" fill="#fff"/><path d="M22.7 24.06c-.08 0-.18-.02-.27-.05.12-.13.42-.49.51-.59.15.12.19.29.14.43-.06.13-.2.21-.38.21m.23-.62c-.07.11-.37.47-.5.57.09.01.18.03.26.03.17 0 .3-.08.35-.2.06-.13.01-.29-.11-.4"/><path d="M20.25 24.79c-.11.33-.68.39-1.33 1.42-.65 1.03-1.26.6-1.42 1.31.77-.63 1.38-.21 1.85-.83.7-.94 1.28-.8 1.55-1.44.39-.9 2.08-.89 2.17-2.31-.57-.1-2.38 1.43-2.82 1.85" fill="#fff"/><path d="M17.48 27.56l.01-.04c.08-.35.27-.43.51-.53.26-.11.58-.25.92-.78.39-.62.76-.9 1-1.08.16-.12.28-.21.33-.34.43-.41 2.14-1.86 2.77-1.86l.08.02c-.05.84-.65 1.18-1.23 1.5-.4.22-.78.44-.94.81-.13.31-.34.44-.6.6-.27.16-.59.36-.95.84-.24.32-.52.37-.83.42-.3.05-.64.11-1.01.41l-.06.03zm5.58-4.61c-.67.01-2.37 1.45-2.8 1.86-.04.13-.16.22-.33.35-.26.19-.61.45-.99 1.07-.34.54-.67.68-.93.8-.23.1-.4.17-.48.47.37-.29.7-.34.99-.39.31-.05.58-.1.82-.41a3 3 0 0 1 .96-.85c.26-.16.46-.28.59-.59.16-.38.55-.59.96-.82.56-.34 1.15-.67 1.21-1.49"/><path d="M34.8 10.85c.74.24.76 1.2 1.6 1.51.85.31.93 1.07 1.62.88-.65-.17-.6-.92-1.27-1.11-.79-.22-1.09-1.42-1.72-1.6l-.23.32z" fill="#fff"/><path d="M37.8 13.27c-.25 0-.41-.16-.61-.35-.2-.19-.42-.41-.79-.55-.44-.16-.66-.49-.86-.81-.2-.3-.38-.59-.74-.7l.01-.03c.36.12.55.41.75.71.21.32.42.64.85.8.37.14.6.36.79.55.24.24.43.43.82.33-.33-.06-.48-.29-.63-.52-.15-.23-.31-.47-.64-.56-.42-.12-.7-.51-.97-.89-.23-.33-.45-.64-.74-.72.31.06.53.37.77.7.27.37.54.76.96.87.35.09.51.34.66.57.15.23.3.45.61.54-.09.05-.17.06-.24.06"/><path d="M38.19 15.86c.13.3.11.82-.35.96.25.16.62.01.82-.33-.3.67-.1 1.28.38 1.4-.23-.47.28-.69.12-1 .3.13.57.54.56.8.4-.44-.3-1.03-.17-1.45l-1.36-.38z" fill="#fff"/><path d="M39.06 17.91l-.03-.01a.674.674 0 0 1-.44-.37c-.14-.29-.12-.67.05-1.05-.16.35-.56.51-.81.35.17-.07.28-.17.35-.32.1-.21.07-.48-.01-.64l1.38.37c-.04.19.05.39.14.6.13.3.27.61.03.87-.02-.26-.27-.67-.58-.8.1.13.03.25-.04.39-.09.16-.18.34-.06.59l.02.02zm-.41-1.44c-.15.39-.16.77-.03 1.04.08.17.22.29.39.34-.11-.25-.01-.43.07-.59.07-.13.13-.25.06-.38.34.11.6.54.59.8.2-.26.06-.56-.06-.85-.09-.22-.19-.42-.13-.6l-1.36-.37c.09.15.13.43.02.65-.07.15-.2.26-.37.31.07.01.14.03.22.03.23.01.46-.14.6-.38"/><path d="M33.41 20.59c-.45-.4-.64.1-.87-.07-.21-.16-.48-.18-.59-.02.39.01.2.31.95.39-.75.05-.61.89-1.12.85.53.51.81-.45 1.24-.29-.13.04.2.34-.03.75.38-.01.52-.53.57-.79l-.15-.82z" fill="#fff"/><path d="M32.98 22.21l.01-.02c.14-.25.07-.45.02-.59-.02-.06-.04-.11-.02-.14 0-.01-.03-.02-.06-.02-.14 0-.26.11-.39.22-.22.19-.49.35-.76.09.24-.02.33-.18.43-.36.13-.23.28-.49.69-.52-.44-.01-.56-.13-.66-.23a.379.379 0 0 0-.29-.13c.08-.21.39-.17.6 0 .07.06.16.03.26-.02.16-.07.38-.11.61.09l.17.81c-.03.19-.17.8-.59.81l-.02.01zm-.04-.8c.03 0 .07.01.1.02-.03.06-.01.1.01.16.04.13.12.34-.01.59.37-.03.5-.6.53-.78l-.16-.8a.48.48 0 0 0-.57-.07c-.1.05-.2.08-.29.01-.2-.15-.47-.17-.57-.02.16-.01.22.04.3.11.1.09.22.21.64.25-.4.06-.54.31-.67.53-.1.18-.2.35-.41.35.08.07.18.12.28.12.15 0 .29-.12.42-.23.11-.12.25-.24.4-.24"/><path d="M23.46 24.9c-.17-.14-.65-.2-.83-.09-.18.11-.12.14.1.16.22.02.51.38.03.4-.22.01-.15.55-.61.58.19.23.73.08.92-.17-.04.21.24.4.13.65.34.04.14-.69.68-.66-.22.03-.13.53.26.4-.23.11-.11.38.15.31-.16.06-.22.27.01.39.22-.32-.03-1.41-.84-1.97" fill="#fff"/><path d="M24.3 26.88l-.01-.01c-.11-.06-.17-.14-.16-.23 0-.06.03-.11.08-.14-.12 0-.19-.07-.2-.14-.01-.05 0-.11.06-.17-.18.04-.31-.11-.32-.25 0-.08.03-.14.08-.17-.03.05-.05.11-.05.17.01.14.15.28.35.21l-.02.02c-.07.07-.08.13-.07.18.02.07.11.14.25.11-.01.02-.02.03-.04.03-.05.04-.08.09-.09.15-.01.07.04.15.13.2.07-.1.09-.29.05-.52-.07-.41-.34-1.02-.89-1.4-.16-.13-.65-.19-.82-.09-.1.06-.1.08-.1.09.01.03.15.04.2.04.14.01.3.16.3.27 0 .05-.04.15-.28.15-.08 0-.12.09-.17.2-.07.16-.16.36-.44.38.3.24.74.03.91-.2.01.1.05.18.1.27.05.11.11.22.07.35 0-.13-.05-.23-.1-.33-.05-.09-.09-.18-.07-.28-.16.28-.74.4-.92.19.27-.04.36-.23.43-.39.05-.11.09-.21.19-.22.16-.01.25-.05.25-.13 0-.1-.15-.23-.28-.24-.16-.01-.21-.03-.22-.07-.01-.03.03-.07.11-.12.29-.17.7-.03.85.09.55.38.83.98.9 1.42.04.24.02.45-.06.56v.02zm-1.07-.45v-.01c.12-.02.16-.14.21-.28.06-.19.13-.4.41-.4 0 0 0 .01-.01.01-.26.04-.32.23-.38.4-.05.14-.09.28-.23.28"/><path d="M43.55 14.73c.71 0 1.28-.57 1.28-1.28 0-.71-.57-1.28-1.28-1.28-.71 0-1.28.57-1.28 1.28 0 .7.57 1.28 1.28 1.28" fill="#fff"/><path d="M43.55 14.74c-.71 0-1.29-.58-1.29-1.29 0-.71.58-1.29 1.29-1.29.71 0 1.29.58 1.29 1.29 0 .71-.58 1.29-1.29 1.29m0-2.55a1.261 1.261 0 0 0 0 2.52 1.261 1.261 0 0 0 0-2.52"/><path d="M36.87 16.27c.39-.37.98-.55 1.38-.28.4.28 1.75.61 2.42.15.66-.46.98-.7 1.27-.64.22.33.49.49.82.51.1.11.46.2.66.18.29.07.65-.02.94-.33.44.06.86-.27 1.02-.77.47-.06.5-.58.2-.93-.28-.06-.07-.99-1.07-.8.42.26.1.77.45 1.02-.24 0-.55.1-.62.46.09-.25-.01-.41-.08-.47.01-.21-.46-.73-.9-.55.32.07.14.58.37.78-.17.01-.34.09-.44.24-.12-.21-.54-.43-.8-.45 0-.07-.01-.22-.04-.3-.12-.22-.21-.48-.17-.82-.22.24-.41.57-.52.81-.35-.24-1.22.11-1.62.2-.4.09-1.77-.13-2.08-.46-.31-.33-.92-.53-1.49-.7-.79-.23-.79-1.09-1.66-1.68-.03 1.07 1.59 4.46 1.96 4.83" fill="#fff"/><path d="M39.76 16.39c-.6 0-1.25-.2-1.52-.38-.36-.25-.96-.12-1.36.28-.38-.36-2.02-3.77-2-4.84.43.26.65.6.84.9.22.34.42.64.84.77.6.17 1.19.38 1.5.7.31.33 1.69.54 2.07.46.09-.02.2-.05.32-.09.45-.13 1.07-.28 1.32-.11.05-.15.24-.53.5-.81-.02.36.09.63.19.82.03.08.05.23.05.3.24.01.68.22.8.44.07-.14.25-.24.43-.25-.12-.06-.14-.22-.16-.37-.02-.18-.05-.34-.21-.38.06-.05.13-.07.2-.07.26 0 .47.18.54.26.11.12.18.25.18.34.06.04.12.15.12.29.14-.26.44-.29.57-.29-.18-.09-.2-.28-.21-.46-.02-.2-.03-.4-.25-.53.1-.04.18-.05.25-.05.48 0 .59.33.67.57.05.14.08.24.16.26.18.21.25.49.17.69-.06.15-.19.24-.37.27-.15.5-.57.83-1.02.77-.25.29-.62.41-.94.33-.16.03-.56-.06-.67-.18-.34-.02-.6-.19-.82-.52h-.07c-.25 0-.53.2-1.04.55l-.14.1c-.25.15-.55.23-.94.23m-1.96-.54c.17 0 .33.05.46.14.26.18.91.37 1.5.37.37 0 .68-.08.9-.23l.14-.1c.58-.4.86-.6 1.14-.55.22.33.48.49.82.52.1.11.45.2.66.18.34.08.67-.04.93-.33h.12c.39 0 .75-.31.89-.76.23-.04.32-.16.36-.26.08-.19.01-.46-.16-.66-.09-.02-.13-.14-.18-.27-.09-.28-.22-.65-.88-.52.23.11.25.32.26.53.02.18.03.35.19.46-.14.03-.47.06-.59.38-.01.03-.02.06-.03.1-.02-.04-.01-.08 0-.11.04-.22-.09-.35-.1-.36 0-.09-.07-.22-.18-.33-.09-.1-.42-.34-.71-.22.18.01.21.2.23.38.02.14.04.29.14.38-.18.03-.35.12-.44.26-.15-.21-.57-.43-.82-.44-.01-.09-.03-.23-.06-.31-.1-.2-.22-.47-.17-.83-.23.29-.42.67-.49.82-.3-.14-.87-.01-1.31.12-.12.04-.23.07-.32.09-.39.09-1.78-.13-2.1-.47-.3-.32-.89-.52-1.49-.69-.42-.12-.62-.43-.85-.78-.19-.3-.41-.63-.81-.91 0 1.06 1.63 4.45 1.99 4.81.29-.26.64-.41.96-.41"/><path d="M27.83 24.42c.68 0 1.23-.55 1.23-1.23 0-.68-.55-1.24-1.23-1.24-.69 0-1.24.55-1.24 1.24.01.68.56 1.23 1.24 1.23" fill="#fff"/><path d="M27.83 24.44a1.25 1.25 0 1 1 0-2.5 1.25 1.25 0 0 1 0 2.5m0-2.47c-.67 0-1.22.55-1.22 1.22 0 .67.55 1.22 1.22 1.22.67 0 1.22-.55 1.22-1.22 0-.68-.54-1.22-1.22-1.22"/><path d="M24.88 23.47c.25.32.67.3.85.28.15.39.62.38.82.59.2.21.89.19 1.1.07-.18-.02-.42-.13-.66-.32-.28-.23-.15-.7-.37-.87.16-.18.19-.49.16-.61.17-.1.3-.27.32-.35.3-.02.57-.18.68-.29.16.15.55-.05.77.2.05-.61-.53-.93-.92-.73-.16-.08-.57-.03-.65.08-.13-.06-.49.13-.66.25.19-.1.21-.41.14-.52.16-.06.33-.27.35-.43.22.04.55-.11.7-.07-.24-.31-.64-.42-1.04-.4-.42.02-.6.32-.65.64-.25.15-.33.64-.24.82-.14 0-.28.14-.33.21-.19-.08-.47-.14-.67-.14l.3 1.59z" fill="#fff"/><path d="M27.12 24.51c-.23 0-.47-.05-.58-.16a.893.893 0 0 0-.32-.18c-.19-.08-.42-.17-.51-.42-.16.04-.59.06-.85-.27l.02-.02c.25.32.67.3.84.27.1.24.31.33.51.41.13.05.24.1.32.19.2.21.89.18 1.08.07-.19.01-.43-.11-.66-.3-.15-.13-.18-.32-.22-.49-.03-.15-.05-.3-.15-.37.16-.2.19-.51.15-.62.18-.12.3-.28.32-.36.33-.03.59-.19.69-.3.08.06.19.06.32.06.17 0 .35 0 .47.14 0-.27-.12-.51-.33-.66a.6.6 0 0 0-.59-.05c-.16-.08-.57-.03-.64.08-.12-.05-.42.09-.61.22-.02.01-.03.02-.05.03h.01c.06-.06.11-.14.14-.24.03-.1.02-.22-.02-.27.16-.08.33-.29.35-.44.13 0 .28-.03.41-.05.12-.03.24-.05.31-.03-.23-.26-.6-.4-1.04-.37-.45.03-.59.35-.64.63-.24.15-.33.64-.24.81-.15.02-.28.15-.33.23-.21-.08-.49-.14-.68-.14.2-.03.48.03.67.12 0-.02.15-.19.33-.21-.11-.16-.02-.67.23-.82.06-.39.3-.62.66-.64.45-.03.83.11 1.05.4-.08.01-.19.03-.31.05-.13.03-.28.06-.4.04 0 .15-.18.36-.34.43.05.04.06.16.03.28-.02.07-.05.13-.08.17.17-.13.45-.25.57-.2.06-.11.48-.17.65-.08.17-.1.41-.08.61.05.22.15.34.4.32.69-.14-.13-.31-.12-.47-.13-.13 0-.24 0-.32-.07-.08.11-.35.28-.67.3-.01.08-.14.25-.32.35.04.1.02.41-.15.61.11.06.13.21.16.37.03.18.06.36.21.48.22.18.46.3.65.32-.12.05-.34.09-.56.09"/><path d="M24.67 21.38c-.08-.24.03-.45.08-.64.14-.48.06-.61-.38-.54-.03.22.19.98.3 1.18" fill="#fff"/><path d="M24.66 21.39c-.11-.2-.33-.96-.3-1.2.26-.07.36-.03.43.06.06.08.06.23-.02.49l-.03.11c-.05.16-.11.34-.05.53l-.03.01zm-.11-1.2c-.05 0-.11.01-.18.02-.02.18.14.76.25 1.05-.01-.15.03-.29.08-.41l.04-.11c.07-.25.08-.4.03-.47-.04-.06-.11-.08-.22-.08"/><path d="M24.35 20.22c.11.11.5.16.54-.19.05-.4-.11-.56-.47-.4-.02.09-.05.47-.07.59" fill="#fff"/><path d="M24.59 20.31c-.1 0-.2-.04-.25-.09 0-.05.01-.12.02-.2.02-.15.04-.34.06-.4.21-.1.34-.09.42 0 .07.08.09.21.07.41-.02.18-.14.28-.32.28m.07-.73c-.06 0-.14.02-.23.06-.01.05-.03.24-.05.39-.01.08-.02.15-.02.19.04.03.14.07.23.07.08 0 .26-.03.29-.26.02-.18 0-.31-.06-.38-.04-.05-.09-.07-.16-.07"/><path d="M24.43 19.61c.15.06.47.18.64-.16.15-.29-.05-.51-.35-.49-.07.09-.22.38-.29.65" fill="#fff"/><path d="M24.72 19.7c-.12 0-.24-.05-.3-.07.06-.29.21-.59.28-.67.21 0 .32.05.39.16.06.1.06.22-.01.35a.38.38 0 0 1-.36.23m.04-.72c-.1.08-.24.37-.31.64.05.01.16.05.28.05.15 0 .26-.08.34-.22.06-.12.07-.23.01-.32-.06-.1-.18-.15-.32-.15"/><path d="M24.7 18.94c.04.11.42.48.69.21.28-.27.28-.66-.14-.81-.1.02-.43.4-.55.6" fill="#fff"/><path d="M25.17 19.26c-.23 0-.45-.22-.48-.32.11-.21.45-.6.56-.62.19.07.31.18.34.33.04.17-.03.35-.19.5-.06.07-.14.11-.23.11m.08-.91c-.09.02-.42.39-.54.59.03.06.24.28.45.28.08 0 .15-.03.22-.09a.53.53 0 0 0 .18-.48c-.02-.13-.13-.24-.31-.3"/><path d="M25.26 18.34c.08.23.34.63.82.44.48-.18.28-.78.05-.9-.12.01-.65.24-.87.46" fill="#fff"/><path d="M25.84 18.84c-.4 0-.57-.42-.6-.5.22-.23.76-.47.89-.48.14.07.27.3.25.54a.44.44 0 0 1-.3.4c-.08.02-.16.04-.24.04m.29-.95c-.12.01-.64.25-.86.46.03.07.2.47.57.47.07 0 .15-.02.23-.05.22-.08.28-.25.28-.37.02-.22-.1-.45-.22-.51"/><path d="M26.13 17.88c-.04.2 0 .76.65.75.66-.01.47-.77.3-.89-.25 0-.71.01-.95.14" fill="#fff"/><path d="M26.77 18.64c-.23 0-.41-.07-.52-.21a.7.7 0 0 1-.13-.56c.24-.14.67-.15.97-.15.11.07.22.38.15.61-.04.14-.15.3-.45.3h-.02zm.32-.89c-.29 0-.72.02-.94.14-.01.11-.01.35.13.52.11.13.28.2.5.2v.02l.01-.02c.29 0 .39-.15.43-.28.06-.23-.04-.52-.13-.58"/><path d="M27.12 17.76c-.07.16-.24 1.19 1.04.9.17-.03.6-.98-1.04-.9" fill="#fff"/><path d="M27.76 18.73c-.28 0-.49-.09-.6-.27-.17-.26-.09-.62-.05-.7.08-.01.15-.01.21-.01.85 0 1.01.32 1.03.51.02.2-.1.41-.18.43-.15.03-.29.04-.41.04m-.44-.96c-.06 0-.13 0-.2.01-.02.07-.1.41.06.67.11.17.3.26.58.26.12 0 .25-.02.4-.05.06-.01.19-.19.16-.4-.02-.18-.17-.49-1-.49"/><path d="M27.82 17.86c-.13.13.2 1.17 1.07 1 .87-.18.14-1.17-1.07-1" fill="#fff"/><path d="M28.7 18.89c-.55 0-.79-.48-.85-.63-.08-.18-.09-.36-.04-.41.1-.02.19-.02.28-.02.66 0 1.16.35 1.19.67.02.18-.12.32-.39.37-.06.01-.13.02-.19.02m-.61-1.04c-.09 0-.18.01-.27.02-.03.03-.02.19.05.38.06.14.29.61.82.61.06 0 .12-.01.19-.02.25-.05.38-.18.37-.34-.02-.31-.51-.65-1.16-.65"/><path d="M28.56 18.01c-.14.29.07 1.14 1.14 1.14.97 0-.05-1.12-1.14-1.14" fill="#fff"/><path d="M29.7 19.16c-.65 0-.94-.31-1.05-.5-.15-.25-.17-.52-.1-.66.8 0 1.56.59 1.55.93 0 .09-.05.23-.4.23m-1.14-1.13c-.05.13-.04.39.11.62.11.18.4.48 1.03.48.24 0 .37-.07.37-.2.01-.32-.74-.89-1.51-.9"/><path d="M29.4 18.26c-.07.16-.15 1.06 1.11 1.14.91.05.69-1.24-1.11-1.14" fill="#fff"/><path d="M30.56 19.41v-.03c.27 0 .45-.14.45-.35 0-.18-.13-.36-.34-.5-.18-.12-.52-.26-1.08-.26.56-.03.91.12 1.09.24.22.14.35.34.35.53H31v.04c.02.2-.16.33-.44.33"/><path d="M30.75 18.64c-.16.28-.32.97 1.06 1.02.89.04.35-1-1.06-1.02" fill="#fff"/><path d="M31.86 19.68h-.04c-.6-.02-.97-.17-1.11-.42-.14-.26-.01-.54.04-.62.93 0 1.52.47 1.52.79-.01.15-.16.25-.41.25m-1.11-1.03c-.03.07-.16.34-.03.59.14.25.51.39 1.09.41l.04.02v-.02c.24 0 .37-.08.37-.23.01-.3-.56-.75-1.47-.77"/><path d="M31.91 18.85c-.2.28-.05.82.46.92.65.13.74-.48.29-.77-.44-.29-.75-.15-.75-.15" fill="#fff"/><path d="M32.54 19.81c-.05 0-.11-.01-.17-.02a.7.7 0 0 1-.52-.42c-.07-.19-.05-.39.05-.52.02-.01.29-.18.78.14.22.14.32.38.26.57-.05.16-.2.25-.4.25m-.42-.98c-.13 0-.21.04-.21.04-.09.13-.11.32-.04.49.08.21.26.36.49.4.06.01.11.02.16.02.19 0 .33-.08.37-.23.05-.18-.05-.4-.25-.54a.891.891 0 0 0-.52-.18"/><path d="M32.53 18.98c-.15.26-.06.89.92.89.21 0 .98-.8-.92-.89" fill="#fff"/><path d="M33.46 19.88c-.57 0-.81-.21-.92-.39a.537.537 0 0 1-.02-.52c1.07.04 1.28.3 1.28.51-.01.22-.24.4-.34.4m-.93-.88c-.05.11-.07.31.03.49.1.17.33.37.89.37.09 0 .31-.17.31-.36.01-.17-.14-.45-1.23-.5"/><path d="M24.96 31.01a1.43 1.43 0 1 0 0-2.86c-.79 0-1.44.64-1.44 1.43s.65 1.43 1.44 1.43" fill="#fff"/><path d="M24.96 31.02a1.451 1.451 0 0 1 0-2.9 1.451 1.451 0 0 1 0 2.9m0-2.87c-.78 0-1.42.64-1.42 1.42s.64 1.42 1.42 1.42a1.419 1.419 0 1 0 0-2.84"/><path d="M35.49 10.15c-.11.11-.34.44-.39.57-.48 1.44.8 2.51 1.55 4.06.59 1.22.52 3.14-.41 4.35-.32.42-.22.54-.63.96-.15.16-.33.37-.28.96.26-.09.63.15.7.35.18-.09.44-.05.53.06.31-.15.57-.07.85.22.24-.04.5 0 .74.26.13-.26.39-.35.57-.3-.02-.33.31-.57.61-.44-.09-.44.31-.78.7-.65.33-.26 1-.28 1.33.11-.59-.17-.57.46-1.07.41.13.37-.2.58-.53.7.21-.1.44-.22.52-.09.18-.16.55-.1.65-.02.24-.08.48-.02.59.28.33.2.55.72.31 1.11-.07-.41-.35-.39-.46-.55-.26.09-.52.09-.59-.07-.15.14-.65.27-.87.05-.08.33-.37.61-.7.61.09.26-.17.7-.37.92.31.17.22.54.15.76.48.07.07.5.9.78-.41.13-1.2 0-1.31-.5-.41-.02-.68-.42-.66-.85-.31-.29-.36-.72.07-1.01-.37.11-.57-.48-1.11-.24-.26.12-.97-.08-.96-.33-.11.18-.78.11-.88-.2-.22.12-.74-.08-.73-.39-.28.13-.67-.1-.65-.4-.27-.04-.29-.28-.28-.48-.24-.11-.17-.34-.08-.62-.17-.18-.09-.44.04-.68-.18-.19-.15-.41-.09-.66-.89-.07-2-.29-4.54-1.07-3.84-1.18-4.87 1.58-4.02 3.32.98 2-.11 2.43.22 3.93.35.08.53.37.52.68.21.01.35.2.28.57.18-.03.4.02.55.17.13-.24.55-.3.78-.02.48-.04.72.35.7.83.26.46.16 1.02-.11 1.38.03-.19 0-.47-.01-.64-.02-.3-.44-.37-.4-.62-.22.02-.43-.1-.51-.27-.13.11-.31.15-.47.09.25.11.44.55.37.85.13.22.1.63-.06.8-.07.36-.35.49-.71.33.2-.13.28-.36.27-.55-.13-.11-.19-.32-.2-.45-.36.05-.86-.25-.95-.37-.79 0-1.44.64-1.44 1.43-.04-.29-.41-.59-.36-.83-.22-.68.09-1.32.99-1.45-.11-.26.28-.53.13-.82-.19-.38-.53-.87-1.05-1.44.31-.53.22-1.26.04-1.7-.27-.64-.52-.48-1.46.55-1.53 1.68-3.58 1.22-5.39 2.32-.48.29-.96.41-.44-.11s1.88-1.03 2.77-1.48c1.66-.83 3.06-2.21 3.61-4.91 1.3-6.33 6.09-4.24 9.11-3.06 2.84 1.11 2.32-1.4.89-2.91-1.73-1.82-1.38-3.25-.57-4.39 1.46-.2 4.26.31 3.7.8" fill="#fff"/><path d="M26.13 29.59c-.09 0-.19-.02-.29-.07.2-.16.27-.39.26-.56-.13-.11-.2-.33-.2-.45-.01.02-.04.02-.08.02-.35 0-.78-.27-.87-.38-.77.01-1.41.64-1.41 1.42-.05-.13-.13-.26-.22-.39-.1-.16-.2-.3-.17-.44-.11-.34-.09-.68.08-.94.17-.28.5-.46.93-.52-.07-.11 0-.24.06-.37.07-.14.13-.28.06-.43-.2-.4-.56-.9-1.05-1.44.3-.52.23-1.23.03-1.7-.29-.69-.54-.42-1.43.56-.9.98-1.95 1.23-3.06 1.49-.78.18-1.58.37-2.33.83-.34.21-.65.31-.68.21-.02-.06.05-.17.22-.35.38-.38 1.18-.74 1.96-1.1.29-.13.57-.26.81-.38 1.98-.99 3.12-2.55 3.61-4.9.6-2.94 2-4.37 4.28-4.37 1.54 0 3.22.66 4.58 1.19l.27.11c.46.18.86.27 1.17.27.4 0 .66-.14.78-.43.27-.62-.21-1.82-1.09-2.74-1.45-1.52-1.63-2.92-.57-4.41 1.23-.2 3.61.17 3.78.62.03.07 0 .13-.07.19-.1.11-.34.44-.38.57-.33 1.01.19 1.83.81 2.78.26.4.52.81.74 1.27.56 1.15.56 3.1-.41 4.37-.14.18-.19.3-.25.42-.07.15-.15.3-.38.54-.14.15-.33.35-.27.95.02-.03.06-.03.11-.03.25 0 .53.21.59.38.13-.11.43-.06.53.05.27-.16.56-.09.85.22a.59.59 0 0 1 .14-.02c.23 0 .42.09.6.28.12-.29.39-.35.57-.3-.03-.11.02-.24.11-.33.13-.14.34-.18.5-.11a.475.475 0 0 1 .09-.47c.14-.18.39-.25.61-.18.32-.27 1.04-.23 1.33.11-.08.01-.14 0-.2 0-.19 0-.29.1-.41.22-.11.11-.22.22-.42.22.04.2-.04.38-.25.53.1-.02.15 0 .18.06.11-.14.53-.13.64-.02.17-.08.45-.1.59.28.18.11.34.32.39.56.03.14.05.36-.08.56a.641.641 0 0 0-.32-.42c-.06-.04-.12-.07-.16-.14-.25.12-.52.08-.59-.07-.11.15-.67.26-.86.06-.06.35-.36.61-.69.61.11.24-.15.69-.36.92.31.14.23.5.15.75.21.02.25.12.3.25.06.16.14.35.6.51-.1.06-.22.07-.35.07-.41 0-.9-.17-.98-.56-.38-.01-.68-.39-.66-.85-.17-.15-.26-.35-.24-.54.01-.17.11-.32.27-.45-.12.03-.25-.06-.38-.14-.18-.12-.4-.23-.66-.11-.22.1-.74-.03-.91-.2-.05-.05-.07-.1-.07-.14-.04.2-.78.13-.88-.2-.08.12-.47.01-.63-.15-.07-.07-.11-.16-.1-.24-.11.12-.4.03-.54-.11a.348.348 0 0 1-.11-.28c-.21-.02-.3-.18-.27-.48-.26-.1-.17-.37-.08-.62-.14-.14-.13-.37.04-.69-.18-.17-.15-.39-.09-.66-.87-.06-1.97-.27-4.53-1.05-.61-.19-1.18-.29-1.69-.29-1.29 0-1.93.59-2.23 1.08-.44.71-.48 1.69-.08 2.5.58 1.19.43 1.84.29 2.46-.1.42-.2.86-.07 1.47.33.06.54.34.52.69.08-.01.16.03.21.1.06.07.12.22.07.47.02-.02.05-.03.09-.03.17 0 .34.07.46.18.09-.24.57-.27.78-.02.23-.02.38.05.49.17.15.15.22.39.21.67.24.42.19.99-.11 1.39 0-.17-.02-.39-.03-.55l-.01-.1c-.01-.15-.12-.23-.22-.32-.09-.07-.17-.14-.18-.24.04.09.12.15.2.22.1.08.22.18.23.34l.01.1c.01.16.03.38 0 .54.22-.33.36-.89.08-1.38.01-.28-.07-.51-.21-.66a.573.573 0 0 0-.42-.17h-.07c-.19-.24-.63-.22-.75.02-.16-.13-.38-.2-.56-.16.02-.21 0-.37-.08-.47a.266.266 0 0 0-.21-.1c.01-.35-.2-.62-.52-.68-.15-.62-.04-1.06.05-1.49.14-.62.29-1.26-.28-2.44-.4-.82-.37-1.81.08-2.53.31-.5.96-1.1 2.26-1.1.51 0 1.08.1 1.7.28 2.55.79 3.66.99 4.53 1.07-.05.29-.07.49.1.67-.16.32-.17.54-.04.68-.09.31-.14.51.08.61-.02.3.07.45.27.48.01.11.04.2.11.28.13.14.37.2.53.12.02.09.05.17.12.23.15.15.46.23.61.16.12.31.77.36.87.21.03.05.04.09.09.13.16.17.68.29.88.2.28-.13.5-.01.69.11.14.09.27.17.42.13h-.01l-.03.03c-.15.14-.25.29-.26.46-.01.18.07.37.24.53-.01.45.28.83.65.84.12.5.9.63 1.3.5-.47-.13-.55-.33-.61-.5-.05-.13-.08-.22-.29-.25.07-.26.14-.6-.15-.76.2-.24.45-.68.36-.93.33-.02.62-.27.7-.62a.6.6 0 0 0 .36.11c.21 0 .43-.09.51-.17.14.22.37.15.59.07.05.06.11.1.17.13.12.08.26.16.31.43.1-.2.08-.41.05-.55a.913.913 0 0 0-.39-.55c-.11-.27-.32-.36-.58-.28-.11-.08-.49-.12-.64.02-.08-.07-.14-.07-.27-.02-.08.04-.16.08-.25.11.09-.08.17-.11.24-.14.27-.15.36-.34.28-.57l-.01-.02h.08c.19 0 .29-.1.4-.21.14-.14.31-.28.61-.19-.32-.29-.98-.35-1.32-.09-.26-.06-.45 0-.59.17-.1.13-.14.29-.11.46-.22-.02-.37-.01-.49.12-.08.09-.13.2-.12.33h-.12c-.15 0-.34.08-.45.3-.23-.22-.48-.3-.75-.25-.3-.31-.54-.37-.85-.22-.11-.11-.37-.14-.53-.06-.1-.2-.47-.43-.7-.35-.08-.63.12-.83.26-.98.23-.24.3-.38.37-.53.06-.12.12-.24.25-.42.96-1.26.96-3.2.4-4.34-.22-.45-.48-.86-.74-1.26-.62-.96-1.15-1.78-.81-2.81.05-.13.28-.47.39-.58.06-.05.08-.11.06-.16-.12-.32-1.63-.65-2.98-.65-.28 0-.54.02-.75.05-1.04 1.47-.86 2.86.58 4.37.88.92 1.36 2.14 1.09 2.77-.13.29-.41.44-.81.44-.32 0-.72-.09-1.18-.28l-.27-.11c-1.35-.53-3.03-1.19-4.57-1.19-2.26 0-3.65 1.42-4.25 4.35-.48 2.36-1.63 3.92-3.62 4.92-.24.12-.52.25-.81.38-.78.35-1.58.72-1.95 1.09-.22.22-.22.29-.22.31.17.02.4-.08.64-.23.76-.46 1.56-.65 2.34-.84 1.11-.26 2.15-.51 3.04-1.48.93-1.03 1.18-1.26 1.48-.55.2.48.27 1.2-.04 1.71.49.52.85 1.02 1.05 1.42.08.16.01.31-.06.46-.06.13-.12.25-.07.36-.43.08-.75.26-.92.53-.16.25-.18.58-.07.92-.02.13.07.28.17.43.09.13.18.27.2.41-.03-.8.62-1.45 1.42-1.45.1.12.59.42.95.37.03.13.08.34.21.46.01.19-.05.44-.27.58.1.02.19.04.27.04.21 0 .36-.14.41-.39.16-.18.18-.58.06-.79.07-.3-.12-.73-.36-.84.06-.01.11 0 .16 0 .11 0 .22-.04.31-.11.09.16.28.27.48.27v.01c-.23.02-.41-.1-.48-.26-.1.12-.3.15-.45.1.26.09.45.54.38.83.13.21.1.63-.06.81-.03.29-.19.43-.42.43"/><path d="M40.62 25.69c.87 0 1.58-.71 1.58-1.58 0-.87-.71-1.58-1.58-1.58-.87 0-1.58.71-1.58 1.58 0 .88.71 1.58 1.58 1.58" fill="#fff"/><path d="M40.62 25.71c-.88 0-1.6-.71-1.6-1.59a1.596 1.596 0 0 1 3.19 0c.01.87-.71 1.59-1.59 1.59m0-3.16c-.86 0-1.57.7-1.57 1.56 0 .86.7 1.56 1.57 1.56.86 0 1.56-.7 1.56-1.56.01-.86-.7-1.56-1.56-1.56M35.78 19.89c1.2-2.13.34-5.32-.73-6.73-.55-.73-.8-1.45-.46-2.95l.03.01c-.34 1.49-.09 2.2.46 2.92 1.06 1.42 1.92 4.63.7 6.75"/><path d="M36.45 18.08c-.01 0-.01 0-.01-.01s0-.02.01-.02c.15-.06.42-.23.48-.52-.05.32-.33.5-.48.55M36.56 17.41c-.01 0-.02-.01-.02-.02.02-.13.13-.23.24-.32.12-.1.23-.2.23-.35.02.16-.1.27-.21.37-.11.09-.21.18-.23.3 0 .02-.01.02-.01.02M36.57 16.37c-.01 0-.01 0-.02-.01-.01-.14.09-.27.18-.4.11-.14.2-.27.17-.4.06.14-.04.28-.15.42-.09.12-.19.25-.17.38l-.01.01M36.33 15.37c-.01 0-.01 0-.02-.01-.02-.07.04-.16.12-.27.1-.14.2-.29.14-.43.1.14-.02.3-.12.45-.07.09-.13.19-.11.24 0 .01 0 .02-.01.02M36.02 14.4c-.01 0-.01 0-.01-.01-.04-.09 0-.18.04-.27.05-.1.09-.2.03-.29.09.09.04.2-.01.3-.04.09-.08.17-.04.25.01.01 0 .02-.01.02.01 0 0 0 0 0M35.58 13.63c-.01 0-.01 0-.01-.01-.01-.05.01-.12.03-.2.03-.11.07-.24.02-.33.08.09.04.22.01.34a.49.49 0 0 0-.03.19c-.01 0-.01.01-.02.01M35.14 12.7c-.01-.01-.02 0-.02-.01l.03-.03c.05-.05.14-.14.09-.25.08.11-.02.22-.07.27 0 .01-.02.02-.03.02M34.85 12.03h-.01c0-.01-.02-.01-.01-.01l.03-.02c.07-.03.19-.09.18-.19.05.12-.08.18-.16.22h-.03M24.69 29.79c.01-.14.12-.26.27-.34.2-.1.44-.12.64-.05.01 0 .01.01.01.02s-.01.01-.02.01a.79.79 0 0 0-.62.05c-.14.08-.24.19-.28.31M25.4 30.21c-.05 0-.09-.04-.1-.09-.04-.11.01-.27.1-.34.03-.03.07-.04.11-.05-.07-.01-.15 0-.23.03-.14.05-.29.15-.32.32 0 .01-.01.01-.02.01s-.01-.01-.01-.02c.03-.18.19-.3.34-.35.15-.05.29-.04.36.03-.11-.03-.18 0-.22.03-.08.07-.12.21-.09.31.01.04.04.09.11.09 0 .02-.01.03-.03.03M27.93 23.59a.585.585 0 0 1-.21-.54c.02-.13.09-.23.19-.28.01 0 .02 0 .02.01s0 .01-.01.02a.35.35 0 0 0-.17.26c-.03.18.04.38.18.53M28.35 23.47c-.12-.02-.19-.11-.21-.25-.02-.15.02-.29.1-.36.01-.01.02 0 .02 0 .01.01 0 .01 0 .02-.08.06-.12.2-.1.33.02.09.05.16.11.21-.03-.04-.04-.09-.03-.15.03-.1.14-.2.23-.2.07 0 .13.03.15.09.03.08.01.18-.08.26.05-.1.08-.18.05-.25-.02-.05-.06-.08-.13-.07-.08.01-.17.09-.2.18 0 .06.01.13.09.19M40.77 24.78c-.29-.29-.27-.6-.15-.78.13-.2.37-.29.6-.23.01 0 .01.01.01.02s-.01.01-.02.01a.502.502 0 0 0-.57.21c-.11.18-.13.47.13.77-.03-.27.06-.5.24-.65.15-.13.35-.18.56-.13-.2-.02-.4.03-.54.15-.17.15-.27.37-.26.63M41.39 24.78c-.16 0-.25-.11-.25-.21 0-.1.07-.21.21-.21.01 0 .01.01.01.02s-.01.01-.01.01c-.12 0-.18.09-.18.18s.07.18.22.18c.08 0 .15-.09.15-.17.03.09-.05.2-.15.2M43.79 13.44c-.28 0-.56-.14-.63-.39 0-.01 0-.02.01-.02 0 0 .01 0 .02.01.08.3.51.43.84.36-.08.03-.16.04-.24.04M44.02 13.23c-.13 0-.25-.06-.35-.15a.397.397 0 0 1-.12-.31c.03.07.1.11.14.12.12.05.27.05.33 0-.06.09-.23.08-.35.03a.353.353 0 0 1-.11-.09c.02.08.06.17.13.24.09.1.21.15.34.15.01 0 .01.01.01.01h-.02M25.73 23.76c-.01 0-.01 0-.01-.01-.04-.11.04-.22.11-.33.06-.08.11-.15.12-.22 0-.07.06-.14.14-.17.06-.02.28-.08.54.18-.22-.18-.42-.2-.53-.16-.07.03-.12.09-.13.15-.01.08-.06.16-.12.24-.07.1-.15.2-.11.3.01.01 0 .02-.01.02M27.06 22.28c-.08 0-.22-.01-.3-.07.1.03.25.04.33.04.01 0 .01.01.01.01.02.02-.01.02-.04.02M26.49 22.74c.08-.05.22-.1.28-.13.01 0 .02 0 .02.01s0 .02-.01.02c-.06.02-.2.08-.29.1M23.88 28.65c-.11-.05-.28-.3-.27-.47 0-.01.01-.01.01-.01.01 0 .01.01.01.01-.01.17.15.4.25.47M24.26 28.33c-.09-.16-.03-.41.07-.55.01-.01.01-.01.02 0 .01 0 .01.01 0 .02-.09.13-.15.36-.09.53M25.71 28.36c-.13-.08-.11-.24-.1-.4.01-.07.02-.14.01-.19-.01-.09.03-.22.15-.29.07-.05.23-.1.48.05-.19-.08-.35-.1-.47-.02-.1.06-.14.18-.14.27.01.06 0 .13-.01.2-.02.15-.03.3.08.37.01 0 .01.01 0 .02.01-.02.01-.01 0-.01M24.16 27.31c-.01 0-.01 0-.02-.01 0-.01 0-.02.01-.02.17-.03.35-.02.46.03-.11-.02-.28-.03-.45 0zM26.18 27.05c-.02-.06-.01-.19.07-.3 0-.01.02-.01.02 0 .01.01.01.01 0 .02-.07.11-.08.23-.09.28M26.76 26.94c.03-.1.14-.21.28-.21.01 0 .02.01.02.02s-.01.01-.02.01c-.12 0-.23.09-.28.18M25.81 22.55c-.04-.24-.42-.47-.56-.52-.01 0-.01-.01-.01-.02s.01-.01.02-.01c.14.06.53.3.55.55M26.82 20.84c-.3-.01-.48-.21-.48-.35 0-.09.07-.15.19-.15-.1.03-.16.07-.16.15 0 .13.17.32.45.32.01 0 .01.01.01.01 0 .01 0 .02-.01.02M27.79 21.96c-.19-.08-.28-.26-.27-.38.01-.07.04-.12.1-.15.01 0 .01 0 .02.01 0 .01 0 .02-.01.02-.07.03-.08.08-.08.12-.01.11.07.28.24.38M26.55 24.35c-.01 0-.01 0-.01-.01-.05-.06-.04-.18.02-.27.07-.1.18-.13.31-.09-.12-.01-.22.02-.28.1-.05.08-.06.19-.02.24 0 .02 0 .03-.02.03.01 0 0 0 0 0M27.22 27.72c-.01 0-.02-.01-.02-.01.01-.15.12-.29.26-.31.12-.02.23.05.28.18-.08-.11-.17-.17-.28-.15-.12.02-.23.15-.23.29.01-.01 0 0-.01 0M25.91 28.52c-.01 0-.01-.01-.02-.01-.03-.36.19-.43.28-.44.13-.01.35.09.45.31-.12-.19-.32-.3-.44-.28-.11.02-.28.09-.26.41.01.01 0 .01-.01.01M23.17 28.75c-.01 0-.02-.01-.02-.02a.46.46 0 0 1 .17-.31c.06-.05.13-.06.19-.06-.06.02-.12.04-.17.08-.08.07-.15.18-.16.29 0 .02-.01.02-.01.02M40.28 21.05c-.24 0-.31-.13-.33-.2-.03-.12.02-.26.09-.31 0-.01.02 0 .02 0 .01.01 0 .01 0 .02-.06.04-.11.17-.08.28.02.09.1.19.33.21h-.03M41.38 22.48c-.2-.15-.16-.36-.05-.49.07-.08.15-.1.19-.07.01.01.01.02 0 .02s-.01.01-.02 0c-.03-.03-.1-.01-.15.06-.1.12-.13.32.03.48M38.58 25.05c-.01 0-.01 0-.01-.01-.02-.1-.01-.18.04-.23.07-.07.22-.1.38-.06-.15-.01-.29.01-.36.08-.05.05-.06.12-.04.21.01 0 .01 0-.01.01.01 0 .01 0 0 0M37.99 23.17l.03-.04c.12-.08.25-.17.41-.21-.15.07-.27.15-.4.24l-.04.01zM37.92 24.2c-.01 0-.02-.01-.02-.01 0-.22.11-.42.22-.47-.09.08-.19.26-.19.47.01 0 0 .01-.01.01M38.92 22.29c-.07-.06-.22-.35-.2-.66 0-.01.01-.01.01-.01s.01.01.01.02c-.01.3.13.58.18.65M40.64 21.86c.02-.12.14-.17.29-.22.01 0 .02 0 .02.01s0 .02-.01.02c-.15.05-.26.09-.3.19M43.94 14.68c-.08 0-.15-.02-.22-.08.12.06.25.07.36.01.1-.05.17-.15.17-.26 0-.02.03-.02.03 0 0 .12-.07.23-.18.28-.05.04-.11.05-.16.05M45.13 14.43c-.07 0-.13-.02-.17-.05-.01-.01-.01-.02 0-.02 0-.01.01-.01.02 0 .08.06.31.05.43-.04.05-.04.11-.11.07-.22.07.09.04.18-.05.24a.53.53 0 0 1-.3.09M44.37 15.87a.7.7 0 0 1-.36-.23c.09.07.27.18.36.2.01 0 .01.01.01.02s-.01.01-.01.01M45.25 15.12c-.1 0-.17-.03-.23-.05.1.01.2.04.36.01 0-.01.02 0 .02.01s0 .02-.01.02c-.06.01-.1.01-.14.01M42.76 16.03c-.01 0-.02-.01-.02-.01 0-.01.01-.01.02-.01.08 0 .3-.03.46-.11-.14.09-.37.13-.46.13M44.14 15.22c.08-.1.16-.28.19-.39 0-.01.01-.01.02-.01s.01.01.01.02c-.04.12-.12.3-.22.38M42.98 15.71c-.21 0-.38-.16-.52-.29-.12-.11-.21-.2-.29-.16-.01 0-.02 0-.02-.01s0-.02.01-.02c.1-.04.2.06.32.17.19.18.42.4.75.24a.59.59 0 0 1-.25.07M43.17 15.23c-.02-.15.03-.31.1-.4 0-.01.01-.01.02 0s.01.01 0 .02c-.06.08-.11.23-.12.38M32.26 13.65v-.03c.06-.01.19-.03.22-.12-.01.11-.14.14-.22.15M23.13 23.04c.1-.44-.14-.68-.37-.81l.02-.03c.33.2.46.49.35.84M35.66 12.84c-.09 0-.18-.01-.22-.04l.02-.02c.08.05.38.06.56-.01-.1.04-.24.07-.36.07M36.03 13.7c.19-.11.2-.48.2-.65v-.08h.03v.08c-.01.2-.01.56-.23.65"/><path d="M36.33 13.67c-.09 0-.16-.01-.22-.03l.01-.03c.2.06.67.06.82-.37-.09.34-.38.43-.61.43"/><path d="M36.43 14.36c.12-.1.22-.21.25-.34a.514.514 0 0 0-.07-.4l.02-.02c.06.1.11.26.07.43-.02.13-.12.25-.27.33"/><path d="M37.03 13.97c-.12 0-.23-.02-.32-.05l.01-.03c.18.06.51.08.68-.06.1-.08.14-.2.12-.35.05.16.01.29-.1.37-.09.09-.24.12-.39.12"/><path d="M38 14.25c-.23 0-.56-.17-.68-.33l.02-.02c.13.19.58.38.77.3.08-.04.11-.12.08-.26.07.18 0 .25-.06.28-.04.02-.09.03-.13.03M36.71 14.69c-.04 0-.09 0-.13-.02l.01-.03c.18.04.38-.01.49-.14.08-.09.16-.26.07-.54.13.29.04.46-.04.56a.56.56 0 0 1-.4.17"/><path d="M38.67 14.5c-.11 0-.23-.02-.33-.05-.14-.04-.29-.11-.31-.2l.03-.01c.01.06.13.13.29.18.21.06.48.08.59-.03.05-.04.06-.11.03-.19.05.09.04.16-.01.21-.07.06-.17.09-.29.09"/><path d="M39.35 14.79h-.06c-.18-.01-.42-.1-.51-.31l.03-.01c.08.19.32.27.49.29.18.02.34-.04.41-.14.05-.08.04-.19-.03-.32.12.16.09.27.05.34-.07.09-.21.15-.38.15"/><path d="M39.85 14.88c-.14 0-.28-.04-.34-.12l.02-.02c.12.14.47.15.67.01.16-.11.18-.29.05-.49.2.28.06.45-.04.52a.69.69 0 0 1-.36.1"/><path d="M40.65 14.9c-.12 0-.27-.04-.41-.15l.02-.02c.23.17.45.16.59.1a.34.34 0 0 0 .2-.27c.01-.15-.1-.3-.3-.43.23.11.34.27.33.43-.01.12-.09.23-.22.29-.05.03-.13.05-.21.05"/><path d="M41.4 14.73c-.11 0-.23-.04-.33-.12l.02-.02c.16.13.35.15.53.06.16-.08.27-.23.27-.36 0-.09-.05-.16-.14-.2.11.02.17.1.17.2 0 .15-.12.31-.29.39-.08.03-.15.05-.23.05M37.29 14.47c-.06 0-.11-.01-.15-.02l.01-.03c.1.03.26.03.39-.04.08-.05.13-.12.16-.21 0 .11-.05.18-.14.23-.09.05-.18.07-.27.07"/><path d="M38.02 14.78c-.04 0-.07 0-.1-.01-.17-.04-.36-.18-.35-.4h.03c-.01.2.16.33.33.37.19.04.42-.03.51-.28a.41.41 0 0 1-.42.32"/><path d="M38.69 14.99c-.21 0-.42-.11-.49-.26l.03-.01c.07.15.3.26.51.24.09-.01.26-.05.31-.24-.01.16-.13.26-.31.27h-.05"/><path d="M39.31 15.11h-.03c-.16-.01-.28-.08-.33-.2l.03-.01c.04.11.15.17.3.18.17.01.37-.06.46-.22-.07.18-.27.25-.43.25"/><path d="M40 15.32c-.21 0-.39-.1-.46-.26l.03-.01c.07.16.27.26.48.24.19-.01.42-.13.5-.41-.06.3-.3.42-.5.43-.02.01-.04.01-.05.01"/><path d="M40.75 15.21c-.12 0-.24-.03-.32-.08l.02-.02c.15.09.41.12.59 0 .09-.06.2-.17.18-.41.05.24-.07.37-.16.43-.1.06-.2.08-.31.08"/><path d="M41.47 15.22a.57.57 0 0 1-.36-.13l.02-.02c.19.15.44.17.6.04.15-.12.17-.33.06-.56.15.23.12.45-.04.58-.08.06-.18.09-.28.09"/><path d="M41.78 15.51l-.01-.03c.11-.02.19-.15.21-.28.02-.13-.02-.23-.11-.27.11.02.16.14.14.27-.02.14-.11.29-.23.31M36.87 15.58l-.01-.02c.21-.11.34-.27.38-.45.04-.18-.02-.38-.17-.57.18.18.23.39.19.58-.04.18-.17.34-.39.46"/><path d="M37.49 15.24c-.1 0-.19-.02-.26-.06l.02-.03c.13.08.33.08.51 0 .19-.08.32-.23.36-.41-.02.19-.15.35-.35.44-.1.04-.19.06-.28.06"/><path d="M37.61 15.9c.16-.23.17-.46-.01-.68l.02-.02c.19.23.18.49-.01.7"/><path d="M38.4 16.08c.15-.15.18-.31.07-.47a.54.54 0 0 0-.72-.13l-.02-.03a.56.56 0 0 1 .76.14c.1.13.12.33-.09.49"/><path d="M38.31 15.46l-.01-.03c.11-.03.29-.23.31-.45.02.23-.18.44-.3.48M39.25 16.33c.18-.12.27-.22.27-.33-.01-.11-.14-.23-.37-.31-.26-.09-.53-.11-.61-.03l-.02-.02c.09-.1.4-.07.64.02.23.09.38.21.38.34.01.12-.09.23-.29.33"/><path d="M39.18 15.69c.15-.08.23-.17.24-.29 0-.13-.1-.27-.24-.32l.01-.03c.16.06.27.21.27.35-.02.08-.06.22-.28.29M40.42 16.28c.07-.12.07-.22-.02-.29-.18-.16-.68-.18-.87.02l-.02-.02c.21-.21.72-.19.91-.02.1.08.1.2 0 .31"/><path d="M41.03 15.9c.03-.06.05-.1.04-.14-.03-.1-.23-.18-.43-.18-.1 0-.35.03-.43.29l-.03-.01c.06-.19.22-.31.46-.31.21.01.42.09.46.2 0 .05 0 .1-.07.15M39.85 15.86c.17-.17.15-.45.13-.54l.02-.01c.03.1.05.39-.15.55"/><path d="M40.77 15.59c.05-.12.07-.29.03-.38l.03-.01c.04.1.03.28-.06.39M41.4 15.67c.16-.16.1-.33.03-.46l.03-.01c.04.08.16.3-.06.47M33.98 11.65c-.08 0-.15-.02-.21-.05-.15-.09-.23-.3-.23-.63h.03c.01.32.08.52.22.61.14.09.37.06.67-.08-.2.1-.35.15-.48.15"/><path d="M33.98 12.29c-.11 0-.2-.04-.25-.1-.14-.14-.12-.39.04-.6l.03.02c-.15.21-.17.44-.04.57.12.12.38.16.76-.12-.23.17-.4.23-.54.23"/><path d="M33.2 12.08a.7.7 0 0 1-.52-.24l.02-.02c.26.28.62.28.8.13.15-.12.22-.39-.04-.76.3.37.22.65.06.78-.08.07-.19.11-.32.11M34.37 12.78c-.07 0-.14-.02-.19-.05-.13-.08-.17-.24-.14-.46l.03.01c-.04.2.01.35.12.43.13.09.34.06.52-.06-.11.08-.23.13-.34.13M33 12.63c-.09 0-.18-.02-.26-.06-.25-.11-.44-.37-.49-.66l.03-.01c.05.28.23.53.47.64.2.09.42.07.62-.05-.11.1-.24.14-.37.14"/><path d="M33.46 13.21c-.03 0-.06 0-.09-.01-.3-.04-.49-.28-.49-.59h.03c0 .37.25.53.46.57.28.04.62-.1.74-.51a.65.65 0 0 1-.65.54"/><path d="M34.34 13.54h-.02c-.17 0-.4-.08-.56-.41l.03-.01c.15.32.38.39.54.4.26.02.55-.16.69-.4-.12.25-.41.42-.68.42M33.65 12.59c-.07 0-.14-.01-.2-.04-.17-.07-.3-.23-.41-.48l.03-.01c.1.24.23.39.39.46.16.06.35.04.58-.05-.14.08-.27.12-.39.12M31.82 12.31c-.08 0-.16-.01-.24-.04-.18-.06-.34-.21-.38-.36l.03-.01c.04.12.16.27.36.34.23.08.49.04.73-.12-.15.13-.33.19-.5.19"/><path d="M31.85 12.79a.41.41 0 0 1-.28-.09c-.13-.11-.14-.29-.02-.46l.02.02c-.11.16-.1.32.02.42.17.15.55.14.97-.24-.27.25-.52.35-.71.35"/><path d="M32.4 13.52a.36.36 0 0 1-.11-.02c-.24-.08-.34-.42-.4-.71l.03-.01c.05.28.15.62.38.69.19.06.46-.06.82-.39-.28.3-.53.44-.72.44"/><path d="M33.33 13.81c-.27 0-.5-.21-.65-.39l.02-.02c.14.18.38.38.64.38.21-.01.4-.14.58-.4-.16.28-.36.42-.58.43h-.01zM34.66 14.21c-.12 0-.22-.03-.28-.1-.1-.1-.14-.29-.12-.59h.03c-.02.3.02.47.11.57.07.07.16.09.3.09.3-.02.56-.27.7-.47-.11.23-.39.48-.7.5h-.04"/><path d="M35.16 14.86c-.1 0-.18-.03-.24-.06-.19-.1-.3-.33-.3-.61h.03c-.01.27.1.49.28.58.22.12.53.05.88-.19-.27.22-.49.28-.65.28"/><path d="M35.64 15.62c-.21 0-.39-.07-.53-.21-.17-.17-.24-.41-.16-.61l.03.01c-.07.18-.01.42.16.58.23.23.59.27.99.11-.18.09-.34.12-.49.12M33.55 14.33c-.08 0-.15-.02-.21-.05-.17-.09-.25-.28-.23-.52h.03c-.02.22.05.41.21.49.23.12.57.01.93-.31-.26.26-.52.39-.73.39M34.02 14.9c-.06 0-.12-.01-.17-.03-.24-.09-.36-.34-.38-.54h.03c.01.19.13.43.36.52.16.06.44.05.81-.33-.26.29-.48.38-.65.38"/><path d="M34.33 15.55c-.08 0-.15-.02-.22-.05-.21-.1-.32-.34-.3-.65h.03c-.02.3.08.52.28.62.24.11.57.01.85-.26-.2.22-.43.34-.64.34M32.85 14.34h-.02v-.03c.14.02.25-.11.33-.21-.05.12-.16.24-.31.24M33.19 14.86h-.04l.01-.03c.13.02.34-.09.41-.23-.05.14-.24.26-.38.26"/><path d="M33.71 15.77c-.1 0-.19-.03-.24-.08l.02-.02c.07.07.22.09.38.05.16-.04.28-.12.31-.21-.01.13-.17.21-.3.24-.07.01-.12.02-.17.02"/><path d="M34.64 16.15c-.26 0-.5-.17-.62-.47l.03-.01c.12.28.35.45.6.45.29 0 .55-.21.69-.56-.13.37-.4.59-.7.59z"/><path d="M35.93 16.34c-.35 0-.61-.18-.73-.52l.03-.01c.15.42.53.59 1.04.48-.12.04-.24.05-.34.05"/><path d="M35.75 17.01c-.09 0-.18-.03-.25-.09-.18-.15-.19-.46-.03-.72l.02.02c-.15.25-.14.54.03.68.18.15.47.09.77-.17-.18.19-.38.28-.54.28"/><path d="M36.33 17.73c-.21 0-.4-.11-.53-.27a.631.631 0 0 1-.15-.47h.03c-.02.15.04.31.15.45.13.16.32.27.52.29h-.02M34.86 16.91c-.12 0-.23-.03-.32-.09-.22-.14-.31-.43-.26-.79h.03c-.05.35.04.63.24.77.21.14.52.11.83-.07-.18.12-.36.18-.52.18"/><path d="M33.89 16.51c-.15 0-.29-.04-.39-.12l.02-.02c.17.14.48.16.77.04-.13.07-.27.1-.4.1M35.09 17.61c-.07 0-.14-.02-.2-.05-.23-.11-.33-.4-.25-.7l.03.01c-.08.29.02.56.24.67.18.09.48.06.77-.3-.2.27-.41.37-.59.37"/><path d="M34.39 17.08c-.16 0-.3-.05-.41-.14a.589.589 0 0 1-.23-.45h.03c0 .16.09.32.22.43.11.09.32.19.63.13-.09.01-.16.03-.24.03M36.23 18.67c-.31-.14-.38-.34-.39-.47-.01-.19.1-.37.3-.51l.02.02c-.19.13-.3.3-.29.48.01.19.13.35.36.48"/><path d="M35.86 18.18c-.41-.01-.6-.21-.62-.61h.03c.01.39.19.58.59.61"/><path d="M34.85 18.18a.38.38 0 0 1-.31-.14c-.13-.15-.13-.42.15-.67l.02.02c-.26.24-.27.49-.15.64.13.16.43.21.78-.06-.18.15-.34.21-.49.21"/><path d="M35.49 18.79c-.06 0-.13-.01-.18-.04-.18-.08-.33-.31-.23-.63l.03.01c-.09.3.04.51.22.59.17.08.44.05.63-.26-.13.24-.31.33-.47.33M34.34 17.81c-.15 0-.28-.06-.37-.18-.13-.18-.15-.44-.04-.74l.03.01c-.1.29-.09.55.04.71.1.13.27.2.47.18-.04.02-.09.02-.13.02"/><path d="M33.65 17.2a.4.4 0 0 1-.27-.09.43.43 0 0 1-.17-.33h.03c.01.13.06.24.16.31.12.08.29.11.48.07-.09.03-.16.04-.23.04"/><path d="M33.72 17.77c-.13 0-.24-.04-.31-.12-.11-.12-.1-.3 0-.51l.03.01c-.1.19-.1.36-.01.47.12.13.36.16.61.06-.1.06-.22.09-.32.09M35.99 19.38c-.22-.02-.35-.1-.42-.2-.06-.1-.07-.23-.02-.41l.03.01c-.05.17-.04.3.01.39.07.1.19.17.4.21"/><path d="M35.44 20.31a.605.605 0 0 1-.31-.58c.03-.22.19-.42.45-.54l.01.03c-.26.12-.41.3-.44.52-.01.2.09.41.29.57"/><path d="M35.25 19.49a.446.446 0 0 1-.29-.39c-.02-.18.05-.36.19-.49l.02.02c-.13.12-.2.29-.18.46.02.17.11.32.26.4M33.02 17.78c-.16 0-.25-.09-.3-.15-.17-.2-.16-.54.01-.71l.02.02c-.16.16-.16.47 0 .67.15.19.39.19.66.01-.16.12-.28.16-.39.16"/><path d="M34.74 18.86c-.18 0-.33-.08-.4-.22-.1-.2-.03-.46.18-.63l.02.02c-.2.16-.27.41-.18.6.1.19.34.26.63.19-.08.02-.17.04-.25.04"/><path d="M34.22 18.59c-.2 0-.34-.06-.41-.17-.1-.14-.1-.37.02-.68l.03.01c-.11.31-.12.52-.02.66.08.12.24.18.5.18h-.12M32.4 17.9a.32.32 0 0 1-.24-.11.621.621 0 0 1-.15-.46c.02-.17.11-.32.26-.44l.02.02c-.15.11-.24.26-.25.42-.02.18.06.35.14.44.07.08.17.11.28.09.12-.02.23-.11.28-.23a.33.33 0 0 1-.28.25c-.02.02-.04.02-.06.02"/><path d="M31.83 17.69a.51.51 0 0 1-.43-.23c-.16-.23-.14-.55.07-.82l.02.02c-.2.25-.22.56-.07.78.14.2.39.27.65.19a.43.43 0 0 1-.24.06M33.57 19.3c-.14 0-.27-.05-.33-.13a.432.432 0 0 1-.08-.39c.06-.21.29-.42.58-.53l.01.03c-.29.1-.51.3-.57.51a.37.37 0 0 0 .08.36c.07.08.23.14.43.1.16-.03.46-.16.58-.65-.06.37-.28.62-.57.68-.04.02-.08.02-.13.02"/><path d="M33.27 18.63c-.24-.06-.38-.19-.43-.35-.05-.16-.01-.33.12-.52l.02.02c-.12.18-.16.35-.12.49.05.15.19.27.41.36"/><path d="M32.58 19.08c-.1-.35.11-.52.35-.66l.01.02c-.23.14-.43.3-.36.64"/><path d="M32.63 18.69c-.3-.11-.4-.4-.31-.82l.03.01c-.09.4 0 .68.28.81"/><path d="M31.86 18.94c-.09-.18-.08-.32-.01-.42.08-.11.26-.16.49-.14v.03c-.22-.02-.38.03-.46.13-.08.09-.08.22-.02.4"/><path d="M31.87 18.51c-.18-.07-.3-.17-.36-.31-.07-.16-.05-.36.05-.57-.07.22-.09.41-.03.56.06.14.17.23.34.3v.02z"/><path d="M30.91 18.72c-.03-.34.2-.54.62-.56v.03c-.4.01-.62.2-.62.53M31.01 17.47c-.05 0-.1 0-.14-.02a.358.358 0 0 1-.25-.19.657.657 0 0 1-.01-.48c.06-.17.17-.29.32-.35l.01.03c-.14.06-.24.18-.3.34-.06.16-.06.33 0 .46.05.11.16.16.23.18.16.04.34.01.48-.08-.09.07-.22.11-.34.11"/><path d="M30.4 16.95a.48.48 0 0 1-.41-.24c-.11-.17-.15-.43.02-.62l.02.02c-.16.18-.12.42-.02.58.1.16.3.3.57.22-.05.03-.12.04-.18.04"/><path d="M29.73 16.73c-.2 0-.37-.09-.48-.24a.572.572 0 0 1 0-.65l.02.02c-.13.18-.13.43 0 .62.14.21.41.29.72.21-.08.02-.17.04-.26.04M30.03 18.5c-.03-.21.04-.39.2-.47.22-.11.52 0 .82.3-.3-.27-.59-.38-.8-.27-.15.07-.22.24-.19.44h-.03z"/><path d="M30.54 18c-.06-.21.03-.46.2-.62l.02.02c-.16.15-.25.39-.22.6M28.92 16.47c-.18 0-.33-.07-.43-.19-.13-.17-.13-.42.01-.66l.02.02c-.14.23-.14.47-.01.63.14.18.41.24.72.15-.11.03-.22.05-.31.05M30.27 18.01a.62.62 0 0 1-.33-.51c-.01-.2.08-.41.27-.6l.02.02c-.19.19-.28.38-.27.58.02.19.13.37.31.51"/><path d="M29.79 18.41c-.33-.11-.43-.41-.38-.62.04-.18.2-.38.53-.38v.03c-.27 0-.46.14-.5.36-.04.19.05.47.35.61"/><path d="M29.56 17.54a.454.454 0 0 1-.35-.4c-.02-.19.07-.39.22-.49l.02.02a.51.51 0 0 0-.21.46c.02.18.13.33.32.41M28.86 18.14c-.04-.14.01-.26.12-.34.12-.09.3-.1.45-.03l-.01.03a.417.417 0 0 0-.42.02.36.36 0 0 0-.14.32"/><path d="M28.11 17.92c-.06-.26.06-.46.27-.51.21-.05.5.05.64.39l-.02.01c-.14-.33-.41-.42-.61-.37-.15.04-.31.18-.28.48"/><path d="M28.64 17.44c.11-.28.47-.36.57-.38l.01.03c-.11.02-.46.1-.58.35"/><path d="M28.85 17.21c-.15-.02-.27-.16-.32-.33-.04-.17 0-.34.13-.48l.02.02c-.12.13-.16.29-.12.45.04.15.16.29.29.34M28.2 16.04c-.15 0-.26-.04-.33-.12-.09-.09-.12-.24-.09-.44h.03c-.03.2 0 .33.08.42.09.1.26.14.5.12-.07.01-.13.02-.19.02"/><path d="M28.36 16.65c-.19 0-.33-.06-.4-.16-.09-.12-.08-.29 0-.5l.03.01c-.08.21-.09.36-.01.48.09.13.28.19.55.17-.06-.01-.12 0-.17 0"/><path d="M28.28 17.45a.551.551 0 0 1-.35-.42c-.03-.16.02-.32.14-.46l.02.02c-.12.14-.16.29-.13.44.03.16.15.32.32.42"/><path d="M27.52 17.84c-.13-.15-.15-.45-.02-.65.07-.1.19-.22.44-.19l-.01.03c-.23-.03-.35.08-.41.17-.11.18-.11.46 0 .64M27.5 16.4a.42.42 0 0 1-.33-.16.444.444 0 0 1-.05-.38c.05-.19.2-.36.39-.44l.01.03c-.18.08-.32.24-.37.42-.04.13-.02.26.05.35.18.25.52.15.7.03-.1.08-.25.15-.4.15"/><path d="M27.56 17.15a.526.526 0 0 1-.38-.34c-.05-.15-.01-.31.1-.48l.02.01c-.11.16-.14.32-.1.46.06.15.19.28.36.35M26.71 16.08h-.01c-.25 0-.44-.12-.51-.3a.381.381 0 0 1 .07-.41l.02.02c-.09.1-.12.25-.07.38.07.17.25.27.49.28.19-.01.35-.08.45-.22.08-.13.1-.29.04-.42.09.13.07.3-.02.44-.1.15-.27.23-.46.23"/><path d="M26.99 16.77c-.22 0-.33-.08-.38-.16-.1-.14-.1-.34 0-.55l.03.01c-.09.21-.09.39 0 .52s.28.19.55.16c-.08.02-.14.02-.2.02M26.78 17.8c-.11-.16-.1-.31 0-.41.14-.14.43-.17.67-.06l-.01.03c-.23-.11-.51-.08-.64.05-.08.1-.09.24-.02.39"/><path d="M26.8 17.41a.57.57 0 0 1-.1-.73l.02.02c-.15.23-.08.54.08.71M26.35 17.87c-.09-.15-.09-.29-.04-.39.06-.11.18-.18.37-.21l.01.03c-.18.03-.29.1-.35.19-.05.1-.05.23.01.38"/><path d="M25.81 18.01c-.12-.11-.13-.24-.06-.34.1-.15.34-.21.55-.15l-.01.03c-.19-.06-.42 0-.52.13-.06.1-.04.22.04.33"/><path d="M25.41 18.25c-.17-.15-.13-.29-.09-.36.08-.15.27-.23.43-.2v.03a.391.391 0 0 0-.4.19c-.07.11-.05.23.06.34"/><path d="M25 18.59c-.11-.05-.15-.15-.12-.24.04-.17.23-.31.4-.35l.01.03c-.16.04-.35.17-.38.33-.02.08.01.16.09.23M26.37 17.44a.576.576 0 0 1 .21-.89l.01.03c-.15.07-.25.18-.29.32-.06.17-.03.37.07.54"/><path d="M26.27 16.97c-.31-.08-.49-.33-.49-.6a.6.6 0 0 1 .41-.57l.01.03c-.24.09-.4.3-.4.55.01.25.19.48.47.59"/><path d="M25.84 17.61c-.13-.09-.17-.24-.15-.39.03-.17.14-.32.31-.42l.02.03c-.16.09-.27.24-.29.4-.03.14.01.27.11.38M25.73 16.25c-.28 0-.41-.19-.44-.37-.03-.17.03-.33.13-.37l.01.03c-.09.03-.14.18-.11.34.03.19.16.38.49.37h-.08"/><path d="M25.12 16.46c-.08 0-.15-.02-.22-.05a.474.474 0 0 1-.27-.35c-.01-.13.05-.24.17-.32l.02.02c-.11.07-.16.18-.15.3.01.14.11.27.25.33.2.09.46.04.7-.14a.76.76 0 0 1-.5.21"/><path d="M25.69 17.11c-.18 0-.32-.07-.4-.18-.11-.15-.1-.35-.08-.49l.03.01c-.03.13-.04.32.07.46.08.11.23.18.43.19-.02.01-.03.01-.05.01"/><path d="M25.47 17.74c-.27 0-.45-.15-.48-.39-.03-.22.09-.45.27-.51l.01.03c-.17.06-.27.27-.25.48.03.22.2.37.47.39h-.02zM24.35 16.7h-.03c-.15-.01-.27-.08-.3-.19-.04-.1.01-.22.13-.33l.02.02c-.11.1-.15.2-.12.29.03.09.15.16.28.17.2.02.39-.1.49-.31-.1.23-.27.35-.47.35"/><path d="M23.85 17.36c-.16 0-.29-.11-.35-.22-.05-.1-.05-.19.01-.26l.02.02c-.05.06-.05.14 0 .23.06.11.2.22.36.2.12-.01.36-.11.51-.65-.13.55-.38.66-.51.67-.01 0-.03.01-.04.01M24.99 17.11c-.32 0-.49-.16-.51-.45h.03c.02.28.19.43.51.45h-.03M24.9 18.3c-.26-.03-.41-.2-.4-.41.01-.21.19-.45.5-.5v.03c-.3.05-.47.27-.48.47 0 .19.14.35.38.41"/><path d="M24.42 17.73c-.11 0-.22-.04-.3-.12a.37.37 0 0 1-.13-.31h.03c-.01.11.03.21.12.29.11.1.26.14.42.12-.05.02-.09.02-.14.02M24.63 19.01c-.14 0-.21-.1-.22-.2-.03-.2.12-.46.42-.53l.01.03c-.29.06-.43.31-.4.5.02.13.13.22.28.19-.04 0-.06.01-.09.01"/><path d="M24.48 19.62c-.19-.06-.32-.2-.33-.38-.02-.18.09-.36.27-.45-.16.11-.26.28-.24.45.01.17.13.3.31.35l-.01.03z"/><path d="M24.24 20.01c-.04 0-.09-.01-.13-.03-.1-.04-.18-.19-.2-.36-.02-.2.06-.37.22-.46l.01.03a.45.45 0 0 0-.21.43c.01.16.09.3.18.33.09.03.17.03.23-.01.05-.03.09-.09.1-.16.02.08-.02.15-.08.18-.03.04-.07.05-.12.05"/><path d="M24.27 20.64a.4.4 0 0 1-.29-.12c-.07-.08-.16-.27.05-.61-.13.26-.14.47-.03.59.11.12.29.13.37.09.03-.01.06-.04.05-.08h.03c.01.05-.02.09-.07.11a.36.36 0 0 1-.11.02"/><path d="M24.24 21.18c-.06 0-.12-.02-.17-.05-.14-.1-.21-.34-.04-.59l.02.02c-.15.24-.1.45.04.55.11.08.29.08.43-.11-.08.13-.19.18-.28.18"/><path d="M24.42 21.61a.367.367 0 0 1-.35-.49l.03.01c-.05.16.01.32.15.41.11.07.3.09.46-.07-.1.1-.2.14-.29.14M23.33 17.86c-.1 0-.19-.03-.24-.09-.05-.06-.06-.13-.02-.21l.03.01c-.03.06-.03.13.01.17.07.08.22.1.36.06.18-.06.3-.23.32-.47.01.25-.12.43-.31.5-.05.02-.1.03-.15.03"/><path d="M23.18 18.51c-.08 0-.16-.02-.22-.06-.12-.08-.16-.21-.12-.38l.03.01c-.04.16 0 .28.11.35.14.09.37.06.52-.06.1-.08.24-.27.11-.62.13.26.08.5-.09.64-.1.08-.23.12-.34.12"/><path d="M23.88 18.26c-.1 0-.19-.02-.24-.06l.01-.02c.1.06.3.08.47 0 .12-.05.28-.17.34-.45-.04.29-.2.42-.33.47-.08.04-.17.06-.25.06"/><path d="M24.44 18.65c-.16-.04-.32-.25-.36-.44l.03-.01c.04.18.19.38.33.45M24.09 19.01a.65.65 0 0 1-.48-.21.478.478 0 0 1-.13-.42l.03.01c-.02.14.02.28.13.4.14.15.35.24.58.22-.05-.01-.09 0-.13 0"/><path d="M23.89 19.57c-.28 0-.4-.13-.45-.23-.09-.2-.01-.46.1-.62l.02.02c-.11.15-.19.4-.1.59.07.14.23.23.46.24h-.03"/><path d="M22.98 19.2c-.09 0-.17-.02-.23-.06-.14-.07-.21-.2-.17-.32l.03.01c-.04.1.02.21.15.28.18.1.47.08.67-.18-.12.19-.29.27-.45.27"/><path d="M22.65 19.79c-.03 0-.06 0-.08-.01-.12-.03-.19-.14-.17-.23l.03.01c-.02.08.05.17.15.19.18.05.44-.08.61-.62-.14.49-.36.66-.54.66"/><path d="M23.37 19.86c-.2 0-.36-.13-.42-.25l.02-.01c.06.11.21.23.39.23.1.01.28-.04.41-.27-.1.25-.28.3-.4.3"/><path d="M23.75 20.4c-.12 0-.24-.05-.32-.14a.404.404 0 0 1-.09-.42l.03.01c-.05.14-.02.28.08.39.11.12.29.17.46.13-.05.02-.11.03-.16.03"/><path d="M23.16 20.37a.53.53 0 0 1-.27-.08.499.499 0 0 1-.24-.51h.03c-.03.2.05.38.22.48.18.11.39.1.55-.01a.4.4 0 0 1-.29.12"/><path d="M22.77 20.59c-.08 0-.15-.02-.22-.05a.462.462 0 0 1-.25-.57l.03.01c-.08.29.07.47.24.54.19.09.47.05.63-.18-.1.18-.27.25-.43.25"/><path d="M23.59 20.99c-.09 0-.19-.02-.27-.06-.18-.09-.3-.24-.32-.4h.03c.01.15.13.29.3.38.21.1.44.08.63-.04-.11.07-.24.12-.37.12M22.35 20.95c-.1 0-.2-.03-.24-.07-.03-.03-.04-.05-.03-.08l.03.01c-.01.02.01.04.02.05.06.06.23.09.36.05.1-.03.22-.11.26-.33-.01.23-.14.32-.25.35-.05.02-.1.02-.15.02"/><path d="M22.89 21.26h-.04a.523.523 0 0 1-.42-.33l.03-.01c.07.18.22.29.39.31.2.02.38-.09.51-.3-.1.22-.28.33-.47.33"/><path d="M23.74 21.54c-.08 0-.17-.02-.24-.05a.51.51 0 0 1-.3-.37l.03-.01c.03.15.13.28.28.35.19.08.41.07.61-.05-.12.09-.25.13-.38.13M24.75 22.25a.42.42 0 0 1-.21-.06.592.592 0 0 1-.26-.63l.03.01c-.06.27.09.5.25.6.15.09.3.08.42-.02a.32.32 0 0 1-.23.1"/><path d="M24.02 22.13c-.11 0-.23-.03-.32-.1a.48.48 0 0 1-.2-.55l.03.01c-.06.21.01.4.19.52.17.11.45.15.65-.01-.1.09-.23.13-.35.13"/><path d="M23.2 21.86c-.09 0-.18-.03-.26-.08-.16-.11-.25-.32-.23-.56h.03c-.02.23.06.43.22.53.15.1.34.1.54.01-.1.07-.2.1-.3.1"/><path d="M22.42 21.7a.66.66 0 0 1-.4-.13c-.12-.09-.16-.2-.12-.31l.03.01c-.05.13.04.23.11.27.19.14.55.18.75.02-.1.1-.23.14-.37.14"/><path d="M21.7 22.22c-.1 0-.17-.03-.22-.08l.02-.02c.07.08.21.1.36.05.19-.06.42-.22.45-.49-.01.29-.25.46-.44.52-.06.01-.12.02-.17.02"/><path d="M22.64 22.25c-.2 0-.39-.11-.49-.23l.02-.02c.11.13.33.25.55.22.17-.03.31-.16.39-.37-.08.29-.26.37-.38.39-.04.01-.06.01-.09.01"/><path d="M23.37 22.55c-.03 0-.05 0-.07-.01a.436.436 0 0 1-.38-.41h.03c0 .18.15.35.35.38.24.04.45-.12.55-.43-.1.41-.34.47-.48.47M25.08 22.76c-.14 0-.26-.08-.34-.2a.41.41 0 0 1-.06-.33l.03.01c-.03.09-.01.21.05.31.08.12.2.19.34.21h-.02"/><path d="M24.54 22.55a.46.46 0 0 1-.3-.12.359.359 0 0 1-.14-.33l.03.01c-.02.09.03.21.13.3.13.12.31.15.46.09a.29.29 0 0 1-.18.05M25.03 23.19c-.09 0-.16-.04-.21-.12a.526.526 0 0 1-.04-.46l.03.01a.48.48 0 0 0 .04.44c.06.08.14.12.26.13-.03-.01-.05 0-.08 0"/><path d="M24.99 23.62c-.14 0-.24-.08-.29-.2-.05-.13 0-.28.12-.38l.02.02c-.11.09-.15.23-.11.35.04.12.16.2.31.2-.02.01-.04.01-.05.01"/><path d="M24.85 24.1c-.19 0-.29-.12-.33-.23-.05-.15-.01-.35.18-.49l.02.02c-.18.12-.22.32-.17.45.04.12.16.24.39.23-.04.02-.07.02-.09.02M24.04 22.85h-.05c-.17-.02-.34-.16-.34-.43h.03c0 .25.16.38.31.4.15.02.33-.06.4-.29-.03.23-.19.32-.35.32"/><path d="M24.52 23.34a.383.383 0 0 1-.37-.52l.03.01c-.04.13-.01.27.07.37.1.11.26.15.43.11a.38.38 0 0 1-.16.03M24.32 26.44c-.04 0-.07-.01-.09-.04l.03-.02c.03.05.11.03.18 0 .1-.06.18-.16.13-.27-.04-.1-.15-.11-.24-.09-.09.03-.16.1-.14.2-.05-.11.04-.19.13-.22.1-.03.23-.01.28.1.06.12-.03.24-.14.3-.06.03-.1.04-.14.04"/><path d="M24.51 26.02h-.03c.02-.2-.09-.3-.19-.33a.3.3 0 0 0-.33.21c.04-.2.21-.27.34-.24.11.03.23.14.21.36"/><path d="M24.13 25.7l-.03-.01c.03-.05.03-.1-.01-.16a.274.274 0 0 0-.23-.14c-.08-.02-.14.02-.19.12.02-.1.1-.15.19-.15.1 0 .21.06.26.15.04.07.04.14.01.19"/><path d="M23.82 25.4l-.03-.01c.03-.08.02-.16-.04-.21-.06-.06-.15-.09-.22-.06-.04.01-.09.04-.1.12-.02-.08.02-.13.09-.15.08-.03.19 0 .25.07.07.06.09.14.05.24"/><path d="M23.68 25.1c.03-.09.04-.15.01-.21-.04-.08-.15-.1-.25-.1-.06.01-.1.03-.12.06l-.03-.01c.02-.05.07-.07.14-.08.1-.01.23.03.27.12.05.05.06.12-.02.22M24.08 25.48l-.02-.02c.1-.09.06-.21-.01-.3-.08-.1-.22-.17-.33-.11.11-.1.26-.02.35.09.07.09.12.23.01.34M25.53 26.71c-.12 0-.27-.06-.32-.21-.05-.16-.05-.28 0-.36.05-.09.15-.11.22-.12v.03c-.06.01-.15.03-.2.11-.05.08-.05.19 0 .34.05.13.18.19.29.19.09 0 .15-.03.17-.08.02.06-.06.1-.16.1z"/><path d="M25.08 26.77a.27.27 0 0 1-.24-.16c-.1-.21 0-.33.05-.38.09-.08.23-.1.31-.04l-.02.03c-.07-.05-.19-.03-.27.04-.09.08-.11.21-.05.34.06.13.17.15.23.15.09 0 .18-.06.21-.12 0 .08-.1.15-.21.15h-.01z"/><path d="M24.51 26.76c-.1 0-.18-.03-.21-.08l.02-.01c.03.05.11.08.21.07.12-.01.27-.06.31-.14-.02.11-.17.17-.31.17h-.02zM24.87 26.29c-.04-.02-.1-.06-.15-.07-.05-.01-.09-.01-.12.01l-.02-.02c.04-.02.09-.03.14-.02.06.02.13.06.15.1M24.71 24.54c-.13 0-.21-.08-.26-.17-.07-.14-.05-.34.1-.43l.01.02c-.14.09-.15.27-.09.4.06.12.19.22.39.15-.05.02-.1.03-.15.03"/><path d="M24.66 24.91c-.1 0-.18-.06-.23-.14-.08-.12-.09-.32.04-.41l.02.02c-.11.08-.1.26-.03.37.09.14.23.17.39.09-.07.06-.13.07-.19.07"/><path d="M24.78 25.36c-.12 0-.22-.06-.27-.17-.06-.12-.06-.26.02-.33l.02.02c-.07.06-.07.19-.01.3.07.13.21.19.38.16-.05.01-.1.02-.14.02"/><path d="M24.1 25.21c.08-.17.3-.19.39-.15l-.01.03c-.08-.04-.29-.02-.38.12M24.48 23.81a.35.35 0 0 1-.34-.23.373.373 0 0 1 .09-.39l.02.02a.36.36 0 0 0-.08.36c.05.14.18.23.34.24h-.03"/><path d="M24.41 24.34c-.24 0-.4-.12-.44-.31-.04-.18.04-.36.19-.43l.01.03c-.14.07-.21.23-.18.4.04.19.21.31.46.32-.01-.01-.02-.01-.04-.01"/><path d="M24.36 24.82c-.12 0-.22-.07-.27-.19-.06-.14-.04-.32.05-.39l.02.02c-.08.06-.1.22-.04.35.06.14.19.21.36.18-.04.03-.08.03-.12.03"/><path d="M24.27 25.07c-.08-.05-.07-.21 0-.28l.02.02c-.05.06-.06.2-.02.26M23.72 24.88c.03-.17.23-.28.38-.28v.03c-.15 0-.33.1-.38.25"/><path d="M24 24.63c-.05-.24-.2-.34-.33-.36-.1-.02-.19.02-.21.07l-.03-.01c.03-.07.13-.1.24-.09.14.03.31.14.33.39"/><path d="M23.82 24.32c.01-.14.14-.2.2-.22l.01.03c-.06.01-.18.07-.21.19M24.14 23.61c-.31-.03-.42-.2-.46-.33a.56.56 0 0 1 .14-.53l.02.02c-.11.09-.18.31-.13.5.03.13.14.29.43.34M23.44 23.94h-.03c0-.07.08-.14.19-.17.13-.04.3-.03.39.11-.1-.11-.26-.12-.38-.08-.1.02-.17.08-.17.14"/><path d="M23.52 23.32c-.03 0-.06 0-.08-.01-.12-.03-.24-.11-.28-.19l.03-.01c.03.06.14.14.26.17.06.02.16.02.23-.04-.05.06-.11.08-.16.08M22.14 22.7a.463.463 0 0 1-.47-.49h.03c-.01.13.05.26.14.34.1.09.22.13.36.11.16-.02.23-.1.27-.17a.3.3 0 0 0 0-.29c.08.09.08.21.03.3-.05.1-.16.17-.29.18-.03.02-.05.02-.07.02"/><path d="M22.41 23.21c-.07 0-.13-.04-.19-.11a.332.332 0 0 1 .01-.42l.02.02c-.11.13-.08.29-.01.39.07.09.17.13.27.09-.03.02-.06.03-.1.03M23.12 22.59c-.14-.16-.53-.1-.64-.06l-.01-.03c.13-.05.53-.1.65.09M21.49 22.76c-.11 0-.22-.03-.27-.07-.05-.03-.06-.07-.04-.11l.03.02c-.02.02-.01.05.03.07.13.09.48.11.62-.08-.08.13-.23.17-.37.17"/><path d="M21.98 23.14c-.08 0-.15-.02-.21-.07a.413.413 0 0 1-.12-.34h.03c-.01.1.01.23.11.31.09.08.23.09.42.04-.08.05-.16.06-.23.06"/><path d="M21.85 23.79c-.05 0-.11-.03-.15-.08-.09-.11-.12-.29.03-.45.15-.17.35-.16.47-.08.09.06.13.15.1.22l-.03-.01c.03-.06-.01-.13-.09-.18-.1-.07-.28-.09-.43.07-.15.16-.11.32-.03.42.07.08.16.1.22.06-.02.02-.05.03-.09.03M21.45 23.22c-.09 0-.17-.03-.24-.08-.14-.09-.24-.25-.16-.38l.02.01c-.06.11.03.26.15.34.14.09.36.13.52-.09-.07.15-.18.2-.29.2"/><path d="M20.94 23.67c-.11 0-.21-.06-.26-.15-.06-.1-.08-.24.02-.35l.02.02c-.09.09-.08.23-.02.32s.18.17.34.11c.15-.05.2-.16.22-.24.02-.1 0-.19-.03-.23.06.02.09.13.06.24-.02.08-.08.2-.24.26-.04.02-.08.02-.11.02"/><path d="M20.55 24.05c-.13 0-.23-.1-.27-.21-.04-.11-.03-.23.04-.29l.02.02c-.08.07-.07.18-.04.26.04.1.13.19.24.19.1 0 .18-.04.24-.1.06-.07.08-.16.06-.27.05.11.03.21-.04.29-.06.07-.15.11-.25.11M21.47 23.8a.25.25 0 0 1-.13-.03.236.236 0 0 1-.14-.24h.03c-.01.08.04.16.12.21a.3.3 0 0 0 .34-.06c-.06.09-.14.12-.22.12"/><path d="M20.21 24.18h-.04c-.1-.02-.2-.1-.23-.2-.01-.06 0-.11.05-.15l.02.02c-.05.04-.04.08-.04.12.02.09.11.16.2.18.1.02.19-.03.26-.14-.06.14-.16.17-.22.17M21.54 24.1c-.06 0-.12-.05-.16-.1-.05-.07-.07-.18-.01-.24l.02.02c-.05.05-.03.14.01.2.05.07.13.13.23.08-.03.03-.06.04-.09.04"/><path d="M21.07 24.2c-.04 0-.07 0-.11-.01-.12-.03-.21-.12-.23-.21h.03c.01.08.09.16.2.19.16.05.32-.02.43-.16-.06.12-.19.19-.32.19"/><path d="M21.11 24.47c-.05 0-.09-.03-.12-.07-.06-.07-.07-.17-.04-.23l.03.01c-.03.06-.01.14.03.2s.11.09.16.07c-.02.01-.04.02-.06.02M24.95 25.73a.41.41 0 0 1-.22-.07c-.13-.09-.17-.24-.11-.36l.03.01c-.07.13 0 .25.1.32.13.1.35.11.52-.07-.09.12-.21.17-.32.17"/><path d="M25.11 26.15c-.14-.05-.23-.27-.16-.43l.03.01c-.07.15.02.35.13.42"/><path d="M24.55 26.04l-.03-.01a.36.36 0 0 1 .16-.19c.09-.05.18-.05.27-.03-.08 0-.18.01-.26.05-.07.06-.13.12-.14.18M24.31 25.68l-.03-.01c.02-.07.07-.14.15-.19.07-.04.13-.05.19-.04-.05.02-.12.03-.17.06-.07.05-.13.12-.14.18M35.16 20.81c-.09 0-.18-.04-.25-.11-.14-.15-.19-.39-.12-.56.06-.14.19-.22.36-.22v.03c-.21 0-.3.11-.33.2-.07.16-.02.39.12.53.11.11.25.14.4.08-.06.03-.12.05-.18.05"/><path d="M35.15 21.12c-.06 0-.11-.02-.16-.07-.1-.1-.13-.25-.06-.36l.03.02c-.07.11-.02.25.06.32.09.08.21.09.32.01-.06.05-.12.08-.19.08"/><path d="M35.7 21.63c-.17 0-.35-.11-.44-.26-.06-.1-.06-.2-.01-.29l.02.02c-.04.08-.04.17.01.26.08.14.25.24.41.24.1 0 .23-.04.32-.21-.06.2-.18.23-.31.24"/><path d="M36.28 21.89c-.09 0-.19-.02-.27-.06-.13-.06-.21-.15-.21-.24h.03c0 .08.07.16.19.22.14.07.35.09.47-.01.08-.06.11-.17.08-.32.07.19 0 .29-.06.34a.35.35 0 0 1-.23.07"/><path d="M37.04 22.09c-.21 0-.45-.09-.55-.27l.03-.02c.13.22.48.31.7.23.15-.05.22-.18.2-.36.07.26-.09.35-.19.39-.06.02-.13.03-.19.03"/><path d="M37.79 22.28c-.22 0-.47-.1-.56-.23l.02-.02c.1.15.47.27.7.19.13-.04.19-.15.19-.29.04.2-.08.28-.18.32-.05.02-.11.03-.17.03M34.6 19.32c-.09 0-.18-.02-.26-.05a.474.474 0 0 1-.26-.26l.04-.01c.04.11.13.19.24.24.17.07.41.06.64-.03-.13.08-.27.11-.4.11M33.54 19.92c-.07 0-.14-.02-.2-.07.11.05.22.06.31.02.16-.07.27-.28.28-.43.01-.1-.02-.17-.08-.2l.02-.03c.07.04.1.12.09.23-.01.17-.13.38-.3.46-.04.01-.08.02-.12.02"/><path d="M34.11 19.76c-.08 0-.17-.02-.25-.06l.01-.03c.14.07.3.08.44.02.14-.07.23-.19.28-.37a.49.49 0 0 1-.27.4c-.06.02-.14.04-.21.04"/><path d="M34.9 19.95a.63.63 0 0 1-.35-.1.399.399 0 0 1-.15-.22h.03c.01.07.06.15.13.2.14.1.36.13.58.09-.07.02-.16.03-.24.03M33.46 20.6c-.06 0-.12-.03-.16-.08.07.04.13.06.21.05.13-.03.27-.18.31-.35.04-.14 0-.27-.11-.36l.02-.02c.11.1.16.23.12.39-.04.18-.19.34-.33.37h-.06"/><path d="M34.07 20.16c-.09 0-.17-.02-.23-.06l.02-.02c.1.07.27.08.42.02.08-.03.21-.11.23-.29.01.15-.08.26-.22.32-.07.02-.15.03-.22.03"/><path d="M34.72 20.39c-.25 0-.38-.1-.42-.3h.03c.03.19.18.29.45.3h-.06"/><path d="M34.2 20.63c-.18 0-.36-.09-.46-.23l.02-.02c.1.14.27.22.45.21.16-.01.29-.09.37-.22-.06.16-.2.24-.37.25 0 .01-.01.01-.01.01"/><path d="M34.8 20.99c-.11 0-.21-.04-.29-.11a.363.363 0 0 1-.13-.3h.03c-.01.1.03.2.12.27.11.1.26.13.41.11-.05.02-.09.03-.14.03M33.47 21.16c-.03 0-.06-.01-.09-.02l.01-.03c.08.04.16.02.23-.06.12-.13.16-.37.04-.56.15.18.1.44-.02.58-.04.06-.1.09-.17.09M33.69 21.63h-.02v-.03c.09.01.16-.04.2-.12.05-.13.02-.35-.15-.51.2.14.24.38.18.52-.04.08-.12.14-.21.14"/><path d="M34.33 22.02l-.01-.03c.08-.02.12-.09.12-.19-.01-.18-.18-.38-.53-.41.36 0 .54.21.56.4 0 .12-.05.21-.14.23"/><path d="M35.06 22.41l-.01-.03c.07-.02.1-.08.08-.17-.03-.17-.24-.44-.67-.41.45-.06.67.22.7.4.02.11-.02.19-.1.21"/><path d="M35.94 22.6l-.02-.01c.05-.08.03-.18-.06-.27-.15-.17-.46-.27-.71-.14.26-.16.58-.05.73.12.1.1.12.22.06.3M36.41 22.95c-.02 0-.03 0-.05-.01l.01-.03c.06.02.12 0 .17-.06.05-.07.08-.19.02-.3-.05-.09-.2-.22-.61-.17.43-.09.58.06.64.15.07.12.04.26-.02.33-.06.06-.11.09-.16.09"/><path d="M36.89 22.94l-.01-.03c.12-.03.22-.16.2-.26-.03-.11-.21-.14-.5-.09.43-.11.51.02.53.08.03.12-.08.27-.22.3"/><path d="M37.49 22.99c-.02 0-.04 0-.06-.01l.01-.03c.04.02.08.01.1-.02a.21.21 0 0 0 .01-.23c-.04-.07-.15-.17-.47-.09.33-.11.45 0 .49.07.05.09.04.21-.02.26 0 .04-.03.05-.06.05M33.95 21.03c-.08 0-.16-.02-.23-.06l.01-.02c.14.08.34.07.48-.03.12-.08.18-.2.17-.34.04.14-.02.28-.15.36-.08.06-.18.09-.28.09"/><path d="M34.17 21.47c.05-.05.1-.12.12-.2.04-.13.03-.28-.02-.38l.02-.01c.06.1.07.27.02.4-.02.09-.07.16-.14.19"/><path d="M34.46 21.31c-.05 0-.1-.01-.15-.03l.01-.03c.17.07.42.01.56-.28-.09.25-.26.34-.42.34"/><path d="M34.6 21.8c.09-.14.08-.39.02-.52l.03-.01c.06.13.07.39-.05.53"/><path d="M34.83 21.54a.26.26 0 0 1-.15-.04l.01-.03c.07.04.16.05.24.02.11-.04.22-.14.28-.26-.04.15-.15.25-.27.29-.04.02-.07.02-.11.02"/><path d="M35.13 22.14c.07-.09.12-.2.12-.33-.01-.15-.08-.32-.16-.37l.02-.03c.09.06.17.23.17.39 0 .15-.05.27-.15.34"/><path d="M35.36 21.94h-.09v-.03c.21.01.44 0 .59-.21-.12.2-.32.24-.5.24"/><path d="M36.03 22.37c.03-.23-.14-.48-.29-.52l.01-.03c.16.05.35.31.28.55"/><path d="M36.03 22.3v-.03c.18-.02.47-.14.55-.34-.06.22-.36.35-.55.37"/><path d="M36.75 22.53a.548.548 0 0 0-.25-.45l.01-.03c.17.1.26.29.24.48"/><path d="M36.74 22.4v-.03c.19-.01.33-.11.37-.28-.02.18-.17.3-.37.31"/><path d="M37.38 22.59a.522.522 0 0 0-.31-.35l.01-.03c.14.05.29.2.3.38"/><path d="M37.35 22.49l-.01-.03c.11-.02.2-.08.3-.22-.07.16-.17.23-.29.25M37.69 22.87c-.03 0-.06 0-.09-.01.14.01.28-.05.37-.21.09-.15.1-.34.02-.41l.02-.02c.1.1.07.3-.02.45-.07.13-.18.2-.3.2M34.04 11.16c-.17 0-.35-.04-.46-.15-.1-.1-.17-.29.03-.64-.13.28-.14.48-.02.61.2.2.65.16.85.05l.02.02c-.09.07-.26.11-.42.11"/><path d="M34.17 10.59c-.28 0-.52-.12-.61-.28-.1-.2.03-.43.35-.63-.29.22-.41.44-.32.62.11.23.55.35.96.19l.01.03c-.13.05-.26.07-.39.07"/><path d="M33.51 10.72c-.34-.11-.49-.37-.43-.68.06-.31.32-.54.61-.54v.03c-.27 0-.52.22-.58.52-.06.29.09.54.4.67M31.92 10.33a.51.51 0 0 1-.33-.12c-.11-.09-.15-.22-.09-.33l.03.01c-.05.1-.02.21.09.3.15.12.42.16.63 0 .27-.21.25-.81.09-1.03.2.22.21.83-.07 1.05a.57.57 0 0 1-.35.12"/><path d="M31.63 11.02c-.12 0-.23-.03-.32-.1-.11-.09-.15-.21-.11-.36l.03.01c-.04.13 0 .25.1.33.16.12.43.12.62 0 .12-.07.3-.26.21-.65.12.41-.07.6-.2.67-.09.07-.22.1-.33.1"/><path d="M31.53 11.74c-.07 0-.13-.01-.18-.03-.13-.04-.21-.13-.22-.24h.03c.01.1.08.17.2.21.18.06.46.02.63-.16.1-.11.19-.32.04-.66.18.35.09.57-.02.68-.13.14-.32.2-.48.2M32.86 10.93c-.43 0-.65-.26-.69-.32l.02-.02c.05.06.31.38.84.33-.06.01-.12.01-.17.01M32.78 10.18c-.09 0-.18-.02-.25-.06a.276.276 0 0 1-.15-.17l.03-.01c.01.06.06.11.13.15.14.07.34.08.53.01-.09.05-.19.08-.29.08M19.94 24.35h-.02a.255.255 0 0 1-.21-.16c-.02-.08.02-.16.11-.23l.02.02c-.08.06-.11.13-.09.2.02.07.1.13.18.14.1.01.19-.05.24-.17-.04.14-.13.2-.23.2"/><path d="M19.69 24.53h-.02c-.1-.01-.19-.08-.21-.16-.02-.08.02-.16.11-.23l.02.02c-.08.06-.11.13-.09.2.02.07.1.14.18.14.1.01.19-.05.24-.17-.04.13-.12.2-.23.2"/><path d="M19.43 24.7h-.02c-.1-.01-.19-.08-.21-.16-.02-.08.02-.16.1-.23l.02.02c-.08.06-.11.13-.09.2.02.07.1.13.18.14.11.01.19-.05.24-.17-.03.13-.12.2-.22.2"/><path d="M19.13 24.84c-.03 0-.06-.01-.07-.01-.08-.03-.14-.1-.15-.17-.01-.07.04-.14.12-.19l.01.03c-.08.04-.11.1-.11.16.01.06.06.13.13.15.05.02.18.04.32-.13-.09.13-.19.16-.25.16"/><path d="M18.83 24.99c-.03 0-.06-.01-.07-.01-.08-.03-.14-.1-.15-.17-.01-.08.04-.14.12-.19l.01.02c-.08.04-.11.1-.11.16.01.06.06.13.13.15.05.02.18.04.32-.12-.09.13-.19.16-.25.16M20.54 24.38c-.03 0-.05 0-.08-.01-.12-.03-.2-.11-.2-.22h.03c0 .09.07.16.18.19.13.03.31-.02.4-.21a.34.34 0 0 1-.33.25"/><path d="M20.72 24.71c-.06 0-.12-.04-.16-.09-.06-.06-.09-.17-.01-.26l.02.02c-.05.07-.05.15.01.22.05.06.15.11.22.07a.09.09 0 0 1-.08.04"/><path d="M20.25 24.57c-.05 0-.1-.01-.15-.03-.1-.04-.16-.12-.15-.2h.03c-.01.07.04.14.14.17.12.05.29.04.4-.08a.32.32 0 0 1-.27.14"/><path d="M20.36 24.88c-.07 0-.14-.05-.19-.1-.06-.08-.06-.17-.01-.23l.02.02c-.06.08-.01.17.01.2.06.07.16.13.25.09-.02.01-.05.02-.08.02"/><path d="M20.02 24.79c-.06 0-.12-.02-.17-.05a.314.314 0 0 1-.16-.22h.03a.3.3 0 0 0 .14.2c.05.04.17.08.31.02-.04.04-.1.05-.15.05"/><path d="M19.94 25.06c-.08-.01-.14-.08-.15-.17-.01-.07.01-.13.05-.17l.02.02c-.03.03-.05.08-.04.14.01.08.06.15.12.18"/><path d="M19.64 25.01c-.07 0-.13-.03-.16-.05-.09-.07-.14-.17-.12-.24l.03.01c-.02.06.03.16.11.21.05.03.17.1.32 0-.06.05-.13.07-.18.07"/><path d="M19.44 25.19c-.07 0-.11-.04-.13-.09-.02-.07.02-.16.1-.22l.02.02c-.07.06-.11.13-.09.19.02.05.07.09.14.1h-.04"/><path d="M19.26 25.1c-.05 0-.1-.03-.15-.07a.2.2 0 0 1-.06-.17l.03.01c-.01.04.01.1.06.14.05.06.11.09.19.07-.03.02-.05.02-.07.02M18.5 25.13h-.05c-.12-.02-.21-.13-.22-.2 0-.04.01-.07.04-.08l.01.02c-.02.01-.03.03-.02.06.01.06.1.15.2.18.08.02.18 0 .27-.15-.06.14-.16.17-.23.17"/><path d="M18.14 25.32h-.03c-.13-.02-.23-.12-.25-.21-.01-.04.01-.08.05-.1l.01.03c-.03.01-.04.03-.03.07.01.07.11.17.22.18.08.01.19-.02.27-.19-.06.18-.17.22-.24.22M19 25.32c-.07-.01-.09-.07-.07-.14a.25.25 0 0 1 .18-.19l.01.03c-.09.02-.14.1-.16.17-.01.03-.01.09.04.13"/><path d="M18.84 25.26c-.06 0-.12-.03-.16-.06-.05-.04-.07-.09-.06-.13l.03.01c-.01.03.01.06.05.1.06.05.15.09.23.06-.02.02-.05.02-.09.02M18.56 25.42c-.04 0-.08-.03-.11-.08-.03-.07-.02-.18.07-.23l.02.02c-.07.04-.08.13-.05.19.02.05.06.09.14.08-.04.01-.05.02-.07.02M18.08 25.53a.11.11 0 0 1-.11-.08.148.148 0 0 1 .05-.19l.02.02c-.06.05-.06.11-.04.15.02.04.08.09.17.07a.23.23 0 0 1-.09.03"/><path d="M17.67 25.51c-.13 0-.17-.07-.19-.1-.04-.09.01-.2.09-.24l.01.03c-.07.03-.1.12-.07.2.02.04.1.17.45.03a.85.85 0 0 1-.29.08"/><path d="M17.21 25.6c-.03 0-.06-.01-.08-.02a.105.105 0 0 1-.05-.09c0-.06.05-.13.13-.16l.01.03c-.07.03-.11.09-.11.14 0 .03.01.05.03.06.03.02.14.06.41-.1-.13.09-.25.14-.34.14M17.59 25.69c-.03 0-.05-.02-.06-.03-.03-.05.01-.14.05-.18l.02.02c-.03.02-.07.1-.05.14.02.03.06.03.13.01-.03.02-.06.04-.09.04"/><path d="M17.24 25.8a.11.11 0 0 1-.1-.06.125.125 0 0 1 .03-.16l.02.02c-.04.04-.05.09-.03.13.03.05.1.07.18.04-.03.02-.06.03-.1.03M16.81 25.75c-.04 0-.07-.01-.09-.01-.04-.01-.07-.04-.07-.06l.05-.07.01.01-.03.05c.13.07.32.06.46-.1-.1.13-.23.18-.33.18"/><path d="M16.84 25.97c-.03 0-.05-.02-.06-.03-.04-.06-.02-.16.03-.21l.02.02c-.04.04-.06.13-.03.18.03.04.09.03.13.01-.03.02-.06.03-.09.03"/><path d="M16.45 25.95c-.07 0-.12-.02-.14-.05-.02-.03-.01-.06.03-.09l.02.02c-.01.01-.03.03-.02.05.02.04.18.08.43-.03-.13.07-.24.1-.32.1"/><path d="M16.47 26.15c-.03 0-.06-.02-.07-.04-.02-.05.01-.12.08-.18l.02.02c-.06.05-.09.11-.07.15.02.03.07.04.14.03-.04.01-.08.02-.1.02"/><path d="M16.19 26.17c-.07 0-.11-.02-.13-.05-.01-.02-.03-.07.04-.13l.02.02c-.02.02-.06.06-.03.09.03.05.18.06.33 0-.09.05-.17.07-.23.07"/><path d="M16.05 26.41c-.02 0-.03-.01-.05-.02-.03-.02-.05-.06-.04-.09.01-.06.06-.13.15-.17l.01.03c-.08.04-.13.09-.14.14 0 .03.01.05.03.07.03.02.07.02.11 0-.02.03-.05.04-.07.04M24.52 27.06c-.1 0-.2-.04-.24-.1-.03-.04-.03-.08-.02-.12l.03.01c-.02.03-.01.06.01.09.05.06.17.1.28.08.1-.02.19-.07.22-.14.03-.06.02-.12-.03-.19.09.08.08.16.05.21-.04.08-.13.14-.24.16h-.06"/><path d="M24.94 26.99c-.06 0-.12-.02-.16-.05l.02-.02c.09.07.2.05.28.01.1-.05.16-.13.16-.21.03.09-.04.19-.15.24-.05.01-.1.03-.15.03"/><path d="M34.96 7.38c-.74-.37-2.27-1.05-2.7-.5.39-.17 1.56.01 2.52.89l.18-.39z" fill="#fff"/><path d="M34.78 7.8l-.01-.01c-.97-.89-2.11-1.06-2.5-.89.31-.54 1.78.01 2.7.47l-.19.43zm-2.17-.99c.52 0 1.4.25 2.16.94l.18-.38c-.64-.3-1.53-.68-2.14-.68-.25 0-.43.07-.54.2.07-.06.2-.08.34-.08"/><path d="M35.41 7.34c-.85-.99-1.36-.77-1.97-1.11-.58-.32-1.49-.39-1.67.13.84-.41 1.62.22 2.09.3.65.1 1.02.61 1.21.84l.34-.16z" fill="#fff"/><path d="M35.06 7.51l-.05-.06c-.19-.24-.56-.69-1.16-.78-.14-.02-.3-.09-.48-.16-.47-.2-1.08-.39-1.6-.13.07-.27.33-.4.72-.4.32 0 .67.09.96.25.2.11.38.16.57.21.4.11.82.23 1.4.9l-.36.17zm-2.7-1.31c.38 0 .72.14 1.02.27.18.08.34.14.47.16.61.1.98.55 1.18.79l.03.06-.01-.01.34-.15c-.58-.65-.99-.76-1.39-.87-.2-.05-.38-.11-.58-.22-.28-.16-.63-.25-.94-.25-.22 0-.6.05-.71.37.18-.1.38-.15.59-.15"/><path d="M38.62 7.21c-.44-1.01-1.39-.75-1.81-1.18-.61-.63-2.15-1.21-2.78-.78 1.4-.07 2 .97 2.75 1.33.53.27 1.1.82 1.84.63" fill="#fff"/><path d="M38.32 7.27c-.43 0-.8-.22-1.15-.44-.14-.08-.27-.16-.4-.23-.24-.11-.46-.29-.69-.48-.51-.42-1.1-.9-2.05-.84.53-.48 2.13.07 2.8.75.15.16.38.22.63.29.42.12.9.25 1.18.9-.12.03-.22.05-.32.05m-4.15-2.03c.89 0 1.44.45 1.93.85.23.19.45.37.68.48.13.06.27.15.4.23.35.21.71.43 1.14.43.1 0 .2-.01.29-.04-.29-.61-.76-.74-1.17-.86-.25-.07-.48-.13-.64-.3-.65-.67-2.2-1.15-2.76-.78.04-.01.09-.01.13-.01"/><path d="M36.96 7.1c-.76-.94-1.92-1.77-2.45-1.46.7.04.92.52 1.42.84.5.32.28.77 1.03.62" fill="#fff"/><path d="M36.71 7.15c-.27 0-.34-.13-.45-.28-.07-.12-.16-.25-.34-.37-.16-.1-.29-.22-.42-.34-.27-.24-.52-.47-.99-.5.07-.07.17-.1.27-.1.63 0 1.58.77 2.19 1.53-.11.05-.19.06-.26.06m-2.19-1.49c.47 0 .73.23 1 .48.13.12.26.23.42.34.19.12.27.26.35.38.13.2.21.33.67.24-.7-.84-1.92-1.75-2.44-1.44z"/><path d="M33.36 8.76c-.79-.3-2.34-.44-3.06.46 1.2.21 3.01.1 3.06-.46" fill="#fff"/><path d="M31.5 9.33c-.41 0-.84-.03-1.2-.09.45-.6 1.19-.72 1.74-.72.45 0 .94.08 1.33.23-.03.44-.99.58-1.87.58m.54-.78c-.54 0-1.28.12-1.73.68.35.04.77.07 1.19.07.83 0 1.81-.14 1.85-.54a4.23 4.23 0 0 0-1.31-.21"/><path d="M33.22 9.11c-.79-.37-1.41.15-2.16.07-1.42-.14-2.43-.05-2.57.63.81-.73 2.18-.13 2.73-.28.55-.15 2.6-.02 3.25.26-.33-.4-.85-.51-1.25-.68" fill="#fff"/><path d="M28.47 9.85l.01-.04c.09-.47.59-.7 1.58-.7.29 0 .61.02 1.01.06.29.03.58-.04.85-.1.43-.1.9-.16 1.32.03.08.03.17.07.26.1.34.12.73.26 1 .59-.67-.25-2.75-.37-3.25-.23-.17.05-.46.01-.79-.03-.25-.03-.52-.07-.79-.07-.5 0-.86.12-1.14.37l-.06.02zM32 9.46c.83 0 2.01.12 2.48.32-.28-.3-.66-.43-1-.56-.09-.03-.18-.06-.26-.1-.42-.18-.88-.12-1.3-.02-.27.06-.56.13-.86.1-1.66-.16-2.4.01-2.54.57.28-.23.64-.34 1.12-.34.27 0 .55.03.8.07.33.04.61.07.78.03.15-.05.42-.07.78-.07"/><path d="M35.71 7c-.18-.61-.18-1.25.74-1.21-.23-.29-1.08-.43-1.22.64-1.01-.74-2.1-.87-2.31-.23.52-.44 1.32-.12 2.28.97.08-.05.3-.14.51-.17" fill="#fff"/><path d="M35.2 7.19c-.94-1.06-1.75-1.41-2.27-.97.14-.65 1.33-.51 2.31.21.08-.76.53-.85.72-.85.2 0 .4.09.5.21l-.1.02c-.29 0-.5.08-.61.24-.15.19-.16.51-.03.95-.22.05-.44.14-.51.18l-.01.01zm-1.76-1.2c.48 0 1.1.4 1.76 1.16.08-.05.3-.13.5-.16-.15-.43-.14-.76.01-.96.12-.16.34-.25.64-.25h.09c-.11-.1-.3-.18-.49-.18-.18 0-.61.08-.71.83-1-.69-2.12-.82-2.31-.23.13-.14.31-.21.51-.21"/><path d="M34.32 7.84c-.57-.37-1.35-.97.01-1.21-.58-.31-1.43-.17-1.33.9-1.55-.63-2.66-.42-2.9.2-.26.68.7 1.06.87.63-.17.07-.77-.13-.46-.52s1.92-.1 3.45.7c.42.23 1.88.19.36-.7" fill="#fff"/><path d="M34.54 8.67c-.22 0-.46-.05-.59-.11-1.01-.53-2.13-.87-2.86-.87-.29 0-.49.06-.58.17-.09.1-.11.2-.07.29.08.16.4.25.51.2-.07.32-.61.23-.82-.07a.553.553 0 0 1-.05-.55c.26-.67 1.52-.78 2.92-.22-.05-.34.02-.62.19-.81.25-.28.74-.3 1.15-.08-.46.11-.71.23-.74.4-.05.26.39.58.73.8.49.3.72.52.67.68-.04.15-.34.17-.46.17m-3.45-1.01c.73 0 1.85.34 2.87.87.13.07.36.11.58.11.25 0 .41-.06.44-.15.03-.1-.07-.29-.66-.63-.35-.22-.8-.55-.75-.83.04-.19.29-.32.76-.4-.4-.15-.88-.16-1.12.11-.16.18-.23.45-.2.8-1.43-.53-2.65-.44-2.9.21-.09.24-.02.42.05.52.2.28.68.36.78.11-.01.02-.04.02-.07.02-.16 0-.38-.09-.45-.23-.03-.07-.05-.18.07-.32.1-.13.3-.19.6-.19"/><path d="M33.92 8.86c-.44-.9-1.87-.08-2.16-.95-.4 1.27 2.03.56 2.16.95" fill="#fff"/><path d="M33.89 8.84c-.07-.09-.34-.1-.66-.1h-.19c-.53 0-1.06-.02-1.26-.3-.1-.13-.11-.31-.04-.54.17.42.58.44 1.03.46.45.02.91.04 1.15.47l-.03.01zm-.65-.13c.27 0 .5.01.62.06-.23-.36-.66-.37-1.08-.39-.45-.02-.88-.03-1.03-.48-.04.22-.03.39.06.51.2.27.72.29 1.24.29l.19.01z"/><path d="M43.02 9.83c.3.15.56-.09.1-.27.3.15.56-.08.1-.26.3.15.56-.08.1-.26-.11.12-.29.57-.3.79" fill="#fff"/><path d="M43.21 9.9c-.06 0-.13-.02-.19-.05 0-.24.18-.69.3-.82.27.1.28.2.27.24-.01.08-.13.12-.27.09.12.04.18.11.17.18-.02.08-.15.12-.29.08.2.07.2.16.19.19-.02.05-.09.09-.18.09m.11-.85c-.1.12-.28.57-.29.79.05.02.11.03.17.03.08 0 .14-.03.15-.07.01-.06-.06-.13-.19-.19.05-.01.1 0 .14 0 .08 0 .14-.03.15-.07.01-.06-.06-.13-.19-.19.06-.01.1 0 .14 0 .08 0 .14-.03.15-.07.02-.07-.04-.15-.23-.23"/><path d="M43.18 8.1c.66-.7-.06-.94.76-1.66.66-.59.12-.98.75-1.44.2-.15.65-.44.68-.74.27.66-.83.76-.76 1.83.05.68-.41.62-.59 1.77-.03.24-.2.77-.84.24" fill="#fff"/><path d="M43.65 8.34c-.13 0-.3-.08-.48-.23.31-.35.31-.58.32-.8.01-.25.01-.5.44-.88.33-.29.36-.53.39-.76.03-.23.05-.45.37-.68.26-.19.64-.46.68-.73.16.32-.03.52-.25.74-.24.25-.52.54-.48 1.09.02.33-.08.49-.2.7-.14.21-.31.48-.4 1.07-.02.15-.1.48-.39.48m1.71-4.07c-.01.28-.39.55-.61.71-.36.26-.38.47-.41.69-.03.23-.06.48-.4.78-.42.37-.42.61-.43.86 0 .23-.01.46-.33.8.18.13.34.21.46.21.26 0 .34-.32.36-.46.09-.6.26-.87.39-1.09.13-.21.22-.36.2-.68-.04-.57.25-.87.49-1.11.23-.23.4-.4.28-.71"/><path d="M43.47 8.41c.37-.79.79-.78 1-1.09.39-.59 1.21.1 1.9-.42-.12.75-1.05.48-1.46.96-.4.48-.74.7-1.44.55" fill="#fff"/><path d="M43.86 8.47c-.12 0-.25-.02-.39-.05.23-.53.49-.71.7-.85.12-.08.22-.15.29-.26.23-.35.55-.27.86-.24.38.04.77.02 1.04-.19-.05.46-.39.55-.76.64-.25.07-.52.14-.68.33-.32.4-.6.62-1.06.62m1.15-1.39c-.26 0-.41.07-.53.25-.08.11-.18.19-.3.27-.21.14-.46.32-.7.82.13.01.26.02.38.02.45 0 .72-.22 1.04-.59.17-.21.44-.28.7-.34.35-.09.69-.18.76-.61-.24.23-.65.24-1.03.21-.12-.02-.22-.03-.32-.03"/><path d="M43.57 8.67c.65-.52 1.12-.17 1.57-.44 1.13-.68 1.58.14 2.58-.19-.27.65-1.75.09-2.4.57-.65.49-2.92.95-1.75.06" fill="#fff"/><path d="M43.52 9.19c-.17 0-.27-.04-.29-.11-.03-.09.08-.23.33-.42.38-.3.7-.31.99-.32.2-.01.39-.01.58-.12.54-.33 1.04-.3 1.5-.2.33.08.71.13 1.09.01-.24.7-1.75.12-2.39.6-.4.29-1.35.56-1.81.56m2.51-1.23c-.29 0-.58.09-.89.28-.19.12-.39.12-.59.13-.28.01-.6.02-.97.32-.29.22-.33.34-.32.39.02.05.11.08.27.08.45 0 1.4-.27 1.78-.55.3-.23.78-.23 1.24-.23.52 0 1.01 0 1.15-.34-.34.17-.75.09-1.09.01-.18-.04-.37-.09-.58-.09"/><path d="M41.68 12.35c-.01-.3-.29-.67-.67-.72-.39-.05-.55-.45-.85-.47-.29-.02-.49-.61-.9-.6-.4.01-.57.54.38 1.02s2.01 1.03 2.04.77" fill="#fff"/><path d="M41.58 12.43c-.27 0-1.02-.38-1.74-.74l-.2-.1c-.74-.37-.72-.71-.7-.81.03-.14.16-.23.33-.23.23 0 .4.18.54.34.12.13.23.25.36.26.14.01.26.11.38.21.13.11.27.24.47.26.39.05.68.42.69.73-.02.04-.04.08-.13.08m-2.3-1.85c-.16 0-.28.09-.31.21-.04.19.12.49.69.78l.2.1c.72.36 1.46.74 1.73.74.08 0 .09-.03.09-.05-.01-.29-.28-.66-.66-.7-.21-.03-.35-.15-.48-.27-.12-.1-.23-.2-.36-.2-.14-.01-.25-.14-.38-.27-.16-.18-.31-.34-.52-.34"/><path d="M40.48 12.6c-.41.02-.46.61-.85.63.54.29.92-.13 1.2-.5l-.35-.13z" fill="#fff"/><path d="M39.99 13.34c-.12 0-.24-.03-.36-.1.19-.04.3-.18.41-.33.11-.15.23-.31.45-.32l.36.13c-.22.31-.5.62-.86.62m.49-.73c-.19.01-.31.16-.42.31-.11.15-.23.31-.42.31.12.04.24.07.35.07.35 0 .62-.3.84-.59l-.35-.1z"/><path d="M40.82 12.67c-.35.3-.45.91.06 1.09-.3-.42.53-.61.28-1l-.34-.09z" fill="#fff"/><path d="M40.91 13.79l-.04-.02a.475.475 0 0 1-.35-.39c-.05-.24.07-.54.29-.72l.34.09c.14.2 0 .35-.14.5-.14.15-.28.3-.13.51l.03.03zm-.1-1.1c-.2.17-.31.46-.27.69.02.12.09.27.29.35-.12-.21.02-.36.16-.5.13-.14.26-.28.14-.45l-.32-.09z"/><path d="M41.17 12.69c-.28.53.43.6.25 1.01.41-.09.47-.86.1-1.06l-.35.05z" fill="#fff"/><path d="M41.39 13.72l.01-.03c.08-.18-.02-.28-.13-.41-.13-.14-.27-.3-.12-.6l.36-.06c.22.12.28.4.25.63-.03.24-.17.42-.35.46l-.02.01zm.12-1.07l-.34.06c-.14.27 0 .42.13.56.1.11.21.23.14.41.18-.06.27-.26.3-.43.03-.22-.03-.49-.23-.6"/><path d="M38.46 11.55c.66-.04 1.27.32 1.68.9.26.37 1.13.52 1.42.22.3-.3.13-.92-.61-.72-.18-.31-.72-.2-.98-.46-.26-.25-1.26-.99-1.51.06" fill="#fff"/><path d="M41.06 12.85c-.33 0-.76-.13-.94-.38-.4-.57-.97-.9-1.57-.9h-.1c.08-.39.27-.58.55-.58.39 0 .83.36.97.5.12.12.29.16.47.2.2.05.41.09.51.27.29-.12.62-.01.71.22.07.17.03.38-.11.52-.09.09-.27.15-.49.15m-2.51-1.32c.61 0 1.19.33 1.59.91.17.24.59.37.91.37.21 0 .39-.05.49-.15.13-.13.17-.32.1-.49-.09-.22-.36-.3-.7-.21-.11-.17-.31-.21-.51-.26-.18-.04-.36-.08-.48-.2-.13-.14-.57-.49-.95-.49-.27 0-.45.18-.54.54l.09-.02z"/><path d="M40.95 11.95c-.18.04-.23.34-.12.5l.12-.5z" fill="#fff"/><path d="M40.84 12.44c-.09-.08-.1-.23-.05-.35.03-.08.09-.14.16-.15.01-.01.01 0 .02.01 0 .01 0 .02-.01.02-.06.01-.11.06-.14.14-.05.11-.04.25.02.33"/><path d="M41.32 12.14c.06.09.02.22-.01.29l.01-.29z" fill="#fff"/><path d="M41.33 12.43c-.01-.04.04-.18-.02-.28-.01-.01 0-.02.01-.02s.02 0 .02.01c.06.1 0 .26-.01.29"/><path d="M39.51 11.58c.34.02.4.27.77.36l-.77-.36z" fill="#fff"/><path d="M40.28 11.92c-.18-.02-.29-.1-.39-.17-.11-.08-.21-.16-.39-.17-.01 0-.01-.01-.01-.02s.01-.01.02-.01c.18.01.29.09.4.17.1.09.21.16.37.2"/><path d="M39.28 10.74c1.18.3 2.11.56 2.69.89.58.33 1.48.42 2.26.2.79-.22 2.3-.42 2.23.55.41-.49-.11-1.02-1.16-1.11.02-.48-.49-.91-.86-.63.34-.05.64.59-.04.85.13-.48-.35-.91-.84-.7.32.09.64.63-.07.83-.45.13-1.1-.04-1.59-.33-.49-.29-3.22-1.36-2.62-.55" fill="#fff"/><path d="M46.45 12.42v-.04c.01-.19-.03-.35-.14-.46-.16-.17-.45-.26-.87-.26-.5 0-1.01.13-1.2.18-.77.21-1.69.13-2.27-.2-.55-.31-1.4-.56-2.69-.89-.09-.11-.11-.19-.09-.25.03-.05.1-.08.21-.08.56 0 2.12.62 2.5.85.51.31 1.16.45 1.58.33.27-.08.42-.21.42-.39 0-.19-.18-.37-.35-.42.27-.2.59-.07.76.16.11.15.15.34.1.53.27-.13.41-.32.37-.54-.03-.17-.17-.3-.31-.3.18-.02.31.12.34.29.02.09.03.39-.41.56a.67.67 0 0 0-.12-.52.626.626 0 0 0-.73-.18c.17.02.36.22.36.42 0 .11-.06.3-.44.41-.43.12-1.08-.02-1.6-.33-.45-.27-2.54-1.05-2.67-.79-.02.04 0 .12.08.21 1.28.32 2.14.57 2.69.88.58.33 1.49.41 2.25.2.2-.06.71-.18 1.21-.18.42 0 .72.09.89.27.1.11.15.26.15.44.11-.15.14-.31.08-.45-.13-.31-.61-.54-1.26-.6 0-.2-.08-.39-.22-.54-.17-.18-.41-.23-.59-.13.12-.17.43-.09.61.11.14.15.22.35.21.54.64.04 1.13.28 1.27.6.07.17.03.35-.11.52l-.01.05z"/><path d="M42.26 10.26c-.37.17-.13.56-.7.78-.57.22-.97.73-.84 1.16.39-.85 1.07-.81 1.31-1.14.24-.34.58-.83.23-.8" fill="#fff"/><path d="M40.71 12.24l-.01-.04c-.13-.43.24-.95.85-1.18.31-.12.38-.29.44-.45.05-.13.1-.25.26-.32.1 0 .14.02.16.06.07.13-.14.43-.38.76-.09.12-.23.2-.41.28-.29.15-.66.33-.9.86l-.01.03zm1.57-1.97c-.18.07-.22.18-.27.31-.06.16-.13.34-.45.46-.57.22-.93.7-.84 1.11.25-.52.61-.7.9-.84.17-.08.31-.15.4-.27.16-.22.44-.6.37-.73-.02-.02-.05-.04-.11-.04"/><path d="M42.36 10.31c-.02.67-.55.43-.34 1.37.07.3.19.78-.02 1.26.59-.43.21-1.34.48-1.69.13-.17.3-.42.36-.65-.14.39-.13 1.11.25 1.29-.3-.72.82-1.31.05-2.14-.12.21-.47.57-.78.56" fill="#fff"/><path d="M41.96 12.98l.02-.05c.19-.46.09-.91.02-1.21-.13-.59 0-.74.13-.9.1-.11.19-.23.2-.51.34-.01.68-.38.78-.56.47.48.29.89.11 1.28-.13.29-.26.56-.13.86-.37-.15-.41-.77-.31-1.18-.08.25-.25.48-.3.55-.1.13-.11.36-.11.61 0 .38-.01.82-.37 1.08l-.04.03zm1.16-3.21c-.08.19-.43.56-.75.56-.01.28-.11.4-.21.52-.13.16-.25.3-.14.84.07.33.17.77 0 1.21.31-.26.32-.66.32-1.03 0-.25.01-.49.11-.63.12-.15.27-.38.34-.58-.09.4-.06 1.05.29 1.22-.15-.29-.02-.59.11-.87.19-.38.37-.77-.07-1.24"/><path d="M40.47 9.64c.09.14.18.49.1.69.18-.11.45-.4.54-.59.38.05.53.52.17.73.22 0 .6 0 .81-.25-.26-.29-1.06-.74-1.62-.58" fill="#fff"/><path d="M41.28 10.48h-.05l.05-.03c.15-.08.22-.23.19-.38a.393.393 0 0 0-.35-.32c-.07.2-.35.48-.53.59.06-.2-.03-.55-.12-.69.09-.04.17-.06.26-.06.53 0 1.15.36 1.37.61-.22.28-.6.28-.82.28m-.18-.75c.21.02.36.16.39.34.03.15-.03.29-.17.38.22 0 .56-.02.75-.24-.26-.27-1.1-.69-1.6-.55.11.12.2.47.11.68.18-.15.44-.43.52-.61"/><path d="M34.74 8.32c-.06-.05-.16-.1-.34-.14-.56-.11-.27-.62.21-.61 1.01-1.11 1.58-.25 2.82-.6.43-.12.73-.09.96.02.55-.37 1.2-.27 1.67.17.05-.08.12-.15.22-.17.43-.12.78.25.9.73.34-.06.72.1.98.33.35-.18.59-.19.68 0 .31-.15.72-.24.92.26.2.5-.48.35-.59 1.4-.07.65-.79.91-1.36.52-.91-.65-1.81-.75-2.25.19-.44.94-.79 1.49-1.86 1.18-.39-.11-.89.04-1.2.46-.31.42-.79.03-1.37.07.72-.11.44-.29 1.07-.33.57-.04.42-.57.79-.64-1.44.37-1.38-.17-2.56.2.52-.66 1.33-.3 1.73-.68-1.07-.02-1.55-.72-2.03-.43-.75.46-.42 1.77-2.4 1.66-.96-.06-1.57.07-2.14.64 1-2.07 2.35-.93 3.01-1.59.39-.39.68-.68.89-1.05.07-.13.17-.2.29-.23-1.64-.5-.65-1.31.96-1.36" fill="#fff"/><path d="M29.61 12.57l-.02-.02c.64-1.33 1.45-1.34 2.09-1.35.37 0 .69-.01.92-.24.38-.38.68-.67.88-1.05.07-.13.17-.21.3-.24-.58-.16-.89-.4-.85-.65.05-.38.83-.69 1.81-.73-.08-.04-.18-.08-.34-.11-.31-.06-.32-.23-.32-.29.02-.17.23-.35.52-.35.48-.52.86-.59 1.17-.59.15 0 .3.02.45.04.37.05.8.06 1.2-.05.39-.11.7-.11.98.02.5-.35 1.19-.28 1.68.17.04-.09.11-.15.21-.18.4-.11.79.21.92.74.03-.02.08-.02.14-.02.28 0 .6.13.84.35.33-.19.6-.19.69 0 .42-.24.76-.14.92.26.1.24-.01.34-.15.47-.16.16-.39.37-.44.93-.04.42-.38.71-.81.71-.2 0-.4-.06-.58-.19-1.01-.68-1.84-.62-2.23.21-.43.92-.81 1.49-1.88 1.19-.41-.11-.9.07-1.18.46-.17.23-.45.22-.78.15-.19-.04-.39-.09-.59-.07.04-.04.08-.03.13-.03.25-.07.35-.13.43-.18.1-.07.19-.12.51-.14.32-.02.4-.19.49-.36.06-.12.12-.23.25-.27-.57.19-1 .16-1.34.11-.33-.04-.68-.05-1.16.1.28-.41.68-.45 1.04-.49.26-.03.51-.06.68-.22-.55.01-.9-.16-1.21-.3-.32-.14-.58-.24-.8-.11-.25.15-.38.4-.51.66-.26.51-.56 1.09-1.89 1.01-1.04-.05-1.63.11-2.17.65m6.16-5.59c-.3 0-.68.07-1.15.59-.29 0-.49.17-.51.33-.01.13.09.22.29.26.16.03.28.08.35.15-.96.06-1.74.37-1.79.73-.03.24.26.47.83.65-.12.06-.21.13-.28.25-.21.38-.51.68-.89 1.06-.24.24-.56.24-.94.25-.63.01-1.4.02-2.03 1.26.52-.49 1.12-.65 2.09-.59 1.31.08 1.59-.47 1.86-.99.14-.26.27-.51.52-.67.23-.14.5-.04.83.1.31.14.69.31 1.21.32-.17.19-.42.22-.69.25-.35.04-.74.08-1.03.46.46-.19.83-.17 1.16-.13.34.04.76.06 1.35-.09-.12.07-.18.18-.24.29-.09.17-.18.35-.51.37-.31.02-.4.07-.5.14-.08.05-.17.11-.4.16.15.01.29.04.43.07.33.07.59.09.76-.14.29-.39.8-.59 1.21-.47 1.05.3 1.42-.26 1.85-1.17.4-.85 1.24-.92 2.27-.23.17.12.37.18.56.18.42 0 .74-.28.78-.69.06-.57.29-.79.45-.95.14-.13.23-.22.14-.44-.16-.38-.45-.47-.9-.25-.12-.19-.34-.18-.68 0-.3-.25-.67-.4-.98-.33-.15-.53-.52-.84-.9-.73-.09.02-.16.08-.22.17-.52-.43-1.16-.51-1.68-.16-.3-.12-.59-.12-.97-.01-.41.12-.84.09-1.21.05-.15-.03-.3-.05-.44-.05"/><path d="M42.84 8.03c.02.05.04.12.04.2 0 .41-.61.42-.65 1.02-.02.31-.06.49-.27.45-.21-.04-.4-.37-.19-.76l1.07-.91z" fill="#fff"/><path d="M42.02 9.72h-.05a.34.34 0 0 1-.24-.2.634.634 0 0 1 .04-.58c-.07.21-.09.41-.01.56.05.1.13.17.22.19.06.01.11 0 .14-.03.07-.06.09-.19.11-.41.02-.33.21-.49.38-.63.14-.12.27-.22.27-.39 0-.08-.01-.15-.04-.2 0-.01 0-.02.01-.02s.02 0 .02.01c.03.06.04.13.04.21 0 .19-.13.3-.28.42-.16.14-.35.29-.37.6-.01.23-.04.37-.12.44-.04.02-.07.03-.12.03"/><path d="M35.04 7.71a.75.75 0 0 0-.44-.15l.44.15z" fill="#fff"/><path d="M35.03 7.72a.748.748 0 0 0-.43-.15c.15-.03.31.03.45.13l-.02.02z"/><path d="M38.38 6.97c.49.21.73.72 1.44.74.68.02 1.11 1.02 2.25.37.03-.02.06-.03.09-.05l-3.78-1.06z" fill="#fff"/><path d="M41.35 8.31c-.35 0-.62-.16-.87-.31-.22-.13-.42-.26-.66-.27-.46-.02-.72-.23-.97-.44-.15-.12-.29-.23-.47-.31l.01-.03c.18.08.33.2.47.31.25.2.51.41.96.43.24.01.45.14.67.27.41.25.83.51 1.57.1l.1-.04.01.01-.1.04.01.01c-.28.17-.52.23-.73.23"/><path d="M40.06 7.14c-.1.16-.13.39-.1.59l.1-.59z" fill="#fff"/><path d="M39.98 7.73a.775.775 0 0 1 .07-.59l.03.02c-.1.13-.13.34-.1.57"/><path d="M37.83 9.23c-.87 0-1.09.44-1.09.87 0 .42.41.98 1.13.98s1.11-.44 1.11-.92c-.01-.49-.45-.93-1.15-.93" fill="#fff"/><path d="M37.86 11.09c-.74 0-1.14-.58-1.14-.99 0-.4.19-.88 1.11-.88.75 0 1.16.48 1.16.94 0 .44-.35.93-1.13.93m-.03-1.85c-.89 0-1.08.46-1.08.85 0 .4.39.96 1.11.96.75 0 1.09-.47 1.09-.91.01-.43-.39-.9-1.12-.9"/><path d="M37.99 11.05c-.02-.24-.45-.2-.43-.39.02-.18.24-.26.24-.52s.39-.28.52-.07c.13.2.52.6.6.4l-.93.58z" fill="#fff"/><path d="M37.97 11.05c-.01-.12-.13-.16-.24-.21-.11-.04-.21-.08-.2-.18.01-.09.06-.15.11-.21.06-.08.13-.16.13-.3 0-.11.06-.18.17-.21.12-.04.29 0 .38.13.1.16.39.44.52.45.03 0 .05-.02.06-.05.01.05-.02.07-.06.07-.16.03-.44-.3-.54-.46-.07-.12-.23-.15-.34-.12-.09.03-.15.09-.15.19 0 .15-.07.24-.14.32-.05.06-.1.12-.1.2-.01.08.08.11.18.15.11.05.24.1.26.23h-.04z"/><path d="M38.31 10.07c-.2.2-.3.62-.03.94l.03-.94z" fill="#fff"/><path d="M38.29 11.01a.671.671 0 0 1 0-.94l.02.02c-.21.21-.27.61-.02.92"/><path d="M38.58 10.39c-.06.14-.08.35-.01.48l.01-.48z" fill="#fff"/><path d="M38.59 10.86c-.1-.13-.08-.34-.02-.48l.03.01c-.06.13-.09.34-.01.47M42.1 9.73h-.07V9.7c.35.03.56-.17.58-.38.01-.15-.08-.31-.3-.33.25 0 .34.17.33.33-.02.21-.21.41-.54.41M40.42 7.93c-.02-.25.06-.41.22-.47.17-.06.42.04.56.22l-.02.02c-.14-.18-.36-.27-.53-.21-.1.03-.22.14-.23.44"/><path d="M40.35 8.65c-.23-.57-.82-.65-1.14-.37-.26.24-.27.86.29.99.2-.23.58-.53.85-.62" fill="#fff"/><path d="M39.51 9.29h-.01a.57.57 0 0 1-.46-.42c-.06-.21.01-.46.16-.59.12-.11.27-.16.43-.16.24 0 .56.14.72.54-.26.09-.64.39-.84.63zm.13-1.15a.6.6 0 0 0-.41.16c-.14.13-.2.36-.15.57.05.2.21.34.43.4.2-.23.57-.53.84-.62-.17-.37-.48-.51-.71-.51"/><path d="M40.09 8.29c-.33-.3-.82.26-.38.77l.38-.77z" fill="#fff"/><path d="M39.73 9.06c-.27-.27-.24-.59-.07-.76.11-.11.29-.15.44-.01l-.02.01c-.12-.11-.28-.1-.4.02-.16.16-.2.46.05.74M41.19 7.69c-.2-.22-.65-.05-.52.39.1-.2.31-.37.52-.39"/><path d="M39.94 8.88c.14-.1.28-.18.41-.22a.891.891 0 0 0-.27-.37c-.11-.08-.42.32-.14.59M38.23 8.63c-.03-.19.03-.33.13-.43.08-.08.17-.11.3-.11.02-.06.09-.11.18-.13.16-.04.36.02.57.15.01.01.01.01 0 .02s-.01.01-.02 0c-.2-.13-.4-.18-.54-.15-.08.02-.14.06-.17.12a.4.4 0 0 0-.29.11c-.11.1-.16.24-.16.42"/><path d="M37.83 9.21c-.04-.25.04-.44.2-.53.19-.11.46-.08.69.08.01.01.01.01 0 .02 0 .01-.01.01-.02 0-.22-.15-.48-.18-.66-.08-.14.09-.22.27-.21.51M37.58 9.57s-.01 0-.01-.01c-.01-.01 0-.02 0-.02.1-.09.27-.19.43-.16.1.01.2.07.28.17-.1-.08-.18-.13-.28-.14-.17-.01-.31.08-.42.16M39.63 9.79c.28-.41.52-.46.65-.46.11 0 .2.05.26.12-.12-.18-.12-.35-.01-.5 0-.01.01-.01.02 0s.01.02 0 .02c-.1.14-.1.3-.01.48a.421.421 0 0 0-.26-.1c-.12 0-.36.06-.65.44M41.34 9.42c-.2-.04-.32-.16-.3-.27.01-.12.15-.21.38-.23 0 0 .01.01.02.01 0 .01-.01.02-.01.02-.21.02-.34.1-.35.21-.03.09.08.2.26.26M37.87 8.1c-.24-.05-.35-.15-.33-.25.03-.11.24-.16.46-.11.01 0 .01.01.01.02s-.01.02-.02.01c-.22-.05-.41.01-.43.09-.01.08.1.17.31.24M38.24 7.61c-.13-.03-.13-.09-.12-.11.03-.09.27-.12.66-.03.01 0 .01.01.01.02s-.01.01-.02.01c-.39-.09-.61-.05-.63.01-.01.02.03.06.1.1M37.29 10.1c-.03 0-.05-.01-.06-.01-.09-.05-.12-.19-.11-.3 0-.01 0-.02.02-.01.01 0 .01.01.01.02-.01.1.02.24.1.28.07.04.18-.01.3-.12-.11.1-.2.14-.26.14M35.91 7.7c-.22-.06-.32-.2-.3-.3.02-.09.13-.14.29-.13-.15.02-.25.06-.26.13-.02.09.08.21.28.27.01 0 .01.01.01.02-.01.01-.01.01-.02.01M35.79 8.45c-.24-.08-.33-.25-.31-.36.02-.09.09-.16.25-.14-.12.02-.2.06-.22.14-.02.1.07.26.28.33.01 0 .01.01.01.02 0 0 0 .01-.01.01M36.51 8.25c-.27-.07-.4-.2-.38-.31.01-.06.09-.12.25-.1-.12.01-.21.04-.22.11-.02.09.1.21.35.27.01 0 .01.01.01.02s0 .01-.01.01M36.58 7.67c-.32-.05-.37-.15-.36-.22.02-.11.2-.19.35-.18.01 0 .01.01.01.02s-.01.01-.02.01c-.13-.01-.3.07-.31.16-.01.08.11.16.33.21M37.02 8.1c-.18-.05-.27-.14-.25-.22.03-.09.2-.12.46-.08.01 0 .01.01.01.02s-.01.01-.02.01c-.29-.04-.42 0-.43.06 0 .05.09.14.23.21M37.38 7.55c-.15-.02-.19-.11-.17-.17.03-.1.19-.17.45-.12.01 0 .01.01.01.02s-.01.02-.02.01c-.24-.05-.39.02-.42.1-.01.06.05.12.15.16M36.3 8.89c-.01 0-.01 0 0 0-.07-.06-.13-.21-.07-.32.04-.07.14-.15.39-.09-.19-.02-.32.01-.36.1-.05.1 0 .24.06.29.01 0 .01.01 0 .02h-.02M37.01 9.17c-.14-.05-.18-.15-.13-.25.06-.13.27-.24.48-.18.01 0 .01.01.01.02s-.01.01-.02.01c-.2-.05-.39.04-.45.17-.04.07 0 .16.11.23M37.34 8.5c-.09-.02-.09-.06-.08-.09.03-.09.28-.13.54-.08.01 0 .01.01.01.02s0 .01-.02.01c-.26-.05-.48-.01-.51.06 0 .03.03.06.06.08"/><path d="M33.78 9.69c.22-.05.55.06 1.05.29.31.15 1.25.46 1.84.15-.61.22-1.07-.7-1.53-.59-.46.11-1.3.28-1.66-.06.87.06 1.33-.63 2.32-.04.28.17.63.28.94.26-.81-.98-1.88-.35-1.99-1.15.49.53 1.68-.12 2.29.87l-3.26.27z" fill="#fff"/><path d="M36.01 10.27c-.48 0-.98-.18-1.19-.27-.45-.21-.8-.34-1.04-.29l-.01-.03c.02-.01.04-.01.07-.01a.708.708 0 0 1-.37-.17c.33 0 .6-.09.86-.17.44-.14.86-.27 1.48.11.29.18.64.28.93.26-.42-.47-.9-.55-1.28-.62-.37-.06-.67-.11-.72-.51.23.21.56.22.91.23.49.02 1.05.04 1.41.62-.37-.55-.92-.58-1.41-.59-.36-.02-.7-.03-.9-.26.08.37.35.41.72.47.39.07.87.15 1.29.65-.3.04-.66-.06-.96-.24-.61-.37-1.02-.24-1.46-.11-.26.08-.53.16-.86.15.39.33 1.34.1 1.66.03.21-.05.43.11.65.28.27.21.55.43.88.31-.2.12-.43.16-.66.16m-1.89-.58c.2.05.43.15.71.27.31.15 1.25.46 1.83.15-.33.15-.63-.08-.89-.28-.22-.17-.42-.32-.63-.28-.19.05-.61.17-1.02.14"/><path d="M41.18 7.69a.69.69 0 0 0-.5.39l.5-.39z" fill="#fff"/><path d="M40.69 8.09c.08-.23.26-.37.48-.41l.01.03c-.22.04-.39.17-.49.38"/><path d="M34.92 8.71c-.11-.14-.06-.28-.19-.39l.19.39z" fill="#fff"/><path d="M34.91 8.72c-.06-.07-.07-.14-.09-.2-.02-.07-.03-.13-.09-.19.09.04.11.11.12.18.02.06.03.13.08.19l-.02.02z"/></svg>