<svg xmlns="http://www.w3.org/2000/svg" viewBox="0 0 58.93 34.37"><path fill="#ba0019" d="M0 0h58.93v22.91H0z"/><path fill="#3e9a13" d="M0 22.91h58.93v11.46H0z"/><path fill="#fff" d="M0 0h7.56v34.37H0z"/><path d="M.92 33.74h.34v-.95H.92v.95zm2.69 0h.34v-.95h-.34v.95zm2.7 0h.34v-.95h-.34v.95zM2.27 31.2h.33v-.79h-.33v.79zm2.69 0h.34v-.79h-.34v.79zM.92 29.15h.34v-.95H.92v.95zm2.69 0h.34v-.95h-.34v.95zm2.7 0h.34v-.95h-.34v.95zm-4.72 1.26h.34v-.79h.34v-.79h.33v.79h.34v.79h.34v.79h-.34v.8H2.6v.79h-.33V32h-.34v-.8h-.34v-.79zm2.7 0h.34v-.79h.34v-.79h.33v.79h.34v.79h.34v.79h-.35v.8H5.3v.79h-.34V32h-.34v-.8h-.33v-.79zm.67-3.16v.79h-.34v.79h-.33v.79h-.34v.79h-.34v-.79h-.33v-.79h-.34v-.79H2.6v-.79h-.33v.79h-.34v.79h-.34v.79h-.34v.79H.92v.79h.34v.8h.34v.79h.34v.79h.34v.79h.32v-.79h.34v-.79h.34V32h.34v-.8h.34v.8h.34v.79h.34v.79h.34v.79h.32v-.79h.34v-.79h.34V32h.34v-.8h.34v-.79h-.35v-.79h-.34v-.79h-.34v-.79H5.3v-.79h-.34zm.84-.8h.17v-.31h.17v.31h.16v.32h-.16v.32h-.17v-.32H5.8v-.32zm0-1.1v.47h-.17v.48h-.17v.63h.17v.47h.17v.47h.5v-.47h.17v-.47h.17v-.63h-.17v-.48H6.3v-.47h-.5zm-4.55 1.1h.17v-.32h.17v.32h.17v.32h-.17v.32h-.17v-.32h-.17v-.32zm0-1.11v.47h-.16v.47H.92v.64h.17v.47h.17v.48h.51v-.47h.17v-.47h.16v-.64h-.17v-.47h-.17v-.47h-.51zm1.86 1.11h.17v-.32h.17v.32h.17v.32h-.18v.32h-.16v-.32h-.17v-.32zm.84 0h.17v-.32h.17v.32h.17v.32h-.17v.32h-.17v-.32h-.17v-.32zm0-1.11v.47h-.34v-.47h-.5v.47h-.17v.47h-.17v.64h.17v.47h.17v.48h.51v-.47h.34v.48h.5v-.48h.17v-.47h.17v-.64h-.18v-.47h-.17v-.47h-.5zm-3.03-.31h.34v-.95H.92v.95zm2.69 0h.34v-.95h-.34v.95zm2.7 0h.34v-.95h-.34v.95zM.92 21.07h.34v-.64H.92v.64zm5.39 0h.34v-.64h-.34v.64zm-2.7-2.22h.34v-.79h-.34v.79zM.92 16.71v.95h.34v-.95H.92zm1.85 0v.95h.34v-.95h-.34zm1.68 0v.95h.34v-.95h-.34zm1.86 0v.95h.34v-.95h-.34zm-2.19-.55v.32h-.17v.24h-.34v-.24h-.17v-.32h-.33v.48h.17v.24h.17v.63h-.17v.24h-.17v.48h.34v-.33h.17v-.24h.34v.24h.17v.32h.34v-.48h-.18v-.24h-.17v-.63h.17v-.24h.17v-.48h-.34zm-.51.15h.34v-.79h-.34v.79zM.92 13.94h.34v-.63H.92v.63zm5.39 0h.34v-.63h-.34v.63zM.92 10.3h.34v-.95H.92v.95zm2.69 0h.34v-.95h-.34v.95zm2.7 0h.34v-.95h-.34v.95zm-4.04 6.89v-.33h.33v-.56h.34v-.63h.51v-.75h.17v-.36h.34v.36h.17v.75h.51v.65h.34v.56h.32v.63h-.34v.55h-.34v.64h-.5v.75h-.17v.36h-.34v-.36h-.17v-.74h-.5v-.63H2.6v-.58h-.33v-.31zm2.69-8.8v.8h-.34v.79h-.33v.79h-.34v.79h-.34v-.79h-.33v-.79h-.34v-.79H2.6v-.8h-.33v.8h-.34v.79h-.34v.79h-.34v.79H.92v.79h.34v.79h.34v.79h.34v.79h.34v-.79h.32v-.79h.34v-.79H2.6v-.95h.34v.64h.34v1.27h.17v.78l-.51.01v.63H2.6v.47h-.33v.8h-.34v-.79h-.34v-.47h-.34v-.48H.92v1.43h.34v.63h.34v.56h.34v.63h-.35v.55h-.34v.63H.92v1.43h.34v-.47h.34v-.48h.34v-.79h.34v.79h.32v.48h.34v.63l.51.01v.78h-.17v1.27h-.34v.64H2.6v-.95h.34v-.79H2.6v-.79h-.33v-.79h-.34v.79h-.34v.79h-.34v.79H.92v.79h.34v.79h.34v.79h.34v.79h.34v.79h.32v-.79h.34v-.79h.34v-.8h.34v-.79h.34v.8h.34v.79h.34v.79h.34v.79h.32v-.79h.34v-.79h.34v-.8h.34v-.79h.34v-.79h-.35v-.79h-.34v-.79h-.34v-.79H5.3v.79h-.34v.79h-.34v.79h.34V22.97h-.34v-.64h-.33v-1.27H4.12v-.79h.5v-.63h.34v-.48h.34v-.79h.34v.79h.34v.48h.34v.47h.34v-1.43h-.35v-.63h-.34v-.55h-.34v-.63h.34v-.56h.34v-.63h.34v-1.43h-.34v.48h-.34v.47h-.34v.8H5.3v-.79h-.34v-.47h-.34v-.64h-.5v-.79h.16v-1.27h.34v-.64h.34V12.35h-.34v.79h.34v.79h.34v.79h.34v-.79h.34v-.79h.34v-.79h.34v-.79h-.35v-.79h-.34v-.79h-.34v-.79H5.3v-.8h-.34zM1.25 7.6h.17v-.31h.17v.31h.17v.32h-.17v.32h-.17v-.32h-.17V7.6zm0-.63h-.16v.47H.92v.64h.17v.47h.17v.47h.51v-.47h.17v-.47h.16v-.64h-.17v-.47h-.17V6.5h-.51v.47zm1.86.63h.17v-.31h.17v.31h.17v.32h-.18v.32h-.16v-.32h-.17V7.6zm.84 0h.17v-.31h.17v.31h.17v.32h-.17v.32h-.17v-.32h-.17V7.6zm-.84-.63h-.17v.47h-.17v.64h.17v.47h.17v.47h.51v-.47h.34v.47h.5v-.47h.17v-.47h.17v-.64h-.18v-.47h-.17V6.5h-.5v.47h-.34V6.5h-.5v.47zm2.69.63h.17v-.32h.17v.32h.16v.31h-.16v.32h-.17v-.31H5.8V7.6zm0-1.11v.48h-.17v.47h-.17v.63h.17v.48h.17v.47h.5v-.47h.17v-.48h.17v-.63h-.17v-.47H6.3v-.48h-.5zM.92 6.18h.34v-.95H.92v.95zm2.69 0h.34v-.95h-.34v.95zm2.7 0h.34v-.95h-.34v.95zM2.27 3.96h.33v-.79h-.33v.79zm2.69 0h.34v-.79h-.34v.79zM.92 1.59h.34V.63H.92v.96zm2.69 0h.34V.63h-.34v.96zm2.7 0h.34V.63h-.34v.96zM1.59 3.17h.34v-.79h.34v-.79h.33v.79h.34v.79h.34v.79h-.34v.79H2.6v.79h-.33v-.79h-.34v-.79h-.34v-.79zm2.7 0h.34v-.79h.34v-.79h.33v.79h.34v.79h.34v.79h-.35v.79H5.3v.79h-.34v-.79h-.34v-.79h-.33v-.79zM4.96 0v.79h-.34v.79h-.33v.79h-.34v.79h-.34v-.78h-.33v-.79h-.34v-.8H2.6V0h-.33v.79h-.34v.79h-.34v.79h-.34v.79H.92v.79h.34v.79h.34v.79h.34v.79h.34v.79h.32v-.77h.34v-.8h.34v-.79h.34v-.79h.34v.79h.34v.79h.34v.79h.34v.79h.32v-.78h.34v-.8h.34v-.79h.34v-.79h.34v-.79h-.35v-.79h-.34v-.8h-.34V.79H5.3V0h-.34z" fill="#ba0019"/></svg>