<svg xmlns="http://www.w3.org/2000/svg" viewBox="-450 263.63 58.92 34.37"><path fill="green" d="M-450 263.63h58.93V298H-450z"/><ellipse cx="-420.25" cy="281.95" rx="6.2" ry="7.63" fill="#ffe000"/><ellipse cx="-418.32" cy="281.95" rx="5.1" ry="6.28" fill="green"/><ellipse cx="-439.79" cy="274.31" rx="6.49" ry="8" fill="#ffe000"/><path d="M-438.68 273.85c0 .32-.01.84-.1 1.46-.14 1-.18 1.09-.32 1.86-.15.77-.17.84-.31 1.29-.14.45-.15.47-.36.89-.21.42-.14.26-.25.51-.06.12-.13.09-.17.18-.04.09-.05.31-.05.31h1.62s.07-.18-.02-.27c-.09-.09-.44-.11-.34-.44.19-.67.22-.46.34-2.04.09-1.22.15-2.98.17-3.72-.06-.06-.14-.08-.21-.03z" fill="#591404"/><path fill="green" d="M-439 268.49zM-435.16 273.47c-.1-.17.14-.45-.16-.44.01-.28-.08-.54-.33-.63-.25-.26-.98.38-.96-.2-.07-.32.3-.04.4-.2.11-.34-.51-.3-.31-.56.13-.11.76-.26.27-.37-.24.08-.45.02-.65-.13-.18.36-.67-.2-.59.45-.07.24-.52.87-.64.39.1-.38.63-.5.47-1.01-.03-.32-.24.06-.34.03-.05-.2.15-.43.3-.48.28.27.29-.34.56-.29.2-.05-.06-.16-.12-.2.05-.18.36-.27.06-.42-.26-.24-.46.24-.67.26-.21-.29.19-.43.3-.58.01-.11-.23-.03-.16-.13.06-.14.48-.15.28-.35-.29-.12-.68-.09-.96.07-.18.07-.23.57-.38.55-.07-.22.02-.66-.22-.72.01.31-.01.72-.12 1.05-.11.37-.22.74-.22 1.13-.17.07-.34-.45-.5-.14.12.42.4.76.6 1.14.03.12.31.43.15.5-.4-.17-.5-.8-.75-1.19-.29-.65-.83-1.1-1.44-1.13-.23.01-.97-.07-.77.41.28.24.63.39.91.66.21.02.59.45.56.61-.37-.18-.54-.4-.93-.59-.54-.25-1.28-.1-1.57.55-.06.17-.14.67.04.71.2-.39.49-.83.92-.71.34.03-.38.78-.1.63.09-.05.29-.21.43-.23.14-.02.22.11.32.13.21.04.27.14.25.21-.02.07-.09.01-.3.09-.11.04-.16.16-.29.21-.12.05-.38.06-.48.01-.34-.18-.9-.15-1 .37 0 .23-.17-.03-.24.07-.06.25-.07.51-.38.49-.18.24-.37.48-.61.65.14.39.68-.39.65-.06-.24.4.12.48.28.18.27-.35.6-.77.99-.42.19.22.3-.12.44-.1.09.27.19.01.29-.06.16-.02.12.25.31.08.38-.31.85-.05 1.22-.35.39-.22.06.18-.05.33-.17.41-.02.96-.4 1.21-.15.49.18 1.14-.16 1.51-.05.23.43.2.57.3.24.01-.01-.67.22-.76.31.24.3-.43.24-.64.03-.47.05-.98.24-1.41.2-.52.39.21.16.42-.13.48-.31 1.08-.02 1.52.08.02.15.27.26.35.11.08.26-.02.28-.25.14-.69.07-1.42.27-2.09.02-.03.04-.04.07-.05 0-.2-.01-.32-.01-.32h.23s0 .13-.01.34c.05.05.11.11.14.18.28.4.47.9.81 1.23.31.18.58.44.72.83 0 .3.69.35.49.01-.2-.33-.07-.65.13-.87.11.03.08-.21-.01-.11-.14-.04-.14-.35.04-.2.32.13-.02-.28-.14-.3-.27-.21-.58-.44-.71-.8.35 0 .71.24 1.07.09.29-.18.58.02.68.33.22-.04.13-.32 0-.41.17-.06.28-.23.08-.38zm-2.55.28c.01-.17-.33-.15-.12-.3a.94.94 0 0 1 .22-.12c.23-.04.01.43-.1.42z"/><path d="M-405.37 291.54l.41 1.57 1.25-.58-.74 1.37 1.15.84-1.33.14.18 1.63-.92-1.19-.92 1.19.18-1.63-1.33-.14 1.15-.84-.74-1.37 1.25.58.41-1.57zM-412.81 277.04l.41 1.57 1.25-.58-.74 1.37 1.15.84-1.33.14.18 1.63-.92-1.19-.92 1.19.18-1.63-1.33-.14 1.15-.84-.74-1.37 1.25.58.41-1.57zM-405.37 267.12l.41 1.57 1.25-.58-.74 1.37 1.15.84-1.33.14.18 1.63-.92-1.19-.92 1.19.18-1.63-1.33-.14 1.15-.84-.74-1.37 1.25.58.41-1.57zM-398.76 274.6l.41 1.57 1.25-.58-.74 1.37 1.15.84-1.33.14.18 1.63-.92-1.19-.92 1.19.18-1.63-1.33-.14 1.15-.84-.74-1.37 1.25.58.41-1.57zM-402.4 281.95l.32.98.86.08-.65.68.2 1.03-.73-.56-.73.56.2-1.03-.65-.68.86-.08.32-.98z" fill="#ffe000"/></svg>