<svg xmlns="http://www.w3.org/2000/svg" viewBox="0 0 58.92 34.37"><path fill="#1a237b" d="M29.47 0V1.64l-6.54 3.27h6.54v4.91h-6.54l6.54 3.27V14.83h-3.11l-9.17-4.59v4.59h-4.92v-4.59L3.1 14.83H0v19.54h58.92V0zM0 9.82v3.26l6.53-3.26zM17.19 0v4.49L26.17 0zM12.27 0H3.29l8.98 4.49zM0 4.91h6.53L0 1.65z"/><path fill="#fff" d="M29.46 0l-9.82 4.91h-2.2L27.27 0h-1.1l-8.98 4.49V0h-.99V5.89h13.27v-.98h-6.54l6.54-3.27V0zM12.27 0v4.49L3.29 0H0l9.82 4.91h-2.2L0 1.1v.55l6.53 3.26H0v.98h13.26V0zM19.87 8.84H16.2v5.99h.99v-4.59l9.17 4.59h3.11v-.09l-9.83-4.92h2.2l7.63 3.82v-.55l-6.54-3.27h6.54v-.98h-8.5zM11.78 8.84H0v.98h6.53L0 13.08v1.65l9.82-4.91h2.19L2 14.83h1.1l9.17-4.59v4.59h.99V8.84z"/><path fill="#bd0034" d="M9.82 9.82L0 14.73v.1h2l10.01-5.01zM0 1.1l7.62 3.81h2.2L0 0zM29.46 0h-2.19l-9.83 4.91h2.2zM19.64 9.82l9.83 4.92v-1.1l-7.63-3.82z"/><path fill="#bd0034" d="M13.26 0V5.89H0v2.95h13.26v5.99h2.94V8.84h13.27V5.89H16.2V0z"/><path fill="#fff" d="M43.39 7.4l-.5 1.53 1.3-.95 1.3.95-.5-1.53 1.3-.94h-1.6l-.5-1.53-.49 1.53h-1.61zM47.92 8.78l.81 1.39.16-1.6 1.57-.33L49 7.58l.16-1.59-1.07 1.19-1.47-.65.81 1.39-1.08 1.19zM50.91 10.03l-1.47.65 1.57.34.17 1.6.8-1.4 1.57.34-1.07-1.19.8-1.4-1.47.66-1.07-1.2zM53.22 13.38h-1.6l1.3.94-.5 1.53 1.3-.95 1.3.95-.5-1.53 1.3-.94h-1.61l-.49-1.53zM53.81 18.98l.8 1.39.17-1.6 1.57-.34-1.46-.65.16-1.6-1.07 1.2-1.47-.65.81 1.39-1.08 1.19zM53.71 22.08l.8-1.39-1.47.65-1.07-1.19.17 1.59-1.47.65 1.57.34.17 1.6.8-1.39 1.57.33zM50.58 24.58l-.5-1.53-.5 1.53h-1.6l1.3.94-.5 1.53 1.3-.95 1.3.95-.5-1.53 1.3-.94zM47.01 26.53l.16-1.59-1.07 1.19-1.47-.66.81 1.4-1.08 1.19 1.57-.34.81 1.4.16-1.6 1.57-.33zM42.95 26.87l.8-1.4-1.47.66-1.07-1.19.17 1.59-1.47.66 1.57.33.17 1.6.8-1.4 1.57.34zM39.11 25.52l1.3-.94H38.8l-.5-1.53-.49 1.53H36.2l1.3.94-.5 1.53 1.3-.95 1.3.95zM36.14 22.73l1.57-.33-1.46-.66.16-1.59-1.07 1.19-1.47-.65.81 1.39-1.08 1.19 1.57-.33.81 1.39zM33.77 20.37l.8-1.4 1.57.34-1.07-1.19.8-1.4-1.46.66-1.08-1.2.17 1.6-1.47.65 1.57.34zM33.86 14.32l-.49 1.53 1.3-.95 1.29.95-.49-1.53 1.3-.94h-1.61l-.49-1.53-.5 1.53h-1.61zM36.4 11.22l.81 1.4.17-1.6 1.57-.34-1.47-.65.17-1.6-1.08 1.2-1.46-.66.8 1.4-1.08 1.19zM39.49 8.57l.17 1.6.8-1.39 1.57.33-1.07-1.19.8-1.39-1.47.65-1.07-1.19.17 1.59-1.47.66z"/></svg>