<svg xmlns="http://www.w3.org/2000/svg" viewBox="0 0 58.92 34.37"><path fill="#cb1d23" d="M0 0h58.92v34.37H0z"/><path fill="#f7de29" d="M5.67 12.44l1.11-3.43-2.91-2.13h3.6l1.12-3.43 1.12 3.43 3.61.01-2.91 2.12 1.1 3.43-2.92-2.11zM15.72 14.3l1.21.48.85-1-.09 1.31 1.22.49-1.28.32-.09 1.31-.7-1.11-1.27.31.84-1zM22.3 7.7l-1.29-.22-.62 1.16-.18-1.3-1.29-.23 1.17-.58-.17-1.3.91.94 1.18-.57-.62 1.16zM19.56 13.58l.4-1.25-1.06-.77 1.32-.01.4-1.24.41 1.24 1.31.01-1.06.77.4 1.25-1.06-.77zM15.78 2.18l1.19.56.9-.96-.16 1.3 1.19.56-1.29.25-.16 1.3-.64-1.14-1.29.24.89-.96z"/></svg>