<svg xmlns="http://www.w3.org/2000/svg" viewBox="0 0 58.92 34.37"><path fill="#22368f" d="M0 0h58.92v34.37H0z"/><path fill="#fff" d="M0 17.19h58.92v8.59H0z"/><path fill="#bc0030" d="M0 20.05h58.92v2.86H0z"/><path fill="#f3d02f" d="M21.91 11.17l-.38 1.19h-1.25l1.01.73-.39 1.19 1.01-.73 1.01.73-.38-1.19 1.01-.73H22.3zM16.86 12.81L16.48 14h-1.25l1.01.73-.39 1.19 1.01-.73 1.01.73-.38-1.19L18.5 14h-1.25zM13.74 17.11l-.39 1.19h-1.24l1 .73-.38 1.19 1.01-.74 1.01.74-.39-1.19 1.01-.73h-1.24zM13.74 22.42l-.39 1.19h-1.24l1 .73-.38 1.19 1.01-.73 1.01.73-.39-1.19 1.01-.73h-1.24zM16.86 26.72l-.38 1.18h-1.25l1.01.74-.39 1.19 1.01-.74 1.01.74-.38-1.19 1.01-.74h-1.25zM21.91 28.36l-.38 1.19h-1.25l1.01.73-.39 1.19 1.01-.74 1.01.74-.38-1.19 1.01-.73H22.3zM26.96 26.72l-.38 1.18h-1.25l1.01.74-.39 1.19 1.01-.74 1.01.74-.38-1.19 1.01-.74h-1.25zM30.08 17.11l-.38 1.19h-1.25l1.01.73-.39 1.19 1.01-.74 1.01.74-.38-1.19 1.01-.73h-1.25zM30.08 22.42l-.38 1.19h-1.25l1.01.73-.39 1.19 1.01-.73 1.01.73-.38-1.19 1.01-.73h-1.25zM26.96 12.81L26.58 14h-1.25l1.01.73-.39 1.19 1.01-.73 1.01.73-.38-1.19L28.6 14h-1.25z"/></svg>