<svg xmlns="http://www.w3.org/2000/svg" viewBox="0 0 58.93 34.37"><path fill="#2115a9" d="M0 0h58.92v34.37H0z"/><path fill="#3f8a45" d="M0 0l58.92 34.37L58.89.03z"/><path d="M34.84 17.17c0 2.94-2.38 5.32-5.32 5.32-2.94 0-5.32-2.38-5.32-5.32 0-2.94 2.38-5.32 5.32-5.32 2.94 0 5.32 2.38 5.32 5.32" fill="#f4c545"/><path d="M26.21 14.8c.36.5.92 1.34 1.36 1.12.35 0 .53.03.57.26.82.14 2.19-.2 3.04-1.32 0 0 .07.01.05-.41 0-.19.25-.15.26-.09.03.09.03.16.07.16.11-.04.25-.27.37-.42.03-.07.01-.14.02-.22.06-.16.22-.12.26-.04.03.05.03.09.06.15.16.11.45.01.47.01.03-.13.11-.12.11-.12.11-.02.07-.01.14.02-.06.71.14.74.12 1.1.02.4-.11.51-.11.67.04.19.64.19.43.35-.18.1 0 .29-.28.35-.81.41-.96.76-.96.76s-.2.38-.23.38c-.14.26-.31.12-.4.24-.05.16-.1.5 0 .68.05.25-.01.38-.07.63-.05.52-.26.6-.28.78-.1.2.02 1.11-.07 1.11-.6.01-1.06-.11-1.3-.16.23-1 .14-1.88.14-1.97-.06-.72-1.07-.54-1.23-.64-.13-.03-.21-.13-.26-.18-.14-.02-.2-.05-.34-.06-.07.03-.03.07-.19.12-.4.05-.58-.35-.58-.35.02-.13-.91.03-1.41-.09-.21.11-.3.46-.47.5-.01.11-.28-.09-.33-.19-.01-.3.26-.44.26-.44.22-.15.35-.18.45-.29.05-.26.03-.46.14-.65.09-.15.24-.08.33-.15.1-.07.15-.51.05-.63 0 0-.41-.37-.43-.39-.13-.37.16-.61.24-.58" fill="#3f8a45"/><path d="M51.73 8.2c-.24-.95-2.4-3.01-4.02-4.32-.39-.26-.64-.11-.59.27.2.34.35.71.56 1.04.06.22.16.38.22.61 0 0 .02.39.05.42.51.56.57 1.03.57 1.03.29.56.55.97 1.06 1.43.57.36.15 1.48.17 2.07 0 .38-.27.33-.51.29-1.86-1.71-3.7-1.71-5.32-2.21-.63-.07-.65.23-.44.4 1.13 1.21 2.2 2.04 3.6 2.73.24.15.47.29.71.44.27.23.54.45.81.67.62.41.67.77.67.81.02.76-.39 1.35-.51 1.58-.21.81-.64.94-.64.94-3.47 2.34-5.29 2.95-10.91 2.22-.08-.05-.62.04 0 .27 1.43.48 4.95 1.24 8.35-.37.82-.57 1.36-.38 1.95-.73.97-.6 2.36-1.35 2.61-1.43.76-.4 2.88-.86 3.37-1.26.56-.04 1.14-.12 1.18-.6.19-.12.45-.03.65-.43.44-.08.37-.24.37-.24-.11-.31-.53-.44-.83-.67-.44-.15-.74-.19-1.06-.03-.1.04-.2.09-.3.14 0 0-.47-.07-.47-.1-1.03-.05-.93-3.52-1.3-4.97" fill="#f4c545"/><path d="M54.19 13.89c-.03.08-.17.12-.3.07-.14-.04-.22-.14-.19-.23s.17-.12.3-.08c.13.05.22.15.19.24" fill="#3f8a45"/><path fill="#fff" d="M11.09 13.71l-.76-.71-.75.7.08-1.03-1.02-.16.85-.58-.5-.89.98.3.38-.95.37.96.99-.3-.52.89.85.59-1.02.15zM13.75 22.23l-.81-.54-.79.57.28-.92-.8-.56.98-.02.3-.92.33.91.98-.01-.78.58zM17.48 18.72l-.76-.71-.76.7.09-1.03-1.02-.16.85-.58-.5-.89.98.3.38-.95.37.96.99-.29-.52.88.85.59-1.02.15zM4.48 20.97l-.75-.71-.76.7.08-1.03-1.01-.16.85-.58-.51-.89.98.31.39-.96.37.96.99-.29-.52.88.84.59-1.02.15zM11.24 29.56l-.76-.7-.76.69.08-1.03-1.01-.16.85-.57-.5-.9.98.31.38-.95.37.95.99-.29-.52.89.85.59-1.02.14z"/></svg>