<svg xmlns="http://www.w3.org/2000/svg" viewBox="0 0 58.92 34.37"><path fill="#fff" d="M0 0h58.92v34.37H0z"/><path d="M25.2 10.45c0 .45.06.51.08.59.03.09.06 1.64-.17 2.07-.23.42-.69.66-.88.71-.18.04-.76-.37-1.3-.54-.54-.17-.51-.14-.73-.14-.23 0-.74.19-.88.31-.09-.02-.11-.06-.17 0-.05.06-.28.28-.34.42-.06.14-.2.68-.37.73-.17.06-.63.52-.93.54-.3.02-.22-.02-.42-.03-.21-.01-.23-.23-.43-.34-.2-.11-.25-.2-.25-.2s-.06-.23-.14-.23c-.08 0-.17.4-.17.51 0 .11.23.54.34.62.11.09.11.59.06.74-.06.14.11.28.14.42.03.14-.17.25-.08.28.08.03.2.2.2.37 0 .17.42.23.51.4.08.17.11.45.14.62.03.17.13.09.14.51.13.06.34.2.51.28.17.08.14.28.37.37.23.08.23 0 .34.03.11.03-.06.06.14.11.2.06.28-.03.45.06.17.08.26.28.37.34.11.06.59.2.62.23.03.03.34.14.4.14s.23-.11.23-.11.2.06.37 0c.17-.06.28-.23.4-.23.11 0 .14.06.26.06.11 0 .28-.06.28-.06s.25-.06.45.06c.2.11.65.65.65.88 0 .23-.03.34-.03.34s.23-.03.31.03c.08.06.08-.05.71.06-.04-.16-.65-.59-.08-1.21.57-.62.6-.37.74-.48.13-.11.65-.44 1.53-.14.85-.14.23-.26.71-.28.09-.04.25.01.43.06.06-.11.18-.21.37-.17.03-.1.27-.23.51-.25.04-.19.64-.43.99-.45.14-.13.3-.69 1.07-.42.03-.18.15-.48.37-.54.04-.38-.1-1.15.28-1.42.38-.35.74-.27 1.39-.25.44.09.65.42.79.45.14.03.2.03.37-.09.17-.11-.03-.34.11-.34s.08.03.31 0c.23-.03.2-.11.34-.14.23.11.48.03.59.11.11.09.13.08.37.11.08.14.31.14.31.14s-.17-.06-.11-.14c.06-.08 0-.34-.11-.45-.11-.11-.17-.14-.26-.25-.08-.11.03-.11-.11-.25s-.45-.28-.54-.45c-.08-.17-.06-.28-.2-.42-.14-.14-.71-.62-.74-1.13-.03-.51.03-1 .37-1.16-.01-.3.06-.34.37-.51.31-.17.34-.06.54-.06s.31.03.51-.11.03-.45.54-.91c.51-.45.71-.68.88-.71.17-.03.79-.46 1.05-.42.18-.22.37-.48.59-.65.23-.17.48-.17.6-.31.11-.14.08-.4.42-.62.34-.23.62-.37.76-.48s.45-.03.57-.14c.11-.11.11-.54.23-.62.11-.08-.37.2-.62.31-.26.11-.62.31-.93.28-.31-.03-.14.17-.31.23-.17.06-.45.03-.57.14-.11.11-.31.4-.48.51-.17.11-.26.09-.42.17-.17.09-.31.17-.45.23s-.57.03-.57.03-.37.48-.54.65c-.17.17-.37.14-.54.23-.17.08-1.61 1.02-2.6 1.16-.99.14-.54-.08-.85 0-.31.09-.76.68-1.13.71-.37.03-.48 0-.57 0-.08 0-.54.28-.82.23-.42.13-.73.1-.85.09-.12-.02-.34.14-.65 0-.24-.08-.24.09-.71-.06s-.79.06-1.02-.06c-.23-.11-.2-.2-.37-.2-.17 0-.17.11-.37.11-.2 0-.23-.11-.4-.11s-.37.11-.62.09c-.25-.03-.34-.14-.51-.14-.21-.06-1.14-.45-1.14-.45" fill="#dd7d21"/><path d="M28.09 27.72c.49-.35.92-.47 1.59-.59s1.38-.31 1.75-.41c.37-.1-1.26.47-1.67.59-.41.12-1.67.41-1.67.41M30.78 26.68c-.14-.84.2-1.73.96-2.08.18.61-.37 1.65-.96 2.08M32.08 26.24c-.41-.7.28-1.6.79-2.04.23.42-.18 1.68-.79 2.04M33.28 25.7c-.44-.6.08-1.65.63-2.06.21.59 0 1.65-.63 2.06M34.48 24.95c-.4-.56-.12-1.45.45-2.02.41.47.06 1.49-.45 2.02M35.44 24.19c-.33-.53.08-1.81.61-2.16.23.47.06 1.8-.61 2.16M36.21 23.99c-.1-.77 1.24-1.61 1.79-1.59-.07.63-.64 1.32-1.79 1.59M35.46 24.85c.63-.65 1.85-.65 2.28-.51-.12.38-1.55 1.2-2.28.51" fill="#2c6752"/><path d="M34.59 25.5c.88-.24 1.45-.43 1.98.12-.36.47-1.8.33-1.98-.12M33.34 26.07c.84-.45 1.86.22 2.02.61-.94.39-2.04-.51-2.02-.61M32.18 26.72c.77-.29 1.65.1 2 .53-.41.2-1.49.41-2-.53M31.12 27.05c.88-.1 1.73.57 1.92.95-1.14.12-1.57-.22-1.92-.95M30.83 27.72c-.49-.35-.92-.47-1.59-.59s-1.38-.31-1.75-.41c-.37-.1 1.26.47 1.67.59.42.12 1.67.41 1.67.41M28.14 26.68c.14-.84-.2-1.73-.96-2.08-.18.61.37 1.65.96 2.08M26.85 26.24c.41-.7-.28-1.6-.79-2.04-.23.42.18 1.68.79 2.04M25.65 25.7c.44-.6-.08-1.65-.63-2.06-.22.59 0 1.65.63 2.06M24.45 24.95c.4-.56.12-1.45-.45-2.02-.41.47-.06 1.49.45 2.02M23.49 24.19c.33-.53-.08-1.81-.61-2.16-.24.47-.06 1.8.61 2.16M22.72 23.99c.1-.77-1.24-1.61-1.79-1.59.06.63.63 1.32 1.79 1.59M23.47 24.85c-.63-.65-1.85-.65-2.28-.51.12.38 1.55 1.2 2.28.51" fill="#2c6752"/><path d="M24.33 25.5c-.89-.24-1.45-.43-1.98.12.37.47 1.8.33 1.98-.12M25.59 26.07c-.84-.45-1.87.22-2.02.61.94.39 2.04-.51 2.02-.61M26.75 26.72c-.77-.29-1.65.1-2 .53.41.2 1.49.41 2-.53M27.81 27.05c-.88-.1-1.73.57-1.92.95 1.13.12 1.57-.22 1.92-.95" fill="#2c6752"/></svg>