<svg xmlns="http://www.w3.org/2000/svg" viewBox="0 0 58.93 34.37"><path fill="#2d6c41" d="M0 0h58.92v34.37H0z"/><path fill="#fff" d="M0 18.62h58.92v2.86H0z"/><path d="M0 15.76h58.92v2.86H0z"/><path fill="#f3d02f" d="M0 12.89h58.92v2.86H0z"/><path fill="#f3d02f" d="M25.16 0h2.87v34.37h-2.87z"/><path d="M28.03 0h2.87v34.37h-2.87z"/><path fill="#fff" d="M30.9 0h2.86v34.37H30.9z"/><path d="M38.06 17.19c0 4.74-3.85 8.59-8.59 8.59-4.75 0-8.59-3.85-8.59-8.59 0-4.75 3.85-8.59 8.59-8.59 4.74-.01 8.59 3.84 8.59 8.59" fill="#c20038"/><path d="M29.19 10.4c0-.01.27-.78.27-.78l.25.77s.84.03.84.01c0-.01-.66.51-.66.51l.3.86c-.01-.03-.73-.53-.73-.53s-.73.51-.71.51c.01 0 .27-.84.27-.84l-.65-.49.82-.02z" fill="#2d6c41"/><path d="M30.19 11.83l-.02-.04c-.04-.04-.46-.34-.72-.52-.15.13-.64.47-.68.5-.03-.07.13-.55.23-.87l-.64-.46.82-.06c0-.03.05-.17.26-.77l.3.77c.01-.02.51 0 .72 0h.09-.01s-.01.01-.01.02v.01h.01-.01c0 .02-.01.03-.03.03-.12.13-.46.39-.6.5.22.58.29.76.31.82v.04l-.02.03zm-.75-2.18c0 .12-.22.73-.23.76l-.84.04.67.44c-.01.1-.21.72-.26.85.08-.11.64-.5.66-.52.4.27.6.41.69.47-.08-.22-.27-.77-.27-.77.06-.07.43-.36.6-.48-.22 0-.74-.02-.74-.02l-.28-.77z"/><path d="M29.74 23.99c0 .01-.28.79-.28.79l-.25-.78s-.84-.03-.84-.01c0 .01.67-.51.67-.51l-.3-.86c.01.03.73.53.73.53s.73-.51.71-.51-.27.84-.27.84l.65.49-.82.02z" fill="#2d6c41"/><path d="M29.46 24.86l-.28-.85c-.01.02-.52 0-.73 0h-.08s0-.01.01-.02c0-.03.01-.04.03-.04.11-.12.4-.34.6-.5-.22-.58-.29-.76-.3-.82-.01-.02 0-.03 0-.03.07.03.5.34.77.53.15-.13.62-.46.67-.5l.02-.01-.02.01.02.02-.02-.02v.02h-.01.01c0 .13-.14.55-.23.84l.64.46-.82.06c0 .02-.05.17-.26.77l-.02.08zm-.99-.9c.22 0 .74.02.74.02l.25.71c.07-.19.24-.67.25-.7l.84-.04-.67-.44c.01-.1.21-.72.26-.85-.08.11-.63.5-.66.52-.55-.37-.7-.49-.75-.52.09.13.33.82.33.82-.05.06-.42.35-.59.48"/><path d="M33.46 12.34c0 .01-.28.79-.28.79l-.25-.77s-.84-.03-.84-.01c0 .01.67-.51.67-.51l-.3-.86c.01.02.73.53.73.53s.72-.51.7-.51-.27.84-.27.84l.65.49-.81.01z" fill="#2d6c41"/><path d="M33.18 13.22l-.28-.85c-.01.02-.52 0-.72 0h-.08c0-.01 0-.01.01-.02 0-.02.01-.03.03-.04.11-.12.4-.34.6-.5-.22-.58-.29-.76-.3-.82v-.01c-.01-.02 0-.03 0-.03.07.03.5.34.77.53.15-.13.62-.45.67-.5l.02-.01-.02.01.01.02-.02-.02V11h-.01.01c0 .13-.14.55-.23.84l.64.46-.82.06c0 .03-.05.17-.26.77l-.02.09zm-.99-.91c.22 0 .74.02.74.02l.25.72c.07-.19.24-.68.25-.7l.84-.04-.67-.44c.01-.11.21-.72.26-.85-.08.11-.64.5-.66.52-.55-.37-.7-.49-.75-.53.09.13.33.82.33.82-.06.06-.43.36-.59.48"/><path d="M35.87 19.39c0 .01-.28.79-.28.79l-.25-.77s-.84-.03-.84-.01c0 .01.66-.51.66-.51l-.3-.86c.01.02.73.53.73.53s.73-.51.71-.51-.27.84-.27.84l.65.49-.81.01z" fill="#2d6c41"/><path d="M35.59 20.27l-.27-.85c-.01.02-.53 0-.73 0h-.08c0-.01 0-.01.01-.02 0-.03.01-.04.03-.04.11-.11.4-.34.6-.5-.22-.58-.29-.76-.3-.82v-.01c-.01-.02 0-.03 0-.03.07.03.5.34.77.53.15-.13.62-.46.67-.5l.02-.01-.02.01.02.02-.02-.02v.02h-.01.01c0 .13-.14.56-.23.84l.64.46-.82.06c0 .03-.05.17-.26.77l-.03.09zm-.99-.91c.22 0 .74.02.74.02l.25.71c.07-.19.24-.67.25-.7l.84-.04-.67-.44c.01-.1.21-.72.26-.85-.08.11-.63.5-.66.52-.55-.37-.7-.49-.75-.53.09.13.33.82.33.82-.05.07-.42.36-.59.49"/><path d="M23.61 19.59c0 .01-.28.79-.28.79l-.25-.77s-.84-.02-.84-.01.66-.51.66-.51l-.3-.86c.01.02.73.53.73.53s.73-.51.71-.51-.28.84-.28.84l.65.49-.8.01z" fill="#2d6c41"/><path d="M23.33 20.47l-.28-.85c-.01.02-.52 0-.73 0h-.08c0-.01 0-.01.01-.02 0-.02.01-.03.03-.04.11-.11.4-.34.6-.5-.22-.58-.29-.76-.3-.82v-.01c-.01-.02 0-.03 0-.03.07.03.5.34.77.53.15-.13.62-.46.67-.5l.02-.01-.02.01.02.02-.02-.02v.02h-.01.01c0 .13-.14.56-.23.84l.64.46-.82.06c0 .03-.05.17-.26.77l-.02.09zm-.99-.91c.22 0 .74.02.74.02l.25.72c.07-.19.24-.67.25-.71l.84-.04-.67-.44c.01-.1.21-.72.26-.85-.08.11-.64.5-.66.52-.55-.37-.7-.49-.75-.52.09.13.33.82.33.82-.05.06-.42.36-.59.48"/><path d="M25.83 12.43c0 .01-.28.79-.28.79l-.25-.77s-.84-.02-.84-.01.66-.51.66-.51l-.3-.86c.01.02.73.53.73.53s.73-.51.71-.51c-.01 0-.27.84-.27.84l.65.5h-.81z" fill="#2d6c41"/><path d="M25.56 13.3l-.28-.85c-.01.02-.52 0-.72 0h-.08s0-.01.01-.02c0-.02.01-.03.03-.04.11-.11.4-.34.6-.5-.22-.58-.29-.76-.3-.82v-.01c-.01-.02 0-.03 0-.03.07.03.5.34.77.53.15-.13.62-.46.67-.5l.02-.01-.02.01.02.02-.02-.02v.02h-.01.01c0 .12-.14.55-.23.84l.64.46-.82.06c0 .03-.05.17-.26.77l-.03.09zm-1-.91c.22 0 .74.02.74.02l.25.71c.07-.19.24-.67.25-.7l.84-.04-.67-.44c.01-.1.21-.72.26-.85-.08.11-.64.5-.66.52-.55-.37-.7-.48-.75-.52.09.13.33.82.33.82-.05.07-.42.36-.59.48"/><path d="M23.01 15c0-.01.27-.78.27-.78l.25.77s.84.02.84.01-.66.51-.66.51l.3.86c-.01-.02-.73-.53-.73-.53s-.73.51-.71.51c.01 0 .27-.84.27-.84l-.65-.49.82-.02z" fill="#2d6c41"/><path d="M24 16.43l-.02-.04c-.04-.04-.46-.34-.72-.53-.15.13-.64.47-.68.5-.03-.07.13-.55.23-.86l-.64-.46.82-.06c0-.03.05-.17.26-.77l.3.77c.01-.02.52 0 .72 0h.08-.01v.03h-.01c0 .02-.01.02-.03.03-.11.11-.4.34-.6.5.22.58.29.76.3.82v.01c.01.02 0 .03 0 .03v.03zm-.74-2.18c0 .12-.22.73-.23.76l-.84.04.67.44c-.01.1-.21.72-.26.85.08-.11.64-.5.66-.52.4.28.6.41.69.47-.08-.22-.27-.77-.27-.77.06-.06.43-.36.6-.48-.22 0-.74-.02-.74-.02l-.28-.77z"/><path d="M25.4 22.04c0-.01.28-.78.28-.78l.25.77s.84.03.84.01c0-.01-.66.51-.66.51l.3.86c-.01-.02-.73-.53-.73-.53s-.73.51-.71.51c.01 0 .27-.84.27-.84l-.65-.49.81-.02z" fill="#2d6c41"/><path d="M26.4 23.46l-.02-.04c-.04-.04-.46-.34-.72-.53-.15.13-.64.47-.68.5-.03-.07.13-.55.23-.87l-.64-.46.82-.06c0-.03.05-.17.26-.77l.3.77c.01-.02.51 0 .72 0h.09-.01s0 .01-.01.02v.01h.01-.01c0 .02-.01.03-.03.03-.12.13-.46.39-.6.5.22.58.29.76.3.82v.01c.01.02 0 .03 0 .03l-.01.04zm-.74-2.18c0 .12-.22.73-.23.76l-.84.04.67.44c-.01.1-.21.72-.26.85.08-.11.64-.5.66-.52.4.28.6.41.69.47-.08-.22-.27-.77-.27-.77.06-.07.43-.36.59-.48-.22 0-.74-.02-.74-.02l-.27-.77z"/><path d="M35.27 14.81c0-.01.28-.79.28-.79l.25.77s.84.03.84.01c0-.01-.66.51-.66.51l.3.86c-.01-.03-.73-.53-.73-.53s-.73.51-.71.51c.01 0 .28-.84.28-.84l-.65-.49.8-.01z" fill="#2d6c41"/><path d="M36.27 16.24l-.02-.04c-.04-.04-.46-.34-.72-.53-.15.13-.64.47-.68.5-.03-.07.13-.55.23-.86l-.64-.46.82-.06c0-.03.05-.17.26-.77l.3.77c.01-.02.51 0 .72 0h.09-.01s0 .01-.01.02v.01h.01-.01c0 .02-.01.03-.03.03-.12.13-.46.39-.6.5.22.58.29.76.3.82v.01c.01.02 0 .02 0 .03l-.01.03zm-.74-2.18c0 .12-.22.73-.23.76l-.84.04.67.44c-.01.1-.21.72-.26.85.08-.11.64-.5.66-.52.4.27.6.41.69.47-.08-.22-.27-.77-.27-.77.06-.06.43-.36.59-.48-.22 0-.74-.02-.74-.02l-.27-.77z"/><path d="M33.04 21.97c0-.01.28-.79.28-.79l.25.77s.84.03.84.01c0-.01-.66.51-.66.51l.3.86c-.01-.02-.73-.53-.73-.53s-.73.51-.71.51.27-.84.27-.84l-.65-.49.81-.01z" fill="#2d6c41"/><path d="M34.04 23.4l-.02-.04c-.04-.04-.46-.34-.72-.53-.15.13-.64.47-.68.5-.03-.07.13-.55.23-.86l-.64-.47.82-.06c0-.03.05-.17.26-.77l.3.77c.01-.02.52 0 .73 0h.08-.01v.03h-.01c0 .02-.01.03-.03.03-.11.12-.4.34-.6.5.22.58.29.76.31.82v.01c.01.02 0 .02 0 .03l-.02.04zm-.74-2.18c0 .12-.22.73-.23.76l-.84.04.67.44c-.01.1-.21.72-.26.85.08-.11.64-.5.66-.52.4.28.6.41.69.47-.08-.22-.27-.77-.27-.77.06-.06.43-.36.59-.48-.22 0-.74-.02-.74-.02l-.27-.77z"/><path d="M23.68 15.31h.04-.04zM31.08 20.52h.04-.04zM28.92 28.79h.04-.04zM18.58 28.79h.04-.04zM16.69 20.31h.04-.04zM39.35 4.93h-.04.04zM42.32 13.01h-.04.04zM34.95 18.92h-.04.04zM28.04 13.01H28h.04zM30.59 5.05h-.04.04z" fill="#3d9546"/><path d="M30.46 16.93c.28-.03.59 1.08.69 2.47.1 1.39-.05 2.55-.33 2.58-.28.03-.59-1.08-.69-2.47-.1-1.39.05-2.55.33-2.58" fill="#2d6c41"/><path d="M30.81 22.02c-.35 0-.62-1.29-.71-2.5-.09-1.26.02-2.58.36-2.61.36 0 .64 1.29.72 2.5.09 1.26-.02 2.58-.36 2.61h-.01zm-.34-5.06c-.24.02-.42 1.06-.31 2.55.1 1.46.42 2.44.65 2.44v.03l.01-.03c.23-.02.41-1.05.31-2.55-.11-1.45-.43-2.44-.66-2.44"/><path d="M30.96 16.93c.3-.03.62 1.07.72 2.47.1 1.4-.06 2.55-.36 2.58-.3.03-.62-1.07-.72-2.47-.1-1.39.06-2.55.36-2.58" fill="#2d6c41"/><path d="M31.31 22.01c-.36 0-.65-1.29-.74-2.5-.09-1.25.03-2.58.38-2.61.38 0 .67 1.29.75 2.5.09 1.25-.03 2.57-.38 2.61h-.01zm-.33-5.05c-.26.03-.45 1.06-.34 2.55.1 1.46.44 2.44.68 2.44v.03l.01-.03c.25-.02.44-1.05.33-2.55-.11-1.46-.44-2.44-.68-2.44"/><path d="M30.71 16.8c.24-.02.52 1.21.63 2.75.11 1.54 0 2.81-.24 2.84-.24.02-.52-1.21-.63-2.75-.1-1.55 0-2.82.24-2.84" fill="#2d6c41"/><path d="M31.09 22.41c-.3 0-.56-1.43-.65-2.77-.1-1.37-.04-2.84.26-2.87.31 0 .57 1.43.66 2.77.1 1.37.04 2.84-.27 2.87zm-.37-5.58c-.2.02-.33 1.18-.22 2.81.11 1.63.4 2.72.59 2.72v.03-.03c.19-.02.33-1.18.21-2.81-.1-1.63-.39-2.72-.58-2.72"/><path d="M26.93 20.77c.44-.02.25-.25.47-.38.22-.13.54-.04.63.11.09.16.02.31.14.31.12 0 3.43-.14 3.55-.01.12.13.14.39.01.49-.12.1-4.31.15-4.45.04-.14-.09-.35-.53-.35-.56" fill="#904a15"/><path d="M28.86 21.43c-.69 0-1.52-.01-1.6-.07-.15-.11-.37-.55-.37-.6.28-.04.3-.11.34-.21.02-.07.05-.14.15-.19.21-.12.57-.05.67.13.04.07.05.14.06.2.01.08.01.09.06.1.03 0 .15 0 .32-.01.53-.02 1.58-.05 2.34-.05.85 0 .89.04.91.07.07.08.11.21.1.33-.01.09-.04.16-.09.2-.09.07-2.02.1-2.89.1m-1.22-1.07c-.08 0-.16.02-.23.06-.08.04-.1.1-.12.16-.04.1-.08.21-.36.22.04.01.24.43.37.52.04.03.48.06 1.56.06 1.38 0 2.77-.05 2.86-.1.04-.03.07-.09.07-.16a.38.38 0 0 0-.09-.28c-.02-.01-.14-.05-.87-.05-.76 0-1.81.04-2.34.05-.18.01-.29.01-.32.01-.1 0-.11-.07-.11-.15-.01-.06-.01-.12-.05-.18-.06-.09-.21-.16-.37-.16"/><path d="M29.27 21.09c-.01.33.48.24.49.51-.01.29-.82.02-.83-.52.03-.53.82-.8.83-.49.01.26-.48.17-.49.5" fill="#f3d02f"/><path d="M29.59 21.76c-.24 0-.69-.25-.69-.67.04-.58.88-.81.89-.5 0 .14-.12.19-.24.24-.13.06-.25.11-.26.26 0 .15.11.2.24.26.12.05.25.11.25.25 0 .1-.07.16-.19.16m0-1.27c-.21 0-.61.23-.64.6.01.37.42.6.64.6.06 0 .13-.02.13-.09 0-.11-.1-.15-.21-.2-.13-.06-.28-.12-.28-.31s.16-.26.29-.31c.13-.05.2-.09.2-.18.01-.09-.06-.11-.13-.11"/><path d="M29.56 21.1c-.01.33.48.24.49.51-.02.29-.82.02-.83-.52.03-.54.82-.8.83-.49.01.25-.48.17-.49.5" fill="#f3d02f"/><path d="M29.88 21.76c-.24 0-.69-.25-.69-.66.04-.58.88-.81.89-.5 0 .14-.12.19-.24.24-.13.06-.25.11-.26.26 0 .15.11.2.24.26.12.05.25.11.25.25 0 .09-.07.15-.19.15m0-1.26c-.21 0-.61.23-.64.6.01.37.42.6.64.6.06 0 .13-.02.13-.09 0-.11-.1-.15-.21-.2-.13-.06-.28-.12-.27-.31 0-.19.16-.26.29-.31.13-.05.2-.09.2-.18s-.08-.11-.14-.11"/><path d="M29.87 21.09c-.01.33.48.24.49.51-.01.29-.82.02-.83-.52.03-.54.82-.8.83-.49.01.25-.48.16-.49.5" fill="#f3d02f"/><path d="M30.19 21.75c-.24 0-.69-.25-.69-.66.04-.57.88-.81.89-.5 0 .14-.12.19-.24.24-.13.05-.25.11-.26.26 0 .15.11.2.24.26.12.05.25.1.25.25 0 .09-.07.15-.19.15m0-1.26c-.21 0-.61.23-.64.6.01.37.42.61.64.61.06 0 .13-.02.13-.09 0-.11-.1-.15-.21-.2-.13-.05-.28-.12-.27-.31 0-.19.16-.26.29-.31.13-.05.2-.09.2-.18 0-.11-.08-.12-.14-.12"/><path d="M30.16 21.09c-.01.33.48.24.49.51-.01.29-.82.02-.83-.52.03-.53.82-.8.83-.49.01.25-.49.17-.49.5" fill="#f3d02f"/><path d="M30.48 21.75c-.24 0-.69-.25-.7-.66.04-.58.88-.81.89-.5 0 .14-.12.19-.24.24-.13.06-.25.11-.26.26 0 .15.11.2.24.26.12.05.25.1.25.25.01.1-.06.15-.18.15m0-1.26c-.21 0-.61.23-.64.6.01.37.42.61.64.61.06 0 .13-.02.13-.09 0-.11-.1-.15-.21-.2-.13-.05-.28-.12-.27-.31.01-.19.16-.26.29-.31.13-.05.2-.09.2-.18 0-.1-.08-.12-.14-.12"/><path d="M31.54 20.76c.15 0 .28.13.27.29 0 .16-.13.28-.29.28-.15 0-.28-.13-.27-.29.01-.15.14-.28.29-.28" fill="#904a15"/><path d="M31.53 21.36c-.09 0-.16-.04-.22-.09a.31.31 0 0 1 .22-.53c.09 0 .16.03.22.09s.09.14.09.23c0 .16-.14.3-.31.3m.01-.57c-.14 0-.25.11-.26.25a.241.241 0 0 0 .24.25v.03-.02c.14 0 .25-.11.25-.25 0-.07-.02-.14-.07-.18-.03-.05-.1-.08-.16-.08"/><path d="M29.8 19.55c.14-.02.27.21.31.51.03.3-.05.56-.19.58-.14.02-.27-.21-.31-.51-.03-.3.05-.56.19-.58" fill="#2d6c41"/><path d="M29.9 20.67c-.15 0-.29-.23-.32-.54-.04-.32.06-.59.21-.62.17 0 .3.23.34.54.03.32-.06.59-.21.62h-.02zm-.09-1.09c-.12.02-.21.24-.18.56.03.3.16.48.26.48v.03l.01-.03c.11-.02.2-.24.16-.56-.02-.3-.15-.48-.25-.48"/><path d="M29.38 19.52c.14-.02.27.21.31.51.03.3-.05.56-.19.58-.14.02-.27-.21-.31-.51-.04-.3.05-.56.19-.58" fill="#2d6c41"/><path d="M29.48 20.64c-.15 0-.29-.23-.32-.54-.04-.32.06-.59.21-.62.17 0 .3.23.34.54.03.32-.06.59-.21.62h-.02zm-.09-1.09c-.12.02-.21.24-.18.56.03.3.16.48.26.48v.03l.01-.03c.11-.02.2-.24.16-.56-.02-.3-.15-.48-.25-.48"/><path d="M29.07 18.98c.14-.02.27.21.31.51.03.3-.05.56-.19.58-.14.02-.27-.21-.31-.51-.03-.3.06-.56.19-.58" fill="#2d6c41"/><path d="M29.17 20.1c-.15 0-.29-.23-.32-.54-.03-.32.06-.59.21-.61.17 0 .3.23.34.53.04.32-.06.59-.21.62h-.02zm-.08-1.09c-.12.02-.21.24-.18.55.03.3.16.48.26.48v.03l.01-.03c.11-.02.2-.24.17-.55-.03-.3-.16-.48-.26-.48"/><path d="M29.5 18.9c.13-.02.27.23.3.56.04.33-.04.62-.17.64-.13.02-.27-.23-.3-.56-.04-.33.03-.62.17-.64" fill="#2d6c41"/><path d="M29.61 20.13c-.14 0-.28-.25-.32-.59-.04-.35.05-.65.2-.67.16 0 .3.25.33.59.04.35-.05.65-.2.67h-.01zm-.1-1.2c-.11.02-.2.27-.16.61.03.33.16.54.26.54v.03l.01-.03c.1-.02.19-.27.15-.61-.04-.33-.16-.54-.26-.54"/><path d="M30.09 18.94c.13-.02.26.22.3.53.03.31-.05.58-.18.6-.13.02-.26-.22-.3-.53-.03-.31.05-.58.18-.6" fill="#3d9546"/><path d="M30.19 20.1c-.14 0-.28-.24-.31-.56-.04-.33.05-.61.2-.63.16 0 .3.24.33.55.04.33-.05.61-.2.63l-.02.01zm-.09-1.13c-.11.02-.2.25-.16.57.03.31.16.5.25.5v.03l.01-.03c.1-.02.19-.25.15-.57-.03-.31-.15-.5-.25-.5"/><path d="M29.76 18.75c.13-.02.26.22.3.53.03.31-.05.58-.18.6-.13.02-.26-.22-.3-.53-.03-.31.05-.58.18-.6" fill="#3d9546"/><path d="M29.87 19.91c-.14 0-.28-.24-.31-.56-.04-.33.05-.61.2-.63.16 0 .3.24.33.55.04.33-.05.61-.2.63l-.02.01zm-.09-1.14c-.11.02-.2.25-.17.57.03.31.16.5.26.5v.03l.01-.03c.1-.01.19-.25.15-.57-.03-.3-.15-.5-.25-.5"/><path d="M29.36 18.47c.13-.02.26.22.3.53.03.31-.04.58-.18.6-.13.02-.27-.22-.3-.53-.03-.32.05-.58.18-.6" fill="#3d9546"/><path d="M29.46 19.63c-.14 0-.28-.24-.31-.56-.04-.33.05-.61.2-.63.16 0 .3.24.33.55.04.33-.05.61-.2.64h-.02zm-.09-1.14c-.11.02-.2.25-.17.57.03.31.16.51.25.51v.03l.01-.03c.1-.02.19-.25.15-.57-.02-.31-.14-.51-.24-.51"/><path d="M28.98 18.3c.13-.02.27.22.3.53.03.31-.05.58-.18.6-.13.02-.26-.22-.3-.53-.03-.32.05-.58.18-.6" fill="#2d6c41"/><path d="M29.08 19.46c-.14 0-.28-.24-.31-.56-.04-.33.05-.61.2-.63.16 0 .3.24.33.55.04.33-.05.61-.2.63l-.02.01zm-.09-1.14c-.11.02-.2.25-.17.57.03.31.16.5.25.5v.03l.01-.03c.1-.02.19-.25.15-.57-.02-.3-.14-.5-.24-.5"/><path d="M28.62 14.17s-.84.73-.75 2.7c.11 1.98 1.85 2.92 1.85 2.92s.45-.56.4-2.16c-.13-2.33-.95-3.36-.95-3.36l-.55-.1z" fill="#8d5bc5"/><path d="M29.74 19.82l-.02-.01c-.02-.01-1.76-.96-1.87-2.94-.09-1.96.75-2.72.76-2.72l.58.09c.03.02.85 1.07.98 3.39.05 1.59-.38 2.15-.4 2.18l-.03.01zm-1.13-5.62c.01 0-.8.74-.71 2.67.1 1.82 1.62 2.76 1.82 2.88.07-.11.42-.72.37-2.12-.12-2.29-.94-3.33-.94-3.34l-.54-.09z"/><path d="M30.55 19.61c.14 0 .23.25.21.56-.02.3-.15.55-.29.54-.14 0-.23-.25-.21-.56.02-.3.15-.54.29-.54" fill="#2d6c41"/><path d="M30.47 20.74c-.05 0-.09-.02-.13-.06-.09-.1-.13-.3-.12-.52.02-.32.16-.57.31-.57.05 0 .09.02.13.06.09.1.13.3.12.52-.02.32-.15.57-.31.57m.08-1.1c-.11 0-.24.21-.26.51-.01.21.03.39.1.48.03.03.05.04.08.04v.03-.03c.11 0 .24-.21.26-.51.01-.21-.03-.39-.1-.48-.03-.02-.05-.04-.08-.04"/><path d="M30.14 19.51c.14 0 .23.25.21.56-.02.3-.15.55-.29.54-.14 0-.23-.25-.21-.56.02-.31.15-.55.29-.54" fill="#2d6c41"/><path d="M30.06 20.63c-.05 0-.09-.02-.13-.06-.09-.1-.13-.3-.12-.53.02-.32.16-.57.31-.57.05 0 .09.02.13.06.09.1.13.3.12.52-.01.33-.15.58-.31.58m.08-1.09c-.11 0-.24.21-.26.51-.01.21.03.4.1.48.03.03.05.04.08.04v.03-.03c.11 0 .24-.21.26-.51.01-.21-.03-.4-.1-.48-.03-.03-.05-.04-.08-.04"/><path d="M29.94 18.92c.14 0 .23.25.21.56-.02.3-.15.55-.29.54-.14 0-.23-.25-.21-.56.02-.3.15-.54.29-.54" fill="#2d6c41"/><path d="M29.86 20.05c-.05 0-.09-.02-.13-.06-.09-.1-.13-.3-.12-.53.02-.32.16-.57.31-.57.05 0 .09.02.13.06.09.1.13.3.12.53-.01.32-.15.57-.31.57m.08-1.1c-.11 0-.24.21-.26.51-.01.21.03.4.1.48.03.03.05.04.08.04v.03-.03c.11 0 .24-.21.26-.52.01-.2-.03-.39-.1-.48-.03-.01-.05-.03-.08-.03"/><path d="M30.37 18.92c.13 0 .22.28.2.61-.02.33-.15.6-.29.6-.13 0-.22-.28-.2-.61.03-.34.16-.61.29-.6" fill="#2d6c41"/><path d="M30.28 20.16c-.04 0-.08-.02-.11-.06-.09-.1-.14-.33-.12-.59.03-.45.27-.73.42-.57.09.1.14.33.12.59-.02.35-.16.63-.31.63m.09-1.21c-.1 0-.23.23-.26.57-.02.24.02.46.1.55.02.02.04.03.07.03v.03-.03c.1 0 .23-.23.25-.57.02-.24-.02-.46-.1-.54-.02-.03-.04-.04-.06-.04"/><path d="M30.94 19.06c.13 0 .22.26.2.57-.02.31-.15.56-.28.56-.13 0-.22-.26-.2-.57.03-.31.15-.56.28-.56" fill="#2d6c41"/><path d="M30.86 20.23c-.04 0-.08-.02-.11-.06-.09-.1-.13-.31-.12-.55.02-.33.16-.59.31-.59.04 0 .08.02.12.06.09.1.13.31.12.55-.03.33-.17.59-.32.59m.08-1.14c-.1 0-.23.22-.25.54-.02.22.02.42.1.5.02.02.05.04.07.04v.03-.03c.1 0 .23-.21.25-.54.02-.22-.02-.42-.1-.5-.02-.02-.04-.04-.07-.04"/><path d="M30.66 18.81c.13 0 .22.26.2.57-.02.31-.15.56-.28.56-.13 0-.22-.26-.2-.57.02-.31.15-.56.28-.56" fill="#2d6c41"/><path d="M30.58 19.98c-.04 0-.08-.02-.11-.06-.09-.1-.13-.31-.12-.55.02-.33.16-.59.31-.59.04 0 .08.02.12.06.09.1.13.31.12.55-.04.33-.17.59-.32.59m.08-1.14c-.1 0-.23.22-.25.54-.02.22.02.42.1.5.02.02.05.04.07.04v.03-.03c.1 0 .23-.21.25-.53.02-.22-.02-.42-.1-.51-.02-.02-.05-.03-.07-.04"/><path d="M30.31 18.47c.13 0 .22.26.2.57-.02.31-.15.56-.28.56-.13 0-.22-.26-.2-.57.02-.32.15-.57.28-.56" fill="#2d6c41"/><path d="M30.23 19.63c-.04 0-.08-.02-.11-.06-.09-.1-.13-.31-.12-.55.02-.33.16-.59.31-.59.04 0 .08.02.12.06.09.1.13.31.12.55-.04.33-.17.59-.32.59m.08-1.14c-.1 0-.23.22-.25.53-.02.22.02.42.1.51.02.03.05.04.07.04v.03-.03c.1 0 .23-.21.25-.53.02-.22-.02-.42-.1-.51-.02-.02-.05-.03-.07-.04"/><path d="M29.97 18.23c.13 0 .22.26.2.57-.02.32-.15.57-.28.56s-.22-.26-.2-.57c.02-.31.14-.56.28-.56" fill="#2d6c41"/><path d="M29.89 19.39c-.04 0-.08-.02-.11-.06-.09-.1-.13-.31-.12-.55.02-.34.16-.59.31-.59.04 0 .08.02.12.06.09.1.13.31.12.55-.04.34-.17.59-.32.59m.08-1.13c-.1 0-.23.22-.25.54-.02.22.02.42.1.5.02.03.05.04.07.04v.03-.03c.1 0 .23-.21.25-.53.02-.22-.02-.42-.1-.5-.03-.04-.05-.05-.07-.05"/><path d="M29.54 15.56c.36-.14 1.04.64 1.52 1.74.47 1.11.56 2.11.2 2.25-.36.14-1.04-.64-1.52-1.74s-.56-2.11-.2-2.25" fill="#c20038"/><path d="M31.17 19.6c-.4 0-1.01-.75-1.45-1.78-.38-.88-.52-1.72-.36-2.1.04-.1.1-.16.18-.19.38-.15 1.07.64 1.55 1.76.38.87.52 1.72.36 2.1a.31.31 0 0 1-.28.21m-1.54-4.03c-.03 0-.06 0-.08.01-.06.03-.11.08-.15.16-.15.37-.01 1.19.36 2.06.46 1.07 1.14 1.86 1.48 1.73.06-.03.11-.08.15-.16.15-.37.01-1.19-.36-2.06-.42-.99-1.02-1.74-1.4-1.74"/><path d="M29.86 15.24c.17 0 .31.13.3.28 0 .15-.14.27-.31.27-.17 0-.31-.13-.3-.28 0-.15.14-.27.31-.27" fill="#3d9546"/><path d="M29.85 15.82c-.19-.01-.34-.14-.34-.31 0-.16.15-.3.34-.3.19 0 .34.14.34.31 0 .16-.15.3-.34.3m.01-.55c-.16 0-.28.11-.28.24 0 .14.12.25.28.25l.01.03v-.03c.15 0 .28-.11.28-.24-.01-.13-.14-.25-.29-.25"/><path d="M30.09 14.86c.15 0 .27.13.27.28 0 .15-.13.27-.28.27-.15 0-.27-.13-.27-.28 0-.16.13-.28.28-.27" fill="#3d9546"/><path d="M30.09 15.43c-.09 0-.16-.04-.22-.09a.288.288 0 0 1-.09-.21c0-.16.14-.3.31-.3.09 0 .16.04.22.09.06.06.09.13.09.21-.01.17-.15.3-.31.3m0-.54c-.14 0-.25.11-.25.24 0 .07.02.13.07.17.05.05.11.07.18.07v.03-.03c.14 0 .25-.11.25-.24 0-.07-.02-.13-.07-.18a.28.28 0 0 0-.18-.06"/><path d="M29.72 14.85c.15 0 .27.13.27.28 0 .15-.13.27-.28.27-.15 0-.27-.13-.27-.28 0-.15.13-.27.28-.27" fill="#3d9546"/><path d="M29.71 15.42c-.17 0-.31-.14-.31-.31 0-.16.14-.3.31-.3.09 0 .16.04.22.09a.305.305 0 0 1-.22.52m.01-.54c-.14 0-.25.11-.25.24s.11.25.24.25v.03-.03c.14 0 .25-.11.25-.24 0-.06-.02-.13-.07-.17-.04-.06-.11-.08-.17-.08z"/><path d="M29.8 14.58c.16 0 .29.12.28.26 0 .14-.13.25-.29.25-.16 0-.29-.12-.29-.26.01-.14.14-.25.3-.25" fill="#2d6c41"/><path d="M29.8 15.12c-.1 0-.18-.04-.24-.1a.273.273 0 0 1-.08-.19c0-.16.14-.28.32-.28.1 0 .18.04.24.1.05.05.08.12.08.19-.01.16-.15.28-.32.28m0-.51c-.15 0-.26.1-.27.22 0 .05.02.11.06.15.05.05.12.08.19.08l.01.03v-.03c.14 0 .26-.1.26-.22 0-.06-.02-.11-.06-.15a.24.24 0 0 0-.19-.08"/><path d="M29.77 14.26c.16 0 .29.12.28.26 0 .14-.13.25-.29.25-.16 0-.29-.12-.29-.26.01-.14.14-.25.3-.25" fill="#2d6c41"/><path d="M29.76 14.8c-.18-.01-.32-.14-.32-.29 0-.16.14-.28.32-.28s.32.13.32.29c0 .16-.14.28-.32.28m.01-.51c-.15 0-.26.1-.27.23 0 .12.11.23.26.23l.01.03v-.03c.14 0 .26-.1.26-.22 0-.14-.12-.24-.26-.24z"/><path d="M29.36 14.63c.15 0 .27.13.27.28 0 .15-.13.27-.28.27-.15 0-.27-.13-.27-.28 0-.15.13-.27.28-.27" fill="#2d6c41"/><path d="M29.36 15.21c-.09 0-.16-.04-.22-.09a.31.31 0 0 1-.09-.22c0-.16.14-.29.31-.29.09 0 .16.03.22.09s.09.14.09.21c-.01.16-.15.3-.31.3m0-.55c-.14 0-.25.11-.25.24 0 .06.02.13.07.17.05.05.11.07.18.07v.03-.03c.13 0 .25-.11.25-.24 0-.06-.02-.13-.07-.17a.287.287 0 0 0-.18-.07"/><path d="M29.44 14.29c.15 0 .27.13.27.27 0 .15-.13.27-.28.26-.15 0-.28-.13-.27-.27.01-.15.13-.27.28-.26" fill="#2d6c41"/><path d="M29.44 14.85a.31.31 0 0 1-.31-.3c0-.16.14-.29.31-.29.17 0 .31.14.31.3-.01.16-.14.29-.31.29m0-.53c-.14 0-.25.1-.25.23s.11.24.24.24v.03-.03c.13 0 .25-.1.25-.23.01-.13-.1-.24-.24-.24"/><path d="M28.99 14.29c.17 0 .31.13.3.28 0 .15-.14.27-.31.27-.17 0-.31-.13-.3-.28 0-.15.14-.27.31-.27" fill="#2d6c41"/><path d="M28.98 14.86c-.1 0-.19-.04-.26-.11a.297.297 0 0 1-.08-.2c0-.16.15-.3.34-.3.19 0 .34.14.34.31 0 .17-.15.3-.34.3m.01-.54c-.16 0-.28.11-.29.24 0 .06.02.11.07.16s.13.09.21.09l.01.03v-.04c.15 0 .28-.1.28-.24 0-.13-.13-.24-.28-.24"/><path d="M29.56 13.85c.16 0 .29.12.28.26 0 .14-.13.25-.29.25-.16 0-.29-.12-.28-.26-.01-.14.12-.25.29-.25" fill="#2d6c41"/><path d="M29.55 14.4c-.1 0-.18-.04-.24-.1a.273.273 0 0 1-.08-.19c0-.16.14-.28.32-.28s.32.14.32.29c0 .15-.15.28-.32.28m.01-.52c-.15 0-.26.1-.27.22 0 .05.02.11.06.15.05.05.12.08.2.08l.01.03v-.03c.14 0 .26-.1.26-.22-.01-.12-.12-.22-.26-.23"/><path d="M29.17 13.89c.15 0 .27.13.27.27 0 .15-.13.27-.28.26-.15 0-.27-.12-.27-.27 0-.14.13-.26.28-.26" fill="#2d6c41"/><path d="M29.16 14.46c-.09 0-.16-.04-.22-.09a.288.288 0 0 1-.09-.21c0-.16.14-.29.31-.29.17 0 .31.14.31.3 0 .15-.14.29-.31.29m.01-.54c-.14 0-.25.1-.25.23 0 .06.02.13.07.17.05.04.11.07.18.07v.03-.02c.14 0 .25-.1.25-.23-.01-.14-.12-.25-.25-.25"/><path d="M28.58 14.31c.15 0 .27.13.27.28 0 .15-.13.27-.28.27-.15 0-.27-.13-.27-.28 0-.16.13-.28.28-.27" fill="#2d6c41"/><path d="M28.58 14.88c-.09 0-.16-.04-.22-.09a.288.288 0 0 1-.09-.21c0-.16.14-.3.31-.3.09 0 .16.04.22.09.06.06.09.13.09.21-.01.17-.15.3-.31.3m0-.55c-.14 0-.25.11-.25.24 0 .07.02.13.07.17.05.05.11.07.18.07v.03-.03c.13 0 .25-.1.25-.24 0-.07-.02-.13-.07-.17a.287.287 0 0 0-.18-.07"/><path d="M28.68 14.11c.15 0 .27.12.27.27 0 .15-.13.27-.28.26-.15 0-.27-.13-.27-.27 0-.15.12-.27.28-.26" fill="#2d6c41"/><path d="M28.67 14.67c-.09 0-.16-.03-.22-.09a.288.288 0 0 1-.09-.21c0-.16.14-.29.31-.29.09 0 .16.03.22.09s.09.13.09.21c0 .16-.14.29-.31.29m.01-.53c-.14 0-.25.1-.25.23a.241.241 0 0 0 .25.24v.03-.03c.14 0 .25-.1.25-.23 0-.06-.02-.13-.07-.17a.257.257 0 0 0-.18-.07"/><path d="M28.8 13.88c.15 0 .27.13.27.27 0 .15-.13.27-.28.26-.15 0-.27-.12-.27-.27 0-.14.12-.26.28-.26" fill="#2d6c41"/><path d="M28.79 14.45c-.09 0-.16-.03-.22-.09a.288.288 0 0 1-.09-.21c0-.16.14-.29.31-.29.09 0 .16.04.22.09.06.06.09.13.09.21-.01.15-.14.29-.31.29m0-.54c-.14 0-.25.11-.25.23 0 .06.02.13.07.17.05.05.11.07.18.07v.03-.03c.13 0 .25-.1.25-.23 0-.06-.02-.12-.07-.17a.287.287 0 0 0-.18-.07"/><path d="M29.58 14.84c.47-.17 1.3.77 1.87 2.08.56 1.31.64 2.51.18 2.68-.47.16-1.3-.77-1.87-2.08-.57-1.32-.65-2.52-.18-2.68" fill="#2d6c41"/><path d="M31.51 19.65c-.5 0-1.26-.91-1.78-2.12-.44-1.02-.6-2.01-.4-2.47a.38.38 0 0 1 .24-.24c.48-.17 1.34.78 1.91 2.1.44 1.02.6 2.02.4 2.47-.05.13-.13.21-.24.24-.04.01-.08.02-.13.02m-1.81-4.8c-.04 0-.07.01-.11.02-.09.03-.16.1-.21.21-.19.45-.03 1.42.4 2.43.55 1.28 1.39 2.22 1.84 2.06.09-.03.16-.1.2-.21.2-.45.04-1.42-.4-2.43-.5-1.19-1.25-2.08-1.72-2.08"/><path d="M31.12 17.14c.09-.04.26.15.38.42s.15.53.07.57c-.09.04-.26-.15-.38-.42-.13-.28-.15-.53-.07-.57" fill="#2d6c41"/><path d="M31.54 18.16c-.12 0-.28-.23-.38-.44-.12-.26-.17-.55-.05-.61.17 0 .32.22.42.44.11.25.17.55.05.61h-.04zm-.39-1c-.07.03-.06.24.06.54.11.25.26.41.33.41v.03l.01-.03c.06-.03.05-.24-.08-.53-.11-.26-.25-.42-.32-.42"/><path d="M31.26 17.63c.73.9.64 1.46.56 1.94-.23-.55-.36-.9-1.09-1.79-.73-.89-.37-1.52-.32-1.85.12.28.12.81.85 1.7" fill="#2d6c41"/><path d="M31.84 19.68l-.07-.17c-.21-.5-.36-.86-1.05-1.71-.62-.76-.46-1.34-.37-1.69.02-.07.04-.14.04-.19.08.05.1.13.12.21.08.31.2.78.77 1.48.74.9.65 1.49.57 1.96l-.01.11zm-1.42-3.65c0 .03-.01.06-.02.1-.1.36-.24.9.36 1.63.69.85.85 1.21 1.06 1.71.07-.46.1-.99-.57-1.82-.58-.71-.7-1.19-.78-1.5-.02-.04-.03-.08-.05-.12"/><path d="M31.33 18.35c.73.9.64 1.46.56 1.94-.23-.55-.36-.9-1.09-1.8-.73-.89-.37-1.52-.32-1.85.12.3.12.82.85 1.71" fill="#2d6c41"/><path d="M31.91 20.4l-.07-.17c-.21-.5-.36-.86-1.05-1.71-.62-.76-.46-1.34-.37-1.69.02-.07.04-.13.04-.19.08.05.1.13.12.21.08.31.2.78.77 1.48.74.9.65 1.49.57 1.96l-.01.11zm-1.42-3.65c0 .03-.01.06-.02.1-.1.36-.24.9.36 1.64.69.84.85 1.21 1.06 1.71.07-.46.1-.99-.58-1.82-.58-.71-.7-1.19-.78-1.5a.929.929 0 0 1-.04-.13"/><path d="M31.35 18.94c.75.88.67 1.45.6 1.93-.24-.55-.38-.9-1.13-1.77-.75-.88-.4-1.51-.35-1.84.12.27.13.8.88 1.68" fill="#2d6c41"/><path d="M31.97 20.97l-.08-.17c-.22-.49-.38-.85-1.09-1.68-.64-.74-.49-1.33-.4-1.68.02-.07.03-.14.04-.19.08.05.1.13.12.21.09.31.22.78.8 1.46.76.88.68 1.47.61 1.95v.1zm-1.49-3.62c0 .03-.01.06-.02.1-.09.36-.23.91.39 1.63.71.83.87 1.19 1.09 1.68.06-.46.08-1-.61-1.8-.6-.7-.73-1.17-.82-1.48-.01-.05-.02-.09-.03-.13"/><path d="M30.44 15.91c.17-.04.48.31.7.81.22.49.25.92.08.96-.17.04-.49-.32-.7-.81-.22-.49-.25-.92-.08-.96" fill="#2d6c41"/><path d="M31.19 17.71c-.19 0-.49-.35-.7-.82-.17-.39-.23-.76-.16-.92.02-.05.06-.08.1-.09.23 0 .52.35.73.82.17.39.24.76.16.92-.02.05-.05.07-.1.09h-.03zm-.72-1.78c-.05.01-.07.03-.08.06-.07.14-.01.5.16.87.22.49.5.79.64.79v.03l.02-.03c.03-.01.04-.03.06-.06.07-.14.01-.5-.16-.87-.21-.48-.5-.79-.64-.79"/><path d="M30.24 16.56c.15-.03.42.28.58.68.17.4.18.75.02.78-.15.03-.41-.28-.58-.68-.17-.41-.18-.76-.02-.78" fill="#2d6c41"/><path d="M30.82 18.05c-.17 0-.42-.3-.59-.7-.13-.32-.17-.61-.1-.75.02-.04.06-.07.1-.07.2 0 .45.3.61.7.13.32.17.61.1.74-.02.04-.06.07-.1.07l-.02.01zm-.56-1.47c-.04 0-.06.02-.07.05-.06.11-.02.4.1.7.17.41.41.67.54.67v.03l.01-.03c.02 0 .04-.02.06-.04.06-.11.02-.4-.1-.7-.18-.42-.42-.68-.54-.68"/><path d="M29.9 16.89c.15-.02.41.29.57.7.16.41.16.76.01.78-.15.02-.41-.29-.57-.7-.16-.41-.16-.76-.01-.78" fill="#2d6c41"/><path d="M30.46 18.39c-.17 0-.42-.31-.58-.71-.13-.32-.16-.62-.08-.75.02-.04.06-.06.1-.07.19 0 .44.31.6.71.13.32.16.62.08.75-.02.04-.06.06-.1.07h-.02zm-.54-1.47c-.04 0-.06.02-.07.04-.07.11-.03.4.09.7.16.42.4.68.53.68v.03l.01-.03c.02 0 .04-.02.06-.05.07-.11.03-.4-.09-.7-.17-.42-.4-.67-.53-.67"/><path d="M30.22 15.86c.13-.02.34.21.49.5.14.3.16.56.03.59-.13.02-.34-.2-.49-.5-.14-.31-.16-.57-.03-.59" fill="#2d6c41"/><path d="M30.72 16.98c-.14 0-.35-.22-.49-.52-.11-.24-.15-.46-.1-.56.02-.04.05-.06.08-.07.16 0 .38.22.52.52.11.23.15.46.1.56-.02.04-.05.06-.08.07h-.03zm-.48-1.09c-.09.11-.08.3.04.55.15.3.34.49.44.49v.03l.01-.03c.08-.1.06-.3-.06-.55-.13-.31-.33-.49-.43-.49"/><path d="M29.96 16.07c.13-.02.33.22.45.53.13.31.12.57 0 .59-.13.02-.33-.22-.46-.53-.12-.31-.12-.57.01-.59" fill="#2d6c41"/><path d="M30.4 17.22c-.14 0-.34-.23-.47-.55-.1-.24-.12-.46-.06-.56.02-.04.05-.06.09-.06.16 0 .36.23.48.54.1.24.12.46.06.57-.02.04-.05.06-.09.06h-.01zm-.43-1.12c-.1.11-.09.29.01.55.13.32.32.51.42.51v.03l.01-.03c.1-.12.07-.33-.02-.55-.13-.31-.32-.51-.42-.51"/><path d="M29.96 16.28c.22.53.3 1.01.2 1.06-.11.06-.37-.33-.59-.86l.39-.2z" fill="#2d6c41"/><path d="M30.15 17.38h-.06c-.14-.05-.37-.41-.56-.87.26.47.48.78.58.82.1-.04.06-.45-.18-1.03l.05-.02c.2.49.33 1.03.18 1.1h-.01z"/><path d="M29.92 15.45c.13-.02.33.22.45.53.13.31.12.57 0 .59-.13.02-.33-.22-.45-.53-.12-.31-.12-.57 0-.59" fill="#2d6c41"/><path d="M30.36 16.59c-.14 0-.34-.23-.47-.55-.1-.24-.12-.46-.06-.56.02-.04.05-.06.09-.06.16 0 .36.23.49.55.1.24.12.46.06.56-.02.04-.05.06-.09.06h-.02zm-.42-1.11c-.1.12-.08.33.01.55.12.31.32.51.42.51v.03l.01-.03c.09-.11.08-.29-.02-.55-.14-.32-.32-.51-.42-.51"/><path d="M29.57 15.62c.13-.01.32.23.44.54.12.31.11.57-.01.59-.13.01-.32-.23-.44-.54-.12-.31-.11-.58.01-.59" fill="#2d6c41"/><path d="M29.99 16.77c-.14 0-.34-.24-.46-.56-.09-.24-.11-.47-.05-.57.02-.04.05-.06.09-.06.16 0 .35.24.47.56.09.24.11.47.05.57-.02.04-.05.06-.09.06h-.01zm-.41-1.12c-.11.12-.08.33 0 .55.12.31.31.52.4.52v.03l.02-.04c.1-.11.08-.33-.01-.55-.12-.3-.31-.51-.41-.51"/><path d="M29.58 15.56c.21.36.32.69.25.74-.07.06-.3-.19-.51-.55l.26-.19z" fill="#2d6c41"/><path d="M29.85 16.33c-.18-.01-.4-.29-.55-.56.24.3.43.5.5.51.05-.03-.01-.3-.25-.71l.05-.03c.16.28.36.71.25.79"/><path d="M29.72 15.33c.21.36.32.69.25.75-.07.05-.3-.19-.51-.55l.26-.2z" fill="#2d6c41"/><path d="M29.99 16.1c-.18-.01-.4-.29-.55-.56.24.3.43.5.5.52.05-.03-.01-.3-.25-.71l.05-.03c.17.26.36.69.25.78"/><path d="M30.38 15.38c.29.49.45.95.35 1.02-.1.07-.42-.26-.71-.75l.36-.27z" fill="#2d6c41"/><path d="M30.68 16.43c-.14-.03-.42-.35-.68-.77.32.43.59.7.69.72.09-.05-.01-.45-.33-.98l.05-.03c.27.45.48.96.34 1.06h-.07z"/><path d="M29.95 15.12c.21.4.33.77.25.82-.07.06-.3-.21-.51-.61l.26-.21z" fill="#2d6c41"/><path d="M30.22 15.97c-.18-.01-.4-.32-.56-.62.24.33.43.56.51.57.05-.03-.01-.33-.25-.79l.05-.03c.16.3.36.78.25.87"/><path d="M29.93 14.55c-.14.14 0 .41.13.5.14.13.96.99 1.53.27-.46-.01-1.32-1.09-1.66-.77" fill="#8d5bc5"/><path d="M31.05 15.63c-.42 0-.83-.39-.98-.53a.57.57 0 0 1-.23-.38c-.01-.08.02-.15.07-.2.19-.18.56.07.95.35.27.2.54.41.73.41-.14.25-.32.35-.54.35m-.97-1.11c-.05 0-.1.02-.13.05-.04.04-.06.09-.05.15.01.12.1.25.17.31.18.18.58.55.98.55.2 0 .37-.09.51-.28-.19.05-.46-.16-.74-.37-.27-.2-.55-.41-.74-.41"/><path d="M29.83 14.12c-.14.14 0 .41.13.51.15.13.96.99 1.53.27-.46-.01-1.32-1.09-1.66-.78" fill="#8d5bc5"/><path d="M30.95 15.21c-.42 0-.83-.39-.98-.53-.12-.1-.22-.24-.23-.38-.01-.08.02-.15.07-.2.2-.19.56.07.95.35.27.2.54.41.73.41-.14.25-.33.35-.54.35m-.97-1.12c-.05 0-.1.02-.13.05-.04.04-.05.09-.05.15.01.12.1.25.17.31.18.18.58.55.98.55.2 0 .37-.09.51-.27-.19.05-.46-.16-.74-.38-.27-.2-.55-.41-.74-.41"/><path d="M29.7 13.72c-.14.14 0 .41.13.5.14.13.96.99 1.53.27-.46-.01-1.32-1.09-1.66-.77" fill="#8d5bc5"/><path d="M30.82 14.8c-.42 0-.83-.39-.98-.53a.57.57 0 0 1-.23-.38c-.01-.08.02-.15.07-.2.2-.18.57.07.95.35.27.2.54.41.73.41-.14.25-.32.35-.54.35m-.97-1.11c-.05 0-.1.02-.13.05-.04.04-.05.09-.05.15.01.12.1.25.17.31.18.17.58.55.98.55.2 0 .37-.09.51-.28-.19.05-.46-.16-.74-.37-.27-.2-.55-.41-.74-.41"/><path d="M29.42 13.25c-.14.14 0 .41.13.5.15.13.96.99 1.53.27-.46 0-1.32-1.08-1.66-.77" fill="#8d5bc5"/><path d="M30.54 14.34c-.42 0-.83-.38-.98-.53-.12-.1-.22-.24-.23-.38-.01-.08.02-.15.07-.2.19-.18.57.07.95.35.27.2.54.41.73.41-.13.25-.32.35-.54.35m-.97-1.12c-.05 0-.1.02-.13.05-.04.04-.05.09-.05.15.01.12.1.25.17.31.19.18.58.55.98.55.2 0 .37-.09.51-.27-.18.04-.46-.16-.74-.37-.27-.21-.55-.42-.74-.42"/><path d="M28.42 12.81c.29-.22.83-.28 1.24-.07.35.17.92.87 1.36 1.03-.31.05-.49.01-.69-.09-.39.28-.52.32-.92.38-.55.08-1-.06-1.16-.35-.16-.27-.09-.7.17-.9" fill="#8d5bc5"/><path d="M29.12 14.11c-.43 0-.76-.14-.89-.39-.17-.29-.09-.73.17-.94.31-.23.88-.27 1.27-.07.16.08.36.26.57.45.26.23.55.49.79.58-.1.07-.18.08-.25.08a1 1 0 0 1-.46-.11c-.36.28-.5.32-.9.38-.1.01-.2.02-.3.02m-.03-1.47c-.25 0-.49.07-.66.19-.24.19-.32.6-.16.86.15.28.6.41 1.13.34.39-.06.52-.1.9-.37.27.11.42.13.7.08-.25-.04-.54-.29-.81-.54-.21-.19-.4-.36-.55-.44-.16-.08-.35-.12-.55-.12"/><path d="M29.04 13.09c.14 0 .25.07.25.15 0 .08-.11.14-.25.14s-.25-.07-.25-.15c-.01-.08.11-.14.25-.14" fill="#c20038"/><path d="M29.04 13.41c-.16 0-.29-.08-.28-.18 0-.09.12-.17.27-.17.16 0 .29.08.28.18 0 .1-.12.17-.27.17m-.01-.29c-.12 0-.22.05-.22.11s.1.12.22.12l.01.03v-.03c.12 0 .22-.05.22-.11s-.1-.11-.23-.12"/><path d="M28.19 13.63c.18-.07.36-.03.4.08.04.11-.07.25-.25.32s-.36.03-.4-.08c-.04-.11.07-.25.25-.32" fill="#f3d02f"/><path d="M28.16 14.09c-.13 0-.22-.05-.25-.13-.05-.13.07-.28.27-.36.19-.07.39-.03.44.09.05.13-.07.29-.27.36-.06.03-.13.04-.19.04m.21-.47c-.06 0-.11.01-.17.03-.16.06-.27.19-.24.28.03.09.21.12.37.06s.27-.19.24-.29c-.02-.04-.1-.08-.2-.08M29.02 13.15c.05 0 .09.04.09.08s-.04.08-.09.08c-.05 0-.09-.04-.09-.08 0-.05.04-.08.09-.08"/><path d="M28.48 13.43c.02.11-.06.26-.24.32-.18.08-.32.25-.4.53-.28-.64-.1-.91.19-.98.26-.08.41-.07.45.13" fill="#f3d02f"/><path d="M27.85 14.36l-.03-.07c-.15-.35-.18-.62-.09-.8.06-.11.16-.19.3-.22.31-.1.44-.05.48.16.02.13-.07.29-.26.35-.18.07-.31.24-.38.51l-.02.07zm.42-1.08c-.06 0-.13.02-.23.05-.13.03-.22.09-.27.19-.08.15-.06.38.06.68.08-.24.22-.4.4-.47.16-.05.24-.18.22-.28-.02-.12-.07-.17-.18-.17"/><path d="M28.21 13.42c.03 0 .06.03.07.06 0 .04-.02.07-.06.07-.04 0-.07-.03-.07-.06 0-.04.02-.07.06-.07"/></svg>