<svg xmlns="http://www.w3.org/2000/svg" viewBox="0 0 58.93 34.37"><path fill="#fff" d="M0 0h58.93v34.37H0z"/><path fill="#223e84" d="M0 0h25.25v13.2H0z"/><path fill="#bc0030" d="M0 21.11h25.25v13.26H0z"/><path fill="#223e84" d="M33.67 21.11h25.25v13.26H33.67z"/><path fill="#bc0030" d="M33.67 0h25.25v13.2H33.67z"/><path d="M33.51 14.63c-.01-.28-.17-.36-.18-.37.04-.05.23.05.24.36l-.06.01z"/><path d="M33.42 14.65c-.01-.27-.17-.36-.18-.37.04-.05.22.05.24.37h-.06z"/><path d="M33.32 14.65c-.01-.28-.17-.36-.18-.37.04-.05.22.05.24.36l-.06.01z"/><path d="M33.23 14.69c-.01-.27-.17-.36-.18-.37.04-.05.22.05.24.36l-.06.01z"/><path d="M33.13 14.73c-.01-.28-.17-.36-.18-.37.04-.05.22.05.24.37h-.06z"/><path d="M33.04 14.77c-.01-.28-.17-.36-.18-.37.04-.05.23.05.24.36l-.06.01z"/><path d="M33.41 14.24c-.34-.9-.47-1.03-.53-1.09-.06-.07-.66-.26-.66-.26l-.17.38s.51.25.62.48c.11.23.19.65.19.65s.23-.09.31-.13c.07-.03.24-.01.24-.03" fill="#223e84"/><path d="M32.83 14.44l-.01-.04c0-.01-.08-.42-.18-.65-.1-.22-.6-.46-.61-.46l.15-.41c.14.01.65.18.71.25.08.08.22.24.54 1.1 0 .05-.04.05-.11.05-.05 0-.12 0-.16.02-.08.03-.3.13-.3.13l-.03.01zm-.75-1.17c.05 0 .51.23.62.46.09.19.16.51.18.62.07-.03.21-.09.27-.11.05-.02.12-.02.18-.02-.26-.83-.4-.98-.46-1.05-.04-.05-.37-.17-.66-.26l-.13.36"/><path d="M33.14 13.6c-.53-.22-.7-.1-.89-.15-.19-.05-.59-.15-.63-.25-.04-.1.34-.57.34-.57l.27.28c.17.18.59.02.74.33l.17.36z" fill="#223e84"/><path d="M33.14 13.64h-.02c-.3-.12-.48-.14-.61-.14h-.07c-.1 0-.15 0-.2-.02-.43-.11-.62-.19-.66-.27-.04-.1.23-.46.35-.6l.32.28c.06.07.17.08.29.1.17.02.36.05.46.25l.16.35c0 .01 0 .03-.01.04.01 0 0 .01-.01.01m-.62-.22c.13 0 .29.01.55.11l-.12-.27c-.08-.17-.23-.19-.4-.21-.12-.02-.25-.03-.33-.12l-.27-.28c-.12.21-.3.47-.28.53.01.03.11.1.61.23.04.01.08.01.12.01h.12z"/><path d="M32.51 13.45c-.1 0-.27-.07-.48-.17-.09-.05-.18-.09-.22-.1-.13-.04-.17.02-.18.03-.05-.04.02-.13.19-.08.05.01.13.05.23.1.15.07.45.21.49.16l.05.03c-.01.02-.04.03-.08.03"/><path d="M30.18 12.31c.04 0 .79-.08 1.46.05.68.12 1.08.36 1.08.52.01.3-.14.54-.16.53-.02-.01 0-.14-.17-.18-.17-.05-.95-.3-1.15-.31-.21-.01-.81.02-.9.01-.09-.01-.32-.06-.32-.16.01-.11.15-.44.16-.46" fill="#223e84"/><path d="M32.55 13.43l-.03-.05c-.01-.04-.03-.1-.14-.14l-.16-.05c-.29-.09-.82-.25-.98-.26h-.11c-.12 0-.27 0-.41.01-.12 0-.23.01-.3.01h-.07c-.01 0-.34-.04-.34-.19 0-.12.15-.46.15-.46.15-.03.35-.04.61-.04.33 0 .63.02.88.07.68.12 1.1.37 1.11.55.01.26-.11.49-.15.54l-.06.01zm-1.42-.54h.11c.17.01.71.17 1 .26l.16.05c.12.03.16.1.17.15.04-.07.12-.25.12-.47 0-.13-.38-.37-1.06-.49-.25-.05-.54-.07-.87-.07-.25 0-.46.02-.54.02-.03.01-.16.33-.16.43 0 .07.17.12.29.13h.37c.14-.01.29-.01.41-.01"/><path d="M30.53 12.84h-.03a.75.75 0 0 1-.16-.05c-.05-.02-.09-.04-.15-.04-.09.01-.1.06-.1.06-.06-.02-.04-.11.1-.12.07-.01.13.02.18.04.04.02.08.04.14.04l.08.02-.01-.06.04-.01.01.01-.03.08c-.01.03-.03.03-.07.03M25.42 14.61h-.06c.02-.31.2-.41.21-.42.03.06-.13.15-.15.42"/><path d="M25.51 14.63h-.06c.02-.31.2-.41.21-.42.03.06-.13.14-.15.42"/><path d="M25.61 14.64h-.06c.02-.31.2-.41.21-.42.02.05-.14.14-.15.42"/><path d="M25.7 14.67h-.06c.02-.31.2-.42.21-.42.02.06-.14.15-.15.42M25.8 14.71h-.06c.02-.31.2-.42.21-.42.02.06-.14.15-.15.42"/><path d="M25.89 14.76h-.06c.02-.31.2-.41.21-.42.02.06-.14.14-.15.42"/><path d="M25.53 14.23c.33-.9.47-1.03.53-1.09.06-.07.66-.26.66-.26l.17.38s-.51.25-.62.48c-.11.23-.19.65-.19.65s-.23-.09-.3-.13c-.09-.03-.25-.01-.25-.03" fill="#223e84"/><path d="M26.1 14.42l-.03-.01-.3-.13a.777.777 0 0 0-.16-.02c-.07 0-.11 0-.11-.04.32-.88.46-1.03.53-1.1.07-.08.58-.25.68-.28l.2.39c-.02.04-.52.29-.62.5-.11.22-.18.64-.18.65l-.01.04zm-.4-.2c.03 0 .06 0 .08.01.06.02.21.08.27.11.02-.11.09-.43.18-.62.11-.24.61-.48.63-.49l-.18-.34c-.25.11-.58.23-.61.27-.07.08-.21.23-.52 1.08.06-.01.11-.02.15-.02"/><path d="M25.79 13.59c.53-.22.7-.1.88-.15.19-.05.59-.15.63-.25.04-.09-.34-.57-.34-.57l-.27.28c-.17.18-.59.02-.74.33l-.16.36z" fill="#223e84"/><path d="M25.79 13.62c-.01 0-.02 0-.03-.01-.01-.01-.01-.03-.01-.04l.16-.35c.1-.21.29-.23.46-.25.12-.01.23-.03.29-.1l.27-.28c.18.15.45.5.41.61-.03.08-.22.16-.66.27-.05.01-.1.01-.14.01h-.13c-.14 0-.31.02-.61.14h-.01m1.15-.98l-.21.28c-.08.09-.21.1-.33.12-.17.02-.32.04-.4.21l-.12.27c.26-.1.43-.11.55-.11h.08c.09 0 .13 0 .18-.01.47-.12.59-.19.61-.23-.01-.05-.19-.32-.36-.53"/><path d="M26.42 13.43c-.04 0-.06-.01-.08-.03l.05-.03c.04.05.34-.09.48-.16.1-.05.19-.09.23-.1.17-.05.23.05.24.05-.04.03-.07 0-.14-.01-.02 0-.05 0-.08.01-.04.01-.13.05-.22.09-.21.11-.38.18-.48.18"/><path d="M28.76 12.3c-.04 0-.8-.08-1.46.05-.68.12-1.08.36-1.08.52-.01.3.14.54.16.53.02-.01 0-.14.17-.18.17-.05.95-.3 1.15-.31.21-.01.81.02.9.01.09-.01.32-.06.32-.16a3.86 3.86 0 0 0-.16-.46" fill="#223e84"/><path d="M26.37 13.42l-.03-.02c-.05-.05-.16-.28-.15-.54.01-.18.42-.43 1.11-.55.25-.05.55-.07.88-.07.26 0 .46.01.55.02.07.04.21.37.21.48 0 .15-.33.19-.34.19h-.37c-.14-.01-.29-.01-.41-.01h-.11c-.17.01-.73.18-1 .26l-.15.04c-.11.03-.13.09-.14.14l-.05.06zm1.8-1.11c-.33 0-.62.02-.87.07-.68.12-1.06.36-1.06.49-.01.22.07.4.12.47a.23.23 0 0 1 .17-.16l.14-.04c.29-.09.84-.26 1.01-.27h.12c.12 0 .27 0 .41.01.12 0 .23.01.3.01.19-.01.35-.07.35-.14 0-.09-.13-.41-.14-.44-.09.01-.29 0-.55 0"/><path d="M28.4 12.83c-.1 0-.11-.06-.11-.1l.05-.04.01.03c.01.03.01.05.08.04.06 0 .1-.02.14-.04.05-.03.11-.05.18-.04.13.02.15.11.15.11-.05.02-.07-.04-.16-.05-.06 0-.1.01-.15.04-.04.02-.09.04-.16.05h-.03"/><path d="M29.44 11.85c-.94.01-1.19.15-1.23.31-.04.15.11.58.11.58s.16-.3 1.13-.29c.97.01 1.17.27 1.17.27s.13-.42.11-.57c0-.15-.4-.3-1.29-.3" fill="#223e84"/><path d="M28.32 12.8l-.02-.06c-.01-.02-.15-.44-.11-.59.04-.15.21-.32 1.26-.33.8 0 1.31.13 1.32.32.01.15-.11.56-.12.58-.06 0-.26-.24-1.19-.25-.94 0-1.11.27-1.11.27l-.03.06zm1.09-.39c.91.01 1.17.22 1.22.27-.02-.07.08-.41.07-.54-.01-.11-.34-.27-1.24-.27-.79.01-1.18.1-1.23.28-.03.1.05.37.09.51.1-.07.36-.25 1.09-.25"/><path fill="#f5cd28" d="M30.74 12.78l.04-.39h.04l-.03.35.14.01-.01.04zM31.048 12.416l-.036.389-.04-.004.036-.388zM31.34 12.82l.06-.38.21.03-.01.05-.17-.03-.02.12.16.02-.01.05-.16-.03-.02.13.18.03-.01.05zM31.94 12.97l.12-.33-.09-.03.01-.04.22.07-.02.05-.09-.03-.12.32zM31.12 12.77l.07.01h.03c.01 0 .02 0 .02-.01.01 0 .01-.01.02-.02 0-.01.01-.02.01-.03v-.04c0-.01-.01-.02-.02-.03-.01-.01-.02-.01-.04-.01h-.07l-.02.13zm.02-.18l.06.01h.04c.01 0 .02-.01.02-.01.01-.01.01-.02.01-.03v-.04c0-.01-.01-.02-.02-.02s-.02-.01-.05-.01l-.06-.01v.11zm-.06.22l.04-.39.11.01c.02 0 .04.01.05.02.01.01.02.02.03.04.01.02.01.04.01.05 0 .02-.01.03-.02.05-.01.01-.02.03-.03.03.02.01.03.02.04.04.01.02.01.04.01.06 0 .02-.01.04-.01.05-.01.01-.02.03-.03.03-.01.01-.02.01-.03.02h-.05l-.12-.01zM31.7 12.67l.08.02c.02 0 .03.01.04 0 .01 0 .02-.01.03-.02.01-.01.01-.02.02-.03.01-.02.01-.03 0-.05-.01-.02-.02-.03-.04-.03l-.09-.02-.04.13zm-.1.2l.11-.38.12.04c.02.01.04.02.05.03.01.01.02.03.02.04 0 .02 0 .04-.01.06-.01.03-.02.05-.04.06-.02.02-.04.02-.07.02.01.01.01.02.02.03.01.02.01.04.02.06l.02.12-.05-.01-.01-.09c0-.03-.01-.04-.01-.06 0-.01-.01-.03-.01-.03 0-.01-.01-.01-.01-.02 0 0-.01 0-.02-.01l-.04-.01-.05.17-.04-.02zM32.39 13.1l.06.02c.02 0 .03.01.04.01.01 0 .02-.01.03-.01l.04-.04c.01-.02.02-.04.03-.07.01-.04.02-.07.02-.09 0-.02-.01-.04-.02-.05-.01-.01-.02-.02-.04-.02l-.06-.02-.1.27zm-.06.03l.13-.37.1.03c.02.01.04.01.05.02.01.01.02.02.03.04.01.02.01.04.01.07 0 .03-.01.06-.02.09s-.02.05-.03.07c-.01.02-.02.03-.04.05-.01.01-.02.02-.04.03-.01 0-.02.01-.04.01-.01 0-.03 0-.05-.01l-.1-.03zM32.18 12.89l.09.03.01-.11c0-.04.01-.06.01-.08-.01.02-.02.05-.04.07l-.07.09zm-.13.12l.24-.33.04.01-.02.41-.04-.01.01-.12-.11-.04-.07.1-.05-.02zM29.34 12.37v-.35h-.1v-.04h.25v.04h-.1v.35zM29.943 11.976l-.017.39-.04-.002.017-.39zM28.69 12.22l.08-.01c.03-.01.04-.02.05-.03.01-.01.01-.03.01-.05 0-.02-.01-.03-.02-.04-.01-.01-.02-.02-.03-.02h-.04l-.08.02.03.13zm0 .2l-.07-.38.12-.02c.02 0 .04-.01.05 0 .02 0 .03 0 .04.01l.03.03c.01.01.02.03.02.05.01.03 0 .06-.01.09s-.04.04-.09.05l-.08.02.03.15h-.04zM29.01 12.2l.11-.01-.04-.1a.689.689 0 0 0-.03-.08c0 .03-.01.05-.01.08l-.03.11zm-.08.17l.09-.4h.05l.16.38h-.05l-.05-.11H29l-.03.12-.04.01zM29.58 12.15h.09c.02 0 .04 0 .05-.01.01-.01.02-.01.02-.02.01-.01.01-.02.01-.04s-.01-.04-.02-.04a.076.076 0 0 0-.05-.02h-.1v.13zm-.04.22v-.39h.14c.03 0 .05 0 .07.01.02.01.03.02.04.04.01.02.01.04.01.06 0 .03-.01.05-.02.07-.02.02-.04.03-.07.04.01.01.02.01.03.02.01.01.02.03.04.05l.06.1h-.06l-.04-.08c-.01-.02-.02-.04-.03-.05-.01-.01-.01-.02-.02-.03-.01 0-.01-.01-.02-.01h-.08v.17h-.05zM30.13 12.24l.11.02-.01-.11c-.01-.03-.01-.06-.01-.08-.01.03-.02.05-.03.07l-.06.1zm-.12.14l.19-.36.05.01.06.41-.05-.01-.02-.12-.13-.02-.06.11-.04-.02zM27.118 12.521l.058.386-.04.006-.058-.386zM27.58 12.7l.04-.01c0 .02.01.03.02.05.01.01.02.02.04.03.01.01.03.01.05.01.02 0 .03-.01.04-.01.01-.01.02-.01.02-.03.01-.01.01-.02.01-.03 0-.01-.01-.02-.01-.03-.01-.01-.02-.02-.03-.02-.01 0-.03-.01-.06-.01-.03-.01-.05-.01-.07-.02-.02-.01-.03-.02-.04-.03-.01-.01-.01-.03-.01-.05 0-.02 0-.04.01-.06.01-.02.02-.03.04-.04.02-.01.04-.02.06-.02.02 0 .05 0 .07.01.02.01.04.02.05.04.01.01.02.04.02.06l-.04.01c0-.02-.01-.04-.03-.05-.01-.01-.03-.02-.06-.01-.03 0-.05.01-.05.02-.01.01-.02.03-.02.04 0 .01.01.03.02.03.01.01.03.02.07.02.04.01.06.01.07.02.02.01.04.02.05.04.01.02.02.03.02.05 0 .02 0 .04-.01.06-.01.02-.02.03-.04.05-.02.01-.04.02-.06.02-.03 0-.05 0-.07-.01-.02-.01-.04-.02-.05-.04-.04-.04-.05-.07-.05-.09M27.21 12.68c-.01-.07 0-.12.02-.16.02-.04.06-.07.1-.07.03 0 .06 0 .08.02.03.01.05.03.07.06.02.03.03.06.03.1.01.04.01.07 0 .11-.01.03-.02.06-.05.08-.02.02-.05.03-.08.04-.03 0-.06 0-.08-.02-.03-.01-.05-.04-.07-.06-.01-.04-.02-.07-.02-.1m.04-.01c.01.05.02.08.05.11.02.02.05.03.09.03.03-.01.06-.02.07-.05.02-.03.02-.07.01-.12 0-.03-.01-.06-.03-.08a.12.12 0 0 0-.05-.05c-.02-.01-.04-.01-.06-.01-.03 0-.05.02-.07.05-.01.02-.02.07-.01.12M26.85 12.95l.07-.02c.02-.01.04-.02.05-.02.01-.01.02-.02.02-.03.01-.02.01-.03.01-.05 0-.02-.01-.05-.01-.07-.01-.04-.03-.07-.05-.08-.02-.02-.03-.03-.05-.03-.01 0-.03 0-.05.01l-.07.02.08.27zm-.03.06l-.12-.37.11-.03c.02-.01.04-.01.06-.01.02 0 .04 0 .05.01.02.01.04.03.06.05.02.02.03.05.04.08.01.03.01.05.02.08v.06c0 .02-.01.03-.02.04l-.03.03c-.01.01-.03.02-.05.02l-.12.04z"/><path d="M26.76 13.67l.49.48v3.86c0 .3.33.64.66.64h.82c.5 0 .74.4.74.4s.25-.41.74-.4l.89.01c.26 0 .59-.33.59-.66v-3.86l.49-.48h-5.42z" fill="#fff"/><path d="M29.48 19.11l-.02-.04s-.25-.39-.72-.39h-.83c-.33 0-.69-.35-.69-.67v-3.86l-.49-.46 5.46-.05-.48.53.01 3.84c0 .16-.08.33-.2.47-.13.14-.28.22-.41.22l-.9-.01c-.48 0-.71.39-.72.39l-.01.03zm2.7-5.46l-5.42.05.51.43.01 3.88c0 .3.32.62.63.62h.83c.42 0 .67.28.74.38.08-.1.32-.38.73-.38l.91.01c.12 0 .26-.07.37-.2.12-.13.19-.29.19-.43v-3.86l.5-.5z"/><path fill="#bc0030" d="M29.89 13.67v2.25h1.82v-1.77l.49-.48z"/><path d="M31.73 15.94H29.9l-.02-2.27 2.33-.02-.48.51v1.78zm.46-2.28l-2.3.03.02 2.23 1.78-.02v-1.75l.5-.49z"/><path fill="#223e84" d="M26.76 13.67h2.31v2.25h-1.82v-1.77z"/><path d="M29.09 15.94h-1.83l-.02-1.79-.49-.47 2.32-.03.02 2.29zm-.04-2.27l-2.29.02.51.45.01 1.78 1.78-.02v-2.23z"/><path d="M27.25 16.73h1.81v2.01l-.17-.08h-.99c-.33 0-.66-.32-.66-.65v-1.28z" fill="#bc0030"/><path d="M29.09 18.77l-.19-.09h-.98c-.34 0-.68-.33-.68-.66v-1.29l1.83-.02.02 2.06zm-.04-2.04l-1.8.02.02 1.27c0 .31.32.63.64.63h.99l.15.07v-1.99z"/><path d="M31.71 16.73H29.9v2.01l.17-.08h.99c.33 0 .66-.32.66-.65v-1.28z" fill="#223e84"/><path d="M29.87 18.77v-2.04l1.83-.02.02 1.3c0 .34-.34.66-.68.66h-.99l-.18.1zm1.82-2.04l-1.8.02.02 1.96.14-.07h1c.32 0 .64-.32.64-.63v-1.28z"/><path d="M29.48 19.11l-.02-.04s-.25-.39-.72-.39h-.83c-.33 0-.69-.35-.69-.67v-3.86l-.49-.46 5.46-.05-.48.53.01 3.84c0 .16-.08.33-.2.47-.13.14-.28.22-.41.22l-.9-.01c-.48 0-.71.39-.72.39l-.01.03zm2.7-5.46l-5.42.05.51.43.01 3.88c0 .3.32.62.63.62h.83c.42 0 .67.28.74.38.08-.1.32-.38.73-.38l.91.01c.12 0 .26-.07.37-.2.12-.13.19-.29.19-.43v-3.86l.5-.5z"/><path fill="#f5cd28" d="M29.4 14.96v.64h.16v-.64h.17v-.16h-.17v-.16h-.16v.16h-.17v.16z"/><path d="M29.59 15.63h-.19l-.03-.67-.13.03-.04-.19.19-.03-.03-.13.2-.03.03.19.14-.03.03.19-.19.03.02.64zm-.19-.7l.03.67.1-.02v-.62l.19-.03-.02-.13-.13.03-.03-.19-.13.03.03.13-.2.03.03.13.13-.03z"/><path fill="#272015" d="M28.308 13.996l1.315 1.74-.088.065-1.315-1.738z"/><path fill="#f5cd28" d="M28.21 14.06l-.14-.3.27.22z"/><path d="M28.95 15.31c-.01.02-.17.66-.17.66s.52.08.51.05c-.01-.03-.07-.44-.1-.47-.02-.02-.23-.2-.24-.24" fill="#bc0030"/><path d="M28.52 14.87l-.09.88s.59.52.58.45c-.01-.07-.05-.89-.05-.89l-.44-.44z" fill="#fff"/><path d="M28.03 14.35l-.03.96s.52.42.52.38c0-.04.05-.78.05-.78l-.54-.56z" fill="#223e84"/><path d="M28.02 15.15l-.03-.82.06.01z"/><path fill="#272015" d="M27.999 14.224l1.542 1.541-.078.078-1.542-1.54z"/><path fill="#f5cd28" d="M27.91 14.31l-.18-.27.3.18z"/><path d="M27.75 14.64v2.41c0 .48.49.83.83.8.33-.03.82-.16.82-.16v-1.77l-1.65-1.28z" fill="#fff"/><path d="M28.54 17.88c-.33 0-.82-.33-.82-.83v-2.41l1.7 1.26.01 1.79c-.03.03-.52.17-.85.19h-.04zm-.81-3.22l.05 2.39c0 .46.46.77.76.77v.03l.03-.03c.33-.02.81-.16.82-.16l-.02-1.74-1.64-1.26z"/><path d="M27.75 16.56v.48c0 .48.49.83.83.8.33-.03.82-.16.82-.16-.33-.16-1.15.32-1.15-.96-.17.01-.34.01-.5-.16" fill="#bc0030"/><path d="M28.26 15.01l-.02 1.39c-.17-.02-.33-.09-.49-.16v-1.61l.51.38z" fill="#223e84"/><path d="M28.72 15.41v1.07s.12-.02.31.06l.38.15v-.78l-.69-.5z" fill="#bc0030"/><path d="M29.36 17.05s-.36-.18-.45-.19c-.09-.01-.21.01-.21.01s-.02.16-.01.26.16.14.21.14c.05 0 .46-.05.46-.05v-.17z" fill="#223e84"/><path d="M28.54 17.88c-.33 0-.82-.33-.82-.83v-2.41l1.7 1.26.01 1.79c-.03.03-.52.17-.85.19h-.04zm-.81-3.22l.05 2.39c0 .46.46.77.76.77v.03l.03-.03c.33-.02.81-.16.82-.16l-.02-1.74-1.64-1.26z"/><path fill="#272015" d="M27.733 14.508l1.714 1.363-.068.086-1.714-1.363z"/><path fill="#f5cd28" d="M27.66 14.6l-.21-.25.31.15z"/><path fill="#272015" d="M30.68 13.962l.088.066-1.317 1.738-.087-.066z"/><path fill="#f5cd28" d="M30.77 14.03l.14-.3-.26.22z"/><path d="M30.03 15.29c.01.02.17.66.17.66s-.52.08-.51.05c.01-.03.07-.44.1-.47.02-.03.23-.21.24-.24" fill="#bc0030"/><path d="M30.47 14.84l.09.87s-.59.52-.58.45c.01-.07.05-.88.05-.88l.44-.44z" fill="#fff"/><path d="M30.96 14.32l.03.96s-.52.42-.52.38c0-.04-.05-.78-.05-.78l.54-.56z" fill="#223e84"/><path d="M31.03 15.12l-.09-.81H31z"/><path fill="#272015" d="M30.98 14.198l.079.077-1.53 1.553-.08-.078z"/><path fill="#f5cd28" d="M31.07 14.28l.18-.27-.29.18z"/><path d="M31.24 14.61v2.41c0 .48-.49.83-.82.8-.33-.02-.83-.16-.83-.16v-1.77l1.65-1.28z" fill="#fff"/><path d="M30.45 17.85h-.04c-.33-.02-.83-.16-.83-.16l-.02-1.8 1.66-1.31.05 2.44c0 .5-.5.83-.82.83m-.83-.19c.06 0 .49.11.79.14l.03.03v-.03c.3 0 .76-.31.76-.78v-2.41l-1.6 1.31.02 1.74"/><path d="M31.24 16.54v.48c0 .48-.49.83-.82.8-.33-.02-.83-.16-.83-.16.33-.16 1.15.32 1.15-.96.17 0 .33 0 .5-.16" fill="#bc0030"/><path d="M30.72 14.98l.02 1.39c.17-.02.33-.09.49-.16V14.6l-.51.38z" fill="#223e84"/><path d="M30.27 15.38v1.07s-.12-.02-.32.06l-.38.15v-.78l.7-.5z" fill="#bc0030"/><path d="M29.63 17.02s.36-.18.45-.19c.09-.01.21.01.21.01s.02.16.01.26-.16.15-.21.15-.46-.05-.46-.05v-.18z" fill="#223e84"/><path d="M30.45 17.85h-.04c-.33-.02-.83-.16-.83-.16l-.02-1.8 1.66-1.31.05 2.44c0 .5-.5.83-.82.83m-.83-.19c.06 0 .49.11.79.14l.03.03v-.03c.3 0 .76-.31.76-.78v-2.41l-1.6 1.31.02 1.74"/><path fill="#272015" d="M31.251 14.483l.068.086-1.717 1.359-.068-.086z"/><path fill="#f5cd28" d="M31.33 14.57l.21-.25-.32.15z"/><path d="M29.77 17.6c.04.04.18.22.21.18.04-.04-.09-.37-.13-.55-.05-.17-.15-.36-.15-.63-.01-.27-.17.03-.17.03l.24.97z" fill="#bc0030"/><path d="M29.97 17.82c-.05 0-.12-.07-.21-.18l-.26-1c.03-.07.09-.18.16-.18s.07.11.07.14c0 .18.05.33.1.47.02.06.04.11.05.16.01.05.03.12.06.19.08.24.1.35.07.38l-.04.02zm-.32-1.3c-.02 0-.07.06-.1.13l.25.94c.1.13.15.16.16.16 0-.04-.05-.21-.08-.32-.02-.07-.04-.14-.06-.19-.01-.05-.03-.1-.05-.16-.05-.14-.1-.29-.11-.48 0-.06-.01-.08-.01-.08"/><path d="M29.63 18.13l.31.02s-.1-.42-.13-.66c-.03-.24-.3-.98-.3-.98l.12 1.62z" fill="#bc0030"/><path d="M29.98 18.17l-.35-.01-.14-1.65c.07.02.32.73.35.97.03.24.13.65.13.66l.01.03zm-.49-1.66l.17 1.61.25-.01c-.02-.1-.1-.43-.13-.63-.03-.23-.29-.96-.29-.97"/><path d="M29.4 16.43c-.01.01-.45.7-.45 1.06 0 .36.21.57.28.69.07.11.25.48.25.48s.21-.4.24-.56c.02-.16-.08-.82-.05-1.08.03-.26.23-.87.23-.87l-.5.28z" fill="#fff"/><path d="M29.48 18.73l-.03-.05s-.17-.36-.25-.48l-.04-.06c-.09-.12-.24-.33-.24-.64 0-.29.28-.79.44-1.06l.51-.31c.04.04-.15.64-.18.9-.02.14.01.4.03.64.02.2.03.37.02.44-.02.16-.23.55-.24.57l-.02.05zm.38-2.58l-.45.31c-.27.46-.43.83-.43 1.04 0 .29.14.48.23.61l.05.06c.06.09.17.32.22.43.06-.11.19-.38.21-.5.01-.07-.01-.24-.02-.43-.02-.24-.04-.51-.03-.65.02-.26.22-.85.22-.87"/><path d="M29.4 16.43c-.01.01-.45.7-.45 1.06 0 .36.21.57.28.69-.02-.23-.04-.44-.02-.73.03-.76.53-1.21.53-1.21l-.34.19z" fill="#223e84"/><path d="M29.58 16.23c0 .13-.18.52-.18.88 0 .18.07.6.09.94.02.34-.01.61-.01.61s.21-.4.24-.56c.02-.16-.08-.82-.05-1.08.03-.26.23-.87.23-.87l-.32.08z" fill="#bc0030"/><path d="M29.48 18.73l-.03-.05s-.17-.36-.25-.48l-.04-.06c-.09-.12-.24-.33-.24-.64 0-.29.28-.79.44-1.06l.51-.31c.04.04-.15.64-.18.9-.02.14.01.4.03.64.02.2.03.37.02.44-.02.16-.23.55-.24.57l-.02.05zm.38-2.58l-.45.31c-.27.46-.43.83-.43 1.04 0 .29.14.48.23.61l.05.06c.06.09.17.32.22.43.06-.11.19-.38.21-.5.01-.07-.01-.24-.02-.43-.02-.24-.04-.51-.03-.65.02-.26.22-.85.22-.87"/><path d="M29.33 16.28c-.1.09-.03.29-.03.29s.07-.09.21-.08c.14.01.23.21.23.21s.09-.06.1-.2c.02-.14-.27-.29-.51-.22" fill="#bc0030"/><path d="M29.73 16.74l-.01-.03s-.08-.19-.2-.2c-.13 0-.19.07-.19.07-.05-.02-.13-.23-.01-.33.22-.07.41.01.51.13.04.04.05.08.05.13-.01.15-.11.22-.11.22l-.04.01zm-.23-.29c.13.01.22.13.25.2.02-.03.06-.08.07-.16 0-.03-.02-.06-.03-.08-.07-.08-.28-.16-.45-.11-.05.05-.03.16-.02.22.02-.03.09-.07.18-.07"/><path d="M29.02 15.73l.29.74.21-.08c.08-.03.18-.01.18-.01s.13-.07.2-.1c.07-.02.21-.03.21-.03l.02-.03s-1-.57-1.09-.54l-.02.05z"/><path d="M29.29 16.51l-.3-.77.03-.09c.15 0 1.02.49 1.11.54l.03.02-.04.05c-.02.01-.15.01-.22.04-.06.02-.19.09-.19.09h-.09c-.04 0-.07 0-.1.02l-.21.08-.02.02zm-.25-.8l.28.72c.04-.02.12-.05.18-.07.06-.02.18-.02.19-.01 0-.01.12-.07.18-.1.08-.02.21-.03.22-.03-.35-.18-.96-.51-1.05-.51"/><path d="M29.04 15.66l.29.74.21-.08c.08-.03.18-.01.18-.01s.13-.07.2-.1c.07-.02.21-.03.21-.03l-.29-.81s-.11.01-.2.04c-.07.02-.17.12-.17.12-.05 0-.14-.01-.23.01-.09.05-.17.09-.2.12" fill="#fff"/><path d="M29.31 16.44l-.3-.77c.05-.08.15-.12.21-.15.04-.01.09-.02.15-.02h.08s.1-.09.18-.12c.09-.03.21-.05.21-.05l.32.83c-.03.04-.16.04-.22.07-.06.02-.19.09-.19.09h-.09c-.04 0-.07.01-.1.02l-.21.08-.04.02zm.5-1.04c-.01.01-.1.03-.17.05-.06.02-.16.11-.16.11h-.11c-.05 0-.09.01-.13.02-.08.03-.15.07-.18.1l.28.68c.04-.02.12-.05.18-.07.06-.02.18-.02.19-.01 0-.01.12-.07.18-.1.08-.03.21-.03.22-.03l-.3-.75z"/><path fill="#999396" d="M29.75 16.3l-.31-.75.04-.01z"/><path d="M29.1 15.73l-.02-.03c.1-.08.27-.13.41-.11-.14.02-.3.06-.39.14M29.13 15.82l-.02-.03c.1-.08.27-.13.41-.11-.14.02-.3.06-.39.14M29.16 15.92l-.02-.03c.1-.08.27-.13.41-.11-.14.02-.3.06-.39.14M29.18 16.02l-.02-.03c.1-.08.27-.13.41-.11-.13.02-.29.06-.39.14M29.24 16.12l-.02-.03c.1-.08.27-.13.41-.11-.14.02-.3.07-.39.14M29.27 16.22l-.02-.03c.1-.08.27-.13.41-.11-.14.02-.3.07-.39.14M29.31 16.32l-.02-.03c.1-.08.27-.13.41-.11-.14.02-.3.06-.39.14" fill="#999396"/><path d="M29.51 15.62l-.03-.02c.09-.09.24-.16.38-.16-.13.03-.27.09-.35.18M29.53 15.73l-.03-.02c.09-.09.24-.16.38-.16-.13.04-.27.1-.35.18M29.56 15.81l-.03-.02c.09-.09.24-.16.38-.16-.13.04-.27.1-.35.18M29.6 15.92l-.03-.02c.09-.09.24-.16.38-.16-.12.03-.26.09-.35.18M29.63 16.02L29.6 16c.09-.1.24-.16.38-.16-.13.04-.27.09-.35.18M29.67 16.11l-.03-.02c.09-.1.24-.16.38-.16-.12.03-.27.09-.35.18M29.71 16.21l-.03-.02c.09-.09.24-.16.38-.16-.13.03-.27.09-.35.18" fill="#999396"/><path d="M29.31 16.44l-.3-.77c.05-.08.15-.12.21-.15.04-.01.09-.02.15-.02h.08s.1-.09.18-.12c.09-.03.21-.05.21-.05l.32.83c-.03.04-.16.04-.22.07-.06.02-.19.09-.19.09h-.09c-.04 0-.07.01-.1.02l-.21.08-.04.02zm.5-1.04c-.01.01-.1.03-.17.05-.06.02-.16.11-.16.11h-.11c-.05 0-.09.01-.13.02-.08.03-.15.07-.18.1l.28.68c.04-.02.12-.05.18-.07.06-.02.18-.02.19-.01 0-.01.12-.07.18-.1.08-.03.21-.03.22-.03l-.3-.75z"/><path d="M28.52 20.77c.04-.02.45-.27.67-.46.22-.19.41-.44.65-.67.24-.23.35-.17.47-.44s.06-.38.06-.65c.08 0 .11.09.16.18.02.04.13-.32.12-.22 0 .12-.01.4 0 .39.04-.06.21-.43.21-.43s-.08.52-.06.46c.02-.06.21-.33.21-.33v.33s.14-.23.18-.4c.04-.02.12.23.16.17.04-.06.08-.4.14-.36.06.04.1.21.1.21s-.04-1.11.02-1.09c.06.02.2.06.2.06v-.42l.18.56c.02.06-.02-.4-.06-.52-.04-.12-.08-.35-.08-.35l.24.35c0-.06-.16-.56-.2-.56-.04 0-.22.21-.18.19.04-.02.14-.44.2-.44s.18.3.16.27l-.12-.66.16.29s.04-.17 0-.27-.06-.25-.06-.25.12.15.1.12c-.02-.04 0-.34 0-.34s.08.18.1.22c.02.04.09.15.09.15v-.16l.1.09s-.22-.47-.32-.49c-.1-.02-.23.16-.23.16s.18-.31.23-.31h.08l-.06-.33s.39.54.37.46c-.02-.08-.18-.44-.2-.57-.02-.14-.08-.37-.08-.37s.14.19.18.25c.04.06.16.29.16.25 0-.04-.02-.48-.02-.48l.2.42.18-.5.1.48s.08-.23.1-.33c.02-.09.08-.09.08-.09s-.02.4-.02.44c0 .04-.04.25-.04.25l.22-.44c.04-.08.2-.13.2-.13s-.08.17-.1.23c-.02.06-.24.5-.2.5s.2-.23.3-.23.28.25.24.27c-.04.02-.2-.07-.26-.07s-.53.52-.45.5c.08-.02.35-.31.35-.31s-.1.24-.06.22c.04-.02.33-.19.33-.19s-.43.39-.37.39.3-.12.3-.12l-.3.37s.24-.16.32-.16c.08 0 .25.06.25.06s-.3.02-.33.04c-.04.02-.33.44-.26.4.08-.04.24-.21.24-.21l-.1.25.41-.25-.57.6s.39-.31.45-.29c.06.02.33.33.33.33s-.35-.17-.39-.17c-.04 0-.57.67-.49.64.08-.04.36-.19.43-.19.08 0 .21.35.18.35-.04 0-.22-.1-.26-.1-.04 0-.49.27-.49.27s.33-.06.43-.08c.1-.02.3 0 .37-.04.08-.04.3-.11.3-.11s-.23.14-.34.24c-.12.1-.33.13-.33.13l.37.04s-.51.16-.64.21c-.12.05-.2.1-.28.14.06 0 .35-.01.43-.01.08 0 .45.06.45.06s-.49.08-.55.08c-.06 0-.14.06-.14.06l.53.06-.35.06.32.11c.06.02.24.14.24.14s-.45-.1-.55-.1c-.1 0-.25.02-.25.02s.17.01.26.06c.07.03.09.07.09.07l-.26-.02s.18.14.24.15c.06.02.12.08.12.08l-.39-.04.34.25s-.35-.08-.41-.08h-.06s.18.14.22.19c.04.06.08.14.08.14s-.16-.04-.24-.08a.91.91 0 0 0-.22-.06l.18.19-.3-.06.16.23-.3-.1s.14.08.14.13c0 .06-.06.33-.1.29-.04-.04-.06-.19-.1-.25-.04-.06-.1-.1-.1-.1s-.11-.05-.2-.06c.02.04.23.17.26.22l-.38-.04s.36.17.3.17-1.95-.15-2.07-.15c-.12 0-.69.65-.81.71-.12.06-.39.38-.51.4-.12.02-.27.1-.27.1l-.23-.17z" fill="#347c63"/><path d="M28.74 20.92l-.23-.12c.05-.08.46-.33.66-.51.12-.11.24-.23.36-.36.09-.1.19-.21.29-.31.1-.09.18-.14.24-.18.1-.06.16-.1.23-.25.08-.19.08-.29.06-.44 0-.06-.01-.12-.01-.2.12-.03.16.05.2.14 0-.02.02-.06.03-.09.04-.1.05-.12.07-.12.03.21.03.4.04.43-.01-.06.15-.44.15-.44v.01c.01.01.01.02.01.04.01.12 0 .27-.01.35.03-.1.15-.25.16-.28l.05.29c.02-.08.1-.23.13-.36.07-.02.09.02.13.08.01.03.04.07.05.08 0-.01.01-.09.03-.14.03-.15.06-.23.11-.23.09.05.13.21.14.24-.07-.39-.09-1.05-.04-1.11l.23.05-.04-.39c.03-.03.13.24.19.4-.02-.12-.04-.29-.07-.35-.04-.12-.08-.35-.08-.35.04-.02.18.17.26.27-.07-.13-.17-.43-.2-.46 0 .01-.06.07-.11.13-.04-.06-.02-.11-.01-.15.07-.2.1-.28.15-.28.08 0 .17.26.18.28-.09-.08-.16-.21-.18-.22-.01.01-.06.16-.09.24.02-.03.05-.05.07-.05.09 0 .23.58.23.59-.06-.03-.16-.16-.23-.24.02.07.05.17.07.23.03.08.08.51.06.55-.07-.07-.23-.57-.23-.57l.06.41-.24-.03c0 .05 0 .58.02 1.07-.07-.06-.11-.16-.14-.19 0 .01-.03.12-.05.19-.02.09-.03.14-.05.17-.07.02-.1-.02-.14-.09-.02-.03-.04-.07-.05-.07-.01.15-.14.38-.15.39v-.02-.03l-.05-.3c-.02.12-.14.3-.16.34-.05 0-.07 0-.02-.31-.04.12-.11.25-.13.28-.05 0-.06-.01-.06-.29-.04.11-.06.13-.09.13-.08-.13-.11-.18-.17-.18.03.04.04.1.04.16.01.15.02.27-.07.47a.54.54 0 0 1-.25.28c-.06.04-.14.08-.23.17-.1.1-.2.21-.29.31-.12.13-.24.26-.36.37-.22.19-.64.44-.67.46l.2.06c.04-.02.17-.08.27-.09.06-.01.18-.13.28-.22.09-.08.17-.16.22-.18.04-.02.18-.16.31-.29.26-.27.43-.43.51-.43.07 0 .73.05 1.31.1.31.02.58.04.7.05-.06-.02-.16-.07-.25-.11l.33-.01c-.03-.01-.06-.03-.09-.05-.09-.07-.13-.1-.14-.12.12-.04.24.02.24.02.01 0 .07.04.11.11.02.03.04.09.05.13.01.04.03.1.04.11 0-.02.05-.21.05-.27 0-.02-.06-.08-.12-.11h.01c.03-.02.07-.01.1.01l.21.03-.19-.19.33.01-.2-.14c.03-.05.17-.03.25.01.05.02.12.05.17.06-.02-.02-.03-.05-.05-.07a1.24 1.24 0 0 0-.21-.18l-.07-.05h.14c.06 0 .38.07.42.08l-.36-.2.33-.01c-.02-.01-.03-.02-.05-.02a1.41 1.41 0 0 1-.24-.16l.22-.03a.076.076 0 0 0-.04-.02c-.08-.05-.25-.06-.25-.06 0-.06.15-.08.25-.08.07 0 .28.04.42.07-.05-.02-.09-.05-.12-.05l-.32-.11.02-.01c.01-.01.02-.01.04-.01l.31-.1h-.53c-.01-.06.07-.12.14-.12.04 0 .24-.03.39-.05-.11 0-.25-.02-.29-.02-.04 0-.14.01-.24.01-.08 0-.16.01-.19.01l.01-.03-.01-.03h.03L33 18c.07-.03.14-.07.23-.11.13-.05.64-.21.64-.21l-.25.01.26-.01c.01.06-.51.21-.63.26-.06.02-.11.05-.16.07h.05c.1 0 .2-.01.24-.01.08 0 .46.06.46.06 0 .06-.5.14-.56.14-.04 0-.1.04-.12.05l.52.01-.3.1c.08.01.22.06.27.07.06.02.22.13.24.14-.18.02-.49-.04-.57-.04h-.04l.06.03c.08.03.1.08.1.09l-.29.02c.09 0 .21.08.25.1.06.02.13.08.13.08h-.02c-.01.02-.04.02-.06 0l-.33.01.36.2c-.15.02-.34-.02-.41-.02.04.03.13.1.16.14.04.06.08.14.08.14-.04.04-.2 0-.28-.04a.688.688 0 0 0-.21-.06l.2.14-.32-.01.19.18-.21-.03c.04.02.06.06.06.09 0 0-.04.32-.12.32a.29.29 0 0 1-.09-.15.548.548 0 0 0-.04-.12.658.658 0 0 0-.09-.09s-.04-.02-.09-.04c.02.01.04.03.06.04.07.05.12.09.14.11h-.4c.35.1.34.12.33.15-.06.03-.4 0-.8-.03-.55-.04-1.23-.09-1.3-.09-.06 0-.3.24-.47.41-.17.17-.28.27-.33.3-.05.02-.13.1-.21.17-.12.11-.24.22-.31.23-.11.02-.27.09-.27.09l-.01.03zm4.76-3.22c0-.06.2-.09.31-.18l.13-.1c-.02.01-.04.02-.05.03-.05.02-.14.03-.23.03-.06 0-.11 0-.15.01-.1.02-.43.08-.43.08l.01-.01c0-.01.01-.02.04-.03.18-.16.41-.29.44-.29.02 0 .07.02.14.05.04.02.1.05.12.05-.02-.03-.13-.28-.18-.29-.06 0-.26.11-.36.15l-.07.03c-.05-.07.41-.69.48-.69.04 0 .3.12.41.18-.17-.1-.32-.26-.36-.27-.04 0-.25.15-.43.28.02-.04.06-.09.11-.14l.42-.5-.38.29.04-.21c-.04.06-.13.15-.18.17-.07-.08.19-.44.23-.46.02-.01.12-.02.2-.03-.04-.01-.07-.01-.1-.01-.05 0-.22.09-.31.15l.02.01c0-.02.01-.04.04-.06l.18-.28c-.06.06-.19.11-.24.11-.03-.04-.05-.06.16-.26-.05.03-.09.06-.11.06-.04-.02-.06-.04-.01-.18-.07.11-.23.26-.29.28-.04-.1.38-.56.45-.56.03 0 .08.02.13.04.04.02.09.04.11.04-.01-.03-.15-.21-.22-.21-.05 0-.13.09-.19.14-.06.06-.08.09-.11.09-.05-.04-.03-.1.11-.41.03-.06.05-.11.05-.13.02-.04.06-.14.08-.2-.03.04-.1.08-.13.13-.04.08-.21.44-.21.44-.06-.02-.02-.22-.02-.26 0-.03.01-.28.02-.39-.01.01-.01.03-.02.05-.02.1-.1.33-.1.33l-.01-.02c-.01-.01-.01-.02-.01-.04l-.14-.42-.12.5-.22-.36c.03.12.04.38.04.41-.06.03-.06.03-.15-.13-.02-.04-.05-.08-.06-.1l-.1-.14c.02.07.04.17.05.24.01.08.08.27.13.4.03.08.05.15.06.18-.05.04-.08.04-.43-.44l.11.3-.11.03c-.02.01-.06.06-.1.12.03-.02.06-.03.09-.03.13.02.31.4.36.51l-.15-.05.01.01-.02-.03.15.06c-.15-.18-.29-.43-.34-.44-.08 0-.17.1-.21.14v-.01c-.01-.02 0-.06.03-.09.05-.14.13-.26.18-.26h.08l-.09-.29c.14.13.26.27.34.36-.01-.02-.02-.04-.02-.06-.06-.14-.12-.32-.14-.41-.02-.14-.08-.36-.08-.36l.01.01c.02-.01.03.02.05.05l.17.17c.01.02.04.06.06.1.02.04.05.1.07.13-.04-.08-.05-.44-.05-.44l.01.01c.01 0 .02.02.03.04l.22.35.12-.5.13.42c.01-.08.05-.2.06-.27.03-.12.1-.12.11-.12.03.03.01.43.01.47 0 .01-.01.05-.01.09.04-.11.11-.25.13-.29.04-.09.2-.14.21-.15.04.04-.04.21-.06.27-.01.02-.03.07-.06.13-.03.07-.09.21-.12.29l.02-.02c.07-.08.16-.17.23-.17.1 0 .25.2.27.27l-.05.06a.46.46 0 0 1-.13-.04.374.374 0 0 0-.11-.04c-.05.02-.42.41-.43.47.02-.04.2-.21.31-.33.02.11-.02.21-.02.23.01-.04.3-.21.3-.21v.01c.01.02-.02.05-.06.08-.13.16-.26.3-.27.32.01-.03.17-.1.26-.14l-.01.02c0 .01-.01.01-.01.02l-.19.29c.07-.06.19-.13.25-.13.09 0 .25.06.26.07-.01 0-.01 0-.02.01s-.02.02-.04.02c-.13.05-.26.06-.28.07-.04.03-.25.33-.25.38.03-.05.15-.18.2-.23v.01c.01.01 0 .03-.01.06l-.04.21.37-.29-.42.5c.11-.1.26-.2.31-.2.08.02.3.26.36.34-.2-.04-.39-.12-.42-.12-.04.03-.32.38-.43.54.15-.08.31-.16.37-.16.1 0 .21.3.21.36-.06.04-.11.02-.18-.01a.513.513 0 0 0-.12-.05c-.03.01-.2.11-.37.2.1-.03.24-.05.3-.07.04-.01.1-.01.16-.01.08 0 .17 0 .21-.02.08-.04.3-.12.3-.12.03.05-.2.2-.32.29-.05.09-.25.12-.28.12zm-1.42-1.18l-.16-.59.18.23c-.01-.05 0-.15-.02-.21-.04-.1-.06-.25-.06-.26.03-.01.08.03.11.06-.03-.07-.02-.22-.01-.29.06 0 .14.17.16.21l.09.14.01.02c-.06.02-.13-.09-.15-.13-.02-.04-.1-.22-.1-.22.05.13.04.3.05.32-.03.03-.04.05-.08 0 .01.04.03.1.04.14.04.1 0 .28 0 .29l-.21-.28.15.57z" fill="#1a4104"/><path d="M30.37 19.36l-.04-.04c.1-.1.26-.27.27-.32.03-.07.04-.12.04-.12.06.01.04.07.01.14-.02.07-.25.31-.28.34M30.49 19.4l-.03-.05c.2-.13.33-.46.33-.47.05.04-.08.38-.3.52M30.86 19.26l-.04-.05c.07-.05.15-.24.18-.31.05.03-.04.29-.14.36M30.91 19.41l-.03-.05c.36-.25.36-.73.36-.73.06.02.06.51-.33.78" fill="#1a4104"/><path d="M31.15 19.42l-.04-.04c.36-.4.36-.97.36-.98.06.03.06.6-.32 1.02" fill="#1a4104"/><path d="M31.27 19.48l-.03-.05c.29-.16.3-.88.3-.96l.06-.05c.01.19-.01.89-.33 1.06M31.75 18.96c-.01-.44-.14-.77-.14-.78.06.01.2.33.2.78h-.06zM31.91 18.8h-.06c.01-.49-.17-.82-.18-.82.06-.03.26.31.24.82" fill="#1a4104"/><path d="M31.95 18.77h-.06c.11-1.1-.12-1.22-.12-1.23.05-.04.3.09.18 1.23M32.12 18.28l-.06-.01c.04-.47-.09-.64-.09-.64.05-.03.19.15.15.65M32.28 17.95l-.06-.01c.05-.35-.17-.81-.17-.81.07.01.28.46.23.82M32.29 18.61l-.03-.05c.44-.29.74-.41.86-.37-.09.03-.27.05-.83.42M32.09 19.01l-.03-.05c.89-.61 1.07-.48 1.09-.46-.05.05-.22-.06-1.06.51" fill="#1a4104"/><path d="M33.13 18.82c-.05 0-.17-.04-.59-.01v-.06c.36-.02.57 0 .62.06 0 .01-.01.01-.03.01M32.8 19.16c-.04 0-.13-.06-.47-.04v-.06c.26-.02.43.01.5.08-.01.01-.02.02-.03.02M32.58 17.5l-.04-.04c.6-.69.73-.74.74-.75.01.06-.11.12-.7.79M32.55 17.68l-.03-.05c.61-.4.68-.46.69-.46.03.04-.03.1-.66.51M32.5 18l-.04-.04c.45-.44.66-.47.66-.47.01.06-.19.09-.62.51M32.49 18.2l-.04-.04c.78-.61 1.12-.5 1.14-.49-.02.04-.35-.06-1.1.53M32.38 18.38l-.03-.05c.33-.21.49-.26.59-.28l.08.03c-.16.05-.32.09-.64.3M32.77 15.87c-.15-.71-.24-1.02-.24-1.02.08.01.15.29.29 1.01l-.05.01zM32.87 15.89c-.06-.02.03-.33.03-.4.01-.06-.04-.47-.19-.7l.05-.03c.16.24.21.67.2.74 0 .07-.09.39-.09.39M33.01 15.09c-.05 0-.09-.11-.07-.46H33c-.03.36.02.46.02.46h-.01" fill="#1a4104"/><path d="M32.99 15.51l-.05-.03c.09-.17.21-.51.21-.52.04.03-.07.38-.16.55M32.77 16.31c.01-.06.05-.15.15-.39.1-.24.23-.54.32-.77l.05.02c-.09.22-.22.54-.32.77-.08.18-.14.32-.14.34l-.06.03zM32.78 16.73l-.05-.03c.45-.89.6-1.02.61-1.02.03.06-.12.19-.56 1.05M32.8 16.87l-.05-.03c.51-.71.59-.89.59-.89.05.03-.02.2-.54.92M32.71 17.2l-.05-.04c.59-.75.82-.84.83-.84.02.06-.21.15-.78.88M32.35 17.59c-.07-.65-.33-1.01-.33-1.01.07-.02.32.34.39 1l-.06.01zM32.46 17.24c-.06 0-.1-.56-.39-1.01l.05-.03c.3.46.34 1.03.34 1.04M32.52 16.98c-.06-.02.03-.44-.41-1.16l.05-.03c.46.74.37 1.18.36 1.19" fill="#1a4104"/><path d="M32.6 17.2c-.06-.02.11-.6-.29-1.36l.05-.03c.41.79.25 1.37.24 1.39" fill="#1a4104"/><path d="M32.71 16.65c-.06-.01-.05-.28-.27-.85l.05-.02c.23.59.22.86.22.87M32.75 16.13c-.05-.03.07-.36-.58-.97l.04-.04c.69.63.55.99.54 1.01M32.15 18.83c-.06-.02.03-.26.04-.35 0-.03.01-.09.02-.15-.04.09-.09.22-.17.4l-.05-.02c.23-.54.26-.64.26-.64.01 0 .01.01.01.01.01.01.01.02.01.04.01.1-.02.29-.03.36.01.11-.08.34-.09.35M32.52 19.42c-.09 0-.55-.25-.97-.17l-.01-.06c.48-.09.98.21 1 .22-.01 0-.02.01-.02.01M32.18 19.48c-.11 0-.35-.04-.7-.07v-.06c.49.04.77.11.77.11 0 .01-.03.02-.07.02M32.69 19.3c-.13 0-.78-.24-1.01-.25v-.06c.26.01.99.29 1.03.31h-.02" fill="#1a4104"/><path d="M30.49 19.1c-.05-.04-.03-.07.01-.15.04-.09.03-.26.03-.26h.06c0 .01.01.18-.03.28-.04.1-.06.13-.07.13" fill="#1a4204"/><path d="M30.21 20.91c-.65-.32-1.34-1.21-1.49-1.25-.15-.04-1.72.23-1.71.19.01-.04.05-.27.12-.39.07-.11.26-.23.23-.23s-.43.02-.43.02-.18.22-.25.24c-.07.03-.4.06-.47.1-.07.04-.21.17-.21.17s-.03-.16-.03-.2c0-.04.06-.13.06-.13s-.37.02-.32 0c.05-.01.06-.11.12-.19.06-.07.13-.16.24-.19.1-.03.21-.06.21-.06l-.18-.08s.18-.09.22-.09c.04 0 .22-.04.22-.04s-.13-.15-.13-.2c0-.06-.13.21-.24.24-.1.03-.31.06-.41.06-.1 0-.25.16-.25.16s-.04-.16-.03-.21c.02-.06.07-.09.07-.09l-.16.01s.04-.22.06-.24c.01-.03.09-.16.09-.16s-.12-.09-.15-.14c-.03-.06-.07-.2-.07-.2h.31c.07 0 .26.09.26.09s-.07-.11-.07-.16-.06-.14-.03-.14.24.13.24.13-.06-.27-.15-.33-.49-.13-.56-.23c-.07-.1-.18-.46-.21-.55-.02-.09-.11-.13-.11-.13h.24l-.05-.23c-.01-.09.03-.21.03-.21s.1.17.16.17.15.1.15.1l.01-.1.18.23s.02-.16.05-.19c.03-.03.1-.06.1-.06s.02.1.03.13c.01.03.1.24.1.29s-.03.52-.03.56c0 .04.18.37.18.37v-.34c0-.09-.1-.27-.09-.34.01-.07.03-.19.03-.19s.09.16.12.17c.03.02.12.17.12.17l.1-.19s-.25-.2-.28-.28c-.03-.09-.06-.27-.06-.27s-.18-.09-.23-.14c-.06-.06-.29-.46-.29-.46h.09s-.09-.19-.09-.27c0-.09.01-.26.01-.26s.09.07.1.1c.01.03.13.04.13.04s-.18-.39-.18-.54c0-.16.23-.46.23-.46l.12.19.23-.34s.1.16.1.2v.19s.15.02.18.02.1.06.1.06-.12.04-.16.09-.09.23-.13.24c-.04.02-.23.15-.28.19-.04.04-.09.3-.09.3s.15.2.16.27c.01.07.03.26.03.26s.07.09.13.07c.06-.02.12-.1.1-.16-.01-.06-.18-.2-.19-.27-.01-.07.01-.55.01-.55l.24.13s.13-.13.16-.2.08-.27.08-.27l.1.3s.07-.13.15-.16c.07-.03.22-.11.22-.11s-.06.17-.06.2.01.53-.01.59c-.03.06-.41.42-.44.45-.03.03-.03.24-.03.24l.28-.24s.03.13.05.2c.01.07.01.14.01.14s.15-.04.19-.07c.04-.03.13.03.13.03s-.04.11-.07.15c-.03.03-.13.3-.18.34-.04.04-.31.14-.34.19-.03.04-.25.29-.31.37-.06.09-.06.26-.06.26s.09-.26.16-.32.25-.26.25-.26l.04.22s.16-.11.22-.13c.06-.01.37-.09.37-.09s-.21.17-.21.22-.03.27-.1.33-.43.27-.46.29c-.03.02-.06.13-.06.17 0 .04.04.1.04.1s.04-.1.1-.16c.06-.06.04-.19.04-.19s.13.13.15.19c.01.06.03.36.01.43-.01.07-.03.24 0 .29.03.04.16.19.19.19s-.18-.37-.15-.55c.03-.17.15-.29.18-.37.03-.09.04-.17.04-.17s.13.15.15.22c.04-.06.08-.1.14-.13.03.04.13.3.15.38.05-.08.11-.16.17-.22.06.08.14.29.12.4a.6.6 0 0 1-.19.3c-.09.06-.16.09-.16.09s.21.07.26.07c.06 0 .15.04.15.04l-.32.1s.4.04.4.01 0-.19-.04-.27c-.04-.09-.06-.19-.06-.19s.13.04.19.04.16.01.16-.02-.12-.26-.09-.26.41.34.41.29.17-.36.17-.36.14.26.15.31c.01.04.02.15.02.25s-.1.24-.1.24.21.32.34.43c.13.11.49.6.87.83.2.12.21.11.37.2l-.14.18z" fill="#347c63"/><path d="M30.21 20.93l-.01-.01c-.41-.21-.83-.63-1.13-.93-.16-.16-.3-.3-.35-.31-.19 0-.64.06-1.02.11-.31.04-.58.08-.65.08l-.02-.02-.01-.07c.02-.09.05-.24.11-.33.05-.07.14-.14.19-.19.03-.01-.37 0-.37 0 0 .01-.17.21-.24.24-.03.01-.11.03-.19.04-.11.02-.24.04-.27.06-.07.04-.2.17-.2.17-.03-.01-.06-.17-.06-.21 0-.04.04-.1.05-.13-.04.01-.16.02-.23.02l-.05-.01c.15-.03.31-.03.31-.03-.01.06-.04.12-.04.15s.02.15.03.18c.01-.04.12-.13.18-.17.04-.03.17-.05.29-.07.08-.01.16-.02.18-.04.06-.02.19-.18.24-.24.01-.01.41-.02.44-.02v.01l-.04.07c-.05.04-.14.11-.18.18-.05.08-.09.23-.1.32.07.04.34.01.64-.04.39-.06.82-.11.98-.11.12.02.24.14.42.33.3.3.71.72 1.11.92l.15-.2-.12-.04c-.07-.03-.12-.06-.25-.14-.27-.16-.53-.46-.7-.65-.07-.08-.13-.15-.17-.18-.13-.11-.33-.42-.34-.43 0-.02.1-.16.1-.26 0-.12-.01-.21-.02-.25l-.15-.3c-.03.11-.13.31-.13.35-.06.03-.13-.03-.29-.16-.06-.05-.13-.11-.15-.11.02.01.05.08.07.13.03.07.04.09.04.11v.02l-.08.02h-.1c-.05 0-.14-.03-.18-.04.02.02.03.09.06.15.04.08.05.21.05.28v.02l-.08.01c-.11 0-.34-.02-.34-.02h.01c0-.01.01-.01.03-.02l.25-.1c-.03 0-.08-.02-.11-.02-.06 0-.26-.07-.27-.07 0-.03.07-.06.16-.12.08-.05.15-.15.19-.29.02-.09-.06-.29-.11-.38-.03.05-.09.14-.14.22-.06-.1-.15-.34-.18-.37-.03.04-.07.07-.11.13-.04-.05-.13-.15-.16-.19.01.03-.01.08-.02.14-.01.03-.03.07-.06.11-.04.07-.1.15-.12.26-.02.11.06.3.11.42.04.1.04.12.04.13-.07.02-.21-.16-.22-.18-.04-.05-.02-.24 0-.3.02-.07 0-.37-.01-.42a.527.527 0 0 0-.12-.15c.01.04.01.12-.04.16-.06.05-.1.15-.1.15-.04 0-.08-.06-.08-.11 0-.04.03-.17.07-.19.03-.01.38-.23.45-.28.07-.05.1-.27.1-.31 0-.05.15-.18.21-.23l-.35.12c-.05.01-.17.09-.22.13l-.07-.22c-.01.04-.16.21-.22.26-.06.04-.13.24-.16.31-.04-.01-.04-.18.02-.27.04-.05.13-.16.2-.24.05-.06.1-.11.11-.13.02-.03.08-.06.19-.11.06-.03.13-.06.15-.08.02-.02.07-.11.1-.19.04-.09.06-.14.08-.15.02-.02.06-.1.07-.14-.01.01-.05-.01-.08-.01-.07.03-.21.08-.22.08-.02-.02-.02-.09-.04-.16-.01-.07-.05-.2-.05-.2l-.27.22c-.03-.08-.03-.24.01-.27.29-.27.42-.41.44-.44.01-.02.02-.11.01-.55 0-.05.03-.16.05-.21a.68.68 0 0 1-.19.11c-.05.02-.12.11-.14.15l-.12-.28c0 .06-.03.19-.05.24-.03.07-.16.2-.17.21l-.26-.13c.02.12 0 .47.01.52.01.04.06.09.1.15.04.05.08.09.09.13.01.03 0 .07-.02.1-.02.04-.06.07-.1.08-.08 0-.14-.07-.15-.08-.01-.01-.02-.2-.03-.27-.01-.06-.12-.21-.16-.26 0-.04.04-.28.09-.32.04-.05.24-.18.29-.19.02-.01.04-.07.06-.12.02-.05.04-.1.06-.12.05-.05.16-.09.17-.09-.04 0-.08-.02-.1-.02-.03 0-.18-.01-.18-.01l-.02-.21c0-.02-.06-.13-.1-.19l-.19.35-.15-.19c0 .03-.2.31-.2.45 0 .15.17.53.18.54-.06.02-.15.01-.17-.03-.01-.02-.05-.05-.09-.08.01.04 0 .16 0 .23 0 .08.09.26.09.27l-.11.03c.1.11.26.38.31.43.05.05.23.14.23.14.01.01.04.2.07.28.02.07.21.22.27.28l-.1.21c-.07-.07-.13-.16-.14-.16-.02-.01-.07-.09-.11-.15 0 .04-.01.1-.02.15-.01.03.02.11.04.17.02.07.05.13.05.17v.34c-.08-.07-.21-.33-.21-.37 0-.02.01-.15.02-.28.01-.13.01-.26.01-.28 0-.04-.08-.24-.1-.28a.345.345 0 0 1-.03-.13c0 .02-.05.05-.07.07-.02.02-.03.1-.04.18l-.21-.22.02.09c-.07-.03-.13-.08-.17-.08-.06 0-.13-.11-.17-.16 0 .04-.02.12-.01.18l.04.23-.21.02c.03.01.07.05.09.11l.03.09c.04.13.12.38.18.45.04.06.21.11.35.15.09.03.17.05.21.08.09.06.15.33.15.34-.12-.04-.23-.1-.25-.11.04.07.05.1.05.13 0 .02.04.1.07.15-.08 0-.22-.06-.28-.06h-.3c.02.02.05.13.08.17.02.04.11.11.14.14.01.02-.07.15-.08.18-.01.02-.04.16-.06.24l.14-.04c.01.04-.04.06-.05.11-.01.04.01.15.03.2.01-.04.14-.16.24-.16.1 0 .3-.03.41-.06.05-.01.13-.12.17-.18.04-.06.05-.07.07-.07.02.06.1.16.15.21-.03.04-.19.08-.23.08-.03 0-.15.05-.21.08l.18.05-.21.09c-.1.03-.17.12-.23.18-.02.03-.04.07-.06.1-.02.04-.04.07-.06.09l-.03-.01c.03-.03.05-.06.06-.1.02-.03.03-.07.06-.11.06-.07.13-.16.24-.19l.21-.06-.18-.05c.03-.05.18-.12.23-.12.03 0 .17-.03.21-.04-.03.01-.12-.09-.14-.16 0 .01-.02.03-.03.04-.05.07-.12.18-.19.2-.11.03-.31.06-.42.06-.08 0-.2.11-.24.15-.04-.03-.08-.17-.06-.23.02-.07.08-.1.08-.1l-.15.05c-.01-.06.03-.24.04-.27.01-.03.08-.14.09-.15-.01.01-.12-.07-.15-.13s-.07-.21-.07-.21l.33-.02c.06 0 .18.05.24.07-.03-.03-.07-.09-.07-.13l-.03-.15c.06-.01.2.08.27.12-.04-.05-.1-.26-.17-.3-.03-.02-.11-.04-.2-.07-.15-.05-.32-.1-.37-.16-.06-.08-.14-.32-.18-.47l-.03-.09c-.03-.08-.11-.12-.11-.12H25c.01-.01.02-.01.03 0l.2-.03-.06-.21c-.01-.09.03-.22.03-.22.07.07.14.16.18.16.06 0 .15.09.16.11l-.02-.09.2.21c-.02-.03-.01-.15.02-.18s.11-.06.11-.06c.03.05.04.12.05.14.01.02.11.24.11.29 0 .02-.01.15-.02.28-.01.13-.01.26-.01.28 0 .02.09.21.17.36l-.03-.33c0-.04-.02-.1-.04-.16-.03-.08-.05-.15-.04-.19.01-.07.03-.19.03-.19.07.07.13.15.14.16.03.02.1.14.13.18l.07-.19s-.25-.18-.28-.27c-.03-.08-.06-.27-.06-.27.01.01-.17-.08-.23-.13-.06-.06-.29-.45-.3-.46l.1-.03c-.03 0-.1-.17-.1-.26s.01-.26.01-.26c.05 0 .12.06.14.09.01.01.06.03.12.03-.04-.02-.2-.37-.2-.53 0-.16.23-.46.24-.47l.15.18.2-.34c.05.03.14.16.14.21v.18c.01-.01.13 0 .16 0s.09.05.11.06c-.01.03-.12.07-.16.11-.02.02-.04.07-.06.11-.03.08-.05.13-.08.14-.04.01-.23.14-.27.18-.03.03-.07.19-.08.29.01 0 .15.19.16.26.01.07.03.26.03.26.01.01.06.06.1.06.04-.01.06-.03.08-.06.02-.03.02-.05.02-.07-.01-.02-.05-.07-.08-.11-.05-.06-.1-.12-.11-.16-.02-.07.01-.53.01-.55l.26.11c0-.01.11-.13.14-.19.03-.07.07-.27.07-.27v.01s.01.01.01.02l.12.26c0-.04.07-.13.13-.15.07-.03.22-.11.22-.11 0 .1-.03.2-.03.21.01.38 0 .56-.02.6-.02.05-.23.25-.41.42-.05.05-.06.16-.06.26l.25-.26c.03.01.06.14.07.21.02.07.02.14.02.15.02-.03.13-.06.16-.09.09-.01.15.03.15.03 0 .04-.04.14-.07.17-.01.01-.04.08-.07.14-.05.11-.08.18-.11.2-.02.02-.09.05-.16.09-.07.03-.16.08-.17.09-.01.02-.06.07-.11.13-.07.09-.16.19-.2.24-.03.04-.04.1-.05.15.02-.08.08-.2.12-.23.07-.05.25-.26.25-.26l.07.22c.01-.03.14-.12.2-.14l.37-.09c-.08.11-.18.21-.18.23 0 .04-.03.28-.11.34-.05.04-.21.14-.33.21.05.03.14.12.16.17.01.05.02.26.02.38v-.02c.02-.11.08-.2.12-.27.02-.04.05-.07.06-.1.03-.08.04-.17.04-.17.04-.01.17.14.19.21.01-.07.06-.11.12-.14.06.05.16.33.17.38.02-.08.08-.17.14-.22.08.08.17.3.15.41-.05.15-.12.25-.2.31-.09.06-.16.09-.17.09.06-.02.21.04.26.04.06 0 .15.04.15.05l-.02.01-.01.01-.25.1c.07-.01.21.01.29.01.04-.11.03-.2 0-.26-.04-.09-.06-.19-.06-.19.03-.02.16.02.21.02h.1c.04-.01.02-.06 0-.09-.05-.12-.06-.15-.05-.17.03-.01.06.01.19.11.08.06.21.17.24.17-.01-.04.13-.3.15-.36.03 0 .17.27.19.31.02.06.02.22.02.26 0 .1-.1.24-.11.26.01 0 .21.3.33.41.04.04.1.1.17.18.17.2.43.49.69.65.13.08.18.1.25.14l.12.06-.15.25zm-3.32-2.42c0 .02 0 .04-.01.05-.02.08-.02.24 0 .27.03.04.12.14.16.17-.01-.02-.03-.05-.04-.08-.04-.11-.11-.29-.11-.41m-.2-.54c-.06.03-.1.06-.11.06-.02.01-.05.11-.05.16 0 .02.02.05.03.07 0-.03.04-.1.09-.15.04-.04.04-.11.04-.14" fill="#1a4104"/><path d="M25.53 18.65l-.03-.02c.07-.08.15-.09.22-.1.04 0 .07-.01.1-.02.09-.04.25-.13.25-.13.02.03-.14.12-.23.16-.04.02-.07.02-.11.02-.07.02-.14.03-.2.09" fill="#1a4104"/><path d="M25.67 18.75c-.01-.04.18-.08.25-.12.03-.02.07-.07.12-.13.08-.1.17-.23.28-.3l.02.03c-.1.07-.2.19-.27.29-.05.07-.09.12-.13.14-.08.04-.26.08-.27.09M25.71 18.82v-.04c.07-.01.25-.02.3-.07.06-.06.17-.13.17-.13.02.03-.08.1-.14.16-.07.06-.31.07-.33.08M25.97 19.33v-.03c.24-.03.55-.1.57-.11.03.05-.49.13-.57.14M26.23 19.49h-.02v-.04c.28.02.56-.28.56-.28.01.04-.25.32-.54.32M26.9 19.17c-.22 0-.45-.03-.6-.11l.02-.03c.34.2 1.16.07 1.16.07-.01.02-.29.07-.58.07M27.21 18.96c-.01-.03.01-.09.04-.58h.04c-.04.58-.06.58-.08.58M27.43 18.85l-.03-.02c.07-.14.07-.26.07-.26.04.01.04.14-.04.28M28.39 19.13c-.05 0-.31-.25-.47-.33l.02-.03c.17.09.45.35.45.36.01 0 0 0 0 0M28.56 19.03c-.04 0-.16-.17-.3-.25l.02-.03c.15.09.28.27.28.28M28.62 19.28c-.03-.03.1-.25-.07-.44l.03-.03c.19.21.04.47.04.47M25.59 17.36c-.04 0-.12-.08-.17-.14-.04-.04-.04-.09-.05-.13 0-.03-.01-.06-.03-.08-.06-.1-.12-.19-.28-.24l.01-.04c.18.05.24.15.28.22.05.06.05.1.06.14.01.04.01.08.04.11.06.07.16.16.16.16h-.02M25.91 17.59c-.03 0-.09-.12-.13-.17l-.11-.05c-.04-.02-.08-.09-.12-.19-.02-.03-.03-.06-.04-.07l-.01-.07c0-.1.01-.27-.27-.29v-.04c.32.03.31.23.31.33.01.06.03.09.04.13.03.06.07.16.1.17.08.02.1.02.13.06.05.06.1.18.1.19M25.42 16.74c-.03-.01-.01-.09-.09-.18a.76.76 0 0 0-.11-.11l.02-.03s.04.02.12.12c.09.1.06.2.06.2M25.69 17.01c-.04 0-.16-.22-.09-.43l.03.01c-.06.2.06.42.06.42zM25.8 17.06c-.03-.02.09-.26-.07-.38l.02-.03c.19.14.05.41.05.41M26.46 17.74c-.04-.01-.04-.02.04-.13.07-.1.17-.38.17-.39l.04.01c0 .01-.11.29-.18.39-.06.1-.07.12-.07.12M26.43 18.05l-.04-.01c.1-.35.28-.41.29-.41.02.03-.15.09-.25.42" fill="#1a4104"/><path d="M26.6 17.79l-.01-.03c.3-.11.53-.48.54-.48.01.03-.22.39-.53.51M25.56 18.43l-.02-.03c.22-.13.29-.12.36-.12.03 0 .06 0 .11-.01.14-.04.21-.13.21-.14.03.03-.05.13-.2.17-.05.02-.09.01-.12.01-.07 0-.13 0-.34.12M25.88 18.23c-.06 0-.33-.13-.51-.1l-.01-.04c.21-.04.52.13.53.13 0 .01 0 .01-.01.01M26.17 18.14c-.04 0-.09-.19-.34-.22l.01-.04c.26.03.33.25.33.26M26.71 19c-.04 0-.1-.06-.54-.02v-.04c.49-.04.54.03.54.06zM26.44 17.36l-.03-.02c.22-.38.46-.62.46-.62.03.03-.21.26-.43.64M26.87 16.89l-.02-.03c.11-.08.35-.42.35-.43.01.04-.22.38-.33.46M26.5 16.87c-.01-.17-.02-.28-.03-.37-.02-.18-.03-.24.04-.35.05-.09.12-.16.19-.22.06-.05.11-.1.12-.13.05-.15.1-.26.1-.4 0-.18.15-.32.15-.33.02.03-.11.17-.11.33 0 .14-.05.26-.08.35-.04.11-.09.15-.15.21s-.14.13-.18.21c-.06.1-.05.15-.03.33.01.09.02.2.03.38l-.05-.01z" fill="#1a4104"/><path d="M26.51 16.56c-.04 0-.13-.34-.1-.46.01-.04.04-.07.1-.12.13-.13.35-.36.26-.77l.04-.01c.1.43-.13.67-.27.81-.04.04-.08.08-.09.11-.03.1.05.44.06.44M26.05 16.28c-.04 0-.24-.19-.49-.36l.02-.03c.27.18.48.39.47.39.01 0 .01 0 0 0M26.12 16.11c-.04 0-.13-.04-.2-.06-.04-.01-.09-.04-.14-.07-.04-.02-.09-.05-.11-.05v-.03c.03 0 .07.02.13.05.04.02.09.05.13.06.09.03.21.09.21.09 0 .01-.01.01-.02.01M25.98 15.97c-.04-.01-.02-.07-.08-.15-.02-.03-.05-.05-.09-.09-.09-.07-.21-.18-.24-.32l.04-.01c.02.13.13.22.22.3.04.04.08.07.1.09.06.09.05.17.05.18M26.38 15.89c-.01-.23.03-.53.03-.53.04.01-.01.31.01.53h-.04z" fill="#1a4104"/><path d="M26.55 15.81c-.03-.02.08-.26.08-.54h.04c0 .29-.12.53-.12.54M26.38 15.8a.888.888 0 0 1-.07-.23c-.01-.03-.01-.05-.02-.09a.569.569 0 0 0-.05-.14c.03-.03.06.01.09.13.01.04.01.07.02.09.01.05.02.1.07.22l-.04.02zM25.95 15.49h-.04c.01-.25.07-.37.1-.44.03-.06.04-.09.03-.14-.03-.13-.06-.2-.06-.2.04-.02.06.06.1.19.01.06-.01.1-.03.16-.04.08-.09.19-.1.43" fill="#1a4104"/><path d="M26.08 14.98c-.03-.03.09-.21.26-.28l.02.03c-.17.07-.28.25-.28.25M26.02 15.29l-.04-.01c.09-.2.18-.33.27-.41.1-.08.22-.05.22-.05-.01.04-.12.01-.2.08-.08.07-.17.2-.25.39M26.06 14.87l-.03-.02c.11-.18.14-.46.14-.47.04.02.01.3-.11.49M26.68 16.88h-.04c.03-.3.21-.66.21-.67.03.02-.14.38-.17.67" fill="#1a4104"/><path d="M25.93 15.46c0-.06-.04-.1-.09-.1s-.09.05-.09.1c0 .06.04.11.09.11s.09-.05.09-.11" fill="#c0003b"/><path d="M25.84 15.58c-.06 0-.11-.06-.11-.13 0-.14.22-.14.22 0 0 .08-.05.13-.11.13" fill="#1a4104"/><path d="M26.09 15.61c0-.06-.04-.1-.09-.1s-.09.05-.09.1c0 .06.04.11.09.11s.09-.05.09-.11" fill="#c0003b"/><path d="M25.99 15.73c-.06 0-.11-.06-.11-.13 0-.14.22-.14.22 0 .01.08-.04.13-.11.13" fill="#1a4104"/><path d="M26.44 16.37c0-.06-.04-.11-.09-.11-.05 0-.09.05-.09.11s.04.11.09.11c.05-.01.09-.05.09-.11" fill="#c0003b"/><path d="M26.35 16.49c-.06 0-.11-.06-.11-.13 0-.14.22-.14.22 0 0 .08-.05.13-.11.13" fill="#1a4104"/><path d="M26.63 16.48c0-.06-.04-.11-.09-.11-.05 0-.09.05-.09.11s.04.11.09.11c.05 0 .09-.05.09-.11" fill="#c0003b"/><path d="M26.54 16.61c-.06 0-.11-.06-.11-.13 0-.14.23-.14.23 0-.01.07-.06.13-.12.13" fill="#1a4104"/><path d="M25.94 17.59c0-.06-.04-.1-.09-.1-.05 0-.09.05-.09.1 0 .06.04.11.09.11.05 0 .09-.04.09-.11" fill="#c0003b"/><path d="M25.85 17.72c-.06 0-.11-.06-.11-.13 0-.14.23-.14.23 0-.01.07-.06.13-.12.13" fill="#1a4104"/><path d="M26.4 17.83c0-.06-.04-.1-.09-.1-.05 0-.09.05-.09.1 0 .06.04.11.09.11.05 0 .09-.05.09-.11" fill="#c0003b"/><path d="M26.31 17.95c-.06 0-.11-.05-.11-.13 0-.14.22-.14.22 0 0 .08-.05.13-.11.13" fill="#1a4104"/><path d="M26.67 18.74c0-.06-.04-.11-.09-.11-.05 0-.09.05-.09.11s.04.11.09.11c.05 0 .09-.05.09-.11" fill="#c0003b"/><path d="M26.58 18.87c-.06 0-.11-.06-.11-.13 0-.14.23-.14.23 0-.01.07-.06.13-.12.13" fill="#1a4104"/><path d="M27.16 18.99c0-.06-.04-.11-.09-.11-.05 0-.09.05-.09.11s.04.11.09.11c.05 0 .09-.05.09-.11" fill="#c0003b"/><path d="M27.07 19.12c-.06 0-.11-.06-.11-.13 0-.14.22-.14.22 0 0 .07-.05.13-.11.13" fill="#1a4104"/><path d="M27.41 18.98c0-.06-.04-.11-.09-.11-.05 0-.09.05-.09.11s.04.11.09.11c.05 0 .09-.05.09-.11" fill="#c0003b"/><path d="M27.32 19.11c-.06 0-.11-.06-.11-.13 0-.14.23-.14.23 0-.01.07-.06.13-.12.13" fill="#1a4104"/><path d="M28.18 19.16c0-.06-.04-.1-.09-.1-.05 0-.09.05-.09.1 0 .06.04.11.09.11.05-.01.09-.05.09-.11" fill="#c0003b"/><path d="M28.09 19.28c-.06 0-.11-.05-.11-.13 0-.14.22-.14.22 0 0 .08-.05.13-.11.13" fill="#1a4104"/><path d="M33.5 20.47c-.29-.28-.64-.18-.8-.2-.09-.09-.29-.19-.44-.13-.15.06-.23.38-.23.42 0 .09.16.15.29.16.13.01.42.01.52.02.1.01.24.17.24.17s.29-.36.42-.44" fill="#bc0030"/><path d="M33.08 20.96l-.02-.03c-.04-.04-.15-.15-.22-.16-.05-.01-.15-.01-.26-.01-.1 0-.2-.01-.27-.01-.13-.01-.31-.08-.31-.19 0-.05.09-.38.25-.44.14-.06.36.03.47.13l.22-.01c.17 0 .39.02.58.21-.14.12-.42.48-.42.48l-.02.03zm-.71-.81c-.03 0-.06.01-.09.02-.13.05-.21.35-.21.39 0 .06.13.12.26.13.06.01.16.01.26.01.11 0 .21 0 .26.01.09.01.19.11.23.16.07-.09.29-.35.41-.42-.18-.13-.39-.15-.55-.15h-.18l-.08-.01a.495.495 0 0 0-.31-.14"/><path d="M32.67 20.45c0-.14-.1-.22-.19-.2-.13.03-.61.24-.8.25-.17.01-.45-.16-.45-.27 0-.1.41-.25.41-.25l.29.09s.36-.17.58-.17c.22 0 .35.14.33.24 0 .1-.17.33-.17.31" fill="#bc0030"/><path d="M31.68 20.53c-.08 0-.2-.04-.3-.1-.05-.03-.17-.11-.17-.2 0-.12.33-.24.44-.28l.3.09c-.01-.01.35-.18.57-.18.13 0 .24.04.31.12.04.05.06.1.06.15-.01.09-.16.34-.21.34-.03-.15-.1-.2-.16-.2-.07.01-.16.04-.27.09-.19.07-.44.16-.56.17h-.01zm-.04-.52c-.17.07-.38.17-.38.22 0 .03.04.09.14.15.09.06.19.09.27.09v.03l.01-.03c.12-.01.35-.09.54-.16.11-.04.2-.07.25-.08.11-.01.21.07.22.21.01-.07.11-.22.12-.3.01-.04-.01-.07-.04-.11-.06-.07-.15-.1-.26-.1-.21 0-.56.17-.57.17l-.3-.09z"/><path d="M32.5 20.56h-.03c-.09-.01-.19-.03-.26-.04-.08-.02-.11 0-.15.04-.03-.05.02-.12.08-.12.02 0 .05.01.09.02.07.01.15.04.25.04.18 0 .19-.09.2-.12l.06.01c-.02.07-.06.17-.24.17M25.34 20.65l-.05-.03c.12-.2.21-.22.21-.22.02.05-.05.07-.16.25"/><path d="M25.38 20.71l-.05-.03c.12-.2.21-.22.21-.22.02.06-.05.08-.16.25M25.44 20.77l-.05-.03c.12-.2.21-.22.22-.22.01.06-.06.08-.17.25M25.48 20.84l-.05-.03c.12-.2.21-.22.21-.22.02.05-.05.07-.16.25M25.54 20.89l-.05-.03c.12-.2.21-.22.22-.23.01.06-.06.08-.17.26"/><path d="M25.58 20.95l-.05-.03c.12-.2.21-.22.21-.23.02.06-.05.09-.16.26M25.64 21l-.05-.03c.12-.2.21-.22.21-.22.02.05-.05.08-.16.25M25.68 21.07l-.05-.03c.12-.2.21-.22.21-.22.02.05-.05.07-.16.25"/><path d="M25.73 21.12l-.05-.03c.12-.2.21-.22.21-.22.02.05-.06.07-.16.25"/><path d="M25.45 20.47c.28-.28.64-.18.8-.2.09-.09.29-.19.44-.13.15.06.23.38.23.42 0 .09-.16.15-.29.16-.13.01-.42.01-.52.02-.1.01-.24.17-.24.17s-.29-.36-.42-.44" fill="#bc0030"/><path d="M25.87 20.96l-.02-.03s-.29-.36-.42-.43c.19-.23.41-.26.58-.26h.18c.16-.09.36-.19.51-.13.16.07.25.39.25.44 0 .11-.18.18-.31.19-.06 0-.17.01-.27.01s-.21 0-.26.01c-.07.01-.18.12-.22.16l-.02.04zm.14-.66c-.16 0-.36.02-.54.19.11.03.33.29.4.38.05-.05.15-.15.23-.16.05-.01.15-.01.26-.01.1 0 .2 0 .26-.01.13-.01.26-.08.26-.13 0-.04-.08-.34-.21-.39-.12-.05-.31.04-.41.12l-.01.01H26.01z"/><path d="M26.27 20.45c0-.14.09-.22.19-.2.13.03.61.24.8.25.17.01.45-.16.45-.27 0-.1-.41-.25-.41-.25l-.29.09s-.36-.17-.58-.17c-.22 0-.34.14-.33.24.01.1.17.33.17.31" fill="#bc0030"/><path d="M27.27 20.53h-.02c-.12-.01-.37-.1-.56-.17-.11-.04-.2-.07-.24-.08-.08 0-.15.06-.15.17-.07.03-.23-.23-.24-.31 0-.05.02-.11.06-.15.07-.08.18-.12.3-.12.22 0 .58.17.59.18l.26-.09c.12.04.45.16.45.28.02.12-.27.29-.45.29m-.84-.31c.08.01.17.05.28.09.19.07.43.16.54.16l.01.03v-.03c.16 0 .41-.16.41-.24 0-.05-.2-.16-.39-.22l-.27.09c-.02 0-.38-.17-.59-.17-.11 0-.2.04-.26.1-.03.04-.05.07-.04.11.01.09.14.28.16.3-.04-.14.06-.22.15-.22"/><path d="M26.45 20.56c-.18 0-.22-.1-.23-.17l.06-.01c.01.09.08.13.2.12.09-.01.18-.03.25-.04.04-.01.07-.02.09-.02.05 0 .1.06.12.08-.07.01-.11-.02-.12-.02-.01 0-.04.01-.08.01-.07.02-.16.04-.26.04h-.03z"/><path d="M29.51 19.26c-1.93-.04-2.72.32-2.73.59-.01.27.24.48.36.48s.45-.16.44-.23c-.05-.03-.06-.07-.02-.08.04-.02.74-.16 1.96-.16s1.91.12 1.92.16c.01.05-.09.08-.15.15.27-.03.34.14.47.15.13.01.37-.17.38-.44.01-.29-.8-.58-2.63-.62" fill="#bc0030"/><path d="M27.15 20.36c-.07 0-.16-.05-.24-.13a.585.585 0 0 1-.16-.38c.01-.3.78-.63 2.45-.63h.31c1.36.03 2.33.21 2.59.49.05.05.07.1.07.16-.01.27-.25.47-.4.47-.07 0-.11-.03-.16-.06a.444.444 0 0 0-.26-.09h-.07l-.01-.05a.55.55 0 0 1 .09-.07c.02-.01.06-.04.05-.05-.04-.03-.71-.14-1.89-.14-1.17 0-1.89.13-1.94.16l.03.02-.01.1c-.08.08-.34.2-.45.2m2.06-1.08c-1.73 0-2.38.35-2.39.57 0 .12.05.24.14.34.07.07.14.11.2.11.13 0 .4-.15.41-.2-.02 0-.05-.03-.05-.06.09-.08.79-.22 2.01-.22 1.08 0 1.93.1 1.95.19.01.05-.03.08-.08.11-.03.02-.06.04-.08.06.18-.05.26 0 .33.05.04.03.08.05.12.06.13 0 .34-.17.35-.41a.16.16 0 0 0-.05-.11c-.09-.1-.55-.43-2.55-.47l-.31-.02z"/><path fill="#f5cd28" d="M27.42 19.91l-.1-.3.18-.06.01.03-.15.05.04.09.13-.04.01.03-.13.05.03.1.15-.05.02.04zM28.04 19.46h.04l.02.19v.08c-.01.02-.01.04-.03.05-.02.01-.04.02-.06.02-.03 0-.05 0-.07-.01a.078.078 0 0 1-.04-.04.188.188 0 0 1-.02-.08l-.02-.19h.04l.02.19c0 .03.01.05.01.06l.03.03c.01.01.03.01.04.01.03 0 .05-.01.06-.03.01-.01.01-.04.01-.09l-.03-.19zM28.43 19.74v-.31h.03v.27h.13v.04zM28.66 19.41h.04v.33h-.04zM28.95 19.63l.03.01a.15.15 0 0 1-.04.08c-.02.02-.04.03-.06.03-.02 0-.05-.01-.06-.02a.311.311 0 0 1-.04-.06c-.01-.03-.01-.06-.01-.09s0-.06.01-.09.02-.04.04-.06c.02-.01.04-.02.06-.02.02 0 .04.01.06.03.01.02.03.04.03.07l-.03.01c-.01-.03-.01-.04-.02-.05-.01-.01-.02-.02-.04-.02s-.03.01-.05.02c-.01.01-.02.03-.02.05-.01.02-.01.04-.01.06 0 .03 0 .05.01.08.01.02.01.04.03.05.01.01.03.02.04.02.02 0 .03-.01.04-.02.02-.03.03-.05.03-.08M30.02 19.73v-.31h.06l.07.22c.01.02.01.04.01.05 0-.01.01-.03.02-.05l.07-.21h.05v.31h-.04v-.26l-.08.26h-.03l-.08-.26v.26h-.05zM30.35 19.43h.04v.32h-.04zM30.46 19.75v-.31h.03l.13.25v-.25h.03v.31h-.04l-.12-.24v.24zM30.74 19.45h.04v.3h-.04zM31.01 19.69l.03.01c-.01.04-.03.06-.05.08-.02.02-.04.02-.07.02-.03 0-.05-.01-.06-.03a.09.09 0 0 1-.03-.07.139.139 0 0 1 0-.09.2.2 0 0 1 .02-.09.12.12 0 0 1 .05-.05c.02-.01.04-.02.07-.01.03 0 .05.01.06.03.02.02.03.05.03.08l-.04.01c0-.03-.01-.04-.02-.06-.01-.01-.02-.02-.04-.02s-.04 0-.05.01c-.01.01-.02.03-.03.05-.01.02-.01.04-.02.06v.08c0 .02.01.04.02.05.01.01.03.02.04.02.02 0 .04 0 .05-.02.03-.01.04-.03.04-.06M31.33 19.88l.07-.33.04.01.08.28.05-.26.04.01-.07.33h-.04l-.08-.29-.06.26zM27.17 20.01l-.13-.31.11-.04c.02-.01.04-.01.05-.01.01 0 .03.01.04.02.01.01.02.03.03.04.01.02.01.04.01.06-.01.02-.02.04-.04.05.01 0 .02 0 .02.01.02.01.03.02.05.03l.08.07-.04.02-.06-.05c-.02-.01-.03-.03-.04-.03-.01-.01-.02-.01-.02-.01h-.02c-.01 0-.01 0-.02.01l-.04.02.06.11-.04.01zm-.04-.18l.07-.03c.01-.01.03-.01.03-.02.01-.01.01-.02.01-.03 0-.01 0-.02-.01-.03-.01-.02-.02-.03-.03-.03-.01-.01-.03 0-.04 0l-.08.03.05.11zM27.67 19.83l-.07-.32.1-.02h.04c.01 0 .03 0 .04.01l.03.03c.01.01.01.03.02.04.01.03 0 .05-.01.07-.01.02-.03.04-.07.04l-.07.01.03.13-.04.01zm0-.17l.07-.01c.02-.01.04-.01.05-.02.01-.01.01-.03.01-.05 0-.01-.01-.02-.02-.03-.01-.01-.02-.01-.03-.01h-.03l-.07.01.02.11zM28.17 19.77l-.02-.32.1-.01c.02 0 .04 0 .05.01.01.01.02.01.03.03.01.02.01.03.01.04 0 .01 0 .03-.01.04-.01.01-.01.02-.02.03.01 0 .03.01.04.03.01.01.01.03.02.05 0 .02 0 .03-.01.04 0 .01-.01.02-.02.03-.01.01-.02.01-.03.02-.01 0-.02.01-.04.01h-.1zm.02-.19h.05c.02 0 .03 0 .03-.01.01 0 .01-.01.02-.02s.01-.02.01-.03c0-.01 0-.02-.01-.03 0-.01-.01-.01-.02-.02h-.09l.01.11zm.01.15h.08c.01 0 .01-.01.02-.01.01-.01.01-.01.01-.02v-.03c0-.01 0-.02-.01-.03l-.02-.02h-.1l.02.11zM29.02 19.74l.1-.34h.04l.11.34h-.04l-.03-.1h-.11l-.03.1h-.04zm.07-.14h.09l-.03-.09c-.01-.03-.01-.05-.02-.07 0 .02-.01.04-.01.06l-.03.1zM29.47 19.74v-.33h.14c.02 0 .03.01.04.02.01.02.02.03.03.06.01.02.01.05.01.08s0 .05-.01.07c0 .02-.01.04-.02.05-.01.01-.02.02-.02.03-.01.01-.02.01-.03.02-.01 0-.03.01-.04.01h-.1zm.03-.04h.06c.02 0 .03 0 .04-.01.01 0 .02-.01.02-.02.01-.01.02-.02.02-.04.01-.02.01-.04.01-.06 0-.03 0-.06-.01-.08-.01-.02-.02-.03-.03-.04-.01-.01-.02-.01-.05-.01h-.06v.26zM29.74 19.58c0-.06.01-.1.03-.13.02-.03.05-.05.08-.05.02 0 .04.01.06.02.02.02.03.04.04.06.01.03.01.06.01.09s0 .07-.01.09c-.01.03-.02.05-.04.06-.02.01-.04.02-.06.02-.02 0-.04-.01-.06-.02-.02-.02-.03-.04-.04-.06 0-.02-.01-.05-.01-.08m.03 0c0 .04.01.07.02.1.01.02.03.04.06.04.02 0 .04-.01.06-.04a.25.25 0 0 0 .02-.1c0-.03 0-.05-.01-.07-.01-.02-.02-.04-.03-.05a.076.076 0 0 0-.04-.02c-.02 0-.04.01-.06.03-.01.02-.02.06-.02.11M31.05 19.81l.17-.31.04.01.04.36-.04-.01-.01-.11-.11-.03-.05.1-.04-.01zm.1-.13l.09.02-.01-.1v-.08l-.03.06-.05.1zM31.57 19.93l.22-.27.03.02-.04.36-.04-.02.01-.11-.1-.05-.07.08-.01-.01zm.12-.1l.08.04.01-.1c.01-.03.01-.05.01-.07a.21.21 0 0 1-.04.06l-.06.07z"/><path d="M30.39 20.2c-.31-.13-.48-.03-.48-.03l.01.21s.15 0 .21.03l.2.1.06-.31z" fill="#bc0030"/><path d="M30.35 20.55l-.23-.11a.628.628 0 0 0-.19-.03l-.04-.24c.03-.05.27-.11.52 0l-.06.38zm-.34-.18c.04 0 .1.01.13.02l.16.08.06-.27c-.19-.02-.44 0-.44 0l.02.18c.01-.01.04-.01.07-.01"/><path d="M28.56 20.22c.31-.13.48-.03.48-.03l-.01.21s-.15 0-.21.03l-.2.1-.06-.31z" fill="#bc0030"/><path d="M28.61 20.57l-.08-.34c.3-.19.52-.06.53-.06l.01.24c-.07.03-.18.03-.23.05l-.23.11zm.25-.39c-.09 0-.19.02-.29.07l.08.24.17-.08c.06-.03.21-.03.22-.03l-.02-.17a.357.357 0 0 0-.16-.03"/><path d="M29.3 20.15v.31c.01.02.07.04.17.04s.17-.04.17-.04v-.32s-.11-.04-.19-.03c-.08 0-.13.02-.15.04" fill="#bc0030"/><path d="M29.46 20.53c-.09 0-.17-.02-.19-.06l-.01-.32c.04-.05.09-.06.17-.07.1.01.2.03.2.03l.02.35c-.01.02-.08.07-.19.07m-.13-.08c.02 0 .28-.02.29-.02l-.01-.29c-.01.01-.08-.01-.13-.01-.12.01-.15.03-.15.04v.28z"/><path d="M29.63 20.47c.05.09.4.06.41-.02.01-.08.01-.19.01-.19h-.41v.21z" fill="#bc0030"/><path d="M29.81 20.56c-.06 0-.17-.01-.2-.07v-.22l.44-.03c.03.03.03.14.02.22-.01.07-.17.1-.26.1m.21-.29l-.38.03.03.18c.01.01.34.01.35-.02v-.19"/><path d="M29.63 20.13c.05-.02.18-.07.27-.06.1.01.15.07.15.07l-.02.28c-.02-.03-.1-.07-.15-.07-.1 0-.17.04-.26.09v-.31z" fill="#bc0030"/><path d="M29.6 20.49v-.35c.08-.05.19-.09.28-.09.14.01.19.08.2.08l-.01.3c-.07-.01-.13-.04-.17-.04-.1 0-.16.04-.25.08l-.05.02zm.29-.17c.06 0 .15.04.17.08l-.03-.26c0 .01-.04-.03-.12-.04-.1 0-.21.03-.26.06l.02.23c.06-.04.13-.06.22-.07z"/><path d="M29.3 20.48c-.05.09-.4.06-.41-.02-.01-.08 0-.19 0-.19h.41v.21z" fill="#bc0030"/><path d="M29.12 20.56c-.08 0-.25-.02-.26-.1-.01-.08-.01-.19-.01-.19l.44-.03.03.23c-.03.08-.14.09-.2.09m-.22-.26c.01.02.01.1.02.16.01.03.33.05.36.01v-.19l-.38.02z"/><path d="M29.3 20.14a.686.686 0 0 0-.28-.06c-.1.01-.15.07-.15.07l.02.28c.02-.03.1-.07.15-.07.1 0 .17.04.26.09v-.31z" fill="#bc0030"/><path d="M29.33 20.49l-.05-.02c-.08-.04-.15-.08-.24-.08-.05 0-.11.03-.12.05l-.07-.29c.01-.02.07-.09.17-.1.14.01.25.05.29.06l.02.38zm-.29-.16c.09 0 .16.03.23.07v-.26c-.08-.01-.16-.03-.22-.03-.11.01-.15.06-.15.06l.02.22c.01-.04.07-.06.12-.06"/></svg>