<svg xmlns="http://www.w3.org/2000/svg" viewBox="0 0 58.92 34.37"><path fill="#fff" d="M0 0h58.92v34.37H0z"/><path d="M.09.09h58.75v34.19H.09V.09zM0 34.37h58.92V0H0v34.37z"/><path fill="#2f742e" d="M0 0h29.46v34.37H0z"/><path d="M35.83 22.55a6.877 6.877 0 0 1-9.66-1.07 6.877 6.877 0 0 1 1.07-9.66 6.877 6.877 0 0 1 9.66 1.07 8.575 8.575 0 0 0-3.15-3.15c-4.11-2.37-9.36-.96-11.74 3.15-2.37 4.11-.97 9.37 3.15 11.74 4.11 2.37 9.36.96 11.74-3.15-.31.4-.67.76-1.07 1.07" fill="#c0003b"/><path fill="#c0003b" d="M32.43 18.75l1.84 2.52v-3.12l2.97-.96-2.97-.97V13.1l-1.84 2.52-2.97-.96 1.84 2.53-1.84 2.52z"/></svg>