<svg xmlns="http://www.w3.org/2000/svg" viewBox="0 0 59.04 34.49"><path d="M.06 22.98h58.92v11.46H.06z"/><path d="M59.04 34.49H0V22.92h59.04v11.57zM.12 34.37h58.8V23.04H.12v11.33z"/><path fill="#fff" d="M.06 11.52h58.92v11.46H.06z"/><path d="M59.04 23.04H0V11.46h59.04v11.58zM.12 22.92h58.8V11.58H.12v11.34z" fill="#fff"/><path fill="#bc0030" d="M.06.06h58.92v11.46H.06z"/><path d="M59.04 11.58H0V0h59.04v11.58zM.12 11.46h58.8V.12H.12v11.34z" fill="#bc0030"/><path d="M29.2 22.68c1.13 0 2.2-.09 2.84-.27.27-.05.27-.19.27-.36.27-.09.13-.41.32-.41-.19.05-.23-.32-.45-.27 0-.31-.32-.35-.58-.27-.53.18-1.48.22-2.38.22-.9-.04-1.84-.04-2.38-.22-.27-.09-.58-.05-.58.27-.23-.05-.27.32-.45.27.19 0 .05.32.32.41 0 .18 0 .32.28.36.58.18 1.66.27 2.79.27" fill="#fff"/><path d="M29.2 22.79c-1.21 0-2.25-.1-2.86-.27-.31-.05-.35-.23-.36-.4-.14-.08-.17-.21-.19-.3-.01-.02-.01-.05-.02-.07h-.02c-.05-.02-.09-.07-.08-.12.01-.06.05-.1.11-.1.01 0 .01 0 .02.01h.01c.02 0 .06-.05.09-.08.05-.07.13-.16.24-.19.06-.27.38-.38.72-.26.43.14 1.13.17 1.87.19l.49.02c1.14 0 1.91-.07 2.34-.21.35-.12.67 0 .72.28.12.03.19.11.24.17.02.03.06.08.08.08h.04c.06 0 .1.04.11.1a.11.11 0 0 1-.08.12h-.02-.01s0 .04-.01.07c-.02.09-.05.22-.19.3-.01.17-.05.34-.36.4-.63.16-1.68.26-2.88.26m-3.21-1.11c.01.03.02.06.02.08.02.1.04.15.12.17.04.02.08.06.08.11 0 .18 0 .22.18.25.59.17 1.64.27 2.81.27 1.17 0 2.22-.1 2.81-.26.18-.03.18-.08.18-.26 0-.05.03-.09.08-.11.08-.03.1-.08.12-.17.01-.03.01-.06.02-.08-.03-.03-.06-.06-.08-.1-.05-.06-.09-.1-.12-.1s-.08 0-.1-.02a.105.105 0 0 1-.05-.09c0-.05 0-.19-.23-.19-.06 0-.14.01-.2.03-.45.15-1.25.23-2.42.23l-.49-.02c-.75-.03-1.47-.05-1.93-.21a.747.747 0 0 0-.2-.03c-.23 0-.23.15-.23.19 0 .04-.01.07-.04.09-.02.02-.06.03-.09.02-.06 0-.09.04-.14.1l-.1.1" fill="#f0c727"/><path d="M26.64 21.55c-.09 0-.09.05 0 .05.04 0 .04-.05 0-.05" fill="#f4d134"/><path d="M26.64 21.66c-.12 0-.13-.07-.13-.09 0-.05.08-.09.13-.09.03 0 .09.05.09.09s-.06.09-.09.09" fill="#f0c727"/><path d="M26.64 21.37c-.05 0-.05.09 0 .09.08 0 .08-.09 0-.09" fill="#f4d134"/><path d="M26.64 21.53c-.03 0-.1-.07-.1-.1s.07-.1.1-.1c.08 0 .13.05.13.1-.01.04-.05.1-.13.1" fill="#f0c727"/><path d="M26.64 22.05c-.05 0-.05.09 0 .09.04 0 .04-.09 0-.09" fill="#f4d134"/><path d="M26.64 22.2c-.03 0-.1-.07-.1-.1s.07-.1.1-.1.09.07.09.1-.06.1-.09.1" fill="#f0c727"/><path d="M26.81 22.1c-.09 0-.09.09 0 .09.05 0 .05-.09 0-.09" fill="#f4d134"/><path d="M26.81 22.25c-.08 0-.13-.05-.13-.1s.07-.1.13-.1c.03 0 .1.07.1.1 0 .04-.05.1-.1.1" fill="#f0c727"/><path d="M26.99 22.14c-.04 0-.04.09 0 .09.09 0 .09-.09 0-.09" fill="#f4d134"/><path d="M26.99 22.29c-.03 0-.09-.07-.09-.1s.06-.11.09-.11c.08 0 .13.05.13.11 0 .04-.04.1-.13.1" fill="#f0c727"/><path d="M29.78 21.69c-.04 0-.04.09 0 .09.05 0 .05-.09 0-.09" fill="#f4d134"/><path d="M29.78 21.84c-.03 0-.09-.07-.09-.1s.06-.11.09-.11.1.07.1.11c0 .03-.07.1-.1.1" fill="#f0c727"/><path d="M29.83 21.87c-.09 0-.09.04 0 .04.04 0 .04-.04 0-.04M29.96 22.31c-.04 0-.04.1 0 .1.05 0 .05-.1 0-.1" fill="#f4d134"/><path d="M29.96 22.47c-.03 0-.09-.08-.09-.11s.06-.11.09-.11.1.08.1.11c-.01.04-.07.11-.1.11" fill="#f0c727"/><path d="M30.14 22.31c-.1 0-.1.1 0 .1.04 0 .04-.1 0-.1" fill="#f4d134"/><path d="M30.14 22.47c-.09 0-.13-.05-.13-.11s.05-.11.13-.11c.03 0 .09.08.09.11 0 .05-.04.11-.09.11" fill="#f0c727"/><path d="M31.98 21.96c-.09 0-.09.05 0 .05.05 0 .05-.05 0-.05" fill="#f4d134"/><path d="M31.98 22.07c-.12 0-.13-.07-.13-.08 0-.05.08-.08.13-.08.03 0 .1.05.1.08s-.06.08-.1.08M27.12 22.12c-.04 0-.07-.01-.1-.02a.262.262 0 0 1-.13-.06.44.44 0 0 1-.14-.03c-.04 0-.13-.07-.13-.2.04-.09.07-.22.11-.35l.03-.11c.01-.03.04-.05.07-.04.03.01.05.04.04.07l-.03.11c-.04.15-.07.27-.11.35.01.02.03.05.04.05.04.01.07.02.09.03.01-.03.02-.05.03-.09.01-.09.03-.13.06-.14.01.01.03.03.04.06l.03.02s0 .02-.01.04v.02c-.01.05-.02.09-.03.12.01 0 .02.01.08.03.03.01.07.02.09.01.02-.01.04-.06.06-.15l.02.01-.06-.07c.01-.02.07-.05.09-.04.03.01.07.08.07.11-.02.11-.05.2-.12.24-.04.03-.06.03-.09.03" fill="#f0c727"/><path d="M26.76 22.02h-.02c-.13-.04-.22-.11-.22-.19 0-.05.03-.12.18-.15.03 0 .07.01.07.05.01.03-.01.06-.05.07-.08.02-.09.04-.09.04 0 .01.04.05.13.07.03.01.05.04.04.07.01.02-.01.04-.04.04M28.06 22.38c-.03 0-.07-.01-.08-.03-.01.02-.1 0-.1-.17-.02 0-.07-.01-.1-.04-.11.05-.25.06-.33.03-.03.04-.07.08-.12.1-.03.01-.07 0-.08-.03-.01-.03 0-.07.03-.08s.06-.04.08-.07c-.02-.03-.02-.06-.02-.1-.01-.02-.03-.08 0-.12.1-.02.14.02.16.1 0 .03 0 .06-.01.08.03.02.1.02.18-.01a.187.187 0 0 1-.03-.2c.04-.08.13-.12.22-.1.07.04.11.11.11.18 0 .06-.03.11-.08.15.02.01.04.03.07.04.03.12.04.12.06.12.03 0 .07-.08.07-.16v-.4c0-.07.12-.07.12 0v.4c0 .11-.06.26-.14.29 0 .02 0 .02-.01.02M28.3 22.25c-.03 0-.06-.03-.06-.06 0-.07.01-.17.03-.26.01-.09.02-.17.02-.23 0-.07.12-.07.12 0s-.01.16-.02.25-.02.18-.02.25c-.01.02-.04.05-.07.05M28.43 22.51c-.02 0-.04-.01-.05-.02-.02-.03-.02-.06.01-.08.09-.07.13-.12.14-.17a.17.17 0 0 1-.06-.06c-.03-.06-.04-.11-.01-.14.01-.02.06-.04.08-.04.05 0 .09.05.12.12v.05h.03s.02-.01.03-.09a.084.084 0 0 1-.04-.07c0-.03.05-.1.08-.1s.06.04.08.08h.08c.1.05.28.04.31.02.11-.02.15.05.15.18 0 .01-.03.09-.03.09-.03.08-.06.14-.11.15-.06.01-.1-.04-.14-.07-.02-.06-.02-.07-.09-.07h-.36c-.02.07-.07.14-.18.22h-.04m.4-.34h.18c.16 0 .19.09.19.15l.05-.09c.01-.04.01-.07.01-.1-.11.04-.29.02-.37-.03-.01 0-.03.01-.05 0 0 .03 0 .05-.01.07" fill="#f0c727"/><path d="M29.51 22.29c-.01 0-.03 0-.04-.01-.04-.01-.07 0-.08 0-.03 0-.09-.02-.09-.05 0-.03 0-.06.03-.06v.06l.03-.07c.02 0 .04-.01.07-.01a.14.14 0 0 1 .19-.15c.05.02.09.08.09.14 0 .09-.14.15-.2.15zM29.87 22.28c-.02 0-.04 0-.05-.01a.137.137 0 0 1-.05-.08c.05-.08.11-.11.16-.12.01-.1.01-.23-.03-.36-.01-.03.01-.06.04-.07.04-.01.07.01.08.04.03.12.05.29.03.42.01 0 .09.03.1.03.04 0 .06-.02.07-.1-.03-.04-.06-.1-.05-.11.01-.03.06-.05.09-.04.03.01.08.06.08.09v.06c-.01.18-.05.23-.19.23-.06.03-.11.01-.15 0l-.01-.01c-.04.01-.08.03-.12.03M30.41 22.42c-.02 0-.03-.01-.04-.02a.06.06 0 0 1 0-.08c.04-.04.08-.1.1-.15-.1-.06-.12-.13-.12-.16s0-.1.06-.13c.06-.02.12.03.17.09.07.13-.03.34-.13.44-.01.01-.02.01-.04.01M30.73 22.34c-.02 0-.05-.02-.06-.04-.01-.03 0-.07.03-.08.04-.02.07-.04.08-.06-.1.01-.13-.04-.14-.08-.02-.06.02-.13.09-.17.02-.01.09-.03.1-.02.05.02.07.07.08.15.16-.02.38-.08.54-.17.03-.02.07-.01.08.02.02.03.01.06-.02.08-.19.11-.43.17-.61.19-.01.07-.05.14-.16.18 0-.01-.01 0-.01 0" fill="#f0c727"/><path d="M31.27 22.17c-.02 0-.05 0-.07-.01a.886.886 0 0 1-.08-.17c-.01.02-.01.05-.01.07 0 .07-.12.07-.12 0 0-.1.04-.17.1-.21 0-.01-.01-.02-.01-.04l-.05-.18c-.01-.03.01-.06.04-.07.04-.01.07.01.07.04l.05.18c0 .01 0 .01.01.02.02-.01.07 0 .11.01.07.03.11.09.11.15.03.03.02.11-.03.16-.04.03-.08.05-.12.05M31.6 22.04c-.08 0-.14-.04-.17-.11-.01-.02 0-.09.01-.1.07-.12.28-.13.36-.05.03.07.03.12-.01.17-.04.05-.12.09-.19.09" fill="#f0c727"/><path d="M31.97 21.89c-.03 0-.05-.01-.07-.02-.1-.05-.16-.19-.16-.4 0-.04-.01-.07-.04-.08-.04-.02-.09 0-.13.03-.02.02-.06.02-.09 0a.06.06 0 0 1 0-.08c.07-.07.18-.1.26-.06.07.03.11.1.11.19 0 .19.05.28.09.3.02.01.04.01.06 0 0 0 0-.01.01-.02.01-.02.08-.09.11-.08.03.01.05.08.05.11-.08.08-.15.11-.2.11" fill="#f0c727"/><path d="M29.24 17.52l3.87 3.59-.27-6.52c-.04-.99-.9-.76-1.52-.41-.63.41-1.35.41-2.11.14-.76.27-1.48.27-2.11-.14-.62-.35-1.48-.58-1.52.41l-.28 6.52 3.94-3.59z" fill="#fff"/><path d="M25.28 21.17c-.01 0-.02 0-.03-.01-.02-.01-.03-.03-.03-.06l.28-6.52c.02-.63.38-.77.66-.77.35 0 .74.19.95.31.58.37 1.27.41 2.06.13.89.28 1.53.24 2.1-.13.21-.12.6-.31.95-.31.29 0 .64.13.67.77l.27 6.52c0 .02-.01.05-.04.06-.02.01-.05.01-.07-.01l-3.83-3.55-3.92 3.55c.01.01 0 .02-.02.02m.88-7.23c-.35 0-.53.22-.54.65l-.27 6.38 3.85-3.49a.06.06 0 0 1 .08 0l3.76 3.49-.27-6.38c-.03-.74-.61-.82-1.43-.35-.6.38-1.33.43-2.17.14-.74.29-1.52.24-2.13-.14-.32-.2-.64-.3-.88-.3" fill="#f0c727"/><path d="M29.83 14.55c.22.13.45.13.58.13-.45-.31-.58-1.17-.54-1.52.09-.72-.09-1.13-.53-1.21-.09 0-.14-.05-.32-.05-.14-.04-.24.09-.29.18-.14-.09-.25-.04-.38-.13-.14-.05-.36 0-.36.32l.09-.04c.04.01.12.05.21.1.12.09.29.15.34.47.09.67 0 1.3-.63 1.89.14 0 .36 0 .58-.13-.09.13-.13.18-.22.27.27-.05.49-.14.62-.36.05.09.18.22.23.31.05-.09.18-.22.23-.31.13.22.36.31.62.36-.1-.11-.14-.15-.23-.28" fill="#fff"/><path d="M28.18 14.9l.13-.13c.04-.03.06-.06.09-.09-.16.05-.31.05-.41.05h-.14l.1-.1c.54-.49.72-1.04.61-1.84a.515.515 0 0 0-.25-.39l-.06-.05c-.09-.05-.15-.09-.18-.09l-.14.07v-.09c0-.36.26-.43.44-.37.07.04.12.05.18.06.05.01.11.02.16.04.05-.07.14-.17.26-.17.16.01.23.03.28.04.03.01.06.01.09.01.49.1.68.53.59 1.28-.04.37.1 1.18.52 1.47l.15.1h-.18c-.1 0-.25 0-.41-.05.02.03.05.06.09.09l.13.13-.18-.03c-.2-.04-.45-.11-.61-.31-.02.03-.05.06-.07.09-.04.05-.09.1-.11.15l-.05.09-.05-.09c-.02-.04-.07-.09-.11-.15-.02-.03-.05-.06-.07-.09-.16.21-.41.28-.61.31l-.19.06zm1.24-.56l.05.09c.08.14.21.23.41.29-.03-.04-.06-.08-.1-.14l.08-.08c.14.08.28.11.4.12-.38-.38-.48-1.13-.44-1.47.09-.7-.07-1.07-.49-1.16-.03.02-.07-.01-.11-.02-.05-.01-.11-.02-.21-.03-.14 0-.21.11-.23.15l-.03.05-.05-.03a.388.388 0 0 0-.17-.06c-.06-.01-.14-.02-.21-.07-.03-.01-.22-.07-.27.18.08 0 .14.04.22.08l.1.07c.11.08.26.18.3.47.07.52.07 1.2-.55 1.83.12-.01.27-.04.41-.12l.08.08c-.04.06-.07.1-.1.14.2-.06.33-.15.41-.29l.05-.09.05.09c.02.04.07.09.11.15.02.03.05.06.07.09.02-.03.05-.06.07-.09.04-.05.09-.1.11-.15l.04-.08z" fill="#f0c727"/><path d="M29.86 14.65c-.02 0-.04-.01-.05-.03-.13-.26-.26-.54-.26-.92 0-.07.12-.07.12 0 0 .35.12.61.25.87.02.03 0 .06-.03.08h-.03M29.42 14.52c-.02 0-.04-.01-.05-.03-.1-.15-.15-.43-.15-.8 0-.07.12-.07.12 0 0 .35.05.61.13.73.02.03.01.07-.02.08-.01.01-.02.02-.03.02M28.54 14.65c-.01 0-.02 0-.03-.01-.03-.02-.04-.05-.03-.08.13-.24.25-.51.25-.87 0-.07.12-.07.12 0 0 .39-.13.67-.26.93-.01.02-.03.03-.05.03M28.97 14.52c-.01 0-.02 0-.03-.01-.03-.02-.04-.05-.02-.08.08-.13.13-.39.13-.73 0-.07.12-.07.12 0 0 .37-.05.65-.15.8-.01.01-.03.02-.05.02M28.01 12.21c.09.01.14.04.26.11.09.05.29.15.34.43-.05-.14.04-.28.14-.23-.14-.32-.56-.4-.74-.31" fill="#f0c727"/><path d="M28.61 12.78c-.01 0-.02-.01-.03-.02 0-.01-.01-.04-.01-.05a.549.549 0 0 0-.31-.35l-.05-.06-.01.02c-.08-.04-.12-.07-.19-.07.04-.08.1-.09.17-.09.21 0 .49.11.6.36 0 .01-.02.01-.02.02s-.03.01-.04.01c-.07.06-.09.1-.08.15 0 .01 0 .01-.01.02.01.01.01.03.02.04-.01 0-.02.01-.04.02.01-.01 0 0 0 0m-.5-.57c.03 0 .07.02.12.05l.07.03c.07.04.21.12.3.29.01-.02.02-.04.03-.05.02-.03.06-.04.09-.04-.1-.21-.42-.31-.61-.28M29.37 18.23l.55 2.47-.18.18-.19-.14-.31-2.2.13 2.2-.18.23-.17-.23.13-2.2-.31 2.2-.19.14-.18-.18.55-2.47z" fill="#f0c727"/><path d="M29.2 21.05l-.22-.28.06-1.06-.15 1.04-.2.17-.24-.19.53-2.52.41-.04.59 2.51-.19.23-.25-.13-.16-1.08.06 1.04-.24.31zm0-2.47l-.13 2.17.13.14.14-.18-.14-2.13zm.12-.34l-.31.04-.49 2.43.16.13.12-.14.29-2.17.1.01.1-.01.31 2.2.17.1.11-.17-.56-2.42zM26 14.36l-.27 6.34-.45.41.28-6.52c.13-.09.35-.23.44-.23M26.55 14.81l-.23 5.31-.45.46.28-6.13c.08.1.35.32.4.36M27.04 15.22l-.18 4.43-.36.35.23-5.05c.08.09.26.22.31.27M27.58 15.45l-.18 3.77-.36.29.18-4.2c.09.04.27.14.36.14M28.07 15.45l-.13 3.15-.36.35.14-3.46c.08 0 .31 0 .35-.04M32.39 14.36l.27 6.34.45.41-.28-6.52c-.13-.09-.35-.23-.44-.23M31.84 14.81l.23 5.31.45.4-.28-6.06c-.08.09-.35.31-.4.35M31.35 15.22l.19 4.43.36.29-.23-4.98c-.09.08-.27.21-.32.26M30.82 15.45l.18 3.71.36.29-.18-4.13c-.1.03-.27.13-.36.13M30.32 15.45l.13 3.15.36.35-.14-3.46c-.08 0-.31 0-.35-.04" fill="#f0c727"/><path fill="#fff" d="M27.98 17.15l-1.08 3.82 1.49.23.63-2.88z"/><path d="M28.39 21.25c-.01 0-.01 0 0 0l-1.49-.23c-.02 0-.03-.01-.04-.03-.01-.01-.01-.03-.01-.05l1.08-3.82c.01-.02.02-.04.04-.04s.04 0 .05.02l1.04 1.18-.62 2.92c-.01.04-.03.05-.05.05m-1.42-.33l1.37.21.62-2.82-.96-1.05-1.03 3.66z" fill="#f0c727"/><path fill="#fff" d="M30.41 17.15l1.08 3.82-1.48.23-.64-2.88z"/><path d="M30.01 21.25c-.03 0-.05-.02-.05-.05l-.63-2.88 1.05-1.22c.01-.01.04-.02.05-.02.02.01.04.02.04.04l1.08 3.82c0 .02 0 .03-.01.04-.01.01-.02.02-.04.03l-1.49.24m.37-3.99l-.97 1.1.63 2.78 1.37-.21-1.03-3.67zM27.75 18.83h-.01c-.02 0-.04-.02-.04-.04l-.13-.31c-.01-.03 0-.06.03-.08.03-.02.07 0 .08.03l.09.23.34-.38c.02-.03.06-.03.08 0 .03.02.03.06 0 .08l-.41.45c.01.01-.01.02-.03.02" fill="#f0c727"/><path d="M28.26 19.1h-.02c-.02-.01-.04-.03-.04-.05l-.14-1.26c0-.03.02-.06.05-.06.03 0 .06.02.07.05l.12 1.1.35-.46c.02-.02.06-.03.09-.01.03.02.03.06.01.08l-.45.58c-.01.02-.03.03-.04.03" fill="#f0c727"/><path d="M28.79 19.41c-.02 0-.05-.01-.06-.04l-.27-.67c-.01-.03 0-.06.03-.08.03-.02.06 0 .08.03l.27.67c.01.03 0 .07-.03.08-.01.01-.01.01-.02.01M28.39 19.95h-.02c-.02 0-.04-.02-.04-.04l-.18-.59-.15.28c-.01.02-.03.04-.05.03-.03 0-.04-.02-.05-.04l-.15-.37-.33.3c-.03.02-.06.02-.08 0a.075.075 0 0 1 0-.09l.4-.36c.02-.01.03-.02.05-.01.02 0 .03.02.04.03l.14.33.16-.3c.01-.02.04-.03.06-.03.03 0 .05.02.05.04l.2.63.29-.29a.06.06 0 0 1 .08 0c.02.02.02.06 0 .09l-.36.36c-.03.03-.05.03-.06.03M28.52 20.76c-.03 0-.05-.02-.06-.05l-.11-.55-.28.35c-.01.02-.03.03-.06.02-.02 0-.04-.02-.05-.04l-.14-.44-.25.32c-.01.02-.04.02-.06.02-.02 0-.04-.02-.05-.04l-.28-.67c-.01-.03 0-.07.03-.08.03-.02.07 0 .08.03l.24.58.25-.32c.01-.02.04-.02.06-.02.02 0 .04.02.05.04l.14.44.29-.37c.02-.02.04-.03.06-.02.02.01.04.02.05.05l.14.68c0 .03-.02.06-.05.07.01 0 .01 0 0 0M28.16 21.26h-.02a.078.078 0 0 1-.04-.04l-.14-.42-.2.34c-.01.02-.03.04-.06.03-.02 0-.04-.02-.05-.04l-.19-.49-.2.28c-.02.03-.06.03-.08.01a.053.053 0 0 1-.01-.08l.27-.36c.01-.02.04-.03.06-.02.02 0 .04.02.05.04l.18.47.21-.35c.01-.02.03-.03.06-.03.02 0 .04.02.05.04l.15.46.21-.17c.03-.02.06-.02.08.01.02.02.02.06-.01.08l-.28.23c-.02 0-.03.01-.04.01M30.64 18.83c-.02 0-.03-.01-.04-.02l-.4-.45a.06.06 0 0 1 0-.08c.02-.02.06-.02.09 0l.34.38.09-.23c.01-.03.05-.05.08-.03.03.01.05.05.03.08l-.13.31c-.01.02-.03.03-.04.04h-.02z" fill="#f0c727"/><path d="M30.14 19.1c-.02 0-.04-.01-.05-.02l-.45-.58c-.02-.03-.02-.07.01-.08.03-.02.06-.02.08.01l.36.47.11-1.11c0-.03.03-.06.07-.05.03 0 .06.03.05.06l-.13 1.26c0 .02-.02.05-.04.05 0-.02 0-.01-.01-.01" fill="#f0c727"/><path d="M29.6 19.41h-.02c-.03-.01-.04-.05-.03-.08l.27-.67c.01-.03.05-.05.08-.03.03.01.05.05.03.08l-.27.67c-.01.02-.04.03-.06.03M30.01 19.95c-.02 0-.03-.01-.04-.02l-.36-.36c-.02-.02-.02-.06 0-.09.02-.02.06-.02.09 0l.28.29.15-.62c.01-.02.02-.04.05-.05s.05.01.06.03l.21.31.14-.34c.01-.02.02-.03.04-.03.02-.01.04 0 .05.01l.41.36c.02.02.03.06.01.08-.02.03-.06.03-.08.01l-.34-.3-.15.37c-.01.02-.03.04-.05.04-.02 0-.04-.01-.05-.03l-.19-.29-.15.59c-.01.02-.02.04-.04.04h-.04" fill="#f0c727"/><path d="M29.87 20.76h-.01a.075.075 0 0 1-.05-.07l.14-.68c.01-.02.02-.04.05-.05.02-.01.05 0 .06.02l.29.36.14-.44c.01-.02.03-.03.05-.04.02 0 .04 0 .06.02l.25.32.24-.58c.01-.03.05-.05.08-.03.03.01.04.05.03.08l-.27.67c-.01.02-.03.04-.05.04-.02 0-.04-.01-.06-.02l-.25-.32-.14.44c-.01.02-.03.04-.05.04-.02.01-.04 0-.06-.02l-.27-.35-.11.55c-.02.04-.04.06-.07.06M30.23 21.26c-.01 0-.03-.01-.04-.01l-.27-.23a.053.053 0 0 1-.01-.08c.02-.03.06-.03.08-.01l.21.17.15-.46c.01-.02.03-.04.05-.04.02 0 .05.01.06.03l.21.35.18-.47c.01-.02.03-.04.05-.04.02 0 .04 0 .06.02l.27.36c.02.03.01.06-.01.08-.03.02-.07.01-.08-.01l-.2-.28-.19.49c-.01.02-.03.04-.05.04-.02.01-.05-.01-.06-.03l-.2-.34-.14.42c-.01.02-.02.03-.04.04h-.03" fill="#f0c727"/><path d="M29.2 14.95c.45.36 1.04.54 1.71.49-.05 1.57-.49 2.65-1.71 3.46-1.22-.81-1.66-1.89-1.71-3.46.67.05 1.26-.13 1.71-.49" fill="#fff"/><path d="M29.2 18.95c-.01 0-.02 0-.02-.01-1.16-.77-1.67-1.82-1.73-3.49.11-.04.17-.04.23-.04.58 0 1.1-.17 1.5-.49.51.35 1.08.53 1.73.49-.01 1.72-.52 2.76-1.68 3.54h-.03m-1.72-3.46c.1 1.59.6 2.61 1.71 3.37 1.12-.76 1.62-1.78 1.67-3.41-.02.05-.08.05-.14.05-.59 0-1.13-.18-1.55-.51-.36.33-.9.51-1.5.51-.06-.01-.12-.01-.19-.01" fill="#f0c727"/><path d="M29.2 18.73c.95-.63 1.48-1.71 1.53-3.15-.58 0-1.17-.13-1.53-.45-.41.32-.94.45-1.57.45.08 1.44.63 2.52 1.57 3.15" fill="#f0c727"/><path d="M29.2 18.78c-.01 0-.02 0-.03-.01-.96-.64-1.51-1.75-1.6-3.2 0-.02.01-.03.02-.04.01-.01.03-.02.04-.02.66 0 1.16-.14 1.54-.43.02-.02.05-.02.07 0 .31.28.85.43 1.49.43.02 0 .03.01.04.02.01.01.02.03.02.04-.05 1.44-.59 2.55-1.56 3.2-.01.01-.02.01-.03.01m-1.52-3.15c.1 1.37.62 2.41 1.51 3.03.91-.62 1.41-1.67 1.47-3.03-.39-.01-1.04-.07-1.47-.43-.38.28-.87.42-1.51.43" fill="#f0c727"/><path d="M27.66 20.97c.36.05.77.09 1.09.05.18 0 .31.31-.05.35-.32.04-.81 0-1.08-.05-.23-.04-.72-.13-1.04-.22-.32-.14-.09-.41.09-.37.28.1.64.19.99.24" fill="#fff"/><path d="M28.39 21.45c-.29 0-.6-.03-.78-.06-.22-.04-.72-.13-1.04-.22-.21-.09-.21-.23-.2-.28.02-.11.14-.21.26-.21.24.07.61.17 1.03.23.28.04.74.09 1.07.05.13 0 .23.1.24.22.01.1-.06.22-.28.25-.07.02-.18.02-.3.02m-1.74-.65c-.08 0-.15.05-.16.11-.02.07.07.12.12.14.31.09.81.18 1.02.22.24.04.74.09 1.06.05.11-.02.18-.06.17-.13 0-.05-.05-.11-.12-.11-.32.04-.8-.01-1.09-.05-.43-.06-.81-.17-1-.23z" fill="#f0c727"/><path d="M30.73 20.97c-.37.05-.77.09-1.08.05-.19 0-.32.31.04.35.32.04.81 0 1.08-.05.23-.04.72-.13 1.04-.22.32-.14.09-.41-.09-.37-.28.1-.64.19-.99.24" fill="#fff"/><path d="M30 21.45c-.11 0-.22 0-.31-.02-.22-.03-.28-.15-.28-.25.01-.12.12-.23.24-.23.35.05.79-.01 1.07-.05.43-.06.79-.16.98-.22.17-.02.3.08.32.2.01.05.02.19-.19.28-.33.09-.84.19-1.05.22-.18.04-.49.07-.78.07m-.36-.37c-.06 0-.11.06-.12.11 0 .06.06.11.17.12.32.04.82 0 1.06-.05.21-.04.71-.13 1.03-.22.04-.02.13-.07.11-.14-.01-.06-.08-.11-.15-.11-.21.06-.58.17-1.02.23-.3.05-.75.1-1.08.06" fill="#f0c727"/><path d="M26.55 20.79c-.28-.05-.41.27-.32.45.04-.09.23-.09.27-.18.05-.14-.04-.14.05-.27" fill="#fff"/><path d="M26.23 21.3c-.02 0-.04-.01-.05-.03a.406.406 0 0 1 .03-.37c.06-.1.17-.16.29-.16.02 0 .07.02.08.04.01.02.04.04.03.06-.04.05-.03.07-.03.1.01.03.01.08-.01.16-.03.07-.1.1-.17.13-.04.02-.09.04-.1.06-.02 0-.04.01-.07.01m.22-.44c-.09.02-.12.07-.14.1-.03.05-.05.11-.04.17.03-.01.05-.02.08-.03.04-.02.09-.04.1-.06.02-.04.01-.07.01-.09a.097.097 0 0 1-.01-.09" fill="#f0c727"/><path d="M27.62 21.62c0-.18.18-.16.18-.33 0-.09-.05-.23-.14-.23-.09 0-.18.09-.18.18-.04.18.14.2.14.38" fill="#fff"/><path d="M27.62 21.68c-.03 0-.06-.03-.06-.06 0-.06-.03-.1-.06-.15-.05-.06-.1-.13-.07-.25 0-.11.11-.22.24-.22s.2.17.2.29c0 .11-.06.17-.11.21-.04.04-.07.06-.07.12-.01.03-.03.06-.07.06m.04-.56c-.06 0-.12.06-.12.12-.02.08.01.11.05.16.01.02.02.03.03.05.01-.02.03-.03.04-.04.04-.04.07-.06.07-.12.01-.08-.03-.17-.07-.17" fill="#f0c727"/><path d="M28.91 21.11c.27 0 .24.36.11.53 0-.13-.23-.18-.23-.27 0-.13.2-.13.12-.26" fill="#fff"/><path d="M29.02 21.7H29c-.03-.01-.04-.03-.04-.06 0-.04-.05-.07-.1-.11-.06-.04-.12-.09-.12-.16 0-.09.06-.14.1-.17-.01-.02 0-.07.01-.09.01-.02.04-.06.07-.06.1 0 .19.05.23.14.08.15.02.37-.07.5-.03 0-.04.01-.06.01m-.03-.51c-.01.05-.05.09-.08.11-.04.03-.06.05-.06.08.01.01.05.04.07.06a.7.7 0 0 1 .1.08c.04-.1.04-.21.01-.28-.01-.03-.02-.04-.04-.05" fill="#f0c727"/><path d="M31.84 20.79c.27-.05.4.27.31.45-.04-.09-.23-.09-.27-.18-.04-.14.05-.14-.04-.27" fill="#fff"/><path d="M32.16 21.3c-.03-.01-.04-.01-.05-.03-.01-.02-.06-.04-.1-.06-.06-.03-.14-.05-.17-.12a.227.227 0 0 1-.01-.16c0-.03.01-.04-.03-.1-.01-.02-.01-.04-.01-.06.01-.02.02-.03.04-.04.19-.01.29.06.35.16.07.11.08.26.03.37-.01.03-.03.04-.05.04m-.22-.45c.01.04.01.06 0 .09s-.01.05.01.09c.01.02.05.04.1.06.03.01.05.02.08.03 0-.06-.01-.12-.04-.17-.03-.03-.07-.08-.15-.1" fill="#f0c727"/><path d="M30.77 21.62c0-.18-.18-.16-.18-.33 0-.09.05-.23.14-.23.09 0 .18.09.18.18.04.18-.14.2-.14.38" fill="#fff"/><path d="M30.77 21.68c-.03 0-.06-.03-.06-.06 0-.06-.03-.09-.07-.12a.255.255 0 0 1-.11-.21c0-.12.06-.29.2-.29.12 0 .24.11.24.24.03.11-.03.18-.08.24-.04.05-.06.08-.06.15 0 .02-.03.05-.06.05m-.04-.56c-.04 0-.08.09-.08.17 0 .06.03.09.07.12l.04.04c.01-.02.02-.03.03-.05.04-.05.07-.08.05-.15 0-.07-.06-.13-.11-.13" fill="#f0c727"/><path d="M29.48 21.11c-.27 0-.24.36-.11.53 0-.13.23-.18.23-.27 0-.13-.2-.13-.12-.26" fill="#fff"/><path d="M29.37 21.7c-.02 0-.04-.01-.05-.03-.09-.13-.15-.35-.07-.5.04-.09.13-.14.23-.14.02 0 .04.01.05.03.01.02.01.04 0 .06.07.09.13.14.13.23 0 .07-.06.12-.12.16-.05.04-.1.07-.1.11 0 .03-.02.05-.04.06-.01.02-.02.02-.03.02m.03-.51c-.02.01-.03.03-.04.05a.39.39 0 0 0 .01.28.7.7 0 0 1 .1-.08c.03-.02.07-.05.07-.06 0-.03-.02-.05-.06-.08-.02-.03-.07-.06-.08-.11" fill="#f0c727"/><path d="M26.64 20.88c.09 0 .23.04.27.09l-.27-.09z" fill="#fff"/><path d="M26.9 21.01h-.01l-.27-.09a.055.055 0 0 1-.03-.05c0-.02.02-.04.04-.04.09 0 .25.04.3.1.01.01.01.04 0 .05 0 .03-.01.03-.03.03" fill="#f0c727"/><path d="M27.08 21.02c.05 0 .23.04.31.09l-.31-.09z" fill="#fff"/><path d="M27.4 21.15h-.01l-.32-.09a.055.055 0 0 1-.03-.05c.01-.08.25-.01.38.06.02.01.03.03.02.05-.01.02-.03.03-.04.03" fill="#f0c727"/><path d="M28.7 21.2c-.09 0-.27 0-.32.04l.32-.04z" fill="#fff"/><path d="M28.39 21.28c-.02 0-.03-.01-.04-.02-.01-.02 0-.04.01-.05.05-.04.17-.05.34-.05.02 0 .04.02.04.04s-.01.04-.04.05l-.31.03z" fill="#f0c727"/><path d="M28.21 21.2c-.05-.05-.23-.05-.32 0h.32z" fill="#fff"/><path d="M28.21 21.24h-.32c-.02 0-.04-.01-.04-.03-.01-.02 0-.04.02-.05.08-.04.26-.1.37.01.01.01.02.03.01.04-.01.02-.03.03-.04.03" fill="#f0c727"/><path d="M31.76 20.88a.46.46 0 0 0-.27.09l.27-.09z" fill="#fff"/><path d="M31.49 21.01c-.02 0-.03-.01-.04-.02-.01-.02-.01-.04.01-.05.06-.06.2-.1.3-.1.02 0 .04.02.04.04s-.01.04-.03.05l-.27.09c0-.01-.01-.01-.01-.01" fill="#f0c727"/><path d="M31.31 21.02c-.05 0-.23.04-.32.09l.32-.09z" fill="#fff"/><path d="M30.99 21.15c-.02 0-.03-.01-.04-.03-.01-.02 0-.04.02-.05.14-.07.37-.13.38-.06 0 .02-.01.04-.03.05l-.32.09h-.01" fill="#f0c727"/><path d="M29.69 21.2c.09 0 .27 0 .32.04l-.32-.04z" fill="#fff"/><path d="M30.01 21.28l-.32-.04c-.02 0-.04-.02-.04-.05 0-.02.02-.04.04-.04.17 0 .29.01.34.05.02.01.02.03.01.05 0 .02-.02.03-.03.03" fill="#f0c727"/><path d="M30.18 21.2c.05-.05.23-.05.32 0h-.32z" fill="#fff"/><path d="M30.5 21.24h-.32c-.02 0-.03-.01-.04-.03-.01-.02 0-.03.01-.05.11-.11.29-.05.37-.01.02.01.03.03.02.05 0 .03-.02.04-.04.04M29.83 12.34c-.09-.23-.25-.41-.47-.45-.11-.03-.23-.03-.36-.03-.14-.04-.25.11-.3.2.14.1.17.19.24.23.14.05.21 0 .34-.13.14-.13.46-.09.55.18" fill="#f0c727"/><path d="M29.04 12.34c-.03 0-.07-.01-.1-.02a.284.284 0 0 1-.1-.09.694.694 0 0 0-.15-.14c.02-.09.12-.25.27-.25l.12.01c.14-.01.22 0 .3.03.18.03.35.17.45.38-.18-.12-.4-.18-.51-.07-.12.09-.19.15-.28.15m-.05-.44c-.13 0-.21.09-.26.18.07.02.11.07.15.11.03.03.05.06.08.07.12.04.17.01.31-.13.1-.1.3-.11.43-.02-.11-.1-.22-.18-.34-.2-.07-.02-.15-.02-.22-.02H28.99z" fill="#f0c727"/><path d="M28.97 12c-.09 0-.09.14 0 .14.09-.01.09-.14 0-.14" fill="#fff"/><path d="M28.97 12.19c-.07 0-.13-.06-.13-.13 0-.15.25-.15.25 0 0 .08-.05.13-.12.13M29.75 15.43v2.83c-.16.18-.35.33-.55.47-.2-.14-.39-.29-.55-.47v-2.84c.2-.07.39-.17.55-.29.15.13.33.23.55.3" fill="#fff"/></svg>