<svg xmlns="http://www.w3.org/2000/svg" viewBox="0 0 58.93 34.37"><path d="M0 0h58.93v11.46H0z"/><path fill="#348110" d="M0 22.92h58.93v11.46H0z"/><path fill="#fff" d="M0 11.46h58.93v11.46H0z"/><path fill="#ba0019" d="M0 0v34.37l22.92-17.14zM34.37 12.62c2.52 0 4.57 2.05 4.57 4.57 0 2.53-2.05 4.57-4.57 4.57-2.52 0-4.57-2.04-4.57-4.57 0-2.53 2.05-4.57 4.57-4.57"/><path d="M36.12 12.62c2.52 0 4.57 2.05 4.57 4.57 0 2.53-2.05 4.57-4.57 4.57-2.52 0-4.57-2.04-4.57-4.57 0-2.53 2.04-4.57 4.57-4.57" fill="#fff"/><path fill="#ba0019" d="M33.14 19.96l1.96-1.39 1.94 1.41-.73-2.29 1.95-1.4-2.4-.02-.74-2.29-.76 2.28-2.4-.01 1.93 1.43z"/></svg>