<svg xmlns="http://www.w3.org/2000/svg" viewBox="0 0 58.93 34.37"><path fill="#d6003f" d="M0 0h58.93v34.37H0z"/><path d="M13.4 25.38c-.74.21-1.17.78-1.16 1.33l3.66-.01c.03-.58-.45-1.13-1.18-1.34 3.58-.08 6.69-1.42 7.26-2.28-.56-.24-1.21.15-1.67.06 1.09-.5 4.38-2.63 3.84-4.9-.41 1.27-1.67 2.31-2.21 2.59 1.23-1.86 2.9-3.8 1.45-5.3.07.87-.55 1.83-.83 1.9.71-1.97 1.39-4.43-.15-6.06.2.59.12 2.25-.16 2.32-.09-1.34-.31-4.15-1.72-4.11.45.4.64 1.48.65 2.58-.32-.75-.68-1.32-1.47-1.87-.63-1.21-1.75-2.21-2.88-2.93.13.88.23 1.57 1.46 2.49-.64-.04-1.28-1.26-1.97-1.29-.54-.03-.97.49-1.86.2.1.29.51.42.6.64-.19.13-.64-.02-1.02-.22.52.7 1.32 1.12 2 .98a3.59 3.59 0 0 1 2.51.4c-.21.11-1.04.11-1.56.04.48.49.8.81 1.64.8.75-.01 1.14-.4 1.33-.16.47.56.78 1.11 1.18 1.76-.86.1-.6-.98-1.57-1.53-.54 1.12.62 2.45 1.41 3 .01.84.13 1.55.49 2.19.24.45.55.91.43 1.93-.47-.34-.94-1.51-.77-2.43-.59.16-.83 1.21-.55 1.73.21.4.35 1.17.11 1.51-.24.32-.26.28-.26.97.01.41-.22.9-.59 1.23.08-.29.17-.78.08-1.1-.29.5-1.03 1.02-1.27 1.55-.23.54-.29 1.47-1.39 1.69-1.42.28-1.91.53-2.83.9-.1-.69.2-2.15.78-2.06.57.1 2.29-.59 1.67-2.04-.12.46-.53.9-.97.92.47-.62 1.32-1.25.91-2.28-.23.44-.59.96-1.13 1.26.59-1.12.07-1.46-.63-.53-.26.36-.42 1.07-.59 1.97-.27-.74-.25-1.71-.58-2.5-.34-.85.45-1.08.82-1.01.91.24 2.42.24 2.31-1.26-.39.51-1.08.66-1.82.48.83-.61 1.49-1.75.56-2.35-.03.63-.52 1.34-1.17 1.67-.15-.53-.15-1.1-.02-1.72-.36.39-.63 1.18-.84 2.09-.01-.9.15-1.55.28-2.03.19-.71.67-.25 1.39-.2.7.04 1.66-.35 1.48-1.3-.24.38-.73.52-1.23.48.6-.36 1.66-1.02 1.08-2.01-.24.38-.32.7-1.02.82.18-.42.21-1.02.76-1.26-.97-.19-1.53.45-1.81 1.44-.12-.69-.25-.94-.28-1.45.52-.58.58-1.72-.56-1.98-.07.59-.05.73.08 1.21-.53-.32-1.28-.49-1.79-.04.34.36.86.69 1.67.29-.19.63-.69.52-1.37.28.42.78.94.92 1.53.83.3.8.32 1.41-.57 2.58.04-.73-.01-1.27-.59-1.85-.49-.48-.9.02-.12 1.1-.47-.35-1-1.05-1.16-1.75-.15.86-.01 1.89.46 2.46-.23.24-.48-.03-.87-.62.15 1.89.95 2.26 2.04 1.84.03 1.04.03 2.01.09 3.26-.63-.91-1.44-1.59-1.88-1.76-.14.51.39 1.17.68 1.55-.45-.09-1.42-.84-1.42-.84-.1.85.99 1.63 1.7 1.98-.83-.04-1.2-.35-1.73-.86.01 2.34 2.54 1.94 3.01 1.58.06 1.15.15 2.49.21 3.64-.72-.13-.66-.34-1.27-.4-1.7-.07-3.04-2.04-3.49-3.49-.13.24-.03.49-.14.78-.28-.71-.63-1.63-1.1-2.06.12.42.13.84.09 1.61-.16-.5-.31-.66-.32-1.25.01-.45.44-.79.41-1.43-.02-.46-.44-1.47-.5-2.25-.17.82-.3 1.67-.62 2.17.16-.86.11-1.45.37-2.03.31-.61.57-1.15.36-1.76-.2.24-.13.45-.62 1.03-.11-.63.63-1.63 1.35-2.03.51-.27 1.15-1.22.73-1.88-.48.34-.69.8-1.36 1.6.48-1.88 1.73-2.37 3.22-2.38.33 0 1-.12 1.18-.56-.42.16-.92.18-1.36.09.32-.47 1-.41 1.63-.41.5 0 1.27-.07 1.58-.78-.61.26-1.55.32-2.15.13.95-.49 2.43-.54 3.19-1.19-.87-.65-3.03.15-4.4 1.09.38-.35.99-.97 1.32-1.47-.75-.36-2.64 1.74-3.29 2.98-.62.35-.87.9-1.11 1.28.33-1.11.36-1.92.64-2.84-2.12.73-1.24 4.65-1.7 5.59.05-1.04.01-2.37-.42-3.05-.65.5-.71 3.43-.09 5.88-.22-.65-.64-1.26-.77-2.06-.97 1.76.57 3.85 1.85 5.49-.97-.5-1.92-1.59-2.55-2.49.17 3.16 3.47 3.81 3.98 4.59-.69-.32-2.02-.97-2.59-.3.92.21 1.65.46 2.24.85.88 1.07 2.5 1.54 5.32 1.66" fill="#f4c638"/><path fill="#5784d9" d="M0 34.37l58.92-.02V17.19z"/><path fill="#49ae32" d="M0 0l58.92.02v17.17z"/></svg>