<svg xmlns="http://www.w3.org/2000/svg" viewBox="0 0 58.92 34.37"><path fill="#d03633" d="M0 0h58.92v34.37H0z"/><path fill="#f2dd30" d="M0 0h58.92v22.92H0z"/><path fill="#2d6c41" d="M0 0h58.92v11.46H0z"/><path d="M38.06 17.19c0 4.75-3.85 8.59-8.59 8.59-4.75 0-8.59-3.85-8.59-8.59 0-4.75 3.85-8.59 8.59-8.59 4.74-.01 8.59 3.84 8.59 8.59" fill="#4ba2d7"/><path d="M22.92 15.04h4.99l1.13-3.48.3.93-1.64 5.05-.49-.36.51-1.57H23.7l-.78-.57zm2.5 7.68l1.54-4.75L24 15.82h.98l4.29 3.12-.49.36-1.34-.98-1.24 3.82-.78.58zm8.08 0l-4.04-2.94-2.96 2.15.3-.93 4.3-3.12.18.57-1.34.97 3.25 2.36.31.94zm2.5-7.68l-4.04 2.93 1.13 3.48-.79-.57-1.64-5.05h.6l.51 1.58 3.25-2.36H36zm-6.54-4.75L31 15.04h3.65l-.79.57h-5.31l.19-.57h1.66l-1.24-3.82.3-.93z" fill="#f2dd30"/><path d="M29.46 20.34v3.72-3.72zm-2.99-2.18l-3.54 1.15 3.54-1.15zm1.14-3.52l-2.19-3.01 2.19 3.01zm3.7 0l2.19-3.01-2.19 3.01zm1.15 3.52L36 19.31l-3.54-1.15z"/><path d="M29.6 24.06h-.29v-3.72h.29v3.72zm6.35-4.61l-3.54-1.15.09-.27 3.54 1.15-.09.27zm-12.98 0l-.09-.27 3.54-1.15.09.27-3.54 1.15zm8.46-4.73l-.23-.17 2.19-3.01.23.17-2.19 3.01zm-3.94 0l-2.19-3.01.23-.17 2.19 3.01-.23.17z" fill="#f2dd30"/></svg>