<svg xmlns="http://www.w3.org/2000/svg" viewBox="0 0 58.92 34.37"><path fill="#213095" d="M0 0h58.92v34.37H0z"/><path fill="#f5cb27" d="M29.46 3.82l-.43 1.32h-1.38l1.12.82-.43 1.32 1.12-.82 1.12.82-.43-1.32 1.13-.82h-1.39zM29.89 28.05l-.43-1.32-.43 1.32h-1.38l1.12.82-.43 1.32 1.12-.82 1.12.82-.42-1.32 1.12-.82zM18 17.92l1.13.81-.43-1.32 1.12-.81h-1.39L18 15.28l-.42 1.32h-1.39l1.12.81-.43 1.32zM23.73 5.36l-.43 1.32h-1.38l1.12.81-.43 1.32 1.12-.82 1.13.82-.43-1.32 1.12-.81h-1.39zM19.54 9.55l-.43 1.32h-1.39l1.13.82-.43 1.31 1.12-.81 1.12.81-.43-1.31 1.12-.82h-1.38zM19.97 22.33l-.43-1.32-.43 1.32h-1.39l1.12.81-.42 1.32 1.12-.81 1.12.81-.43-1.32 1.12-.81zM24.16 26.52l-.43-1.32-.42 1.32h-1.39l1.12.82-.43 1.32 1.12-.82 1.13.82-.43-1.32 1.12-.82zM42.74 16.6h-1.39l-.43-1.32-.43 1.32H39.1l1.12.81-.42 1.32 1.12-.81 1.12.81-.43-1.32zM35.19 5.36l-.43 1.32h-1.38l1.12.81-.43 1.32 1.12-.82 1.12.82-.43-1.32 1.13-.81h-1.39zM38.69 11.69L38.26 13l1.12-.81 1.13.81-.43-1.31 1.12-.82h-1.39l-.43-1.32-.42 1.32h-1.39zM39.81 22.33l-.43-1.32-.42 1.32h-1.39l1.12.81-.43 1.32 1.12-.81 1.13.81-.43-1.32 1.12-.81zM35.62 26.52l-.43-1.32-.43 1.32h-1.38l1.12.82-.43 1.32 1.12-.82 1.12.82-.42-1.32 1.12-.82z"/></svg>