<svg xmlns="http://www.w3.org/2000/svg" viewBox="0 0 58.92 34.37"><path fill="#6cb2dd" d="M0 0h58.92v34.37H0z"/><path d="M38.77 10.93v7.32c.15 4.51 2.41 6.13 5.58 7.45 3.62-1.6 5.46-3.57 5.46-7.45v-7.32H38.77z" fill="#fff"/><path d="M44.34 25.76l-.02-.01c-3.36-1.41-5.47-3.16-5.61-7.51v-7.38h11.16v7.38c0 3.65-1.54 5.76-5.5 7.51l-.03.01zm-5.51-14.77v7.26c.14 4.3 2.13 5.96 5.52 7.39 3.89-1.72 5.41-3.8 5.41-7.39v-7.26H38.83z"/><path d="M38.77 18.12s.01.94.26 2.13l10.55-.01c.24-1.05.26-2.12.26-2.12H38.77z" fill="#c0003b"/><path d="M43.22 14.45v10.7c.52.26 1.19.56 1.19.56s.44-.29.93-.53V14.46h-2.12z" fill="#c0003b"/><path fill="#192967" d="M0 0h29.53v14.76H0z"/><path fill="#fff" d="M0 0v1.65l26.22 13.11h3.3v-1.65L3.3 0z"/><path fill="#fff" d="M29.52 0v1.65L3.3 14.76H0v-1.65L26.22 0z"/><path fill="#fff" d="M12.3 0h4.92v14.76H12.3z"/><path fill="#fff" d="M0 4.92h29.53v4.92H0z"/><path fill="#bc0030" d="M0 5.9h29.53v2.95H0z"/><path fill="#bc0030" d="M13.29 0h2.95v14.76h-2.95z"/><path fill="#c0003b" d="M0 14.76l9.84-4.92h2.2L2.2 14.76zM0 0l9.84 4.92h-2.2L0 1.1zM17.48 4.92L27.32 0h2.2l-9.84 4.92zM29.52 14.76l-9.84-4.92h2.2l7.64 3.82zM38.75 10.9h11.07v3.94H38.75z"/><path d="M39.35 12.75c.2 0 .36.21.36.46v.01c0 .25-.16.46-.35.46h-.01c-.19 0-.35-.21-.35-.46v-.02c0-.25.16-.45.35-.45" fill="#f3edeb"/><path d="M39.36 13.67c-.2 0-.36-.21-.36-.46 0-.26.16-.47.36-.47.2 0 .36.21.36.46 0 .27-.16.47-.36.47m0-.92c-.2 0-.35.2-.35.45 0 .26.15.46.34.46h.01c.19 0 .34-.2.34-.45s-.15-.46-.34-.46"/><path d="M47.46 12.5s.64-.04.86-.26c.22-.22-.15-.62.09-.66.1-.01.23.02.33.13-.02-.08-.08-.13-.1-.18-.09-.07-.18-.06-.3-.06-.09.01-.1-.01-.25-.16-.07-.07-.07-.24-.01-.35-.17.11-.14.26-.12.29.04.15.08.19.08.26-.05-.02-.14-.2-.59-.23-.45-.03-1.6.27-2.12.27s-1.27-.18-1.27-.18.19-.13-.04-.19c-.23-.05-.74.19-.88.05-.1-.13-.06-.1-.08-.16-.04.02-.06.1-.01.21.06.11.09.07.08.07-.01 0-.18 0-.2.05-.02.04-.04.09.05.24.03-.15-.09-.17.18-.19.26-.01.45.09.67.12.22.03.22-.08.23-.08.01.01.68.17 1.31.13.62-.03 1.63-.33 2.09-.27.46.06.76.35.77.61-.01.16-.21.25-.37.27-.19.03-.64.07-.64.07l.24.2z" fill="#f5d028"/><path d="M47.46 12.51l-.25-.15c0-.01.45-.05.64-.08.08-.02.35-.08.36-.27-.01-.25-.3-.55-.77-.61-.26-.04-.72.05-1.15.13-.33.06-.67.12-.93.14-.62.03-1.28-.12-1.31-.13.08.01.72.15 1.31.12.26-.01.6-.08.93-.14.44-.08.89-.17 1.16-.13.5.07.77.37.78.62-.01.2-.29.26-.37.28l-.64.07.25.14c.04 0 .64-.05.86-.26.11-.11.07-.26.03-.4-.02-.09-.05-.17-.02-.22.01-.02.04-.03.07-.04.08 0 .23.01.34.13a.36.36 0 0 0-.08-.12c-.11-.11-.18-.11-.27-.11h-.1v.01c-.05 0-.09-.03-.18-.12-.12-.11-.11-.29-.06-.4-.15.11-.13.25-.11.29.02.07.04.12.05.15.02.04.03.07.03.11-.11-.08-.23-.2-.6-.22-.29.03-.7.07-1.09.13-.39.07-.79.14-1.03.14-.51 0-1.26-.18-1.27-.18 0-.01.08-.07.07-.12-.01-.03-.04-.05-.11-.07-.09-.02-.26.01-.41.04-.2.05-.4.08-.48.01-.08-.1-.08-.11-.08-.13-.03-.01-.06.06 0 .17.02.05.04.07.05.07-.1.01-.17.03-.17.06-.02.04-.04.09.05.23 0-.04-.01-.08-.01-.1.01-.01.01-.02.01-.03 0 .06 0 .1-.01.14-.1-.15-.08-.2-.06-.24.01-.05.12-.06.18-.06-.02 0-.04-.03-.06-.07-.06-.12-.03-.2.01-.22.01.06.01.07.09.16.07.07.27.03.47-.01.15-.03.32-.07.42-.05.07.02.11.05.12.08.01.06-.07.11-.08.12.04 0 .76.17 1.26.17.25 0 .65-.07 1.03-.14s.78-.14 1.02-.14c.43.02.56.15.62.2.03 0 .01-.03 0-.07-.01-.04-.03-.08-.05-.15-.02-.04-.04-.19.12-.3-.05.13-.04.29.02.35.13.13.16.16.21.16h.1c.1 0 .17 0 .25.06.06.09.09.13.1.18a.493.493 0 0 0-.31-.13c-.06.01-.08.02-.09.04-.03.05-.01.12.02.21.04.13.08.3-.04.41-.2.25-.84.29-.84.29zm-3.57-.89c-.02 0-.05 0-.08-.01-.08-.01-.16-.03-.24-.06-.12-.03-.24-.07-.38-.07-.11 0-.16.01-.19.02.03-.02.07-.03.14-.03.19-.01.32.03.44.07l.23.06c.18.02.21-.04.22-.07h.01c0 .03-.03.09-.15.09"/><path d="M46.74 12.66c-.01 0-.43.01-.55.23-.12.23-.18.44-.17.44.01 0 .28-.19.28-.19s-.2.37-.09.7c.11.33-.29.31-.51.32-.1-.1-.42-.27-.54-.3-.07-.04-.21-.04-.36.17-.09.13.13-.12.34-.1a.2.2 0 0 1 .04.13c-.11-.01-.23-.18-.37.17.14-.12.16-.11.23-.12.09-.01.08.06.08.06-.02 0-.05.01-.11.08-.03.05-.11.16-.09.16.02 0 .06-.06.13-.11.05-.04.09-.04.23.01.75.22 1.15.06 1.2-.03.02-.04-.43-1.14.78-1.44-.02 0-.52-.17-.52-.18" fill="#f5d028"/><path d="M45.96 14.43c-.21 0-.44-.04-.69-.12-.14-.05-.17-.05-.22-.01-.04.02-.07.05-.09.08-.01 0-.01.01-.02.01.05-.04.07-.07.11-.09.05-.04.09-.04.23.01.61.18 1.14.07 1.19-.03-.18-.81.09-1.27.78-1.44-.01 0-.1-.03-.19-.06-.31-.11-.33-.12-.33-.12s-.42.01-.54.24c-.12.21-.17.42-.17.44.01-.01.17-.11.27-.19 0 .01-.19.38-.09.71.03.09.02.16-.01.21-.08.11-.28.11-.44.12l-.01-.01c.2-.01.38-.02.45-.12.03-.05.04-.12.01-.2-.11-.33.09-.71.09-.71-.1.07-.27.19-.28.19-.01-.01.05-.23.17-.45.13-.23.55-.24.55-.24.01.01.19.07.32.12.11.04.18.06.19.07-.7.18-.96.64-.79 1.37.01.05.01.07.01.07-.01.06-.18.15-.5.15m-1.14-.18c.08-.22.19-.24.29-.2.03.01.05.02.08.02-.01-.05-.01-.07-.03-.09.02.02.03.05.03.1-.03 0-.06-.01-.08-.02-.08-.03-.16-.14-.29.19.13-.12.15-.12.22-.13.05-.01.09.02.09.04 0 0-.01 0-.01.01l-.06-.05c-.09.01-.11.02-.24.13m0-.18c0-.01.01-.02.02-.03a.58.58 0 0 1 .28-.09s.01 0 .01.01c-.14 0-.25.07-.31.11m.69-.03c-.14-.07-.29-.14-.35-.15-.04-.02-.12-.05-.23.04.11-.1.2-.06.24-.04.06.01.21.08.34.15"/><path d="M41.54 13.88c.5.45 3.86-.48 4.28-.8.24-.18.67-.32.67.31.11-.43.11-.54.11-.53.01.01.17.17.32.7.04-.47-.06-.74-.01-.71.04-.04.04.23.33.62-.06-.31-.08-.44-.08-.44s.54.57.85.65.75-.16.89-.02.37.38.36.58c-.01.2-.51.03-.56.19-.05.16.04.16.04.16s.05.12.08.21c.03-.07-.03-.21.07-.22.07.01.07.14.09.21.02-.08 0-.24.06-.24.07-.01.08.13.14.22v-.22c.21-.07.39-.08.42-.22.03-.15-.32-.48-.4-.7-.08-.21.06-.3-.09-.42s-.74.19-1.01.07c-.27-.11-.16-.96-1.19-1.15-1.02-.18-3.79.98-4.28 1.03-.49.05-1.09-.17-1.09-.17v.89z" fill="#f5d028"/><path d="M48.81 14.81l-.04-.1.04.07c.01-.02.01-.05 0-.08 0-.06 0-.13.07-.14.06.01.07.08.09.15.01-.11.02-.18.07-.18s.07.05.09.11c.01.03.02.07.04.1l-.01-.21.14-.04c.15-.04.26-.07.28-.18.02-.08-.09-.23-.2-.37-.08-.11-.16-.23-.2-.32a.384.384 0 0 1-.02-.23c.01-.07.01-.13-.07-.19-.06-.05-.24-.02-.43.03-.22.05-.45.1-.58.04-.09-.04-.14-.15-.2-.3-.13-.3-.3-.72-.99-.84-.7-.12-2.2.37-3.26.72-.49.16-.87.29-1.03.31-.49.05-1.08-.17-1.09-.17l.02.89c.09.08.27.12.54.12 1.12 0 3.4-.67 3.73-.92.06-.05.22-.16.38-.16.13 0 .3.08.3.47.08-.38.1-.51.1-.53.05.04.2.22.33.69.01-.27-.01-.47-.03-.59-.01-.07-.01-.1 0-.11.03 0 .04.02.06.07.03.1.1.3.29.55-.07-.3-.09-.44-.09-.44.01 0 .56.56.86.64.13.03.32 0 .48-.03.18-.04.34-.05.4.01.12.12.37.38.37.58-.01.11-.15.11-.29.11-.12 0-.25 0-.27.07-.02.06-.02.09-.01.11-.02-.03-.01-.07.01-.11.03-.08.15-.08.28-.08.14 0 .28 0 .28-.1.01-.2-.24-.45-.36-.57-.06-.06-.22-.04-.4-.01-.17.03-.36.06-.49.03-.29-.07-.81-.6-.85-.64.01.02.03.16.09.43-.2-.24-.26-.45-.3-.55-.01-.03-.02-.07-.03-.07-.02.01-.01.06-.01.11.01.12.04.32.02.6-.14-.47-.28-.65-.32-.69.01.02-.01.15-.1.53-.02-.48-.33-.57-.67-.31-.34.26-2.62.92-3.74.92-.28 0-.46-.04-.55-.12l-.01-.9c.02 0 .61.21 1.09.16.15-.02.54-.14 1.02-.31 1.06-.35 2.56-.85 3.26-.72.69.13.87.55.99.85.06.15.11.26.2.3.12.06.36.01.57-.04.2-.05.37-.08.44-.03.09.07.08.13.07.2a.44.44 0 0 0 .02.22c.04.09.12.2.2.32.11.15.22.3.2.38-.02.12-.14.15-.29.19l-.13.04v.21c-.03-.03-.04-.07-.06-.1-.05-.14-.13-.09-.13.03 0 .03 0 .07-.01.1-.03-.12-.04-.2-.1-.2-.06.01-.06.07-.06.13 0 .04 0 .07-.01.09h.01z"/><path d="M40.9 13.56s-.53.66-.89.65c-.36-.03-.65-.46-.73-.43-.08.03-.1-.04-.13-.16s.03-.18.03-.17c.02 0 .04.2.05.21.02.02-.06-.24.05-.24.04-.01.03.18.07.27.01-.01-.04-.27.01-.28.05 0 .07.27.14.35.1.14.27.22.48.27.22-.03.76-.63.8-.61l.12.14z" fill="#f5d028"/><path d="M40.02 14.21h-.01c-.23-.02-.43-.2-.56-.32a.948.948 0 0 0-.13-.11c.05.02.09.05.14.1.13.12.33.3.56.32v.01c.35-.01.87-.65.87-.66l-.11-.12c-.02 0-.1.08-.2.17-.19.17-.45.42-.59.44-.24-.06-.39-.14-.48-.27-.04-.04-.06-.13-.08-.21-.02-.07-.03-.14-.05-.14-.02.02-.01.13-.01.19.01.06.01.08 0 .08-.02-.04-.03-.1-.04-.15-.01-.03-.01-.07-.02-.1.02.02.02.05.03.09.01.05.01.1.02.14 0-.02-.01-.04-.01-.06-.01-.09-.01-.18.01-.2.03-.01.05.04.07.14.02.08.04.17.08.21.09.13.24.21.48.27.14-.02.4-.26.58-.43.12-.12.19-.18.21-.18l.12.13c0 .02-.52.66-.88.66"/><path d="M40.91 13.19s-.44-.7-.79-.76c-.35-.05-.7.27-.77.22-.07-.05-.1.01-.14.11-.05.1.01.17.01.16.02 0 .06-.17.08-.18.02-.01-.09.2.02.22.04.01.05-.16.1-.22.01.01-.07.23-.03.24.04.01.1-.22.18-.28.12-.1.29-.13.51-.13.22.08.66.72.71.71l.12-.09z" fill="#f5d028"/><path d="M40.79 13.28c-.02 0-.08-.07-.19-.2-.16-.19-.38-.46-.52-.51-.24 0-.4.04-.5.13-.04.03-.08.1-.11.17-.03.06-.05.11-.08.11-.03-.04-.01-.12.01-.18-.04.12-.06.16-.08.16-.01-.01-.02-.02-.02-.03.04.01.05-.03.07-.08.01-.04.03-.09.05-.12-.02.13-.04.21-.03.24.02 0 .05-.05.07-.1.03-.06.07-.14.11-.17.11-.09.27-.14.51-.14.14.05.36.32.52.51.09.1.16.2.19.21l.13-.1c-.01 0-.44-.69-.79-.75-.22-.04-.44.08-.59.16-.07.04-.13.07-.16.07-.1-.02-.12.03-.16.11-.04.08 0 .14.01.15.01 0 .03-.06.04-.09.02-.05.03-.08.04-.09-.01.05-.02.09-.02.13 0-.04.01-.08.02-.1-.05.13-.06.15-.07.15-.02-.02-.05-.08-.01-.16s.06-.13.1-.13c.1.02.15-.01.22-.05.15-.08.37-.2.59-.16.35.07.79.76.79.77l-.14.09z"/><path d="M40.7 12.97l-.48.25.35.1-.25.31.36-.13-.03.42.21-.28.14.4.14-.28.17.31.07-.3.21.3.07-.41.25.25-.04-.43.31.11-.18-.33s.34-.02.32-.02-.25-.21-.46-.27H40.7z" fill="#f5d028"/><path d="M41.6 14.08l-.21-.31-.07.3-.18-.31-.14.28-.14-.38-.2.28.02-.43-.36.13.25-.32-.35-.09.48-.26 1.16-.01c.15.04.32.17.41.23l.05.04c-.15-.1-.31-.22-.46-.26l-1.16.01-.48.25.35.09-.25.32.36-.14-.02.43.2-.28.14.39.14-.28.18.31.07-.3.21.29.07-.4.26.25-.04-.43.31.1-.2-.32c0-.01.31-.02.32-.03h.01c0 .01 0 .01-.32.02l.19.33-.31-.1.04.43-.26-.25-.07.42z"/><path d="M40.95 12.86l-.26.14.19.06-.14.18.2-.07-.01.24.11-.15.07.21.08-.16.09.18.04-.17.11.17.04-.23.14.14-.02-.24.17.06-.1-.19.17-.01c-.01 0-.14-.12-.25-.16h-.63z" fill="#f5d028"/><path d="M41.44 13.49l-.12-.18-.03.17-.1-.18-.07.16-.08-.22-.11.16.01-.24-.19.07.14-.18-.19-.05.26-.15.64-.01c.08.02.17.09.22.13l.01.01c-.08-.05-.16-.11-.23-.14l-.63.01-.26.14.19.05-.14.18.19-.08-.01.24.11-.16.08.22.07-.16.1.18.03-.17.12.16.04-.22.14.14-.03-.24.17.06-.11-.18s.12-.01.16-.01c-.01.01-.05.01-.16.02l.11.18-.17-.06.02.24-.15-.14-.03.25z"/><path d="M41.09 12.17s-.14-.12-.19 0c-.05.12.12.07.12.09 0 .02-.12.16-.12.31 0 .16.09.42.09.46 0 .04.04.15.16.19.13.04.17-.13.2-.15.03-.02.2.03.26-.14s.06-.47.06-.47.11.09.11-.09-.12 0-.12 0 .02-.19-.26-.28c-.28-.08-.3.1-.31.08" fill="#f5d028"/><path d="M41.19 13.23l-.04-.01c-.13-.04-.17-.14-.17-.19 0-.01-.01-.05-.02-.1-.03-.1-.07-.25-.07-.36 0-.07.02-.14.05-.19-.02.06-.04.12-.04.19 0 .1.04.26.07.36.01.05.02.09.02.1 0 .04.04.14.16.18l.04.02c.07-.01.11-.08.13-.12l.07-.04c.06 0 .17-.01.21-.13.06-.16.06-.46.06-.47.1.02.11-.04.11-.09 0-.03 0-.08-.03-.08s-.07.06-.08.08c-.01 0 .01-.18-.27-.27-.19-.06-.28.03-.3.06h-.01c.03-.05.12-.13.31-.07.26.08.27.25.27.27.01-.03.12-.13.12.01 0 .1-.04.11-.06.11-.04 0-.05.29-.11.45-.05.13-.16.13-.22.13l-.06.04c-.03.05-.07.12-.14.12"/><path d="M41.05 12.14c-.04-.11-.14-.54-.14-.54l.24.16-.15-.05c.01 0 .11.21.11.21.09-.01.19.04.3.08 0 0 .09-.17.08-.17-.01 0-.05-.03-.05-.03l.21-.16-.06.22h-.04l-.09.14c.1.03.14.05.24.15.08-.02.15-.09.19-.15-.07-.03-.11-.06-.1-.06l.31.02s-.29.31-.47.42c-.15-.07-.56-.2-.58-.24" fill="#f5d028"/><path d="M41.65 12.39c-.06-.03-.16-.06-.26-.1-.21-.07-.33-.12-.34-.15-.04-.11-.14-.54-.14-.54l.24.15-.12-.03s.04.08.06.14c-.04-.06-.08-.14-.09-.15l.14.04-.24-.15c.01.02.11.43.15.54.01.02.18.09.33.14.1.03.19.07.25.1.17-.11.44-.4.46-.42-.01.01-.28-.01-.31-.01.01 0 .04.02.1.05-.06.09-.13.14-.2.16-.1-.1-.15-.12-.24-.15l.18-.38-.06.22-.13.16c.09.02.14.04.24.14a.54.54 0 0 0 .19-.14c-.01 0-.11-.04-.1-.06.01-.01.32.01.32.01.03.01-.26.32-.43.43zm-.23-.4l-.09-.02a.489.489 0 0 0-.19-.05h-.01c.07-.01.14.02.21.05l.08.02c.02-.05.06-.13.07-.16-.01.03-.03.07-.07.16M41.19 12.45c.05.03.07.05.05.04-.02 0-.09-.03-.14-.05-.05-.03-.07-.05-.05-.04.03 0 .09.03.14.05M41.47 12.57c.05.03.07.05.05.04-.03 0-.09-.03-.14-.05-.05-.03-.07-.05-.05-.04.02 0 .09.03.14.05M41.29 12.9c.1.04.14.06.09.06-.05 0-.17-.04-.27-.07-.1-.04-.14-.06-.09-.06.05 0 .17.03.27.07M41.27 12.74c.05.02.06.03.04.03-.02 0-.08-.02-.12-.04-.04-.02-.06-.03-.04-.03.02.01.08.02.12.04"/><path d="M41.21 12.78c.01-.04.03-.06.03-.04 0 .02-.01.07-.02.11-.01.04-.03.06-.03.04 0-.02.01-.07.02-.11"/><path fill="#30770e" d="M39.59 20.81l-.22-.38.31.37.02.16z"/><path d="M39.7 20.97l-.12-.15-.22-.38.32.37.02.16zm-.33-.54l.32.51-.01-.14-.31-.37z"/><path fill="#30770e" d="M39.65 20.85l.04-.27.09.33-.08.05z"/><path d="M39.69 20.97l-.04-.11.03-.29.11.34z"/><path fill="#30770e" d="M39.57 20.95l-.37-.19.31.09.2.11z"/><path d="M39.71 20.97l-.14-.02-.37-.19.31.09.2.12zm-.51-.21l.37.19.11.01-.18-.1-.3-.1z"/><path fill="#30770e" d="M39.68 21.07l-.56-.16.44.01.15.03z"/><path d="M39.68 21.07l-.56-.16.59.03-.03.13zm-.56-.16l.55.15.03-.11-.15-.02-.43-.02z"/><path fill="#30770e" d="M39.71 20.88l.34-.05-.12.22-.25-.1z"/><path d="M39.94 21.05l-.27-.09.04-.08.34-.05z"/><path fill="#30770e" d="M39.9 21l.44.17-.37-.05-.3-.18z"/><path d="M40.34 21.18l-.36-.05-.31-.18.24.05.43.18zm-.67-.23l.31.17.33.05-.41-.17-.23-.05z"/><path fill="#30770e" d="M39.97 21.09l.46.26-.41-.15-.35-.26z"/><path d="M40.43 21.36l-.41-.15-.34-.27.75.42zm-.76-.42l.34.26.37.13-.71-.39z"/><path fill="#30770e" d="M39.97 21.18l.27.4-.42-.45-.13-.18z"/><path d="M40.23 21.58l-.55-.63.28.23.27.4zm-.54-.63l.14.18.38.41-.24-.36-.28-.23z"/><path fill="#30770e" d="M39.9 21.19l.01.26-.21-.38-.01-.13z"/><path d="M39.9 21.45l-.2-.37-.02-.13.22.24v.26zm-.22-.5l.02.13.2.36-.01-.24-.21-.25z"/><path fill="#30770e" d="M39.8 21.11l-.21.16.01-.28.1-.03z"/><path d="M39.59 21.28l.01-.29.09-.03.11.15z"/><path fill="#30770e" d="M39.54 20.81l-.15-.22.2.21.1.15z"/><path d="M39.69 20.96l-.15-.15-.15-.22.21.21.09.15z"/><path fill="#30770e" d="M39.65 20.9l-.15-.27.21.29.03.08z"/><path d="M39.74 21.01l-.1-.11-.14-.27.24.37z"/><path fill="#30770e" d="M39.66 20.98l-.39-.17.33.1.14.08z"/><path d="M39.74 20.99h-.08l-.39-.17.47.16z"/><path fill="#30770e" d="M39.76 20.96l.35.11-.26-.05-.14-.05z"/><path d="M40.11 21.07l-.4-.1.37.09-.03-.01.06.01z"/><path fill="#30770e" d="M39.78 21.05l-.11.07.05-.1v-.05zM39.93 21.12l.22.28-.19-.2-.23-.23z"/><path d="M40.15 21.4l-.42-.43.2.14.22.29zm-.43-.42l.36.35-.17-.21-.19-.14z"/><path fill="#30770e" d="M39.87 21.02l.06-.08.02.15-.21-.1zM39.62 20.86l-.09-.29.15.3.02.09z"/><path d="M39.7 20.96l-.08-.1-.1-.29.18.39z"/><path d="M40.7 21.5c.05-.04.44-.92 2.29-.79-1.05.44-1.7 1.37-1.86 1.41-.11.03-.36-.48-.43-.62" fill="#fff"/><path d="M41.12 22.13c-.15 0-.42-.62-.43-.63.43-.63 1.15-.89 2.3-.8-.72.32-1.25.86-1.57 1.18-.14.14-.23.23-.28.25h-.02zm1.51-1.42c-.91 0-1.54.26-1.9.76.06.23.28.64.38.64v.01l.01-.01c.04-.01.14-.11.27-.24.32-.32.85-.86 1.58-1.17-.1.01-.22.01-.34.01"/><path d="M43.18 21.06c-.29.13-.43.19-.57.21.07.04.24.02.43.09-.17 0-.48.17-.6.18.09.07.41 0 .46.02-.17.01-.44.19-.61.19-.08.08.39-.05.58.09-.2-.01-.58.14-.78.1.16.12.44-.01.67.12-.07.01-.61.09-.8.05.11.08.46.06.55.13-.14-.02-.52.08-.66.04.12.11.48.05.54.12-.24.11-.59.02-.76.05.11.07.2.14.3.2.14.13.58.5.85.61-.29-.05-.4-.06-.59-.08l.43.6c-.18-.13-.5-.37-.71-.5-.47-.3-.8-.25-1.13-.51-.45-.58-.7-1.28-.73-1.46-.02-.19-.04-.52-.46-.35.4-.07.11-.5.53-.5.25 0 .22.24.31.4.06.11.49.52.58.54.81-.6 1.46-.67 2.17-.34" fill="#fff"/><path d="M42.61 23.81l-.16-.12c-.17-.13-.39-.29-.54-.38-.23-.15-.44-.21-.62-.27-.18-.06-.35-.11-.51-.24-.46-.6-.71-1.29-.73-1.47-.02-.2-.07-.43-.33-.37l.01-.01.01-.01c.07-.07.09-.15.11-.23.03-.12.06-.24.29-.24.19 0 .23.13.26.26.02.05.03.11.06.15.06.12.49.52.57.54.76-.61 1.39-.72 2.15-.36-.28.15-.42.21-.57.23.04-.01.08 0 .15.01.08.01.17.02.28.05-.09.03-.22.08-.34.12-.1.04-.19.07-.26.08.03 0 .08.01.15.01.05 0 .11 0 .17-.01.04 0 .08-.01.1-.01 0 .01-.01.01-.01.01h.04c-.03.01-.05.02-.07.02-.05.03-.13.06-.21.1-.11.04-.22.09-.31.1l-.03-.02c.1 0 .21-.05.33-.1.06-.02.11-.05.16-.06h-.01c-.13.01-.29.02-.34-.03.07-.03.17-.06.27-.1.12-.05.25-.1.34-.1-.1-.01-.2-.02-.27-.03-.07-.01-.12-.01-.16-.03.15-.05.29-.11.57-.23-.75-.29-1.36-.22-2.13.39-.11-.02-.54-.44-.6-.55a.523.523 0 0 1-.06-.16c-.04-.13-.07-.24-.24-.24-.2 0-.23.1-.26.22-.02.07-.04.15-.1.21.23-.05.28.22.3.38.02.2.27.9.73 1.48.16.13.32.17.5.23s.39.12.62.28c.16.09.37.25.55.38l.09.07-.38-.54.09-.01c.14.02.26.03.51.07-.27-.08-.7-.44-.86-.59l-.12-.08-.18-.12c.07-.06.15-.03.24-.03.19.01.4.01.51-.05-.03 0-.12-.01-.21-.01-.13-.01-.27-.02-.34-.08.03-.02.06-.01.1-.01.07 0 .17-.01.27-.03.09-.01.18-.03.25-.03.01 0-.1-.02-.2-.03-.12-.01-.24-.03-.3-.07.04-.02.09-.01.15-.01.23 0 .57-.05.65-.06a.989.989 0 0 0-.3-.04h-.12c-.1 0-.18-.01-.25-.06l.08-.02c.1 0 .23-.03.36-.06.12-.03.24-.05.32-.05a.769.769 0 0 0-.3-.05l-.22.01-.03-.03.24-.01c.16 0 .26.03.33.08-.12.03-.23.05-.35.07-.16.03-.33.07-.44.05.07.02.14.03.24.03h.12c.1 0 .21.01.32.06-.11.05-.63.12-.81.08.07.01.18.03.3.04.11.02.22.03.26.07-.13.02-.22.03-.31.05-.15.02-.29.04-.36.02.08.04.22.05.34.05.1.01.19.01.22.05-.13.09-.34.08-.53.07a.87.87 0 0 0-.23 0c.07.02.13.06.19.1l.12.08c.16.15.59.51.85.61a7.25 7.25 0 0 1-.51-.05l-.08-.01.44.58-.02.01z"/><path d="M45.63 24.31a.373.373 0 0 1 .02-.27c.06-.09.1-.17.21-.26.12-.05.17-.01.33-.17.05-.11.13-.2.18-.32.11-.18.14-.26.23-.4.11-.14.2-.27.27-.38.07-.14.13-.23.24-.34.04-.13.13-.23.24-.34.08-.17.24-.35.3-.49.12-.15.17-.22.27-.38.09-.07.24-.22.37-.26.17-.08.26-.16.38-.04.07.08.21.22.11.32-.05.06-.13.07-.22.02-.09-.07-.14-.27-.27-.11-.09.12-.14.21-.27.34-.06.1-.11.19-.17.34-.08.1-.14.21-.2.38-.08.07-.15.22-.2.34-.08.09-.14.19-.2.34-.13.14-.17.25-.27.34-.06.15-.16.29-.24.38-.06.11-.12.22-.17.34-.11.12-.11.15-.27.34-.13.19-.09.17-.29.39-.13.04-.24.05-.38-.11" fill="#28620a"/><path d="M45.87 24.46c-.08 0-.16-.04-.24-.14-.02-.11-.03-.15.02-.28l.04-.07c.04-.06.08-.13.17-.19.04-.01.06-.02.09-.03.07-.02.12-.03.24-.15.02-.05.05-.09.08-.14.03-.06.07-.11.1-.18.05-.09.09-.16.12-.21.03-.06.06-.12.11-.19.11-.14.2-.27.27-.38.07-.13.13-.22.24-.34.04-.13.14-.24.24-.34.04-.09.1-.18.16-.27.05-.08.11-.16.14-.22.12-.15.17-.22.27-.38l.09-.07c.08-.07.19-.16.28-.19l.07-.04c.13-.07.22-.1.31 0s.21.23.11.33c-.05.06-.13.07-.23.02-.03-.02-.05-.05-.08-.09-.05-.07-.11-.12-.18-.03l-.08.11c-.05.07-.1.14-.19.23-.06.1-.11.18-.17.34-.08.11-.14.22-.2.38-.08.08-.15.22-.2.34-.08.1-.14.19-.2.34-.06.07-.11.13-.15.19-.04.06-.08.11-.13.15-.08.19-.2.34-.24.38-.06.11-.12.22-.17.34-.05.06-.08.1-.12.15-.03.05-.07.1-.15.2l-.08.13c-.04.07-.07.11-.21.26-.04.02-.08.04-.13.04m2.65-3.85c-.05 0-.11.03-.18.06l-.07.04c-.09.04-.19.12-.28.19l-.09.07c-.1.16-.15.22-.27.38-.03.06-.08.14-.14.22-.06.09-.12.18-.16.27-.12.13-.2.21-.23.34-.11.13-.17.21-.24.34-.07.11-.16.24-.27.38-.04.07-.07.13-.11.19-.03.06-.07.13-.12.21-.03.07-.06.13-.1.18-.03.04-.06.09-.08.14-.12.13-.18.14-.25.15-.02.01-.05.01-.09.02-.08.07-.12.13-.16.19l-.04.06c-.04.12-.03.16-.02.25.12.16.26.15.36.11.14-.15.16-.19.21-.26l.08-.13c.08-.1.12-.15.15-.19.04-.05.06-.08.12-.15.05-.12.11-.23.17-.34.04-.04.16-.19.24-.38.05-.04.08-.09.12-.15.04-.06.08-.12.14-.19.06-.15.12-.24.2-.34.05-.12.12-.27.2-.34.06-.16.12-.27.2-.38.05-.15.1-.23.17-.34.09-.09.14-.16.19-.23l.08-.11c.08-.1.15-.05.21.03.02.03.05.06.07.08.09.04.17.04.21-.02.08-.09-.03-.21-.1-.29-.04-.04-.08-.06-.12-.06"/><path d="M47.26 22.85c.05.05-.07.26-.27.46l-.01.01c-.2.2-.4.33-.46.28-.05-.05.07-.26.27-.46h.01c.2-.22.41-.34.46-.29" fill="#f5d028"/><path d="M46.56 23.61l-.04-.01v-.04l.04.04c.08 0 .25-.12.42-.28.15-.15.25-.29.28-.38-.02.11-.13.25-.26.39-.18.16-.36.28-.44.28m-.04-.08c.02-.12.13-.26.27-.41.18-.18.35-.3.43-.3l.02.02c-.12 0-.28.11-.44.28-.15.17-.26.33-.28.41"/><path d="M46.16 22.11c.07.03.03.26-.07.53v.01c-.11.27-.25.46-.32.43-.07-.03-.03-.26.08-.53v-.01c.1-.27.24-.46.31-.43" fill="#f5d028"/><path d="M45.78 23.08h-.02c-.08-.03-.03-.3.07-.54.11-.26.24-.45.31-.45.1.04.04.3-.05.54-.11.27-.24.45-.31.45m.37-.97c-.07 0-.2.16-.31.43-.12.29-.14.5-.08.52h.01c.06 0 .18-.16.29-.43.13-.28.15-.5.09-.52z"/><path d="M46.33 22.23c.07.03.03.27-.09.53v.01c-.12.26-.26.45-.33.42-.07-.03-.02-.26.09-.52v-.01c.12-.27.27-.46.33-.43" fill="#f5d028"/><path d="M45.92 23.2h-.02c-.08-.04-.02-.3.09-.54.11-.26.25-.44.33-.44.06.02.06.12.05.19-.02.1-.06.22-.12.35-.11.26-.25.44-.33.44m.41-.96c-.07 0-.2.16-.32.42-.13.29-.15.5-.1.52h.01c.06 0 .19-.16.31-.42.06-.13.1-.26.12-.35.02-.1.01-.16-.02-.17z"/><path d="M46.74 22.52c.06.04-.03.26-.2.5v.01c-.17.23-.35.39-.41.34-.06-.04.03-.26.2-.5l.01-.01c.16-.23.34-.38.4-.34" fill="#f5d028"/><path d="M46.15 23.38l-.03-.01c0-.02-.01-.03-.01-.05v.01l.04.03c.07 0 .24-.15.38-.35.15-.2.22-.38.22-.45.01.1-.08.29-.2.45-.16.23-.32.37-.4.37m-.04-.06c0-.12.08-.28.2-.45.15-.21.32-.36.4-.36.01.01.02.01.02.02h-.01c-.1 0-.25.15-.4.34-.12.18-.2.36-.21.45"/><path d="M47.57 23.05c.05.06-.09.25-.31.44l-.01.01c-.22.19-.43.29-.48.24-.05-.06.09-.25.31-.44h.01c.22-.19.44-.3.48-.25" fill="#f5d028"/><path d="M46.82 23.76l-.04-.02c-.06-.07.11-.28.31-.44.18-.16.36-.26.45-.26.01.01.02.02.02.03-.12 0-.29.1-.46.24-.24.21-.35.39-.32.43l.04.01c.08 0 .26-.1.43-.25.15-.13.26-.26.3-.34-.03.1-.15.23-.28.34-.19.15-.36.26-.45.26"/><path d="M47.43 22.97c.05.05-.07.26-.28.46l-.01.01c-.2.2-.41.32-.46.27-.05-.05.07-.25.28-.46h.01c.2-.21.41-.34.46-.28" fill="#f5d028"/><path d="M46.72 23.72l-.04-.01v-.05.01l.04.04c.08 0 .26-.12.42-.28.17-.17.29-.34.29-.42-.12-.04-.29.08-.46.24-.16.16-.27.31-.29.4.02-.11.13-.26.27-.4.18-.17.35-.29.44-.29l.06.04c0 .08-.12.26-.29.43-.18.17-.36.29-.44.29"/><path d="M47 22.75c.06.04-.03.27-.2.5l-.01.01c-.17.23-.35.39-.41.34-.06-.04.03-.26.2-.49v-.01c.18-.24.36-.39.42-.35" fill="#f5d028"/><path d="M46.41 23.61l-.03-.01c-.07-.05.04-.3.2-.51.15-.21.32-.36.4-.36.01.01.01.03.01.04-.11-.02-.26.13-.39.32-.18.26-.25.46-.21.49l.02.01c.07 0 .23-.15.38-.35.09-.13.16-.25.2-.35-.02.1-.09.23-.18.35-.15.22-.32.37-.4.37"/><path d="M46.88 22.62c.06.04-.03.26-.2.5l-.01.01c-.17.23-.35.39-.41.35-.06-.04.03-.26.2-.5l.01-.01c.17-.24.35-.4.41-.35" fill="#f5d028"/><path d="M46.29 23.48l-.03-.01c-.01-.01-.01-.03-.01-.05v.01l.03.03c.07 0 .24-.15.38-.35.09-.13.16-.25.19-.35a.9.9 0 0 1-.18.35c-.13.22-.3.37-.38.37m-.03-.07c0-.12.08-.28.2-.44.15-.21.32-.36.4-.36.01.01.01.03.02.04-.12-.02-.26.13-.39.32-.14.17-.23.35-.23.44"/><path d="M47.12 20.8c.06.04-.03.26-.2.5l-.01.01c-.17.23-.35.39-.41.34-.06-.04.03-.27.2-.5.18-.24.36-.39.42-.35" fill="#f5d028"/><path d="M46.53 21.66l-.03-.01c0-.01-.01-.03-.01-.04l.03.03c.07 0 .24-.15.38-.35.15-.21.23-.39.22-.46.02.1-.08.3-.2.47-.15.21-.31.36-.39.36m-.03-.08c.01-.12.09-.28.2-.44.15-.21.32-.36.4-.36.01.01.02.01.02.03h-.01c-.09 0-.25.15-.39.34-.13.17-.21.34-.22.43"/><path d="M47.28 20.9c.06.04-.03.26-.2.5v.01c-.17.23-.35.39-.41.34-.06-.04.03-.27.2-.5l.01-.01c.16-.22.34-.38.4-.34" fill="#f5d028"/><path d="M46.69 21.77l-.03-.01c-.07-.05.04-.3.2-.51.15-.21.32-.36.4-.36.01.01.01.03.02.05-.11 0-.26.13-.39.32-.18.25-.25.46-.21.49l.02.01c.07 0 .23-.15.38-.35.09-.13.16-.25.19-.35-.02.1-.09.22-.18.35-.15.21-.32.36-.4.36"/><path d="M47.44 21.02c.06.04-.03.26-.2.5l-.01.01c-.17.23-.35.39-.41.34-.06-.04.03-.26.2-.5v-.01c.18-.23.37-.38.42-.34" fill="#f5d028"/><path d="M46.86 21.89l-.03-.01c-.07-.05.04-.3.2-.51.15-.21.32-.36.4-.36.01.01.01.03.01.04-.1-.01-.26.13-.39.32-.18.25-.25.46-.21.49l.02.01c.07 0 .23-.15.38-.34.09-.13.16-.25.2-.35-.02.1-.09.22-.18.35-.16.21-.32.36-.4.36"/><path d="M47.62 21.15c.06.04-.03.26-.2.5l-.01.01c-.17.23-.35.39-.41.34-.06-.04.03-.26.2-.5v-.01c.18-.23.36-.38.42-.34" fill="#f5d028"/><path d="M47.03 22.01l-.02-.01c-.07-.05.04-.3.2-.51.16-.21.32-.36.4-.36.01.01.01.03.02.05-.11-.02-.26.13-.39.32-.18.26-.25.46-.21.49l.02.01c.07 0 .23-.15.38-.35.09-.13.16-.25.2-.34-.02.1-.09.22-.18.35-.17.2-.34.35-.42.35"/><path d="M47.75 21.26c.06.04-.03.26-.2.5l-.01.01c-.17.23-.35.39-.41.34-.06-.04.03-.26.2-.5v-.01c.18-.23.36-.38.42-.34" fill="#f5d028"/><path d="M47.17 22.12l-.03-.01c-.07-.05.04-.3.2-.51.15-.21.32-.36.4-.36.01.01.02.01.03.02h-.01c-.1 0-.25.15-.39.34-.18.26-.25.46-.21.49l.02.01c.07 0 .23-.15.38-.35.15-.21.23-.39.22-.46.02.1-.08.3-.2.46-.17.23-.34.37-.41.37"/><path d="M48.63 21.76c.06.04-.03.27-.2.5l-.01.01c-.17.23-.35.39-.41.34-.06-.04.03-.26.2-.5v-.01c.18-.23.36-.39.42-.34" fill="#f5d028"/><path d="M48.05 22.62l-.03-.01c-.07-.05.04-.3.2-.51.16-.21.32-.36.4-.36.01.01.02.01.02.02h-.01c-.1 0-.25.15-.39.34-.18.25-.25.46-.2.49l.02.01c.07 0 .23-.15.38-.35.15-.21.22-.38.22-.46.01.1-.08.29-.2.46-.17.22-.34.37-.41.37"/><path d="M48.5 21.71c.06.04-.03.27-.2.5l-.01.01c-.17.23-.35.39-.41.35-.06-.04.03-.26.2-.5v-.01c.17-.24.36-.39.42-.35" fill="#f5d028"/><path d="M47.91 22.57l-.03-.01c-.07-.05.04-.3.19-.51.15-.21.32-.36.4-.36.01.02.01.03.01.04-.11 0-.26.13-.39.32-.18.25-.25.46-.21.49l.02.01c.07 0 .23-.15.38-.35.09-.13.16-.25.19-.34-.02.1-.09.22-.18.35-.14.21-.3.36-.38.36"/><path d="M48.38 21.65c.06.04-.03.27-.2.5l-.01.01c-.17.23-.35.39-.41.34-.06-.04.03-.26.2-.49V22c.17-.24.36-.4.42-.35" fill="#f5d028"/><path d="M47.79 22.51l-.03-.01c-.07-.05.04-.3.2-.51.16-.21.32-.36.4-.36.01.01.01.03.02.04-.12-.02-.26.13-.39.32-.18.26-.25.46-.21.49l.02.01c.07 0 .23-.15.38-.35.09-.13.16-.25.2-.34-.02.1-.09.22-.18.35-.17.21-.33.36-.41.36"/><path d="M48.21 21.54c.06.04-.03.26-.2.5v.01c-.17.23-.35.39-.41.34-.06-.04.03-.26.2-.5l.01-.01c.16-.23.34-.39.4-.34" fill="#f5d028"/><path d="M47.62 22.4l-.03-.01c-.07-.05.04-.3.2-.51.15-.21.32-.36.4-.36.01.01.02.01.02.02h-.01c-.1 0-.25.15-.39.34-.18.25-.25.46-.21.49l.02.01c.07 0 .23-.15.38-.35.15-.2.22-.37.22-.45.01.1-.08.29-.2.45-.16.22-.32.37-.4.37"/><path d="M48.03 21.45c.06.04-.03.27-.2.5l-.01.01c-.17.23-.35.39-.41.35-.06-.04.03-.26.2-.5v-.01c.18-.24.37-.39.42-.35" fill="#f5d028"/><path d="M47.45 22.31l-.03-.01c-.07-.05.04-.3.2-.51.16-.21.32-.36.4-.36.01.01.02.01.02.02h-.01c-.1 0-.25.15-.39.34-.18.25-.25.46-.2.49l.02.01c.07 0 .23-.15.38-.35.15-.21.22-.38.22-.46.01.1-.08.29-.2.46-.17.22-.33.37-.41.37"/><path d="M47.89 21.35c.06.04-.03.27-.2.5v.01c-.17.23-.35.39-.41.35-.06-.04.03-.26.2-.5l.01-.01c.16-.24.35-.39.4-.35" fill="#f5d028"/><path d="M47.31 22.22l-.03-.01c-.07-.05.04-.3.2-.51.15-.21.32-.36.4-.36.01.02.01.03.02.04-.11 0-.26.13-.39.32-.18.25-.25.46-.21.49l.02.01c.07 0 .24-.15.38-.35.09-.13.16-.25.19-.34-.02.1-.09.22-.18.35-.16.21-.32.36-.4.36"/><path d="M46.51 22.37c.06.04.01.27-.13.52l-.01.01c-.14.25-.3.43-.36.4-.06-.03 0-.27.13-.52v-.01c.15-.25.31-.43.37-.4" fill="#f5d028"/><path d="M46.03 23.3l-.02-.01c-.01-.01-.01-.02-.01-.04v.01l.03.03c.07 0 .21-.17.34-.4.08-.14.13-.28.15-.38-.01.11-.06.24-.13.38-.13.25-.28.41-.36.41m-.03-.06c-.02-.12.05-.29.14-.47.13-.24.28-.41.35-.41.01.01.01.03.02.04-.1 0-.24.16-.35.37-.11.2-.17.39-.16.47"/><path d="M46.59 21.45c.06.04-.03.26-.2.5v.01c-.17.23-.35.39-.41.34-.06-.04.03-.26.2-.5l.01-.01c.16-.23.34-.39.4-.34" fill="#f5d028"/><path d="M46 22.31l-.03-.01c-.07-.05.04-.3.19-.51.15-.21.32-.36.4-.36.01.01.02.01.02.02h-.01c-.1 0-.25.15-.39.34-.18.25-.25.46-.21.49l.03.01c.07 0 .24-.15.38-.34.15-.2.22-.38.22-.45.01.1-.08.29-.2.45-.16.21-.32.36-.4.36"/><path d="M46.75 21.55c.06.04-.03.26-.2.5v.01c-.17.23-.35.39-.41.34-.06-.04.03-.26.2-.5l.01-.01c.16-.23.34-.38.4-.34" fill="#f5d028"/><path d="M46.16 22.41l-.03-.01c0-.01-.01-.03-.01-.04l.03.03c.07 0 .24-.15.38-.34.15-.2.22-.38.22-.45.01.1-.08.29-.2.45-.14.21-.31.36-.39.36m-.03-.08c.01-.12.09-.28.2-.44.15-.21.32-.36.4-.36.01.01.02.01.02.02h-.01c-.09 0-.25.15-.39.34-.13.18-.21.35-.22.44"/><path d="M46.91 21.67c.06.04-.03.26-.2.5v.01c-.17.23-.35.39-.41.34-.06-.04.03-.26.2-.5l.01-.01c.16-.23.35-.38.4-.34" fill="#f5d028"/><path d="M46.33 22.53l-.03-.01c-.07-.05.04-.3.2-.51.15-.21.32-.36.4-.36.01.01.02.01.02.02h-.01c-.1 0-.25.15-.39.34-.18.25-.25.46-.21.49l.02.01c.07 0 .23-.15.38-.35.15-.2.22-.38.22-.45.01.1-.08.29-.2.45-.16.22-.32.37-.4.37"/><path d="M47.09 21.79c.06.04-.03.27-.2.5l-.01.01c-.17.23-.35.39-.41.34-.06-.04.03-.26.2-.49v-.01c.18-.23.36-.39.42-.35" fill="#f5d028"/><path d="M46.51 22.66l-.03-.01c0-.01-.01-.03-.01-.04l.04.03c.07 0 .24-.15.38-.35.15-.2.22-.38.22-.45.01.1-.08.29-.2.46-.16.21-.33.36-.4.36m-.04-.08c.01-.12.09-.27.2-.44.15-.21.32-.36.4-.36.01.01.02.01.02.02h-.01c-.09 0-.25.15-.39.34-.13.18-.21.35-.22.44"/><path d="M47.22 21.91c.06.04-.03.26-.2.5v.01c-.17.23-.35.39-.41.35-.06-.04.03-.26.2-.5l.01-.01c.16-.24.35-.39.4-.35" fill="#f5d028"/><path d="M46.64 22.77l-.03-.01c-.07-.05.04-.3.2-.51.15-.21.32-.36.4-.36.01.01.01.03.02.04-.11 0-.26.13-.39.32-.18.26-.25.46-.21.49l.02.01c.07 0 .23-.15.38-.35.09-.13.16-.25.19-.34-.02.1-.09.22-.18.35-.16.21-.33.36-.4.36"/><path d="M48.1 22.4c.06.05-.03.27-.2.5l-.01.01c-.17.23-.35.39-.41.34-.06-.04.03-.26.2-.5v-.01c.18-.22.37-.38.42-.34" fill="#f5d028"/><path d="M47.52 23.26l-.03-.01c0-.01-.01-.03-.01-.04l.03.03c.07 0 .24-.15.38-.35.15-.21.22-.38.22-.46.02.1-.08.29-.2.46-.15.23-.32.37-.39.37m-.04-.07c.01-.12.09-.28.2-.44.15-.21.32-.36.4-.36.01.01.02.02.02.03h-.01c-.09 0-.25.15-.39.34-.12.16-.21.33-.22.43"/><path d="M47.97 22.35c.06.04-.03.27-.2.5l-.01.01c-.17.23-.35.39-.41.35-.06-.04.03-.26.2-.5l.01-.01c.17-.23.35-.39.41-.35" fill="#f5d028"/><path d="M47.38 23.22l-.03-.01c-.07-.05.04-.3.2-.51.15-.21.32-.36.4-.36.01.01.02.01.02.02h-.01c-.1 0-.25.15-.39.34-.18.25-.25.46-.21.49l.02.01c.07 0 .23-.15.38-.35.15-.2.22-.38.22-.45.01.1-.08.29-.2.45-.16.22-.32.37-.4.37"/><path d="M47.85 22.29c.06.04-.03.27-.2.5l-.01.01c-.17.23-.35.39-.41.35-.06-.04.03-.26.2-.5l.01-.01c.16-.24.35-.39.41-.35" fill="#f5d028"/><path d="M47.26 23.15l-.03-.01c0-.01-.01-.03-.01-.04l.03.03c.07 0 .24-.15.38-.35.15-.2.22-.38.22-.45.01.1-.08.29-.2.45-.15.23-.31.37-.39.37m-.04-.07c0-.12.09-.28.2-.44.15-.21.32-.36.4-.36.01.01.02.01.02.02h-.01c-.1 0-.25.15-.39.34-.12.17-.21.34-.22.44"/><path d="M47.68 22.18c.06.04-.03.26-.2.5l-.01.01c-.17.23-.35.39-.41.34-.06-.04.03-.26.2-.49l.01-.01c.17-.24.35-.39.41-.35" fill="#f5d028"/><path d="M47.09 23.04l-.03-.01c-.01-.02-.01-.03-.01-.05v.01l.03.03c.07 0 .24-.15.38-.35.15-.21.22-.38.22-.46.01.1-.08.29-.2.46-.14.23-.31.37-.39.37m-.03-.07c0-.12.08-.28.2-.44.15-.21.32-.36.4-.36.01.01.02.01.02.02h-.01c-.09 0-.25.15-.39.34-.13.18-.22.36-.22.44"/><path d="M47.5 22.09c.06.04-.03.26-.2.5v.01c-.17.23-.35.39-.41.34-.06-.04.03-.27.2-.5h.01c.16-.23.35-.39.4-.35" fill="#f5d028"/><path d="M46.92 22.96l-.03-.01c0-.01-.01-.02-.01-.04l.03.03c.07 0 .24-.15.38-.35.15-.21.23-.39.22-.46.02.1-.08.3-.2.46-.15.22-.31.37-.39.37m-.04-.08c.01-.12.09-.28.2-.44.15-.21.32-.36.4-.36.01.01.02.01.02.02h-.01c-.1 0-.25.15-.39.34-.12.18-.21.35-.22.44"/><path d="M47.37 22c.06.04-.03.27-.2.5l-.01.01c-.17.23-.35.39-.41.35-.06-.04.03-.26.2-.5l.01-.01c.17-.24.35-.39.41-.35" fill="#f5d028"/><path d="M46.78 22.86l-.03-.01c0-.01-.01-.03-.01-.05v.01l.04.03c.07 0 .24-.15.38-.35.15-.21.22-.38.22-.46.02.1-.08.29-.2.46-.16.23-.32.37-.4.37m-.04-.07c0-.12.08-.28.2-.45.15-.21.32-.36.4-.36.01.01.02.01.02.03 0 0-.01-.01-.01 0-.09 0-.25.15-.39.34-.13.18-.21.35-.22.44"/><path d="M47.47 15.88c.1 0 .18.03.18.06v2.09c0 .03-.08.06-.18.06-.1 0-.18-.03-.18-.06v-2.09c.01-.03.09-.06.18-.06" fill="#a87f36"/><path d="M47.48 18.1c-.11 0-.19-.03-.19-.07v-2.09c0-.08.37-.07.37 0v2.09c0 .04-.08.07-.18.07m0-2.21c-.11 0-.17.03-.17.06v2.09c0 .03.07.06.17.06s.17-.03.17-.06v-2.09c0-.03-.07-.06-.17-.06"/><path fill="#30770e" d="M47.11 16.72l-1.03.69.66-.84.66-.15z"/><path d="M46.09 17.42l-.01-.02.66-.83.66-.16-.28.32-1.03.69zm1.3-1.01l-.65.17-.61.78.97-.65.29-.3z"/><path fill="#30770e" d="M47.08 16.58l-1.42.18 1.24-.45.54.1z"/><path d="M45.66 16.77l-.01-.02 1.24-.45.55.1-.36.19-1.42.18zm1.24-.45l-1.15.41 1.33-.17.36-.17-.54-.07z"/><path fill="#30770e" d="M47.8 16.63l.39.77-.62-.58-.18-.42z"/><path d="M48.19 17.41l-.63-.58-.18-.43.42.22.4.77-.01.02zm-.8-1.01l.19.41.58.54-.37-.72-.4-.23z"/><path fill="#30770e" d="M47.97 16.35l1.21 1.06-1.46-.74-.4-.26z"/><path d="M49.18 17.42l-1.46-.74-.4-.27.65-.08 1.22 1.06-.01.03zm-1.22-1.06l-.64.06.41.25 1.38.7-1.15-1.01z"/><path fill="#30770e" d="M47 16.45l-1.45-.51 1.43.01.48.51z"/><path d="M47.48 16.47H47l-1.45-.52 1.43-.01.5.53zm-1.93-.52l1.45.5h.43l-.46-.49-1.42-.01z"/><path fill="#30770e" d="M46.85 16.04l-.69-.87 1.03.65.25.66z"/><path d="M47.46 16.51l-.61-.46-.69-.88 1.04.63.26.71zm-1.3-1.33l.7.86.55.42-.23-.63-1.02-.65z"/><path fill="#30770e" d="M47.09 15.86l-.4-.99.74.81-.03.79z"/><path d="M47.41 16.51l-.33-.65-.4-.99.76.8-.03.84zm-.73-1.64l.42.98.29.58.03-.75-.74-.81z"/><path fill="#30770e" d="M47.5 15.77l.91-.78-.62 1.08-.42.37z"/><path d="M47.36 16.47l.13-.7.91-.79-.61 1.09-.43.4zm1.04-1.48l-.89.8-.12.63.39-.36.62-1.07z"/><path fill="#30770e" d="M47.78 15.88l1.17-.23-1.04.66-.54.14z"/><path d="M47.34 16.46l.43-.59 1.17-.23-1.03.67-.57.15zm1.61-.82l-1.16.25-.39.54.52-.13 1.03-.66z"/><path fill="#30770e" d="M47.78 16.12l1.42.2-1.33.22-.44-.13z"/><path d="M47.87 16.55l-.44-.13.34-.31 1.44.2-1.34.24zm-.09-.42l-.34.29.43.11 1.33-.22-1.42-.18z"/><path fill="#30770e" d="M47.25 16.8l-.49.43.29-.51.36-.29z"/><path d="M46.77 17.24l-.02-.01.29-.52.36-.29-.14.39-.49.43zm.63-.81l-.34.3-.26.46.45-.39.15-.37z"/><path fill="#30770e" d="M47.31 16.55l-.76.48.63-.61.28-.12z"/><path d="M46.55 17.03l.62-.62.29-.12-.15.26-.76.48zm.91-.73l-.27.13-.58.56.7-.44.15-.25z"/><path fill="#30770e" d="M47.66 16.46l.57.78-.69-.62-.15-.3z"/><path d="M48.22 17.25l-.69-.62-.15-.3.28.13.57.79h-.01zm-.83-.92l.16.29.63.58-.53-.73-.26-.14z"/><path fill="#30770e" d="M47.2 16.31l-.75-.68.73.48.25.27z"/><path d="M47.45 16.4l-.26-.09-.75-.68.74.47.27.3zm-1-.76l.76.67.21.07-.23-.26-.74-.48z"/><path fill="#30770e" d="M47.56 16.21l.7.11h-.68l-.21.06z"/><path d="M47.37 16.38l-.01-.01.2-.17.7.12-.68.01-.21.05zm.19-.17l-.17.15.19-.05h.68l-.7-.1z"/><path fill="#30770e" d="M47.35 15.9l.53-.62-.28.49-.22.58z"/><path d="M47.39 16.35h-.02l-.03-.45.53-.63-.26.51-.22.57zm.48-1.07l-.51.63.03.4.2-.53.28-.5z"/><path fill="#30770e" d="M47.09 16.08l-.57-.04.6-.16.31.44z"/><path d="M47.42 16.33l-.33-.24-.57-.04.6-.18.32.44-.02.02zm-.31-.44l-.59.16.57.02.29.21-.27-.39z"/><path fill="#30770e" d="M47.19 16.63l-.99.4.83-.51.37-.1z"/><path d="M46.2 17.04l-.01-.01.83-.52.37-.1-.2.22-.99.41zm1.19-.63l-.36.11-.75.47.91-.37.2-.21z"/><path d="M42.03 16.4c.05.02.08.06.07.08l-.48 1.54c-.01.03-.05.03-.1.01-.05-.02-.08-.05-.07-.08l.48-1.54c0-.02.05-.03.1-.01" fill="#a87f36"/><path d="M41.58 18.05l-.06-.01c-.05-.02-.09-.06-.08-.08l.48-1.54.11-.02c.05.02.08.06.08.08l-.48 1.54-.05.03zm.45-1.64l-.1.01-.48 1.54c-.01.02.03.05.07.07l.05.02.04-.03.48-1.54c.01-.02-.02-.06-.06-.07"/><path d="M41.06 16.26c.05 0 .09.02.09.05v1.63c0 .03-.04.05-.09.05-.05 0-.09-.02-.09-.05v-1.63c-.01-.03.03-.05.09-.05" fill="#a87f36"/><path d="M41.06 17.98c-.06 0-.1-.02-.1-.05V16.3c0-.06.19-.06.19 0v1.63c0 .03-.04.05-.09.05m0-1.72c-.05 0-.09.02-.09.04v1.63c0 .02.04.04.09.04.05 0 .09-.02.09-.04V16.3c-.01-.02-.05-.04-.09-.04"/><path d="M40.49 15.38c.23-.07.4.07.47.38 0 .03.05.03.05.02-.04-.51.47-.94.8-.21.03.12-.15-.06-.27-.19-.15-.18-.35.04-.36.52l-.03.34s-.17-.02-.17-.03c0-.01-.14-.59-.38-.65-.18-.03-.13.09-.35.13-.2.02-.2-.01-.04-.08.11 0 .19-.2.28-.23" fill="#1d4805"/><path d="M41.14 16.24c-.18-.02-.18-.03-.18-.03-.06-.22-.13-.38-.2-.49.1.14.17.34.2.47.01.02.11.03.17.04 0-.04.02-.24.03-.34.01-.51.23-.69.37-.52.06.06.12.13.18.17a.958.958 0 0 1-.18-.17c-.13-.16-.34.02-.35.51-.02.12-.04.36-.04.36zm-.12-.46c-.01-.03-.03-.06-.04-.08.03-.15.09-.3.18-.41.2-.21.48-.11.65.28-.01.01-.01.01-.02.01-.16-.4-.43-.48-.62-.28-.11.11-.17.29-.15.48m-.89-.08c-.01-.01-.02-.01-.03-.02.06.01.09 0 .13 0 .1-.02.14-.06.18-.09a.15.15 0 0 1 .12-.05c.02 0 .03.01.05.02-.1-.01-.13.02-.16.04-.04.03-.08.07-.18.09-.05.01-.08.01-.11.01m-.04-.03c0-.02.03-.03.09-.06.08 0 .14-.07.19-.14.04-.04.07-.08.11-.1.16-.05.3.01.39.15-.11-.14-.24-.19-.39-.14-.03.01-.07.05-.11.1-.06.06-.12.13-.2.14-.04.02-.07.04-.08.05"/><path d="M40.53 15.67c.23-.05.39.1.45.41 0 .03.05.04.05.03-.01-.51.72-.53 1 .22.02.12-.03.11-.14-.03-.14-.19-.67-.53-.71-.06-.02.11-.05.34-.05.34s-.17-.03-.17-.04c0-.01-.1-.6-.35-.68-.18-.04-.24.13-.46.16-.2.01-.2-.02-.04-.08.04-.01.33-.24.42-.27" fill="#1d4805"/><path d="M41.14 16.58c-.17-.04-.18-.04-.18-.05-.05-.25-.12-.44-.2-.55.09.11.16.3.21.53.01.02.1.04.16.06.01-.04.03-.24.05-.34.02-.2.12-.25.21-.25.18 0 .42.18.51.3.08.09.11.11.12.11.01-.01.02-.02.01-.07-.24-.63-.71-.68-.9-.49-.06.06-.1.16-.09.27-.01-.03-.02-.05-.03-.08.03-.07.06-.15.12-.2.19-.19.67-.15.91.49.01.04.01.07 0 .08-.04 0-.08-.03-.14-.11-.09-.12-.33-.3-.5-.3-.12 0-.19.08-.2.24-.03.12-.06.36-.06.36zm-.99-.55c-.13 0-.15-.02-.15-.03 0-.01.01-.03.12-.07.01 0 .07-.04.13-.09.1-.07.23-.16.28-.18.16-.04.29.03.38.17-.1-.14-.22-.2-.38-.17-.05.02-.18.11-.28.18-.08.05-.12.09-.13.09-.1.04-.11.05-.11.06 0 0 .01.01.11.01.14-.02.21-.06.27-.1.06-.04.11-.07.18-.07.01 0 .03.01.04.01-.12 0-.16.03-.22.06-.06.04-.13.08-.23.1h-.01z"/><path d="M40.59 16.03c.23-.03.39.14.42.45 0 .03.05.04.05.03.03-.52.49-.23.68.47.02.07-.15-.08-.25-.23-.12-.21-.22-.58-.29-.11-.03.11-.08.34-.08.34s-.16-.05-.17-.06c0-.01-.06-.61-.3-.71-.18-.05-.28.42-.51.43-.2-.01-.19-.04-.04-.08.05.01.4-.51.49-.53" fill="#1d4805"/><path d="M41.74 17.01c-.04 0-.17-.14-.25-.25-.03-.04-.05-.1-.08-.15-.09-.18-.16-.27-.21.04-.03.11-.08.34-.08.34a.855.855 0 0 1-.18-.05c-.05-.35-.13-.58-.24-.67.12.1.2.33.25.65.01.02.11.05.16.07 0 0 .04-.23.07-.33.05-.33.13-.24.22-.04.02.05.05.1.08.15.08.13.21.25.24.25V17c-.19-.75-.65-.94-.67-.49l-.03-.09c.04-.11.1-.18.18-.18.16 0 .4.28.52.74l.02.03zm-1.58-.35c-.14-.01-.16-.02-.16-.04 0-.01.01-.03.12-.06.01 0 .08-.09.14-.17.12-.16.28-.36.33-.37.05 0 .09 0 .12.01-.02 0-.04-.01-.07-.01-.11.02-.27.22-.38.37-.09.12-.13.17-.14.17-.11.03-.11.05-.11.05 0 .02.01.03.15.05.11-.02.19-.13.26-.25.07-.1.13-.2.21-.2.02.01.05.02.07.04a.076.076 0 0 0-.04-.02c-.12-.03-.17.09-.23.19-.08.11-.16.23-.27.24"/><path d="M39.73 16.26c.05-.02.09-.01.1.02l.53 1.54c.01.02-.02.06-.07.08-.05.02-.09.01-.1-.02l-.53-1.54c-.01-.03.02-.06.07-.08" fill="#a87f36"/><path d="M40.24 17.91l-.06-.03-.53-1.54c.01-.05.04-.07.07-.08l.11.02.53 1.54c.01.03-.02.06-.07.08l-.05.01zm-.51-1.65c-.03.02-.06.04-.07.05l.53 1.56.05.03.05-.01c.04-.02.08-.05.07-.07l-.53-1.54-.1-.02z"/><path d="M39.89 15.28c-.24.02-.34.22-.29.53.01.03-.04.05-.04.04-.16-.49-.69-.48-.71.32.01.12.12-.11.18-.28.07-.23.23-.31.43.13.05.09.16.31.16.31s.15-.08.15-.09c0-.01-.1-.6.1-.75.16-.1.17-.09.39-.13.19-.06.18-.09.01-.09-.03-.01-.29.01-.38.01" fill="#1d4805"/><path d="M39.61 16.33s-.11-.22-.16-.31c-.11-.26-.21-.31-.26-.31-.06 0-.12.07-.15.18-.03.09-.12.31-.17.31v-.04c.04 0 .1-.13.16-.28.08-.27.27-.24.44.13.05.09.14.27.16.3.05-.03.14-.08.14-.09-.05-.41-.01-.66.11-.75.15-.09.17-.09.35-.13.17-.05.18-.06.18-.07 0 0-.01-.02-.12-.02-.02 0-.2.01-.32.02-.16.02-.23.05-.28.12-.07.09-.09.23-.06.41-.01-.02-.03-.03-.04-.05.01-.17.03-.28.1-.36.05-.07.13-.11.23-.12.18-.01.36-.02.38-.02.12 0 .13.02.13.03 0 .01-.01.03-.15.07-.22.04-.24.04-.38.13-.12.09-.15.34-.1.73-.03.02-.03.03-.19.12zm-.69-.55c.12-.34.36-.32.51-.17-.17-.13-.39-.15-.51.17"/><path d="M39.96 15.57c-.23.04-.33.24-.26.55.01.02-.03.05-.04.04-.19-.48-.71-.43-.69.36.02.12.11-.11.16-.29.05-.23.21-.33.43.1.06.09.18.3.18.3s.14-.09.14-.1c0-.01-.13-.6.06-.76.15-.1.16-.1.38-.16.19-.07.17-.1.01-.09-.03.01-.28.04-.37.05" fill="#1d4805"/><path d="M39.75 16.64c0-.01-.12-.21-.18-.3-.13-.24-.22-.29-.28-.29-.07 0-.12.07-.15.19-.03.09-.1.32-.15.32v-.03c.04 0 .1-.14.14-.3.07-.28.26-.26.44.1.05.08.16.26.18.29.05-.03.13-.09.13-.1-.04-.24-.09-.63.06-.76.14-.1.16-.1.34-.15.16-.06.17-.08.17-.08s-.01-.01-.08-.01c-.07.01-.33.04-.42.05-.1.02-.17.06-.21.13-.06.09-.08.24-.04.41a.218.218 0 0 1-.04-.05c0-.17.02-.29.07-.37a.34.34 0 0 1 .22-.14c.09-.01.35-.04.38-.04.11 0 .13.01.14.02 0 .01-.01.03-.14.08-.22.05-.23.06-.38.16-.15.13-.1.52-.06.74 0 .03 0 .03-.14.13zm-.76-.32c.01-.18.06-.3.14-.38.11-.12.28-.11.4.01-.13-.1-.28-.11-.39 0-.09.07-.14.2-.15.37"/><path d="M40.04 15.92c-.23.06-.3.27-.22.57.01.03-.03.05-.03.05-.22-.46-.74-.37-.65.43.03.12.1-.13.14-.3.03-.24.18-.35.43.06.07.09.2.28.2.28l.13-.11c0-.01-.18-.59 0-.77.14-.12.15-.12.36-.19.18-.09.16-.11 0-.09-.02 0-.27.05-.36.07" fill="#1d4805"/><path d="M39.91 17.01s-.14-.2-.2-.29c-.14-.22-.23-.27-.29-.27-.07 0-.12.08-.14.21 0 0-.07.34-.13.34 0-.01 0-.02-.01-.03.04 0 .09-.14.12-.3.04-.29.23-.29.45.06.06.08.18.25.2.28.05-.04.12-.1.13-.11-.06-.23-.14-.62 0-.77.14-.11.15-.12.32-.18.1-.04.14-.07.15-.08 0 .02-.04.04-.11.08-.21.07-.23.08-.36.19-.1.1-.11.38-.01.75.02 0 .02.01-.12.12zm-.78-.25c0-.19.04-.33.12-.41.11-.12.27-.11.4 0-.14-.09-.29-.11-.39.01-.08.08-.12.22-.13.4m.7-.27c-.01-.01-.03-.02-.04-.04-.01-.17 0-.29.05-.38a.28.28 0 0 1 .21-.15c.09-.02.34-.07.37-.08.04 0 .07-.01.09-.01.01.01.02.01.02.02-.05-.01-.07 0-.11 0-.03.01-.28.06-.37.08-.09.03-.16.08-.2.15-.07.1-.07.24-.02.41"/><path d="M41.85 15.17c.23.02.35.22.33.53-.01.03.04.05.04.04.12-.5.73-.7.81.1-.01.12-.13-.11-.2-.28-.08-.23-.34-.09-.5.35-.05.1-.14.31-.14.31s-.15-.08-.15-.09c0-.01.05-.61-.16-.76-.17-.1-.15.03-.37-.01-.2-.06-.18-.08-.02-.09.12.05.26-.11.36-.1" fill="#1d4805"/><path d="M42.2 16.23c-.16-.09-.16-.09-.16-.1.01-.19.01-.63-.16-.75-.04-.02-.08-.04-.11-.04-.14.04-.16.05-.27.03-.13-.04-.15-.06-.15-.07 0-.01.02-.02.13-.03.11.01.17-.03.22-.06.05-.03.1-.05.13-.05.16.01.27.11.31.26-.06-.15-.16-.24-.31-.25-.04 0-.08.02-.13.05-.06.03-.12.07-.18.07-.16-.01-.17.01-.17.01 0 .01.01.02.14.06.1.02.15 0 .19-.02l.07-.02c.03 0 .07.01.11.04.17.12.18.52.16.75.01.02.09.07.15.1.01-.03.09-.22.13-.31.18-.49.43-.56.51-.35.04.09.08.18.12.24-.05-.07-.1-.18-.13-.23-.07-.21-.32-.13-.49.35-.02.1-.11.31-.11.32zm.82-.39c-.04-.35-.17-.54-.36-.54s-.38.19-.44.44c0-.04-.01-.07-.01-.1.1-.19.28-.34.45-.34.2 0 .34.2.38.54h-.02"/><path d="M41.8 15.46c.23.04.34.24.3.55-.01.03.04.05.04.05.15-.49.84-.23.87.58-.01.12-.06.09-.12-.08-.07-.23-.47-.75-.65-.32-.05.09-.15.3-.15.3s-.15-.09-.15-.1c0-.01.08-.61-.12-.77-.16-.1-.26.03-.48-.02-.19-.07-.18-.1-.01-.09.03.01.38-.1.47-.1" fill="#1d4805"/><path d="M42.98 16.71c-.02 0-.06-.05-.09-.16-.05-.17-.28-.48-.46-.48-.08 0-.14.06-.19.16-.05.09-.15.3-.15.3-.15-.09-.16-.1-.16-.1.03-.24.04-.64-.12-.76-.07-.05-.15-.04-.23-.03-.07.02-.15.03-.24.01-.13-.05-.15-.07-.15-.08 0-.01.04-.02.11-.02.05 0 .11-.01.18-.03.11-.03.24-.06.31-.06.17.03.27.13.31.28-.05-.16-.15-.25-.3-.27-.07 0-.21.03-.32.06-.07.02-.13.03-.15.03-.11.01-.13.01-.13.01s.01.02.14.07c.08.02.17.01.24-.01.09-.02.17-.02.24.03.16.13.15.53.12.76 0 .02.09.08.14.11 0-.01.1-.21.15-.3.05-.11.11-.17.2-.17.19 0 .41.32.47.49.05.14.07.15.08.16 0-.01.02-.02.02-.08-.02-.5-.32-.82-.57-.82-.14 0-.24.09-.29.24 0-.03 0-.06-.01-.09.07-.09.17-.16.3-.16.27 0 .56.31.58.83 0 .06-.01.08-.03.08"/><path d="M41.74 15.82c.23.06.32.27.26.57-.01.03.03.06.04.05.18-.47.54-.03.49.7 0 .08-.11-.13-.16-.31-.05-.24-.03-.62-.24-.21-.06.09-.17.29-.17.29l-.14-.11c0-.01.13-.59-.06-.78-.15-.12-.39.29-.61.22-.19-.09-.17-.11-.01-.09.02.01.51-.35.6-.33" fill="#1d4805"/><path d="M42.53 17.16c-.03 0-.12-.18-.16-.33-.01-.05-.02-.11-.03-.17-.03-.2-.06-.31-.21-.03-.06.09-.18.29-.18.29-.15-.11-.15-.11-.15-.12.02-.13.05-.3.04-.46.02.16-.01.33-.03.45 0 .02.08.09.14.12 0-.01.11-.2.17-.29.15-.3.2-.17.22.04.01.06.02.12.03.17.04.16.13.32.15.32v.01-.02c.02-.41-.08-.71-.19-.83-.11-.11-.22-.06-.3.14v-.1c.14-.16.22-.13.3-.05.11.12.21.42.19.84l.01.02zm-1.33-.9c-.02-.01-.03-.01-.05-.02.14.01.23-.06.32-.12.08-.06.16-.11.22-.11l.03.03c-.1-.01-.17.04-.25.09-.09.06-.18.13-.27.13m-.08-.03c-.11-.05-.12-.06-.12-.08.07-.01.1-.01.13-.01.01 0 .1-.05.18-.11.16-.1.35-.22.42-.22.16.04.26.15.28.31-.04-.16-.13-.26-.28-.3-.07 0-.27.13-.42.22-.11.07-.17.11-.18.11-.04 0-.06-.01-.08-.01-.04.02-.03.04.07.09"/><path d="M44.34 25.76l-.02-.01c-3.36-1.41-5.47-3.16-5.61-7.51v-7.38h11.16v7.38c0 3.65-1.54 5.76-5.5 7.51l-.03.01zm-5.51-14.77v7.26c.14 4.3 2.13 5.96 5.52 7.39 3.89-1.72 5.41-3.8 5.41-7.39v-7.26H38.83z"/></svg>