<svg xmlns="http://www.w3.org/2000/svg" xmlns:xlink="http://www.w3.org/1999/xlink" viewBox="0 0 58.92 34.37"><defs><path id="a" d="M0 0h58.92v34.37H0z"/></defs><clipPath id="b"><use xlink:href="#a" overflow="visible"/></clipPath><path clip-path="url(#b)" fill="#120065" d="M0 0h58.92v34.37H0z"/><path clip-path="url(#b)" fill="#120065" d="M0 0h29.46v14.73H0z"/><path d="M14.73 9.02l11.44 5.72h3.29v-1.65L18.02 7.37l-3.29 1.65zM0 13.09v1.65h3.29l11.44-5.72-3.29-1.65L0 13.09zM0 0v1.65l11.44 5.72 3.29-1.65L3.29 0H0zm26.17 0L14.73 5.72l3.29 1.65 11.44-5.72V0h-3.29z" clip-path="url(#b)" fill="#fff"/><path clip-path="url(#b)" fill="#fff" d="M12.28 0v4.91H0v4.91h12.28v4.91h4.91V9.82h12.27V4.91H17.19V0z"/><path clip-path="url(#b)" fill="#ba0019" d="M13.26 0v5.89H0v2.95h13.26v5.89h2.94V8.84h13.26V5.89H16.2V0z"/><path d="M9.82 9.82L0 14.73h2.2l9.82-4.91h-2.2zm9.82 0l9.82 4.91v-1.1l-7.62-3.81h-2.2zM0 1.1l7.63 3.81h2.2L0 0v1.1zM27.27 0l-9.82 4.91h2.2L29.46 0h-2.19z" clip-path="url(#b)" fill="#ba0019"/><defs><path id="c" d="M38.84 24.7c-.03-.08-.06-.19-.07-.33 0-.06 0-.12-.01-.17.16.12.37.26.63.41-.07.04-.14.08-.22.09-.05.01-.1.02-.15.02-.06 0-.12-.01-.18-.02m10.38 0a.849.849 0 0 1-.22-.09c.25-.15.46-.29.62-.41 0 .05 0 .11-.01.17-.01.14-.04.25-.07.33-.06.01-.12.02-.18.02-.04 0-.09-.01-.14-.02m-9.97-1.76c.13-.14.34-.33.57-.36h.03c.15 0 .31.12.45.26-.01.03-.01.06-.02.08-.04.17-.1.39-.19.63-.34-.2-.63-.41-.84-.61m8.86-.02c-.01-.03-.01-.05-.01-.08.13-.14.29-.27.45-.26h.03c.22.03.43.22.57.36-.22.2-.5.41-.85.61a3.58 3.58 0 0 1-.19-.63m-.02-1.61l-.01.03-1.21 1.14c0 .03.06.86.29 1.59-.81.3-1.8.5-2.97.5-1.16 0-2.16-.21-2.97-.5.23-.73.29-1.56.29-1.59l-1.21-1.14-.01-.03c0-.04-.44-.15-.74-.15h-.02c-.04 0-.09 0-.12.01-.2.04-.51.69-.69 1.07-.27.33-.42.59-.53.78-.04.07-.11.16-.09.26-.41.1-.43.45-.43.59 0 .15.05.22.05.22l.25.46v.01c.26.54.65 1.27.87 1.33.31.09 1.11-.21 1.71-.71.99.4 2.24.74 3.65.74 1.41 0 2.67-.34 3.65-.74.6.51 1.4.8 1.71.71.22-.06.61-.8.87-1.34l.25-.46s.05-.07.05-.22c0-.14-.02-.49-.44-.59.02-.1-.05-.19-.09-.26-.11-.2-.26-.46-.54-.79-.18-.38-.49-1.02-.69-1.06-.04-.01-.09-.01-.14-.01-.3 0-.74.11-.74.15"/></defs><clipPath id="d"><use xlink:href="#c" overflow="visible"/></clipPath><linearGradient id="e" gradientUnits="userSpaceOnUse" x1="-507.916" y1="907.117" x2="-506.916" y2="907.117" gradientTransform="matrix(1.5659 -.8847 -.8896 -1.5573 1627.131 997.856)"><stop offset="0" stop-color="#96381a"/><stop offset="1" stop-color="#fff"/></linearGradient><path clip-path="url(#d)" fill="url(#e)" d="M35.59 22.34l11.94-6.75 5.27 9.21-11.95 6.75z"/><defs><path id="f" d="M0 0h58.92v34.37H0z"/></defs><clipPath id="g"><use xlink:href="#f" overflow="visible"/></clipPath><path d="M44.19 26.21c-1.48 0-2.75-.36-3.6-.7-.62.47-1.42.78-1.84.66-.13-.04-.39-.11-1.05-1.49l-.24-.46c-.01-.02-.08-.14-.08-.36 0-.38.17-.66.46-.81.03-.07.06-.13.09-.17l.05-.09c.11-.18.25-.43.5-.73.44-.95.66-1.16.89-1.2.05-.01.1-.01.16-.01.1-.02.86.01 1.03.31l1.25 1.18v.13c0 .06-.05.73-.23 1.4 1.62.53 3.6.53 5.22 0-.17-.67-.22-1.34-.22-1.4v-.13l1.23-1.16c.1-.31.86-.33 1.02-.33.07 0 .13.01.19.01.23.04.45.25.89 1.19.25.31.39.55.5.74l-.2.24.25-.15c.03.04.06.1.09.17.3.14.46.43.46.81 0 .21-.07.34-.09.38l-.24.44c-.61 1.27-.87 1.43-1.05 1.48-.41.12-1.22-.19-1.84-.66-1.16.47-2.4.71-3.6.71m-3.7-1.37l.17.07c.79.33 2.05.72 3.54.72 1.48 0 2.74-.39 3.54-.72l.17-.07.14.12c.51.43 1.14.66 1.39.66.04-.01.23-.15.73-1.19l.25-.47s.01-.03.01-.08c0-.21-.08-.28-.21-.31l-.28-.07.06-.28-.09-.11c-.11-.18-.24-.41-.47-.69l-.04-.06c-.32-.7-.47-.86-.51-.9 0 .01-.02 0-.05 0-.18 0-.41.05-.53.08l-.02.02-1.11 1.05c.02.25.1.84.27 1.39l.08.27-.26.1c-1.9.69-4.25.69-6.15 0l-.26-.1.08-.27c.17-.55.24-1.14.27-1.39l-1.13-1.07c-.14-.04-.49-.09-.61-.07.02 0-.12.13-.47.9l-.04.06c-.23.29-.36.51-.47.69l-.06.1.06.28-.31.07c-.13.03-.21.1-.21.31 0 .05.01.08.01.08l.25.46c.52 1.06.71 1.2.72 1.21.27-.01.9-.24 1.41-.67l.13-.12zm8.88.17c-.07 0-.15-.01-.21-.02-.11-.03-.22-.07-.32-.14l-.4-.26.41-.24c.24-.14.44-.28.59-.39l.49-.38-.02.62c0 .06-.01.11-.01.18-.01.15-.04.3-.09.43l-.06.15-.15.03c-.07.01-.15.02-.23.02m-10.36 0c-.08 0-.16-.01-.24-.03l-.15-.03-.06-.15c-.05-.13-.08-.27-.09-.43l-.02-.78.49.36c.15.12.35.25.6.39l.42.24-.41.26c-.1.06-.2.11-.32.14a.78.78 0 0 1-.22.03m9.13-1.03l-.12-.33c-.08-.22-.15-.45-.2-.67l-.04-.24.1-.1c.22-.24.44-.36.66-.36h.01c.31.04.56.19.81.46l.21.22-.22.2c-.25.23-.55.45-.89.65l-.32.17zm.28-1.04c.01.05.03.1.04.16.08-.05.15-.11.23-.16-.07-.05-.12-.06-.15-.06 0-.01-.04 0-.12.06m-8.18 1.04l-.3-.18c-.34-.2-.64-.41-.89-.64l-.22-.2.21-.22c.26-.27.5-.42.74-.45l.08-.01c.22 0 .43.12.66.36l.1.1-.04.24c-.04.2-.11.44-.2.67l-.14.33zm-.54-1.04c.07.06.15.11.23.16.02-.06.03-.1.04-.16-.08-.06-.12-.07-.12-.07-.03.01-.08.02-.15.07" clip-path="url(#g)" fill="#fff"/><defs><path id="h" d="M39.42 21.17c-.28.05-.79 1.31-.81 1.34-.02.03.49.61.51.58.02-.02.35-.46.7-.51.35-.05.77.63.77.63s-.28-1.86-.28-1.91c0-.04-.44-.15-.75-.15-.06.01-.1.01-.14.02"/></defs><clipPath id="i"><use xlink:href="#h" overflow="visible"/></clipPath><linearGradient id="j" gradientUnits="userSpaceOnUse" x1="-263.976" y1="837.256" x2="-262.976" y2="837.256" gradientTransform="matrix(-1.9799 -1.1696 1.1247 -2.0589 -1423.703 1437.874)"><stop offset="0" stop-color="#96381a"/><stop offset="1" stop-color="#fff"/></linearGradient><path clip-path="url(#i)" fill="url(#j)" d="M41.43 21.66l-2.36-1.39-1.34 2.44 2.36 1.4z"/><defs><path id="k" d="M0 0h58.92v34.37H0z"/></defs><clipPath id="l"><use xlink:href="#k" overflow="visible"/></clipPath><path d="M40.55 23.23c-.01-.01-.39-.62-.7-.62-.17.02-.39.12-.69.48-.12.01-.56-.5-.58-.57.01-.05.03-.09.05-.16.25-.56.57-1.2.78-1.24.04-.01.09-.01.14-.01.22 0 .78.09.78.19 0 .05.2 1.39.28 1.9l-.06.03zm-.74-.68c.29 0 .58.33.71.53-.07-.46-.26-1.72-.26-1.76-.04-.02-.57-.16-.84-.11-.21.04-.6.91-.73 1.2-.05.11-.06.12-.07.13.03.03.44.5.5.53.29-.4.54-.5.69-.52z" clip-path="url(#l)"/><defs><path id="m" d="M40.28 22.92c-.12.54-.49 1.63-1.12 1.78-.63.15-1.47-.73-1.47-.73s.79 1.83 1.14 1.92c.35.1 1.33-.29 1.93-.93.61-.63.74-2.43.74-2.48l-1.21-1.14c.01 0 .11 1.05-.01 1.58"/></defs><clipPath id="n"><use xlink:href="#m" overflow="visible"/></clipPath><linearGradient id="o" gradientUnits="userSpaceOnUse" x1="-224.214" y1="960.988" x2="-223.214" y2="960.988" gradientTransform="matrix(-4.3486 -.8052 .6752 -5.1862 -1582.098 4827.39)"><stop offset="0" stop-color="#96381a"/><stop offset="1" stop-color="#fff"/></linearGradient><path clip-path="url(#n)" fill="url(#o)" d="M42.1 21.45l-4.32-.8-.68 5.23 4.32.8z"/><defs><path id="p" d="M0 0h58.92v34.37H0z"/></defs><clipPath id="q"><use xlink:href="#p" overflow="visible"/></clipPath><path d="M38.96 25.94c-.05 0-.1 0-.14-.02-.35-.1-1.08-1.75-1.16-1.94.06-.03.77.7 1.35.7.05 0 .1-.01.14-.02.59-.14.96-1.16 1.09-1.75.11-.52.02-1.56.02-1.57l1.27 1.12c.01.04-.12 1.88-.74 2.53-.54.57-1.38.95-1.83.95m-1.29-1.95c.27.47.9 1.79 1.18 1.87.33.09 1.32-.31 1.9-.92.6-.63.74-2.44.74-2.46l-1.19-1.11c.06.1.14 1.04.03 1.56-.04.17-.38 1.62-1.14 1.8-.62.15-1.49-.7-1.52-.74" clip-path="url(#q)"/><defs><path id="r" d="M48.09 21.31c0 .05-.27 1.8-.28 1.9.02-.03.43-.68.77-.63.35.05.68.49.7.51.02.03.53-.56.51-.58-.02-.03-.53-1.29-.81-1.34-.04-.01-.09-.01-.14-.01-.31 0-.75.11-.75.15"/></defs><clipPath id="s"><use xlink:href="#r" overflow="visible"/></clipPath><linearGradient id="t" gradientUnits="userSpaceOnUse" x1="-133.354" y1="1253.37" x2="-132.354" y2="1253.37" gradientTransform="matrix(-2.0253 .118 .1134 2.1062 -362.353 -2601.94)"><stop offset="0" stop-color="#96381a"/><stop offset="1" stop-color="#fff"/></linearGradient><path clip-path="url(#s)" fill="url(#t)" d="M49.92 23.21l-2.11.12-.11-2.16 2.1-.13z"/><defs><path id="u" d="M0 0h58.92v34.37H0z"/></defs><clipPath id="v"><use xlink:href="#u" overflow="visible"/></clipPath><path d="M47.83 23.23l-.06-.02c.08-.51.28-1.85.28-1.9 0-.1.56-.19.78-.19.05 0 .1 0 .14.01.22.04.53.68.78 1.24.03.06.05.1.05.11-.02.09-.46.64-.54.64-.34-.39-.57-.49-.71-.51-.33.01-.71.62-.72.62m1-2.04c-.29 0-.68.1-.72.13.01.03-.18 1.28-.25 1.74.14-.19.42-.53.68-.53.19.02.43.13.74.51.04-.02.42-.46.47-.54-.01-.01-.02-.04-.05-.11-.13-.29-.52-1.16-.73-1.2-.04.01-.09 0-.14 0" clip-path="url(#v)"/><defs><path id="w" d="M46.88 22.48c0 .05.14 1.85.75 2.48.6.63 1.58 1.02 1.93.93.35-.1 1.14-1.92 1.14-1.92s-.84.88-1.47.73c-.63-.15-1-1.24-1.12-1.78-.12-.53-.02-1.58-.02-1.58l-1.21 1.14z"/></defs><clipPath id="x"><use xlink:href="#w" overflow="visible"/></clipPath><linearGradient id="y" gradientUnits="userSpaceOnUse" x1="-203.53" y1="1133.555" x2="-202.53" y2="1133.555" gradientTransform="matrix(-4.2945 .3647 .3058 5.1217 -1169.958 -5708.031)"><stop offset="0" stop-color="#96381a"/><stop offset="1" stop-color="#fff"/></linearGradient><path clip-path="url(#x)" fill="url(#y)" d="M50.97 25.97l-4.08.34-.29-4.95 4.07-.34z"/><defs><path id="z" d="M0 0h58.92v34.37H0z"/></defs><clipPath id="A"><use xlink:href="#z" overflow="visible"/></clipPath><path d="M49.43 25.94c-.45 0-1.29-.38-1.83-.95-.63-.65-.75-2.49-.75-2.51l1.22-1.17c.06.04-.03 1.08.08 1.6.13.59.5 1.61 1.09 1.75.58.14 1.43-.71 1.43-.72-.03.23-.75 1.88-1.11 1.98-.04.02-.08.02-.13.02m-2.53-3.43c.01 0 .15 1.81.75 2.44.58.61 1.57 1.01 1.9.92.26-.07.85-1.31 1.09-1.85-.14.21-.89.85-1.42.72-.63-.15-1.01-1.2-1.14-1.8-.12-.54-.03-1.55-.03-1.59l-1.15 1.16z" clip-path="url(#A)"/><defs><path id="B" d="M44.19 24.58c-3.48 0-5.45-1.85-5.45-2.36-.28.34-.43.6-.54.8-.12.19-.05.46.22.85.29.42 2.67 2.05 5.78 2.05 3.11 0 5.49-1.63 5.78-2.05.27-.39.34-.66.22-.85-.12-.2-.27-.46-.54-.8-.01.51-1.99 2.36-5.47 2.36"/></defs><clipPath id="C"><use xlink:href="#B" overflow="visible"/></clipPath><linearGradient id="D" gradientUnits="userSpaceOnUse" x1="-246.577" y1="1088.606" x2="-245.577" y2="1088.606" gradientTransform="matrix(-12.1064 0 0 12.1064 -2934.912 -13154.983)"><stop offset="0" stop-color="#96381a"/><stop offset="1" stop-color="#fff"/></linearGradient><path clip-path="url(#C)" fill="url(#D)" d="M38.08 22.22h12.23v3.7H38.08z"/><defs><path id="E" d="M0 0h58.92v34.37H0z"/></defs><clipPath id="F"><use xlink:href="#E" overflow="visible"/></clipPath><path d="M44.19 25.96c-3.24 0-5.56-1.7-5.82-2.06-.28-.4-.35-.69-.22-.9.14-.24.29-.49.55-.81l.08-.1v.12c0 .5 1.97 2.31 5.41 2.31 3.44 0 5.41-1.82 5.41-2.31v-.11l.08.1c.25.31.39.55.51.74l.04.06c.13.21.06.5-.22.9-.33.48-2.8 2.06-5.82 2.06m-5.48-3.64c-.21.27-.34.49-.45.66-.14.23-.07.49.18.86.24.35 2.59 2.03 5.74 2.03 3.16 0 5.5-1.68 5.74-2.03.26-.37.32-.63.22-.8l-.04-.07c-.1-.17-.23-.39-.44-.66-.2.67-2.18 2.3-5.48 2.3-3.29.01-5.26-1.62-5.47-2.29" clip-path="url(#F)"/><defs><path id="G" d="M49.35 25.11c-.05.29.21.58.16.51.05-.07.54-.93.54-.93l-.27-.2c-.08.25-.39.33-.43.62"/></defs><clipPath id="H"><use xlink:href="#G" overflow="visible"/></clipPath><linearGradient id="I" gradientUnits="userSpaceOnUse" x1="-281.023" y1="1036.151" x2="-280.023" y2="1036.151" gradientTransform="matrix(17.657 .1429 .0925 -27.275 4904.63 28326.223)"><stop offset="0" stop-color="#96381a"/><stop offset="1" stop-color="#fff"/></linearGradient><path clip-path="url(#H)" fill="url(#I)" d="M49.3 24.49l.75.01-.01 1.2-.75-.01z"/><defs><path id="J" d="M0 0h58.92v34.37H0z"/></defs><clipPath id="K"><use xlink:href="#J" overflow="visible"/></clipPath><path d="M49.51 25.67l-.04-.02c-.06-.06-.21-.3-.17-.54.03-.17.14-.27.24-.37.08-.07.16-.15.19-.25l.32.18c.01.04-.48.9-.53.97l-.01.03zm.25-1.14c.01.1-.07.18-.16.26-.1.09-.2.18-.22.33-.03.19.08.39.14.46.12-.23.5-.9.5-.9l-.26-.15z" clip-path="url(#K)"/><defs><path id="L" d="M49.6 23.73s.05.22.02.63c-.02.42-.21.53-.26.66-.02.06.01 0 .1-.05.07-.05.18-.09.32-.07.3.05.21.46.21.46l.68-1.27s.05-.07.05-.22c0-.14-.02-.54-.51-.61-.03 0-.06-.01-.09-.01-.42.01-.52.48-.52.48"/></defs><clipPath id="M"><use xlink:href="#L" overflow="visible"/></clipPath><linearGradient id="N" gradientUnits="userSpaceOnUse" x1="-86.334" y1="1249.287" x2="-85.334" y2="1249.287" gradientTransform="matrix(-1.4346 .0858 .0573 2.1511 -144.69 -2655.695)"><stop offset="0" stop-color="#96381a"/><stop offset="1" stop-color="#fff"/></linearGradient><path clip-path="url(#M)" fill="url(#N)" d="M50.77 25.35l-1.42.09-.06-2.18 1.43-.09z"/><defs><path id="O" d="M0 0h58.92v34.37H0z"/></defs><clipPath id="P"><use xlink:href="#O" overflow="visible"/></clipPath><path d="M50.03 25.37l-.06-.02s.05-.21-.04-.33c-.03-.05-.08-.08-.15-.09-.21 0-.32.08-.37.12l-.08.01c.02-.09.04-.13.07-.17.07-.1.17-.24.19-.53.02-.4-.02-.62-.02-.63 0-.02.14-.58.64-.5.35.05.54.28.54.64 0 .15-.05.23-.05.24l-.67 1.26zm-.32-.51h.08c.08.02.15.05.19.12.04.07.06.15.06.22l.6-1.12s.04-.07.04-.2c0-.33-.16-.53-.48-.58-.46-.06-.57.43-.57.44 0 0 .05.22.02.63-.02.31-.12.46-.2.57-.01.01-.02.03-.03.04.06-.07.16-.12.29-.12M48.3 23.81l.1.18.06-.04-.04-.12.01-.02.11-.07.31.53-.01.02-.06.05.03.05.29-.18-.03-.05-.06.03h-.03l-.3-.54.11-.07h.03l.07.1.07-.04-.1-.18zM47.58 24.23l.02.05.06-.03.03.01.26.54-.01.03-.05.04.02.04.29-.15-.03-.05-.06.03-.02-.01-.13-.26.3-.15.12.26-.01.02-.06.04.03.05.28-.15-.02-.05-.06.02h-.03l-.26-.55.01-.02.06-.04-.03-.05-.28.15.02.05.06-.02.03.01.1.22-.29.15-.11-.22.01-.03.06-.03-.02-.05zM47.41 24.69l.02.06.08-.02.02.01.07.22c-.03.01-.05.02-.06.02-.17.05-.3-.03-.36-.23-.06-.19.01-.34.17-.39.03-.01.06-.01.1-.01l.02.02.05.11.08-.03-.05-.19c-.09 0-.17.01-.24.04-.24.08-.35.28-.29.5.07.23.27.34.49.27.08-.02.16-.07.23-.12l-.07-.25.01-.02.06-.02-.01-.06-.32.09zM46.74 25.32l.32-.1-.01-.06-.08.02-.02-.01-.18-.58.02-.03.07-.02-.02-.06-.32.11.01.05.07-.02.03.01.17.59-.01.02-.07.03zM44.98 25.61l.57-.06-.01-.2h-.08v.13l-.02.02-.24.02-.03-.3.14-.01.02.01.01.09.07-.01-.03-.26h-.06v.09l-.02.01-.13.01-.03-.27.21-.02.02.02.02.1.08-.01-.02-.18-.53.05v.05h.07l.01.02.06.61-.02.02-.06.01zM44.13 24.86v.05l.07.01.01.01.01.61-.01.02-.06.01v.05h.3v-.06h-.07l-.02-.02v-.29l.31-.01v.29l-.01.02-.07.01.01.06.3-.01v-.06h-.07l-.01-.02-.01-.61.01-.02h.06v-.06l-.3.01v.05l.07.01.01.02.01.25h-.31v-.25l.01-.02h.07l-.01-.06zM43.48 24.83v.21h.07l.02-.13.02-.01h.13l-.01.62-.01.02-.07.01-.01.05.32.01v-.06l-.06-.01-.02-.01v-.63h.13l.02.02.01.12h.08v-.2zM42.5 25.48l.56.03.01-.21H43l-.02.12-.02.02-.24-.01.01-.3h.14l.01.02.01.08.06.01.01-.27h-.06l-.01.08-.02.02-.13-.01.01-.27.21.01.01.01.01.11h.07l.01-.18-.52-.03-.01.06.07.01.01.01-.02.61-.02.02h-.06zM41.22 25.15l.3.1.02-.05-.07-.03-.01-.03.18-.58.02-.01.07.02.01-.05-.29-.1-.02.05.06.03.02.02-.18.58-.02.01-.07-.01zM40.7 24.95c.06.05.12.08.18.1.16.06.29 0 .33-.13.02-.07.01-.14-.04-.19-.05-.06-.1-.09-.12-.13-.04-.05-.06-.1-.04-.14.02-.06.08-.09.15-.06.03.01.05.02.07.04l.01.02-.02.12.07.03.05-.18a.4.4 0 0 0-.18-.1c-.14-.05-.26.01-.3.13-.02.05-.01.12.02.17.03.05.07.09.11.12.06.06.08.11.06.17-.02.06-.08.09-.16.06-.03-.01-.06-.02-.08-.04l-.01-.02.02-.14-.08-.03-.04.2zM40.03 24.67l.5.25.09-.19-.07-.03-.06.1-.02.01-.22-.11.12-.27.12.06.01.03-.02.08.05.02.11-.24-.05-.02-.05.07h-.02l-.12-.06.11-.24.19.09.01.02-.03.1.06.03.08-.16-.48-.24-.02.05.06.04v.02l-.25.55-.02.01-.06-.03zM39.94 23.75l-.25-.18-.03.05.05.04v.02l-.32.51-.02.01-.06-.03-.03.05.25.17c.09.06.16.09.24.08.11-.01.2-.07.27-.19.14-.2.1-.39-.1-.53m-.1 0l.05.04c.14.09.15.23.04.41-.11.18-.23.22-.37.13l-.05-.03.33-.55zM41.86 24.55l-.01.05.06.02.01.02-.12.6-.02.02-.06-.01-.02.05.29.06.01-.06-.06-.02-.01-.02.05-.25H42c.1.02.12.08.13.19.01.06 0 .11.05.17.02.02.05.05.1.06.03.01.07.01.1.01l.01-.05h-.01c-.07-.01-.09-.04-.1-.1-.01-.06 0-.13-.02-.18-.02-.04-.04-.07-.09-.09.12 0 .19-.05.21-.15.03-.13-.04-.21-.2-.24l-.32-.08zm.19.1l.05.01c.1.02.14.08.12.17-.02.1-.08.14-.19.11-.01 0-.02 0-.04-.01l.06-.28zM45.79 24.72l.01.05.07-.01.02.01.1.6-.01.02-.07.02.01.06.32-.05-.01-.06-.07.01-.02-.02-.04-.25h.02c.11-.02.15.03.2.13.03.05.05.1.11.14.03.02.07.02.12.02.03-.01.07-.02.11-.03l-.01-.05h-.02c-.08.01-.11 0-.14-.06-.03-.05-.05-.11-.09-.16a.173.173 0 0 0-.13-.05c.12-.05.18-.12.16-.23-.02-.13-.12-.18-.29-.15l-.35.06zm.24.02l.05-.01c.11-.02.17.02.19.12.02.1-.03.16-.15.18-.01 0-.03 0-.04.01l-.05-.3z" clip-path="url(#P)"/><defs><path id="Q" d="M38.34 24.7s.49.85.53.93c-.05.07.21-.22.16-.51-.05-.29-.35-.37-.43-.61l-.26.19z"/></defs><clipPath id="R"><use xlink:href="#Q" overflow="visible"/></clipPath><linearGradient id="S" gradientUnits="userSpaceOnUse" x1="-423.524" y1="1273.853" x2="-422.524" y2="1273.853" gradientTransform="matrix(1.3838 .2195 -.1421 2.1377 805.237 -2605.085)"><stop offset="0" stop-color="#96381a"/><stop offset="1" stop-color="#fff"/></linearGradient><path clip-path="url(#R)" fill="url(#S)" d="M38.27 25.68l.81.13.09-1.3-.82-.13z"/><defs><path id="T" d="M0 0h58.92v34.37H0z"/></defs><clipPath id="U"><use xlink:href="#T" overflow="visible"/></clipPath><path d="M38.84 25.65l-.01-.02.02-.03c-.05-.04-.54-.89-.54-.89l.28-.24c.09.12.16.19.24.26.1.1.21.2.24.37.04.24-.11.48-.17.54l-.06.01zm-.47-.93c.03 0 .41.66.52.84.05-.08.15-.27.12-.45-.02-.15-.12-.24-.22-.33-.08-.08-.17-.16-.21-.27l-.21.21z" clip-path="url(#U)"/><defs><path id="V" d="M38.18 23.26c-.49.07-.51.46-.51.61 0 .15.05.22.05.22l.67 1.27s-.09-.41.21-.46c.14-.02.25.02.32.07.09.06.12.11.1.05-.05-.13-.23-.24-.26-.66-.02-.41.02-.63.02-.63s-.1-.47-.52-.47h-.08"/></defs><clipPath id="W"><use xlink:href="#V" overflow="visible"/></clipPath><linearGradient id="X" gradientUnits="userSpaceOnUse" x1="-214.828" y1="908.352" x2="-213.828" y2="908.352" gradientTransform="matrix(-2.3501 -1.3044 .8699 -3.5238 -1255.565 2945.542)"><stop offset="0" stop-color="#96381a"/><stop offset="1" stop-color="#fff"/></linearGradient><path clip-path="url(#W)" fill="url(#X)" d="M39.5 23.51l-1.66-.92-.63 2.51 1.67.93z"/><defs><path id="Y" d="M0 0h58.92v34.37H0z"/></defs><clipPath id="Z"><use xlink:href="#Y" overflow="visible"/></clipPath><path d="M38.36 25.37l-.67-1.27s-.05-.08-.05-.23c0-.46.29-.6.54-.64.52-.07.64.48.64.49 0 .02-.04.23-.02.64.02.29.11.43.19.53.03.04.05.08.07.11l-.02.07c-.1-.07-.2-.15-.35-.15-.13.02-.18.05-.21.09-.08.13-.04.33-.04.33l-.08.03zm-.09-2.08c-.03 0-.05 0-.08.01-.32.05-.48.24-.48.57 0 .14.04.2.04.2l.6 1.13c0-.07.02-.15.06-.22.04-.06.11-.1.19-.12.15-.02.26.02.33.07-.07-.1-.18-.26-.2-.57-.02-.41.02-.64.02-.64s-.1-.43-.48-.43" clip-path="url(#Z)"/><defs><path id="aa" d="M38.6 7.94h11.18v16.29H38.6z"/></defs><clipPath id="ab"><use xlink:href="#aa" overflow="visible"/></clipPath><path d="M44.19 24.23s-5.62-1.66-5.59-7.96l.04-8.33h11.09l.04 8.28c.04 6.3-5.58 8.01-5.58 8.01" clip-path="url(#ab)" fill="#386fc0"/><defs><path id="ac" d="M0 0h58.92v34.37H0z"/></defs><clipPath id="ad"><use xlink:href="#ac" overflow="visible"/></clipPath><path d="M44.19 24.35l-.03-.01c-.06-.02-5.7-1.75-5.67-8.07l.04-8.44h11.32l.04 8.4c.03 6.31-5.61 8.1-5.67 8.12h-.03zm-5.43-16.3l-.04 8.22c-.03 5.89 5.01 7.69 5.47 7.84.46-.15 5.51-1.99 5.47-7.89l-.04-8.17H38.76z" clip-path="url(#ad)" fill="#fff"/><path d="M39.42 9.82c.01 0 .08-.06.14-.12.09-.04.17-.11.26-.15.07-.04.2-.07.26-.1.08-.04.14-.09.21-.17.01-.11.03-.19.03-.32.09-.04.17-.09.26-.12.12-.03.14-.08.26-.09.07-.03.2-.03.3-.03.12 0 .19.08.29.1.11.06.17.09.26.18.05.07.09.13.18.18.08.04.15.1.23.12.1.06.18.09.26.17.07.05.1.12.16.17.08.06.15.12.23.17.1.07.2.12.36.1.09 0 .18-.01.28 0 .12 0 .23 0 .33.03.12 0 .21.02.33.03.1.02.21.02.33.02.1.03.21.03.33.03h.65c.12 0 .24 0 .33.02.12 0 .22-.01.33-.02.13 0 .22-.02.35-.03h.4c.1.03.23.05.3.1.09.03.14.07.23.1.07.03.18.09.23.17.07.07.13.17.19.27.07.09.09.2.14.32.03.11.05.21.05.34.02.1.02.22.02.34-.03.11-.03.24-.07.34 0 .12-.03.23-.05.32-.02.1-.04.16-.05.29v.34c-.01.11-.03.19-.05.32-.06.11-.11.23-.16.36a.72.72 0 0 0-.19.2c-.05.03-.08.08-.07.1.09.03.07.1.07.22.01.09.02.21.05.32.01.11.03.19.07.27.04.05.04.02-.05.02-.07.05-.14.03-.16-.07a.612.612 0 0 1-.09-.27.772.772 0 0 0-.07-.29c-.01-.14-.05-.14-.19-.15-.07-.06-.15-.07-.28-.07-.13 0-.14-.01-.14.12v.34c-.02.1-.07.18-.09.27-.07.05-.11.14-.19.2-.04.11-.09.13-.21.15-.04-.05-.11-.11-.14-.17.07-.11.12-.13.16-.24l.12-.24c-.05-.08-.09-.11-.14-.22-.04-.06-.09-.19-.12-.27-.08-.03-.2-.03-.26-.07-.11-.03-.14.1-.28.1h-.32c-.15 0-.18.08-.3.07-.04.01-.12-.01-.26 0-.1.04-.21.03-.33.03-.12 0-.22-.03-.3-.05-.11-.03-.21-.06-.33-.07-.14 0-.19.01-.28.07-.07.05-.18.14-.26.2-.03.08-.05.22-.09.32-.03.09-.07.15-.09.24-.03.08-.06.17-.07.29-.01.17-.04.14-.14.1-.04-.07-.1-.14-.14-.22.02-.12.04-.19.05-.32-.02-.09-.08-.09-.14-.02 0 .13 0 .22-.05.29-.03.1-.07.14-.14.19-.04.09-.11.13-.18.17-.01 0 0-.03 0-.1-.06-.11-.01-.2-.01-.34 0-.12-.01-.2.03-.32 0-.12-.06-.23-.07-.31-.04-.09-.07-.14-.19-.17a.816.816 0 0 1-.26-.14.432.432 0 0 0-.21-.17c-.11-.04-.16-.08-.23-.12-.07-.08-.13-.12-.16-.22-.05-.08-.06-.21-.09-.32-.01-.1-.04-.2-.07-.29-.01-.11-.03-.18-.07-.29-.01-.1-.04-.2-.07-.32 0-.12 0-.23-.02-.34v-.34c-.02-.1-.02-.24-.05-.32 0-.13-.01-.21-.05-.29-.05-.09-.06-.13-.14-.15-.06.08-.16.11-.28.12-.09-.02-.21-.03-.3-.07-.09-.02-.16-.06-.23-.1-.04-.06-.09-.13-.14-.2-.02-.13-.04-.19-.05-.32.01-.12.01-.07.1-.2" clip-path="url(#ad)" fill="#bababa"/><path d="M40.8 10.7l.02-.02c-.04.04-.02.02.07-.02.05-.03.15-.09.18-.12.04-.02.11-.05.15-.09.04-.05.09-.09.15-.14.07-.06.13-.07.2-.12.09-.01.13-.05.21-.02.08.02.12.02.18-.05.07-.04.14-.08.16-.15v-.1c0 .11-.02.15-.1.19-.05.06-.12.13-.15.19-.05.08-.06.12-.12.16-.04.05-.11.08-.13.17.02.04 0 .06.05.07.05.04.1.02.16 0 .07-.08.1-.13.13-.21.05-.08.08-.11.11-.17.06-.04.09-.07.12-.14.07-.04.12-.08.16-.12.05-.03.08-.06.15-.07 0 .09-.01.14-.05.19-.02.1-.01.14.02.21.05.03.04.05.07.12.03-.06.04-.17.05-.24v-.02c0 .08.01.18-.02.23 0 .1.02.14.05.22.03.04.05.06.08.09 0-.1.03-.17.03-.26.02.07.01.17.03.24.01.08.03.14.07.21.04.02.05.09.06.03.04-.12.04-.25.07-.38 0-.06.01-.16.03-.2l-.03.2c0-.06.01-.16.03-.2v-.02c.02.09.03.18.03.28 0 .08-.01.16.02.22.05-.02.09-.08.11-.15.04-.08.07-.12.13-.19l-.13.19c.04-.08.07-.12.13-.19v-.02c-.01.08-.02.15-.02.24 0 .08 0 .17.02.22.02.09.05.11.05.21 0 .05-.01.1.02.12.07.02.07-.02.08-.12 0-.11.03-.19.03-.29 0-.13.02.01.03.07.03.08.04.15.05.22 0 .05-.01.1.02.12.07-.03.09-.1.13-.14.03-.08.07-.12.1-.17.09-.02.08-.05.08-.15 0-.08-.01-.17.02-.24.03-.07.05-.16.07-.22.03-.02.06.03.08.07.04.05.03.14.03.22.02.08.05.14.08.2.04.08.08.13.11.17.02.06.02.15.02.22.06-.07.08-.18.08-.29-.01-.07-.01-.17-.03-.24 0-.08-.02-.16-.03-.21-.05-.03-.07-.05-.02-.12.05-.04.11-.03.2-.02.05.05.06.07.07.17 0 .09 0 .16.03.22.03.05.07.08.08.17.03.02.04.06.08.02.02-.05.03-.15.05-.21.02-.06.04-.1.08-.12 0 .1 0 .15.03.22.03.08.05.11.08.19.04.02.04.08.08.1.01-.08.02-.18.02-.28v-.24c.01-.08.03-.13.05-.19.05.07.05.09.05.19.05-.02.06-.06.08-.12.04-.03.05-.05.07.04.01.09.03.17.05.26.03.04.07.14.12.17.03.05.06.1.1.14.03.06.03.09.1.1 0-.12 0-.23-.02-.34 0-.1-.02-.14-.03-.22-.03-.06-.05-.15-.03-.17.08.08.11.12.15.21.04.08.07.14.1.22.04.03.1.13.13.17.06.05.09.11.15.15.03.03.1.05.11.04 0-.1-.02-.19-.05-.28 0-.1-.02-.15-.05-.21-.07-.06-.11-.09-.15-.17-.03-.02-.03-.04-.03-.09.09.08.16.15.23.24.05.06.07.09.13.12.03.04.13.08.2.1.04.05.1.09.16.1l-.16-.1c.04.05.1.09.16.1v.02a.672.672 0 0 0-.1-.28.471.471 0 0 0-.15-.19.49.49 0 0 0-.16-.16c-.05-.05-.11-.14-.15-.17.07-.05.15.03.23.07.06.07.12.16.16.21.04.09.08.14.15.22.07.04.12.08.18.14.09.03.06-.01.03-.09-.03-.1 0-.1.07-.03.05.03.1.09.16.12.03.04.07.06.11.04.02-.03.02-.02.02-.05-.03-.11-.07-.19-.15-.22-.04-.05-.1-.11-.15-.16-.03-.05-.07-.08-.1-.14l.1.14c-.03-.05-.07-.08-.1-.14h-.02c.1 0 .13.03.21.07.06.02.12.08.15.12.03.04.09.09.12.14.05.04.11.08.17.12.05.07.07.12.07.22.03.05.04.15.05.21-.01.09-.05.02-.05-.04-.01-.08-.04-.07-.1-.05 0 .1.01.13.05.21-.01.07-.03.13-.07.17-.04.02-.05-.05-.08-.09 0-.11-.03-.12-.1-.17v.07c.04.07.08.14.08.24.03.08.03.13.03.22s0 .17-.02.24c0 .09-.02.13-.02.22v.48c-.01.06-.02.14-.02.22l.02-.22c-.01.06-.02.14-.02.22v.02c-.03-.09-.07-.17-.08-.26a.452.452 0 0 1-.11-.17c-.01-.07-.02-.16-.03-.22-.02-.06-.05-.13-.1-.09-.02.13.01.21.05.33.03.08.02.15.05.22.04.09.07.1 0 .2-.03.06-.05.07-.07.14-.06.03-.08.05-.08.12-.02-.07-.07-.15-.1-.22-.03-.08-.07-.17-.08-.24-.04-.06-.09-.15-.13-.19-.04-.06-.1-.15-.13-.21-.06-.07-.08-.11-.13-.15-.02-.03-.03-.08-.07-.05 0 .08-.01.17.02.24.02.1.05.16.05.26v.19c-.04-.1-.08-.18-.12-.28-.04-.05-.07-.15-.11-.19-.03-.07-.05-.12-.08-.17-.01-.05-.03-.05-.05-.09 0 .1.03.13.05.2.03.07.04.18.03.21-.04-.12-.08-.25-.13-.36-.05-.07-.1-.16-.13-.23-.05-.06-.1-.06-.15-.1a.345.345 0 0 1-.12-.09c.01.09.05.15.07.22.01.09.05.16.07.22-.02.12-.05-.03-.07-.09-.02-.1-.05-.15-.08-.21-.04-.03-.08-.09-.13-.12-.05-.02-.03 0-.03.07 0 .11 0 .18.03.24.03.05.03.11.03.2 0 .09-.02.15-.02.24v.14c-.04-.07-.07-.11-.1-.21-.06-.08-.07-.14-.12-.22-.03-.02-.09-.03-.13 0 .01.09.04.13.05.22-.07.07-.05.09-.1-.02-.04-.08-.08-.08-.13-.12-.08-.01-.06-.07-.08-.14 0-.07.01-.13-.02-.19-.09 0-.14 0-.2.05-.03.05-.02.15 0 .22v.24c-.02.06-.06.06-.07.14-.03.07-.04.15-.07.2-.06.05-.03.06-.07-.03v-.55c0-.09.01-.14.02-.22-.03-.07-.04-.08-.15-.09-.03.04-.02.13 0 .17 0 .08 0 .16.02.22 0 .09.01.15.02.22 0 .09-.02.17-.07.21-.06.02-.01.05-.07.07a.707.707 0 0 1-.18-.12c-.07-.02-.13-.04-.21-.04-.11 0-.11-.01-.15-.1-.03-.1-.05-.18-.07-.28-.03-.08-.04-.14-.07-.22a.4.4 0 0 0-.1-.12c-.02.09-.05.16-.05.26-.02.04-.02.14-.03.19-.03-.05-.04-.15-.07-.22-.03-.1-.06-.17-.16-.14-.11 0-.11 0-.11.12.05.07.1.15.13.21v.24c0 .1.01.13-.07.16-.03-.1-.08-.2-.15-.29-.01-.07-.03-.05-.1-.05-.04 0-.09-.01-.11.02v.15c-.04.01-.06 0-.08-.04-.03.05-.01.12 0 .19a.57.57 0 0 1-.08.19c-.01-.02-.02-.02 0-.02-.11-.04-.2-.07-.3-.1-.06.01-.1.06-.13.1-.08.03-.12.05-.21.05s-.13.01-.21.02c-.06.01-.13.02-.21.02-.04-.01-.12-.01-.15-.03.03-.05.07-.08.1-.16a.49.49 0 0 0 .13-.12c.04-.03.09-.1.13-.14.03-.08.06-.1.11-.14.1 0 .12.04.21.05.09.04.15.05.2-.02.08-.03.14-.08.23-.1.07-.03.11-.07.17-.1.07-.04.1-.09.17-.14.02-.07.07-.13.05-.21-.09-.02-.14-.01-.2.04l-.16.14c-.07.02-.1.05-.18.07-.07.02-.15.02-.23.02-.07 0-.17-.01-.21.02.07-.05.16-.1.23-.12.07-.05.09-.07.18-.07.04-.05.08-.05.1-.14.03-.1-.06-.07-.13-.04-.07.01-.14.06-.2.09-.06.02-.14.03-.21.04-.02-.03.02-.05.03-.1.08-.03.09-.04.1-.12-.09.01-.12.04-.2.05-.08.02-.17.03-.26.03h-.23c-.08 0-.12-.02-.21-.02-.07-.04-.07-.05-.07-.16.05-.06.1-.05.2-.05.07-.04.13-.05.18-.09.06-.01.1-.04.08-.07h-.19c-.09-.04 0-.06.05-.09.08 0 .16 0 .22.03.1 0 .13-.04.21-.1.06-.05.09-.08.16-.12.05-.06.1-.09.13-.14.07-.07.11-.1.15-.15.04-.02.07-.06.05-.09-.1.01-.14.05-.21.1-.04.04-.08.08-.13.1-.08.05-.12.06-.21.07-.08 0-.15-.01-.23-.02-.09-.01-.01-.03.02-.07.03-.03.06-.08.03-.12-.07-.03-.15-.02-.23-.02h-.23c-.09 0-.12-.02-.18-.05-.02-.05.01-.04.07-.04.08 0 .14-.01.21-.04.08-.02.09-.05.1-.14-.08 0-.16 0-.22-.02h-.16zM39.37 10.31c-.02-.13-.04-.19-.05-.32 0-.09 0-.04.09-.17.01 0 .08-.06.14-.12.09-.05.17-.11.26-.15.07-.04.2-.07.26-.1.08-.04.14-.09.21-.17.01-.11.02-.19.02-.32.09-.05.17-.09.26-.12.12-.03.14-.08.26-.1.07-.03.2-.03.3-.03.12 0 .19.08.29.1.13.07.19.1.28.19.05.07.09.13.18.18.08.04.15.1.23.12 0 .09.02.07-.04.07-.01.09-.03.09-.11.09-.07-.03-.11-.09-.15-.14.03-.09.01.07 0 .1-.04.03-.07.07-.12.03a.604.604 0 0 1-.05-.24c-.01-.11-.04-.03-.07.02-.02.09-.01.12.02.19-.08 0-.15-.01-.21-.02-.06-.02-.13 0-.2.03-.09.05-.06.05-.02.12.08.02.13.06.2.1.08-.02.16-.03.23-.05.08-.03.15-.01.23 0 .04.02.09.02.12.05 0 .05 0 .11-.02.14-.03.02-.07.09-.11.1-.07.04-.15.07-.23.09-.1 0-.14.03-.21.07-.01.09-.04.11-.12.14-.08.03-.14.05-.23.05-.05 0-.09.01-.12-.02.07-.08.1-.12.13-.21.01-.03.04-.06.02-.09-.1 0-.12 0-.13.1-.01.09-.05.11-.11.14.02-.08.02-.15.05-.22-.06.01-.13.02-.21.02-.05.03-.07.04-.05.1-.07.02-.15.01-.23 0-.07 0-.03-.04-.08-.07-.03-.06-.07-.08-.15-.09-.04.05-.11.07-.15.1-.07.02-.12.01-.18-.03-.08 0-.07.03-.05.09.03.02 0 .04.05.05.05.04.09.05.18.05.07-.02.15-.02.23-.02.08 0 .07.02.07.1-.05.04-.13.03-.21.03a.973.973 0 0 1-.2-.05c-.08 0-.14-.02-.2 0-.03.03-.11.04-.02.05.04.03.23.02.24.07.05.05.04.12-.04.12-.05-.02-.08-.02-.12 0-.05.02-.12.01-.21.01.12.05-.1-.1-.15-.16" clip-path="url(#ad)" fill="#fdfdfd"/><path d="M39.89 9.74c-.01 0-.06.04-.1.07-.07.04-.15.11-.2.14-.04.03-.04.04-.08.05.08-.01.11-.03.18-.07.09-.01.17-.03.21-.07.05-.02.01-.09-.01-.12M40.65 8.93c.01 0 .03.06.07.09.02.07.05.11.05.19.02-.08.06-.15.07-.24-.03-.05-.03-.07-.1-.07-.01.04 0 .01-.09.03" clip-path="url(#ad)" fill="#bababa"/><path d="M40.14 9.63c-.04 0 .06-.04.1-.05.03-.06.05-.1.1-.14.08.01.12.03.16.08.07.02.09.05.18.07.03.03.08.03 0 .05-.05.03-.12.04-.2.04a.83.83 0 0 0-.2.05c-.1.01-.08.01-.14-.1" clip-path="url(#ad)" fill="#c2c2c0"/><path d="M40.27 9.76c-.08 0-.1-.01-.13-.08s-.01-.08.08-.12c.03-.06.05-.1.11-.14.1 0 .15.03.2.09 0 .01.04.01.06.02.03.01.06.03.1.04l.06.06v.02l-.06.02c-.05.03-.12.04-.2.04-.07.01-.13.02-.19.05h-.03zm.07-.29c-.03.03-.05.07-.07.12-.05.03-.1.05-.11.06.06.06.06.06.12.06v.02l.01-.02c.06-.03.13-.05.21-.05.07 0 .14-.01.19-.03-.05-.01-.08-.03-.11-.04a.488.488 0 0 0-.07-.03c-.06-.06-.09-.08-.17-.09" clip-path="url(#ad)"/><path d="M40.95 8.95v.02c0-.05 0-.02.02.07.02.05.03.11.03.2.04-.03.08-.1.1-.16 0-.13-.02-.12-.15-.13M41.56 10.93h.01c-.05 0-.02 0 .07-.05.06-.04.1-.1.18-.12.08-.06.13-.09.22-.12.04-.02.07-.05.11-.02-.01.08-.03.12-.1.16a.36.36 0 0 1-.15.1c-.05.03-.11.03-.13.09-.09.03-.1.02-.21-.04M41.87 11.42c.03-.02.13-.13.18-.17.05-.08.11-.13.16-.17.05-.07.11-.12.15-.19.04-.06.08-.11.13-.17 0 .07-.01.17.02.22a.364.364 0 0 1-.2.35c-.08.04-.12.06-.18.1l-.15.09c-.04.02-.02.01-.11-.06M41.36 11.82h.02c-.05 0-.02 0 .07-.05.07-.07.13-.1.21-.14.07-.01.15-.02.2-.05.04-.01.07-.03.1 0 .05.07.07.09-.02.14a.46.46 0 0 1-.17.09c-.04.04-.12.04-.2.05-.07 0-.1.01-.13-.04l.13.04c-.06 0-.1 0-.21-.04M42.07 11.82v-.02c0 .05 0 .02.03-.07.06-.1.09-.15.17-.17.04-.05.1-.06.18-.09.03.05.01.11 0 .17-.02.07-.08.11-.11.15-.05.04-.07.07-.15.09-.07.01-.04.01-.12-.06" clip-path="url(#ad)" fill="#bababa"/><path d="M40.45 9.58c0 .05-.04.09-.08.09-.05 0-.08-.04-.08-.09 0-.05.04-.09.08-.09.05.01.08.05.08.09" clip-path="url(#ad)"/><defs><path id="ae" d="M40.62 14.39h7.94v2.2h-7.94z"/></defs><clipPath id="af"><use xlink:href="#ae" overflow="visible"/></clipPath><path d="M40.65 14.38h.07c-.21 0-.09-.01.26.28.15-.13.14-.14.26.07.07.12.09-.01.2-.14.05.25.09.51.26.27.2 0 .42-.02.53.07.13.26.09-.05.2.07.29.04.29-.26.6-.34.2.26.28.06.53-.07.18.05.35.34.39.06.15-.25.16-.23.26 0 .14.14.21-.07.33-.14.22.13.47.15.79.07.05.23.19.13.33.07.29.13.39.17.72 0 .16-.2.07.01.2.14.25-.08.18-.1.46-.07.28 0 .31-.01.39-.21.14.15.2.26.4.07.31.01.21.04.4-.07.14.31.17.09.33.21-.11.28-.27.42-.46.55-.13.22-.2.46-.46.55-.18.2-.38.31-.59.48-.29.07-.6.07-.92.07h-2.77c-.2.1-.52.15-.79.21-.3 0-.65 0-.86-.07-.14-.15-.39-.31-.53-.48-.14-.12-.14-.35-.26-.48-.11-.2-.14-.51-.26-.69v-.48z" clip-path="url(#af)" fill="#225326"/><defs><path id="ag" d="M40.59 14.36h8v2.26h-8z"/></defs><clipPath id="ah"><use xlink:href="#ag" overflow="visible"/></clipPath><path d="M42.48 16.62c-.31 0-.6 0-.79-.07-.07-.07-.15-.14-.23-.2-.11-.09-.23-.19-.31-.29-.08-.06-.11-.17-.15-.26a.756.756 0 0 0-.11-.22c-.06-.1-.09-.22-.13-.34-.04-.13-.08-.26-.14-.35l-.04-.5.03-.03h.1l-.02.03.02.07c.09.04.17.1.28.19.11-.18.16-.12.27.08.03.03.05 0 .07-.03.02-.03.05-.07.08-.11l.04-.05.02.12c.02.12.06.28.1.28.01 0 .04-.01.09-.08l.2-.01c.16 0 .29.01.37.08.05.09.07.1.07.1.02-.04.03-.07.07-.07h.01l.05.04c.14-.01.19-.07.26-.14a.56.56 0 0 1 .31-.2c.11.11.16.12.19.12.05 0 .1-.04.17-.08.05-.03.1-.07.16-.11.09.02.15.07.21.11.05.04.09.07.12.07s.04-.06.04-.09c.19-.34.21-.26.32-.01.06.04.11.01.18-.05.03-.04.07-.08.11-.1.26.13.48.15.8.07.06.13.1.14.13.14.04 0 .09-.03.14-.05l.07-.02c.3.13.38.16.7 0 .05-.07.08-.09.1-.09h.02l.03.08c.01.05.02.1.07.15l.1-.05c.1-.04.11-.04.34-.02.27 0 .28-.01.36-.19l.02-.04.08.08c.11.12.16.16.31.02h.18c.1 0 .1 0 .16-.04l.1-.02c.07.16.1.16.12.16l.08-.01c.04 0 .08.01.12.05-.1.33-.27.46-.46.6l-.06.11c-.09.18-.19.36-.41.44-.11.12-.24.22-.38.32-.07.05-.14.1-.21.16-.26.07-.53.07-.8.07h-2.9c-.15.09-.41.13-.65.18h-.18zm-1.82-2.16l.02.41c.06.08.1.22.14.35.03.11.07.23.12.32.06.06.09.15.12.23.03.09.07.18.14.24.08.1.2.19.31.29.08.07.16.14.22.2.18.06.51.06.75.06v.03l.04-.03.17-.03c.24-.04.49-.09.65-.18h2.78l.14.03v-.03c.27 0 .54 0 .78-.07.06-.05.13-.1.2-.15.13-.1.26-.19.38-.32.21-.08.3-.25.39-.42l.07-.12c.19-.14.36-.27.46-.55h-.08l-.08.01c-.07 0-.11-.05-.17-.2-.08.09-.1.1-.15.1l-.22-.01c-.14.15-.25.1-.37-.03-.09.16-.13.17-.42.17-.21-.02-.22-.02-.32.02l-.13.05c-.09-.07-.1-.14-.11-.19 0-.03-.02-.03-.07.04-.36.19-.46.14-.76.01-.19.12-.3.1-.35-.09-.25.14-.55.09-.78-.05-.01.02-.04.06-.07.09-.07.08-.16.14-.27.05-.04-.08-.08-.18-.1-.18-.02 0-.1.12-.12.17 0 .03-.01.14-.1.14-.05 0-.1-.04-.16-.08a.585.585 0 0 0-.17-.1c-.04.03-.09.07-.14.1-.15.1-.26.15-.41-.04-.11.04-.18.12-.25.2-.08.08-.15.16-.28.16l-.09-.03c-.05.08-.09.11-.18-.06-.06-.04-.17-.05-.32-.05h-.18c-.03.06-.07.09-.12.09-.09 0-.13-.15-.16-.33l-.04.06c-.03.05-.06.09-.09.09h-.02l-.06-.06c-.07-.13-.1-.17-.2-.08-.18-.13-.28-.19-.34-.23" clip-path="url(#ah)" fill="#133015"/><defs><path id="ai" d="M46.71 14.98h.33v.51h-.33z"/></defs><clipPath id="aj"><use xlink:href="#ai" overflow="visible"/></clipPath><path d="M47.04 15.01v.07c0-.19.01-.09-.13.28-.03.09-.09.11-.2.14l.33-.49z" clip-path="url(#aj)" fill="#225326"/><defs><path id="ak" d="M46.7 14.95h.37v.57h-.37z"/></defs><clipPath id="al"><use xlink:href="#ak" overflow="visible"/></clipPath><path d="M46.72 15.52c.09-.09.14-.1.16-.17.06-.15.09-.25.11-.31l.05-.08.02.01v.12L47 15c.02.12-.02.22-.07.37-.03.1-.11.12-.21.15" clip-path="url(#al)" fill="#133015"/><defs><path id="am" d="M46.05 15.28h.46v.62h-.46z"/></defs><clipPath id="an"><use xlink:href="#am" overflow="visible"/></clipPath><path d="M46.45 15.28h.07c-.24.24-.41.35-.46.62l.46-.62c-.24.24-.41.35-.46.62l.39-.62z" clip-path="url(#an)" fill="#225326"/><defs><path id="ao" d="M46.02 15.25h.56v.67h-.56z"/></defs><clipPath id="ap"><use xlink:href="#ao" overflow="visible"/></clipPath><path d="M46.08 15.92c0-.09.01-.17.04-.24.05-.11.14-.2.25-.3l.01-.01.12-.11-.04-.01h.07l-.1.16-.05.05-.3.46z" clip-path="url(#ap)" fill="#133015"/><defs><path id="aq" d="M45.46 14.94h.07v.35h-.07z"/></defs><clipPath id="ar"><use xlink:href="#aq" overflow="visible"/></clipPath><path d="M45.53 14.94c0 .01-.01.25-.07.35l.07-.35z" clip-path="url(#ar)" fill="#225326"/><defs><path id="as" d="M45.43 14.94h.12v.36h-.12z"/></defs><clipPath id="at"><use xlink:href="#as" overflow="visible"/></clipPath><path d="M45.48 15.3c0-.11.01-.32.01-.36h.06s0 .25-.07.36" clip-path="url(#at)" fill="#133015"/><defs><path id="au" d="M45.26 15.49v-.07.07z"/></defs><clipPath id="av"><use xlink:href="#au" overflow="visible"/></clipPath><path d="M45.26 15.42v.07-.07c0 .02 0 .04 0 0" clip-path="url(#av)" fill="#225326"/><defs><path id="aw" d="M44.73 15.01h.07-.07z"/></defs><clipPath id="ax"><use xlink:href="#aw" overflow="visible"/></clipPath><path d="M44.73 15.01h.07-.07c.03 0 .05 0 0 0" clip-path="url(#ax)" fill="#225326"/><defs><path id="ay" d="M41.05 15.01h.33v.96h-.33z"/></defs><clipPath id="az"><use xlink:href="#ay" overflow="visible"/></clipPath><path d="M41.05 15.01c.03 0 .16.22.33.34-.04.2-.11.43 0 .62l-.33-.96z" clip-path="url(#az)" fill="#225326"/><defs><path id="aA" d="M41.05 14.98h.36v1.01h-.36z"/></defs><clipPath id="aB"><use xlink:href="#aA" overflow="visible"/></clipPath><path d="M41.4 15.96c-.15-.15-.11-.37-.06-.56-.08-.1-.17-.21-.23-.28-.03-.03-.06-.07-.07-.08l.01-.06c.02 0 .04.02.1.1.06.07.15.18.24.25l.02.01-.01.07c-.05.18-.09.39 0 .55" clip-path="url(#aB)" fill="#133015"/><defs><path id="aC" d="M41.57 15.21h1.45v.62h-1.45z"/></defs><clipPath id="aD"><use xlink:href="#aC" overflow="visible"/></clipPath><path d="M41.57 15.42c.03 0 .16.22.33.34l-.33-.34c.03 0 .16.22.33.34v.07c0-.21-.02-.44.07-.55.07.13.17.34.2.14.37-.02.55-.12.79-.21 0 .1-.02.05.07.14l-1.46.07z" clip-path="url(#aD)" fill="#225326"/><defs><path id="aE" d="M41.51 15.17h1.54v.66h-1.54z"/></defs><clipPath id="aF"><use xlink:href="#aE" overflow="visible"/></clipPath><path d="M41.93 15.83l-.06-.07c-.09-.05-.17-.16-.24-.24-.02-.02-.03-.04-.05-.06l-.03-.03c.01 0 .01-.01.02-.01l.01-.04c.03 0 .04.02.11.1.05.06.11.14.19.21 0-.17 0-.34.07-.44l.03-.04.05.09c.03.05.08.15.1.16l.04-.08c.28-.01.45-.07.62-.14l.2-.07v.08l.01.12c-.07-.07-.08-.08-.08-.12l-.11.05c-.17.07-.35.14-.64.15.02.02.01.08-.04.08-.07.01-.1-.06-.16-.18-.04.04-.04.21-.04.39v.09z" clip-path="url(#aF)" fill="#133015"/><defs><path id="aG" d="M47.24 15.08h.33v.48h-.33z"/></defs><clipPath id="aH"><use xlink:href="#aG" overflow="visible"/></clipPath><path d="M47.5 15.07h.06c-.12.11-.22.33-.33.48l.27-.48z" clip-path="url(#aH)" fill="#225326"/><defs><path id="aI" d="M47.21 15.05h.43v.53h-.43z"/></defs><clipPath id="aJ"><use xlink:href="#aI" overflow="visible"/></clipPath><path d="M47.26 15.57c-.01-.09.03-.16.07-.22.07-.11.14-.23.22-.3l-.05-.01h.07c-.05.12-.12.23-.19.34-.04.07-.08.14-.12.19" clip-path="url(#aJ)" fill="#133015"/><defs><path id="aK" d="M44.8 14.87h.53-.53z"/></defs><clipPath id="aL"><use xlink:href="#aK" overflow="visible"/></clipPath><path d="M44.8 14.87h.53-.53z" clip-path="url(#aL)" fill="#225326"/><defs><path id="aM" d="M0 0h58.92v34.37H0z"/></defs><clipPath id="aN"><use xlink:href="#aM" overflow="visible"/></clipPath><path d="M40.5 15.39c-.79 0-1.05.83-1.85.83h-.04v.05c0 .57.04 1.11.13 1.61.73-.05 1-.83 1.77-.83.79 0 1.06.83 1.85.83s1.06-.83 1.85-.83 1.06.83 1.85.83 1.06-.83 1.85-.83c.76 0 1.03.77 1.76.83.09-.51.13-1.06.13-1.65h-.05c-.79 0-1.05-.83-1.84-.83s-1.06.83-1.85.83-1.06-.83-1.85-.83-1.05.83-1.85.83c-.81-.01-1.07-.84-1.86-.84M40.5 18.62c-.62 0-.91.5-1.39.72.17.46.37.87.59 1.25.23-.17.47-.32.8-.32.79 0 1.06.83 1.85.83s1.06-.83 1.85-.83 1.06.83 1.85.83 1.06-.83 1.85-.83c.33 0 .56.14.78.3.22-.38.42-.79.59-1.25-.47-.22-.76-.72-1.37-.72-.79 0-1.06.83-1.85.83s-1.06-.83-1.85-.83-1.05.83-1.85.83c-.8.02-1.06-.81-1.85-.81M44.19 21.85c-.79 0-1.06.83-1.85.83-.75 0-1.03-.74-1.72-.82a8.619 8.619 0 0 0 2.71 2.01c.24-.19.5.23.86.23s.61-.42.86-.23c.71-.35 1.76-.98 2.68-2.01-.67.1-.95.82-1.69.82-.79 0-1.05-.83-1.85-.83" clip-path="url(#aN)" fill="#fff"/><defs><path id="aO" d="M39.27 18.8h2.04v1.46h-2.04z"/></defs><clipPath id="aP"><use xlink:href="#aO" overflow="visible"/></clipPath><path d="M40.28 20.26l-1-1.21c.12-.06.7-.25.78-.25.04.03 1.23 1.23 1.23 1.23l-1.01.23zm-.22-1.44c-.07 0-.64.19-.77.23l1 1.17.99-.2c-.04-.01-1.2-1.17-1.22-1.2" clip-path="url(#aP)" fill="#4d2412"/><defs><path id="aQ" d="M41.64 18.71h.59v1.91h-.59z"/></defs><clipPath id="aR"><use xlink:href="#aQ" overflow="visible"/></clipPath><path d="M41.67 20.62h-.03c.02-.28.53-1.84.55-1.91.03.03-.5 1.63-.52 1.91" clip-path="url(#aR)" fill="#4d2412"/><defs><path id="aS" d="M41.82 18.73h.46v1.91h-.46z"/></defs><clipPath id="aT"><use xlink:href="#aS" overflow="visible"/></clipPath><path d="M41.86 20.63h-.04c0-.02.3-1.34.42-1.91-.1.66-.38 1.88-.38 1.91" clip-path="url(#aT)" fill="#4d2412"/><defs><path id="aU" d="M41.97 18.73h.38v1.91h-.38z"/></defs><clipPath id="aV"><use xlink:href="#aU" overflow="visible"/></clipPath><path d="M42 20.64l-.03-.01c.02-.1.35-1.9.35-1.9.03.01-.3 1.8-.32 1.91" clip-path="url(#aV)" fill="#4d2412"/><defs><path id="aW" d="M41.67 20.24h.38v.16h-.38z"/></defs><clipPath id="aX"><use xlink:href="#aW" overflow="visible"/></clipPath><path d="M41.68 20.4l-.02-.03c.09-.05.36-.12.37-.13.01.04-.26.11-.35.16" clip-path="url(#aX)" fill="#4d2412"/><defs><path id="aY" d="M41.8 20.01h.28v.1h-.28z"/></defs><clipPath id="aZ"><use xlink:href="#aY" overflow="visible"/></clipPath><path d="M41.8 20.12v-.03c.09 0 .27-.07.27-.07.01.03-.17.1-.27.1" clip-path="url(#aZ)" fill="#4d2412"/><g><defs><path id="ba" d="M44.26 18.61h.67v3.26h-.67z"/></defs><clipPath id="bb"><use xlink:href="#ba" overflow="visible"/></clipPath><path d="M44.91 21.87c-.02-.48-.64-3.22-.65-3.25.03.02.65 2.77.67 3.25h-.02z" clip-path="url(#bb)" fill="#4d2412"/></g><g><defs><path id="bc" d="M44.2 18.64h.52v3.14h-.52z"/></defs><clipPath id="bd"><use xlink:href="#bc" overflow="visible"/></clipPath><path d="M44.7 21.78c0-.05-.49-3.1-.5-3.13.07.31.52 3.1.52 3.13h-.02z" clip-path="url(#bd)" fill="#4d2412"/></g><g><defs><path id="be" d="M44.11 18.64h.39v2.89h-.39z"/></defs><clipPath id="bf"><use xlink:href="#be" overflow="visible"/></clipPath><path d="M44.48 21.54c-.02-.18-.37-2.89-.37-2.89.02 0 .37 2.7.39 2.89h-.02z" clip-path="url(#bf)" fill="#4d2412"/></g><g><defs><path id="bg" d="M44.47 21.25h.45v.23h-.45z"/></defs><clipPath id="bh"><use xlink:href="#bg" overflow="visible"/></clipPath><path d="M44.9 21.48c-.11-.09-.43-.21-.43-.21.02-.01.34.1.45.19l-.02.02z" clip-path="url(#bh)" fill="#4d2412"/></g><g><defs><path id="bi" d="M44.42 20.86h.33v.15h-.33z"/></defs><clipPath id="bj"><use xlink:href="#bi" overflow="visible"/></clipPath><path d="M44.75 21c-.11 0-.32-.12-.33-.12.02-.02.23.1.33.1V21z" clip-path="url(#bj)" fill="#4d2412"/></g><g><defs><path id="bk" d="M44.36 20.49h.34v.13h-.34z"/></defs><clipPath id="bl"><use xlink:href="#bk" overflow="visible"/></clipPath><path d="M44.68 20.63c-.01-.02-.17-.07-.32-.11.34.07.34.1.34.11h-.02.01-.01z" clip-path="url(#bl)" fill="#4d2412"/></g><g><defs><path id="bm" d="M44.29 20.07h.35v.11h-.35z"/></defs><clipPath id="bn"><use xlink:href="#bm" overflow="visible"/></clipPath><path clip-path="url(#bn)" fill="#4d2412" d="M44.64 20.18l-.35-.09.36.07z"/></g><g><defs><path id="bo" d="M44.25 19.77h.25v.04h-.25z"/></defs><clipPath id="bp"><use xlink:href="#bo" overflow="visible"/></clipPath><path d="M44.25 19.81c.1-.02.21-.03.23-.04h.02c0 .01 0 .04-.25.04" clip-path="url(#bp)" fill="#4d2412"/></g><g><defs><path id="bq" d="M44.18 19.4h.24v.09h-.24z"/></defs><clipPath id="br"><use xlink:href="#bq" overflow="visible"/></clipPath><path d="M44.19 19.48c0-.03.19-.09.23-.09v.02c-.03.01-.17.05-.23.07" clip-path="url(#br)" fill="#4d2412"/></g><g><defs><path id="bs" d="M46.1 18.74h.68v2.43h-.68z"/></defs><clipPath id="bt"><use xlink:href="#bs" overflow="visible"/></clipPath><path d="M46.75 21.17c-.02-.35-.64-2.4-.65-2.42.05.08.66 2.06.68 2.42h-.03z" clip-path="url(#bt)" fill="#4d2412"/></g><g><defs><path id="bu" d="M46.03 18.76h.53v2.34h-.53z"/></defs><clipPath id="bv"><use xlink:href="#bu" overflow="visible"/></clipPath><path d="M46.53 21.1c0-.03-.33-1.54-.5-2.33.11.38.53 2.31.53 2.33h-.03z" clip-path="url(#bv)" fill="#4d2412"/></g><g><defs><path id="bw" d="M45.95 18.76h.4v2.16h-.4z"/></defs><clipPath id="bx"><use xlink:href="#bw" overflow="visible"/></clipPath><path d="M46.32 20.92c-.02-.13-.37-2.15-.37-2.15.03 0 .37 2.01.4 2.15h-.03z" clip-path="url(#bx)" fill="#4d2412"/></g><g><defs><path id="by" d="M46.3 20.7h.44v.18h-.44z"/></defs><clipPath id="bz"><use xlink:href="#by" overflow="visible"/></clipPath><path d="M46.73 20.88c-.11-.07-.43-.16-.43-.16.02-.02.33.06.45.13l-.02.03z" clip-path="url(#bz)" fill="#4d2412"/></g><g><defs><path id="bA" d="M46.2 20.14h.34v.1h-.34z"/></defs><clipPath id="bB"><use xlink:href="#bA" overflow="visible"/></clipPath><path d="M46.51 20.25c-.02-.02-.17-.05-.32-.08.34.04.34.06.34.08h-.02l.01-.01-.01.01z" clip-path="url(#bB)" fill="#4d2412"/></g><g><defs><path id="bC" d="M46.13 19.82h.35v.09h-.35z"/></defs><clipPath id="bD"><use xlink:href="#bC" overflow="visible"/></clipPath><path clip-path="url(#bD)" fill="#4d2412" d="M46.48 19.91l-.35-.06.35.04z"/></g><g><defs><path id="bE" d="M46.09 19.6h.25v.04h-.25z"/></defs><clipPath id="bF"><use xlink:href="#bE" overflow="visible"/></clipPath><path d="M46.09 19.64c.1-.03.21-.03.23-.04l.02.01c0 .01 0 .03-.25.03" clip-path="url(#bF)" fill="#4d2412"/></g><g><defs><path id="bG" d="M0 0h58.92v34.37H0z"/></defs><clipPath id="bH"><use xlink:href="#bG" overflow="visible"/></clipPath><path d="M43.97 21.44l.06-5.68s.2-.02.2 0-.02 5.66-.04 5.68c-.03.02-.24.05-.22 0" clip-path="url(#bH)" fill="#d0885d"/></g><g><defs><path id="bI" d="M43.95 15.73h.29v5.75h-.29z"/></defs><clipPath id="bJ"><use xlink:href="#bI" overflow="visible"/></clipPath><path d="M44.04 21.48l-.08-.02.06-5.7c.01-.01.1-.03.16-.03 0 0 0 .01.01.03-.08 0-.15.01-.15.01.01.01-.05 5.65-.05 5.67l.05.01c.06 0 .13-.01.14-.02.01-.07.03-3.27.04-4.83.02 1.59.01 4.83-.02 4.85-.02.02-.12.03-.16.03" clip-path="url(#bJ)" fill="#4d2412"/></g><g><defs><path id="bK" d="M0 0h58.92v34.37H0z"/></defs><clipPath id="bL"><use xlink:href="#bK" overflow="visible"/></clipPath><path d="M46.09 16.01l-.04 4.78-.15.18.04-4.96h.15z" clip-path="url(#bL)" fill="#d0885d"/></g><g><defs><path id="bM" d="M45.88 15.99h.22V21h-.22z"/></defs><clipPath id="bN"><use xlink:href="#bM" overflow="visible"/></clipPath><path d="M45.88 21.01v-.04l.04-4.96.17-.01c.01.06-.03 4.79-.03 4.79l-.18.22zm.2-5l-.14.01-.03 4.91.13-.15c-.01 0 .04-4.73.04-4.77" clip-path="url(#bN)" fill="#4d2412"/></g><g><defs><path id="bO" d="M0 0h58.92v34.37H0z"/></defs><clipPath id="bP"><use xlink:href="#bO" overflow="visible"/></clipPath><path d="M41.57 20.51s.22 2.33 2.71 2.26c2.49-.07 3.18-2.35 3.18-2.35l-1.08-.05c-.02 0-.87 1.09-1.95 1.07-1.08-.02-1.43-.29-1.67-.52-.24-.23-.46-.57-.46-.57l-1.26-.52.07.5.46.18z" clip-path="url(#bP)" fill="#d0885d"/></g><g><defs><path id="bQ" d="M41.03 19.81h6.45v2.98h-6.45z"/></defs><clipPath id="bR"><use xlink:href="#bQ" overflow="visible"/></clipPath><path d="M44.17 22.79c-2.38 0-2.61-2.25-2.62-2.28l-.45-.17-.07-.51 1.28.51c.01.01.23.35.46.57.25.24.6.5 1.66.52.46 0 1.13-.18 1.89-1.02l.05-.05 1.08.05c.01.04-.71 2.32-3.18 2.38h-.1zm-3.13-2.94l.08.48.45.17c.01.03.24 2.27 2.6 2.27h.1c2.43-.07 3.15-2.29 3.17-2.34-.02.02-1.05-.03-1.07-.03-.81.89-1.48 1.07-1.92 1.07-1.1-.02-1.46-.28-1.71-.52-.24-.23-.45-.56-.46-.57l-1.24-.53z" clip-path="url(#bR)" fill="#4d2412"/></g><g><defs><path id="bS" d="M0 0h58.92v34.37H0z"/></defs><clipPath id="bT"><use xlink:href="#bS" overflow="visible"/></clipPath><path d="M48.29 20.27c-.02-.07-.07-.3-.07-.3v-.27l.12-.28s-1.89.28-1.89.3l-.01.54 1.85.01z" clip-path="url(#bT)" fill="#d0885d"/></g><g><defs><path id="bU" d="M46.42 19.4h1.93v.88h-1.93z"/></defs><clipPath id="bV"><use xlink:href="#bU" overflow="visible"/></clipPath><path d="M48.31 20.29l-1.87-.01c0-.56 0-.56.01-.56-.01 0-.01-.02 1.88-.3l-.11.29v.27s.05.23.07.3l.02.01zm.01-.87c-.72.13-1.82.3-1.86.32.01 0-.01.53-.01.53l1.82-.01-.07-.28v-.28l.12-.28z" clip-path="url(#bV)" fill="#4d2412"/></g><g><defs><path id="bW" d="M47.87 19.68h.33v.5h-.33z"/></defs><clipPath id="bX"><use xlink:href="#bW" overflow="visible"/></clipPath><path d="M48.21 20.19h-.32l.03-.49.25-.01.04.5zm-.05-.49l-.23.01-.03.46.27-.02-.01-.45z" clip-path="url(#bX)" fill="#4d2412"/></g><g><defs><path id="bY" d="M47.57 19.71h.25v.53h-.25z"/></defs><clipPath id="bZ"><use xlink:href="#bY" overflow="visible"/></clipPath><path d="M47.57 20.23l.02-.51.21-.01-.01.49-.22.03zm.22-.51l-.18.01-.01.47.18-.02.01-.46z" clip-path="url(#bZ)" fill="#4d2412"/></g><g><defs><path id="ca" d="M47.27 19.75h.25v.49h-.25z"/></defs><clipPath id="cb"><use xlink:href="#ca" overflow="visible"/></clipPath><path d="M47.27 20.24v-.41l.2-.08.04.4-.24.09zm.19-.47l-.18.08.01.35.2-.06-.03-.37z" clip-path="url(#cb)" fill="#4d2412"/></g><g><defs><path id="cc" d="M46.9 19.84h.31v.42h-.31z"/></defs><clipPath id="cd"><use xlink:href="#cc" overflow="visible"/></clipPath><path d="M47.21 20.26l-.3-.05.03-.36.23.01.04.4zm-.25-.39l-.03.33.25.03-.02-.35-.2-.01z" clip-path="url(#cd)" fill="#4d2412"/></g><g><defs><path id="ce" d="M46.49 19.87h.27v.37h-.27z"/></defs><clipPath id="cf"><use xlink:href="#ce" overflow="visible"/></clipPath><path clip-path="url(#cf)" fill="#4d2412" d="M46.76 20.23l-.26-.02.01-.31.23-.03z"/></g><g><defs><path id="cg" d="M41.48 20.48h1.09v.86h-1.09z"/></defs><clipPath id="ch"><use xlink:href="#cg" overflow="visible"/></clipPath><path d="M42.57 21.32l-.54-.71c-.16-.04-.5-.11-.55-.11v-.03c.07 0 .55.11.57.11l.52.74z" clip-path="url(#ch)" fill="#4d2412"/></g><g><defs><path id="ci" d="M41.84 20.4h5.14v1.74h-5.14z"/></defs><clipPath id="cj"><use xlink:href="#ci" overflow="visible"/></clipPath><path d="M44.38 22.14c-1.75 0-2.36-1.06-2.54-1.52l.01-.04.01.03c.18.45.78 1.5 2.51 1.5 2.04 0 2.56-1.7 2.56-1.71.04.02-.48 1.74-2.55 1.74" clip-path="url(#cj)" fill="#4d2412"/></g><g><defs><path id="ck" d="M41.77 20.44h5.53v2.14h-5.53z"/></defs><clipPath id="cl"><use xlink:href="#ck" overflow="visible"/></clipPath><path d="M44.57 22.57c-.06 0-.13 0-.19-.01-1.93-.16-2.23-.93-2.37-1.3-.15-.39-.24-.7-.24-.7.03 0 .11.3.27.69.14.36.44 1.12 2.35 1.28 1.86.15 2.88-2.08 2.89-2.1l.03.01c-.02.03-.97 2.13-2.74 2.13" clip-path="url(#cl)" fill="#4d2412"/></g><g><defs><path id="cm" d="M0 0h58.92v34.37H0z"/></defs><clipPath id="cn"><use xlink:href="#cm" overflow="visible"/></clipPath><path d="M42.32 20.36c.02-.14.02-4.24.02-4.24l-.13-.02-.02 4.19.13.07z" clip-path="url(#cn)" fill="#d0885d"/></g><g><defs><path id="co" d="M42.18 16.08h.18v4.3h-.18z"/></defs><clipPath id="cp"><use xlink:href="#co" overflow="visible"/></clipPath><path d="M42.33 20.38l-.15-.08.01-4.2.15.01c.01.18.01 4.11-.01 4.25v.02zm-.12-4.27l-.01 4.18.1.05c.02-.33.02-4.17.02-4.21l-.11-.02z" clip-path="url(#cp)" fill="#4d2412"/></g><g><defs><path id="cq" d="M0 0h58.92v34.37H0z"/></defs><clipPath id="cr"><use xlink:href="#cq" overflow="visible"/></clipPath><path d="M39.23 19.02l1.65.84-.04.11s-1.58-.77-1.58-.79c-.01-.03.01-.12-.03-.16" clip-path="url(#cr)" fill="#d0885d"/></g><g><defs><path id="cs" d="M39.22 19.01h1.67v.98h-1.67z"/></defs><clipPath id="ct"><use xlink:href="#cs" overflow="visible"/></clipPath><path d="M40.84 19.99l-.01-.01c-1.59-.77-1.59-.8-1.59-.81 0-.05.01-.12-.02-.15l1.66.82-.04.15zm-1.61-.95c.04.03.03.09.03.12.03.04.95.49 1.56.79l.04-.1-1.63-.81z" clip-path="url(#ct)" fill="#4d2412"/></g><g><defs><path id="cu" d="M0 0h58.92v34.37H0z"/></defs><clipPath id="cv"><use xlink:href="#cu" overflow="visible"/></clipPath><path d="M39.98 18.77c0 .07.24 1.45.24 1.45s.15.02.15 0-.26-1.43-.26-1.43l-.13-.02z" clip-path="url(#cv)" fill="#d0885d"/></g><g><defs><path id="cw" d="M39.97 18.75h.42v1.49h-.42z"/></defs><clipPath id="cx"><use xlink:href="#cw" overflow="visible"/></clipPath><path d="M40.33 20.24c-.05 0-.12-.01-.12-.01-.02-.07-.25-1.39-.25-1.46l.15.01c.06.25.27 1.42.27 1.44l-.05.02zm-.08-.03h.09v.02l.03-.02c-.01-.02-.17-.94-.26-1.42l-.12-.01c.02.04.17.95.25 1.43h.01" clip-path="url(#cx)" fill="#4d2412"/></g><g><defs><path id="cy" d="M0 0h58.92v34.37H0z"/></defs><clipPath id="cz"><use xlink:href="#cy" overflow="visible"/></clipPath><path d="M41.5 18.81c.09 0 1.56-.25 1.56-.25l-.02.25-1.45.16-.09-.16z" clip-path="url(#cz)" fill="#d0885d"/></g><g><defs><path id="cA" d="M41.48 18.55h1.6v.44h-1.6z"/></defs><clipPath id="cB"><use xlink:href="#cA" overflow="visible"/></clipPath><path d="M41.58 18.99l-.09-.17c.1-.02 1.55-.27 1.57-.27l-.01.27-1.47.17zm1.47-.43c-.05.03-1.46.26-1.55.26l.09.13 1.44-.16.02-.23z" clip-path="url(#cB)" fill="#4d2412"/></g><g><defs><path id="cC" d="M0 0h58.92v34.37H0z"/></defs><clipPath id="cD"><use xlink:href="#cC" overflow="visible"/></clipPath><path d="M41.72 16.94c.04 0 .52.25.72.18.19-.07.06-.23.11-.23.04 0 .2.11.28.02.09-.09.15-.36.11-.34-.05.03-1.2.46-1.22.37" clip-path="url(#cD)" fill="#f4ce49"/></g><g><defs><path id="cE" d="M41.7 16.56h1.26v.58H41.7z"/></defs><clipPath id="cF"><use xlink:href="#cE" overflow="visible"/></clipPath><path d="M42.35 17.14c-.16 0-.39-.09-.53-.15l-.07-.03c.21-.03 1.13-.38 1.17-.4.05.06-.01.28-.09.36-.06.06-.17.03-.24 0-.03.05-.01.16-.15.21-.03.01-.06.01-.09.01m.58-.56c-.03.02-.96.37-1.17.38h.07c.16.07.47.18.6.14.12-.04.1-.12.09-.17l.08-.04c.07.03.16.06.21.01a.58.58 0 0 0 .12-.32" clip-path="url(#cF)" fill="#4d2412"/></g><g><defs><path id="cG" d="M0 0h58.92v34.37H0z"/></defs><clipPath id="cH"><use xlink:href="#cG" overflow="visible"/></clipPath><path d="M41.52 17.5c.09.02 1.77-.48 1.77-.48s0 .16-.02.16-1.75.48-1.75.48v-.16z" clip-path="url(#cH)" fill="#d0885d"/></g><g><defs><path id="cI" d="M41.51 17.01h1.8v.67h-1.8z"/></defs><clipPath id="cJ"><use xlink:href="#cI" overflow="visible"/></clipPath><path d="M41.51 17.68v-.18c.17-.01 1.77-.48 1.78-.49.02.19 0 .19-.02.19-.03 0-1.16.31-1.75.47l-.01.01zm1.77-.65c-.05.03-1.6.49-1.75.49l.01.13c.43-.12 1.72-.47 1.74-.47v-.15" clip-path="url(#cJ)" fill="#4d2412"/></g><g><defs><path id="cK" d="M0 0h58.92v34.37H0z"/></defs><clipPath id="cL"><use xlink:href="#cK" overflow="visible"/></clipPath><path d="M45.44 16.8s.11.27.22.23c.11-.05.22-.14.22-.14s.09.23.24.18c.15-.04.24-.29.24-.29s.15.05.22.02c.06-.02.15-.39.15-.39l-1.29.39z" clip-path="url(#cL)" fill="#f4ce49"/></g><g><defs><path id="cM" d="M45.42 16.39h1.32v.69h-1.32z"/></defs><clipPath id="cN"><use xlink:href="#cM" overflow="visible"/></clipPath><path d="M46.07 17.09c-.13 0-.2-.16-.21-.19-.01.02-.1.1-.2.14h-.01c-.13 0-.22-.21-.23-.23l1.29-.4c0 .08-.08.39-.14.41-.13.01-.22-.02-.22-.02.01 0-.08.25-.23.29h-.05zm-.2-.21c.02.01.09.18.21.18v.01l.04-.02c.14-.04.23-.28.23-.29.02 0 .11.02.18.02.08-.02.15-.23.18-.38l-1.26.4c.03.04.11.2.19.2.12-.03.22-.12.23-.12" clip-path="url(#cN)" fill="#4d2412"/></g><g><defs><path id="cO" d="M0 0h58.92v34.37H0z"/></defs><clipPath id="cP"><use xlink:href="#cO" overflow="visible"/></clipPath><path d="M45.31 19c-.02.05.11.16.22.16s.15-.16.17-.11c.02.05.02.25.3.18.28-.07.28-.27.28-.27s-.09.07.11.09c.19.02.39-.3.37-.3-.02 0-1.4.27-1.45.25" clip-path="url(#cP)" fill="#f4ce49"/></g><g><defs><path id="cQ" d="M45.29 18.73h1.48v.52h-1.48z"/></defs><clipPath id="cR"><use xlink:href="#cQ" overflow="visible"/></clipPath><path d="M45.9 19.25c-.16 0-.19-.11-.2-.17-.06.04-.1.09-.17.09-.08 0-.18-.06-.22-.12.01-.01.02-.01.03-.01.08.1.25.1.31.02l.08.01c.02.07.07.19.28.14.18-.05.24-.15.26-.21.04 0 .06.02.13.03.18 0 .34-.23.35-.28-.01.01-.1.03-.23.05-.3.05-.79.15-1.04.19.26-.07.75-.16 1.04-.21.15-.03.24-.05.25-.05.02.06-.16.32-.35.32-.09-.01-.13-.02-.15-.04 0 .06-.06.17-.26.22-.04.02-.08.02-.11.02" clip-path="url(#cR)" fill="#4d2412"/></g><g><defs><path id="cS" d="M0 0h58.92v34.37H0z"/></defs><clipPath id="cT"><use xlink:href="#cS" overflow="visible"/></clipPath><path d="M41.59 16.84c-.02.09.02.21.02.21l1.41-.5s.07-.11 0-.11-1.46.45-1.43.4" clip-path="url(#cT)" fill="#d0885d"/></g><g><defs><path id="cU" d="M41.57 16.42h1.49v.64h-1.49z"/></defs><clipPath id="cV"><use xlink:href="#cU" overflow="visible"/></clipPath><path d="M41.6 17.07l-.01-.01s-.04-.12-.02-.21c.08-.01.52-.14.87-.25.34-.11.55-.17.58-.17.06.05.02.12.01.13l-1.43.51zm1.42-.61c-.05 0-.32.08-.58.16-.47.14-.8.24-.86.24-.01.06.02.14.02.17l1.4-.49c.02-.02.04-.07.02-.08z" clip-path="url(#cV)" fill="#4d2412"/></g><g><defs><path id="cW" d="M0 0h58.92v34.37H0z"/></defs><clipPath id="cX"><use xlink:href="#cW" overflow="visible"/></clipPath><path d="M43.45 16.53c.04 0 1.45-.48 1.45-.48s.02.21 0 .21-1.32.41-1.32.41l-.13-.14z" clip-path="url(#cX)" fill="#d0885d"/></g><g><defs><path id="cY" d="M43.42 16.03h1.51v.65h-1.51z"/></defs><clipPath id="cZ"><use xlink:href="#cY" overflow="visible"/></clipPath><path d="M43.57 16.68l-.14-.14c.05-.03.9-.31 1.46-.5.03.1.03.2.02.22-.04.02-.97.3-1.34.42zm1.32-.63c-.13.06-1.39.49-1.44.49l.13.11c.31-.1 1.3-.41 1.32-.41 0-.01 0-.11-.01-.19" clip-path="url(#cZ)" fill="#4d2412"/></g><g><defs><path id="da" d="M0 0h58.92v34.37H0z"/></defs><clipPath id="db"><use xlink:href="#da" overflow="visible"/></clipPath><path d="M45.31 17.52s-.22.25-.15.59c.06.34.15.63.17.63.02 0 .26-.45.52-.47.26-.02.73.25.73.25s-.06-.55-.04-.79c.02-.25.39-.68.39-.68l-1.62.47z" clip-path="url(#db)" fill="#f4ce49"/></g><g><defs><path id="dc" d="M45.13 17.02h1.84v1.74h-1.84z"/></defs><clipPath id="dd"><use xlink:href="#dc" overflow="visible"/></clipPath><path d="M45.33 18.76c-.05 0-.16-.52-.19-.65-.07-.34.15-.6.15-.6l1.63-.48c.01.03-.35.45-.37.7-.02.24.04.78.04.79-.04-.02-.46-.23-.72-.23-.22.02-.41.29-.49.41-.03.05-.03.06-.05.06m-.01-1.22s-.2.24-.14.57c.06.33.14.57.16.62.01-.01.02-.03.03-.05.09-.13.28-.4.48-.42.29 0 .7.23.74.25-.02-.03-.08-.54-.06-.78.02-.25.38-.67.39-.69l-1.6.5z" clip-path="url(#dd)" fill="#4d2412"/></g><g><defs><path id="de" d="M0 0h58.92v34.37H0z"/></defs><clipPath id="df"><use xlink:href="#de" overflow="visible"/></clipPath><path d="M43.34 17.12s-.04.2-.02.2 1.84-.5 1.84-.5v-.14l-1.82.44z" clip-path="url(#df)" fill="#d0885d"/></g><g><defs><path id="dg" d="M43.3 16.67h1.88v.67H43.3z"/></defs><clipPath id="dh"><use xlink:href="#dg" overflow="visible"/></clipPath><path d="M43.32 17.33l-.01-.01c-.02-.02 0-.13.02-.21l1.83-.44.02.15c-.44.13-1.84.51-1.86.51m1.83-.64l-1.8.45c-.01.06-.02.15-.02.17.12-.03 1.23-.33 1.83-.5l-.01-.12z" clip-path="url(#dh)" fill="#4d2412"/></g><g><defs><path id="di" d="M40.59 19.84h.56v.66h-.56z"/></defs><clipPath id="dj"><use xlink:href="#di" overflow="visible"/></clipPath><path d="M41 19.86s-.43-.07-.41.05c.02.11.22.23.24.3.02.07-.06.32.07.29.13-.02.26-.11.26-.18 0-.07-.02-.38-.02-.38l-.14-.08z" clip-path="url(#dj)" fill="#b3b4b2"/></g><g><defs><path id="dk" d="M40.58 19.82h.59v.68h-.59z"/></defs><clipPath id="dl"><use xlink:href="#dk" overflow="visible"/></clipPath><path d="M40.88 20.51l-.05-.02c-.03-.04-.02-.12-.02-.19 0-.04.01-.08 0-.1-.01-.03-.05-.06-.09-.1-.07-.06-.14-.13-.15-.2.08-.16.43-.06.43-.06l.13.07c.01.01.03.33.03.4s-.13.17-.27.19h-.01zm-.12-.66c-.11 0-.14.02-.15.03.01.08.08.15.14.2.05.04.09.08.1.11.01.03 0 .07 0 .11-.01.06-.02.14.01.16l.03.03.02-.02c.13-.02.25-.11.25-.17 0-.07-.02-.39-.02-.39l-.14-.04c-.01 0-.13-.02-.24-.02" clip-path="url(#dl)" fill="#4d2412"/></g><g><defs><path id="dm" d="M0 0h58.92v34.37H0z"/></defs><clipPath id="dn"><use xlink:href="#dm" overflow="visible"/></clipPath><path clip-path="url(#dn)" fill="#d0885d" d="M43.41 18.72v.16l1.56-.22-.05-.12z"/></g><g><defs><path id="do" d="M43.39 18.53h1.59v.37h-1.59z"/></defs><clipPath id="dp"><use xlink:href="#do" overflow="visible"/></clipPath><path d="M43.39 18.9v-.17l1.53-.2.06.12-1.59.25zm1.52-.35l-1.5.19.01.13 1.54-.22-.05-.1z" clip-path="url(#dp)" fill="#4d2412"/></g><g><defs><path id="dq" d="M0 0h58.92v34.37H0z"/></defs><clipPath id="dr"><use xlink:href="#dq" overflow="visible"/></clipPath><path d="M41.57 19c.02 0 0 .21.17.16.17-.05.22-.16.22-.16s.04.25.28.23c.24-.02.37-.3.37-.3s.02.21.17.14c.15-.07.19-.23.19-.23l-1.36.2-.04-.04z" clip-path="url(#dr)" fill="#f4ce49"/></g><g><defs><path id="ds" d="M41.53 18.82h1.46v.42h-1.46z"/></defs><clipPath id="dt"><use xlink:href="#ds" overflow="visible"/></clipPath><path d="M42.21 19.24c-.18 0-.24-.16-.26-.22-.01.04-.07.11-.2.15-.14 0-.17-.09-.18-.14l1.41-.21c.02.02-.03.18-.18.25-.14.01-.18-.1-.19-.14-.01.05-.13.27-.35.29l-.05.02zm-.26-.24c.03.04.08.21.26.21v.02l.03-.02c.23-.02.36-.28.36-.29.03.01.04.14.13.14.19-.08.24-.23.24-.23l-1.02.17zm-.01 0l-.33.05c-.01.03.01.09.08.09.17-.03.23-.11.25-.14" clip-path="url(#dt)" fill="#4d2412"/></g><g><defs><path id="du" d="M0 0h58.92v34.37H0z"/></defs><clipPath id="dv"><use xlink:href="#du" overflow="visible"/></clipPath><path d="M41.57 17.66s-.2.07-.13.48.22.63.24.63c.02 0 .2-.38.45-.45.26-.07.72.21.72.21s-.04-.36.02-.7.28-.59.28-.59-1.52.42-1.58.42" clip-path="url(#dv)" fill="#f4ce49"/></g><g><defs><path id="dw" d="M41.41 17.2h1.78v1.58h-1.78z"/></defs><clipPath id="dx"><use xlink:href="#dw" overflow="visible"/></clipPath><path d="M41.67 18.78c-.04 0-.19-.25-.25-.65-.07-.41.13-.49.14-.49.05 0 .97-.26 1.58-.43.01.02-.2.27-.27.6-.06.33-.02.7-.02.7-.02 0-.38-.2-.64-.2-.03 0-.06 0-.09.01-.19.05-.34.28-.41.39-.02.06-.03.07-.04.07m-.1-1.11s-.18.07-.12.46c.06.37.19.58.22.62.11-.17.25-.4.46-.45.23-.06.67.17.72.2-.02-.03-.06-.37 0-.69.07-.34.28-.59.29-.59-.15.07-1.51.45-1.57.45" clip-path="url(#dx)" fill="#4d2412"/></g><g><defs><path id="dy" d="M0 0h58.92v34.37H0z"/></defs><clipPath id="dz"><use xlink:href="#dy" overflow="visible"/></clipPath><path d="M45.2 18.84l.02.14s1.56-.2 1.56-.23c0-.02 0-.16-.02-.16s-1.54.27-1.56.25" clip-path="url(#dz)" fill="#d0885d"/></g><g><defs><path id="dA" d="M45.18 18.57h1.61v.41h-1.61z"/></defs><clipPath id="dB"><use xlink:href="#dA" overflow="visible"/></clipPath><path d="M45.21 18.99l-.02-.15c.12-.01.88-.15 1.29-.22l.28-.05c.02 0 .04 0 .04.17 0 .02 0 .04-1.57.24l-.02.01zm1.55-.39s-.12.02-.27.05c-.44.08-1.17.2-1.27.2l.02.1c.6-.08 1.5-.2 1.54-.22-.01-.09-.02-.12-.02-.13" clip-path="url(#dB)" fill="#4d2412"/></g><g><defs><path id="dC" d="M0 0h58.92v34.37H0z"/></defs><clipPath id="dD"><use xlink:href="#dC" overflow="visible"/></clipPath><path d="M45.18 17.39l.02.16 1.84-.52s.04-.14.02-.14-1.83.56-1.88.5" clip-path="url(#dD)" fill="#d0885d"/></g><g><defs><path id="dE" d="M45.17 16.88h1.92v.69h-1.92z"/></defs><clipPath id="dF"><use xlink:href="#dE" overflow="visible"/></clipPath><path d="M45.19 17.56l-.02-.17c.2-.01 1.23-.32 1.66-.45l.23-.07c.03.03.01.1-.01.15l-1.86.54zm1.87-.66c0 .01-.09.03-.22.07-.47.14-1.46.44-1.63.44l.01.12 1.82-.52c.01-.04.02-.1.02-.11" clip-path="url(#dF)" fill="#4d2412"/></g><g><defs><path id="dG" d="M45.35 16.28h1.47v.53h-1.47z"/></defs><clipPath id="dH"><use xlink:href="#dG" overflow="visible"/></clipPath><path d="M45.38 16.81l-.02-.01a.322.322 0 0 1 0-.14c.18 0 .77-.19 1.12-.29.14-.04.25-.08.28-.08.07.04.05.07.02.11-.02.08-1.39.41-1.4.41m1.41-.5c-.06.01-.16.04-.3.08-.35.11-.94.29-1.08.29-.02.03-.03.08-.02.1.12-.02 1.31-.33 1.35-.36.03-.05.06-.1.05-.11" clip-path="url(#dH)" fill="#4d2412"/></g><g><defs><path id="dI" d="M46.9 17.06h1.37v2.23H46.9z"/></defs><clipPath id="dJ"><use xlink:href="#dI" overflow="visible"/></clipPath><path clip-path="url(#dJ)" fill="#4d2412" d="M48.25 19.3l-1.35-2.22 1.37 2.2z"/></g><g><defs><path id="dK" d="M46.73 17.18h.11v1.43h-.11z"/></defs><clipPath id="dL"><use xlink:href="#dK" overflow="visible"/></clipPath><path d="M46.76 18.62l-.03-.01c.02-.05.07-1.05.08-1.42.03.05-.03 1.36-.05 1.43" clip-path="url(#dL)" fill="#4d2412"/></g><g><defs><path id="dM" d="M0 0h58.92v34.37H0z"/></defs><clipPath id="dN"><use xlink:href="#dM" overflow="visible"/></clipPath><path d="M43.49 16.6c.09.02.24.25.32.21.09-.05.22-.18.22-.18s-.02.27.15.22c.17-.04.2-.22.2-.22s.13.07.24 0c.11-.07.22-.41.17-.41-.04-.01-1.25.4-1.3.38" clip-path="url(#dN)" fill="#f4ce49"/></g><g><defs><path id="dO" d="M43.48 16.2h1.33v.67h-1.33z"/></defs><clipPath id="dP"><use xlink:href="#dO" overflow="visible"/></clipPath><path d="M44.15 16.86c-.03 0-.06-.01-.08-.03-.05-.06-.05-.16-.05-.2a.6.6 0 0 1-.2.18c-.08.01-.15-.05-.21-.11a.413.413 0 0 0-.12-.09h-.01.01c.07-.03.53-.17.87-.28.3-.09.42-.13.44-.13.04.08-.07.37-.17.43-.08.05-.22.02-.25 0 .01.02-.02.18-.19.22l-.04.01zm-.13-.25c.02.01.01.15.07.2l.06.04.03-.02c.16-.04.18-.21.18-.21.02-.01.08.02.14.02.04 0 .07-.01.1-.03.1-.06.19-.35.18-.39-.01.01-.21.07-.42.14-.33.1-.73.23-.84.25.03 0 .07.04.11.07.06.05.12.11.16.11.1-.05.23-.18.23-.18" clip-path="url(#dP)" fill="#4d2412"/></g><g><defs><path id="dQ" d="M0 0h58.92v34.37H0z"/></defs><clipPath id="dR"><use xlink:href="#dQ" overflow="visible"/></clipPath><path d="M43.45 17.25c0 .05-.22.41-.15.75.06.34.19.66.22.66.02 0 .35-.36.63-.43s.69.23.67.23c-.02 0-.11-.34-.11-.59 0-.25.33-1.02.33-1.02l-1.59.4z" clip-path="url(#dR)" fill="#f4ce49"/></g><g><defs><path id="dS" d="M43.27 16.82h1.78v1.85h-1.78z"/></defs><clipPath id="dT"><use xlink:href="#dS" overflow="visible"/></clipPath><path d="M43.51 18.67c-.04 0-.18-.38-.23-.67-.05-.26.07-.54.12-.68.01-.03.03-.07.03-.07l1.59-.42c.01.03-.31.79-.31 1.03 0 .22.07.51.1.57-.09-.04-.45-.25-.67-.2-.21.05-.44.27-.56.37-.05.06-.06.07-.07.07m-.06-1.4c.01 0 0 .02-.02.07-.05.13-.17.41-.12.66.06.31.17.6.2.64l.05-.05c.11-.1.35-.32.57-.38.25-.06.62.18.67.22-.05-.04-.12-.34-.12-.57 0-.25.31-.99.33-1.03l-1.56.44z" clip-path="url(#dT)" fill="#4d2412"/></g><g><defs><path id="dU" d="M0 0h58.92v34.37H0z"/></defs><clipPath id="dV"><use xlink:href="#dU" overflow="visible"/></clipPath><path d="M43.45 18.88c0 .02.06.18.22.18.15 0 .18-.16.18-.16s-.02.27.21.25c.24-.02.33-.27.33-.27s.02.14.22.07.46-.3.43-.3c-.03.01-1.57.3-1.59.23" clip-path="url(#dV)" fill="#f4ce49"/></g><g><defs><path id="dW" d="M43.43 18.64h1.61v.53h-1.61z"/></defs><clipPath id="dX"><use xlink:href="#dW" overflow="visible"/></clipPath><path d="M44.03 19.17c-.06 0-.11-.02-.14-.06-.04-.04-.05-.1-.06-.15-.02.05-.07.11-.16.11-.16 0-.23-.17-.23-.2.28 0 1.09-.15 1.44-.21.09-.02.15-.03.16-.03.02.04-.25.26-.43.32-.15.05-.22-.03-.23-.06-.01.05-.1.25-.32.27l-.03.01zm-.2-.27c.03 0 .02.12.08.19.03.03.07.05.12.05v.01l.03-.02c.23-.02.31-.26.31-.26.04.01.07.11.23.06s.36-.21.41-.27a.63.63 0 0 1-.13.03c-.35.06-1.16.21-1.37.21-.03 0 .03.14.17.14.12.01.14-.13.15-.14" clip-path="url(#dX)" fill="#4d2412"/></g><g><defs><path id="dY" d="M43.53 17.67h.23v.24h-.23z"/></defs><clipPath id="dZ"><use xlink:href="#dY" overflow="visible"/></clipPath><path d="M43.65 17.67c.06 0 .11.06.11.13s-.05.12-.12.12c-.06 0-.11-.06-.11-.12 0-.08.05-.13.12-.13" clip-path="url(#dZ)" fill="#ad0024"/></g><g><defs><path id="ea" d="M43.51 17.66h.26v.27h-.26z"/></defs><clipPath id="eb"><use xlink:href="#ea" overflow="visible"/></clipPath><path d="M43.64 17.93c-.04 0-.07-.02-.1-.04-.02-.03-.04-.06-.04-.1 0-.07.06-.13.13-.13.04 0 .07.01.1.04.02.03.04.06.04.1 0 .07-.06.13-.13.13" clip-path="url(#eb)" fill="#4d2412"/></g><g><defs><path id="ec" d="M44.31 17.47h.23v.24h-.23z"/></defs><clipPath id="ed"><use xlink:href="#ec" overflow="visible"/></clipPath><path d="M44.43 17.46c.06 0 .11.06.11.13s-.06.12-.12.12-.11-.06-.11-.12c0-.07.06-.13.12-.13" clip-path="url(#ed)" fill="#ad0024"/></g><g><defs><path id="ee" d="M44.29 17.45h.27v.27h-.27z"/></defs><clipPath id="ef"><use xlink:href="#ee" overflow="visible"/></clipPath><path d="M44.42 17.72c-.08 0-.13-.07-.13-.14s.06-.13.13-.13c.08 0 .13.06.13.14 0 .08-.06.13-.13.13m.01-.24a.1.1 0 0 0-.1.1c0 .06.04.1.09.11v.02-.02a.1.1 0 0 0 .1-.1c0-.06-.04-.11-.09-.11" clip-path="url(#ef)" fill="#4d2412"/></g><g><defs><path id="eg" d="M43.92 17.9h.23v.24h-.23z"/></defs><clipPath id="eh"><use xlink:href="#eg" overflow="visible"/></clipPath><path d="M44.04 17.9c.06 0 .11.06.11.13s-.06.12-.12.11c-.06 0-.11-.06-.11-.12 0-.07.06-.13.12-.12" clip-path="url(#eh)" fill="#ad0024"/></g><g><defs><path id="ei" d="M43.9 17.88h.26v.28h-.26z"/></defs><clipPath id="ej"><use xlink:href="#ei" overflow="visible"/></clipPath><path d="M44.03 18.16c-.08 0-.13-.07-.13-.14s.06-.13.13-.13c.08 0 .14.07.13.14 0 .07-.06.13-.13.13m.01-.25c-.06 0-.1.04-.1.1 0 .06.04.1.09.11v.02-.02a.1.1 0 0 0 .1-.1c0-.05-.04-.1-.09-.11" clip-path="url(#ej)" fill="#4d2412"/></g><g><defs><path id="ek" d="M43.92 17.24h.23v.24h-.23z"/></defs><clipPath id="el"><use xlink:href="#ek" overflow="visible"/></clipPath><path d="M44.04 17.24c.06 0 .11.06.11.13s-.06.12-.12.12-.11-.06-.11-.13.06-.12.12-.12" clip-path="url(#el)" fill="#ad0024"/></g><g><defs><path id="em" d="M43.9 17.23h.26v.28h-.26z"/></defs><clipPath id="en"><use xlink:href="#em" overflow="visible"/></clipPath><path d="M44.03 17.5c-.08 0-.13-.07-.13-.14s.06-.13.13-.13c.08 0 .14.07.13.14 0 .07-.06.13-.13.13m.01-.24c-.06 0-.1.04-.1.1 0 .06.04.1.09.1v.02-.02a.1.1 0 0 0 .1-.1c0-.05-.04-.1-.09-.1" clip-path="url(#en)" fill="#4d2412"/></g><g><defs><path id="eo" d="M44.17 15.81h3.09v3.67h-3.09z"/></defs><clipPath id="ep"><use xlink:href="#eo" overflow="visible"/></clipPath><path d="M47.27 19.46c-.05 0-2.43-3.29-2.43-3.32-.03-.03-.61-.3-.66-.3l-.02-.01.02-.02c.01 0 .68.29.68.33.05.07 2.36 3.27 2.41 3.32" clip-path="url(#ep)" fill="#4d2412"/></g><g><defs><path id="eq" d="M46.06 16.13h.82v.79h-.82z"/></defs><clipPath id="er"><use xlink:href="#eq" overflow="visible"/></clipPath><path clip-path="url(#er)" fill="#4d2412" d="M46.88 16.91l-.22-.49-.6-.27.01-.02.61.27z"/></g><g><defs><path id="es" d="M42.29 16.08h.79v1.01h-.79z"/></defs><clipPath id="et"><use xlink:href="#es" overflow="visible"/></clipPath><path d="M43.07 17.09l-.12-.45c-.68-.53-.67-.54-.67-.55l.03.01h-.01l.01-.01c.02.03.41.34.67.54l.09.46z" clip-path="url(#et)" fill="#4d2412"/></g><g><defs><path id="eu" d="M39.93 17.33h2.42v2.08h-2.42z"/></defs><clipPath id="ev"><use xlink:href="#eu" overflow="visible"/></clipPath><path d="M39.95 19.42l-.01-.02c.3-.13 2.38-2.04 2.4-2.06-.07.09-2.09 1.94-2.39 2.08" clip-path="url(#ev)" fill="#4d2412"/></g><g><defs><path id="ew" d="M39.37 16.95h2.38v2.1h-2.38z"/></defs><clipPath id="ex"><use xlink:href="#ew" overflow="visible"/></clipPath><path d="M39.39 19.05l-.02-.02 2.36-2.08c.02.02-2.08 1.88-2.34 2.1" clip-path="url(#ex)" fill="#4d2412"/></g><g><defs><path id="ey" d="M43.31 17.27h2.26v3.89h-2.26z"/></defs><clipPath id="ez"><use xlink:href="#ey" overflow="visible"/></clipPath><path clip-path="url(#ez)" fill="#4d2412" d="M45.56 21.14l-2.25-3.86.02-.01z"/></g><g><defs><path id="eA" d="M45.27 18.87h1.11v1.43h-1.11z"/></defs><clipPath id="eB"><use xlink:href="#eA" overflow="visible"/></clipPath><path d="M46.38 20.28c-.04 0-.33-.21-.57-.34-.26-.14-.52-1.02-.53-1.06l.03-.01c0 .01.27.91.52 1.04.24.14.55.36.55.37z" clip-path="url(#eB)" fill="#4d2412"/></g><g><defs><path id="eC" d="M45.24 18.89h.99v1.72h-.99z"/></defs><clipPath id="eD"><use xlink:href="#eC" overflow="visible"/></clipPath><path d="M46.23 20.6c-.04 0-.29-.21-.53-.41-.26-.21-.44-1.24-.45-1.29h.03c0 .01.19 1.07.44 1.27.25.2.51.42.51.43" clip-path="url(#eD)" fill="#4d2412"/></g><g><defs><path id="eE" d="M43.45 18.82h1.75v2.48h-1.75z"/></defs><clipPath id="eF"><use xlink:href="#eE" overflow="visible"/></clipPath><path d="M45.2 21.28c-.05 0-.47-.28-.96-.61-.52-.34-.78-1.78-.79-1.84h.03c0 .01.27 1.49.77 1.82.52.33.95.63.95.63z" clip-path="url(#eF)" fill="#4d2412"/></g><g><defs><path id="eG" d="M43.42 18.79h2.19v2.26h-2.19z"/></defs><clipPath id="eH"><use xlink:href="#eG" overflow="visible"/></clipPath><path d="M45.61 21.03c-.06 0-.68-.33-1.14-.68-.47-.36-1.04-1.53-1.05-1.54l.03-.01c.01.01.57 1.18 1.04 1.53.47.36 1.11.69 1.12.7z" clip-path="url(#eH)" fill="#4d2412"/></g><g><defs><path id="eI" d="M41.61 18.88h.76v1.57h-.76z"/></defs><clipPath id="eJ"><use xlink:href="#eI" overflow="visible"/></clipPath><path d="M42.37 20.44c-.03 0-.29-.4-.46-.57-.1-.1-.13-.3-.17-.5-.03-.17-.07-.35-.14-.47l.03-.01c.07.13.1.31.14.48.04.2.07.4.16.49.17.17.43.58.44.58z" clip-path="url(#eJ)" fill="#4d2412"/></g><g><defs><path id="eK" d="M41.65 18.9h1.71v2.37h-1.71z"/></defs><clipPath id="eL"><use xlink:href="#eK" overflow="visible"/></clipPath><path d="M43.36 21.26c-.07-.03-1.13-1.14-1.24-1.32-.09-.12-.21-.41-.31-.66-.07-.16-.13-.31-.16-.36l.02-.02c.04.06.1.2.17.37.1.24.22.53.31.65.11.18 1.2 1.32 1.21 1.34" clip-path="url(#eL)" fill="#4d2412"/></g><g><defs><path id="eM" d="M0 0h58.92v34.37H0z"/></defs><clipPath id="eN"><use xlink:href="#eM" overflow="visible"/></clipPath><path d="M42.98 21.32c0 .09-.07.17-.16.17s-.16-.08-.16-.17c0-.09.07-.17.16-.17s.16.08.16.17" clip-path="url(#eN)"/></g><g><defs><path id="eO" d="M42.64 21.14h.35v.37h-.35z"/></defs><clipPath id="eP"><use xlink:href="#eO" overflow="visible"/></clipPath><path d="M42.82 21.51a.18.18 0 0 1-.18-.18c0-.2.35-.2.35 0 .01.1-.07.18-.17.18m0-.34c-.08 0-.15.07-.15.15 0 .17.29.17.29 0 .01-.08-.06-.15-.14-.15" clip-path="url(#eP)" fill="#4d2412"/></g><g><defs><path id="eQ" d="M0 0h58.92v34.37H0z"/></defs><clipPath id="eR"><use xlink:href="#eQ" overflow="visible"/></clipPath><path d="M43.79 21.69c0 .08-.06.15-.14.15-.08 0-.14-.07-.14-.15 0-.08.06-.15.14-.15.07 0 .14.06.14.15" clip-path="url(#eR)"/></g><g><defs><path id="eS" d="M43.49 21.53h.31v.32h-.31z"/></defs><clipPath id="eT"><use xlink:href="#eS" overflow="visible"/></clipPath><path d="M43.64 21.85c-.09 0-.16-.07-.16-.16 0-.18.31-.18.31 0 .01.09-.06.16-.15.16m0-.3c-.07 0-.13.06-.13.13 0 .15.26.15.26 0 0-.07-.06-.13-.13-.13" clip-path="url(#eT)" fill="#4d2412"/></g><g><defs><path id="eU" d="M0 0h58.92v34.37H0z"/></defs><clipPath id="eV"><use xlink:href="#eU" overflow="visible"/></clipPath><path d="M44.8 21.78c0 .08-.06.15-.14.15-.08 0-.14-.07-.14-.15 0-.08.06-.15.14-.15.08 0 .14.07.14.15" clip-path="url(#eV)"/></g><g><defs><path id="eW" d="M44.51 21.62h.31v.32h-.31z"/></defs><clipPath id="eX"><use xlink:href="#eW" overflow="visible"/></clipPath><path d="M44.66 21.94c-.09 0-.16-.07-.16-.16 0-.18.31-.18.31 0 .01.09-.06.16-.15.16m0-.3c-.07 0-.13.06-.13.14 0 .15.25.15.25 0a.122.122 0 0 0-.12-.14" clip-path="url(#eX)" fill="#4d2412"/></g><g><defs><path id="eY" d="M0 0h58.92v34.37H0z"/></defs><clipPath id="eZ"><use xlink:href="#eY" overflow="visible"/></clipPath><path d="M45.69 21.43c0 .07-.05.14-.12.14-.07 0-.12-.06-.12-.14 0-.08.05-.14.12-.14.07 0 .12.06.12.14" clip-path="url(#eZ)"/></g><g><defs><path id="fa" d="M45.44 21.28h.27v.3h-.27z"/></defs><clipPath id="fb"><use xlink:href="#fa" overflow="visible"/></clipPath><path d="M45.57 21.57c-.07 0-.13-.07-.13-.15 0-.17.27-.17.27 0-.01.09-.07.15-.14.15m0-.27c-.06 0-.11.06-.11.12 0 .13.21.13.21 0a.106.106 0 0 0-.1-.12" clip-path="url(#fb)" fill="#4d2412"/></g><g><defs><path id="fc" d="M0 0h58.92v34.37H0z"/></defs><clipPath id="fd"><use xlink:href="#fc" overflow="visible"/></clipPath><path d="M46.41 20.98c0 .07-.06.12-.14.12-.08 0-.14-.06-.14-.12 0-.07.06-.13.14-.13.07.01.14.06.14.13" clip-path="url(#fd)"/></g><g><defs><path id="fe" d="M46.11 20.85h.31v.28h-.31z"/></defs><clipPath id="ff"><use xlink:href="#fe" overflow="visible"/></clipPath><path d="M46.26 21.12c-.09 0-.15-.06-.15-.14 0-.15.31-.15.31 0 0 .08-.07.14-.16.14m0-.25c-.07 0-.13.05-.13.11 0 .12.25.12.25 0 .01-.06-.05-.11-.12-.11" clip-path="url(#ff)" fill="#4d2412"/></g><g><defs><path id="fg" d="M41.19 16.13h1.01v.46h-1.01z"/></defs><clipPath id="fh"><use xlink:href="#fg" overflow="visible"/></clipPath><path d="M42.2 16.13c-.06.05-1.15.32-1 .3.15-.02 1.02.23 1 .16-.02-.08 0-.42 0-.46" clip-path="url(#fh)" fill="#ea0020"/></g><g><defs><path id="fi" d="M41.18 16.1h1.04v.51h-1.04z"/></defs><clipPath id="fj"><use xlink:href="#fi" overflow="visible"/></clipPath><path d="M42.18 16.6c-.07 0-.24-.04-.43-.08-.21-.05-.42-.09-.51-.09h-.01c.13-.02.33.03.53.07.18.04.36.08.42.08v.01l.02-.02c-.02-.04-.01-.22-.01-.38-.01-.03-.28.04-.64.14-.14.04-.28.08-.33.09-.04-.02-.01-.03.32-.12.26-.07.62-.17.65-.19l.02-.02v.1c0 .11-.01.33 0 .38l-.03.03z" clip-path="url(#fj)" fill="#4d2412"/></g><g><defs><path id="fk" d="M43.39 15.79h.69v.41h-.69z"/></defs><clipPath id="fl"><use xlink:href="#fk" overflow="visible"/></clipPath><path d="M44.05 15.79c-.04 0-.67.25-.65.25.02 0 .71.2.69.16-.02-.05-.02-.35-.04-.41" clip-path="url(#fl)" fill="#ea0020"/></g><g><defs><path id="fm" d="M43.38 15.77h.72v.44h-.72z"/></defs><clipPath id="fn"><use xlink:href="#fm" overflow="visible"/></clipPath><path d="M44.08 16.21c-.07 0-.35-.08-.54-.13-.08-.02-.13-.04-.14-.04-.01-.05.64-.28.65-.28.02.04.03.13.03.21.01.08.01.18.02.2l-.02.04zm-.65-.18c.02 0 .06.01.11.03.17.05.46.13.53.13v.01l.01-.01c-.02-.01-.02-.08-.03-.2-.01-.08-.01-.17-.02-.2-.02.01-.48.19-.6.24" clip-path="url(#fn)" fill="#4d2412"/></g><g><defs><path id="fo" d="M45.26 16.01h.67v.39h-.67z"/></defs><clipPath id="fp"><use xlink:href="#fo" overflow="visible"/></clipPath><path d="M45.93 16.01c-.05.02-.78.21-.65.23.13.02.63.2.63.16 0-.05 0-.37.02-.39" clip-path="url(#fp)" fill="#ea0020"/></g><g><defs><path id="fq" d="M45.25 16h.69v.42h-.69z"/></defs><clipPath id="fr"><use xlink:href="#fq" overflow="visible"/></clipPath><path d="M45.89 16.42c-.05 0-.21-.05-.35-.09-.11-.03-.21-.07-.26-.07-.03-.05.04-.08.48-.2.09-.03.16-.04.17-.05.01.03 0 .16 0 .4l-.04.01zm-.61-.19c.06 0 .16.03.26.06.14.04.3.09.35.09v.01l.01-.02c0-.25.01-.34.01-.37-.02.02-.08.03-.15.06-.16.06-.46.15-.48.17z" clip-path="url(#fr)" fill="#4d2412"/></g><g><defs><path id="fs" d="M45.14 18.89h.68v2.43h-.68z"/></defs><clipPath id="ft"><use xlink:href="#fs" overflow="visible"/></clipPath><path d="M45.16 21.31h-.03c.02-.36.63-2.34.65-2.43.03.03-.6 2.08-.62 2.43" clip-path="url(#ft)" fill="#4d2412"/></g><g><defs><path id="fu" d="M45.35 18.91h.53v2.33h-.53z"/></defs><clipPath id="fv"><use xlink:href="#fu" overflow="visible"/></clipPath><path d="M45.38 21.24h-.03c0-.02.41-1.95.5-2.34-.14.8-.47 2.31-.47 2.34" clip-path="url(#fv)" fill="#4d2412"/></g><g><defs><path id="fw" d="M45.57 18.91h.4v2.16h-.4z"/></defs><clipPath id="fx"><use xlink:href="#fw" overflow="visible"/></clipPath><path d="M45.6 21.06h-.03c.02-.14.37-2.15.37-2.15.02 0-.32 2.02-.34 2.15" clip-path="url(#fx)" fill="#4d2412"/></g><g><defs><path id="fy" d="M45.16 20.85h.45v.18h-.45z"/></defs><clipPath id="fz"><use xlink:href="#fy" overflow="visible"/></clipPath><path d="M45.18 21.03l-.02-.02c.11-.07.42-.16.44-.16.01.02-.32.11-.42.18" clip-path="url(#fz)" fill="#4d2412"/></g><g><defs><path id="fA" d="M45.32 20.55h.33v.11h-.33z"/></defs><clipPath id="fB"><use xlink:href="#fA" overflow="visible"/></clipPath><path d="M45.32 20.67v-.03c.1 0 .32-.09.32-.09 0 .03-.21.12-.32.12" clip-path="url(#fB)" fill="#4d2412"/></g><g><defs><path id="fC" d="M45.37 20.28h.34v.1h-.34z"/></defs><clipPath id="fD"><use xlink:href="#fC" overflow="visible"/></clipPath><path d="M45.4 20.39l-.03-.01c0-.01 0-.03.34-.1-.14.06-.3.1-.31.11" clip-path="url(#fD)" fill="#4d2412"/></g><g><defs><path id="fE" d="M43.3 18.81h.68v2.52h-.68z"/></defs><clipPath id="fF"><use xlink:href="#fE" overflow="visible"/></clipPath><path d="M43.33 21.33h-.03c.02-.37.62-2.43.65-2.52.02.03-.6 2.15-.62 2.52" clip-path="url(#fF)" fill="#4d2412"/></g><g><defs><path id="fG" d="M43.51 18.83h.53v2.52h-.53z"/></defs><clipPath id="fH"><use xlink:href="#fG" overflow="visible"/></clipPath><path d="M43.54 21.35h-.03c0-.02.41-2.1.5-2.52-.14.86-.46 2.49-.47 2.52" clip-path="url(#fH)" fill="#4d2412"/></g><g><defs><path id="fI" d="M43.69 18.83h.44v2.53h-.44z"/></defs><clipPath id="fJ"><use xlink:href="#fI" overflow="visible"/></clipPath><path d="M43.71 21.36h-.03c.02-.14.41-2.53.41-2.53.04.01-.36 2.39-.38 2.53" clip-path="url(#fJ)" fill="#4d2412"/></g><g><defs><path id="fK" d="M43.33 20.84h.44v.19h-.44z"/></defs><clipPath id="fL"><use xlink:href="#fK" overflow="visible"/></clipPath><path d="M43.34 21.03l-.02-.02c.11-.07.42-.16.44-.17.01.03-.31.13-.42.19" clip-path="url(#fL)" fill="#4d2412"/></g><g><defs><path id="fM" d="M43.48 20.54h.33v.12h-.33z"/></defs><clipPath id="fN"><use xlink:href="#fM" overflow="visible"/></clipPath><path d="M43.48 20.66v-.03c.1 0 .32-.09.32-.09.01.03-.21.12-.32.12" clip-path="url(#fN)" fill="#4d2412"/></g><g><defs><path id="fO" d="M43.54 20.25h.34v.11h-.34z"/></defs><clipPath id="fP"><use xlink:href="#fO" overflow="visible"/></clipPath><path d="M43.56 20.37l-.03-.01c0-.01 0-.03.34-.11-.14.06-.29.1-.31.12" clip-path="url(#fP)" fill="#4d2412"/></g><g><defs><path id="fQ" d="M42.41 18.63h.68v2.44h-.68z"/></defs><clipPath id="fR"><use xlink:href="#fQ" overflow="visible"/></clipPath><path d="M43.06 21.07c-.02-.36-.64-2.41-.65-2.43.05.08.66 2.07.68 2.43h-.03z" clip-path="url(#fR)" fill="#4d2412"/></g><g><defs><path id="fS" d="M42.34 18.65h.53V21h-.53z"/></defs><clipPath id="fT"><use xlink:href="#fS" overflow="visible"/></clipPath><path d="M42.84 21c-.01-.04-.33-1.55-.5-2.35.11.38.53 2.32.53 2.34l-.03.01z" clip-path="url(#fT)" fill="#4d2412"/></g><g><defs><path id="fU" d="M42.26 18.65h.4v2.17h-.4z"/></defs><clipPath id="fV"><use xlink:href="#fU" overflow="visible"/></clipPath><path d="M42.62 20.82c-.02-.14-.37-2.17-.37-2.17.03 0 .37 2.02.4 2.16l-.03.01z" clip-path="url(#fV)" fill="#4d2412"/></g><g><defs><path id="fW" d="M42.61 20.6h.44v.19h-.44z"/></defs><clipPath id="fX"><use xlink:href="#fW" overflow="visible"/></clipPath><path d="M43.04 20.79c-.1-.07-.43-.16-.43-.16.02-.02.33.06.45.13l-.02.03z" clip-path="url(#fX)" fill="#4d2412"/></g><g><defs><path id="fY" d="M42.51 20.03h.34v.1h-.34z"/></defs><clipPath id="fZ"><use xlink:href="#fY" overflow="visible"/></clipPath><path d="M42.82 20.14c-.02-.01-.17-.05-.32-.08.34.04.34.07.34.08h-.02l.01-.01-.01.01z" clip-path="url(#fZ)" fill="#4d2412"/></g><g><defs><path id="ga" d="M42.44 19.71h.35v.09h-.35z"/></defs><clipPath id="gb"><use xlink:href="#ga" overflow="visible"/></clipPath><path clip-path="url(#gb)" fill="#4d2412" d="M42.79 19.81l-.35-.07.35.04z"/></g><g><defs><path id="gc" d="M42.4 19.5h.25v.04h-.25z"/></defs><clipPath id="gd"><use xlink:href="#gc" overflow="visible"/></clipPath><path d="M42.4 19.54c.1-.03.21-.03.23-.04l.02.01s0 .03-.25.03" clip-path="url(#gd)" fill="#4d2412"/></g><g><defs><path id="ge" d="M0 0h58.92v34.37H0z"/></defs><clipPath id="gf"><use xlink:href="#ge" overflow="visible"/></clipPath><path clip-path="url(#gf)" fill="#d0885d" d="M46.29 20.38l2.05.04.03-.16-2.13-.02z"/></g><g><defs><path id="gg" d="M46.22 20.23h2.16v.21h-2.16z"/></defs><clipPath id="gh"><use xlink:href="#gg" overflow="visible"/></clipPath><path d="M48.36 20.44h-.01l-2.06-.05-.06-.14h2.14l-.01.19zm-2.12-.18l.06.12 2.03.04.02-.14-2.11-.02z" clip-path="url(#gh)" fill="#4d2412"/></g><g><defs><path id="gi" d="M0 0h58.92v34.37H0z"/></defs><clipPath id="gj"><use xlink:href="#gi" overflow="visible"/></clipPath><path d="M46.37 19.81c.24 0 2.04-.36 2.04-.36s.07-.23 0-.23c-.06 0-2.04.43-2.04.43v.16z" clip-path="url(#gj)" fill="#d0885d"/></g><g><defs><path id="gk" d="M46.36 19.21h2.09v.62h-2.09z"/></defs><clipPath id="gl"><use xlink:href="#gk" overflow="visible"/></clipPath><path d="M46.37 19.83l-.01-.01v-.16c.09-.03 1.98-.44 2.05-.44.07.06.02.21.01.24-.08.02-1.81.37-2.05.37m2.05-.59c-.08 0-1.5.31-2.04.43l.01.13c.28-.01 2-.36 2.02-.36.01-.06.03-.17.01-.2z" clip-path="url(#gl)" fill="#4d2412"/></g><g><defs><path id="gm" d="M43.92 17.57h.23v.24h-.23z"/></defs><clipPath id="gn"><use xlink:href="#gm" overflow="visible"/></clipPath><path d="M44.04 17.57c.06 0 .11.06.11.13s-.06.12-.12.12-.11-.06-.11-.13.06-.12.12-.12" clip-path="url(#gn)" fill="#ad0024"/></g><g><defs><path id="go" d="M43.9 17.55h.26v.28h-.26z"/></defs><clipPath id="gp"><use xlink:href="#go" overflow="visible"/></clipPath><path d="M44.03 17.83c-.04 0-.07-.02-.1-.04a.128.128 0 0 1-.04-.1c0-.07.06-.13.13-.13.04 0 .07.02.1.04.03.03.04.06.04.1 0 .07-.06.13-.13.13" clip-path="url(#gp)" fill="#4d2412"/></g></svg>