<svg xmlns="http://www.w3.org/2000/svg" viewBox="0 0 58.92 34.37"><path fill="#bc0030" d="M0 0h58.92v34.37H0z"/><path fill="#347b5e" d="M5.63 4.81H53.3v24.75H5.63z"/><path fill="#f3d02f" d="M5.63 29.56l23.83-12.37 23.83 12.37z"/><path fill="#f3d02f" d="M5.63 4.81l23.83 12.38L53.29 4.81z"/><path d="M33.59 17.19c0-2.28-1.85-4.13-4.13-4.13s-4.12 1.85-4.12 4.13a4.13 4.13 0 0 0 4.12 4.13c2.28-.01 4.13-1.86 4.13-4.13" fill="#bc0030"/><path fill="#f3d02f" d="M25.87 16.02h2.74l.85-2.62.85 2.62h2.75l-2.22 1.61.84 2.61-2.22-1.61-2.22 1.61.85-2.61zM15.88 1.71h1.62L18 .17l.51 1.54h1.62l-1.31.96.5 1.54L18 3.26l-1.31.95.5-1.54zM27.34 1.71h1.62l.5-1.54.5 1.54h1.63l-1.32.96.5 1.54-1.31-.95-1.31.95.5-1.54zM38.79 1.71h1.63l.5-1.54.5 1.54h1.62l-1.31.96.5 1.54-1.31-.95-1.31.95.5-1.54zM15.88 31.28h1.62l.5-1.55.51 1.55h1.62l-1.31.95.5 1.54-1.32-.95-1.31.95.5-1.54zM27.34 31.28h1.62l.5-1.55.5 1.55h1.63l-1.32.95.5 1.54-1.31-.95-1.31.95.5-1.54zM38.79 31.28h1.63l.5-1.55.5 1.55h1.62l-1.31.95.5 1.54-1.31-.95-1.31.95.5-1.54z"/><path d="M8.58 17.23c.52.96 1.52 2.01 2.4 2.38.01-.97-.33-2.23-.81-3.22l-1.59.84z" fill="#bc0030"/><path d="M7.7 13.94c.75 1.56-1.94 5.28 2.54 6.15-.55-.75-.91-2-.77-3 .94.36 1.93 1.4 2.33 2.2 1.17-4.25-3.01-4-4.1-5.35" fill="#f3d02f"/></svg>