<svg xmlns="http://www.w3.org/2000/svg" viewBox="0 0 58.93 34.37"><path d="M13.97 7.76c-.03.63-.09 1.25-.19 1.87-.03.2-.06.4-.1.59.38-.05.77-.07 1.17-.07.4 0 .79.03 1.17.07-.04-.19-.07-.39-.1-.59-.09-.61-.16-1.24-.19-1.87.84.04 1.65.14 2.46.29-.05-.39-.07-.78-.07-1.17 0-.4.02-.79.07-1.17-.8.15-1.62.25-2.46.29.04-.83.14-1.65.29-2.46-.38.05-.77.07-1.17.07-.4 0-.79-.02-1.17-.07.15.8.25 1.62.29 2.46-.84-.04-1.66-.14-2.46-.29.05.38.07.77.07 1.17 0 .4-.02.79-.07 1.17.81-.16 1.63-.26 2.46-.29M43.19 7.76c-.03.63-.09 1.25-.19 1.86-.03.2-.06.4-.1.59.38-.05.78-.07 1.17-.07.4 0 .79.03 1.17.07-.04-.19-.07-.39-.1-.59-.09-.61-.16-1.24-.19-1.87.84.04 1.65.14 2.46.29-.05-.39-.07-.78-.07-1.17 0-.4.02-.79.07-1.17-.8.15-1.62.25-2.46.29.04-.83.14-1.65.29-2.46-.38.05-.78.07-1.17.07-.4 0-.79-.02-1.17-.07.15.8.25 1.62.29 2.46-.83-.04-1.65-.14-2.46-.29.05.38.07.77.07 1.17 0 .4-.02.79-.07 1.17.8-.15 1.62-.25 2.46-.28M15.74 26.62c.03-.63.09-1.26.19-1.87.03-.2.06-.39.1-.59-.38.05-.77.07-1.17.07-.4 0-.79-.03-1.17-.07.04.19.07.39.1.59.1.61.16 1.24.19 1.87-.84-.04-1.65-.14-2.46-.29.05.38.07.77.07 1.17 0 .4-.03.79-.07 1.17.8-.15 1.62-.25 2.46-.29-.04.84-.14 1.65-.29 2.46.38-.05.77-.07 1.17-.07.4 0 .79.02 1.17.07-.15-.8-.25-1.62-.29-2.46.83.04 1.65.14 2.46.29-.05-.39-.07-.78-.07-1.17 0-.4.02-.79.07-1.17-.81.15-1.63.25-2.46.29M44.95 26.62c.03-.63.09-1.26.19-1.87.03-.2.07-.39.1-.59-.39.05-.78.07-1.17.07-.4 0-.79-.03-1.17-.07.04.19.07.39.1.59.1.61.16 1.24.19 1.87-.83-.04-1.66-.14-2.46-.29.05.38.07.77.07 1.17 0 .4-.02.79-.07 1.17.8-.15 1.62-.25 2.46-.29-.04.84-.14 1.65-.29 2.46.38-.05.77-.07 1.17-.07.4 0 .79.02 1.17.07-.15-.8-.25-1.62-.29-2.46.84.04 1.65.14 2.46.29-.05-.39-.07-.78-.07-1.17 0-.4.03-.79.07-1.17-.8.15-1.62.25-2.46.29M26 0h6.93v34.37H26z" fill="#d50037"/><path fill="#d50037" d="M0 13.72h58.92v6.93H0z"/></svg>