<svg xmlns="http://www.w3.org/2000/svg" viewBox="0 0 58.92 34.37"><path fill="#fff" d="M0 0h58.93v34.37H0z"/><path fill="#c70021" d="M0 23.03h58.93v11.35H0z"/><path d="M26.75 30.56v1.08h.67v-.54h.92v.54h.73v-1.08h-2.32zm0 1.48v1.08h2.32v-1.08h-.73v.54h-.92v-.54h-.67z" fill="#f0d82c"/><path d="M29.1 33.16h-2.36l-.03-1.12.71-.03.03.57.88-.03-.03-.51.76-.03.04 1.15zm-1.71-1.12l-.64.03.04 1.05 2.25-.03v-1.05l-.69.03.03.51-.95.03-.04-.57zm1.71-.37h-.76l-.03-.58-.88.04.03.51-.71.03-.03-1.11 2.36-.04.02 1.15zm-.76-.61l.03.58.66-.03v-1.05l-2.29.03.04 1.05.64-.04-.03-.51.95-.03zM21.48 15.61h15.96v5.91H21.48z"/><path fill="#c70021" d="M25.95 20.66H20.7l-1.16.76v.81h6.41z"/><path d="M19.54 22.27l-.04-.85 1.18-.79 5.3-.01-.03.07H20.7l-1.14.76.01.78 6.38-.03z"/><path fill="#c70021" d="M32.98 20.66h5.24l1.17.76v.81h-6.41z"/><path d="M32.98 22.27l6.41-.07-.04-.78-1.15-.73h-5.26l.04-.07h5.24l1.19.77.01.84z"/><path d="M19.54 21.42h19.85-19.85z" fill="#c70021"/><path d="M19.54 21.46h-.04l.04-.07h19.85z"/><path fill="#c70021" d="M25.78 21.05l-1.31.64v.94h9.99v-.94l-1.31-.64h-3.69z"/><path d="M34.49 22.67H24.47l-.04-.98 1.33-.66h7.38l1.33.64.02 1zm-8.71-1.58l-1.3.63.02.91 9.92-.03v-.91l-1.29-.6h-7.35z"/><path d="M31.79 20.14c-.18.06-.41.17-.69.32-.28.15-.6.35-.9.55-.22.15-.41.3-.6.44-.07.05-.15.1-.21.15-.07.06-.11.11-.16.16-.03.04-.08.07-.11.1-.07.09-.14.16-.14.32 0 .03 0 .06.01.09.1-.12.25-.21.42-.23H29.52c.03 0 .05.01.07.01l.03-.03.08-.08c.07-.06.2-.14.29-.21.15-.11.29-.22.47-.34.29-.19.6-.38.87-.53.27-.15.5-.26.6-.28l-.14-.44z" fill="#f0d82c"/><path d="M28.96 22.35l-.01-.06v-.09c0-.16.07-.24.14-.33.03-.03.05-.06.08-.08l.11-.07-.02-.02c.04-.04.07-.08.12-.12.03-.03.07-.05.12-.08.03-.02.07-.04.1-.07.2-.16.38-.3.6-.44.3-.2.62-.4.9-.55.28-.16.51-.27.69-.33l.17.47c-.11.06-.34.16-.61.31-.27.15-.57.34-.87.53-.14.09-.25.18-.36.26l-.23.17c-.06.04-.12.09-.16.12l-.1.06.02.02-.07.03-.06-.04-.01.03h-.08c-.15.02-.3.1-.4.22l-.07.06zm2.8-2.2c-.15.07-.37.19-.65.34-.28.15-.6.35-.9.55-.21.14-.39.28-.57.42-.05.04-.09.06-.12.09-.04.03-.08.05-.11.08-.05.04-.08.08-.12.12l-.09.09c-.02.02-.05.04-.06.06-.08.09-.14.16-.14.3v.03c.11-.11.25-.18.39-.19l.17.01.11-.09c.04-.04.1-.08.17-.13l.23-.17c.11-.09.23-.17.37-.27.29-.19.6-.38.87-.53.27-.15.51-.26.6-.28l-.15-.43z"/><path d="M24.46 21.69h10-10z" fill="#c70021"/><path d="M24.46 21.72v-.07h10z"/><path d="M23.75 17.27c.75 0 1.37.63 1.37 1.4v1.99h.99v-7.52H20.7v7.52h1.68v-1.99c0-.74.61-1.4 1.37-1.4" fill="#c70021"/><path d="M26.15 20.69h-1.02l-.04-2.02c0-.75-.6-1.37-1.34-1.37-.73 0-1.34.63-1.34 1.37v1.99l-1.71.03-.04-7.55 5.44-.04.05 7.59zm-2.4-3.46c.78 0 1.41.65 1.41 1.44v1.99l.92-.03v-7.49l-5.37.04.03 7.48 1.64-.04-.04-1.95c.01-.78.65-1.44 1.41-1.44M22.55 8.05h2.49v4.56h-2.49z"/><path d="M25.03 11.9h-2.18v-.77h-1.6v.77h-1.08v-.77h-.65v1.4h5.5v-.63zm-4.85.63h4.69v.61h-4.69v-.61z" fill="#c70021"/><path d="M20.18 13.17l-.03-.61-.62.01-.04-1.44.68-.03.04.8 1.05-.03-.03-.74 1.63-.03.03.8 2.14-.03v.07h-2.18l-.04-.81-1.56.04.03.74-1.12.04-.03-.81-.61.04.04 1.37 5.31-.04h.16-.16l.03.64-4.72.02zm.03-.61v.58l4.66-.04-.03-.57-4.63.03z"/><path d="M22.04 6.39v4.74h.81v-1.3c0-.49.34-.89.83-.91h.05c.5 0 .91.41.91.91v1.3h.78V6.39h-3.38z" fill="#c70021"/><path d="M25.45 11.17h-.81l-.04-1.34c0-.48-.39-.88-.88-.88-.5.02-.84.4-.84.88v1.3l-.85.03L22 6.39l3.41-.03.04 4.81zm-1.77-2.29c.57 0 .99.43.99.95v1.3l.71-.03V6.39l-3.34.03.04 4.7.78-.03-.03-1.27c-.01-.5.36-.91.85-.94M27.42 5.15h3.94v7.15h-3.94z"/><path d="M27.15 5.15v5.98h1.25V9.36c0-.41.26-.98 1.07-.98.8 0 1.07.57 1.07.98v1.78h1.25V5.15h-4.64zm2.12.67h.38v2.05h-.38V5.82zm-1.11.41h.39v1.5h-.39v-1.5zm2.21 0h.39v1.5h-.39v-1.5z" fill="#c70021"/><path d="M31.81 11.17h-1.29l-.03-1.81c0-.35-.22-.94-1.03-.94s-1.03.59-1.03.94v1.78l-1.29.04-.03-6.02 4.67-.04.03 6.05zm-2.35-2.82c.87 0 1.1.64 1.1 1.01v1.78l1.18-.03V5.15l-4.6.04.03 5.95 1.22-.03-.04-1.74c.01-.39.24-1.02 1.11-1.02m0-.44h-.19l-.03-2.12h.42l.04 2.08-.24.04zm-.16-2.05v2.01l.16-.04h.19l-.03-2.01-.32.04zm1.07 1.9l-.03-1.57h.42l.04 1.53-.43.04zm.04-1.5v1.47l.35-.04-.03-1.46-.32.03zm-2.25 1.5l-.03-1.57h.42l.04 1.53-.43.04zm.04-1.5v1.47l.35-.04-.03-1.46-.32.03z"/><path fill="#c70021" d="M26.72 4.29v.85h5.48v-.85h-2.74z"/><path d="M32.24 5.18h-5.51l-.04-.89 5.51-.03.04.92zm-5.52-.85l.03.82 5.41-.03v-.83l-5.44.04z"/><path fill="#c70021" d="M26.21 3.3v.99h6.51V3.3h-.82v.55h-.92V3.3h-1.05v.55H29V3.3h-1.05v.55h-.92V3.3z"/><path d="M32.75 4.33H26.2l-.03-1.03.85-.03.03.58.89-.04-.03-.51L29 3.27l.04.58.43-.04h.46l-.04-.51 1.09-.03.03.58.89-.04-.03-.51.85-.03.03 1.06zM26.99 3.3l-.78.03.03.95 6.44-.03V3.3l-.78.04.04.51-.96.03-.04-.58-1.02.03.03.51-.95.04-.03-.58-1.02.03.03.51-.96.03-.03-.57z"/><path fill="#c70021" d="M21.75 5.75h3.93v.64h-3.93z"/><path d="M25.71 6.43h-3.96l-.03-.68 3.96-.03.03.71zm-.07-.68l-3.89.03.04.61 3.86-.04v-.6z"/><path fill="#c70021" d="M21.24 4.52v1.23h4.72V4.52h-.73v.63h-.88v-.63h-1.34v.63h-.87v-.63z"/><path d="M25.99 5.79h-4.75l-.04-1.26.93-.03.03.66.84-.03-.03-.59 1.37-.03.04.66.84-.03-.04-.59.76-.03.05 1.27zM22.1 4.52l-.86.03.04 1.2 4.64-.03v-1.2l-.69.03.03.59-.91.04-.04-.66-1.3.03.04.59-.91.04-.04-.66z"/><path fill="#f0d82c" d="M29.07 26h.67v7.81h-.67z"/><path d="M29.77 33.84h-.7L29.03 26l.7-.03.04 7.87zM29.7 26l-.64.04.03 7.77.6-.03V26z"/><path d="M29.4 24.09l1.43.83-1.43.83-1.43-.83 1.43-.83zm-1.91.53h-.37v.6h.37l1.91 1.11 1.91-1.11h.37v-.6h-.37l-1.91-1.11-1.91 1.11z" fill="#f0d82c"/><path d="M29.4 26.36l-1.93-1.12h-.36l-.04-.63.41-.04 1.89-1.1 1.95 1.11h.36l.04.63-.41.04-1.91 1.11zm-1.91-1.18l1.91 1.1 1.89-1.1h.39l-.04-.56-.34.04-1.93-1.11-1.87 1.11-.39.01.04.56.34-.05zm1.93.6l-1.46-.83 1.45-.9 1.44.84-1.43.89zm-.02-1.65l-1.41.82 1.43.77 1.39-.83-1.41-.76z"/><path d="M27.17 20.16l-.16.45c.52.19 1.25.55 1.83.9.29.18.55.35.73.49.09.07.16.14.19.19 0 .01.01.01.01.02v.01c0 .01.01.01.01.02 0 .03-.01.06-.02.08v.01s-.01 0-.01.01l-.01.01v.01h-.01l-.01.01c-.02.01-.05.01-.1.01-.03 0-.05 0-.07-.01h-.02-.01l-.01-.01v-.01l-.01-.01h-.05c-.15.02-.28.13-.33.28l.01.01c.11.13.29.22.5.22.22 0 .41-.09.51-.23.11-.14.13-.29.13-.42 0-.15-.07-.23-.13-.31-.07-.08-.16-.16-.26-.25-.21-.17-.48-.35-.78-.54-.63-.36-1.37-.74-1.93-.94" fill="#f0d82c"/><path d="M29.62 22.87c-.21 0-.4-.08-.52-.23.03-.2.17-.32.33-.34l.19.04c.06 0 .08-.01.09-.01.04-.05.04-.08.05-.11-.05-.07-.12-.13-.2-.2-.17-.14-.42-.31-.72-.49-.59-.36-1.33-.72-1.83-.9l.14-.48c.57.18 1.31.54 1.96.93.34.2.59.38.78.54.1.09.19.17.26.25.07.08.14.17.14.33 0 .17-.05.32-.14.43-.12.15-.32.24-.53.24m-.15-.51c-.18.02-.3.12-.34.26.24.25.77.25.98-.02.08-.1.12-.24.12-.4 0-.14-.07-.22-.13-.3-.07-.08-.15-.16-.26-.24-.19-.16-.44-.33-.78-.53-.64-.39-1.38-.75-1.91-.94l-.13.43c.49.15 1.23.51 1.82.87.31.19.56.36.73.5.09.07.16.14.2.19.02.09.02.13.01.15l-.05.06c-.06.03-.16.02-.2.01l-.06-.04z"/><path d="M30.1 22.62h-.02l-.35-.19.39.13c.02.01.02.03.01.05-.01 0-.02.01-.03.01M29.69 22.83c-.02 0-.03-.01-.04-.03l-.03-.35.1.35c0 .01-.01.03-.03.03z"/><path d="M29.37 22.06c-.31.05-.55.33-.55.66v1.48c0 .36.29.67.65.67h.04c.25 0 .47-.15.58-.38l-.23-.14c-.06.14-.19.24-.35.24h-.04c-.21 0-.38-.17-.38-.4v-1.48c0-.22.17-.39.38-.39h.06c.06 0 .11.01.16.04.01 0 .02-.01.03-.01l.01-.01v-.01l.01-.01v-.01h.01v-.01c.01-.02.01-.05.02-.08 0 0 0-.01-.01-.02 0 0-.01-.01-.01-.02-.03-.03-.07-.08-.13-.13h-.03H29.43h-.06c.01.01.01.01 0 .01m.78.52c-.01.01-.01.02-.02.03-.05.07-.13.13-.23.17v1.02l.27.15v-1.24c0-.04-.01-.08-.02-.13z" fill="#f0d82c"/><path d="M29.5 24.9h-.01c-.4 0-.7-.32-.7-.7v-1.48c0-.35.25-.65.58-.7h.22c.12.06.17.11.2.14.03.08.02.13.01.16l-.13.08a.401.401 0 0 0-.15-.03c-.24 0-.39.16-.39.36v1.48c0 .2.15.36.34.36.19 0 .31-.09.36-.22l.28.12c-.1.29-.34.44-.6.44h-.01zm-.06-2.81c-.36.05-.58.32-.58.63v1.48c0 .35.27.63.61.63l.03.04.01-.04c.24 0 .45-.14.56-.35l-.22-.09c-.01.14-.16.24-.33.24-.28 0-.46-.19-.46-.43v-1.48c0-.24.18-.43.41-.43.11 0 .17.01.23.04.04-.06.04-.08.04-.11a.924.924 0 0 0-.14-.14h-.16zm.76 1.93l-.32-.19-.02-1.05c.11-.07.19-.13.24-.19l.05-.05c.04.07.05.12.05.17v1.31zm-.08-1.43c-.02.13-.11.19-.21.23l.02.98.2.1v-1.18c0-.05 0-.09-.01-.13"/><path d="M35.17 17.27c-.76 0-1.37.63-1.37 1.4v1.99h-.99v-7.52h5.41v7.52h-1.68v-1.99c0-.74-.6-1.4-1.37-1.4" fill="#c70021"/><path d="M38.26 20.69h-1.71l-.03-2.02c0-.74-.61-1.37-1.34-1.37-.74 0-1.34.62-1.34 1.37v1.99l-1.02.03-.04-7.55 5.44-.04.04 7.59zm-3.09-3.46c.76 0 1.41.66 1.41 1.44v1.99l1.61-.04v-7.48l-5.37.04.04 7.48.95-.04-.03-1.95c-.01-.79.62-1.44 1.39-1.44"/><path fill="#c70021" d="M25 13.14v.61h8.93v-.61h-4.47z"/><path d="M33.96 13.79H25l-.04-.65 8.96-.04.04.69zM25 13.17l.03.58 8.86-.03v-.58l-8.89.03zM33.89 8.05h2.49v4.56h-2.49z"/><path d="M33.89 11.9h2.18v-.77h1.6v.77h1.08v-.77h.65v1.4h-5.5v-.63zm4.86.63h-4.69v.61h4.69v-.61z" fill="#c70021"/><path d="M34.05 13.17l-.03-.61h-.13.13v-.04l4.76-.03v.01l.61-.01-.03-1.37-.61.04.04.74-1.12.04-.03-.81-1.56.04.03.74-2.21.04v-.07h2.18l-.04-.74 1.63-.03.03.81 1.05-.03-.03-.74.68-.03.04 1.44h-.65v.6l-4.74.01zm0-.6l.03.57 4.66-.04-.03-.54-4.66.01z"/><path d="M36.89 6.39v4.74h-.82v-1.3c0-.49-.34-.89-.83-.91h-.05c-.5 0-.91.41-.91.91v1.3h-.78V6.39h3.39z" fill="#c70021"/><path d="M36.92 11.17h-.85l-.04-1.34c0-.48-.34-.85-.79-.88-.53 0-.92.39-.92.88v1.3l-.81.03-.03-4.77 3.41-.03.03 4.81zM35.2 8.88c.54.03.91.43.91.95v1.3l.75-.03V6.39l-3.34.03.04 4.7.74-.03-.04-1.27c-.01-.51.42-.94.94-.94"/><path fill="#c70021" d="M24.63 11.13v2.01h9.66v-2.01h-.91v.77h-1.22v-.77h-1.63v.77H28.4v-.77h-1.64v.77h-1.21v-.77z"/><path d="M34.33 13.17h-9.69l-.04-2.04.95-.03.03.8 1.18-.03-.04-.74 1.67-.03.03.8 2.1-.03-.03-.74 1.67-.03.04.8 1.18-.03-.03-.74.95-.03.03 2.07zm-8.82-2.04l-.88.04.04 1.97 9.59-.04v-1.97l-.88.04.03.74-1.25.04-.04-.81-1.6.04.04.74-2.17.04-.04-.81-1.6.04.04.74-1.25.04-.03-.84z"/><path fill="#c70021" d="M33.25 5.75h3.93v.64h-3.93z"/><path d="M37.21 6.43h-3.96l-.03-.68 3.96-.03.03.71zm-.07-.68l-3.89.03.04.61 3.86-.04v-.6z"/><path fill="#c70021" d="M37.68 4.52v1.23h-4.71V4.52h.73v.63h.87v-.63h1.34v.63h.88v-.63z"/><path d="M37.72 5.79h-4.75l-.03-1.26.76-.03.03.66.84-.03-.04-.59 1.37-.03.03.66.84-.03-.04-.59.93-.03.06 1.27zm-4.06-1.27l-.69.03.03 1.2 4.64-.03v-1.2l-.86.03.04.59-.91.04-.04-.66-1.3.03.03.59-.9.04-.04-.66z"/><path fill="#f0d82c" d="M29.07 26.68h.67v6.72h-.67z"/><path d="M29.77 33.43h-.7l-.04-6.76.7-.03.04 6.79zm-.07-6.75l-.64.04.03 6.69.6-.03v-6.7z"/><path d="M25.79 13.75v7.3h1.72v-2.73c0-1.29.86-1.89 1.94-1.89 1.04 0 1.94.6 1.94 1.89v2.73h1.73v-7.3h-7.33z" fill="#c70021"/><path d="M33.13 21.08H31.4l-.03-2.77c0-1.37-1.03-1.86-1.91-1.86-1.18 0-1.91.71-1.91 1.86v2.73l-1.76.04-.03-7.33 7.37-.04.04 7.33c-.01.03-.02.04-.04.04m-3.67-4.69c.91 0 1.98.5 1.98 1.93v2.73l1.66-.03v-7.26l-7.3.04.04 7.26 1.69-.03-.03-2.7c-.01-1.2.74-1.94 1.96-1.94"/></svg>