<svg xmlns="http://www.w3.org/2000/svg" viewBox="0 0 58.93 34.37"><path fill="#549b14" d="M0 0h58.92v11.54H0z"/><path fill="#fff" d="M0 11.54h58.92v11.29H0z"/><path fill="#d00428" d="M0 22.83h58.92v11.54H0z"/><path d="M23.24 13.85v5.52c0 .44.28.88.85.88h1.13c.28 0 .57.44.57.44s.27-.44.57-.44h1.13c.57 0 .85-.44.85-.88v-5.52h-5.1z" fill="#cacaca"/><path d="M25.8 20.74l-.03-.04s-.28-.43-.54-.43H24.1c-.6 0-.88-.47-.88-.91v-5.52l5.13-.03.03 5.55c0 .44-.27.91-.88.91h-1.13c-.28 0-.54.42-.54.43l-.03.04zm2.52-6.89l-5.08.03.03 5.49c0 .41.26.85.82.85h1.13c.25 0 .49.31.57.42.07-.11.31-.42.57-.42h1.13c.57 0 .82-.44.82-.85v-5.52z"/><path d="M22.06 19.81c-.29 0-.58-.22-.58-.44v-1.11c.25.19 1.43.88 1.14 1.11-.28.22-.57 0-.57 0 .01 0 .01.44.01.44" fill="#cacaca"/><path d="M22.09 19.84h-.03c-.3 0-.6-.23-.6-.47v-1.1c.1.02.18.08.29.15.48.32.95.65.95.87 0 .04-.02.08-.06.11-.2.15-.48.08-.58.02.02.05.02.19.02.4v.02zm-.62-1.55l.05 1.08c0 .2.26.4.52.41v-.41c.06-.01.18.06.32.06.09 0 .18-.03.26-.09.02-.02.03-.04.03-.06-.01-.2-.58-.59-.93-.82-.12-.07-.2-.14-.25-.17"/><path d="M22.05 19.37c.28-.22.28.22.57 0l-.29 1.32c-.28-.04-.29 0-.45-.22.01-.22.01-.93.17-1.1M29.5 19.81c.29 0 .57-.22.57-.44v-1.11c-.25.19-1.43.88-1.14 1.11.28.22.57 0 .57 0v.44" fill="#cacaca"/><path d="M29.5 19.84l-.03-.03v-.41c-.05.08-.36.14-.56-.01a.138.138 0 0 1-.06-.11c.01-.21.48-.55.95-.87.11-.07.19-.13.24-.17l.05 1.13c.02.23-.28.47-.59.47m-.01-.49c.04.05.04.34.04.43.26-.01.52-.21.52-.41v-1.11c0 .06-.09.12-.2.19-.35.23-.92.62-.93.82 0 .03.01.05.03.06.2.17.51.04.54.02"/><path d="M29.46 19.37c-.29-.22-.29.22-.57 0l.29 1.32c.28-.04.29 0 .44-.22 0-.22 0-.93-.16-1.1" fill="#cacaca"/><path d="M26.9 21.35c0-.22-.57-.66-.57-.88s.57.22 1.71.22c1.14 0 1.71-1.1 1.43-1.32.29.44.29.88.29 1.1 0 .44-.57.88-1.71.88H26.9z" fill="#cacaca"/><path d="M28.04 21.38H26.9c-.03-.13-.17-.29-.31-.45-.15-.18-.29-.34-.29-.46 0-.06.07-.11.38-.02.27.08.73.22 1.36.22.7 0 1.1-.41 1.24-.58.17-.21.26-.45.23-.59-.02-.03-.04-.07-.06-.1.08-.01.1.03.12.09l-.05.02c.27.39.27.77.27.98-.01.42-.56.89-1.75.89m-1.64-.94c-.04.13.1.3.24.46.15.17.29.34.29.46l1.11-.03c1.15 0 1.68-.44 1.68-.85 0-.2 0-.57-.2-.95.07.15-.03.39-.2.6-.15.18-.56.6-1.28.6-.63 0-1.1-.14-1.38-.22a.77.77 0 0 0-.26-.07"/><path d="M24.62 21.35c0-.22.57-.66.57-.88s-.57.22-1.71.22c-1.14 0-1.71-1.1-1.42-1.32-.29.44-.29.88-.29 1.1 0 .44.57.88 1.71.88h1.14z" fill="#cacaca"/><path d="M24.65 21.38h-1.17c-1.19 0-1.74-.47-1.74-.91 0-.21 0-.59.22-1 .01-.05.04-.1.07-.13.02.08 0 .11-.02.15l-.05-.02c.02.17.11.4.28.61.14.18.54.58 1.24.58.63 0 1.09-.14 1.36-.22.31-.09.38-.03.38.02 0 .12-.14.29-.29.46-.14.16-.28.32-.28.42v.04zm-2.69-1.91c-.16.42-.16.8-.16 1 0 .41.53.85 1.68.85h1.11c.02-.12.15-.27.29-.43.14-.16.28-.32.28-.42-.09-.03-.18-.01-.3.03-.28.08-.74.22-1.38.22-.72 0-1.14-.42-1.28-.6-.18-.23-.28-.49-.24-.65"/><path d="M24.62 21.13c0-.22.57-.44.57-.66v1.1h-.57v-.44zM26.9 21.13c0-.22-.57-.44-.57-.66v1.1h.57v-.44z" fill="#cacaca"/><path d="M24.62 21.13c0 .22 2.28.22 2.28 0v.88c0 .22-2.28.22-2.28 0v-.88z" fill="#cacaca"/><path d="M25.76 22.21c-.27 0-1.17-.02-1.17-.2v-.88c.06.06.45.14 1.17.14s1.11-.08 1.11-.14v.03l.06.86c0 .17-.9.19-1.17.19m-1.17-1.07l.06.88c0 .06.4.14 1.11.14.72 0 1.11-.08 1.11-.14v-.85c-.05.15-.85.16-1.11.16-.27 0-1.15-.02-1.17-.19"/><path d="M25.76 21.33c-.3 0-.58-.02-.79-.04-.34-.04-.38-.1-.38-.15 0-.12.14-.24.3-.35.13-.1.27-.21.27-.31-.04-.05-.16-.01-.31.03-.28.08-.74.22-1.38.22-.84 0-1.36-.59-1.49-.97-.06-.19-.05-.34.05-.41.16-.12.25-.06.32 0 .07.05.12.1.25 0l.04.05c-.16.12-.25.05-.32 0s-.12-.1-.25 0c-.07.05-.08.18-.03.34.12.36.62.93 1.43.93.63 0 1.09-.14 1.36-.22.19-.06.29-.09.35-.05l.01.01.02.06c0 .13-.14.24-.3.35-.13.11-.27.21-.27.31 0 .06.4.14 1.11.14.71 0 1.11-.08 1.11-.14 0-.1-.14-.2-.27-.31-.15-.12-.29-.23-.29-.35l.03-.07c.05-.04.16-.01.35.05.27.08.73.22 1.36.22.81 0 1.31-.57 1.43-.93.06-.16.04-.29-.03-.34-.13-.1-.18-.05-.25 0s-.16.12-.32 0c.16.05.22.01.29-.05.07-.06.16-.12.32 0 .09.07.11.22.05.41-.13.38-.65.97-1.49.97-.63 0-1.1-.14-1.38-.22-.14-.04-.27-.08-.3-.06-.01.12.13.23.27.33.15.12.3.23.3.35 0 .18-.9.2-1.17.2"/><path d="M29.27 20.98l-.29-.49.05-.02.29.49zM29.09 20.88h.06c.02.06.02.11 0 .15-.01.04-.04.06-.08.08-.04.01-.08.01-.12 0-.04-.01-.07-.04-.11-.08-.03-.04-.06-.08-.09-.13a.282.282 0 0 1-.04-.15c0-.04.01-.08.02-.11.02-.03.05-.05.08-.06.04-.01.08-.01.12.01.04.02.08.05.11.09l-.04.03c-.03-.03-.05-.05-.08-.07a.11.11 0 0 0-.08 0c-.03.01-.05.03-.06.05-.01.03-.01.05-.01.09.01.03.02.07.04.1.02.04.04.08.07.11.02.03.05.05.08.06.03.01.06.01.08 0a.09.09 0 0 0 .06-.06c0-.03 0-.07-.01-.11M28.73 21.21l-.19-.52.05-.01.19.52zM28.37 21.27l-.05-.48-.14.01-.01-.06.34-.03v.07l-.14.01.05.47zM27.82 21.12l.05-.01c0 .03.01.05.02.07.01.02.02.03.04.04.02.01.04.02.07.02.02 0 .04 0 .06-.01.02-.01.03-.02.04-.03.01-.01.01-.03.01-.05 0-.02 0-.03-.01-.04a.138.138 0 0 0-.04-.03c-.01-.01-.04-.01-.08-.03a.22.22 0 0 1-.08-.03.12.12 0 0 1-.05-.05c-.01-.02-.01-.04-.01-.07 0-.03.01-.05.02-.08a.12.12 0 0 1 .05-.05c.02-.01.05-.02.08-.02s.06.01.08.02c.03.01.04.03.06.06a.2.2 0 0 1 .02.09h-.06c0-.03-.01-.06-.03-.08s-.04-.03-.07-.03c-.03 0-.06.01-.07.02-.02.02-.02.03-.02.06 0 .02.01.04.02.05.01.01.04.03.09.04.05.01.08.03.1.04.03.02.04.03.06.06.01.02.02.05.02.08s-.01.06-.02.08a.09.09 0 0 1-.06.06c-.03.02-.05.02-.08.02-.04 0-.07-.01-.1-.02s-.05-.04-.06-.07c-.04-.04-.05-.07-.05-.11M27.66 20.75h.06l-.02.31c0 .06-.01.1-.02.13s-.03.06-.06.08c-.03.02-.06.03-.1.03-.04 0-.07-.01-.1-.03a.158.158 0 0 1-.05-.08c-.01-.04-.01-.08-.01-.14l.02-.31h.06l-.02.31v.11c.01.02.02.04.03.05.02.01.04.02.06.02.04 0 .07-.01.09-.03.02-.02.03-.07.03-.14l.03-.31zM26.96 21.11l.05-.01c0 .04.01.07.02.09.01.02.03.02.05.02.01 0 .03 0 .04-.01.01-.01.02-.02.02-.03 0-.01.01-.04.01-.07v-.38h.06v.37c0 .05-.01.08-.01.11-.01.03-.02.04-.04.06-.02.01-.04.02-.07.02-.04 0-.07-.01-.09-.04-.03-.03-.04-.07-.04-.13M25.99 22.02v-.08l.22-.4c.01-.03.03-.05.04-.07h-.24v-.07h.31v.07l-.24.43-.03.04h.28v.07h-.34zM22.85 21.27l.14-.61.05.01-.13.61zM22.24 21.03l.36-.54.05.02-.08.51.28-.42.04.02-.35.54-.05-.02.08-.52-.28.43zM22.55 20.42l.04.03-.31.25c-.05.04-.1.08-.14.1a.26.26 0 0 1-.11.03c-.04 0-.07-.01-.1-.04a.09.09 0 0 1-.04-.08c0-.03.01-.06.04-.09.02-.03.07-.07.12-.12l.31-.25.04.03-.3.25c-.05.04-.08.07-.1.09-.02.02-.02.04-.02.06 0 .02.01.04.03.05.03.02.06.03.1.02a.35.35 0 0 0 .15-.1l.29-.23zM23.15 21.31l.02-.61h.15c.03 0 .06 0 .08.01.03.01.04.02.06.04.02.03.04.06.05.11.01.04.01.09.01.15 0 .05-.01.09-.01.13-.01.04-.02.06-.03.09-.01.02-.03.04-.04.05-.01.01-.03.02-.05.03-.02.01-.04.01-.07.01l-.17-.01zm.06-.07h.09c.03 0 .05 0 .07-.01.02-.01.03-.02.04-.03.01-.02.03-.05.03-.08.01-.03.01-.07.01-.12 0-.06 0-.11-.02-.15-.01-.04-.03-.06-.05-.07-.01-.01-.04-.01-.07-.01h-.09l-.01.47zM23.55 21.32l.17-.61h.06l.18.61h-.07l-.05-.19h-.18l-.05.19h-.06zm.13-.26h.15l-.04-.17c-.01-.05-.02-.09-.03-.13-.01.04-.01.08-.02.12l-.06.18zM24 21.32v-.62h.15c.03 0 .06 0 .08.01.02.01.04.02.06.04.02.03.04.06.05.11.01.04.02.09.02.15 0 .05 0 .09-.01.12-.01.04-.02.07-.03.09-.01.02-.03.04-.04.06-.01.01-.03.02-.05.03-.02.01-.04.01-.07.01H24zm.06-.07h.09c.03 0 .05 0 .07-.01.02-.01.03-.02.04-.03.01-.02.02-.04.03-.08.01-.03.01-.07.01-.12 0-.06-.01-.11-.02-.15s-.03-.06-.05-.07c-.02-.01-.04-.01-.07-.01h-.09v.47zM25.22 22.02v-.61h.16c.03 0 .05 0 .07.01.02.01.04.02.05.03.01.01.03.03.03.06.01.03.01.05.01.08 0 .05-.01.1-.03.13-.02.04-.07.05-.13.05h-.11v.25h-.05zm.06-.32h.11c.04 0 .06-.01.08-.03.02-.02.02-.05.02-.08s0-.05-.01-.07a.078.078 0 0 0-.04-.04c-.01 0-.03-.01-.05-.01h-.11v.23zM25.58 22.02l.17-.61h.06l.18.61h-.07l-.05-.19h-.18l-.05.19h-.06zm.12-.25h.15l-.05-.17c-.01-.05-.02-.1-.03-.13-.01.04-.01.08-.02.12l-.05.18zM29.4 20.93l-.29-.53.05-.03.54.37-.05.03-.16-.11-.13.08.09.16-.05.03zm-.08-.24l.11-.07-.15-.11c-.05-.03-.08-.06-.11-.08.02.03.04.06.06.1l.09.16z"/><path d="M25.71 16.79c0 .33.2 1.31-.37 2.84-.04.11.07.16.16.19.09.02.14-.09.14-.12 0-.02.02.19.12.16.09-.02.19-.16.19-.16s.05.21.16.21c.12 0 .12-.26.12-.26 0 .02.08.22.17.22s.24-.09.15-.23c-.59-1-.56-2.67-.56-2.86 0-.19.27-.53.55-.53l-.11-.17c-.07.02-.15.04-.29.15-.14.12-.22.25-.22.25v-.8h-.23l.02.73s-.08-.09-.2-.2c-.11-.1-.32-.09-.44-.07l-.01.16c.15.03.34-.03.43.11.12.13.22.22.22.38" fill="#612c0d"/><path d="M26.11 19.95c-.11 0-.16-.13-.18-.2-.01.05-.09.13-.16.15-.09.02-.12-.06-.13-.12-.01.04-.06.08-.11.08-.1-.02-.18-.05-.21-.11-.02-.03-.02-.07 0-.11.48-1.28.41-2.19.38-2.63-.01-.09-.01-.15-.01-.21 0-.14-.09-.23-.19-.33-.08-.11-.18-.11-.28-.11-.05 0-.1 0-.15-.01l-.01-.19c.23-.11.39-.04.49.05.12.1.2.2.2.2l-.07-.71.26-.03.03.76c.03-.05.09-.13.18-.2.13-.11.21-.14.28-.15l.16.17c-.28.05-.54.38-.54.55-.01 1.21.2 2.23.56 2.84.04.08.03.14.01.17-.04.07-.12.1-.19.1s-.13-.08-.17-.16c-.02.09-.06.2-.15.2m-.19-.26c.06.06.11.2.19.2.07 0 .09-.16.09-.23.06.03.14.19.2.19.05 0 .11-.03.14-.07.02-.03.02-.07-.01-.11-.5-.85-.57-2.15-.57-2.84 0-.23.29-.58.58-.59l-.13-.12c-.05.04-.13.06-.25.16-.14.12-.22.24-.22.24v-.02c-.01-.01-.01-.02 0-.05l-.05-.75-.2.03.05.7c-.05.02-.13-.07-.25-.18-.12-.11-.31-.08-.42-.06l.01.13c.02-.02.07-.02.12-.02.12 0 .23 0 .31.11.13.12.23.22.23.39 0 .05.01.12.01.2.03.44.1 1.35-.39 2.65.02.1.07.13.14.15.08 0 .1-.08.1-.09.09.13.12.14.13.14.09-.02.17-.12.19-.16"/><path d="M24.04 15.89c0 .01 0 0 .01-.03s.03-.06.06-.08c.04-.01.1 0 .15-.01.03-.03.08.04.08-.01.06 0 .06-.05.08-.07.06 0 .07-.06.11-.02.04.01.01-.01.07-.01.04.01.06.02.09.01.01-.03.02-.07.02-.1-.02-.03-.01-.07-.01-.11.03-.03.08.03.14.02.01-.04.06-.03.03-.07 0-.04-.01-.07 0-.11.02-.04.04-.04.09-.06.01-.03 0-.06.01-.1.05 0 .05-.01.06-.05a.5.5 0 0 1 .07-.08c.03-.02.06-.02.08-.06.02-.03.02-.05.07-.06.04-.01.07-.01.09-.03.02-.03.04-.06.08-.1.04-.02.21.02.26.02.03-.03.07-.07.1-.09.05-.02.07-.03.14-.03.06.01.08.03.15.02.03-.03.05-.04.12-.03.05.02.07.02.09.06.03.05.02.07.09.07.07 0 .08.01.13.04.07.02.07.01.07.06.05 0 .05 0 .06.04.03.01.07.03.09.04.03.02.04.04.1.04.05-.02.07-.02.07-.06.04-.01.04-.04.06-.07.03-.03.05-.03.11-.03.06.02.06.04.05.08.04.01.05 0 .06.03.02.03.01.05-.01.07.03.02.05.04.06.08-.02.03-.01.06 0 .09.04.02.06.03.11.04.03.02.08.03.14.04.06-.01.08-.01.14.02.03.03.03.07.06.09.03.02.08.03.1.05.04.02.05.05.1.05.02.02.06.06.08.09.01.03.02.07.03.11v.12c0 .04-.01.07-.01.12-.01.02-.02.03-.02.07-.02.04-.04.07-.07.09-.01.04-.03.06-.06.1 0 .05.01.07.01.11-.02.03-.05.05-.1.07-.04.03-.06.05-.07.09-.02.03-.02.03-.07.03-.06 0-.11.01-.16.01s-.06 0-.09-.02a.286.286 0 0 0-.16-.01c-.03-.01-.04-.02-.1-.02-.04 0-.08.01-.14.01-.04-.03-.05-.04-.11-.04-.03.01-.1.01-.15.01-.05-.01-.06-.03-.08-.06-.04-.01-.05-.03-.1-.03s-.12 0-.15-.01c-.04-.01-.08-.01-.1-.03a.24.24 0 0 0-.08-.06c-.05 0-.08 0-.1-.02-.04-.02-.07-.06-.11-.07-.04-.03-.07-.04-.09-.09 0-.04.01-.05-.05-.05-.04.03-.06.04-.13.04-.05 0-.1 0-.13-.01-.05-.02-.07-.03-.13-.03a.29.29 0 0 1-.14.04c-.05.02-.07.03-.09.06-.04.03-.07.04-.13.06-.03.02-.06.03-.08.07-.01.03-.02.05-.02.1.01.04 0 .06-.02.1-.02.03-.07.04-.1.06-.06.01-.06 0-.1-.02a.59.59 0 0 0-.14-.02.23.23 0 0 1-.11-.04l.11.04a.23.23 0 0 1-.11-.04c-.07-.04-.08-.06-.16-.06-.07 0-.1 0-.11.05.04.01.01.03-.01.03a.21.21 0 0 1-.11.04c-.02.01-.01-.01-.04-.02-.05-.02-.07-.03-.11-.04a.304.304 0 0 0-.08-.08c-.02-.03-.05-.04-.08-.07-.02-.02-.06-.02-.08-.03-.01-.03-.04-.09-.03-.12.02-.02.04-.07.07-.08.05-.03.06 0 .13 0 .06 0-.08-.07-.02-.07.05-.01.06-.03.08-.05h.09z" fill="#3b9312"/><path d="M24.8 16.51l-.08-.02a.507.507 0 0 0-.13-.02l-.07-.03c-.02 0-.04-.01-.06-.02a.388.388 0 0 0-.14-.06c-.07 0-.08.01-.08.03-.05.07-.1.09-.15.1l-.1-.04a.145.145 0 0 0-.07-.02l-.07-.07-.19-.14c-.02-.04-.04-.09-.03-.13.04-.07.06-.1.09-.11l.09-.01.07-.09.17-.02c0-.05.03-.09.05-.1l.01-.01.28-.05.08-.05.18-.01c.03-.01.04-.04.05-.08-.01-.01-.01-.05-.01-.09v-.03l.05-.03.1.03c.01-.09 0-.12.02-.16.02-.04.05-.05.07-.06l.03-.09.04-.06a.29.29 0 0 1 .08-.1l.1-.04-.03-.01c.02-.04.04-.06.09-.07l.1-.01-.02-.02c.02-.03.05-.06.08-.1.09-.01.15-.01.19 0 .04.01.07.01.09.01.02-.03.06-.07.09-.08.05-.02.08-.03.15-.03l.1.02c.04-.02.07-.04.11-.04l.09.02c.03.01.06.02.07.06l.07.08v-.03c.06 0 .08.01.12.04.09.03.1.04.1.09.06.02.09.03.13.06.03.03.04.04.09.04v-.02l.1-.1c.04-.04.07-.04.14-.04.08.03.09.06.07.12l.07.07c0 .02.02.05.03.09v.08c.04.01.06.02.09.03.03.02.09.03.13.04.08 0 .1 0 .14.02h.01l.04.11.05-.01c.02.01.05.02.07.04h.01l.09.05c.05.05.07.07.08.09l.04.13-.04.32a.36.36 0 0 1-.07.1c0 .02-.02.04-.03.07v.12c-.04.05-.07.07-.12.09-.03.03-.05.04-.05.07l-.01.02-.08.03c-.07 0-.12 0-.17.01-.06 0-.08 0-.11-.02-.02-.01-.05-.01-.07-.01h-.08c-.03-.02-.04-.02-.09-.02-.04.01-.08.01-.14.01-.05-.03-.06-.04-.11-.04-.01.01-.05.01-.09.01-.12-.01-.14-.03-.16-.07l-.08-.05v.03c-.1 0-.13 0-.16-.01-.04 0-.08-.01-.11-.03-.03-.03-.05-.05-.08-.06-.05.01-.08 0-.11-.02-.06-.04-.08-.06-.11-.07-.05-.03-.08-.05-.1-.1h-.15c-.05 0-.1 0-.13-.01-.06-.02-.07-.03-.12-.03-.03.02-.07.04-.13.04v.01l-.07.05c-.04.03-.07.04-.13.06l-.09.04.03.01c-.01.04-.02.06-.02.09.01.05 0 .07-.03.12-.02.02-.05.03-.07.05l-.08.04zm-.19-.1c.05.01.09.01.13.03l.06.05.03-.03.1-.03-.02-.02c.02-.03.02-.04.02-.08 0-.05.01-.07.02-.1.03-.06.05-.08.07-.09.09-.04.11-.05.15-.08.01-.03.04-.04.07-.05.08-.02.13-.04.16-.05.07 0 .1.01.14.03.03.01.08.01.12.01.07 0 .08 0 .11-.03l.02-.02.06.03c.02.09.04.1.08.12.04.01.06.03.08.05l.09.04c.08.02.11.04.14.07.01.01.04.01.08.02.03.01.07.01.09.01.1 0 .13.01.14.02l.1.1v-.03c.07 0 .12 0 .14-.01.07 0 .1 0 .14.04.03-.01.07-.01.12-.01.03.02.08.01.11.02.04-.01.11-.01.17.01l.08.02c.05 0 .1-.01.16-.01.05-.05.07-.08.1-.1.07-.04.09-.06.12-.08l-.02-.11c.04-.05.05-.07.05-.1.03-.04.05-.06.07-.1l.05-.06-.02-.07.01-.17-.01-.11-.02.02c-.01-.01-.03-.04-.05-.05a.356.356 0 0 1-.1-.06l-.17-.12c-.05-.04-.06-.05-.09-.05a.457.457 0 0 1-.2-.05c-.03-.01-.05-.01-.07-.02-.06-.07-.08-.11-.05-.15-.01 0-.03-.02-.05-.03l.04-.05-.1-.08c-.08-.04-.09-.04-.11-.02-.01.03-.02.07-.07.08.02.04-.01.04-.05.05-.09 0-.11-.01-.13-.03-.04-.03-.07-.04-.09-.05h-.03l-.13-.11c-.03-.02-.04-.02-.09-.02-.07 0-.08-.02-.1-.06l-.05-.05-.01.01-.12.01c-.08 0-.1 0-.13-.01-.09 0-.11 0-.15.02-.02.01-.06.05-.09.07-.05.01-.08.01-.12.01a.688.688 0 0 0-.13-.02c-.05.03-.07.06-.09.09l-.01.01-.14.07c-.02.04-.05.06-.07.07-.05.03-.07.05-.09.09 0 .04-.02.06-.08.06V15.27l-.1.03.03.01v.1l-.06.1-.08-.02c-.03.02-.03.05-.02.07 0 .06-.01.09-.02.12l-.3.02.02.02c-.02.04-.04.07-.1.08l-.01.01h-.15c-.08.02-.1.04-.1.06l-.06.02h.02l-.14.03c0 .02-.02.05-.08.05l.06.04-.1.02-.09.04c-.03.05-.01.1 0 .12l.06.06.02-.02.06.09.02-.02c.04.04.06.06.08.09.02 0 .04.01.06.02l.07.04c.04-.01.07-.03.1-.04.02-.09.07-.09.14-.09.07.01.1.02.13.04.09.03.1.04.17.05z"/><path d="M25.33 15.26c-.06 0-.08 0-.12-.02-.03-.05-.03-.06-.07-.07-.05 0-.11-.02-.13-.03l.03-.05c.01.01.05.03.1.03.07.01.09.04.11.09h.08c.05.01.07.02.09.05l-.09-.02v.02zM24.84 15.72c-.06 0-.13 0-.15-.01l.01-.06c.02 0 .11.01.17.01a.21.21 0 0 0 .06-.04c.1-.02.13-.02.16 0l.14.04-.09.02c-.03 0-.05-.01-.07-.01-.03-.02-.04-.02-.1-.02-.04.03-.06.04-.09.06h-.04zM25.16 15.55l-.03-.05c.01-.01.05-.03.09-.03a.3.3 0 0 1 .1-.04l.09-.02.06.05-.06-.02-.06.03c-.05.02-.09.03-.12.05-.02 0-.05.02-.07.03M26.18 15.81c-.03 0-.05-.01-.09-.01a.316.316 0 0 1-.13-.07c-.03-.01-.05-.03-.08-.05-.07-.05-.1-.07-.14-.12-.02-.05-.04-.09-.05-.15l.03-.06v.01c.03.08.05.12.07.16.03.04.05.06.09.08.06.05.08.06.11.07.03.03.07.05.12.06h.08l.06.03-.07.05zM25.98 15.22c.04-.07.05-.08.08-.12l.09-.07-.03-.01c.02-.04.04-.09.11-.11.01-.02.02-.05.04-.08l.04-.07.03.04c-.03.09-.05.12-.07.15-.05.03-.07.05-.09.09l-.07.1c-.04.04-.06.06-.13.08M26.77 15.39c-.02 0-.03 0-.04-.01l-.03-.03s0-.01-.01-.01c-.03-.06-.03-.1-.03-.15.01-.06.01-.11.04-.14l.1-.05-.01.03c-.05.08-.05.12-.06.15 0 .05 0 .09.01.12.03.03.04.05.09.07h-.01.01c-.02.01-.04.02-.06.02M27.35 15.54H27.2l.1-.06c.06 0 .07 0 .13-.01.02-.01.04-.04.07-.06l.1-.05-.02-.02.06.03-.07.05c-.06.05-.09.07-.11.09-.06.03-.09.03-.11.03M27.61 16.21c-.02 0-.04 0-.06-.01-.06-.03-.1-.05-.13-.08.07-.01.1 0 .13.02.05.02.1.02.15.01l.07.01v.03-.03l-.01.03c-.07.01-.11.02-.15.02M27.34 16.48v-.01c-.07-.04-.09-.05-.12-.07-.08-.08-.09-.1-.11-.16-.01-.07-.02-.11 0-.14l.05.1c.02.08.03.09.07.14.06.04.08.05.1.08l.06.05-.05.01zM26.52 16.33v-.06c.02 0 .11 0 .15-.01.02-.01.05-.03.09-.04.04-.06.05-.08.05-.12.06.05.04.08.03.11l-.05.06c-.03.01-.06.02-.09.04-.06.02-.15.02-.18.02M24.33 16.35h-.05l.01-.06h.08c.04-.03.09-.03.15-.03l.08-.03c.03-.02.04-.04.05-.07l.08-.06-.03.09c-.02.03-.03.06-.08.09l-.1.04c-.05 0-.09.01-.14.03h-.05M25.19 15.89l-.02-.05.01.03-.01-.03c.04-.01.08-.02.11-.02.01-.01.04-.02.07-.03l.1.02-.08.04c-.03.01-.06.02-.08.03-.02-.01-.05-.01-.1.01M23.86 16.3l-.06-.02v-.03.03l.01-.03c.09-.01.13-.02.17-.04.07-.04.12-.07.15-.08 0 .07-.05.09-.08.12-.09.03-.13.04-.19.05M27.21 15.89c-.05 0-.08-.01-.11-.02-.05-.03-.06-.04-.11-.06-.03 0-.06-.01-.08-.01-.09-.02-.13-.02-.17-.04l-.08-.05.04-.02c.09.04.13.04.16.05.08.02.1.03.13.03.07.03.09.03.13.07.02.01.04.02.1.02a.66.66 0 0 1 .11-.04c-.01.06-.06.08-.09.09h-.03z" fill="#2b6a0c"/><path d="M25.69 19.7c-.06-.05-.06-.1-.07-.15 0-.11 0-.16-.01-.21-.02-.04-.01-.08-.01-.11.04-.09.07-.16.1-.2.02-.05.02-.1.03-.15l.02-.14c0-.05.01-.1.03-.15 0-.04 0-.09.01-.13l.01-.08c.03-.04.03-.1.03-.17a.71.71 0 0 0 .03-.21v-.23h.06V18c0 .08-.01.15-.03.22 0 .07 0 .14-.03.2-.01.1-.01.14-.01.19-.01.05-.02.1-.02.15l-.01.08c-.02.12-.02.17-.03.21-.04.07-.07.14-.1.18 0 .07-.01.09.01.11.02.06.02.12.02.18-.03.06-.03.12-.03.18"/><path d="M25.99 19.64c-.07 0-.07-.03-.07-.07 0-.03-.01-.04-.03-.06-.01-.02-.03-.05-.04-.09 0-.11 0-.17.02-.22l.03-.2c.05-.08.06-.11.06-.19-.01-.07-.02-.14-.02-.22v-.32c0-.05-.02-.12-.03-.17l.05-.04-.03.01.04.03c.01.05.02.12.03.18v.32c0 .08.01.15.01.22 0 .1-.02.14-.07.21l-.03.19c-.02.05-.02.11-.02.16.01.07.02.09.03.11.01.02.03.05.03.09.03.03.03.04.04.06"/><path d="M26.22 19.64l-.03-.04c-.01-.04-.02-.05-.04-.08l-.04-.06c-.01-.01-.04-.03-.06-.06a.17.17 0 0 0-.06-.06c-.01-.1.01-.16.04-.21.04-.03.05-.07.06-.14 0-.03 0-.06-.01-.09 0-.03-.01-.07-.01-.11a.95.95 0 0 1-.02-.2l.06-.01v.01c0 .12.01.17.01.19 0 .05.01.08.01.11s.01.06.01.1c-.01.07-.02.13-.08.17a.31.31 0 0 0-.04.16c.01-.01.04.02.06.05.02.02.04.05.06.06l.04.06c.02.02.04.05.05.1l-.01.05z"/><path fill="#f5d028" d="M26.44 13.26l-.18-.26-.32-.01.15-.26-.15-.26.32-.02.18-.25.17.25.32.02-.15.26.15.26-.32.01z"/><path d="M26.44 13.31l-.2-.29h-.3l.13-.31-.15-.23.35-.06.15-.24.22.25h.3l-.13.31.15.23-.35.06-.17.28zm-.18-.34l.17.23.15-.22.35-.02-.18-.22.15-.29-.3.03-.2-.27-.13.25-.35.02.18.22-.15.29.31-.02z"/><path fill="#f5d028" d="M25.1 13.26l-.17-.26-.33-.01.15-.26-.15-.26.33-.02.17-.25.17.25.33.02-.15.26.15.26-.33.01z"/><path d="M25.1 13.31l-.2-.29h-.3l.13-.31-.15-.23.35-.06.15-.24.22.25h.3l-.13.31.15.23-.35.06-.17.28zm-.17-.34l.17.23.15-.22.35-.02-.18-.22.15-.29-.3.03-.2-.27-.13.25-.34.04.18.22-.15.29.3-.04z"/><path fill="#f5d028" d="M23.95 13.48l-.21-.23-.32.03.11-.28-.19-.24.32-.05.14-.27.21.23.32-.03-.11.28.19.24-.32.05z"/><path d="M23.96 13.53l-.24-.26-.3.04.09-.32-.19-.21.34-.09.11-.26.26.22.3-.04-.09.32.18.21-.34.1-.12.29zm-.22-.31l.2.21.12-.23.35-.07-.21-.19.11-.31-.29.07-.23-.24-.09.27-.35.06.21.2-.11.31.29-.08z"/><path fill="#f5d028" d="M27.7 13.45l.2-.23.33.03-.12-.28.19-.25-.32-.04-.13-.28-.21.24-.33-.03.12.28-.19.24.32.05z"/><path d="M27.69 13.5l-.15-.31-.3-.03.17-.29-.12-.25.35-.01.18-.22.18.28.3.03-.17.29.12.25-.35.01-.21.25zm-.38-.87l.14.24-.19.27h.3l.14.25.18-.2.35.02-.14-.24.19-.27h-.3l-.16-.29-.16.24-.35-.02z"/><path fill="#f5d028" d="M28.77 13.95l.25-.19.32.09-.05-.29.24-.2-.31-.11-.07-.29-.25.18-.32-.09.05.3-.24.2.31.11z"/><path d="M28.75 14l-.08-.33-.29-.09.23-.25-.06-.27.35.06.23-.18.12.31.29.09-.23.25.06.27-.35-.06-.27.2zm-.17-.92l.08.26-.25.23.3.06.08.27.22-.16.34.08-.09-.26.25-.23-.29-.06-.09-.31-.21.2-.34-.08z"/><path fill="#f5d028" d="M22.84 13.88l-.26-.18-.31.09.05-.3-.24-.2.31-.11.07-.29.25.19.32-.09-.05.29.24.2-.31.11z"/><path d="M22.86 13.93l-.29-.21-.29.09.01-.33-.23-.17.31-.16.05-.27.3.17.29-.09-.01.33.23.18-.31.16-.06.3zm-.28-.26l.24.17.06-.25.32-.13-.25-.15.05-.33-.28.12-.28-.19-.03.27-.32.13.25.15-.04.32.28-.11z"/><path fill="#3970ca" d="M0 0v34.37l17.19-17.18z"/></svg>