<svg xmlns="http://www.w3.org/2000/svg" viewBox="0 0 58.92 34.37"><path fill="#16007e" d="M0 30.55h58.92v3.82H0z"/><path fill="#fff" d="M0 26.73h58.92v3.82H0z"/><path fill="#16007e" d="M0 22.91h58.92v3.82H0z"/><path fill="#fff" d="M0 19.1h58.92v3.82H0z"/><path fill="#16007e" d="M0 15.28h58.92v3.82H0z"/><path fill="#fff" d="M0 11.46h58.92v3.82H0z"/><path fill="#16007e" d="M0 7.64h58.92v3.82H0z"/><path fill="#fff" d="M0 3.82h58.92v3.82H0z"/><path fill="#16007e" d="M0 0h58.92v3.82H0z"/><path fill="#16007e" d="M0 0h19.1v19.1H0z"/><path fill="#fff" d="M0 7.64h19.1v3.82H0z"/><path fill="#fff" d="M7.64 0h3.82v19.1H7.64z"/></svg>