<svg xmlns="http://www.w3.org/2000/svg" viewBox="0 0 58.92 34.37"><path fill="#120065" d="M0 0h58.92v34.37H0z"/><path d="M14.73 9.01l11.44 5.72h3.29v-1.65L18.02 7.37l-3.29 1.64zM0 13.08v1.65h3.29l11.44-5.72-3.29-1.65L0 13.08zM0 0v1.65l11.44 5.72 3.29-1.65L3.29 0H0zm26.17 0L14.73 5.72l3.29 1.65 11.44-5.72V0h-3.29z" fill="#fff"/><path fill="#fff" d="M12.27 0v4.91H0v4.91h12.27v4.91h4.92V9.82h12.27V4.91H17.19V0z"/><path fill="#ba0019" d="M13.26 0v5.89H0v2.95h13.26v5.89h2.94V8.84h13.26V5.89H16.2V0z"/><path d="M9.82 9.82L0 14.73h2.2l9.82-4.91h-2.2zm9.82 0l9.82 4.91v-1.1l-7.63-3.81h-2.19zM0 1.1l7.62 3.81h2.2L0 0v1.1zM27.26 0l-9.82 4.91h2.2L29.46 0h-2.2z" fill="#ba0019"/><path d="M43.42 23.11s-.16.43-.26.43c-.09 0-.43-.19-.43-.19s-.25.4-.37.42c-.13.02-.47-.06-.47-.06s-.33 0-.34-.04c-.01-.05.01-.14.01-.14s-.46.37-.57.35c-.11-.02-.45-.47-.45-.47l-.06.23-.67-.02-.58-.37s-.33.54-.34.52c-.01-.01-.57.13-.57.13l-.04-.11-.37-.22s.29-.41.29-.42c0-.01-.14-.06-.14-.06l-.21.18-.43.28-.43-.2.19-.35.02-.26.34-.51 4.14-4.02 2.04 3.77-.3 1.13z" fill-rule="evenodd" clip-rule="evenodd" fill="#654d32"/><path d="M38.3 23.94l-.04-.13-.36-.21c-.01-.04.24-.39.28-.45-.02.01-.07-.01-.12-.02l-.18.17-.43.28-.46-.2.17-.39.02-.24.34-.53 4.14-4.03 2.09 3.77-.3 1.15c-.05.14-.18.45-.29.45-.1 0-.41-.17-.45-.19.02.03-.21.4-.35.42-.2.02-.47-.06-.48-.06h-.01c-.33 0-.35-.05-.35-.07-.01-.04 0-.11.01-.14-.04.09-.41.37-.53.37-.13-.03-.43-.4-.49-.48v.22h-.7l-.6-.38c-.29.55-.32.53-.32.53-.05 0-.37.08-.57.13l-.02.03zm-.25-.87c.19.05.19.06.19.08 0 .01 0 .02-.3.44l.36.18.04.1c.12-.03.5-.12.55-.12.01-.02.2-.32.32-.51l.63.36.65.02.03-.21c.19.16.42.43.49.45.09 0 .38-.21.55-.34.04.06.03.13.04.16.02.01.18.02.31.02.01 0 .27.06.41.06.13-.02.31-.26.4-.41.17.06.4.17.46.17.04 0 .15-.19.23-.41l.3-1.13-2.04-3.74-4.09 4.03-.33.51-.02.24-.19.36.42.16.59-.47z"/><path d="M46.36 23.35l1.08-.04-.46-.23 4.11-.16-.58-.22L50 22l-2.13-.16s-.16-.12-.42-.06c-.01-.17-.21-.38-.21-.38l-1.31-.1-.82.56.55 1.41.7.08z" fill-rule="evenodd" clip-rule="evenodd" fill="#fff"/><path d="M46.36 23.38l-.7-.07-.58-1.43.83-.59 1.33.09c.03.02.23.23.24.41.01-.04.06-.05.11-.05.18 0 .29.08.3.08l2.11.15.54.71.57.21-4.12.21.47.17-1.1.11zm-.44-2.04l-.8.55.57 1.38.67.05 1.08-.04-.47-.17 4.12-.21-.59-.16-.53-.71-2.11-.15c-.02-.01-.2-.11-.41-.06-.05-.18-.24-.39-.24-.39l-1.29-.09z"/><linearGradient id="a" gradientUnits="userSpaceOnUse" x1="111.934" y1="946.306" x2="112.934" y2="946.306" gradientTransform="rotate(-90 -667.054 864.837) scale(1.6655)"><stop offset="0" stop-color="#584b44"/><stop offset="1" stop-color="#5b3a1c"/></linearGradient><path fill="url(#a)" d="M42.17 9.58h3.94v1.78h-3.94z"/><path d="M46.15 11.39l-3.98-.08.08-.41c.05-.09.19-.34.19-.45 0-.15.14-.32.15-.33.02-.01.12-.04.24-.04.18 0 .29.07.34.19.09-.23.27-.34.46-.34.31 0 .54.29.55.3l.1-.18.31-.38c.18.12.49.43.5.5l.52-.04c.03.01.26.2.21.55.16.07.3.61.32.67l.01.04zm-3.53-1.21s-.12.15-.12.28c0 .15-.19.46-.19.48l-.11.36 3.87.04c-.05-.18-.18-.56-.3-.63.03-.35-.17-.51-.18-.52l-.46.05c-.08.02-.11 0-.11-.05-.01-.04-.23-.27-.43-.46l-.42.56c-.05 0-.28-.28-.55-.28-.17 0-.32.1-.46.31a.382.382 0 0 0-.33-.16.45.45 0 0 0-.21.02"/><path d="M46.36 15.68c.08-.05.34-.13.31-.51-.03-.38-.36-.42-.54-.41-.18.01-.35.17-.35.17l-.61-.39s.3-1.92.63-2.04c.31-.22.36-.32.36-.37 0-.05-.11-.18-.11-.18l-1.98-.23-1.87.22s-.15.22-.13.31c.02.09.03.18.36.45.37.29.63 1.92.63 1.92s-.53.26-.56.23c-.03-.03-.19-.06-.27-.05-.08.01-.35.15-.35.51s.27.57.27.57 1.79-.21 2.06.29c.25-.6 1.95-.39 2.15-.49" fill-rule="evenodd" clip-rule="evenodd" fill="#646263"/><path d="M44.2 16.23l-.03-.06c-.11-.2-.53-.31-1.22-.31-.43 0-.81.04-.81.04-.03-.01-.31-.23-.31-.6s.28-.53.38-.54c.14 0 .26.02.3.06.04-.01.34-.15.52-.23-.02 0-.28-1.6-.63-1.87-.33-.25-.35-.36-.37-.45-.02-.11.1-.31.13-.35l1.89-.23 1.99.23c.05.04.14.15.14.21s-.04.15-.37.39c-.26.1-.53 1.49-.61 2.02l.59.35c-.01-.02.15-.16.33-.17.2 0 .54.04.58.44.03.35-.19.47-.29.52-.1.05-.28.06-.53.06-.55.01-1.48.03-1.66.43l-.02.06zm-1.25-.43c.67 0 1.09.1 1.24.3.24-.39 1.11-.41 1.69-.42.22 0 .41-.01.47-.03.14-.08.32-.17.29-.48-.03-.33-.3-.38-.46-.38-.22.01-.38.16-.38.16l-.65-.38c.02-.23.3-1.97.63-2.09.3-.22.34-.31.34-.34 0-.02-.05-.1-.11-.16l-1.96-.22-1.87.22c-.03.07-.11.22-.1.27.02.09.04.19.35.43.38.29.63 1.88.64 1.94-.1.07-.49.27-.58.27a.528.528 0 0 0-.24-.06c-.09.01-.37.13-.37.49 0 .33.24.53.26.54.02-.01.39-.06.81-.06"/><path d="M48.29 13.68s.02-.21.17-.31c.15-.1 1.14-.15 1.38 0s.33.88.33.88.15.26.16.45c.01.19.03.32.03.32s.79 1.03.8 1.96c.09.64.07 2.33-.18 2.97-.01.8-.35 1.33-.35 1.33s.08.14.07.29c-.01.15-.09.29-.09.29l1.16.57-.43-.16.43.36c-.01-.01-.49-.23-.49-.23l.29.29c-.01-.01-.7-.32-.7-.32s.33.31.31.3l-.52-.25s.32.34.31.32c-.01-.02-.46-.2-.46-.2l.02.17s-.35-.02-.35-.29c-.18-.1-.3-.24-.3-.24l-.82-.14-.93-2.78.22-4.71.06-.24-.12-.63z" fill-rule="evenodd" clip-rule="evenodd"/><path d="M50.95 22.77c-.01 0-.02-.01-.02-.01l.02-.02-.02.02h-.01c-.08-.04-.44-.18-.44-.18l.06.13c-.16.03-.42-.05-.42-.28a.716.716 0 0 1-.29-.22l-.81-.13-.95-2.8.22-4.72.06-.24-.1-.62c0-.02.02-.23.18-.34.1-.06.46-.1.76-.1.19 0 .52.01.65.1.25.15.34.87.34.9 0 0 .15.26.16.45.01.18.03.31.03.31.01 0 .79 1.04.8 1.97.09.63.07 2.33-.18 2.98-.01.76-.32 1.29-.35 1.33 0-.01.08.12.07.28-.01.15-.09.3-.09.3l1.15.53-.38-.09c.12.07.37.27.39.29-.06.03-.52-.18-.52-.18l.22.16-.23-.17c.02-.03.22.04.37.11-.14-.09-.31-.24-.31-.24h.01c.01-.01.03 0 .06.01l.39.09-1.18-.52c-.01-.04.06-.18.07-.32.01-.14-.07-.27-.07-.27 0-.04.33-.56.34-1.34.25-.65.26-2.36.18-2.97-.01-.91-.79-1.94-.8-1.95-.01-.01-.03-.14-.04-.33-.01-.18-.15-.43-.15-.43-.01-.02-.1-.73-.32-.87-.09-.06-.32-.09-.62-.09-.33 0-.65.04-.72.09-.14.09-.15.28-.15.28l.1.63-.06.25-.22 4.7.93 2.77.8.12c.02.01.14.15.31.24.02.26.33.28.34.28l-.05-.13c.03-.02.21.04.34.09-.09-.09-.19-.2-.19-.2.03-.04.31.08.46.15-.1-.07-.24-.2-.24-.2.64.23.73.26.74.27-.07.02-.74-.27-.74-.27.2.14.29.21.33.24.02.02.02.03.02.04-.03 0-.3-.11-.46-.18.08.07.19.18.22.21.01.01.01.03 0 .04-.01.01-.02.01-.03.01.04.04.05.04.04.04"/><path d="M47.67 28.73s-.48-1-.72-1.02c-.21-.41.75-3.76 2.61-3.95 1.02.08.08 1.18-.59.84.08.29.42.71.42.71s-1.33.58-1.72 3.42" fill-rule="evenodd" clip-rule="evenodd" fill="#f3b926"/><path d="M47.68 28.83l-.04-.09c-.18-.38-.53-.99-.69-1-.14-.24.07-1.31.61-2.31.39-.72 1.05-1.6 2-1.7.45.04.49.26.49.35-.01.34-.64.77-1.08.55.12.25.45.67.46.67-.02.05-1.33.65-1.71 3.43l-.04.1zm-.7-1.13c.19 0 .54.67.67.93.39-2.67 1.65-3.3 1.72-3.33-.04 0-.35-.4-.43-.68.12 0 .21.02.3.02.37 0 .72-.31.73-.56.01-.16-.14-.26-.42-.29-.92.09-1.56.96-1.94 1.66-.52.98-.74 2.03-.63 2.25z"/><path d="M41.27 28.87s.4-1.14.63-1.16c.24-.01-.63-3.81-2.54-3.84-1.03.09-.08 1.18.59.85-.08.3-.42.72-.42.72s1.35.58 1.74 3.43" fill-rule="evenodd" clip-rule="evenodd" fill="#f3b926"/><path d="M41.26 29l-.02-.13c-.39-2.79-1.7-3.4-1.72-3.4-.01-.05.32-.47.41-.75-.05.08-.14.1-.25.1-.41 0-.79-.35-.8-.62 0-.09.04-.32.48-.35 1.72.02 2.6 2.99 2.61 3.72 0 .07 0 .17-.07.18-.16.01-.46.7-.61 1.14l-.03.11zm-1.7-3.54c.08 0 1.32.64 1.72 3.28.11-.3.41-1.05.62-1.06.05-.05-.03-.72-.37-1.58-.32-.81-1.03-2.18-2.17-2.2-.28.02-.43.13-.42.29.01.31.6.7 1 .5-.04.34-.35.74-.38.77z"/><path d="M43.02 21.74c0-.01-.47.15-.17.66.02-.2.23-.32.23-.32s-.32.38.02.7c.04-.31.23-.4.23-.4s-.24.7 0 .84c.03-.28.21-.4.21-.4s-.22.63-.02.77c.02-.24.18-.34.18-.34s-.1.65.16.7c.01-.23.19-.45.19-.45s-.08.53.31.55c0-.2.08-.43.08-.43s.18.56.44.47v-.48s.17.54.48.44c-.05-.15.02-.33.02-.33s.17.34.46.23c.05-.1-.01-.3-.01-.3s.43.45.57.18c.13-.27-.35-.36-.35-.36h.33s-.11-.28-.54-.34c.15-.07.31-.02.31-.02s-.09-.34-.54-.38c.18-.06.37-.02.37-.02s-.06-.33-.55-.42c.08-.09.29-.06.29-.06s-.2-.31-.42-.29c-.26.02-2.29-.21-2.28-.2" fill-rule="evenodd" clip-rule="evenodd" fill="#2f7240"/><path d="M44.82 24.13c-.2 0-.34-.31-.39-.44 0 .08-.04.23-.04.36-.14.02-.22-.01-.28-.09-.1-.12-.1-.29-.1-.39-.04.09-.12.23-.12.38-.27-.02-.24-.48-.22-.65-.03.05-.1.15-.12.3-.2-.11-.12-.5-.07-.69-.04.07-.1.17-.12.32-.26-.11-.13-.62-.08-.8-.04.06-.13.16-.16.36-.26-.21-.22-.45-.15-.59-.04.05-.09.12-.1.21-.18-.19-.2-.36-.12-.5a.41.41 0 0 1 .25-.19c.01 0 .12.01.29.03.54.06 1.68.17 1.94.17.28 0 .47.29.48.3-.03.05-.07.04-.1.04-.09 0-.16.02-.19.05.49.05.56.38.56.39-.04.04-.1.02-.18.02-.08 0-.14.01-.2.03.49-.03.56.34.56.34-.04.04-.09.02-.16.02-.06 0-.11.01-.16.03.44.01.56.29.56.3l-.23.03c.09.02.21.08.26.17.03.06.03.12-.01.19-.1.2-.42.01-.56-.11.03.06.04.17 0 .23-.06.03-.1.04-.14.04-.18 0-.3-.15-.35-.22 0 .06-.02.17.02.27-.05.05-.08.05-.11.05-.18 0-.3-.18-.37-.32v.35l-.09.01zm-.41-.53c.1.13.24.46.41.46v.03l.05-.04c-.02-.06-.02-.19-.02-.3v-.14s.01 0 .01.01c.03.01.05.03.05.07.08.12.2.34.37.34 0-.13.06-.32.07-.32.07 0 .23.3.48.21.02-.06-.02-.21-.03-.26.05-.03.3.23.47.23.05 0 .08-.02.1-.07.02-.05.03-.09.01-.14-.07-.13-.33-.18-.33-.18h.01c.01-.02.05-.03.1-.02l.22-.04c-.04-.01-.16-.22-.54-.27.09-.15.25-.1.3-.08-.05-.04-.16-.29-.54-.32.11-.15.31-.09.36-.08-.04-.03-.14-.28-.55-.36.05-.14.2-.13.27-.12-.07-.04-.24-.25-.39-.23-.33 0-1.45-.12-1.99-.17a6.13 6.13 0 0 0-.27-.03c-.02 0-.15.05-.21.18-.06.11-.03.26.07.43-.03-.2.18-.32.19-.33.03.06-.26.41.05.71-.01-.3.19-.4.2-.4-.02.23-.15.74.03.84-.02-.27.17-.39.17-.4-.01.2-.13.66.01.77-.02-.23.14-.34.15-.35.02.2-.01.66.18.69-.03-.21.15-.43.16-.44.05.03.01.3.13.45.05.06.12.09.2.1-.03-.19.05-.42.05-.43"/><path d="M45.23 23.56c-.06-.04-.15-.11-.22-.14-.02-.01-.02-.02-.01-.04s.03-.02.04-.01c.03.01.19.1.19.19m.15-.03c-.06-.08-.19-.2-.27-.26-.01-.01-.02-.03-.01-.04.01-.01.03-.02.04-.01.03.02.25.18.24.31m-.93-.02c-.03-.09-.1-.23-.12-.27-.01-.02 0-.03.01-.04.01-.01.03 0 .04.01.01.02.11.2.07.3m1.27-.01c-.04-.06-.07-.15-.11-.24-.01-.02 0-.04.01-.04.02-.01.03 0 .04.01.05.1.1.22.06.27m-1.45-.03l-.17-.23a.03.03 0 0 1 0-.04.03.03 0 0 1 .04 0c.01 0 .13.15.13.27m1.28-.01c-.07-.16-.24-.27-.24-.27-.01-.01-.02-.03-.01-.04.01-.02.03-.02.04-.01.01.01.2.13.21.32m-1.48-.04c-.06-.04-.11-.11-.15-.15a.03.03 0 0 1 0-.04.03.03 0 0 1 .04 0c.02.01.12.11.11.19m.27-.27c-.08-.12-.26-.16-.26-.16-.02 0-.03-.02-.02-.04 0-.02.02-.03.04-.02 0 0 .21.05.24.22m.45-.06c-.03-.08-.05-.23-.07-.32 0-.02.01-.03.02-.04.02 0 .03.01.04.02.01.05.06.26.01.34m-.16-.01c-.04-.06-.12-.22-.17-.31-.01-.01 0-.03.01-.04.01-.01.03 0 .04.01.02.03.14.25.12.34m-.17-.02a.318.318 0 0 0-.27-.2c-.02 0-.03-.02-.03-.03 0-.02.02-.03.03-.03.01-.01.25.01.27.26m-.52-.35c-.02-.14-.15-.32-.15-.33-.01-.01-.01-.03.01-.04.01-.01.03-.01.04.01 0 .01.15.21.1.36m.14-.01c-.01-.08-.04-.17-.05-.2-.01-.02 0-.03.01-.04.01-.01.03 0 .04.01 0 .01.07.15 0 .23m-.43-.01c-.04-.05-.09-.11-.13-.15a.03.03 0 0 1 0-.04.03.03 0 0 1 .04 0c.02.02.12.12.09.19m.14 0c-.04-.18-.24-.31-.24-.31-.01-.01-.02-.03-.01-.04.01-.01.03-.02.04-.01 0 .01.23.15.21.36m1.02-.02c-.05-.11-.16-.15-.16-.15-.02-.01-.02-.02-.02-.04.01-.02.02-.02.04-.02.05.03.15.1.14.21m.29 0c-.01-.19-.14-.35-.14-.35a.03.03 0 0 1 0-.04.03.03 0 0 1 .04 0c.01 0 .16.18.1.39m-.14-.01c-.04-.17-.19-.25-.2-.26-.01-.01-.02-.03-.01-.04.01-.01.03-.02.04-.01.01 0 .2.1.17.31m.28-.03c-.08-.08-.03-.28-.03-.3 0-.02.02-.02.04-.02s.03.02.02.04c-.02.05-.05.22-.03.28" fill="#61c36d"/><path d="M41.56 15.88l1.52-.03s1 0 1.11.32c.19-.43 1.06-.41 1.06-.41.52-.02 1.05-.04 1.57-.05l.03 3.79a4.05 4.05 0 0 1-2.55 2.95c-1.4-.45-2.29-1.64-2.58-2.98-.05-1.19-.1-2.39-.16-3.59" fill-rule="evenodd" clip-rule="evenodd" fill="#fff"/><path d="M44.3 22.49h-.01c-1.31-.42-2.28-1.55-2.6-3l-.16-3.59.79-.07.76-.01c.04 0 1.02 0 1.14.35.12-.41.85-.43 1-.43l1.6-.05.06 3.82a4.074 4.074 0 0 1-2.58 2.98zm-1.22-6.61l-1.52.03.19 3.57c.31 1.43 1.26 2.53 2.54 2.95 1.3-.49 2.24-1.59 2.52-2.93l-.03-3.79-.18.04-1.36.05c-.16.02-.87.02-1.03.39-.13-.26-.86-.31-1.13-.31"/><path d="M42.1 15.86l2.21 5.89 2-6.02c-.62.04-1.95-.1-2.11.47-.26-.51-1.66-.3-2.1-.34" fill-rule="evenodd" clip-rule="evenodd" fill="#2c6d0c"/><path d="M44.31 21.84l-2.24-5.97c.07-.04.11-.04.18-.04.09 0 .19 0 .3-.01.57-.02 1.46-.07 1.67.36.08-.47.94-.47 1.64-.48.17 0 .32 0 .45-.01l-2 6.15zm-2.21-5.95l2.21 5.77 1.97-5.94c-.1.05-.25.05-.42.05-.64 0-1.51.01-1.63.44-.21-.29-.8-.33-1.23-.33-.15 0-.3 0-.43.01-.2 0-.36.01-.47 0"/><path d="M43.61 19.05c.09.05.08-1.6.19-1.65.03-.13.05-.19.09-.34-.1-.17-.52-.16-.68-.02.07.23.1.31.1.31.21.35.17 1.74.3 1.7" fill-rule="evenodd" clip-rule="evenodd" fill="#f4c827"/><path d="M43.61 19.07h-.01c-.07 0-.08-.17-.12-.61-.03-.4-.07-.9-.19-1.09 0 0-.03-.08-.11-.31.17-.18.63-.16.72.01-.04.16-.05.21-.09.35-.06.04-.09.57-.11.92-.03.61-.04.73-.09.73m-.05-2.12c-.14 0-.28.04-.35.1l.11.29c.12.19.16.7.19 1.1.02.26.05.58.09.59h.01c.03-.04.05-.41.07-.71.03-.57.06-.91.12-.94.02-.13.04-.19.08-.33-.05-.05-.17-.1-.32-.1" fill="#2c6d0c"/><path d="M43.01 6.35s.16-.18.16-.22c.01-.04.71-.07 1.13-.85.23-.41 0-.17 0-.17l-.01-.2s.29-.28.18-.43c-.11-.15-.07.19-.24.18-.17-.01-.08-.37-.08-.37s-.01-.04-.06-.06c-.07.01-.05.14-.11.15-.06.01-.12-.3-.12-.3s-.11-.14-.2.31c.05.48.36.38.36.7 0 .31-.27.55-.35.56-.08.01-.05-.26-.05-.26s-.04-.13-.07-.13c-.03 0 .16-.03.13-.38-.06-.42-.11.1-.23.08-.11-.02-.03-.39.01-.43.04-.04-.05-.22-.3.23-.02.22-.05-.06-.1-.04-.08.18-.07.31.05.47.18.16.29.33.28.41-.01.09-.1.28-.23.28s.01-.23 0-.31c-.01-.08-.22-.36-.22-.36s-.15-.24-.14-.25c.01-.01-.01-.04-.08.21s-.16-.16-.16-.16-.1.3.11.49c-.16-.02-.18.04-.18.04 0 .08.22.12.25.27.03.15-.23.23-.23.23s.11.15.4-.14c.01.18-.11.31-.11.31.12.03.2.02.21.14" fill-rule="evenodd" clip-rule="evenodd" fill="#c5ab5a"/><path d="M43.01 6.38c-.02 0-.03-.02-.03-.03-.01-.07-.04-.08-.11-.1l-.07-.03c-.01-.05.1-.17.1-.34-.13.25-.36.21-.4.16.02-.05.25-.13.22-.25-.01-.07-.08-.11-.14-.15-.06-.04-.11-.07-.11-.12 0-.01.02-.08.15-.08-.19-.14-.09-.45-.08-.46.08.11.12.21.14.22.08-.29.12-.29.13-.29l.16.27c.03.05.21.29.22.38 0 .03-.01.08-.03.13-.02.05-.04.13-.02.15h.01c.12 0 .2-.17.21-.24.01-.06-.08-.21-.27-.39-.13-.18-.15-.32-.06-.5.07-.02.09.03.11.08.11-.25.21-.36.29-.36.01 0 .06.03.07.04.01.03.01.06-.01.08-.02.02-.09.26-.05.35.05.03.09-.06.1-.1.06-.15.13-.2.17.08.02.19-.02.32-.11.39.01.02.03.05.05.12-.01.12 0 .23.02.24.06-.01.32-.23.32-.53 0-.13-.06-.18-.13-.25a.61.61 0 0 1-.23-.45c.05-.25.11-.36.19-.36.01 0 .06.03.07.04.03.15.07.27.1.29.04-.09.05-.14.11-.15.08.03.09.08.1.08-.02.08-.05.26 0 .32.11.03.14-.03.16-.1.02-.05.04-.09.08-.09.01 0 .06.04.07.05.12.16-.16.44-.19.47l.02.15c0-.04.04-.07.07-.07.05.04.05.08-.07.29-.34.64-.87.78-1.07.84-.06.05-.18.19-.23.24-.01-.02-.02-.02-.03-.02m-.1-.52c.06.22-.06.35-.07.36.09 0 .15.02.18.07.06-.07.12-.14.12-.16 0-.03.03-.04.1-.05.19-.05.7-.19 1.03-.81.05-.1.08-.15.09-.18l-.04.04-.07-.22c.08-.1.26-.31.19-.41-.07.1-.11.2-.21.2-.04 0-.08-.02-.1-.05-.08-.1-.02-.33-.01-.36l-.07.03c-.01.04-.03.08-.08.09-.08 0-.13-.18-.16-.32-.02 0-.08.01-.14.31.03.24.12.32.21.4.08.07.15.13.15.29 0 .33-.28.58-.38.59-.1-.08-.09-.26-.08-.3-.02-.04-.04-.09-.05-.1.08-.11.12-.23.11-.41-.01-.1-.03-.13-.03-.14.01.01-.01.05-.02.08-.04.08-.07.17-.14.17-.04 0-.07-.02-.08-.07-.04-.12.02-.37.07-.41-.01-.01-.09-.01-.25.27 0 .06-.01.1-.05.1-.01 0-.05-.06-.06-.07l-.01-.04c-.06.15-.04.26.06.4.14.13.3.32.29.43-.01.09-.1.3-.26.3-.01 0-.06-.02-.07-.03-.04-.05-.01-.13.01-.21.01-.04.03-.08.02-.1 0-.05-.13-.23-.21-.35-.07-.11-.1-.17-.12-.21-.01.03-.02.08-.05.15-.01.05-.03.1-.08.1s-.08-.08-.11-.16c.01.1.02.25.14.36.01.01-.02.02-.02.03.02.03-.02.03-.03.03-.06 0-.08.02-.09.02 0 .01.04.04.08.06.07.04.15.1.17.19.02.13-.11.21-.19.24.05.03.14.02.31-.15"/><path d="M42.04 6.35s-.13-.2-.14-.24c-.01-.04-.65.05-.96-.74-.2-.38 0-.15 0-.15l.01-.18s-.21-.26-.12-.39c.09-.14.05.17.17.18.14-.01.07-.34.07-.34s.01-.04.06-.06c.06.01.08.2.14.21.05.01.17-.23.2-.28.05-.01.05-.2.13.21-.04.43-.4.35-.4.63s.23.5.29.51c.07.01.04-.24.04-.24s.04-.12.06-.12c.02 0-.21.05-.19-.28.06-.3.18.02.27 0 .1-.02-.01-.32.02-.37.01-.05.15-.24.2.19.02.2.13-.17.17-.16.07.16-.03.38-.14.53-.15.15-.22.31-.21.39.01.08.04.18.15.18.11 0 .04-.13.04-.21.01-.07.19-.3.19-.3.04-.06.01-.16.04-.21.06 0 .08-.08.14.15.06.23.13-.15.13-.15s.08.28-.1.45c.14-.02.15.04.15.04 0 .08-.06.11-.09.24-.02.14.07.21.07.21s-.09.14-.34-.13c-.01.17.1.29.1.29-.07.04-.14.03-.15.14" fill-rule="evenodd" clip-rule="evenodd" fill="#c5ab5a"/><path d="M42.04 6.38c-.01 0-.02 0-.02-.01-.03-.05-.14-.2-.14-.25-.2-.01-.7-.08-.96-.73-.1-.19-.1-.22-.09-.24.05-.02.09.01.13.06l-.04-.17c-.01 0-.21-.26-.12-.41 0-.01.05-.05.06-.05.04 0 .05.04.06.09.02.06.03.11.07.11.08-.08.05-.24.04-.3 0-.01.02-.06.07-.09.06 0 .08.06.11.13.01.03.03.08.05.09.03-.01.1-.14.13-.19.02-.04.04-.06.04-.08l.07-.06c.03 0 .05.02.1.28-.02.25-.15.34-.25.42-.08.06-.15.11-.15.22 0 .27.22.48.27.49.02-.01.02-.11.01-.21.01-.04.02-.08.04-.11-.03.01-.07 0-.11-.04-.05-.05-.07-.14-.06-.25.02-.12.11-.18.21-.08.03.03.06.06.08.06.04-.01.02-.14.01-.21-.01-.08-.02-.12 0-.15 0-.02.05-.1.11-.1.07 0 .12.1.15.3 0 .03.03-.03.05-.06.04-.08.06-.12.09-.12.11.2-.02.44-.11.57-.15.15-.21.31-.21.37 0 .04.02.15.12.15.04-.02.03-.07.03-.1-.01-.03-.01-.06-.01-.08.01-.07.16-.27.19-.31.01-.02.01-.06.01-.09 0-.04.01-.09.03-.12l.08-.02c.05 0 .07.04.11.18.04.05.06-.05.08-.15.05.01.14.29-.05.47-.01 0-.02-.01-.02-.01 0-.01-.03-.02-.02-.03.17-.16.09-.42.09-.42.04.29-.11.24-.13.15-.04-.13-.06-.14-.06-.14-.05.02-.05.06-.06.09 0 .04 0 .09-.03.12-.07.09-.18.24-.18.29.02.12.03.17 0 .2-.01.01-.06.03-.07.03-.1 0-.17-.08-.18-.2-.01-.09.07-.26.22-.41.08-.11.2-.32.14-.48 0 .02-.02.06-.03.09-.04.09-.07.13-.1.13-.02 0-.05-.07-.05-.08-.03-.24-.08-.25-.09-.25-.03 0-.06.05-.06.06-.01.02 0 .08.01.12.02.12.04.25-.05.27a.202.202 0 0 1-.13-.07c0-.05-.03-.08-.05-.08 0 0-.03 0-.04.11-.01.1.01.17.05.21.04.04.08.04.1.04.02.06 0 .1-.02.15.01.04.02.19-.03.24h-.01c-.13 0-.36-.23-.36-.52 0-.14.08-.2.17-.26.1-.07.21-.15.23-.37-.03-.18-.05-.22-.06-.23-.03.06-.04.08-.06.11-.07.13-.13.22-.18.22-.05-.01-.07-.06-.1-.12-.01-.03-.04-.09-.05-.09-.02.05.03.26-.04.35 0 .01-.07.04-.08.04-.08 0-.1-.09-.12-.16-.09.07.04.26.09.33l-.01.2a.465.465 0 0 1-.09-.03c.01.02.03.07.09.17.25.63.7.69.88.71.01 0 .08.03.08.04 0 .02.05.1.1.18.02-.05.07-.06.11-.08.04.03-.07-.11-.06-.28.18.12.26.14.3.14.04 0-.05-.08-.03-.23.01-.07.04-.12.06-.16.02-.03.03-.05.03-.08 0 0-.02-.02-.08-.02h-.03c.14-.05.16.01.16.01 0 .05-.02.08-.04.11-.02.04-.04.07-.05.14-.02.12.06.18.06.19-.01.13-.19.11-.38-.09.04.14.14.25.14.25.01.01-.02.03-.02.04 0 .01-.04.03-.04.03-.06.02-.08.03-.09.1.01 0 .01.01-.01.02z"/><path d="M45.94 16.74c-.13-.12-.15-.02-.21-.04a.178.178 0 0 1-.08-.07c-.02-.03-.05-.04-.08-.05-.01.04-.02.07-.04.11-.01.04.03.09.03.15-.01.08-.04.14-.14.17.03-.06.04-.06.03-.13 0-.03-.1-.1-.09-.13.02-.05.05-.11.02-.16-.04.03-.09.01-.14.03-.03.02-.04.08-.08.11-.05.02-.16.01-.25-.04.06-.04.1-.01.16-.06.03-.02.03-.11.05-.13.03-.02.1-.04.12-.06-.03-.03-.02-.07-.05-.1-.02-.03-.13-.02-.16-.05-.05-.06-.04-.13-.09-.18.13.04.11.11.14.1.06-.03.12-.04.15-.02.03.01.09.09.12.11.01-.04.03-.08.04-.11.01-.04-.05-.1-.04-.13.02-.07.08-.14.11-.21.01.07.02.13.03.19.01.04.07.05.08.09 0 .03-.04.11-.03.15.04-.01.09 0 .13-.01.04-.01.06-.09.1-.1a.67.67 0 0 1 .2 0c-.05.05-.1.05-.13.1-.03.02.01.09-.07.14-.03.02-.11 0-.14.02.03.03.05.06.07.08.03.03.14.04.16.07.07.03.09.1.08.16M42.54 16.8c.13-.12.15-.02.21-.04.03-.01.06-.04.08-.07.03-.03.05-.04.08-.05.01.04.02.07.04.11.01.04-.03.1-.03.15.01.08.04.14.14.17-.03-.06-.04-.06-.04-.13 0-.03.1-.09.09-.13-.02-.05-.05-.11-.02-.16.04.03.09.01.13.03.04.01.04.08.08.11.05.02.16.01.25-.04-.06-.04-.1-.02-.16-.06-.03-.02-.03-.11-.05-.13-.03-.02-.1-.04-.12-.07.03-.03.02-.07.05-.1.02-.03.14-.02.16-.05.05-.06.04-.13.09-.19-.13.05-.11.11-.14.1a.215.215 0 0 0-.15-.02c-.03.01-.09.09-.13.11-.01-.04-.03-.08-.04-.11-.01-.04.05-.1.04-.13-.02-.07-.08-.13-.11-.21l-.03.2c0 .03-.07.05-.08.09s.04.11.03.15c-.04-.01-.09 0-.13-.01-.04-.01-.06-.09-.1-.1a.452.452 0 0 0-.2.01c.06.05.1.05.13.09.03.02-.01.09.07.14.03.02.11 0 .14.02-.02.03-.05.06-.07.08-.03.03-.14.04-.16.07-.04.04-.06.11-.05.17" fill-rule="evenodd" clip-rule="evenodd" fill="#f4c827"/><path d="M45.82 17.12c-.12.09-.9.29-.9.96-.01.67.13.83-.01.84-.28 0-.32-.75-.31-1.08.01-.33.02-.28.02-.28s.19.05.18.21c-.02.16.19-.4.12-.55.13.13.29.08.29.07 0-.01-.1-.11-.13-.19-.04-.08.14.04.14.04s.01-.13-.15-.12c-.21 0 .03-.07.03-.07s.12.11.2-.01c-.09-.09-.22-.14-.22-.14s-.11-.21-.26-.25c-.18-.04-.15.08-.35.06-.04.08-.04.09.04.11-.14.09-.07.28-.07.28s.22-.09.21.06c-.01.15-.13.13-.21.03-.07-.04-.1.04-.1.04l.11.12s-.21-.01-.27.14c.12-.01.18.03.18.03s-.25.11-.27.17c-.02.06-.03-.07-.04-.07-.01 0-.24-.09-.24-.09l-.08.37s.16.16.25.11.25-.2.34-.16c-.28.21-.56.52-.71.56-.04-.03-.18-.17-.23-.1-.05.07-.02.15.06.14.07-.01-.23.07-.17.2s.06.12.11.09c.06-.04-.05-.04.16-.1.21-.06.2-.12.2-.12s-.04.09-.15.12c-.11.03-.2.03-.17.06.02.03.07.09.05.13-.01.03.23-.18.3-.01.17-.01.28-.21.2-.33.01.13.09.17.04.23-.05.06.38-.2.17-.35.06.13.06.23.06.23s.1-.01.12-.04c.02-.04-.05.09-.02.12.03.03.18.17.12.27-.04-.06-.05-.15-.1-.14-.05.01-.25.15-.37.16-.12.01.14.44.14.44s-.18-.03-.21-.01c-.02.02-.14-.15-.17-.05-.04.13.04.08.04.08s-.1-.05-.16.01c-.06.06-.11.12-.07.14.04.02.22.02.24.02.02-.01-.2.02-.21.04-.02.03-.05.12 0 .15.05.04.17-.02.17-.04.01-.03.02.09.02.09s.22.01.22-.21c0-.21.02.15.02.15s.21.04.22-.18c.01-.21.02.14.02.14s.13-.04.13-.08c0-.03-.01.43-.1.55-.15-.1-.25.07-.25.07s.01.25-.01.31.1-.03.11-.06c.01-.02.15-.09.16-.11l.05-.1s-.03.12-.09.14c-.05.02-.11.08-.09.13.02.05.11.08.14.14.03.05.14-.3.14-.3l.01.08s.14-.04.16-.1c.02-.07-.15-.13-.02-.24.14-.11 0 .1 0 .1s.05.16.08.16.11-.3.03-.38c-.08-.08.12.09.12.09s.11-.32-.01-.36l-.18-.06s.06-.08.03-.09c-.03-.01.17.19.2.14.03-.05.08-.21-.15-.29-.23-.09-.01-.33-.01-.33s.14.17.25.08c.11-.09-.01-.09-.01-.09s.3-.19.3-.28c-.05-.01-.15.01-.15.01s.17-.11.13-.29c-.06.09-.15.09-.15.09s.15-.14.12-.28c-.09.07-.08.12-.13.1-.06-.02-.15-.55.07-.59.22-.03.1.26.11.26.01 0 .33-.14 0-.36.08-.03.25.13.25.13s-.07-.37-.43-.14c.09-.09.14-.15.21-.14.07.02.33-.01.33-.09-.06-.05-.2.03-.27 0-.05-.01.53-.05.48-.34" fill-rule="evenodd" clip-rule="evenodd" fill="#f4c827"/><path d="M44.33 20.65c-.01 0-.02-.01-.02-.01-.01-.02-.04-.04-.07-.06-.03-.02-.07-.04-.08-.08.01-.03.01-.05.02-.07-.01.01-.01.01-.02.01-.01.02-.09.09-.12.09-.01-.09-.01-.26-.02-.34.01-.02.13-.18.27-.08.05-.09.07-.38.08-.51-.02.03-.08.05-.11.06-.02-.1-.03-.18-.04-.21 0-.02.01-.03.01-.03.02 0 .02 0 .03.23.04-.03.1-.06.1-.08v.02c.02.15 0 .44-.08.54a.304.304 0 0 0-.11-.03c-.08 0-.14.09-.14.09s.01.24-.01.3c.01 0 .07-.05.08-.07 0-.02.03-.04.1-.08.02-.01.06-.03.06-.04l.05-.1c.03.02-.01.14-.07.16-.03.01-.06.03-.08.06.01.07.04.09.07.11.03.02.05.04.07.06.02-.03.08-.16.12-.29l.04.08c.02-.02.11-.06.13-.1-.06-.1-.11-.17-.01-.25 0 0 .06-.04.07-.04.02.02.04.04-.04.16.02.06.05.13.07.14a.79.79 0 0 0 .05-.23c0-.06-.01-.11-.03-.13v-.01c-.01 0-.01-.01-.01-.01l.01.01c0-.04.01-.04.13.07 0-.02.02-.08.02-.14.01-.07.01-.16-.04-.18-.12-.04-.17-.06-.17-.06 0-.04.02-.08.03-.09.07.04.16.11.19.11.01-.01.04-.07.02-.13-.02-.05-.07-.1-.16-.13-.06-.02-.1-.06-.11-.11-.03-.11.09-.24.1-.24.03 0 .11.1.19.1l.1-.08c.04.03.01.06-.01.08-.09.08-.24-.05-.27-.08 0 .02-.09.13-.07.21.01.04.04.07.09.09.1.04.16.09.18.15.02.06 0 .13-.02.16h-.05c.05.03.06.1.05.21-.01.09-.04.17-.04.17-.03.02-.1-.06-.14-.09.08.08.04.27.01.34-.04.02-.07.02-.09-.01v.02c-.02.07-.16.11-.17.11l-.03-.09c-.03.24-.08.34-.11.34m-.53-.9c-.02-.04-.03-.08-.04-.1 0 .03-.07.06-.12.06a.132.132 0 0 1-.06-.19s.01-.01.03-.02c-.02 0-.04-.01-.05-.02-.02-.07.02-.11.07-.17.03-.03.05-.04.09-.04l.04.02v.01h.02-.04l-.09.02.01.01c-.04.04-.08.09-.08.11.02.02.09.03.16.03l.09.01c-.01.01-.01.01-.02.01v.01h-.07c-.08.01-.12.03-.13.03-.01.02-.04.1 0 .13.08.01.14-.02.15-.03.04-.02.04-.01.05.1.04-.02.17-.03.17-.2 0 0 0-.02.01-.04v-.01.01c0-.02.01-.04.01-.04.02 0 .02 0 .03.23.07-.01.18-.04.18-.18 0-.01 0-.03.01-.05.01.23-.12.25-.18.25-.04-.01-.05-.13-.06-.2.03.2-.08.25-.18.25m.29-.45h-.11c-.07.01-.08-.01-.11-.03-.02-.02-.05-.05-.07-.05l-.02.04-.02-.03c.08-.05.11-.02.14.01l.09.02c.06 0 .17.01.17.01-.05-.03-.23-.33-.19-.42.11-.03.22-.09.3-.13a.31.31 0 0 1 .11-.05c.02-.02.06.04.08.08.01.02.02.05.03.07.03-.09-.11-.22-.14-.25-.02-.02-.02-.06 0-.1-.02.02-.08.03-.09.03a.076.076 0 0 1-.02-.05c-.06.1-.18.18-.21.18.01-.05 0-.07-.01-.1-.03.1-.11.18-.23.19-.08-.12-.19-.04-.26-.01-.01 0-.01-.01-.01-.01.1-.1.24-.11.28-.01.1-.02.18-.12.19-.22a.405.405 0 0 1-.03-.1c.05.02.06.06.06.1.03.05.04.09.02.12.03-.03.15-.12.18-.21-.01-.03-.03-.08-.05-.14.08.02.1.08.08.15l.02.08c.02-.02.07-.03.09-.05 0 .1.01.11.01.12.04.03.19.18.12.29-.04-.02-.05-.05-.06-.07-.01-.03-.02-.06-.04-.06s-.06.02-.1.05c-.08.05-.19.11-.27.11-.04.06.08.29.16.42-.03.02-.05.02-.09.02m.79-.38c-.05 0-.08-.02-.1-.04-.21-.22-.2-.95-.2-1.04.01-.3.01-.3.03-.3.01 0 .2.06.19.22-.04-.13-.16-.17-.19-.18.01.01 0 .07 0 .26-.01.3.02.85.19 1.01.03.03.07.05.11.05.05-.04.05-.1.03-.19-.02-.13-.05-.33-.04-.64.01-.55.53-.79.78-.91.06-.03.11-.05.13-.07.07.23-.24.32-.38.35l.05-.01c.03-.01.06-.01.09-.01l.07.02c.01.1-.2.12-.27.12l-.08-.01c-.04 0-.08.03-.14.09.05-.04.1-.06.15-.06.19 0 .24.23.24.23-.07-.02-.18-.11-.24-.11.11.05.17.14.14.22-.03.09-.15.14-.16.14 0-.08.03-.19-.01-.24-.01-.02-.04-.03-.07-.03-.09.01-.13.06-.15.15-.04.17.02.39.04.41.06-.04.08-.07.12-.1.04.11-.03.22-.07.28.03-.02.07-.04.1-.09.05.13-.02.23-.06.28.02 0 .04-.01.07-.01v.02c-.07.01-.12.02-.12.02-.01-.03.14-.14.11-.3-.04.11-.13.11-.14.11-.01-.03.13-.17.1-.29-.01.04-.03.06-.04.08l-.08.04c-.05-.01-.09-.23-.08-.38.01-.15.06-.23.15-.24.08 0 .11.01.13.04.05.06.02.17.01.22.01-.01.1-.06.11-.13.01-.06-.04-.13-.14-.19.09-.02.2.05.25.09-.04-.07-.17-.26-.41-.1.05-.11.11-.17.18-.17l.08.01c.11 0 .25-.03.25-.07-.07 0-.1.01-.13.01-.03.01-.06.01-.09.01 0-.01.02-.07.02-.07.13-.04.42-.12.39-.31 0 .03-.04.05-.11.08-.26.12-.75.35-.76.88 0 .31.02.5.04.63.02.11.02.17 0 .2-.03.02-.06.02-.09.02m-1.38-.22a.251.251 0 0 1-.07-.08c-.01.01-.02.02-.03.02-.08.02-.09 0-.13-.08-.02-.04-.02-.06-.01-.08.02-.06.1-.1.15-.12-.02 0-.04-.02-.05-.04-.02-.04-.01-.08.02-.12.11-.03.19.04.24.08.08-.01.23-.14.38-.28.08-.07.17-.15.26-.22-.06.09-.15.17-.23.24-.16.14-.3.27-.4.3-.07-.05-.15-.12-.2-.12-.05.04-.05.08-.04.1l.07.03c-.05.06-.15.11-.17.16.03.11.05.14.06.15l.06-.07c.01-.02.03-.02.06-.03l.07-.02c.1-.03.14-.06.17-.07 0 .05-.04.09-.11.11l-.12.02c0 .01-.01.02-.03.03.03.03.05.06.05.09m.47-.77c-.13 0-.24-.11-.25-.11l.08-.38c.03-.01.24.07.26.07 0 0 .02.06.03.08-.02-.01-.04-.02-.04-.03 0-.02 0-.02-.24-.1l-.06.35s.11.1.19.1c.05-.02.08-.04.11-.06.08-.05.16-.12.24-.12-.01.01-.01.02-.01.02-.07.03-.14.08-.2.12-.03.02-.06.04-.08.05-.01.01-.02.01-.03.01m.85-.13c0-.01 0-.02-.01-.03.02-.06.14-.43.08-.54.17.09.29.05.3.05a.7.7 0 0 1-.14-.17c.01-.01.01-.01.02-.01.04.05.08.11.11.14.03.08-.07.08-.07.08-.06 0-.14-.02-.22-.09.1.11-.03.5-.07.57m-.71-.21s-.01 0-.02-.01c.02-.06.16-.14.24-.17-.02 0-.06-.01-.11-.01v-.01c.1-.02.15.01.15.01-.09.07-.24.15-.26.19m.13-.25c.04-.1.18-.1.21-.1l-.12-.09c0-.02.01-.08.07-.08.21.14.22.07.23-.01l-.07-.07c-.05 0-.11.03-.12.03-.02-.01-.1-.21.05-.31-.03.02-.06.01-.07-.02-.01-.02 0-.05.02-.09.12-.01.15-.03.19-.04a.18.18 0 0 1 .11-.03l.07.01c.16.05.27.25.27.26 0-.01.12.04.21.14-.07.16-.22.04-.22.03l-.08.04h.06c.04 0 .11.01.13.04.04.04.03.09.03.09-.06-.01-.12-.05-.15-.05.04-.01.09 0 .11.02-.01-.01-.01-.03-.02-.04-.02-.02-.05-.03-.1-.03-.08 0-.11-.01-.11-.03 0-.01-.01-.03.13-.07.03.01.13.08.19 0-.08-.07-.21-.12-.21-.12-.01-.01-.12-.21-.26-.25-.11-.01-.13 0-.16.02-.04.02-.08.04-.15.04.01 0 .01.04.02.05s0 .05 0 .05c-.11.08-.07.22-.06.25.01-.01.06-.03.11-.03 0 0 .07.03.08.03.02.02.03.05.02.08-.01.11-.07.13-.1.13-.04 0-.1-.03-.14-.08l-.07.02.11.11c-.02.03-.14.03-.21.1" fill="#2c6d0c"/><path d="M44.39 18.44c.01-.04.02-.06.03-.09.01-.06-.02-.13-.05-.18.05 0 .13-.02.14-.03-.05.02-.08-.09-.09-.15-.15.11-.3.1-.3.1-.01 0-.02-.01-.02-.02s.01-.01.02-.02c.01 0 .29.02.47-.28-.04.08-.09.15-.14.19l.01.01c.01.08.04.15.06.15 0 .04-.08.06-.12.05.05.03.08.11.06.17-.02.06-.04.08-.07.1m-.6-1.07c-.18-.18-.48-.02-.48-.02-.01 0-.02 0-.02-.01s0-.02.01-.02c-.01 0 .32-.18.49.05" fill="#2c6d0c"/><path d="M44.28 20.13s-.1.12-.23.13l.23-.13z" fill-rule="evenodd" clip-rule="evenodd" fill="#d4001d"/><path d="M44.05 20.27a.49.49 0 0 0 .22-.16c.01-.01.02-.01.02 0 .01.01.01.02 0 .03 0 .01-.1.13-.24.13m.35-.67c-.01 0-.02-.01-.02-.01 0-.02-.02-.1-.03-.2-.05.06-.17.15-.42.1.3.02.4-.12.42-.15-.01-.08-.01-.15.01-.19.01-.06.05-.1.1-.15.04-.04.08-.08.11-.14a.28.28 0 0 1-.09.17c-.04.05-.08.09-.09.14-.01.03-.02.1-.01.17v.01c.01.09.02.19.03.24.01 0 0 .01-.01.01zm-.1-.56c-.04 0-.08-.01-.13-.02.11 0 .18 0 .23-.04.06-.05.05-.14.05-.15 0-.01.01-.02.02-.02s.02.01.02.02c0 0 .01.11-.07.17-.04.03-.07.04-.12.04m-.29-1.16c-.08-.16.05-.28.05-.29.01-.01.02-.01.02 0 .01.01.01.02 0 .02 0 .01-.11.12-.07.27" fill="#2c6d0c"/><path d="M44.55 17.3s.17-.07.2-.1.09-.1.1-.15c.02-.05-.11-.13-.05-.24.04-.05.1-.06.19 0 .1.06-.09-.19-.18-.2-.1-.01-.16.07-.18.05-.02-.02.01.07-.03.07s.08.07.07.11c-.01.04.13.19.12.22-.01.04-.2.24-.24.24" fill-rule="evenodd" clip-rule="evenodd" fill="#2c6d0c"/><path d="M44.67 16.74c.07-.02.08 0 .07.07a.231.231 0 0 1-.07-.07" fill-rule="evenodd" clip-rule="evenodd" fill="#f4c827"/><path d="M44.16 20.53s-.03.18.04.19c0-.07.01-.11.03-.13-.01-.01-.06-.05-.07-.06M44.02 20.31c-.06-.01-.16.05-.13.11.05-.04.09 0 .13-.04v-.07M44.01 20.19s-.09-.02-.11.05c.07-.01.09-.02.11 0 .01-.02 0-.05 0-.05M43.61 19.18s.06.02.07.08c.05-.02.07-.15-.07-.08M43.47 19.33s.12-.08.13 0c-.02.03-.04.04-.06.05-.01 0-.04-.05-.07-.05M43.46 19.58s.07-.07.1-.02-.02.04-.02.04-.03-.01-.08-.02M43.36 18.21s-.09-.04-.13.03c.06.01.08.03.11.05-.01-.02-.03-.06.02-.08M43.18 18.73s0-.11.05-.16c.03.02.04.05.06.08-.04 0-.09.01-.11.08M43.42 18.64s-.1.05-.07.11c.03-.04.07-.03.07-.03v-.08" fill-rule="evenodd" clip-rule="evenodd" fill="#d4001d"/><path d="M43.28 17.54c-.04.05.04.14.13.13.02-.11-.11-.17-.13-.13" fill-rule="evenodd" clip-rule="evenodd" fill="#f4c827"/><path d="M43.37 17.46s.02.08.09.06c-.01-.06-.07-.11-.07-.11 0 .01.02.04-.02.05M43.42 17.69s.04.05.12-.05c-.04.01-.1-.02-.1-.02s0 .07-.02.07" fill-rule="evenodd" clip-rule="evenodd" fill="#d4001d"/><path d="M43.27 17.35c-.04.05.02.11.1.09.02-.1-.08-.12-.1-.09" fill-rule="evenodd" clip-rule="evenodd" fill="#f4c827"/><linearGradient id="b" gradientUnits="userSpaceOnUse" x1="-421.694" y1="499.383" x2="-420.694" y2="499.383" gradientTransform="translate(523.373 -551.79) scale(1.1385)"><stop offset="0" stop-color="#edad49"/><stop offset=".524" stop-color="#df6131"/><stop offset="1" stop-color="#d80031"/></linearGradient><path fill="url(#b)" d="M43.21 16.35h1.3v.79h-1.3z"/><path d="M39.35 28.11c.22-.05 1.43.27 1.89.77-.1-.89-.35-1.57-.35-1.57s-.72-.2-.82-.1c-.13.14-.56.6-.72.9" fill-rule="evenodd" clip-rule="evenodd" fill="#af0018"/><path d="M41.29 28.97l-.06-.07c-.43-.46-1.49-.76-1.81-.76l-.06.01-.03-.05c.15-.3.57-.74.73-.91.03-.03.08-.05.15-.05.24 0 .69.13.71.14.02.03.27.71.37 1.6v.09zm-1.82-.85c.41 0 1.29.27 1.73.68-.1-.82-.32-1.45-.33-1.48-.01.01-.45-.11-.67-.11-.07 0-.09.01-.1.02-.16.17-.58.61-.73.9.04-.01.07-.01.1-.01"/><path d="M38.99 24.01c-.09.01-.17.07-.26.21-.1.24-.17.85-.31.99-.14.14-.27.15-.27.28 0 .13.01.42.4.54.38.01.99-.61.99-.61s.31-.34.44-.71c-.74.25-1.26-.42-.99-.7" fill-rule="evenodd" clip-rule="evenodd" fill="#af0018"/><path d="M38.56 26.05h-.01c-.43-.13-.43-.46-.43-.57 0-.1.06-.14.14-.19.04-.03.09-.06.14-.11.08-.08.14-.34.2-.58.04-.16.07-.3.11-.4.08-.14.17-.21.28-.23-.04.13-.06.24 0 .36.11.25.52.51.99.34-.09.41-.39.74-.4.76-.05.03-.63.62-1.02.62m.4-2.06c-.06.06-.13.13-.2.24-.04.09-.07.23-.1.39-.06.25-.12.52-.21.61-.05.05-.1.09-.15.12-.08.05-.11.08-.11.14 0 .1 0 .39.37.51.36 0 .95-.59.95-.6 0 0 .31-.34.43-.69-.07.08-.18.1-.29.1-.37 0-.64-.23-.73-.44-.06-.15-.05-.29.04-.38"/><path d="M49.59 27.97c-.22-.05-1.44.27-1.9.76.1-.88.34-1.56.34-1.56.08-.02.71-.2.8-.11.15.16.61.61.76.91" fill-rule="evenodd" clip-rule="evenodd" fill="#af0018"/><path d="M47.65 28.82l.01-.09c.1-.88.34-1.56.35-1.57.23-.08.76-.21.85-.12l.08.08c.2.2.55.57.69.83l.01.05-.11-.01c-.32 0-1.39.3-1.82.76l-.06.07zm.42-1.63c-.01 0-.24.63-.34 1.46.47-.43 1.49-.71 1.8-.71l.07.01c-.16-.21-.52-.58-.71-.77l-.08-.08c-.01-.01-.03-.02-.1-.02-.19-.01-.53.08-.64.11"/><path d="M49.94 23.89c.08.01.11.13.18.27.1.24.2.58.34.73.14.14.27.35.27.47 0 .13-.03.3-.41.41-.38.01-.93-.47-.93-.47s-.31-.34-.43-.7c.72.24 1.19-.41.98-.71" fill-rule="evenodd" clip-rule="evenodd" fill="#af0018"/><path d="M50.3 25.79c-.38 0-.91-.46-.93-.48-.02-.02-.32-.35-.44-.71.14.01.25.02.35.02.33 0 .55-.19.63-.36.07-.13.07-.26 0-.35.12-.04.15.05.2.15l.11.27c.08.2.16.42.26.52.13.13.28.35.28.49 0 .15-.05.33-.43.44l-.03.01zm-1.35-1.17c.16.32.46.65.47.65 0 0 .53.46.89.46v.03l.01-.03c.38-.11.38-.29.38-.38 0-.11-.11-.31-.26-.45-.11-.11-.19-.33-.27-.55l-.11-.27c-.04-.09-.07-.16-.12-.17.11.06.11.21.03.36-.09.18-.33.39-.69.39a.63.63 0 0 1-.33-.04"/><path d="M38.56 27.34s.76.52.77.76c2.05-3.03 7.26-3.98 10.24-.21.39-.52.8-.69.8-.69-3.12-4.1-9.35-3.59-11.81.14" fill-rule="evenodd" clip-rule="evenodd" fill="#f3b926"/><path d="M39.31 28.19l-.01-.09c-.01-.18-.55-.6-.76-.74 1.22-1.9 3.5-3.06 5.95-3.06 2.35 0 4.51 1.05 5.91 2.88-.02.05-.42.22-.8.73-1.3-1.58-3.06-2.45-5.01-2.45-2.12 0-4.13 1.02-5.23 2.66l-.05.07zm5.19-3.83c-2.43 0-4.7 1.15-5.91 2.99.06.01.65.42.76.67 1.13-1.63 3.13-2.63 5.25-2.63 1.97 0 3.74.88 5.01 2.48.35-.52.75-.69.77-.7-1.41-1.77-3.55-2.81-5.88-2.81"/><path d="M46.32 15.73l.3-.01-.53.68.64.74-1.26 1.58 1.19 1.43c-.13.32-.28.61-.48.87l-.68-.75 1.23-1.54-1.01-1.15.6-1.85z" fill-rule="evenodd" clip-rule="evenodd" fill="#3658a2"/><path d="M46.17 21.08l-.71-.78.6-.8-.63-.76.58-.76-.33-.38.34-1.08.04-.11-.02-.02.04-.05.21-.63.32-.03-.5.76.63.67-.67.88.67.71-.62.81.55.61c-.14.39-.3.67-.48.91l-.02.05zm-.08-1.56l-.57.77.65.68c.17-.23.32-.5.46-.84l-.51-.59-.03-.02zM46.04 18l-.55.74.62.71.59-.74-.64-.69-.02-.02zm.02-1.51l-.32 1.11.32.34.64-.81-.59-.66-.02-.03-.03.05zm.53-.78l-.27.06-.14.46.41-.52z"/><path d="M42.06 15.87l-.32.01.6.65-.63.79 1.31 1.43-1.09 1.46c.13.32.32.68.52.94l.65-.82-1.33-1.48.97-1.23-.68-1.75z" fill-rule="evenodd" clip-rule="evenodd" fill="#3658a2"/><path d="M42.45 21.18l-.02-.03c-.19-.24-.38-.58-.52-.94l.47-.65-.63-.7.6-.8-.66-.72.61-.79-.01-.03-.56-.6.34-.06.3.66-.01.02.04.11-.07-.08h-.01l.46 1.04-.36.49.63.64-.61.86.69.72-.68.86zm-.06-1.61l-.43.64c.14.31.32.64.49.87l.62-.79-.66-.7-.02-.02zm-.02-1.5l-.57.78.61.65.59-.78-.6-.62-.03-.03zm-.07-1.52l-.57.78.66.67.33-.42-.42-1.03zm-.27-.67l-.29.03.48.46-.19-.49z"/><path d="M43.54 19.7l-.47.63 1.68 1.94c.3-.15.53-.32.78-.52l-.87-1.01.36-1.04.51.59-1.6 2.04c-.27-.11-.56-.29-.83-.51l.84-1.07-.4-1.05z" fill-rule="evenodd" clip-rule="evenodd" fill="#3658a2"/><path d="M43.93 22.35l-.02-.01c-.28-.12-.58-.3-.84-.52l.58-.78-.6-.7.47-.66.45 1.04-.26.35.64.69.53-.72-.25-.29.35-1.07.56.58-.6.81.61.65c-.27.26-.5.43-.79.57l-.02.01-.42-.48-.39.53zm-.26-1.29l-.55.76c.24.16.53.34.8.46l.4-.51-.62-.68-.03-.03zm1.23 0l-.54.75.4.42c.27-.14.49-.3.75-.51l-.58-.63-.03-.03zm-1.39-1.35l-.42.63.59.65.22-.28-.39-1zm1.48 0l-.3 1.03.24.25.58-.73-.52-.55z"/><path fill-rule="evenodd" clip-rule="evenodd" fill="#3658a2" d="M43.02 18.73l.31.38-.2-.52z"/><path d="M43.43 19.29l-.43-.54.1-.18z"/><path d="M45.21 19.07c.01-.01.25-.33.25-.33l-.09-.13-.16.46z" fill-rule="evenodd" clip-rule="evenodd" fill="#3658a2"/><path d="M45.14 19.18l.19-.57.15.12c0 .03-.24.36-.25.36l-.09.09zM39.35 27.56l-.38-.32.05-.05.32.28.16-.18.04.03zM39.62 27.21l-.35-.34.25-.25.04.04-.2.2.1.11.19-.19.04.04-.19.19.12.12.21-.22.04.04zM39.73 26.73c-.05-.06-.07-.12-.06-.18.01-.06.04-.11.09-.14.04-.02.07-.04.11-.04s.08 0 .11.02c.04.02.07.05.1.08.03.04.05.08.05.12.01.04 0 .08-.01.11-.02.04-.04.06-.07.09-.04.02-.07.04-.11.04-.04 0-.08-.01-.11-.03a.153.153 0 0 1-.1-.07m.05-.04c.03.04.07.07.11.08.04.01.08 0 .12-.02.04-.03.06-.06.06-.1s-.01-.09-.05-.14c-.02-.03-.05-.05-.07-.07a.31.31 0 0 0-.08-.02c-.03 0-.06.01-.08.03-.04.02-.06.06-.07.1 0 .04.02.08.06.14M40.52 26.36l-.24-.36-.13.1-.03-.05.32-.22.03.05-.13.09.24.36zM40.72 26.21l-.21-.44.31-.15.03.05-.26.12.06.14.25-.12.02.05-.24.12.07.15.27-.13.03.05zM41.09 25.97l-.2-.45.2-.09c.04-.02.07-.02.1-.03.03 0 .05.01.07.02.02.02.04.04.05.06.01.03.02.06.01.09s-.04.06-.08.08c.02 0 .04 0 .05.01.02.01.05.02.07.04l.13.09-.07.03-.1-.07c-.03-.02-.05-.03-.07-.04-.02-.01-.03-.02-.04-.02h-.03c-.01 0-.02.01-.03.01l-.07.03.09.2-.08.04zm-.05-.27l.13-.06c.03-.01.05-.02.06-.04.01-.01.02-.02.02-.04s0-.03-.01-.05c-.01-.02-.02-.04-.05-.04-.02-.01-.05 0-.08.01l-.14.07.07.15zM41.49 25.75l-.19-.45.2-.08c.04-.02.07-.02.1-.02.02 0 .05.01.07.02.02.02.04.04.05.06.01.03.01.06 0 .09s-.04.06-.08.08c.02 0 .04.01.05.01.02.01.05.02.07.04l.13.09-.07.03-.1-.07c-.03-.02-.05-.03-.07-.04-.02-.01-.03-.02-.04-.02h-.03c-.01 0-.02.01-.03.01l-.07.03.08.2-.07.02zm-.04-.28l.13-.05c.03-.01.05-.02.06-.03.01-.01.02-.03.02-.04v-.05c-.01-.02-.02-.04-.05-.04-.02-.01-.05 0-.08.01l-.14.06.06.14zM43.55 25.14l-.04-.49.22-.02c.04 0 .08 0 .1.01.02.01.04.02.06.04.02.02.02.04.03.07 0 .04-.01.06-.03.09-.02.03-.05.05-.1.05.02.01.03.02.04.02l.06.06.1.13-.08.01-.07-.1a.38.38 0 0 0-.05-.06.138.138 0 0 0-.04-.03c-.01-.01-.02-.01-.03-.01h-.04l-.08.01.02.22h-.07zm.05-.27l.14-.01c.03 0 .05-.01.07-.01.02-.01.03-.02.03-.03.01-.01.01-.03.01-.04 0-.02-.01-.04-.03-.06-.02-.01-.05-.02-.08-.01l-.16.01.02.15zM44.78 25.08l.01-.49h.22c.04 0 .08.01.1.02.02.01.04.02.05.05.01.02.02.05.02.07 0 .03-.01.06-.03.09a.16.16 0 0 1-.11.04c.02.01.03.02.04.02.02.02.04.04.05.07l.08.13h-.08l-.06-.1c-.02-.03-.03-.05-.04-.07-.01-.01-.02-.03-.03-.03-.01-.01-.02-.01-.03-.01H44.86v.22h-.08zm.07-.27h.14c.03 0 .05 0 .07-.01.02-.01.03-.01.04-.03.01-.01.01-.03.01-.04 0-.02-.01-.04-.03-.06a.155.155 0 0 0-.08-.02h-.15v.16zM47.24 25.64l.24-.43.19.11c.04.02.06.04.08.06.02.02.02.04.02.07 0 .02-.01.05-.02.07-.02.03-.04.05-.07.06-.03.01-.07.01-.11-.01.01.02.02.03.02.04.01.02.01.05.02.08l.01.16-.07-.04-.01-.12c0-.04 0-.06-.01-.08 0-.02-.01-.03-.01-.04-.01-.01-.01-.02-.02-.03-.01 0-.01-.01-.03-.02l-.06-.04-.11.19-.06-.03zm.19-.21l.12.07c.02.01.05.02.06.03.02 0 .03 0 .05-.01.02-.01.03-.02.03-.03.01-.02.01-.04 0-.06a.17.17 0 0 0-.06-.06l-.14-.08-.06.14zM48.4 26.31l.31-.37.27.23-.03.04-.23-.19-.09.12.21.17-.04.05-.21-.18-.1.13.23.19-.04.05zM47.71 25.67c.01-.08.04-.13.09-.17.05-.04.11-.05.18-.04.04.01.08.03.11.05.03.03.05.06.07.1.01.04.02.08.01.13s-.02.09-.05.12c-.02.03-.06.06-.1.07-.04.01-.08.01-.12.01a.37.37 0 0 1-.11-.05.36.36 0 0 1-.07-.1c-.01-.04-.01-.08-.01-.12m.07.01a.2.2 0 0 0 .02.14c.03.04.06.06.11.07.05.01.09 0 .12-.03.04-.03.06-.07.07-.13a.17.17 0 0 0 0-.1c-.01-.03-.02-.06-.05-.08-.02-.02-.05-.03-.08-.04-.04-.01-.08 0-.12.02-.04.04-.06.08-.07.15"/><path d="M43.93 24.87c-.01-.08 0-.14.03-.19.03-.05.08-.08.14-.09.04-.01.08 0 .11.01.04.02.07.04.09.08.02.04.04.08.04.13.01.05 0 .09-.01.13-.01.04-.03.07-.06.1-.03.02-.07.04-.1.05-.04.01-.08 0-.12-.02-.04-.01-.06-.04-.09-.08-.01-.04-.03-.08-.03-.12m.06-.01c.01.06.03.1.06.13s.07.04.12.03.08-.03.1-.07c.02-.04.03-.09.02-.15-.01-.04-.02-.07-.03-.1a.17.17 0 0 0-.06-.06c-.02-.01-.05-.02-.08-.01-.04.01-.07.03-.1.06-.03.04-.04.1-.03.17M41.87 25.56l.01-.52.07-.02.36.39-.07.03-.11-.12-.19.07v.16l-.07.01zm.06-.23l.15-.06-.1-.11c-.03-.03-.05-.06-.07-.08.01.03.01.06.01.1v.15zM49.06 26.85l.48-.21.05.05-.2.49-.05-.05.07-.15-.14-.14-.14.07-.07-.06zm.24-.04l.12.12.06-.13c.02-.04.04-.07.05-.1-.03.02-.06.03-.09.05l-.14.06zM45.49 25.11l.28-.44.07.01.1.52-.07-.02-.03-.16-.2-.04-.08.14-.07-.01zm.18-.17l.16.03-.02-.14c-.01-.05-.01-.08-.01-.11-.01.03-.03.06-.04.09l-.09.13zM42.33 25.38l-.09-.48.1-.02.18.32c.02.03.03.05.04.07 0-.02.01-.04.01-.08l.05-.36.08-.01.09.48-.06.01-.08-.4-.06.43-.06.01-.22-.38.08.41h-.06zM43.15 25.19l-.05-.49.18-.02h.07c.02 0 .05.01.06.02.02.01.03.02.04.04.01.02.02.04.02.06 0 .04 0 .08-.03.11-.02.03-.07.05-.14.06l-.13.02.02.2h-.04zm.03-.26l.13-.01c.04 0 .07-.01.09-.03.02-.01.02-.04.02-.07 0-.02-.01-.04-.02-.05-.01-.01-.03-.02-.04-.03h-.06l-.12.01v.18zM44.41 25.08l-.01-.49.18-.01h.07c.03 0 .04.01.06.02s.03.03.04.05c.01.02.02.04.02.07 0 .04-.01.08-.04.11s-.07.05-.14.05h-.13l.01.2h-.06zm.06-.26l.13-.01a.2.2 0 0 0 .09-.02c.02-.02.03-.04.02-.07 0-.02-.01-.04-.02-.05a.138.138 0 0 0-.04-.03h-.19l.01.18zM46.85 25.44l.24-.42.16.09c.03.02.05.03.06.04.02.01.03.03.04.05.01.02.01.04.01.06 0 .02-.01.04-.02.06-.02.04-.05.06-.08.07-.04.01-.09 0-.15-.03L47 25.3l-.1.17-.05-.03zm.18-.19l.11.06c.04.02.07.03.09.02.02-.01.04-.02.06-.05.01-.02.01-.04.01-.05 0-.02-.01-.03-.02-.04-.01-.01-.02-.02-.05-.04l-.11-.06-.09.16zM45.39 24.618l-.058.487-.06-.007.058-.487zM49.47 27.29l.32-.3-.11-.12.04-.04.27.29-.05.04-.11-.12-.31.29zM48.13 26.14l.26-.34-.13-.1.04-.04.31.23-.04.04-.13-.09-.26.34zM45.99 25.21l.14-.47.09.03.02.36v.08c.01-.02.03-.04.05-.07l.21-.29.08.02-.14.47-.06-.02.12-.39-.25.35-.06-.01-.02-.44-.12.4-.06-.02zM49.02 26.59l.04-.04.14.15-.13.12c-.04-.01-.08-.02-.11-.03l-.09-.06a.273.273 0 0 1-.06-.12.195.195 0 0 1 .01-.13c.02-.04.04-.08.08-.11.03-.03.07-.05.12-.07.04-.01.09-.01.13 0 .04.01.08.04.11.08.02.02.04.05.05.08s.01.06.01.08-.02.05-.04.08l-.05-.03.03-.06c0-.02 0-.04-.01-.06a.21.21 0 0 0-.04-.06c-.02-.02-.04-.04-.06-.05-.02-.01-.04-.01-.06-.01s-.04 0-.06.01c-.03.01-.06.03-.09.05a.55.55 0 0 0-.07.09c-.01.03-.01.06 0 .09s.02.06.05.08c.02.02.04.04.07.05.03.01.05.02.07.02l.07-.06-.11-.09z"/><path d="M51.05 14.54c-.01 0-.02 0-.02-.01-.05-.06-.42-.44-1.19-.65l-.22-.03c.26.07.51.18.65.33-.14-.12-.38-.21-.62-.27.2.12.42.3.65.57-.3-.33-.6-.51-.85-.62-.36-.08-.69-.1-.69-.1h-.01c-.01 0-.03 0-.03-.01a.03.03 0 0 1 0-.04s.02-.01.04-.03v-.01l.01-.01c.1-.07.31-.22.47-.23-.11.04-.25.13-.35.21.04-.01.1-.02.18-.03.43-.06 1.43-.21 1.5-.25 0 .07-.28.13-1.06.25.29-.02.68-.06 1.23-.1-.25.05-.68.1-1.08.14.6-.02 1.27-.02 1.35.05-.06-.01-.41-.01-.83 0 .67.02.69.04.7.05-.08.01-.64 0-1.24-.01l1.12.09-1.18-.06c.59.08 1.3.2 1.42.35-.09-.07-.44-.15-.84-.21.6.2.9.52.94.57.01.01.01.03 0 .04-.03.02-.04.02-.05.02" fill="#faf92b"/><path d="M48.32 14.55s1.01.04 1.01.14-.75.29-.76.7c-.01.42.58.45.61.97.04.53-.46.6-.55.74-.1.07-.34.81-.31 1.25.03.43.16 1.91.39 2.21.18.14.45.59.73.45.29-.14.09-.64.06-.78s.12-.37.12-.58c0-.21-.11-.38-.1-.43.01-.05.8.19.75.97-.05.78-.37.55-.37.55s.1.96-.15 1.09c-.45.24-.77-.05-.77-.05l.04.2-.34-.18s-.44-.63-.53-.9c-.1-.28-.22-1.52-.18-1.78.04-.27.07-1.84.05-1.91-.02-.08-.1-1.39-.05-1.59.05-.19.36-1.07.35-1.07" fill="#fff"/><path d="M49.07 22.04l-.4-.2c-.03-.04-.45-.64-.55-.92-.1-.27-.22-1.52-.18-1.8.04-.25.07-1.82.05-1.9-.02-.1-.1-1.4-.05-1.6.03-.11.14-.43.23-.7.06-.19.11-.34.12-.36h.02c.71 0 1.06.06 1.06.14 0 .05-.06.08-.21.16-.22.11-.55.29-.56.55 0 .19.12.29.26.41.16.13.33.28.35.56.03.4-.24.56-.42.66-.06.04-.12.07-.14.1-.09.07-.33.8-.3 1.23.05.69.18 1.93.38 2.19.04.03.09.09.15.15.15.17.36.38.54.29.22-.11.12-.47.07-.66l-.02-.09c-.02-.08.02-.18.05-.29.03-.1.07-.2.07-.3 0-.12-.04-.23-.07-.31a.346.346 0 0 1-.03-.12c.12-.03.37.05.56.26.18.19.27.44.25.72-.05.8-.41.57-.41.57.06.07.14.96-.12 1.09-.12.07-.25.1-.37.1-.26 0-.43-.14-.44-.15l.11.22zm-.73-7.45c-.01.03-.04.12-.11.35-.09.26-.2.58-.23.7-.05.18.03 1.48.05 1.57.02.08-.01 1.65-.05 1.93-.04.27.08 1.51.18 1.77.1.27.53.89.53.89l.27.14-.03-.14c.05-.02.21.11.45.11.11 0 .23-.03.34-.09.19-.1.16-.8.13-1.06.05-.03.09 0 .14 0 .13 0 .21-.2.23-.55a.852.852 0 0 0-.23-.67c-.17-.18-.4-.27-.47-.27.01.01.02.04.03.07.03.08.08.2.08.33 0 .11-.04.22-.07.32-.03.1-.06.19-.05.25l.02.08c.06.2.17.6-.1.74-.21.1-.45-.12-.61-.3-.05-.06-.1-.11-.15-.15-.26-.34-.39-2.04-.4-2.23-.03-.42.2-1.19.32-1.28.02-.03.08-.07.16-.11.18-.1.42-.24.39-.6-.02-.26-.18-.39-.33-.52-.15-.12-.29-.24-.28-.46.01-.3.36-.48.59-.6.07-.04.17-.09.18-.11-.06-.05-.54-.09-.98-.11"/><path d="M47.23 14.3s.7-.68 1.11-.6c.21 0 .01.15.01.15s.36.03.4.19c.01.07-.17.09-.17.09s.15.03.16.16c.01.12-1.5.02-1.51.01" fill-rule="evenodd" clip-rule="evenodd" fill="#ed6c22"/><path d="M47.99 14.36c-.38 0-.76-.02-.78-.04l-.02-.02.02-.02c.03-.03.73-.7 1.14-.61.02 0 .1 0 .12.05.02.05-.04.11-.08.14.07-.03.35.01.4.17-.03.06-.07.09-.11.11.05.01.1.06.11.15-.12.05-.46.07-.8.07m-.61-.08c.36.02 1.27.06 1.34-.01-.01-.1-.13-.12-.14-.12.05-.06.12-.08.14-.1-.03-.12-.28-.16-.38-.17.02-.08.06-.13.06-.14l-.07-.01c-.3-.05-.77.32-.98.5.21-.04.72-.15.96-.39-.06.08-.14.14-.23.2.16 0 .45 0 .51.06-.05.01-.2 0-.37.01h-.2v-.03c-.22.11-.49.17-.64.2"/><path d="M50 22.17s.48-.11.6-.28c.09-.06.5.62-.6.28" fill-rule="evenodd" clip-rule="evenodd" fill="#fff"/><path d="M50.5 22.3c-.02 0-.03-.01-.03-.03 0-.02.01-.03.03-.03a.4.4 0 0 0 .18-.04c.03-.02.04-.05.04-.09 0-.09-.08-.18-.1-.19.07-.06.16.07.16.19 0 .02-.01.03-.04.03.01.01.01.03.01.04 0 .03-.02.05-.04.07-.04.03-.11.05-.21.05"/><path d="M49.49 20.84c-.04-.06-.08-.21-.1-.34-.04-.19-.09-.38-.09-.45-.01-.07.03-.14.08-.22.03-.06.07-.12.08-.18.01-.07-.02-.15-.04-.23-.02-.07-.04-.13-.04-.18 0-.1.12-.2.24-.3.05-.04.09-.08.12-.11.16-.23.1-.59.1-.59 0-.02.01-.03.02-.03.02-.01.03.01.04.02 0 .01.06.38-.11.64-.03.04-.08.08-.13.12-.09.08-.22.18-.22.25 0 .05.02.1.04.16.03.08.05.17.04.26-.01.07-.05.14-.09.2-.04.07-.08.13-.07.19 0 .06.05.27.09.44.07.33.07.33.04.35m-.91-3.29c.02-.4.4-.53.42-.54.01 0 .03 0 .04.02.01.02 0 .03-.02.04-.01 0-.37.13-.44.48" fill="#fff"/><path d="M48.85 14.06s.13.36.54.02c-.27-.37-.54-.01-.54-.02" fill-rule="evenodd" clip-rule="evenodd" fill="#b8591b"/><path d="M49.07 14.26c-.18 0-.25-.18-.26-.19.24-.29.43-.23.6-.01-.13.14-.24.2-.34.2m-.19-.19c.01.01.07.12.19.12.09 0 .18-.05.3-.14-.15-.11-.31-.16-.49.02"/><path d="M49.15 14.05c0 .02-.02.04-.04.04s-.05-.01-.05-.04c0-.02.02-.03.05-.03.02-.01.04.01.04.03" fill-rule="evenodd" clip-rule="evenodd"/><path d="M45.44 13.23s.79.85 1.3.85c.09.25-.23.48-.36.59-.26-.08-.49.02-1.1-.73.04-.47.17-.69.16-.71" fill-rule="evenodd" clip-rule="evenodd" fill="#fff"/><path d="M46.37 14.7c-.05-.01-.1-.02-.14-.03-.22-.05-.47-.09-.97-.7.02-.38.1-.6.14-.69l-.11-.21.18.15c.01.01.78.84 1.27.84.13.27-.13.48-.29.61l-.08.03zm-.95-1.45c0 .14-.08.35-.11.7.48.57.71.62.93.66.05.01.09.02.13.03l.03-.03c.14-.12.38-.32.31-.52h-.01c-.5 0-1.25-.8-1.28-.84"/><path d="M46.51 11.25c.1-.32.31-.57.48-.6-.05-.24.37-1.31 1.59-1.72.07.55-.52 1.09-.52 1.09s1.79-.31 2.15-.76c-.04.2-.4 1.47-2.31 1.47.72.69-.23 1.23-.64 1.07.75-.58-.21-.93-.75-.55" fill-rule="evenodd" clip-rule="evenodd" fill="#fff"/><path d="M47.43 11.85c-.07 0-.13-.01-.18-.03.2-.21.29-.36.25-.49-.08-.23-.65-.29-.97-.07.06-.36.27-.62.46-.65-.07-.2.32-1.29 1.58-1.72.11.55-.4 1.05-.48 1.13.14-.08 1.77-.38 2.1-.8.04.09-.24 1.52-2.27 1.52.31.24.3.49.24.65-.11.29-.46.46-.73.46m-.4-.79c.26 0 .47.1.52.26.04.1.02.27-.26.49.04-.02.09-.02.14-.02.24 0 .57-.16.67-.41.08-.2 0-.42-.22-.63 2.02-.05 2.29-1.44 2.3-1.5-.31.48-2.05.79-2.12.8-.02-.06.56-.59.49-1.11-1.17.43-1.57 1.49-1.53 1.71-.19.06-.39.31-.48.61.1-.14.29-.2.49-.2"/><path d="M47.12 10.8c.36-.23.49-.23.79-.19-.21.03-.21.04-.21.04s-.02.03.11.15c-.15-.04-.28-.12-.69 0" fill-rule="evenodd" clip-rule="evenodd" fill="#cacacb"/><path d="M47.92 10.86l-.19-.05c-.13-.04-.32-.06-.6.02.32-.3.47-.29.79-.25-.12.06-.17.08-.19.09.01.01.04.04.11.1l.08.09zm-.25-.24c-.13 0-.24.03-.41.13.18-.08.34-.04.44-.01-.04-.05-.05-.08-.04-.11.01 0 .01 0 .01-.01z" fill="#cacaca"/><path d="M47 10.68l-.03-.05c.01 0 .72-.38 1.11-.64-.36.3-1.08.68-1.08.69"/><path d="M46.37 14.67s.98.27 1.1-1.14c-.21-.61-.51-1.93-.06-2.31-.42-.29-.87.01-.87.01-.03.06-.4.59.1 1.52-1.19-.32-.71.81-.71.81.04-.18.68-.34.83.56.07.22-.42.56-.39.55" fill-rule="evenodd" clip-rule="evenodd" fill="#2c00fc"/><path d="M46.56 14.72c-.11 0-.19-.02-.2-.02l-.06-.02.08-.07c.27-.22.39-.39.36-.5-.11-.63-.44-.67-.54-.67-.13 0-.23.06-.24.12-.07-.01-.26-.47-.09-.73.12-.18.38-.22.77-.12-.25-.35-.44-.94-.15-1.48.03-.04.24-.18.51-.18.15 0 .3.04.42.13-.41.39-.19 1.6.07 2.33-.08 1.06-.62 1.21-.93 1.21m-.36-1.33c.11 0 .48.05.6.72.06.2-.27.47-.38.56.02-.01.08 0 .14 0 .29 0 .8-.15.88-1.13-.22-.63-.52-1.94-.04-2.33-.11-.03-.24-.07-.38-.07-.25 0-.45.13-.45.13-.28.53-.1 1.1.11 1.48-.18.01-.29-.01-.39-.01-.16 0-.28.05-.34.15-.15.23.03.67.03.68-.05-.11.08-.18.22-.18"/><path d="M47.48 13.54s1.04-.55 1.01-1.86c-.88.02-1.2 1.16-1.2 1.16l.19.7z" fill-rule="evenodd" clip-rule="evenodd" fill="#2c00fc"/><path d="M47.46 13.58l-.2-.74c0-.03.33-1.18 1.23-1.2.06 1.34-.99 1.92-1 1.92l-.03.02zm1-1.91c-.82.05-1.13 1.16-1.14 1.17l.18.65c.17-.11.98-.68.96-1.82"/><path d="M42.81 13.47s-.77.67-1.21.46c-.33.2-.71-.15-.71-.15s.45 1.64 2.04.46c-.01-.37-.1-.74-.12-.77" fill-rule="evenodd" clip-rule="evenodd" fill="#fff"/><path d="M41.9 14.7c-.78 0-1.03-.9-1.03-.91.07-.03.28.17.52.17.07 0 .14-.02.2-.05.08.02.14.04.21.04.42 0 .99-.48.99-.49.07.05.15.42.18.78-.4.31-.76.46-1.07.46m-1-.88c.08.12.34.81 1 .81.3 0 .64-.14 1.02-.43-.04-.33-.12-.68-.14-.72.01.04-.79.66-1.2.46-.04.04-.12.06-.21.06-.2.02-.4-.13-.47-.18"/><path d="M41.6 13.9c.06-.34.33-.51.55-.19.29.05.58-1.12-.45-.93.29-1.54-.58-2.12-.58-2.12s-.31 1.71-.17 2.03c.14.32-.2-.58-1.31-.84-.02 1.29 1.24 1.9 1.24 1.9s.36.33.72.15" fill-rule="evenodd" clip-rule="evenodd" fill="#2c00fc"/><path d="M41.37 13.98c-.19 0-.36-.1-.45-.16 0 .01-.01.01-.01.01l-.05-.03s0-.01.01-.01c-.01-.01-.01-.01-.02-.01s-1.26-.62-1.24-1.92c.68.13 1.09.5 1.29.74-.07-.48.18-1.87.19-1.93.09.01.92.59.64 2.13.36-.11.55.02.63.15.13.2.09.51-.02.69-.06.09-.13.14-.2.11-.1-.13-.19-.19-.28-.17-.11.02-.2.15-.23.33l-.02.02c-.08.04-.16.05-.24.05m-.4-.2c.12.08.36.21.6.1v-.01c-.19-.11-.33-.17-.46-.16-.06.01-.11.04-.14.07m.38-.08c.07.04.15.09.23.16.04-.18.15-.32.27-.34.07-.01.2-.01.32.19.02-.01.07-.04.12-.1.1-.16.14-.45.02-.62-.1-.16-.31-.21-.61-.16-.07.05-.42.41-.35.87m-1.71-1.81c.02 1.23 1.24 1.83 1.26 1.84l.02.02c.04-.04.1-.08.19-.09h.01c-.28-.54-.18-.92-.18-.94h.01l-.01-.01h-.01s0-.01-.01-.01c-.21-.25-.6-.66-1.28-.81m1.51 1.76c.06 0 .13.02.2.05-.14-.54.33-.94.33-.95l.03.04c.22-1.48-.56-2.06-.6-2.09.03.05-.26 1.69-.12 1.99l.01.03c0 .01.01.01.01.02H41v.05c0-.01-.01-.01-.01-.02-.02.11-.05.45.13.89.01-.01.02-.01.03-.01"/><path d="M40.99 11.31c0-.01-.73 0-.3.74-.33.1-1.05-.37-.55-1-1.64-.04-2.31-.83-2.31-1.55.48.5 1.63.3 2.04.6-.5-.46-.4-1.1-.4-1.1s1.4.42 1.65 1.66c-.08.24-.12.67-.13.65" fill-rule="evenodd" clip-rule="evenodd" fill="#fff"/><path d="M40.54 12.07c-.19 0-.39-.12-.51-.29-.09-.13-.2-.41.08-.76-1.6-.02-2.32-.77-2.32-1.53.32.25.81.31 1.24.36.33.04.64.07.82.2-.51-.41-.41-1.05-.41-1.06h.01c.11 0 1.46.44 1.71 1.66 0 .01 0 .01-.01.02.02.01.03.03.05.04-.02-.01-.03-.02-.05-.02-.04.15-.08.34-.1.47-.02.15-.03.17-.05.18l-.01-.01v.01c-.02 0-.26.01-.36.15-.08.12-.05.3.09.54-.06.03-.12.04-.18.04m-2.73-2.55c.05.71.76 1.46 2.33 1.5-.17.29-.19.53-.05.74.15.21.43.32.59.27-.18-.23-.2-.45-.09-.59.11-.14.32-.16.39-.15-.01-.01 0-.07.01-.13.02-.14.05-.34.1-.49-.19-.09-.41-.17-.62-.24-.26-.09-.5-.18-.64-.33l.02-.02c-.21-.07-.51-.11-.82-.15-.44-.06-.94-.12-1.22-.41m2.07.53c.13.13.37.22.62.31.21.08.43.16.6.27-.25-1.15-1.54-1.58-1.62-1.61.02.04-.04.61.4 1.03z"/><path d="M40.18 10.88s.57-.07.74.13c-.22 0-.3-.06-.63.06.09-.05.07-.13.12-.13.05.01-.21-.06-.23-.06" fill-rule="evenodd" clip-rule="evenodd" fill="#cacacb"/><path d="M40.3 11.1l-.02-.04c.04-.02.05-.05.06-.08l.06-.05c-.04.02-.21-.02-.23-.02-.01-.11.58-.13.76.09-.08.04-.12.04-.17.03-.11-.01-.19-.03-.46.07m.02-.21c.06.01.12.03.12.05h-.03l-.02.06c0 .01-.01.02-.01.03.21-.07.29-.05.39-.04.04 0 .09.01.15.01-.13-.1-.42-.12-.6-.11" fill="#cacaca"/><path d="M43.05 6.38s.31-.28.66-.03c-.15.46-.71.29-.71.29s.02.23-.04.34c.11.08.2.36.2.36s.58-.14.7.11c.22-.03.38 0 .38 0s.45-.11.6-.11c.16 0 .66.13.7.22.05.09.21.71.33.71.11-.01-.27.15-.37-.01-.1-.16-.07.21-.07.21s.32.33.35.41c.04.07-.19.68-.02 1.1-.15.01-.17.18-.17.18-.01.18-.24.23-.24.23l-.05-.25-.16.09.07-.2s.21-.52.23-.68c.02-.17-.19-.46-.36-.46-.17 0-.29.53-.29.53s-.08.4-.06.44c.03.04-.11-.13-.11-.13s-.07.24-.13.31c-.05.08-.18.1-.18.1s-.08-.24-.06-.33c.03-.09.45-.46.42-.72-.04-.26 0-.19-.01-.2-.01-.01-.22-.2-.23-.3-.01-.1-.28.13-.63.06-.11.19-.12.66-.12.66s-.04.57.04.63c.07.06-.19.2-.19.2l-.18.25s-.07-.16-.07-.15c0 .01-.13.09-.13.09l.08-.18c0-.14.18-.53.18-.85 0-.33.02-.67.02-.67s-.35-.02-.33.33c.01.35-.08.37-.07.47.02.1.11.39.08.48-.03.08-.14.11-.14.11l-.03.05s-.34.16-.33.22c.01.07-.01-.18-.01-.18l-.02-.27s.21-.13.21-.45-.05-.37-.04-.45c.01-.07.06-.34.05-.37-.01-.03-.2.08-.25.08-.06 0 .1-.2.12-.34.02-.14-.18.13-.35-.03.08-.17.19-.22.21-.35.02-.13-.13.11-.26.02.01-.12.14-.23.14-.23s-.11-.01-.15 0c-.08-.03.09-.16.1-.34.01-.19-.1-.26-.1-.27 0-.01-.19-.17-.21-.23-.03-.07-.03-.14-.03-.14s-.31.22-.67-.25c.33-.28.69-.07.69-.07s.09-.26.52-.24c.42-.02.5.23.49.2" fill-rule="evenodd" clip-rule="evenodd" fill="#863f13"/><path d="M45.33 10.42l-.06-.28-.11.11.02-.23c0-.01.21-.52.23-.68.01-.08-.05-.21-.14-.31-.07-.08-.14-.12-.19-.12-.1 0-.21.3-.26.51-.04.17-.07.38-.06.41-.04.05-.04.05-.15-.08.01.06-.05.23-.1.3-.06.08-.19.11-.19.11-.04-.05-.12-.27-.09-.37.01-.03.05-.08.12-.16.13-.15.32-.37.3-.54-.03-.2-.01-.22-.01-.23-.15-.11-.23-.21-.23-.27-.02 0-.06.01-.1.03-.12.04-.32.1-.51.06-.07.16-.08.63-.08.63-.02.27-.01.57.03.61.01.14-.14.23-.19.25l-.18.24c-.04 0-.08-.08-.1-.12-.02.02-.05.04-.1.07l.03-.22c0-.05.03-.15.06-.27.05-.17.11-.38.11-.57 0-.33.02-.68.02-.68-.01.03-.13.04-.2.12-.05.05-.07.13-.07.22.01.22-.03.32-.05.38-.01.04-.02.06-.02.09.01.03.02.07.03.11.04.17.08.31.05.37-.03.1-.16.13-.16.13-.16.11-.32.2-.34.24l-.07-.18-.02-.27c.02-.03.2-.15.2-.46 0-.2-.02-.29-.03-.35-.01-.04-.01-.07-.01-.1l.01-.1c.01-.08.04-.23.03-.26 0 .02-.05.04-.08.05-.07.03-.11.04-.14.04-.05-.05-.03-.08.01-.16.03-.06.08-.14.08-.21-.14.06-.25.08-.34 0 .03-.11.08-.17.12-.22.05-.05.08-.1.09-.16-.05.04-.1.08-.16.08l-.08-.03c0-.1.05-.18.09-.23h-.03l-.11-.03c-.01-.03.01-.07.04-.12a.39.39 0 0 0 .08-.22c.01-.14-.06-.21-.08-.24l-.06-.06c-.08-.08-.15-.15-.17-.19a.516.516 0 0 1-.02-.11c-.06.06-.34.16-.66-.27.26-.3.66-.15.72-.12-.01-.03.1-.24.47-.24.38.02.53.18.56.24 0-.06.38-.22.65-.03-.14.5-.64.37-.73.34.02.04.03.23-.02.33.1.05.19.28.2.33.01-.02.15-.05.3-.05.21 0 .34.06.39.17.13-.08.36-.02.36-.02s.44-.11.6-.11c.15 0 .67.13.73.24.01.02.03.09.06.17.04.13.17.52.24.52.05.09-.12.12-.2.12-.09 0-.16-.03-.2-.08-.02-.01-.02.08-.02.19.02.01.31.32.35.4.02.03.01.09-.02.22-.04.23-.12.6 0 .88-.15.05-.16.19-.16.19-.01.2-.26.26-.27.26l-.01-.01zm-2.05-.21c.02 0 .04.03.09.16l.13-.26c.09-.05.19-.12.19-.16-.08-.07-.06-.52-.05-.66 0-.02.01-.48.12-.67.07-.01.12 0 .17 0 .14 0 .25-.04.34-.07.05-.02.09-.03.12-.03h.03l.04.05c0 .03.03.1.21.27.01.05.01.08.03.23.03.19-.18.43-.31.58-.05.06-.1.12-.11.14-.02.06.03.23.05.3.01-.02.09-.05.13-.1.04-.06.1-.24.13-.31.02-.01.08.04.12.07-.01-.06.01-.2.05-.38.02-.09.13-.55.32-.55.1 0 .19.09.24.14.09.1.17.24.15.36-.02.17-.23.67-.23.69l-.06.19.11-.13.09.24c.05-.02.18-.07.19-.2.01-.07.05-.19.2-.21-.15-.25-.08-.64-.03-.87.01-.08.03-.16.03-.18-.03-.05-.22-.27-.35-.4-.01-.08-.02-.24.02-.28h.02l.09.04c.09.14.32.03.34.01-.09.05-.17-.14-.29-.52-.03-.08-.05-.13-.06-.16-.04-.07-.51-.2-.68-.2-.15 0-.59.11-.6.11-.02 0-.17-.03-.38 0-.19-.29-.69-.11-.69-.11-.04-.02-.13-.29-.23-.37.04-.14.02-.36.02-.36.04-.03.14 0 .26 0 .16 0 .37-.05.45-.3-.09 0-.19-.03-.29-.03-.18 0-.32.11-.33.13-.05-.02-.14-.21-.52-.22-.4 0-.49.21-.49.22-.05.01-.17-.05-.33-.05-.14 0-.26.05-.37.14.15.15.31.25.46.25.1 0 .17-.05.17-.05.05.03.05.1.07.15.02.04.11.13.16.17l.06.07c.03.02.11.1.1.27-.01.1-.05.19-.09.25-.02.02-.04.06-.04.07.1-.01.15 0 .15 0 .02.05-.1.15-.11.27.08-.01.12-.04.15-.06l.07-.03.04.07c-.01.08-.05.13-.1.19-.04.05-.08.1-.11.17.02 0 .06.01.1.01.05 0 .1-.02.14-.04l.07-.02.05.06a.65.65 0 0 1-.09.23c-.02.03-.04.08-.04.09 0-.02.06-.04.1-.06.06-.03.1-.04.12-.04.05.05.04.11.01.32l-.01.09c0 .02 0 .04.01.08.01.06.03.16.03.36 0 .34-.21.48-.22.48l.04.39c.01-.08.22-.18.29-.21.04-.05.13-.07.15-.14.02-.05-.03-.23-.06-.34a.346.346 0 0 1-.03-.12c-.01-.05 0-.08.02-.12.02-.06.05-.15.05-.36 0-.11.03-.2.09-.26.09-.1.23-.1.27-.1.04.03.02.38.02.7 0 .2-.07.41-.12.58-.04.11-.06.21-.06.26l-.05.13c.02-.03.04-.05.05-.05h.01"/><path d="M45.38 11.18c.01 0 .79.02.8.44.01.42-.24.31-.24.31-.02 0-.58-.07-.58-.07l.02-.68z" fill-rule="evenodd" clip-rule="evenodd" fill="#2c00fc"/><path d="M46 11.98l-.08-.02c-.01-.01-.57-.07-.57-.07v-.71c.04-.03.85-.01.86.44 0 .14-.02.24-.08.3-.03.04-.08.06-.13.06m-.57-.12c.12 0 .49.05.51.05l.06.04v-.03c.03 0 .06-.01.08-.03.04-.04.07-.13.06-.26-.01-.39-.76-.41-.77-.41l.01.65c.01-.01.03-.01.05-.01"/><path d="M44.62 11.07s.97-.01.92.42c-.05.43-.3.34-.3.34l-.47-.04-.15-.72z" fill-rule="evenodd" clip-rule="evenodd" fill="#fffdff"/><path d="M45.29 11.86l-.06-.01-.46-.04-.17-.74c.1-.04.71-.03.91.2.05.06.08.13.07.21-.05.33-.2.38-.29.38m-.66-.76l.17.68.44.01.05.04v-.03c.07 0 .19-.04.22-.32a.184.184 0 0 0-.05-.16c-.15-.18-.59-.22-.83-.22"/><path d="M44.07 11.02l.56.05s.34.05.33.37c-.02.33-.35.33-.35.33l-.55-.03.01-.72z" fill-rule="evenodd" clip-rule="evenodd" fill="#2c00fc"/><path d="M44.61 11.8l-.55-.03-.02-.75.6.02c.01 0 .37.05.35.4-.01.35-.37.36-.38.36zm-.54-.75l.03.69h.52c.01 0 .3-.01.32-.3.01-.29-.29-.34-.3-.34l-.57-.05z"/><path d="M42.75 11.18c-.01 0-.79.02-.8.44-.01.42.24.31.25.31.01 0 .57-.07.57-.07l-.02-.68z" fill-rule="evenodd" clip-rule="evenodd" fill="#fff"/><path d="M42.13 11.98a.21.21 0 0 1-.13-.05c-.05-.06-.08-.16-.08-.3.01-.45.82-.47.83-.47l.05.71c-.03.03-.6.1-.6.1s-.03.01-.07.01m.59-.79c-.02.03-.73.06-.74.44 0 .13.02.21.06.26.02.02.05.03.08.03v.03l.06-.04c.03 0 .58-.07.58-.07l-.04-.65z"/><path d="M43.51 11.07s-.98-.01-.92.42c.05.43.3.34.3.34l.47-.04.15-.72z" fill-rule="evenodd" clip-rule="evenodd" fill="#2c00fc"/><path d="M42.84 11.86c-.09 0-.24-.05-.28-.37-.01-.08.01-.15.07-.21.2-.23.81-.24.88-.24l-.11.75-.56.07zm.64-.8c-.21.04-.66.08-.81.25-.04.05-.06.1-.05.16.04.28.15.32.22.32v.03l.04-.04.48-.04.12-.68z"/><path d="M44.06 11.02l-.56.05s-.34.05-.33.37c.02.33.35.33.35.33l.55-.03-.01-.72z" fill-rule="evenodd" clip-rule="evenodd" fill="#fff"/><path d="M43.52 11.8c-.01 0-.36-.01-.38-.36-.02-.35.35-.4.35-.4l.57-.05.04.75-.58.06zm.51-.78l-.53.08c-.01 0-.31.05-.3.34.01.29.3.3.32.3l.55-.03-.04-.69z"/><path d="M45.57 15.71s.41-.6.58-.53c.15.05.04.51-.04.56l-.54-.03z" fill-rule="evenodd" clip-rule="evenodd" fill="#570045"/><path d="M46.12 15.77l-.55-.02c.01-.1.36-.6.55-.6.07.02.12.05.13.16.02.15-.05.41-.13.46zm.02-.56c-.14 0-.4.32-.54.52l.51-.02c.03-.04.1-.25.09-.4-.01-.04-.03-.09-.06-.1z"/><path d="M42.79 15.82c-.13-.18-.31-.67-.48-.53-.15.05-.04.51.03.55l.45-.02z" fill-rule="evenodd" clip-rule="evenodd" fill="#570045"/><path d="M42.34 15.87c-.08-.04-.15-.31-.14-.46.01-.1.06-.14.09-.15.02-.02.06-.03.09-.02.12.02.22.21.32.39.04.07.08.14.11.18l.03.05-.5.01zm.04-.57c-.1.03-.11.08-.11.12-.02.16.06.38.09.4l.38-.02c-.03-.04-.05-.09-.08-.14-.09-.16-.19-.34-.28-.36m1.73-.13c-.27-.01-1.04-.48-1.07-.5l.03-.05c.01 0 .79.48 1.04.49h.01c.21 0 .83-.45 1.06-.63-.01.08-.79.69-1.07.69"/><path fill-rule="evenodd" clip-rule="evenodd" fill="#570045" d="M43.13 12.73l.16-.19.76.38.77-.34.15.16-.86.61z"/><path d="M44.11 13.38l-.99-.63.15-.23.8.38.75-.34.18.17-.89.65zm-.84-.82l-.12.18.95.57.85-.6-.15-.11-.74.35-.79-.39z"/><path d="M42.53 12.72c.06.08.55.68.64 1.17.09.49-.05-.68-.05-.68s.61.3.63.49c.02.19.29-.01.3-.04l-1.76-1.14.24.2z" fill-rule="evenodd" clip-rule="evenodd" fill="#494949"/><path d="M43.2 14.04c-.03 0-.03-.02-.06-.15-.08-.43-.47-.94-.63-1.15l-.24-.21.28.16.01.01 1.51.92c0 .07-.15.18-.25.18-.06 0-.1-.04-.11-.11-.01-.13-.38-.35-.61-.46.14.76.13.78.11.79.01.01 0 .02-.01.02m-.11-.83c.11 0 .67.28.69.48.11.05.23-.04.25-.06l-1.45-.92c.15.19.44.58.57.94-.02-.13-.04-.31-.06-.44" fill="#494949"/><path d="M45.53 12.68s-.64.84-.56 1.76c-.13-.44-.03-1.17-.03-1.17l-.14.09s-.14.62-.33.71c-.03-.07-.02-.1-.02-.1s-.19.25-.23.28c-.04.03.01.86.01.86s.07.6.14.59c-.09.04-.19.11-.19.11l-.08-1.61.18-.18s.24-.29.26-.58c-.1.09-.22.12-.22.12s-.03.4-.13.46-.1.16-.1.16l-.02-.53 1.46-.97z" fill-rule="evenodd" clip-rule="evenodd" fill="#494949"/><path d="M44.18 15.85h-.01c-.01-.01-.02-.02-.02-.03l-.08-1.61.03-.03c-.02-.02-.02-.07.01-.11l-.07-.41 1.48-1.01c.04.05-.59.89-.52 1.78-.19-.43-.09-1.14-.09-1.17l-.09.12c0 .04-.14.62-.33.72-.05-.07-.07-.1-.07-.12-.01.09-.15.27-.19.3-.01.04 0 .46.03.83.03.25.08.54.12.57-.08.1-.18.16-.18.16-.01.01-.02.01-.02.01m.34-2.42c.03.32-.2.61-.22.62l-.18.18.09 1.53c.03-.02.07-.04.12-.07-.03-.03-.08-.17-.13-.58-.05-.85-.01-.87 0-.88.02-.01.13-.15.23-.27.05.02.05.05.08.11.1-.09.23-.54.27-.71l.15-.11c.05.04-.06.75.07 1.18-.14-.91.5-1.76.51-1.77l-1.42 1.03.02.37c.02-.02.04-.04.06-.05.06-.04.1-.28.11-.44.03-.03.14-.06.24-.14m-.01.02c-.06.12-.18.15-.18.15.02.04-.01.39-.12.46a.15.15 0 0 0-.07.09l.12-.13c0-.01.23-.3.25-.57" fill="#494949"/><path d="M44.22 16.19l-.19-2.53c0-.02.01-.03.03-.03.02 0 .03.01.03.03l.13 2.53z"/><path d="M44.17 15.85c-.04-.01-.34-.33-1.26-.26-.14-.52-.41-.69-.42-.69l.03-.05c.01.01.3.18.41.71.92-.1 1.23.24 1.24.25 0-.02.77-.38 1.12-.31.1-.25.45-.59.46-.6.04.05-.32.39-.44.64-.37-.06-1.13.31-1.14.31"/><path d="M42.12 12.38l1.95 1.28 1.76-1.18s.37-.2.34-.35c-.03-.15-.16-.09-.22-.06s-1.84 1.28-1.84 1.28l-1.89-1.2s-.14-.04-.17.05.05.14.07.18" fill-rule="evenodd" clip-rule="evenodd" fill="#b2b3b6"/><path d="M44.07 13.7l-1.97-1.29c-.06-.08-.11-.14-.08-.21.01-.03.04-.08.12-.08.04 0 .08.01.08.01l1.9 1.2c.15-.13 1.75-1.26 1.81-1.29.07-.03.22-.11.26.08.04.16-.31.36-.35.38l-1.77 1.2zm-1.91-1.52c-.08 0-.08.02-.09.03-.01.05.01.08.04.12l1.96 1.3 1.74-1.17c.14-.07.34-.23.33-.32-.03-.15-.13-.06-.18-.04-.06.03-1.13.78-1.84 1.28l-1.93-1.2h-.03z"/><path d="M45.61 12.05s-.5-.21-.5-.03.01.2.09.32-.06.19-.06.19l-.05-.13c-.03-.08-.3-.14-.32-.23s.06-.24-.1-.26c-.16-.02-.32.07-.35.25-.03.18-.24.61-.24.61l.03-.98c.35.03 1.01.1 1.51.16-.15-.02.06.01.05.06-.01.05-.06.06-.06.04" fill-rule="evenodd" clip-rule="evenodd" fill="#494949"/><path d="M44.08 12.81c-.02 0-.03-.02-.03-.03l.03-.98c.35-.01.91.06 1.38.11l.11.01c.01 0 .02.01.04.01.01 0 .01-.01.02-.01s.02.01.02.02c.03.02.05.04.05.07 0 .02-.07.07-.08.07-.03-.01-.26-.11-.4-.11-.08 0-.08.03-.08.04 0 .17.01.19.09.3.03.04.04.08.03.12-.02.07-.1.11-.1.12l-.09-.15c-.01-.03-.08-.06-.14-.09-.09-.04-.17-.08-.19-.15-.01-.03 0-.07 0-.11.01-.08.01-.13-.08-.14-.17.01-.29.09-.32.23-.03.18-.23.6-.24.62.01.04-.01.05-.02.05m.03-.98v.81c.06-.14.16-.36.18-.48.03-.17.16-.28.33-.28.19.02.18.13.17.21v.08c.01.04.09.08.15.11.08.04.15.07.17.12l.04.1c.01-.02.03-.04.04-.06.01-.02 0-.04-.02-.07-.09-.13-.1-.15-.1-.34 0-.03.01-.07.06-.09-.38-.05-.77-.09-1.02-.11" fill="#494949"/><path d="M43.84 11.81c-.09 0-.54.05-.65.12-.11.07.18.17.15.26-.04.09-.04.27-.18.23-.14-.04-.62-.27-.63-.35-.02-.08-.11-.08-.11-.08s1.36-.2 1.42-.18" fill-rule="evenodd" clip-rule="evenodd" fill="#494949"/><path d="M43.19 12.45l-.04-.01c-.11-.03-.63-.27-.65-.38-.01-.05-.08-.06-.08-.06l.01-.01c.02-.02.04-.03.06-.02.28-.08 1.21-.2 1.35-.2h.01c-.01 0-.02.01-.03.01-.11.06-.51.11-.61.17-.01.02.04.06.06.08.06.05.13.1.1.16-.05.15-.08.26-.18.26m-.67-.46c.02.01.03.04.03.06.02.06.45.29.61.33h.03c.05 0 .07-.06.1-.14.01-.03.02-.05.02-.07.01-.02-.05-.07-.08-.09-.05-.04-.1-.08-.09-.12.04-.03.08-.05.14-.07-.29.04-.6.08-.76.1" fill="#494949"/><path d="M44.08 12.9l-.06-1.2h.06v1.2zm-1.48-1.69c-.05-.05.38-.74.5-.94l.05.03c-.21.35-.53.88-.55.91M44.59 11.05c-.09-.06-.18-.29-.25-.35 0-.08-.11-.27-.22-.42l.05-.04c.04.05.25.34.22.44.09.06.19.36.2.37m.01-.06c-.07-.03.1-.31.44-.8l.05.04c-.23.32-.49.71-.49.76"/><path d="M42.43 6.75c-.01.04-.08.06-.15.04-.07-.02-.12-.07-.11-.11.01-.04.08-.06.15-.04.07.02.12.07.11.11M42.63 6.74c.01.04.08.06.15.04.07-.02.12-.07.1-.11-.01-.04-.08-.06-.15-.03-.06 0-.11.06-.1.1" fill-rule="evenodd" clip-rule="evenodd"/><path d="M48.66 21.8s-.19.04-.19.06c.01.02-.55.04-.57.02-.01-.02-.08.1-.08.1l.09-.06s.14.15.18.13c.04-.01-.02.05-.01.07.01.01.05-.02.05-.02l.93-.02-.4-.28z" fill-rule="evenodd" clip-rule="evenodd" fill="#ed6c22"/><path d="M48.1 22.14c-.01 0-.02-.01-.03-.01l.03-.05v-.01l-.02-.03c-.05.03-.15-.07-.19-.11l-.04.04v.01l-.01.01c.03-.15.05-.15.06-.15.02.01.03.01.13.01.18 0 .4-.01.43-.02-.01 0 .01-.02.19-.06l.43.28-.94.07c.01-.01-.04.02-.04.02m-.17-.24c.08.06.14.11.16.11.01.01.03.05.04.07l.95-.04-.43-.21c-.05.02-.13.04-.15.05-.02.03-.39.04-.46.04-.05-.02-.09-.02-.11-.02"/><path d="M49.01 22.08l-.76.02s-.19.17-.2.21c-.01.04.13.05.13.05l.04.14.1-.04s.65.1 1.24-.04c.3-.1.35-.23.14-.31-.22-.05-.68-.02-.69-.03" fill-rule="evenodd" clip-rule="evenodd" fill="#ed6c22"/><path d="M48.22 22.55h-.01c-.01 0-.01-.01-.02-.02l-.04-.14c-.01.02-.09.01-.12-.03 0-.09.14-.22.2-.27l.93-.03c.25 0 .43.02.54.06.1.04.15.08.15.14 0 .08-.1.16-.29.22-.21.05-.45.07-.71.07-.31 0-.54-.03-.54-.03l-.08.03h-.01m.08-.1c.02 0 .24.03.54.03.26 0 .49-.02.69-.07.18-.06.24-.13.24-.16s-.04-.06-.11-.08c-.1-.04-.28-.06-.52-.06l-.91.02c-.07.07-.16.17-.17.19.01 0 .05.01.1.02l.06.13.08-.02z"/><path d="M46.42 23.64l1.36-.06-.25-.22 3.69-.15-.13-.29-4.13.17.5.23-1.12.03.03.11-.29-.01c0 .01.32.13.34.19" fill="#fff"/><path d="M46.39 23.67l-.01-.02c-.02-.03-.18-.11-.32-.16l.31-.05-.06-.08 1.14-.07-.51-.17 4.14-.23.16.31-3.72.19.27.16-1.4.12zm4.67-.74l-4.1.18.51.17-1.13.09.06.08-.32.03c.14 0 .3.07.35.12l1.35-.06-.27-.16 3.71-.2-.16-.25z"/><path d="M47.95 16.1c-.11-.05-.59-.12-1.12.23l.02 1.23s.78-.42 1.16-.33c-.02-.38-.02-.87-.06-1.13m-7.55 3.72l-3.22 3.2 3.22-3.2zm1.43.02l-2.61 3.44 2.61-3.44zm-.11-.89l-3.48 4.22 3.48-4.22zm-3.59 4.16l.34-.4-.34.4zm4.25-2.04l-1.35 1.87 1.35-1.87zm-1.41 2.11l.04.71-.04-.71zM43 21.72l-1.43 1.8 1.43-1.8zm-.26 1.66l.58-.96-.58.96zm.23-1.15l-.7.79.7-.79zm-.21-.74l-.48.58.48-.58zm-.62-.85s-1.46 2.13-1.43 2.31l1.43-2.31zm-.15-.28c-.04.02-1.26 1.64-1.26 1.64l1.26-1.64zm-1.33 2.15l-.22.27.22-.27zm-.5.68l-.34.44.34-.44z" fill="#fff"/><path d="M41.04 23.89l-.09-.71h.06l.03.71zm.55-.35l1.39-1.83.05.04-1.44 1.79zm1.18-.15l-.05-.03.58-.96-.53.99zm-3.52-.09l2.56-3.48.05.04-2.61 3.44zm-.99-.11l3.44-4.26.05.04-3.49 4.22zm4.03-.14l.65-.83.05.04-.7.79zm-5.09-.01l3.18-3.24.04.04-3.22 3.2zm3.85-.09l1.3-1.9.05.04-1.35 1.86zm-.32-.01c-.08-.17 1.13-1.96 1.38-2.32l.05.04c-.56.81-1.44 2.16-1.43 2.28m1.57-.85l.43-.62.05.04-.48.58zm-1.55-.07c.32-.53 1.18-1.67 1.22-1.69l.03.05-.02-.03.02.03c-.04.04-.77 1-1.25 1.64m6.11-4.44l-.07-1.25c.59-.4 1.07-.3 1.16-.25l.02.02c.03.17.04.45.05.72 0 .14.01.28.02.41-.4-.06-1.17.35-1.18.35m.82-1.49c-.21 0-.51.06-.83.27l.04 1.2c.01-.05.75-.45 1.14-.35-.05-.1-.05-.24-.06-.38-.01-.26-.02-.53-.05-.7-.05-.03-.13-.04-.24-.04"/><path d="M40.24 14.91s-.1.31 0 .47c.1.15.72 1.41.72 1.41s.42-.52.58-.54c.15-.01.08 1.35.08 1.35s-.26.24-.41.23c-.16-.02.38.53.37 1-.01.47-.7 2.78-.96 2.82-.25.04.11-.42.1-.55-.01-.13-.08-.04-.14-.18-.06-.14.08-.35.06-.49-.03-.14-.16-.11-.17-.21-.01-.1.08-.13.07-.24-.01-.11-.17-.08-.15-.18.01-.1.03-.06.01-.24-.01-.18-.04.13-.2.14-.15.02-.28.37-.28.37s-.31.44-.62.24c.18.39.04.56-.03.58-.07.01.06.31-.11.32-.17.01.13.66-.07.72.21.1.04.22.04.22s-.49.04-.38.68c-1.44-.51-2.14-1.38-2.13-2.27.01-.89.3-1.69.99-1.99.2-.73.54-1.52.54-1.52s-.06-.32-.01-.54c.04-.21.24-.42.24-.42s-.03-.51-.01-.76.11-.37.13-.51c.01-.14-.04-.86.1-.99s.41-.11.55-.19c.14-.09.33-.24.51-.23.18.01.34.14.34.14s.69 0 .73.27c.04.27-.14.37-.14.37s.07.37-.35.72" fill-rule="evenodd" clip-rule="evenodd" fill="#899193"/><path d="M38.78 22.87l-.05-.02c-1.36-.48-2.17-1.34-2.15-2.3.02-1.03.37-1.75 1.01-2.02.18-.71.52-1.5.52-1.51 0 0-.06-.32-.02-.53.04-.21.23-.42.25-.44-.01 0-.04-.49-.02-.74.01-.16.05-.26.08-.35.02-.06.04-.11.05-.16v-.19c-.01-.38 0-.72.11-.82a.64.64 0 0 1 .33-.13c.08-.02.17-.04.22-.07l.09-.06c.12-.08.26-.17.41-.17.22.01.38.14.38.15.01 0 .7 0 .74.29.04.28-.14.39-.16.4.02 0 .1.38-.32.73.01 0-.08.29.01.43.1.15.7 1.36.72 1.41 0-.06.39-.54.55-.55.18.16.12 1.26.12 1.39-.02.03-.26.26-.43.26-.01.01.04.1.09.18.12.2.3.51.3.79-.01.43-.7 2.8-.98 2.85-.08.01-.1-.02-.11-.03-.04-.06.02-.18.09-.32.04-.08.09-.18.08-.22 0-.05-.01-.05-.04-.06-.03-.02-.07-.03-.1-.12-.04-.08-.01-.19.02-.29.02-.08.04-.15.03-.21-.01-.06-.05-.08-.08-.11-.04-.02-.08-.05-.08-.11-.01-.06.02-.1.04-.13s.04-.06.03-.11c-.01-.04-.03-.05-.07-.07-.04-.02-.09-.05-.08-.12.02-.09.02-.11.01-.23-.01.05-.06.16-.16.17-.11.01-.22.25-.26.35-.01.02-.38.43-.66.26.18.25.14.41.1.48a.2.2 0 0 1-.11.1V21c.01.09.01.23-.12.24-.04.04-.02.17 0 .28.03.2.07.4-.06.44.08-.02.12.02.13.07.01.08-.07.14-.08.15-.02.01-.18.02-.29.16-.09.11-.11.28-.08.49v.04zm.85-9.44c-.15 0-.28.09-.4.16l-.09.06c-.06.04-.15.06-.24.08-.11.02-.23.05-.3.12-.1.09-.09.53-.09.77v.2c-.01.06-.03.12-.05.18-.03.09-.07.18-.08.33-.01.25.01.76.01.76-.01.02-.2.23-.24.43-.04.2.01.52.01.53-.01.03-.34.81-.54 1.54-.84.37-.98 1.4-.99 1.98-.01.92.75 1.75 2.06 2.23-.03-.2.01-.37.1-.49.12-.16.31-.17.32-.17 0-.01.04-.05.04-.08-.01-.04-.05-.07-.09-.08.08-.08.05-.27.02-.42-.02-.14-.04-.27 0-.32.12-.04.13-.09.12-.21 0-.07-.01-.13.05-.15.01 0 .04-.02.06-.07.03-.06.06-.21-.06-.47.09-.01.14.01.2.01.23 0 .42-.28.43-.28.01-.03.13-.36.3-.38.07-.01.11-.09.13-.14l.08-.06.02.09c.01.13.01.15 0 .19-.01.08 0 .09.04.11.04.02.1.05.1.12.01.07-.02.11-.04.15a.14.14 0 0 0-.03.09c0 .03.02.04.06.07.04.02.1.06.11.15.02.07-.01.16-.03.24-.03.09-.05.18-.03.25.02.06.05.07.07.08.04.02.06.04.07.11.01.06-.04.15-.09.25-.05.09-.12.23-.09.27.26-.03.97-2.26.98-2.79.01-.26-.17-.56-.29-.76-.09-.15-.12-.21-.1-.25.18-.02.38-.18.44-.24.02-.59.01-1.26-.06-1.3-.1.01-.39.33-.55.52-.06-.02-.67-1.26-.77-1.41-.1-.17-.01-.48 0-.49.41-.35.33-.7.32-.72.02-.04.18-.13.14-.37-.03-.2-.52-.24-.7-.24-.01-.05-.16-.16-.33-.18z" fill="#2f2f2f"/><path d="M39.63 13.93c.02.04-.03.11-.11.16s-.17.05-.19.01c-.02-.04.03-.11.11-.16s.16-.05.19-.01" fill-rule="evenodd" clip-rule="evenodd" fill="#cccdcd"/><path d="M39.39 14.16h-.02l-.07-.04c-.03-.06.02-.14.13-.2.1-.05.2-.05.23 0 .03.06-.02.14-.12.2-.06.02-.11.04-.15.04" fill="#2f2f2f"/><path d="M39.51 14c0 .03-.02.05-.05.05-.03 0-.05-.02-.05-.05 0-.02.02-.05.05-.05.03.01.05.03.05.05" fill-rule="evenodd" clip-rule="evenodd"/><path d="M40.52 15.77c.17-.53.01-1.29 0-1.29l.03-.01c.01 0 .18.77-.03 1.3m.38-.64c.01-.54-.32-.98-.32-.99l.03-.02c0 .01.33.46.29 1.01m.01-.69c-.02-.15-.26-.37-.29-.38l.01-.03c.02 0 .12.1.12.1.07.08.17.21.16.31m.02-.24c-.07-.11-.25-.24-.25-.24l.02-.03c.01.01.19.13.23.27" fill="#2f2f2f"/><path d="M40.06 15.6c-.15-.66.49-1.7.52-1.75l.05.03c-.01.01-.65 1.07-.57 1.72"/><path d="M39.63 16.05c.13-1.68 1-2.22 1.01-2.22l.01.03c0-.01-.86.52-1.02 2.19" fill="#2f2f2f"/><path d="M39.3 16.14l-.03-.01c.02-.08.5-2.03 1.36-2.32-.83.32-1.32 2.31-1.33 2.33" fill="#2f2f2f"/><path d="M40.97 16.82s.46-.58.57-.56c.11.02.08 1.35.08 1.35s-.35.26-.42.25c-.08-.01.39.63.38.86-.01.24-.02.24-.02.24s0-.14-.11-.37c-.11-.23-.04-.48-.74-1.06-.17-.36.35.21.45.13s-.2-.83-.19-.84" fill-rule="evenodd" clip-rule="evenodd" fill="#2f2f2f"/><path d="M41.55 18.98c-.03-.03-.03-.17-.14-.38-.02-.05-.04-.1-.06-.16-.06-.2-.14-.45-.68-.89-.04-.08-.06-.14-.03-.16.04-.03.1.01.22.1.07.05.23.17.26.14.04-.03-.01-.26-.15-.69-.05-.13-.05-.14-.03-.15.14-.18.47-.59.6-.57.11.02.12.76.1 1.38-.09.09-.37.29-.45.28.03.01.09.11.14.19.12.21.28.49.27.64-.01.27-.02.27-.05.27m-.19-.73c.03.06.05.12.06.17.02.05.03.1.05.15.03.07.05.12.07.17v-.03c.01-.1-.09-.29-.18-.46m-.66-.8c.01.01.02.03.03.07.25.2.4.37.5.5-.07-.13-.08-.16-.07-.18.08-.01.27-.14.43-.26 0-.58-.01-1.24-.07-1.3-.05 0-.31.28-.53.54.01.02.02.05.04.1.14.42.22.69.13.75-.07.05-.2-.04-.34-.14-.03-.02-.09-.07-.12-.08m-.95-3.61c-.02 0-.03 0-.04-.01a.633.633 0 0 1-.18-.13c.07-.02.16.05.21.07.11-.03.15-.07.16-.11.03-.09.21-.14.24-.15l.02.06c-.08.02-.19.07-.2.11-.02.06-.08.11-.14.14-.03.02-.05.02-.07.02" fill="#2f2f2f"/><path d="M39.04 14.22s-.29.29-.15.33c.14.04.29-.23.29-.23s0 .45.12.38c.13-.07.49-.33.49-.33s.12-.01.15 0 .34.28.54.18c-.12.3-.25.34-.25.34s-.21.27-.49.21c-.27-.06-.35-.18-.35-.18s-.23.02-.3-.09c-.07-.11-.1-.17-.1-.17s-.13.13-.17.07c-.02-.05.02-.42.22-.51" fill-rule="evenodd" clip-rule="evenodd" fill="#2f2f2f"/><path d="M39.83 15.14c-.03 0-.06 0-.09-.01-.28-.06-.36-.18-.36-.19-.1.01-.24 0-.3-.09-.05-.08-.08-.13-.09-.16 0 .03-.07.09-.12.09-.08-.08-.07-.22-.04-.34.03-.09.09-.2.2-.25-.06.14-.16.27-.15.32.13.02.24-.14.27-.21.06.2.09.37.13.37.13-.07.49-.33.49-.33l.12-.01.1.03c.09.06.33.22.48.15-.08.35-.22.39-.23.39.01.02-.16.24-.41.24m-.85-.5c.05.01.08.07.15.17.04.07.18.08.24.08.06.01.13.12.39.18.24.05.46-.2.46-.2.02-.01.12-.04.22-.28-.01.01-.03.01-.05.01-.17 0-.35-.13-.42-.18l-.17-.02c0 .01-.35.25-.47.32h-.01c-.13 0-.15-.21-.16-.35-.03.08-.13.2-.23.2-.02 0-.04-.01-.05-.02-.01.08-.01.14 0 .15.01.03.07-.02.1-.06" fill="#2f2f2f"/><path d="M39.88 14.36c-.03 0-.05-.02-.06-.05-.03-.1.01-.24.12-.4.2-.28.74-.13.76-.12l-.02.06c-.01 0-.52-.15-.69.09-.14.2-.13.31-.11.35.01.02.03.04.05.05-.02.01-.03.02-.05.02" fill="#2f2f2f"/><path d="M40.78 13.8c0 .06-.05.12-.1.12s-.1-.05-.1-.12c0-.06.04-.11.1-.11s.1.05.1.11" fill-rule="evenodd" clip-rule="evenodd"/><path d="M39.21 15.18s.22.34.48.43c.26.09-.18.17-.45 0-.19-.26-.14-.44-.14-.44s.06-.06.11.01" fill-rule="evenodd" clip-rule="evenodd" fill="#2f2f2f"/><path d="M39.62 15.74c-.05 0-.24-.01-.39-.11-.2-.27-.15-.47-.15-.48l.01-.02.07-.02c.02 0 .05.01.08.05 0 0 .22.33.47.42.05.02.11.04.1.09-.02.07-.13.07-.19.07m-.45-.54c-.04 0-.07.17.1.4.13.08.3.09.35.09.08 0 .12-.01.12-.02-.33-.12-.55-.46-.57-.47.01 0 .01 0 0 0" fill="#2f2f2f"/><path d="M41.09 17.18s-.62-.86-.8-.91c-.18-.05.14-.08.33.1s-.05-.29-.05-.29l.52 1.1z" fill-rule="evenodd" clip-rule="evenodd" fill="#2f2f2f"/><path d="M41.07 17.2c-.24-.34-.66-.86-.78-.89l-.03-.01-.05-.05v-.03l.07-.01c.07 0 .23.03.35.14.02.05.02.01-.04-.13l-.06-.13c.05-.03.08.03.12.1l-.06.02c.13.15.13.19.11.21l.4.74-.03.04zm-.78-.93c.13.02.44.39.65.65l-.23-.49c-.05.01-.07 0-.1-.04a.53.53 0 0 0-.32-.12" fill="#2f2f2f"/><path d="M39.15 22.15c.24-.06 1.27.59 1.5.76.23.16.72.06.72.06s-.22.13-.36.17c-.14.03.42.03.42.03s-1.32.37-2.67-.34c-.13-.55.29-.68.39-.68" fill-rule="evenodd" clip-rule="evenodd" fill="#2f2f2f"/><path d="M40.57 23.29c-.65 0-1.28-.15-1.83-.44-.06-.24-.04-.42.06-.55.11-.15.28-.19.34-.19.37 0 1.39.67 1.52.77.08.06.21.09.37.09.17 0 .32-.03.33-.03.01.05-.15.16-.28.21.08-.01.22 0 .34-.01.01.06-.34.15-.85.15m-1.38-1.11a.48.48 0 0 0-.33.17c-.09.11-.11.28-.07.48.66.34 1.34.41 1.78.41.5 0 .84-.09.84-.09-.46.06-.46.04-.46.01.09-.04.19-.09.27-.13-.19.03-.46 0-.59-.08-.25-.2-1.17-.77-1.44-.77" fill="#2f2f2f"/><path d="M40.66 17.39s-.17-.03-.26-.14c-.09-.1-.22-.35-.35-.46-.13-.11-.79-.47-1.03-.44-.24.02-.31-.03-.34-.06-.03-.03-.13.01-.11.14.02.12-.18.39-.11.52.07.13.41.65.48.66.07.02.03.3.03.3s.3.3.38.32c.08.02.15.07.14.14-.01.07-.33.47-.33.47s-.35.18-.35.28c0 .1.08.32.36.38.28.07 1.02.01 1.06-.05.04-.06.1-.44.07-.48-.03-.04-.21-.15-.3-.14-.09.02-.18.09-.17.11.01.02-.13.09-.13.02s.28-.37.3-.35c.03.03.42.07.49.26.07.2.07.33.28.31.2-.02.49-.21.51-.6a.831.831 0 0 0-.29-.69c-.06-.04-.27-.16-.29-.22-.03-.04-.07-.23-.04-.28" fill-rule="evenodd" clip-rule="evenodd" fill="#2f2f2f"/><path d="M39.54 19.58c-.11 0-.28-.01-.38-.03-.27-.07-.39-.28-.38-.41.01-.11.28-.26.37-.31.15-.18.31-.4.32-.44.01-.05-.06-.1-.12-.11-.09-.02-.35-.28-.4-.34.01-.15.01-.28-.01-.29-.09-.02-.47-.63-.5-.68-.05-.09 0-.21.05-.33.03-.08.06-.15.06-.2a.18.18 0 0 1 .04-.14l.08-.04c.11.07.18.08.36.07.28-.02.92.34 1.05.45.09.07.17.19.24.31.04.06.08.12.11.16.08.09.24.13.25.13 0 .07.02.24.05.32.01.03.1.1.28.21.09.05.33.33.31.72-.03.42-.34.6-.54.63-.17 0-.23-.1-.28-.24l-.03-.1c-.05-.13-.28-.19-.39-.22-.06-.01-.08-.02-.09-.03-.02.02-.25.27-.25.32.03 0 .07-.02.08-.03.02-.05.1-.11.19-.13.13.03.3.11.33.15.04.06-.03.45-.07.51-.06.07-.52.09-.73.09m-.88-3.26c-.06.04-.06.07-.06.11.01.06-.02.14-.06.23-.04.1-.09.22-.05.28.08.15.4.62.46.65.08.02.07.22.05.33.14.12.31.28.35.29.09.02.18.09.17.18-.01.07-.26.39-.34.48-.17.09-.34.21-.34.26 0 .09.07.29.34.35.08.02.21.03.37.03.33 0 .63-.04.66-.07.03-.05.09-.4.07-.45a.488.488 0 0 0-.25-.12c-.09.01-.15.07-.16.08-.02.04-.09.08-.13.08h-.04l-.03-.06c0-.07.26-.38.33-.38l.09.03c.13.03.38.09.44.25l.03.1c.04.14.07.2.18.2a.59.59 0 0 0 .52-.57c.02-.36-.21-.62-.28-.66-.19-.11-.29-.19-.31-.24 0 0-.06-.23-.03-.31-.04.02-.17-.02-.25-.11-.03-.04-.07-.1-.12-.16-.07-.11-.15-.23-.23-.29-.13-.11-.74-.44-.98-.44-.07.01-.11.01-.14.01-.13-.01-.21-.03-.26-.08" fill="#2f2f2f"/><path d="M36.99 19.11s.66-.17.83-.16c.17 0 .81.3 1 .48.19.18.57.62.82.58.25-.04.32-.09.32-.09l-.1.18s-.2.06-.3.03c-.1-.03-.3-.09-.5-.28-.2-.19-.81-.72-1.33-.68-.52.04-.82.55-.82.55s0-.25.02-.3c.02-.06-.11.12-.11.12l.17-.43z" fill-rule="evenodd" clip-rule="evenodd" fill="#2f2f2f"/><path d="M39.62 20.17l-.07-.01c-.19-.05-.36-.14-.51-.29-.07-.07-.7-.67-1.26-.67-.55.04-.85.53-.85.54-.04-.03-.05-.15-.04-.24-.01.02-.03.04-.04.06l.13-.45c.05-.02.67-.18.85-.18.18.01.83.3 1.02.49l.08.09c.18.18.48.48.68.48.26-.04.34-.08.34-.08v.02c.01.01 0 .03-.01.04l-.04.17c-.04-.01-.17.03-.28.03m-1.9-1.03c.64 0 1.28.62 1.35.69.14.14.31.23.49.28l.06.01c.1 0 .23-.04.23-.04l.05-.11c-.05.02-.13.05-.26.07-.26.01-.56-.3-.76-.5l-.08-.08c-.18-.18-.81-.47-.98-.47-.18 0-.81.16-.82.16l-.1.24c.01-.01.01-.01.02-.01.01.08.01.21.01.31.04-.14.33-.52.79-.55z" fill="#2f2f2f"/><path d="M39.41 19.62s.16.05.44.05.42-.12.42-.12l-.02-.11.04-.15s.21.21.2.25c0 .04-.08.06-.08.06l-.03-.1-.07.09s-.39.31-.61.27c-.22-.05-.42-.18-.36-.22.05-.03.08-.02.07-.02" fill-rule="evenodd" clip-rule="evenodd" fill="#2f2f2f"/><path d="M39.75 19.9h-.05c-.18-.04-.38-.15-.39-.23.06-.07.09-.08.11-.08.04.01.19.05.45.05s.4-.11.4-.11l-.03-.08.04-.16c.2.13.27.23.26.26-.01.06-.09.08-.11.08l-.07-.12-.02.1c-.03.02-.36.29-.59.29m-.36-.26c-.03.05.13.15.31.19h.04c.21 0 .54-.26.54-.26l.07-.09.08.11c.02-.08-.08-.19-.17-.28l.02.23c-.02.03-.17.15-.45.15-.23.01-.42-.03-.44-.05" fill="#2f2f2f"/><path d="M38.46 20.18s-.24 0-.35.05c-.11.05-.14.11-.22.1-.07-.01-.13-.1-.11-.14.03-.06.17-.14.44-.11.27.02.24.1.24.1" fill-rule="evenodd" clip-rule="evenodd" fill="#2f2f2f"/><path d="M37.91 20.36h-.02c-.06-.01-.1-.06-.12-.09l-.01-.01v-.08c.03-.06.15-.13.38-.13h.09c.14.01.22.04.25.09l-.02.08c-.12 0-.26.01-.33.04-.04.02-.07.04-.09.06-.05.02-.08.04-.13.04m.23-.26c-.2 0-.3.06-.32.1.02.06.05.09.08.1h.01c.03 0 .05-.02.09-.04.03-.02.06-.04.1-.06.1-.05.28-.05.34-.05-.03 0-.07-.03-.22-.04l-.08-.01z" fill="#2f2f2f"/><path d="M39.29 20.82c0-.01-.02-.35-.15-.48a.383.383 0 0 0-.37-.12c-.07.02.27.17.3.26.03.1.14.37.11.44-.03.07-.08-.19-.29-.26-.21-.07-.49-.03-.43.06s.29.01.41.21c.12.2.21.41.21.41l.04-.14.11-.03.01-.28.05-.07z" fill-rule="evenodd" clip-rule="evenodd" fill="#2f2f2f"/><path d="M39.09 21.43l-.04-.08s-.09-.21-.21-.41c-.06-.1-.16-.12-.25-.14-.07-.01-.13-.02-.16-.07l-.01-.01.01-.05c.04-.07.19-.07.23-.07.08 0 .17.01.24.04.13.05.21.16.25.23.02 0-.05-.21-.09-.3l-.02-.07c-.01-.04-.12-.11-.19-.15-.09-.06-.13-.08-.12-.12.05-.04.08-.04.12-.04.07 0 .2.02.31.14.14.15.16.5.16.51l-.06.08-.01.26-.13.06-.03.19zm-.43-.78c-.11 0-.17.02-.18.04.02.04.07.04.12.05.09.02.22.04.29.17.07.13.14.25.17.33l.02-.06.13-.05-.01-.2c-.06.02-.07 0-.1-.04a.451.451 0 0 0-.22-.21.732.732 0 0 0-.22-.03m.17-.41c-.02 0 .02.03.06.05.11.07.19.13.21.18l.02.07c.05.13.09.24.1.32l.04-.06c-.01-.03-.04-.33-.15-.44-.1-.1-.21-.12-.27-.12h-.01" fill="#2f2f2f"/><path d="M39.12 21.91l-.22-.43s-.07-.27-.25-.35c-.18-.08-.42-.07-.43.03 0 .09.39.21.42.26.03.05.01.14-.02.14s-.21-.06-.3-.04c-.09.02-.14.14-.27.1-.13-.03-.24-.45-.19-.49.05-.04-.1.08-.13-.04-.03-.11.04-.45-.01-.5-.05-.04-.3-.19-.3-.22s.01-1.69 1.4-.32c-.59-.7-.83-.63-.94-.63-.08 0-.62.04-.75.73-.14.69-.3.26-.3.26s-.03.3.12.38c.14.08-.07.33-.07.33s-.26-.63-.22-.91c-.05.22-.05.77.28 1.36.38.4.74.77 1.7 1.2.5-.76.48-.86.48-.86" fill-rule="evenodd" clip-rule="evenodd" fill="#2f2f2f"/><path d="M38.64 22.81h-.01c-.97-.43-1.33-.8-1.71-1.2-.34-.62-.34-1.18-.29-1.39.02.27.28.89.28.9-.02-.05.07-.17.06-.25-.19-.14-.17-.44-.16-.46.08.04.12.1.15.1.01 0 .08-.02.15-.37.15-.77.76-.74.79-.76.23 0 .48.08.96.64-.59-.46-.95-.62-1.18-.38-.21.23-.21.7-.21.71.01.01.11.08.17.12.05.03.1.07.12.08.04.03.03.12.02.28-.01.09-.02.19 0 .24l.09.01c.02.08.04.21.09.35.04.08.08.14.12.15.08.01.12-.02.15-.05.03-.02.06-.04.1-.05.11 0 .18.02.23.03.07 0 .08-.05.06-.08a.578.578 0 0 0-.14-.07c-.17-.08-.28-.14-.28-.21 0-.11.27-.14.47-.06.19.08.26.36.27.37l.21.42c.01.1-.16.42-.48.9-.01.03-.02.03-.03.03m-2-2.36c.02.27.08.68.32 1.12.36.38.72.75 1.66 1.17.46-.7.46-.82.46-.83l-.21-.42c0-.01-.07-.27-.23-.34s-.38-.04-.39 0c0 .04.17.12.25.15.1.05.15.07.16.1.02.05.02.11 0 .15-.07.04-.09.03-.13.02-.05-.01-.12-.03-.17-.03-.06.01-.09.03-.11.05-.04.03-.09.06-.15.06-.17-.04-.24-.26-.27-.37-.02-.1-.02-.14-.01-.17-.01.02-.03.04-.03.04-.04 0-.07-.02-.09-.07-.02-.06-.01-.15 0-.26.01-.08.02-.2 0-.23a.884.884 0 0 1-.11-.08c-.17-.11-.2-.14-.2-.16-.01-.04.01-.51.22-.75.25-.29.67-.15 1.23.41-.57-.58-.81-.58-.9-.58-.08 0-.65.01-.79.71-.06.28-.12.41-.21.41-.05 0-.1-.05-.12-.1.03.09.05.24.13.29.04.02.06.05.06.09.02.12-.11.27-.12.29-.03 0-.19-.37-.25-.67" fill="#2f2f2f"/><path d="M38.21 21.91s.28.03.36.18c.08.14.11.36.11.36.05-.09.07-.17.16-.24.1-.07.16-.08.16-.13s-.3-.36-.44-.38c-.15-.02-.41.16-.41.16s-.05.07.06.05" fill-rule="evenodd" clip-rule="evenodd" fill="#899193"/><path d="M38.65 22.46c-.01-.01-.04-.22-.11-.36-.06-.11-.26-.15-.33-.16l-.1-.02.02-.07c.01-.01.24-.17.4-.17.18.02.49.33.5.41 0 .05-.04.08-.09.1-.02.01-.05.03-.08.05-.07.05-.09.1-.13.17 0 .01-.01.02-.02.03v.01h-.02c-.01 0-.03.01-.04.01m-.46-.57c.1 0 .33.04.4.18.05.09.08.2.1.28.03-.06.06-.12.13-.17.03-.02.07-.04.09-.06.04-.09-.23-.38-.36-.39-.16 0-.38.15-.38.15h.02z" fill="#2f2f2f"/><path d="M40.58 22.96c-1.07 0-1.73-.29-1.74-.3-.02-.01-.02-.02-.02-.04.01-.02.02-.02.04-.02.01 0 .73.33 1.91.35-.07.01-.13.01-.19.01" fill="#899193"/><path d="M40.77 21.09c.4-1.2.47-1.82.47-1.82 0-.02 0-.03.03-.03.02 0 .03.02.03.03 0 .01-.07.63-.53 1.82" fill="#2f2f2f"/><path d="M40.67 20.44c.34-.36.48-.79.48-.8l.06.02c-.01.02-.15.45-.54.78" fill="#2f2f2f"/></svg>