<svg xmlns="http://www.w3.org/2000/svg" viewBox="0 0 58.93 34.37"><path fill="#92c5e0" d="M0 0h19.64v34.37H0z"/><path fill="#fff" d="M19.64 0h19.64v34.37H19.64z"/><path fill="#92c5e0" d="M39.28 0h19.64v34.37H39.28z"/><path d="M30.09 23.28a.693.693 0 0 0-.25-.2c-.58-.3-1.15-.44-1.8-.54-.15-.03-.3-.17-.45-.24-.37-.18-.78-.24-1.14-.42a.656.656 0 0 1-.16-.12c-.14-.17-.4-.21-.56-.37-.62-.59-1.28-1.13-1.63-1.91-.42-.95-.93-1.92-.86-3 .04-.68-.06-1.37.11-2.02.25-.96.57-1.92 1.15-2.71l-.1.06c-.59.8-.91 1.75-1.15 2.71-.17.65-.07 1.34-.11 2.02-.07 1.08.45 2.05.86 3.01.34.78 1.01 1.31 1.63 1.91.16.15.42.2.56.37.04.05.14.1.16.11.36.18.77.25 1.14.42.15.08.31.21.46.24.65.11 1.22.24 1.8.54.09.05.19.11.24.2l.1-.06z" fill="#3e9a13"/><path d="M29.98 23.35a.533.533 0 0 0-.25-.2c-.62-.32-1.23-.45-1.8-.54-.1-.02-.2-.08-.29-.14-.05-.04-.11-.07-.16-.1-.18-.08-.36-.14-.55-.2-.2-.06-.41-.13-.59-.22a.656.656 0 0 1-.16-.12.877.877 0 0 0-.3-.2c-.09-.05-.19-.1-.26-.17l-.28-.26c-.52-.49-1.06-.99-1.35-1.65l-.16-.36c-.38-.84-.77-1.71-.7-2.65.02-.24.01-.48.01-.72 0-.43-.01-.88.1-1.3.22-.87.54-1.88 1.16-2.71l.1-.06c-.6.85-.91 1.85-1.13 2.72-.11.42-.1.86-.1 1.29 0 .24.01.48-.01.72-.06.94.33 1.81.71 2.65l.16.34c.3.67.82 1.16 1.37 1.67l.25.23c.07.07.17.12.27.17.11.06.22.11.3.2.04.05.13.1.15.11.18.09.39.16.58.22.19.06.38.12.56.21.06.03.12.06.18.1.09.06.18.12.27.14.67.11 1.23.24 1.8.54.09.05.19.11.25.2l-.13.09zm-5.49-11.61l-.08.08c-.61.83-.92 1.83-1.15 2.7-.11.42-.1.87-.1 1.3 0 .24.01.48-.01.72-.06.94.33 1.81.7 2.64l.16.36c.29.66.8 1.14 1.35 1.64l.28.26c.07.07.17.12.26.16.11.06.22.11.3.21.04.04.13.1.15.11.19.09.39.16.59.22.19.06.37.12.55.2.06.03.11.06.17.1.09.06.19.12.29.14.57.09 1.18.22 1.8.54.09.05.18.1.24.19l.09-.06a.722.722 0 0 0-.24-.18c-.57-.3-1.13-.43-1.8-.54a.918.918 0 0 1-.28-.14c-.06-.04-.12-.07-.17-.1-.18-.09-.37-.15-.56-.21-.2-.06-.4-.13-.58-.22a.656.656 0 0 1-.16-.12c-.08-.09-.18-.14-.29-.2-.1-.05-.2-.1-.27-.17l-.25-.23c-.53-.49-1.08-1-1.38-1.68l-.16-.35c-.38-.84-.77-1.71-.71-2.66.02-.24.01-.48.01-.72 0-.43-.01-.88.1-1.3.22-.85.53-1.85 1.15-2.69"/><path d="M30.01 23.32c-.1-.06-.19-.11-.28-.16-.61-.32-1.23-.44-1.79-.54-.1-.02-.2-.08-.3-.15a.647.647 0 0 0-.16-.09c-.18-.08-.36-.14-.55-.2-.2-.06-.41-.13-.6-.22a.656.656 0 0 1-.16-.12c-.08-.09-.18-.14-.29-.2-.1-.05-.19-.1-.27-.17l-.28-.26c-.52-.49-1.06-.99-1.35-1.66l-.16-.36c-.38-.84-.77-1.71-.71-2.66.02-.24.01-.48.01-.72 0-.43-.01-.88.1-1.3.22-.88.54-1.88 1.16-2.72l.04.03c-.61.83-.92 1.83-1.15 2.7-.11.42-.1.86-.1 1.29 0 .24 0 .48-.01.72-.06.94.33 1.8.7 2.64l.16.36c.29.66.8 1.13 1.34 1.64l.28.26c.07.07.17.12.26.16.11.06.23.12.31.21.04.04.13.1.15.11.19.09.39.16.59.22.19.06.38.12.55.2.06.03.11.06.17.1.1.06.19.12.28.14.57.09 1.19.22 1.81.55.09.05.18.11.25.2" fill="#ba0027"/><path d="M27.86 22.56c-.63.03-1.84.83-1.95 1.02 1.34.01 2.14-.66 1.95-1.02" fill="#3e9a13"/><path d="M27.17 22.23c-.63.03-1.84.83-1.95 1.02 1.34 0 2.14-.66 1.95-1.02M28.17 22.57c-.03-.65-.8-1.89-.98-2.01-.01 1.39.63 2.21.98 2.01" fill="#3e9a13"/><path d="M27.65 22.32c-.08-.65-.96-1.82-1.15-1.91.1 1.38.82 2.14 1.15 1.91M26.57 21.86c.07-.58-.42-1.81-.57-1.94-.21 1.23.23 2.06.57 1.94M26.19 21.82c-.59-.25-2.01-.05-2.18.07 1.21.59 2.2.34 2.18-.07" fill="#3e9a13"/><path d="M25.64 21.5c-.51-.4-1.93-.58-2.13-.52 1.02.9 2.05.92 2.13.52M25.75 21.26c.17-.56-.11-1.86-.23-2.01-.43 1.17-.13 2.07.23 2.01" fill="#3e9a13"/><path d="M25.2 20.82c.15-.51-.1-1.67-.21-1.81-.38 1.05-.12 1.86.21 1.81" fill="#3e9a13"/><path d="M25.05 20.96c-.29-.58-1.51-1.37-1.72-1.39.56 1.26 1.48 1.72 1.72 1.39M24.63 20.15c.23-.47.18-1.67.1-1.82-.55.97-.42 1.81-.1 1.82M24.17 19.4c.26-.52.2-1.85.11-2.02-.61 1.08-.47 2.02-.11 2.02" fill="#3e9a13"/><path d="M24.04 19.58c-.38-.35-1.51-.61-1.68-.57.76.81 1.58.9 1.68.57M23.76 18.63c.31-.5.36-1.82.28-2-.7 1.01-.64 1.96-.28 2M23.34 17.06c.41-.32.85-1.43.84-1.61-.9.64-1.13 1.46-.84 1.61M23.25 17.49c-.24-.47-1.22-1.11-1.39-1.13.46 1.02 1.2 1.4 1.39 1.13" fill="#3e9a13"/><path d="M23.17 16.57c-.07-.52-.78-1.47-.93-1.55.09 1.12.66 1.74.93 1.55M23.26 15.11c.46-.06 1.28-.72 1.35-.86-.98.07-1.51.61-1.35.86M23.42 14.05c.06-.52-.39-1.63-.51-1.75-.2 1.11.21 1.86.51 1.75" fill="#3e9a13"/><path d="M23.4 14.54c.55-.13 1.49-1.02 1.55-1.2-1.18.2-1.78.91-1.55 1.2" fill="#3e9a13"/><path d="M23.5 13.91c.52-.22 1.3-1.27 1.33-1.46-1.12.41-1.59 1.21-1.33 1.46M23.7 12.85c.23-.47.18-1.66.1-1.82-.56.97-.43 1.82-.1 1.82" fill="#3e9a13"/><path d="M24.14 12.16c.19-.38.15-1.35.08-1.47-.45.79-.34 1.46-.08 1.47M24.29 12.58c.54-.18 1.4-1.15 1.45-1.34-1.16.31-1.7 1.07-1.45 1.34" fill="#3e9a13"/><path d="M24.49 11.83c.33-.26.69-1.16.68-1.3-.73.52-.91 1.18-.68 1.3M26.64 22.04c-.63.03-1.84.83-1.95 1.02 1.35.01 2.15-.66 1.95-1.02M23.19 16.35c-.05.05.43-.44.59-1.44-.83.72-.89 1.32-.59 1.44M23.81 18.97c-.29-.58-1.5-1.37-1.72-1.39.56 1.26 1.48 1.72 1.72 1.39M23.25 14.98c-.08-.6-.69-1.43-.93-1.55.09 1.12.66 1.73.93 1.55M26.57 21.86c-.34.12-.78-.7-.56-1.93.2 1.04.45 1.87.56 1.93" fill="#3e9a13"/><path d="M26.5 21.88c-.08 0-.17-.05-.25-.14-.24-.28-.4-.95-.25-1.81.23 1.08.48 1.87.58 1.93l.03.02h-.11zm-.51-1.95c-.13.85.03 1.52.27 1.79.08.09.16.14.24.14v.01l.06-.02c-.11-.05-.36-.92-.57-1.92"/><path d="M27.84 22.56c.19.36-.6 1.02-1.94 1.01 1.06-.44 1.89-.88 1.94-1.01" fill="#3e9a13"/><path d="M25.93 23.58h-.03.01l.03-.02h.02c1.07-.46 1.84-.89 1.89-1 .07.09.05.2-.02.32-.22.33-.9.7-1.9.7m1.9-1.02c-.03.14-.88.58-1.88.99.98-.01 1.65-.36 1.85-.69.06-.11.07-.21.03-.3"/><path d="M27.15 22.22c.19.36-.59 1.02-1.94 1.01 1.06-.43 1.89-.88 1.94-1.01" fill="#3e9a13"/><path d="M25.24 23.25h-.03.01l.03-.02h.01c1.07-.46 1.84-.89 1.89-1 .07.09.06.2-.02.32-.21.33-.89.7-1.89.7m1.9-1.02c-.03.14-.88.58-1.88.99.99-.01 1.65-.36 1.85-.69.07-.11.08-.21.03-.3"/><path d="M28.16 22.56c-.35.2-.99-.62-.98-2 .43 1.1.86 1.95.98 2" fill="#3e9a13"/><path d="M28.05 22.6c-.1 0-.21-.06-.31-.17-.26-.26-.57-.91-.56-1.88.45 1.13.87 1.95.99 1.99a.14.14 0 0 1-.12.06m-.87-2.04c.01.95.31 1.6.57 1.86.15.15.3.19.41.13-.14-.03-.58-.94-.98-1.99"/><path d="M27.64 22.31c-.34.23-1.04-.52-1.14-1.91.51 1.06 1.01 1.87 1.14 1.91" fill="#3e9a13"/><path d="M27.51 22.36c-.36 0-.92-.7-1.02-1.95.55 1.09 1.04 1.86 1.16 1.9-.04.04-.09.05-.14.05m-1.02-1.95c.13 1.35.82 2.11 1.15 1.89-.14-.02-.66-.88-1.15-1.89"/><path d="M26.19 21.81c.02.41-.95.66-2.17.07 1.15.07 2.08.03 2.17-.07" fill="#3e9a13"/><path d="M25.38 22.24c-.29 0-.77-.06-1.37-.35.4 0 .77.01 1.09.01.6 0 1.02-.04 1.08-.1.02.08-.01.15-.06.22-.13.14-.4.22-.74.22m-1.36-.35c.6.27 1.07.33 1.36.33.33 0 .59-.08.72-.21a.27.27 0 0 0 .08-.2c-.05.07-.46.11-1.08.11-.32 0-.69-.01-1.08-.03"/><path d="M25.62 21.49c-.08.4-1.09.39-2.12-.52 1.09.38 2 .59 2.12.52" fill="#3e9a13"/><path d="M25.15 21.75c-.49 0-1.1-.29-1.65-.77 1.01.33 1.79.51 2.04.51.05 0 .07-.01.08-.01-.02.18-.2.27-.47.27m-1.65-.77c.55.46 1.17.75 1.65.75.26 0 .43-.09.46-.24-.01.02-.03.02-.07.02-.29 0-1.15-.22-2.04-.53"/><path d="M25.75 21.26c-.36.05-.65-.84-.23-2.01.02 1.06.13 1.92.23 2.01" fill="#3e9a13"/><path d="M25.71 21.27c-.08 0-.17-.05-.23-.15-.21-.3-.29-1.01.03-1.87.04 1.1.16 1.93.24 2l-.04.02zm-.2-2.02c-.3.86-.22 1.56-.01 1.86.06.09.14.14.22.14v.01l.03-.01c-.11-.08-.22-.98-.24-2"/><path d="M25.19 20.81c-.32.05-.58-.75-.21-1.81.03.96.13 1.74.21 1.81" fill="#3e9a13"/><path d="M25.16 20.82c-.08 0-.15-.05-.21-.13-.19-.26-.26-.91.02-1.69.04.99.14 1.73.22 1.8l-.03.02zM24.97 19c-.26.78-.19 1.42-.01 1.68.06.08.12.13.19.13v.01l.03-.01c-.09-.07-.18-.89-.21-1.81"/><path d="M25.03 20.97c-.24.33-1.15-.13-1.71-1.39.83.81 1.58 1.39 1.71 1.39" fill="#3e9a13"/><path d="M24.8 21.08c-.4 0-1.06-.53-1.49-1.5.86.81 1.58 1.38 1.71 1.38-.03.08-.12.12-.22.12m-1.48-1.5c.55 1.19 1.47 1.71 1.7 1.38-.14.03-.93-.62-1.7-1.38"/><path d="M24.63 20.15c-.32-.01-.45-.85.1-1.81-.14.94-.17 1.72-.1 1.81" fill="#3e9a13"/><path d="M24.64 20.16h-.02c-.08 0-.15-.05-.2-.14-.16-.29-.12-.97.29-1.68-.12.99-.15 1.73-.09 1.81l.02.01zm.08-1.83c-.39.72-.44 1.38-.28 1.67.04.08.1.12.17.13-.06-.14-.01-.92.11-1.8"/><path d="M24.17 19.4c-.36-.01-.5-.94.11-2.01-.15 1.05-.19 1.91-.11 2.01" fill="#3e9a13"/><path d="M24.18 19.41h-.02c-.09 0-.16-.06-.22-.16-.18-.32-.13-1.07.32-1.87-.14 1.1-.17 1.92-.1 2.01l.02.02zm.09-2.02c-.44.8-.49 1.54-.31 1.86.05.09.12.14.19.15-.07-.16-.02-1.04.12-2.01"/><path d="M24.02 19.58c-.09.32-.91.23-1.67-.57.85.38 1.58.62 1.67.57" fill="#3e9a13"/><path d="M23.7 19.76c-.31 0-.83-.19-1.35-.74.82.35 1.47.56 1.64.56-.23 0-.86-.21-1.64-.56.76.76 1.45.83 1.63.63-.04.07-.14.11-.28.11"/><path d="M23.75 18.62c-.36-.04-.42-.98.28-2-.23 1.04-.34 1.9-.28 2" fill="#3e9a13"/><path d="M23.77 18.63h-.02c-.09-.01-.16-.07-.2-.18-.15-.34-.04-1.08.48-1.84-.23 1.08-.33 1.9-.27 2l.01.02zm.26-2.01c-.5.76-.62 1.49-.47 1.82.04.09.1.15.18.16-.06-.15.07-1.02.29-1.98"/><path d="M23.34 17.06c-.29-.15-.06-.96.83-1.6-.5.8-.85 1.49-.83 1.6" fill="#3e9a13"/><path d="M23.35 17.07l-.02-.01c-.07-.04-.11-.11-.12-.22-.02-.34.3-.93.96-1.4-.51.83-.85 1.5-.82 1.61v.02zm.82-1.62c-.64.48-.96 1.06-.94 1.39.01.09.04.16.1.2.01-.15.38-.86.84-1.59"/><path d="M23.24 17.48c-.19.27-.93-.1-1.39-1.13.68.66 1.28 1.14 1.39 1.13" fill="#3e9a13"/><path d="M23.06 17.57c-.32 0-.86-.42-1.21-1.21.71.66 1.28 1.11 1.39 1.11-.03.08-.1.1-.18.1m-1.21-1.2c.45.96 1.19 1.38 1.38 1.11-.11 0-.74-.49-1.38-1.11"/><path d="M23.16 16.57c-.27.19-.84-.42-.92-1.55.41.86.82 1.52.92 1.55" fill="#3e9a13"/><path d="M23.05 16.61c-.29 0-.75-.61-.82-1.59.44.88.84 1.51.93 1.54-.03.04-.06.05-.11.05m-.82-1.58c.1 1.1.67 1.71.92 1.54-.11-.03-.52-.73-.92-1.54"/><path d="M23.25 15.11c-.16-.25.37-.78 1.35-.86-.91.47-1.29.65-1.35.86" fill="#3e9a13"/><path d="M23.25 15.13l-.01-.02c-.04-.06-.04-.14 0-.23.13-.27.64-.58 1.35-.64l-.23.14c-.75.38-1.05.54-1.11.73v.02zm1.34-.89c-.7.07-1.2.38-1.33.64-.04.08-.04.15-.01.2.07-.19.38-.35 1.11-.72l.23-.12z"/><path d="M23.42 14.04c-.31.11-.71-.63-.51-1.74.18.94.41 1.69.51 1.74" fill="#3e9a13"/><path d="M23.36 14.06c-.08 0-.16-.05-.23-.13-.21-.25-.36-.85-.22-1.63.21.97.43 1.68.52 1.73l-.07.03zm-.46-1.75c-.12.77.03 1.36.24 1.61.07.08.14.13.22.13v.01l.06-.02c-.11-.05-.34-.83-.52-1.73"/><path d="M23.39 14.54c-.22-.29.37-.99 1.55-1.19-.87.55-1.53 1.07-1.55 1.19" fill="#3e9a13"/><path d="M23.4 14.56l-.01-.02c-.06-.07-.06-.17-.02-.29.13-.34.72-.77 1.58-.92-.88.58-1.52 1.09-1.54 1.2l-.01.03zm1.54-1.22c-.85.16-1.43.58-1.56.92-.04.1-.04.19.01.26.07-.15.76-.68 1.55-1.18"/><path d="M23.5 13.91c-.27-.24.2-1.04 1.33-1.45-.76.69-1.33 1.33-1.33 1.45" fill="#3e9a13"/><path d="M23.51 13.93l-.01-.01c-.07-.06-.09-.16-.07-.28.07-.37.58-.89 1.4-1.19-.77.73-1.31 1.35-1.32 1.47v.01zm1.31-1.49c-.81.31-1.31.84-1.38 1.2-.02.11 0 .19.05.25.05-.17.64-.81 1.33-1.45"/><path d="M23.69 12.85c-.32-.01-.45-.84.1-1.81-.13.95-.17 1.72-.1 1.81" fill="#3e9a13"/><path d="M23.71 12.86h-.02c-.08 0-.15-.05-.2-.14-.17-.29-.12-.97.29-1.69-.12.99-.15 1.73-.09 1.81l.02.02zm.07-1.82c-.39.72-.44 1.39-.28 1.68.04.08.1.12.17.13-.06-.15-.01-.94.11-1.81"/><path d="M24.13 12.16c-.26-.01-.36-.68.08-1.47-.1.77-.13 1.4-.08 1.47" fill="#3e9a13"/><path d="M24.15 12.17h-.02c-.06 0-.12-.04-.16-.12-.13-.24-.09-.78.24-1.36-.1.79-.12 1.4-.07 1.47l.01.01zm.06-1.48c-.31.58-.35 1.12-.22 1.35.03.06.08.1.13.11-.05-.13-.01-.77.09-1.46"/><path d="M24.29 12.58c-.25-.27.28-1.02 1.44-1.33-.82.63-1.43 1.21-1.44 1.33" fill="#3e9a13"/><path d="M24.29 12.6l-.01-.01c-.06-.07-.08-.17-.05-.28.1-.36.65-.84 1.49-1.06-.84.67-1.42 1.22-1.43 1.34v.01zm1.44-1.36c-.83.24-1.37.71-1.47 1.06-.03.1-.02.19.03.25.05-.15.68-.73 1.44-1.31"/><path d="M24.49 11.83c-.23-.12-.05-.78.67-1.29-.41.64-.69 1.2-.67 1.29" fill="#3e9a13"/><path d="M24.5 11.84l-.02-.01c-.06-.03-.1-.09-.1-.18-.02-.27.24-.75.77-1.13-.41.67-.68 1.22-.66 1.3l.01.02zm.66-1.31c-.52.39-.77.85-.76 1.12.01.08.03.13.08.16.01-.13.31-.7.68-1.28"/><path d="M26.63 22.04c.19.36-.59 1.02-1.94 1.01 1.06-.44 1.89-.88 1.94-1.01" fill="#3e9a13"/><path d="M24.72 23.06h-.03s.01 0 .01-.01l.03-.02h.01c1.08-.46 1.84-.88 1.88-1 .07.09.06.2-.01.32-.21.34-.89.71-1.89.71m1.9-1.01c-.03.14-.88.58-1.88.99.94-.01 1.64-.35 1.85-.69.06-.12.07-.22.03-.3"/><path d="M23.19 16.35c-.3-.12-.25-.72.6-1.44-.44.85-.64 1.34-.6 1.44" fill="#3e9a13"/><path d="M23.2 16.37l-.02-.01a.28.28 0 0 1-.17-.22c-.04-.25.14-.7.76-1.23-.4.8-.62 1.33-.58 1.44l.01.02zm.58-1.46c-.6.54-.78.98-.74 1.23.02.09.07.17.14.2-.02-.15.2-.66.6-1.43"/><path d="M23.79 18.98c-.24.33-1.15-.13-1.71-1.39.84.81 1.58 1.39 1.71 1.39" fill="#3e9a13"/><path d="M23.56 19.09c-.4 0-1.06-.53-1.49-1.5.87.82 1.58 1.38 1.71 1.38-.03.08-.11.12-.22.12m-1.48-1.5c.55 1.19 1.47 1.71 1.7 1.38-.13.03-.91-.61-1.7-1.38"/><path d="M23.28 15.12c-.35.24-.87-.56-.96-1.66.42.85.86 1.63.96 1.66" fill="#3e9a13"/><path d="M23.15 15.17c-.33 0-.75-.7-.83-1.71.45.9.87 1.62.97 1.65-.04.04-.09.06-.14.06m-.83-1.71c.11 1.1.64 1.87.96 1.65-.11-.02-.57-.85-.96-1.65M23.2 16.37a.288.288 0 0 1-.18-.23c-.04-.25.14-.7.76-1.23.04.12-.17 1.07-.58 1.46zm.58-1.45c-.59.53-.77.97-.73 1.21.02.1.07.17.15.21.39-.38.59-1.31.58-1.42M25.94 23.58h-.04c.07-.16 1.29-1.01 1.95-1.04.06.1.05.21-.02.33-.21.36-.93.71-1.89.71m1.9-1.02c-.67.04-1.86.91-1.93 1.01l.02-.02c.95 0 1.66-.35 1.87-.7.07-.1.08-.2.04-.29"/><path d="M25.25 23.25h-.03c.07-.15 1.28-1.01 1.95-1.04.06.1.05.21-.02.33-.22.35-.94.71-1.9.71m1.9-1.02c-.67.04-1.86.91-1.93 1.01l.02-.02c.95 0 1.66-.35 1.87-.7.07-.1.08-.2.04-.29M28.06 22.6c-.1 0-.21-.06-.32-.17-.26-.27-.57-.92-.57-1.88.15.07.98 1.32 1.01 2.01-.04.03-.08.04-.12.04m-.88-2.04c.01.95.32 1.59.58 1.86.1.11.21.16.3.16.04 0 .07-.01.1-.03-.03-.7-.88-1.93-.98-1.99"/><path d="M27.52 22.37c-.37 0-.94-.75-1.03-1.96.16.06 1.09 1.23 1.18 1.91-.05.03-.1.05-.15.05m-1.03-1.96c.11 1.19.67 1.93 1.03 1.93.05 0 .09-.01.13-.04-.1-.68-1.05-1.84-1.16-1.89M26.51 21.88c-.09 0-.18-.05-.26-.15-.24-.29-.41-.96-.25-1.82.1.07.67 1.31.59 1.94v.01l-.08.02zM26 19.93c-.13.84.04 1.51.27 1.79.08.09.16.14.24.14v.01l.06-.02c.07-.62-.49-1.85-.57-1.92M25.37 22.24c-.3 0-.78-.06-1.37-.35.08-.08.76-.21 1.4-.21.35 0 .61.04.8.12.01.09-.02.16-.08.22-.14.14-.41.22-.75.22m.02-.53c-.62 0-1.31.13-1.38.18.59.27 1.07.33 1.36.33.33 0 .6-.08.73-.22a.25.25 0 0 0 .08-.19c-.18-.07-.44-.1-.79-.1"/><path d="M25.17 21.75c-.49 0-1.11-.29-1.66-.77.02-.03.06-.03.11-.03.39 0 1.56.16 2.03.53-.03.18-.21.27-.48.27m-1.55-.77c-.07 0-.09.01-.1.01.55.46 1.16.74 1.65.74.26 0 .43-.09.46-.24-.46-.36-1.62-.51-2.01-.51M25.72 21.27c-.09 0-.17-.05-.24-.15-.21-.3-.29-1.01.02-1.89.11.11.43 1.44.25 2.03l-.03.01zm-.21-2.02c-.29.86-.21 1.57-.01 1.86.06.09.14.14.22.14v.01l.03-.02c.17-.59-.17-1.91-.24-1.99"/><path d="M25.17 20.83c-.08 0-.15-.05-.21-.14-.19-.27-.26-.91.02-1.7.1.1.39 1.3.23 1.82l-.04.02zM24.98 19c-.26.77-.19 1.41 0 1.67.06.08.12.13.19.13v.01l.03-.01c.15-.53-.16-1.72-.22-1.8M24.82 21.09c-.4 0-1.07-.53-1.5-1.51.16 0 1.42.77 1.74 1.39-.05.08-.13.12-.24.12m-1.49-1.5c.44.95 1.09 1.48 1.49 1.48.1 0 .17-.04.22-.1-.31-.61-1.59-1.37-1.71-1.38"/><path d="M24.64 20.16c-.09 0-.16-.05-.21-.14-.17-.3-.12-.98.29-1.7.09.11.18 1.33-.08 1.84zm.08-1.83c-.38.71-.43 1.38-.27 1.67.05.08.1.13.17.13.25-.49.16-1.69.1-1.8M24.18 19.41c-.1 0-.17-.06-.23-.16-.18-.33-.13-1.08.32-1.89.09.13.2 1.48-.09 2.05zm.09-2.03c-.43.79-.48 1.54-.3 1.86.05.09.12.14.19.15.28-.57.16-1.91.11-2.01M23.72 19.76c-.31 0-.84-.19-1.36-.75.24-.02 1.31.19 1.7.55-.04.14-.16.2-.34.2m-1.33-.74c.5.53 1.03.72 1.33.72.17 0 .29-.06.32-.16-.38-.35-1.43-.56-1.65-.56"/><path d="M23.77 18.64c-.1-.01-.17-.07-.22-.18-.16-.35-.04-1.09.48-1.85.08.13.07 1.49-.26 2.03zm.26-2.02c-.49.75-.61 1.49-.46 1.83.04.09.1.15.18.16.32-.53.33-1.87.28-1.99M23.35 17.07c-.08-.04-.12-.12-.13-.23-.02-.34.3-.94.96-1.41.02.12-.38 1.29-.83 1.64zm.82-1.62c-.64.48-.95 1.06-.93 1.39.01.09.04.16.1.2.44-.35.84-1.49.83-1.59M23.08 17.58c-.33 0-.87-.43-1.22-1.22.15 0 1.16.62 1.41 1.12-.04.07-.11.1-.19.1m-1.21-1.21c.36.76.89 1.19 1.21 1.19.08 0 .14-.03.17-.08-.26-.5-1.29-1.1-1.38-1.11M23.08 16.62c-.3 0-.76-.61-.84-1.6.13.04.89 1 .96 1.55-.04.04-.08.05-.12.05m-.84-1.59c.09.96.54 1.56.83 1.56.04 0 .07-.01.1-.03-.07-.55-.84-1.48-.93-1.53M23.25 15.12c-.05-.07-.05-.15 0-.24.13-.28.65-.59 1.36-.65-.03.12-.85.82-1.36.89zm1.35-.88c-.69.08-1.2.38-1.33.65-.04.08-.04.15-.01.21.5-.08 1.31-.78 1.34-.86M23.38 14.08c-.08 0-.16-.04-.23-.14-.22-.26-.37-.86-.23-1.64.12.08.61 1.2.54 1.75v.01l-.08.02zm-.47-1.76c-.12.76.04 1.36.25 1.61.07.08.14.13.21.13v.01l.05-.02c.07-.56-.44-1.67-.51-1.73"/><path d="M23.4 14.55c-.06-.08-.07-.18-.03-.3.13-.35.72-.78 1.58-.93-.03.15-.96 1.09-1.55 1.23zm1.55-1.22c-.84.16-1.42.59-1.55.93-.04.1-.03.19.01.26.58-.14 1.5-1.09 1.54-1.19"/><path d="M23.51 13.92c-.08-.07-.1-.17-.07-.29.07-.37.58-.9 1.4-1.2-.01.16-.77 1.25-1.33 1.49zm1.32-1.48c-.8.31-1.3.84-1.37 1.2-.02.11 0 .2.05.25.56-.24 1.3-1.34 1.32-1.45M23.71 12.88c-.09 0-.16-.05-.21-.14-.17-.29-.12-.97.29-1.7.09.11.17 1.33-.08 1.84zm.08-1.83c-.39.72-.43 1.38-.27 1.67.04.08.1.12.17.13.26-.51.15-1.72.1-1.8"/><path d="M24.15 12.18c-.07 0-.13-.04-.17-.12-.14-.24-.1-.79.23-1.38.07.09.15 1.09-.06 1.5zm.07-1.48c-.31.58-.35 1.12-.21 1.36.04.06.08.1.13.1.2-.41.11-1.39.08-1.46M24.29 12.6c-.07-.08-.08-.18-.05-.3.11-.36.66-.84 1.5-1.07-.01.12-.86 1.17-1.45 1.37zm1.45-1.36c-.82.24-1.37.72-1.47 1.07-.03.11-.02.2.03.26.57-.2 1.41-1.23 1.44-1.33"/><path d="M24.5 11.85c-.07-.04-.1-.1-.11-.19-.02-.28.24-.76.78-1.14.03.12-.32 1.05-.67 1.33zm.66-1.32c-.51.39-.77.86-.75 1.13.01.08.03.13.08.16.36-.29.68-1.21.67-1.29M24.72 23.07h-.03c.07-.16 1.29-1.01 1.95-1.04.06.1.05.21-.02.33-.21.34-.89.71-1.9.71m1.91-1.03c-.67.04-1.87.91-1.93 1.02l.02-.02c.95 0 1.66-.35 1.87-.7.07-.11.08-.21.04-.3M23.58 19.09c-.4 0-1.07-.53-1.5-1.51.16 0 1.43.76 1.74 1.39-.05.08-.13.12-.24.12m-1.49-1.5c.44.95 1.09 1.47 1.49 1.47.1 0 .17-.03.22-.1-.31-.59-1.59-1.35-1.71-1.37M23.15 15.15c-.29 0-.74-.53-.83-1.71.32.14.86.95.95 1.66-.04.04-.08.05-.12.05m-.83-1.69c.11 1.14.55 1.67.82 1.67.04 0 .07-.01.1-.03-.08-.68-.62-1.49-.92-1.64"/><path d="M28.84 23.28a.66.66 0 0 1 .24-.2c.58-.3 1.15-.44 1.8-.54.15-.03.3-.17.46-.24.37-.18.78-.24 1.14-.42.02-.01.12-.07.16-.12.14-.17.4-.21.56-.37.62-.59 1.28-1.13 1.63-1.91.42-.95.93-1.92.86-3-.04-.68.06-1.37-.11-2.02-.25-.96-.57-1.92-1.15-2.71l.1.06c.59.8.9 1.75 1.15 2.71.17.65.07 1.34.11 2.02.07 1.08-.45 2.05-.86 3.01-.34.78-1.01 1.31-1.63 1.91-.16.15-.42.2-.56.37-.04.05-.14.1-.16.11-.36.18-.77.25-1.14.42-.15.08-.3.21-.45.24-.65.11-1.22.24-1.8.54-.09.05-.19.11-.25.2l-.1-.06z" fill="#3e9a13"/><path d="M28.94 23.35l-.11-.07a.53.53 0 0 1 .25-.22c.57-.3 1.14-.43 1.8-.54.09-.02.19-.08.28-.13a.81.81 0 0 1 .18-.1c.18-.09.37-.15.56-.21.19-.06.4-.13.58-.22.03-.01.11-.07.15-.11.08-.09.19-.15.3-.2.09-.05.19-.1.27-.17l.26-.25c.52-.49 1.07-.99 1.36-1.66l.15-.35c.38-.84.77-1.71.71-2.65-.01-.24-.01-.48-.01-.72 0-.43.01-.88-.1-1.29-.22-.87-.54-1.87-1.15-2.71l.12.05c.61.82.92 1.79 1.16 2.72.11.42.1.87.1 1.3 0 .24-.01.48.01.72.06.95-.33 1.82-.71 2.65l-.16.36c-.29.66-.83 1.16-1.35 1.65l-.28.26c-.07.07-.17.12-.26.17-.11.06-.22.11-.3.2-.04.05-.14.11-.16.12-.19.09-.39.16-.59.22-.18.06-.37.12-.55.2-.06.03-.11.06-.16.1-.1.06-.2.13-.29.14-.57.09-1.18.22-1.8.54-.1.05-.19.1-.26.2zm5.48-11.59c.63.82.94 1.83 1.17 2.7.11.42.11.87.1 1.3 0 .24 0 .48.01.72.06.95-.33 1.82-.71 2.66l-.15.35c-.29.67-.84 1.17-1.36 1.66l-.26.25c-.08.07-.18.13-.27.17-.11.05-.22.11-.29.2-.05.05-.14.11-.16.12-.18.09-.39.16-.58.22-.19.06-.38.12-.56.21-.06.03-.11.06-.17.1-.09.06-.19.12-.28.14-.66.1-1.22.24-1.8.54-.09.05-.18.1-.24.19l.09.04c.06-.09.16-.15.25-.2.62-.32 1.23-.45 1.8-.54.09-.02.19-.08.29-.14a.95.95 0 0 1 .17-.1c.18-.08.36-.14.55-.2.2-.06.4-.13.59-.22.02-.01.11-.07.15-.11.08-.09.19-.15.3-.21.09-.05.19-.1.26-.17l.28-.26c.54-.51 1.06-.98 1.35-1.64l.16-.36c.38-.84.76-1.7.7-2.64-.02-.24-.01-.48-.01-.72 0-.43.01-.87-.1-1.29-.24-.92-.55-1.89-1.15-2.71l-.13-.06z"/><path d="M28.96 23.35c.02-.13.13-.19.22-.23.62-.32 1.23-.45 1.81-.55.09-.01.18-.07.28-.14.06-.04.11-.07.17-.1.18-.08.37-.14.55-.2.2-.06.4-.13.59-.22.02-.01.11-.06.15-.11.08-.1.2-.15.31-.21.09-.05.18-.1.26-.16l.28-.26c.54-.51 1.05-.98 1.34-1.64l.16-.36c.38-.84.76-1.7.7-2.64-.02-.24-.01-.48-.01-.72 0-.43.01-.88-.1-1.29-.24-.92-.55-1.89-1.15-2.7l.04-.03c.61.83.92 1.8 1.16 2.72.11.42.11.87.1 1.3 0 .24-.01.48.01.72.06.95-.33 1.82-.71 2.66l-.16.36c-.29.67-.83 1.17-1.35 1.66l-.28.26c-.08.07-.17.12-.27.17-.11.06-.22.11-.29.2-.04.05-.14.11-.17.12-.19.09-.4.16-.6.22-.18.06-.37.12-.55.2-.06.03-.11.06-.16.1-.1.06-.2.13-.3.14-.57.09-1.18.22-1.79.54-.09.05-.18.1-.24.19" fill="#ba0027"/><path d="M31.07 22.56c.63.03 1.84.83 1.95 1.02-1.34.01-2.14-.66-1.95-1.02" fill="#3e9a13"/><path d="M31.76 22.23c.63.03 1.84.83 1.95 1.02-1.35 0-2.14-.66-1.95-1.02M30.75 22.57c.03-.65.8-1.89.99-2.01.01 1.39-.63 2.21-.99 2.01" fill="#3e9a13"/><path d="M31.28 22.32c.08-.65.96-1.82 1.15-1.91-.11 1.38-.82 2.14-1.15 1.91M32.36 21.86c-.07-.58.42-1.81.57-1.94.21 1.23-.24 2.06-.57 1.94M32.74 21.82c.58-.25 2.01-.05 2.18.07-1.22.59-2.21.34-2.18-.07" fill="#3e9a13"/><path d="M33.29 21.5c.51-.4 1.93-.58 2.13-.52-1.03.9-2.05.92-2.13.52M33.18 21.26c-.17-.56.11-1.86.23-2.01.42 1.17.13 2.07-.23 2.01" fill="#3e9a13"/><path d="M33.73 20.82c-.15-.51.1-1.67.21-1.81.38 1.05.11 1.86-.21 1.81" fill="#3e9a13"/><path d="M33.88 20.96c.29-.58 1.51-1.37 1.72-1.39-.56 1.26-1.48 1.72-1.72 1.39M34.29 20.15c-.23-.47-.18-1.67-.1-1.82.56.97.43 1.81.1 1.82M34.76 19.4c-.26-.52-.2-1.85-.11-2.02.61 1.08.47 2.02.11 2.02" fill="#3e9a13"/><path d="M34.89 19.58c.38-.35 1.51-.61 1.68-.57-.77.81-1.59.9-1.68.57M35.17 18.63c-.3-.5-.36-1.82-.28-2 .7 1.01.64 1.96.28 2M35.58 17.06c-.4-.32-.85-1.43-.83-1.61.89.64 1.12 1.46.83 1.61M35.68 17.49c.24-.47 1.22-1.11 1.39-1.13-.46 1.02-1.2 1.4-1.39 1.13M35.76 16.57c.07-.52.78-1.47.93-1.55-.09 1.12-.66 1.74-.93 1.55M35.67 15.11c-.46-.06-1.28-.72-1.35-.86.98.07 1.51.61 1.35.86M35.5 14.05c-.07-.52.38-1.63.51-1.75.2 1.11-.2 1.86-.51 1.75" fill="#3e9a13"/><path d="M35.53 14.54c-.55-.13-1.49-1.02-1.56-1.2 1.19.2 1.79.91 1.56 1.2" fill="#3e9a13"/><path d="M35.42 13.91c-.52-.22-1.3-1.27-1.33-1.46 1.13.41 1.6 1.21 1.33 1.46M35.23 12.85c-.23-.47-.18-1.66-.1-1.82.56.97.43 1.82.1 1.82" fill="#3e9a13"/><path d="M34.79 12.16c-.19-.38-.15-1.35-.08-1.47.44.79.34 1.46.08 1.47M34.64 12.58c-.54-.18-1.39-1.15-1.45-1.34 1.16.31 1.7 1.07 1.45 1.34" fill="#3e9a13"/><path d="M34.43 11.83c-.33-.26-.69-1.16-.68-1.3.73.52.92 1.18.68 1.3M32.28 22.04c.64.03 1.84.83 1.95 1.02-1.34.01-2.14-.66-1.95-1.02M35.74 16.35c.04.05-.43-.44-.59-1.44.83.72.89 1.32.59 1.44M35.11 18.97c.3-.58 1.51-1.37 1.72-1.39-.56 1.26-1.48 1.72-1.72 1.39M35.68 14.98c.08-.6.69-1.43.93-1.55-.09 1.12-.67 1.73-.93 1.55M32.36 21.86c.34.12.78-.7.56-1.93-.2 1.04-.46 1.87-.56 1.93" fill="#3e9a13"/><path d="M32.43 21.88l-.07-.01c.09-.07.34-.86.56-1.94.17.86 0 1.53-.24 1.81-.08.09-.17.14-.25.14m.49-1.95c-.18 1-.44 1.87-.55 1.94h.06c.08 0 .16-.05.24-.14.23-.29.4-.95.25-1.8"/><path d="M31.09 22.56c-.19.36.59 1.02 1.94 1.01-1.06-.44-1.89-.88-1.94-1.01" fill="#3e9a13"/><path d="M33 23.58c-1.01 0-1.68-.37-1.89-.7-.07-.12-.08-.23-.03-.32.06.12.85.55 1.96 1l-.04.02zm-1.92-1.02c-.03.09-.02.19.05.3.2.33.87.69 1.87.69v.01l.03-.01c-1.02-.39-1.9-.85-1.95-.99"/><path d="M31.78 22.22c-.19.36.59 1.02 1.94 1.01-1.06-.43-1.89-.88-1.94-1.01" fill="#3e9a13"/><path d="M33.69 23.25c-1 0-1.68-.37-1.89-.7-.07-.12-.08-.23-.03-.32.06.12.85.55 1.96 1l-.04.02zm-1.92-1.02c-.03.09-.02.19.05.31.2.33.87.69 1.87.69v.01l.03-.01c-1.02-.4-1.9-.86-1.95-1"/><path d="M30.76 22.56c.35.2.98-.62.97-2-.41 1.1-.84 1.95-.97 2" fill="#3e9a13"/><path d="M30.88 22.6c-.04 0-.08-.01-.12-.03.12-.07.53-.88.97-2.02.03.97-.28 1.62-.54 1.88-.11.11-.22.17-.31.17m-.11-.03c.12 0 .26-.01.4-.15.26-.26.56-.91.55-1.86-.38 1.06-.82 1.96-.95 2.01z"/><path d="M31.29 22.31c.34.23 1.03-.52 1.14-1.91-.52 1.06-1.02 1.87-1.14 1.91" fill="#3e9a13"/><path d="M31.42 22.36a.23.23 0 0 1-.14-.04c.12-.06.61-.83 1.14-1.92-.08 1.27-.65 1.96-1 1.96m1-1.95c-.47 1.02-.99 1.87-1.13 1.92.04.01.08.02.13.02.35-.01.9-.74 1-1.94"/><path d="M32.73 21.81c-.03.41.96.66 2.17.07-1.14.07-2.07.03-2.17-.07" fill="#3e9a13"/><path d="M33.54 22.24c-.34 0-.61-.08-.74-.22a.246.246 0 0 1-.08-.21c.12.08 1.05.13 2.18.06-.59.31-1.06.37-1.36.37m-.81-.42c.01.06.04.13.09.19.13.14.39.22.72.22.29 0 .76-.06 1.36-.35-1.15.12-2.07.04-2.17-.06"/><path d="M33.31 21.49c.08.4 1.09.39 2.12-.52-1.09.38-2.01.59-2.12.52" fill="#3e9a13"/><path d="M33.78 21.75c-.27 0-.45-.1-.48-.26.02-.01.04 0 .09 0 .25 0 1.03-.18 2.03-.53-.54.5-1.16.79-1.64.79m-.48-.25c.05.14.22.23.48.23.48 0 1.09-.29 1.64-.76-1.01.36-1.99.61-2.12.53"/><path d="M33.18 21.26c.36.05.65-.84.23-2.01-.03 1.06-.13 1.92-.23 2.01" fill="#3e9a13"/><path d="M33.21 21.27h-.03c.08-.09.19-.87.22-2.01.33.86.25 1.57.04 1.87-.06.09-.14.14-.23.14m.2-2.01c-.01 1.04-.12 1.92-.22 2.01l.03-.01c.08 0 .15-.05.22-.14.2-.3.28-1-.03-1.86"/><path d="M33.74 20.81c.32.05.59-.75.21-1.81-.03.96-.13 1.74-.21 1.81" fill="#3e9a13"/><path d="M33.76 20.82h-.03c.07-.08.17-.82.2-1.81.3.78.23 1.42.04 1.69-.06.08-.13.12-.21.12m.17-1.81c-.01.92-.1 1.73-.19 1.81l.02-.01c.07 0 .14-.05.2-.13.18-.26.25-.9-.03-1.67"/><path d="M33.9 20.97c.24.33 1.15-.13 1.71-1.39-.84.81-1.58 1.39-1.71 1.39" fill="#3e9a13"/><path d="M34.13 21.08a.29.29 0 0 1-.24-.11c.14-.02.85-.58 1.71-1.41-.42.99-1.07 1.52-1.47 1.52m1.47-1.51c-.76.77-1.54 1.41-1.69 1.41.05.05.13.08.23.08.38 0 1.03-.52 1.46-1.49"/><path d="M34.3 20.15c.32-.01.45-.85-.1-1.81.13.94.17 1.72.1 1.81" fill="#3e9a13"/><path d="M34.28 20.16l.01-.01c.06-.08.03-.83-.1-1.81.42.71.47 1.39.31 1.68-.05.09-.12.14-.2.14h-.02zm-.09-1.82c.14.87.18 1.65.12 1.8.07-.01.12-.05.17-.13.17-.29.12-.96-.29-1.67"/><path d="M34.76 19.4c.36-.01.5-.94-.11-2.01.15 1.05.19 1.91.11 2.01" fill="#3e9a13"/><path d="M34.75 19.41l.01-.01c.07-.09.04-.92-.11-2.01.47.79.52 1.54.34 1.86-.06.1-.13.16-.22.16h-.02zm-.11-2.02c.15.97.2 1.84.13 2 .08-.01.14-.06.19-.15.19-.32.14-1.06-.32-1.85"/><path d="M34.9 19.58c.09.32.9.23 1.67-.57-.85.38-1.57.62-1.67.57" fill="#3e9a13"/><path d="M35.23 19.76c-.18 0-.3-.07-.33-.18.21-.01.87-.22 1.68-.58-.53.57-1.04.76-1.35.76m1.34-.75c-.73.34-1.44.59-1.63.59.01.24.8.27 1.63-.59"/><path d="M35.18 18.62c.36-.04.42-.98-.28-2 .23 1.04.34 1.9.28 2" fill="#3e9a13"/><path d="M35.16 18.63l.01-.02c.06-.09-.04-.93-.28-1.99.53.75.65 1.49.5 1.83-.05.1-.12.17-.21.18h-.02zm-.27-2c.23.94.36 1.82.31 1.98.07-.01.13-.07.18-.16.14-.34.02-1.07-.49-1.82"/><path d="M35.59 17.06c.29-.15.06-.96-.84-1.6.51.8.86 1.49.84 1.6" fill="#3e9a13"/><path d="M35.58 17.07v-.02c.02-.1-.31-.78-.83-1.6.67.46.99 1.05.97 1.39-.01.11-.05.18-.12.22l-.02.01zm-.83-1.6c.47.71.84 1.42.85 1.58.06-.03.09-.1.1-.2.02-.34-.3-.92-.95-1.38"/><path d="M35.69 17.48c.19.27.93-.1 1.38-1.13-.68.66-1.28 1.14-1.38 1.13" fill="#3e9a13"/><path d="M35.87 17.58c-.08 0-.15-.03-.19-.09.11-.01.69-.46 1.38-1.14-.33.8-.87 1.23-1.19 1.23m1.19-1.22c-.63.63-1.25 1.14-1.37 1.14.04.04.1.07.18.07.32-.01.84-.43 1.19-1.21"/><path d="M35.76 16.57c.27.19.84-.42.93-1.55-.42.86-.82 1.52-.93 1.55" fill="#3e9a13"/><path d="M35.87 16.61a.15.15 0 0 1-.11-.04c.1-.05.5-.67.92-1.56-.06 1.03-.52 1.6-.81 1.6m.81-1.59c-.38.82-.8 1.52-.92 1.56.03 0 .07.02.11.02.29-.01.73-.6.81-1.58"/><path d="M35.68 15.11c.17-.25-.37-.78-1.35-.86.91.47 1.29.65 1.35.86" fill="#3e9a13"/><path d="M35.67 15.13l-.01-.02c-.05-.19-.36-.35-1.1-.73l-.24-.13c.71.04 1.22.35 1.35.62.04.09.05.17 0 .23v.03zm-1.34-.87l.25.11c.72.38 1.04.54 1.1.72.03-.06.02-.13-.01-.2-.13-.27-.64-.57-1.34-.63"/><path d="M35.51 14.04c.31.11.7-.63.51-1.74-.19.94-.41 1.69-.51 1.74" fill="#3e9a13"/><path d="M35.57 14.06l-.06-.01c.08-.07.3-.74.5-1.75.15.77 0 1.37-.21 1.63-.07.09-.15.13-.23.13m.44-1.75c-.17.92-.39 1.68-.49 1.74h.06c.07 0 .14-.05.21-.13.21-.25.36-.84.22-1.61"/><path d="M35.54 14.54c.22-.29-.37-.99-1.55-1.19.86.55 1.52 1.07 1.55 1.19" fill="#3e9a13"/><path d="M35.53 14.56v-.02c-.02-.11-.66-.63-1.55-1.19.86.14 1.45.56 1.58.9.04.12.04.21-.02.29l-.01.02zm-1.55-1.21c.79.48 1.48 1.01 1.56 1.17.04-.07.05-.15.01-.26-.13-.34-.71-.76-1.57-.91"/><path d="M35.43 13.91c.27-.24-.2-1.04-1.33-1.45.76.69 1.32 1.33 1.33 1.45" fill="#3e9a13"/><path d="M35.42 13.93v-.02c0-.11-.55-.74-1.33-1.45.83.29 1.34.81 1.41 1.18.02.12 0 .21-.07.28l-.01.01zm-1.33-1.47c.7.62 1.29 1.26 1.34 1.43.05-.06.07-.14.05-.25-.07-.36-.57-.88-1.39-1.18"/><path d="M35.24 12.85c.32-.01.45-.84-.1-1.81.13.95.17 1.72.1 1.81" fill="#3e9a13"/><path d="M35.22 12.86l.01-.01c.06-.08.04-.82-.1-1.81.43.71.48 1.39.31 1.68-.05.09-.12.14-.2.14h-.02zm-.09-1.82c.14.87.19 1.66.12 1.8a.22.22 0 0 0 .17-.13c.16-.29.12-.96-.29-1.67"/><path d="M34.8 12.16c.26-.01.36-.68-.08-1.47.1.77.13 1.4.08 1.47" fill="#3e9a13"/><path d="M34.78 12.17l.01-.01c.05-.06.03-.68-.09-1.46.35.58.39 1.12.25 1.36-.04.07-.1.11-.16.12h-.01zm-.08-1.47c.12.68.16 1.33.11 1.46.05-.01.1-.04.13-.1.13-.25.09-.79-.24-1.36"/><path d="M34.64 12.58c.25-.27-.28-1.02-1.45-1.33.83.63 1.44 1.21 1.45 1.33" fill="#3e9a13"/><path d="M34.64 12.6v-.02c-.01-.11-.59-.68-1.44-1.32.85.21 1.4.69 1.5 1.05.03.11.02.21-.04.28l-.02.01zm-1.45-1.34c.75.56 1.4 1.14 1.45 1.31.05-.06.06-.15.03-.25-.1-.36-.64-.84-1.48-1.06"/><path d="M34.44 11.83c.23-.12.05-.78-.68-1.29.42.64.7 1.2.68 1.29" fill="#3e9a13"/><path d="M34.43 11.84v-.02c.02-.08-.25-.63-.67-1.29.54.37.8.84.78 1.11-.01.09-.04.15-.1.18l-.01.02zm-.67-1.3c.38.57.68 1.14.69 1.27.04-.03.07-.09.08-.16.01-.27-.24-.74-.77-1.11"/><path d="M32.3 22.04c-.19.36.59 1.02 1.94 1.01-1.06-.44-1.89-.88-1.94-1.01" fill="#3e9a13"/><path d="M34.21 23.06c-1 0-1.68-.37-1.88-.7-.07-.12-.08-.23-.03-.32.06.12.85.55 1.95 1l-.04.02zm-1.92-1.02c-.03.09-.01.19.05.3.21.34.91.69 1.87.69v.01l.03-.01c-1.02-.39-1.9-.84-1.95-.99"/><path d="M35.74 16.35c.3-.12.24-.72-.6-1.44.44.85.63 1.34.6 1.44" fill="#3e9a13"/><path d="M35.72 16.37l.01-.02c.04-.11-.19-.65-.6-1.43.64.52.81.97.77 1.22-.02.11-.08.19-.17.22l-.01.01zm-.58-1.45c.41.76.63 1.27.61 1.42.08-.03.13-.11.14-.2.04-.25-.14-.7-.75-1.22"/><path d="M35.13 18.98c.24.33 1.15-.13 1.71-1.39-.83.81-1.57 1.39-1.71 1.39" fill="#3e9a13"/><path d="M35.36 19.09a.29.29 0 0 1-.24-.11c.14-.02.86-.57 1.71-1.4-.41.98-1.07 1.51-1.47 1.51m1.47-1.51c-.77.78-1.54 1.41-1.7 1.41.05.05.13.08.23.08.4 0 1.05-.52 1.47-1.49"/><path d="M35.64 15.12c.35.24.87-.56.95-1.66-.41.85-.84 1.63-.95 1.66" fill="#3e9a13"/><path d="M35.78 15.17c-.05 0-.09-.02-.14-.05.1-.04.51-.75.95-1.67-.06 1.02-.48 1.72-.81 1.72m.81-1.71c-.38.81-.83 1.64-.94 1.67.04.01.08.03.13.03.32-.01.74-.74.81-1.7M35.73 16.37c-.4-.38-.62-1.33-.6-1.46.64.52.82.97.78 1.22-.02.11-.08.19-.18.24zm-.6-1.45c0 .11.21 1.04.6 1.41a.28.28 0 0 0 .15-.21c.04-.23-.14-.68-.75-1.2M32.99 23.58c-.96 0-1.68-.36-1.89-.71-.07-.12-.08-.23-.03-.32.67.03 1.89.88 1.97 1.01l-.05.02zm-1.92-1.01c-.03.08-.02.18.05.29.21.35.92.7 1.87.7v.01l.03-.01c-.07-.09-1.26-.96-1.95-.99"/><path d="M33.68 23.25c-1.01 0-1.69-.37-1.89-.71-.07-.12-.08-.23-.03-.32.67.03 1.89.88 1.97 1.01l-.05.02zm-1.92-1.01c-.03.08-.02.18.05.29.21.35.92.7 1.87.7v.01l.03-.01c-.07-.09-1.26-.96-1.95-.99M30.87 22.6c-.04 0-.08-.01-.12-.03.02-.69.85-1.95.98-2.03.03.98-.28 1.63-.55 1.9-.1.11-.21.16-.31.16m.85-2.05c-.08.07-.93 1.31-.96 2.01.09.02.25 0 .4-.15.27-.25.57-.9.56-1.86"/><path d="M31.41 22.37a.23.23 0 0 1-.14-.04c.08-.69 1.02-1.86 1.16-1.94-.08 1.23-.66 1.98-1.02 1.98m1.01-1.97c-.09.06-1.04 1.22-1.13 1.92.03.01.07.03.12.03.35-.01.91-.75 1.01-1.95M32.42 21.88l-.07-.01c-.09-.64.48-1.89.56-1.96.18.87 0 1.54-.24 1.82-.08.1-.17.15-.25.15m.49-1.96c-.06.08-.62 1.31-.54 1.94h.05c.08 0 .16-.05.24-.14.23-.29.4-.95.25-1.8M33.56 22.24c-.34 0-.61-.08-.75-.22a.246.246 0 0 1-.08-.21c.19-.09.46-.13.81-.13.63 0 1.32.13 1.4.19-.61.31-1.09.37-1.38.37m-.03-.53c-.34 0-.61.04-.79.12 0 .06.03.12.08.18.13.13.4.22.73.22.29 0 .77-.06 1.36-.35-.07-.04-.75-.17-1.38-.17"/><path d="M33.76 21.75c-.27 0-.45-.1-.49-.26.54-.44 2-.58 2.14-.53-.54.51-1.16.79-1.65.79m1.55-.77c-.39 0-1.55.15-2.01.52.03.14.21.23.47.23.48 0 1.09-.28 1.63-.75h-.09M33.2 21.27h-.03c-.19-.6.14-1.92.23-2.04.33.87.25 1.59.04 1.89-.07.1-.15.15-.24.15m.2-2.02c-.05.09-.39 1.4-.21 2.01l.02-.01c.08 0 .15-.05.22-.14.2-.3.28-1-.03-1.86"/><path d="M33.76 20.83h-.03c-.17-.53.12-1.73.2-1.83.3.79.23 1.43.04 1.7-.06.08-.14.13-.21.13m.17-1.83c-.04.08-.35 1.27-.19 1.81l.02-.01c.07 0 .13-.04.19-.12.18-.27.26-.9-.02-1.68M34.1 21.09c-.11 0-.19-.04-.24-.11.31-.63 1.58-1.39 1.72-1.42-.41 1-1.07 1.53-1.48 1.53m1.48-1.52c-.11.04-1.38.8-1.69 1.41a.3.3 0 0 0 .22.09c.39-.01 1.04-.53 1.47-1.5"/><path d="M34.28 20.16c-.26-.52-.16-1.73-.1-1.84.43.72.48 1.4.31 1.7-.05.09-.12.14-.21.14zm-.1-1.83c-.02.09-.13 1.3.12 1.81a.22.22 0 0 0 .17-.13c.16-.3.12-.96-.29-1.68M34.75 19.41c-.29-.58-.18-1.93-.11-2.05.48.8.53 1.56.34 1.89-.06.11-.14.16-.23.16zm-.12-2.03c-.03.1-.15 1.44.13 2.01.08-.01.14-.06.19-.15.19-.32.13-1.07-.32-1.86M35.21 19.76c-.18 0-.31-.07-.34-.18.38-.37 1.45-.59 1.67-.59 0 0 0 .01-.01.01-.27.03-1.28.24-1.64.58.08.23.69.27 1.43-.37-.42.41-.84.55-1.11.55"/><path d="M35.16 18.64c-.33-.54-.34-1.9-.28-2.03.54.75.66 1.5.5 1.85-.05.1-.12.16-.22.18zm-.28-2.02c-.03.12-.02 1.46.3 1.99.08-.01.14-.07.18-.16.15-.34.03-1.08-.48-1.83M35.58 17.07c-.44-.35-.85-1.5-.85-1.62.68.46 1 1.06.98 1.4-.01.11-.05.18-.13.22zm-.85-1.61c.02.11.42 1.24.85 1.58.06-.03.1-.1.1-.2.03-.33-.29-.91-.95-1.38M35.85 17.58c-.08 0-.15-.03-.19-.09.25-.51 1.28-1.14 1.4-1.15-.35.82-.88 1.24-1.21 1.24m1.19-1.23c-.08.03-1.11.63-1.37 1.14.04.04.1.06.17.06.33.01.86-.41 1.2-1.2M35.85 16.62c-.04 0-.08-.01-.11-.03.07-.58.85-1.53.93-1.58-.06 1-.52 1.61-.82 1.61m.82-1.6c-.07.06-.83.99-.91 1.56.02.01.06.02.09.02.29-.01.74-.6.82-1.58M35.68 15.12c-.5-.07-1.33-.77-1.38-.87.73.04 1.24.35 1.37.63.05.09.05.17.01.24zm-1.37-.86c.05.06.86.77 1.35.84.03-.05.03-.13-.01-.21-.13-.27-.63-.57-1.34-.63M35.55 14.08l-.06-.01c-.08-.57.42-1.69.51-1.77.16.78.01 1.39-.21 1.65-.08.08-.16.13-.24.13m.44-1.77c-.05.07-.56 1.19-.49 1.74h.05c.07 0 .14-.04.21-.13.22-.25.37-.84.23-1.61"/><path d="M35.53 14.55c-.6-.14-1.53-1.09-1.58-1.21.88.13 1.47.56 1.6.91.05.12.04.22-.02.3zm-1.57-1.2c.05.08.97 1.03 1.56 1.17.05-.07.05-.16.01-.26-.13-.34-.71-.76-1.57-.91"/><path d="M35.42 13.92c-.55-.24-1.32-1.34-1.35-1.48.84.29 1.35.82 1.42 1.19.03.13 0 .22-.07.29zm-1.34-1.46c.04.09.78 1.19 1.34 1.44.06-.06.08-.14.05-.25-.07-.37-.57-.9-1.39-1.19M35.22 12.88c-.25-.5-.17-1.73-.1-1.84.43.72.48 1.4.31 1.7-.06.08-.13.13-.21.14zm-.11-1.83c-.02.09-.13 1.29.12 1.8a.22.22 0 0 0 .17-.13c.17-.29.12-.96-.29-1.67"/><path d="M34.77 12.18c-.21-.41-.13-1.41-.08-1.5.36.59.39 1.14.26 1.38-.05.08-.1.12-.18.12zm-.08-1.48c-.02.09-.1 1.05.1 1.46.05 0 .1-.04.13-.1.14-.24.1-.78-.23-1.36M34.63 12.6c-.59-.2-1.44-1.24-1.47-1.35.86.21 1.41.7 1.52 1.05.04.12.02.22-.05.3zm-1.45-1.34c.05.09.88 1.11 1.45 1.31.05-.06.07-.15.03-.26-.1-.35-.64-.83-1.48-1.05"/><path d="M34.43 11.85c-.35-.28-.69-1.22-.68-1.32.56.38.82.86.8 1.13-.02.09-.06.16-.12.19zm-.68-1.31c.01.07.33.99.68 1.28.05-.03.08-.08.08-.16.02-.27-.24-.74-.76-1.12M34.2 23.07c-1.01 0-1.69-.37-1.89-.71-.07-.12-.08-.23-.03-.33.69.03 1.89.89 1.97 1.02l-.05.02zm-1.91-1.02c-.03.08-.02.18.04.3.21.35.92.7 1.87.7v.01l.03-.01c-.08-.12-1.27-.97-1.94-1M35.34 19.09c-.11 0-.19-.04-.24-.11.31-.63 1.58-1.39 1.73-1.41-.42.99-1.08 1.52-1.49 1.52m1.48-1.52c-.11.03-1.39.79-1.7 1.4a.3.3 0 0 0 .22.09c.4 0 1.05-.52 1.48-1.49M35.78 15.16c-.04 0-.08-.01-.12-.04.09-.72.63-1.53.93-1.68-.07 1.19-.52 1.72-.81 1.72m.81-1.71c-.27.16-.81.98-.91 1.66.03.01.06.02.1.02.27 0 .72-.54.81-1.68"/><path d="M31.52 21.57c.62.85 1.11 1.21 1.71 1.32.29.05.86-.26.1-.68-.25.24-1.21-.7-1.38-1.08l-.43.44z" fill="#f5cd28"/><path d="M33.3 22.91l-.07-.01c-.62-.12-1.11-.5-1.72-1.33l.43-.46c.2.4 1.17 1.29 1.38 1.08.38.2.42.37.39.47-.03.16-.24.25-.41.25m-1.37-1.78l-.41.45c.6.8 1.09 1.18 1.7 1.3l.07.01c.16 0 .36-.09.39-.22.03-.09-.02-.25-.37-.44-.01.02-.05.04-.1.04-.34-.01-1.13-.82-1.28-1.14"/><path d="M31.52 21.57c-1.41-1.83-2.27-3.58-5.41-5.37 2.78.93 3.69 2.34 5.85 4.95l-.44.42z" fill="#cacaca"/><path d="M31.52 21.58s-.01 0-.01-.01c-.26-.33-.49-.66-.73-.99-1.08-1.5-2.1-2.92-4.67-4.37 2.5.81 3.47 2 5.23 4.15l.64.78-.46.44c.01 0 0 0 0 0m-5.41-5.36c2.58 1.44 3.61 2.86 4.69 4.36.24.33.47.65.72.98l.43-.4-.64-.77c-1.75-2.16-2.72-3.34-5.2-4.17"/><path d="M31.56 21.12c-.01 0-.02 0-.02-.01l-.33-.42c-1.19-1.5-2.42-3.04-3.84-3.83 1.45.74 2.69 2.29 3.88 3.79l.33.42c.01.01.01.03 0 .03-.01.02-.02.02-.02.02" fill="#7dcbc9"/><path d="M33.41 22.82c-.08-.48.07-.9.07-.9.05-.19-.07-.44-.25-.55-.01 0-.63-.21-.63-.21-.29-.09-.55.07-.7.19-.26.16-.31.14-.42.1-.36 0-.24.31-.09.34.31.11.57-.12.57-.12.22-.2.63-.41.63-.41.39.03.62.15.7.29.05.21-.11.89-.15 1-.07.15-.09.32-.04.33.19.1.25.07.29.05.06-.05-.01-.13.02-.11" fill="#f5cd28"/><path d="M33.31 22.97c-.06 0-.13-.03-.22-.08-.05-.08-.02-.23.03-.35.04-.11.2-.79.15-.99-.08-.15-.33-.25-.69-.28 0 0-.41.21-.62.4-.01.01-.31.23-.59.13-.09-.02-.17-.13-.15-.22.01-.05.05-.14.25-.14.13.05.17.05.42-.1.25-.19.49-.26.71-.19.19.06.63.2.63.21.19.12.31.38.26.57 0 .01-.15.43-.07.9 0 .03.02.09-.04.13-.01 0-.04.01-.07.01m-.73-1.72c.37.03.63.13.71.29.05.22-.11.91-.15 1.01-.06.13-.08.26-.06.3.17.1.25.09.29.07.04-.03.03-.06.02-.09-.07-.48.08-.91.08-.92.05-.18-.07-.42-.25-.54-.02-.01-.63-.2-.63-.2-.22-.07-.44-.01-.69.19-.26.15-.32.15-.43.1-.13 0-.21.04-.22.12-.01.08.06.18.14.2.27.1.56-.12.56-.12.22-.2.63-.4.63-.41"/><path d="M32.2 22.27c-.09-.16-.03-.3.03-.43.04-.08.07-.16.05-.22l.02-.01c.02.07-.02.15-.05.23-.05.13-.11.27-.05.43M32.4 22.41c-.09-.16-.03-.28.02-.39.04-.07.07-.14.05-.2l.02-.01c.02.07-.02.15-.05.22-.04.1-.1.22-.04.38M32.61 22.54c-.09-.16-.04-.28.01-.38.03-.07.06-.14.04-.2l.02-.01c.02.07-.01.14-.05.21-.03.11-.08.23-.02.38M32.85 22.69c-.09-.16-.04-.26.01-.35.03-.06.06-.12.04-.18l.02-.01c.02.07-.01.13-.04.19-.04.09-.09.19-.03.35M31.56 21.76c-.07 0-.13-.01-.19-.04.13.03.27.02.42-.03.02 0 .08-.05.14-.1.16-.11.39-.29.57-.34l.01.03c-.17.05-.41.22-.56.33-.09.07-.13.1-.15.1-.08.03-.16.05-.24.05"/><path d="M33.14 21.45c-.05 0-.1-.04-.1-.08s.04-.08.1-.08c.05 0 .09.05.09.1s-.04.06-.09.06" fill="#f5cd28"/><path d="M33.14 21.47c-.06 0-.11-.04-.11-.09 0-.1.21-.08.21.02 0 .04-.04.07-.1.07"/><path d="M32.95 21.38c-.06 0-.11-.04-.11-.08s.05-.07.11-.07.11.03.11.07a.11.11 0 0 1-.11.08" fill="#f5cd28"/><path d="M32.95 21.39c-.07 0-.12-.04-.12-.09 0-.1.24-.09.24 0 0 .05-.06.09-.12.09"/><path d="M32.75 21.35c-.06 0-.1-.04-.1-.09 0-.05.04-.09.1-.09s.1.04.1.09c0 .05-.04.09-.1.09" fill="#f5cd28"/><path d="M32.75 21.36c-.06 0-.11-.04-.11-.1 0-.11.22-.11.22 0 0 .06-.05.1-.11.1M33.59 22.85a.28.28 0 0 1-.02-.29c.03-.07.05-.12-.02-.22l.02-.02c.08.1.05.17.03.24-.04.07-.07.15-.01.29"/><path d="M27.4 13.01l5.45 5.38c.07.18-.14.24-.13.28.15.25.11.5.14.57.23.31.51.3.54.3.28-.06.33.32.4.34.14.15-.04.29.12.41-.02 0 .79.8.96 1.02.03.09.64.71.64.71-.09.23-1.07.87-1.06.89-.72-.86-1.66-2.61-1.76-2.63-.52-.59-1.02-1.41-.93-1.64-.07-.41-.52-.77-.66-.75.09-.26-.03-.46-.03-.49l-2.9-2.86c0-.19.15-.17.19-.17 0 0-1.09-1.21-1.12-1.21-.01-.1.1-.17.15-.15" fill="#60350e"/><path d="M34.49 23l-.04-.06c-.43-.52-.93-1.34-1.3-1.94-.21-.34-.4-.66-.44-.68-.53-.59-1.04-1.42-.95-1.67-.07-.38-.49-.72-.63-.72.04-.23-.03-.41-.05-.47l-2.91-2.88c-.01-.2.12-.2.18-.21-.41-.44-1.06-1.14-1.1-1.17-.02-.07 0-.11.03-.15.03-.03.07-.05.1-.05l5.48 5.39c.06.15-.03.22-.09.26.07.21.08.38.09.49 0 .05 0 .09.01.1.19.27.43.29.5.29l.08-.01c.16 0 .24.15.3.26.02.04.04.09.06.09.08.08.08.16.07.23-.01.07-.01.13.06.19.02.03.18.2.34.36.23.24.53.54.62.66.03.07.4.46.64.71-.06.18-.49.5-.88.78-.09.06-.17.12-.18.13l.01.07zm-1.77-2.72c.03 0 .14.17.46.69.36.6.86 1.41 1.29 1.92.02-.02.07-.05.17-.12.28-.2.81-.58.87-.75-.06-.04-.61-.6-.64-.7-.09-.11-.38-.41-.62-.65-.35-.36-.35-.36-.34-.38-.08-.05-.07-.13-.07-.2.01-.07.01-.13-.05-.19-.02 0-.04-.04-.07-.1-.05-.1-.12-.23-.26-.23l-.08.01c-.07 0-.32-.02-.53-.31-.01-.03-.01-.07-.02-.12-.01-.11-.02-.28-.12-.45l-.01-.01.06-.06c.05-.04.13-.1.08-.21l-5.45-5.37c-.03 0-.06.02-.08.04-.02.02-.04.06-.03.11.01 0 .13.11 1.11 1.2-.1.04-.19.04-.19.19l2.9 2.85c.04.09.12.28.04.5.16-.03.59.35.66.74-.1.18.35.96.92 1.6z"/><path d="M33.01 20.39c.25-.09.58-.31.58-.31l1.64 1.89-.72.63-1.5-2.21z" fill="#1f1f1f"/><path d="M26.02 12.34c.11.1.14.02.17 0l.08-.1c.05-.13.16-.17.21-.16l6.38 6.31c.07.18-.13.26-.13.31l-4.36-4.32s-1.49-1.58-1.93-2.02l-.25.24c-.06.08-.14.08-.23 0l-2.17-2.45 2.19 2.15.04.04z" fill="#cacaca"/><path d="M32.71 18.71l-4.35-4.32s-1.49-1.58-1.93-2.02l-.23.24c-.07.09-.16.09-.26 0l-2.17-2.45 2.22 2.12c.07.07.1.09.12.09l.08-.03-.01-.01.08-.1c.04-.11.13-.17.2-.17l6.42 6.32c.06.15-.03.23-.09.28v.05h-.08zm-6.28-6.37c.46.44 1.95 2.02 1.95 2.02l4.34 4.3.04-.04c.05-.05.13-.11.08-.23l-6.37-6.3c-.06 0-.13.05-.18.15l-.08.11c-.03.03-.06.06-.09.06-.01-.01-.07-.02-.11-.06l-2.23-2.19 2.2 2.42c.08.07.15.07.2 0l.25-.24zM32.58 20.39c-.11 0-.2-.04-.27-.12-.09-.11-.1-.27-.03-.43l.04.02c-.07.15-.06.29.03.39.08.11.24.14.42.11a.68.68 0 0 1-.19.03M34.72 21.35l-1.35-1.52c-.11 0-.67-.45-.86-.8-.02-.02-.05-.05-.08-.1-.16-.19-.49-.59-1.01-.96l.02-.03c.52.37.86.77 1.01.96.04.05.07.08.09.1.19.36.74.79.84.79l1.34 1.56z"/><path d="M32.87 18.41c-.11.12-.79.4-.89.91.34.55.74.96.78 1.05.57-.28.88-.49.99-.57-.02-.09-.15-.18-.15-.18-.08-.14-.22-.06-.22-.06-.3-.14-.44-.42-.38-.62.07-.26.02-.2.03-.23-.03-.15-.16-.3-.16-.3" fill="#cacaca"/><path d="M32.76 20.4l-.01-.02c-.01-.03-.07-.1-.15-.2-.16-.19-.41-.49-.63-.85.07-.4.47-.66.72-.81.08-.05.14-.09.17-.12.03.01.16.15.19.3.01.02.02.04-.03.24-.06.19.07.46.37.59 0-.01.15-.08.24.07 0 0 .13.09.15.19-.13.12-.47.33-1 .59l-.02.02zm.1-1.97c0 .03-.07.07-.15.13-.24.15-.64.4-.7.78.22.34.46.64.62.83.07.09.13.15.15.19.68-.33.94-.54.97-.56-.03-.06-.15-.15-.15-.16-.06-.1-.2-.06-.2-.06-.34-.14-.47-.44-.41-.65.04-.16.04-.19.04-.2a.986.986 0 0 0-.17-.3"/><path d="M32.7 18.9c-.09.22-.05.49.13.65l-.13-.65z" fill="#cacaca"/><path d="M32.85 19.54c-.2-.13-.26-.4-.16-.65l.04.01c-.1.23-.05.49.12.64M32.77 19.99c-.06 0-.12-.06-.12-.12 0-.14.24-.13.24 0 .01.07-.05.12-.12.12m0-.22c-.05 0-.09.05-.09.1 0 .11.19.1.19 0a.1.1 0 0 0-.1-.1M32.45 19.55c-.06 0-.12-.06-.12-.13 0-.14.24-.13.24 0 0 .07-.05.13-.12.13m0-.22a.09.09 0 0 0-.09.09c0 .11.19.11.19 0 0-.05-.04-.09-.1-.09"/><path d="M31.67 12.93l-5.46 5.38c-.07.19.14.24.13.29-.15.25-.11.5-.14.57-.23.31-.51.3-.53.3-.28-.06-.37.35-.45.36-.1.11.01.34-.12.44.02.01-.86.89-.95.98-.03.09-.61.7-.61.7.09.23 1.07.87 1.06.89.72-.86 1.66-2.62 1.76-2.63.52-.59 1.02-1.41.93-1.64.07-.41.52-.77.66-.75-.09-.26.03-.46.03-.48l3.9-3.92c0-.2-.07-.14-.2-.15 0 0 .11-.17.13-.17.02-.13-.09-.19-.14-.17" fill="#60350e"/><path d="M24.58 22.9l.01-.06c-.02-.02-.09-.07-.17-.13-.4-.29-.83-.6-.89-.76.16-.19.58-.64.61-.72.14-.14.92-.93.95-.98.07-.06.07-.14.07-.23 0-.08 0-.16.05-.22a.29.29 0 0 0 .08-.1c.07-.11.16-.27.33-.27l.07.01c.07 0 .3-.02.5-.29.01-.02.01-.05.01-.1.01-.12.02-.29.13-.47-.09-.07-.19-.14-.13-.28l5.46-5.38c.07-.01.11.01.14.05.03.04.04.09.04.13-.03.02-.08.1-.13.17l-.04-.01c.11-.18.13-.18.15-.18a.193.193 0 0 0-.05-.09c-.02-.03-.06-.04-.08-.04l-5.46 5.38c-.04.11.04.17.09.21l.05.07c-.1.18-.12.35-.12.46 0 .05-.01.09-.02.12-.21.29-.46.31-.53.31l-.07-.01c-.15 0-.23.15-.3.26-.04.06-.06.1-.1.11-.03.04-.03.11-.03.19 0 .09 0 .19-.08.25.02.02-.91.94-.95.98-.03.09-.55.64-.61.7.07.14.6.52.88.72.1.07.15.11.17.13.42-.51.92-1.31 1.28-1.9.33-.53.44-.71.48-.71.5-.58 1-1.39.91-1.62.07-.41.5-.78.66-.78-.08-.2 0-.39.02-.45l3.91-3.94c0-.12-.04-.12-.08-.12l-.07-.01.07-.03c.09 0 .12.04.12.17L28 17.34c-.03.07-.1.25-.03.46-.17.03-.59.37-.66.76.09.23-.42 1.06-.94 1.65-.05.02-.25.35-.47.7-.37.6-.87 1.42-1.29 1.92l-.03.07z"/><path d="M26.05 20.31c-.25-.09-.58-.33-.58-.33l-1.63 1.91.72.62 1.49-2.2z" fill="#1f1f1f"/><path d="M33.05 12.26c-.11.1-.14.02-.17 0l-.08-.1c-.05-.13-.16-.17-.21-.15l-6.38 6.31c-.07.19.13.26.13.31l4.36-4.32s1.5-1.59 1.93-2.02l.25.24c.06.08.14.08.23 0l2.17-2.45-2.19 2.15-.04.03z" fill="#cacaca"/><path d="M26.32 18.66v-.05c0-.01-.02-.03-.04-.04-.05-.05-.14-.13-.09-.27l6.38-6.32c.1-.01.19.04.24.16l.14.14c.02 0 .05-.02.08-.05l2.23-2.19-2.14 2.47c-.1.09-.19.09-.26 0l-.25-.24c-.4.43-1.9 2.02-1.9 2.02l-4.39 4.37zm6.3-6.65l-6.39 6.31c-.04.11.03.18.08.23.02.01.03.03.04.04l4.34-4.3s1.5-1.59 1.93-2.02l.28.24c.06.08.12.07.2 0l2.17-2.45-2.16 2.18c-.08.08-.12.09-.15.09h-.01l-.07-.04-.1-.12c-.04-.11-.11-.16-.16-.16M26.43 20.32c-.04 0-.09 0-.14-.01.19 0 .34-.04.42-.14.08-.1.09-.24.03-.39l.03-.01c.07.16.06.32-.03.43-.07.08-.18.12-.31.12M24.38 21.29l1.29-1.57c.12-.01.66-.44.85-.79.03-.03.06-.07.11-.13.17-.2.49-.59.99-.94l.02.03c-.5.35-.81.73-.99.93-.05.06-.08.1-.11.13-.19.35-.74.79-.87.8l-1.29 1.54z"/><path d="M26.19 18.33c.11.12.8.4.88.91-.34.55-.74.95-.78 1.04-.57-.28-.88-.49-.99-.57.02-.09.15-.18.15-.18.08-.14.22-.06.22-.06.3-.14.44-.42.38-.62-.07-.26-.02-.2-.03-.23.04-.14.17-.29.17-.29" fill="#cacaca"/><path d="M26.3 20.31l-.02-.01c-.53-.25-.86-.47-.99-.57.02-.12.15-.21.15-.21.08-.15.24-.07.24-.07.29-.13.41-.41.35-.6-.05-.2-.04-.22-.03-.23.03-.15.16-.3.16-.3.05.03.12.07.2.12.24.15.65.41.72.8-.23.37-.47.67-.63.86-.08.1-.14.17-.15.19v.02zm-.7-.84a.13.13 0 0 0-.12.07c-.01.01-.13.1-.15.18.02 0 .28.21.96.54.02-.04.08-.1.15-.19.16-.19.41-.49.63-.84-.07-.36-.47-.61-.7-.76-.08-.05-.14-.09-.18-.13 0 .03-.1.15-.13.28-.01.03-.01.06.03.22.06.2-.07.5-.39.64-.03.01-.06-.01-.1-.01"/><path d="M26.36 18.82c.09.22.05.49-.13.65l.13-.65z" fill="#cacaca"/><path d="M26.24 19.48c.14-.17.19-.43.1-.66l.03-.01c.1.24.05.52-.13.67M26.29 19.91c-.07 0-.12-.05-.12-.12 0-.14.24-.14.24 0 0 .06-.05.12-.12.12m0-.22c-.05 0-.1.05-.1.1 0 .1.19.11.19 0 0-.06-.04-.1-.09-.1M26.61 19.47c-.07 0-.12-.06-.12-.13 0-.13.24-.14.24 0 0 .07-.05.13-.12.13m0-.23a.1.1 0 0 0-.1.1c0 .11.19.11.19 0 0-.05-.04-.1-.09-.1"/><path d="M31.02 13.47c0-.1.1-.18.22-.18l.4.43s.01.07-.05.15c-.06.08-.15.04-.15.04l-.42-.44z" fill="#cacaca"/><path d="M31.5 13.93l-.06-.01-.42-.44c-.01-.13.1-.22.23-.22l.41.44c.01.01.02.08-.05.17-.04.05-.08.06-.11.06m-.27-.63c-.1.01-.19.08-.19.17l.45.43c.03 0 .06-.01.08-.04.05-.08.05-.13.05-.14l-.39-.42z"/><path d="M28.95 10.5c.03-.07.22-.25.25-.25.01-.53.24-.46.24-.46.33-.06.63-.03.62.45-.06.27-.02.39.16.55 1.44.93 1.59 1.4 1.68 1.49-1.06.3-2.11.37-2.71-.8-.12-.39.13-.88.13-.88.01-.03.01-.11.01-.11-.1.04-.38.01-.38.01" fill="#c0003b"/><path d="M30.77 12.49c-.73 0-1.25-.32-1.59-.99-.12-.4.13-.89.13-.89.01-.03.01-.11.01-.11-.05.05-.38.03-.38.03.02-.09.21-.27.25-.28 0-.42.15-.46.22-.46.3-.03.45-.02.55.09.08.08.11.2.1.38-.06.26-.03.38.16.54 1.21.78 1.51 1.24 1.63 1.42.02.03.04.06.05.07-.45.14-.81.2-1.13.2m-1.44-2.01c.02.02.01.1 0 .13 0 .01-.25.49-.13.87.33.66.85.98 1.56.98.32 0 .67-.06 1.13-.19-.02.01-.04-.02-.06-.05-.11-.17-.42-.64-1.62-1.41-.19-.17-.23-.3-.17-.56.01-.17-.03-.29-.1-.36-.1-.1-.28-.11-.5-.08-.1 0-.22.04-.23.45-.03.02-.21.18-.25.25.02-.01.09 0 .17 0 .1-.01.16-.02.2-.03"/><path d="M27.88 21.34c-.62.85-1.11 1.21-1.71 1.32-.5.24-.94-.35-.1-.75.24.24 1.21-.64 1.38-1.02l.43.45z" fill="#f5cd28"/><path d="M25.94 22.74c-.17 0-.31-.1-.35-.24-.05-.2.13-.42.47-.59.04.03.07.04.12.04.34 0 1.11-.72 1.26-1.06l.45.44c-.6.84-1.1 1.22-1.72 1.34a.39.39 0 0 1-.23.07m.12-.81c-.32.16-.49.37-.44.56.04.19.31.28.55.17.62-.13 1.11-.51 1.71-1.32l-.43-.43c-.16.39-1.15 1.25-1.39 1.02"/><path d="M27.88 21.34c1.41-1.82 2.26-3.58 5.41-5.37-2.78.93-3.69 2.34-5.85 4.95l.44.42z" fill="#cacaca"/><path d="M27.88 21.36s-.01 0 0 0l-.45-.42.64-.8c1.76-2.16 2.72-3.34 5.21-4.18-2.56 1.48-3.58 2.9-4.66 4.4-.23.33-.47.66-.74 1 .01 0 0-.01 0 0m5.4-5.39c-2.48.86-3.44 2.04-5.19 4.19l-.64.78.43.39c.25-.33.49-.66.72-.98 1.09-1.51 2.11-2.92 4.68-4.38"/><path d="M27.84 20.89h-.02a.03.03 0 0 1 0-.04l.34-.43c1.19-1.5 2.42-3.05 3.85-3.83-1.39.82-2.62 2.37-3.81 3.86l-.34.43c0 .01-.01.01-.02.01" fill="#7dcbc9"/><path d="M25.99 22.59c.08-.48-.07-.9-.07-.9-.05-.19.07-.44.25-.55.01 0 .63-.21.63-.21.29-.09.55.07.7.18.26.16.31.15.42.11.36 0 .24.3.09.34-.31.11-.57-.12-.57-.12-.22-.2-.63-.41-.63-.41-.39.03-.62.15-.7.29-.05.21.11.89.15.99.07.14.09.32.04.33-.19.1-.25.07-.29.05-.06-.04.01-.12-.02-.1" fill="#f5cd28"/><path d="M26.09 22.74c-.04 0-.07-.01-.08-.02-.05-.04-.04-.09-.03-.12.07-.48-.07-.9-.08-.9-.05-.19.07-.45.26-.57.01 0 .35-.11.64-.2.22-.07.45-.01.71.18.24.15.3.15.41.1.22-.01.25.09.25.14.01.09-.06.2-.16.22-.27.1-.58-.12-.58-.13-.22-.19-.63-.4-.63-.41-.35.03-.6.14-.68.29-.05.2.11.87.16.98.06.12.08.27.05.32-.11.1-.18.12-.24.12m.89-1.82c-.06 0-.12.01-.17.03 0 0-.61.2-.63.21-.18.11-.29.36-.24.54 0 0 .15.43.07.91 0 .04-.01.07.03.1.04.02.13.03.28-.05.03-.06.02-.19-.04-.32-.05-.11-.2-.8-.15-1 .08-.16.34-.27.71-.3.01 0 .42.21.64.41 0 0 .3.22.56.12.08-.02.15-.12.14-.2-.01-.08-.09-.12-.22-.12-.11.04-.18.05-.43-.11-.22-.15-.39-.22-.55-.22"/><path d="M27.22 22.04c.04-.17-.02-.3-.07-.42-.04-.08-.07-.16-.05-.23l.02.01c-.01.06.02.13.05.22.06.11.12.26.05.42M27.02 22.19c.04-.17-.02-.29-.07-.39-.04-.07-.07-.14-.05-.22l.02.01c-.02.06.02.13.05.2.06.11.12.23.05.4M26.81 22.33c.04-.17-.01-.28-.06-.39-.03-.07-.06-.14-.05-.21l.02.01c-.02.07.01.13.04.2.06.1.12.21.05.39M26.57 22.47c.04-.17-.01-.26-.05-.35-.03-.06-.06-.12-.04-.2l.03.01c-.02.06.01.12.04.18.04.09.09.19.02.36M27.83 21.53a.74.74 0 0 1-.23-.04c-.02 0-.06-.03-.14-.09-.15-.11-.39-.29-.57-.34l.01-.03c.18.05.42.23.58.35.06.05.12.09.13.09.19.07.33.05.42.01-.05.02-.12.05-.2.05"/><path d="M26.26 21.23c.05 0 .09-.03.09-.08s-.04-.08-.09-.08c-.05 0-.09.06-.09.1 0 .04.04.06.09.06" fill="#f5cd28"/><path d="M26.26 21.24c-.09 0-.1-.05-.1-.07 0-.11.21-.12.21-.02 0 .05-.05.09-.11.09"/><path d="M26.45 21.15c.06 0 .1-.03.1-.07 0-.04-.05-.07-.1-.07-.06 0-.11.03-.11.07.01.04.05.07.11.07" fill="#f5cd28"/><path d="M26.45 21.16c-.07 0-.12-.04-.12-.08 0-.09.24-.1.24 0 0 .05-.05.08-.12.08"/><path d="M26.65 21.13c.06 0 .1-.04.1-.09 0-.05-.04-.09-.1-.09-.06 0-.1.04-.1.09 0 .04.04.09.1.09" fill="#f5cd28"/><path d="M26.65 21.14c-.06 0-.11-.05-.11-.1 0-.11.22-.11.22 0 0 .05-.05.1-.11.1M25.84 22.63c.03-.14 0-.22-.03-.29-.03-.07-.05-.14.03-.24l.02.01c-.07.09-.05.15-.02.22.02.07.05.15 0 .3"/><path d="M31.49 12c1.78 2.3 2.42 5.11-3.3 12.79 2.89-4.14 5.85-8.95 3.08-12.64l.22-.15z" fill="#f8e629"/><path d="M28.19 24.8c-.01 0-.01-.01 0-.01 2.93-4.2 5.82-8.98 3.08-12.63l.22-.16c1.61 2.08 2.68 4.78-3.3 12.8M31.48 12l-.21.16c2.67 3.55.01 8.18-2.83 12.29 5.69-7.75 4.63-10.4 3.04-12.45"/><path d="M31.5 12.32c1.33 1.51 1.99 3.77.07 5.61.92-1.56 1.51-3.17-.27-5.53l.2-.08z" fill="#f8e629"/><path d="M31.58 17.93c-.01 0-.01 0 0 0-.01 0-.01-.01-.01-.01.87-1.46 1.56-3.1-.27-5.52l.2-.09c1.32 1.49 2.03 3.75.08 5.62m-.08-5.61l-.19.08c1.82 2.4 1.15 4.03.3 5.49 1.9-1.86 1.19-4.1-.11-5.57"/><path d="M31.55 12.18c1.67 1.89 2.89 4.65.5 6.94 1.32-2.24 1.79-3.48-.75-6.84l.25-.1z" fill="#f8e629"/><path d="M32.06 19.13c-.01 0-.01 0 0 0 1.3-2.22 1.82-3.44-.75-6.84l.24-.11c1.08 1.21 3.27 4.31.51 6.95m-.51-6.94l-.23.11c2.56 3.38 2.07 4.6.77 6.8 2.69-2.64.52-5.71-.54-6.91"/><path d="M31.68 11.83c2.11 2.18 3.25 5.77-1.33 12.34 1.76-3.46 4.45-8.68 1.1-12.21l.23-.13z" fill="#f8e629"/><path d="M30.35 24.17c-.01 0-.01 0 0 0l.02-.06c1.75-3.44 4.41-8.64 1.08-12.15l.23-.14c2.85 2.95 2.42 6.99-1.33 12.35m1.32-12.34l-.22.13c3.33 3.49.69 8.68-1.06 12.13 3.7-5.32 4.11-9.33 1.28-12.26"/><path d="M31.68 12.18c1.67 1.89 2.89 4.65.5 6.94 1.33-2.24 1.79-3.48-.74-6.84l.24-.1z" fill="#3e9a13"/><path d="M32.18 19.13c-.01 0-.01 0 0 0 .52-.9.92-1.63 1.04-2.4-.11.78-.5 1.5-1.01 2.36 2.7-2.63.53-5.7-.53-6.9l-.23.11c.74.97 1.21 1.77 1.5 2.46-.28-.69-.77-1.49-1.5-2.47l.24-.11c1.06 1.21 3.25 4.3.49 6.95"/><path d="M31.6 12.32c1.33 1.51 1.75 4.22-.17 6.06 1.06-1.79 2.01-3.29-.02-5.98l.19-.08z" fill="#3e9a13"/><path d="M31.43 18.38c-.01 0-.01 0 0 0l.04-.08c1.04-1.74 1.93-3.25-.06-5.9l.19-.09c1.39 1.57 1.71 4.27-.17 6.07m.16-6.06l-.19.08c2 2.65 1.11 4.16.07 5.9l-.02.03c1.84-1.78 1.52-4.45.14-6.01"/><path d="M31.73 11.77c2.11 2.18 3.29 5.72-1.3 12.29 1.87-3.67 4.8-8.31 1.1-12.21l.2-.08z" fill="#3e9a13"/><path d="M30.43 24.07c-.01 0-.01-.01-.01-.01.15-.3.31-.6.47-.92 1.79-3.43 4.02-7.71.63-11.29l.19-.09c2.87 2.94 2.45 6.97-1.28 12.31m1.29-12.3l-.19.08c3.4 3.57 1.17 7.85-.63 11.29-.15.28-.29.56-.43.83 3.68-5.28 4.08-9.28 1.25-12.2"/><path d="M31.78 11.91c1.78 2.29 2.7 5.17-3.3 12.79 2.85-4.08 5.96-8.8 3.08-12.64l.22-.15z" fill="#3e9a13"/><path d="M28.48 24.7c-.01 0-.01-.01 0-.01 2.56-3.66 6.06-8.66 3.08-12.63l.22-.16c1.7 2.2 2.85 5-3.3 12.8.01 0 0 0 0 0m3.29-12.79l-.21.15c2.94 3.9-.4 8.81-2.94 12.45 5.98-7.66 4.84-10.42 3.15-12.6"/><path d="M29.21 10.26c.01-.52.24-.46.24-.46.33-.05.63-.03.61.46-.06.27-.02.39.16.55 1.44.93 1.43 1.3 1.52 1.39-.28.08-.42.21-.69.24-.09.01-.17.01-.26.01-.06 0-.11.04-.17.03.39.03-.9-1.56-1.39-1.61.07-.21.1-.28.1-.28.01-.03.01-.08.01-.08l-.13-.25z" fill="#f8e629"/><path d="M31.55 12.57c-.29-.41-.84-1.29-.84-1.29l.02-.05c.83.7.93.67.85 1.31l-.03.03z" fill="#3e9a13"/><path d="M31.54 12.58c-.29-.41-.84-1.29-.84-1.29l.06.04c.13.24.55.9.79 1.25l.03-.03c.06-.55.01-.59-.54-1.04l-.06-.05.06.04c.54.45.61.5.55 1.06l-.02.02c-.01-.02-.01-.02-.03 0 .01-.01 0 0 0 0"/><path d="M30.38 10.92c.86.36 1.21.56 1.7 1.23-1.49-.64-1.28-.66-1.76-1.15l.06-.08z" fill="#3e9a13"/><path d="M32.08 12.15c-1.21-.52-1.3-.63-1.55-.91-.06-.07-.12-.14-.21-.24l.06-.09c.86.36 1.21.55 1.7 1.24.01 0 .01 0 0 0 .01 0 0 0 0 0m-1.7-1.23l-.05.08c.09.09.16.16.21.23.24.28.33.39 1.52.9-.49-.67-.83-.85-1.68-1.21"/><path d="M31.27 12.58c-.41-.42-.64-1.4-.64-1.4l.03-.05c.61.74.81 1.03.61 1.45" fill="#3e9a13"/><path d="M31.27 12.59s-.01 0 0 0c-.41-.42-.64-1.39-.65-1.4.02.02.03.03.04.05.05.26.27.99.6 1.34.11-.24.1-.43-.06-.69.18.25.19.45.07.7"/><path d="M31.01 12.62c-.3-.37-.42-1.18-.42-1.18l.02-.04c.28.4.59.83.4 1.22" fill="#3e9a13"/><path d="M31.01 12.62c-.01 0-.01 0 0 0-.3-.37-.42-1.18-.43-1.19.01.01.03.03.04.05.01.19.14.81.38 1.12.11-.23.05-.47-.08-.71.15.25.21.5.09.73"/><path d="M30.75 12.58c-.23-.34-.27-1.04-.27-1.04l.03-.03c.28.49.41.8.24 1.07" fill="#3e9a13"/><path d="M30.75 12.59c-.23-.34-.28-1.04-.28-1.05.01.01.02.02.02.04.01.18.07.71.26.99.09-.17.08-.35-.01-.59.11.25.12.43.01.61.01 0 0 0 0 0"/><path d="M30.54 12.53c-.18-.32-.17-.96-.17-.96l.02-.02c.23.46.29.75.15.98" fill="#3e9a13"/><path d="M30.54 12.54c-.19-.32-.17-.96-.17-.96.01.01.01.02.02.03-.01.16.01.64.15.91.09-.16.08-.35.01-.57.09.23.1.42-.01.59.01 0 .01 0 0 0"/><path d="M30.33 12.5c-.14-.3-.08-.88-.08-.88l.02-.02c.13.18.31.56.06.9" fill="#3e9a13"/><path d="M30.33 12.51c-.15-.31-.08-.88-.08-.88l.02.02c-.02.12-.05.58.07.85.15-.21.14-.44.07-.64.08.19.09.43-.08.65.01 0 .01 0 0 0"/><path d="M31.22 11.77c-.33-.15-.68-.65-.68-.65l.01-.03c.5.27.71.47.67.68" fill="#3e9a13"/><path d="M31.22 11.78c-.33-.15-.68-.65-.69-.65.01.01.02.01.04.02.08.12.37.49.64.62.02-.13-.06-.27-.26-.42.22.14.31.28.27.43.01 0 .01 0 0 0"/><path d="M30.99 11.78c-.33-.21-.51-.7-.51-.7l.02-.03c.41.31.59.52.49.73" fill="#3e9a13"/><path d="M30.99 11.78c-.33-.21-.52-.7-.52-.7.01.01.02.02.03.02.04.13.21.49.48.67.06-.13.01-.26-.17-.44.19.15.26.3.18.45.01 0 0 0 0 0"/><path d="M30.78 11.79c-.24-.18-.34-.59-.34-.59l.02-.02c.31.27.43.45.32.61" fill="#3e9a13"/><path d="M30.78 11.8c-.24-.18-.34-.59-.35-.6.01.01.02.01.03.02.02.1.12.41.32.56.06-.1.04-.22-.1-.38.14.15.18.27.1.4.01 0 0 0 0 0"/><path d="M30.58 11.78c-.19-.17-.22-.52-.22-.52l.02-.02c.23.25.31.4.2.54" fill="#3e9a13"/><path d="M30.58 11.78c-.19-.17-.23-.52-.23-.53l.02.02c.01.09.06.35.21.5.07-.09.05-.19-.06-.35.12.14.15.25.06.36.01 0 0 0 0 0z"/><path d="M30.41 11.75c-.15-.16-.13-.48-.13-.48l.02-.01c.17.23.22.37.11.49" fill="#3e9a13"/><path d="M30.41 11.76c-.15-.16-.14-.48-.14-.49l.02.02c0 .08.01.32.12.45.07-.08.07-.17-.01-.31.09.13.1.23.01.33"/><path d="M30.24 11.73c-.11-.15-.06-.44-.06-.44l.02-.01c.13.22.15.36.04.45" fill="#3e9a13"/><path d="M30.24 11.74s-.01 0 0 0c-.12-.15-.06-.43-.06-.44 0 .01.01.01.01.02-.02.07-.04.28.05.41.07-.07.09-.15.03-.28.06.11.06.21-.03.29"/><path d="M30.83 11.55c-.38-.17-.69-.63-.69-.63l.01-.03c.5.26.72.44.68.66" fill="#3e9a13"/><path d="M30.83 11.55c-.38-.17-.7-.63-.7-.63l.04.02c.08.12.34.46.65.6.02-.14-.06-.26-.29-.42.22.13.33.27.3.43.01 0 .01 0 0 0z"/><path d="M30.59 11.57c-.33-.21-.51-.7-.51-.7l.02-.02c.41.31.59.51.49.72" fill="#3e9a13"/><path d="M30.59 11.57c-.33-.21-.52-.7-.52-.7.01.01.02.01.03.02.04.12.21.49.48.67.06-.14-.01-.28-.17-.44.19.16.25.3.18.45"/><path d="M30.37 11.59c-.24-.19-.33-.59-.33-.59l.02-.02c.31.27.41.44.31.61" fill="#3e9a13"/><path d="M30.37 11.59s-.01 0 0 0c-.25-.19-.33-.59-.33-.6.01.01.02.01.03.02.02.1.11.41.3.56.06-.1.04-.21-.07-.35.12.15.14.26.07.37"/><path d="M30.19 11.58c-.19-.17-.23-.53-.23-.53l.02-.01c.22.24.32.4.21.54" fill="#3e9a13"/><path d="M30.19 11.59s-.01-.01 0 0c-.19-.17-.24-.53-.24-.54.01.01.02.01.02.02.01.09.06.36.21.5.07-.09.04-.2-.05-.33.11.13.14.24.06.35 0-.01 0 0 0 0z"/><path d="M30.01 11.54c-.14-.16-.13-.48-.13-.48l.02-.01c.17.23.22.38.11.49" fill="#3e9a13"/><path d="M30.01 11.55c-.15-.16-.14-.47-.14-.49l.02.02c0 .08.01.32.12.45.07-.08.07-.17-.02-.32.1.13.12.24.02.34"/><path d="M29.84 11.53c-.11-.15-.06-.44-.06-.44l.02-.01c.13.22.16.35.04.45" fill="#3e9a13"/><path d="M29.84 11.53c-.12-.16-.07-.43-.07-.45 0 .01.01.01.01.02-.01.07-.03.29.06.41.07-.07.08-.15.03-.29.07.14.07.23-.03.31z"/><path d="M30.74 11.26c-.37-.17-.69-.64-.69-.64l.02-.03c.48.26.71.45.67.67" fill="#3e9a13"/><path d="M30.74 11.26c-.37-.17-.69-.64-.69-.64.01.01.03.01.04.02.08.12.35.47.65.61.02-.13-.05-.25-.25-.4.2.14.28.27.25.41"/><path d="M30.5 11.27c-.28-.18-.51-.7-.51-.7l.02-.03c.41.32.59.52.49.73z" fill="#3e9a13"/><path d="M30.5 11.28c-.29-.18-.52-.7-.52-.7.01.01.02.02.04.02.05.13.25.52.48.67.06-.14 0-.28-.16-.43.17.15.24.29.16.44.01 0 0 0 0 0"/><path d="M30.3 11.28c-.23-.18-.35-.59-.35-.59l.02-.02c.31.27.43.44.33.61z" fill="#3e9a13"/><path d="M30.3 11.29c-.23-.18-.35-.59-.36-.59.01.01.02.01.03.02.03.11.14.41.33.56.01 0 .01 0 0 .01m0-.01c.06-.11.02-.22-.1-.37.14.14.18.25.1.37"/><path d="M30.09 11.27c-.18-.17-.22-.52-.22-.52l.02-.02c.22.25.3.4.2.54z" fill="#3e9a13"/><path d="M30.09 11.28c-.19-.17-.23-.52-.23-.53l.02.02c.01.09.06.36.2.5.07-.09.05-.19-.06-.35.12.13.16.25.07.36 0-.01 0 0 0 0"/><path d="M29.92 11.24c-.14-.16-.13-.48-.13-.48l.02-.01c.17.23.22.38.11.49" fill="#3e9a13"/><path d="M29.92 11.25c-.15-.16-.14-.48-.14-.48l.02.02c0 .08.01.32.12.45.07-.08.07-.17 0-.3.08.11.09.22 0 .31z"/><path d="M29.74 11.24c-.11-.16-.06-.45-.06-.45l.02-.01c.13.22.16.36.04.46" fill="#3e9a13"/><path d="M29.74 11.24c-.12-.16-.06-.44-.06-.45 0 .01.01.01.01.02-.02.07-.04.29.05.42.07-.06.08-.14.04-.26.07.12.05.2-.04.27.01 0 0 0 0 0"/><path d="M29.7 11.43c-.11-.15-.06-.43-.06-.43l.02-.01c.14.24.17.34.04.44z" fill="#3e9a13"/><path d="M29.7 11.44c-.12-.16-.07-.43-.07-.44.01.01.01.01.01.02-.01.07-.03.29.06.42.09-.08.1-.15.04-.27.07.11.06.19-.04.27"/><path d="M29.62 11.13c-.11-.16-.06-.44-.06-.44l.02-.01c.13.22.17.34.06.44l-.02.01z" fill="#3e9a13"/><path d="M29.62 11.13c-.01 0-.01 0 0 0-.11-.16-.07-.43-.07-.44 0 0 .01.01.01.02-.01.07-.03.29.06.42 0-.01 0 0 0 0zm.02-.01c.07-.08.07-.16.02-.28.06.12.06.21-.02.28"/><path d="M29.58 11.37c-.11-.16-.06-.44-.06-.44l.02-.01c.12.22.16.35.04.45z" fill="#3e9a13"/><path d="M29.58 11.38c-.12-.16-.08-.44-.07-.45.01.01.01.01.01.02-.01.07-.03.29.06.41.08-.07.08-.16.03-.27.07.12.06.21-.03.29.01 0 0 0 0 0"/><path d="M29.49 11.29c-.11-.16-.06-.44-.06-.44l.02-.01c.12.22.16.35.04.45z" fill="#3e9a13"/><path d="M29.49 11.3c-.12-.16-.08-.44-.07-.45.01.01.01.01.01.02-.01.07-.03.29.06.42.08-.07.08-.16.03-.27.06.11.06.2-.03.28"/><path d="M29.27 11.23c-.07-.18.05-.44.05-.44l.02-.01c.07.25.07.38-.07.45z" fill="#3e9a13"/><path d="M29.27 11.23c-.01 0-.01 0 0 0-.08-.18.04-.44.04-.45 0 .01.01.01.01.02-.03.07-.1.27-.05.41.09-.04.12-.12.1-.27.04.15.01.24-.1.29z"/><path d="M29.36 11.26c-.07-.18.05-.44.05-.44h.02c.07.24.07.37-.07.44" fill="#3e9a13"/><path d="M29.36 11.26s-.01 0 0 0c-.08-.18.04-.44.04-.45 0 .01.01.02.01.02-.03.07-.1.27-.05.41.09-.04.12-.12.1-.27.03.15.01.24-.1.29"/><path d="M29.2 11.17c-.07-.18.05-.44.05-.44h.02c.07.25.06.38-.07.44" fill="#3e9a13"/><path d="M29.2 11.18s-.01 0 0 0c-.08-.18.04-.44.04-.45 0 .01.01.01.01.02-.03.07-.1.27-.05.41.09-.05.12-.12.1-.27.03.14.01.24-.1.29z"/><path d="M29.62 11.13c-.11-.16-.06-.44-.06-.44l.02-.01c.13.22.17.34.06.44l-.02.01z" fill="#3e9a13"/><path d="M29.62 11.13c-.01 0-.01 0 0 0-.11-.16-.07-.43-.07-.44 0 0 .01.01.01.02-.01.07-.03.29.06.42 0-.01 0 0 0 0zm.02-.01c.07-.08.07-.16.02-.28.06.12.06.21-.02.28"/><path d="M29.53 11.04c-.11-.15-.06-.44-.06-.44l.02-.01c.12.22.17.34.04.45z" fill="#3e9a13"/><path d="M29.53 11.05c-.12-.16-.07-.43-.07-.45.01.01.01.01.01.02-.01.07-.03.29.06.42.01 0 .01.01 0 .01zm.02-.01c.07-.08.07-.16.02-.29.06.13.06.21-.02.29"/><path d="M29.31 10.98c-.07-.18.05-.44.05-.44l.02-.01c.07.25.08.38-.06.44h-.01z" fill="#3e9a13"/><path d="M29.31 10.98c-.01 0-.01 0 0 0-.07-.18.04-.44.05-.45 0 .01.01.02.01.02-.04.07-.11.28-.06.43z"/><path d="M29.4 11.01c-.07-.18.05-.44.05-.44h.02c.07.25.08.38-.06.44h-.01z" fill="#3e9a13"/><path d="M29.4 11.02s-.01-.01 0 0c-.07-.18.04-.44.05-.45 0 .01.01.01.01.02-.04.07-.11.27-.06.43 0-.01 0-.01 0 0"/><path d="M30.73 11.23c.83.7 1.15.57 1.07 1.22l-.03.03c-.29-.41-1.07-1.2-1.07-1.2l.03-.05z" fill="#3e9a13"/><path d="M31.81 12.44c-.01-.01-.01-.02-.02-.02.05-.41-.08-.5-.41-.71-.17-.11-.38-.25-.65-.48v-.01h.01c.27.23.48.37.65.48.34.22.47.31.42.74m-.54-.57l-.57-.59c.01 0 .29.28.57.59"/><path d="M28.6 16.95c-.77-.35-1.35-.44-1.49.43 0 .7.2 1.08.94.83.39-.34.55-1.26.55-1.26" fill="#f0f2be"/><path d="M27.66 18.3c-.38 0-.55-.28-.55-.91.12-.75.51-.9 1.5-.44 0 .02-.16.93-.54 1.27-.17.05-.3.08-.41.08m.08-1.59c-.35 0-.55.22-.63.68 0 .62.17.9.54.9.11 0 .24-.03.4-.08.38-.34.54-1.25.54-1.26-.36-.16-.63-.24-.85-.24"/><path d="M27.56 18.29s4.17.14 4.26-.17c.52-.87.48-1.82.18-2.43-.55-1.37-1.17-2.24-1.17-2.24.24-.07.44-.69.26-1-1.51.15-3.46-.1-3.46-.1h-.06c-.42-.06-.54.14-.54.14-.34.46-.48 1.04.04 2.05 1.1 1.87.96 1.96 1.15 2.29.22 1.27-.23 1.31-.65 1.45l-.01.01z" fill="#fdffcb"/><path d="M29.46 18.32c-.89 0-1.72-.02-1.88-.03l.08-.04c.39-.13.76-.25.56-1.42-.06-.1-.08-.17-.12-.28-.09-.26-.25-.69-1.03-2.01-.57-1.11-.32-1.68-.04-2.06 0-.01.13-.21.55-.15.07 0 1.25.15 2.46.15.39 0 .74-.02 1.06-.04.12.2.08.5-.01.71-.07.16-.16.27-.25.29.01 0 .63.88 1.17 2.23.27.53.38 1.49-.18 2.43-.05.15-.84.22-2.37.22m-1.78-.03c.28 0 1.01.02 1.78.02 1.9 0 2.33-.11 2.35-.2.56-.94.45-1.89.18-2.42-.54-1.35-1.16-2.23-1.17-2.24.09-.03.18-.14.25-.3.09-.21.13-.51.01-.7-.31.03-.66.05-1.05.05-1.22 0-2.39-.15-2.4-.15-.12-.01-.17-.01-.21-.01-.29 0-.39.15-.39.15-.3.4-.52.95.04 2.05.78 1.32.94 1.76 1.03 2.02.04.1.06.18.12.28.21 1.18-.17 1.31-.56 1.43l-.08.02h.1z"/><path d="M27.47 13.47c.02-.02.05-.03.11-.14.09-.15.09-.19.12-.32.03-.14.02-.24-.01-.34-.03-.14-.15-.23-.24-.28a.169.169 0 0 0-.1-.03s-.01 0-.01-.01c0 0 0-.01.01-.01.04 0 .07.02.11.03.09.06.21.14.24.29.03.1.03.2.01.3-.03.17-.04.21-.13.36-.04.1-.08.14-.11.15M27.93 18.05c-.02 0-.05 0-.08-.01.14-.13.17-.31.19-.5.03-.19.01-.32-.05-.44l-.04-.09c-.02-.05-.04-.1-.08-.15-.06-.09-.12-.14-.27-.15 0 0-.01 0-.01-.01 0 0 0-.01.01-.01.15.01.22.06.28.15.03.05.06.1.08.15l.04.09c.06.12.08.25.06.41-.03.21-.06.41-.2.53.05 0 .09 0 .12-.01h.08c-.03.01-.05.01-.08.01h-.05z"/><path d="M27.78 18.07c-.05 0-.1-.01-.16-.03a.398.398 0 0 1-.19-.24c-.05-.17-.05-.3 0-.41.02-.05.04-.09.09-.14.03-.03.05-.04.09-.05.08-.02.32-.03.43-.02 0 0 .01 0 .01.01 0 0 0 .01-.01.01-.12-.01-.36 0-.43.02-.04.01-.06.02-.09.04-.05.05-.06.08-.08.13-.06.12-.06.24-.01.41.04.12.1.2.18.23.1.04.19.04.27.02-.03.02-.06.02-.1.02"/><path d="M27.97 17.6c-.04 0-.08 0-.12-.01-.06-.01-.12-.01-.17-.01.01-.1.03-.28-.08-.33 0 0-.01-.01 0-.01h.01c.11.05.1.24.08.34.05-.01.11 0 .17.01.07.01.13.02.2.01h-.09M27.43 13.45c-.15-.02-.27-.04-.31-.16a.983.983 0 0 1-.05-.16c-.01-.15.03-.31.11-.45.15-.13.35-.07.53.01-.18-.07-.38-.13-.52 0-.07.14-.11.3-.1.44 0 .05.02.11.05.16.05.12.17.15.29.16z"/><path d="M27.55 13.13c-.06 0-.12-.01-.17-.04.06-.1.08-.21.06-.35a.156.156 0 0 0-.06-.08c-.03-.03-.06-.02-.09-.01h-.02l.02-.01c.03-.01.07-.02.1 0 .03.03.06.05.07.09.02.15 0 .26-.06.35.08.03.16.04.28.03-.05.01-.09.02-.13.02M27.48 13.47c-.01 0-.01 0 0 0-.01-.01 0-.01 0-.01 1.63-.16 3.31-.01 3.32 0-.01 0-.73-.06-1.69-.06-.51 0-1.07.01-1.63.07z"/><path d="M28.62 14.73l-.27.02v-.01c.02-.01.04-.01.02-.04l-.11-.28c-.02-.04-.03-.04-.06-.04v-.01l.16-.01.01.01c-.03 0-.04 0-.02.06l.11.27c.01.03.02.03.05.03.07-.01.08-.06.07-.13h.01l.03.13zM28.83 14.72l-.16.01v-.01c.02 0 .04-.01.02-.04l-.11-.28c-.02-.04-.04-.04-.06-.04v-.01l.16-.01.01.02c-.02 0-.04 0-.03.04l.12.28c.01.03.03.03.06.03l-.01.01z" fill="#c0003b"/><path d="M28.86 14.7c.02-.01.04-.01.02-.04l-.12-.28c-.01-.04-.03-.04-.06-.04l-.01-.01.14-.01c.03 0 .12 0 .16.09.02.07-.02.08-.04.09.04 0 .11.03.13.1.02.05.01.11-.09.11l-.15.01.02-.02zM29.02 14.3l.27-.02.05.12h-.01c-.04-.08-.08-.09-.15-.09-.02 0-.03 0-.02.03l.05.13c.05 0 .06-.02.04-.09h.01l.08.19h-.01c-.03-.07-.06-.09-.11-.09l.06.14c.01.03.02.03.05.03.05 0 .09-.02.08-.11h.01l.03.12-.27.02-.01-.02c.03-.01.04-.01.03-.04l-.11-.28c-.01-.04-.03-.04-.06-.04h-.01zM29.83 14.66h-.09l-.17-.17h-.01l.05.11c.02.04.03.05.06.05v.02l-.16.01-.01-.01c.03-.01.04-.01.02-.05l-.1-.26c-.02-.05-.03-.05-.06-.05v-.02l.15-.01c.03-.01.13-.01.17.09.03.07-.01.09-.03.1l.16.16c.01.01.02.01.03.01l-.01.02zM30.09 14.64l-.17.01-.01-.02c.03-.01.05-.01.02-.06l-.12-.31c-.03 0-.08.01-.05.1h-.01l-.04-.11.28-.01.05.12h-.01c-.05-.1-.09-.1-.13-.1l.12.31c.02.05.03.05.07.05v.02zM30.49 14.63l-.15.01-.01-.01c.03 0 .04-.01.03-.03-.01-.01-.04-.06-.05-.07h-.1c0 .04 0 .07.01.08.01.02.03.03.05.03v.01h-.09l-.01-.01c.03-.01.03-.02.02-.07l-.01-.32h.01l.22.3c.04.06.06.08.08.08zM30.51 14.61c.03 0 .03-.02.03-.04l-.1-.29c-.01-.03-.03-.04-.06-.04v-.01l.14-.01c.14 0 .21.1.24.19.04.11.02.2-.1.21h-.15v-.01zM29.36 15.42l-.17.01-.01-.01c.06 0 .05-.03.03-.06l-.09-.22c-.01-.02-.02-.04-.03-.04-.01 0-.02.01-.03.02l-.01-.02.09-.07h.01l.13.33c.01.04.02.05.07.05l.01.01zM29.34 15.14c.05 0 .08.01.12.03.03.01.07.05.09.11.03.08.01.14-.08.15a.12.12 0 0 1-.09-.05c-.01-.02 0-.04.01-.04.03 0 .08.04.11.04.02 0 .04-.02.02-.06-.01-.03-.05-.06-.08-.07-.04-.02-.08-.02-.11-.02l-.04-.2.15-.01.01.08-.13.01.02.03zM29.77 15.38c.03 0 .03-.02.02-.04l-.11-.29c-.01-.04-.03-.04-.05-.04l-.01-.01h.14c.13-.01.21.09.25.18.04.11.03.2-.09.21l-.15.01v-.02zM29.97 14.98l.27-.01.04.12h-.01c-.04-.08-.08-.1-.14-.09-.03 0-.03 0-.03.03l.05.14c.04 0 .06-.02.04-.09l.01-.01.07.2h-.01c-.03-.07-.07-.09-.11-.09l.06.14c.01.03.02.03.05.03.05 0 .09-.02.08-.11h.01l.03.12-.27.01-.01-.01c.02-.01.04-.01.02-.04l-.11-.28c.01-.04-.02-.04-.03-.04l-.01-.02zM28.55 16c-.02-.04-.08-.1-.14-.1-.03 0-.04.02-.03.06.01.03.03.04.08.06l.09.04c.02.01.07.04.09.1.02.05.02.12-.07.13-.05 0-.07-.02-.09-.01-.01 0-.01.01-.01.02h-.01l-.06-.15h.01c.04.06.09.12.15.12.06-.01.03-.06.03-.07-.01-.04-.04-.05-.08-.06l-.04-.02c-.1-.04-.12-.09-.13-.12-.01-.03-.03-.11.06-.12.04 0 .07.02.08.01.01 0 .01-.01.01-.02h.01l.07.13h-.02zM28.57 15.88l.27-.02.04.12h-.01c-.04-.08-.08-.09-.15-.09-.02 0-.04.01-.02.03l.06.14c.05 0 .06-.02.04-.09h.01l.08.19h-.01c-.04-.07-.07-.09-.11-.09l.06.14c.01.02.02.03.05.03.05 0 .08-.02.08-.11h.01l.03.12-.27.02-.01-.01c.03 0 .04-.01.02-.04l-.11-.28c-.02-.04-.03-.04-.06-.04v-.02zM29.63 16.19l-.17.01v-.01c.03-.01.04-.01.02-.06l-.13-.3c-.03 0-.08.01-.05.1l-.04-.12.28-.02.05.12h-.01c-.05-.09-.1-.09-.13-.09l.12.31c.02.05.03.05.07.05l-.01.01zM29.89 16.18l-.17.01-.01-.02c.02 0 .04-.01.03-.04l-.11-.28c-.02-.04-.04-.04-.06-.04l-.01-.02.16-.01v.01c-.02 0-.04 0-.03.05l.12.28c.01.04.03.04.06.04l.02.02zM29.75 15.78l.27-.01.05.11h-.01c-.04-.08-.08-.09-.14-.09-.03 0-.03 0-.03.03l.05.13c.04 0 .06-.02.04-.09H30l.08.2h-.01c-.03-.07-.07-.09-.11-.09l.06.14c.01.03.02.03.05.03.05 0 .09-.02.08-.11h.01l.03.12-.27.02-.01-.01c.03-.01.04-.01.02-.04l-.11-.28c-.01-.04-.03-.04-.06-.04l-.01-.02zM30.65 16.13l-.15.01-.01-.01c.03 0 .04-.01.02-.05l-.12-.29.02.36h-.01l-.25-.33.1.27c.02.04.03.05.07.06l.01.01h-.11v-.02c.03 0 .04-.01.02-.05l-.11-.28c-.01-.03-.02-.04-.06-.04v-.02l.12-.01.2.27-.01-.28.12-.01.01.01c-.03 0-.04.01-.02.05l.1.25c.02.05.03.05.06.06v.04zM30.68 15.73l-.14.01v.02c.03 0 .04 0 .06.03l.11.28v.02h-.02l.01.01.15-.01c.04 0 .07-.02.08-.03.02-.02.02-.06.01-.08-.02-.07-.09-.09-.13-.1.01 0 .02-.01.04-.03.01-.01.01-.03 0-.06-.05-.06-.15-.06-.17-.06m0 .03h.02c.01.01.02.03.03.05.01.01.01.03.01.04v.02h-.04l-.04-.1v-.01h.02c0 .01-.01 0 0 0m.05.18h.04c.02.01.04.03.06.07.01.02.01.04.01.05h-.04v-.01l-.01-.01-.06-.1zM31.02 15.72l-.15.01v.01c.01 0 .03 0 .03.01h.01l.01.01c.01.01.01.02.02.03l.09.26c.01.01.01.02.01.03-.01 0-.01 0-.02.01v.01h.16l-.01-.01c-.02 0-.03-.01-.04-.02-.01-.01-.01-.02-.02-.04l-.04-.11h.01l.17.18h.1v-.01h-.01s-.01 0-.01-.01l-.16-.16c.01 0 .02-.01.03-.02l.01-.01s0-.01.01-.01v-.01c0-.01 0-.03-.01-.05 0-.01-.01-.02-.01-.03-.07-.07-.15-.07-.18-.07m0 .03h.01c.01 0 .02 0 .02.01h.01l.01.01c.01.01.02.02.02.04.01.02.01.03.01.04v.02h-.04l-.04-.13v-.01c-.01.03-.01.03 0 .02-.01.01-.01 0 0 0-.01 0 0 0 0 0" fill="#c0003b"/><path d="M31.24 15.71l.28.02.03.12h-.01c-.03-.08-.07-.1-.14-.11-.03 0-.03 0-.03.02l.03.13c.05 0 .07-.01.06-.08h.01l.05.2h-.01c-.02-.07-.05-.09-.1-.1l.03.14c.01.02.02.03.05.03.05 0 .09-.01.1-.09h.01l.01.12-.29-.03v-.01c.03 0 .04 0 .03-.03l-.07-.28c-.01-.04-.03-.04-.06-.04l.02-.01zM29.44 16.99c.03-.01.03-.02.03-.04l-.07-.29c-.01-.03-.03-.03-.05-.04v-.02l.14-.01c.13-.01.2.09.22.18.02.11 0 .2-.12.21l-.15.01zM29.71 16.59l.27-.02.02.12h-.01c-.03-.08-.07-.1-.13-.09-.03 0-.03 0-.03.03l.03.13c.05 0 .07-.02.06-.09h.01l.05.19h-.01c-.02-.07-.05-.08-.1-.08l.03.14c.01.03.02.03.05.03.05 0 .09-.02.1-.11h.01l.01.12-.28.02v-.02c.02 0 .04-.01.03-.04l-.07-.28c-.01-.04-.03-.04-.05-.04l.01-.01zM30.46 16.94l-.18.01v-.01c.06 0 .05-.03.04-.06l-.05-.22c0-.02-.01-.04-.03-.03-.01 0-.02.01-.04.01v-.01l.1-.07h.01l.08.33c.01.04.01.05.06.05h.01zM30.64 16.61c.01.05-.03.07-.05.08.05.03.09.07.1.12.02.07-.02.12-.08.12-.05 0-.11-.03-.12-.09-.01-.06.02-.09.05-.1-.04-.02-.08-.05-.09-.11-.01-.05.01-.1.08-.11.07.01.1.06.11.09M30.94 16.92l-.2.01v-.02c.06-.1.1-.18.08-.25 0-.02-.02-.07-.07-.07-.01 0-.04.01-.05.06h-.01c0-.03.01-.12.08-.12.03 0 .09.01.11.11 0 .01.01.06-.03.13l-.06.09h.07c.05 0 .05-.01.06-.05h.01l.01.11zM31.19 16.91l-.18.01v-.01c.06 0 .05-.02.05-.06l-.05-.22c0-.02-.01-.04-.03-.04-.01 0-.02.01-.04.01v-.01l.1-.07h.01l.07.33c.01.04.02.05.06.05l.01.01z" fill="#c0003b"/><path d="M29.75 10.91c-.08-.11-.05-.31-.05-.31l.01-.01c.1.16.13.25.04.32z" fill="#3e9a13"/><path d="M29.68 10.85c-.08-.11-.04-.31-.04-.31l.01-.01c.09.16.13.25.03.32z" fill="#3e9a13"/><path d="M29.53 10.81c-.05-.13.03-.31.03-.31h.01c.06.17.07.26-.04.31z" fill="#3e9a13"/><path d="M29.59 10.83c-.05-.13.03-.31.03-.31h.02c.05.17.06.26-.05.31zM29.81 10.85c.08-.11.04-.31.04-.31l-.01-.01c-.09.15-.12.24-.04.3l.01.02z" fill="#3e9a13"/><path d="M29.81 10.84c-.09-.06-.06-.15.03-.3 0 0 .01.01.01.02-.09.14-.12.22-.04.28"/><path d="M29.97 10.81c.05-.13-.04-.31-.04-.31h-.01c-.05.17-.06.26.05.31z" fill="#3e9a13"/><path d="M29.96 10.8c-.11-.04-.1-.13-.05-.31l.01.01c-.04.17-.05.26.04.3"/><path d="M29.9 10.83c.05-.13-.04-.31-.04-.31h-.02c-.05.17-.05.26.04.31h.02z" fill="#3e9a13"/><path d="M29.9 10.82c-.1-.04-.1-.13-.05-.3.01 0 .01.01.02.01-.06.17-.06.25.03.29"/><path d="M30.03 10.71c.02-.09-.07-.19-.07-.19h-.01c-.02.12.01.16.08.19M30.12 10.59c0-.09-.11-.18-.11-.18H30c.02.13.04.18.12.18z" fill="#3e9a13"/><path d="M30.12 10.6l-.01-.01c-.08.01-.1-.05-.12-.17H30c.02.12.04.17.11.17-.01-.08-.08-.15-.1-.17.04.02.12.09.11.18.01 0 0 0 0 0"/><path d="M30.09 10.63c-.01-.1-.11-.19-.11-.19l-.01.01c.02.12.04.18.12.18z" fill="#3e9a13"/><path d="M30.09 10.63c-.08 0-.11-.06-.13-.19h.01c.03.14.05.18.12.19-.01-.09-.09-.16-.11-.18.04.02.11.1.11.18.01 0 .01 0 0 0z"/><path d="M30.18 10.54c-.09 0-.18-.11-.18-.11v-.01c.12.02.18.04.18.12z" fill="#3e9a13"/><path d="M30.18 10.48c-.02-.09-.14-.16-.14-.16h-.01c.04.12.07.18.15.16z" fill="#3e9a13"/><path d="M30.18 10.49l-.01-.01c-.08.03-.11-.04-.15-.15h.01c.04.12.08.16.13.15-.02-.08-.12-.14-.13-.15.05.01.14.07.15.16.01-.01.01 0 0 0z"/><path d="M30.23 10.38c-.05-.08-.18-.12-.18-.12l-.01.01c.07.1.12.14.19.11z" fill="#3e9a13"/><path d="M30.21 10.42c-.05-.08-.18-.12-.18-.12l-.01.01c.07.1.12.15.19.11zM30.21 10.28c-.08.04-.21-.02-.21-.02v-.01c.12-.04.18-.05.21.03z" fill="#3e9a13"/><path d="M30.26 10.24c-.06-.08-.2-.09-.2-.09l-.01.01c.1.1.15.13.21.08z" fill="#3e9a13"/><path d="M30.22 10.17c-.06-.07-.2-.09-.2-.09l-.01.01c.09.09.15.13.21.08z" fill="#3e9a13"/><path d="M30.16 10.19c-.04 0-.09-.04-.14-.1h.01c.08.08.13.12.19.08-.05-.06-.17-.08-.19-.08.04-.01.15.01.2.08v.01h-.01c-.02.01-.04.01-.06.01"/><path d="M30.24 10.07c-.07-.05-.21-.03-.21-.03v.01c.1.07.15.09.21.02z" fill="#3e9a13"/><path d="M30.16 10.12c-.04 0-.08-.02-.14-.06.01-.02.15-.05.22.01v.01h-.01c-.07-.05-.21-.03-.21-.03.1.06.16.08.2.03-.01.02-.03.04-.06.04"/><path d="M30.19 9.95c-.09-.03-.21.04-.21.04V10c.12.02.18.02.21-.05z" fill="#3e9a13"/><path d="M30.08 10.02c-.03 0-.07-.01-.1-.01 0 0 0-.01.01-.01.11.02.17.02.19-.05-.07-.02-.17.03-.19.04.03-.03.12-.08.2-.05v.01s-.01.01-.01 0c-.01.05-.04.07-.1.07"/><path d="M30.14 9.92c-.08-.03-.2.04-.2.04v.01c.11.02.17.02.2-.05z" fill="#3e9a13"/><path d="M30.04 9.84c-.09 0-.19.1-.19.1v.01c.13-.02.19-.03.19-.11z" fill="#3e9a13"/><path d="M30.1 9.86c-.09 0-.19.1-.19.1v.01c.12-.01.19-.03.19-.11z" fill="#3e9a13"/><path d="M29.92 9.97v-.01c.12-.01.17-.03.17-.09-.07 0-.15.07-.17.09.02-.04.08-.11.18-.1 0 0 .01 0 .01.01s0 .01-.01.01c0 .07-.07.08-.18.09"/><path d="M29.98 9.72c-.02.09-.13.17-.13.17h-.01c.03-.12.06-.17.14-.17z" fill="#3e9a13"/><path d="M29.98 9.78c-.01.09-.13.17-.13.17h-.01c.03-.12.06-.17.14-.17z" fill="#3e9a13"/><path d="M29.92 9.72c-.09.01-.17.13-.17.13v.01c.12-.03.18-.06.17-.14zM29.82 9.66c-.08.04-.13.17-.13.17l.01.01c.09-.05.15-.1.12-.18z" fill="#3e9a13"/><path d="M29.86 9.68c-.08.04-.15.19-.15.19l.01.03c.07-.04.19-.09.14-.22zM29.3 9.68c0 .09.09.2.09.2h.01c0-.13-.02-.19-.1-.2z" fill="#3e9a13"/><path d="M29.41 9.88h-.01c-.01-.12-.02-.18-.09-.19 0 .08.07.16.09.18-.04-.02-.1-.11-.1-.19 0 0 0-.01.01-.01 0 0 .01 0 .01.01v.01c.07 0 .09.06.09.19z"/><path d="M29.21 9.79c.01.09.13.17.13.17h.01c-.03-.12-.06-.18-.14-.17z" fill="#3e9a13"/><path d="M29.24 9.75c.01.09.13.17.13.17h.01c-.03-.12-.06-.18-.14-.17zM29.47 9.63c.07.06.08.2.08.2l-.01.01c-.08-.09-.11-.14-.07-.21z" fill="#3e9a13"/><path d="M29.43 9.64c.07.06.08.2.08.2h-.01c-.09-.08-.12-.14-.07-.2zM29.53 9.58c-.05.08-.02.22-.02.22h.01c.06-.11.08-.17.01-.22z" fill="#3e9a13"/><path d="M29.54 9.8c-.01 0-.01 0 0 0 .04-.12.05-.17 0-.21-.04.06-.02.17-.01.2-.02-.04-.04-.14 0-.21h.01v.02c.07.03.04.1 0 .2"/><path d="M29.39 9.67c-.02.09.04.21.04.21h.01c.02-.12.02-.19-.05-.21z" fill="#3e9a13"/><path d="M29.45 9.88s-.01 0-.01-.01c.02-.11.02-.18-.04-.2-.02.08.03.19.04.2a.265.265 0 0 1-.05-.21s0-.01.01 0c0 0 .01 0 0 .01.07.02.07.09.05.21"/><path d="M29.58 9.62c.06.07.05.21.05.21h-.01c-.07-.1-.1-.16-.04-.21zM29.69 9.63c.04.08 0 .22 0 .22h-.01c-.04-.12-.06-.19.01-.22z" fill="#3e9a13"/><path d="M29.66 9.61c.04.08-.01.22-.01.22h-.01c-.04-.12-.05-.18.02-.22zM29.1 10.12c.07.06.21.05.21.05v-.01c-.1-.07-.16-.1-.21-.04zM29.18 10.28c.1.03.2-.04.2-.04v-.01c-.12-.03-.18-.03-.2.05z" fill="#3e9a13"/><path d="M29.13 10.21c.08.04.21-.01.21-.01v-.01c-.11-.04-.17-.05-.21.02zM29.14 10.01c.09-.03.21.04.21.04v.01c-.13.03-.19.03-.21-.05z" fill="#3e9a13"/><path d="M29.15 9.89c.04.09.17.14.17.14l.01-.01c-.06-.11-.1-.16-.18-.13z" fill="#3e9a13"/><path d="M29.16 9.95c.03.09.16.14.16.14l.01-.01c-.05-.11-.09-.16-.17-.13z" fill="#3e9a13"/><path d="M29.33 10.07c-.06-.1-.1-.15-.16-.13.04.08.13.12.16.13-.05-.01-.15-.05-.18-.13v-.01h.01v.01c.07-.04.11.01.17.12.01.01.01.01 0 .01"/><path d="M29.15 10.09c.06.06.2.06.2.06l.01-.01c-.1-.08-.15-.11-.21-.05z" fill="#3e9a13"/><path d="M29.31 10.15c-.05 0-.12-.02-.17-.06v-.01h.01c.06.06.19.06.19.06-.09-.08-.14-.1-.19-.06.05-.06.11-.03.2.05 0 .02-.02.02-.04.02"/><path d="M29.25 9.89c.09 0 .18.11.18.11v.01c-.12-.02-.18-.04-.18-.12zM29.31 10.61c.09-.01.18-.12.18-.12v-.01c-.12.02-.18.04-.18.13z" fill="#3e9a13"/><path d="M29.36 10.62c.09 0 .18-.11.18-.11v-.01c-.13.02-.19.04-.18.12z" fill="#3e9a13"/><path d="M29.36 10.63c-.01 0-.01 0 0 0-.01-.01 0-.01 0-.01-.01-.08.05-.1.17-.12v.01c-.11.02-.17.04-.17.11.08-.01.15-.09.17-.11-.02.04-.09.12-.17.12"/><path d="M29.42 10.71c.08-.03.14-.16.14-.16l-.01-.01c-.11.05-.16.09-.13.17z" fill="#3e9a13"/><path d="M29.37 10.68c.09-.03.14-.16.14-.16v-.01c-.11.06-.16.1-.14.17z" fill="#3e9a13"/><path d="M29.37 10.69c-.01-.01-.01-.01 0-.01.08-.03.14-.15.14-.15-.12.05-.15.09-.13.15-.03-.08.03-.12.13-.16.01.01-.05.14-.14.17z"/><path d="M29.27 10.55c.09.01.2-.08.2-.08v-.01c-.13 0-.19.01-.2.09zM29.28 10.42c.08.03.21-.03.21-.03v-.01c-.12-.03-.19-.03-.21.04z" fill="#3e9a13"/><path d="M29.29 10.48c.09.01.19-.09.19-.09v-.01c-.12 0-.18.02-.19.1z" fill="#3e9a13"/><path d="M29.3 10.48c-.01 0-.02 0-.02-.01 0 0 0-.01.01-.01h.01c0-.08.06-.09.19-.1v.01c-.12 0-.17.02-.18.08.06 0 .17-.07.18-.08-.03.05-.11.11-.19.11"/><path d="M29.21 10.39c.05-.08.19-.09.19-.09l.01.01c-.09.09-.14.12-.2.08zM30.21 9.97c-.03.11-.15.15-.15.15h-.01c.05-.12.08-.17.16-.15z" fill="#3e9a13"/><path d="M29.2 10.33c.09.03.21-.03.21-.03v-.01c-.12-.03-.18-.03-.21.04z" fill="#3e9a13"/><path d="M29.25 10.35c-.02 0-.04 0-.06-.01v-.01h.01c.02-.08.09-.08.21-.04 0 0 0 .01-.01.01-.12-.03-.17-.02-.2.04.07.02.17-.02.19-.03-.02.01-.08.04-.14.04"/><path d="M30.01 10.58c-.08-.04-.12-.18-.12-.18l.01-.01c.1.08.15.12.11.19z" fill="#3e9a13"/><path d="M29.93 10.63c-.07-.06-.07-.2-.07-.2l.01-.01c.08.09.11.15.06.21zM30.05 10.49c-.02-.09-.14-.16-.14-.16l-.01.01c.04.11.07.17.15.15z" fill="#3e9a13"/><path d="M30.06 10.42c-.09.01-.2-.08-.2-.08v-.01c.13 0 .19.01.2.09zM29.91 9.81c-.09.01-.17.13-.17.13v.01c.13-.03.18-.06.17-.14z" fill="#3e9a13"/><path d="M29.75 9.96c0-.01 0-.01 0 0 .11-.04.17-.07.16-.14-.08.01-.15.12-.16.13.01-.04.08-.13.16-.14h.01s0 .01-.01.01c.02.08-.04.11-.16.14"/><path d="M29.76 9.75c.01.09-.09.2-.09.2h-.01c.01-.12.02-.19.1-.2z" fill="#3e9a13"/><path d="M29.75 9.62c.03.09-.04.21-.04.21h-.01c-.02-.12-.02-.19.05-.21zM29.39 9.75c.08.04.13.17.13.17l-.01.01c-.1-.06-.15-.11-.12-.18zM29.31 10.4c.02-.09.14-.16.14-.16l.01.01c-.03.11-.07.17-.15.15zM29.46 10.63c.02-.09.14-.16.14-.16h.01c-.03.12-.07.18-.15.16zM29.75 10.79c.08-.11.04-.31.04-.31l-.01-.01c-.09.16-.11.25-.03.32z" fill="#3e9a13"/><path d="M29.75 10.78c-.09-.06-.06-.15.03-.3 0 0 .01.01.01.02-.09.13-.12.22-.04.28"/><path d="M30.16 10.23c-.08.03-.21-.02-.21-.02v-.01c.11-.04.17-.04.21.03zM30.13 10.01c-.05.08-.19.11-.19.11l-.01-.01c.08-.1.13-.14.2-.1zM29.34 9.88c.02.09.19.08.19.08l.01-.01c-.08-.08-.14-.12-.2-.07z" fill="#3e9a13"/><path d="M29.49 9.97c-.06 0-.14-.02-.15-.08 0 0 0-.01.01-.01h.01c.02.09.19.08.19.08-.08-.08-.13-.12-.19-.08.06-.06.11-.02.2.07-.02.01-.04.02-.07.02"/><path d="M29.46 9.84c.01.1.17.12.17.12l.01-.01c-.06-.1-.11-.14-.18-.11z" fill="#3e9a13"/><path d="M29.63 9.95c-.05 0-.16-.03-.17-.11 0 0 0-.01.01-.01s.01 0 .01.01c.07-.05.12 0 .18.1h-.01c-.07-.11-.11-.14-.17-.11.01.08.15.11.17.11h-.02z"/><path d="M29.29 10.04c.04.08.21.04.21.04v-.01c-.1-.07-.16-.09-.21-.03z" fill="#3e9a13"/><path d="M29.3 10.15c.07.06.21-.03.21-.03v-.01c-.12-.03-.18-.03-.21.04z" fill="#3e9a13"/><path d="M29.36 10.18c-.02 0-.05-.01-.06-.02v-.01h.01c.06.06.2-.03.2-.03-.11-.03-.17-.03-.2.03.02-.08.08-.07.21-.04-.01.01-.09.07-.16.07"/><path d="M29.34 10.26c.09.04.19-.1.19-.1v-.01c-.13.01-.18.02-.19.11z" fill="#3e9a13"/><path d="M29.37 10.27c-.01 0-.02 0-.04-.01v-.01h.01c.08.04.18-.09.18-.09-.11.01-.17.02-.18.09-.01-.08.07-.1.18-.11.01.02-.07.13-.15.13"/><path d="M29.44 10.48c.09-.02.09-.19.09-.19l-.01-.01c-.09.08-.13.13-.08.2z" fill="#3e9a13"/><path d="M29.44 10.49c-.01 0-.01 0 0 0-.01-.01 0-.01 0-.01.09-.02.09-.18.09-.18-.09.07-.12.12-.09.18-.05-.06-.01-.12.08-.2.02.02.01.19-.08.21z"/><path d="M29.47 10.54c.09-.02.1-.19.1-.19l-.01-.01c-.09.08-.13.13-.09.2z" fill="#3e9a13"/><path d="M29.54 10.54c.09-.01.12-.18.12-.18v-.01c-.11.07-.15.12-.12.19z" fill="#3e9a13"/><path d="M29.54 10.55s-.01-.01 0 0c-.01-.01 0-.01 0-.01.08-.01.11-.17.11-.17-.11.07-.14.11-.11.17-.04-.07.01-.12.11-.18.01.01-.01.18-.11.19z"/><path d="M29.59 10.58c.09-.01.12-.18.12-.18l-.01-.01c-.1.07-.14.11-.11.19z" fill="#3e9a13"/><path d="M29.59 10.59s-.01-.01 0 0c-.01-.01-.01-.01 0-.01-.04-.07.02-.12.11-.19v.02c-.1.07-.14.11-.11.17.08-.01.11-.15.11-.17.01.05-.02.17-.11.18z"/><path d="M29.67 10.63c.09-.04.05-.21.05-.21l-.01-.01c-.07.1-.1.16-.04.22z" fill="#3e9a13"/><path d="M29.73 10.62c.08-.04.05-.21.05-.21l-.01-.01c-.08.1-.1.16-.04.22z" fill="#3e9a13"/><path d="M29.82 10.59c.07-.06 0-.22 0-.22h-.01c-.05.11-.06.18.01.22z" fill="#3e9a13"/><path d="M29.89 10.47c.05-.08-.06-.21-.06-.21h-.01c-.01.12-.01.18.07.21zM30.05 10.32c-.04-.09-.2-.06-.2-.06v.01c.09.08.14.11.2.05zM30.08 10.14c-.06-.07-.21.01-.21.01v.01c.1.05.17.06.21-.02zM30.03 10.01c-.06-.07-.21.01-.21.01v.01c.11.05.17.06.21-.02z" fill="#3e9a13"/><path d="M29.95 10.07c-.04 0-.08-.02-.13-.04.01-.02.16-.1.22-.02v.01h-.01c-.06-.07-.2.01-.2.01.12.05.17.05.2-.01-.02.04-.05.05-.08.05"/><path d="M29.94 9.96c-.08-.04-.2.08-.2.08v.01c.13.01.19 0 .2-.09z" fill="#3e9a13"/><path d="M29.83 9.9c-.09-.01-.15.15-.15.15v.01c.11-.04.16-.08.15-.16zM29.57 9.77c-.04.09.09.2.09.2h.01c0-.13-.02-.19-.1-.2z" fill="#3e9a13"/><path d="M29.68 9.96c-.03 0-.16-.11-.12-.2 0 0 0-.01.01 0 0 0 .01 0 0 .01-.04.08.09.18.09.18-.01-.11-.02-.18-.09-.18.11.01.11.07.11.19"/><path d="M29.39 9.97c.03.09.2.08.2.08l.01-.01c-.09-.09-.14-.12-.21-.07z" fill="#3e9a13"/><path d="M29.54 10.05c-.06 0-.14-.02-.16-.08v-.01h.01c.03.09.19.08.19.08-.08-.08-.13-.12-.19-.08.06-.05.11-.02.2.07.01.02-.02.02-.05.02"/><path d="M29.43 10.07c.06.08.21.01.21.01v-.01c-.11-.06-.17-.07-.21 0z" fill="#3e9a13"/><path d="M29.44 10.15c.07.07.21-.03.21-.03v-.01c-.11-.03-.18-.04-.21.04zM29.5 10.32c.09.03.18-.11.18-.11v-.01c-.12.02-.18.04-.18.12z" fill="#3e9a13"/><path d="M29.55 10.4c.09 0 .13-.17.13-.17l-.01-.01c-.09.07-.14.1-.12.18z" fill="#3e9a13"/><path d="M29.64 10.43c.09-.02.08-.2.08-.2l-.01-.01c-.08.1-.11.15-.07.21zM29.82 10.4c.06-.08-.05-.21-.05-.21h-.01c-.02.12-.02.19.06.21zM29.99 10.27c-.03-.09-.19-.09-.19-.09l-.01.01c.08.1.13.13.2.08z" fill="#3e9a13"/><path d="M29.92 10.3c-.04 0-.09-.04-.14-.1.02-.02.18-.02.21.08 0 0 0 .01-.01.01h-.01c-.02-.09-.18-.09-.19-.09.08.1.13.12.18.08 0 .01-.02.02-.04.02"/><path d="M29.91 10.18c-.05-.08-.21-.03-.21-.03v.01c.1.07.16.09.21.02z" fill="#3e9a13"/><path d="M29.84 10.23c-.04 0-.08-.02-.14-.06l.01-.01c.09.06.15.08.2.03-.04-.07-.17-.04-.19-.03.04-.02.16-.05.21.03v.01h-.01c-.03.02-.05.03-.08.03"/><path d="M29.98 10.09c-.06-.07-.21.01-.21.01v.01c.11.04.17.05.21-.02z" fill="#3e9a13"/><path d="M29.89 10.15c-.03 0-.08-.01-.13-.03.01-.03.16-.11.22-.03v.01h-.01c-.06-.07-.2.01-.2.01.11.04.16.05.2-.01-.01.03-.04.05-.08.05"/><path d="M29.53 9.91c-.02.09.13.18.13.18h.01c-.03-.13-.06-.19-.14-.18z" fill="#3e9a13"/><path d="M29.7 9.9c-.08.05-.03.22-.03.22h.01c.06-.11.08-.17.02-.22z" fill="#3e9a13"/><path d="M29.68 10.12c-.02-.01-.07-.18.02-.23h.01v.01c-.08.05-.04.21-.03.22.05-.1.07-.17.02-.21.07.04.04.11-.02.21"/><path d="M29.87 10.04c-.08-.04-.19.09-.19.09v.01c.13-.01.19-.02.19-.1z" fill="#3e9a13"/><path d="M29.69 10.15v-.01c.11-.01.17-.02.18-.09-.07-.03-.16.07-.18.09.02-.04.11-.14.18-.1v.01h-.01c.01.07-.05.09-.17.1"/><path d="M29.74 10.31c.06-.07-.06-.2-.06-.2h-.01c-.01.11-.01.18.07.2z" fill="#3e9a13"/><path d="M29.74 10.31c-.01 0-.01-.01-.01-.01-.08-.01-.08-.09-.07-.2 0 0 .01 0 .01.01-.01.12-.01.18.06.19.05-.07-.04-.18-.06-.19.05.02.13.13.07.2"/><path d="M29.42 10.36c.09-.01.13-.18.13-.18l-.01-.01c-.1.06-.15.12-.12.19zM29.75 10.43c.07-.06-.01-.22-.01-.22h-.01c-.04.12-.05.18.02.22z" fill="#3e9a13"/><path d="M29.6 10.29c.06 0 .1-.05.1-.11s-.05-.11-.1-.11c-.06 0-.11.05-.11.11.01.06.06.11.11.11" fill="#f8e629"/><path d="M29.6 10.3c-.06 0-.12-.06-.12-.12 0-.13.24-.13.24 0 0 .07-.05.12-.12.12m0-.22c-.05 0-.09.05-.09.1 0 .11.19.11.19 0a.1.1 0 0 0-.1-.1"/><path d="M29.6 10.2c.01 0 .02-.01.02-.02s-.01-.02-.02-.02-.02.01-.02.02.01.02.02.02"/><path d="M29.55 16.92c0 .02.01.03.03.03.05 0 .07-.04.05-.15-.01-.04-.04-.15-.11-.14-.03 0-.02.02-.02.03l.05.23zM28.95 14.65c.01.02.02.03.04.03.04 0 .03-.05.02-.08-.03-.07-.07-.08-.09-.08h-.01l.04.13zM28.89 14.48c.05 0 .06-.02.03-.08-.01-.03-.03-.06-.07-.06-.02 0-.02.01-.01.03l.05.11zM30.29 14.49l-.09-.12v.12zM29.55 14.46c.05 0 .07-.01.04-.08-.02-.05-.04-.07-.08-.07-.02 0-.02.01-.01.02l.05.13zM30.6 16.91c.03 0 .02-.05.02-.06-.01-.04-.04-.06-.07-.08-.01.02-.01.04 0 .08.01.03.03.06.05.06M30.57 16.68c.01-.02.01-.03 0-.06 0-.03-.02-.06-.05-.06-.02 0-.03.02-.02.04.01.05.07.08.07.08M30.61 14.55c.01.02.01.03.03.03.05 0 .07-.03.03-.15-.01-.05-.06-.15-.13-.15-.03 0-.02.01-.02.02l.09.25zM29.87 15.31c.01.02.01.03.03.03.04 0 .06-.03.02-.14-.01-.04-.06-.14-.13-.13-.02 0-.02.01-.01.02l.09.22z" fill="#fdffcb"/><path d="M29.13 16.06l.05.11c.01.02.01.03.02.04 0 .01.01.01.02.01h.03l.01.01-.16.02v-.01c.01 0 .02 0 .03-.01l.01-.01c0-.01-.01-.02-.01-.04l-.11-.25-.02-.04c0-.01-.01-.01-.02-.01h-.03v-.01l.14-.01c.05 0 .08 0 .11.02s.05.04.06.07c.01.03.01.05.01.07-.01.02-.02.03-.04.04a.17.17 0 0 0-.1 0m-.08-.19l.07.17h.01c.02 0 .03-.01.04-.02 0-.02 0-.04-.01-.07a.154.154 0 0 0-.04-.06c-.02-.02-.04-.03-.07-.02z" fill="#c0003b"/></svg>