<svg xmlns="http://www.w3.org/2000/svg" viewBox="0 0 58.92 34.37"><path fill="#c4314c" d="M1.51 1.51h55.83v31.35H1.51z"/><path fill="#c4314c" d="M0 0h58.92v34.37H0z"/><path fill="#2e4bc4" d="M2.76 2.77h53.41v28.82H2.76z"/><path d="M29.45 8.6s-5.31 3.91-5.31 8.53c0 4.61 5.31 8.64 5.31 8.64s5.27-3.69 5.27-8.64c0-4.94-5.27-8.53-5.27-8.53" fill="#c4314c"/><path d="M33.92 18.66c.12-.49.18-1 .18-1.52 0-4.43-4.66-7.72-4.66-7.72s-4.72 3.4-4.72 7.72c0 .52.07 1.02.19 1.51l9.01.01" fill="#78ace8"/><path d="M29.41 24.92s3.65-2.61 4.51-6.27h-9.01c.87 3.58 4.5 6.27 4.5 6.27" fill="#203b74"/><path d="M34.08 17.65c-.8.62-5.29.32-5.29.32l-.25.69h5.39c.02-.1.04-.19.06-.28l.09-.73" fill="#e4dcdc"/><path d="M29.17 22c-.07-.52-2.17-1.07-3.29-1.02.35.59.74 1.13 1.14 1.61.57-.65 2.17-.42 2.15-.59" fill="#faf22a"/><path d="M33.43 20.09c-.27.01-.75.06-1.08.24-.48.27-1.55.57-2.03.42-.48-.15-1.23.32-1.14.42.15.16 1.26-.03 1.26 1.03 0 .89-1.28.49-1.78.86-.3.22-.52.46-.63.62.78.79 1.4 1.24 1.4 1.24s1.46-1.04 2.75-2.73l.61-.87c.22-.39.44-.8.64-1.23" fill="#faf22a"/><path d="M27.76 17.59h.19v2.25h-.19z"/><path d="M28.38 20.27s-.08.02-.21.03v-.18h-.13v.19c-.13.01-.29.03-.46.03-.18 0-.36-.01-.51-.03v-.18h-.14v.17c-.12-.02-.2-.03-.2-.03s-.04.23.84.23c.88-.01.81-.23.81-.23" fill="#734911"/><path d="M29.16 13.26s-.73-.46-1.72-.24c-.99.22-1.21.9-1.21.9l.34-.17.01.15.3-.2.01.15.26-.26.04.17.23-.22.02.12.38-.26v.17l.3-.15-.03.16.56-.11s-1.33.48-1.51 1.63l.26-.33.03.16.16-.35.04.14.15-.32.04.19.22-.35.02.2.26-.38v.18l.27-.32-.01.24s.26-.24.35-.24l-.32.44.1.03s-.22.2-.24.23c-.02.04.15 0 .15 0s-.2.22-.21.29c-.01.06.13 0 .13 0s-.18.25-.21.34c-.02.09.09.02.09.02s-.11.3-.12.38c-.01.08.13-.02.13-.02l.08.51.14-.61.09.14v-.43l.08.07-.01-.29.1.11-.05-.35.11.14-.02-.3.11.12v-.39l.1.1.02-.27.12.06s.02-.32.15-.31c.14.01.31.17.24.24l.12-.04-.02.31.11-.07-.02.23.09-.05-.03.3.11-.07.01.36.13-.1-.01.42.13-.11v.35l.12-.09.13.34-.03-.51.09.08-.17-.36.13-.02-.14-.24.13.01-.19-.24.13-.03-.28-.22.16-.07-.29-.2.11-.05-.21-.21.21.09.07-.15.26.22v-.22l.22.33.03-.2.17.26.04-.12.12.26.06-.19.12.28.03-.19.11.31.11-.12.05.31.1-.12.09.28.12-.1.1.31s.28-1.68-2.14-1.71l-.71-.16" fill="#3e926f"/><path d="M28.05 11.77l.14.18-.07.06.23.14-.05.1.23.09-.09.07.21.13-.14.05.25.13-.03.12.21.06-.09.08.25.21.28.21.2-.07-.08-.41c-.01 0-.82-1.2-1.45-1.15" fill="#3e926f"/><path d="M28.79 10.61l.09.24-.13.03.29.31-.23.01.28.24-.14.05.26.28-.14.07.27.29-.18.07.3.3h-.16l.18.25-.16.06s.2.4.19.56l.33.02s.05-1.07.01-1.21l-.09.07.03-.39-.13.08-.02-.46-.13.15-.03-.45-.09.16-.09-.44-.1.14-.09-.29-.11.1-.21-.24" fill="#3e926f"/><path d="M29.65 13.3c.09-.65.72-1.59 1.89-1.62l-.27.15.15.07-.31.12.15.1-.37.03.19.14-.27.04-.21.05.15.16-.31.04.2.11s-.49.18-.52.24c0 0 1.64-.45 2.04.39l-.32-.15.03.16-.22-.17.03.13-.23-.13.03.16-.24-.15.05.14-.31-.16.05.15-.27-.09.03.16-.27-.02.03.18-.82-.02-.08-.21" fill="#3e926f"/><path d="M29.4 13.86l.17-.01c-.08 1.76-.01 4.28.22 5.22.38 1.59 1.47 2.2 1.73 2.35.15.09.09.44-.21.42-.3-.03-1.33-.85-1.69-2.33-.47-1.99-.24-5.45-.22-5.65" fill="#734911"/><path d="M27.12 16.55h-.2c-.02-.09-.05-.16-.12-.2a.202.202 0 0 0-.11-.03c-.08 0-.14.04-.2.13-.05.08-.08.21-.08.38s.03.29.08.36c.06.07.12.1.19.1s.13-.03.17-.08c.04-.05.07-.13.08-.22h-.23v-.23h.41v.74h-.14l-.02-.17c-.04.06-.08.11-.11.14-.05.05-.12.07-.2.07-.13 0-.24-.06-.32-.19-.09-.13-.13-.3-.13-.52 0-.22.04-.4.13-.54.09-.13.2-.2.35-.2.12 0 .23.05.3.13s.14.2.15.33M28.08 16.97v-.85h.21v.85c0 .09.01.16.03.21.02.08.08.12.16.12s.14-.04.16-.12c.02-.04.02-.11.02-.21v-.85h.21v.85c0 .15-.02.26-.05.34-.06.15-.18.22-.35.22-.17 0-.29-.07-.35-.22-.02-.08-.04-.19-.04-.34M30.16 17.5l.07-.28h.37l.06.28h.22l-.35-1.38h-.23l-.35 1.38zM32.19 17.21l.18-1.08h.3v1.38h-.19v-1.04-.11l-.19 1.16h-.2l-.18-1.16V17.51h-.19v-1.38h.3l.17 1.08" fill="#c4314c"/><path d="M27.55 19.84c.71 0 1.3-.12 1.3-.12s.09.49-1.3.49c-1.39 0-1.28-.42-1.28-.42s.58.05 1.28.05" fill="#734911"/><path d="M26.96 17.72s1.1.44 1.53 1.99c0 0-1.01-.22-1.57.02h-.32c0 .01.54-.85.36-2.01" fill="#fff"/><path d="M29.68 13.27c.11 0 .19.09.19.21s-.09.21-.19.21c-.11 0-.19-.09-.19-.21s.08-.21.19-.21" fill="#734911"/><path d="M29.37 13.21c.1 0 .18.09.18.2 0 .11-.08.2-.18.2-.1 0-.18-.09-.18-.2 0-.12.08-.2.18-.2" fill="#734911"/><path d="M29.37 13.56c.09 0 .17.08.17.18 0 .1-.08.18-.17.18-.09 0-.17-.08-.17-.18 0-.1.08-.18.17-.18" fill="#734911"/><path d="M29.6 13.46c.1 0 .18.09.18.2 0 .11-.08.2-.18.2-.1 0-.18-.09-.18-.2 0-.12.08-.2.18-.2" fill="#734911"/><path fill="#5593ce" d="M30.54 16.98h-.25l.12-.54z"/></svg>