<svg xmlns="http://www.w3.org/2000/svg" viewBox="0 0 58.93 34.37"><path fill="#cb1d23" d="M0 0h58.92v34.37H0z"/><path d="M29.46 17.19a5.204 5.204 0 0 1-2.88-6.78c.86-2.13 3-3.44 5.29-3.24-.85.42-1.4 1.43-.7 2.48.76 1.15.34 3.09-1.15 3.79-1.15.53-2.1 2.34-.56 3.75" fill="#fff"/><path fill="#cb1d23" d="M28.99 11.75l.65-1.5-1.4.83 1.62.16-1.22-1.08zM29.49 17.11c-1.95-1.18-2.05-3.83-1.06-5.3l-.13-.08c-.95 1.36-1.05 4.23 1.11 5.51l.08-.13z"/><path d="M29.46 17.19a5.213 5.213 0 1 1 10.28-.81c-.66-.68-1.79-.89-2.58.1-.86 1.08-2.84 1.28-3.96.08-.87-.93-2.87-1.27-3.74.63" fill="#fff"/><path fill="#cb1d23" d="M34.49 15.06l1.62.16-1.22-1.09.35 1.6.65-1.5zM29.54 17.19c.52-2.22 3.01-3.13 4.72-2.64l.04-.14c-1.58-.49-4.34.31-4.9 2.76l.14.02z"/><path d="M29.46 17.19a5.215 5.215 0 0 1-7.34.65 5.2 5.2 0 0 1-1.45-6.03c.13.93.93 1.77 2.14 1.43 1.33-.37 3.05.64 3.25 2.26.16 1.26 1.59 2.71 3.4 1.69" fill="#fff"/><path fill="#cb1d23" d="M24.15 15.95l-1.23-1.08.36 1.6.65-1.5-1.41.83zM29.4 17.14c-1.72 1.49-4.28.76-5.37-.63l-.12.1c1 1.32 3.69 2.3 5.59.65l-.1-.12z"/><path d="M29.46 17.19c2.79-.7 5.62 1 6.32 3.8.56 2.22-.41 4.55-2.37 5.73.44-.83.29-1.98-.89-2.42-1.29-.48-2.09-2.31-1.3-3.74.61-1.12.32-3.14-1.76-3.37" fill="#fff"/><path fill="#cb1d23" d="M33.04 21.31l.35 1.59.65-1.5-1.41.83 1.63.16zM29.49 17.27c2.27-.19 3.91 1.9 3.97 3.67l.15-.01c-.03-1.66-1.64-4.03-4.14-3.81l.02.15z"/><path d="M29.46 17.19c1.53 2.44.78 5.66-1.66 7.18a5.206 5.206 0 0 1-6.18-.48c.93.16 1.97-.34 2.02-1.59.06-1.38 1.55-2.7 3.15-2.39 1.27.23 3.09-.68 2.67-2.72" fill="#fff"/><path fill="#cb1d23" d="M26.65 21.86l-1.41.83 1.63.16-1.23-1.09.36 1.6zM29.4 17.24c.89 2.1-.6 4.3-2.26 4.91l.06.14c1.57-.54 3.33-2.8 2.34-5.11l-.14.06z"/><path d="M29.46 16.96c.13 0 .23.1.23.23s-.1.23-.23.23-.23-.1-.23-.23.11-.23.23-.23" fill="#cb1d23"/></svg>