<svg xmlns="http://www.w3.org/2000/svg" viewBox="0 0 58.92 34.37"><path fill="#fff" d="M0 0h58.92v34.37H0z"/><path fill="#2a43b6" d="M29.46 15.28l-.59 1.81.91.3z"/><path fill="#2a43b6" d="M29.46 15.28l.59 1.81-.91.3z"/><path fill="#2a43b6" d="M31.28 16.6h-1.91v.95z"/><path fill="#2a43b6" d="M31.28 16.6l-1.55 1.12-.56-.77z"/><path fill="#2a43b6" d="M27.64 16.6l1.55 1.12.56-.77z"/><path fill="#2a43b6" d="M27.64 16.6h1.91v.95z"/><path fill="#2a43b6" d="M30.58 18.73l-.59-1.81-.9.29z"/><path fill="#2a43b6" d="M30.58 18.73l-1.54-1.12.56-.77z"/><path fill="#2a43b6" d="M28.34 18.73l1.54-1.12-.56-.77z"/><path fill="#2a43b6" d="M28.34 18.73l.59-1.81.91.29zM39.01 18.14l-.59 1.82.91.29z"/><path fill="#2a43b6" d="M39.01 18.14l.59 1.82-.91.29z"/><path fill="#2a43b6" d="M40.82 19.46h-1.9v.96z"/><path fill="#2a43b6" d="M40.82 19.46l-1.54 1.12-.56-.77z"/><path fill="#2a43b6" d="M37.19 19.46l1.55 1.12.56-.77z"/><path fill="#2a43b6" d="M37.19 19.46h1.91v.96z"/><path fill="#2a43b6" d="M40.13 21.6l-.59-1.82-.91.3z"/><path fill="#2a43b6" d="M40.13 21.6l-1.54-1.12.56-.78z"/><path fill="#2a43b6" d="M37.89 21.6l1.54-1.12-.56-.78z"/><path fill="#2a43b6" d="M37.89 21.6l.59-1.82.9.3zM39.01 12.41l-.59 1.82.91.3z"/><path fill="#2a43b6" d="M39.01 12.41l.59 1.82-.91.3z"/><path fill="#2a43b6" d="M40.82 13.73h-1.9v.96z"/><path fill="#2a43b6" d="M40.82 13.73l-1.54 1.13-.56-.78z"/><path fill="#2a43b6" d="M37.19 13.73l1.55 1.13.56-.78z"/><path fill="#2a43b6" d="M37.19 13.73h1.91v.96z"/><path fill="#2a43b6" d="M40.13 15.87l-.59-1.82-.91.3z"/><path fill="#2a43b6" d="M40.13 15.87l-1.54-1.13.56-.77z"/><path fill="#2a43b6" d="M37.89 15.87l1.54-1.13-.56-.77z"/><path fill="#2a43b6" d="M37.89 15.87l.59-1.82.9.3zM19.91 18.14l-.59 1.82.91.29z"/><path fill="#2a43b6" d="M19.91 18.14l.59 1.82-.9.29z"/><path fill="#2a43b6" d="M21.73 19.46h-1.91v.96z"/><path fill="#2a43b6" d="M21.73 19.46l-1.55 1.12-.56-.77z"/><path fill="#2a43b6" d="M18.1 19.46l1.54 1.12.56-.77z"/><path fill="#2a43b6" d="M18.1 19.46h1.91v.96z"/><path fill="#2a43b6" d="M21.04 21.6l-.59-1.82-.91.3z"/><path fill="#2a43b6" d="M21.04 21.6l-1.55-1.12.56-.78z"/><path fill="#2a43b6" d="M18.79 21.6l1.55-1.12-.57-.78z"/><path fill="#2a43b6" d="M18.79 21.6l.59-1.82.91.3zM19.91 12.41l-.59 1.82.91.3z"/><path fill="#2a43b6" d="M19.91 12.41l.59 1.82-.9.3z"/><path fill="#2a43b6" d="M21.73 13.73h-1.91v.96z"/><path fill="#2a43b6" d="M21.73 13.73l-1.55 1.13-.56-.78z"/><path fill="#2a43b6" d="M18.1 13.73l1.54 1.13.56-.78z"/><path fill="#2a43b6" d="M18.1 13.73h1.91v.96z"/><path fill="#2a43b6" d="M21.04 15.87l-.59-1.82-.91.3z"/><path fill="#2a43b6" d="M21.04 15.87l-1.55-1.13.56-.77z"/><path fill="#2a43b6" d="M18.79 15.87l1.55-1.13-.57-.77z"/><path fill="#2a43b6" d="M18.79 15.87l.59-1.82.91.3zM0 0h58.92v11.46H0zM0 22.92h58.92v11.46H0z"/></svg>