<svg xmlns="http://www.w3.org/2000/svg" viewBox="0 0 58.92 34.37"><path fill="#fff" d="M0 11.46h58.92v11.46H0z"/><path fill="#1e2788" d="M0 22.92h58.92v11.46H0z"/><path fill="#cb0028" d="M0 0h58.92v11.46H0z"/><path d="M22.63 11.29c2.11-.75 4.45-1.15 6.74-1.16 2.29-.01 4.62.35 6.92 1.18L38 7.85l-1.2-2.1s-2.15.89-2.17.89-1.52-1.65-1.52-1.65l-1.92 1.16-1.81-1.38-1.7 1.36-1.98-1.15-1.45 1.72-2.17-.93-1.16 2.08 1.71 3.44z" fill="#fff"/><path d="M36.32 11.37l-.04-.02c-2.18-.78-4.48-1.18-6.85-1.18-2.33.01-4.66.41-6.77 1.16l-1.78-3.47 1.16-2.13 2.23.91 1.39-1.71 2.05 1.14 1.65-1.36 1.87 1.38 1.87-1.17c.64.65 1.52 1.61 1.57 1.65.02-.03 1.54-.65 2.12-.89l1.27 2.12-1.74 3.57zM22.06 5.81l-1.1 2.06 1.72 3.39c2.06-.78 4.4-1.18 6.69-1.19 2.42 0 4.72.39 6.9 1.17l1.69-3.42-1.2-2.05c-2.1.91-2.11.91-2.13.91-.03 0-.04 0-1.55-1.67l-1.86 1.17-1.87-1.38-1.64 1.36-2.04-1.15-1.38 1.71-2.23-.91z" fill="#cb0028"/><path d="M33.63 10.33l.98-3.47 2.1-.85 1.11 1.86-1.59 3.25c-.91-.36-1.4-.52-2.6-.79" fill="#3a7aa1"/><path d="M36.24 11.14h-.01c-.9-.36-1.38-.52-2.6-.79l.97-3.49L36.71 6l1.12 1.87-1.59 3.27zm.46-5.13l-2.09.86-.98 3.47c1.21.26 1.69.41 2.58.77l1.59-3.24-1.1-1.86z" fill="#4c73d5"/><path d="M28.09 9.96l-.33-3.6 1.67-1.33 1.75 1.33-.31 3.6c-.97-.05-1.65-.05-2.78 0" fill="#3a7aa1"/><path d="M30.88 9.97h-.01c-.96-.05-1.65-.05-2.78 0l-.34-3.61 1.68-1.34 1.76 1.32-.31 3.63zm-1.46-4.93l-1.66 1.33.34 3.59c1.1-.07 1.8-.06 2.75-.01l.31-3.59-1.74-1.32z" fill="#4c73d5"/><path d="M22.71 11.12l-1.56-3.29L22.2 6l2.16.94.91 3.4c-.99.21-1.51.38-2.56.78" fill="#3a7aa1"/><path d="M22.71 11.13l-1.56-3.31L22.19 6l2.17.93.92 3.41c-1.01.22-1.55.4-2.57.79zm-.52-5.11l-1.02 1.81 1.55 3.27c1.01-.39 1.54-.56 2.54-.77l-.92-3.38-2.15-.93z" fill="#4c73d5"/><path d="M22.38 9.46c.48.05.81.02 1.23-.12.49-.23.64-.49.79-.71.12.42.07.81-.48 1.13-.5.27-1.21.19-1.54-.3" fill="#fff"/><path d="M23.31 9.92c-.4 0-.74-.16-.93-.45h.4c.29 0 .54-.04.83-.14.45-.21.61-.45.75-.66v.01c-.14.24-.31.47-.75.68-.41.14-.75.17-1.23.12.31.41 1.02.55 1.53.28.45-.26.54-.57.52-.85.05.28-.04.6-.51.87-.18.09-.4.14-.61.14" fill="#fff"/><path d="M29.88 6.92l-.09.02v.17l-.12.03-.07.15.05.05c0 .01-.04.11-.04.11l.03.04.03.09.08.01.02.11.12.02.11.08.01.05h.13l.09.03.31-.03.04-.06V7.7h.17l.02-.14h.09l-.01-.16.07.01-.02-.09-.05-.06-.01-.1-.13-.13-.03-.17-.08-.04v-.1l.1-.13-.01-.05h-.09l-.07.05-.09.01v.04l.02.07h-.1v-.12l-.14-.07-.13.09-.01.1-.06.02-.07-.09-.11-.04h-.06v.07l.12.15-.02.1z" fill="#fbfc2b"/><path d="M30.23 7.9l-.24-.03-.01-.07-.1-.06-.11-.01-.04-.13-.06.01-.07-.22.05-.06-.07-.02.07-.18.14-.04-.03-.14.12-.05-.01-.07-.11-.13-.01-.1v-.03l.09.01.12.05.08.1.02-.1c0-.02 0-.02.14-.11l.17.07.02.14.04-.03-.02-.04c0-.07 0-.08.11-.09l.05-.05.11-.01h.02l.01.08-.1.15.01.1c0-.02.07.01.07.01l.05.19.12.11.08.24-.1.03.04.13-.12.03.01.11-.19.03.02.06-.05.08-.32.04zm-.09-.08l.09.03.3-.04.02-.05v-.07l.19-.03-.01-.11.12-.03-.04-.13.1-.02-.09-.09-.02-.11-.12-.11-.04-.18c-.08-.02-.08-.02-.08-.04l-.01-.11.1-.15-.05-.01-.05.05c-.02.01-.09.01-.1.02.04.08.04.08.04.09l-.13.03-.03-.16-.12-.04c0 .01-.08.07-.1.08.01 0 0 .08 0 .08v.02l-.08.02-.1-.1-.1-.03-.02.04.11.14-.01.11-.11.05.03.14-.14.05-.07.14c.06.04.06.04.03.11-.03 0-.02.01.01.05l.03.1.05-.01.04.13h.1l.14.09.01.06.11-.01z" fill="#c2a21f"/><path fill="#c2a21f" d="M29.65 7.32l.14-.01.02.12.05.04.01.22.04.02.01-.09h.11l.02.17-.03.03.01.02h.13l.03-.05h.07l.03.05.02-.07.06-.02.06.08.09-.01-.06-.05-.02-.12.13-.07.05.09h.05l-.06-.1v-.2l.1-.13.13-.01v-.06l-.13-.12-.04-.17-.08-.04-.02.02-.08.01.08.12v.08l.04.02v.22l-.1.02-.01.12-.06.06-.03.12-.06.07h-.1l-.06-.06-.02-.09-.04-.01-.02-.09-.07-.04-.01-.06-.07-.03-.01-.05-.03-.02-.01-.14.07-.01-.04-.05-.01-.03v-.05l.05-.04-.09-.01-.09.03v.17l-.11.03-.08.13z"/><path d="M30.01 7.87L30 7.83v-.21l-.08.03.01.07-.01.03-.08-.03-.02-.25-.07-.15-.12.03-.04-.05.08-.17.11-.04c-.01-.01-.01-.12-.01-.14.03-.03.09-.06.1-.07.04-.01.11.01.11.01l-.04.15-.04-.02.04-.07c-.02.01-.04 0-.05 0 .02.01-.03.02-.07.03.01.02 0 .06 0 .14l-.12.06-.07.12.15-.01.06.14.06.27v-.07l.13-.03.05.2-.02.03.13-.02v.06h-.18zm.42-.01c-.09-.1-.09-.1-.09-.11l-.04.03v.02-.05c.07-.03.07-.03.08-.03.03.03.08.1.08.1l.07-.02h-.07l-.03-.13.01-.01h-.02l-.03.06-.13.01c-.09-.07-.09-.08-.09-.09l-.01-.08c-.04.01-.04.01-.07-.1l-.07-.03v-.07l-.07-.01-.01-.06c-.04 0-.04 0-.04-.17v-.04l.09-.01.06.05-.1.02c.01.02.01.09.01.1l.11.09.01.07.06.02c.01.02.03.09.04.11.05.02.06.11.06.11l.05.04.08-.01c.04-.07.04-.07.05-.07-.02 0 .01-.09.01-.09l.07-.07v-.1c0-.03 0-.03.12-.04l-.06-.29-.08-.11.11-.05.11.02.05.19.14.11v.07l-.16.04-.08.12.01.18s.04.07.05.08l-.09.04-.08-.1-.09.08.08.12-.1.06zm.1-.51c.01.01.01.1.01.1l-.07.08c-.02.09-.03.11-.04.12l.13-.09.03.04s0-.01-.01-.01v-.21l.03-.04c-.03 0-.07.01-.08.01m.05-.48l-.09.03.11.08.03.32.05-.08.16-.03-.15-.13-.04-.18-.07-.01z" fill="#c2a21f"/><path d="M30.18 7.54l.07-.04v-.08l-.07-.02-.03-.02.07.01.09-.01.03-.01c-.01.03-.02.03-.03.03l-.05.03v.07l.16.02s0 .03-.01.03l-.16-.04-.1.06.03-.03z" fill="#613f21"/><path d="M30.14 7.62l.03-.08.08-.05-.02-.08.04.01v-.01l.06-.02v.01l-.04.04.01.06c.16.01.16.01.16.02-.02.04-.03.04-.19.01l-.13.09zM30.58 7.08l-.09.07-.06.1h-.03l-.09-.12h-.1l-.05.14-.04-.01-.12-.1-.03-.06h.27v-.13s-.04-.01-.06-.03c.01-.01.14-.01.14-.01l-.05.04v.11h.31z" fill="#c2a21f"/><path d="M30.15 7.31l-.05-.01-.14-.14-.02-.08.29-.01-.03-.09.03-.02c-.01 0-.02.01-.03.01-.03-.06.02-.06.11-.06h.09l-.13.09.01.08.28-.05-.14.22-.06.01-.09-.12-.07.01c.01.01-.03.11-.03.12l-.02.04zm.11-.21l-.29.03.16.13c.01-.02.02-.05.05-.13l.09-.01-.01-.02z" fill="#c2a21f"/><path d="M30.1 7.14h.02c.01 0 .02.01.02.02v.02c0 .01-.01.02-.02.02h-.02c-.01 0-.02-.01-.02-.02v-.03c0-.01.01-.01.02-.01M30.39 7.12h.02c.01 0 .02.01.02.02v.02c0 .01-.01.02-.02.02h-.02c-.01 0-.02-.01-.02-.02v-.02c0-.01.01-.02.02-.02" fill="#613f21"/><path d="M29.97 6.95l-.03-.02.01-.04c.09-.03.16-.06.28-.07.12-.01.21 0 .31.02-.11.04-.19.02-.3.03-.11.02-.18.05-.27.08M30 6.73h-.08l-.11-.12.06.01.07.03z" fill="#c2a21f"/><path fill="#c2a21f" d="M30.05 6.76h-.13l-.19-.18.23.05zM30.48 6.69l.18-.14-.06-.01-.07.06-.08.02zM30.37 6.71l-.28.01v-.03l.1-.01.02-.04h.03l.02.04.1.02z"/><path fill="#c2a21f" d="M30.06 6.75v-.06l.13-.04-.05.04h.09l-.02-.04.16.02.02.04-.02.03zM30.36 6.61h-.1l-.01-.05zM30.19 6.56v.05l-.1.02zM29.66 7.52l.04-.12-.04-.08-.04.12zM29.75 7.58l.06-.14-.11.12z"/><path fill="#c2a21f" d="M29.77 7.63l-.08-.05.1-.15-.07.15h.03l-.02-.01.06-.15z"/><path d="M28.33 6.97l-.09.02v.17l-.12.03-.08.15.05.05c0 .01-.04.11-.04.11l.03.04.03.09.08.01.02.11.12.02.11.08.01.05h.13l.09.03.31-.03.04-.07v-.09l.17-.01.01-.14h.09l-.01-.16.07.01-.02-.08-.03-.05-.01-.1-.13-.13-.03-.17-.08-.04-.01-.11.1-.13-.01-.05h-.09l-.07.05-.09.01v.04l.02.07h-.1v-.11l-.14-.07-.13.09-.01.1-.06.02-.06-.08-.11-.04h-.06v.07l.12.16-.02.08z" fill="#fbfc2b"/><path d="M28.68 7.96l-.24-.03-.01-.07-.1-.06-.11-.02-.04-.13-.05.01-.07-.2c.01-.03.02-.06.02-.07l-.05-.06.08-.15.14-.04-.03-.14.12-.05-.01-.07-.13-.14v-.12l.09.01.12.04.08.11.02-.1c0-.02 0-.02.14-.11l.17.07.02.14.04-.03-.02-.05c0-.08 0-.08.11-.09l.05-.05h.13l.01.08-.1.15.01.09c0-.02.07.01.07.01l.05.19.12.11.08.24-.1.03.04.13-.12.03.01.11-.19.03.02.06-.05.08-.32.06zm-.09-.09l.09.03.3-.03.02-.05v-.07l.19-.03-.01-.11.12-.03-.04-.13.11-.02-.09-.09-.01-.11-.12-.11-.05-.19c-.08-.02-.08-.02-.08-.04l-.01-.11.1-.15-.07-.01-.04.04c-.02.01-.09.01-.1.02.04.08.04.08.04.09l-.13.03-.03-.14-.12-.04c0 .01-.08.07-.1.08.01.01 0 .09 0 .09v.02l-.08.02-.1-.11-.1-.03-.02.04.11.14-.01.11-.12.05.03.14-.14.05-.06.14c.06.03.06.04.03.12-.02-.01-.02-.01.02.04l.03.1.05-.01.04.13h.1l.14.09.01.06.1-.02z" fill="#c2a21f"/><path fill="#c2a21f" d="M28.1 7.37l.13-.01.03.12.05.04v.22l.05.02.01-.09.1-.01.02.18-.02.03.01.02h.12l.04-.05h.07l.03.05.01-.07.07-.02.05.08.1-.01-.06-.05-.02-.12.13-.06.05.08h.04l-.05-.1v-.2l.09-.13.14-.01v-.06l-.14-.12-.03-.17-.08-.04-.02.02-.08.01.08.12v.08l.04.02-.01.22-.09.02-.01.12-.06.06-.04.12-.05.07h-.11l-.06-.06-.01-.09-.04-.01-.02-.09-.08-.04V7.4l-.07-.03-.01-.05-.04-.02v-.14l.06-.01-.03-.04-.01-.04v-.04l.05-.06h-.09l-.09.03-.01.17-.1.03-.09.13z"/><path d="M28.46 7.92l-.02-.05v-.21l-.07.04.01.06v.04l-.08-.03-.03-.25-.07-.15-.11.03-.05-.05.08-.17.11-.04c-.01-.01-.01-.12-.01-.14.03-.03.09-.06.1-.07.03 0 .11.01.11.01l-.04.16-.04-.03.04-.08c-.02.01-.04 0-.05 0 .02.01-.03.02-.07.03v.14l-.13.06-.07.12.15-.02.06.14.05.27v-.07l.13-.03.05.2-.01.03.13-.02-.01.06-.16.02zm.42-.01c-.09-.1-.09-.1-.09-.11l-.04.03v.01l-.01-.04c.07-.03.07-.03.08-.03l.08.1.07-.03h-.07l-.03-.13.13-.1.03.04s0-.01-.01-.01v-.21l.03-.04c-.02.01-.06.01-.08.01.01.01.01.1.01.1l-.07.08c-.03.12-.03.12-.05.12l-.03.06-.13.02c-.1-.08-.1-.08-.1-.09l-.01-.08c-.04.01-.04 0-.07-.1l-.07-.03V7.4l-.07-.01-.01-.06c-.04 0-.04 0-.04-.17v-.02l.08-.02.06.05-.1.02c.01.01.01.09.01.1l.12.09.01.07.06.02c.01.02.03.09.04.11.05.02.06.11.06.11 0-.01.05.04.05.04l.08-.01c.04-.07.04-.07.05-.07-.02 0 .01-.1.01-.1l.07-.07v-.1c0-.03.01-.03.12-.04l-.06-.29-.08-.11.11-.05.11.01.05.19.14.12v.07l-.16.05-.08.12.01.18s.04.07.05.08l-.07.05-.08-.1-.09.07.08.12-.1.06zm.15-.99l-.09.03.11.08.03.32.05-.08.16-.03-.15-.13-.04-.18-.07-.01z" fill="#c2a21f"/><path d="M28.63 7.59l.07-.04v-.08l-.07-.02-.03-.01.07.01.09-.01.03-.02c-.01.03-.02.03-.03.03l-.05.03v.07l.16.02s0 .03-.01.03l-.16-.04-.1.06.03-.03z" fill="#613f21"/><path d="M28.58 7.66l.03-.08.08-.05-.02-.07.04.01v-.01l.06-.02v.01l-.04.04.01.06c.16.01.16.01.16.02-.02.04-.02.04-.19.01l-.13.08zM29.03 7.13l-.09.07-.06.1-.03.01-.09-.12h-.1l-.06.14h-.04l-.11-.11-.03-.06h.27v-.13s-.04-.01-.06-.02c.01-.01.14-.01.14-.01l-.05.04v.11h.23l.08-.02z" fill="#c2a21f"/><path d="M28.59 7.36l-.04-.01-.14-.14-.01-.07.29-.01-.03-.09.03-.02c-.01 0-.02.01-.03.01-.03-.05.02-.06.11-.06h.09l-.13.09.01.08.28-.04-.14.22h-.06l-.09-.12-.07.01c.01.01-.03.11-.04.12l-.03.03zm.12-.21l-.29.03.16.13c.01-.02.02-.06.05-.13l.08-.01v-.02z" fill="#c2a21f"/><path d="M28.55 7.19h.02c.01 0 .02.01.02.02v.02c0 .01-.01.02-.02.02h-.02c-.01 0-.02-.01-.02-.02v-.02c0-.01.01-.02.02-.02M28.84 7.17h.02c.01 0 .02.01.02.02v.02c0 .01-.01.02-.02.02h-.02c-.01 0-.02-.01-.02-.02v-.02c0-.01.01-.02.02-.02" fill="#613f21"/><path d="M28.43 7l-.04-.02.01-.03c.08-.03.15-.06.27-.07.12-.01.2 0 .31.02-.11.04-.19.02-.3.04-.1 0-.17.03-.25.06M28.45 6.78h-.08l-.12-.12.07.01.07.03z" fill="#c2a21f"/><path fill="#c2a21f" d="M28.5 6.81h-.13l-.19-.19.22.06zM28.92 6.74l.18-.14-.06-.01-.06.06-.08.02zM28.82 6.76l-.28.01v-.03l.1-.01.02-.04h.03l.02.04.1.02z"/><path fill="#c2a21f" d="M28.51 6.8v-.06l.13-.04-.05.04h.08l-.01-.04.15.02.03.04-.02.03zM28.8 6.66h-.09l-.01-.05zM28.64 6.61l-.01.05-.09.02zM28.1 7.57l.05-.12-.04-.08-.05.12zM28.2 7.63l.06-.14-.11.12z"/><path fill="#c2a21f" d="M28.21 7.67l-.08-.04.1-.15-.06.15h.03l-.03-.01.07-.15z"/><path d="M30.89 9.95l.31-3.6 1.91-1.1 1.48 1.6-.98 3.47c-.96-.19-1.5-.27-2.72-.37" fill="#1e2788"/><path d="M33.61 10.34h-.01c-.95-.19-1.5-.28-2.71-.37l.3-3.62 1.92-1.11 1.49 1.6-.99 3.5zm-.51-5.08l-1.89 1.1-.3 3.59c1.19.08 1.75.16 2.69.35l.98-3.46-1.48-1.58z" fill="#160080"/><path d="M29.14 8.32l-.09.02v.17l-.12.02-.08.15.05.05c0 .01-.04.11-.04.11l.03.04.03.09.08.01.02.11.12.02.11.08.01.05h.13l.09.03.31-.03.04-.07v-.09H30l.02-.14h.09l-.01-.15.07.01-.02-.07-.05-.06-.01-.1-.13-.13-.03-.17-.08-.04-.01-.11.1-.13-.01-.05h-.09l-.07.05-.09.01v.04l.02.07h-.1V8l-.14-.07-.13.09-.01.1-.06.02-.07-.09-.1-.05h-.06v.07l.12.15-.01.1z" fill="#fbfc2b"/><path d="M29.48 9.3l-.24-.03-.01-.07-.1-.06-.11-.01-.04-.13h-.06l-.08-.23-.01-.1.08-.15.14-.04-.03-.14.12-.05-.01-.07-.11-.14L29 8v-.03l.09.01.12.04.08.11.02-.11c0-.01 0-.01.14-.11l.17.07.02.14.04-.03-.02-.04c0-.08 0-.08.11-.09l.05-.05.1-.01h.02l.01.08-.1.15.01.09c0-.02.07.01.07.01l.07.2.12.11.08.24-.1.03.04.13-.12.03.01.11-.19.03.02.06-.05.08-.33.05zm-.08-.08l.09.03.3-.04.02-.05v-.07l.19-.04-.01-.11.12-.03-.04-.13.1-.02-.09-.09-.01-.11-.12-.11-.04-.18c-.08-.02-.08-.02-.08-.04l-.01-.11.1-.15-.07-.01-.05.05c-.02.01-.09.01-.1.02.04.08.04.08.04.09l-.13.03-.02-.15-.12-.04c0 .01-.08.07-.1.08.01.01 0 .09 0 .09v.02l-.08.02-.1-.11-.1-.03-.02.04.11.14-.01.11-.12.05.03.14-.14.05-.06.14c.06.03.06.04.03.11-.03 0-.02.01.01.06l.03.1.05-.01.04.13h.1l.14.09.01.06.11-.02z" fill="#c2a21f"/><path fill="#c2a21f" d="M28.9 8.72l.14-.01.03.12.04.04.01.22.04.02.01-.09.11-.01.02.18-.03.02.02.03h.12l.03-.05h.07l.03.05.02-.07.07-.03.05.09.09-.01-.05-.05-.03-.12.13-.07.05.09h.05l-.06-.1v-.2l.1-.13.13-.02v-.05l-.13-.12-.04-.17-.07-.04-.02.02-.09.01.09.12v.08l.03.02v.22l-.1.02v.12l-.06.06-.04.11-.05.07-.11.01-.06-.07-.01-.08-.05-.01-.02-.1-.07-.04v-.05l-.07-.03-.01-.05-.04-.03v-.13l.06-.01-.04-.05-.01-.04v-.04l.05-.05-.09-.01-.09.04v.16l-.1.03-.09.14z"/><path d="M29.27 9.27l-.02-.05v-.21l-.08.03.01.06-.01.04-.08-.03-.02-.25-.07-.15-.12.03-.04-.04.08-.17.11-.04c-.01-.01-.01-.12-.01-.13.03-.04.09-.06.1-.07.03-.01.11.01.11.01l-.03.14-.04-.03.04-.07c-.02.01-.04 0-.05 0 .02.01-.03.02-.06.03v.14l-.13.06-.07.12.15-.01.06.14.05.27v-.07l.13-.03.05.2-.02.02.13-.02v.06l-.17.02zm.42-.01c-.09-.1-.09-.1-.09-.11l-.03.1-.08-.06-.04.01.07-.04v.03l.05.04v-.01l-.02-.07c.07-.03.07-.03.08-.03.03.03.08.1.08.1l.07-.02h-.07l-.03-.13.14-.1.03.04s0-.01-.01-.01v-.21l.03-.04a.31.31 0 0 1-.08.02c.01.01.01.1.01.1l-.07.08c-.03.12-.03.12-.06.12.01 0-.03.06-.03.06l-.14-.01c-.09-.07-.09-.07-.09-.09l-.01-.08c-.04.01-.04.01-.07-.1l-.07-.03v-.07l-.06-.01-.01-.06c-.04-.01-.04-.01-.04-.17v-.03l.09-.01.06.05-.1.02c.01.01.01.1.01.11.03.01.04.01.05.07l.07.02.01.07.06.02c.01.02.03.09.04.1.05.02.06.11.06.11 0-.01.05.04.05.04l.08-.01c.04-.07.04-.07.05-.07-.02 0 .01-.09.01-.09l.07-.07v-.1c0-.03 0-.03.12-.04l-.08-.31-.08-.11.11-.05.11.02.05.19.14.12v.07l-.16.04-.08.12.01.18s.04.07.05.08l-.08.05-.07-.1-.09.08.08.12-.1.06zm.14-1l-.09.03.11.08.04.32.05-.07.15-.03-.15-.13-.04-.18-.07-.02z" fill="#c2a21f"/><path d="M29.43 8.94l.07-.04v-.08l-.07-.02-.03-.03.07.01.09-.01.03-.02c0 .05-.01.05-.01.05l-.05.03v.08l.16.02s0 .03-.01.03-.16-.04-.16-.04l-.1.06.01-.04z" fill="#613f21"/><path d="M29.39 9.01l.03-.08.08-.05-.02-.07.04.01v-.01l.06-.02v.01l-.04.04.01.06c.16.01.16.01.16.02-.02.05-.03.04-.19.01l-.13.08zM29.83 8.47l-.09.07-.06.1-.03.01-.09-.12h-.1l-.05.14h-.04l-.11-.11-.03-.06h.27v-.13s-.04-.01-.06-.03h.14l-.05.04v.11h.23l.07-.02z" fill="#c2a21f"/><path d="M29.4 8.71l-.04-.01-.14-.14-.02-.08.29-.01-.03-.09.03-.02c-.01 0-.02.01-.03.01-.03-.06.02-.06.11-.06h.09l-.13.09.01.08.28-.05-.14.22h-.06l-.09-.12-.07.01c.01.01-.03.11-.03.12l-.03.05zm.12-.21l-.29.03.16.13c.01-.02.02-.06.05-.13l.09-.01-.01-.02z" fill="#c2a21f"/><path d="M29.36 8.53h.02c.01 0 .02.01.02.02v.02c0 .01-.01.02-.02.02h-.02c-.01 0-.02-.01-.02-.02v-.02c0-.01 0-.02.02-.02M29.65 8.52h.02c.01 0 .02.01.02.02v.02c0 .01-.01.02-.02.02h-.02c-.01 0-.02-.01-.02-.02v-.02c0-.01.01-.02.02-.02" fill="#613f21"/><path d="M29.23 8.35l-.03-.02.01-.03c.09-.04.16-.06.28-.07.12-.01.21 0 .31.02-.11.04-.19.02-.3.03-.12.01-.19.04-.27.07M29.25 8.13h-.08l-.11-.12.06.01.08.03z" fill="#c2a21f"/><path fill="#c2a21f" d="M29.31 8.16h-.14l-.19-.19.23.06zM29.73 8.08l.18-.13-.06-.01-.07.06-.08.01zM29.62 8.11l-.28.01.01-.03.1-.01.01-.04h.03l.02.04.1.01z"/><path fill="#c2a21f" d="M29.31 8.15l.01-.06.13-.04-.06.04h.09l-.01-.04.15.02.03.04-.02.03zM29.61 8l-.1.01-.01-.06zM29.45 7.96l-.01.05-.1.01zM28.91 8.92l.05-.12-.05-.09-.04.13zM29.01 8.98l.06-.14-.12.12z"/><path fill="#c2a21f" d="M29.02 9.02l-.08-.04.1-.15-.07.14.04.01-.03-.01.06-.15z"/><path d="M31.36 9.31l-.1.11.01.09h.2c.06-.01.08-.04.09-.06.02-.03.01-.05.01-.09l-.21-.05z" fill="#cb0028"/><path d="M31.27 9.53l-.01-.11.1-.12.23.04-.01.1.01.01c-.01.03-.03.05-.1.07l-.22.01z" fill="#d30028"/><path d="M31.84 9.57l-.09.07-.01.09.18.01c.07-.01.08-.02.09-.04.02-.03.02-.03.03-.07l-.2-.06z" fill="#cb0028"/><path d="M31.92 9.75l-.18-.01v-.1l.09-.08.21.05-.03.09.01.01c-.02.02-.03.03-.1.04z" fill="#d30028"/><path d="M32.62 9.35l-.09.09v.07l.19.01c.06-.02.05-.01.07-.05.02-.03.01-.04.02-.08l-.19-.04z" fill="#cb0028"/><path d="M32.72 9.53l-.19-.01-.02-.08.1-.1.2.04-.02.09.01.01c-.02.04-.02.04-.08.05z" fill="#d30028"/><path d="M33.17 9.52l-.11.09v.09l.2.02c.06-.02.07-.03.08-.06.02-.03.01-.04.02-.08l-.19-.06z" fill="#cb0028"/><path d="M33.26 9.73l-.2-.02-.01-.1.11-.1.21.06-.01.1c-.02.03-.03.04-.1.06z" fill="#d30028"/><path d="M31.83 7.16l.38.25c.07-.06.22-.02.28-.01.1.03.18.09.27.1.16.04.36.07.51.05.15-.02.27-.09.38-.15v-.03h-.07c-.12.04-.29.05-.41.03-.14-.02-.17-.08-.37-.13l-.02-.04c.23.01.28 0 .38-.04.1-.02.14-.08.19-.12v-.04h-.07c-.08.06-.14.07-.28.06-.13-.02-.24-.09-.32-.09-.09 0-.09-.04-.17-.05-.14-.01-.29.01-.42.04-.16.05-.18.09-.26.17" fill="#cb0028"/><path d="M33.17 7.57c-.12 0-.27-.02-.42-.06-.05-.01-.09-.03-.14-.05a.502.502 0 0 0-.13-.05c-.13-.04-.22-.03-.26 0l-.39-.25c.09-.11.12-.14.26-.18.15-.04.29-.05.42-.04.05 0 .07.01.09.03.02.01.04.02.08.02s.09.02.14.04c.06.02.12.04.18.05.13.01.18.01.28-.05l.07.01v.02h-.01l-.03.07c-.04.03-.08.07-.15.09a.5.5 0 0 1-.23.04h-.06l.06-.03c.1 0 .15-.01.22-.04.07-.02.11-.05.15-.08l.04-.05c-.17.04-.21.05-.34.04-.07-.01-.13-.03-.19-.05-.05-.02-.1-.03-.13-.04-.05 0-.07-.01-.1-.02a.155.155 0 0 0-.08-.02c-.13-.01-.27 0-.41.04-.13.04-.17.07-.22.13l.35.26c.02-.04.14-.05.27-.01.05.01.09.04.13.05.04.02.09.04.13.05.19.05.37.07.51.05.13-.01.23-.07.33-.12l-.01-.04c-.15.05-.3.04-.42.03-.07-.01-.11-.03-.17-.06-.05-.02-.1-.05-.19-.07l.04-.02c.08.03.12.05.16.07.05.02.09.05.16.05.11.01.26.03.41-.03h.08l-.05.09c-.1.05-.21.11-.34.13h-.09" fill="#ba0019"/><path d="M31.91 7.1c.04.01.08.02.11.04s.02.02.05.04c-.01-.03 0-.03-.02-.05-.02-.02-.05-.04-.08-.06l-.06.03zM32.22 7.37c0-.03-.02-.06-.03-.09a.177.177 0 0 0-.05-.08c.03.01.05.02.07.05.03.03.02.06.03.1l-.02.02zM32.29 6.97c.01.03.03.04.04.09.01.04.02.1.02.1v-.1l-.03-.09h-.03zM32.6 6.99l.01.18.02-.17zM32.52 7.37c.01-.03.01-.06 0-.09 0-.03-.01-.06-.02-.09.03.03.04.06.06.09 0 .03-.01.06-.04.09M32.84 7.29s.01.06 0 .1c-.01.04-.02.05-.05.07.04-.03.07-.03.08-.06 0-.04-.03-.11-.03-.11M32.89 7.23c-.02 0-.03-.09-.04-.13.01 0 .02 0 .03.02.01.01.01.07.01.11M33.11 7.19l.01-.07h.02v.06l-.03.01M33.09 7.39c.01.02.04.05.04.08s-.01.04-.02.07h.04c.02-.03.02-.05.02-.08 0-.02-.01-.05-.04-.07h-.04z" fill="#82373b"/><path d="M33.15 7.56h-.04l.01-.09-.04-.07c.01 0 .02 0 .02.01h-.01l.06.06c0 .03-.01.04-.02.07l.02.01-.01-.01c.02-.03.02-.05.02-.07l-.02-.06c.04.01.04.03.05.06-.01.02-.02.05-.04.09z" fill="#83353b"/><path fill="#82373b" d="M33.35 7.41l.01.11.03-.02-.01-.09z"/><path d="M31.81 7.17c-.09.03-.12.07-.16.11l-.24-.12c-.04.03-.05.08-.04.13.02.05.09.12.15.16-.01.07-.03.12-.06.17-.03.06-.08.15-.08.17 0 .03-.01.09.03.11.04.02.19-.01.23-.01-.01.02-.03.07-.02.09.01.02.02.03.06.03-.01.02-.04.05-.02.07.03.02.07.02.09.02-.02.02-.04.05-.07.07l-.13.13c-.03.05-.03.1.05.1-.03.03-.05.06-.05.09.01.03.02.06.08.04-.03.07-.01.14 0 .21-.03.06-.02.11-.02.18-.06.03-.06.07-.1.14-.03.07-.09.09-.13.23l.22.06c.01-.03.04-.05.04-.08a.17.17 0 0 0 0-.1c.04-.06.13-.19.16-.26.05-.03.08-.04.12-.04.04 0 .06.02.1.04-.02.04-.07.11-.07.19v.23c-.01.06-.07.06-.1.22l.2.05c.04-.06.09-.06.1-.09l.01-.23c.03-.11.18-.2.18-.32.05 0 .08.01.1-.01.03-.01.04-.03.06-.05.01.04.04.04.06.04.02 0 .07-.04.09-.05.01.02.02.04.05.04.03.01.11-.01.14-.01l-.16.27c-.01.02 0 .04-.01.07-.01.03-.04.04-.05.06l.18.04.03-.08c.04-.02.07-.03.09-.05.02-.02.02-.07.03-.1.08-.03.18-.13.25-.21.05.01.11.05.14.1 0 .06.01.18-.02.26l-.12.18-.02.03.19.07.12-.09.01-.13c.06-.1.14-.16.23-.23l.01-.15c-.02-.02-.03-.01-.04-.03-.01-.03 0-.11 0-.14.01-.02.04-.03.04-.05-.03-.04-.02-.13-.01-.2 0-.08.11-.18.13-.22l.01-.09c-.01-.02-.03-.04-.03-.05 0-.02.02-.05.03-.07l.02-.04v-.21c-.01-.02-.03-.06-.05-.06-.02 0-.05.02-.07.04l-.11.08c-.05.02-.1.02-.19 0h-.14c-.07.02-.11.02-.18-.01h-.08c-.03.01-.06.04-.09.04-.03.01-.07.01-.09 0-.21.01-.16.03-.22.04-.05.01-.04-.02-.22-.02l-.08-.02a.646.646 0 0 1-.23-.28c.2-.06.28-.11.34-.25l-.28.02-.39-.27z" fill="#fbfc2b"/><path d="M32.05 9.62l-.2-.05c.01-.13.04-.17.07-.2l.02-.27c0-.06.02-.1.04-.14l-.06-.09c-.03 0-.06.01-.11.04-.02.06-.11.19-.15.26.01.01.01.06 0 .1l-.06.09-.23-.06c.01-.12.05-.16.08-.2l.06-.1c.02-.04.04-.07.08-.09-.03.05-.04.07-.05.1-.04.07-.05.09-.07.11-.03.03-.06.07-.08.17l.21.04.03-.07a.17.17 0 0 0 0-.1c.04-.07.13-.2.16-.27.09-.05.15-.06.21-.02.03.05.02.07.01.09-.03.04-.05.09-.05.14v.23c-.05.09-.08.12-.1.23l.18.04c.02-.03.05-.05.07-.06l.04-.25c.01-.06.05-.1.09-.15.05-.05.09-.11.09-.17h.05l.02-.01.04.02-.09.01c0 .06-.05.12-.1.17-.04.05-.07.09-.08.14l-.01.23c-.06.03-.08.04-.11.09zm1.33-.05l-.2-.07.13-.23c.02-.05.02-.14.02-.25a.154.154 0 0 0-.13-.09c-.06.07-.16.17-.22.22l-.03.1c-.02.02-.05.03-.08.04l-.04.08-.2-.04.05-.07-.01.04.15.06.01-.07c.06-.03.08-.04.09-.06l.04-.1c.06-.05.16-.15.23-.22.06 0 .13.04.16.11.01.12 0 .21-.02.26l-.12.19.17.08.11-.09v-.12c.05-.1.13-.16.2-.21.04-.13.04-.15.04-.16-.05-.07-.04-.15-.04-.18 0-.07.01-.16.02-.24 0-.05.05-.11.08-.16.02-.03.04-.05.04-.06l.01-.08c-.03-.07-.01-.09.01-.12l.02-.25-.09-.01-.11.08a.27.27 0 0 1-.2 0h-.14c-.06.02-.11.03-.18-.01h-.08c-.03.02-.06.04-.09.04l-.1-.01v.01c-.14.01-.16.02-.17.03h-.08c-.02-.01-.05-.02-.18-.03l-.08-.02a.855.855 0 0 1-.24-.28c.2-.07.28-.13.34-.26l-.27.03-.4-.26c-.06.02-.09.05-.12.09l-.02-.01c.04-.05.07-.08.14-.1l.4.26.27-.01c-.05.15-.13.21-.33.27.08.11.15.2.23.25l.07.02c.13 0 .17.01.19.03.07-.01.09-.02.24-.04h.09c.02-.01.05-.02.07-.03l.1-.01c.08.03.11.02.17.01h.14c.09.02.13.02.18 0l.1-.08c.01-.01.04-.04.07-.04.04.01.06.05.06.07v.21l-.06.11.02.14c-.01.02-.03.05-.05.07-.04.05-.08.1-.08.15-.01.05-.02.16.01.19.01.09 0 .16.01.19.04.04.04.04.04.17-.11.11-.18.16-.23.25v.13l-.13.09zm-.7-.31v-.08l.16-.26c-.02.02-.07.03-.11.03l-.08-.04c-.07.05-.13.09-.16 0l.07.01c.01 0 .03-.01.08-.04l.06.04c.05 0 .11-.01.14-.01l-.16.35zm-1.09-.37c0-.08 0-.12.02-.16-.02-.09-.03-.15 0-.21-.05.02-.07.01-.08-.03 0-.02.01-.05.03-.07 0 .03-.01.05 0 .07l.02-.01.05.05c-.02.06-.01.11 0 .17-.01.08-.01.11-.01.16l-.03.03m-.04-.52c-.03-.03-.02-.05 0-.08s.06-.06.1-.1l.1-.1c-.04.02-.07.02-.09 0l.03-.07.01.01.06.05-.04.08c-.09.09-.13.12-.14.14-.03.03-.03.05-.03.07m.13-.35l-.06-.04c-.01-.02 0-.05.02-.08-.01 0-.04 0-.07.01-.04 0-.08.01-.11.01-.1-.03-.09-.1-.09-.13 0-.02.01-.04.04-.09.01-.03.03-.06.04-.09.02-.05.04-.1.06-.17a.43.43 0 0 1-.15-.15c-.02-.05-.01-.1.04-.14l.16.08-.16-.06c-.02.03-.04.07-.02.11a.4.4 0 0 0 .14.15c-.01.08-.03.13-.05.19-.01.03-.03.06-.05.09-.02.03-.04.06-.04.07-.01.04-.01.09.02.1h.14c.03 0 .06-.01.08-.01l.06.15z" fill="#e8d629"/><path d="M31.71 7.52l.08.03c.01.01.03.02.04.03.01 0 .02-.01.03-.02l.07-.04c-.04-.01-.06-.03-.1-.03-.04-.01-.07.02-.12.03" fill="#624e0f"/><path d="M31.83 7.59l-.12-.06h.01v-.01h.01c.06-.04.09-.05.11-.05l.07.03h-.08l-.1.03.1.05v-.01.01l.02-.02.07-.04.02.02-.11.05z" fill="#624e0f"/><path d="M31.86 8.44c0 .01-.01.01-.02 0-.01-.09-.03-.16-.05-.23.02.06.05.15.07.23M32.32 8.46c.01 0 .04 0 .04-.01.01-.02-.01-.04-.02-.06-.03-.05-.04-.11-.05-.13-.01-.01-.02-.01-.02.01.01.03.04.17.05.19M32.57 8.43c0 .01-.04 0-.04-.02 0-.03-.05-.2-.04-.21.01 0 .04.06.05.09 0 .01.02.08.03.14M32.53 8.8c0 .01.03 0 .04-.01.04-.05.08-.11.09-.13.01-.02.05-.17.03-.17 0 0-.04.07-.08.15-.04.08-.08.15-.08.16" fill="#c2a21f"/><path d="M32.54 8.82l-.02-.01c-.01-.02-.01-.02.08-.18l.05-.1h.01l-.04.11c-.07.12-.08.15-.08.15v-.01.02l.08-.1c.03-.05.05-.13.06-.17.03.02-.01.13-.01.13l-.13.16zM32.79 8.72c-.01.01.02-.13.03-.15.01-.04.02-.1.03-.19.02.12-.01.25-.06.34" fill="#c2a21f"/><path d="M32.79 8.74l-.01-.01c-.01-.01-.01-.02.02-.11l.04-.24c.04.13.02.26-.04.34l-.01.02zM32.94 8.32c-.01.01-.12-.17-.11-.17 0-.01.09.11.1.14.01 0 .02.01.01.03M33.2 8.45c-.01-.01-.01-.06-.02-.13a1.19 1.19 0 0 1-.04-.14c.01-.01.02 0 .04.01.01.03.02.17.04.25-.01.01-.01.02-.02.01M33.37 8.29c-.01-.01.02.06.05.15.02.09.04.24.04.22.02-.01.02-.03.04-.03.02-.01.12 0 .11 0-.06-.05-.11-.09-.15-.15-.04-.06-.06-.13-.09-.19" fill="#c2a21f"/><path d="M33.46 8.68h-.01l-.01-.08-.03-.16c-.01-.05-.03-.09-.04-.11 0-.01-.01-.02-.01-.02.02.02.03.04.04.06.02.03.04.07.07.11.03.05.07.08.12.12l-.13.08z" fill="#c2a21f"/><path d="M34.28 8.02c.54.11 1.04.24 1.54.4.5.16.97.35 1.46.56l-.81 1.64c-.45-.17-.9-.31-1.34-.46-.45-.14-.88-.27-1.33-.41l.48-1.73z" fill="#fff"/><path d="M36.47 10.64c-.4-.15-.78-.27-1.15-.39l-.2-.06c-.3-.1-.61-.19-.91-.28l-.42-.13.48-1.75c.56.11 1.06.24 1.55.4.54.17 1.04.38 1.46.56l-.81 1.65zm-2.19-2.6l-.47 1.73.41.11c.3.09.61.18.91.28l.2.06c.38.12.75.24 1.14.39l.8-1.62c-.41-.16-.91-.37-1.45-.55-.49-.16-1-.29-1.54-.4" fill="#fff"/><path d="M34.17 8.41s.75.17 1.48.4c.73.24 1.44.54 1.44.54-.01 0-.46.93-.46.93-.44-.18-.9-.34-1.36-.49-.46-.15-.91-.29-1.38-.4l.28-.98z" fill="#cb0028"/><path d="M36.64 10.3h-.01c-.42-.17-.88-.33-1.36-.49-.43-.14-.9-.28-1.38-.4l.27-1.01c.04 0 .78.16 1.5.4.48.15 1.3.46 1.43.54-.07-.01-.73-.29-1.44-.51-.72-.23-1.47-.4-1.48-.4l-.26.97c.47.1.94.24 1.37.38.48.15.93.31 1.35.48.4-.82.45-.92.46-.93.01.01.02.01.02.01-.02.03-.34.68-.46.93l-.01.03z" fill="#d30028"/><path d="M34.24 8.87c.07-.04.12-.05.16-.12h.27v.1c.07.03.1.07.17.1.07.02.16.05.23.08l.57.05c.08.01.19.04.26.08.06.04.1.09.14.15.12.04.24.07.36.08.12.02.27.03.39.03.06.02.06.05.03.08 0 0-.07.09-.24.09-.18 0-.38-.1-.46-.09 0 .05.1.16.2.21v.25l-.05.05-.05-.04c.04-.06.03-.13.01-.19-.04-.06-.04-.08-.12-.08a.594.594 0 0 1-.26-.12l-.05.02a.24.24 0 0 1-.1.1l-.11-.01-.26-.06v-.04h.1c.05.01.17.01.17.01v-.1l.17-.01c-.03-.12-.05-.2-.21-.22l-.51.01.01.07c-.13-.02-.35-.02-.47.02-.07.01-.17.04-.21.04l-.06-.01c-.03-.01-.03-.02-.02-.05.22-.02.25-.03.32-.06a.15.15 0 0 0-.03-.07c-.14-.01-.25 0-.28 0-.06-.02-.14-.05-.14-.05l-.01-.06.09.02c.09.02.25.01.29-.01v-.07c0-.04-.03-.06-.04-.07-.01 0-.15-.02-.2-.02-.07-.01-.06-.05-.06-.09"/><path d="M36.26 10.04L36.2 10c.04-.07.02-.14.01-.2-.04-.06-.05-.07-.11-.07a.77.77 0 0 1-.24-.1c.12.04.17.06.24.08.07 0 .08.03.11.07.04.09.05.16 0 .23l.04.03-.01-.01.05-.05v-.24c-.1-.03-.2-.15-.2-.21.07-.02.13 0 .2.02.09.03.19.05.28.05.17 0 .23-.08.24-.08-.14-.06-.29-.07-.41-.09-.12-.02-.24-.04-.36-.08a.36.36 0 0 0-.15-.15.809.809 0 0 0-.25-.08l-.57-.05a.252.252 0 0 0-.12-.07c-.04-.02-.08-.03-.11-.04-.03-.02-.06-.03-.09-.05-.03-.02-.05-.03-.08-.05l-.01-.11-.26.01c-.02.05-.06.07-.11.09-.04.06-.04.09.02.1.01-.01.19.01.21.02.01 0 .04.04.04.08v.07c-.06.05-.22.04-.31.02l-.05-.02.01-.01c.21.05.3.02.33 0l-.01-.06c-.04-.06-.17-.08-.22-.08-.09-.02-.08-.06-.08-.1l.05-.04c.05-.03.08-.04.11-.09l.28-.01.02.11c.03 0 .05.02.08.04s.05.03.09.05c.03.02.07.03.11.05.03.01.07.02.1.04l.57.05c.07.01.19.04.26.09.06.03.11.08.15.15a2.561 2.561 0 0 0 .74.11h.01l.05.05c-.02.06-.09.15-.27.15-.1 0-.2-.03-.29-.05a.613.613 0 0 0-.16-.03c0 .03.09.14.19.18v.27l-.06.05zm-.56-.33l-.12-.01c-.27-.06-.27-.06-.27-.07.01-.06.02-.06.11-.06.06.01.17.02.17.02l-.01-.09.12-.02-.1.03.02.08a.59.59 0 0 1-.19 0h-.09c.01.03.26.08.26.08l.11.01c.05-.02.07-.05.09-.09.01.01.03.01.04.02-.05.04-.08.07-.14.1m.06-.24c-.04-.11-.07-.17-.21-.19l-.5.01.02.06c-.07.01-.14 0-.21 0-.11 0-.21.01-.27.03-.04 0-.07.01-.11.02-.04.01-.08.02-.1.02l-.09-.04c.02 0 .03-.01.04-.01l.05.04V9.4c.02 0 .06-.01.1-.02.04-.01.08-.02.11-.02.08-.03.21-.03.27-.03.07 0 .15 0 .2.01l-.02-.06.52-.03c.16.03.18.11.22.21l-.02.01zm-1.36-.12c.13-.04.16-.05.21-.08l-.13-.05h-.18c-.03-.01-.15-.04-.15-.06l.02-.02c.03.03.09.05.13.06H34.58c.02.01.05.06.05.08-.06.04-.09.06-.23.07"/><path d="M35.34 9.46c.08.02.13.03.25.04l.17-.01c-.03-.12-.05-.2-.21-.22l-.51.01.01.07.29.11" fill="#fff"/><path d="M35.59 9.52c-.11-.01-.17-.02-.25-.04-.09-.04-.16-.07-.28-.11l-.01-.08.52-.03c.16.03.18.11.22.21h-.01c-.04-.11-.07-.17-.21-.19l-.5.01.02.06c.11.03.19.07.24.09.11.04.17.05.28.06l.13-.01-.15.03z"/><path d="M25.29 10.33l-.92-3.41 1.39-1.69 1.96 1.12.33 3.61c-.99.08-1.63.17-2.76.37" fill="#1e2788"/><path d="M25.29 10.35v-.01l-.91-3.41 1.4-1.7 1.97 1.11.34 3.62c-1.02.09-1.68.19-2.78.38l-.02.01zm.48-5.11l-1.38 1.69.91 3.39c1.09-.19 1.75-.29 2.76-.37l-.34-3.6-1.95-1.11z" fill="#160080"/><path d="M22.02 7.49l.33.26-.06.46.43-.18.34.26.05-.42.35-.14-.29-.28.07-.42-.42.15c0-.01-.31-.26-.31-.26l-.07.39-.42.18z" fill="#fbfc2b"/><path d="M23.08 8.32l-.36-.28-.42.18.04-.47-.33-.25.42-.19c.06-.38.06-.39.06-.39.02 0 .33.25.33.25.01-.01.41-.15.41-.15l-.04.43.29.27-.36.17-.04.43zm-.36-.31l.33.25.04-.39.36-.15-.3-.25.06-.43c-.4.17-.4.17-.41.17a4.03 4.03 0 0 0-.32-.26c.02.01-.05.38-.05.38l-.42.18.34.23-.06.47.43-.2z" fill="#f4c627"/><path d="M22.03 7.49l1.43.23-.36.15-.35-.24s.31.65.3.64c0 0-.33-.24-.34-.25l.03-.4s-.46.58-.46.57.07-.45.07-.45l-.32-.25z" fill="#f4c427"/><path fill="#f4c627" d="M22.43 7.33l.33.28-.26-.68zM22.81 7.2l-.05.42c.03-.04.48-.57.47-.57 0-.01-.41.15-.42.15"/><path d="M35.69 6.91l.08.41-.35.31.45.14.09.42.31-.29.36.12-.04-.4.32-.28-.42-.15s-.06-.39-.07-.39c-.01 0-.31.26-.31.26l-.42-.15z" fill="#fbfc2b"/><path d="M35.96 8.21l-.1-.44-.44-.13.34-.33-.09-.4.44.12c.3-.26.3-.26.31-.26.02.01.09.4.08.41.02 0 .42.13.42.13l-.32.3.04.39-.37-.1-.31.31zm-.27-1.29l.1.4-.35.32.44.11.09.4.3-.27.37.12-.06-.39.33-.29c-.42-.13-.42-.13-.43-.14 0-.02-.06-.37-.07-.39 0 .02-.29.26-.29.26l-.43-.13z" fill="#f4c627"/><path d="M35.7 6.92L36.64 8l-.37-.11-.1-.41-.19.69c0-.01-.09-.39-.09-.4l.28-.29s-.73.15-.72.15l.35-.31-.1-.4zM36.11 7.04l.07.43.25-.69z" fill="#f4c627"/><path d="M36.49 7.18c0 .01-.31.28-.31.29l.73-.13c0-.01-.41-.15-.42-.16" fill="#f4c627"/><path d="M24.39 6.94c.5-.24 1.05-.42 1.64-.5.57-.08 1.13-.09 1.71-.09l.07.9c-.45 0-.8 0-1.6.1-.8.11-1.13.21-1.62.39l-.2-.8z" fill="#cb0028"/><path d="M24.59 7.75l-.22-.81c.55-.28 1.1-.44 1.65-.52.5-.07 1-.09 1.6-.09h.12c.01.01.09.9.09.91l-.14.01c-.4 0-.75 0-1.48.1-.8.11-1.13.21-1.61.39l-.01.01zm3.14-1.4l-.1.01c-.59 0-1.09.01-1.6.09-.54.07-1.1.24-1.64.5l.21.77c.48-.18.81-.28 1.61-.39.73-.09 1.08-.1 1.48-.1h.12c-.01 0-.08-.88-.08-.88" fill="#d30028"/><path d="M24.81 8.51c-.01 0 .25.94.25.94.48-.12.96-.21 1.45-.28.49-.07 1-.11 1.47-.14l-.08-.92c-.49-.03-1.06-.03-1.57.04s-1.01.19-1.52.36" fill="#cb0028"/><path d="M25.06 9.46c-.27-.95-.26-.95-.26-.96.53-.18 1.02-.3 1.52-.36.46-.06 1.05-.07 1.57-.04l.09.93c-.46.04-.99.08-1.48.15-.5.07-.99.16-1.45.28h.01zm2.22-1.35c-.35 0-.67.02-.95.06-.5.06-.99.18-1.51.36.01.02.16.55.26.91.45-.11.94-.21 1.44-.28.5-.07 1.02-.11 1.47-.14l-.1-.9c-.19 0-.4-.01-.61-.01" fill="#d30028"/><path d="M22.53 11.41h13.86v8.89c-.35 3.46-3.68 6.05-6.72 6.03-3.28.14-6.91-2.54-7.17-6.06l.03-8.86z" fill="#fff"/><path d="M29.42 26.38c-3.08 0-6.7-2.51-6.97-6.11l.03-8.86 13.91-.05.05 8.94c-.37 3.58-3.84 6.08-6.73 6.08h-.29m6.92-14.97l-13.81.05.02 8.81c.27 3.64 4.01 6.15 7.12 6.01 2.89 0 6.31-2.46 6.67-5.98v-8.89z" fill="#cb0028"/><path d="M22.82 11.72H36.1v8.52c-.34 3.32-3.52 5.8-6.44 5.78-3.14.14-6.62-2.44-6.87-5.81l.03-8.49z" fill="#cb0028"/><path d="M29.42 26.07c-2.95 0-6.42-2.4-6.68-5.86l.03-8.49 13.33-.05.05 8.57c-.35 3.43-3.68 5.82-6.45 5.82-.11.01-.2.01-.28.01m6.64-14.35l-13.23.05.02 8.44c.26 3.49 3.86 5.88 6.82 5.76 2.77 0 6.05-2.35 6.39-5.73v-8.52z" fill="#cb0028"/><path fill="#fff" d="M25.49 11.77h2.64v2.84h-2.64zM33.43 20.3v2.81l1.49.01c.72-1.08 1.03-2.13 1.1-2.81 0-.01-2.58-.01-2.59-.01"/><path d="M34.93 23.13l-1.5-.01-.01-2.82 1.24-.01h1.36c-.01.33-.19 1.49-1.09 2.84zm-1.5-2.82l.01 2.8 1.47-.01c.89-1.34 1.06-2.48 1.1-2.8l-1.35.01h-1.23zM30.79 23.14v2.7c1.15-.23 2.08-.8 2.62-1.19v-1.51h-2.62z" fill="#fff"/><path d="M30.78 25.85v-2.71l2.62-.01.02 1.52c-.59.43-1.51.98-2.63 1.2h-.01zm2.61-2.72l-2.6.02.01 2.67c1.1-.22 2.02-.77 2.6-1.18l-.01-1.51zM25.51 23.14v1.51c.9.64 1.93 1.02 2.61 1.16l-.01-2.67h-2.6z" fill="#fff"/><path d="M28.14 25.82h-.02c-.66-.14-1.7-.52-2.62-1.17l-.01-1.52 2.62-.01.03 2.7zm-.03-2.68l-2.6.01.02 1.49c.9.63 1.93 1.01 2.59 1.15l-.01-2.65zM22.87 20.3c.08 1.1.58 2.08 1.07 2.77l1.54.03v-2.81l-2.61.01z" fill="#fff"/><path d="M25.49 23.12h-.01l-1.54-.03c-.37-.51-.99-1.54-1.08-2.79l2.63-.01v2.83zm-.02-2.82l-2.6.01c.11 1.23.72 2.25 1.08 2.75l1.52.03V20.3zM22.85 14.61h2.64v2.84h-2.64zM28.14 14.61h2.64v2.84h-2.64zM30.78 11.75h2.64v2.84h-2.64zM33.42 14.61h2.64v2.84h-2.64zM25.49 17.45h2.64v2.84h-2.64zM30.78 17.45h2.64v2.84h-2.64zM28.14 20.29h2.64v2.84h-2.64z" fill="#fff"/><path d="M32.07 8.41c-.01.01-.03-.13-.04-.15-.01-.04-.03-.1-.05-.19.07.11.1.24.09.34" fill="#c2a21f"/><path d="M32.07 8.43c-.02 0-.02-.01-.04-.11l-.06-.23c.09.09.12.22.11.33l-.01.01z" fill="#c2a21f"/></svg>