<svg xmlns="http://www.w3.org/2000/svg" viewBox="0 0 58.92 34.37"><path fill="#1f189b" d="M0 0h58.92v34.37H0z"/><path fill="#c0003b" d="M0 17.19h58.92v17.19H0z"/><path fill-rule="evenodd" clip-rule="evenodd" fill="#fff" d="M23.88 12.74h11.15v8.88H23.88z"/><path d="M31.71 19.16l-2.28.07-2.27.03s-1.16.43-1.64.53c-.47.1-.41.25-.78.33-.3.07-.33.09-.5.1-.1.01-.23.09-.36.18v1.23h11.15v-1.17c-.12-.07-.23-.11-.35-.15-.16-.06-.28-.12-.57-.18-.37-.08-.31-.24-.78-.33-.47-.11-1.62-.64-1.62-.64" fill-rule="evenodd" clip-rule="evenodd" fill="#2c6c1e"/><path d="M35.05 21.63H23.88l-.01-1.24c.13-.1.26-.18.37-.19.12-.01.18-.02.3-.05l.2-.05c.17-.04.24-.09.33-.15.1-.07.2-.14.45-.19.47-.09 1.63-.52 1.64-.53l2.27-.02 2.28-.07c.02.01 1.16.53 1.63.62.26.05.36.12.45.19.08.06.16.11.33.15.21.05.33.09.44.13l.13.05c.12.04.24.09.36.15v1.2zm-3.35-2.46l-2.27.07-2.27.03c-.01 0-1.17.43-1.64.53-.25.05-.35.12-.45.18-.08.06-.16.11-.33.15l-.2.05c-.13.03-.18.04-.3.05-.1.01-.23.09-.35.17v1.22l11.13-.01v-1.16c-.11-.06-.23-.1-.35-.14l-.13-.05c-.11-.04-.22-.09-.43-.13a.782.782 0 0 1-.33-.15c-.1-.07-.19-.13-.45-.18-.47-.1-1.62-.62-1.63-.63" fill="#2c6c1e"/><path fill-rule="evenodd" clip-rule="evenodd" fill="#2c6c1e" d="M29.31 14.31l-.05 1.07h.34l-.05-1.06.36-.05-.04-.42-.89.03.01.39z"/><path d="M29.61 15.39h-.35l.05-1.08-.32-.03-.02-.4.9-.05.05.43-.37.06.06 1.07zm.25-1.54l-.87.05.01.37.32.04-.05 1.08.32-.01-.05-1.05.36-.06-.04-.42z" fill="#2c6c1e"/><path fill-rule="evenodd" clip-rule="evenodd" fill="#e6b32d" d="M28.51 17.25l-.3-.64.13-.02.54 1.06z"/><path d="M28.92 17.71l-.42-.45-.3-.64.14-.04.58 1.13zm-.59-1.12l-.12.03.3.63.32.34-.5-1z"/><path fill-rule="evenodd" clip-rule="evenodd" fill="#fff" d="M27.82 15.86l.33.9h.17z"/><path d="M28.34 16.78h-.19l-.34-.91.53.91zm-.53-.91l.35.89.14-.01-.49-.88z"/><path fill-rule="evenodd" clip-rule="evenodd" fill="#e6b32d" d="M28.82 16.42h.16l.3 1.27-.06.39z"/><path d="M29.22 18.14l-.41-1.71.17-.02.31 1.28-.07.45zm-.25-1.72l-.15.01.4 1.6.05-.35-.3-1.26z"/><path fill-rule="evenodd" clip-rule="evenodd" fill="#e6b32d" d="M28.96 17.73l-.51-1.36.19-.01.59 1.66z"/><path d="M29.26 18.06l-.31-.33-.51-1.36.2-.02.62 1.71zm-.63-1.7l-.18.02.52 1.34.23.25-.57-1.61z"/><path fill-rule="evenodd" clip-rule="evenodd" fill="#fff" d="M28.21 15.59l.21.95h.17z"/><path d="M28.61 16.55h-.18l-.23-.95.41.95zm-.41-.95l.23.94.14-.01-.37-.93z"/><path fill-rule="evenodd" clip-rule="evenodd" fill="#fff" d="M28.64 15.58l.12.98.12-.01z"/><path d="M28.75 16.57v-.01l-.11-.98.25.97-.14.02zm-.12-.99l.13.96.11-.01-.24-.95z"/><path d="M28.55 17.35l-1.35-1.47c-.42.33-.34.95-.34.95l1.53 1.2.16-.68z" fill-rule="evenodd" clip-rule="evenodd" fill="#233189"/><path d="M28.39 18.04l-1.54-1.21c-.01-.01-.08-.63.34-.96l1.36 1.47-.16.7zm-1.2-2.15c-.4.33-.33.93-.33.94L28.38 18l.16-.66-1.35-1.45z"/><path d="M29.33 18.16l-1-1.01c-.42.02-.09.65-.07.73l1.07.91v-.63z" fill-rule="evenodd" clip-rule="evenodd" fill="#c00024"/><path d="M29.34 18.81l-1.11-1c-.06-.14-.18-.43-.09-.59.04-.05.1-.09.19-.09l1.01 1.02v.66zm-1.02-1.66c-.07.01-.13.03-.16.08-.09.14.03.43.09.56.01.03.02.06.03.07l1.04.89v-.6l-1-1z"/><path fill-rule="evenodd" clip-rule="evenodd" fill="#e6b32d" d="M29.24 17.98l-2.07-2.21-.08.06 2.19 2.43z"/><path d="M29.3 18.29l-.02-.03-2.19-2.43.08-.07 2.08 2.22.05.31zm-2.13-2.51l-.07.06 2.17 2.39-.04-.24-2.06-2.21z"/><path fill-rule="evenodd" clip-rule="evenodd" fill="#e6b32d" d="M27.06 15.63l-.05-.05v-.11l-.42-.27.19.43.14.03.05.05z"/><path d="M26.97 15.72l-.06-.06-.13-.02-.2-.43.44.25v.07l-.02-.06-.42-.26.21.42.14.02.04.04.08-.07v-.01l.01.03z"/><path d="M26.84 15.79c.07-.09.16-.17.31-.26l.12.17-.26.21-.17-.12z" fill-rule="evenodd" clip-rule="evenodd" fill="#e6b32d"/><path d="M27.02 15.93l-.19-.13c.07-.1.16-.19.32-.28l.13.18-.26.23zm.12-.4c-.14.09-.23.18-.3.26l.17.11.25-.21-.12-.16z"/><path d="M27.96 17.74l-1.69-1.35c-.29.3-.05 1.21-.05 1.21l1.65.9.09-.76z" fill-rule="evenodd" clip-rule="evenodd" fill="#233189"/><path d="M27.88 18.51l-1.67-.9c-.01-.04-.25-.93.05-1.22l1.71 1.34-.09.78zm-1.62-2.11c-.27.29-.03 1.19-.03 1.2l1.64.88.09-.74-1.7-1.34z"/><path d="M29.36 18.83l-1.39-1.12c-.48.07-.1.77-.07.84l1.47.8-.01-.52z" fill-rule="evenodd" clip-rule="evenodd" fill="#c00024"/><path d="M29.38 19.37l-1.49-.81c-.08-.18-.24-.53-.14-.73a.26.26 0 0 1 .21-.13l1.4 1.12.02.55zm-1.42-1.65c-.09.02-.15.06-.19.12-.11.19.06.55.11.67l1.47.82-.01-.51-1.38-1.1z"/><path fill-rule="evenodd" clip-rule="evenodd" fill="#e6b32d" d="M29.31 18.6l-3.01-2.26-.07.07 3.16 2.47z"/><path d="M29.41 18.91l-.02-.02-3.16-2.47.07-.09 3.02 2.26.09.32zm-3.12-2.56l-.06.07 3.14 2.43-.07-.25-3.01-2.25z"/><path fill-rule="evenodd" clip-rule="evenodd" fill="#e6b32d" d="M26.15 16.22l-.05-.04-.02-.11-.46-.19.26.39h.15l.05.05z"/><path d="M26.08 16.33l-.06-.05h-.14l-.27-.4.48.18.01.07-.03-.06-.46-.18.28.37h.14l.05.04.06-.08v-.01l.02.02z"/><path d="M25.97 16.41c.06-.1.13-.2.26-.31l.15.15-.21.26-.2-.1z" fill-rule="evenodd" clip-rule="evenodd" fill="#e6b32d"/><path d="M26.17 16.52l-.2-.1c.05-.11.12-.21.26-.33l.16.15-.22.28zm.05-.4c-.13.11-.19.21-.24.31l.18.08.21-.25-.15-.14z"/><path d="M27.84 18.56c-.02-.01-2.18-1.23-2.18-1.23-.16.27-.02.65.05.71 0 .18-.07.27.08.64.05.24.16.46.32.59.2.76.97.81 1.27.19l.46-.9z" fill-rule="evenodd" clip-rule="evenodd" fill="#233189"/><path d="M26.77 19.9c-.25 0-.56-.16-.67-.62-.15-.12-.27-.34-.32-.59-.12-.28-.1-.4-.09-.52.01-.04.01-.08.01-.12-.06-.05-.22-.44-.05-.72.75.42 2.16 1.21 2.19 1.23l-.45.92c-.13.26-.36.42-.62.42m-1.12-2.56c-.14.26 0 .64.07.69.01.05 0 .09 0 .13-.01.12-.02.24.09.51.05.25.16.47.32.59.12.45.42.61.65.61.24 0 .47-.16.59-.42l.46-.91c-.03.02-1.82-1-2.18-1.2"/><path d="M29.27 19.37l-1.48-.87c-.48.07.01.95.04 1.03l1.43.51.01-.67z" fill-rule="evenodd" clip-rule="evenodd" fill="#c00024"/><path d="M29.26 20.05l-1.45-.51-.03-.06c-.08-.18-.31-.64-.19-.87.04-.07.1-.1.18-.12l1.49.87v.69zm-1.48-1.54c-.07.01-.13.05-.16.11-.11.21.1.68.19.85l1.43.56.01-.65-1.47-.87z"/><path fill-rule="evenodd" clip-rule="evenodd" fill="#e6b32d" d="M29.02 19.06l-3.34-1.78-.06.08 3.52 1.96z"/><path d="M29.17 19.34l-3.55-1.98.05-.1 3.35 1.78.15.3zm-3.5-2.05l-.05.08 3.49 1.93-.11-.23-3.33-1.78z"/><path fill-rule="evenodd" clip-rule="evenodd" fill="#e6b32d" d="M25.52 17.18l-.06-.03-.04-.1-.49-.13.32.35.15-.02.06.03z"/><path d="M25.47 17.3l-.07-.04-.14.02-.34-.35.51.1.02.07-.04-.05-.48-.12.33.33.14-.02.06.03.05-.09-.01-.02.03.03z"/><path d="M25.36 17.4c.04-.1.09-.21.21-.34l.17.12-.17.29-.21-.07z" fill-rule="evenodd" clip-rule="evenodd" fill="#e6b32d"/><path d="M25.58 17.48l-.22-.07c.03-.12.08-.23.2-.36l.18.12-.16.31zm-.01-.41c-.11.13-.16.24-.19.34l.2.05.16-.28-.17-.11z"/><path d="M26.61 16.16l.07.12c.04-.02.48-.41.48-.41l.31-.01.09-.1c-.23-.24-.44.04-.44.04l-.51.36z" fill-rule="evenodd" clip-rule="evenodd" fill="#233189"/><path d="M26.67 16.29l-.07-.13.51-.37c0-.01.26-.24.46-.03l-.09.11-.32.01c-.04.04-.43.39-.49.41zm.68-.62c-.13 0-.23.13-.23.13l-.5.36.07.1c.05-.03.3-.25.47-.4l.32-.01.08-.09c-.07-.05-.14-.09-.21-.09" fill="#233189"/><path d="M26.86 16.36c.02-.11.22-.38.25-.39.15.05.3.14.45-.21-.14.17-.41 0-.41 0l-.12.1v.05l-.36.33.19.12z" fill-rule="evenodd" clip-rule="evenodd" fill="#c00024"/><path d="M26.87 16.38l-.2-.14.14-.13-.13.13.17.1c.03-.12.22-.37.25-.38.1.03.14.04.19.04.07 0 .15-.03.25-.24-.08.14-.39 0-.4-.01l-.05.05.05-.06c.02 0 .3.14.41 0-.09.28-.25.3-.4.25-.08-.01-.26.25-.28.36v.03z" fill="#c00024"/><path d="M25.8 16.79l.02.13c.04-.02.42-.44.42-.44l.31-.06.06-.1c-.21-.25-.44.08-.44.08l-.37.39z" fill-rule="evenodd" clip-rule="evenodd" fill="#233189"/><path d="M25.81 16.93l-.02-.14.37-.4c0-.01.27-.3.45-.08l-.06.11-.31.06c-.03.04-.38.41-.42.44l-.01.01zm.62-.69c-.14 0-.26.17-.26.17l-.37.39.02.1c.06-.05.27-.28.4-.43l.31-.06.05-.09a.176.176 0 0 0-.15-.08" fill="#233189"/><path d="M26.04 17.02c-.02-.11.14-.45.17-.47.18.05.34.14.41-.24-.11.19-.41.04-.41.04l-.1.11.01.06-.31.4.23.1z" fill-rule="evenodd" clip-rule="evenodd" fill="#c00024"/><path d="M26.05 17.03l-.24-.1.08-.11-.07.11.2.07c0-.13.14-.45.18-.46.11.03.16.05.2.05.07 0 .15-.03.2-.28-.04.17-.39.06-.4.05l-.03.04.03-.06c.01.01.12.05.23.05.08 0 .14-.03.18-.09-.03.31-.17.33-.36.27-.06.01-.21.33-.2.45v.01z" fill="#c00024"/><path d="M25.23 17.8l.07.14c.04-.03.36-.54.36-.54l.29-.1.05-.12c-.23-.22-.41.16-.41.16l-.36.46z" fill-rule="evenodd" clip-rule="evenodd" fill="#233189"/><path d="M25.3 17.95l-.08-.15.36-.47c0-.01.22-.35.43-.16l-.05.13-.3.1c-.03.05-.32.51-.35.54l-.01.01zm.55-.83c-.15 0-.25.22-.26.22l-.36.46.06.11c.05-.06.23-.34.34-.53l.3-.1.05-.11a.19.19 0 0 0-.13-.05" fill="#233189"/><path d="M25.54 17.99c-.02-.12.06-.5.08-.51.18.05.34.07.38-.31-.11.18-.39.11-.39.11l-.08.13.02.04-.24.47.23.07z" fill-rule="evenodd" clip-rule="evenodd" fill="#c00024"/><path d="M25.56 18.01l-.25-.07.1-.2-.08.19.22.05c-.01-.13.05-.48.09-.51.16.03.32.15.37-.3-.08.2-.38.12-.38.12l-.04.06.03-.08c.01 0 .06.01.13.01.09 0 .2-.02.26-.12-.01.34-.18.38-.37.33-.01.02-.09.38-.07.5l-.01.02z" fill="#c00024"/><path fill-rule="evenodd" clip-rule="evenodd" fill="#e6b32d" d="M28.99 19.87l-.83-.25-.36-.62-1.29-.07.05.47 1.09.21.11.18 1.25.35z"/><path d="M29.03 20.16l-1.27-.35-.11-.19-1.09-.2-.05-.47 1.29.05.37.63.83.23.03.3zm-2.52-1.22l.06.45 1.08.2.11.19 1.24.35-.02-.26-.83-.25-.36-.62-1.28-.06z"/><path fill-rule="evenodd" clip-rule="evenodd" fill="#4d3509" d="M28.13 20.05l-1.32-1.94-.06.05 1.3 1.94z"/><path d="M28.05 20.12l-1.31-1.95.07-.07 1.33 1.94-.09.08zm-1.25-2l-.05.05 1.3 1.92.07-.05-1.32-1.92z"/><path d="M26.93 18.19l-.14-.23c-.03-.05-.07-.06-.12-.03-.06.03-.05.09-.03.13l.13.22.16-.09z" fill-rule="evenodd" clip-rule="evenodd" fill="#fff"/><path d="M26.76 18.29l-.13-.23c-.02-.05-.03-.11.03-.15.09-.02.12 0 .14.03l.14.23-.18.12zm-.03-.38l-.05.03c-.05.03-.05.08-.02.12l.12.21.15-.08-.2-.28z"/><path fill-rule="evenodd" clip-rule="evenodd" fill="#e6b32d" d="M28.28 18.85l-2.65-.27-.06.39 2.63.26z"/><path d="M28.21 19.24l-2.65-.27.05-.4 2.66.26-.06.41zm-2.58-.65l-.05.38 2.62.25.07-.37-2.64-.26z"/><path fill-rule="evenodd" clip-rule="evenodd" fill="#e6b32d" d="M25.58 18.48l-.07.54h.11l.08-.49z"/><path d="M25.63 19.03h-.12l.06-.55.13.04-.07.51zm-.05-.54l-.06.53.09-.01.08-.48-.11-.04z"/><path fill-rule="evenodd" clip-rule="evenodd" fill="#e6b32d" d="M26.02 18.57l-.03.48.07.01.06-.43z"/><path d="M26.07 19.07l-.08-.01.02-.49.11.05-.05.45zm-.05-.49l-.02.47.06.01h-.01l.06-.43-.09-.05z"/><path fill-rule="evenodd" clip-rule="evenodd" fill="#e6b32d" d="M27.82 18.78l-.06.45.12-.01.06-.44z"/><path d="M27.74 19.24l.07-.46.13-.01-.04.46z"/><path d="M28.22 18.79l-.09.52.15.02.04-.28c.01.05.06.1.12.1.07 0 .13-.05.13-.12 0-.07-.06-.12-.13-.12-.05 0-.09.03-.11.08l.03-.19-.14-.01z" fill-rule="evenodd" clip-rule="evenodd" fill="#e6b32d"/><path d="M28.28 19.35l-.16-.02.08-.53h.15l-.02.19c.02-.12.23-.06.23.06 0 .14-.24.16-.27.03l-.01.27zm.06-.55h-.13l-.08.51.13.01.04-.27c.07.11.25.09.25-.02 0-.1-.18-.14-.22-.04l.01-.19z"/><path fill-rule="evenodd" clip-rule="evenodd" fill="#e6b32d" d="M27.26 18.88l-.36.41.04.05.46-.32z"/><path d="M26.93 19.35l-.05-.06.36-.43.16.14-.47.35zm.32-.47l-.35.41.03.04-.01-.01.47-.32-.14-.12z"/><path fill-rule="evenodd" clip-rule="evenodd" fill="#e6b32d" d="M26.41 19.9l.37-.41-.05-.05-.47.32z"/><path d="M26.41 19.91l-.15-.15.48-.34.05.06-.38.43zm.36-.43l-.5.29.14.12.36-.41z"/><path fill-rule="evenodd" clip-rule="evenodd" fill="#e6b32d" d="M27.37 19.8l-.45-.35-.04.03.35.45z"/><path d="M27.22 19.94l-.36-.45.06-.05.44.34-.14.16zm-.3-.48l.31.45.13-.12-.44-.33z"/><path fill-rule="evenodd" clip-rule="evenodd" fill="#e6b32d" d="M26.27 19l.45.34.06-.04-.36-.45z"/><path d="M26.72 19.35l-.46-.34.15-.17.38.45-.07.06zm-.31-.49l-.14.15.44.31.05-.04-.35-.42z"/><path fill-rule="evenodd" clip-rule="evenodd" fill="#e6b32d" d="M26.76 18.73l.04.54h.07l.14-.53z"/><path d="M26.79 19.28l-.04-.55h.26l-.14.55h-.08zm.21-.54h-.24l.05.52h.05l.14-.52z"/><path fill-rule="evenodd" clip-rule="evenodd" fill="#e6b32d" d="M26.91 20.04l-.05-.54-.06-.01-.08.55z"/><path d="M26.92 20.05h-.2l.07-.57.08.01.05.56zm-.07-.55l-.13.54.17-.01-.04-.53z"/><path fill-rule="evenodd" clip-rule="evenodd" fill="#e6b32d" d="M27.51 19.31l-.57.06-.01.06.57.07z"/><path d="M27.51 19.51l-.58-.07.01-.08.57-.06v.21zm-.02-.2l-.55.07.55.11v-.18z"/><path fill-rule="evenodd" clip-rule="evenodd" fill="#e6b32d" d="M26.16 19.5l.55-.09.01-.04-.57-.06z"/><path d="M26.15 19.51l-.01-.2.58.05-.1.03-.47-.07.02.17.18-.03z"/><path d="M26.98 19.37c0 .08-.07.15-.15.15-.08 0-.15-.06-.15-.15 0-.08.07-.14.15-.14.08 0 .15.07.15.14" fill-rule="evenodd" clip-rule="evenodd" fill="#e6b32d"/><path d="M26.83 19.53c-.09 0-.16-.07-.16-.16 0-.17.32-.17.32 0 0 .09-.07.16-.16.16m0-.29c-.08 0-.14.06-.14.13 0 .15.28.15.28 0 0-.07-.06-.13-.14-.13"/><path d="M27.63 19.37c0 .42-.36.77-.8.77-.44 0-.79-.34-.79-.77 0-.42.36-.77.79-.77.44.01.8.35.8.77m-.16 0c0 .34-.29.61-.64.61-.35 0-.63-.28-.63-.61 0-.34.28-.61.63-.61s.64.27.64.61" fill-rule="evenodd" clip-rule="evenodd" fill="#e6b32d"/><path d="M26.83 20.15c-.44 0-.81-.35-.81-.78 0-.43.36-.78.81-.78.44 0 .81.35.81.78 0 .43-.36.78-.81.78m0-1.53a.77.77 0 0 0-.78.76c0 .42.35.76.78.76.43 0 .78-.34.78-.76.01-.42-.35-.76-.78-.76m0 1.38c-.36 0-.65-.28-.65-.63 0-.34.29-.63.65-.63.36 0 .65.28.65.63s-.29.63-.65.63m0-1.23c-.35 0-.63.27-.63.6 0 .33.28.6.63.6.34 0 .63-.27.63-.6 0-.33-.28-.6-.63-.6"/><path fill-rule="evenodd" clip-rule="evenodd" fill="#e6b32d" d="M29.01 18.62l.14.69-.11.06-.12-.74z"/><path d="M29.03 19.39l-.12-.76.1-.02.15.7-.13.08zm-.03-.77l-.08.02.13.71.1-.05-.15-.68z"/><path d="M28.94 18.53c-.06-.02-.15.02-.28-.15-.22.21-.01.23.02.44.06.03.1-.15.27-.17.02 0 .27-.02.27-.02l-.06-.09c0-.01-.17-.01-.22-.01" fill-rule="evenodd" clip-rule="evenodd" fill="#fff"/><path d="M28.69 18.82h-.02a.477.477 0 0 0-.08-.16c-.05-.08-.1-.15.05-.29.11.12.18.13.23.14l.13.01h.17l.07.09-.28.04c-.1.01-.15.07-.19.12-.03.03-.05.05-.08.05m-.04-.44c-.12.13-.09.18-.04.26.03.05.06.09.07.17v-.01c.02 0 .04-.02.06-.05.04-.05.1-.12.2-.13l.27-.02-.07-.07-.14.01-.11-.01c-.06-.01-.13-.02-.24-.15"/><path d="M29.03 18.66l-.02-.21c-.03-.07-.12-.01-.12.03l.02.19.12-.01z" fill-rule="evenodd" clip-rule="evenodd" fill="#fff"/><path d="M28.9 18.69l-.02-.2c0-.04.05-.08.08-.08l.01.04c-.05-.01-.08.02-.08.04l.02.18.11-.02-.01-.06.02.07-.13.03z"/><path d="M27.49 20.38c0 .03-.02.06-.04.07-.03.02-.06.02-.09 0s-.04-.04-.04-.07c0-.03.02-.06.04-.07.03-.02.06-.02.09 0 .02.01.04.04.04.07M27.27 20.22c0 .03-.02.06-.04.07-.03.01-.06.01-.09 0-.03-.02-.05-.04-.05-.07 0-.03.02-.06.05-.07.03-.02.06-.02.09 0 .02.01.04.04.04.07M26.97 20.32c0 .03-.02.06-.04.07-.03.01-.06.01-.09 0-.03-.02-.04-.04-.04-.07 0-.03.02-.06.04-.07.03-.01.06-.01.09 0 .02.01.04.04.04.07M26.5 20.42c0 .03-.02.06-.05.07-.03.02-.06.02-.09 0-.03-.01-.04-.04-.04-.07 0-.03.02-.06.04-.07.03-.01.06-.01.09 0 .04.01.05.04.05.07M26.31 20.45c0 .03-.02.06-.04.07-.03.02-.06.02-.09 0-.03-.01-.04-.04-.04-.07 0-.03.02-.06.04-.07.03-.01.06-.01.09 0 .02.01.04.04.04.07M26.11 20.45c0 .03-.02.06-.04.07-.03.02-.06.02-.09 0-.03-.01-.04-.04-.04-.07 0-.03.02-.06.04-.07.03-.01.06-.01.09 0 .02.01.04.04.04.07M25.92 20.44c0 .03-.02.06-.04.07-.03.02-.06.02-.09 0s-.05-.04-.05-.07c0-.03.02-.06.05-.07.03-.02.06-.02.09 0 .02.01.04.04.04.07M26.01 20.29c0 .03-.02.06-.04.07-.03.02-.06.02-.09 0a.075.075 0 0 1-.05-.07c0-.03.02-.06.05-.07.03-.02.06-.02.09 0 .02.01.04.04.04.07M26.2 20.3c0 .03-.02.06-.04.07-.03.02-.06.02-.09 0-.03-.01-.04-.04-.04-.07 0-.03.02-.06.04-.07.03-.02.06-.02.09 0 .02.01.04.04.04.07" fill-rule="evenodd" clip-rule="evenodd" fill="#e6b32d"/><path d="M26.38 20.28c0 .03-.02.06-.05.07-.02.02-.06.02-.09 0-.03-.01-.04-.04-.04-.07 0-.03.02-.06.04-.07.03-.02.06-.02.09 0 .04.01.05.04.05.07M26.29 20.13c0 .03-.02.06-.04.07-.03.02-.06.02-.09 0s-.05-.04-.05-.07c0-.03.02-.06.05-.07.03-.02.06-.02.09 0 .02.01.04.04.04.07M26.11 20.13c0 .03-.02.06-.04.07-.03.02-.06.02-.09 0s-.04-.04-.04-.07c0-.03.02-.06.04-.07.03-.01.06-.01.09 0 .02.01.04.04.04.07" fill-rule="evenodd" clip-rule="evenodd" fill="#e6b32d"/><path d="M27.61 19.82c-.08-.03-.08.14-.08.14h.12c.05.02.09.1.06.14-.03.03-.26-.05-.27-.01.04.23.34.32.45.22.11-.1.14-.36-.21-.43l-.07-.06z" fill-rule="evenodd" clip-rule="evenodd" fill="#fff"/><path d="M27.77 20.36c-.04 0-.07-.01-.11-.02a.325.325 0 0 1-.23-.25c.01-.04.08-.03.16-.01.04.01.11.02.11.01 0-.07-.03-.11-.05-.12h-.11c-.01-.02-.01-.13.03-.16h.05l.07.06c.15.03.25.1.28.21.03.1-.02.19-.07.24a.25.25 0 0 1-.13.04m-.29-.27c-.02 0-.03 0-.03.01.02.1.1.19.21.22.09.03.18.02.22-.02.05-.04.09-.13.06-.21-.03-.1-.12-.16-.26-.19l-.03.06c.04.02.07.05.07.09-.03.08-.07.07-.15.06-.01-.02-.06-.02-.09-.02m-2.16-.18l-.12-.48.74.3-.01.02-.73-.32.14.47-.02.01zm.14-.03l-.17-.37.19.36-.02.01zm.3-.09l-.39-.21.4.19-.01.02z"/><path d="M24.77 19.07s-.27 0-.31.02c-.02.01.07.09.05.13-.07.13-.52.11-.55.08-.06-.05.42-.09.42-.12 0-.04-.07-.13-.06-.19.02-.08.21-.11.21-.11l.24.19z" fill-rule="evenodd" clip-rule="evenodd" fill="#c00024"/><path d="M24.13 19.33c-.08 0-.17-.01-.19-.02 0-.05.07-.06.24-.09.08-.01.17-.03.18-.04-.05-.11-.07-.16-.06-.19.02-.08.2-.11.22-.11l.25.2c-.13.01-.22.02-.27.02.05-.03.13-.03.2-.03l-.19-.18c-.04.01-.18.04-.19.1-.01.03.02.08.03.12.02.03.03.06.03.08 0 .02-.04.03-.2.06-.08.01-.22.04-.23.06.03.02.48.04.54-.08.01-.01-.02-.05-.03-.08 0-.01.01-.01.01-.02.04.05.05.08.04.11-.04.08-.3.09-.38.09" fill="#c00024"/><path d="M25.13 19.32l-.6-.5s-.03-.03-.05 0c-.02.02.01.05.01.05l.62.51.02-.06z" fill-rule="evenodd" clip-rule="evenodd" fill="#4d3509"/><path d="M25.11 19.39l-.63-.52.01-.08.64.52-.02.08zm-.59-.57l.58.53.02-.05-.6-.48z"/><path d="M25.71 19.81l-.49-.43-.03-.12s-.07.05-.1.08-.07.1-.07.1l.13.01.42.39.14-.03z" fill-rule="evenodd" clip-rule="evenodd" fill="#e6b32d"/><path d="M25.57 19.84l-.43-.39h-.13c-.01-.02.03-.09.06-.12s.1-.08.1-.08l.05.13s.48.41.49.42l-.14.04zm-.42-.41l.43.39.13-.02c-.03 0-.49-.41-.49-.41l-.03-.12c-.01.02-.06.05-.08.07-.03.03-.07.1-.07.1l.11-.01z"/><path d="M28.37 19.24v.19c-.06.02-.05.07-.05.14v.56c-.02.04-.09.04-.13.07-.03.03-.03.09.12.12l.11.01c.18-.04.21-.1.12-.13-.05-.02-.11-.04-.13-.07v-.14h.11c.03 0 .09-.08.09-.14v-.29c-.01-.17-.13-.18-.16-.18v-.15h-.08zm.19.32c0-.05-.07-.09-.09-.09-.03 0-.09.06-.09.1v.12c.01.05.04.19.11.2.03.01.07-.05.07-.09v-.24z" fill-rule="evenodd" clip-rule="evenodd" fill="#e6b32d"/><path d="M28.44 20.33h-.12c-.11-.03-.14-.06-.15-.09l.08-.08c.03-.01.05-.02.06-.04v-.56c0-.08 0-.13.06-.15l-.01-.18.11-.01.01.16c.05-.01.16.03.16.18v.29c0 .06-.06.15-.1.15h-.11l.01.12c.02.02.07.04.11.05.06.02.07.04.06.06 0 .05-.06.08-.17.1zm.03-1.09l-.09.01.01.18c-.05.03-.05.06-.05.11v.58c-.02.03-.05.04-.08.05l-.06.06c0 .01.02.04.13.07h.11c.11-.03.16-.06.16-.08-.1-.05-.15-.07-.18-.1v-.14l.13-.01c.02 0 .08-.07.08-.13v-.29c0-.17-.13-.17-.15-.17l-.01-.14zm.03.66c-.09-.01-.12-.18-.12-.21v-.12c0-.05.06-.11.1-.11.03 0 .11.05.1.1v.24c0 .04-.04.1-.08.1m-.03-.43v.01c-.02 0-.08.05-.08.09v.12c0 .05.04.18.1.19.04 0 .06-.05.06-.08v-.24c0-.04-.06-.08-.08-.08v-.01z"/><path d="M29.44 13.88c-.91-.92-1.64-.47-1.81-.34.11.02.21-.05.27-.06-.03.04-.1.14-.1.14s.28-.13.32-.12c-.04.03-.09.11-.09.11.02.01.18-.13.21-.13-.05.06-.07.18-.07.18l.14-.06c.04.03-.01.07.02.07.23-.02.55.21.6.28l.51-.07z" fill-rule="evenodd" clip-rule="evenodd" fill="#2c6c1e"/><path d="M28.94 13.95c-.06-.05-.37-.29-.6-.26l-.01-.03.01.01c.24-.02.55.2.6.28m.49-.07c-.89-.89-1.6-.49-1.79-.34.07 0 .14-.03.2-.05l.03-.01c-.09.05-.16.08-.24.06.2-.17.92-.58 1.82.32l-.02.02zm-1.25-.21c-.01-.02 0-.11.04-.18-.02.02-.05.04-.08.06-.08.06-.1.07-.12.06 0-.02.04-.09.08-.13l-.3.14c-.01-.01.04-.1.08-.15h.03c-.03.04-.1.14-.1.14.05-.05.27-.15.31-.13-.03.04-.06.09-.08.12.01-.02.06-.05.08-.07.06-.04.09-.06.11-.07-.03.08-.04.2-.05.21l.13-.08.01.02-.14.06z"/><path d="M29.21 14.04c-.1-.22-1.84-.59-2.19.03.14.04.27-.11.27-.11l-.01.14.23-.18-.08.18.18-.15-.01.15.23-.25-.02.15.2-.09-.02.12 1.22.01z" fill-rule="evenodd" clip-rule="evenodd" fill="#2c6c1e"/><path d="M27.44 14.11l.07-.2-.21.19-.01-.14c-.01.03-.13.15-.26.12.18-.35.76-.37 1.08-.36.51.03 1.07.18 1.12.31l-.02.01c-.05-.11-.57-.27-1.11-.3-.32-.02-.88.01-1.06.33.12.01.25-.13.25-.13v.15l.22-.19-.07.21.17-.17.01.16.21-.26-.01.16.18-.1v.13-.12l-.19.1.01-.16-.21.26-.01-.16-.16.16z"/><path d="M29.14 14.08c-.45-.3-1.14-.1-1.14-.1-.44.25-.68.2-.73.66.04-.01.16-.16.16-.16l.09.18.03-.25.07.2.11-.32.03.22.17-.22.08.06.07-.17.06.11s.11-.07.18-.03l.13-.14.03.1.11-.13.04.09.11-.1-.01.07.37.01.04-.08z" fill-rule="evenodd" clip-rule="evenodd" fill="#2c6c1e"/><path d="M27.52 14.66l-.11-.18c0 .02-.11.15-.15.17.03-.36.18-.42.42-.54.09-.04.18-.08.3-.14.01 0 .7-.2 1.15.1l-.01.02c-.44-.29-1.12-.1-1.13-.1-.11.06-.21.11-.3.15-.25.11-.39.17-.43.51.02-.02.11-.13.14-.17l.12.18.01-.26.09.19.09-.32.04.22.15-.22.1.06.05-.16.08.11c0-.01.11-.07.18-.03l.11-.14.05.11.09-.13.06.1.11-.12-.01.1.36-.01-.37.02h-.01l.01-.08-.09.11-.06-.09-.09.13-.05-.11-.11.15c-.07-.04-.18.03-.18.03l-.08-.11-.05.14-.09-.06-.15.22-.04-.23-.09.33-.09-.2-.02.25z"/><path d="M29.03 14.13c-.31-.01-1.21.33-1.44.69a.99.99 0 0 1 .15-.07l.04.14.06-.14.01.11c.04-.09.07-.1.14-.01l.02-.13.03.13.06-.14s.04.15.06.14c0 0 .1-.26.14-.27l.01.16.06-.16.05.12.01-.17.06.13s.03-.13.08-.15l.09.08.4-.29-.03-.17z" fill-rule="evenodd" clip-rule="evenodd" fill="#2c6c1e"/><path d="M27.8 14.89l-.06-.14c-.01.01-.06.03-.14.08.22-.38 1.11-.7 1.42-.7h.01v.02h-.01c-.31 0-1.19.33-1.42.68.08-.07.13-.09.13-.09l.07.15.04-.15.03.11c0-.05.02-.07.04-.08.03 0 .06.02.09.07l.01-.13.05.13.04-.14c.03.06.06.13.07.14.01-.04.09-.26.14-.27l.02.17.04-.16.07.12-.01-.17.08.12c-.01-.03.02-.13.07-.15l.1.08.38-.29-.38.3-.1-.08c-.02.02-.05.11-.06.15l-.08-.13.01.17-.07-.12-.04.16-.03-.16c-.01.01-.07.15-.12.27-.04-.01-.07-.11-.08-.15l-.04.14-.05-.13-.01.13c-.05-.04-.08-.05-.09-.05-.02 0-.03.02-.05.06l-.03-.11-.04.15z"/><path d="M29.09 14.2c-.42.16-.79.73-.76.97.18-.23.14-.2.23.07 0 0 .03-.23.06-.26l.05.17.02-.22h.06l-.02-.14.08.06c-.02-.08-.04-.1.05-.17 0 0-.11.02-.02-.18l.08.08s-.01-.09.01-.12l.29-.1-.13-.16z" fill-rule="evenodd" clip-rule="evenodd" fill="#2c6c1e"/><path d="M28.57 15.24l-.05-.11c-.01-.05-.03-.1-.04-.1-.02 0-.05.05-.11.12v-.01c.07-.11.1-.14.12-.13.03.01.03.04.06.12l.03.1c-.01-.05.02-.23.05-.26l.07.18v-.22l.04-.13.02.01-.02-.01.03.13-.08.22-.07-.17c-.01.03-.03.17-.05.26m-.2-.22c.05-.26.36-.69.72-.82l.01.02c-.35.12-.65.53-.73.8m.46-.37c-.03-.03-.02-.09.01-.15l.09.07c-.01-.02-.02-.08.01-.11l.3-.11-.29.12c-.01.02-.01.08-.01.11l-.1-.07c-.02.08-.02.12-.01.14"/><path d="M29.13 14.25l-.16.3.08.02-.18.14.15-.02s-.23.09-.26.32l.24-.11s-.2.21-.23.33l.14-.12s-.13.15-.11.36l.1-.11c-.02.26-.02.29.1.49 0 0-.03-.31 0-.35l.27.28-.15-.39s.17.25.27.22l-.21-.32.21.17-.23-.35.22.07s-.16-.2-.14-.32l.15.16s-.06-.19-.04-.24l.08.02-.15-.17.1-.02-.01-.11.07-.02v-.12l-.31-.11z" fill-rule="evenodd" clip-rule="evenodd" fill="#2c6c1e"/><path d="M29.02 15.84c-.14-.19-.15-.22-.12-.49l-.08.12c-.04-.21.08-.35.09-.37.01.02-.12.16-.1.37l.08-.12c0 .27.01.29.13.49-.03-.05-.05-.32-.01-.36l.28.28-.17-.38c.06.06.19.23.27.21l-.21-.3.22.15-.25-.33.22.05c-.03-.02-.16-.2-.15-.31l.16.15c-.02-.03-.07-.18-.05-.23l.09.01-.16-.15.11-.04-.02-.1.08-.04-.01-.11.02.12-.08.03.02.1-.11.03.15.15h-.09c0 .04.04.18.05.23l-.17-.15c.01.11.16.31.16.31l-.23-.05.24.33-.22-.15.22.31c-.12.04-.27-.2-.28-.21l.17.38-.27-.27c-.01.03 0 .23.02.34m0-.34c.05-.13.06-.3.07-.47.02-.23.04-.5.19-.7l.02.01c-.15.19-.16.46-.18.69-.02.18-.03.35-.1.47m-.24-.26c.01-.14.21-.34.21-.34l-.22.12c.01-.24.25-.33.25-.33 0 .02-.22.11-.25.33l.23-.13c.01.02-.19.22-.22.35l.12-.13-.12.13zm.1-.52l.17-.16h-.08l.15-.31.02.01-.16.3.07.01-.17.15.14-.04-.14.04z"/><path d="M27.87 20.49c0-.04-.09-.02-.09-.06 0-.05.14-.01.16.03.08-.07.11-.02.16 0 .07-.1.15-.09.23-.02.05-.05.17-.03.21.02.08-.08.15-.06.2 0 .02-.04.05-.03.08 0 .04-.07.15-.05.19 0 .04-.04.08-.01.13.02.03-.03.09-.03.09.01s-.07.02-.07.06c0 .03.05.01.05.05 0 .03-.08.04-.09-.01-.03.05-.13.03-.13-.01-.03.04-.11.05-.15-.01-.03.03-.07.03-.09 0-.06.07-.16.05-.2-.02h-.05c-.06.08-.15.05-.18 0-.1.07-.16.05-.22 0-.06.08-.16.08-.18 0-.04.03-.13.04-.13 0s.08-.03.08-.06m.19.01c0 .02-.02.03-.05.03-.03 0-.05-.01-.05-.03 0-.02.02-.03.05-.03.03 0 .05.02.05.03m.22-.02c0 .02-.03.03-.06.03s-.06-.02-.06-.03c0-.02.03-.04.06-.04s.06.02.06.04m.42.02c0 .02-.02.04-.05.04s-.06-.02-.06-.04.03-.04.06-.04.05.02.05.04m-.23-.01c0 .03-.02.05-.05.05s-.06-.02-.06-.05c0-.03.03-.05.06-.05s.05.03.05.05m.48 0c0 .02-.02.04-.05.04-.03 0-.05-.02-.05-.04s.02-.04.05-.04c.03 0 .05.02.05.04m-.15.01c0 .02-.01.03-.03.03s-.03-.01-.03-.03c0-.01.02-.03.03-.03s.03.02.03.03m.29.01c0 .02-.02.04-.04.04s-.04-.02-.04-.04.02-.04.04-.04c.02.01.04.02.04.04" fill-rule="evenodd" clip-rule="evenodd" fill="#e6b32d"/><path d="M28.64 20.61c-.04 0-.09-.02-.11-.06.09.05.15.05.19 0l.01-.01.1.01c.02.02.04.04.07.04l.01-.02.07-.01c0 .02.03.04.07.04-.05.01-.08-.01-.09-.03 0 .06-.11.05-.14 0h-.08l.01.01c-.03.01-.07.03-.11.03m-.64 0c-.04 0-.08-.03-.09-.06-.01.02-.05.03-.08.03v-.03c.04 0 .07 0 .08-.02.05.07.13.07.18 0 .1.06.14.05.22-.01.04.04.1.1.18.01.01 0 .02.01.03.01-.13.12-.18.04-.21-.01-.07.08-.17.05-.22.01 0 .04-.05.07-.09.07m-.17-.09v-.02c-.03-.04-.06-.05-.06-.08.09-.03.16-.01.18.03.01-.03.04-.04.06-.04l.09.05-.01-.01c.07-.1.16-.11.25-.03.01-.05.16-.04.21.03.04-.08.13-.07.2 0 .15-.07.2-.07.26-.01-.09-.02-.14-.05-.18.02l-.01.01-.09-.01c-.06-.06-.12-.06-.19 0-.06-.05-.17-.07-.21-.02-.11-.07-.17-.07-.23.02l-.1-.03c-.02 0-.04.01-.07.03a.21.21 0 0 0-.13-.05l.06.08-.03.03z"/><path fill-rule="evenodd" clip-rule="evenodd" fill="#e6b32d" d="M30.4 17.25l.3-.64-.13-.02-.55 1.06z"/><path d="M29.98 17.71l.57-1.13.14.02-.29.65-.42.46zm.58-1.11l-.5.99.32-.34.3-.64-.12-.01z"/><path fill-rule="evenodd" clip-rule="evenodd" fill="#fff" d="M31.08 15.86l-.32.9h-.17z"/><path d="M30.76 16.78h-.18l.49-.92-.31.92zm.31-.92l-.48.91.15-.02.33-.89z"/><path fill-rule="evenodd" clip-rule="evenodd" fill="#e6b32d" d="M30.09 16.42h-.17l-.3 1.27.07.39z"/><path d="M29.68 18.14l-.07-.45.3-1.27h.17l-.4 1.72zm.4-1.72l-.15.01-.29 1.26.05.34.39-1.61z"/><path fill-rule="evenodd" clip-rule="evenodd" fill="#e6b32d" d="M29.95 17.73l.5-1.36-.19-.01-.59 1.66z"/><path d="M29.65 18.06l.61-1.71h.2l-.5 1.38-.31.33zm.79-1.69h-.18l-.56 1.61.24-.25.5-1.36z"/><path fill-rule="evenodd" clip-rule="evenodd" fill="#fff" d="M30.69 15.59l-.21.95h-.17z"/><path d="M30.49 16.55h-.18l.37-.96-.19.96zm.19-.96l-.36.95.15-.01.21-.94z"/><path fill-rule="evenodd" clip-rule="evenodd" fill="#fff" d="M30.26 15.58l-.11.98-.12-.01z"/><path d="M30.16 16.57l-.13-.01.22-.98-.09.99zm.09-.99l-.21.97h.1l.11-.97z"/><path d="M30.36 17.35l1.35-1.47c.42.33.34.95.34.95l-1.53 1.2-.16-.68z" fill-rule="evenodd" clip-rule="evenodd" fill="#233189"/><path d="M30.51 18.04l-.17-.69 1.35-1.48c.43.33.36.95.36.95l-1.54 1.22zm1.19-2.15l-1.33 1.47.16.64 1.51-1.19s.07-.6-.34-.92"/><path d="M29.58 18.16l1-1.01c.42.02.09.65.07.73l-1.07.91v-.63z" fill-rule="evenodd" clip-rule="evenodd" fill="#c00024"/><path d="M29.57 18.8v-.65l1-1.02c.1 0 .16.03.19.08.1.15-.03.44-.08.59l-.03.07-1.08.93zm1.01-1.64l-.99 1.01v.59l1.05-.9c0-.01.01-.03.02-.06.06-.14.18-.42.09-.57-.03-.04-.09-.07-.17-.07"/><path fill-rule="evenodd" clip-rule="evenodd" fill="#e6b32d" d="M29.66 17.98l2.07-2.21.08.06-2.19 2.43z"/><path d="M29.61 18.29l.05-.31 2.07-2.22.09.06-2.21 2.47zm2.11-2.51l-2.05 2.21-.03.23 2.17-2.4-.09-.04z"/><path fill-rule="evenodd" clip-rule="evenodd" fill="#e6b32d" d="M31.85 15.63l.04-.05v-.11l.43-.27-.19.43-.15.03-.04.05z"/><path d="M31.93 15.72l-.1-.09.05-.06-.01-.1.43-.28-.18.44-.19.09zm.38-.52l-.41.29.01.1-.05.06.08.06.04-.05.15-.03.18-.43z"/><path d="M32.07 15.79c-.07-.09-.16-.17-.31-.26l-.12.17.26.21.17-.12z" fill-rule="evenodd" clip-rule="evenodd" fill="#e6b32d"/><path d="M31.89 15.93l-.26-.22.12-.19c.17.08.26.17.33.26l-.19.15zm-.14-.39l-.1.17.25.19.17-.12c-.09-.08-.17-.16-.32-.24"/><path d="M30.95 17.74l1.69-1.35c.29.3.05 1.21.05 1.21l-1.65.9-.09-.76z" fill-rule="evenodd" clip-rule="evenodd" fill="#233189"/><path d="M31.02 18.51l-.09-.77 1.7-1.35c.31.3.07 1.18.07 1.22l-1.68.9zm1.61-2.11l-1.68 1.35.09.73 1.64-.89s.23-.9-.05-1.19"/><path d="M29.54 18.83l1.39-1.12c.48.07.1.77.07.84l-1.47.8.01-.52z" fill-rule="evenodd" clip-rule="evenodd" fill="#c00024"/><path d="M29.53 19.37v-.54l1.4-1.13c.11.01.18.06.22.13.11.2-.05.56-.11.69l-.03.02c.07-.16.23-.51.12-.69-.04-.07-.1-.11-.2-.12l-1.38 1.11v.5l1.11-.6-1.13.63z"/><path fill-rule="evenodd" clip-rule="evenodd" fill="#e6b32d" d="M29.6 18.6l3.01-2.26.07.07-3.16 2.47z"/><path d="M29.5 18.91l.09-.31 3.02-2.27.08.07-3.19 2.51zm3.1-2.56l-3 2.26-.07.24 3.14-2.45-.07-.05z"/><path fill-rule="evenodd" clip-rule="evenodd" fill="#e6b32d" d="M32.75 16.22l.06-.04.01-.11.47-.19-.26.39h-.15l-.06.05z"/><path d="M32.81 16.32l-.08-.1.06-.05.01-.1.48-.2-.25.41-.22.04zm.47-.45l-.46.21-.01.1-.06.05.07.07.05-.04h.15l.26-.39z"/><path d="M32.94 16.41c-.06-.1-.12-.2-.26-.31l-.15.15.21.26.2-.1z" fill-rule="evenodd" clip-rule="evenodd" fill="#e6b32d"/><path d="M32.74 16.52l-.22-.26.15-.16c.16.11.23.22.28.31l-.21.11zm-.07-.4l-.13.15.21.23.19-.09c-.06-.08-.13-.19-.27-.29"/><path d="M31.07 18.56c.02-.01 2.18-1.23 2.18-1.23.16.27.02.65-.05.71 0 .18.07.27-.08.64-.05.24-.16.46-.32.59-.2.76-.97.81-1.27.19l-.46-.9z" fill-rule="evenodd" clip-rule="evenodd" fill="#233189"/><path d="M32.13 19.9c-.25 0-.48-.16-.61-.43l-.46-.91c.04-.03 1.45-.82 2.19-1.24.18.28.02.67-.04.73 0 .03.01.08.01.11.01.12.02.24-.09.52-.05.25-.17.47-.32.59-.13.47-.43.63-.68.63m1.11-2.57c-.35.21-2.15 1.23-2.17 1.24l.47.89c.13.26.35.42.59.42s.54-.16.65-.61c.16-.13.27-.34.32-.59.12-.28.1-.4.09-.51 0-.04-.01-.08-.01-.13.07-.06.22-.44.06-.71"/><path d="M29.64 19.37l1.48-.87c.48.07-.01.95-.04 1.03l-1.43.51-.01-.67z" fill-rule="evenodd" clip-rule="evenodd" fill="#c00024"/><path d="M29.64 20.05l-.01-.68 1.48-.88c.09.01.15.05.19.12.12.22-.1.69-.19.87l-.03.06-1.44.51zm1.48-1.54l-1.47.87.02.64 1.41-.5c.1-.23.32-.69.21-.9-.04-.06-.1-.1-.17-.11"/><path fill-rule="evenodd" clip-rule="evenodd" fill="#e6b32d" d="M29.89 19.06l3.34-1.78.06.08-3.53 1.96z"/><path d="M29.74 19.34l.14-.29 3.35-1.78.07.08-3.56 1.99zm3.48-2.06l-3.33 1.78-.11.23 3.5-1.95-.06-.06z"/><path fill-rule="evenodd" clip-rule="evenodd" fill="#e6b32d" d="M33.39 17.18l.06-.03.03-.1.5-.13-.33.35-.15-.02-.06.03z"/><path d="M33.43 17.29l-.06-.11.07-.04.03-.09.5-.13-.32.36-.16-.02-.06.03zm.54-.38l-.48.14-.03.09-.06.04.05.08.05-.03.15.02.32-.34z"/><path d="M33.54 17.4c-.04-.1-.09-.21-.21-.34l-.17.12.17.29.21-.07z" fill-rule="evenodd" clip-rule="evenodd" fill="#e6b32d"/><path d="M33.33 17.48l-.17-.29.17-.14c.14.13.19.25.23.35l-.23.08zm-.01-.42l-.15.13.17.26.2-.06c-.04-.09-.1-.2-.22-.33"/><path d="M32.3 16.16l-.07.12a12.3 12.3 0 0 1-.48-.41l-.31-.01-.09-.1c.23-.24.44.04.44.04l.51.36z" fill-rule="evenodd" clip-rule="evenodd" fill="#233189"/><path d="M32.23 16.29c-.05-.02-.44-.37-.49-.41l-.3-.01-.1-.1c.19-.24.45.01.46.02l.5.36-.07.14zm-.68-.62c-.07 0-.13.03-.19.1l.09.08.3.01c.17.15.42.37.47.41l.06-.11-.5-.35s-.1-.14-.23-.14" fill="#233189"/><path d="M32.05 16.36c-.02-.11-.22-.38-.25-.39-.15.05-.3.14-.45-.21.14.17.41 0 .41 0l.12.1v.05l.36.33-.19.12z" fill-rule="evenodd" clip-rule="evenodd" fill="#c00024"/><path d="M32.04 16.38v-.02c-.01-.09-.15-.28-.21-.35.09.07.21.24.23.33l.17-.12-.48-.46c0 .01-.3.14-.41 0 .2.36.29.25.41.21 0 0 .02 0 .03.01-.26.09-.33.04-.45-.22.15.1.41-.02.41-.02l.13.1.36.38-.19.16z" fill="#c00024"/><path d="M33.11 16.79l-.02.13c-.04-.02-.42-.44-.42-.44l-.31-.06-.06-.1c.21-.25.44.08.44.08l.37.39z" fill-rule="evenodd" clip-rule="evenodd" fill="#233189"/><path d="M33.1 16.93l-.01-.01c-.04-.02-.38-.4-.42-.44l-.3-.05-.07-.1c.18-.25.45.06.46.07l.37.39-.03.14zm-.63-.69c-.06 0-.11.03-.16.09l.06.08.3.05c.14.15.35.38.41.43l.01-.11-.36-.38c0 .01-.12-.16-.26-.16" fill="#233189"/><path d="M32.86 17.02c.02-.11-.14-.45-.17-.47-.18.05-.34.14-.41-.24.11.19.41.04.41.04l.1.11-.01.06.31.4-.23.1z" fill-rule="evenodd" clip-rule="evenodd" fill="#c00024"/><path d="M32.85 17.03v-.02c.01-.09-.08-.3-.13-.41.07.1.15.29.15.39l.21-.09-.31-.39.01-.07-.1-.11c.01.01-.33.11-.41-.05.11.4.23.29.37.24.01 0 .02 0 .03.01-.28.1-.35.04-.4-.26.12.13.41.03.41.03l.12.12-.02.07.31.39-.24.15z" fill="#c00024"/><path d="M33.67 17.8l-.07.14c-.04-.03-.36-.54-.36-.54l-.29-.1-.05-.12c.23-.22.41.16.41.16l.36.46z" fill-rule="evenodd" clip-rule="evenodd" fill="#233189"/><path d="M33.61 17.95l-.01-.01c-.04-.03-.32-.49-.36-.54l-.29-.09-.06-.13c.22-.24.42.14.43.15l.36.46-.07.16zm-.56-.83c-.05 0-.09.02-.14.07l.06.11.29.09c.12.19.3.47.35.53l.06-.13-.36-.45c-.01 0-.11-.22-.26-.22" fill="#233189"/><path d="M33.36 17.99c.02-.12-.06-.5-.08-.51-.18.05-.34.07-.38-.31.11.18.39.11.39.11l.08.13-.02.04.24.47-.23.07z" fill-rule="evenodd" clip-rule="evenodd" fill="#c00024"/><path d="M33.35 18.01v-.02c.02-.12-.06-.48-.08-.5-.04.02-.1.03-.15.03-.14 0-.21-.11-.24-.35.14.16.4.1.4.1l.09.13.23.51-.25.1zm-.08-.54c.04.03.11.38.1.51l.22-.07-.31-.62c-.01.01-.29.06-.39-.11.08.45.25.33.38.29" fill="#c00024"/><path fill-rule="evenodd" clip-rule="evenodd" fill="#e6b32d" d="M29.91 19.87l.83-.25.37-.62 1.28-.07-.04.47-1.1.21-.1.18-1.26.35z"/><path d="M29.88 20.16l.02-.28.84-.27.36-.61 1.29-.07-.03.48-1.1.22-.1.18-1.28.35zm2.5-1.23l-1.27.07-.36.61-.84.26-.01.25 1.24-.34.1-.18 1.1-.21.04-.46z"/><path fill-rule="evenodd" clip-rule="evenodd" fill="#4d3509" d="M30.78 20.05l1.31-1.94.07.05-1.31 1.94z"/><path d="M30.86 20.12l-.08-.06 1.31-1.95.08.05-1.31 1.96zm1.23-2l-1.3 1.93.06.04 1.3-1.93-.06-.04z"/><path d="M31.97 18.19l.14-.23c.02-.05.07-.06.12-.03.06.03.05.09.03.13l-.13.22-.16-.09z" fill-rule="evenodd" clip-rule="evenodd" fill="#fff"/><path d="M32.14 18.29l-.17-.09.14-.25c.02-.03.05-.05.08-.05.09.03.1.05.11.07.01.03 0 .06-.01.09l-.15.23zm.04-.37l-.2.27.15.07.12-.21c.02-.03.02-.06.01-.08l-.08-.05z"/><path fill-rule="evenodd" clip-rule="evenodd" fill="#e6b32d" d="M30.62 18.85l2.66-.27.06.39-2.64.26z"/><path d="M30.69 19.24l-.08-.39 2.66-.28.08.4-2.66.27zm2.58-.66l-2.64.28.08.36 2.63-.27-.07-.37z"/><path fill-rule="evenodd" clip-rule="evenodd" fill="#e6b32d" d="M33.32 18.48l.07.54h-.11l-.08-.49z"/><path d="M33.4 19.03h-.12l-.09-.5.13-.06z"/><path fill-rule="evenodd" clip-rule="evenodd" fill="#e6b32d" d="M32.88 18.57l.03.48-.07.01-.05-.43z"/><path d="M32.83 19.07l-.05-.43.09-.08.05.5z"/><path fill-rule="evenodd" clip-rule="evenodd" fill="#e6b32d" d="M31.08 18.78l.07.45-.13-.01-.05-.44z"/><path d="M31.16 19.24h-.14l-.06-.46.12-.01z"/><path d="M30.69 18.79l.09.52-.15.02-.04-.28c-.01.05-.06.1-.12.1-.07 0-.13-.05-.13-.12 0-.07.06-.12.13-.12.05 0 .09.03.11.08l-.03-.19.14-.01z" fill-rule="evenodd" clip-rule="evenodd" fill="#e6b32d"/><path d="M30.63 19.35l-.04-.29c.02.14-.25.11-.25-.03 0-.12.21-.17.26-.04l-.05-.19.14-.02.1.53-.16.04zm-.05-.29l.06.27.14-.02-.1-.51-.12.02.04.18c-.09-.1-.24-.06-.24.04-.01.11.2.13.22.02"/><path fill-rule="evenodd" clip-rule="evenodd" fill="#e6b32d" d="M31.65 18.88l.36.41-.04.05-.47-.32z"/><path d="M31.97 19.35l-.48-.33.15-.16.39.42-.06.07zm-.33-.47l-.13.14.46.3.03-.04-.36-.4z"/><path fill-rule="evenodd" clip-rule="evenodd" fill="#e6b32d" d="M32.49 19.9l-.36-.41.04-.05.47.32z"/><path d="M32.49 19.91l-.38-.42.05-.06.48.32-.15.16zm-.32-.46l.33.44.14-.13-.47-.31z"/><path fill-rule="evenodd" clip-rule="evenodd" fill="#e6b32d" d="M31.54 19.8l.44-.35.05.03-.35.45z"/><path d="M31.68 19.94l-.15-.14.44-.36.06.05-.35.45zm.34-.46l-.48.32.13.11.35-.43z"/><path fill-rule="evenodd" clip-rule="evenodd" fill="#e6b32d" d="M32.63 19l-.45.34-.05-.04.35-.45z"/><path d="M32.18 19.35l-.06-.04.35-.46.17.15-.46.35zm.29-.49l-.34.44.05.04-.01-.01.46-.33-.16-.14z"/><path fill-rule="evenodd" clip-rule="evenodd" fill="#e6b32d" d="M32.14 18.73l-.04.54h-.06l-.14-.53z"/><path d="M32.11 19.28h-.07l-.15-.53.26-.02-.04.55zm.02-.55l-.23.02.15.51h.04l.04-.53z"/><path fill-rule="evenodd" clip-rule="evenodd" fill="#e6b32d" d="M32 20.04l.04-.54.06-.01.09.55z"/><path d="M32.2 20.05H32l.03-.56.07-.01.1.57zm-.1-.56l-.09.55.17-.01-.08-.54z"/><path fill-rule="evenodd" clip-rule="evenodd" fill="#e6b32d" d="M31.4 19.31l.56.06.01.06-.57.07z"/><path d="M31.39 19.51v-.2l.58.06.01.06-.59.08zm.01-.19l.01.17.56-.07-.57-.1z"/><path fill-rule="evenodd" clip-rule="evenodd" fill="#e6b32d" d="M32.74 19.5l-.55-.09-.01-.04.57-.06z"/><path d="M32.76 19.51l-.57-.09.1-.02.44.09.01-.18-.08.01.09-.02z"/><path d="M31.92 19.37c0 .08.07.15.15.15.08 0 .15-.06.15-.15 0-.08-.07-.14-.15-.14-.08 0-.15.07-.15.14" fill-rule="evenodd" clip-rule="evenodd" fill="#e6b32d"/><path d="M32.07 19.53c-.09 0-.16-.07-.16-.16 0-.17.32-.17.32 0 0 .09-.07.16-.16.16m0-.29c-.08 0-.14.06-.14.13 0 .15.28.15.28 0 0-.07-.06-.13-.14-.13"/><path d="M31.28 19.37c0 .42.36.77.8.77.44 0 .79-.34.79-.77 0-.42-.36-.77-.79-.77-.45.01-.8.35-.8.77m.16 0c0 .34.28.61.64.61.35 0 .63-.28.63-.61 0-.34-.29-.61-.63-.61-.36 0-.64.27-.64.61" fill-rule="evenodd" clip-rule="evenodd" fill="#e6b32d"/><path d="M32.07 20.15c-.45 0-.81-.35-.81-.78 0-.43.36-.78.81-.78.44 0 .8.35.8.78.01.43-.35.78-.8.78m0-1.53c-.43 0-.79.34-.79.76s.35.76.79.76c.43 0 .78-.34.78-.76.01-.42-.34-.76-.78-.76m0 1.38c-.36 0-.65-.28-.65-.63 0-.34.29-.63.65-.63.36 0 .65.28.65.63s-.29.63-.65.63m0-1.23c-.35 0-.63.27-.63.6 0 .33.28.6.63.6.34 0 .63-.27.63-.6 0-.33-.28-.6-.63-.6"/><path fill-rule="evenodd" clip-rule="evenodd" fill="#e6b32d" d="M29.89 18.62l-.13.69.11.06.12-.74z"/><path d="M29.88 19.39l-.12-.07.13-.71H30l-.12.78zm.1-.76h-.09l-.13.69.09.04.13-.73z"/><path d="M29.96 18.53c.06-.02.15.02.28-.15.22.21.01.23-.02.44-.06.03-.1-.15-.27-.17-.02 0-.27-.02-.27-.02l.06-.09c0-.01.18-.01.22-.01" fill-rule="evenodd" clip-rule="evenodd" fill="#fff"/><path d="M30.21 18.82c-.03 0-.05-.03-.07-.06-.04-.05-.09-.11-.19-.12l-.27-.02.05-.1.28-.01c.05-.01.12-.02.22-.14.17.14.12.2.07.29-.03.04-.06.09-.07.16h-.02zm-.47-.28l-.06.08.27.01c.1.01.16.08.2.13.02.03.04.05.06.05v.01l.01-.01c.01-.06.04-.11.07-.16.05-.08.09-.13-.05-.26-.09.13-.16.14-.22.14l-.11.01h-.17z"/><path d="M29.87 18.66l.03-.21c.03-.07.12-.01.12.03l-.02.19-.13-.01z" fill-rule="evenodd" clip-rule="evenodd" fill="#fff"/><path d="M30 18.69l-.13-.02.02-.22c.02-.01.04-.02.05-.02l-.06.23h.1l.02-.18c0-.02-.02-.04-.05-.05.05 0 .07.03.07.05l-.02.21z"/><path d="M31.41 20.38c0 .03.02.06.04.07.03.02.06.02.09 0s.04-.04.04-.07c0-.03-.02-.06-.04-.07a.075.075 0 0 0-.09 0c-.02.01-.04.04-.04.07M31.64 20.22c0 .03.02.06.04.07.03.01.06.01.09 0 .03-.02.04-.04.04-.07 0-.03-.02-.06-.04-.07a.075.075 0 0 0-.09 0c-.02.01-.04.04-.04.07M31.94 20.32c0 .03.02.06.04.07.03.01.06.01.09 0 .03-.02.04-.04.04-.07 0-.03-.02-.06-.04-.07a.139.139 0 0 0-.09 0c-.03.01-.04.04-.04.07M32.4 20.42c0 .03.02.06.04.07.03.02.06.02.09 0 .03-.01.04-.04.04-.07 0-.03-.02-.06-.04-.07a.139.139 0 0 0-.09 0c-.02.01-.04.04-.04.07M32.6 20.45c0 .03.02.06.04.07.03.02.06.02.09 0 .03-.01.05-.04.05-.07 0-.03-.02-.06-.05-.07a.139.139 0 0 0-.09 0c-.02.01-.04.04-.04.07M32.79 20.45c0 .03.02.06.04.07.03.02.06.02.09 0 .03-.01.04-.04.04-.07 0-.03-.02-.06-.04-.07a.139.139 0 0 0-.09 0c-.02.01-.04.04-.04.07M32.99 20.44c0 .03.02.06.04.07.03.02.06.02.09 0s.04-.04.04-.07c0-.03-.02-.06-.04-.07a.075.075 0 0 0-.09 0c-.02.01-.04.04-.04.07M32.89 20.29c0 .03.02.06.04.07.03.02.06.02.09 0 .03-.01.05-.04.05-.07 0-.03-.02-.06-.05-.07a.075.075 0 0 0-.09 0c-.02.01-.04.04-.04.07M32.7 20.3c0 .03.02.06.04.07.03.02.06.02.09 0 .03-.01.04-.04.04-.07 0-.03-.02-.06-.04-.07a.075.075 0 0 0-.09 0c-.02.01-.04.04-.04.07M32.52 20.28c0 .03.02.06.04.07.03.02.06.02.09 0 .03-.01.04-.04.04-.07 0-.03-.02-.06-.04-.07a.075.075 0 0 0-.09 0c-.02.01-.04.04-.04.07M32.61 20.13c0 .03.02.06.04.07.03.02.06.02.09 0s.04-.04.04-.07c0-.03-.02-.06-.04-.07a.075.075 0 0 0-.09 0c-.02.01-.04.04-.04.07M32.79 20.13c0 .03.02.06.04.07.03.02.06.02.09 0s.04-.04.04-.07c0-.03-.02-.06-.04-.07a.139.139 0 0 0-.09 0c-.02.01-.04.04-.04.07" fill-rule="evenodd" clip-rule="evenodd" fill="#e6b32d"/><path d="M31.3 19.82c.07-.03.07.14.07.14h-.12c-.05.02-.09.1-.06.14.03.03.26-.05.27-.01-.04.23-.34.32-.45.22-.11-.1-.14-.36.21-.43l.08-.06z" fill-rule="evenodd" clip-rule="evenodd" fill="#fff"/><path d="M31.14 20.36c-.05 0-.1-.01-.13-.04a.27.27 0 0 1-.07-.24c.03-.1.13-.18.29-.21l.08-.06h.04c.04.03.04.14.04.15l-.13.01a.17.17 0 0 0-.06.08c.01.05.08.04.12.03.08-.01.15-.03.16.01a.31.31 0 0 1-.23.25c-.04.01-.08.02-.11.02m.08-.47c-.15.03-.24.1-.26.19-.03.09.01.18.06.22.05.04.14.05.22.02.11-.04.19-.13.21-.23 0-.01-.09 0-.13.01-.08.01-.12.02-.13 0 0-.1.03-.14.06-.15h.02l-.05-.06zm1.75-.14l-.01-.02.73-.32-.72.34z"/><path d="M34.13 19.07s.27 0 .31.02c.02.01-.07.09-.05.13.07.13.52.11.55.08.06-.05-.42-.09-.42-.12-.01-.04.07-.13.06-.19-.02-.08-.21-.11-.21-.11l-.24.19z" fill-rule="evenodd" clip-rule="evenodd" fill="#c00024"/><path d="M34.77 19.33c-.08 0-.33-.01-.38-.11-.01-.02.01-.06.03-.1 0-.04-.09-.05-.22-.05l.01-.01a.97.97 0 0 1 .25 0c-.03.08-.05.12-.04.14.06.12.51.1.54.08-.01-.02-.15-.04-.23-.06-.15-.03-.19-.04-.19-.06 0-.02.01-.05.03-.08.02-.04.04-.08.03-.12-.01-.06-.15-.09-.2-.1l-.06.05.06-.07c.03 0 .21.03.23.11.01.04-.01.09-.04.13-.01.03-.02.05-.02.07.01.01.1.02.18.04.17.03.24.05.25.07-.06.07-.15.07-.23.07" fill="#c00024"/><path d="M33.78 19.32l.6-.5s.03-.03.05 0c.02.02-.01.05-.01.05l-.62.51-.02-.06z" fill-rule="evenodd" clip-rule="evenodd" fill="#4d3509"/><path d="M33.79 19.4l-.03-.08.61-.51.07.03-.65.56zm.62-.54l-.63.47.01.04.62-.51z"/><path d="M33.2 19.81l.49-.43.03-.12s.07.05.1.08.07.1.07.1l-.13.01-.42.39-.14-.03z" fill-rule="evenodd" clip-rule="evenodd" fill="#e6b32d"/><path d="M33.34 19.84l-.14-.02c0-.03.49-.44.49-.44l.03-.12c.02-.01.09.05.12.07.03.03.07.09.07.1l-.14.02-.43.39zm.37-.57l-.02.12c0 .01-.48.42-.49.43h.12l.42-.39.13-.01c-.02-.01-.05-.06-.07-.08a.443.443 0 0 0-.09-.07"/><path d="M30.53 19.24v.19c.06.02.05.07.05.14v.56c.02.04.09.04.12.07.03.03.03.09-.12.12l-.11.01c-.18-.04-.21-.1-.12-.13.05-.02.11-.04.13-.07v-.14h-.11c-.03 0-.09-.08-.09-.14v-.29c0-.17.13-.18.16-.18v-.15h.09zm-.19.32c0-.05.06-.09.09-.09s.09.06.09.1v.12c0 .05-.04.19-.11.2-.03.01-.08-.05-.08-.09l.01-.24z" fill-rule="evenodd" clip-rule="evenodd" fill="#e6b32d"/><path d="M30.47 20.33c-.11-.03-.18-.06-.18-.09v-.01l.05-.05c.06-.02.11-.04.13-.06l-.01-.12-.1.02c-.04 0-.1-.09-.1-.15v-.29c0-.15.11-.19.17-.19l-.01-.14.12-.01.01.2c.06.01.06.06.05.11v.58c.01.01.03.02.06.03l.08.08c-.01.03-.04.06-.14.09h-.13zm0-.34l.02.14c-.03.03-.08.05-.12.07-.05.06-.01.09.1.11h.11c.1-.03.12-.06.13-.07l-.06-.06c-.03-.01-.06-.02-.07-.05v-.57c0-.08 0-.11-.05-.13v-.2l-.09.01.01.14c-.03.01-.16.02-.16.18v.29c0 .06.06.13.08.13l.1.01zm-.06-.09c-.04 0-.08-.05-.08-.1v-.24c0-.06.07-.1.1-.1.04 0 .1.06.1.11v.12c0 .03-.03.2-.12.21m.02-.42c-.02 0-.08.04-.08.08v.24c0 .04.04.08.06.08.06-.01.1-.14.1-.19v-.12c0-.04-.05-.09-.08-.09"/><path d="M29.47 13.88c.91-.92 1.64-.47 1.81-.34-.11.02-.21-.05-.27-.06.03.04.1.14.1.14s-.28-.13-.32-.12c.04.03.09.11.09.11-.02.01-.18-.13-.21-.13.05.06.06.18.06.18l-.14-.06c-.04.03.01.07-.02.07-.23-.02-.55.21-.59.28l-.51-.07z" fill-rule="evenodd" clip-rule="evenodd" fill="#2c6c1e"/><path d="M29.98 13.96c.03-.09.37-.32.59-.3v.02c-.23-.02-.55.21-.59.28m-.51-.08l-.02-.02c.9-.9 1.62-.49 1.82-.34-.09.03-.16 0-.22-.02-.02 0 .05.11.05.11h-.01-.01c-.14-.05-.27-.1-.3-.1.04.01.09.09.09.09-.02.02-.04.01-.12-.05a.412.412 0 0 0-.1-.06c.06.04.08.16.08.17l-.15-.05.01-.02.13.06c-.01-.02-.03-.12-.07-.16.02-.02.06.01.12.05.03.02.06.05.08.06-.02-.02-.05-.06-.08-.09.04-.03.22.05.3.09-.03-.03-.07-.09-.1-.12l-.02-.03.1.04c.05.02.13.05.2.04-.18-.13-.89-.54-1.78.35"/><path d="M29.69 14.04c.09-.22 1.84-.59 2.19.03-.14.04-.27-.11-.27-.11l.01.14-.23-.18.08.18-.18-.15.01.15-.23-.25.03.15-.2-.09.02.12-1.23.01z" fill-rule="evenodd" clip-rule="evenodd" fill="#2c6c1e"/><path d="M31.31 14.1l-.24-.24.04.14-.22-.07.04.11-.04-.12.22.07-.04-.13.24.24-.03-.15.2.14-.1-.17.25.16-.03-.13s.12.11.24.11c.01 0 .03 0 .04-.01-.19-.31-.76-.33-1.07-.31-.53.03-1.05.19-1.1.3l-.02-.01c.06-.13.61-.29 1.12-.31.33-.02.9.01 1.09.34-.14.05-.28-.1-.29-.1l.03.13-.25-.17.1.17-.2-.14.02.15z"/><path d="M29.77 14.08c.45-.3 1.14-.1 1.14-.1.44.25.68.2.73.66-.04-.01-.16-.16-.16-.16l-.09.18-.03-.25-.07.2-.11-.32-.02.22-.17-.22-.08.06-.07-.17-.07.11s-.11-.07-.18-.03l-.12-.14-.03.1-.11-.13-.04.09-.11-.1.01.07-.37.01-.05-.08z" fill-rule="evenodd" clip-rule="evenodd" fill="#2c6c1e"/><path d="M31.4 14.66l-.05-.26-.05.2-.13-.32v.22l-.19-.21-.06.07-.09-.17-.05.11s-.08-.03-.14-.03c-.02 0-.03 0-.05.01l-.14-.15-.01.1-.13-.12-.02.09-.02-.02.02.01.03-.09.12.12.01-.1.14.14c.06-.05.17.02.18.03l.05-.1.09.17.06-.07.18.22.01-.21.13.32.05-.2.06.24.07-.19c.05.04.14.14.18.16-.06-.32-.19-.39-.44-.5-.09-.04-.19-.08-.3-.15-.01 0-.69-.2-1.13.1l-.01-.02c.45-.3 1.14-.1 1.15-.1.12.06.21.11.3.14.25.11.4.18.44.53-.06-.01-.17-.14-.18-.16l-.08.19z"/><path d="M29.87 14.13c.31-.01 1.2.33 1.44.69a.99.99 0 0 0-.15-.07l-.05.14-.05-.14-.01.11c-.03-.09-.07-.1-.14-.01l-.02-.13-.03.13-.06-.14s-.04.15-.06.14c0 0-.1-.26-.14-.27l-.01.16-.06-.16-.05.12-.01-.17-.06.13s-.03-.13-.08-.15l-.09.08-.4-.29.03-.17z" fill-rule="evenodd" clip-rule="evenodd" fill="#2c6c1e"/><path d="M31.12 14.89l-.08-.14.01.11c-.04-.04-.05-.06-.07-.06-.01 0-.04.02-.07.06l-.04-.14-.02.13-.08-.14c.01.03-.01.13-.04.15-.07-.13-.13-.26-.15-.27v.15l-.08-.16-.03.12-.03-.18-.04.13c-.03-.04-.06-.13-.09-.15l-.08.08-.41-.29.41.27.08-.08c.06.02.09.15.09.16l.04-.14.03.18.03-.13.08.16-.01-.16c.06 0 .15.22.16.26 0-.01.02-.08.04-.14l.08.13.02-.13.04.13c.02-.05.04-.08.07-.07.02 0 .05.03.06.07l-.01-.11.09.2.02-.15c.02-.01.07.02.17.07-.24-.33-1.12-.66-1.43-.66h-.01v-.02h.01c.31 0 1.2.33 1.44.69-.11-.04-.16-.06-.16-.06l-.04.13z"/><path d="M29.81 14.2c.41.16.79.73.76.97-.18-.23-.14-.2-.23.07 0 0-.03-.23-.06-.26l-.05.17-.02-.22h-.06l.01-.14-.08.06c.02-.08.04-.1-.05-.17 0 0 .11.02.02-.18l-.08.08s.01-.09-.01-.12l-.29-.1.14-.16z" fill-rule="evenodd" clip-rule="evenodd" fill="#2c6c1e"/><path d="M30.35 15.24c-.03-.09-.06-.24-.08-.25l-.04.17v-.01.01l.03-.17c.06.01.09.21.09.25l.01-.12c.02-.08.03-.11.06-.12.04-.01.06.03.13.13.03-.19-.33-.76-.74-.92l.01-.02c.43.16.79.74.76.98-.1-.1-.14-.15-.15-.15-.01 0-.02.05-.04.1l-.04.12zm-.26-.38c.01-.1.01-.12-.06-.18.05-.05.06-.09.02-.19l-.06.08c-.01-.03-.01-.09-.03-.12l-.29-.1.3.08c.04.04.02.12.02.13l.06-.09c.05.09.06.14.04.18.04.07.03.1.01.16l.06-.05v.02-.02l-.07.1z"/><path d="M29.77 14.25l.16.3-.08.02.18.14-.15-.02s.23.09.26.32l-.24-.11s.2.21.23.33l-.14-.12s.13.15.11.36l-.1-.11c.03.26.02.29-.1.49 0 0 .03-.31 0-.35l-.27.28.15-.39s-.16.25-.26.22l.21-.32-.21.17.23-.35-.22.07s.16-.2.14-.32l-.15.16s.06-.19.04-.24l-.08.02.15-.17-.1-.02.01-.11-.07-.02v-.12l.3-.11z" fill-rule="evenodd" clip-rule="evenodd" fill="#2c6c1e"/><path d="M29.91 15.85c-.01-.13 0-.32-.02-.35l-.25.28.12-.37c-.04.07-.15.22-.25.21l.2-.33-.19.18.22-.36-.2.08c-.01-.02.14-.21.13-.33l-.13.17c0-.06.04-.2.02-.24l-.06.01.14-.19h-.09v-.13l-.07-.01v-.14l.02.13.07.01-.01.12.09.01-.14.19.07-.03c.03.06-.02.23-.03.25l.13-.17c.03.13-.12.33-.13.34l.21-.08-.22.36.19-.18-.19.33c.07 0 .2-.17.24-.24 0 0 0 .02-.01.03l-.12.37.25-.29c.04.05.01.31.01.37.1-.21.11-.23.09-.49l.12.11c0-.2-.13-.35-.13-.35.01 0 .02.01.03.02l.12.08c-.04-.11-.24-.31-.24-.32h.02l.24.08c-.04-.21-.27-.29-.27-.3h.16l-.19-.12.08-.04-.17-.28.02-.01.16.3-.09.04.18.12h-.14c.06.02.23.11.25.3l-.24-.09c.05.03.2.2.23.31l-.12-.08c.04.05.11.17.09.33l-.11-.1c.04.26.03.28-.09.49m-.01-.36c-.09-.11-.1-.28-.11-.46-.02-.23-.04-.5-.18-.69l.02-.01c.15.2.17.47.19.7 0 .18.02.35.08.46"/><path d="M31.04 20.49c0-.04.09-.02.09-.06 0-.05-.14-.01-.16.03-.08-.07-.11-.02-.16 0-.07-.1-.15-.09-.23-.02-.05-.05-.17-.03-.21.02-.08-.08-.15-.06-.2 0-.02-.04-.05-.03-.07 0-.04-.07-.15-.05-.19 0-.04-.04-.08-.01-.13.02-.03-.03-.09-.03-.09.01s.07.02.07.06c0 .03-.05.01-.05.05 0 .03.08.04.09-.01.03.05.13.03.14-.01.03.04.11.05.15-.01.03.03.07.03.09 0 .06.07.16.05.2-.02h.03c.06.08.15.05.18 0 .1.07.16.05.22 0 .06.08.16.08.19 0 .04.03.13.04.13 0-.02-.04-.09-.03-.09-.06m-.2.01c0 .02.02.03.05.03.03 0 .05-.01.05-.03 0-.02-.02-.03-.05-.03-.02 0-.05.02-.05.03m-.21-.02c0 .02.03.03.06.03.04 0 .06-.02.06-.03 0-.02-.03-.04-.06-.04s-.06.02-.06.04m-.42.02c0 .02.02.04.06.04.03 0 .05-.02.05-.04s-.02-.04-.05-.04c-.04.01-.06.02-.06.04m.22-.01c0 .03.03.05.06.05s.05-.02.05-.05c0-.03-.02-.05-.05-.05s-.06.03-.06.05m-.48 0c0 .02.02.04.05.04s.05-.02.05-.04-.02-.04-.05-.04-.05.02-.05.04m.15.01c0 .02.01.03.03.03.02 0 .03-.01.03-.03 0-.01-.01-.03-.03-.03-.02.01-.03.02-.03.03m-.29.01c0 .02.02.04.04.04s.04-.02.04-.04-.02-.04-.04-.04c-.02.01-.04.02-.04.04" fill-rule="evenodd" clip-rule="evenodd" fill="#e6b32d"/><path d="M29.74 20.62l-.05-.04.05-.05-.07-.05.06-.01.04.06-.05.05.03.02.04-.04.07.03c.03 0 .06-.02.07-.04l.07.03c.03 0 .05-.01.07-.04l.01-.01.1.01c.05.06.15.04.18-.02.01 0 .02.01.03.01-.07.07-.17.08-.23.02l-.09-.01.01.01c-.04.05-.12.05-.16.01.01.03-.03.05-.07.05h-.01l-.06-.04c.02.03-.01.05-.04.05m1.16-.01c-.04 0-.08-.02-.11-.06-.02.04-.11.07-.22 0 0 .04-.09.11-.18 0 .16.07.16.01.17-.02.11.05.15.06.22 0 .08.07.16.07.18.01.04.01.07.02.1.02l-.04-.07.06-.04v.02l.04.07c-.09.04-.13.02-.15.01.01.03-.03.06-.07.06m-.73-.11h-.08l.05-.04-.05-.01c-.05-.08-.14-.04-.17 0-.07-.02-.09 0-.12.01h-.03.01c.03-.03.06-.05.08-.05.12-.01.2-.04.24.03.19-.07.2-.07.28 0 .02-.06.16-.08.21-.02.06-.09.17-.08.23.02l.08-.04c.02 0 .05.01.08.04 0-.03.06-.06.11-.06v.03c-.05 0-.1.02-.11.04-.04-.02-.06-.03-.08-.03l-.1.03c-.06-.09-.14-.09-.22-.02-.08-.04-.17-.03-.21.02-.09-.06-.14-.06-.2 0l-.01.01h-.02l.03.04z"/><path d="M29.57 19.14s.14-1.17.14-1.68c0-.4-.1-1.28-.1-1.28h-.4s-.06.88-.05 1.27c.01.51.14 1.68.14 1.68h.27z" fill-rule="evenodd" clip-rule="evenodd" fill="#e6b32d"/><path d="M29.58 19.15h-.28c-.01-.02-.14-1.19-.15-1.69-.01-.39.05-1.26.05-1.27l.41-.01c.01.02.11.89.11 1.29 0 .49-.14 1.66-.14 1.68zm-.37-2.96c.01 0-.05.87-.04 1.26.01.5.14 1.67.14 1.68l.25-.01c.01-.11.14-1.19.14-1.67 0-.39-.09-1.27-.1-1.28l-.39.02z"/><path fill-rule="evenodd" clip-rule="evenodd" fill="#e6b32d" d="M29.19 16.24h.46l-.05-.31h-.34z"/><path d="M29.67 16.25h-.48l.06-.33.35-.01.07.34zm-.08-.32l-.33.01-.07.31.45-.01-.05-.31z"/><path fill-rule="evenodd" clip-rule="evenodd" fill="#e6b32d" d="M29.22 15.99h.41l-.08-.32h-.25z"/><path d="M29.65 16h-.43l.07-.33.27-.01.09.34zm-.11-.32l-.25.01-.07.31.39-.01-.07-.31z"/><path fill-rule="evenodd" clip-rule="evenodd" fill="#e6b32d" d="M29.24 15.73h.35l-.06-.31h-.22z"/><path d="M29.6 15.74h-.36l.06-.33.23-.01.07.34zm-.08-.32l-.21.01-.06.3.33-.01-.06-.3z"/><path fill-rule="evenodd" clip-rule="evenodd" fill="#e6b32d" d="M29.54 15.38h-.24l-.02.11h.28z"/><path d="M29.66 18.43h-.44l.44-.02v.02zm.02-.25h-.46l.46-.02v.02zm0-.26h-.48l.48-.02v.02zm.02-.23h-.52l.52-.02v.02zm0-.21h-.55l.55-.02v.02zm0-.26h-.55l.55-.02v.02zm-.02-.25h-.53l.53-.02v.02zm-.02-.25h-.48l.48-.02v.02zm-.03-.23h-.43l.43-.02v.02z"/><path d="M29.44 19.04c-.3 0-.54.11-.54.25 0 .02.01.05.02.07.07.08.27.13.52.13.23 0 .43-.05.5-.11.02-.03.03-.05.03-.08.01-.15-.23-.26-.53-.26" fill-rule="evenodd" clip-rule="evenodd" fill="#233189"/><path d="M29.44 19.5c-.25 0-.46-.05-.53-.13l-.02-.08c0-.14.25-.26.55-.26.3 0 .55.12.55.26 0 .03-.01.06-.03.09-.09.07-.29.12-.52.12m0-.45c-.28 0-.52.11-.52.23.15.25.86.21 1.02.07.02-.02.03-.05.03-.07-.01-.12-.25-.23-.53-.23" fill="#233189"/><path d="M29.98 19.31v.83c0 .1-.24.18-.54.18-.3 0-.54-.08-.54-.18v-.83c0 .1.24.18.54.18.3 0 .54-.09.54-.18" fill-rule="evenodd" clip-rule="evenodd" fill="#e6b32d"/><path d="M29.44 20.33c-.31 0-.55-.08-.55-.19v-.83c.02.08.23.17.55.17.32 0 .53-.09.53-.17v.02l.02.81c0 .1-.24.19-.55.19m-.55-1.02l.02.83c0 .08.21.17.53.17.32 0 .53-.09.53-.17v-.81c-.02.09-.25.16-.53.16-.3.01-.54-.08-.55-.18"/><path d="M28.91 19.31v.13l.26.81.21-.62.23.64.17-.61.21.41v-.22l-.2-.4c-.02.01-.05.01-.07.02l-.12.45-.17-.42h-.08l-.17.43-.2-.51c-.05-.05-.07-.08-.07-.11" fill-rule="evenodd" clip-rule="evenodd" fill="#c00024"/><path d="M29.6 20.3l-.24-.68-.19.62-.28-.81v-.13c.02.03.06.06.08.08l.2.52.15-.43h.09l.18.43.1-.45.08-.02.21.4v.23l-.23-.4-.15.64zm-.7-.97l.02.1.26.8.19-.62.24.61.16-.58.23.41-.02-.22-.2-.39-.06.02-.11.44-.19-.42h-.08l-.16.42-.22-.52c-.03 0-.05-.02-.06-.05" fill="#c00024"/><path d="M29.98 19.98v.16c0 .1-.24.18-.54.18-.3 0-.54-.08-.54-.18v-.16c0 .1.24.18.54.18.3 0 .54-.08.54-.18" fill-rule="evenodd" clip-rule="evenodd" fill="#233189"/><path d="M29.44 20.33c-.31 0-.55-.08-.55-.19v-.16c.02.08.23.17.55.17.32 0 .53-.09.53-.17v.01l.02.15c0 .1-.24.19-.55.19M28.9 20l.02.14c0 .08.21.17.53.17.32 0 .53-.09.53-.17v-.13c-.02.09-.25.16-.53.16-.3 0-.53-.07-.55-.17" fill="#233189"/><path d="M29.66 20.14c-.04.01-.09.01-.14.02v.15c.05 0 .1-.01.14-.01v-.16zM29.09 20.12v.16c.04.01.09.02.14.03v-.16c-.05-.01-.1-.02-.14-.03M28.91 19.98v.16c0 .03.02.06.06.08v-.15c-.04-.03-.06-.06-.06-.09M29.98 20c-.01.03-.05.06-.1.09v.15c.06-.03.1-.06.1-.1V20z" fill-rule="evenodd" clip-rule="evenodd" fill="#e6b32d"/><path d="M29.44 20.33c-.31 0-.55-.08-.55-.19v-.83l.02.83c0 .08.21.17.53.17.19 0 .35-.03.44-.08l-.01-.14c.06-.03.09-.06.1-.09v-.68c0-.01.02-.01.02 0v.83c0 .03-.02.05-.04.07-.08.06-.28.11-.51.11"/><path d="M29.86 19.25c0 .06-.19.11-.42.11s-.42-.05-.42-.11.19-.11.42-.11.42.05.42.11" fill-rule="evenodd" clip-rule="evenodd" fill="#fff"/><path d="M29.44 19.37c-.21 0-.43-.04-.43-.11 0-.15.85-.15.85 0 .01.07-.21.11-.42.11m0-.22c-.24 0-.41.05-.41.1s.17.1.41.1c.24 0 .41-.05.41-.1s-.17-.1-.41-.1" fill="#fff"/><path d="M29.31 19.33l.02.15c.04 0 .07 0 .11.01l.03-.15h-.16zM29.79 19.3l-.11.03.01.14c.04-.01.07-.01.1-.02v-.15zM29.15 19.07l-.09.03.02.11.07-.02v-.12zM29.44 19.03h-.04l.02.14h.07l.03-.14h-.08M29.76 19.08l-.01.12.08.03.01-.12a.689.689 0 0 1-.08-.03M28.99 19.4l.02-.15-.11-.06v.18zM29.98 19.37v-.15l-.1.03z" fill-rule="evenodd" clip-rule="evenodd" fill="#e6b32d"/><path d="M28.11 18.4c-.03-.06-.13-.1-.24-.1-.11 0-.2.04-.24.1-.01-.01-.01-.03-.01-.04 0-.08.11-.14.25-.14s.25.06.25.14c0 .01 0 .02-.01.04" fill-rule="evenodd" clip-rule="evenodd" fill="#2c6c1e"/><path d="M28.1 18.4c-.06-.11-.39-.11-.45 0-.01-.02-.01-.04-.01-.05.05-.05.37-.09.46.02v-.02c0-.13-.41-.15-.46-.03.04-.19.49-.13.49.03l-.02.03v.01l-.01.01v-.01.01-.01.01z" fill="#fff"/><path d="M28.09 18.57c0 .15-.1.28-.22.28s-.21-.13-.21-.28v-.15h.43v.15z" fill-rule="evenodd" clip-rule="evenodd" fill="#2c6c1e"/><path d="M27.87 18.87c-.13 0-.23-.13-.23-.3v-.15l.45-.02.02.17c0 .16-.11.3-.24.3m.2-.45l-.41.02.02.13c0 .14.09.26.2.26.11 0 .2-.12.2-.26v-.15z" fill="#fff"/><path d="M28.09 18.37c0 .06-.1.11-.21.11s-.21-.05-.21-.11.1-.1.21-.1.21.04.21.1" fill-rule="evenodd" clip-rule="evenodd" fill="#fff"/><path fill-rule="evenodd" clip-rule="evenodd" fill="#2c6c1e" d="M27.83 18.49l-.04-.39h.16l-.02.39z"/><path fill="#e6b32d" d="M27.93 18.5h-.1l-.05-.39.17-.02z"/><path d="M28.11 18.38c-.03.06-.13.1-.24.1-.11 0-.2-.04-.24-.1-.01.01-.01.03-.01.04 0 .08.11.14.25.14s.25-.06.25-.14c0-.01 0-.03-.01-.04" fill-rule="evenodd" clip-rule="evenodd" fill="#2c6c1e"/><path d="M27.87 18.58c-.15 0-.26-.07-.26-.16h.02c.06.16.42.14.47.02-.01.1-.11.14-.23.14m0-.09c-.08 0-.16-.02-.21-.06.14.03.38.04.43-.06.01.02.01.04.01.05-.02.04-.12.07-.23.07" fill="#fff"/><path fill-rule="evenodd" clip-rule="evenodd" fill="#e6b32d" d="M27.71 19.18l.43.05.07-.39-.51-.05z"/><path d="M28.15 19.23l-.44-.03v-.03l.43.05.06-.38-.5-.03.51.02z"/><path fill-rule="evenodd" clip-rule="evenodd" fill="#e6b32d" d="M27.82 18.78l-.06.45.12-.01.06-.44z"/><path d="M27.74 19.24l.07-.46.13-.01-.04.46z"/><path d="M31.07 18.37c.1-.01.24.12.25.29.01.13-.2.13-.2.13-.01.05-.12.1-.22.11-.09 0 .02-.17.02-.17-.05-.15.02-.32.02-.32l.13-.04z" fill-rule="evenodd" clip-rule="evenodd" fill="#e6b32d"/><path d="M30.91 18.9c-.01-.01-.02-.02-.02-.03.13.01.22-.05.23-.09.01-.01.13-.01.18-.06.02-.17-.04-.25-.09-.3a.237.237 0 0 0-.12-.05l-.12.03s-.06.16-.02.3h.3l-.14.03-.08-.01-.08.01c-.02.05-.05.1-.05.14-.02-.06.03-.13.04-.14-.06-.14.01-.31.02-.32l.13-.03c.04-.01.09.01.14.05.07.06.12.15.12.24 0 .03-.01.06-.03.08-.06.06-.18.06-.18.06-.01.03-.13.09-.23.09"/><path d="M31.13 18.47c.08-.06.01-.17-.05-.18h-.13c-.06 0-.17.07-.15.13.01.05.05.07.1.06.02 0 .07-.07.1-.07.03.01.1.08.13.06" fill-rule="evenodd" clip-rule="evenodd" fill="#c00024"/><path d="M30.88 18.5c-.05 0-.07-.03-.09-.07.05-.1.11-.14.16-.14h.13c.03 0 .07.04.09.08a.1.1 0 0 1-.04.11c-.03 0-.06-.01-.08-.03l-.17.05zm.2-.2h-.13c-.04 0-.1.03-.13.07 0 .08.02.1.05.1v.01l.13-.07.12.05c.04-.03.04-.07.03-.09-.01-.04-.05-.07-.07-.07" fill="#e6b32d"/><path d="M29.45 13.54c-.08-.04-.27-.15-.21-.22l.09-.14c.12-.27 0-.16-.02-.25-.01-.08.46-.02.46.17 0 .05-.03.02-.03.31l-.09.17c-.06-.01-.14-.01-.2-.04" fill-rule="evenodd" clip-rule="evenodd" fill="#233189"/><path d="M29.61 13.58a.38.38 0 0 1-.16-.03c-.05-.03-.21-.11-.23-.19l.1-.19c.07-.17.05-.18.02-.19l-.03-.07c.08-.1.47.01.48.18-.02.07-.03.11-.03.31l-.09.18h-.06zm-.21-.68c-.05 0-.07.01-.07.02.07.06.09.08.01.26l-.08.15c.01.1.14.18.21.21.04.02.09.03.15.03v.01l.04-.01.08-.17c-.01-.2.01-.25.02-.27 0-.16-.24-.23-.36-.23" fill="#233189"/><path fill-rule="evenodd" clip-rule="evenodd" fill="#e6b32d" d="M29.51 14.23l-.12-.09.03-.84.12.03z"/><path d="M29.52 14.26l-.13-.11.03-.85.13.03-.03.93zm-.1-.95l-.02.83.1.08.03-.88-.11-.03z"/><path d="M29.66 13.56c.07-.04.12-.17.08-.25-.12-.15-.2-.09-.4-.16-.04.04-.12.13-.11.19.26.13.16.02.25.03.05.02.08.08.18.19" fill-rule="evenodd" clip-rule="evenodd" fill="#c00024"/><path d="M29.66 13.58l-.07-.09c-.05-.06-.08-.09-.11-.1l-.07.03c-.03 0-.09-.02-.18-.06-.02-.07.05-.14.09-.19.1.01.15.02.2.02.09.01.15.02.23.12.02.04.02.08.01.13-.02.06-.06.11-.1.14zm-.18-.21c.04.01.06.04.12.11l.06.07a.21.21 0 0 0 .07-.11c.01-.04.01-.08-.01-.11-.07-.09-.13-.1-.22-.11-.05-.01-.1-.02-.17-.04-.04.05-.11.12-.09.17.08.04.14.05.16.05l.08-.03z" fill="#c00024"/><path d="M25.25 20.12c-.07.01-.09.09-.06.17-.32.09-.6.21-.88.29-.01-.06.14-.22.14-.22.04.02.07.11.07.11.01-.19.19-.31.19-.31-.11-.01-.44.12-.48.17 0 0 .13-.01.15 0 0 0-.25.27-.26.35.04.09.47.15.47.15-.01.02-.13.11-.13.11.17.04.43-.08.51-.16 0 0-.2-.02-.36-.14 0 0 .03.08.01.12 0 0-.25-.07-.27-.11 0 0 .58-.15.87-.23.01.05.07.14.13.12.04-.02.03-.1.01-.16.02.01.04.02.06.02.05 0 .09-.04.09-.09a.09.09 0 0 0-.09-.09c-.04 0-.07.03-.09.06 0-.06-.03-.17-.08-.16m.22.18c0 .02-.02.04-.04.04s-.04-.02-.04-.04.02-.04.04-.04.04.01.04.04" fill-rule="evenodd" clip-rule="evenodd" fill="#e6b32d"/><path d="M24.53 20.96c-.03 0-.05 0-.07-.01.05-.06.11-.11.12-.12-.04 0-.43-.06-.48-.15.01-.06.11-.18.18-.27-.06.1-.15.22-.16.27.03.06.35.13.46.14 0 .04-.08.1-.12.13l.07-.01c.16 0 .36-.09.43-.16-.03.01-.2-.01-.34-.12.01.02.03.07.01.1-.04 0-.26-.07-.29-.11 0-.02 0-.02.26-.09.19-.05.45-.12.61-.17.02.05.06.13.12.13.04-.01.05-.07.02-.15.12.01.15-.03.15-.07 0-.08-.13-.1-.15-.03-.04-.09-.07-.14-.1-.14-.07.06-.07.11-.06.16-.17.06-.32.11-.47.16-.14.05-.28.09-.41.13-.02-.07.11-.22.13-.23.06.02.08.1.09.11-.01-.16.12-.27.17-.31-.02.04-.16.15-.17.31-.03-.02-.05-.09-.08-.1-.04.06-.13.17-.12.21.12-.05.26-.09.4-.14.15-.05.3-.11.47-.15-.03-.04-.02-.09 0-.13l.07-.04c.06 0 .09.09.11.16-.02-.09.18-.07.18.03 0 .05-.05.1-.1.1l-.07-.03c.04.06.05.15 0 .17h-.01c-.09 0-.13-.08-.14-.13-.15.05-.41.12-.6.17l-.25.07c.02.01.18.07.27.09 0-.02-.02-.08-.03-.1h.02c.17.11.36.12.36.12-.1.09-.31.2-.48.2m-.3-.63c.03-.07.33-.19.46-.19-.13.02-.36.11-.44.16.02 0 .05-.01.07-.01v.02c-.05.01-.09.02-.09.02"/><path d="M34.54 20.48c.02-.04-.02-.26-.02-.26-.04.01-.1.08-.1.08.06-.18-.1-.48-.1-.48.11.02.46.37.48.43 0 0-.16-.06-.18-.05.03.18.15.26.19.35 0 0-.2.05-.18.21h-.13c-.05-.06.02-.15.02-.15l-.91-.38c-.06-.03-.19-.08-.17-.16.02-.07.24.03.29.05l.81.36z" fill-rule="evenodd" clip-rule="evenodd" fill="#e6b32d"/><path d="M34.49 20.78c-.05-.07.01-.16.01-.17l-.91-.37c-.05-.02-.2-.08-.18-.17.02-.01.04-.01.06-.01-.05.06 0 .11.13.16l.91.38c.01.02-.05.1-.02.15h.13c-.03-.17.18-.21.18-.21a.231.231 0 0 1-.07-.07c-.05-.07-.11-.15-.13-.27.06-.01.19.03.2.04-.03-.05-.38-.39-.49-.41.02.01.15.26.12.44.02-.03.05-.06.08-.06.02.03.05.23.03.28l-.83-.34c-.09-.03-.18-.07-.24-.07.09-.01.16.02.2.04l.86.36c0-.03-.02-.16-.03-.25-.02.01-.07.06-.08.09v-.01-.02c.02-.18-.12-.45-.12-.45.12.01.48.35.5.42-.05 0-.16-.04-.18-.04.02.1.08.18.13.24.03.03.05.06.07.09-.02.02-.2.06-.18.22l-.15.01z"/><path d="M33.66 20.32l.11-.19c.04-.05-.04-.11-.1-.04l-.12.18c-.05.09.06.11.11.05" fill-rule="evenodd" clip-rule="evenodd" fill="#e6b32d"/><path d="M33.59 20.36l-.06-.03c-.01-.02-.01-.04.01-.08l.12-.19.06-.03.05.09-.11.2c-.01.03-.04.04-.07.04"/><path fill-rule="evenodd" clip-rule="evenodd" fill="#fff" d="M27.26 20.77v-.22l-.26.02-.02.23z"/><path d="M26.97 20.81l.01-.25.27-.02.02.22-.3.05zm.28-.26l-.25.03-.01.21.27-.03-.01-.21z"/><path d="M25.36 21.07l-.35-.19c1.43.13 1.73-.37 2.08-.4.21-.02.25.24-.17.12l.11.26s-1.02.57-2.02.34l.35-.13z" fill-rule="evenodd" clip-rule="evenodd" fill="#fff"/><path d="M25.52 21.26c-.18 0-.35-.02-.51-.06l.35-.15-.35-.18c.17-.01.32 0 .46 0 .7 0 1.04-.17 1.29-.3.12-.06.22-.11.33-.12.11 0 .16.05.16.09 0 .06-.11.11-.33.05l.12.25c-.01.03-.71.42-1.52.42m-.5-.38l.35.18-.35.14c.16.02.33.04.51.04.8 0 1.5-.39 1.5-.39l-.11-.25c.23.02.32 0 .32-.04 0-.03-.05-.07-.12-.07-.12.01-.22.06-.34.12-.31.15-.75.37-1.76.27"/><path fill-rule="evenodd" clip-rule="evenodd" fill="#fff" d="M31.61 20.77l.01-.22.32.01.01.23z"/><path d="M31.96 20.81l-.35-.03v-.22h.33l.02.25zm-.03-.25h-.31v.2l.32.02-.01-.22z"/><path d="M33.58 21.02l.33-.18c-1.64.05-1.27-.27-2.09-.36-.21-.02-.37.25.17.12l-.11.26h.26c.56.37 1.31.4 1.82.28l-.38-.12z" fill-rule="evenodd" clip-rule="evenodd" fill="#fff"/><path d="M33.39 21.21c-.48 0-.93-.12-1.26-.35h-.25l.1-.28c-.09.04-.17.05-.23.05-.05 0-.13-.02-.13-.06 0-.05.08-.11.18-.11.34.04.48.1.62.17.23.11.47.22 1.5.19l-.32.2.37.11c-.19.06-.38.08-.58.08m-1.26-.36c.48.31 1.23.42 1.81.29l-.37-.1.33-.2c-.11.02-.22.03-.32.03-.76 0-.98-.1-1.18-.2-.14-.07-.28-.13-.59-.16-.11.02-.19.05-.19.09 0 .04.07.04.11.04.06 0 .14-.01.24-.04l-.09.28.25-.03z"/><path d="M26.92 20.59v.37s.91.34 2.54.34 2.54-.34 2.54-.34v-.37s-.69.32-2.54.32-2.54-.32-2.54-.32" fill-rule="evenodd" clip-rule="evenodd" fill="#fff"/><path d="M29.45 21.32c-1.61 0-2.53-.34-2.54-.34l-.01-.38c.01 0 .71.31 2.55.31 1.82 0 2.52-.31 2.53-.32l.02.38c-.02.01-.93.35-2.55.35m-2.52-.35c.02 0 .94.33 2.52.33 1.61 0 2.52-.33 2.53-.34l-.01-.36c-.01.02-.72.33-2.53.33-1.82 0-2.53-.31-2.54-.32l.03.36z"/><path d="M27.05 20.97l.08-.27.04.01-.07.24.14.04-.01.03-.18-.05zm.27-.12v-.05l.01-.04.04.01-.01.05-.02.05-.02-.02zm.39-.02l.04.01-.04.16c0 .03-.01.05-.02.06s-.02.02-.04.03c-.02.01-.04.01-.07 0a.163.163 0 0 1-.06-.03c-.02-.01-.02-.03-.03-.05v-.07l.03-.16.04.01-.03.16c-.01.03-.01.04-.01.06 0 .01.01.02.02.03.01.01.02.02.04.02.03 0 .05 0 .06-.01.02-.01.02-.03.03-.07l.04-.15zm.04.3l.05-.28.04.01.12.24.04-.22.04.01-.05.28-.04-.01-.11-.24-.04.22-.05-.01zm.3.04l.04-.28.04.01-.04.28-.04-.01zm.11-.12c.01-.04.02-.08.05-.11a.18.18 0 0 1 .11-.03c.03 0 .05.01.07.03.02.02.04.03.04.06.01.02.01.05.01.08s-.01.05-.03.07c-.02.02-.04.04-.06.05-.03.01-.05.01-.07.01a.09.09 0 0 1-.07-.03c-.02-.02-.03-.04-.04-.06-.01-.02-.01-.05-.01-.07m.04 0c0 .03 0 .06.02.08.02.02.04.03.07.04.03 0 .05-.01.07-.02a.15.15 0 0 0 .04-.08v-.06c-.01-.02-.02-.03-.03-.04a.076.076 0 0 0-.05-.02c-.03 0-.05 0-.07.02-.03.01-.04.04-.05.08m.27.17l.02-.28h.04l.13.23.02-.22h.04l-.02.28h-.04l-.13-.23-.02.22h-.04zm.41.03l.01-.28.2.01v.04l-.16-.02v.09l.14.01v.03l-.14-.01-.01.13h-.04zm.22.01l.12-.28h.04l.11.29h-.04l-.03-.09h-.12l-.03.08h-.05zm.09-.12h.1l-.03-.08c-.01-.02-.02-.04-.02-.06 0 .02-.01.04-.02.05l-.03.09zm.22-.16h.04v.28h-.04v-.28zm.18.28v-.25h-.1v-.03h.23v.03h-.1v.25h-.03zm.29 0l-.01-.28h.04l.01.25.15-.01v.04h-.19zm.2-.01l.09-.29h.04l.14.27h-.04l-.04-.08-.12.01-.02.09h-.05zm.08-.13l.1-.01-.04-.07c-.01-.02-.02-.04-.02-.06 0 .02-.01.04-.01.06l-.03.08zm.34.09l-.03-.28.2-.02v.03l-.16.02.01.09.14-.02v.03l-.14.02.02.13h-.04zm.21-.16c-.01-.04 0-.08.02-.11s.05-.05.09-.05c.03 0 .05 0 .08.01.02.01.04.02.06.05.02.02.02.04.03.07 0 .03 0 .06-.01.08a.21.21 0 0 1-.04.06c-.02.01-.04.02-.07.03-.03 0-.05 0-.08-.01a.21.21 0 0 1-.06-.04c0-.04-.01-.06-.02-.09m.05 0c0 .03.02.06.04.07.02.02.05.02.08.02s.05-.02.07-.04c.02-.02.02-.05.02-.09 0-.02-.01-.04-.02-.06a.078.078 0 0 0-.04-.04c-.02-.01-.04-.01-.05-.01-.03 0-.05.01-.07.04-.04.03-.04.07-.03.11m.3.09l-.05-.28.13-.02h.06c.01 0 .03.01.04.02.01.01.02.02.02.04s0 .04-.01.05c-.01.02-.03.03-.06.04.01 0 .02.01.03.01.01.01.03.02.04.03l.06.07-.05.01-.05-.05c-.01-.01-.03-.03-.04-.03-.01-.01-.02-.01-.02-.02h-.02-.02l-.04.01.02.12h-.04zm.01-.16l.08-.01c.02 0 .03-.01.04-.01.01-.01.02-.01.02-.02s.01-.02 0-.02c0-.01-.01-.02-.02-.03-.01-.01-.03-.01-.05 0l-.09.02.02.07zm.47-.03h.04c0 .03-.01.06-.03.08-.02.02-.04.03-.07.04-.03.01-.06.01-.08 0a.21.21 0 0 1-.06-.04.09.09 0 0 1-.03-.07.11.11 0 0 1 0-.08.21.21 0 0 1 .04-.06c.02-.01.04-.03.07-.03.03-.01.05 0 .08.01.02.01.04.03.05.05l-.03.02c-.01-.02-.03-.03-.04-.04-.01-.01-.03-.01-.05 0-.02.01-.04.01-.05.03-.01.01-.02.03-.02.05v.06c.01.02.01.04.02.06.01.02.03.03.04.03.02.01.04.01.05 0 .02-.01.04-.02.05-.03.01-.04.02-.06.02-.08m.1.08l-.08-.27.2-.05.01.03-.17.04.02.09.16-.04.01.03-.16.04.03.09.17-.05.01.03-.2.06z"/></svg>