<svg xmlns="http://www.w3.org/2000/svg" viewBox="0 0 58.92 34.37"><path fill="#fff" d="M0 0h58.92v34.37H0z"/><path fill="#313883" d="M0 2.72h58.92v5.53H0zM0 26.13h58.92v5.53H0zM33.93 17.19l2.28-3.87h-4.52l-2.22-3.91-2.22 3.91h-4.52L25 17.19l-2.28 3.87h4.52l2.22 3.91 2.22-3.91h4.52l-2.27-3.87zm-5.28-3.87l.81-1.41.81 1.41h-1.62zm4.56 5.11l.78 1.35h-1.56l.78-1.35zm-.78-3.84h1.56l-.78 1.35-.78-1.35zm-2.16 6.47l-.81 1.41-.81-1.41h1.62zm-2.35-1.28l-1.49-2.59 1.49-2.59H31l1.49 2.59L31 19.78h-3.08zm-1.42 0h-1.56l.78-1.35.78 1.35zm-1.56-5.19h1.56l-.78 1.35-.78-1.35z"/></svg>