<svg xmlns="http://www.w3.org/2000/svg" viewBox="0 0 58.92 34.37"><path fill="#d50037" d="M0 0h58.92v34.37H0z"/><path d="M30.43 24.45c.01-.03.03-.34.02-.34s-.47-.54-.46-.54c.01 0 .59.13.59.11 0-.02.23-.57.23-.58 0-.01.28.67.28.67l.57.25-.4.33s.09.64.09.65c0 .01-.4-.38-.4-.38l-.44.05s-.06-.2-.08-.22" fill="#f2dd30"/><path d="M31.35 25.04c-.02 0-.03-.01-.43-.4l-.41.06c-.07-.12-.11-.22-.12-.24 0-.07.02-.33.01-.36-.02.03-.46-.55-.46-.56.05-.04.05-.04.15-.02.12.02.38.08.46.09 0-.03.04-.12.13-.34.04-.11.08-.2.09-.22.03-.01.04-.02.07.01h.01v.01c.04.07.11.24.28.64l.62.29-.46.38c.02.01.11.61.11.62v.04h-.05zm-.4-.47c.03.01.23.21.35.32-.03-.19-.08-.54-.08-.54l.37-.33-.51-.22c-.02-.02-.18-.41-.26-.6-.01.03-.03.07-.05.12-.06.15-.13.33-.14.36-.1.04-.31-.01-.53-.05.12.15.36.42.38.44.03.04 0 .31 0 .37.01 0 .03.05.08.21l.39-.08z"/><path d="M27.32 16c-.38.2-1.85 1.87-2.05 2.13-.17.38-.5.86-.84 1.17-.36.28-.56.65-.51 1 0 .44.24.74.44 1.05.12.14.27.23.44.25.34.04.37.15.54.21.68.92 1.68 1.6 2.41 2.13.46.24.78.49.89.62.21.41.17.8.14 1l-.54 2.03c-.09.55.39.43.42.32.22-.28.54-.08 1-1.71.21-.29.42-.57.63-.85 0 0 .25-.1.25-.12.37-.45.09-.7-.12-.78-.15-.06-.31-.11-.46-.17 0 0-.54-.54-.56-.54-.26-.74-1.51-2.33-1.8-2.55-.2-.21-.3-.3-.49-.42-.29-.14-.39-.19-.57-.26-.15-.06-.04-.22.05-.3.99-.54 1.78-1.14 2.74-1.75.05-.03.1-.07.15-.1-.11-.65-.23-1.3-.34-1.96-.53-.19-1.06-.38-1.59-.56-.1.04-.16.1-.23.16" fill="#fff"/><path d="M28.46 28.05c-.08 0-.15-.03-.2-.09-.07-.08-.09-.21-.06-.38l.54-2.04c.05-.36.01-.68-.14-.96-.1-.12-.41-.36-.88-.6l-.27-.2c-.69-.5-1.55-1.13-2.15-1.95-.04-.01-.08-.04-.13-.06a.852.852 0 0 0-.38-.13.665.665 0 0 1-.47-.26l-.09-.14c-.18-.27-.36-.55-.36-.94-.05-.36.15-.75.53-1.04.31-.28.64-.75.82-1.15.18-.23 1.66-1.95 2.07-2.15l.06-.05.15-.12 1.63.56.37 1.99-.17.14c-.32.21-.63.41-.93.62-.59.4-1.15.78-1.81 1.14-.05.04-.11.12-.1.17.22.11.31.16.57.28.25.15.35.24.55.45.3.23 1.54 1.8 1.81 2.56.01 0 .11.08.56.53l.45.16c.06.02.26.12.32.32.04.16-.02.34-.18.53.01 0 .01.03-.26.14l-.62.84c-.35 1.23-.63 1.43-.84 1.57-.06.05-.12.08-.17.14 0 .07-.12.12-.22.12m-.94-12.18c-.02.03-.06.07-.11.11l-.07.06c-.38.2-1.83 1.85-2.04 2.13-.18.41-.52.88-.84 1.17-.36.28-.55.64-.5.97 0 .37.18.64.35.9l.09.14c.11.13.26.21.41.22.24.03.34.09.42.15.04.03.08.05.13.07.61.82 1.46 1.44 2.15 1.94l.27.2c.47.25.79.49.9.63.16.31.21.64.15 1.03l-.54 2.04c-.02.14-.01.24.04.3.04.05.09.06.13.06.08 0 .15-.05.16-.06.06-.09.13-.13.19-.18.19-.13.46-.32.81-1.54l.64-.87c.11-.05.23-.1.25-.12.14-.17.2-.33.16-.46-.04-.17-.21-.24-.27-.26l-.46-.17c-.21-.2-.53-.52-.57-.54-.27-.75-1.52-2.33-1.81-2.56-.21-.22-.3-.3-.49-.42-.3-.14-.4-.19-.56-.25-.07-.03-.1-.08-.1-.12-.01-.09.06-.2.14-.26.66-.36 1.22-.74 1.81-1.14.3-.2.6-.41.93-.62l.15-.1-.36-1.91-1.56-.54z"/><path d="M28.65 26.3c.01-.02 1-.2 1-.2l-.12.37-.99.3.11-.47z" fill="#f2dd30"/><path d="M26.11 22.59l-.08-.03c.19-.5.71-.92 1.1-1.05l.03.08c-.32.1-.86.48-1.05 1M28.47 26.95l-.07-.06c.01-.01.08-.08.14-.11l.1-.04c.08-.03.19-.07.24-.08.07-.02.15-.04.23-.07l.11-.03c.04-.01.08-.02.13-.03.07-.03.14-.05.22-.07l.02.08c-.08.02-.14.04-.21.07-.06.01-.1.02-.14.03l-.1.03c-.07.03-.15.05-.23.07-.05.01-.15.05-.22.08l-.1.04c-.06.03-.12.08-.12.09m.22-.62l-.08-.02.05-.06c.11-.03.3-.09.37-.1.08-.02.17-.04.26-.07l.12-.03c.05-.01.09-.02.15-.03.07-.03.15-.05.24-.07l.02.09c-.08.02-.16.04-.24.07-.07.01-.11.02-.15.03l-.11.03c-.08.03-.17.05-.26.07-.08.01-.27.06-.37.09M28.2 23.03l-.06-.1c.13.02.23.01.29 0 .13 0 .29-.12.31-.16.03-.05.05-.06.07-.07l.02.03v-.06l.04.09-.05.05c-.02.07-.22.2-.38.2-.07.01-.17.02-.24.02M29.97 25.77c-.05 0-.08 0-.11-.01l-.08-.01c-.05 0-.09-.01-.13-.01-.03 0-.07-.01-.1-.01-.04-.01-.08-.01-.12-.01-.04 0-.08 0-.12-.01-.03 0-.07 0-.11-.01-.07-.01-.13-.01-.2-.02-.04 0-.08-.01-.11-.01l-.07-.09h.01c.1 0 .14 0 .18.01.07.01.14.01.21.02.03.01.07.01.1.01.04.01.08.01.12.01.04 0 .08 0 .12.01.03 0 .07.01.11.01.04 0 .08.01.13.01l.19.02-.02.09zM28.37 27.4l-.07-.05a.52.52 0 0 1 .13-.11l.09-.04c.08-.03.17-.07.22-.08.07-.02.14-.04.21-.07l.09-.03c.04-.01.08-.02.13-.03.06-.03.13-.05.2-.07l.02.08c-.07.02-.13.04-.19.07-.06.01-.09.02-.13.03l-.09.03c-.07.03-.14.05-.21.07-.05.01-.14.05-.21.08l-.09.03c-.04.03-.09.08-.1.09M30.24 25.4c-.04-.02-.06-.02-.09-.02-.08-.03-.12-.04-.18-.06a.659.659 0 0 1-.31-.19c-.04-.07-.08-.13-.04-.24l.08.03c-.02.07-.01.09.01.13.05.07.14.14.28.18.06.02.1.03.17.06.03 0 .06.01.09.02l-.01.09zM24.06 20.67l-.01-.03.01.03-.06-.03c.04-.07.06-.08.09-.1l.06-.06.06-.06.07.05c-.03.03-.05.05-.07.08-.02.02-.04.03-.06.06-.04.03-.06.05-.08.05l-.01-.01v.02zM24.96 21.68l-.01-.08c.04-.02.82-.41.9-.49l.08-.06c.03-.03.07-.06.11-.09.03-.02.05-.03.07-.05a.45.45 0 0 0 .1-.1c.02-.02.04-.04.05-.06l.04-.06c.01-.02.01-.05.04-.08.03-.08.05-.14.06-.18l.08.02c-.01.04-.03.1-.05.15l-.04.11c-.01.03-.02.06-.05.1-.01.02-.03.05-.06.07-.02.02-.03.04-.05.06l-.06.05c-.03.02-.05.04-.08.05-.04.03-.07.05-.1.08l-.08.06c-.08.07-.9.5-.95.5M27.26 21.67l-.04-.07c.11-.06.21-.3.21-.36 0-.04 0-.08.01-.12l.09-.08v.09c0 .03-.01.07-.01.11-.01.1-.12.35-.26.43"/><path d="M28.99 25.15h-.2v-.09h.07c.13.01.29.02.56-.06.08-.04.14-.06.17-.1.04-.02.07-.05.1-.09l.07-.07c.03-.03.04-.06.03-.1-.01-.11-.12-.22-.17-.26-.04-.03-.78-.49-.84-.52-.03-.02-.05-.03-.07-.05-.03-.02-.07-.04-.11-.08a2.78 2.78 0 0 1-.11-.08l-.06-.04a.536.536 0 0 1-.11-.18c-.05-.08-.06-.11-.08-.13-.03-.05-.05-.12-.08-.16-.02-.07-.44-.93-.59-1.05-.04-.06-.08-.11-.13-.18-.07-.08-.1-.12-.14-.15-.02-.03-.07-.05-.1-.08-.03-.02-.06-.03-.08-.05-.05-.04-.56-.36-.81-.46l-.22-.07-.11-.03.03-.07c.01 0 .01 0 .13.04l.22.07c.26.09.78.42.84.47.02.01.04.03.07.04.05.03.1.06.12.09.04.03.07.07.11.11.09.1.13.16.17.21.16.13.59 1.04.6 1.08.02.04.05.11.07.15.02.02.03.05.05.08.05.1.07.13.1.16l.08.08c.03.03.07.06.11.08.04.04.08.05.11.07.03.01.05.03.07.05.07.03.84.52.85.52.01.01.19.15.2.32 0 .07-.02.12-.06.17-.03.02-.05.05-.07.07-.04.04-.07.07-.11.09-.04.04-.11.07-.16.09-.26.1-.42.11-.52.11M25.69 19.96h-.08c-.09 0-.18-.04-.27-.07-.1-.04-.16-.07-.24-.12-.06-.03-.1-.07-.15-.12-.09-.08-.21-.11-.28-.13l-.1-.07-.01.04c-.03-.01-.06-.01-.09-.03-.08-.02-.09-.03-.14-.05l.03-.08c.04.02.06.02.07.02.02 0 .03.01.08.03.03.01.05.02.08.03l.07.02c.12.03.25.07.33.14.07.06.11.1.16.13.08.05.13.08.22.11.08.03.16.06.24.06H26v.09h-.31z"/><path d="M24.33 20.31c.21-.01.57.05.57.05l.47-.01c.25-.02.3-.12.34-.19.09-.14.16-.19.23-.3.11-.08.27.11.28.11.4.38.08.84.06.85-.2.18-.24.19-.36.08-.12-.14-.16-.21-.26-.26-.19-.09-.59-.02-.6-.02-.01 0-.21.08-.21.08-.1.04-.16.12-.33.15-.17.01-.23 0-.31-.14-.1-.16-.05-.38.12-.4" fill="#f8e72b"/><path d="M26.05 21.04c-.06 0-.1-.03-.16-.09l-.07-.09c-.07-.08-.1-.13-.17-.16-.13-.06-.49-.03-.56-.02-.03.01-.21.08-.21.08-.03.01-.06.03-.09.05-.06.04-.13.08-.24.1h-.08c-.13 0-.19-.04-.27-.17-.07-.11-.09-.24-.04-.34.03-.07.1-.13.18-.14h.07c.18 0 .43.04.5.05h.48c.22-.02.27-.1.3-.16.05-.08.1-.14.14-.18.03-.04.06-.07.09-.12l.01-.02.09-.02c.1 0 .19.09.23.13.17.16.24.34.22.53-.02.21-.13.38-.16.4-.12.11-.19.17-.26.17m-.67-.47c.13 0 .23.02.31.05.09.04.13.09.2.18l.07.08c.12.12.14.06.3-.08.02-.02.13-.19.13-.4 0-.15-.07-.28-.18-.39-.04-.04-.12-.12-.18-.12-.06.05-.09.09-.12.13-.04.05-.08.1-.13.17-.04.07-.11.18-.37.2l-.47.01c-.1-.02-.33-.05-.51-.05-.13.01-.16.05-.18.09-.03.07-.02.17.03.26.07.11.11.13.2.13h.07a.58.58 0 0 0 .21-.09c.04-.02.07-.04.11-.06.21-.08.21-.08.22-.08.02-.01.15-.03.29-.03"/><path d="M35.47 11.69c-.03.01-.31.14-.31.15.01.01-.24.68-.25.67-.01-.01-.18-.58-.19-.57-.02.01-.61.08-.62.08-.01.01.45-.58.45-.58l-.06-.62.49.19s.52-.39.53-.4c.01-.01-.14.54-.14.54l.26.36c-.01 0-.16.15-.16.18" fill="#f2dd30"/><path d="M34.87 12.53s-.01-.04-.03-.1c-.03-.1-.12-.37-.15-.45-.03.01-.12.02-.37.05-.11.01-.2.03-.21.03-.02-.02-.04-.03-.03-.06l-.01-.01s.01 0 .02-.01c.04-.07.15-.21.42-.56l-.08-.66.55.21c.48-.39.49-.4.49-.4.07.03.07.04-.07.59l.25.32c-.06.12-.14.2-.15.22-.06.04-.29.15-.32.17.01-.02-.23.65-.24.66h-.07zm-.16-.63c.05 0 .06.03.2.49.07-.18.19-.52.2-.55.02-.05.27-.16.33-.18 0-.01.03-.05.15-.17l-.27-.31c0-.03.07-.3.1-.46-.15.12-.43.33-.43.33l-.46-.16.06.55c-.01.03-.27.36-.4.52.03 0 .07-.01.12-.02.16-.02.36-.05.39-.05h.01z"/><path d="M29.63 18.55c.36.24 2.54.69 2.86.74.41-.04.99.01 1.43.16.42.18.84.17 1.13-.04.39-.21.53-.58.7-.9.07-.17.07-.35 0-.5-.13-.32-.05-.4-.08-.58.47-1.04.57-2.25.68-3.14-.01-.52.04-.92.1-1.08.25-.38.61-.54.8-.61.68-.18 1.36-.35 2.03-.53.53-.19.18-.55.07-.52-.35-.05-.34-.43-1.98-.04-.35-.04-.71-.09-1.06-.13 0 0-.21-.16-.23-.15-.57-.1-.66.27-.62.49.03.16.05.33.08.49 0 0-.21.73-.19.76-.52.59-1.3 2.47-1.35 2.84-.02.34-.15.28-.12.61 0 .26-.03.1.06.63.02.16-.18.15-.29.1-.96-.6-1.87-.99-2.87-1.52-.05-.03-.1-.05-.16-.08-.51.42-1.03.84-1.54 1.26.1.55.19 1.11.29 1.66.09.01.17.04.26.08" fill="#fff"/><path d="M34.49 19.62c-.19 0-.39-.05-.59-.13a3.9 3.9 0 0 0-1.41-.15c-.28-.04-2.52-.5-2.89-.75l-.08-.03c-.06-.02-.11-.05-.18-.07l-.31-1.69 1.55-1.3.21.08c.34.18.67.34.99.51.64.32 1.25.62 1.88 1.02.07.03.18.03.21 0-.05-.46-.05-.47-.05-.56v-.13c-.02-.19.01-.26.05-.34.03-.06.06-.13.07-.28.05-.37.83-2.26 1.36-2.85-.01-.01.02-.13.19-.75l-.08-.47c-.02-.16.01-.31.1-.41.11-.13.29-.18.57-.13.01 0 .04 0 .25.16l1.04.13c.49-.12.87-.18 1.17-.18.33 0 .49.08.61.14.07.04.13.06.21.07.08 0 .22.11.24.24.02.09 0 .25-.31.36l-2.04.53c-.34.13-.59.32-.77.59-.06.15-.11.54-.1 1.06l-.04.34c-.1.85-.23 1.9-.64 2.82.01.04.01.09.01.15-.01.1-.01.2.07.4.07.15.08.35 0 .54l-.07.14c-.15.29-.3.59-.65.78-.14.09-.34.16-.57.16m-1.71-.39c.4 0 .83.06 1.15.17.41.18.82.16 1.09-.04.32-.18.47-.47.61-.75l.07-.14c.06-.16.06-.33 0-.46-.09-.22-.08-.34-.08-.44 0-.05.01-.09 0-.15.41-.93.54-1.98.64-2.82l.04-.33c-.01-.53.04-.93.1-1.09.19-.29.46-.5.82-.64l2.04-.53c.18-.06.27-.16.25-.27-.02-.1-.11-.17-.15-.17-.11-.01-.18-.05-.25-.08-.12-.06-.26-.13-.57-.13-.29 0-.67.06-1.16.18l-1.07-.14c-.1-.07-.2-.15-.22-.15-.25-.04-.4-.01-.5.1-.1.12-.09.29-.08.34l.08.49c-.07.28-.19.71-.19.76-.53.61-1.3 2.48-1.35 2.85-.01.16-.05.24-.08.3-.03.07-.06.13-.04.3v.14c0 .08-.01.09.06.49.01.05 0 .1-.03.13-.06.06-.2.07-.32.02-.64-.4-1.24-.7-1.88-1.02-.32-.16-.65-.33-.99-.51l-.16-.08-1.49 1.25.3 1.62c.04-.01.09.02.15.04l.08.03c.35.23 2.52.69 2.85.74.08-.01.18-.01.28-.01"/><path d="M37.96 12.34c-.02.01-.66-.77-.66-.77s.38-.08.38-.07l.74.71-.46.13z" fill="#f2dd30"/><path d="M35.77 16.47c-.47 0-.98-.22-1.24-.46l.06-.06c.24.23.83.51 1.38.43l.01.09h-.21M37.98 12.36h-.06c-.08-.08-.24-.23-.28-.29-.06-.06-.12-.13-.18-.19l-.08-.09c-.03-.04-.07-.07-.1-.12-.06-.05-.12-.11-.18-.18l.06-.06c.06.06.11.12.18.18.04.05.07.08.11.12l.08.08.19.19c.04.06.2.21.28.29l-.02.07zm.62-.1a.58.58 0 0 1-.17-.06l-.08-.07c-.07-.06-.16-.13-.19-.17-.05-.05-.11-.11-.17-.16l-.07-.08c-.03-.03-.06-.06-.09-.1-.06-.04-.11-.1-.17-.15l.06-.06c.05.05.1.1.16.15l.17.18c.06.05.12.11.17.17.03.04.12.1.18.16l.08.07c.03.02.11.05.12.05v.07zM35.27 14.43c-.05-.12-.11-.2-.15-.26-.06-.11-.25-.18-.29-.19-.06-.01-.08-.02-.1-.02l.02-.04-.05.03.06-.08c.01 0 .04.01.07.02.06-.01.28.1.36.23.04.05.09.14.13.2l-.05.11zM37.32 12.54l-.06-.01.04-.02-.04.01h.01-.01c-.05-.09-.06-.12-.08-.16-.01-.03-.03-.06-.04-.09-.02-.03-.03-.07-.05-.1-.01-.03-.02-.06-.04-.09-.01-.04-.03-.07-.05-.11-.02-.04-.04-.07-.05-.11-.01-.03-.03-.06-.04-.09-.02-.04-.03-.08-.06-.12l-.08-.17.08-.04c.02.04.03.07.05.1l.03.07c.02.04.04.08.06.13.01.03.02.06.04.09.01.04.03.07.05.11.02.04.04.07.05.11a.3.3 0 0 1 .04.1c.01.03.02.06.04.09s.03.06.04.09c.01.03.03.07.05.1l.02.04v.02h.01l-.01.01v.04zM39.05 12.12c-.02 0-.11-.03-.16-.05L38.8 12c-.06-.05-.14-.11-.18-.15-.05-.05-.1-.1-.16-.15l-.07-.07-.09-.09c-.05-.04-.1-.08-.16-.14l.06-.06c.05.05.1.09.15.13.04.04.07.07.09.1l.07.07c.05.04.11.1.16.15.03.03.11.09.17.14l.09.07c.03.01.1.04.12.04v.08zM36.25 12.17l-.02-.09c.07-.01.09-.04.11-.07.04-.08.06-.19.03-.33a1.49 1.49 0 0 0-.04-.18.292.292 0 0 1-.02-.09l.08-.02c0 .04.01.06.02.09.01.08.02.13.04.18.03.16.02.29-.01.36-.05.08-.08.13-.19.15M35.3 19.17c-.08-.01-.1-.02-.13-.03-.03-.01-.05-.01-.08-.02s-.05-.02-.09-.02l.01-.09c.04.01.07.02.1.03.02.01.05.02.08.02.05.02.07.03.08.04v.02h.01l-.01.01.02-.02.01.03v.03zM35.67 17.87c-.05-.04-.77-.52-.87-.54l-.09-.04c-.04-.02-.08-.03-.13-.06-.03-.02-.06-.03-.08-.04-.07-.03-.1-.03-.13-.04-.03-.01-.06-.01-.08-.01h-.07c-.02.01-.05.01-.09.01-.09.02-.15.03-.18.04l-.02-.08c.04-.01.1-.02.15-.03l.12-.02c.03-.01.06-.02.11 0 .02-.01.06.01.09.01.02.01.05.01.08.02l.07.03c.03.01.06.03.09.05.04.02.08.04.12.05l.09.04c.08.02.88.53.9.57l-.08.04.04-.02-.04.02zM34.04 15.93l-.12-.04c.01-.01.04-.02.08-.04.03-.01.07-.03.1-.05.09-.04.37-.08.5 0l-.04.07c-.11-.06-.36-.03-.42 0-.03.03-.07.05-.1.06"/><path d="M34.63 17.24c-.01-.01-.01-.01-.04-.15l-.05-.21c-.05-.27-.01-.89 0-.96v-.08c0-.06 0-.11.02-.16.01-.05.03-.1.05-.15.05-.13.08-.2.11-.25.03-.2.61-1.02.64-1.05.02-.04.07-.1.1-.14.01-.02.03-.05.05-.09.06-.09.08-.13.09-.16l.03-.11c.01-.04.02-.09.02-.13.01-.06.01-.09.01-.13 0-.03 0-.06.01-.08-.01-.07.04-.99.04-1 .01-.08.07-.26.18-.33.06-.04.12-.05.18-.03l.09.03c.05.01.1.03.14.05.06.01.11.05.16.09.25.24.33.4.36.47v.09l.04-.02-.06.07-.03-.06c-.06-.12-.13-.26-.33-.46a.39.39 0 0 0-.17-.1.502.502 0 0 0-.13-.05l-.09-.03c-.04-.01-.07 0-.11.02-.09.06-.14.22-.14.27 0 .05-.05.92-.04.99v.08c0 .04 0 .08-.01.13 0 .04-.01.09-.02.14l-.01.07c-.04.1-.06.14-.1.19-.05.08-.07.11-.08.13-.04.05-.08.11-.11.15-.05.05-.6.84-.63 1.03-.03.06-.06.13-.08.19-.04.1-.06.15-.07.2-.01.04-.01.09-.02.13v.09c-.01.06-.05.67 0 .93l.05.21c.01.07.02.11.03.13l-.08.05zM34.03 19.49l-.02-.04-.02.01.02-.01-.04.01.02-.02-.02.01.03-.02-.06-.04c-.01-.05-.02-.09-.02-.14l-.01-.08c-.03-.11-.04-.15-.03-.19-.02-.04-.01-.09-.01-.14.02-.11.03-.17.03-.24v-.14-.11l-.02-.06a.564.564 0 0 0-.04-.12l-.03-.08c-.02-.04-.04-.08-.06-.13l-.1-.17.07-.04.1.17c.03.05.05.09.07.13l.03.07c.03.05.04.09.05.14l.02.2v.14c0 .08-.01.14-.03.22-.01.08-.01.11 0 .15 0 .04.01.08.02.12l.03.14c.01.05.02.1.02.14v.05l.01-.01-.01.01v.07z"/><path d="M34.85 19.03c-.12-.18-.24-.52-.24-.52l-.24-.41c-.14-.2-.25-.21-.33-.21-.17-.01-.24-.04-.37-.05-.13-.06-.03-.29-.04-.3.13-.53.69-.48.72-.47.26.08.29.11.25.28-.07.18-.1.24-.1.35.01.21.27.52.27.53 0 .01.17.14.17.14.08.07.18.08.29.21.09.14.11.2.03.34-.09.19-.31.25-.41.11" fill="#f2dd30"/><path d="M35 19.15c-.07 0-.14-.03-.19-.09-.1-.16-.2-.42-.23-.51l-.24-.43c-.13-.18-.22-.18-.29-.18-.1-.01-.16-.02-.22-.03-.05-.01-.09-.02-.15-.02-.16-.07-.1-.27-.08-.33.12-.49.55-.52.68-.52.02 0 .08 0 .1.01.25.08.32.12.27.33l-.04.1c-.04.1-.06.15-.06.23.01.11.1.29.26.5.02.02.17.14.17.14.03.02.06.04.09.05.06.03.13.07.21.16.1.16.12.23.03.39-.07.12-.19.2-.31.2m-.69-2.03c-.21 0-.54.06-.63.44-.04.15-.04.23.01.25.05 0 .1.01.15.02.06.01.12.02.21.03.08 0 .21.01.36.23l.24.41c.04.12.14.38.24.52.08.1.26.05.34-.1.07-.12.06-.16-.03-.3-.06-.07-.12-.1-.18-.14-.04-.02-.07-.04-.1-.06-.17-.14-.17-.14-.18-.15-.1-.13-.27-.37-.28-.55 0-.1.02-.16.06-.27l.04-.1c.03-.12.04-.14-.22-.22h-.03z"/><path d="M21.65 14.09c.02.02.29.19.29.18 0-.01.7-.17.69-.16-.01.01-.39.47-.37.48.02.01.4.47.41.47l-.73-.06-.49.39-.11-.51s-.61-.22-.62-.22c-.01 0 .52-.18.52-.18l.16-.41c.02-.01.22.03.25.02" fill="#f2dd30"/><path d="M21.44 15.46l-.12-.58c-.01 0-.59-.19-.6-.19-.02-.08-.02-.08.53-.26l.13-.39c.05-.03.21 0 .26 0 .07.04.28.17.32.18-.02-.02.68-.16.68-.16h.07l-.03.06s-.02.03-.06.08c-.07.09-.25.3-.3.37.02.02.08.09.24.27.07.09.14.16.15.17l-.03.08c-.03 0-.73-.06-.73-.06l-.51.43zm-.58-.81c.18.06.51.18.51.18l.12.47.43-.35c.03-.01.45.03.65.04-.02-.02-.05-.06-.08-.1-.11-.13-.23-.27-.25-.29-.02-.06-.02-.06.29-.44-.18.04-.54.12-.57.13-.04 0-.33-.17-.34-.18-.04.02-.21-.02-.21-.02l-.11.39c-.02.03-.29.12-.44.17"/><path d="M30.58 15.22c0-.43-.81-2.5-.95-2.8-.26-.32-.53-.84-.65-1.28-.08-.45-.32-.8-.65-.92-.39-.21-.77-.13-1.14-.09-.18.04-.33.14-.42.28-.2.28-.31.26-.44.38-1.13.17-2.19.76-3 1.15-.43.3-.79.47-.96.51-.46 0-.79-.22-.95-.33-.52-.47-1.04-.94-1.55-1.41-.45-.34-.56.15-.47.22.15.32-.18.52 1.06 1.68.16.32.31.64.47.96 0 0-.03.26 0 .27.22.54.58.4.75.25.12-.11.24-.22.37-.33 0 0 .73-.23.74-.25.78.12 2.78-.27 3.11-.42.3-.17.32-.03.57-.24.22-.14.1-.03.5-.39.12-.11.22.07.24.19.02 1.13.19 2.11.3 3.24.01.06.01.12.02.18l1.89.6c.41-.38.82-.77 1.23-1.15l-.07-.3" fill="#fff"/><path d="M29.41 16.69l-1.92-.6-.05-.21c-.04-.38-.08-.75-.12-1.11-.08-.71-.16-1.38-.18-2.13-.02-.08-.07-.17-.12-.17-.35.3-.36.3-.44.35l-.11.07a.48.48 0 0 1-.31.14c-.07.01-.14.02-.27.09-.34.16-2.34.54-3.13.43 0 .01-.12.06-.73.25l-.35.32c-.05.04-.18.15-.35.15-.14 0-.33-.07-.47-.41-.01.01-.03 0 0-.29l-.46-.94c-.94-.88-.98-1.22-1.01-1.46a.717.717 0 0 0-.05-.21c-.04-.03-.04-.14-.01-.22.08-.21.3-.24.55-.06l1.56 1.42c.29.21.6.32.91.32.16-.03.52-.2.94-.5l.3-.15c.77-.38 1.72-.86 2.72-1.01.03-.03.07-.06.12-.09.08-.05.17-.1.3-.28.09-.15.25-.25.45-.29l.16-.02c.36-.04.72-.04 1 .12.34.12.6.47.68.95.11.41.37.92.64 1.26.12.26.96 2.37.96 2.83l.02.08c.01.06.03.12.03.19l-1.26 1.18zm-2.39-4.32c.12 0 .19.15.21.25.01.75.09 1.42.18 2.13.04.36.08.72.12 1.11l.02.18 1.84.55 1.21-1.14c-.02-.03-.03-.08-.05-.14l-.02-.09c0-.43-.8-2.47-.95-2.79-.28-.34-.54-.87-.65-1.29-.08-.45-.31-.78-.63-.89-.28-.15-.62-.14-.96-.11l-.16.02a.61.61 0 0 0-.39.26c-.14.2-.24.26-.32.31-.04.03-.08.05-.13.09-1.01.16-1.96.64-2.72 1.01l-.29.15c-.43.3-.8.47-.97.51-.35 0-.67-.11-.98-.34l-1.56-1.42c-.23-.17-.38-.06-.41.02-.03.07-.01.13 0 .14.05.1.06.17.07.25.03.24.07.56.99 1.43l.48.97c-.01.13-.01.25-.01.27.1.24.24.36.4.36.14 0 .25-.09.29-.12l.37-.33c.27-.09.7-.23.74-.25.13.01.25.01.38.01.9 0 2.45-.3 2.74-.44.14-.08.22-.09.3-.1.08-.01.14-.02.27-.13l.12-.08c.07-.04.08-.05.38-.32.02-.02.06-.04.09-.04"/><path d="M20.82 11.65c.01.01-.28.98-.28.98s-.27-.27-.27-.28l.19-1.01.36.31z" fill="#f2dd30"/><path d="M25.78 12.51l-.09-.02c.06-.33-.03-.97-.4-1.39l.06-.06c.36.41.5 1.06.43 1.47M20.6 12.83l-.08-.02c.02-.08.04-.16.05-.24.02-.06.03-.11.04-.15l.03-.11c.01-.08.03-.17.06-.26.03-.08.07-.33.09-.42l.05-.01.04.03c-.02.09-.07.35-.1.42-.02.08-.04.17-.06.26l-.03.12c-.01.05-.02.09-.04.15-.01.06-.03.14-.05.23m-.34-.45l-.08-.02c.02-.07.03-.14.04-.22l.06-.24c.01-.07.03-.16.04-.24.01-.05.03-.15.04-.24l.01-.1c0-.04-.02-.12-.03-.13l.08-.04c.01.02.03.12.03.17l-.01.11c-.01.09-.02.2-.04.25-.02.07-.03.15-.04.23l-.06.24c-.01.08-.02.15-.04.23M23.97 13.47h-.1c0-.01-.01-.04-.03-.07-.05-.05-.08-.29-.01-.43.02-.06.07-.15.1-.21l.12-.01c-.07.11-.11.2-.14.26-.06.11-.03.32 0 .34.03.05.03.08.04.09h-.05l.07.03zM20.76 13.11l-.08-.04c.02-.04.04-.07.06-.09l.04-.07c.02-.04.05-.08.07-.11l.06-.09c.02-.03.04-.07.06-.1.02-.04.04-.07.06-.1.01-.03.04-.06.06-.09.02-.03.04-.06.06-.08.01-.03.03-.06.05-.09l.06-.09.03-.05-.01-.01.01.01.05-.03.02.05-.01.01c-.04.09-.07.12-.09.15-.02.03-.04.06-.05.08-.02.03-.04.06-.06.1-.02.03-.04.05-.06.08-.02.03-.04.07-.06.1-.02.04-.04.07-.06.1l-.06.09c-.02.03-.04.07-.07.11l-.08.16zM19.94 12l-.09-.02c.01-.07.03-.13.03-.2l.05-.22.03-.22c.01-.05.02-.14.03-.22l.01-.1c0-.03-.03-.11-.03-.12l.08-.04c.01.02.04.11.04.16l-.01.1c-.01.08-.02.19-.03.23-.01.07-.03.14-.03.21l-.05.22c0 .08-.01.14-.03.22M20.96 13.53l-.07-.05c.03-.03.05-.04.06-.07.06-.05.09-.09.13-.13.12-.12.24-.17.31-.19.09 0 .15-.01.23.07l-.06.06c-.05-.05-.08-.05-.12-.05-.09.01-.19.06-.29.16l-.13.13c-.02.04-.04.05-.06.07M28.01 10.46c-.02-.03-.02-.07-.03-.1-.01-.02-.01-.05-.02-.08-.01-.05-.01-.08-.01-.09l.01-.01-.03-.01.07-.04c.04.07.04.09.05.13.01.02.02.05.02.08.01.03.01.05.03.09l-.09.03zM27.02 12.43c-.03-.02-.07-.07-.11-.11l-.08-.1c-.02-.02-.05-.04-.06-.09-.01-.02-.03-.05-.04-.08-.01-.02-.02-.05-.03-.07l-.01-.08c0-.03-.01-.06-.01-.1-.01-.04-.01-.08-.02-.13l-.02-.1c-.03-.08-.04-1.03-.02-1.07l.07.04-.04-.02.04.01c-.01.07-.01.92.02 1.02l.02.1c.01.04.02.09.03.14 0 .03 0 .06.01.09.02.08.03.11.04.14.01.03.02.05.03.07l.04.06c.02.02.04.04.06.07.07.07.1.11.13.14l-.05.07zM26.01 13.08l-.08-.04-.09-.06c-.08-.04-.26-.26-.27-.42h.09c.01.13.17.32.23.35.03.02.07.04.1.06l.02.11z"/><path d="M21.86 13.55c-.04 0-.09-.01-.13-.02a.256.256 0 0 1-.13-.14c-.01-.04-.02-.07-.03-.1a.393.393 0 0 1-.03-.14c-.02-.05-.01-.12-.01-.18.06-.34.15-.49.2-.57l.13-.06-.05.1c-.05.07-.13.21-.18.49-.01.09-.01.15.01.2 0 .04.02.08.03.13l.03.1c.01.04.04.07.08.08.1.04.25 0 .3-.03.04-.02.8-.46.85-.51.03-.02.05-.03.07-.04.03-.02.07-.05.12-.06.03-.02.08-.04.12-.06l.08-.03c.09-.02.13-.02.19-.02.09 0 .13 0 .15-.01.06 0 .13.01.18.01.07.01 1.03.04 1.2-.04l.2-.03.08.03-.01-.04c.05-.01.1-.02.15-.04.04-.01.08-.03.11-.06.03-.02.06-.04.08-.05.06-.02.58-.33.78-.51l.24-.25.07.05-.07.07-.19.19c-.2.18-.73.5-.8.53-.02.01-.04.02-.07.04a.37.37 0 0 1-.14.07c-.04.02-.1.03-.15.04l-.07.02c-.07.01-.14.03-.2.03-.19.08-1.19.05-1.23.04-.04 0-.12 0-.17-.01-.03.01-.1.01-.15.01-.08 0-.11.01-.14.01l-.11.03-.12.06c-.05.02-.08.04-.11.06-.03.02-.05.03-.07.04-.06.05-.85.51-.86.51 0 .01-.11.06-.23.06M27.75 12.27l-.08-.04.09-.18c.03-.05.05-.09.08-.14l.04-.06c.03-.05.06-.08.09-.12l.15-.13c.04-.02.07-.05.12-.07.07-.04.12-.06.2-.1.07-.03.1-.05.13-.08.04-.02.06-.05.09-.08l.1-.1c.03-.03.07-.07.1-.09l.04-.02-.01-.01h.01-.01.01l.05-.03-.02.04.04.02-.01.02-.04-.02-.01.07c-.04.03-.07.07-.1.1l-.06.05c-.07.08-.1.12-.14.13-.02.04-.07.06-.12.08-.11.05-.16.07-.22.11-.05.03-.08.05-.12.07l-.14.11c-.03.03-.06.06-.08.1l-.04.06c-.03.04-.05.08-.08.13l-.06.18zM28.28 15.94l-.04-.01.02-.05c.02-.09.02-.15.03-.2.01-.05.01-.09.01-.13.01-.09.03-.19.03-.27v-.08c0-.07-.01-.14-.02-.22 0-.06-.01-.11-.01-.16l-.01-.13c0-.09-.01-.16-.03-.25 0-.07-.01-.16-.02-.24.01-.06-.01-.11-.02-.16l-.12-.47c-.01-.05-.03-.11-.04-.16l-.03-.08a.546.546 0 0 1-.06-.18c-.03-.07-.06-.13-.07-.18-.01-.02-.04-.08-.06-.13-.03-.07-.04-.1-.05-.13l-.03-.09c-.05-.11-.06-.16-.08-.21l.03-.1.05.08c.01.04.03.09.05.13.04.09.05.13.06.16l.03.08c.04.1.06.15.08.18.01.06.04.11.06.15.02.09.04.15.07.2l.03.08c.02.05.04.12.04.17l.11.45a.4.4 0 0 1 .02.19c.02.07.02.16.02.23.02.08.03.16.03.26l.01.13c0 .05.01.1.01.15.01.07.01.14.02.22v.08c0 .09-.01.19-.03.28 0 .04 0 .08-.01.13 0 .05-.01.1-.01.15l-.01.06-.02.04-.04.03z"/><path d="M28.13 10.58c-.09.2-.31.48-.31.49l-.21.42c-.09.23-.03.32.01.39.08.15.1.23.16.34.02.14-.22.19-.23.19-.52.18-.78-.32-.78-.34-.07-.26-.06-.3.1-.36.18-.04.26-.04.35-.11.17-.13.29-.51.29-.52 0-.01.03-.22.03-.22.01-.1-.03-.2.02-.36.07-.16.11-.2.27-.21.19-.02.36.13.3.29" fill="#f2dd30"/><path d="M27.33 12.49c-.39 0-.6-.37-.61-.42-.07-.25-.07-.34.13-.4l.11-.03c.11-.02.16-.03.22-.08.09-.07.19-.24.27-.49.01-.03.03-.22.03-.22v-.1a.613.613 0 0 1 .02-.26c.08-.17.13-.23.31-.24.16 0 .27.05.33.13.05.07.06.14.03.22-.05.11-.15.27-.3.48l-.22.43c-.08.2-.03.28 0 .34.05.09.07.15.1.21.02.05.04.09.06.14.03.17-.17.23-.24.25a.75.75 0 0 1-.24.04m.52-2.16c-.17.01-.2.04-.27.19-.03.09-.02.16-.02.23 0 .04.01.08 0 .12-.02.22-.03.22-.03.23-.05.16-.16.43-.31.53-.08.06-.15.07-.26.09l-.1.02c-.12.04-.14.05-.07.31 0 0 .17.35.52.35.07 0 .13-.01.21-.04.15-.05.21-.09.2-.15-.03-.04-.04-.08-.06-.13-.02-.06-.05-.11-.09-.19-.04-.07-.11-.18-.01-.42l.21-.42c.16-.23.26-.38.31-.49.02-.06 0-.1-.02-.13-.03-.06-.12-.1-.21-.1"/><path d="M27.45 15.64c-.08-.07 1.47.56 1.68.57.29-.11 1.49-1.13 1.49-1.13.01.1.06.36.17.41-.46.38-.89.74-1.35 1.12.03.6-.08 1.23.23 1.9 0 0-.36.01-.36 0-.32-.32-.43-1.86-.43-1.86-.51-.23-1.02-.45-1.53-.68.07-.05.13-.19.1-.33" fill="#f2dd30"/><path d="M29.4 18.55c-.11 0-.14 0-.14-.04-.31-.3-.43-1.8-.43-1.86l-1.58-.67.07-.04c.06-.04.11-.16.08-.29l.04-.06c.04 0 .18.05.58.2.42.15.99.37 1.1.37.27-.1 1.45-1.1 1.46-1.11l.08-.05.01.08c.03.2.08.35.15.38l.06.03-.05.04c-.23.18-.45.37-.66.55-.22.19-.45.38-.69.57.02.12.02.27.02.43 0 .46-.01.93.22 1.41l.03.06h-.35zm-1.98-2.59l1.47.65c.03.05.14 1.56.45 1.87-.01-.01.02-.01.06-.01h.2c-.2-.48-.2-.94-.2-1.39 0-.16 0-.31-.01-.46.25-.23.48-.41.7-.6.2-.17.41-.34.62-.51-.07-.07-.11-.2-.13-.33-.25.21-1.19.98-1.45 1.08-.14 0-.58-.16-1.15-.38-.21-.08-.42-.15-.51-.18.03.1 0 .19-.05.26"/><path d="M26.02 19.88l-.08-.05c.06-.07.15-.19.19-.25l.06-.09.05-.07c.06-.08.09-.13.11-.17l.04.02.01-.08c.74-.97 1.58-1.54 2.15-1.84l.09-.05c.15-.08.22-.11.27-.13l.02.04-.04.02c.03.03-.11.1-.21.16l-.09.05c-.56.3-1.39.86-2.12 1.82l-.05.06c-.01.03-.05.08-.08.13l-.07.1c-.02.03-.04.05-.06.08-.04.06-.13.17-.18.23l.01.01-.02-.01s-.01.01 0 .02zM33.57 17.78c-.09-.02-.24-.04-.31-.06-.03 0-.06-.01-.1-.01-.03-.01-.06-.01-.09-.01-.1-.01-.16-.02-.2-.02v-.04l-.07.03c-1.2-.21-2.09-.7-2.62-1.07l-.08-.06c-.13-.09-.2-.14-.24-.17l.02-.04.03.02c.01-.04.14.05.23.12l.08.06c.53.36 1.4.84 2.59 1.06l.07.01c.03 0 .09.01.15.01.07.01.1.01.14.02.03.01.06.01.09.01.07.01.21.04.28.06v-.01.02h.01l.01-.01.01.08z"/></svg>