<svg xmlns="http://www.w3.org/2000/svg" viewBox="0 0 58.92 34.37"><path fill="#fff" d="M0 0h58.92v29.46H0z"/><path d="M58.92 25.62c-.66.4-1.23 1.33-2.98 1.33-3.51 0-4.38-1.95-7.02-1.95-1.75 0-2.63 1.95-4.38 1.95-3.51 0-4.39-1.95-7.02-1.95-1.75 0-2.63 1.95-4.38 1.95-3.51 0-4.38-1.95-7.01-1.95-1.75 0-2.63 1.95-4.39 1.95-3.51 0-4.38-1.95-7.02-1.95-1.75 0-2.63 1.95-4.38 1.95-3.51 0-4.38-1.95-7.02-1.95-1.75 0-2.28 1.39-3.33 1.39v2.52c1.05 0 1.58-1.39 3.33-1.39 2.63 0 3.51 1.95 7.02 1.95 1.76 0 2.63-1.95 4.38-1.95 2.63 0 3.51 1.95 7.02 1.95 1.75 0 2.63-1.95 4.39-1.95 2.63 0 3.51 1.95 7.01 1.95 1.75 0 2.63-1.95 4.38-1.95 2.63 0 3.51 1.95 7.02 1.95 1.75 0 2.63-1.95 4.38-1.95 2.63 0 3.51 1.95 7.02 1.95 1.75 0 2.32-.55 2.98-.95v-2.9zM58.92 30.29c-.66.4-1.23 1.33-2.98 1.33-3.51 0-4.38-1.95-7.02-1.95-1.75 0-2.63 1.95-4.38 1.95-3.51 0-4.39-1.95-7.02-1.95-1.75 0-2.63 1.95-4.38 1.95-3.51 0-4.38-1.95-7.01-1.95-1.75 0-2.63 1.95-4.39 1.95-3.51 0-4.38-1.95-7.02-1.95-1.75 0-2.63 1.95-4.38 1.95-3.51 0-4.38-1.95-7.02-1.95-1.75 0-2.28 1.39-3.33 1.39v2.51c1.05 0 1.58-1.39 3.33-1.39 2.63 0 3.51 1.95 7.02 1.95 1.76 0 2.63-1.95 4.38-1.95 2.63 0 3.51 1.95 7.02 1.95 1.75 0 2.63-1.95 4.39-1.95 2.63 0 3.51 1.95 7.01 1.95 1.75 0 2.63-1.95 4.38-1.95 2.63 0 3.51 1.95 7.02 1.95 1.75 0 2.63-1.95 4.38-1.95 2.63 0 3.51 1.95 7.02 1.95 1.75 0 2.32-.55 2.98-.95v-2.89zM58.92 20.73c-.66.4-1.23 1.33-2.98 1.33-3.51 0-4.38-1.95-7.02-1.95-1.75 0-2.63 1.95-4.38 1.95-3.51 0-4.39-1.95-7.02-1.95-1.75 0-2.63 1.95-4.38 1.95-3.51 0-4.38-1.95-7.01-1.95-1.75 0-2.63 1.95-4.39 1.95-3.51 0-4.38-1.95-7.02-1.95-1.75 0-2.63 1.95-4.38 1.95-3.51 0-4.38-1.95-7.02-1.95C1.58 20.1 1.05 21.5 0 21.5v2.52c1.05 0 1.58-1.39 3.33-1.39 2.63 0 3.51 1.95 7.02 1.95 1.76 0 2.63-1.95 4.38-1.95 2.63 0 3.51 1.95 7.02 1.95 1.75 0 2.63-1.95 4.39-1.95 2.63 0 3.51 1.95 7.01 1.95 1.75 0 2.63-1.95 4.38-1.95 2.63 0 3.51 1.95 7.02 1.95 1.75 0 2.63-1.95 4.38-1.95 2.63 0 3.51 1.95 7.02 1.95 1.75 0 2.32-.55 2.98-.95v-2.9zM58.92 15.85c-.66.4-1.23 1.33-2.98 1.33-3.51 0-4.38-1.96-7.02-1.96-1.75 0-2.63 1.96-4.38 1.96-3.51 0-4.39-1.96-7.02-1.96-1.75 0-2.63 1.96-4.38 1.96-3.51 0-4.38-1.96-7.01-1.96-1.75 0-2.63 1.96-4.39 1.96-3.51 0-4.38-1.96-7.02-1.96-1.75 0-2.63 1.96-4.38 1.96-3.51 0-4.38-1.96-7.02-1.96-1.75 0-2.28 1.39-3.33 1.39v2.52c1.05 0 1.58-1.39 3.33-1.39 2.63 0 3.51 1.96 7.02 1.96 1.76 0 2.63-1.96 4.38-1.96 2.63 0 3.51 1.96 7.02 1.96 1.75 0 2.63-1.96 4.39-1.96 2.63 0 3.51 1.96 7.01 1.96 1.75 0 2.63-1.96 4.38-1.96 2.63 0 3.51 1.96 7.02 1.96 1.75 0 2.63-1.96 4.38-1.96 2.63 0 3.51 1.96 7.02 1.96 1.75 0 2.32-.56 2.98-.95v-2.9zM58.92 10.96c-.66.4-1.23 1.32-2.98 1.32-3.51 0-4.38-1.95-7.02-1.95-1.75 0-2.63 1.95-4.38 1.95-3.51 0-4.39-1.95-7.02-1.95-1.75 0-2.63 1.95-4.38 1.95-3.51 0-4.38-1.95-7.01-1.95-1.75 0-2.63 1.95-4.39 1.95-3.51 0-4.38-1.95-7.02-1.95-1.75 0-2.63 1.95-4.38 1.95-3.51 0-4.38-1.95-7.02-1.95-1.75 0-2.28 1.39-3.33 1.39v2.52c1.05 0 1.58-1.39 3.33-1.39h22.8c2.63 0 3.51 1.95 7.01 1.95 1.75 0 2.63-1.95 4.38-1.95 2.63 0 3.51 1.95 7.02 1.95 1.75 0 2.63-1.95 4.38-1.95 2.63 0 3.51 1.95 7.02 1.95 1.75 0 2.32-.55 2.98-.95v-2.89zM58.92 6.07c-.66.4-1.23 1.33-2.98 1.33-3.51 0-4.38-1.95-7.02-1.95-1.75 0-2.63 1.95-4.38 1.95-3.51 0-4.39-1.95-7.02-1.95-1.75 0-2.63 1.95-4.38 1.95-3.51 0-4.38-1.95-7.01-1.95-1.75 0-2.63 1.95-4.39 1.95-3.51 0-4.38-1.95-7.02-1.95-1.75 0-2.63 1.95-4.38 1.95-3.51 0-4.38-1.95-7.02-1.95-1.74 0-2.27 1.39-3.32 1.39v2.52c1.05 0 1.58-1.39 3.33-1.39 2.63 0 3.51 1.95 7.02 1.95 1.76 0 2.63-1.95 4.38-1.95 2.63 0 3.51 1.95 7.02 1.95 1.75 0 2.63-1.95 4.39-1.95 2.63 0 3.51 1.95 7.01 1.95 1.75 0 2.63-1.95 4.38-1.95 2.63 0 3.51 1.95 7.02 1.95 1.75 0 2.63-1.95 4.38-1.95 2.63 0 3.51 1.95 7.02 1.95 1.75 0 2.32-.55 2.98-.95v-2.9zM58.92 1.19c-.66.4-1.23 1.32-2.98 1.32-3.51 0-4.38-1.95-7.02-1.95-1.75 0-2.63 1.95-4.38 1.95-3.51 0-4.39-1.95-7.02-1.95-1.75 0-2.63 1.95-4.38 1.95-3.51 0-4.38-1.95-7.01-1.95-1.75 0-2.63 1.95-4.39 1.95-3.51 0-4.38-1.95-7.02-1.95-1.75 0-2.63 1.95-4.38 1.95C6.83 2.51 5.96.56 3.32.56 1.58.56 1.05 1.95 0 1.95v2.52c1.05 0 1.58-1.39 3.33-1.39 2.63 0 3.51 1.95 7.02 1.95 1.76 0 2.63-1.95 4.38-1.95 2.63 0 3.51 1.95 7.02 1.95 1.75 0 2.63-1.95 4.39-1.95 2.63 0 3.51 1.95 7.01 1.95 1.75 0 2.63-1.95 4.38-1.95 2.63 0 3.51 1.95 7.02 1.95 1.75 0 2.63-1.95 4.38-1.95 2.63 0 3.51 1.95 7.02 1.95 1.75 0 2.32-.55 2.98-.95V1.19z" fill-rule="evenodd" clip-rule="evenodd" fill="#1c2a7d"/><path fill-rule="evenodd" clip-rule="evenodd" fill="#fff" d="M0 0h29.43v14.73H0z"/><path fill-rule="evenodd" clip-rule="evenodd" fill="#1c2a7d" d="M.03 13.03L0 1.69l11.44 5.65zM29.43 13.03l.03-11.34-11.44 5.65zM26.17 14.71l-22.88.02 11.4-5.75zM26.17.01L3.29 0l11.4 5.74z"/><path fill-rule="evenodd" clip-rule="evenodd" fill="#bc0030" d="M17.45 4.91h2.19L29.46 0h-2.19zM0 0v1.1l7.62 3.81h2.2zM29.44 13.62l-7.6-3.8h-2.2l9.79 4.89zM0 14.73h2.2l9.82-4.91h-2.2z"/><path fill-rule="evenodd" clip-rule="evenodd" fill="#fff" d="M0 4.91h29.46v4.91H0z"/><path fill-rule="evenodd" clip-rule="evenodd" fill="#fff" d="M12.28 0h4.91v14.73h-4.91z"/><path fill-rule="evenodd" clip-rule="evenodd" fill="#bc002f" d="M0 5.89h29.46v2.94H0z"/><path fill-rule="evenodd" clip-rule="evenodd" fill="#bc002f" d="M13.26 0h2.95v14.73h-2.95z"/><path d="M43.84 7.81l-.21 19.99c0 1.05.95 1.05 1.05 0l-.21-19.99h-.63z" fill-rule="evenodd" clip-rule="evenodd" fill="#954215"/><path d="M44.12 28.69c-.28 0-.59-.28-.59-.89l.21-20.09h.83v.1l.21 19.99c-.06.62-.37.89-.66.89m-.18-20.78l-.21 19.9c0 .96.77.94.86-.01l-.21-19.89h-.44z" fill="#fff"/><path fill-rule="evenodd" clip-rule="evenodd" fill="#2d6f0d" d="M46.02 15.24l-.67-.73-.16.74-.29-1.07-.27.54-.04-1.13-.27.53-.05-1.13-.27.53-.15-1.32-.27.53-.15-1.33-.27.53L43 10.6l-.07-.66.13-.27.35.13.55.53 1.12 1.05-.69-.26 1.11 1.06-.69-.26 1.11 1.05-.69-.25 1.01.85-.69-.26 1.01.86-.7-.26.77.92-.8-.46z"/><path d="M45.2 15.46l-.31-1.14-.3.59-.05-1.13-.27.53-.05-1.13-.25.51-.16-1.33-.27.54-.15-1.33-.27.54-.25-2.17.14-.3.41.1 1.88 1.77-.69-.26 1.11 1.06-.69-.26 1.11 1.06-.65-.24 1.01.86-.69-.26 1.01.86-.79-.3.83 1-.95-.55.2.94-.73-.79-.18.83zm.12-1.06l.6.66-.17-.79.64.37-.71-.85.6.22-1.01-.86.69.26-1.01-.86.73.28-1.11-1.06.69.26-1.11-1.06.69.26-1.48-1.4-.33-.12-.07.24.22 1.79.27-.54.15 1.33.27-.54.15 1.33.28-.56.05 1.13.27-.54.05 1.13.24-.48.27.99.14-.59z" fill="#fff"/><path d="M45.2 15.25l.07-1.4-.21-.39-.42 1.26.42-1.27-.31-.59-.42 1.26.41-1.27-.42-.78-.31 1.46.31-1.47-.42-.79-.31 1.46.31-1.47-.42-.78-.31 1.46.31-1.47-.43-.79.43.79 1.6.91-.01.01-1.59-.91.42.78 1.6.91v.02l-1.59-.92.42.79 1.6.91-.01.01-1.59-.91.42.78 1.49.71-.01.02-1.47-.71.31.58 1.49.71-.01.02-1.47-.72.21.4 1.35.97-.01.01-1.34-.97.73 1.36-.01.01-.74-1.39z"/><path fill-rule="evenodd" clip-rule="evenodd" fill="#2d6f0d" d="M38.26 5.75l1.08.41-.31-.81.94.93-.09-.67.77 1.11-.09-.66.76 1.11-.08-.67.98 1.27-.09-.67.99 1.26-.09-.66.99 1.26.5.63.04.34-.4.03-.86-.26-1.71-.52.81-.08-1.71-.52.81-.07-1.71-.53.81-.07-1.48-.38.81-.07-1.49-.37.81-.07-1.3-.57 1.03.08z"/><path d="M44.15 10.03l-2.88-.89.81-.07-1.71-.52.81-.07-1.71-.53.76-.07-1.49-.38.81-.07-1.49-.38.94-.08-1.42-.61 1.25.1-.8-.86 1.2.46-.36-.96 1.02 1.01-.1-.75.77 1.11-.1-.67.77 1.12-.08-.64.99 1.26-.09-.67.99 1.26-.09-.67 1.63 2.08.07.43-.5.06zm-2.23-.82l2.25.69.33-.03-.04-.27-1.33-1.68.09.67-.99-1.26.09.67-.99-1.26.09.7-.76-1.11.09.67-.77-1.12.08.59-.87-.85.26.68-.96-.4.65.7-.82-.06 1.19.51-.69.06 1.48.38-.81.07 1.49.38-.86.08 1.71.52-.81.07 1.71.53-.81.07z" fill="#fff"/><path d="M44.57 9.92l-.9-.59-2.08-.14v-.02l2.07.15-.9-.59-2.07-.14v-.02l2.06.15-.89-.59-2.07-.14v-.02l2.06.16-.89-.59h-1.85v-.02l1.84.01-.67-.44-1.84.01v-.02h1.82l-.45-.3-1.87-.32.01-.02 1.85.34-1.54-1.02.01-.02 1.57 1.04-.82-1.43.82 1.44.45.29-.42-1.47.43 1.48.66.44-.41-1.47.42 1.47.89.6-.63-1.62.64 1.62.89.59-.64-1.62.65 1.63.89.59-.63-1.62.64 1.62z"/><path fill-rule="evenodd" clip-rule="evenodd" fill="#2d6f0d" d="M50.82 7.14l-.9.66 1 .12-1.39.32.74.22-1.5.11.74.22-1.5.11.74.22-1.76.22.74.22-1.76.22.74.22-1.75.22-.88.11-.37-.11.14-.33.65-.55 1.29-1.1-.28.66 1.29-1.1-.27.66 1.29-1.1-.28.66 1.04-.99-.27.66 1.03-.99-.27.66 1.15-.76-.53.76z"/><path d="M44.07 10.39l-.45-.13.17-.39 2.16-1.85-.28.66 1.29-1.1-.28.66 1.29-1.1-.26.63 1.04-.99-.28.66 1.04-.99-.31.75 1.26-.84-.63.91 1.26-.24-1 .73 1.2.14-1.51.36.84.25-1.5.11.74.22-1.5.11.7.21-1.76.21.74.22-1.75.21.74.22-2.96.37zm-.27-.21l.29.09 2.32-.29-.74-.22 1.76-.22-.74-.22 1.76-.22-.78-.23 1.5-.11-.74-.22 1.5-.11-.63-.19 1.26-.3-.79-.09.8-.59-1.01.19.43-.62-1.05.7.24-.57-1.04.99.28-.66-1.04.99.29-.69-1.29 1.1.28-.66-1.29 1.1.28-.66-1.73 1.47-.12.24z" fill="#fff"/><path d="M43.72 10.23l1.01-.44 1.05-1.56.02.02-1.06 1.53 1.01-.44L46.8 7.8l.01.01-1.05 1.53 1.01-.44 1.04-1.54.02.01-1.05 1.52 1-.43.79-1.43.02.01-.8 1.41.76-.33.79-1.42.01.01-.79 1.41.51-.22 1.15-1.31.01.01-1.15 1.29 1.74-.75.01.01-1.77.77 1.86-.01-1.87.01-.5.22 1.72.31-1.73-.31-.75.33 1.72.31-1.73-.31-1.01.44 1.98.2-1.99-.2-1.01.43 1.98.21-1.99-.2-1 .43 1.98.21-1.99-.2z"/><path fill-rule="evenodd" clip-rule="evenodd" fill="#2d6f0d" d="M50.68 13.8l-1.12-.33.4.79-1.04-.85.16.66-.88-1.05.16.66-.88-1.06.16.66-1.12-1.18.16.66-1.12-1.18.16.66-1.13-1.18-.56-.6-.08-.32.4-.07.89.19 1.75.39-.79.14 1.76.38-.8.14 1.76.39-.8.13 1.52.26-.8.13 1.52.26-.8.14 1.36.45h-1.04z"/><path d="M50.15 14.5l-1.13-.92.18.74-.88-1.05.16.66-.88-1.05.15.63-1.12-1.18.16.66-1.12-1.18.16.66-1.85-1.95-.11-.42.47-.1 2.98.65-.8.14 1.76.39-.8.13 1.76.39-.75.13 1.52.26-.8.13 1.52.26-.92.15 1.48.5h-1.26l.89.8-1.25-.36.48.93zm-1.34-1.26l.95.78-.33-.65 1 .29-.72-.65h.82l-1.24-.41.68-.11-1.52-.26.8-.13-1.52-.26.85-.14-1.76-.39.8-.13-1.76-.39.8-.14-2.32-.51-.31.06.06.26 1.5 1.57-.16-.66 1.12 1.18-.16-.66 1.12 1.18-.17-.69.88 1.05-.16-.66.88 1.05-.13-.58z" fill="#fff"/><path d="M49.97 14.26l-.98-1.37-.47-.26.57 1.43-.58-1.43-.71-.39.57 1.43-.58-1.44-.95-.51.81 1.56-.82-1.57-.95-.52.81 1.57-.82-1.57-.95-.52.8 1.56-.81-1.56-.96-.53.96.52 2.08-.02v.02l-2.07.01.96.52 2.08-.03v.02l-2.07.01.95.52 2.08-.02v.02h-2.07l.95.52 1.84-.15v.02l-1.82.14.71.38 1.83-.15v.02l-1.82.14.48.26 1.9.17v.02l-1.89-.18 1.65.89-.01.02-1.67-.92z"/><path fill-rule="evenodd" clip-rule="evenodd" fill="#2d6f0d" d="M39 14.19l.57-.79-.86.12 1.06-.6-.68-.03 1.22-.43-.68-.03 1.22-.43-.68-.04 1.4-.58-.68-.03 1.4-.59-.68-.03 1.4-.58.7-.3.34.02-.02.32-.38.63-.77 1.27.04-.65-.76 1.26.04-.64-.76 1.26.04-.65-.58 1.11.04-.64-.58 1.11.04-.65-.74.94.22-.8z"/><path d="M39.53 14.79l.26-.95-.97.49.62-.86-1.02.15 1.15-.65-.77-.04 1.22-.43-.68-.03 1.22-.43-.64-.03 1.4-.59-.68-.03 1.4-.59-.68-.03 2.33-.97.42.01-.03.38-1.27 2.12.04-.65-.77 1.27.04-.65-.77 1.27.04-.61-.58 1.11.04-.65-.58 1.11.05-.73-.79 1.01zm.44-1.16l-.19.66.68-.86-.04.56.58-1.11-.04.65.59-1.11-.05.68.77-1.27-.04.65.76-1.26-.04.65 1.03-1.7.01-.24-.29-.01-1.84.78.68.03-1.4.59.68.03-1.4.59.72.03-1.22.43.68.03-1.22.43.59.03-.97.55.7-.1-.51.71.78-.42z" fill="#fff"/><path d="M39.67 14.54h-.02l.6-1.41-1.24 1.06-.01-.01 1.26-1.08-1.55.43 1.55-.43.35-.3-1.52.1 1.53-.11.53-.46-1.52.11 1.53-.11.72-.61-1.71.25 1.71-.26.72-.61-1.71.26 1.71-.27.72-.61-1.71.26 1.71-.26.72-.62-.71.62-.44 1.61h-.02l.45-1.61-.71.62-.44 1.61-.02-.01.45-1.59-.72.61-.43 1.6h-.02l.45-1.59-.72.61-.25 1.44h-.02l.26-1.43-.53.45-.25 1.45h-.02l.26-1.44-.36.31z"/><path fill-rule="evenodd" clip-rule="evenodd" fill="#2d6f0d" d="M49.2 3.82l-1.09.73-.17-.78-.65 1.08-.11-.52-.52 1.11-.08-.51-.41 1.13-.23-.55-.41 1.38-.23-.54-.41 1.38-.23-.55-.41 1.38-.2.69.12.27.43-.14.76-.56 1.51-1.12-.87.29 1.51-1.12-.87.29 1.51-1.12-.87.28 1.51-.87-1.03.25 1.63-.85-.99.26 1.19-.95-1.03.5z"/><path d="M44.13 9.6l-.14-.33.66-2.27.23.55.41-1.38.23.55.41-1.38.24.56.44-1.22.08.55.51-1.09.12.54.64-1.08.19.84 1.32-.89-.71.93 1.29-.62-1.39 1.1 1.24-.32-1.67.86.95-.23-1.37.79.67-.22-1.51 1.12.87-.29-1.51 1.12.87-.29-2.57 1.91-.5.19zm.54-2.24l-.56 1.9.09.18.39-.13 1.95-1.45-.87.29 1.52-1.12-.89.3 1.51-1.12-1.07.35 1.66-.96-1.11.27 1.59-.83-.74.19 1-.8-.78.37.57-.74-.85.57-.16-.72-.64 1.08-.11-.5-.53 1.13-.07-.47-.38 1.05-.24-.5-.41 1.38-.23-.55-.41 1.38-.23-.55z" fill="#fff"/><path d="M44.17 9.53l.64-.83-.16-1.27.17 1.26.63-.83-.16-1.26.16 1.25.64-.83-.14-1.26.15 1.25.63-.83-.2-1.01.2 1 .48-.62-.08-.98.09.98.36-.32.29-1.23-.28 1.23 1.18-1.02.02.01-1.21 1.04 1.6-.84.01.02-1.61.82-.35.3 1.72-.57.01.01-1.75.58-.47.61 1.61-.61.01.02-1.63.6-.63.82 1.73-.82.01.02-1.75.81-.63.83 1.74-.82.01.01-1.76.82-.63.82 1.72-.83v.02l-1.73.82z"/><path fill-rule="evenodd" clip-rule="evenodd" fill="#2d6f0d" d="M43.31 2.46l.48 1.11.63-.59-.11 1.21.42-.39-.23 1.18.37-.4-.34 1.15.53-.37-.49 1.37.53-.37-.49 1.36.53-.36-.49 1.36-.24.68-.27.18-.28-.32-.31-.81-.61-1.64.57.64-.61-1.63.57.63-.61-1.63.57.63-.76-1.42.73.67-.88-1.45.69.67-.44-1.35.58.89z"/><path d="M44.13 9.66l-.32-.36-1.04-2.76.57.64-.61-1.63.57.64-.6-1.64.46.51-.7-1.31.68.63-.9-1.48.84.81-.51-1.54.71 1.08-.04-1.1.58 1.32.68-.63-.11 1.21.43-.41-.22 1.15.4-.44-.37 1.23.54-.37-.49 1.36.53-.36-.49 1.36.53-.36-.8 2.21-.32.24zM43.1 7.08l.81 2.16.24.26.22-.15.65-1.84-.52.36.49-1.36-.53.36.49-1.36-.52.35.32-1.07-.34.37.23-1.2-.39.37.11-1.21-.58.54-.4-.9.04.9-.45-.69.38 1.15-.55-.52.86 1.42-.78-.72.82 1.54-.68-.76.61 1.63-.57-.64.61 1.64-.57-.63z" fill="#fff"/><path d="M44.15 9.58l-.04-.99-1-1.48.02-.01.98 1.47-.05-.99-1.01-1.47.01-.01 1 1.47-.04-.99-1-1.47.02-.01.98 1.47-.05-.99-1.02-1.23.01-.01 1.01 1.23-.03-.75-1.14-1.24.01-.02 1.12 1.25-.12-.43-.86-1.39.01-.01.85 1.38-.39-1.37.02-.01.4 1.42.48-1.2-.48 1.21.12.42.65-.82-.65.84.03.73.77-.79-.77.8.04.99.86-1.01-.86 1.02.04.99.88-1.01-.88 1.02.04.99.88-1.02-.88 1.03z"/><path fill-rule="evenodd" clip-rule="evenodd" fill="#2d6f0d" d="M36.79 10.62l1.42-.99-.71-.36 1.25.21-.43-.57 1.21.46-.43-.57 1.21.46-.43-.57 1.46.49-.43-.56 1.42.74-.42-.57 1.45.5.72.36.21.29-.28.19-.79.11-1.26.52.23-.45-1.56.22.57-.39-1.6.47.57-.4-1.35.51.6-.64-1.38.75.6-.63-1.14.78.64-.87z"/><path d="M37.25 11.23l.73-.99-1.61.6 1.73-1.2-.96-.5 1.47.25-.46-.61 1.21.45-.43-.56 1.21.45-.42-.56 1.46.5-.47-.62 1.42.73-.39-.51 1.64.56.72.38.27.35-.33.23-.81.12-1.39.58.25-.49-1.7.24.48-.33-1.6.46.48-.33-1.15.43.52-.55-1.38.75.46-.48-.95.65zm1.06-1.24l-.55.75 1.32-.92-.75.78 1.39-.75-.68.72 1.55-.58-.66.46 1.6-.46-.66.46 1.43-.2-.21.41 1.12-.46.79-.13.21-.15-.18-.23-.69-.35-1.27-.43.47.62-1.42-.73.38.5-1.46-.5.43.57-1.21-.45.43.56-1.21-.45.39.52-1.01-.17.46.24-1.11.77 1.1-.4z" fill="#fff"/><path d="M37.81 10.71l-.01-.02.88-.95-1.43.62-.01-.02 1.46-.63-.72-.25.73.25.77-.11-.93-.5.95.5.65-.01h.1l-.92-.61.93.61 1 .06-1.15-.81 1.16.81 1.01.05-1.15-.88 1.16.88.92.11-1.08-.84 1.09.84 1.07.12-1.05-.11.05.04-1.13.7v-.02l1.12-.69-.05-.03-.97-.1-1.36.74-.01-.02 1.36-.72-1-.05-1.24.77-.01-.02 1.24-.75-1-.06-1.13.92-.01-.02 1.13-.9-.09-.01-.66.02-1.15 1.02-.01-.01 1.14-1.01-.77.12z"/><path fill-rule="evenodd" clip-rule="evenodd" fill="#9b9b9b" d="M41.77 21.84l2.45-.43 2.55.43-1.18.5-2.19.03z"/><path d="M43.4 22.39l-1.64-.53 2.45-.46 2.56.44-1.18.52-2.19.03zm.82-.97l-2.45.44 1.64.5 2.18-.04 1.18-.49-2.55-.41z"/><path d="M44.24 17.88c-.43.15-.9-.21-1.68.38 0 0-1.35-.58-1.45.75 0 .06.21.38.24.36.17-.13-.08.13-.08.16 0 .04.03.06.03.08.01.02.03.04.03.11s-.15.26-.09.33c.07.07.07.27.07.33s.04.22.07.25c.03.03.08.12.08.19s.03.26.02.31c-.01.05.07.11.15.14.08.02 1.09.04 2.52.02 1.42-.02 1.9.2 2.49-.01.09-.03.11-.11.1-.15-.01-.04 0-.17.03-.21.03-.03.19-.3.16-.35.03-.03.26.14.11-.01-.04-.04.02-.43.04-.51.02-.08.05-.24.09-.27.04-.03-.07-.14-.06-.16.01-.02.04-.08.07-.11 0 0 .07-.34.03-.5-.04-.16-.21-.91-1.21-.76.01.01-1.35-.51-1.76-.37" fill="#ba0019"/><path d="M46.07 21.39c-.16 0-.33-.01-.54-.03-.3-.02-.66-.05-1.15-.05h-.22c-1.38.02-2.43.01-2.52-.02-.08-.03-.18-.09-.17-.16.01-.03 0-.11-.01-.19-.01-.05-.01-.1-.01-.12 0-.06-.04-.14-.07-.17a.767.767 0 0 1-.07-.27c0-.06-.01-.25-.07-.32-.05-.05 0-.15.04-.23.02-.04.04-.09.04-.11a.13.13 0 0 0-.03-.09c-.02-.04-.04-.06-.04-.09 0-.02.02-.05.08-.12l.02-.02c-.12-.1-.26-.32-.26-.38.06-.74.5-.9.86-.9.32 0 .62.13.62.13.52-.41.9-.36 1.2-.34.18.01.34.01.46-.03.39-.13 1.73.36 1.78.38.61-.11 1.07.16 1.22.76.05.18-.02.51-.02.53-.04.04-.07.09-.07.11.05.08.09.14.05.16-.03.02-.05.13-.07.2-.04.16-.09.51-.06.55.05.05.06.06.05.08l-.09-.01c-.03-.01-.07-.03-.08-.03.05.04-.15.34-.15.34-.02.03-.03.15-.02.19.01.04 0 .13-.11.17-.18.05-.37.08-.59.08m-1.69-.12c.48 0 .85.03 1.15.05.5.04.81.05 1.11-.06.08-.03.09-.09.09-.13-.01-.04 0-.18.03-.22.04-.06.18-.29.16-.33.05-.04.08-.02.13 0-.06-.06.02-.51.02-.54.04-.17.06-.25.1-.28.01-.01-.03-.06-.04-.08l-.03-.07c.01-.02.04-.08.08-.12-.01 0 .06-.32.02-.48-.15-.59-.52-.84-1.19-.74-.02-.01-1.4-.5-1.76-.38-.13.04-.29.04-.48.03-.3-.02-.66-.06-1.19.34-.02 0-.31-.12-.62-.12-.5 0-.77.29-.82.86 0 .04.18.32.22.34.04-.04.05-.04.06-.04.03.03.02.04-.04.12-.03.03-.07.09-.07.1l.03.06c.01.02.03.05.04.12 0 .03-.02.08-.05.13-.04.07-.08.16-.05.19.07.07.08.27.08.34 0 .06.04.21.06.24.03.04.08.12.08.2 0 .03 0 .07.01.12.01.08.02.16.01.2-.01.03.06.09.14.11.07.02 1.05.04 2.51.02l.21.02z"/><path d="M42.51 18.74c-.07.02-.13.59-.08.78.04.13.09.21.11.27-.06-.09-.18-.26-.33-.24-.18.02-.13.61-.13.64.01-.02.05-.26.23-.28.12-.01.23.12.27.18 0 .02.01.04.01.05-.02.06-.02.19-.08.36-.08.21-.38.26-.43.26.01 0 .5-.05.67-.06.16-.01.65-.06.67-.06-.05 0-.37.01-.49-.18-.1-.16-.13-.29-.16-.34 0-.02-.01-.04-.01-.06.03-.06.1-.21.22-.22.18-.02.28.22.29.24 0-.04-.1-.62-.28-.61-.15.01-.23.2-.27.3.02-.06.04-.18.04-.28.03-.2-.18-.75-.25-.75zm.04 1.05c.01.01.01.02.02.02l.02.06s.06.19.06.2c-.01-.01-.09-.27-.1-.28m.18-.02l-.02.29.01-.26v.06c0-.01.01-.08.01-.09" fill-rule="evenodd" clip-rule="evenodd" fill="#efd930"/><path d="M42.09 20.78v-.02c.06-.01.35-.06.42-.26.04-.11.06-.2.07-.27.01-.04.01-.07.02-.09-.04-.09-.14-.21-.25-.21-.08.01-.18.06-.23.26.04-.22.14-.28.22-.28.14 0 .24.13.28.18 0 .09 0 .11-.01.15-.01.07-.03.16-.07.28a.4.4 0 0 1-.28.23c.16-.02.4-.04.5-.04.12-.01.41-.04.57-.05-.11.01-.31-.04-.4-.17-.07-.1-.1-.2-.13-.26a.689.689 0 0 0-.03-.08c.02-.13.1-.28.22-.29.13.03.22.08.3.23-.02-.04-.11-.58-.27-.58-.14.01-.23.19-.26.29-.01-.07.01-.18.02-.28.01-.17-.15-.64-.23-.72-.07.01-.14.56-.08.75.03.11.07.18.1.24 0 0-.01 0-.01-.01.01.01.02.02.02.03-.01-.02-.03-.03-.04-.05-.06-.05-.17-.18-.29-.18-.04 0-.06.02-.08.04-.09.13-.07.5-.06.58-.03-.07-.06-.46.04-.59.02-.03.05-.05.08-.05.12 0 .21.08.28.16a.669.669 0 0 1-.07-.17c-.06-.18.01-.76.08-.79.13.11.29.59.28.76l-.03.22c.03-.11.11-.24.24-.25.2 0 .29.58.29.62-.11-.15-.19-.22-.29-.22-.13.01-.2.15-.23.21.02.06.03.09.04.13.02.06.06.15.13.26.1.16.34.18.44.18h.04c-.01 0-.02.01-.04.01-.03.03-.48.07-.63.08-.17-.03-.66.01-.67.02"/><path d="M42.57 20.08s.05-.04.1-.05a.3.3 0 0 1 .11.03l.01.1s-.06-.03-.11-.03c-.05.01-.1.05-.1.05l-.01-.1z" fill-rule="evenodd" clip-rule="evenodd" fill="#efd930"/><path d="M42.57 20.2l-.02-.12c.01-.01.06-.06.12-.06s.11.03.12.03l.02.11c-.02.01-.07-.01-.12-.01-.06.01-.1.04-.1.05h-.02z"/><path d="M45.86 18.78c-.07.01-.25.55-.24.74.01.13.04.23.06.29-.04-.1-.13-.29-.27-.31-.18-.02-.26.56-.26.6.01-.01.11-.25.29-.23.12.02.2.16.23.23v.06c-.03.05-.06.18-.16.34-.12.19-.43.17-.48.17.01 0 .5.06.66.08.16.02.65.08.66.08-.05-.01-.36-.07-.44-.28-.07-.18-.07-.31-.09-.37 0-.02.01-.04.01-.05.04-.06.14-.18.26-.17.18.02.23.28.24.29.01-.04.04-.63-.15-.65-.14-.02-.27.15-.32.23.03-.05.07-.16.1-.27.06-.19-.03-.78-.1-.78m-.18 1.03c.01.01.01.02.01.03v.06l.02.21c0-.02-.02-.29-.03-.3m.18.02c-.01.01-.08.27-.08.28 0 0 .07-.25.07-.26l-.01.06c0-.01.02-.07.02-.08" fill-rule="evenodd" clip-rule="evenodd" fill="#efd930"/><path d="M46.36 20.84l-.66-.08c-.16-.02-.61-.08-.66-.08l.01-.01v.01c.17-.02.37-.04.46-.19.06-.1.1-.19.12-.25.02-.04.03-.07.04-.09-.02-.11-.1-.25-.21-.27-.11.01-.2.07-.27.21.06-.16.15-.23.25-.23.15.02.23.17.26.23-.02.09-.03.12-.04.15-.03.07-.06.16-.12.26-.08.13-.23.16-.35.17.14.01.41.04.53.06l.5.06c-.11-.04-.24-.11-.29-.24-.04-.11-.06-.21-.07-.28-.01-.04-.01-.07-.02-.09.04-.12.14-.24.26-.24.13.01.21.11.27.28-.01-.05.01-.44-.09-.58-.02-.03-.04-.04-.06-.04-.15 0-.25.14-.31.23.01-.06.05-.17.08-.27.05-.17-.01-.66-.08-.76-.07 0-.25.52-.23.72.01.12.03.2.05.26 0 .01.01.02.01.02a.076.076 0 0 1-.02-.04c-.05-.06-.13-.24-.26-.25-.03-.01-.05.01-.07.03-.11.11-.16.46-.17.54-.02-.07.03-.44.15-.56.03-.03.05-.04.08-.04.12.01.2.11.25.21a.43.43 0 0 1-.03-.17c-.02-.19.16-.75.25-.76.1.12.16.63.12.8-.02.07-.05.15-.08.21.06-.1.15-.2.26-.2.05.01.08.02.1.06.11.15.08.59.08.61-.08-.18-.15-.27-.26-.28-.13 0-.22.13-.25.16 0 .07.01.1.02.14.01.07.03.16.07.27.08.21.38.26.43.27l-.05.04zm-.63-.68l-.03-.06c0-.01 0-.01-.02-.18-.01-.06-.01-.11-.01-.12l.01.03v-.03h.01s.01.04.01.08v.01l.02.2.01.07zm.06-.05c-.02-.02-.01-.06.01-.11.01-.04.02-.07.03-.1.01-.05.02-.07.02-.08l-.01.03.04-.08-.03.15-.03.1c-.01.04-.02.08-.03.09"/><path d="M45.64 20.09s.06-.03.11-.02c.05.01.1.05.1.05l-.01.1s-.05-.04-.1-.05c-.05-.01-.11.02-.11.02l.01-.1z" fill-rule="evenodd" clip-rule="evenodd" fill="#efd930"/><path d="M45.86 20.24l-.02-.01s-.05-.04-.1-.05c-.06 0-.1.02-.1.02l-.01-.11c.01-.01.06-.04.11-.04.07.01.12.05.12.05v.14z"/><path d="M41.29 19.72l.26-.32s.02.03 0 0c-.54-.69-.56-1.09-.5-1.29.06-.2.18-.42.5-.69.32-.27.54-.12.85-.12.3 0 .38.07.64.1s.97.07.97.07v-.18s.03.01 0 0c-.31-.06-.7 0-.97-.07-.26-.07-.48-.09-.77-.09-.28 0-.48-.08-.67.04-.18.12-.4.32-.56.49-.16.17-.24.51-.22.72.02.22.1.4.22.57.12.17.1.3.14.42.05.11.11.37.11.35" fill-rule="evenodd" clip-rule="evenodd" fill="#efd930"/><path d="M41.29 19.73c-.01 0-.01 0-.03-.09-.02-.08-.05-.2-.08-.27l-.03-.12c-.02-.09-.03-.19-.11-.3-.13-.19-.2-.37-.22-.58-.02-.22.06-.56.22-.73.15-.15.38-.36.57-.49.11-.07.25-.07.43-.05.07.01.15.02.24.02.27 0 .5.01.77.09.13.03.3.03.48.03.16 0 .34 0 .49.03v.02l.01-.01v.01h-.01l.01.17c-.01.01-.72-.02-.98-.06-.1-.01-.18-.03-.25-.05a1.32 1.32 0 0 0-.39-.05c-.08 0-.16-.01-.23-.02-.22-.03-.42-.02-.61.14-.35.29-.45.52-.5.69-.06.21-.02.6.5 1.28l-.01.02-.01.02-.26.3zm.56-2.62c-.1 0-.17.02-.24.06-.19.12-.41.33-.56.49-.16.17-.24.5-.22.71.02.2.09.39.22.57.08.11.1.22.12.3.01.04.01.08.03.12.03.07.06.19.08.27.01.03.01.05.02.07l.25-.31c-.53-.68-.57-1.08-.5-1.29.05-.17.15-.4.51-.69.2-.16.4-.18.62-.14.08.01.15.02.23.02.18 0 .29.03.4.05.07.02.14.04.25.05.26.03.97.07.97.07l-.03-.18c-.14-.02-.31-.02-.47-.02-.18 0-.35 0-.48-.04a2.81 2.81 0 0 0-.76-.08c-.09 0-.17-.01-.24-.02-.08 0-.14-.01-.2-.01"/><path d="M47.1 19.72l-.26-.32s-.02.03 0 0c.54-.69.56-1.09.5-1.29-.06-.2-.18-.42-.5-.69-.32-.27-.54-.12-.85-.12-.3 0-.38.07-.65.1-.26.03-.97.07-.97.07v-.18s-.03.01 0 0c.31-.06.7 0 .97-.07.26-.07.48-.09.77-.09s.48-.08.67.04c.18.12.4.32.56.49.16.17.24.51.22.72-.02.22-.1.4-.22.57-.12.17-.1.3-.14.42-.04.11-.1.37-.1.35" fill-rule="evenodd" clip-rule="evenodd" fill="#efd930"/><path d="M47.1 19.73l-.27-.32c.53-.7.57-1.09.5-1.3-.05-.17-.15-.39-.5-.68-.19-.16-.39-.17-.61-.14-.08.01-.15.02-.23.02-.18 0-.29.02-.4.05-.07.02-.14.04-.25.05-.26.03-.97.07-.97.07l-.01-.19c.16-.04.33-.04.49-.04.18 0 .34 0 .48-.04.27-.07.49-.09.77-.09.09 0 .17-.01.24-.02.18-.02.32-.02.43.05.19.12.42.33.57.49.17.17.24.51.23.73-.02.2-.09.39-.22.58-.08.11-.1.21-.11.3-.01.04-.01.08-.03.12-.02.07-.05.18-.07.26-.03.1-.03.1-.04.1m-.67-2.48c.15 0 .28.05.41.16.35.29.46.53.51.69.06.21.03.61-.51 1.3l.25.3c.01-.02.01-.04.02-.07.02-.08.05-.19.08-.26l.03-.12c.02-.09.03-.19.12-.31.13-.18.2-.36.22-.57.02-.21-.06-.55-.22-.71-.15-.16-.37-.36-.56-.49-.1-.07-.24-.07-.42-.05-.08.01-.16.02-.25.02-.27 0-.49.01-.76.08-.14.04-.31.04-.48.04-.16 0-.33 0-.48.03l.01.17c.01-.01.7-.04.96-.07.1-.01.17-.03.24-.05.11-.03.21-.05.4-.05.08 0 .16-.01.23-.02.06-.01.13-.02.2-.02"/><path fill-rule="evenodd" clip-rule="evenodd" fill="#efd930" d="M43.76 17.13h.93v1.92h-.93z"/><path d="M44.7 19.06h-.95l-.01-1.93.95-.01.01 1.94zm-.02-1.93l-.92.01.01 1.9.91-.01v-1.9z"/><path d="M43.87 15.44a1.11 1.11 0 0 0 .31.42s-.13-.05-.23-.13a1.11 1.11 0 0 1-.19-.18v.71s.08-.1.19-.18c.11-.08.23-.13.23-.13s-.04.11-.07.23c-.03.11-.22.38-.22.38l.58.04s-.1-.3-.13-.42c-.04-.13-.06-.23-.06-.23s.13.05.24.13c.1.08.19.18.19.18v-.71s-.08.1-.19.18c-.11.08-.24.13-.24.13s.06-.13.13-.23c.08-.11.18-.19.18-.19h-.72z" fill-rule="evenodd" clip-rule="evenodd" fill="#efd930"/><path d="M44.47 16.61l-.59-.04c0-.01.19-.28.22-.39.02-.11.06-.21.07-.23-.02.02-.13.07-.22.14-.1.08-.18.18-.19.18l-.01-.71c.02 0 .1.1.2.17.09.07.21.12.23.13-.02-.02-.07-.13-.13-.22-.08-.1-.17-.19-.18-.19l.72-.01c0 .01-.1.1-.17.2-.07.09-.12.2-.13.23.02-.02.13-.07.22-.13.1-.08.18-.18.18-.18l.01.71c-.02 0-.1-.1-.2-.17-.09-.07-.21-.12-.23-.13.01.01.03.11.06.22l.14.42zm-.3-.66c.01.01-.03.11-.06.24-.02.11-.21.37-.22.38l.56.03-.13-.41c-.04-.13-.06-.23-.06-.23.03-.01.14.05.24.13.1.08.19.18.19.18l-.01-.7c-.01.02-.08.11-.18.18-.11.08-.23.13-.23.13-.01-.01.05-.14.12-.24.08-.11.18-.19.18-.19l-.7.01c.02.01.11.08.18.18.08.1.13.23.13.23-.01.02-.14-.05-.24-.12-.1-.08-.19-.18-.19-.18l.01.7c.01-.02.08-.11.18-.18.1-.09.23-.14.23-.14"/><path d="M44.69 16.71c0 .26-.21.46-.46.46-.26 0-.46-.21-.46-.46 0-.26.21-.46.46-.46.25-.01.46.2.46.46" fill-rule="evenodd" clip-rule="evenodd" fill="#efd930"/><path d="M44.22 17.18a.47.47 0 0 1-.47-.47c0-.26.21-.48.47-.48s.47.21.47.48c.01.26-.21.47-.47.47m0-.93c-.25 0-.45.2-.45.45s.2.45.45.45.45-.2.45-.45c.01-.24-.2-.45-.45-.45"/><path d="M43.77 16.77h.92s.02-.18-.05-.24h-.29l-.01-.27h-.27l-.01.27s-.19.01-.28.01c-.04.11-.03.12-.03.12l.02.11z" fill-rule="evenodd" clip-rule="evenodd" fill="#efd930"/><path d="M44.7 16.78h-.93l-.02-.12c-.01-.01.02-.07.03-.12.1-.01.29-.02.29-.02v-.26l.28-.01.01.28.28-.01c.07.07.06.25.06.26zm-.63-.51v.26c-.01.01-.2.02-.29.02-.03.09-.03.11-.03.11l.02.12.91-.01c0-.03.01-.18-.05-.23h-.28l-.01-.28-.27.01z"/><path d="M43.63 18.98s.17.14.3.31c.13.18.22.39.22.39s-.21-.09-.39-.22c-.18-.13-.31-.3-.31-.3v1.19s.14-.17.31-.3c.18-.13.39-.22.39-.22s-.09.21-.22.39c-.13.17-.3.31-.3.31h1.19s-.17-.14-.3-.31c-.13-.18-.22-.39-.22-.39s.22.09.39.22.31.3.31.3v-1.19s-.14.17-.31.3c-.17.13-.39.22-.39.22s.09-.21.22-.39c.13-.18.3-.31.3-.31h-1.19z" fill-rule="evenodd" clip-rule="evenodd" fill="#efd930"/><path d="M44.82 20.55h-1.19c0-.02.16-.16.29-.33.12-.16.2-.35.21-.38-.02.03-.21.11-.37.23-.17.13-.31.29-.31.29l-.02-1.19c.01 0 .15.16.33.29.16.11.35.2.38.21-.02-.03-.11-.22-.22-.37-.13-.17-.29-.31-.29-.31l1.19-.02c.01.02-.16.16-.29.33-.12.16-.2.35-.21.38.02-.03.22-.11.37-.22.17-.13.31-.29.31-.3l.02 1.19c-.02 0-.15-.16-.33-.29-.15-.12-.35-.2-.38-.22.02.03.11.22.22.38.13.17.29.31.3.31l.02.02h-.03zm-.68-.72c.01.02-.08.23-.21.41-.13.17-.3.31-.3.31l1.15-.02c-.05-.04-.18-.16-.28-.29-.13-.18-.22-.39-.22-.39.02-.01.23.08.41.21.17.13.31.3.31.3l-.02-1.17c-.01.04-.14.18-.3.3-.17.13-.39.22-.39.22-.01-.02.08-.23.21-.41.13-.17.3-.31.3-.31l-1.17.02c.04.02.18.14.3.3.13.18.22.39.22.39-.02.01-.23-.08-.41-.21-.17-.13-.31-.3-.31-.3l.02 1.17c.01-.04.14-.18.3-.3.17-.14.39-.23.39-.23"/><path d="M41.37 20.99l.58-.1s-.19-.1-.35-.26c-.16-.15-.28-.35-.28-.35s.23.05.42.15c.2.1.36.24.36.24l-.21-1.17s-.11.19-.26.34c-.15.16-.34.28-.34.28s.05-.23.15-.42c.1-.2.24-.36.24-.36l-.58.1.27 1.55z" fill-rule="evenodd" clip-rule="evenodd" fill="#efd930"/><path d="M41.36 21.01V21l-.27-1.54.59-.12c.01.02-.13.18-.23.37-.08.17-.13.38-.14.41.02-.03.19-.14.33-.29.15-.16.25-.34.25-.34l.22 1.17c.01.03-.18-.13-.37-.23-.17-.09-.38-.14-.41-.15.03.02.15.2.29.33.16.15.34.25.35.26l-.61.14zm.31-1.66l-.57.12.28 1.51.57-.1c-.04-.01-.21-.11-.34-.24-.16-.15-.28-.35-.28-.35.01-.02.24.04.43.13.2.1.36.24.36.24l-.22-1.15c-.01.04-.11.2-.24.34-.15.16-.34.28-.35.28-.02-.01.04-.24.13-.43.09-.18.23-.35.23-.35"/><path d="M46.76 19.35s.14.16.24.36c.1.2.15.42.15.42s-.2-.12-.35-.28c-.15-.16-.26-.35-.26-.35l-.21 1.17s.16-.14.36-.24c.2-.1.42-.15.42-.15s-.13.2-.28.35c-.16.15-.35.26-.35.26l.59.1.27-1.54-.58-.1z" fill-rule="evenodd" clip-rule="evenodd" fill="#efd930"/><path d="M47.08 21.01l-.6-.1c0-.02.19-.12.34-.27.14-.13.26-.31.28-.34-.03.02-.23.07-.41.16-.19.1-.35.23-.35.24l.19-1.18c.02 0 .13.19.27.34.14.14.31.26.34.28-.02-.03-.07-.23-.16-.41a1.67 1.67 0 0 0-.24-.36l.59.09-.25 1.55zm.04-.73c.01.02-.12.22-.27.36-.16.15-.35.26-.35.26l.57.08.27-1.53-.57-.09c.03.02.16.17.24.34.09.2.15.42.15.42-.03-.01-.22-.12-.36-.27-.15-.16-.26-.35-.26-.35l-.19 1.16c.02-.03.17-.16.34-.24.2-.09.42-.14.43-.14"/><path d="M41.38 20.93v.85s1.42-.48 2.84-.48 2.84.48 2.84.48v-.85s-1.42-.48-2.84-.48-2.84.48-2.84.48" fill-rule="evenodd" clip-rule="evenodd" fill="#efd930"/><path d="M47.08 21.8h-.01c-.01-.01-1.44-.48-2.84-.48s-2.83.48-2.84.48l-.02-.86c.02-.02 1.45-.5 2.86-.5s2.83.48 2.85.49v.87zm-2.86-1.34c-1.41 0-2.83.48-2.84.48l.01.84c0-.01 1.42-.5 2.83-.5 1.34 0 2.69.43 2.83.48v-.84c-.01.02-1.43-.46-2.83-.46"/><path d="M41.24 19.27c0 .12-.1.22-.22.22s-.22-.1-.22-.22.1-.22.22-.22.22.1.22.22" fill-rule="evenodd" clip-rule="evenodd" fill="#fff"/><path d="M41.03 19.5c-.13 0-.23-.1-.23-.23s.1-.23.23-.23.23.1.23.23c0 .12-.11.23-.23.23m0-.44c-.11 0-.21.09-.21.2 0 .11.09.2.21.2a.2.2 0 0 0 .2-.2.2.2 0 0 0-.2-.2"/><path d="M40.97 18.77c0 .12-.1.22-.22.22s-.22-.1-.22-.22.1-.22.22-.22.22.1.22.22" fill-rule="evenodd" clip-rule="evenodd" fill="#fff"/><path d="M40.75 19c-.13 0-.23-.1-.23-.23s.1-.23.23-.23.23.1.23.23-.1.23-.23.23m0-.43a.2.2 0 0 0-.2.2c0 .11.09.2.2.2a.2.2 0 0 0 .2-.2.2.2 0 0 0-.2-.2"/><path d="M40.91 18.19c0 .12-.1.22-.22.22s-.22-.1-.22-.22.1-.22.22-.22c.12.01.22.1.22.22" fill-rule="evenodd" clip-rule="evenodd" fill="#fff"/><path d="M40.69 18.42c-.13 0-.23-.1-.23-.23s.1-.23.23-.23.23.1.23.23-.1.23-.23.23m0-.43a.2.2 0 0 0-.2.2c0 .11.09.2.2.2a.2.2 0 0 0 .2-.2c.01-.11-.09-.2-.2-.2"/><path d="M41.08 17.65c0 .12-.1.22-.22.22s-.22-.1-.22-.22.1-.22.22-.22c.12.01.22.1.22.22" fill-rule="evenodd" clip-rule="evenodd" fill="#fff"/><path d="M40.86 17.88c-.13 0-.23-.1-.23-.23s.1-.23.23-.23.23.1.23.23-.1.23-.23.23m0-.43a.2.2 0 0 0-.2.2c0 .11.09.21.2.21.11 0 .2-.09.2-.21.01-.11-.08-.2-.2-.2"/><path d="M41.45 17.21c0 .12-.1.22-.22.22s-.22-.1-.22-.22.1-.22.22-.22.22.1.22.22" fill-rule="evenodd" clip-rule="evenodd" fill="#fff"/><path d="M41.23 17.44c-.13 0-.23-.1-.23-.23s.1-.23.23-.23.23.1.23.23-.1.23-.23.23m0-.43a.2.2 0 0 0-.2.2c0 .11.09.2.2.2a.2.2 0 0 0 .2-.2c.01-.11-.09-.2-.2-.2"/><path d="M41.95 16.9c0 .12-.1.22-.22.22s-.22-.1-.22-.22.1-.22.22-.22.22.1.22.22" fill-rule="evenodd" clip-rule="evenodd" fill="#fff"/><path d="M41.73 17.13c-.13 0-.23-.1-.23-.23s.1-.23.23-.23.23.1.23.23-.1.23-.23.23m0-.43a.2.2 0 0 0-.2.2c0 .11.09.2.2.2a.2.2 0 0 0 .2-.2c.01-.11-.08-.2-.2-.2"/><path d="M42.51 16.94c0 .12-.1.22-.22.22s-.22-.1-.22-.22.1-.22.22-.22.22.1.22.22" fill-rule="evenodd" clip-rule="evenodd" fill="#fff"/><path d="M42.29 17.17c-.13 0-.23-.1-.23-.23s.1-.23.23-.23.23.1.23.23-.1.23-.23.23m0-.44c-.11 0-.2.09-.2.21 0 .11.09.2.2.2a.2.2 0 0 0 .2-.2c.01-.11-.09-.21-.2-.21"/><path d="M43.07 17.03c0 .12-.1.22-.22.22s-.22-.1-.22-.22.1-.22.22-.22.22.1.22.22" fill-rule="evenodd" clip-rule="evenodd" fill="#fff"/><path d="M42.85 17.26c-.13 0-.23-.1-.23-.23s.1-.23.23-.23.23.1.23.23-.1.23-.23.23m0-.43a.2.2 0 0 0-.2.2c0 .11.09.2.2.2a.2.2 0 0 0 .2-.2c.01-.11-.09-.2-.2-.2"/><path d="M43.63 17.09c0 .12-.1.22-.22.22s-.22-.1-.22-.22.1-.22.22-.22.22.1.22.22" fill-rule="evenodd" clip-rule="evenodd" fill="#fff"/><path d="M43.41 17.32c-.13 0-.23-.1-.23-.23s.1-.23.23-.23.23.1.23.23-.1.23-.23.23m0-.43a.2.2 0 0 0-.2.2c0 .11.09.2.2.2a.2.2 0 0 0 .2-.2c.01-.11-.09-.2-.2-.2"/><path d="M47.14 19.27c0 .12.1.22.21.22.12 0 .22-.1.22-.22s-.1-.22-.22-.22c-.11 0-.21.1-.21.22" fill-rule="evenodd" clip-rule="evenodd" fill="#fff"/><path d="M47.36 19.5c-.13 0-.23-.1-.23-.23s.1-.23.23-.23.23.1.23.23-.1.23-.23.23m0-.44a.2.2 0 0 0-.2.2c0 .11.09.2.2.2a.2.2 0 0 0 .2-.2.2.2 0 0 0-.2-.2"/><path d="M47.42 18.77c0 .12.1.22.22.22s.22-.1.22-.22-.1-.22-.22-.22-.22.1-.22.22" fill-rule="evenodd" clip-rule="evenodd" fill="#fff"/><path d="M47.64 19c-.13 0-.23-.1-.23-.23s.1-.23.23-.23.23.1.23.23-.11.23-.23.23m0-.43a.2.2 0 0 0-.2.2c0 .11.09.2.2.2a.2.2 0 0 0 .2-.2.2.2 0 0 0-.2-.2"/><path d="M47.48 18.19c0 .12.1.22.22.22s.22-.1.22-.22-.1-.22-.22-.22c-.12.01-.22.1-.22.22" fill-rule="evenodd" clip-rule="evenodd" fill="#fff"/><path d="M47.7 18.42c-.13 0-.23-.1-.23-.23s.1-.23.23-.23.23.1.23.23c-.01.13-.11.23-.23.23m0-.43a.2.2 0 0 0-.2.2c0 .11.09.2.2.2a.2.2 0 0 0 .2-.2.2.2 0 0 0-.2-.2"/><path d="M47.31 17.65c0 .12.1.22.22.22s.22-.1.22-.22-.1-.22-.22-.22c-.13.01-.22.1-.22.22" fill-rule="evenodd" clip-rule="evenodd" fill="#fff"/><path d="M47.52 17.88c-.13 0-.23-.1-.23-.23s.1-.23.23-.23.23.1.23.23-.1.23-.23.23m0-.43a.2.2 0 0 0-.2.2c0 .11.09.21.2.21.11 0 .2-.09.2-.21.01-.11-.09-.2-.2-.2"/><path d="M46.94 17.21c0 .12.1.22.22.22s.22-.1.22-.22-.1-.22-.22-.22-.22.1-.22.22" fill-rule="evenodd" clip-rule="evenodd" fill="#fff"/><path d="M47.15 17.44c-.13 0-.23-.1-.23-.23s.1-.23.23-.23.23.1.23.23-.1.23-.23.23m0-.43a.2.2 0 0 0-.2.2c0 .11.09.2.2.2a.2.2 0 0 0 .2-.2c.01-.11-.08-.2-.2-.2"/><path d="M46.44 16.9c0 .12.1.22.22.22s.22-.1.22-.22-.1-.22-.22-.22c-.13 0-.22.1-.22.22" fill-rule="evenodd" clip-rule="evenodd" fill="#fff"/><path d="M46.65 17.13c-.13 0-.23-.1-.23-.23s.1-.23.23-.23.23.1.23.23-.1.23-.23.23m0-.43a.2.2 0 0 0-.2.2c0 .11.09.2.2.2a.2.2 0 0 0 .2-.2c.01-.11-.08-.2-.2-.2"/><path d="M45.88 16.94c0 .12.1.22.22.22s.22-.1.22-.22-.1-.22-.22-.22c-.13 0-.22.1-.22.22" fill-rule="evenodd" clip-rule="evenodd" fill="#fff"/><path d="M46.09 17.17c-.13 0-.23-.1-.23-.23s.1-.23.23-.23.23.1.23.23-.1.23-.23.23m0-.44c-.11 0-.2.09-.2.21 0 .11.09.2.2.2a.2.2 0 0 0 .2-.2c.01-.11-.09-.21-.2-.21"/><path d="M45.32 17.03c0 .12.1.22.22.22s.22-.1.22-.22-.1-.22-.22-.22-.22.1-.22.22" fill-rule="evenodd" clip-rule="evenodd" fill="#fff"/><path d="M45.53 17.26c-.13 0-.23-.1-.23-.23s.1-.23.23-.23.23.1.23.23-.1.23-.23.23m0-.43a.2.2 0 0 0-.2.2c0 .11.09.2.2.2a.2.2 0 0 0 .2-.2c.01-.11-.08-.2-.2-.2"/><path d="M44.76 17.09c0 .12.1.22.22.22s.22-.1.22-.22-.1-.22-.22-.22-.22.1-.22.22" fill-rule="evenodd" clip-rule="evenodd" fill="#fff"/><path d="M44.97 17.32c-.13 0-.23-.1-.23-.23s.1-.23.23-.23.23.1.23.23-.1.23-.23.23m0-.43a.2.2 0 0 0-.2.2c0 .11.09.2.2.2a.2.2 0 0 0 .2-.2c.01-.11-.08-.2-.2-.2"/><path d="M44.44 18.78c0 .12-.1.22-.22.22s-.22-.1-.22-.22.1-.22.22-.22.22.1.22.22" fill-rule="evenodd" clip-rule="evenodd" fill="#fff"/><path d="M44.22 19.01c-.13 0-.23-.1-.23-.23s.1-.23.23-.23.23.1.23.23-.1.23-.23.23m0-.43a.2.2 0 0 0-.2.2c0 .11.09.2.2.2a.2.2 0 0 0 .2-.2c.01-.11-.09-.2-.2-.2"/><path d="M44.44 18.39c0 .12-.1.22-.22.22s-.22-.1-.22-.22.1-.22.22-.22c.12.01.22.11.22.22" fill-rule="evenodd" clip-rule="evenodd" fill="#fff"/><path d="M44.22 18.62c-.13 0-.23-.1-.23-.23s.1-.23.23-.23.23.1.23.23-.1.23-.23.23m0-.43a.2.2 0 0 0-.2.2c0 .11.09.2.2.2a.2.2 0 0 0 .2-.2c.01-.11-.09-.2-.2-.2"/><path d="M44.44 18.08c0 .12-.1.22-.22.22s-.22-.1-.22-.22.1-.21.22-.21.22.1.22.21" fill-rule="evenodd" clip-rule="evenodd" fill="#fff"/><path d="M44.22 18.32c-.13 0-.23-.1-.23-.23s.1-.23.23-.23.23.1.23.23c0 .12-.1.23-.23.23m0-.44a.2.2 0 0 0-.2.2c0 .11.09.21.2.21.11 0 .2-.09.2-.21.01-.11-.09-.2-.2-.2"/><path d="M44.44 17.8c0 .12-.1.22-.22.22s-.22-.1-.22-.22.1-.22.22-.22c.12.01.22.11.22.22" fill-rule="evenodd" clip-rule="evenodd" fill="#fff"/><path d="M44.22 18.03c-.13 0-.23-.1-.23-.23s.1-.23.23-.23.23.1.23.23-.1.23-.23.23m0-.43a.2.2 0 0 0-.2.2c0 .11.09.2.2.2a.2.2 0 0 0 .2-.2c.01-.11-.09-.2-.2-.2"/><path d="M44.44 16.9c0 .12-.1.22-.22.22s-.22-.1-.22-.22.1-.22.22-.22.22.1.22.22" fill-rule="evenodd" clip-rule="evenodd" fill="#fff"/><path d="M44.22 17.13c-.13 0-.23-.1-.23-.23s.1-.23.23-.23.23.1.23.23-.1.23-.23.23m0-.43a.2.2 0 0 0-.2.2c0 .11.09.2.2.2a.2.2 0 0 0 .2-.2c.01-.11-.09-.2-.2-.2"/><path d="M44.44 16.94c0 .12-.1.22-.22.22s-.22-.1-.22-.22.1-.22.22-.22.22.1.22.22" fill-rule="evenodd" clip-rule="evenodd" fill="#fff"/><path d="M44.22 17.17c-.13 0-.23-.1-.23-.23s.1-.23.23-.23.23.1.23.23-.1.23-.23.23m0-.44c-.11 0-.2.09-.2.21 0 .11.09.2.2.2a.2.2 0 0 0 .2-.2c.01-.11-.09-.21-.2-.21"/><path d="M44.44 17.14c0 .12-.1.22-.22.22s-.22-.1-.22-.22.1-.22.22-.22.22.1.22.22" fill-rule="evenodd" clip-rule="evenodd" fill="#fff"/><path d="M44.22 17.37c-.13 0-.23-.1-.23-.23s.1-.23.23-.23.23.1.23.23-.1.23-.23.23m0-.43a.2.2 0 0 0-.2.2c0 .11.09.2.2.2a.2.2 0 0 0 .2-.2c.01-.11-.09-.2-.2-.2"/><path d="M44.44 17.41c0 .12-.1.22-.22.22s-.22-.1-.22-.22.1-.22.22-.22c.12.01.22.11.22.22" fill-rule="evenodd" clip-rule="evenodd" fill="#fff"/><path d="M44.22 17.64c-.13 0-.23-.1-.23-.23s.1-.23.23-.23.23.1.23.23-.1.23-.23.23m0-.43a.2.2 0 0 0-.2.2c0 .11.09.2.2.2a.2.2 0 0 0 .2-.2c.01-.11-.09-.2-.2-.2"/><path d="M44.5 19.71c0 .15-.13.28-.28.28a.28.28 0 1 1 .28-.28" fill-rule="evenodd" clip-rule="evenodd" fill="#fff"/><path d="M44.22 20.01a.29.29 0 0 1-.29-.29c0-.16.13-.3.29-.3.16 0 .29.13.29.3 0 .16-.13.29-.29.29m0-.56c-.15 0-.27.12-.27.27 0 .15.12.27.27.27.15 0 .27-.12.27-.27 0-.15-.12-.27-.27-.27"/><path d="M41.58 20.22c0 .15-.13.28-.28.28a.28.28 0 0 1-.28-.28c0-.15.13-.28.28-.28.15 0 .28.13.28.28" fill-rule="evenodd" clip-rule="evenodd" fill="#fff"/><path d="M41.29 20.51a.29.29 0 1 1 .29-.29c.01.16-.12.29-.29.29m0-.56c-.15 0-.27.12-.27.27 0 .15.12.26.27.26.15 0 .27-.12.27-.26 0-.15-.12-.27-.27-.27"/><path d="M47.41 20.22c0 .15-.13.28-.28.28-.15 0-.28-.13-.28-.28 0-.15.13-.28.28-.28.15 0 .28.13.28.28" fill-rule="evenodd" clip-rule="evenodd" fill="#fff"/><path d="M47.13 20.51c-.16 0-.3-.13-.3-.29 0-.16.13-.29.3-.29a.29.29 0 0 1 0 .58m0-.56c-.15 0-.27.12-.27.27 0 .15.12.26.27.26.15 0 .27-.12.27-.26 0-.15-.12-.27-.27-.27"/><path fill-rule="evenodd" clip-rule="evenodd" fill="#1c2a7d" d="M43.82 20.66h.86v.38h-.86z"/><path d="M44.69 21.05h-.88l-.01-.39.88-.01.01.4zm-.02-.39l-.85.01.01.37.84-.01v-.37z"/><path d="M45.19 20.94c0 .11.18.22.39.24.21.02.38-.05.38-.17 0-.11-.18-.22-.39-.24-.21-.02-.38.06-.38.17" fill-rule="evenodd" clip-rule="evenodd" fill="#4d822c"/><path d="M45.66 21.21h-.07c-.23-.03-.41-.14-.41-.26 0-.04.01-.07.04-.1.06-.06.16-.09.29-.09h.07c.23.02.41.14.41.26 0 .04-.01.07-.04.1-.06.05-.17.09-.29.09m-.11-.42c-.17 0-.26.03-.31.08-.02.02-.03.05-.03.07 0 .1.18.2.38.23h.07c.12 0 .21-.03.26-.08.02-.02.03-.05.03-.07 0-.1-.18-.2-.38-.23h-.02z"/><path fill-rule="evenodd" clip-rule="evenodd" fill="#ba0019" d="M41.38 21.14l-.22.22.25.14.59-.16-.1-.33z"/><path d="M41.41 21.51l-.26-.15.21-.24.53-.12.12.34-.6.17zm.47-.49l-.5.14-.21.21.24.12.59-.16-.12-.31z"/><path fill-rule="evenodd" clip-rule="evenodd" fill="#ba0019" d="M47.11 21.14l.22.22-.25.14-.59-.16.11-.33z"/><path d="M47.08 21.51l-.59-.16.09-.35.53.12.22.22-.25.17zm-.48-.48l-.09.32.57.14.25-.14-.22-.19-.51-.13z"/><path d="M43.3 20.94c0 .11-.18.22-.39.24-.21.02-.38-.05-.38-.17 0-.11.18-.22.39-.24.21-.02.39.06.38.17" fill-rule="evenodd" clip-rule="evenodd" fill="#4d822c"/><path d="M42.84 21.21c-.13 0-.23-.03-.29-.09a.128.128 0 0 1-.04-.1c0-.12.18-.24.41-.26h.07c.13 0 .23.03.29.09.03.03.04.06.04.09 0 .12-.18.24-.41.26l-.07.01zm.15-.42c-.27.02-.44.13-.45.23 0 .03.01.05.03.07.05.05.15.08.26.08h.07c.2-.02.38-.13.38-.23a.09.09 0 0 0-.03-.07c-.04-.05-.14-.08-.26-.08"/><path d="M43.63 20.69c0 .06-.05.11-.11.11s-.11-.05-.11-.11.05-.1.11-.1c.06-.01.11.04.11.1" fill-rule="evenodd" clip-rule="evenodd" fill="#fff"/><path d="M43.52 20.81c-.06 0-.12-.05-.12-.12 0-.12.23-.13.23 0 .01.06-.04.12-.11.12m0-.22a.1.1 0 0 0-.1.1c0 .11.2.11.2 0a.1.1 0 0 0-.1-.1"/><path d="M43.66 21.03c0 .06-.05.11-.11.11s-.11-.05-.11-.11.05-.11.11-.11.11.05.11.11" fill-rule="evenodd" clip-rule="evenodd" fill="#fff"/><path d="M43.55 21.14c-.06 0-.12-.05-.12-.12 0-.13.23-.13.23 0 .01.07-.04.12-.11.12m0-.21a.1.1 0 0 0-.1.1c0 .11.2.11.2 0 0-.06-.04-.1-.1-.1"/><path d="M42.3 20.93c0 .06-.05.1-.11.1s-.11-.05-.11-.1c0-.06.05-.11.11-.11s.11.05.11.11" fill-rule="evenodd" clip-rule="evenodd" fill="#fff"/><path d="M42.19 21.04c-.06 0-.12-.05-.12-.11 0-.13.23-.13.23 0 .01.06-.05.11-.11.11m0-.21c-.05 0-.1.05-.1.1 0 .1.2.1.2 0a.1.1 0 0 0-.1-.1"/><path d="M42.43 21.25c0 .06-.05.11-.11.11s-.11-.05-.11-.11.05-.11.11-.11.11.05.11.11" fill-rule="evenodd" clip-rule="evenodd" fill="#fff"/><path d="M42.32 21.36c-.06 0-.12-.05-.12-.11 0-.13.23-.13.23 0 .01.06-.04.11-.11.11m0-.21a.1.1 0 0 0-.1.1c0 .11.2.11.2 0 0-.06-.04-.1-.1-.1"/><path d="M44.86 20.69c0 .06.05.11.11.11s.11-.05.11-.11-.05-.1-.11-.1c-.06-.01-.11.04-.11.1" fill-rule="evenodd" clip-rule="evenodd" fill="#fff"/><path d="M44.97 20.81c-.06 0-.12-.05-.12-.12 0-.13.23-.13.23 0 0 .06-.05.12-.11.12m0-.22a.1.1 0 0 0-.1.1c0 .11.2.11.2 0 0-.05-.05-.1-.1-.1"/><path d="M44.83 21.03c0 .06.05.11.11.11s.11-.05.11-.11-.05-.11-.11-.11-.11.05-.11.11" fill-rule="evenodd" clip-rule="evenodd" fill="#fff"/><path d="M44.94 21.14c-.06 0-.12-.05-.12-.12 0-.13.23-.13.23 0 0 .07-.05.12-.11.12m0-.21a.1.1 0 0 0-.1.1c0 .11.2.11.2 0-.01-.06-.05-.1-.1-.1"/><path d="M46.19 20.93c0 .06.05.1.1.1.06 0 .11-.05.11-.1 0-.06-.05-.11-.11-.11-.05 0-.1.05-.1.11" fill-rule="evenodd" clip-rule="evenodd" fill="#fff"/><path d="M46.3 21.04c-.06 0-.12-.05-.12-.11 0-.13.23-.13.23 0 0 .06-.05.11-.11.11m0-.21c-.05 0-.1.05-.1.1 0 .11.19.11.19 0 .01-.05-.04-.1-.09-.1"/><path d="M46.06 21.25c0 .06.05.11.11.11s.11-.05.11-.11-.05-.11-.11-.11-.11.05-.11.11" fill-rule="evenodd" clip-rule="evenodd" fill="#fff"/><path d="M46.17 21.36c-.06 0-.12-.05-.12-.11 0-.13.23-.13.23 0 0 .06-.05.11-.11.11m0-.21a.1.1 0 0 0-.1.1c0 .11.2.11.2 0-.01-.06-.05-.1-.1-.1"/><path d="M46.4 22.42c.08-.01.57-.13.67-.19-.07-.12-.19-.22-.09-.17.05.02.09-.15-.06-.27-.42.14-1.44.39-2.71.39-1.3 0-2.33-.27-2.75-.4-.15.13-.1.27-.11.32 0 0 0 .07.03.12.14.16.61.23.69.25.38.07.76.17 2.14.17 1.28-.02 1.8-.16 2.19-.22" fill="#fff"/><path d="M44.21 22.64c-1.24 0-1.68-.08-2.03-.14l-.12-.02c-.38-.07-.61-.15-.7-.25-.03-.06-.03-.13-.03-.14 0-.11-.01-.23.12-.34.31.09 1.37.4 2.76.4 1.43 0 2.5-.32 2.7-.39.13.1.14.22.12.27l-.06.04c.05.05.09.09.12.14-.11.09-.61.21-.69.22l-.17.03c-.37.08-.92.18-2.02.18m-2.75-.85c-.09.09-.08.19-.08.26 0 .05 0 .11.02.16.06.06.22.15.66.23l.13.02c.35.06.78.14 2.02.14 1.1 0 1.64-.1 2.01-.17l.17-.03c.08-.01.57-.13.67-.19-.04-.02-.07-.07-.1-.1l-.04-.08L47 22c.01-.04 0-.13-.09-.21-.18.07-1.25.4-2.69.4-1.4 0-2.47-.31-2.76-.4"/><path d="M42.03 21.54c-.08.02-.6.2-.7.26.01.05-.09.3.05.43.42-.14 1.61-.55 2.88-.55 1.3 0 2.38.41 2.8.55.15-.13.05-.38.06-.43-.1-.06-.62-.24-.7-.26-.38-.07-.78-.31-2.16-.31-1.27 0-1.85.24-2.23.31" fill="#fff"/><path d="M47.07 22.25l-.15-.05c-.48-.16-1.48-.5-2.66-.5-1.21 0-2.33.37-2.81.53l-.09.02c-.12-.1-.09-.28-.07-.38v-.01l.02-.07c.11-.07.63-.25.71-.27.09-.02.19-.04.3-.07.38-.1.95-.24 1.93-.24 1.04 0 1.51.14 1.86.24.11.03.21.06.3.07.08.02.6.2.71.26l.02.09c.03.1.06.27-.07.38zm-5.73-.43c.01 0 0 .02 0 .06-.02.09-.04.25.06.34.52-.18 1.65-.56 2.87-.56 1.18 0 2.19.34 2.67.51l.13.04c.09-.09.06-.24.05-.33-.01-.04-.01-.06-.01-.08-.09-.04-.6-.22-.69-.24-.09-.02-.19-.04-.3-.08-.34-.1-.81-.23-1.85-.23-.97 0-1.54.14-1.92.24-.12.03-.22.06-.31.07-.09.02-.6.2-.7.26z"/><path d="M41.66 21.85c0 .02-.01.03-.03.04-.02 0-.04-.01-.04-.03 0-.02.01-.03.03-.04.02 0 .03.01.04.03M41.62 21.94c0 .02-.01.03-.03.04-.02 0-.04-.01-.04-.03 0-.02.01-.03.03-.04.02 0 .03.01.04.03M41.69 21.98c0 .02-.01.04-.03.04-.02 0-.04-.01-.04-.03 0-.02.01-.03.03-.03.02-.01.04.01.04.02M41.63 21.93l.3-.15-.14.1.09-.01-.08.05.15-.01z" fill-rule="evenodd" clip-rule="evenodd"/><path d="M41.54 21.95l.38-.18-.13.13.13-.13-.23.14.14-.01.05-.05-.04.05h.11l-.14.03.13-.03-.14.04.02-.02z"/><path d="M42.78 21.53c0 .02-.01.03-.03.04-.02 0-.04-.01-.04-.03 0-.02.01-.03.03-.04.02 0 .04.01.04.03M42.74 21.62c0 .02-.01.03-.03.04-.02 0-.04-.01-.04-.03 0-.02.01-.03.03-.04.02 0 .04.01.04.03M42.82 21.66c0 .02-.01.03-.03.04-.02 0-.04-.01-.04-.03 0-.02.01-.03.03-.04.02 0 .03.02.04.03M42.75 21.6l.3-.14-.14.1.1-.01-.09.05.15-.01z" fill-rule="evenodd" clip-rule="evenodd"/><path d="M42.66 21.63l.39-.18-.14.13.13-.13-.23.13h.14l.06-.05-.05.05.11-.01-.14.04.14-.03-.15.03.02-.02z"/><path d="M44.17 21.38c0 .02-.02.03-.04.03s-.03-.02-.03-.04.02-.03.04-.03.04.02.03.04M44.11 21.45c0 .02-.02.03-.04.03s-.03-.02-.03-.04.02-.03.04-.03c.02.01.04.03.03.04M44.18 21.52c0 .02-.02.03-.04.03s-.03-.02-.03-.04.02-.03.04-.03.03.02.03.04M44.13 21.45l.33-.07-.17.06.1.01-.1.03.15.03z" fill-rule="evenodd" clip-rule="evenodd"/><path d="M44.44 21.53l-.15-.03-.17-.04.33-.09-.32.09h.16l.1-.03-.09.07.15-.01z"/><path d="M45.47 21.65c0-.02-.01-.03-.03-.04-.02 0-.04.01-.04.03 0 .02.01.03.03.04.02 0 .03-.02.04-.03M45.43 21.56c0-.02-.01-.03-.03-.03-.02 0-.04.01-.04.03 0 .02.01.04.03.04.02-.01.04-.02.04-.04M45.5 21.51c0-.02-.01-.03-.03-.03-.02 0-.04.01-.04.03 0 .02.01.03.03.04.02-.01.04-.02.04-.04M45.44 21.57l.3.14-.14-.1.1.02-.09-.05h.15z" fill-rule="evenodd" clip-rule="evenodd"/><path d="M45.74 21.73l-.31-.14.33-.03-.32.03.18.06-.03-.02.11-.02-.11.02.16.07z"/><path d="M46.6 21.94c0-.02-.01-.03-.03-.03-.02 0-.04.01-.04.03 0 .02.01.03.03.04.02-.01.04-.02.04-.04M46.56 21.85c0-.02-.01-.03-.03-.04-.02 0-.04.01-.04.03 0 .02.01.03.03.04.02 0 .04-.01.04-.03M46.64 21.81c0-.02-.01-.03-.03-.04-.02 0-.04.01-.04.03 0 .02.01.03.03.04.02 0 .04-.02.04-.03M46.57 21.87l.31.14-.15-.1.1.01-.09-.05.15.01z" fill-rule="evenodd" clip-rule="evenodd"/><path d="M46.87 22.02l-.31-.14.33-.02-.32.02.19.07-.04-.03.11-.02.01.01-.11.01.16.07z"/></svg>