<svg xmlns="http://www.w3.org/2000/svg" viewBox="0 0 58.92 34.37"><path fill="#bd1032" d="M0 0h58.92v11.46H0z"/><path fill="#fff" d="M0 11.46h58.92v11.46H0z"/><path fill="#050505" d="M0 22.92h58.92v11.46H0z"/><path d="M34.55 15.08a.698.698 0 0 1-.18-.13c-.04-.06-.02-.06.15-.01.29.08.48.05.66-.11l.16-.14.19.1c.1.05.22.09.25.08.08-.02.26-.25.25-.32-.01-.09.07-.07.11.03.08.21-.04.44-.23.49-.1.03-.19.02-.34-.04-.18-.06-.21-.06-.3.01-.19.16-.47.17-.72.04M35.26 14.42c-.07-.09-.15-.43-.13-.51.03-.07.05-.09.11-.07.12.04.14.12.13.39-.01.21-.04.27-.11.19M26.79 14.18c-.02.16.29.57.43.65-.1.04-.22.03-.31.07-.49.5-2.3 2.26-2.64 2.68.98.02 2.06-.01 2.98-.05 0-.66.63-.7 1.05-.94.22.34.76.32.83.83v2.21h-8.36c-.15.65-.73 1.15-1.55.94.25-.27.68-.36.83-.72.13-.8-.26-1.29-.51-1.74.41-.15.48-.19.89-.47-.29.89.77.79 1.55.77.03-.3.01-.66-.22-.71.3-.11.35-.15.83-.55v1.2c1.87 0 3.88-.01 5.79-.01 0-.38.1-.98-.2-.98-.28 0-.01.77-.23.77h-4.47v-.76l1.46-1.47c.15-.13 1.06-.95 1.85-1.72M37.97 14.14c.31.17.56.4.94.5-.05.16-.18.22-.22.39v3.38c.43.1.52-.15.72-.28.06.54.4 1.07.39 1.49h-1.83v-5.48zM35.53 15.95s.66-.56.66-.58v2.94h.48c0-1.12-.01-2.26-.01-3.3.19-.19.57-.48.67-.67v5.28h-4.2c-.06-1.09-.07-2.23 1.21-1.98v-.45c-.04-.08-.11.02-.13-.08.2-.2.27-.25.82-.73 0 .58.01 1.94.01 1.94h.48c.01-.01.01-2.29.01-2.37m-1.57 2.34c.09.14.4.13.38-.09-.05-.2-.45-.13-.38.09" fill="#439b4c"/><path d="M21.81 19.99c.14 0 .26.12.26.26s-.11.26-.26.26c-.14 0-.26-.12-.26-.26.01-.15.12-.26.26-.26M29.72 14.15c.31.17.56.4.94.5-.04.16-.18.22-.22.39v3.38c.43.09.52-.15.72-.28.06.54.4 1.07.39 1.49h-1.83v-5.48z" fill="#439b4c"/></svg>