<svg xmlns="http://www.w3.org/2000/svg" viewBox="0 0 58.92 34.37"><path fill="#fff" d="M0 0h58.92v34.37H0z"/><path fill="#49a044" d="M0 0h58.92v11.48H0z"/><path fill="#c7001b" d="M0 22.89h58.92v11.48H0zM29.46 13.05l-.62.5.11 8.13.51.59.51-.59.12-8.13z"/><path d="M30.71 12.19a.86.86 0 0 1-1.18.28c-.02-.01-.04-.03-.07-.05-.38.29-.92.21-1.21-.17-.01-.02-.03-.04-.04-.07a.74.74 0 0 0 1.25.7c.28.29.76.3 1.05.01.19-.17.27-.44.2-.7M31.02 13.32a5.08 5.08 0 0 1-4.69 8.05c2.41.97 5.15-.21 6.12-2.62a4.7 4.7 0 0 0-1.43-5.43" fill="#c7001b"/><path d="M27.9 13.32a5.08 5.08 0 0 0 4.69 8.05c-2.41.97-5.15-.21-6.12-2.62a4.716 4.716 0 0 1 1.43-5.43M31.61 13.16a5.073 5.073 0 0 1 1.12 7.09c-.08.11-.17.22-.26.33a4.025 4.025 0 0 0 1.63-5.45 4.06 4.06 0 0 0-2.49-1.97" fill="#c7001b"/><path d="M27.31 13.16a5.073 5.073 0 0 0-1.12 7.09c.08.11.17.22.26.33a4.025 4.025 0 0 1-1.63-5.45 4.06 4.06 0 0 1 2.49-1.97" fill="#c7001b"/><path d="M.13 10.94H.4v-.55h.8v.55h1.34v-.82h-.8v.27h.53v.27h-.8v-.55H.13v.83zm.54 0h.27v-.27H.67v.27zm-.54-1.1h3.48v-.27H.13v.27zm3.49 1.1h-.8v-.82h1.07v-.55h.27v1.09h.27V9.57h.27v1.09h.27V9.57h.27v1.37H3.88v-.55h-.8v.27h.54v.28zM5.49 10.94h.27v-.55h.8v.55H7.9v-.82h-.8v.27h.54v.27h-.8v-.55H5.49v.83zm.54 0h.27v-.27h-.27v.27zm-.54-1.1h3.48v-.27H5.49v.27zm3.48 1.1h-.8v-.82h1.07v-.55h.27v1.09h.27V9.57h.27v1.09h.27V9.57h.27v1.37H9.24v-.55h-.8v.27h.54v.28zM10.85 10.94h.27v-.55h.8v.55h1.34v-.82h-.8v.27H13v.27h-.8v-.55h-1.34v.83zm.53 0h.27v-.27h-.27v.27zm-.53-1.1h3.48v-.27h-3.48v.27zm3.48 1.1h-.8v-.82h1.07v-.55h.27v1.09h.27V9.57h.27v1.09h.27V9.57h.27v1.37H14.6v-.55h-.8v.27h.54v.28zM16.2 10.94h.27v-.55h.8v.55h1.34v-.82h-.8v.27h.54v.27h-.8v-.55H16.2v.83zm.54 0h.27v-.27h-.27v.27zm-.54-1.1h3.48v-.27H16.2v.27zm3.48 1.1h-.8v-.82h1.07v-.55h.27v1.09h.27V9.57h.27v1.09h.27V9.57h.27v1.37h-1.34v-.55h-.8v.27h.54v.28zM21.56 10.94h.27v-.55h.8v.55h1.34v-.82h-.8v.27h.53v.27h-.8v-.55h-1.34v.83zm.54 0h.27v-.27h-.27v.27zm-.54-1.1h3.48v-.27h-3.48v.27zm3.48 1.1h-.8v-.82h1.07v-.55h.27v1.09h.27V9.57h.27v1.09h.27V9.57h.27v1.37h-1.34v-.55h-.8v.27h.54v.28zM26.92 10.94h.27v-.55h.8v.55h1.34v-.82h-.8v.27h.54v.27h-.8v-.55h-1.34v.83zm.53 0h.27v-.27h-.27v.27zm-.53-1.1h3.48v-.27h-3.48v.27zm3.48 1.1h-.8v-.82h1.07v-.55h.27v1.09h.27V9.57h.27v1.09h.27V9.57h.27v1.37h-1.34v-.55h-.8v.27h.54v.28zM32.27 10.94h.27v-.55h.8v.55h1.34v-.82h-.8v.27h.54v.27h-.8v-.55h-1.34v.83zm.54 0h.27v-.27h-.27v.27zm-.54-1.1h3.48v-.27h-3.48v.27zm3.49 1.1h-.8v-.82h1.07v-.55h.27v1.09h.27V9.57h.27v1.09h.27V9.57h.27v1.37h-1.34v-.55h-.8v.27h.54v.28zM37.63 10.94h.27v-.55h.8v.55h1.34v-.82h-.8v.27h.53v.27h-.8v-.55h-1.34v.83zm.54 0h.27v-.27h-.27v.27zm-.54-1.1h3.48v-.27h-3.48v.27zm3.48 1.1h-.81v-.82h1.07v-.55h.27v1.09h.27V9.57h.27v1.09h.27V9.57h.27v1.37h-1.34v-.55h-.8v.27h.54v.28zM42.99 10.94h.27v-.55h.8v.55h1.34v-.82h-.8v.27h.54v.27h-.8v-.55H43v.83zm.53 0h.27v-.27h-.27v.27zm-.53-1.1h3.48v-.27h-3.48v.27zm3.48 1.1h-.8v-.82h1.07v-.55H47v1.09h.27V9.57h.27v1.09h.27V9.57h.27v1.37h-1.34v-.55h-.8v.27h.54v.28zM48.35 10.94h.27v-.55h.8v.55h1.34v-.82h-.8v.27h.54v.27h-.8v-.55h-1.34v.83zm.53 0h.27v-.27h-.27v.27zm-.53-1.1h3.48v-.27h-3.48v.27zm3.48 1.1h-.8v-.82h1.07v-.55h.27v1.09h.27V9.57h.27v1.09h.27V9.57h.27v1.37h-1.34v-.55h-.8v.27h.54v.28zM53.7 10.94h.27v-.55h.8v.55h1.34v-.82h-.8v.27h.54v.27h-.8v-.55H53.7v.83zm.54 0h.27v-.27h-.27v.27zm-.54-1.1h3.48v-.27H53.7v.27zm3.48 1.1h-.8v-.82h1.07v-.55h.27v1.09h.27V9.57h.27v1.09h.27V9.57h.27v1.37h-1.34v-.55h-.8v.27h.54v.28zM.13 11.76h2.41v-.55H.13v.55zm2.68 0h2.41v-.55H2.81v.55zM5.49 11.76H7.9v-.55H5.49v.55zm2.68 0h2.41v-.55H8.17v.55zM10.85 11.76h2.41v-.55h-2.41v.55zm2.68 0h2.41v-.55h-2.41v.55zM16.2 11.76h2.41v-.55H16.2v.55zm2.68 0h2.41v-.55h-2.41v.55zM21.56 11.76h2.41v-.55h-2.41v.55zm2.68 0h2.41v-.55h-2.41v.55zM26.92 11.76h2.41v-.55h-2.41v.55zm2.68 0h2.41v-.55H29.6v.55zM32.27 11.76h2.41v-.55h-2.41v.55zm2.68 0h2.41v-.55h-2.41v.55zM37.63 11.76h2.41v-.55h-2.41v.55zm2.68 0h2.41v-.55h-2.41v.55zM42.99 11.76h2.41v-.55h-2.41v.55zm2.68 0h2.41v-.55h-2.41v.55zM48.35 11.76h2.41v-.55h-2.41v.55zm2.67 0h2.41v-.55h-2.41v.55zM53.7 11.76h2.41v-.55H53.7v.55zm2.68 0h2.41v-.55h-2.41v.55zM.13 24.8H.4v-.55h.8v.55h1.34v-.82h-.8v.27h.53v.27h-.8v-.55H.13v.83zm.54 0h.27v-.27H.67v.27zm-.54-1.09h3.48v-.27H.13v.27zm3.49 1.09h-.8v-.82h1.07v-.55h.27v1.09h.27v-1.09h.27v1.09h.27v-1.09h.27v1.37H3.88v-.55h-.8v.27h.54v.28zM5.49 24.8h.27v-.55h.8v.55H7.9v-.82h-.8v.27h.54v.27h-.8v-.55H5.49v.83zm.54 0h.27v-.27h-.27v.27zm-.54-1.09h3.48v-.27H5.49v.27zm3.48 1.09h-.8v-.82h1.07v-.55h.27v1.09h.27v-1.09h.27v1.09h.27v-1.09h.27v1.37H9.24v-.55h-.8v.27h.54v.28zM10.85 24.8h.27v-.55h.8v.55h1.34v-.82h-.8v.27H13v.27h-.8v-.55h-1.34v.83zm.53 0h.27v-.27h-.27v.27zm-.53-1.09h3.48v-.27h-3.48v.27zm3.48 1.09h-.8v-.82h1.07v-.55h.27v1.09h.27v-1.09h.27v1.09h.27v-1.09h.27v1.37H14.6v-.55h-.8v.27h.54v.28zM16.2 24.8h.27v-.55h.8v.55h1.34v-.82h-.8v.27h.54v.27h-.8v-.55H16.2v.83zm.54 0h.27v-.27h-.27v.27zm-.54-1.09h3.48v-.27H16.2v.27zm3.48 1.09h-.8v-.82h1.07v-.55h.27v1.09h.27v-1.09h.27v1.09h.27v-1.09h.27v1.37h-1.34v-.55h-.8v.27h.54v.28zM21.56 24.8h.27v-.55h.8v.55h1.34v-.82h-.8v.27h.53v.27h-.8v-.55h-1.34v.83zm.54 0h.27v-.27h-.27v.27zm-.54-1.09h3.48v-.27h-3.48v.27zm3.48 1.09h-.8v-.82h1.07v-.55h.27v1.09h.27v-1.09h.27v1.09h.27v-1.09h.27v1.37h-1.34v-.55h-.8v.27h.54v.28zM26.92 24.8h.27v-.55h.8v.55h1.34v-.82h-.8v.27h.54v.27h-.8v-.55h-1.34v.83zm.53 0h.27v-.27h-.27v.27zm-.53-1.09h3.48v-.27h-3.48v.27zm3.48 1.09h-.8v-.82h1.07v-.55h.27v1.09h.27v-1.09h.27v1.09h.27v-1.09h.27v1.37h-1.34v-.55h-.8v.27h.54v.28zM32.27 24.8h.27v-.55h.8v.55h1.34v-.82h-.8v.27h.54v.27h-.8v-.55h-1.34v.83zm.54 0h.27v-.27h-.27v.27zm-.54-1.09h3.48v-.27h-3.48v.27zm3.49 1.09h-.8v-.82h1.07v-.55h.27v1.09h.27v-1.09h.27v1.09h.27v-1.09h.27v1.37h-1.34v-.55h-.8v.27h.54v.28zM37.63 24.8h.27v-.55h.8v.55h1.34v-.82h-.8v.27h.53v.27h-.8v-.55h-1.34v.83zm.54 0h.27v-.27h-.27v.27zm-.54-1.09h3.48v-.27h-3.48v.27zm3.48 1.09h-.81v-.82h1.07v-.55h.27v1.09h.27v-1.09h.27v1.09h.27v-1.09h.27v1.37h-1.34v-.55h-.8v.27h.54v.28zM42.99 24.8h.27v-.55h.8v.55h1.34v-.82h-.8v.27h.54v.27h-.8v-.55H43v.83zm.53 0h.27v-.27h-.27v.27zm-.53-1.09h3.48v-.27h-3.48v.27zm3.48 1.09h-.8v-.82h1.07v-.55H47v1.09h.27v-1.09h.27v1.09h.27v-1.09h.27v1.37h-1.34v-.55h-.8v.27h.54v.28zM48.35 24.8h.27v-.55h.8v.55h1.34v-.82h-.8v.27h.54v.27h-.8v-.55h-1.34v.83zm.53 0h.27v-.27h-.27v.27zm-.53-1.09h3.48v-.27h-3.48v.27zm3.48 1.09h-.8v-.82h1.07v-.55h.27v1.09h.27v-1.09h.27v1.09h.27v-1.09h.27v1.37h-1.34v-.55h-.8v.27h.54v.28zM53.7 24.8h.27v-.55h.8v.55h1.34v-.82h-.8v.27h.54v.27h-.8v-.55H53.7v.83zm.54 0h.27v-.27h-.27v.27zm-.54-1.09h3.48v-.27H53.7v.27zm3.48 1.09h-.8v-.82h1.07v-.55h.27v1.09h.27v-1.09h.27v1.09h.27v-1.09h.27v1.37h-1.34v-.55h-.8v.27h.54v.28zM.13 23.16h2.41v-.55H.13v.55zm2.68 0h2.41v-.55H2.81v.55zM5.49 23.16H7.9v-.55H5.49v.55zm2.68 0h2.41v-.55H8.17v.55zM10.85 23.16h2.41v-.55h-2.41v.55zm2.68 0h2.41v-.55h-2.41v.55zM16.2 23.16h2.41v-.55H16.2v.55zm2.68 0h2.41v-.55h-2.41v.55zM21.56 23.16h2.41v-.55h-2.41v.55zm2.68 0h2.41v-.55h-2.41v.55zM26.92 23.16h2.41v-.55h-2.41v.55zm2.68 0h2.41v-.55H29.6v.55zM32.27 23.16h2.41v-.55h-2.41v.55zm2.68 0h2.41v-.55h-2.41v.55zM37.63 23.16h2.41v-.55h-2.41v.55zm2.68 0h2.41v-.55h-2.41v.55zM42.99 23.16h2.41v-.55h-2.41v.55zm2.68 0h2.41v-.55h-2.41v.55zM48.35 23.16h2.41v-.55h-2.41v.55zm2.67 0h2.41v-.55h-2.41v.55zM53.7 23.16h2.41v-.55H53.7v.55zm2.68 0h2.41v-.55h-2.41v.55z" fill="#fff"/></svg>