<svg xmlns="http://www.w3.org/2000/svg" viewBox="0 0 58.92 34.37"><path fill="#fff" d="M0 0h58.92v34.37H0z"/><path fill="#cc0036" d="M55.06 0l-25.6 14.98L3.87 0H0v2.21l25.66 14.98L0 32.16v2.21h3.87L29.46 19.4l25.6 14.97h3.86v-2.21L33.27 17.19 58.92 2.21V0z"/><path d="M32.46 5.14c.74 2.98.33 6.66-2.99 8.71-3.33-2.04-3.73-5.72-2.99-8.71.78-.71 4.34-1.15 5.98 0" fill="#d50037"/><path d="M29.47 13.85c-4.15-2.55-3.34-7.31-3-8.71.45-.41 1.77-.71 3.08-.71 1.22 0 2.26.25 2.91.71.35 1.4 1.15 6.17-2.99 8.71zm.09-9.41c-1.31 0-2.64.31-3.08.71-.34 1.4-1.15 6.15 2.99 8.7 4.14-2.54 3.33-7.3 2.99-8.7-.65-.46-1.68-.71-2.9-.71"/><path d="M29.46 4.54c1.22 0 2.35.32 3.02.74.13-1.03.6-2.06 1.15-2.83-.57-.01-.83.29-.83.61-.15-.41-.71-.38-.88-.16.63.42.14 1.18-.42 1.02-.27-.07-.41-.26-.46-.53.06 0 .12-.03.17-.07.13-.11.15-.3.04-.43a.303.303 0 0 0-.43-.04c-.13.11-.15.3-.05.43.04.04.08.08.13.09-.18.29-.5.38-.73.32-.3-.08-.42-.35-.42-.59 0-.62.6-.72.78-.61-.01-.42-.67-.75-.87-.41.23-.41.22-.98-.19-1.36-.41.38-.42.96-.19 1.36-.21-.35-.86-.01-.87.41.18-.11.78-.01.78.61 0 .24-.13.51-.42.59a.667.667 0 0 1-.73-.32.38.38 0 0 0 .13-.09c.11-.13.09-.33-.04-.43a.302.302 0 0 0-.43.04c-.11.13-.09.33.05.43.05.04.11.07.17.07-.05.27-.19.46-.46.53-.57.16-1.05-.6-.43-1.02-.17-.22-.73-.25-.88.16-.01-.32-.26-.62-.84-.61.55.78 1.02 1.8 1.15 2.83.65-.41 1.78-.74 3-.74" fill="#f2dd30"/><path d="M32.5 5.31l-.02-.01c-.73-.45-1.88-.74-3.02-.74-1.13 0-2.29.28-3.02.74-.14-.95-.56-1.98-1.17-2.84.63-.02.86.31.86.6.04-.21.23-.33.47-.33.17 0 .32.06.4.16-.24.18-.34.41-.27.65.09.28.39.45.68.37.25-.07.4-.24.45-.52a.226.226 0 0 1-.17-.05.319.319 0 0 1-.05-.45.32.32 0 1 1 .36.5c.16.23.47.36.72.29.3-.09.41-.36.41-.58 0-.5-.39-.63-.59-.63-.07 0-.13.01-.16.04-.02-.45.66-.73.86-.44-.22-.36-.24-.94.18-1.35.42.38.43.92.25 1.3.19-.24.82.07.83.48-.18-.03-.42-.01-.57.12-.14.11-.21.28-.21.49 0 .21.11.49.41.58.25.07.56-.06.71-.31a.232.232 0 0 1-.13-.08.319.319 0 0 1 .05-.45c.13-.11.35-.09.46.05.11.14.09.34-.05.45-.05.04-.11.07-.18.07.07.26.21.43.46.5.29.08.59-.1.68-.37.07-.23-.03-.46-.27-.62.07-.12.23-.18.4-.18.24 0 .43.12.5.33.03-.31.24-.64.84-.64 0 0 0 .01-.01.01-.58.03-.78.34-.78.61-.1-.19-.27-.3-.5-.3-.16 0-.31.06-.38.15.24.15.35.39.28.63-.09.29-.41.48-.72.39-.26-.07-.41-.25-.47-.54.08-.02.13-.04.18-.08.13-.1.15-.29.04-.41a.297.297 0 0 0-.41-.04c-.13.1-.14.29-.04.41.03.04.08.07.12.09-.15.29-.48.42-.74.34-.32-.09-.43-.38-.43-.61 0-.52.4-.66.62-.66.07 0 .14.01.18.04-.03-.27-.35-.52-.61-.52-.08 0-.19.03-.25.14l.03-.06c.16-.38.16-.92-.24-1.3-.4.4-.37.98-.17 1.35-.09-.1-.2-.12-.28-.12-.26 0-.58.25-.59.54.08-.15.78-.09.78.61 0 .22-.11.52-.43.61-.27.08-.59-.06-.75-.32.05-.04.1-.07.13-.11.1-.13.08-.31-.04-.41a.31.31 0 0 0-.42.04c-.1.13-.08.31.04.41.05.04.1.06.17.06-.04.31-.2.49-.46.56-.3.09-.62-.1-.71-.39-.09-.26.01-.5.26-.67a.618.618 0 0 0-.38-.13c-.23 0-.41.11-.47.31-.03-.28-.24-.6-.82-.6.59.84 1.01 1.88 1.13 2.82.71-.47 1.87-.75 3.01-.75 1.13 0 2.28.28 3.01.73.1-.77.4-1.6.85-2.35-.42.77-.72 1.6-.82 2.38l-.01.01z"/><path d="M31.99 7.47c-.07.02-.07.11-.11.11.19-.01.28-.06.34-.15-.04.04 0 .11-.02.13.14-.05.21-.17.16-.25.03.04.12.07.15.07-.1-.08-.03-.25-.19-.34.05 0 .16.05.18.13-.02-.17-.04-.27-.17-.35.02.02.09.03.12 0a.21.21 0 0 1-.1-.2c.01-.08-.04-.1-.14-.07-.09.02-.29.04-.41.04-.25 0-.46 0-.66-.14.3.13.69-.14.69-.36 0-.25-.3-.45-.91-.31-.61.13-1.35.08-1.35-.13s.53-.23.81-.19c.27.04.47.07.98-.11-.13.05-.53.06-.86-.03-.32-.09-1.12-.09-1.12.34-.01.43.84.39 1.58.28.43-.06.65-.02.65.12 0 .13-.39.19-.69.15-.3-.04-.61-.03-.97.08-.3.09-.51 0-.83.06-.16.03-.55 0-.74-.31-.12.08-.47.26-.53.43-.08.16-.03.32.09.47.14.19-.07.16-.22.17-.21.01-.48-.02-.63-.19-.13-.14-.3-.26-.43-.15-.07.06 0 .13.05.11.06-.02.12.02.18.05-.09-.04-.2-.01-.24.03-.06.05.01.14.08.11.05-.03.16-.04.23.02-.08-.02-.15-.01-.19.03-.04.04-.01.1.07.1.13-.01.16.09.3.07-.08.01-.13.05-.15.09.12-.06.26.09.42.06-.06.02-.16.08-.16.13.09-.11.73.08.74-.15.02.05.01.12-.04.19.08-.05.34-.07.42-.26.01.06 0 .13-.05.15.08.03.2-.03.31-.2.04-.07.06-.11.05-.16.11 0 .19-.02.28-.1.09-.08.19.06.34-.03.16-.1.29-.01.37-.06.08-.05.2.02.29-.04.09-.06.23.03.38-.09.24.09.51.25 1.19.12.39-.07.51.06.51.24 0 .12-.07.13-.13.14-.22.01-.31-.08-.4-.05-.06.02-.09.11-.01.15-.07.03-.06.1-.03.12.04.03.13 0 .19-.03-.08.04-.16.1-.11.17.03.04.1.08.17-.01.07-.14.19-.21.27-.2" fill="#f2dd30"/><path d="M31.63 7.67c-.04 0-.07-.02-.08-.05v-.04c.03.07.05.09.08.09.03-.01.06-.03.09-.06.07-.08.18-.15.25-.15-.09.01-.18.08-.24.15-.04.05-.07.06-.1.06m.25-.09a.29.29 0 0 1 .08-.1c-.02.02-.03.04-.04.06.13.03.22-.01.28-.09-.06.09-.15.13-.32.13m-3.94-.01c.05-.07.05-.14.03-.19 0 .11-.15.13-.28.13l-.3-.01c-.09 0-.14.01-.17.04 0-.03.03-.06.07-.09-.03.03-.07.06-.07.09.02-.03.07-.04.16-.04l.29.01c.13 0 .27-.01.28-.12.04.04.04.12-.01.18.02-.02.06-.03.1-.05.11-.03.26-.08.32-.21.01.03.01.07 0 .1 0-.03.01-.06 0-.09-.05.14-.21.19-.32.22-.05.01-.08.02-.1.03m4.26-.01c.08-.03.14-.09.16-.15.01-.04.01-.07-.01-.1.04.04.13.07.16.07-.05-.03-.06-.08-.07-.14-.02-.07-.03-.15-.12-.2.07 0 .16.05.19.12-.03-.15-.05-.25-.17-.34.13.08.15.18.17.34-.03-.07-.13-.12-.18-.12.09.05.11.13.12.2.01.06.02.11.07.14-.02 0-.11-.02-.15-.06.02.03.02.06.01.09-.03.06-.09.12-.18.15m-.6-.06c.01-.01.03-.02.04-.03a.26.26 0 0 1-.11.03l-.07-.07c0-.02.01-.05.05-.07-.04-.01-.05-.04-.05-.06 0-.04.03-.07.06-.08a.2.2 0 0 1 .14.02c.06.02.12.04.22.04.09 0 .16-.01.16-.13 0-.21-.16-.3-.51-.23-.6.11-.89-.01-1.11-.09l-.08-.03c-.08.07-.15.07-.24.07-.07 0-.11 0-.14.02-.03.02-.06.03-.1.03l-.1-.01c-.04 0-.06.01-.09.02-.02.01-.05.02-.08.02h-.11c-.05 0-.11 0-.18.05-.08.01-.16 0-.22-.01l-.14.01a.37.37 0 0 1-.26.1c-.01.05-.02.1-.07.16-.09.13-.19.21-.27.21v-.01c.1-.02.18-.09.26-.21a.27.27 0 0 0 .05-.16c.13 0 .2-.03.28-.1a.09.09 0 0 1 .07-.03l.07.01c.07.03.15.03.21-.01.07-.04.14-.05.19-.05h.11c.03 0 .06 0 .08-.02.03-.01.05-.02.09-.02h.1c.04 0 .07-.01.1-.02.03-.02.09-.03.12-.02.11 0 .18-.01.26-.07l.09.03c.22.09.51.2 1.11.09.43-.08.52.1.52.24 0 .13-.09.14-.13.14-.12-.01-.21-.02-.26-.04-.04-.01-.07-.02-.09-.02-.07.01-.09.05-.09.08s.02.05.05.06c-.03.02-.05.05-.05.07l.07.06c.04 0 .09-.01.14-.04-.04.04-.06.05-.09.07m-4.53-.24a.18.18 0 0 1-.11-.03c-.04-.02-.09-.05-.13-.04-.06 0-.09-.02-.1-.04.01-.02.01-.03.02-.04 0 .06.02.07.07.07.07 0 .11.02.15.04.04.02.07.03.12.03h-.02zm.56-.16c-.15 0-.42-.02-.57-.19-.11-.12-.3-.26-.43-.15l.03.1c.09-.01.13.01.17.03h-.01a.304.304 0 0 0-.11-.03c-.08.01-.11-.01-.12-.04-.01-.03 0-.05.03-.07.13-.11.33.03.44.15.16.17.43.19.57.2l.13-.01c.09 0 .17 0 .19-.05.01-.03 0-.06-.04-.12-.13-.18-.16-.33-.09-.47.05-.13.27-.27.42-.36.04-.03.08-.05.11-.07.19.3.53.32.64.32.04 0 .08 0 .1-.01.09-.02.18-.02.26-.02l.26.01c.09 0 .19-.01.31-.04.33-.1.65-.11.97-.08.29.04.69-.02.69-.15 0-.14-.22-.18-.65-.12-.81.12-1.33.09-1.51-.09a.228.228 0 0 1-.07-.19c.01-.36.55-.39.72-.39.15 0 .3.02.41.05.26.07.69.09.85.03-.01.01-.02.01-.03.01-.42.16-.66.15-.94.11-.27-.04-.8-.02-.8.19 0 .06.07.11.19.15.26.07.77.06 1.16-.02.13-.03.25-.04.36-.04.41 0 .56.19.56.36 0 .23-.43.47-.7.36.21.13.42.13.66.13.11 0 .32-.01.41-.04.03-.01.05-.01.07-.01l.07.08c-.01.06.02.14.1.19h-.01a.194.194 0 0 1-.09-.19l-.07-.08c-.02 0-.04 0-.07.01-.09.02-.3.04-.41.04-.25 0-.46 0-.67-.14.31.08.69-.16.69-.36 0-.28-.38-.42-.91-.31-.39.08-.9.09-1.16.02-.13-.04-.2-.09-.2-.15 0-.2.53-.24.81-.19.28.04.52.05.93-.09-.18.05-.56.03-.8-.04-.11-.03-.26-.05-.41-.05-.17 0-.71.03-.71.38 0 .07.02.14.07.19.18.18.7.21 1.5.09.43-.06.65-.02.65.12 0 .14-.4.19-.7.16-.31-.04-.64-.02-.97.08-.13.04-.23.04-.32.04l-.26-.01c-.08 0-.16 0-.26.02-.03 0-.07.01-.11.01-.1 0-.45-.02-.64-.32-.02.02-.06.04-.11.07-.15.09-.37.23-.42.36-.07.14-.05.29.08.46.04.06.05.1.04.13-.02.04-.11.04-.2.05l-.08-.01zm-.84-.03c.04-.03.09-.02.15-.01-.08-.06-.17-.04-.23-.01-.06 0-.09-.01-.1-.04-.01-.03 0-.06.02-.08.03-.03.11-.05.19-.04-.11 0-.16.03-.19.05 0 .09.02.11.05.11.11-.04.18-.06.26.01h-.08c-.03 0-.05.01-.07.01"/><path d="M27.67 5.62c-.2-.08-.26-.08-.22.08.02.07.07.16.11.21.01-.07.04-.26.11-.29" fill="#f2dd30"/><path d="M27.57 5.91a.477.477 0 0 1-.12-.22c-.02-.06-.02-.1 0-.12.01 0 .03-.01.04-.01-.04.03-.04.07-.03.12.02.07.06.16.11.2 0-.06.03-.24.1-.28-.07-.02-.11-.04-.15-.04.05 0 .09.02.15.04-.07.05-.1.23-.1.31z"/><path d="M28.29 5.62c.2-.08.26-.08.22.08-.02.07-.07.16-.11.21-.01-.07-.04-.26-.11-.29" fill="#f2dd30"/><path d="M28.39 5.91c0-.08-.03-.26-.1-.29.09-.05.15-.06.18-.06.01.01.02.01.03.02-.07-.01-.12.01-.2.04.08.03.1.21.11.27.04-.04.09-.13.11-.2.01-.03.02-.06.01-.08.01.02 0 .05-.01.08a.8.8 0 0 1-.13.22z"/><path d="M27.98 5.51c.37 0 .42.17.42.39 0 .23-.13.15-.2.45-.03.12-.12.13-.22.13s-.19-.01-.22-.13c-.07-.3-.2-.22-.2-.45 0-.22.05-.39.42-.39" fill="#f2dd30"/><path d="M27.98 6.49c-.1 0-.19-.01-.22-.13-.04-.15-.08-.2-.12-.25a.318.318 0 0 1-.08-.21c0-.11.01-.22.09-.3.13-.13.54-.13.67 0 .07.08.08.19.08.3 0 .12-.03.16-.08.21-.04.05-.09.1-.12.25-.03.12-.12.13-.22.13m0-.98c-.16 0-.27.03-.33.1-.07.07-.08.18-.08.29 0 .12.03.15.07.2.04.05.09.1.13.25.03.11.11.12.21.12.1 0 .19-.01.21-.12.04-.15.09-.21.13-.25.04-.05.07-.08.08-.2 0-.11-.01-.22-.08-.29-.07-.07-.18-.1-.34-.1"/><path d="M27.02 6.37c-.09-.05-.15-.02-.19-.01.12.03.13.19.41.26-.06-.02-.1.02-.16-.02.12.09.24.2.52.2.15 0 .05.08-.05.04.1.11.31.02.44.21.02-.15-.24-.39-.12-.56-.38-.02-.41-.23-.63-.39-.18-.14-.19-.27-.27-.53-.04-.12-.17-.19-.25-.16-.07.03-.09.08-.03.13.06.04.13.05.15.16-.08-.09-.19-.12-.24-.06-.03.03-.02.11.05.12.11.01.03.12.16.23-.11-.13-.22-.14-.28-.07-.04.04 0 .12.08.11.11-.02.24.27.41.34" fill="#f2dd30"/><path d="M27.99 7.07c-.08-.12-.18-.14-.27-.15-.07-.01-.13-.02-.17-.07l.13-.02c0-.01-.02-.02-.07-.02-.27 0-.4-.1-.51-.19h.12l-.07.01c.07.08.2.18.47.18.05 0 .08.01.08.03l-.07.03c-.02.02.04.03.11.04.09.02.19.03.27.14.01-.06-.03-.13-.07-.21-.06-.12-.13-.24-.05-.34-.29-.01-.39-.11-.49-.23-.05-.05-.09-.1-.16-.16-.15-.12-.19-.23-.24-.43l-.03-.1c-.02-.08-.09-.13-.15-.16.08.02.14.08.16.15l.02.11c.06.19.09.31.24.43.07.05.11.11.16.16.11.12.2.22.46.23-.07.1-.01.23.05.34.05.08.09.16.08.22v.01zm-.78-.45c-.15-.05-.22-.12-.27-.17-.04-.04-.07-.07-.11-.08.04-.02.07-.03.1-.03l.07.02c-.1-.01-.12 0-.14.01.03.01.06.05.1.09.04.04.11.12.27.16h-.02zm-.22-.27c-.08-.04-.14-.11-.2-.18-.07-.08-.15-.15-.19-.15-.05 0-.08-.02-.09-.05.01-.02.01-.03.02-.04.01.06.03.08.06.08.08 0 .14.07.21.15.06.08.12.15.19.19m-.22-.41c-.08-.06-.15-.08-.2-.05.05-.06.12-.02.2.05a.122.122 0 0 1-.05-.1c-.01-.04-.02-.07-.07-.08-.03 0-.06-.02-.07-.05-.01-.03 0-.06.01-.08.05-.05.17-.02.24.07-.02-.08-.06-.1-.1-.13-.07-.05-.08-.07-.08-.09.01-.03.03-.05.07-.07h.04-.01c-.07.02-.09.04-.1.07l.07.09c.04.03.09.05.1.13-.08-.08-.19-.12-.24-.06 0 .09.02.11.05.11.06.01.07.04.08.08.02.03.03.07.06.11"/><path d="M30.07 7.45c-.06.01-.04.11-.12.12.19 0 .29-.05.38-.12-.04.03-.06.09-.07.12.1-.09.34-.09.47-.07.13.03.15-.04.19-.11.05-.08-.02-.13-.08-.19s-.08-.15-.06-.3c-.34-.45-.94-.23-.95-.04.22.25.24.22.43.26.18.04.29.04.17.14-.04.04-.22.02-.35.03-.31.01-.45-.21-.54-.09-.07.1 0 .14.15.13-.1 0-.24-.01-.22.09.04.17.2-.03.26.04-.05-.01-.13.02-.14.07 0 .05.12.11.25.01.09-.07.18-.09.23-.09" fill="#f2dd30"/><path d="M29.71 7.59c-.04 0-.07-.01-.09-.03v-.03c.03.04.06.05.09.06.03-.01.08-.02.14-.06.07-.06.16-.08.22-.08l-.05.06c-.01.03-.02.06-.07.06.2-.01.29-.06.36-.11-.02.03-.04.08-.04.11.08-.08.32-.1.47-.07.12 0 .15-.03.18-.09.05-.09.01-.13-.05-.18-.08-.08-.1-.17-.09-.32a.655.655 0 0 0-.51-.26c-.23 0-.42.12-.42.22.19.22.23.22.36.25l.13.02c.09.02.15.03.15.06 0 .02-.01.04-.05.08-.02.02-.09.02-.18.02h-.17c-.16 0-.27-.05-.35-.09-.05-.02-.09-.04-.12-.04-.09.07-.09.09-.08.11.01.03.06.05.13.05-.03 0-.07.01-.1.01.02-.01.04-.01.07-.01-.06 0-.1-.02-.11-.04-.01-.02 0-.05.02-.09.04-.06.1-.04.19.01.08.04.18.09.32.09h.2c.07 0 .15 0 .18-.02.04-.03.05-.05.05-.07-.01-.03-.07-.03-.15-.05l-.07-.01c-.19-.03-.24-.04-.43-.26 0-.11.19-.23.43-.23.21 0 .39.1.52.27-.01.16.01.24.07.3.08.07.12.12.08.19-.04.08-.07.12-.15.12-.09-.01-.14-.02-.2-.02-.14 0-.26.03-.32.08 0-.02 0-.08.04-.11-.1.08-.2.11-.36.11.04-.01.06-.04.07-.07.01-.02.02-.05.05-.06-.05.01-.14.03-.22.09a.44.44 0 0 1-.14.03"/><path d="M31.66 9.92c-.07.02-.07.1-.1.1.17-.01.26-.05.31-.14-.04.03-.01.1-.02.12.13-.05.19-.15.14-.22.03.04.11.06.14.07-.09-.07-.03-.23-.17-.31.05 0 .14.05.16.11-.02-.14-.04-.23-.16-.31.01.01.08.03.11 0-.08-.05-.1-.13-.09-.18.01-.07-.04-.09-.13-.06-.08.02-.26.03-.37.03-.22 0-.41 0-.6-.13.27.12.63-.13.63-.32 0-.22-.27-.4-.82-.28-.55.12-1.22.07-1.22-.11s.48-.21.73-.17c.25.04.42.06.88-.1-.11.05-.48.06-.77-.02-.29-.08-1-.08-1.01.3-.01.38.76.35 1.42.25.38-.06.59-.02.59.11 0 .12-.35.17-.63.14-.27-.03-.55-.02-.87.07-.27.08-.46 0-.75.05-.14.02-.49 0-.66-.28-.1.08-.42.23-.48.39-.07.12-.02.27.08.4.13.18-.06.15-.2.16-.19.01-.43-.02-.57-.17-.11-.13-.27-.23-.39-.14-.06.05 0 .12.05.1.05-.02.11.02.16.04-.08-.04-.18-.01-.21.02-.05.04.01.13.07.1.05-.02.15-.04.21.02-.07-.01-.14-.01-.17.02-.03.04-.01.09.07.09.12-.01.15.08.27.06-.07.01-.11.05-.13.08.11-.05.23.08.38.05-.05.02-.14.08-.14.12.09-.1.66.08.67-.14.02.05.01.11-.03.17.07-.04.31-.06.38-.23.01.05 0 .12-.05.13.08.02.17-.03.28-.18.04-.06.05-.1.04-.15.1 0 .17-.02.25-.09.08-.07.17.06.31-.03.14-.09.26-.01.33-.06.08-.04.18.02.26-.04.08-.05.21.03.34-.08.21.08.46.22 1.07.11.35-.06.46.06.46.21 0 .11-.07.12-.11.12-.2.01-.28-.07-.36-.05-.05.02-.08.1-.01.13-.06.03-.05.09-.02.11.03.02.11 0 .17-.02-.07.03-.14.09-.1.15.03.04.09.07.15-.01.05-.05.16-.12.23-.11" fill="#f2dd30"/><path d="M31.34 10.11c-.03 0-.06-.02-.07-.04v-.03c.04.1.1.08.15.02.06-.08.16-.13.23-.13-.08.01-.17.07-.22.14-.04.03-.07.04-.09.04m.22-.08c.03-.05.05-.08.07-.09l-.03.06c.11.02.2-.01.25-.09-.05.08-.14.11-.29.12m-3.55-.01c.04-.06.04-.13.03-.17 0 .1-.14.12-.25.12l-.26-.01c-.06 0-.13 0-.15.03 0-.03.03-.06.06-.08-.03.02-.06.06-.06.08.01-.03.06-.04.15-.04l.26.01c.11 0 .25-.01.25-.11.02.04.02.11-.03.17.02-.02.05-.03.09-.04.1-.03.24-.07.29-.19.01.03.01.06 0 .09v-.09c-.05.13-.18.17-.29.2-.04 0-.07.01-.09.03m3.84-.02c.07-.03.13-.08.14-.14.01-.03.01-.07-.01-.09.03.03.11.06.14.06-.04-.03-.05-.07-.06-.12-.01-.07-.03-.13-.11-.18.06 0 .15.05.17.11-.03-.14-.05-.22-.16-.3.11.07.14.17.16.3-.03-.06-.12-.11-.16-.11.08.04.1.11.11.18.01.05.02.1.06.13-.02 0-.1-.02-.13-.05.01.02.02.05 0 .08-.02.06-.07.11-.15.13m-.54-.04l.03-.03c-.03.02-.07.02-.1.02l-.07-.07c0-.01.01-.04.05-.06v.01c-.03.01-.04.04-.04.06l.06.06c.03 0 .08-.01.13-.03-.01 0-.04.02-.06.04m-2.93-.04c.09-.02.17-.09.24-.19.04-.06.05-.1.04-.14.11 0 .18-.03.25-.09l.13-.01c.05.01.12.02.18-.02a.32.32 0 0 1 .17-.05h.1c.09-.03.12-.03.15-.03l.09.01a.2.2 0 0 0 .09-.02c.03-.02.08-.02.11-.02.1 0 .16 0 .24-.06l.08.03c.2.08.46.18.99.08.38-.07.46.09.46.22 0 .12-.07.12-.12.13-.12 0-.19-.02-.24-.03a.292.292 0 0 0-.09-.02c-.06.02-.08.05-.08.08h.01l.03.05c-.04-.01-.05-.04-.05-.05 0-.03.02-.07.05-.08.06-.01.09 0 .12.01.05.02.11.04.2.04.09-.01.15-.02.15-.12 0-.19-.14-.27-.46-.21-.54.1-.8 0-1-.08l-.05-.05c-.08.06-.17.06-.22.06-.07 0-.1 0-.13.02a.2.2 0 0 1-.09.02h-.09c-.03 0-.06.01-.07.02-.02.01-.05.01-.07.01h-.1c-.04 0-.1 0-.16.04s-.13.04-.19.02l-.13.01c-.07.06-.14.09-.23.09-.01.04-.02.08-.06.14-.09.13-.17.19-.25.19m-1.15-.19c-.05 0-.07-.01-.1-.02a.266.266 0 0 0-.12-.03c-.05 0-.08-.01-.09-.04.01-.01.01-.02.02-.03 0 .05.01.05.06.06.07 0 .1.02.14.03.03.01.06.03.11.03-.01.01-.02 0-.02 0m.51-.14c-.14 0-.38-.02-.51-.17-.08-.09-.26-.24-.39-.14l.02.08-.05-.02.03-.06c.13-.1.32.05.4.14.13.14.37.17.5.17l.12-.01c.08 0 .16 0 .17-.04.01-.02 0-.06-.04-.11-.12-.16-.14-.3-.08-.43.04-.12.23-.24.38-.32.04-.03.08-.05.1-.07.17.27.48.29.57.29.04 0 .07 0 .1-.01.08-.01.16-.02.23-.02h.24c.08 0 .17 0 .28-.04.29-.09.59-.1.87-.07.27.03.62-.02.62-.14 0-.12-.2-.16-.58-.1-.73.11-1.2.08-1.36-.09a.22.22 0 0 1-.07-.17c.01-.32.5-.35.65-.35.13 0 .27.02.36.04.19.05.38.06.47.06.12 0 .22-.01.28-.03-.01 0-.02.01-.03.01-.37.14-.59.13-.85.09-.24-.04-.72-.01-.72.17 0 .05.06.1.17.13.23.07.69.06 1.04-.02.12-.03.23-.04.33-.04.37 0 .5.17.5.32 0 .21-.38.43-.63.33.19.12.38.12.6.12.1 0 .29-.01.37-.03h.04c-.14.03-.31.04-.4.04-.22 0-.41 0-.6-.13.27.07.62-.14.62-.33 0-.25-.34-.38-.82-.28-.35.08-.81.08-1.04.02-.12-.03-.18-.08-.18-.14 0-.18.48-.21.73-.17.25.04.46.04.83-.08-.06.02-.15.02-.24.02-.1 0-.29-.01-.47-.06-.1-.03-.23-.05-.36-.05-.15 0-.64.03-.64.34 0 .07.02.12.07.17.16.16.62.19 1.35.08.39-.06.59-.02.59.11 0 .12-.36.17-.63.14-.28-.03-.58-.02-.87.07-.11.08-.2.09-.28.09l-.24-.01c-.07 0-.15 0-.23.02-.03.01-.06.01-.1.01-.09 0-.41-.02-.57-.29-.02.02-.06.04-.1.07-.14.09-.33.2-.37.32-.06.12-.04.25.08.41.04.05.05.09.04.12-.02.04-.1.04-.18.04h-.12zm-.76-.02c.02-.02.04-.02.07-.02-.07-.02-.11-.02-.14 0-.05 0-.08-.01-.09-.04.01-.02.02-.03.02-.05l.04.09c.1-.04.16-.06.24.01l.01.01-.08-.01c-.03 0-.05 0-.07.01"/><path d="M27.77 8.26c-.18-.07-.24-.07-.2.07.02.06.06.15.1.19.01-.07.04-.23.1-.26" fill="#f2dd30"/><path d="M27.69 8.52a.453.453 0 0 1-.11-.19c-.02-.06-.02-.09 0-.11.01 0 .02-.01.04-.01-.04.03-.04.06-.03.11.02.06.06.14.1.18 0-.05.02-.22.09-.25-.06-.02-.1-.03-.14-.04.04 0 .08.02.14.04-.07.04-.09.19-.09.27z"/><path d="M28.33 8.26c.18-.07.24-.07.2.07-.02.06-.06.15-.1.19-.01-.07-.03-.23-.1-.26" fill="#f2dd30"/><path d="M28.42 8.52c0-.08-.03-.23-.09-.26.08-.04.13-.06.16-.06.01.01.02.01.02.02-.06-.01-.11 0-.18.04.07.02.09.17.1.24.04-.04.08-.12.1-.18.01-.03.01-.06.01-.07.01.02 0 .04-.01.08-.02.06-.06.15-.11.19z"/><path d="M28.05 8.16c.33 0 .38.16.38.35 0 .21-.11.14-.18.41-.02.1-.11.11-.19.11s-.17-.01-.19-.11c-.07-.27-.18-.2-.18-.41-.01-.19.03-.35.36-.35" fill="#f2dd30"/><path d="M28.05 9.04c-.09 0-.17-.01-.2-.11a.398.398 0 0 0-.11-.22c-.04-.04-.07-.08-.07-.18 0-.09.01-.2.08-.27.12-.12.49-.12.6 0 .07.07.08.17.08.27 0 .11-.03.14-.07.19-.04.04-.08.09-.11.22-.02.09-.11.1-.2.1m0-.88c-.14 0-.24.03-.3.09-.07.07-.07.17-.07.26 0 .1.03.14.07.18.04.04.08.09.11.23.03.1.1.11.19.11s.17-.01.19-.11c.03-.13.08-.19.11-.23.04-.04.07-.08.07-.18 0-.1-.01-.2-.07-.26-.06-.06-.16-.09-.3-.09"/><path d="M27.19 8.93c-.09-.05-.14-.02-.18-.01.11.03.11.17.37.24-.06-.02-.09.02-.14-.01.1.08.22.18.47.18.14 0 .04.07-.05.03.09.09.28.02.39.19.02-.14-.22-.35-.11-.5-.34-.01-.37-.2-.57-.35-.16-.12-.17-.25-.24-.48-.03-.1-.16-.17-.22-.15-.06.02-.08.07-.03.11.05.04.12.04.13.14-.07-.08-.17-.11-.21-.06-.03.03-.02.1.04.11.1.01.03.11.15.21-.1-.11-.19-.13-.25-.06-.03.04 0 .1.07.1.11-.01.23.25.38.31" fill="#f2dd30"/><path d="M28.06 9.56c-.07-.11-.16-.12-.24-.14-.06-.01-.11-.02-.15-.06h.01c.04.04.09.05.15.06.08.01.17.03.24.13 0-.05-.03-.12-.06-.19-.05-.1-.11-.22-.04-.31-.24 0-.32-.1-.42-.21a.927.927 0 0 0-.14-.14c-.14-.1-.17-.21-.22-.39l-.03-.09c-.03-.09-.12-.15-.19-.15-.06.02-.08.04-.09.06l.07.08c.04.02.08.05.09.12-.05-.05-.11-.08-.16-.08l-.07.08c.11.05.12.08.12.11.01.03.01.07.04.1-.08-.06-.14-.08-.18-.05.05-.06.11-.02.18.05-.03-.03-.04-.07-.05-.1-.01-.04-.01-.06-.07-.07l-.06-.04.08-.1c.05 0 .11.03.15.08-.02-.05-.06-.07-.1-.1l-.07-.08c0-.03.03-.05.06-.06.11 0 .2.06.23.15l.03.1c.05.17.08.28.21.38.06.04.1.09.14.14.1.11.18.2.42.21-.06.1-.01.21.05.31.04.07.08.14.07.2zm-.31-.2h.03c-.31-.02-.43-.11-.53-.19h.07c-.09-.03-.15-.1-.2-.15-.03-.04-.06-.07-.1-.08.04-.02.06-.03.09-.03l.04.01-.11.01c.03.01.06.04.09.08.05.05.11.12.26.16l-.09.01c.06.06.18.16.42.16.05 0 .07.01.07.02h-.04zm-.59-.44c-.07-.05-.12-.11-.17-.16a.472.472 0 0 0-.17-.14c-.05 0-.07-.01-.08-.04.01-.01.01-.03.02-.04.01.06.02.06.06.07.07 0 .12.07.19.14.03.06.09.13.15.17z"/><path d="M29.94 9.91c-.05.01-.04.1-.11.11.17 0 .26-.04.34-.11-.04.02-.05.08-.06.11.09-.08.31-.08.42-.06.11.02.13-.03.17-.1.04-.07-.01-.11-.07-.17-.06-.06-.07-.14-.06-.27-.3-.4-.85-.21-.85-.03.2.23.22.2.39.23.16.03.27.03.16.12-.04.03-.2.02-.32.02-.28.01-.4-.19-.48-.09-.07.09 0 .13.14.12-.09 0-.22-.01-.2.08.04.15.18-.03.23.04-.05-.01-.12.02-.12.06 0 .04.11.1.22.01.06-.05.15-.07.2-.07" fill="#f2dd30"/><path d="M29.61 10.04c-.03 0-.07-.01-.08-.03v-.02c.05.07.11.08.21 0a.37.37 0 0 1 .2-.07c-.06.08-.07.11-.11.11.18-.01.26-.05.33-.1-.02.03-.03.07-.04.1.07-.07.29-.09.42-.07.1 0 .13-.03.16-.09.04-.08 0-.11-.04-.16-.07-.07-.09-.15-.08-.29a.564.564 0 0 0-.46-.23c-.21 0-.38.11-.38.2.17.2.21.2.32.22l.12.02c.08.01.13.02.14.05.01.02-.01.04-.05.07-.02.02-.08.02-.16.02h-.16c-.15 0-.24-.04-.31-.08-.03-.01-.05-.02-.07-.03.03 0 .05.01.07.02.07.04.16.08.29.08h.1l.09.01v-.02c.06 0 .13 0 .16-.02.03-.03.05-.05.04-.06-.01-.02-.06-.03-.13-.04l-.14-.03c-.11-.02-.16-.03-.33-.23 0-.1.17-.21.39-.21.19 0 .35.08.47.24-.01.14 0 .21.06.27.07.07.11.11.07.18-.04.07-.06.11-.13.11-.08-.01-.13-.02-.18-.02-.13 0-.24.03-.29.07 0-.02.01-.07.04-.1-.06.06-.15.1-.33.1.04-.01.05-.04.06-.06-.01-.04-.09-.02-.15.03-.04.05-.09.06-.12.06m-.14-.24c.02-.01.04-.01.06-.01-.05 0-.08-.02-.09-.04-.01-.02 0-.05.02-.08.02-.01.03-.01.04-.01-.06.05-.07.07-.06.09.01.03.06.04.13.04-.03 0-.07.01-.1.01"/><path d="M31.09 11.99c-.05.01-.05.08-.07.08.13 0 .19-.04.23-.11-.03.03 0 .08-.01.09.09-.04.14-.12.1-.18.02.03.08.05.1.06-.07-.06-.02-.19-.13-.25.04 0 .1.04.12.09-.02-.11-.03-.19-.12-.25.01.01.06.02.08 0a.16.16 0 0 1-.07-.14c.01-.06-.03-.07-.09-.05-.06.02-.19.03-.27.03-.16 0-.31 0-.44-.1.2.09.46-.1.46-.26 0-.18-.2-.33-.61-.23s-.9.06-.9-.09.36-.17.54-.14c.18.03.31.05.65-.08-.09.04-.35.05-.57-.02-.22-.07-.74-.07-.75.25 0 .31.56.28 1.05.2.28-.05.43-.02.43.09 0 .1-.26.14-.46.11-.2-.02-.4-.02-.64.06-.2.06-.34 0-.56.04-.11.02-.36 0-.49-.23-.08.06-.32.19-.35.31-.05.12-.02.23.06.34.09.14-.05.12-.15.13-.14.01-.32-.02-.42-.13-.09-.11-.2-.19-.29-.11-.05.04 0 .09.03.08.04-.01.08.02.12.04a.148.148 0 0 0-.16.02c-.04.04.01.11.05.08.04-.02.11-.03.15.02-.05-.01-.1-.01-.13.02s-.01.07.05.07c.09 0 .11.06.2.05-.05.01-.08.04-.1.06.08-.04.17.07.28.05-.04.02-.11.06-.11.1.06-.08.49.06.49-.11.01.04.01.09-.02.14.05-.04.23-.05.28-.19 0 .04 0 .09-.04.11.06.02.13-.03.21-.15.03-.05.04-.08.03-.12.07 0 .13-.02.19-.07s.13.05.23-.02.19-.01.25-.05.13.01.19-.03.16.02.25-.07c.16.06.34.18.8.09.26-.05.34.04.34.17 0 .09-.05.1-.08.1-.15.01-.21-.06-.26-.04-.04.01-.06.08-.01.11-.05.03-.04.07-.02.09.02.02.08 0 .12-.02-.05.03-.11.07-.08.12.02.03.07.06.11-.01.08-.11.16-.16.21-.15" fill="#f2dd30"/><path d="M30.85 12.14l-.05-.03v-.04l.05.07c.02-.01.04-.02.06-.05.04-.06.12-.11.17-.11-.06.01-.12.06-.16.11-.03.04-.05.05-.07.05m-2.46-.07c.03-.06.03-.11.02-.14 0 .08-.1.09-.18.09l-.19-.01c-.06 0-.1.01-.11.03 0-.03.02-.05.05-.07-.02.02-.05.05-.05.07.01-.02.04-.03.11-.03l.19.01c.13 0 .18-.03.18-.09.02.03.02.08-.02.14.01-.02.04-.03.07-.04.07-.02.17-.06.21-.16.01.03.01.06 0 .08v-.08c-.03.1-.13.14-.21.16-.03.02-.05.03-.07.04m2.84-.01c.05-.03.09-.06.1-.11a.11.11 0 0 0 0-.08c.03.03.09.05.1.05-.03-.02-.04-.06-.05-.1-.01-.06-.02-.11-.08-.15.05 0 .11.04.13.09-.02-.11-.04-.18-.12-.24.09.06.1.13.12.25-.02-.05-.09-.09-.12-.09.06.03.07.09.08.14.01.04.01.08.04.1-.02 0-.07-.01-.1-.04.01.02.01.05 0 .07 0 .04-.05.08-.1.11m-2.57-.07c.07-.02.12-.07.17-.16.03-.04.04-.08.03-.11a.3.3 0 0 0 .19-.08h.04c-.09.06-.14.08-.21.08 0 .04-.01.07-.04.12-.06.1-.12.15-.18.15m2.11-.08l-.04-.05c0-.03.02-.06.04-.06l.09.01c.04.01.08.03.15.03.06 0 .11-.01.11-.1 0-.15-.1-.22-.34-.17-.4.08-.59 0-.74-.07-.11.03-.18.03-.21.03-.05 0-.07 0-.1.02l-.28.04c-.07 0-.11 0-.16.03-.03.02-.05.03-.08.03l-.08-.02h.02c.09.01.11 0 .14-.02.05-.03.09-.04.13-.04h.07l.25-.04c.02-.02.06-.01.08-.02.07 0 .12 0 .17-.05.23.1.4.17.8.09.29-.06.35.07.35.18 0 .1-.06.1-.09.1-.09-.01-.14-.01-.18-.03l-.09-.01-.04.06.03.06zm-2.58-.19c-.1 0-.28-.02-.38-.14-.05-.06-.17-.18-.26-.13.11-.1.21.06.26.13.1.12.28.13.38.14l.09-.01c.06 0 .11 0 .13-.03.01-.02 0-.05-.03-.09-.09-.13-.11-.24-.06-.35.03-.1.18-.19.28-.27l.08-.05c.13.22.36.24.42.24.13-.02.19-.02.24-.02h.18c.06 0 .13 0 .21-.03.22-.07.43-.09.65-.06.2.03.46-.01.46-.11s-.15-.13-.43-.08c-.42.07-.86.07-1-.06a.204.204 0 0 1-.06-.15c.01-.27.37-.29.48-.29.1 0 .2.01.27.04.17.05.45.06.56.02-.01 0-.02.01-.02.01-.27.11-.43.11-.62.07-.18-.03-.53-.01-.53.14 0 .05.07.09.13.1.18.05.51.05.77-.01.41-.1.61.08.61.23 0 .18-.28.35-.47.27.14.1.28.1.44.1.07 0 .21-.01.27-.03h.02l-.02.01c-.06.02-.2.03-.27.03-.17 0-.31 0-.44-.1.21.05.46-.12.46-.27 0-.21-.25-.31-.6-.22-.26.06-.6.07-.77.02-.09-.03-.13-.06-.13-.11 0-.15.36-.17.54-.14.18.03.34.04.6-.06-.13.04-.36.02-.52-.03-.07-.02-.17-.04-.27-.04-.11 0-.47.02-.47.28 0 .05.02.1.05.14.13.13.57.13.99.06.29-.05.44-.02.44.09 0 .1-.27.14-.47.12-.21-.03-.43-.01-.64.06-.08.03-.15.03-.21.03h-.18c-.05 0-.11 0-.17.02l-.07.01c-.07 0-.3-.02-.43-.24l-.07.06c-.1.07-.25.17-.28.26-.05.1-.03.21.06.34.03.04.04.08.03.1-.02.03-.08.03-.13.03l-.1-.03z"/><path d="M28.21 10.64c-.13-.06-.18-.06-.15.06.01.05.04.12.08.15.01-.06.02-.19.07-.21" fill="#f2dd30"/><path d="M28.15 10.85a.346.346 0 0 1-.08-.16c-.01-.05-.01-.07 0-.09h.03c-.03.02-.03.05-.02.09.01.05.04.11.07.14 0-.05.02-.18.07-.2a.455.455 0 0 0-.11-.03c.05 0 .07.01.12.03-.06.03-.08.16-.08.22z"/><path d="M28.62 10.64c.13-.06.18-.06.15.06-.01.05-.04.12-.08.15 0-.06-.02-.19-.07-.21" fill="#f2dd30"/><path d="M28.69 10.85c0-.06-.02-.19-.07-.21.06-.04.1-.04.12-.04.01 0 .01.01.02.01-.05-.01-.08.01-.14.03.05.02.07.15.07.2.03-.03.05-.09.07-.14.01-.03.01-.05.01-.07.01.02.01.04 0 .07-.01.05-.04.11-.08.15z"/><path d="M28.42 10.56c.25 0 .28.13.28.29 0 .17-.09.11-.13.33-.02.09-.08.09-.14.09-.06 0-.13 0-.14-.09-.05-.22-.13-.16-.13-.33-.02-.17.01-.29.26-.29" fill="#f2dd30"/><path d="M28.42 11.27c-.07 0-.13-.01-.15-.09-.02-.11-.06-.15-.08-.18-.03-.04-.05-.06-.05-.15 0-.15.02-.29.28-.29.1 0 .17.02.22.07.05.05.06.14.06.22 0 .09-.02.12-.05.15-.03.03-.06.07-.08.18-.02.08-.08.09-.15.09m0-.71c-.25 0-.27.14-.27.28 0 .09.02.11.05.15.03.04.06.08.08.19.04.16.25.16.28 0 .02-.11.06-.15.08-.18.03-.04.05-.06.05-.15 0-.08-.01-.16-.06-.22-.04-.05-.11-.07-.21-.07"/><path d="M27.78 11.19c-.06-.04-.1-.01-.13-.01.08.02.09.14.27.19-.04-.01-.07.01-.11-.01.08.07.16.14.34.15.1 0 .03.06-.03.03.07.08.21.01.29.16.02-.11-.16-.28-.08-.41-.25-.01-.27-.16-.42-.29-.12-.1-.13-.2-.18-.39-.02-.08-.11-.14-.17-.12-.04.02-.06.06-.02.09.04.03.09.04.1.11-.05-.07-.12-.09-.16-.05-.02.02-.01.08.03.09.08.01.02.09.11.17-.08-.09-.14-.1-.18-.05-.02.03 0 .08.05.08.09-.01.18.2.29.26" fill="#f2dd30"/><path d="M28.42 11.7c-.06-.09-.12-.1-.18-.11-.04-.01-.09-.02-.12-.05h.04c.01.03.04.04.08.05.06.01.13.03.18.1 0-.04-.02-.09-.05-.15-.04-.08-.08-.18-.03-.25-.17 0-.24-.08-.31-.17a.318.318 0 0 0-.11-.12c-.1-.09-.12-.17-.16-.31l-.02-.08c-.02-.07-.09-.12-.14-.12l-.06.05.05.06c.03.02.06.04.07.1a.304.304 0 0 0-.07-.05c.03.01.05.03.07.05-.01-.06-.04-.07-.07-.09l-.05-.07.07-.05c.05 0 .13.05.15.13l.02.08c.04.14.06.22.16.3.04.04.08.08.11.12.07.09.13.16.31.17-.04.08 0 .17.04.25.01.05.03.11.02.16zm-.26-.18c-.19-.02-.27-.09-.34-.15h.01c.08.07.16.14.33.14v.01zm-.24-.15h-.05.02c-.09-.02-.13-.08-.17-.12a.124.124 0 0 0-.08-.06h.02c.02.01.04.03.06.06.05.03.09.09.2.12m-.16-.2a.325.325 0 0 1-.13-.13c-.04-.06-.09-.11-.12-.11l-.07-.03.07-.09c.03 0 .06.02.1.05-.03-.02-.03-.05-.03-.07-.01-.03-.01-.05-.05-.06l-.01-.02c.05.03.06.05.06.08.01.02.01.05.03.08-.04-.03-.07-.05-.1-.05l-.06.08c.1.03.14.08.19.14.03.05.08.1.12.13"/><path d="M29.81 11.98c-.04.01-.03.08-.08.08.13 0 .19-.03.26-.09-.03.02-.04.06-.04.09.07-.06.23-.07.31-.05.09.02.1-.03.13-.09s-.01-.09-.05-.14c-.04-.05-.05-.11-.04-.22-.22-.33-.63-.17-.63-.03.15.18.16.16.28.19.12.03.2.03.12.1-.03.03-.15.01-.24.02-.2.01-.3-.15-.36-.07-.05.07 0 .1.1.1-.07 0-.16 0-.15.07.03.12.13-.02.17.03-.03-.01-.09.02-.09.05 0 .04.08.08.17.01.04-.04.11-.05.14-.05" fill="#f2dd30"/><path d="M29.57 12.08l-.06-.02v-.03l.06.05c.02-.01.05-.02.09-.05.05-.04.11-.06.15-.06l-.01.01c-.04 0-.1.02-.14.06a.14.14 0 0 1-.09.04m.38-.01c0-.01 0-.06.03-.08-.06.06-.13.08-.24.08l.01-.01c.13 0 .19-.04.23-.08-.02.03-.03.06-.03.09.05-.06.21-.08.31-.06.09 0 .1-.03.12-.07.03-.07 0-.1-.03-.14-.05-.06-.07-.12-.05-.23-.18-.26-.62-.17-.62-.03.12.16.16.16.24.18l.09.02c.06.01.1.02.1.04-.01.02-.03.03-.04.04.02-.06-.02-.06-.07-.07l-.09-.02c-.09-.02-.12-.02-.25-.18.01-.15.45-.25.64.02-.01.11 0 .17.04.22.05.05.08.09.05.14-.03.06-.05.09-.1.09-.06-.01-.1-.01-.13-.01-.09 0-.18.02-.21.06m-.49-.07l-.04-.1c.02-.02.05-.02.08-.03-.03 0-.05-.02-.06-.03l.06-.09c.02 0 .05.01.08.03.05.03.12.06.21.06h.07c.08 0 .12 0 .15-.01-.03.01-.05.01-.09.01h-.11c-.11 0-.18-.04-.23-.06a.16.16 0 0 0-.08-.03l-.05.08c.01.02.04.03.09.03-.05.01-.1.01-.11.03l.03.11.1-.04c-.01 0-.02.01-.02.01.01 0 .02-.01.03-.01l-.04.01c-.01 0-.01.01-.02.02l.02-.02-.07.03zM27.98 6.13c-.04 0-.07-.01-.08-.02-.02-.03-.01-.07 0-.14l.01-.06-.01.06c-.01.07-.02.11-.01.13.02.03.12.03.15 0 .02-.02.01-.07-.01-.14l-.02-.09.01-.01.02.1c.02.07.03.12 0 .14 0 .02-.02.03-.06.03"/><path d="M27.98 6.42c.1 0 .16 0 .14-.14-.01-.06.07-.08.04-.17.03.11-.18.1-.18.05 0 .05-.21.06-.19-.05-.03.09.05.11.04.17-.01.14.05.14.15.14" fill="#ea0029"/><path d="M27.98 6.42c-.06 0-.1 0-.13-.03-.02-.02-.02-.06-.02-.12-.04-.09-.06-.12-.04-.17.06.16.18.09.18.05.01.05.1.04.13.03-.04.02-.13.02-.13-.02 0 .04-.14.04-.17 0l.04.11c-.01.06 0 .09.02.11.05.05.2.05.24 0 .02-.02.02-.06.02-.11 0-.01.01-.01.01-.02v.02c.01.06 0 .09-.02.12-.03.03-.08.03-.13.03M28.05 8.72c-.04 0-.06-.01-.07-.02-.02-.02-.01-.06 0-.13l.02-.05-.01.05c-.01.06-.02.1-.01.12l.07.03.06-.03c.02-.02.01-.06-.01-.13l-.02-.08.01-.01.02.09c.02.06.03.11.01.13l-.07.03z"/><path d="M28.05 8.98c.09 0 .14 0 .13-.13-.01-.05.06-.07.04-.15.03.1-.17.09-.17.05 0 .04-.19.05-.17-.05-.02.08.04.1.04.15-.01.13.04.13.13.13" fill="#ea0029"/><path d="M28.05 8.98c-.05 0-.09 0-.11-.02-.02-.02-.02-.05-.02-.1-.03-.08-.05-.1-.04-.15.05.14.17.08.17.05.01.04.09.04.12.02-.04.02-.12.02-.12-.02 0 .04-.13.04-.16 0l.03.1c-.01.05 0 .08.02.1.04.05.18.05.22 0 .02-.02.02-.05.02-.1v-.01.01c.01.05 0 .08-.02.1-.02.02-.06.02-.11.02M28.47 11h-.1c-.02-.02-.01-.05 0-.11l.02-.09-.01.09c-.01.05-.02.09 0 .1l.09.01c.01-.02 0-.06-.01-.11v-.04l.01.04c.01.05.02.09 0 .11"/><path d="M28.42 11.22c.07 0 .1 0 .09-.1 0-.04.05-.06.03-.13.02.08-.12.07-.12.04 0 .04-.14.04-.12-.04-.02.07.03.08.03.13-.02.1.02.1.09.1" fill="#ea0029"/><path d="M28.42 11.22c-.04 0-.07 0-.08-.02-.01-.01-.02-.03-.02-.06.01.03.01.05.02.06.03.04.13.04.16 0 .01-.01.02-.04.01-.08.01-.02.01-.03.02-.04-.01.09-.01.11-.03.13-.02.01-.05.01-.08.01"/><path d="M26.74 5.42c-.07-.09-.24-.01-.25.09.06-.07.15.03.21.01.03-.01.07-.07.04-.1M26.65 5.62c-.07-.09-.24-.01-.25.09.06-.07.15.03.21.01.03-.01.06-.06.04-.1M26.6 5.9c-.08-.08-.24.01-.24.12.05-.08.16.01.21-.01.04-.02.06-.08.03-.11" fill="#2d4db6"/><path d="M26.37 6.02c0-.03.01-.07.04-.09.06-.06.15-.08.2-.03v.03c-.07-.13-.15-.06-.2 0-.03.03-.05.06-.04.09l.06-.03.07.01-.13.02z"/><path d="M26.69 6.76c-.09-.07-.25.04-.23.14.04-.08.16-.01.2-.04.04-.02.06-.08.03-.1" fill="#2d4db6"/><path d="M26.46 6.9c-.01-.03 0-.07.03-.1a.17.17 0 0 1 .13-.07l.08.07c0 .03-.01.05-.04.07h-.02c.04-.02.05-.05.05-.07l-.08-.06c-.04 0-.09.03-.13.06-.01.03-.02.07-.02.1.01-.03.04-.04.07-.04l.06.01c-.09-.01-.11.01-.13.03"/><path d="M26.68 6.94c-.1-.04-.22.11-.16.21.01-.09.15-.05.18-.1.02-.03.02-.09-.02-.11M26.81 7.08c-.11-.04-.22.12-.17.21.02-.09.15-.05.18-.1.04-.03.04-.09-.01-.11M29.55 7.35c-.1-.04-.22.12-.16.21.02-.09.15-.06.18-.1.03-.03.03-.09-.02-.11M29.69 7.48c-.11-.02-.2.14-.14.23.01-.09.14-.07.17-.12.02-.04.02-.1-.03-.11" fill="#2d4db6"/><path d="M29.56 7.71c-.03-.04-.03-.09 0-.14.03-.05.07-.08.12-.08l.03.03c-.08-.02-.12.01-.14.06-.04.03-.04.09-.01.13 0-.06.05-.07.1-.08.03-.01.06-.02.07-.04 0-.01.01-.01.01-.02 0 .01 0 .01-.01.02-.01.02-.04.03-.07.04-.05.01-.1.02-.1.08z"/><path d="M29.59 7.17c-.1-.05-.23.08-.2.18.03-.09.16-.03.2-.07.03-.02.04-.08 0-.11M31.54 7.39c-.11-.02-.2.14-.14.23 0-.09.14-.07.17-.12.03-.03.02-.09-.03-.11" fill="#2d4db6"/><path d="M31.4 7.62c-.03-.04-.03-.09 0-.15.03-.05.07-.08.12-.08l.03.03c-.09-.02-.12.01-.15.06a.17.17 0 0 0 0 .14c0-.06.05-.07.1-.08.03-.01.06-.02.07-.04 0 0 .01-.01.01-.02 0 .01 0 .01-.01.02-.01.02-.04.03-.07.04-.04.01-.09.02-.1.08z"/><path d="M31.55 7.22c-.1-.05-.23.08-.19.19.03-.09.16-.03.2-.07.02-.03.03-.1-.01-.12M31.62 7.55c-.11-.02-.2.15-.13.23 0-.09.14-.08.17-.13.02-.03.01-.09-.04-.1" fill="#2d4db6"/><path d="M31.49 7.78c-.03-.04-.03-.1-.01-.15.03-.05.07-.09.11-.09.01.01.02.02.03.02-.09-.02-.12.01-.14.06-.02.06-.02.12.01.16 0-.06.05-.07.1-.09.03-.01.06-.02.07-.04 0 0 0-.01.01-.02 0 .01 0 .01-.01.02-.01.02-.04.03-.07.04-.05.02-.1.03-.1.09"/><path d="M27.99 6.33c.07 0 .1.02.1.15 0 .26 0 .38-.09.38s-.08-.11-.08-.3c0-.1 0-.15-.02-.14 0-.07.03-.09.09-.09" fill="#2d4db6"/><path d="M28 6.86l-.05-.02c-.03-.03-.03-.12-.03-.25v-.16c.01.02.01.06.01.13 0 .16 0 .25.03.28l.04.02c.08 0 .09-.12.09-.38 0-.12-.03-.14-.1-.14-.04 0-.06 0-.08.02.03-.06.18-.08.18.12 0 .26-.01.38-.09.38"/><path d="M26.93 8.08c-.06-.08-.22-.02-.22.08.05-.06.14.03.19.01.03-.01.06-.06.03-.09M26.85 8.26c-.06-.08-.22-.01-.22.09.05-.06.14.03.19.01.03-.02.06-.07.03-.1M26.81 8.51c-.07-.07-.22.01-.21.11.05-.07.14.01.19-.01.03-.02.05-.07.02-.1" fill="#2d4db6"/><path d="M26.6 8.62c0-.03.01-.06.03-.08.05-.05.14-.07.18-.02v.01c-.06-.09-.13-.04-.18.01-.02.02-.03.05-.03.08l.06-.03.06.01-.12.02z"/><path d="M26.89 9.28c-.08-.06-.22.04-.2.13.04-.07.14 0 .19-.03.02-.02.04-.07.01-.1M26.88 9.45c-.09-.03-.2.1-.15.19.01-.08.13-.05.16-.09.03-.03.03-.08-.01-.1" fill="#2d4db6"/><path d="M26.73 9.64c-.02-.03-.02-.08.01-.12.03-.04.07-.07.11-.07l.01.01c-.06 0-.09.03-.12.07-.02.03-.03.07-.01.11.01-.05.05-.06.1-.06h.02-.02c-.04 0-.09.01-.1.06z"/><path d="M27 9.58c-.09-.03-.19.1-.15.19.01-.08.13-.05.16-.09.03-.03.03-.09-.01-.1" fill="#2d4db6"/><path d="M26.85 9.76c-.02-.03-.02-.08.01-.12.03-.04.07-.07.11-.07l.01.01c-.06 0-.09.03-.12.07-.02.03-.02.08-.01.11.01-.05.05-.06.1-.06h.02-.02c-.04.01-.09.02-.1.06z"/><path d="M29.47 9.82c-.1-.03-.2.1-.15.19.01-.08.13-.05.17-.09.02-.03.02-.09-.02-.1" fill="#2d4db6"/><path d="M29.32 10.01c-.02-.03-.02-.08.01-.12s.07-.07.11-.07v.01c-.05 0-.09.03-.11.07-.03.03-.03.07-.01.11.01-.05.06-.06.1-.06.03 0 .05-.01.07-.03-.01.02-.04.02-.07.03-.05 0-.09.01-.1.06z"/><path d="M29.59 9.93c-.1-.02-.18.13-.13.2 0-.08.13-.06.15-.11.03-.02.02-.08-.02-.09" fill="#2d4db6"/><path d="M29.47 10.14c-.02-.03-.02-.09 0-.13.02-.05.06-.07.1-.07-.05 0-.08.03-.1.07-.02.04-.02.09 0 .13 0-.05.05-.06.09-.08.03-.01.05-.02.06-.03-.01.02-.04.03-.06.03-.04.02-.09.03-.09.08z"/><path d="M29.5 9.66c-.09-.05-.21.07-.18.16.03-.08.14-.03.18-.06.03-.03.04-.08 0-.1" fill="#2d4db6"/><path d="M29.33 9.82a.117.117 0 0 1 .02-.11c.03-.04.07-.07.11-.07l.01.01c-.07 0-.1.02-.13.06-.02.04-.02.07-.01.11.01-.04.05-.05.09-.05h.03-.01c-.07-.01-.1.01-.11.05"/><path d="M31.26 9.86c-.1-.02-.18.13-.13.2.01-.08.13-.06.15-.11.02-.03.02-.08-.02-.09" fill="#2d4db6"/><path d="M31.13 10.06c-.02-.03-.02-.09 0-.13.02-.05.06-.08.1-.08-.05 0-.09.03-.11.07-.01.06-.01.1.01.14 0-.05.05-.06.09-.08.03-.01.05-.02.07-.03-.01.02-.04.02-.06.03-.05.02-.09.03-.1.08z"/><path d="M31.26 9.7c-.09-.05-.21.07-.17.17.03-.08.14-.03.18-.07.02-.02.03-.08-.01-.1" fill="#2d4db6"/><path d="M31.09 9.87a.117.117 0 0 1 .02-.11c.03-.04.07-.07.11-.07l.01.01c-.08 0-.1.02-.12.06-.03.03-.03.07-.02.11.01-.05.06-.05.1-.05h.02-.02c-.04 0-.09 0-.1.05z"/><path d="M31.33 9.99c-.1-.02-.18.13-.12.21 0-.08.12-.07.15-.11.02-.03.01-.09-.03-.1" fill="#2d4db6"/><path d="M31.21 10.2c-.03-.03-.03-.09-.01-.13.02-.05.06-.08.1-.08-.05 0-.08.03-.1.07-.01.06-.01.11.01.14 0-.05.04-.07.08-.08.03-.01.05-.02.06-.04-.01.02-.04.03-.06.04-.03.02-.08.03-.08.08"/><path d="M28.06 8.9c.06 0 .09.02.09.13 0 .23 0 .34-.08.34S28 9.27 28 9.1c0-.09 0-.14-.02-.13 0-.06.02-.07.08-.07" fill="#2d4db6"/><path d="M28.07 9.37l-.04-.02c-.03-.03-.03-.1-.03-.22v-.15.12c0 .15 0 .22.03.26l.04.01c.07 0 .08-.1.08-.34 0-.17-.12-.16-.16-.11.03-.05.16-.07.16.11 0 .24-.01.34-.08.34"/><path d="M27.59 10.49c-.05-.06-.16-.01-.17.07.04-.05.1.02.14.01.03-.02.05-.05.03-.08M27.53 10.64c-.05-.06-.16-.01-.17.07.04-.05.1.02.14.01.03-.01.05-.05.03-.08M27.5 10.84c-.05-.06-.16.01-.16.09.03-.05.1.01.14-.01.03-.01.04-.05.02-.08M27.56 11.47c-.06-.05-.16.03-.15.11.03-.06.11 0 .14-.03.02-.02.03-.06.01-.08M27.55 11.6c-.07-.03-.14.08-.11.15.01-.07.1-.04.12-.07.02-.02.02-.06-.01-.08M27.64 11.71c-.07-.03-.14.08-.11.15.01-.06.1-.04.12-.07.02-.03.02-.07-.01-.08M29.47 11.9c-.07-.03-.14.08-.11.15.01-.07.1-.04.12-.07.01-.02.01-.06-.01-.08M29.56 12c-.07-.02-.14.1-.09.17 0-.07.09-.05.11-.09.01-.03.01-.08-.02-.08M29.49 11.77c-.07-.04-.16.06-.13.13.02-.06.1-.02.13-.05.02-.02.03-.06 0-.08M30.79 11.93c-.07-.02-.13.1-.09.17 0-.07.09-.05.11-.09.02-.02.01-.07-.02-.08" fill="#2d4db6"/><path d="M30.79 11.81c-.06-.04-.15.06-.13.14.02-.06.1-.02.13-.05.02-.03.03-.07 0-.09M30.84 12.05c-.07-.02-.13.11-.09.17 0-.07.09-.06.11-.09.02-.03.01-.08-.02-.08M28.42 11.16c.05 0 .06.02.06.11 0 .19 0 .28-.06.28s-.05-.08-.05-.22c0-.07 0-.11-.01-.1 0-.06.02-.07.06-.07" fill="#2d4db6"/><path d="M28.43 11.54l-.03-.01c-.02-.03-.02-.09-.02-.18v-.12.09c0 .12 0 .18.02.21l.03.01c.05 0 .06-.08.06-.27 0-.14-.09-.13-.12-.08.02-.05.12-.06.12.08 0 .19 0 .27-.06.27"/></svg>