<svg xmlns="http://www.w3.org/2000/svg" viewBox="0 0 58.92 34.37"><path fill="#fff" d="M0 0h58.92v34.37H0z"/><path d="M0 0h58.92v10.31H0z"/><path fill="#2a680b" d="M0 24.06h58.92v10.31H0z"/><path d="M23.07 27.39l.37.22 10.03-17.38c.58-.16.91-.71 1.23-1.27.22-.37 1.07-1.86 1.44-3.79-1.49 1.29-2.34 2.78-2.56 3.15-.32.56-.65 1.11-.49 1.7L23.07 27.39z"/><path d="M23.46 27.65l-.4-.23L33.08 10c-.16-.58.17-1.15.49-1.7.89-1.54 1.89-2.57 2.57-3.16-.12.91-.51 2.29-1.4 3.83-.32.55-.65 1.13-1.25 1.29L23.46 27.65zm12.66-22.5c-.63.61-1.62 1.64-2.51 3.17-.32.54-.64 1.1-.48 1.68L23.1 27.41l.33.16 10.01-17.36c.59-.17.92-.73 1.23-1.28.89-1.52 1.28-2.9 1.45-3.78"/><path d="M23.07 27.39l.37.22 10.03-17.38c.58-.16.91-.71 1.23-1.27.22-.37 1.07-1.86 1.44-3.79-1.49 1.29-2.34 2.78-2.56 3.15-.32.56-.65 1.11-.49 1.7L23.07 27.39z" fill="#fff"/><path d="M35.34 27.39l-.37.22-10.02-17.39c-.59-.16-.91-.71-1.23-1.27-.21-.37-1.07-1.86-1.45-3.79 1.49 1.29 2.35 2.78 2.56 3.15.32.56.64 1.11.49 1.7l10.02 17.38z"/><path d="M34.96 27.65l-.02-.03-10.02-17.38c-.58-.15-.91-.72-1.23-1.27-.89-1.54-1.28-2.92-1.45-3.81.73.57 1.73 1.59 2.61 3.13.32.55.65 1.13.49 1.72l10.02 17.36-.4.28zM22.25 5.18c.22.85.6 2.22 1.49 3.76.31.55.64 1.11 1.21 1.26l10.03 17.37.35-.2-10.04-17.34c.15-.6-.17-1.16-.49-1.7-.88-1.54-1.87-2.56-2.55-3.15"/><path d="M35.34 27.39l-.37.22-10.02-17.39c-.59-.16-.91-.71-1.23-1.27-.21-.37-1.07-1.86-1.45-3.79 1.49 1.29 2.35 2.78 2.56 3.15.32.56.64 1.11.49 1.7l10.02 17.38z" fill="#fff"/><path d="M0 12.03v10.31h25.13c.64 1.72 2.79 5.16 4.08 5.16s3.43-3.44 4.08-5.16h25.64V12.03H33.29c-.64-1.72-2.79-5.16-4.08-5.16s-3.43 3.44-4.08 5.16H0z" fill="#aa0017"/><path d="M33.29 22.34c.64-1.72 1.07-3.44 1.07-5.16 0-1.72-.43-3.44-1.07-5.16-.64 1.72-1.07 3.44-1.07 5.16-.01 1.73.42 3.44 1.07 5.16M25.13 22.34c-.64-1.72-1.07-3.44-1.07-5.16 0-1.72.43-3.44 1.07-5.16.64 1.72 1.07 3.44 1.07 5.16 0 1.73-.42 3.44-1.07 5.16"/><path d="M29.21 15.9c.47 0 .86.58.86 1.29 0 .71-.38 1.29-.86 1.29s-.86-.58-.86-1.29c0-.72.38-1.29.86-1.29" fill="#fff"/><path d="M29.42 18.44s.86 1.72.86 4.51-.86 4.51-.86 4.51v-9.02zM28.99 15.93s-.86-1.72-.86-4.51.86-4.51.86-4.51v9.02zM28.99 18.44s-.86 1.72-.86 4.51.86 4.51.86 4.51v-9.02zM29.42 15.93s.86-1.72.86-4.51-.86-4.51-.86-4.51v9.02z" fill="#fff"/></svg>