<svg xmlns="http://www.w3.org/2000/svg" viewBox="0 0 58.92 34.37"><path fill="#1a0095" d="M0 0h58.92v34.37H0z"/><path fill="#ba0019" d="M0 8.59h58.92v17.19H0z"/><path fill="#fff" d="M18.54 17.16h21.85v3.53H18.54z"/><path d="M40.43 20.73h-21.9l-.04-3.58 21.9-.04.04 3.62zm-.08-3.58l-21.81.05.04 3.49 21.76-.04v-3.5z" fill="#ba0019"/><path fill="#fff" d="M18.52 20.69l-.35.83h22.59l-.36-.83z"/><path d="M40.82 21.56H18.1l.38-.89 21.92-.03.42.92zm-22.59-.08h22.46l-.33-.77-21.84.03-.29.74z" fill="#ba0019"/><path fill="#fff" d="M35.78 20.69l-.42.83h5.13l-.43-.83z"/><path d="M40.57 21.56h-5.28l.46-.9 4.32-.02.5.92zm-5.14-.08h5l-.39-.77-4.24.02-.37.75z" fill="#ba0019"/><path fill="#fff" d="M37.02 20.69l-.21.83h2.58l-.21-.83z"/><path d="M39.45 21.56h-2.64l.17-.89 2.2-.03.27.92zm-.31-.86l-2.11.03-.17.8 2.49-.05-.21-.78z" fill="#ba0019"/><path fill="#fff" d="M37.4 20.69l-.13.83h1.67l-.14-.83z"/><path d="M38.99 21.56h-1.72l.1-.88 1.44-.04.18.92zm-.23-.87l-1.35.04-.1.8 1.58-.05-.13-.79z" fill="#ba0019"/><path fill="#fff" d="M27.21 20.69l-.45.83h5.4l-.45-.83z"/><path d="M32.24 21.56h-5.55l.48-.9 4.54-.02.53.92zm-5.41-.08h5.26l-.42-.77-4.46.02-.38.75z" fill="#ba0019"/><path fill="#fff" d="M18.42 17.1h22.1v.83h-22.1z"/><path d="M40.55 17.98H18.41l-.04-.88 22.14-.04.04.92zm-.08-.88l-22.05.04.04.79 22.01-.04v-.79z" fill="#ba0019"/><path fill="#fff" d="M35.75 17.16h4.33v3.52h-4.33z"/><path d="M40.13 20.73h-4.38l-.04-3.56 4.37-.04.05 3.6zm-.09-3.57l-4.29.04.04 3.48 4.24-.04v-3.48z" fill="#ba0019"/><path fill="#fff" d="M38.85 18.81h.43v1.87h-.43z"/><path d="M39.33 20.73h-.48l-.04-1.91.48-.04.04 1.95zm-.09-1.92l-.39.04.04 1.83.35-.04v-1.83z" fill="#ba0019"/><path fill="#fff" d="M36.94 18.81h.43v1.87h-.43z"/><path d="M37.42 20.73h-.48l-.04-1.91.48-.04.04 1.95zm-.09-1.92l-.39.04.04 1.83.35-.04v-1.83z" fill="#ba0019"/><path fill="#fff" d="M28.32 20.69l-.23.83h2.71l-.22-.83z"/><path d="M30.86 21.56h-2.77l.18-.89 2.3-.03.29.92zm-.32-.86l-2.22.03-.18.8 2.62-.05-.22-.78z" fill="#ba0019"/><path fill="#fff" d="M28.75 20.69l-.14.83h1.7l-.14-.83z"/><path d="M30.37 21.56h-1.75l.1-.88 1.46-.04.19.92zm-.24-.86l-1.38.04-.1.8 1.61-.05-.13-.79z" fill="#ba0019"/><path fill="#fff" d="M27.16 17.16h4.56v3.53h-4.56z"/><path d="M31.77 20.73h-4.61l-.04-3.58 4.61-.04.04 3.62zm-.09-3.58l-4.52.04.04 3.49 4.48-.04v-3.49z" fill="#ba0019"/><path fill="#fff" d="M30.79 18.81h.43v1.87h-.43z"/><path d="M31.27 20.72h-.48l-.04-1.91.48-.04.04 1.95zm-.09-1.91l-.39.04.04 1.83.35-.04v-1.83z" fill="#ba0019"/><path fill="#fff" d="M27.78 18.81h.43v1.87h-.43z"/><path d="M28.26 20.72h-.48l-.04-1.91.48-.04.04 1.95zm-.09-1.91l-.39.04.04 1.83.35-.04v-1.83z" fill="#ba0019"/><path fill="#fff" d="M28.36 16.3h2.21v4.39h-2.21z"/><path d="M30.61 20.73h-2.25l-.04-4.43 2.25-.04.04 4.47zm-.09-4.43l-2.17.04.04 4.34 2.12-.04V16.3z" fill="#ba0019"/><path fill="#fff" d="M30.02 18.81h.43v1.87h-.43z"/><path d="M30.49 20.72h-.48l-.04-1.91.48-.04.04 1.95zm-.09-1.91l-.39.04.04 1.83.35-.04v-1.83z" fill="#ba0019"/><path fill="#fff" d="M28.56 18.81h.43v1.87h-.43z"/><path d="M29.04 20.72h-.48l-.04-1.91.48-.04.04 1.95zm-.09-1.91l-.39.04.04 1.83.35-.04v-1.83z" fill="#ba0019"/><path fill="#fff" d="M28.5 17l.94 1.35.98-1.35z"/><path d="M29.44 18.43l-1.01-1.47h2.09l-1.08 1.47zm-.86-1.38l.85 1.23.9-1.23h-1.75z" fill="#ba0019"/><path fill="#fff" d="M37.47 17.16h1.23v4.36h-1.23z"/><path d="M38.74 21.56h-1.27l-.04-4.41 1.27-.04.04 4.45zm-.09-4.41l-1.18.04.04 4.32 1.14-.04v-4.32z" fill="#ba0019"/><path fill="#fff" d="M37.67 17.16h.82v4.36h-.82z"/><path d="M38.53 21.56h-.86l-.04-4.41.86-.04.04 4.45zm-.08-4.41l-.77.04.04 4.32.73-.04v-4.32z" fill="#ba0019"/><path fill="#fff" d="M18.82 20.69l-.43.83h5.14l-.43-.83z"/><path d="M23.6 21.56h-5.28l.46-.9 4.32-.02.5.92zm-5.14-.08h5l-.39-.77-4.24.02-.37.75z" fill="#ba0019"/><path fill="#fff" d="M19.84 20.69l-.2.83h2.42l-.2-.83z"/><path d="M22.11 21.56h-2.47l.16-.89 2.05-.03.26.92zm-.3-.86l-1.97.03-.16.8 2.32-.05-.19-.78z" fill="#ba0019"/><path fill="#fff" d="M20.2 20.69l-.13.83h1.55l-.13-.83z"/><path d="M21.67 21.56h-1.59l.09-.88 1.33-.04.17.92zm-.23-.87l-1.24.04-.09.8 1.45-.05-.12-.79z" fill="#ba0019"/><path fill="#fff" d="M18.78 17.16h4.3v3.53h-4.3z"/><path d="M23.12 20.73h-4.34l-.04-3.58 4.34-.04.04 3.62zm-.08-3.58l-4.25.04.04 3.49 4.21-.04v-3.49z" fill="#ba0019"/><path fill="#fff" d="M19.62 18.81h.43v1.87h-.43z"/><path d="M20.1 20.73h-.48l-.04-1.91.48-.04.04 1.95zm-.09-1.92l-.39.04.04 1.83.35-.04v-1.83z" fill="#ba0019"/><path fill="#fff" d="M21.61 18.81h.43v1.87h-.43z"/><path d="M22.09 20.73h-.48l-.04-1.91.48-.04.04 1.95zM22 18.81l-.39.04.04 1.83.35-.04v-1.83z" fill="#ba0019"/><path fill="#fff" d="M20.26 17.16h1.23v4.36h-1.23z"/><path d="M21.53 21.56h-1.27l-.04-4.41 1.27-.04.04 4.45zm-.09-4.41l-1.18.04.04 4.32 1.14-.04v-4.32z" fill="#ba0019"/><path fill="#fff" d="M20.46 17.16h.82v4.36h-.82z"/><path d="M21.32 21.56h-.86l-.04-4.41.86-.04.04 4.45zm-.09-4.41l-.77.04.04 4.32.73-.04v-4.32z" fill="#ba0019"/><path fill="#fff" d="M18.17 16.32h22.59v.83H18.17z"/><path d="M40.8 17.2H18.17l-.04-.88 22.63-.04.04.92zm-.09-.88l-22.54.04.04.79 22.5-.04v-.79z" fill="#ba0019"/><path fill="#fff" d="M17.54 21.31h23.75v1.07H17.54z"/><path d="M41.34 22.42h-23.8l-.04-1.11 23.8-.04.04 1.15zm-.09-1.11l-23.71.04.04 1.03 23.67-.04v-1.03z" fill="#ba0019"/><path fill="#fff" d="M17.18 21.54h24.48v1.07H17.18z"/><path d="M41.7 22.65H17.18l-.04-1.11 24.52-.04.04 1.15zm-.09-1.11l-24.43.04.04 1.03 24.39-.04v-1.03z" fill="#ba0019"/><path fill="#fff" d="M16.55 22.15h25.84v1.07H16.55z"/><path d="M42.43 23.26H16.55l-.04-1.11 25.88-.04.04 1.15zm-.09-1.11l-25.79.04.04 1.03 25.75-.04v-1.03z" fill="#ba0019"/><path fill="#fff" d="M15.64 22.92h27.65v1.07H15.64z"/><path d="M43.33 24.03H15.64l-.04-1.11 27.69-.04.04 1.15zm-.09-1.12l-27.6.04.04 1.03 27.56-.04v-1.03z" fill="#ba0019"/><path fill="#fff" d="M14.74 23.99h29.45v1.06H14.74z"/><path d="M44.23 25.09H14.74l-.04-1.1 29.49-.04.04 1.14zm-.09-1.1l-29.41.04.04 1.01L44.14 25v-1.01z" fill="#ba0019"/><path fill="#fff" d="M20.26 21.31h1.23v3.74h-1.23z"/><path d="M21.53 25.1h-1.27l-.04-3.78 1.27-.04.04 3.82zm-.09-3.79l-1.18.04.04 3.7 1.14-.04v-3.7z" fill="#ba0019"/><path fill="#fff" d="M20.46 21.31h.82v3.74h-.82z"/><path d="M21.32 25.1h-.86l-.04-3.78.86-.04.04 3.82zm-.08-3.79l-.78.04.04 3.7.73-.04v-3.7z" fill="#ba0019"/><path fill="#fff" d="M37.44 21.31h1.23v3.74h-1.23z"/><path d="M38.71 25.1h-1.27l-.04-3.78 1.27-.04.04 3.82zm-.08-3.79l-1.18.04.04 3.7 1.14-.04v-3.7z" fill="#ba0019"/><path fill="#fff" d="M37.65 21.31h.82v3.74h-.82z"/><path d="M38.51 25.1h-.86l-.04-3.78.86-.04.04 3.82zm-.09-3.79l-.78.04.04 3.7.73-.04v-3.7z" fill="#ba0019"/><path fill="#fff" d="M29.01 17.15H30v7.9h-.99z"/><path d="M30.04 25.09h-1.03l-.04-7.94 1.03-.04.04 7.98zm-.09-7.94l-.94.04.04 7.85.9-.04v-7.85z" fill="#ba0019"/><path d="M36.03 17.19l.01-2.16s.22.42 1.93.52c1.62-.05 1.89-.32 1.96-.54l-.07 2.2-3.83-.02z" fill="#fff"/><path d="M39.91 17.24l-3.88-.01-.03-2.2v-.16l.08.13s.25.4 1.89.49c1.57-.05 1.85-.3 1.92-.51l.09.02-.07 2.24zm-3.82-2.11l-.01 2.06 3.75-.03.06-1.98c-.18.2-.63.37-1.91.41-1.26-.07-1.73-.32-1.89-.46" fill="#ba0019"/><path d="M37.14 14.65l-.53-.42c.18-.11.51.08.51.08s.17-.49.93-.69c.76.2.93.69.93.69s.33-.19.5-.08l-.53.42h-1.81z" fill="#fff"/><path d="M38.97 14.7h-1.83l-.56-.44c.05-.1.1-.11.16-.11.16 0 .35.1.38.11-.03-.05.18-.5.91-.69.72.19.94.6.98.7.02-.06.34-.18.49-.08l-.53.51zm-2.23-.46a.18.18 0 0 0-.11.03l.53.35 1.77-.01.47-.37h-.06c-.16 0-.35.11-.35.11-.06-.03-.24-.49-.97-.69-.7.2-.88.66-.88.67-.06.01-.24-.09-.4-.09" fill="#ba0019"/><path d="M36.86 15.76l-.69-.6c.23-.15.65.11.65.11s.23-.68 1.21-.97c.98.29 1.21.97 1.21.97s.43-.27.65-.11l-.69.6h-2.34z" fill="#fff"/><path d="M39.24 15.8h-2.38l-.72-.61c.06-.11.13-.12.21-.12.22 0 .46.14.5.16-.03-.05.22-.69 1.18-.97.94.27 1.22.87 1.26.98.02-.07.45-.25.64-.12l-.69.68zm-2.89-.64c-.06 0-.11.01-.15.04l.69.53 2.32-.01.66-.57c-.04.02-.08.01-.13.01-.21 0-.45.15-.45.15-.07-.03-.3-.69-1.25-.96-.92.28-1.16.94-1.16.94-.08.02-.32-.13-.53-.13" fill="#ba0019"/><path d="M38.05 11.33c.02 0 .82 1.43 0 1.46-.82.02 0-1.41 0-1.46" fill="#fff"/><path d="M38.04 12.83c-.16 0-.27-.05-.33-.15-.2-.31.14-1.01.27-1.27.02-.04.03-.07.04-.08.01 0 .03 0 .04.01h.04c0 .01 0 .02-.01.03.15.16.38.7.38 1.02 0 .29-.14.44-.41.45h-.02zm.02-1.4c0 .01-.01.01-.01.02-.11.23-.44.92-.27 1.19.05.08.13.11.26.11v.04l.02-.04c.15 0 .25-.06.29-.16.13-.31-.17-.96-.29-1.16" fill="#ba0019"/><path d="M37.36 13.15l-.41-.22c.14-.06.39.04.39.04s.14-.26.72-.36c.58.11.72.36.72.36s.25-.1.39-.04l-.41.22h-1.4z" fill="#fff"/><path d="M38.77 13.2h-1.41l-.51-.27.08-.04c.12-.05.37.02.41.04-.02-.03.15-.26.7-.36.54.1.72.32.76.37.01-.04.26-.09.38-.05l.08.04-.49.27zm-1.68-.24l.29.16 1.36-.01.28-.15c-.11.01-.23.06-.24.06-.05-.02-.19-.26-.74-.36-.53.1-.67.34-.67.34-.04.01-.17-.04-.28-.04" fill="#ba0019"/><path d="M37.7 13.34l-.01-.18s.07-.26.37-.36c.3.11.37.36.37.36l-.01.18h-.72z" fill="#fff"/><path d="M38.46 13.38h-.76l-.05-.22c0-.03.08-.29.4-.41.35.11.42.38.42.39l-.01.24zm-.42-.55c-.24.1-.31.33-.31.33l.01.17.63-.04.01-.14s-.07-.22-.34-.32" fill="#ba0019"/><path d="M37.34 13.88l-.02-.24s.14-.34.74-.48c.6.14.74.48.74.48l-.02.24h-1.44z" fill="#fff"/><path d="M38.81 13.92h-1.47l-.06-.28c.01-.03.16-.38.77-.53.63.15.78.5.79.51l-.03.3zm-.76-.72c-.55.14-.69.46-.69.46l.02.22 1.35-.04.02-.2c-.01 0-.15-.31-.7-.44" fill="#ba0019"/><path d="M37.34 14.24l-.02-.24s.14-.34.74-.49c.6.14.74.49.74.49l-.02.24h-1.44z" fill="#fff"/><path d="M38.81 14.29h-1.47l-.06-.28c.01-.04.16-.38.77-.53.63.15.78.5.79.51l-.03.3zm-.76-.73c-.55.14-.69.46-.69.46l.02.22 1.35-.04.02-.2c-.01 0-.15-.31-.7-.44" fill="#ba0019"/><path d="M37.36 15.34l-.41-.6c.14-.15.39.11.39.11s.14-.68.72-.97c.58.29.72.97.72.97s.25-.27.39-.11l-.41.6h-1.4z" fill="#fff"/><path d="M38.78 15.38h-1.42l-.44-.61c.11-.26.3-.07.4.01.05-.19.23-.69.72-.93.52.24.71.74.76.93.1-.08.3-.17.4-.06l-.42.66zm-1.72-.64a.09.09 0 0 0-.07.03l.41.54 1.34-.02.39-.57c-.02.02-.04.01-.06.01-.09 0-.21.1-.25.15l-.06.06-.02-.08c0-.01-.14-.67-.7-.94-.52.27-.65.93-.65.94l-.01.08-.06-.06c-.05-.04-.17-.14-.26-.14" fill="#ba0019"/><path d="M37.36 16.06l-.41-.59c.14-.15.39.11.39.11s.14-.68.72-.97c.58.29.72.97.72.97s.25-.27.39-.11l-.41.59h-1.4z" fill="#fff"/><path d="M38.78 16.11h-1.42l-.44-.61c.11-.26.31-.07.4.01.05-.19.23-.69.72-.93.52.24.71.74.76.93.1-.08.3-.17.4-.06l-.42.66zm-1.72-.65a.09.09 0 0 0-.07.03l.41.54 1.34-.02.39-.57c-.02.02-.04.01-.07.01-.09 0-.21.1-.25.15l-.06.06-.02-.08c0-.01-.14-.67-.7-.94-.52.27-.65.93-.65.94l-.01.08-.06-.06c-.04-.03-.16-.14-.25-.14" fill="#ba0019"/><path d="M37.34 17.15l-.02-.6s.14-.85.74-1.21c.6.36.74 1.21.74 1.21l-.02.6h-1.44z" fill="#fff"/><path d="M38.81 17.2h-1.48l-.06-.65c.01-.04.15-.89.76-1.25.65.36.79 1.21.8 1.24l-.02.66zm-.78-1.83c-.53.34-.67 1.17-.67 1.18l.02.6 1.35-.04.02-.56s-.14-.83-.72-1.18" fill="#ba0019"/><path d="M37.36 17.15l-.41-.45c.14-.12.39.08.39.08s.14-.51.72-.73c.58.21.72.73.72.73s.25-.2.39-.08l-.41.45h-1.4z" fill="#fff"/><path d="M38.77 17.2h-1.41l-.44-.46c.04-.09.09-.11.14-.11.1 0 .2.06.26.09.05-.15.24-.52.73-.7.51.18.7.56.76.7.09-.06.29-.14.39-.05l-.43.53zm-1.71-.48c-.03 0-.06.01-.08.03l.41.39 1.34-.01.36-.4h-.04c-.1 0-.22.08-.26.11l-.05.04-.02-.06c0-.01-.14-.49-.69-.7-.52.2-.66.69-.66.7l-.02.06-.05-.04c.01-.02-.13-.12-.24-.12" fill="#ba0019"/><path d="M19.97 14.5l-.53-.42c.18-.11.5.08.5.08s.18-.49.93-.69c.76.2.93.69.93.69s.33-.19.5-.08l-.53.42h-1.8z" fill="#fff"/><path d="M21.81 14.54h-1.83l-.56-.44c.05-.1.1-.11.16-.11.16 0 .35.09.38.11-.03-.05.18-.49.91-.69.72.19.94.6.98.7.02-.06.34-.17.49-.08l-.53.51zm-2.23-.46a.18.18 0 0 0-.11.03l.53.36 1.77-.01.47-.37h-.06c-.16 0-.34.11-.35.11-.06-.03-.24-.49-.97-.69-.7.19-.88.66-.88.67-.06.01-.24-.1-.4-.1" fill="#ba0019"/><path d="M19.7 15.6l-.69-.59c.23-.15.65.11.65.11s.23-.68 1.21-.97c.98.29 1.21.97 1.21.97s.43-.26.65-.11l-.69.59H19.7z" fill="#fff"/><path d="M22.08 15.65H19.7l-.72-.61c.06-.1.13-.12.21-.12.22 0 .46.14.5.16-.03-.05.22-.69 1.18-.97.94.27 1.22.87 1.26.98.02-.07.45-.24.64-.11l-.69.67zM19.19 15c-.06 0-.11.01-.15.04l.69.53 2.32-.01.66-.57c-.04.02-.09.01-.14.01-.21 0-.45.15-.45.15-.07-.03-.3-.69-1.25-.96-.93.28-1.16.94-1.16.94-.06.03-.31-.13-.52-.13" fill="#ba0019"/><path d="M19.02 17.19l.01-2.16s.22.42 1.93.52c1.62-.05 1.89-.32 1.96-.54l-.07 2.2-3.83-.02z" fill="#fff"/><path d="M22.89 17.24l-3.88-.01-.03-2.21v-.16l.09.14s.25.4 1.89.49c1.57-.05 1.85-.3 1.92-.51l.08.02-.07 2.24zm-3.82-2.11l-.01 2.06 3.75-.03.06-1.98c-.18.2-.63.37-1.91.41-1.26-.07-1.73-.32-1.89-.46" fill="#ba0019"/><path d="M20.87 11.33c.02 0 .82 1.43 0 1.46-.83.02 0-1.41 0-1.46" fill="#fff"/><path d="M20.85 12.83c-.16 0-.27-.05-.33-.15-.2-.31.14-1.01.27-1.27.02-.04.03-.07.04-.08.01 0 .03 0 .04.01h.04c0 .01 0 .02-.01.03.15.16.38.7.38 1.02 0 .29-.14.44-.41.45h-.02zm.02-1.4c0 .01-.01.01-.01.02-.11.23-.44.92-.27 1.19.05.08.13.11.26.11v.04l.02-.04c.15 0 .25-.06.29-.16.14-.31-.17-.96-.29-1.16" fill="#ba0019"/><path d="M20.17 13.15l-.41-.22c.14-.06.39.04.39.04s.14-.26.72-.36c.58.11.72.36.72.36s.25-.1.39-.04l-.41.22h-1.4z" fill="#fff"/><path d="M21.58 13.2h-1.41l-.51-.27.08-.04c.12-.05.37.02.41.04-.01-.03.15-.26.7-.36.54.1.72.32.76.37.01-.04.26-.09.37-.05l.08.04-.48.27zm-1.68-.24l.29.16 1.36-.01.28-.15c-.11.01-.23.06-.24.06-.05-.02-.19-.26-.74-.36-.53.1-.67.34-.67.34-.04.01-.16-.04-.28-.04" fill="#ba0019"/><path d="M20.51 13.34l-.01-.18s.07-.26.37-.36c.3.11.37.36.37.36l-.01.18h-.72z" fill="#fff"/><path d="M21.27 13.38h-.76l-.05-.22c0-.03.08-.29.4-.41.35.11.42.38.42.39l-.01.24zm-.41-.55c-.24.1-.31.33-.31.33l.01.17.63-.04.01-.14c-.01 0-.07-.22-.34-.32" fill="#ba0019"/><path d="M20.15 13.88l-.02-.24s.14-.34.74-.48c.6.14.74.48.74.48l-.02.24h-1.44z" fill="#fff"/><path d="M21.63 13.92h-1.47l-.06-.28c.01-.03.16-.38.77-.53.63.15.78.5.79.51l-.03.3zm-.77-.72c-.55.14-.69.46-.69.46l.02.22 1.35-.04.02-.2s-.15-.31-.7-.44" fill="#ba0019"/><path d="M20.15 14.24l-.02-.24s.14-.34.74-.49c.6.14.74.49.74.49l-.02.24h-1.44z" fill="#fff"/><path d="M21.63 14.29h-1.47l-.06-.28c.01-.04.16-.38.77-.53.63.15.78.5.79.51l-.03.3zm-.77-.73c-.55.14-.69.46-.69.46l.02.22 1.35-.04.02-.2s-.15-.31-.7-.44" fill="#ba0019"/><path d="M20.17 15.34l-.41-.6c.14-.15.39.11.39.11s.14-.68.72-.97c.58.29.72.97.72.97s.25-.27.39-.11l-.41.6h-1.4z" fill="#fff"/><path d="M21.59 15.38h-1.42l-.44-.61c.11-.26.3-.07.4.01.05-.19.23-.69.72-.93.52.24.71.74.76.93.09-.08.29-.17.4-.06l-.42.66zm-1.72-.64a.09.09 0 0 0-.07.03l.41.54 1.34-.02.39-.57c-.02.02-.04.01-.06.01-.09 0-.21.1-.25.15l-.06.06-.01-.08c0-.01-.14-.67-.7-.94-.52.27-.65.93-.66.94l-.01.08-.06-.06c-.05-.04-.17-.14-.26-.14" fill="#ba0019"/><path d="M20.17 16.06l-.41-.59c.14-.15.39.11.39.11s.14-.68.72-.97c.58.29.72.97.72.97s.25-.27.39-.11l-.41.59h-1.4z" fill="#fff"/><path d="M21.59 16.11h-1.42l-.44-.61c.11-.26.31-.07.4.01.05-.19.23-.69.72-.93.52.24.71.74.76.93.09-.08.29-.17.4-.06l-.42.66zm-1.72-.65a.09.09 0 0 0-.07.03l.41.54 1.34-.02.39-.57c-.02.02-.04.01-.06.01-.09 0-.21.1-.25.15l-.06.06-.01-.08c0-.01-.14-.67-.7-.94-.52.27-.65.93-.66.94l-.01.08-.06-.06c-.05-.03-.17-.14-.26-.14" fill="#ba0019"/><path d="M20.15 17.15l-.02-.6s.14-.85.74-1.21c.6.36.74 1.21.74 1.21l-.02.6h-1.44z" fill="#fff"/><path d="M21.63 17.2h-1.47l-.07-.65c.01-.04.15-.89.76-1.25.65.36.79 1.21.8 1.24l-.02.66zm-.78-1.83c-.53.34-.67 1.17-.67 1.18l.02.6 1.35-.04.02-.56c-.01 0-.15-.83-.72-1.18" fill="#ba0019"/><path d="M20.17 17.15l-.41-.45c.14-.12.39.08.39.08s.14-.51.72-.73c.58.21.72.73.72.73s.25-.2.39-.08l-.41.45h-1.4z" fill="#fff"/><path d="M21.59 17.2h-1.42l-.44-.46c.04-.09.09-.11.14-.11.1 0 .2.06.26.09.05-.15.24-.52.72-.7.51.18.7.56.76.7.09-.06.29-.14.39-.05l-.41.53zm-1.72-.48c-.03 0-.06.01-.08.03l.41.39 1.35-.01.36-.4h-.04c-.11 0-.25.11-.26.11l-.05.04-.02-.06c0-.01-.14-.49-.69-.7-.52.2-.66.69-.66.7l-.02.06-.05-.04c0-.02-.14-.12-.25-.12" fill="#ba0019"/><path d="M26.96 16.18h5c.25 0 .45.2.45.45s-.2.45-.45.45h-5c-.25 0-.45-.2-.45-.45.01-.25.21-.45.45-.45" fill="#fff"/><path d="M31.96 17.12h-5a.49.49 0 0 1 0-.98h5a.49.49 0 0 1 0 .98m-5-.9c-.22 0-.4.18-.4.4 0 .22.18.4.4.4h5c.22 0 .4-.18.4-.4 0-.22-.18-.4-.4-.4h-5z" fill="#ba0019"/><path d="M32.49 16.7l.04-2.95s-.11.72-.45.72h-5.23c-.34 0-.45-.72-.45-.72l.04 2.95h6.05z" fill="#fff"/><path d="M32.54 16.75h-6.11l-.08-2.99.09-.01c.03.19.16.69.41.69h5.23c.25 0 .38-.5.41-.69l.09.01-.04 2.99zm-6.1-2.64l.03 2.6 5.98-.04.03-2.56c-.07.2-.2.42-.41.42h-5.23c-.2 0-.32-.22-.4-.42" fill="#ba0019"/><path d="M31.34 15.37l.01-.96s.65-.18.56-.43c-.09-.25-.88.32-.88.32h-3.14s-.79-.57-.88-.32c-.09.25.56.43.56.43l.01.96h3.76z" fill="#fff"/><path d="M31.38 15.41h-3.79l-.06-1c-.01.03-.44-.09-.55-.29a.16.16 0 0 1-.01-.15c.01-.03.05-.09.15-.09.25 0 .77.37.79.39l3.11-.01c0-.01.52-.38.77-.38.1 0 .14.06.15.09.02.05.02.1-.01.15-.1.2-.56.33-.58.33l.02.92.01.04zm-4.25-1.45c-.05 0-.06.02-.07.04-.01.03-.01.06.01.08.07.14.4.25.53.29l.04 1 3.66-.04.01-.92c.15-.07.48-.19.56-.33.01-.03.02-.06.01-.08-.01-.02-.02-.04-.07-.04-.18 0-.6.27-.74.38l-3.17.01c-.18-.12-.59-.39-.77-.39" fill="#ba0019"/><path d="M31.71 16.2l.01-1.02s.78-.12.67-.37c-.11-.25-1.05.32-1.05.32h-3.77s-.94-.57-1.05-.32c-.11.25.67.37.67.37l.01 1.02h4.51z" fill="#fff"/><path d="M31.75 16.24h-4.54l-.06-1.06c-.02.03-.56-.05-.66-.25a.17.17 0 0 1-.01-.14c.02-.04.06-.09.17-.09.3 0 .92.37.94.39l3.75-.01c0-.01.62-.38.92-.38.11 0 .15.05.17.09.02.05.02.1-.01.14-.11.19-.64.28-.7.29l.02.98.01.04zm-5.09-1.45c-.07 0-.09.03-.09.04.08.2.49.29.64.31l.05 1.06 4.41-.04.01-.98c.19-.07.6-.16.68-.29 0-.34-.98.27-.99.27l-3.79.01c-.03-.01-.65-.38-.92-.38" fill="#ba0019"/><path d="M30.01 11v-.4c-.46 0-.35-.44-.35-.61.14-.17.17-.5-.2-.67-.37.19-.34.5-.2.66 0 .19.15.62-.35.62v.4h1.1z" fill="#fff"/><path d="M30.05 11.05h-1.14l-.05-.45c.17-.04.26-.07.31-.13.08-.09.07-.25.05-.38-.01-.04-.01-.08-.01-.11a.397.397 0 0 1-.09-.33c.02-.1.09-.25.31-.37.25.1.33.24.35.34.03.13-.01.28-.09.4 0 0 .01.03 0 .06-.01.13-.02.3.07.39.05.05.13.08.24.08l.04.45.01.05zm-.6-1.69c-.11.08-.21.18-.23.31-.02.1.01.2.08.28.01.06.02.09.02.13.02.14.04.32-.07.45-.07.08-.18.12-.33.12l.03.35 1.01-.04v-.37c-.09.04-.19.01-.26-.06-.11-.13-.1-.33-.09-.46l.01-.09c.07-.1.12-.22.09-.35-.03-.11-.12-.2-.26-.27" fill="#ba0019"/><path d="M30.79 13.65l.01-.78s.46-.16.4-.36-.62.26-.62.26h-2.23s-.56-.47-.62-.26c-.06.21.4.36.4.36l.01.78h2.65z" fill="#fff"/><path d="M30.83 13.69h-2.7l-.05-.82c-.02.02-.47-.14-.4-.37a.12.12 0 0 1 .12-.08c.18 0 .53.29.57.32l2.2-.01c.01-.02.36-.31.54-.31.06 0 .1.03.12.08.07.24-.37.4-.43.41l.02.74v.04zm-3.02-1.19c-.08.16.23.29.34.33l.04.82 2.57-.04.01-.73c.14-.08.44-.21.4-.35-.16-.04-.45.2-.55.28l-2.25.01c-.15-.1-.44-.32-.56-.32" fill="#ba0019"/><path d="M31.05 14.33l.01-.83s.55-.1.48-.3c-.08-.21-.74.26-.74.26h-2.67s-.67-.47-.74-.26c-.08.21.48.3.48.3l.01.83h3.17z" fill="#fff"/><path d="M31.1 14.37h-3.23l-.05-.88c-.01.03-.38-.04-.46-.19-.02-.04-.03-.09-.01-.13.01-.03.04-.08.13-.08.22 0 .66.31.68.32l2.65-.01c-.01-.01.44-.31.65-.31.09 0 .12.05.13.08.02.04.01.09-.01.13-.09.16-.46.23-.5.23l.02.79v.05zm-3.62-1.19l-.05.08c.05.09.3.17.44.19l.05.88 3.1-.04.01-.79c.14-.06.42-.13.48-.23l-.05-.08c-.16 0-.51.22-.63.31l-2.7.01c-.15-.11-.5-.33-.65-.33" fill="#ba0019"/><path d="M30.32 12.41v-.51s.3-.12.26-.26c-.04-.14-.4.18-.4.18h-1.44s-.36-.32-.4-.18c-.04.14.26.26.26.26l.01.51h1.71z" fill="#fff"/><path d="M30.36 12.46H28.6l-.05-.55c-.01.02-.31-.1-.26-.28l.01-.03.08-.04c.12 0 .34.19.38.22l1.41-.01c.01-.03.23-.21.35-.21h.03l.06.07c.05.17-.25.3-.28.32l.02.47.01.04zm-1.97-.81c-.03.08.14.18.22.22l.03.55 1.63-.04v-.47c.11-.07.28-.17.26-.25-.04.01-.24.11-.33.2l-1.47.01c-.11-.11-.27-.22-.34-.22" fill="#ba0019"/><path d="M30.49 12.87l.01-.51s.36-.12.31-.26c-.05-.14-.48.18-.48.18H28.6s-.43-.32-.48-.18c-.05.14.31.26.31.26l.01.51h2.05z" fill="#fff"/><path d="M30.54 12.92h-2.1l-.05-.55c0 .03-.24-.06-.3-.18l-.01-.02v-.08c.01-.02.03-.06.1-.06.14 0 .42.2.45.22l1.7-.01c.01-.01.28-.21.42-.21h.03l.07.06c.01.03.01.07-.01.1-.06.12-.3.21-.33.22l.02.47v.04zm-2.36-.81c.02.11.17.19.26.22l.04.55 1.97-.04.01-.47c.12-.07.28-.15.31-.22-.1-.04-.3.09-.41.16l-1.75.01c-.15-.09-.35-.21-.43-.21" fill="#ba0019"/><path d="M30.07 11.51v-.46s.21-.11.18-.23c-.03-.12-.29.14-.29.14h-1.02s-.26-.26-.28-.14c-.03.11.18.23.18.23v.4l1.23.06z" fill="#fff"/><path d="M30.11 11.56l-1.26-.06-.04-.45c0 .02-.22-.1-.18-.24l.01-.03.07-.03c.09 0 .24.14.28.19l.99-.01c.01-.03.16-.17.25-.17h.03l.04.06c.04.14-.18.26-.2.27l.02.43v.04zm-1.41-.72c-.01.06.11.14.17.17l.03.44 1.13.02v-.42c.08-.07.2-.15.18-.22-.03 0-.14.09-.21.16l-1.05.01c-.1-.08-.21-.16-.25-.16" fill="#ba0019"/><path d="M30.19 11.83v-.41s.25-.11.22-.23c-.04-.11-.34.15-.34.15h-1.22s-.3-.26-.34-.15c-.04.11.22.23.22.23l.01.41h1.45z" fill="#fff"/><path d="M30.23 11.88h-1.5l-.05-.45c-.02.01-.26-.1-.22-.24l.01-.03.07-.03c.1 0 .29.15.33.18l1.2-.01c.01-.02.2-.17.3-.17h.03l.05.06c.04.14-.19.26-.24.28l.02.37v.04zm-1.68-.66c-.02.05.1.13.19.17l.03.44 1.37-.04v-.36c.12-.08.24-.16.22-.21-.05 0-.19.1-.27.17l-1.25.01c-.1-.09-.23-.18-.29-.18" fill="#ba0019"/><path d="M29.08 11.86l-.23-.25c.08-.07.21.05.21.05s.08-.29.4-.42c.32.12.4.42.4.42s.14-.11.21-.05l-.23.25h-.76z" fill="#fff"/><path d="M29.87 11.9h-.79l-.32-.34.15-.02c.05 0 .1.02.13.04.04-.1.15-.29.4-.39.28.1.39.29.44.39.04-.02.09-.04.14-.04l.09.03-.24.33zm-.96-.28l.2.2.72-.02.21-.24c-.07.05-.14.09-.16.11l-.05.04-.02-.07a.64.64 0 0 0-.37-.39c-.27.11-.34.38-.34.39l-.02.07-.05-.04a.27.27 0 0 0-.12-.05" fill="#ba0019"/><path d="M28.92 12.27l-.32-.25c.1-.07.3.05.3.05s.11-.29.56-.42c.45.12.56.42.56.42s.2-.11.3-.05l-.32.25h-1.08z" fill="#fff"/><path d="M30.02 12.31h-1.1l-.34-.27c.03-.09.07-.1.11-.1.09 0 .2.05.23.07-.02-.04.12-.3.54-.41.41.11.56.34.6.42.02-.05.21-.1.29-.04l-.33.33zm-1.32-.27l.24.2 1.04-.01.23-.19c-.08.01-.18.06-.18.06-.07-.03-.17-.3-.59-.41-.4.12-.5.38-.51.39-.04.02-.14-.03-.23-.04" fill="#ba0019"/><path d="M28.84 13l-.36-.34c.12-.09.34.06.34.06s.12-.39.64-.55c.52.16.64.55.64.55s.22-.15.35-.06l-.37.34h-1.24z" fill="#fff"/><path d="M30.1 13.04h-1.26l-.39-.35c.04-.09.08-.1.12-.1.11 0 .23.07.26.09-.02-.05.13-.4.61-.55.48.15.64.46.68.55.03-.06.24-.13.34-.06l-.36.42zm-1.53-.37c-.03 0-.05.01-.07.02l.37.27 1.19-.01.3-.28c-.08.01-.2.06-.24.08-.07-.03-.19-.39-.67-.55-.46.15-.58.52-.58.53-.07.03-.19-.06-.3-.06" fill="#ba0019"/><path d="M28.69 13.89l-.45-.42c.15-.11.43.08.43.08s.15-.49.8-.69c.65.2.8.69.8.69s.28-.19.43-.08l-.45.42h-1.56z" fill="#fff"/><path d="M30.26 13.93h-1.57l-.48-.44c.04-.09.09-.11.15-.11.14 0 .29.09.33.11-.03-.05.15-.5.77-.69.61.19.8.59.84.69.03-.06.3-.17.42-.07l-.46.51zm-1.91-.45c-.04 0-.07.01-.09.03l.46.36 1.5-.01.4-.37h-.05c-.13 0-.29.1-.29.11-.07-.03-.22-.49-.83-.69-.59.19-.74.66-.74.66-.07.01-.23-.09-.36-.09" fill="#ba0019"/><path fill="#fff" d="M28.58 14.63l.86 1.07.91-1.07z"/><path d="M29.44 15.77l-.95-1.18h1.96l-1.01 1.18zm-.77-1.1l.77.96.82-.96h-1.59z" fill="#ba0019"/><path d="M28.53 14.75l-.54-.47c.18-.12.52.09.52.09s.18-.54.96-.77c.77.23.96.77.96.77s.34-.21.52-.09l-.54.47h-1.88z" fill="#fff"/><path d="M30.41 14.79h-1.88l-.57-.48c.05-.1.1-.11.17-.11.17 0 .35.11.39.13-.03-.05.18-.55.93-.77.74.21.96.67 1 .78.02-.07.35-.19.51-.09l-.55.54zm-2.28-.51c-.05 0-.09.01-.12.03l.55.41 1.82-.01.49-.43c-.02.01-.04 0-.07 0-.16 0-.35.12-.35.12-.07-.03-.25-.55-.99-.77-.72.22-.9.74-.9.74-.08.03-.27-.09-.43-.09" fill="#ba0019"/><path fill="#fff" d="M28.5 15.81l.94 1.34.98-1.34z"/><path d="M29.44 17.23l-1.02-1.47h2.09l-1.07 1.47zm-.85-1.38l.85 1.23.9-1.23h-1.75z" fill="#ba0019"/><path d="M28.46 15.96l-.59-.6c.2-.15.56.11.56.11s.2-.68 1.04-.97c.84.29 1.04.97 1.04.97s.36-.27.56-.11l-.59.6h-2.02z" fill="#fff"/><path d="M30.49 16h-2.03l-.62-.61c.05-.1.11-.12.18-.12.15 0 .31.09.38.14.07-.17.32-.7 1.05-.94.74.25 1 .77 1.07.94.11-.07.41-.2.56-.08l-.59.67zm-2.47-.64c-.05 0-.09.01-.13.04l.59.53 1.97-.01.56-.57c-.03.02-.06.01-.11.01-.17 0-.38.15-.38.15l-.05.04-.02-.06c0-.01-.2-.67-1.01-.94-.78.28-.98.93-.98.94l-.02.06-.05-.04c.01 0-.2-.15-.37-.15" fill="#ba0019"/><path d="M28.46 17.15l-.59-.59c.2-.15.56.11.56.11s.2-.68 1.04-.97c.84.29 1.04.97 1.04.97s.36-.27.56-.11l-.59.59h-2.02z" fill="#fff"/><path d="M30.49 17.2h-2.03l-.62-.61c.05-.1.11-.12.18-.12.15 0 .31.08.38.13.07-.17.32-.7 1.05-.94.74.25 1 .77 1.07.94.11-.07.41-.2.56-.08l-.59.68zm-2.47-.65c-.05 0-.09.01-.13.04l.59.53 1.97-.01.56-.57c-.03.02-.06.01-.11.01-.17 0-.38.15-.38.15l-.05.04-.02-.06c0-.01-.2-.67-1.01-.94-.78.28-.98.93-.98.94l-.02.06-.04-.04s-.21-.15-.38-.15" fill="#ba0019"/><path fill="#fff" d="M23.45 18.81h.43v1.87h-.43z"/><path d="M23.93 20.73h-.48l-.04-1.91.48-.04.04 1.95zm-.08-1.92l-.39.04.04 1.83.35-.04v-1.83z" fill="#ba0019"/><path fill="#fff" d="M24.93 18.81h.43v1.87h-.43z"/><path d="M25.4 20.72h-.48l-.04-1.91.48-.04.04 1.95zm-.08-1.91l-.39.04.04 1.83.35-.04v-1.83z" fill="#ba0019"/><path fill="#fff" d="M24.24 18.81h.43v1.87h-.43z"/><path d="M24.71 20.72h-.48l-.04-1.91.48-.04.04 1.95zm-.09-1.91l-.39.04.04 1.83.35-.04v-1.83z" fill="#ba0019"/><path fill="#fff" d="M32.1 18.81h.43v1.87h-.43z"/><path d="M32.58 20.73h-.48l-.04-1.91.48-.04.04 1.95zm-.09-1.92l-.39.04.04 1.83.35-.04v-1.83z" fill="#ba0019"/><path fill="#fff" d="M35.05 18.81h.43v1.87h-.43z"/><path d="M35.52 20.72h-.48L35 18.81l.48-.04.04 1.95zm-.08-1.91l-.39.04.04 1.83.35-.04v-1.83z" fill="#ba0019"/><path fill="#fff" d="M33.57 18.81H34v1.87h-.43z"/><path d="M34.05 20.72h-.48l-.04-1.91.48-.04.04 1.95zm-.09-1.91l-.39.04.04 1.83.35-.04v-1.83z" fill="#ba0019"/><path fill="#fff" d="M32.88 18.81h.43v1.87h-.43z"/><path d="M33.36 20.72h-.48l-.04-1.91.48-.04.04 1.95zm-.09-1.91l-.39.04.04 1.83.35-.04v-1.83z" fill="#ba0019"/><path fill="#fff" d="M34.27 18.81h.43v1.87h-.43z"/><path d="M34.74 20.72h-.48l-.04-1.91.48-.04.04 1.95zm-.08-1.91l-.39.04.04 1.83.35-.04v-1.83z" fill="#ba0019"/><path fill="#fff" d="M26.4 18.81h.43v1.87h-.43z"/><path d="M26.88 20.73h-.48l-.04-1.91.48-.04.04 1.95zm-.09-1.92l-.39.04.04 1.83.35-.04v-1.83z" fill="#ba0019"/><path fill="#fff" d="M25.62 18.81h.43v1.87h-.43z"/><path d="M26.1 20.72h-.48l-.04-1.91.48-.04.04 1.95zm-.09-1.91l-.39.04.04 1.83.35-.04v-1.83z" fill="#ba0019"/><path fill="#fff" d="M29.01 10.27h.9v.34h-.9z"/><path d="M29.95 10.66h-.94l-.04-.39.94-.04.04.43zm-.08-.39l-.86.04.04.3.81-.04v-.3z" fill="#ba0019"/><path fill="#fff" d="M29.13 9.94h.66v.32h-.66z"/><path d="M29.84 10.31h-.71l-.04-.37.71-.04.04.41zm-.09-.37l-.62.04.04.28.58-.04v-.28z" fill="#ba0019"/></svg>