<svg xmlns="http://www.w3.org/2000/svg" viewBox="0 0 58.92 34.37"><path fill="#f4c533" d="M0 0h58.92v34.37H0z"/><path fill="#fff" d="M0 8.59h58.92v25.78H0z"/><path fill="#bc0030" d="M0 17.19h58.92v17.19H0z"/><path fill="#4d72c0" d="M0 25.78h58.92v8.59H0z"/><path fill="#508e38" d="M0 0v34.37l28.64-17.18z"/><path d="M17.47 17.19c0 4.27-3.46 7.73-7.73 7.74C5.47 24.93 2 21.47 2 17.2v-.01c0-4.27 3.46-7.73 7.73-7.74 4.28 0 7.74 3.46 7.74 7.74z" fill="#fff"/><path d="M20.91 17.19c0 4.27-3.46 7.73-7.73 7.74-4.27 0-7.73-3.46-7.74-7.73v-.01c0-4.27 3.46-7.73 7.73-7.74 4.28 0 7.74 3.46 7.74 7.74z" fill="#508e38"/><path fill="#fff" d="M10.1 22.28h1.04l.32-.99.32.99h1.04l-.84.61.32.99-.84-.61-.84.61.32-.99zM10.1 11.21h1.04l.32-.99.32.99h1.04l-.84.61.32.99-.84-.61-.84.61.32-.99zM10.1 14.9h1.04l.32-.99.32.99h1.04l-.84.61.32.99-.84-.61-.84.61.32-.99zM10.1 18.59h1.04l.32-.99.32.99h1.04l-.84.61.32.99-.84-.61-.84.61.32-.99z"/></svg>