<svg xmlns="http://www.w3.org/2000/svg" viewBox="0 0 58.92 34.37"><path fill="#419e4b" d="M0 0v26.91L40.37 0z"/><path fill="#bc0030" d="M18.55 34.37h40.37V7.46z"/><path fill="#f3d02f" d="M40.37 0L0 26.91v2.84L44.62 0zM14.3 34.37h4.25L58.92 7.46V4.63z"/><path d="M18.14 25.48l-1.05-.04-2.56-.11 3.01-2.01-.98-3.48 2.84 2.24 3.01-2.01-.89 2.4-.37.99 2.84 2.24-3.61-.15-1.25 3.39-.99-3.46zm20.27-13.51l-1.05-.04-2.56-.1 3.01-2.01-.98-3.48 2.84 2.24 3.01-2.01-.89 2.4-.36.99 2.84 2.24-3.61-.15-1.25 3.39-1-3.47zM44.62 0L0 29.75v4.63H14.3L58.92 4.63V0h-14.3z"/><path fill="#fff" d="M42.67 6.57l-3.01 2-2.83-2.24.97 3.48-3 2.01 2.55.1 4.43-2.95z"/><path fill="#fff" d="M39.39 15.45l1.25-3.39 3.62.14-2.84-2.24.36-.99-4.43 2.95 1.06.05zM22.41 20.08l-3.01 2.01-2.84-2.25.98 3.48-3.01 2.01 2.56.1 4.43-2.95zM19.12 28.96l1.26-3.39 3.61.14-2.84-2.24.37-.99-4.43 2.96 1.05.04z"/></svg>