<svg xmlns="http://www.w3.org/2000/svg" viewBox="0 0 58.92 34.37"><path fill="#120065" d="M0 0h58.92v34.37H0z"/><path fill="#120065" d="M0 0h29.77v14.89H0z"/><path d="M14.88 9.11l11.56 5.78h3.33v-1.66L18.21 7.44l-3.33 1.67zM0 13.22v1.66h3.33L14.89 9.1l-3.33-1.66L0 13.22zM0 0v1.67l11.56 5.78 3.33-1.66L3.33 0H0zm26.44 0L14.88 5.78l3.33 1.66 11.56-5.78V0h-3.33z" fill="#fff"/><path fill="#fff" d="M12.4 0v4.96H0v4.97h12.4v4.96h4.97V9.93h12.4V4.96h-12.4V0z"/><path fill="#ba0019" d="M13.4 0v5.95H0v2.98h13.4v5.96h2.97V8.93h13.4V5.95h-13.4V0z"/><path d="M9.92 9.93L0 14.89h2.22l9.92-4.96H9.92zm9.93 0l9.92 4.96v-1.11l-7.71-3.85h-2.21zM0 0v1.11l7.7 3.85h2.22L0 0zm27.55 0l-9.92 4.96h2.22L29.77 0h-2.22z" fill="#ba0019"/><path d="M42.52 9.98c-.06.04-.18.14-.29.11-.12-.04-.38-.5-.68-.43-.29.07-.47.18-.59.18s-.44.11-.44.39.03.5.09.5.15-.18.15-.18.03.35.24.35.65.03.68.14c.03.11-.21.36-.15.57.06.21.32.57.32.57s-.38.28-.38.46.06.35.06.35l-1.7.07s-.12 5.04-.06 5.43c.06.39.2 1.35.2 1.35s-.38-.12-.7.19c-.32.32-1.45.87-1.48 1.12-.03.25-.13.46-.01.64.12.18.53.66.41.64-.4-.07-.54-.63-.81-.83-.26-.2-.78-.16-.84.06-.06.21-.03.57 0 .64.03.07.35 1.21.44 1.45.09.25 1.01.62 1.42.59.78.02 1.13-.34 1.16-.3.03.04 1.67 1.73 5.05 1.74 2.63.01 4.61-1.7 4.61-1.67 0 .03 1.09.35 1.47.25.38-.11.94-.35 1.06-.6.12-.25.44-1.53.47-1.74.03-.21 0-.46-.26-.53s-.41-.05-.56.02c-.15.07-.19.27-.41.62-.12.11-.43.39-.34.32.09-.07.28-.6.31-.78.03-.18.12-.5-.09-.67-.21-.18-.52-.25-.88-.52-.34-.23-.61-.62-.82-.62-.21 0-.44-.11-.41-.11.03 0 .26-.52.21-1.05s.03-5.62 0-5.62-1.47.11-1.47.04.12-.57 0-.89c-.12-.32-.62-.53-.47-.6.15-.07.79-.25.76-.53-.03-.28-.44-.25-.62-.36-.18-.11-.71-.6-.76-.6-.06 0 1.53-.96 1.41-.96-.12 0-.73-.18-.94-.07 0-.18.85-.71.7-.78-.15-.07-.82-.14-.64-.18.18-.04.23-.46.2-.46s-.76.11-.76.11-.18-.25-.24-.25-.32.14-.32.14l-.15-.39-.32.21-.15-.19s-.26.07-.26 0c.01 0-.03-.18-.07-.18-.04 0-.33.23-.34.21-.01-.01-.33-.46-.33-.45 0 .01-.23.85-.24.85-.01 0-.23.03-.24.04-.01.01-1.16-.66-1.15-.65.01.01.3.65.3.65s-.25.14-.25.15c0 .01.04.29.04.29l-.77-.26s.29.59.27.59-.57.03-.56.03c.01 0 .26.49.26.49l-.09.29c-.01-.01.81.57.75.61m4.91 12.35c.07.11.47.6.41.6s-1.04.66-1.44.78c-.4.13-1.69.36-1.61.34.07-.02 1.16-.61 1.6-.9.44-.28 1.04-.79 1.04-.82m-6.14-.02c-.06.07-.34.62-.34.62s.81.57 1.41.78c.6.21 1.63.29 1.57.27-.06-.02-1.29-.57-1.64-.85-.35-.29-.98-.82-1-.82" fill="#fff"/><path d="M41.94 9.17s.51.37.63.46c.12.09.5.48.53.46.03-.02.23-.21.23-.21s-.43-.41-.69-.5c-.26-.09-.7-.18-.7-.21" fill="#f3c427"/><path d="M43.09 10.13c-.03 0-.08-.04-.32-.26-.09-.09-.19-.17-.23-.21-.1-.08-.49-.36-.6-.44l-.02-.02-.02-.03V9.1l.08.06c.05.02.16.05.28.08.13.03.28.07.39.11.27.09.69.49.7.5-.05.1-.21.25-.24.27l-.02.01zm-.93-.84c.16.12.36.26.43.31.05.04.14.12.24.22.09.09.22.2.26.23.05-.04.18-.17.21-.2-.05 0-.43-.36-.67-.44-.11-.04-.26-.07-.38-.11-.03 0-.06-.01-.09-.01" fill="#6c6666"/><path d="M41.86 8.76c.04 0 .85.5 1.1.75.25.25.35.57.38.57.03 0 .41-.07.4-.07-.01 0-.18-.64-.54-.83-.37-.21-1.32-.42-1.34-.42" fill="#f3c427"/><path d="M43.34 10.11c-.03 0-.04-.03-.09-.11-.05-.11-.15-.3-.31-.47-.24-.24-1.01-.71-1.08-.73l.01-.07v.03-.03h.01c.06.01.99.22 1.35.41.31.17.48.64.54.8h.04l-.03.06c0 .01-.01.02-.04.03h-.01c-.11.05-.38.08-.39.08m-1.22-1.25c.28.17.71.46.87.62.17.17.28.38.33.49.01.02.03.05.04.07.06-.01.25-.04.33-.06l-.01-.01c-.05-.15-.21-.61-.5-.76-.24-.14-.75-.28-1.06-.35" fill="#6c6666"/><path d="M45.66 7.48c-.01 0-.16.53-.21.69-.04.16-.12.5-.12.5s-.65.07-.62-.02c.04-.09 1-1.17.95-1.17" fill="#f3c427"/><path d="M44.92 8.73c-.15 0-.2-.02-.22-.05 0-.09.16-.28.5-.68.19-.22.37-.44.42-.51l.05-.05.02.08c-.04.11-.15.53-.19.66l-.12.49c-.04.03-.28.06-.46.06m-.15-.08c.06 0 .5-.01.56-.02-.02-.02.05-.32.09-.47.02-.09.08-.31.13-.47-.08.1-.19.23-.3.36-.19.23-.45.53-.49.6h.01" fill="#6c6666"/><path d="M42.01 8.12s.76.62 1.03.98c.26.35.53.97.54.97.01 0 .72-.18.72-.16 0 .02-.82-.99-1.22-1.3-.4-.29-1.06-.45-1.07-.49" fill="#f3c427"/><path d="M43.58 10.11c-.03 0-.03 0-.1-.16-.1-.2-.29-.59-.47-.83-.25-.33-.92-.89-1.01-.96l-.02-.03-.06-.13.11.09-.01.02.02-.02c.02.01.07.03.15.06.22.08.64.22.92.44.3.23.84.85 1.09 1.15.07.08.11.14.13.15l.09.08-.12-.02h-.01c-.06.01-.38.08-.53.12-.17.04-.17.04-.18.04m-1.37-1.87c.24.21.67.59.86.84a5.89 5.89 0 0 1 .53.96c.03-.01.08-.02.14-.03.23-.05.39-.09.48-.11l-.03-.03h.03l-.07-.07c-.24-.28-.79-.92-1.08-1.14-.27-.2-.64-.34-.86-.42" fill="#6c6666"/><path d="M42.8 7.96s.38.71.45.96.29.89.29.89h.6s-.29-.8-.62-1.19c-.31-.4-.7-.63-.72-.66" fill="#f3c427"/><path d="M44.21 9.84h-.65c-.03-.02-.26-.66-.33-.91-.07-.23-.43-.9-.45-.95v-.01l.07-.03c.01.01.05.04.09.07.14.11.41.3.64.58.32.39.61 1.17.62 1.2l.01.05zm-1.29-1.75c.12.23.32.63.38.81.07.25.29.88.29.88l.51-.02c-.07-.18-.32-.8-.59-1.13-.21-.24-.45-.43-.59-.54" fill="#6c6666"/><path d="M43.01 7.57c.01.05.56.67.69 1.08.13.41.23.92.23.92l.53-.16s-.47-1.05-.76-1.33c-.3-.28-.66-.48-.69-.51" fill="#f3c427"/><path d="M43.9 9.62l-.01-.04c0-.01-.1-.52-.23-.92-.09-.29-.41-.7-.57-.92-.09-.11-.11-.14-.12-.16l.06-.03c.01.01.05.04.1.06.13.08.38.24.59.45.29.29.75 1.3.77 1.34l-.59.22zm-.74-1.91c.17.23.48.63.57.92.11.34.2.76.23.89l.49-.15c-.05-.02-.5-1-.77-1.27-.18-.16-.38-.3-.52-.39" fill="#6c6666"/><path d="M47.4 9.24s-1.1.14-1.5.27-.62.59-.62.59.51.23.54.19c.03-.04.34-.41.68-.55.34-.15.92-.48.9-.5" fill="#f3c427"/><path d="M45.81 10.33c-.09 0-.47-.17-.54-.2-.01-.07.21-.53.62-.65.39-.12 1.46-.26 1.5-.27.04.12-.67.48-.88.57-.32.13-.61.47-.66.54l-.04.01zm1.53-1.09c-.15.06-1.08.19-1.44.3-.38.12-.59.56-.59.57.15.03.42.14.49.15.07-.09.36-.42.68-.55.3-.13.76-.39.86-.47" fill="#6c6666"/><path d="M47.35 8.37c-.03.02-.91.89-1.19 1.17-.28.28-.54.59-.57.6-.03.02-.57-.09-.54-.12.03-.03.81-.8 1.32-1.13.51-.34.94-.48.98-.52" fill="#f3c427"/><path d="M45.58 10.18c-.04 0-.53-.07-.56-.14.03-.07.81-.84 1.33-1.19.38-.25.7-.39.87-.46.06-.02.09-.04.11-.05h.01l.04.06-.01-.02.01.02c-.05.04-.89.87-1.18 1.17-.15.15-.3.31-.4.43-.13.14-.16.17-.18.18h-.04zm-.49-.14c.08 0 .41.07.49.07v.04-.04c.01-.01.07-.07.15-.16.11-.12.26-.28.41-.43.21-.21.75-.75 1.03-1.02-.18.08-.46.21-.77.42-.52.34-1.29 1.1-1.31 1.13-.01-.01-.01-.01 0-.01" fill="#6c6666"/><path d="M47.13 7.75c-.09.13-.96.98-1.19 1.28-.24.3-.62.83-.62.83s-.45-.25-.42-.35c.03-.11.65-.73 1.09-1.08.44-.36 1.19-.65 1.14-.68" fill="#f3c427"/><path d="M45.34 9.91l-.03-.02c-.14-.08-.48-.28-.44-.4.04-.13.7-.78 1.1-1.1.27-.22.65-.41.9-.53.1-.05.19-.09.22-.12l.01.01-.01-.01.01.01h-.01l.03.02v-.01l-.02-.03v-.01l.07-.1v.13h-.04l.01.05c-.06.07-.22.24-.4.43-.28.29-.63.65-.76.82-.24.3-.62.83-.62.83l-.02.03zm1.6-2c-.01.01-.02.01-.04.02-.25.12-.63.31-.89.52-.46.37-1.05.98-1.07 1.06-.01.04.17.18.38.3.08-.11.39-.55.59-.81.14-.18.49-.54.77-.83.1-.09.18-.19.26-.26" fill="#6c6666"/><path d="M46.25 7.68c-.02.02-.53.67-.63.85-.1.18-.41.96-.41.96s-.46-.48-.46-.5c0-.02.57-.74.91-1.03.34-.28.61-.23.59-.28" fill="#f3c427"/><path d="M45.22 9.56l-.04-.04c-.47-.49-.47-.5-.47-.52 0-.06.64-.82.92-1.06.23-.19.43-.24.53-.26l.05-.02.07-.03-.03.1c-.11.14-.52.67-.61.83-.1.17-.41.95-.41.95l-.01.05zm.92-1.8c-.14.04-.28.09-.45.23-.33.28-.87.97-.9 1.02.02 0 .25.24.41.42.07-.18.3-.76.39-.91.08-.13.37-.52.53-.73l.02-.03z" fill="#6c6666"/><path d="M44.98 8.65c0 .12-.08.23-.19.23-.1 0-.19-.1-.19-.23s.08-.23.19-.23c.1 0 .19.1.19.23" fill="#f3c427"/><path d="M44.79 8.9c-.12 0-.22-.11-.22-.26s.1-.26.22-.26.22.11.22.26-.1.26-.22.26m0-.45c-.09 0-.16.09-.16.2 0 .22.31.22.31 0 .01-.11-.06-.2-.15-.2" fill="#6c6666"/><path d="M45.35 8.95c0 .11-.08.2-.19.2-.1 0-.19-.09-.19-.2 0-.11.08-.2.19-.2s.19.09.19.2" fill="#f3c427"/><path d="M45.17 9.18c-.12 0-.22-.1-.22-.23s.1-.23.22-.23.22.1.22.23c-.01.13-.11.23-.22.23m0-.4c-.09 0-.16.08-.16.17 0 .19.31.19.31 0 0-.1-.07-.17-.15-.17" fill="#6c6666"/><path d="M44.52 8.72c0 .11-.1.2-.23.2s-.23-.09-.23-.2c0-.11.1-.2.23-.2s.23.09.23.2" fill="#f3c427"/><path d="M44.29 8.95c-.14 0-.26-.1-.26-.23s.12-.23.26-.23.26.1.26.23-.11.23-.26.23m0-.4c-.11 0-.2.08-.2.17 0 .19.4.19.4 0 0-.09-.09-.17-.2-.17" fill="#6c6666"/><path d="M45.12 9.14c0 .22-.12.39-.26.39s-.26-.17-.26-.39c0-.21.12-.39.26-.39.15 0 .26.17.26.39" fill="#f3c427"/><path d="M44.86 9.56c-.16 0-.29-.19-.29-.42 0-.23.13-.42.29-.42.16 0 .29.18.29.42 0 .23-.13.42-.29.42m0-.78c-.13 0-.23.16-.23.36 0 .2.1.36.23.36s.23-.16.23-.36c0-.2-.1-.36-.23-.36" fill="#6c6666"/><path d="M44.42 9.15c0 .17-.12.3-.26.3s-.26-.14-.26-.3c0-.17.12-.3.26-.3s.26.13.26.3" fill="#f3c427"/><path d="M44.16 9.48c-.16 0-.29-.15-.29-.33 0-.18.13-.33.29-.33.16 0 .29.15.29.33 0 .18-.13.33-.29.33m0-.6c-.13 0-.23.12-.23.27 0 .15.1.27.23.27s.23-.12.23-.27c0-.15-.1-.27-.23-.27" fill="#6c6666"/><path d="M44.07 9.39c0 .15-.09.26-.2.26-.11 0-.2-.12-.2-.26 0-.15.09-.26.2-.26.11-.01.2.11.2.26" fill="#f3c427"/><path d="M43.87 9.68c-.13 0-.23-.13-.23-.29 0-.17.1-.3.23-.3s.23.13.23.29c0 .17-.11.3-.23.3m0-.53c-.09 0-.17.11-.17.23 0 .13.07.23.17.23.09 0 .17-.1.17-.23 0-.12-.08-.23-.17-.23" fill="#6c6666"/><path d="M45.52 9.36c0 .18-.14.31-.3.31s-.3-.14-.3-.31c0-.17.13-.31.3-.31s.3.14.3.31" fill="#f3c427"/><path d="M45.22 9.7c-.18 0-.33-.15-.33-.34 0-.19.15-.34.33-.34.18 0 .33.16.33.34 0 .19-.15.34-.33.34m0-.62c-.15 0-.27.13-.27.28s.12.28.27.28c.15 0 .27-.13.27-.28s-.12-.28-.27-.28" fill="#6c6666"/><path d="M44.79 8.91c0 .1-.11.19-.24.19s-.24-.08-.24-.19c0-.1.11-.19.24-.19.14 0 .24.09.24.19" fill="#f3c427"/><path d="M44.55 9.13c-.15 0-.27-.1-.27-.22s.12-.22.27-.22c.15 0 .27.1.27.22s-.12.22-.27.22m0-.38c-.12 0-.21.07-.21.16 0 .18.42.18.42 0 0-.09-.09-.16-.21-.16" fill="#6c6666"/><path d="M44.83 9.32c0 .15-.15.28-.33.28-.18 0-.33-.12-.33-.28 0-.15.15-.27.33-.27.18 0 .33.12.33.27" fill="#f3c427"/><path d="M44.5 9.63c-.2 0-.36-.14-.36-.31 0-.17.16-.31.36-.31.2 0 .36.14.36.31 0 .17-.16.31-.36.31m0-.55c-.17 0-.3.11-.3.25s.13.25.3.25c.17 0 .3-.11.3-.25s-.13-.25-.3-.25" fill="#6c6666"/><path d="M45.68 9.81c0 .19-.14.34-.31.34-.17 0-.31-.15-.31-.34 0-.19.14-.34.31-.34.17.01.31.16.31.34" fill="#f3c427"/><path d="M45.37 10.18c-.19 0-.34-.16-.34-.37s.15-.37.34-.37c.19 0 .34.17.34.37s-.15.37-.34.37m0-.68c-.16 0-.28.14-.28.31 0 .17.13.31.28.31.15 0 .28-.14.28-.31 0-.17-.12-.31-.28-.31" fill="#6c6666"/><path d="M43.98 9.73c0 .12-.08.23-.18.23-.1 0-.18-.1-.18-.23s.08-.23.18-.23c.1 0 .18.1.18.23" fill="#f3c427"/><path d="M43.81 9.98c-.11 0-.21-.11-.21-.26 0-.14.09-.26.21-.26.11 0 .21.11.21.26-.01.15-.1.26-.21.26m0-.45c-.08 0-.15.09-.15.2 0 .22.29.22.29 0 0-.11-.06-.2-.14-.2" fill="#6c6666"/><path d="M45.23 9.69c0 .16-.12.29-.27.29-.15 0-.27-.13-.27-.29 0-.16.12-.29.27-.29.15 0 .27.13.27.29" fill="#f3c427"/><path d="M44.96 10.01c-.17 0-.3-.14-.3-.32s.13-.32.3-.32c.16 0 .3.14.3.32 0 .17-.14.32-.3.32m0-.58c-.13 0-.24.12-.24.26s.11.26.24.26.24-.12.24-.26-.11-.26-.24-.26" fill="#6c6666"/><path d="M44.38 9.68c0 .14-.11.25-.24.25s-.24-.11-.24-.25.11-.25.24-.25.24.11.24.25" fill="#f3c427"/><path d="M44.14 9.96c-.15 0-.27-.13-.27-.28 0-.16.12-.28.27-.28.15 0 .27.13.27.28 0 .15-.12.28-.27.28m0-.51c-.12 0-.21.1-.21.22s.09.22.21.22c.11 0 .21-.1.21-.22s-.1-.22-.21-.22" fill="#6c6666"/><path d="M44.79 9.75c0 .15-.11.28-.25.28s-.25-.12-.25-.28c0-.15.11-.27.25-.27s.25.12.25.27" fill="#f3c427"/><path d="M44.54 10.06c-.15 0-.28-.14-.28-.31 0-.17.13-.31.28-.31.15 0 .28.14.28.31 0 .17-.12.31-.28.31m0-.56c-.12 0-.22.11-.22.25s.1.25.22.25.22-.11.22-.25-.1-.25-.22-.25" fill="#6c6666"/><path d="M43.71 8.1c.06 0 .5.18.5.18s-.54.25-.46.22c.08-.02.6-.1.56-.1-.04 0-.46.48-.33.45.12-.02.37-.33.39-.33.02 0 .27.48.29.45.02-.03 0-.48.02-.48s.52.3.48.28c-.04-.03-.33-.38-.31-.38.02 0 .68.08.64.05-.04-.03-.44-.25-.44-.25s.29-.33.23-.33-.54.33-.5.3c.04-.02.52-.68.52-.68l-.48.28s.08-.4.04-.38c-.04.02-.37.53-.39.53s-.1-.5-.1-.5.02.55-.1.58c-.12.03-.56.13-.56.11" fill="#f3c427"/><path d="M44.67 9c-.03 0-.05-.02-.2-.28-.04-.06-.08-.14-.1-.17 0 .01-.02.04-.04.06-.12.12-.25.25-.34.26-.06-.09.12-.32.23-.44-.02.01-.05.01-.08.02-.14.02-.33.05-.38.07-.05-.05-.05-.05.41-.27-.08 0-.35-.11-.44-.13.07-.06.28-.11.42-.14l.12-.02c.06-.01.09-.29.08-.55.09.2.14.42.15.48 0-.03.07-.14.14-.23.15-.21.2-.28.22-.3.05.02.08.05 0 .41l.43-.31c.02.05-.24.41-.38.6.12-.1.33-.23.38-.23.04.04.06.08-.2.37.02-.01.38.19.42.21l-.04.06c-.08 0-.36-.03-.51-.04l-.11-.01c.05.01.29.3.33.32-.01.01-.03 0-.05-.01-.17-.05-.4-.19-.44-.21.02.02.02.12.02.2 0 .21 0 .25-.02.27l-.02.01zm-.29-.51c.02 0 .03.01.14.21.04.07.09.16.13.21v-.18c0-.23 0-.26.04-.26.01 0 .03 0 .36.2-.1-.1-.23-.25-.22-.28.03-.02.08-.02.14-.01.14.01.38.04.49.04-.1-.02-.4-.2-.4-.2.1-.17.22-.31.22-.35-.03.03-.35.24-.45.31v-.01c0-.01 0-.01.01-.02.05-.13.32-.49.46-.69l-.45.34c-.01-.17.01-.33.01-.38 0 .04-.1.18-.17.28-.18.25-.18.25-.2.25-.02 0-.04 0-.09-.27 0 .16-.03.33-.11.35l-.11.03c-.12.02-.29.06-.38.07.14 0 .44.12.44.12-.09.07-.22.15-.31.2.07-.02.15-.03.22-.04l.17-.03c0 .01-.01.02-.01.03l-.01.01c-.08.12-.29.38-.29.43.06-.03.21-.18.29-.26.05-.09.06-.1.08-.1" fill="#6c6666"/><path d="M42.36 12.15c.01.05.34.95.85.93.51-.03.72-.18.69-.19a.986.986 0 0 1-.36-.49c-.13-.33-.15-.46-.15-.46l-1.03.21zM44.18 11.8s.37.89.54 1.02.55.22.72.21c.17-.01.36 0 .36 0s-.17-.09-.3-.58c-.13-.49-.18-.65-.18-.65h-1.14zM46.46 12.13s-.07.65 0 .82c.07.16.44.46.44.46s.44-.06.45-.46c.01-.4-.15-.78-.15-.78l-.74-.04z" fill="#233697"/><path d="M42.01 10.98s.02.1 0 .18c-.02.07-.2.28-.2.44 0 .16.21.67.84.68.63.01 1.43-.41 1.42-.43-.01-.01-1.51-1.23-1.53-1.22-.02.02-.53.38-.53.35" fill="#225326"/><path d="M42.68 12.31h-.03c-.66-.01-.87-.53-.87-.71 0-.12.08-.25.14-.34.03-.04.05-.08.06-.1.02-.06 0-.16 0-.16.06-.05.36-.25.47-.33l.08-.05c.08 0 1.56 1.21 1.57 1.22-.02.07-.81.47-1.42.47m-.66-1.3c.02.01.03.09.01.16-.01.03-.03.07-.06.12-.05.09-.13.21-.13.31 0 .14.19.64.81.65l.03.03v-.03c.61 0 1.33-.38 1.37-.42-.02.04-1.44-1.13-1.52-1.17l-.05.05c-.34.24-.43.29-.46.3"/><path d="M46.19 11.85s.13.44.19.49c.05.05.07.15.08.15.01 0 .87.22.87.22s.08-.29-.04-.51c-.13-.23-.59-.82-.59-.82l-.51.47z" fill="#225326"/><path d="M47.35 12.75l-.03-.01s-.83-.22-.87-.22c-.05-.08-.07-.13-.1-.16-.06-.05-.17-.43-.2-.5l.52-.49c.06.03.51.6.64.82.13.23.05.52.04.54v.02zm-.68-1.35l-.47.47c.07.18.16.42.19.44.04.04.06.09.08.13-.01.01 0 .01.84.23.02-.07.05-.29-.05-.46-.12-.22-.58-.8-.59-.81"/><path d="M46.78 11.31c.02 0 .23.21.39.1.17-.11.44-.41.44-.41s-.23.09-.39.08c-.17-.02-.43.24-.44.23" fill="#225326"/><path d="M47.07 11.47c-.11 0-.21-.08-.27-.12l-.11-.04.07-.03.01-.01c.13-.11.33-.24.43-.24.2 0 .39-.07.39-.07.02.06-.24.35-.41.47a.15.15 0 0 1-.11.04m-.28-.13c.13.01.27.12.37.05.11-.08.28-.25.37-.34-.07.03-.16.06-.28.06-.16 0-.32.13-.39.19l-.05.03c-.01 0-.01.01-.02.01"/><path d="M41.98 11.03s-.06-.21-.23-.23c-.17-.01-.47.03-.57-.07-.1-.1-.13-.34-.19-.33-.05.01-.19 0-.2 0-.01 0-.06-.2.08-.3.15-.1.27-.01.35-.09.08-.07.21-.13.37-.14s.44.25.56.31c.12.06.39.14.5.08.1-.06.68-.34.89-.35.21-.01.64-.03.81-.01.17.01.82.11 1.02.23.2.11 1.24.55 1.39.65.15.1.47.25.47.25s-.57.68-.85.79c-.28.11-1.17.29-1.7.25-.53-.04-.94-.1-1.35-.35-.4-.25-.84-.49-.86-.61-.02-.13-.01-.29-.01-.29l-.48.21z" fill="#225326"/><path d="M44.84 12.11h-.16c-.56-.04-.97-.11-1.36-.36l-.22-.14c-.39-.24-.63-.39-.65-.5-.02-.13-.01-.29-.01-.3l-.45.24c-.04-.02-.1-.21-.24-.22h-.11l-.08-.03v.03c-.16 0-.32-.01-.4-.08-.06-.06-.09-.15-.12-.22a.336.336 0 0 0-.04-.1c-.02.01-.14 0-.18 0a.26.26 0 0 1 .05-.36c.08-.06.15-.06.22-.06s.1 0 .13-.03c.09-.08.23-.13.39-.14.13 0 .29.12.42.21.06.04.11.08.15.1.13.07.39.12.47.08.11-.07.69-.34.91-.35.21-.01.65-.02.81-.01.15.01.82.11 1.03.23.09.05.35.17.63.29.34.15.68.31.76.36.14.1.46.25.46.25-.01.07-.57.73-.85.85-.26.11-1.03.26-1.56.26m-2.39-1.32c.04.03.03.19.05.31.01.09.32.28.62.46l.22.14c.39.24.78.31 1.34.35.52.04 1.41-.14 1.69-.25.25-.1.77-.7.83-.78-.05.01-.32-.13-.45-.21-.08-.05-.44-.21-.76-.36a9.63 9.63 0 0 1-.63-.29c-.19-.11-.83-.21-1-.22-.17-.01-.6 0-.81.01-.2.01-.77.28-.88.35-.1.06-.39-.01-.53-.07a.925.925 0 0 1-.16-.11c-.12-.09-.27-.2-.38-.2-.16.01-.28.06-.37.13-.04.04-.1.02-.15.04-.08 0-.14 0-.21.05-.12.08-.08.24-.08.26.02-.01.06-.01.1-.01l.07-.01c.04 0 .07.05.1.13.03.07.06.15.11.2.06.06.21.06.35.06h.19c.18.01.25.24.26.25l.48-.23z"/><path d="M41.33 10.22c-.02.01-.13.06-.1.09s.06.1.19.09c.13-.01.26-.1.26-.1s-.16-.09-.35-.08" fill="#225326"/><path d="M41.39 10.43c-.11 0-.15-.06-.18-.09-.01-.07.02-.09.09-.13.24-.01.38.06.39.07 0 .05-.14.14-.27.15h-.03zm-.02-.18c-.08.03-.11.05-.11.06.03.02.06.06.13.06v.03l.02-.03c.08-.01.17-.05.22-.08-.05-.01-.15-.04-.26-.04"/><path d="M41.32 10.24v.14s.15.05.15.01.01-.13-.02-.13c-.03.01-.12 0-.13-.02"/><path d="M42.77 10.35c.04-.08 0-.19.21-.31.21-.13.58-.09.58-.09s-.11.1-.11.2.01.15.01.15-.2-.08-.36-.03c-.14.04-.32.09-.33.08" fill="#0a1e10"/><path d="M42.78 10.38l-.04-.03.02-.07c.02-.08.04-.17.21-.27.21-.12.6-.09.6-.09.02.05-.08.14-.08.23 0 .1.01.14.01.14-.04.03-.15-.01-.27-.01-.04 0-.07.01-.1.01-.11.04-.3.09-.35.09m.67-.4c-.11 0-.32.01-.45.09-.15.09-.17.16-.18.23l-.01.03c.06-.01.17-.04.29-.08.11-.03.26-.01.33.02-.01-.02-.01-.06 0-.1 0-.07.04-.13.08-.18-.02-.01-.04-.02-.06-.01" fill="#00000f"/><path d="M43.73 9.91c-.02.02-.18.23-.17.3.02.07.23.23.3.21.07-.01.39-.2.41-.29.02-.09.03-.22.01-.24-.02-.03-.55.03-.55.02" fill="#0a1e10"/><path d="M43.86 10.45c-.09 0-.3-.16-.32-.23-.02-.08.15-.31.18-.33.04 0 .1-.01.17-.02.11-.01.26-.02.34-.02l.08.02c.03.03.03.12 0 .27-.02.11-.36.3-.43.32l-.02-.01zm.4-.54c-.11 0-.26.02-.37.02-.07.01-.13.01-.15.01-.02.02-.16.22-.15.26.01.05.2.19.27.19v.03-.03c.07-.01.37-.2.38-.27.03-.13.03-.2.02-.21" fill="#00000f"/><path d="M44.43 9.88c-.04.05-.03.28-.01.31.01.03.27.33.32.35.05.02.46-.03.5-.08.03-.05.13-.28.1-.33-.03-.05-.12-.12-.39-.19-.27-.08-.43-.07-.52-.06" fill="#0a1e10"/><path d="M44.79 10.57h-.05c-.07-.02-.33-.35-.34-.36-.02-.04-.04-.28.01-.34.16-.05.33-.02.55.04.23.06.36.13.41.21.04.08-.08.33-.1.36-.05.06-.4.09-.48.09m-.23-.67c-.05 0-.09.01-.12.01-.01.02 0 .23.01.27.02.04.26.32.31.34h.04c.14 0 .4-.05.43-.08.04-.07.12-.27.1-.3-.03-.05-.11-.11-.37-.18-.16-.04-.29-.06-.4-.06" fill="#00000f"/><path d="M45.47 10.18c.07.04.45.27.68.45.23.18.32.39.39.41.07.02.33-.18.35-.23.01-.05-.33-.34-.55-.47-.24-.13-.87-.15-.87-.16" fill="#0a1e10"/><path d="M46.54 11.06h-.02c-.04-.01-.07-.06-.13-.13-.06-.08-.15-.19-.27-.29-.21-.17-.54-.37-.65-.43v-.01h-.01.01c.02-.06.05-.05.11-.05.2.02.58.05.75.15.17.1.59.41.57.5-.01.08-.27.26-.36.26m-1.06-.85c.16.04.48.23.68.39.13.1.22.22.28.3.04.05.07.1.1.1.07 0 .29-.17.31-.21-.01-.05-.31-.31-.54-.43-.16-.09-.55-.13-.73-.14-.05 0-.08-.01-.1-.01" fill="#00000f"/><path d="M45.39 10.37c-.03.04.41.97.5 1 .08.03.59-.18.58-.25-.01-.07-.14-.21-.45-.42-.32-.21-.57-.35-.63-.33" fill="#0a1e10"/><path d="M45.9 11.4l-.03-.01c-.1-.04-.47-.85-.51-.99l.04-.07c.12 0 .48.23.63.33.21.14.45.33.46.44-.09.15-.46.3-.59.3m-.5-1c.01.05.41.9.49.95h.01c.12 0 .51-.18.53-.23 0-.02-.03-.12-.44-.4-.35-.24-.54-.32-.59-.32" fill="#00000f"/><path d="M44.84 10.71c-.07.05-.18.89-.11.93.07.04.93-.1.96-.2.03-.09-.35-.83-.47-.83-.11 0-.32.03-.38.1" fill="#0a1e10"/><path d="M44.78 11.67l-.07-.01c-.02-.01-.03-.05-.04-.12-.01-.2.07-.8.15-.86.07-.08.3-.11.4-.11.03 0 .07.02.16.15.13.19.37.64.33.73-.03.12-.78.22-.93.22m.44-1.03c-.11 0-.31.04-.36.09-.07.07-.16.81-.11.88h.04c.22 0 .84-.12.88-.18.01-.05-.15-.42-.32-.67-.1-.12-.13-.12-.13-.12" fill="#00000f"/><path d="M43.95 10.53c-.09.1-.07.88-.03.93.04.05.55.21.61.15.05-.06.13-.94.08-1-.05-.07-.19-.23-.3-.24-.13-.01-.31.13-.36.16" fill="#0a1e10"/><path d="M44.47 11.66c-.14 0-.53-.12-.58-.17-.05-.06-.07-.86.03-.97.12-.08.25-.17.35-.17.16.02.32.23.34.25.06.07-.01.97-.08 1.04l-.01.01-.05.01zm-.18-1.26c-.09 0-.22.08-.29.13-.11.1-.1.85-.06.92.03.03.39.15.53.15v.03l.03-.03c.05-.07.11-.89.07-.96-.05-.08-.19-.23-.28-.24z" fill="#00000f"/><path d="M42.8 10.52c-.08.08-.09.29 0 .32.09.03.32.16.53.27.21.11.34.24.4.24s.12-.79.05-.83c-.07-.04-.26-.08-.44-.07-.18.01-.45.03-.54.07" fill="#0a1e10"/><path d="M43.73 11.38c-.04 0-.09-.03-.16-.09-.06-.04-.14-.1-.24-.16l-.09-.05c-.18-.09-.36-.19-.43-.22-.04-.02-.07-.06-.08-.12-.02-.08 0-.2.07-.26.12-.06.46-.08.56-.08.23 0 .4.03.46.08.08.06.02.67-.01.81l-.08.09zm-.33-.9c-.25.01-.51.03-.59.07-.03.03-.06.12-.04.2.01.04.02.06.04.07.08.03.26.12.44.22l.09.05c.1.05.19.11.25.16.05.04.11.08.13.08v.03-.03c.04-.06.08-.71.04-.78-.04-.04-.19-.07-.36-.07" fill="#00000f"/><path d="M39.02 20.45c.15-.15.38-.5.7-.52.32-.02.65.28.65.28s.34 1.37.32 1.37c-.02 0-.55.39-.57.39-.02 0-.24-.54-.44-.49-.2.05-.18.78-.22.73-.03-.05-.89-1.06-.85-1.09.04-.04.42-.62.41-.67M47.85 20.27c.1-.02.55-.36.87-.34.32.02.5.16.67.31.17.15.37.52.37.52s-.4 1.11-.44 1.11c-.03 0-.2.1-.23.02s-.13-.34-.33-.38c-.2-.03-.25.36-.25.36l-.66-1.6z" fill="#c20022"/><path d="M48.06 20.61c0 .1.62 1.63 1.62 1.92 1 .29 1.32-.28 1.44-.47.12-.2.54-.18.54-.18s-.1 1.43-.27 1.61c-.17.18-.3.57-1.24.59-.94.02-1.79-.88-2.07-1.14-.29-.26-.65-.94-.8-1.25-.15-.31.8-1.05.78-1.08M37.16 23.65c.02 0 .45.47 1.09.42.64-.05 1.72-.42 2.22-1.07.5-.65.75-1.35.75-1.35s-.74-1.3-.75-1.3-.08.42-.22.7c-.13.28-.5 1.06-1.12 1.3-.62.24-.62.34-.87.31-.25-.03-.9-.42-.9-.44 0-.02-.32.77-.32.77s-.07.5.12.66" fill="#f5dc60"/><path d="M39 20.4c-.05 0-1.23.65-1.18.92.05.28 2.04 4.19 6.29 4.24 4.26.05 6.86-3.55 6.67-4.14-.19-.6-1.51-1.29-1.51-1.29s.33.27.28.64c-.05.37-1.51 3.55-5.2 3.46-3.69-.09-5.44-2.9-5.44-3.22 0-.33.19-.52.09-.61" fill="#f5dc60"/><path d="M50.54 23.25c.1-.08.72-1.77 1.07-1.73.35.05.23.55.2.68s-.38 1.3-.38 1.3.02-.28-.22-.34-.62.12-.67.09M37.16 23.67c0-.09-.29-.41.05-.51.33-.09.76.09.76.09s-.24-.69-.52-1.24-.38-.46-.62-.37c-.24.09-.23.34-.09.7.14.38.42 1.42.42 1.33" fill="#c20022"/><path fill="#f2c327" d="M41.06 20.51l.41-1.39-1.14-.87 1.43-.03.47-1.38.47 1.37 1.43.03-1.14.88.42 1.39-1.18-.83z"/><path d="M48.76 13.27v5.35c.01 2.61-2.66 4.9-4.43 5.35-1.77-.45-4.44-2.74-4.43-5.35v-5.35h8.86z" fill="#fff"/><path d="M39.91 13.27l.01 3.35s.04-.07.62-.03c.58.04.63.74 1.27.74s.63-.74 1.26-.74.63.74 1.26.74.63-.74 1.27-.74.63.74 1.3.78c.6-.04.6-.78 1.23-.82l.63.04v-3.32h-8.85z" fill="#c20022"/><path d="M46.9 17.41c-.35-.02-.52-.22-.69-.42-.16-.19-.31-.36-.61-.36s-.45.17-.61.36c-.16.19-.33.38-.66.38s-.49-.19-.65-.38c-.16-.19-.31-.36-.61-.36s-.45.17-.61.36c-.16.19-.32.38-.65.38-.34 0-.52-.19-.69-.38-.16-.17-.31-.34-.58-.35-.52-.04-.6.02-.6.02l-.06-3.37 8.89-.03.03 3.35-.66-.01c-.31.02-.46.21-.61.41-.16.18-.32.37-.63.4zm-1.3-.84c.33 0 .5.2.66.39.16.18.32.37.64.4.28-.02.42-.2.57-.39.16-.2.32-.41.66-.43l.63.04-.03-3.29-8.83.03.04 3.29c.04-.04.22-.05.6-.03.29.02.46.2.62.37.17.19.33.36.65.36.3 0 .45-.17.61-.36.16-.19.33-.38.65-.38.33 0 .5.19.66.38.16.18.31.36.61.36s.45-.17.61-.36c.16-.19.32-.38.65-.38"/><path d="M39.91 17.7v1.11h.63c.58.04.63.74 1.27.74s.63-.74 1.26-.74.63.74 1.26.74.63-.74 1.27-.74.6.7 1.26.74c.6-.04.63-.7 1.27-.74h.63V17.7h-.63c-.63 0-.63.74-1.27.74-.63 0-.63-.74-1.26-.74s-.63.74-1.27.74c-.63 0-.63-.74-1.26-.74s-.63.74-1.26.74-.63-.74-1.27-.74h-.63zM40.1 19.92l.44 1.11c.58.04.63.74 1.27.74.63 0 .63-.74 1.26-.74s.63.74 1.26.74.63-.74 1.27-.74c.63 0 .6.7 1.26.74.6-.04.61-.7 1.25-.74l.46-1.13-.44.02c-.63 0-.63.74-1.27.74-.63 0-.63-.74-1.26-.74s-.63.74-1.27.74c-.63 0-.63-.74-1.26-.74s-.63.74-1.26.74-.63-.74-1.27-.74h-.44zM44.34 23.98c.63 0 2.08-1.11 2.07-1.11.01 0-.17-.74-.8-.74s-.63.74-1.27.74c-.63 0-.63-.74-1.27-.74-.63 0-.79.74-.79.74-.03 0 1.42 1.11 2.06 1.11" fill="#325fb7"/><path d="M41.07 15.83c.07 0 .72.09 1.18.06.47-.03.65-.19.65-.22v-.09h.61s.11.44.04.47c-.07.03-.25.16-.29.16-.04 0 0-.22-.07-.16s-.11.16-.11.16-.07-.09-.11-.09c-.04 0-.11.09-.11.09s0-.09-.04-.09-.21.16-.21.16l-.18-.13s-.11.16-.14.16-.25-.13-.25-.13l-.36.19s0-.28-.07-.25c-.07.03-.47.03-.47.03s-.11.19-.14.19-.18-.16-.14-.16c.04 0 .11-.09.07-.12-.04-.03-.21 0-.21-.03s-.07-.22-.04-.22c.04 0 .18.03.18.03v-.19h.18l.03.18z" fill="#f2c327"/><path d="M41.66 16.39v-.03c0-.13-.02-.23-.04-.23-.08.03-.44.03-.48.03-.04.08-.11.19-.14.19-.04 0-.17-.13-.17-.17.04-.02.07-.05.08-.09-.03-.1-.22-.02-.22-.07-.04-.16-.05-.2-.04-.23.06-.01.19.02.2.02l-.02-.17.2-.02.05.2c0-.02.05-.01.12 0 .23.02.69.07 1.04.05.46-.03.62-.18.63-.2v-.09l.63-.02c.05.15.12.47.04.5-.03.01-.08.04-.13.07-.22.14-.2.08-.2-.01 0-.03-.01-.07-.01-.08-.07.07-.11.16-.11.16-.14-.08-.15-.09-.22.01-.03-.05-.04-.09-.05-.09-.02 0-.12.08-.2.15l-.2-.13c-.02.06-.09.16-.13.16-.04 0-.21-.1-.26-.13l-.37.22zm-.06-.3c.08 0 .09.15.09.24l.33-.17c.12.06.24.12.26.12.02 0 .08-.08.13-.15l.21.12c.03-.05.17-.16.2-.16.04 0 .05.05.05.09.01-.04.06-.09.09-.09.04 0 .09.06.11.09 0-.03.03-.1.09-.15.08-.02.08.04.08.09.02.06.1.01.15-.02.05-.03.1-.06.13-.08.03-.01.01-.22-.05-.45l-.59.01.02.07c0 .05-.2.21-.66.24-.36.02-.82-.03-1.05-.05-.07-.01-.12-.01-.14-.01l-.05-.2-.16.01.02.17c-.06.01-.17-.01-.2-.01 0 .01.03.09.04.13.01.04.02.06.02.07h.07c.07 0 .11 0 .13.02 0 .11-.05.16-.08.16.02.01.12.11.14.12.02-.01.08-.1.13-.18.14 0 .43 0 .49-.03"/><path d="M41.71 14.05c-.04 0-.29.25-.25.53.04.28.65.69.65.69s.32-.13.43 0c.11.12.11.5.07.5-.04 0-.47.09-.47.03s0-.12-.04-.12-.43.03-.43.03l.04-.12-.36-.06.14-.13s-.57-.22-.54-.22c.04 0 .25-.12.25-.12l-.43-.25h.25s-.36-.25-.32-.25c.04 0 .21.03.21.03l-.11-.25h.11l-.11-.19.18-.06.11.16-.04-.38.25.03v.31s.11-.19.11-.22c.01-.03.34.12.3.06" fill="#f2c327"/><path d="M42.21 15.84c-.03 0-.09-.01-.09-.04 0-.04 0-.1-.02-.1-.04 0-.43.03-.43.03l.02-.15-.35-.04.13-.16c-.55-.18-.55-.19-.55-.21.04-.02.16-.08.26-.14l-.43-.22.26-.03c-.35-.2-.35-.22-.34-.23.06-.01.24.02.24.02l-.13-.22.13-.03-.13-.16.19-.09.13.16-.07-.36.27.01.02.33c.01-.1.07-.2.07-.22.05-.02.09-.01.16.02.05.02.1.03.13.04-.06.08-.24.3-.21.53.03.27.62.66.64.67-.01-.01.34-.1.43 0 .11.12.11.45.08.51a.18.18 0 0 1-.11.03c-.07.02-.22.05-.3.05m-.1-.19c.05 0 .05.07.05.14h.05c.08 0 .22-.02.31-.04.04-.01.08-.01.09-.01.01-.02.01-.35-.09-.47-.08-.09-.41.01-.41.01-.04-.02-.63-.41-.67-.7-.03-.24.13-.45.22-.53-.03.02-.07 0-.12-.02-.04-.01-.09-.03-.11-.03.01.02-.07.15-.1.21l-.04-.32-.23-.01.06.35-.14-.14-.16.07.12.16-.12.03.13.22c-.02.03-.19 0-.23-.01.04.01.19.12.33.22l-.26.03.44.22c-.05.06-.2.15-.25.16.06 0 .35.11.54.18l-.14.16.35.03-.02.14c.01-.02.36-.05.4-.05M47.27 15.98c-.05.04-.18.13-.18.13l.3-.02a.4.4 0 0 1-.12-.11M47.53 16.13c-.02.02-.07.26-.04.25.04-.02.18-.19.18-.19l-.14-.06zM47.94 16.16c.04.04.25.22.22.18-.03-.04-.05-.2-.07-.21-.01-.01-.13.05-.15.03M44.33 15.91c-.03.01-.25.16-.25.16s.38-.07.36-.07c-.02 0-.12-.07-.11-.09M44.56 16.09c-.03.03-.15.25-.11.24.04-.01.24-.15.24-.15l-.13-.09zM44.42 15.79c-.03-.01-.22-.09-.21-.09.01 0 .25-.06.25-.06l-.04.15zM40.87 15.69l-.27-.19.34.09zM40.64 15.81c-.04 0-.38.19-.37.19.01 0 .48.01.47 0-.01-.01-.09-.17-.1-.19M40.85 16.09c-.04.02-.3.2-.29.2.02 0 .4.01.4 0 .01-.02-.1-.2-.11-.2"/><path d="M40.81 14.14s-.1-.22-.09-.22c.01 0 .25.17.25.17l-.16.05zM41.08 13.87c0-.01.03-.14.03-.14s.24.16.23.16c-.01 0-.24 0-.26-.02M41.46 13.97c0-.01.03-.2.03-.2s.22.27.21.27c-.02.01-.22-.04-.24-.07"/><path d="M45.06 15.34c0 .02.38.28.39.34.01.06-.68.08-.68.08s-.2-.13-.26-.13c-.06.01-.09.14-.09.14l.16.08-.3.02.09.15.22-.02-.05.14s.14.09.17.08c.03-.02.12-.16.19-.18.07-.02.22-.02.22-.02s-.12.17-.06.17c.05 0 .3-.18.3-.18s.05.16.06.16c.01 0 .18-.19.18-.19s0 .15.03.15.28-.19.28-.19.2.22.22.2c.03-.02.05-.23.08-.23s.2-.02.2-.03c0-.01-.11-.09-.13-.19s.02-.37.01-.37c-.02 0-1.22.04-1.23.02" fill="#f2c327"/><path d="M44.7 16.24c-.04 0-.15-.07-.17-.08l.05-.16-.21.04-.11-.16.32-.04-.17-.04c-.01-.04.02-.17.1-.18.08 0 .25.11.27.13.29-.01.63-.04.65-.07-.01-.03-.19-.17-.28-.24-.11-.08-.11-.09-.11-.1.03-.02.06-.01.19-.01.29 0 .87-.02 1.02-.02.06.01.06.02.05.1-.01.08-.02.21-.01.28.01.08.08.14.11.17.02.07-.19.08-.2.08 0 .01-.01.07-.02.1-.02.08-.03.12-.05.13-.05 0-.18-.13-.25-.21-.09.09-.24.19-.26.19-.01 0-.04 0-.04-.17-.14.21-.15.21-.16.21-.01 0-.02 0-.08-.18-.01.04-.22.19-.28.19-.04-.05 0-.13.04-.19-.03.02-.14.02-.19.04-.04.01-.1.08-.13.12l-.08.07zm-.11-.26l-.04.17c.04.01.12.05.14.06.08-.1.14-.16.19-.18.08-.03.23-.03.24-.03-.03.09-.06.16-.06.17.03-.01.18-.11.28-.18.05.08.08.16.09.17-.01-.01.09-.12.15-.19.03.07.04.14.05.15.01-.01.14-.1.26-.19.11.09.21.2.23.2 0-.01.01-.06.02-.1.02-.09.03-.13.06-.13s.17-.02.19-.03a.235.235 0 0 1-.13-.18c-.01-.07 0-.2.01-.29 0-.03.01-.07 0-.07-.2.02-1 .04-1.16.03.02.01.04.03.07.05.19.15.28.23.29.27-.06.08-.55.1-.7.1-.06-.04-.2-.13-.26-.13-.04 0-.07.09-.08.13l.15.06-.31.05.1.12.22-.03z"/><path d="M43.15 14.86h3.52c.36 0 .68-.13.68-.31 0-.19-.57-.22-.79-.15-.21.06-1.15.44-1.54.41-.4-.03-.75-.25-.79-.47-.04-.22.18-.41.57-.41.4 0 .9.13 1.01.09.11-.03.36-.28.47-.31s.43-.06.43-.06l-.14.09.47-.09s-.36.34-.72.44c-.36.09-1.11.06-1.4.06s-.43-.03-.39.16c.04.19.25.31.43.28.18-.03.72-.19.72-.19l-.14-.09.65-.03s-.03-.09 0-.09c.04 0 .36.03.36.03s-.21-.09-.18-.09.18 0 .47.03.9.13.86.38c-.04.25-.25.47-.5.47s-.47-.06-.47.03.29.16.47.16.39-.12.43-.12c.04 0 .11.19.14.19s.25-.06.25-.06l-.14.34.25.06s-.14.12-.11.12.25 0 .25.03-.29.22-.29.25.22.13.22.13-.14.19-.18.16c-.04-.03-.18-.19-.18-.19s-.04.13-.11.13-.22-.03-.22-.03.11-.19.07-.19c-.04 0-.21.13-.21.09l-.11-.09s.29-.1.29-.25-.12-.3-.64-.32c-.52-.02-.53.11-.91.09-.39-.02-.39-.15-.67-.15-.29 0-1.18.31-1.59.3-.41-.01-.93-.03-.92-.04-.01-.05.32-.76.33-.79" fill="#f2c327"/><path d="M48 16.29l-.02-.01c-.03-.03-.14-.14-.17-.18.01.03-.03.12-.1.12s-.21-.03-.22-.03c.03-.09.07-.18.07-.19 0 .01-.05.04-.09.06-.06.03-.09.05-.11.05l-.14-.11c.01-.03.28-.13.28-.26 0-.18-.2-.28-.62-.3h-.11c-.2 0-.31.03-.42.05-.09.02-.18.05-.32.05-.27-.01-.37-.05-.45-.09-.08-.03-.15-.06-.28-.06-.13 0-.38.06-.64.13-.33.08-.7.18-.93.18-.29-.01-.93-.02-.95-.06.03-.05.34-.73.35-.77l3.53-.01c.37 0 .66-.13.66-.29 0-.16-.56-.2-.77-.14-.05.01-.13.04-.23.08-.35.13-.94.33-1.27.33-.45-.03-.82-.26-.86-.48a.3.3 0 0 1 .07-.24c.19-.22.75-.18 1.16-.12.13.02.25.04.31.04.1-.02.18-.09.27-.16.09-.07.18-.14.24-.16.11-.03.43-.06.43-.06l-.13.13.45-.13c0 .05-.35.38-.71.47-.18.05-.47.07-.89.07l-.7-.01c-.09 0-.15.01-.18.04-.02.02-.02.05-.01.1.03.17.21.27.36.27.23-.04.77-.19.77-.19l-.15-.06.65-.07c-.01.01-.04-.05-.03-.08.06-.01.39.02.39.02-.21-.05-.21-.06-.2-.08.06-.02.2-.02.49.02.31.03.72.11.84.27.03.04.04.08.04.13-.01.23-.25.44-.5.44-.08 0-.16 0-.22-.01-.17-.02-.22.01-.22.03 0 .07.26.14.45.14.12 0 .26-.06.35-.1.14-.06.12-.03.17.07.02.03.05.08.06.08.02 0 .16-.04.24-.06l-.12.37.24.04c-.04.08-.1.13-.1.14.26-.02.26.01.26.03 0 .02-.03.05-.15.14-.05.04-.13.1-.14.11.01.01.12.06.21.1-.04.08-.14.21-.19.21m-.21-.22c.04 0 .17.15.21.18.02 0 .1-.08.15-.15-.22-.07-.22-.1-.22-.11 0-.02.03-.05.15-.14.05-.04.13-.1.14-.11-.01.01-.07-.01-.23-.01-.03-.03-.03-.04.1-.16l-.24-.03.13-.36c-.02.03-.2.08-.23.08s-.05-.04-.09-.1c-.02-.03-.05-.08-.06-.08-.01 0-.04.02-.07.03-.09.04-.23.1-.36.1-.17 0-.49-.06-.49-.17 0-.07.09-.07.12-.07.04 0 .08 0 .14.01.07.01.14.01.22.01.23 0 .45-.2.48-.45.01-.03 0-.07-.03-.1-.12-.16-.56-.23-.82-.25-.22-.03-.35-.03-.42-.03.04.01.09.04.14.06-.01.03-.33.01-.37 0 0 .01.01.04.02.07l-.66.06.15.06c-.01.03-.54.19-.72.22-.23 0-.42-.13-.45-.3-.01-.06-.01-.1.02-.13.04-.04.1-.05.21-.05l.7.01c.42 0 .71-.02.88-.07.35-.09.71-.43.71-.43l-.45.13.11-.11c-.06.03-.31.05-.4.08-.05.02-.14.09-.23.15-.09.07-.18.14-.24.16-.12.01-.24-.01-.37-.03-.4-.06-.95-.1-1.13.11-.05.06-.07.13-.06.21.03.21.4.42.77.45h.01c.37 0 .95-.2 1.3-.33.1-.04.18-.07.23-.08.07-.02.17-.03.28-.03.2 0 .54.04.54.2 0 .21-.36.33-.7.33h-3.51c.01.01-.31.73-.34.75.03-.02.5 0 .9.01.24 0 .61-.09.93-.18.28-.07.52-.13.65-.13.14 0 .21.03.29.06.08.04.18.08.38.08s.28-.02.38-.04c.11-.03.22-.05.42-.05h.11c.44.02.65.13.65.34 0 .16-.29.26-.3.27l.11.06c.01 0 .06-.03.09-.05.06-.03.09-.05.11-.05.03.04.01.1-.05.21.03-.01.14.01.2.01.07-.01.1-.09.11-.12"/><path d="M42.46 14.68c-.04.02-.35.05-.37.34-.02.29.03.29.06.27.03-.02.11-.26.11-.26s-.11.34.01.42c.12.08.24.11.24.11l.04-.27s-.09.26.13.36c.22.09.3.02.28-.05-.02-.07-.08-.25-.08-.25s.17.16.18.18c.01.01.09.14.3.09.21-.06.06-.18.06-.18l-.26-.19s.27.24.39.16c.12-.09-.09-.27-.08-.27.01.01.17.27.23.1.06-.16-.1-.21-.15-.37-.05-.16-.1-.17-.04-.27.05-.09.06-.27.06-.27s.22.05.21-.12c-.02-.16-.24-.2-.29-.21-.04-.01-.04-.17-.05-.16-.02.01-.16.1-.16.1s-.13-.26-.15-.24c-.03.02-.17.15-.28.16-.11.01-.17.14-.17.14s-.38-.16-.37.1c.01.26.22.19.22.2.01.02-.03.37-.07.38" fill="#f2c327"/><path d="M42.87 15.71c-.05 0-.11-.02-.18-.05a.24.24 0 0 1-.14-.14l-.01.04c-.03.01-.15-.02-.27-.1-.06-.04-.07-.13-.06-.23-.02.06-.03.07-.04.07-.08-.03-.1-.08-.09-.29.02-.26.27-.33.35-.35.04-.03.08-.27.08-.35.03.1 0 .35-.04.37-.12.03-.34.09-.36.33-.01.19.01.24.02.26.03-.01.07-.09.11-.24-.01.16-.03.35.04.39.11.08.24.11.24.11v-.13c0-.06.02-.11.02-.12.03.01.02.06.02.12 0 .11.04.19.13.23.12.05.21.06.24.02-.01-.11-.07-.29-.07-.29.1.04.2.15.21.17.01.03.11.12.28.08.06-.02.09-.04.1-.06.01-.04-.04-.08-.04-.08l-.09-.06a.597.597 0 0 1-.17-.13c.02-.03.1.04.19.09.05.03.1.05.14.05.07-.03.11-.06.05-.15a.443.443 0 0 1-.07-.09l-.01-.01h.01c.03-.02.09.06.1.08.04.04.06.04.07.04.08-.13.04-.18-.02-.25-.03-.04-.07-.09-.09-.15-.01-.04-.03-.08-.04-.1-.03-.07-.05-.1 0-.18a.77.77 0 0 0 .06-.27v-.02l.09.01c.03 0 .08-.01.1-.03.01-.02.02-.04.02-.07-.01-.13-.18-.18-.27-.19-.04-.01-.05-.07-.06-.13-.01-.03-.15.06-.15.06-.08-.11-.14-.23-.16-.24-.08.07-.19.15-.27.16-.1.01-.16.13-.16.13-.03.01-.13-.04-.23-.04a.18.18 0 0 0-.11.03c-.02.02-.03.05-.03.09 0 .12.06.19.16.19.01 0 .01.01.02.02-.15.01-.21-.06-.22-.2 0-.05.01-.09.04-.12.08-.08.32-.01.35 0-.01-.01.06-.13.17-.14.08-.01.18-.09.24-.13.06-.03.09-.03.21.22.01-.02.12-.1.14-.1l.02-.01.02.08c0 .02.01.09.02.09.11.02.29.07.3.23 0 .04-.01.07-.03.1-.03.03-.07.05-.13.05l-.07-.01c.02.01 0 .17-.05.26-.04.06-.02.08 0 .14.01.03.03.06.04.11.02.06.05.1.09.14.06.07.11.13.07.24-.03.09-.08.08-.12.05.02.07-.01.1-.04.12l-.07.02h-.04c.02.02.05.06.04.1-.01.04-.05.07-.13.09-.2.05-.31-.06-.32-.09l-.14-.14c.03.05.06.15.07.19v.01l-.02.06c.03.02 0 .04-.06.04"/><path d="M42.67 14.29c.04-.01.11-.07.18-.06.07.01.19.06.13.09s-.1.05-.17.03c-.06-.02-.11-.05-.14-.06M43.4 14.28c-.04-.01-.11-.07-.18-.06-.07.01-.19.06-.13.09s.1.04.17.03c.06-.02.12-.05.14-.06"/><path d="M42.84 14.74c.01.04.04.37.05.34.02-.02.15-.34.14-.34-.01.01-.18.01-.19 0" fill="#07003b"/><path d="M42.89 15.1c-.02 0-.02-.01-.05-.24-.01-.05-.01-.1-.01-.11.02-.01.03-.01.11-.01h.09c.03.03-.12.35-.12.35l-.02.01zm-.05-.35c.01.02.02.06.02.1.01.06.02.17.03.21.03-.06.13-.29.13-.31l-.09.01c-.05 0-.08 0-.09-.01"/><path d="M42.97 14.84h-.03c-.04-.01-.08-.01-.11-.02-.05 0-.11-.01-.11-.08.01-.14.11-.11.24-.09.13.01.21.07.22.1-.01.06-.13.09-.21.09m-.13-.15c-.06 0-.07.02-.08.06 0 .02 0 .03.07.03.03 0 .07 0 .12.02h.02c.08 0 .17-.03.18-.04-.01 0-.07-.04-.19-.06-.05 0-.09-.01-.12-.01M43.57 14.31c0-.06.05-.08.06-.11 0-.01-.04-.04-.08-.06l.02-.06c.02.01.14.06.12.13-.02.07-.11.1-.12.1M42.95 14.55c-.06 0-.13-.01-.15-.06-.02-.05.03-.1.04-.1l.04.05c-.02.01-.03.04-.03.04s.01.02.1.02c.07 0 .09-.01.09-.01l-.01-.08c.02.01.08.05.06.1-.01.03-.08.04-.14.04"/><path fill="#f2c327" d="M43.34 23.04l.37-1.23-1.03-.77 1.29-.03.43-1.2.43 1.2 1.29.03-1.03.77.38 1.22-1.07-.72z"/><path fill="#16341d" d="M43.52 22.71l.31-.97-.87-.62 1.08-.02.36-.96.35.96 1.08.02-.86.61.32.98-.89-.58z"/><path fill="#f2c327" d="M41.21 20.56l.37-1.16-1.03-.73 1.28-.03.42-1.14.43 1.14 1.28.02-1.02.74.37 1.15-1.05-.69z"/><path fill="#16341d" d="M41.38 20.25l.31-.92-.85-.58 1.06-.02.35-.91.35.91 1.07.01-.85.58.32.92-.88-.54z"/><path fill="#f2c327" d="M45.5 20.56l.38-1.16-1.04-.73 1.3-.03.42-1.14.43 1.14 1.3.02-1.03.74.38 1.15-1.07-.69z"/><path fill="#16341d" d="M45.68 20.25l.31-.92-.86-.58 1.08-.02.35-.91.36.91 1.08.01-.86.58.32.92-.89-.54z"/><path d="M38.15 21.53l.64-.36.06.13-.25.14.08.18.25-.14.06.13-.64.36-.06-.13.29-.16-.08-.18-.29.16-.06-.13zm.27.56l.6-.44.21.34-.1.07-.13-.22-.14.1.12.2-.1.07-.12-.2-.16.12.13.22-.1.07-.21-.33zm.41.65l.53-.54.09.11-.21.21.12.15.21-.21.09.11-.53.54-.08-.11.24-.25-.13-.15-.24.25-.09-.11zm.69.32l.09.08.16-.29-.25.21zm-.33.1l.6-.48.13.13-.35.72-.11-.11.09-.18-.12-.11-.15.13-.09-.1zm.52.48l.36-.54-.13-.1.07-.11.36.29-.07.11-.12-.1-.35.54-.12-.09zm.29.23l.37-.68.11.08-.15.27.16.11.15-.27.11.08-.37.68-.11-.08.17-.31-.16-.11-.17.31-.11-.08zm.7.45l.3-.72.34.18-.05.12-.22-.11-.07.17.21.11-.05.12-.21-.11-.13.32-.12-.08zm.67-.11c-.04.12-.06.2-.06.24 0 .04.02.06.06.08.03.02.06.01.09-.02.02-.03.06-.1.1-.22.04-.12.06-.2.06-.24 0-.04-.02-.06-.05-.08-.03-.01-.06-.01-.09.02-.04.02-.07.1-.11.22m-.13-.05c.03-.08.05-.14.07-.19.02-.04.05-.08.07-.09.03-.03.06-.04.1-.04.03 0 .07 0 .11.02.04.02.08.04.1.07.02.03.04.06.05.1.01.03 0 .07-.01.12-.01.05-.03.11-.05.19-.03.08-.05.14-.07.19-.02.04-.05.08-.07.09-.03.03-.06.04-.09.04s-.07 0-.11-.02c-.04-.02-.08-.04-.1-.07-.02-.03-.04-.06-.05-.1-.01-.03 0-.07.01-.12s.01-.12.04-.19m.62-.17l.13.04-.14.51c-.01.06-.02.1-.01.13.01.02.03.04.06.05.03.01.06.01.08-.01.02-.02.04-.05.05-.11l.14-.51.13.04-.14.53c-.01.05-.03.09-.04.11-.01.02-.02.04-.04.05-.03.02-.06.03-.09.04-.03 0-.07 0-.11-.02-.08-.03-.13-.06-.15-.11-.02-.05-.02-.12.01-.21l.12-.53zm.34.94l.16-.78.13.03.07.59.11-.55.12.03-.16.78-.13-.03-.07-.59-.11.55-.12-.03zm.7.04l.06.01c.03.01.05.01.06 0 .01 0 .02-.01.03-.02.01-.02.03-.05.04-.08.01-.03.02-.09.03-.17.01-.08.01-.13.01-.17 0-.04-.01-.06-.02-.08-.01-.01-.02-.02-.03-.02-.01-.01-.03-.01-.06-.02l-.06-.01-.06.56zm-.14.09l.11-.79.21.04c.04.01.08.02.1.03.02.01.04.03.06.05.02.03.03.07.04.11 0 .04 0 .11-.01.19-.02.11-.03.19-.04.24-.01.05-.03.08-.05.11-.02.03-.05.05-.08.06-.03.01-.08 0-.15-.01l-.19-.03zm.55.09l.07-.79.37.04-.01.13-.24-.03-.02.18.22.02-.01.13-.22-.02-.02.22.24.02-.01.14-.37-.04zm.61-.06h.06c.03 0 .05 0 .06-.01.01 0 .02-.01.03-.02.01-.02.02-.05.03-.08.01-.04.01-.09.01-.17v-.17c-.01-.03-.01-.06-.03-.08-.01-.01-.02-.02-.03-.02-.01-.01-.03-.01-.06-.01h-.06l-.01.56zm-.14.11l.03-.8.22.01c.04 0 .08.01.1.02.03.01.05.02.06.04.03.03.04.06.05.11s.01.11.01.19c0 .11-.01.19-.02.24-.01.05-.02.09-.04.12s-.04.05-.07.07-.08.02-.15.01l-.19-.01zm.8.01l-.03-.8.13-.01.03.8-.13.01zm.36-.02l-.05-.66-.15.01-.01-.13.44-.04.01.13-.15.01.05.66-.14.02zm.47-.86l.13-.03.08.53c.01.06.02.1.04.12.02.02.04.03.08.02.03-.01.05-.02.07-.05.01-.02.01-.07 0-.13l-.08-.53.13-.02.08.54c.01.05.01.09.01.12s-.01.05-.02.07c-.01.03-.04.06-.07.08-.03.02-.07.03-.11.04-.08.02-.14.01-.18-.03-.04-.03-.07-.1-.08-.19l-.08-.54zm.72.2l.05-.01c.04-.01.07-.03.08-.05.01-.02.01-.05.01-.1-.01-.04-.02-.07-.04-.08a.093.093 0 0 0-.09 0l-.06.01.05.23zm-.03.47l-.17-.78.23-.06a.21.21 0 0 1 .16.01c.04.03.07.08.08.16.02.08.01.14-.01.18-.02.05-.07.08-.13.1l-.1.02.07.33-.13.04zm.51-.56c.04.13.06.2.09.23.02.03.05.04.09.02.04-.01.06-.03.06-.07.01-.04-.01-.12-.05-.25s-.07-.2-.09-.23c-.02-.03-.05-.03-.09-.02-.04.01-.06.04-.06.07 0 .05.01.13.05.25m-.13.05c-.02-.08-.04-.15-.04-.2a.24.24 0 0 1 0-.12c.01-.04.03-.07.05-.1.02-.02.06-.04.1-.06.04-.01.08-.02.11-.01s.06.02.09.05c.02.02.04.05.06.1.02.05.04.11.07.19.02.08.04.15.04.2.01.05.01.09 0 .12-.01.04-.03.07-.05.1-.02.02-.06.04-.1.06-.04.02-.08.02-.11.02s-.06-.02-.09-.05a.289.289 0 0 1-.06-.1.933.933 0 0 1-.07-.2m.66.18l-.27-.74.13-.06.36.44-.19-.52.12-.05.27.74-.13.06-.36-.44.19.52-.12.05zm.83-.41l-.28-.59-.14.08-.06-.12.39-.23.06.12-.14.08.28.59-.11.07zm.31-.18l-.38-.68.11-.08.15.26.15-.11-.15-.27.11-.08.38.67-.11.08-.17-.3-.16.11.18.32-.11.08zm.48-.35l-.43-.64.29-.25.07.1-.19.16.1.15.18-.15.07.1-.18.15.12.17.19-.16.07.11-.29.26zm.37-.68l.1-.1.03.04c.03.04.05.05.07.06.02 0 .04 0 .06-.03a.09.09 0 0 0 .03-.07c0-.02-.01-.05-.03-.07a.055.055 0 0 0-.05-.03c-.02-.01-.05 0-.09.01l-.08.02c-.07.01-.12.02-.15.01a.236.236 0 0 1-.09-.06.24.24 0 0 1-.06-.15c0-.06.02-.11.07-.16s.1-.08.15-.08c.05 0 .1.03.15.08l.01.01s0 .01.01.01l-.09.1-.01-.01c-.03-.03-.05-.05-.07-.05-.02 0-.04.01-.06.03-.01.02-.02.04-.02.06s.01.04.02.06c.02.02.06.03.13.01l.09-.02c.06-.02.11-.02.15-.01.04.01.07.03.1.07.05.05.07.11.07.16 0 .06-.03.11-.08.17-.05.06-.1.08-.15.08-.05 0-.1-.03-.16-.09l-.05-.05zm.56-.23l-.55-.51.24-.31.09.09-.15.2.13.12.14-.19.09.08-.14.19.15.14.15-.2.09.08-.24.31zm.14-.71l.06-.11-.28-.13.22.24zm.13.35l-.5-.59.1-.17.69.3-.08.13-.17-.08-.09.14.13.14-.08.13zm.08-.65l.06-.13.04.02c.04.02.07.03.09.03.02 0 .04-.02.05-.05.01-.03.02-.05.01-.07-.01-.02-.02-.04-.05-.05-.02-.01-.04-.02-.06-.01-.02 0-.05.01-.08.04l-.07.04c-.06.04-.11.06-.14.06-.03 0-.07-.01-.1-.03-.05-.03-.09-.07-.1-.13a.26.26 0 0 1 .02-.17c.03-.07.07-.11.12-.13.05-.02.1-.01.16.03.01 0 .01.01.01.01s.01 0 .01.01l-.06.13-.02-.01c-.04-.02-.06-.03-.08-.02-.02 0-.04.02-.05.05-.01.02-.01.04-.01.06.01.02.02.03.04.04.03.02.07 0 .13-.03l.08-.05c.05-.03.1-.05.14-.06.04 0 .07.01.12.03.06.03.1.08.11.13.01.05.01.12-.03.19-.03.07-.07.11-.12.13-.05.02-.11 0-.18-.04-.01 0-.02 0-.04-.02z"/></svg>