<svg xmlns="http://www.w3.org/2000/svg" viewBox="0 0 58.93 34.37"><path fill="#fff" d="M0 0h58.93v34.37H0z"/><path fill="#e53633" d="M0 25.78h58.93v8.59H0zM0 0h58.93v8.59H0z"/><path d="M29.23 8.59l-.28.47c-.15.26-.53.65-.83.86-.3.22-.67.54-.81.71l-.27.32.28-.07c.15-.04.35-.1.45-.15.09-.04.17-.02.17.05v.02c-.04.17-.52.54-.91.7-.37.15-.91.55-.98.71 0 0 0 .01-.01.01v.04h.01c.04.03.16.04.3.01.24-.05.34-.02.42.14.12.25.05.36-.23.36-.34 0-.82.34-.88.63-.05.19-.23.35-.62.53-.65.3-1.48.86-1.53 1.03v.02c0 .24.54.23 1.33-.04.18-.06.26 0 .39.3.17.38.16.39-.22.88-.27.34-.5.52-.76.58-.51.11-.67.21-1.33.87-.32.32-.63.58-.71.58-.03 0-.05 0-.06.01v.02c.05.1.4.29.6.29.14 0 .49-.16.78-.36.5-.35.52-.35.72-.16.11.11.21.34.21.49 0 .23-.13.34-.78.67-.48.25-1.05.67-1.49 1.11-.6.6-.76.71-1.02.66-.16-.03-.25-.04-.28-.02v.01c0 .03.05.09.15.2.09.1.3.18.47.18.46 0 1.9-.54 2.34-.87.41-.31.81-.37 1.15-.17.51.3-.35.91-1.96 1.4-.6.18-1.11.35-1.18.39h-.01c-.02.04.01.14.08.23.17.22 1.02.23 1.75.02.29-.09 1.01-.38 1.61-.65 1.08-.49 1.08-.49 1.46-.29.88.46.8 1.26-.26 2.58-.46.57-.86.83-1.6 1.01-.27.07-.84.6-.84.79 0 .02 0 .03.01.05h.19c.04-.03.08-.07.13-.13.23-.31.7-.52 1.18-.52.52 0 1.15-.29 1.62-.73.42-.39.84-.5 1.15-.32.18.1.33.11.55.03.38-.14.56-.07.56.21 0 .13.13.3.31.4.17.1.48.34.69.54.15.15.27.22.33.22h.04v-.01-.02c.01-.07-.05-.2-.17-.39a.59.59 0 0 1-.1-.28v-.01l.01-.01c.07-.02.42-.01.8.03.67.08.75.12 1.15.58.2.23.36.37.49.43h.27c.06-.03.1-.06.11-.1v-.01c-.02-.08-.42-.46-.9-.85-1.08-.9-1.25-1.24-1.26-2.49 0-.75.03-.94.21-1.14.27-.3.42-.29 1.09.06.51.27.66.29 1.82.26 1.24-.03 1.27-.02 1.89.35.35.21.77.48.95.61.38.29.78.31.87.04.11-.31-.62-.92-2-1.65-1.37-.73-1.51-.93-.88-1.26.36-.19.38-.18.95.13.46.25.66.31.95.25l.37-.08-.82-.67c-.45-.37-.89-.76-.97-.88-.24-.32-.7-.54-1.16-.54-.21 0-.41-.04-.47-.09l-.01-.01c-.13-.23.26-.34 1.34-.38 1.46-.06 1.66-.23.66-.55-.4-.13-1-.29-1.33-.36-.41-.09-.63-.18-.69-.29-.01-.01-.01-.03-.01-.04v-.03c0-.04.03-.08.07-.12.07-.08.39-.07.95.03.62.11.96.13 1.02.06.06-.08-.22-.29-.86-.64-.58-.32-1.3-.84-1.64-1.16-.33-.32-.82-.69-1.08-.82-.35-.17-.46-.28-.42-.41.08-.23.63-.23.99 0 .14.09.53.17.85.16h.58l-.38-.16c-.38-.16-1.43-.9-1.51-1.07v-.01c.04-.03.28-.04.57-.03l.58.03-.84-.65c-.61-.47-.99-.68-1.42-.77-.33-.07-.7-.15-.83-.18-.35-.08-.93-.69-1.17-1.22l-.2-.49zm-1.91 3.26h.04c.11 0 .18.03.22.07v.01c0 .01.01.01.01.02V12c-.02.07-.15.21-.27.31-.1.07-.15.11-.19.1h-.01l-.01-.01c-.02-.03-.03-.1-.03-.23.01-.25.05-.31.24-.32m2.82.3c.17 0 .28.08.3.2.03.16-.04.2-.3.2-.15 0-.23-.01-.27-.05-.03-.03-.04-.08-.02-.15.03-.13.13-.2.29-.2m-.82.06c.14-.01.2.07.2.26 0 .22-.08.29-.48.39-.25.06-.47.09-.52.07-.13-.15-.02-.34.32-.52.21-.12.37-.19.48-.2m1.9.01c.21-.01.24.09.14.39-.04.1-.18.18-.33.18-.21 0-.25-.05-.23-.26.02-.19.12-.27.32-.3.04-.01.07-.01.1-.01m-3.21.57h.02c.25 0 .09.48-.23.7-.29.2-.6.28-.69.2-.01 0-.01-.01-.01-.02v-.01-.01-.01-.01-.01c-.01-.25.61-.81.91-.83m2.39 1.11c.12-.01.2.12.15.36-.02.14-.14.23-.32.25-.14.02-.23.01-.26-.03v-.01-.01-.01c-.02-.06.05-.18.2-.38.07-.1.16-.16.23-.17m-.95.05h.02c.24 0 .28.21.06.34-.1.06-.2.11-.23.11-.02-.01-.15-.05-.3-.1l-.26-.09.3-.14c.14-.06.32-.11.41-.12m2.05.27c.11-.01.24.02.36.07.22.09.26.17.22.41-.06.33-.24.37-.85.17-.3-.09-.33-.14-.24-.34.1-.19.29-.3.51-.31m-4.54.08h.02c.45 0 .51.08.29.36-.07.1-.21.24-.31.32-.15.12-.2.11-.29-.09-.11-.23-.15-.39-.09-.48.05-.07.17-.11.38-.11m-1.17.2c.19-.01.31.08.46.34l.21.37-.32.12c-.29.11-.34.09-.58-.25-.15-.22-.21-.35-.17-.45 0-.01.01-.02.01-.03l.01-.01.01-.01c.05-.05.16-.08.33-.1.01.02.03.02.04.02m7.01 1.09c.21-.02.43.13.39.37-.04.31-.37.39-.64.17-.16-.13-.17-.18-.04-.37.07-.1.18-.16.29-.17m-3.98.57h.02c.02 0 .03 0 .05.01.01.01.02.01.03.02 0 0 .01 0 .01.01v.01c.03.04.04.11.03.21-.04.31-.25.41-.34.15-.07-.23.01-.39.2-.41m-1.33.24c.09-.01.24.05.38.17.1.08.14.16.14.22v.03l-.01.01s0 .01-.01.01v.01l-.01.01c-.06.05-.19.04-.34-.08-.12-.09-.22-.22-.23-.28v-.01c-.01-.04.03-.08.08-.09m2.11.05c.04 0 .08.04.16.12.09.1.2.29.24.42.09.32-.05.46-.34.31-.31-.16-.38-.41-.21-.69.07-.1.11-.15.15-.16m.74.44c.08-.01.18.11.21.3.02.12 0 .21-.04.24s0 0-.01 0c-.15 0-.24-.14-.24-.38 0-.1.03-.15.08-.16m-4.63.46c.15 0 .29.01.38.03.15.03.25.07.29.12l.03.03c0 .01 0 .01.01.02v.04c-.02.09-.15.2-.39.33-.2.1-.54.23-.76.27-.36.07-.4.04-.55-.28-.09-.19-.16-.37-.16-.4v-.01c.07-.07.69-.15 1.15-.15m7.19 1.05c.42-.02.64.26.19.61-.29.22-.72.23-.98.02-.19-.15-.18-.17.17-.41.21-.14.43-.21.62-.22m1.51.33h.02c.06 0 .2.07.32.16.2.16.2.17-.05.47-.13.15-.26.27-.31.28-.03-.01-.22-.04-.4-.07-.21-.03-.34-.11-.34-.22v-.02c.02-.16.54-.57.76-.6m-7.62.46h.07c.29 0 .44.24.44.66 0 .58-.35.53-.51-.07-.15-.51-.16-.58 0-.59m2.18.17c.17-.01.59.09.65.16-.01.04-.12.22-.25.41l-.25.33-.13-.43c-.06-.21-.1-.41-.1-.46.03-.01.05-.01.08-.01m-1.06.19c.03 0 .08.01.15.02.14.02.26.13.28.26.02.14.01.25-.02.3l-.01.01-.01.01-.01.01c-.01 0-.02.01-.02.01h-.03c-.07-.01-.16-.1-.24-.27-.09-.2-.13-.29-.12-.33 0 0 0-.01.01-.01-.01-.01 0-.01.02-.01" fill="#419f43"/></svg>