<svg xmlns="http://www.w3.org/2000/svg" viewBox="0 0 58.92 34.37"><path fill="#1c2a7d" d="M0 0h58.92v34.37H0z"/><path d="M12.39 7.01l-.11 3.58H8.66c-.45-.87-.82-1.6-.82-2.6 0-.84.66-1.5 1.61-1.5 1-.01 2.1.33 2.94.52M8.27 7.17v2.07-2.07z" fill="#f6d849"/><path d="M8.27 9.28c-.02 0-.04-.02-.04-.04V7.17c0-.05.09-.05.09 0v2.07c0 .02-.02.04-.05.04"/><path d="M8.57 6.96v2.75-2.75z" fill="#f6d849"/><path d="M8.57 9.76c-.02 0-.04-.02-.04-.04V6.96c0-.05.09-.05.09 0v2.75c-.01.03-.03.05-.05.05"/><path d="M8.86 6.81v3.28-3.28z" fill="#f6d849"/><path d="M8.86 10.14c-.02 0-.04-.02-.04-.04V6.82c0-.05.09-.05.09 0v3.28c-.01.02-.03.04-.05.04"/><path d="M9.15 6.75v2.57-2.57z" fill="#f6d849"/><path d="M9.15 9.36c-.02 0-.04-.02-.04-.04V6.75c0-.05.09-.05.09 0v2.57c-.01.02-.03.04-.05.04"/><path d="M9.44 6.73v2.6-2.6z" fill="#f6d849"/><path d="M9.44 9.38c-.02 0-.04-.02-.04-.04v-2.6c0-.05.09-.05.09 0v2.6c0 .02-.02.04-.05.04"/><path d="M9.73 6.64v2.69-2.69z" fill="#f6d849"/><path d="M9.73 9.37c-.02 0-.04-.02-.04-.04V6.64c0-.05.09-.05.09 0v2.69c0 .02-.02.04-.05.04"/><path d="M10.03 6.64v2.69-2.69z" fill="#f6d849"/><path d="M10.03 9.37c-.02 0-.04-.02-.04-.04V6.64c0-.05.09-.05.09 0v2.69c-.01.02-.03.04-.05.04"/><path d="M10.32 6.67v2.69-2.69z" fill="#f6d849"/><path d="M10.32 9.4c-.02 0-.04-.02-.04-.04V6.67c0-.05.09-.05.09 0v2.69c-.01.02-.03.04-.05.04"/><path d="M10.61 6.7v2.69V6.7z" fill="#f6d849"/><path d="M10.61 9.43c-.02 0-.04-.02-.04-.04V6.7c0-.05.09-.05.09 0v2.69c-.01.02-.03.04-.05.04"/><path d="M10.9 6.87v2.69-2.69z" fill="#f6d849"/><path d="M10.9 9.6c-.02 0-.04-.02-.04-.04V6.87c0-.05.09-.05.09 0v2.69c-.01.02-.03.04-.05.04"/><path d="M11.19 6.89v3.03-3.03z" fill="#f6d849"/><path d="M11.19 9.97c-.02 0-.04-.02-.04-.04V6.9c0-.05.09-.05.09 0v3.03c0 .02-.02.04-.05.04"/><path d="M11.48 6.89v2.69-2.69z" fill="#f6d849"/><path d="M11.48 9.62c-.02 0-.04-.02-.04-.04V6.89c0-.05.09-.05.09 0v2.69c0 .02-.02.04-.05.04"/><path d="M11.78 6.89v2.69-2.69z" fill="#f6d849"/><path d="M11.78 9.62c-.02 0-.04-.02-.04-.04V6.89c0-.05.09-.05.09 0v2.69c-.01.02-.03.04-.05.04"/><path d="M10.1 6.76c.62.1 1.97.74 1.82 1.59-.22 1.21-.93.73-1.87.55l-.71.24c-.25.26-.63.5-.88.18h-.42v1.65h4.66V6.99l-2.6-.23z"/><path d="M12.7 11.01H8.04l-.05-1.69.46-.04c.33.33.68 0 .85-.17l.73-.25c.2.03.38.08.54.12.25.07.47.12.66.12.25 0 .52-.09.65-.76.04-.21-.02-.41-.16-.61-.36-.51-1.18-.86-1.62-.93-.02 0-.04-.03-.04-.05 0-.02.02-.04.05-.04l2.59.24.04 4.02c0 .02-.02.04-.04.04M8.42 9.35l-.38.02.04 1.6 4.57-.04V6.99l-2.11-.16c.44.16.97.46 1.24.84.17.23.22.46.18.69-.1.58-.33.84-.73.84-.2 0-.43-.06-.68-.13-.16-.04-.33-.09-.51-.12l-.68.23c-.12.12-.37.34-.61.34-.13 0-.24-.06-.33-.17"/><path d="M12.47 6.47c0 .16-.13.28-.28.28s-.28-.13-.28-.28a.28.28 0 1 1 .56 0" fill="#f6d849"/><path d="M12.19 6.8c-.18 0-.33-.15-.33-.33 0-.18.14-.33.33-.33.18 0 .33.15.33.33 0 .18-.15.33-.33.33m0-.57c-.13 0-.24.11-.24.24s.11.24.24.24.24-.11.24-.24-.11-.24-.24-.24"/><path d="M11.84 6.32c0 .16-.13.28-.28.28s-.28-.13-.28-.28a.28.28 0 1 1 .56 0" fill="#f6d849"/><path d="M11.55 6.65c-.18 0-.33-.15-.33-.33 0-.18.15-.33.33-.33.18 0 .33.15.33.33 0 .09-.03.17-.1.23-.06.06-.14.1-.23.1m0-.57c-.13 0-.24.11-.24.24 0 .2.27.31.41.17a.241.241 0 0 0-.17-.41"/><path d="M11.19 6.16c0 .16-.13.28-.28.28s-.28-.13-.28-.28c0-.16.13-.28.28-.28.16 0 .28.12.28.28" fill="#f6d849"/><path d="M10.91 6.48c-.18 0-.33-.15-.33-.33 0-.18.15-.33.33-.33.18 0 .33.15.33.33 0 .19-.15.33-.33.33m0-.56c-.13 0-.24.11-.24.24s.11.24.24.24.24-.11.24-.24-.11-.24-.24-.24"/><path d="M10.54 6.05a.28.28 0 1 1-.56 0c0-.16.13-.28.28-.28.16 0 .28.12.28.28z" fill="#f6d849"/><path d="M10.26 6.38c-.18 0-.33-.15-.33-.33 0-.18.15-.33.33-.33.18 0 .33.15.33.33 0 .18-.15.33-.33.33m0-.57c-.13 0-.24.11-.24.24s.11.24.24.24.24-.11.24-.24-.11-.24-.24-.24"/><path d="M9.9 5.99a.28.28 0 1 1-.56 0c0-.16.13-.28.28-.28.15-.01.28.12.28.28" fill="#f6d849"/><path d="M9.61 6.31c-.18 0-.33-.15-.33-.33 0-.18.14-.33.33-.33.18 0 .33.15.33.33 0 .19-.15.33-.33.33m0-.56c-.13 0-.24.11-.24.24s.11.24.24.24.24-.11.24-.24c0-.14-.1-.24-.24-.24"/><path d="M9.26 6.02c0 .16-.13.28-.28.28-.16 0-.28-.12-.28-.28 0-.16.13-.28.28-.28.15 0 .28.13.28.28" fill="#f6d849"/><path d="M8.98 6.35c-.18 0-.33-.15-.33-.33 0-.09.03-.17.1-.23.18-.19.56-.04.56.23 0 .18-.15.33-.33.33m0-.57a.26.26 0 0 0-.17.07c-.05.05-.07.11-.07.17 0 .13.11.24.24.24s.24-.11.24-.24-.11-.24-.24-.24"/><path d="M8.66 6.23c0 .15-.13.28-.28.28s-.29-.12-.29-.28c0-.16.13-.28.28-.28s.29.12.29.28z" fill="#f6d849"/><path d="M8.37 6.56c-.18 0-.33-.15-.33-.33.01-.27.38-.42.56-.23.06.06.1.14.1.23 0 .18-.15.33-.33.33m0-.57c-.13 0-.24.11-.24.24s.11.24.24.24.24-.11.24-.24-.1-.24-.24-.24"/><path d="M8.15 6.61c0 .16-.13.28-.28.28s-.29-.13-.29-.28c0-.16.13-.28.28-.28s.29.12.29.28z" fill="#f6d849"/><path d="M7.86 6.93c-.18 0-.33-.15-.33-.33 0-.18.15-.33.33-.33.18 0 .33.15.33.32 0 .2-.15.34-.33.34m0-.56c-.13 0-.24.11-.24.24s.11.24.24.24c.14-.01.24-.11.24-.24 0-.14-.1-.24-.24-.24"/><path d="M7.79 7.13a.28.28 0 1 1-.56 0 .28.28 0 1 1 .56 0z" fill="#f6d849"/><path d="M7.5 7.46c-.18 0-.33-.15-.33-.33 0-.09.03-.17.1-.23.19-.19.56-.04.56.23 0 .18-.15.33-.33.33m0-.57c-.06 0-.12.03-.17.07a.26.26 0 0 0-.07.17c0 .13.11.24.24.24s.24-.11.24-.24-.11-.24-.24-.24"/><path d="M7.61 7.74a.28.28 0 1 1-.56 0c0-.16.13-.28.28-.28.15 0 .28.13.28.28z" fill="#f6d849"/><path d="M7.33 8.07c-.18 0-.33-.15-.33-.33 0-.18.15-.33.33-.33.18 0 .33.15.33.32-.01.19-.15.34-.33.34m0-.57c-.13 0-.24.11-.24.24s.11.24.24.24.24-.11.24-.24-.11-.24-.24-.24"/><path d="M7.62 8.38c0 .16-.13.28-.28.28s-.29-.12-.29-.28c0-.16.13-.28.28-.28s.29.13.29.28" fill="#f6d849"/><path d="M7.33 8.71c-.18 0-.33-.14-.33-.32s.15-.33.33-.33c.18 0 .32.15.32.33.01.17-.14.32-.32.32m0-.57c-.13 0-.24.11-.24.24s.11.24.24.24.24-.11.24-.24-.11-.24-.24-.24"/><path d="M7.74 9.01c0 .16-.13.28-.28.28s-.29-.13-.29-.28c0-.16.13-.28.28-.28s.29.12.29.28z" fill="#f6d849"/><path d="M7.45 9.33c-.18 0-.33-.15-.33-.33 0-.18.15-.33.33-.33.18 0 .33.15.33.33 0 .19-.15.33-.33.33m0-.56c-.13 0-.24.11-.24.24s.11.24.24.24.24-.11.24-.24-.1-.24-.24-.24"/><path d="M12.32 6.85l-.03.37c-.7-.11-1.7-.5-2.63-.5-.86 0-1.53.34-1.53 1.21 0 .86.36 1.63.84 2.42l-.5.24c-.45-.87-.82-1.6-.82-2.6 0-.84.66-1.66 1.79-1.66 1.01-.01 2.03.33 2.88.52" fill="#f6d849"/><path d="M8.47 10.63c-.02 0-.03-.01-.04-.02-.42-.82-.82-1.6-.82-2.63 0-.82.64-1.7 1.83-1.7.77 0 1.55.2 2.25.37.22.05.43.11.63.15l.01.41h-.01c-.3 0-.59-.07-.9-.15-.55-.14-1.18-.31-1.77-.31-.55 0-1.48.15-1.48 1.17 0 .9.42 1.72.84 2.4l-.52.3c-.01.01-.01.01-.02.01m.98-4.26c-1.14 0-1.75.83-1.75 1.61 0 .99.38 1.75.79 2.55l.46-.22c-.43-.63-.86-1.46-.86-2.38 0-.8.57-1.25 1.57-1.25.6 0 1.24.16 1.79.31.31.08.6.16.85.19l-.02-.33c-.17 0-.38-.05-.6-.11-.69-.18-1.48-.37-2.23-.37"/><path d="M13.04 7.01l.1 3.58h3.63c.45-.87.82-1.6.82-2.6 0-.84-.66-1.5-1.61-1.5-1-.01-2.1.33-2.94.52M17.16 7.17v2.07-2.07z" fill="#f6d849"/><path d="M17.16 9.28c-.02 0-.04-.02-.04-.04V7.17c0-.05.09-.05.09 0v2.07c-.01.02-.03.04-.05.04"/><path d="M16.86 6.96v2.75-2.75z" fill="#f6d849"/><path d="M16.86 9.76c-.02 0-.04-.02-.04-.04V6.96c0-.05.09-.05.09 0v2.75c0 .03-.02.05-.05.05"/><path d="M16.57 6.81v3.28-3.28z" fill="#f6d849"/><path d="M16.57 10.14c-.02 0-.04-.02-.04-.04V6.82c0-.05.09-.05.09 0v3.28c0 .02-.02.04-.05.04"/><path d="M16.28 6.75v2.57-2.57z" fill="#f6d849"/><path d="M16.28 9.36c-.02 0-.04-.02-.04-.04V6.75c0-.05.09-.05.09 0v2.57c-.01.02-.03.04-.05.04"/><path d="M15.99 6.73v2.6-2.6z" fill="#f6d849"/><path d="M15.99 9.38c-.02 0-.04-.02-.04-.04v-2.6c0-.05.09-.05.09 0v2.6c-.01.02-.03.04-.05.04"/><path d="M15.7 6.64v2.69-2.69z" fill="#f6d849"/><path d="M15.7 9.37c-.02 0-.04-.02-.04-.04V6.64c0-.05.09-.05.09 0v2.69c-.01.02-.03.04-.05.04"/><path d="M15.41 6.64v2.69-2.69z" fill="#f6d849"/><path d="M15.41 9.37c-.02 0-.04-.02-.04-.04V6.64c0-.05.09-.05.09 0v2.69c-.01.02-.03.04-.05.04"/><path d="M15.11 6.67v2.69-2.69z" fill="#f6d849"/><path d="M15.11 9.4c-.02 0-.04-.02-.04-.04V6.67c0-.05.09-.05.09 0v2.69c0 .02-.02.04-.05.04"/><path d="M14.82 6.7v2.69V6.7z" fill="#f6d849"/><path d="M14.82 9.43c-.02 0-.04-.02-.04-.04V6.7c0-.05.09-.05.09 0v2.69c0 .02-.02.04-.05.04"/><path d="M14.53 6.87v2.69-2.69z" fill="#f6d849"/><path d="M14.53 9.6c-.02 0-.04-.02-.04-.04V6.87c0-.05.09-.05.09 0v2.69c-.01.02-.03.04-.05.04"/><path d="M14.24 6.89v3.03-3.03z" fill="#f6d849"/><path d="M14.24 9.97c-.02 0-.04-.02-.04-.04V6.9c0-.05.09-.05.09 0v3.03c-.01.02-.03.04-.05.04"/><path d="M13.95 6.89v2.69-2.69z" fill="#f6d849"/><path d="M13.95 9.62c-.02 0-.04-.02-.04-.04V6.89c0-.05.09-.05.09 0v2.69c-.01.02-.03.04-.05.04"/><path d="M13.65 6.89v2.69-2.69z" fill="#f6d849"/><path d="M13.65 9.62c-.02 0-.04-.02-.04-.04V6.89c0-.05.09-.05.09 0v2.69c0 .02-.02.04-.05.04"/><path d="M15.33 6.76c-.62.1-1.97.74-1.82 1.59.22 1.21.93.73 1.87.55l.71.24c.25.26.63.5.88.18h.42v1.65h-4.66V6.99l2.6-.23z"/><path d="M17.39 11.01h-4.66l-.04-4.02 2.63-.28c.02 0 .04.01.05.04 0 .02-.01.05-.04.05-.44.07-1.26.42-1.62.93-.14.2-.2.41-.16.61.12.67.39.76.64.76.19 0 .41-.06.66-.12.16-.04.34-.09.52-.12l.73.24c.2.19.61.48.84.2l.45-.02.04 1.69c.01.02-.01.04-.04.04m-2.53-4.17l-2.12.19.04 3.93 4.57-.04v-1.6l-.38.04c-.05.09-.16.15-.29.15-.25 0-.5-.22-.62-.35l-.69-.23c-.16.03-.33.08-.49.12-.25.06-.48.13-.68.13-.4 0-.63-.26-.73-.84-.04-.23.02-.46.17-.68.27-.36.78-.66 1.22-.82"/><path d="M12.96 6.47c0 .16.13.28.28.28.15 0 .28-.13.28-.28a.28.28 0 1 0-.56 0" fill="#f6d849"/><path d="M13.24 6.8c-.18 0-.33-.15-.33-.33 0-.18.15-.33.33-.33.18 0 .32.15.32.33.01.18-.14.33-.32.33m0-.57c-.13 0-.24.11-.24.24s.11.24.24.24.24-.11.24-.24-.11-.24-.24-.24"/><path d="M13.59 6.32c0 .16.13.28.28.28s.28-.13.28-.28a.28.28 0 1 0-.56 0" fill="#f6d849"/><path d="M13.87 6.65c-.18 0-.33-.15-.33-.33 0-.18.15-.33.33-.33.18 0 .33.15.33.33 0 .18-.14.33-.33.33m0-.57c-.13 0-.24.11-.24.24s.11.24.24.24.24-.11.24-.24-.1-.24-.24-.24"/><path d="M14.24 6.16a.28.28 0 1 0 .56 0 .28.28 0 1 0-.56 0" fill="#f6d849"/><path d="M14.52 6.48c-.18 0-.33-.15-.33-.33 0-.18.15-.33.33-.33.18 0 .32.15.32.33 0 .09-.03.17-.09.23a.29.29 0 0 1-.23.1m0-.56c-.13 0-.24.11-.24.24s.11.24.24.24c.06 0 .12-.02.17-.07.05-.04.07-.1.07-.17 0-.13-.11-.24-.24-.24"/><path d="M14.88 6.05a.28.28 0 1 0 .56 0 .28.28 0 1 0-.56 0z" fill="#f6d849"/><path d="M15.17 6.38c-.18 0-.33-.15-.33-.33 0-.27.37-.42.56-.23.06.06.1.14.09.23 0 .18-.14.33-.32.33m0-.57c-.13 0-.24.11-.24.24s.11.24.24.24.24-.11.24-.24c0-.06-.02-.12-.07-.17a.284.284 0 0 0-.17-.07"/><path d="M15.53 5.99c0 .16.13.28.28.28s.28-.13.28-.28a.28.28 0 1 0-.56 0" fill="#f6d849"/><path d="M15.82 6.31c-.09 0-.17-.03-.23-.09a.324.324 0 0 1 .24-.55c.18 0 .33.15.33.33-.02.17-.16.31-.34.31m0-.56c-.13 0-.24.11-.24.24 0 .06.02.12.07.17.14.14.41.03.41-.17 0-.13-.11-.24-.24-.24"/><path d="M16.17 6.02c0 .16.13.28.28.28s.28-.13.28-.28c0-.16-.13-.28-.28-.28s-.28.13-.28.28" fill="#f6d849"/><path d="M16.45 6.35c-.18 0-.33-.15-.33-.33 0-.18.15-.33.33-.33.18 0 .33.15.33.33 0 .18-.15.33-.33.33m0-.57c-.13 0-.24.11-.24.24s.11.24.24.24.24-.11.24-.24-.11-.24-.24-.24"/><path d="M16.77 6.23c0 .15.13.28.28.28a.28.28 0 1 0 0-.56.28.28 0 0 0-.28.28z" fill="#f6d849"/><path d="M17.06 6.56c-.18 0-.33-.15-.33-.33 0-.18.15-.33.33-.33.18 0 .33.15.33.33-.01.18-.15.33-.33.33m0-.57c-.06 0-.12.03-.17.07a.26.26 0 0 0-.07.17c0 .13.11.24.24.24s.24-.11.24-.24-.11-.24-.24-.24"/><path d="M17.28 6.61c0 .16.13.28.28.28s.28-.13.28-.28a.28.28 0 1 0-.56 0z" fill="#f6d849"/><path d="M17.57 6.93c-.18 0-.33-.15-.33-.33 0-.18.15-.33.33-.33.18 0 .33.15.33.33-.01.19-.15.33-.33.33m0-.56c-.13 0-.24.11-.24.24s.11.24.24.24.24-.11.24-.24c0-.14-.11-.24-.24-.24"/><path d="M17.65 7.13c0 .16.13.28.28.28s.28-.13.28-.28a.28.28 0 1 0-.56 0z" fill="#f6d849"/><path d="M17.93 7.46c-.18 0-.33-.15-.33-.33 0-.18.15-.33.33-.33.18 0 .33.15.33.33 0 .18-.15.33-.33.33m0-.57c-.13 0-.24.11-.24.24s.11.24.24.24.24-.11.24-.24-.11-.24-.24-.24"/><path d="M17.82 7.74a.28.28 0 1 0 .56 0 .28.28 0 0 0-.28-.28c-.15 0-.28.13-.28.28z" fill="#f6d849"/><path d="M18.1 8.07c-.18 0-.33-.15-.33-.33 0-.18.15-.33.33-.33.18 0 .33.15.33.33 0 .18-.15.33-.33.33m0-.57c-.13 0-.24.11-.24.24s.11.24.24.24.24-.11.24-.24-.1-.24-.24-.24"/><path d="M17.81 8.38a.28.28 0 1 0 .56 0 .28.28 0 0 0-.28-.28c-.15 0-.28.13-.28.28" fill="#f6d849"/><path d="M18.1 8.71c-.18 0-.33-.14-.33-.32s.15-.33.33-.33c.18 0 .33.15.33.33-.01.17-.15.32-.33.32m0-.57c-.13 0-.24.11-.24.24s.11.24.24.24.24-.11.24-.24-.11-.24-.24-.24"/><path d="M17.69 9.01c0 .16.13.28.28.28s.28-.13.28-.28a.28.28 0 1 0-.56 0z" fill="#f6d849"/><path d="M17.97 9.33c-.18 0-.33-.15-.33-.33 0-.18.15-.33.33-.33.18 0 .33.15.33.33 0 .19-.14.33-.33.33m.01-.56c-.13 0-.24.11-.24.24s.11.24.24.24.24-.11.24-.24c-.01-.13-.11-.24-.24-.24"/><path d="M13.11 6.85l.03.37c.7-.11 1.7-.5 2.63-.5.86 0 1.53.34 1.53 1.21 0 .86-.36 1.63-.84 2.42l.5.24c.45-.87.82-1.6.82-2.6 0-.84-.66-1.66-1.79-1.66-1.01-.01-2.03.33-2.88.52" fill="#f6d849"/><path d="M16.96 10.63h-.02l-.5-.24c.4-.74.82-1.56.82-2.46 0-1.02-.93-1.17-1.48-1.17-.59 0-1.22.16-1.77.31-.31.08-.6.15-.86.19l-.08-.41c.23-.09.44-.15.66-.2.69-.17 1.48-.37 2.25-.37 1.19 0 1.83.88 1.83 1.7 0 1.04-.4 1.81-.82 2.63 0 .01-.02.02-.03.02m-1.19-3.96c1 0 1.57.46 1.57 1.25 0 .92-.43 1.75-.85 2.45l.44.16c.41-.8.79-1.55.79-2.55 0-.78-.61-1.62-1.75-1.62-.76 0-1.54.2-2.23.37-.22.06-.43.11-.63.16l.06.32c.2-.08.49-.15.8-.23.57-.14 1.2-.31 1.8-.31"/><path fill="#bc0030" d="M0 17.19h58.92v17.19H0z"/><path d="M12.72 3.04l-.3.55.3.55.29-.55-.29-.55zm0 1.4l-.3.55.3.55.29-.55-.29-.55z" fill="#f6d849"/><path d="M12.72 5.59c-.02 0-.03-.01-.04-.02l-.3-.56.3-.59c.01-.01.02-.02.04-.02s.03.01.04.02l.29.55-.29.6c-.01.01-.03.02-.04.02m0-1.06l-.26.48.26.44.26-.48-.26-.44zm0-.34c-.02 0-.03-.01-.04-.02l-.3-.55.3-.59c.01-.02.02-.03.04-.03s.03.01.04.02l.29.55-.29.59c-.01.02-.03.03-.04.03m0-1.06l-.26.48.26.44.26-.48-.26-.44z"/><path d="M11.66 4.3l.46.3.47-.3-.46-.3-.47.3zm1.18 0l.46.3.47-.3-.47-.3-.46.3z" fill="#f6d849"/><path d="M13.3 4.63c-.01 0-.02 0-.02-.01l-.46-.3c-.01-.01-.02-.02-.02-.04s.01-.03.02-.04l.46-.3.51.3c.01.01.02.02.02.04s-.01.03-.02.04l-.47.3c0 .01-.01.01-.02.01m-.38-.34l.39.25.39-.24-.41-.26-.37.25zm-.79.34c-.01 0-.02 0-.02-.01l-.47-.3c-.01-.01-.02-.02-.02-.04s.01-.03.02-.04l.47-.3.51.3c.01.01.02.02.02.04s-.01.03-.02.04l-.47.3c-.01.01-.01.01-.02.01m-.39-.34l.39.25.38-.24-.41-.26-.36.25z"/><path d="M12.94 4.3c0 .13-.1.23-.22.23-.13 0-.22-.1-.22-.23 0-.12.1-.22.22-.22s.22.1.22.22" fill="#f6d849"/><path d="M12.72 4.57c-.15 0-.27-.12-.27-.27 0-.15.12-.27.27-.27.15 0 .27.12.27.27-.01.15-.13.27-.27.27m0-.45c-.1 0-.18.08-.18.18 0 .2.36.2.36 0-.01-.1-.09-.18-.18-.18"/><path d="M13.31 5.73c0 .33-.27.6-.6.6-.33 0-.6-.27-.6-.6 0-.33.27-.6.6-.6.34 0 .6.27.6.6" fill="#f6d849"/><path d="M12.72 6.37c-.35 0-.64-.29-.64-.64 0-.36.29-.64.64-.64.35 0 .64.29.64.64 0 .35-.29.64-.64.64m0-1.2a.56.56 0 0 0-.56.56c0 .31.25.55.56.55.31 0 .56-.25.56-.55a.572.572 0 0 0-.56-.56"/><path d="M13.29 5.92c-.39-.07-.77-.07-1.15 0-.03.01-.05-.01-.05-.03 0-.02.01-.05.04-.05.39-.07.78-.07 1.17 0 .02 0 .04.03.04.05-.01.01-.02.03-.05.03m0-.3c-.14-.02-.29-.04-.43-.04l-.04-.42c0-.05.09-.05.09 0v.38c.1-.04.25-.02.39 0 .02 0 .04.03.04.05-.01.01-.03.03-.05.03m-1.15 0c-.02 0-.04-.02-.04-.04s.01-.04.04-.05c.14-.02.28-.04.43-.05l-.05-.08v-.25c0-.05.09-.05.09 0v.38c-.19.05-.33.06-.47.09z"/><path d="M12.13 6.74c-.06.98-.17 1.98-.55 2.7l.62-.25c.22-.82.26-1.88.33-2.38l-.4-.07zm1.17 0l-.4.07c.07.5.11 1.56.33 2.38l.62.25c-.38-.72-.49-1.72-.55-2.7" fill="#f6d849"/><path d="M11.58 9.49c-.01 0-.02-.01-.03-.02-.01-.01-.02-.03-.01-.05.39-.74.49-1.77.55-2.68l.44.03c.02.18 0 .36-.02.55-.05.54-.11 1.28-.27 1.88l-.64.28c-.01 0-.02.01-.02.01m.54-2.7c0 .84-.1 1.83-.45 2.57l.51-.21c.13-.57.2-1.3.25-1.84.02-.2.03-.38.05-.51l-.36-.01zm1.73 2.7h-.02l-.62-.25c-.19-.63-.25-1.36-.3-1.9-.02-.2-.04-.38-.05-.52l.43-.11c.1.95.21 1.98.6 2.72.01.02.01.03-.01.05 0 0-.01.01-.03.01m-.59-2.75l-.35.11c.05.09.07.27.09.47.05.53.12 1.26.27 1.86l.49.18c-.35-.74-.45-1.73-.5-2.62"/><path d="M12.71 8.86c-.74 0-1.28.35-1.32 1.24-.18-.32-.95-1.32-1.66-1.18-.42.07-.79.66-.73 1.34-.35-1.01-1.38-1.18-2.13-.58.67.55.96 2.17 1.53 2.87h8.64c.56-.7.86-2.32 1.53-2.87-.75-.59-1.78-.43-2.13.58.06-.67-.32-1.26-.74-1.34-.71-.13-1.48.87-1.66 1.18-.04-.89-.59-1.24-1.33-1.24" fill="#f6d849"/><path d="M17.03 12.59H8.4c-.29-.33-.48-.82-.68-1.32-.25-.62-.5-1.26-.87-1.56.29-.3.63-.42.96-.42.5 0 .91.27 1.15.74.03-.61.4-1.09.78-1.16.7-.13 1.38.71 1.64 1.09.08-.74.55-1.15 1.35-1.15s1.28.41 1.35 1.15c.25-.38.95-1.22 1.63-1.09.37.07.75.54.78 1.16.24-.47.65-.74 1.15-.74.33 0 .67.13.96.36-.36.37-.62 1.01-.87 1.63-.21.51-.4.99-.65 1.31h-.05M7.8 9.38c-.31 0-.63.12-.91.34.38.25.64.89.89 1.52.2.5.39.98.64 1.29l8.58-.02c.24-.31.43-.77.63-1.27.25-.63.52-1.28.9-1.59-.27-.15-.59-.27-.91-.27-.53 0-.96.33-1.16.9-.01.02-.03.03-.05.03-.02 0-.04-.03-.03-.05.06-.67-.32-1.22-.7-1.29-.64-.12-1.39.77-1.61 1.16-.01.02-.03.03-.05.02-.02-.01-.03-.02-.03-.04-.04-.99-.71-1.2-1.27-1.2s-1.24.21-1.27 1.2c0 .02-.02.03-.03.04-.02 0-.04 0-.05-.02-.14-.25-.9-1.3-1.62-1.16-.38.07-.76.62-.7 1.29 0 .02-.01.04-.03.05-.02 0-.04-.01-.05-.03-.2-.57-.64-.9-1.17-.9"/><path d="M17.02 12.55c0 .32-1.93.67-4.3.67-2.38 0-4.3-.35-4.3-.67 0-.32 1.93-.49 4.3-.49s4.3.17 4.3.49"/><path d="M12.72 13.26c-2.32 0-4.35-.33-4.35-.71 0-.49 3.33-.53 4.35-.53 1.02 0 4.35.04 4.35.53-.01.38-2.04.71-4.35.71m0-1.16c-2.8 0-4.26.23-4.26.45 0 .25 1.79.63 4.26.63 2.47 0 4.26-.38 4.26-.63 0-.22-1.47-.45-4.26-.45"/><path d="M12.92 6.56a.2.2 0 0 1-.2.2.2.2 0 0 1-.2-.2c0-.11.09-.2.2-.2.11 0 .2.09.2.2" fill="#f6d849"/><path d="M12.72 6.8c-.14 0-.24-.11-.24-.24 0-.06.02-.13.07-.17.14-.14.42-.03.42.17a.26.26 0 0 1-.25.24m0-.4a.16.16 0 0 0-.11.05.15.15 0 0 0-.04.11c0 .18.31.17.31 0-.01-.09-.08-.16-.16-.16"/><path d="M12.93 6.99c0 .12-.1.21-.21.21-.12 0-.22-.1-.22-.21 0-.12.1-.21.22-.21.11 0 .21.09.21.21z" fill="#f6d849"/><path d="M12.72 7.25c-.14 0-.26-.12-.26-.26s.12-.26.26-.26.26.11.26.26c-.01.14-.12.26-.26.26m0-.43c-.1 0-.17.08-.17.17 0 .19.34.19.34 0-.01-.09-.08-.17-.17-.17"/><path d="M12.95 7.46c0 .13-.11.23-.23.23-.13 0-.23-.1-.23-.23s.1-.23.23-.23c.12 0 .23.1.23.23" fill="#f6d849"/><path d="M12.72 7.73a.28.28 0 1 1 0-.56c.15 0 .27.12.28.28-.01.16-.13.28-.28.28m0-.46a.19.19 0 0 0-.19.19c0 .21.38.21.38 0-.01-.11-.09-.19-.19-.19"/><path d="M12.98 7.98c0 .15-.12.27-.27.27-.15 0-.27-.12-.27-.27 0-.15.12-.27.27-.27.15 0 .27.12.27.27" fill="#f6d849"/><path d="M12.72 8.29c-.17 0-.31-.14-.31-.31 0-.17.14-.31.31-.31.17 0 .31.14.31.31-.01.17-.14.31-.31.31m0-.54c-.12 0-.22.1-.22.23 0 .12.1.22.22.22s.22-.1.22-.22-.1-.23-.22-.23"/><path d="M13.01 8.56a.29.29 0 1 1-.29-.29c.16-.01.29.13.29.29" fill="#f6d849"/><path d="M12.72 8.9c-.19 0-.34-.15-.34-.34a.335.335 0 0 1 .67 0c0 .18-.15.34-.33.34m0-.59c-.14 0-.25.11-.25.25s.11.25.25.25.25-.11.25-.25c-.01-.14-.12-.25-.25-.25M12.6 9.12c-.03 0-.06.03-.05.08.01.06.02.17.03.25.01.09.06.06.08 0 .01-.07.01-.11.01-.23-.01-.07-.04-.1-.07-.1m.23 0c-.03 0-.07.03-.07.09 0 .12 0 .17.01.23.01.07.06.09.08 0 .01-.08.02-.19.03-.25a.054.054 0 0 0-.05-.07m-.44.04c-.03 0-.06.03-.06.06 0 .06.02.13.03.21.01.09.07.05.08 0 .01-.05.01-.13.01-.23 0-.04-.02-.05-.04-.05-.01 0-.02 0-.02.01m.64 0c-.02 0-.04.02-.04.05-.01.1 0 .17.01.23.01.05.07.08.08 0 .01-.09.02-.15.02-.21 0-.03-.03-.06-.06-.06-.01-.02-.01-.02-.01-.01m-.89.09c-.03.01-.05.04-.04.07.02.08.03.16.03.23 0 .06.06.04.06 0s.01-.14.01-.22c0-.06-.03-.08-.06-.08m1.13 0c-.02.01-.04.03-.04.07 0 .09.01.18.01.22.01.05.06.07.06 0s.01-.15.03-.23c.01-.03-.02-.07-.04-.07-.01.01-.01.01-.02.01m-3.39.01c-.03 0-.05.04-.03.09.03.08.07.12.11.21.03.07.08.03.07-.02-.02-.05-.03-.11-.08-.21-.02-.05-.05-.07-.07-.07m5.66 0c-.02 0-.04.02-.06.06-.05.11-.07.16-.08.21-.02.05.03.1.07.02.03-.08.07-.13.11-.21.02-.03 0-.08-.04-.08m-5.43.01c-.02.01-.04.04-.02.07.03.07.07.14.1.22.02.07.08.05.06-.01-.02-.06-.03-.1-.06-.21-.02-.06-.05-.08-.08-.07m5.19 0c-.02 0-.04.02-.06.07-.04.11-.04.15-.06.21-.02.06.04.08.06.01.03-.07.07-.15.1-.22.01-.03 0-.06-.02-.07h-.02m-4.9.05c-.03.01-.05.05-.03.1.03.07.06.14.09.22.03.08.08.06.07.01-.01-.05-.03-.13-.07-.26-.01-.05-.04-.07-.06-.07m4.63 0c-.02 0-.05.02-.07.07-.04.13-.05.21-.07.26-.01.05.04.07.07-.01.04-.07.08-.14.1-.21.02-.06 0-.1-.03-.11m-5.34.04c-.03 0-.06.05-.04.09.03.07.05.09.08.16s.07.02.06-.03c-.01-.05-.03-.1-.05-.16-.01-.04-.03-.06-.05-.06m6.05 0c-.02 0-.04.01-.05.06-.02.06-.03.11-.04.16-.01.04.02.1.05.03.03-.07.05-.09.08-.15.02-.04-.01-.09-.04-.1m-3.84.16c-.04 0-.07.04-.06.09.02.07.05.13.07.21.02.08.07.04.07-.01s-.01-.12-.03-.23c-.01-.04-.03-.06-.05-.06m1.63 0c-.02 0-.04.02-.05.06-.02.11-.03.18-.04.23 0 .05.05.09.07.01.02-.09.05-.15.07-.21.02-.04-.01-.09-.05-.09m-.81.07c-.04 0-.05.06-.05.1a.76.76 0 0 1-.12.36c-.05.07-.13.05-.2.01s-.11-.07-.19-.12c-.08-.06-.13-.02-.04.1.26.38.55.7.55 1.31 0 .08.01.1.05.1.03 0 .05-.02.05-.1 0-.62.29-.94.55-1.31.09-.13.03-.16-.04-.1-.08.06-.12.09-.19.12-.07.04-.15.06-.2-.01a.76.76 0 0 1-.12-.36c-.01-.04-.01-.1-.05-.1m-2.03-.09h-.01c-.02 0-.03.02-.02.06.01.06.05.17.07.22.01.05.08.04.06-.03-.01-.07-.01-.09-.03-.18-.01-.04-.04-.07-.07-.07m4.05 0c-.03 0-.06.03-.07.07-.02.08-.02.1-.03.18-.02.07.05.09.07.03.02-.05.05-.17.07-.22-.01-.04-.02-.06-.04-.06zm-5.25.02c-.03 0-.06.04-.02.1.04.07.1.15.13.2.03.05.08.02.04-.04s-.05-.13-.09-.21c-.01-.04-.04-.05-.06-.05m6.45 0c-.02 0-.04.01-.06.04-.04.09-.05.15-.09.21-.04.06.01.09.04.04.03-.05.09-.13.13-.2.03-.04.01-.09-.02-.09m-8.26.19c-.04 0-.05.07-.01.11.05.07.09.1.15.16.05.04.06-.01.04-.06-.04-.04-.07-.08-.12-.15-.02-.04-.05-.06-.06-.06m10.07 0c-.02 0-.04.02-.07.06-.05.07-.08.11-.11.16-.02.04-.01.1.04.06.06-.06.09-.09.15-.16.04-.05.03-.12-.01-.12m-9.78.06c-.03 0-.05.02-.03.07.03.08.08.16.11.22s.11.08.08-.01c-.04-.09-.05-.14-.08-.22-.01-.04-.05-.06-.08-.06m9.49 0c-.03 0-.07.02-.09.06-.03.08-.04.13-.07.22-.04.09.05.07.08.01l.11-.22c.02-.05.01-.07-.03-.07m-10.05.02c-.04 0-.05.04-.01.07.05.04.11.08.17.13.07.06.1.01.06-.04a.312.312 0 0 0-.17-.14c-.02-.02-.04-.02-.05-.02m10.61 0c-.01 0-.03 0-.06.02-.1.05-.13.1-.17.14-.04.05-.01.1.06.04.06-.05.12-.09.17-.13.05-.03.05-.07 0-.07m-6.28.04c-.02 0-.05.03-.04.07.02.07.04.14.05.21.01.07.09.07.08.01-.01-.06-.02-.14-.04-.23 0-.04-.02-.06-.05-.06zm1.94 0c-.02 0-.04.02-.04.05-.02.09-.03.17-.04.23-.01.06.06.06.08-.01.01-.07.03-.14.05-.21.01-.04-.01-.07-.04-.07h-.01zm-3.66-.11c-.02 0-.03.04-.02.09.08.29.11.44.09.52-.02.07-.05.08-.11.06a.827.827 0 0 1-.16-.09c-.05-.03-.1.01-.03.06.35.29.59.61.68 1.01.02.08.07.09.06 0-.08-.5-.09-.91.02-1.16.05-.1 0-.19-.07-.03-.05.1-.12.15-.19.05-.06-.09-.19-.33-.23-.44 0-.05-.02-.07-.04-.07m5.38 0c-.02 0-.03.02-.05.06-.04.11-.17.35-.23.44-.06.09-.14.05-.18-.05-.07-.16-.12-.06-.07.03.12.26.1.66.03 1.16-.01.09.04.08.05 0 .09-.39.33-.72.68-1.01.07-.06.02-.1-.03-.06-.05.03-.11.07-.16.09-.05.02-.09.01-.11-.06-.01-.07.01-.22.09-.52.02-.04.01-.08-.02-.08.01 0 .01 0 0 0m-7.13.14c-.03 0-.06.02-.04.07.02.07.07.15.09.2.02.05.07.03.06-.04-.01-.07-.01-.11-.03-.18-.01-.03-.05-.05-.08-.05m8.89 0c-.03 0-.07.02-.07.05-.01.07-.02.11-.03.18-.01.07.04.09.06.04.01-.05.06-.13.08-.21.01-.04-.01-.06-.04-.06m-7.81-.1c-.04-.01-.04.08-.01.12.04.05.1.11.16.18.05.06.08.01.05-.04-.04-.05-.08-.1-.15-.22-.02-.03-.04-.04-.05-.04m6.73 0c-.01 0-.03.02-.05.05-.08.12-.12.17-.15.22-.03.05 0 .1.05.04.06-.07.11-.13.15-.18.04-.05.04-.14 0-.13m-7.56.22c-.02 0-.04.02-.03.06.01.06.03.12.05.18.02.06.06.05.06-.01s-.01-.12-.02-.18c-.01-.03-.04-.04-.06-.05m8.39 0c-.02 0-.05.02-.05.05-.01.06-.02.13-.02.18s.04.07.06.01c.01-.06.03-.11.05-.18 0-.04-.02-.06-.04-.06m-7.64.09c-.04 0-.07.04-.03.09.07.09.14.15.16.18.03.03.09.02.05-.05-.04-.07-.11-.15-.13-.2-.01-.02-.03-.03-.05-.02m6.88 0c-.01 0-.03.01-.04.02-.03.05-.09.13-.14.2-.04.07.02.08.05.05.02-.03.1-.09.16-.18.04-.05.01-.09-.03-.09.01-.01 0-.01 0 0m-8.07.23c-.03 0-.04.02 0 .07.09.12.18.3.19.37.01.08-.03.08-.07.08-.1 0-.15-.08-.25-.1-.1-.02-.11.03-.04.08.35.25.7.53.84.79.06.11.13.14.09.04-.13-.31-.16-.56-.13-.72.03-.16.07-.26.06-.35 0-.09-.06-.08-.08 0-.01.06-.04.13-.06.16-.02.03-.1.04-.17-.05-.07-.1-.26-.29-.32-.33-.02-.02-.04-.03-.06-.04m9.26 0c-.02 0-.04.01-.06.03a5.2 5.2 0 0 0-.32.33c-.07.1-.15.08-.17.05a.487.487 0 0 1-.06-.16c-.02-.08-.07-.09-.08 0 0 .09.04.19.07.35.03.16-.01.41-.14.72-.04.1.03.06.09-.04.14-.26.49-.54.84-.79.07-.05.05-.1-.04-.08-.09.02-.14.1-.25.1-.03 0-.07 0-.07-.08.01-.07.1-.25.19-.37.04-.04.03-.06 0-.06"/><path d="M8.6 12.18l.11.36-.11-.36zm.23-.06l.1.36-.1-.36zm.25-.04l.07.36-.07-.36zm.23-.05l.07.36-.07-.36zM9.6 12l.06.36L9.6 12zm.32 0l.06.36-.06-.36zm.3-.1l.05.37-.05-.37zm.29.02l.05.37-.05-.37zm.28-.04l.05.37-.05-.37zm.28-.03l.03.37-.03-.37zm.3 0l.02.37-.02-.37zm.27-.02l.02.37-.02-.37zm.3-.02l.01.37-.01-.37zm.35-.01l.02.37-.02-.37zm4.54.38l-.11.36.11-.36zm-.23-.06l-.1.36.1-.36zm-.25-.04l-.07.36.07-.36zm-.23-.05l-.07.36.07-.36zm-.29-.03l-.06.36.06-.36zm-.32 0l-.06.36.06-.36zm-.3-.1l-.05.37.05-.37zm-.29.02l-.05.37.05-.37zm-.28-.04l-.05.37.05-.37zm-.28-.03l-.03.37.03-.37zm-.3 0l-.02.37.02-.37zm-.27-.02l-.02.37.02-.37zm-.3-.02l-.01.37.01-.37zm-.35-.01l-.01.37.01-.37zm-.42-.02v.41-.41z" fill="#ed00fd"/><path d="M16.72 12.58h-.01c-.02-.01-.04-.03-.03-.05l.11-.35c.01-.02.03-.03.05-.03.02.01.03.03.03.05l-.11.36c-.01.01-.02.02-.04.02m-8.01 0c-.02 0-.03-.01-.04-.03l-.11-.35c-.01-.02.01-.05.03-.05.02-.01.05 0 .05.03l.11.35c.01.02-.01.05-.03.05h-.01m7.79-.06h-.01c-.02-.01-.04-.03-.03-.06l.1-.36c.01-.02.03-.04.05-.03.02.01.04.03.03.06l-.1.36c0 .01-.02.03-.04.03m-7.57 0c-.02 0-.04-.01-.04-.03l-.1-.36c-.01-.03.01-.05.03-.06.02-.01.05.01.05.03l.1.36c.01.02-.01.05-.03.06h-.01m.22-.03c-.02 0-.04-.02-.04-.04l-.07-.36c0-.02.01-.05.03-.05.02-.01.05.01.05.03l.07.36c0 .03-.01.05-.04.06m7.13 0c-.03-.01-.05-.03-.04-.05l.07-.36c0-.02.03-.04.05-.03.02 0 .04.03.04.05l-.07.36c-.01.01-.02.03-.05.03m-.23-.05c-.03 0-.05-.03-.04-.05l.07-.36c0-.02.03-.04.05-.04.02 0 .04.03.03.05l-.07.36c0 .02-.02.04-.04.04m-6.67 0c-.02 0-.04-.01-.04-.04l-.07-.36c-.01-.02.01-.05.03-.05.02 0 .05.01.05.04l.07.36c.01.02-.01.04-.04.05zm6.07-.03c-.03 0-.05-.03-.04-.05l.07-.37c0-.02.02-.04.05-.03.02.01.04.03.03.05l-.06.36c-.01.03-.03.04-.05.04m-5.47 0c-.02 0-.04-.01-.04-.04l-.06-.36c-.01-.02.01-.04.04-.05.03-.01.05.01.05.03l.06.37c0 .02-.02.04-.05.05zm5.79 0c-.03 0-.05-.03-.04-.05l.06-.37c0-.02.02-.04.05-.03.02 0 .04.03.04.05l-.06.36c-.01.03-.03.04-.05.04m-6.11 0c-.02 0-.04-.01-.04-.04l-.06-.36c0-.02.01-.05.04-.05.02 0 .05.01.05.03l.06.37c0 .02-.02.04-.05.05zm5.21-.08c-.03-.01-.05-.03-.04-.05l.05-.37c0-.02.03-.04.05-.04.02 0 .04.02.04.05l-.05.37c-.01.02-.03.04-.05.04m-4.31 0c-.02 0-.04-.02-.04-.04l-.05-.37c0-.02.02-.04.04-.05.03-.01.04.01.05.04l.05.37c-.01.02-.02.04-.05.05m4.6-.02c-.03 0-.04-.03-.04-.05l.05-.37c0-.02.01-.04.05-.04.02 0 .04.02.04.05l-.05.37c-.01.02-.03.04-.05.04m-4.89 0c-.02 0-.04-.02-.04-.04l-.05-.37c0-.02.01-.05.04-.05.04 0 .04.01.05.04l.05.37c0 .02-.02.05-.05.05zm4.32-.02c-.03 0-.05-.02-.04-.05l.05-.37c0-.02.01-.05.05-.04.02 0 .04.02.04.05l-.05.37c-.01.02-.03.04-.05.04m-3.75 0c-.02 0-.04-.02-.04-.04l-.05-.37c0-.02.01-.04.04-.05.03 0 .05.01.05.04l.05.37c-.01.03-.02.05-.05.05zm3.2-.03c-.03 0-.05-.02-.04-.05l.02-.37c0-.02.01-.04.05-.04.02 0 .04.02.04.05l-.02.37c-.01.02-.03.04-.05.04m.29 0c-.03 0-.04-.02-.04-.05l.02-.37c0-.02.04-.03.05-.04.02 0 .04.02.04.05l-.03.37c0 .03-.01.04-.04.04m-3.23 0c-.02 0-.04-.02-.04-.04l-.02-.37c0-.02.02-.04.04-.05.04.01.04.02.05.04l.02.37c-.01.03-.03.05-.05.05zm.29 0c-.02 0-.04-.02-.04-.04l-.02-.37c0-.02.02-.04.04-.05.05.01.05.02.05.04l.02.37c0 .03-.02.05-.05.05zm2.38-.02c-.03 0-.04-.02-.04-.05l.02-.37c0-.02.02-.03.04-.04.03 0 .04.02.04.05l-.02.37c0 .03-.02.04-.04.04m-2.11 0c-.02 0-.04-.02-.04-.04l-.02-.37c0-.02.02-.04.04-.05.03.01.04.02.04.04l.02.37c.01.03-.01.05-.04.05zm1.06-.01c-.02 0-.04-.02-.04-.04v-.41c0-.05.09-.05.09 0v.41c-.01.02-.03.04-.05.04m.75 0c-.02 0-.04-.02-.04-.05l.02-.37c0-.02.02-.04.04-.04.03 0 .04.02.04.05l-.01.37c-.01.02-.03.04-.05.04m-1.51 0c-.02 0-.04-.02-.04-.04l-.02-.37c0-.03.02-.04.04-.05.04.01.04.02.04.04l.02.37c0 .03-.02.05-.04.05zm1.17-.01c-.03 0-.04-.02-.04-.05l.02-.37c0-.02.03-.04.05-.04.02 0 .04.02.04.05l-.01.37c-.02.02-.04.04-.06.04m-.83 0c-.02 0-.04-.02-.04-.04l-.02-.37c0-.02.02-.04.04-.05.02.01.04.02.05.04l.02.37c0 .03-.02.05-.05.05z"/></svg>