<svg xmlns="http://www.w3.org/2000/svg" viewBox="0 0 58.92 34.37"><path fill="#f5cd28" d="M0 0h58.92v34.37H0z"/><path fill="#ed6f22" d="M12.46 3.6h10v27.17h-10z"/><path fill="#2f742e" d="M2.61 3.6h9.86v27.17H2.61z"/><path fill="#8e1841" d="M25.07 3.6h31.24v27.17H25.07z"/><path d="M36.99 16.22l.51.01s-.58.49-.45 1.15c.61-.9.83-.73.83-.73-.18.2-.54.47-.26 1.08.24-.62.73-1.1.73-1.1s-.13.69.16 1.32c.21-.64.57-1.18.57-1.18s-.05.69.25.94c.24-.21.4-.75.4-.75s.45.79.73.91c.22-.54.22-.96.22-.96s.93.66 1.67.28c-.66-.24-.89-.79-.89-.79s1.2.53 1.72.29c-.5-.38-1.68-.95-1.68-.95s.87.32 1.12.24c-.12-.17-.5-.38-.5-.38l-5.13.62z" fill="#f5cd28"/><path d="M38.53 17.97c-.31-.56-.24-1.16-.22-1.31-.06.12-.46.55-.66 1.08-.32-.57-.03-.87.16-1.06l.04-.04c-.05.02-.28.02-.77.75-.19-.68.4-1.19.4-1.19l-.5.04c-.02 0-.03-.01-.03-.03 0-.02.02-.03.03-.03l.51.01c.01.06-.55.54-.42 1.17.34-.59.58-.74.71-.76.07-.01.1.01.11.01l-.05.1c-.19.19-.45.46-.2.99.18-.61.67-1.1.68-1.1.05.04-.07.71.21 1.33.15-.63.51-1.17.51-1.18.06.02.01.69.3.93.19-.2.34-.73.35-.74.06 0 .5.78.77.89.18-.51.18-.93.18-.93.03-.01.6.36 1.18.36.17 0 .34-.03.5-.12-.66-.18-.89-.73-.9-.75.04-.02.84.31 1.4.31.13 0 .24-.02.33-.06-.5-.32-1.66-.89-1.68-.89.03-.05.71.19 1.03.19.04 0 .07 0 .1-.01-.13-.12-.5-.32-.51-.33.05-.04.42.16.54.34-.18.09-.62-.02-.9-.11.38.17 1.09.54 1.45.81-.49.28-1.55-.15-1.72-.23.08.08.32.52.89.72-.71.42-1.56-.13-1.68-.21.04.06.01.45-.19.94-.3-.1-.71-.78-.77-.89.01.09-.13.55-.36.75-.3-.22-.31-.75-.31-.92-.05.18-.33.65-.51 1.17" fill="#8e1841"/><path d="M44.2 9.78c1.59-.14 4.05 1.16 5.36 2.03 0-.29 0-.58.29-.72.29-.15.72.14.58.58-.43 1.01-2.17-.15-2.75-.43l.29.58c-.87-.15-1.01-.29-1.59-1.01-.15.58-.15.72-.87.72.27-.43.37-.57 0-1.01l-.14.87-.72-1.01v1.01c-.15-.15-.73-.58-1.01-.58-.43-.15-.72.72-.87 1.16.43-.43.58-.72 1.3-.43-.39.37-.28.82.15 1.16 0 0 .07-.6.12-.74.23.17.72.82 1.33.88.43 0 .87-.14 1.3-.29 1.45-.14 4.63.15 3.91 2.32-.14.43-.29.72-.58 1.01 2.03.73.29 3.33-.14 4.63-.29 1.16-.09 2.08 1.34 1.93-.29.58-.76.67-1.34.67 0 0 .07.35.44.51-.62.55.21 1.38-.15 1.8-.62.3-1.45-.15-1.45-.15l-.04.41s-1.09-.07-1.12-.12c0 0 .31-.58.29-.59-.29.43-.57.69-1.16.59 0 0 .05-.27.37-.62-.44.44-.49.63-.95.62 0-.72.43-1.59 1.3-1.3.15 0 .6.36.82.13.17-.25.07-1.09.07-1.38.09-1.28-.16-1.2-.89-1.93-.58-.43-1-1.1-1.73-1.24-.73-.14-1.89.66-2.47.95-1.45.87-2.75 1.45-4.34 1.74 0 0 .03-.07.03-.22 0-.1 1.56-1.31 1.84-3.45-.43 2.11-1.95 3.22-2 3.61-.06.39-.37 1.06-.41 1.1.19-.11.79-.41 1.55-.47-.16.9-1.01.72-1.16 1.16 0 .43.58 1.01 0 1.3h-2.32s.36-.49.37-.63c-.31.19-.51.68-1.19.63.02-.19.35-.48.3-.59-.39.36-.57.67-1.07.59.15-.43.15-1.01.73-1.01.43-.14.87.14 1.16-.29.58-.73-.11-2.3-.25-3.17 0-.72 0-.86-.18-1.74l.14 2.6c-.58-.43-1.16-.72-1.59-1.3-1.01-1.3-.72-2.75.58-3.62.58-.43.89-.66 1.62-.95-.15-.43.21-.76-.31-.89-.15.27-.3.56-.6.54l.16-.72s-.52.03-.42.96c-.6-.29-.31-.96-.31-.96h-.29s0 .86-.47 1.03c.13-.4.18-1.03.18-1.03s-.78.92-1.23.63c.26-.3.47-.35.43-.71-.03-.36-.22-.82-.26-.9.16.08 1.26.41 1.94.07-.04.23-.02.49-.02.49.72-.14.87-.14 1.59.14-.14-1.01-.72-1.16-1.3-1.88v.58c-.58-.14-.72-.29-1.01-.87l-.43.29c-.76-.45-1.33-1.52-.24-1.46.65.08.1.59.1.59s1.66-.52 2.32-.58c0 0-.19-.4-.8-.48.51-.38 1.02-.5 1.38.3.37.02.7-.42.49-.98.54-.01.8.33 1.05.69.2.04.4-.17.35-.89.51.43.76.57.79.93.43.1.72 0 1.37-.29-.14.58-.14.72-.72 1.01.41.51.45 1.11.37 1.34-.14-.04-.18-.05-.28-.08.03.22.08.84.06 1.2h-.29l.43 1.3-.29.43c1.01-.43 2.03-.29 3.04-.58 1.16-.14 2.32-.58 3.62-.58.87 0 .87.44 2.03.44v-.76c0-.58-.44-1.16-1.16-1.3-.43 0-1.16.29-1.59.43-.58.15-1.45.15-2.03.15-1.88-.29-1.58-.47-2.24-.83-.39.11-.61.44-.81 1.03-.36-.53-.28-1.21.15-1.5-.46-1.59.7-2.31 2.15-2.6" fill="#f5cd28"/><path d="M44.63 22.79c-.29-.43-1.31-1.16-1.02-1.88.44-.72 2.9-1.88 3.33-.29.15.43-.3 1.58-.45 2.02.22-.06.46-.39 1.18-.27-.13.57-1 1.01-1 1.01.09.39-.6 2.16-.6 2.16H44.2l.29-.58-.43.58h-.73l.58-.72s-.69.8-1.27.77c.15-1.16.84-1.35 1.85-.91.14-.59.43-1.31.14-1.89" fill="#f5cd28"/><path d="M42.67 25.62h-.04c.1-1.15.75-1.45 1.86-.97-.02-.07.01-.17.04-.27.14-.51.31-1.09.07-1.57-.07-.11-.19-.24-.33-.38-.4-.43-.91-.97-.69-1.52.29-.49 1.42-1.11 2.26-1.11.59 0 .98.29 1.13.82.13.39-.19 1.29-.38 1.83l-.07.2c.02-.05.08-.08.14-.12.19-.11.47-.27 1.01-.18-.11.61-.96 1.05-.99 1.07.11.35-.55 2.07-.58 2.14l-1.91.02.26-.62-.38.61-.75.01.38-.52c-.23.23-.64.56-1.03.56m1.06-.6l-.37.54.7-.05.41-.56-.24.61 1.85-.05c-.02 0 .65-1.75.57-2.12.02-.04.87-.47 1-1.02-.08.02-.18.01-.26.01-.33 0-.52.11-.68.2-.07.04-.13.08-.2.1l.03-.25c.17-.5.5-1.42.38-1.79-.17-.64-.68-.78-1.07-.78-.89 0-1.95.65-2.2 1.07-.21.51.28 1.04.68 1.45.14.15.26.28.34.39.25.5.08 1.09-.06 1.62-.03.1-.05.2-.08.29-.37-.12-.66-.19-.9-.19-.54 0-.85.35-.95 1.07.56 0 1.2-.75 1.21-.76 0 .02-.06.11-.16.22" fill="#8e1841"/><path d="M36.88 11.9c-.2.12-.04.91.26.78.38-.17-.11-.87-.26-.78" fill="#f5cd28"/><path d="M37.08 12.73c-.12 0-.22-.12-.28-.32-.06-.2-.06-.46.06-.53.19-.01.39.25.44.48.04.17-.02.29-.15.35l-.07.02zm-.17-.81c-.09.05-.11.26-.05.47.04.13.11.27.22.27v.03l.05-.04c.13-.06.13-.18.11-.28-.05-.22-.25-.45-.33-.45" fill="#8e1841"/><path d="M37.07 11.65c.36.25.92.93 1.62.89-.53-.44-.42-.75-.42-.75.28.33 1.2.63 1.5.5-.36-.26-.42-.29-.5-.54.42.05.95.14 1.37-.04l-3.57-.06z" fill="#f5cd28"/><path d="M38.55 12.52c-.5 0-.92-.36-1.23-.63-.1-.09-.19-.16-.27-.22-.01-.01-.02-.03-.01-.04.01-.01.03-.02.04-.01.08.06.17.14.28.22.34.29.79.69 1.33.65-.56-.39-.46-.72-.45-.73.32.31 1.22.61 1.52.48l-.11-.02c-.27-.2-.34-.25-.41-.48l.15-.02c.4.05.86.11 1.24-.05-.37.23-.84.17-1.25.12l-.12-.02c.1.17.16.21.42.41l.1.08c-.32.19-1.22-.1-1.53-.43.02.07.03.34.45.69h-.15" fill="#8e1841"/><path d="M37.75 16.06l.04-.61s.4.92.69.94c-.18-.67-.11-1.21-.11-1.21l-.62.88z" fill="#f5cd28"/><path d="M38.49 16.38c-.33 0-.69-.82-.73-.92l.02.6c0 .02-.02.02-.03.03-.02 0-.03-.02-.03-.03l.04-.61c.17.24.5.9.72.91-.22-.63-.14-1.18-.14-1.19.06.01-.01.55.17 1.21h-.02z" fill="#8e1841"/><path d="M38.68 15.32s.79 1.45 1.17 1.22c-.58-.52-.51-1.19-.51-1.19s.26.9 1.04 1.17c.05-.5-.31-1.32-.31-1.32s.65 1.14.98 1.16c.21-.26.13-.54.13-.54l-2.5-.5z" fill="#f5cd28"/><path d="M39.74 16.59c-.02 0-.04 0-.05-.01-.42-.11-1.02-1.2-1.04-1.25-.01-.02 0-.03.01-.04.01-.01.04 0 .04.01.01.01.61 1.11 1 1.22.05.01.09.01.13-.01-.59-.47-.53-1.16-.53-1.17.06 0 .33.88 1.09 1.15.01-.46-.34-1.27-.34-1.28.01 0 .04.03.06.08.26.33.71 1.01.94 1.03.17-.24.1-.5.1-.5.06 0 .14.28-.08.55-.27-.01-.69-.61-.9-.94.12.27.26.75.23 1.09-.68-.21-.98-.85-1.07-1.08.04.2.1.68.54 1.07-.04.06-.08.08-.13.08" fill="#8e1841"/><path d="M38.06 14.32l.58.74.09-.99s.57.45.67.44c.1-.01-.16-1.06-.16-1.06s.77 1.16.82 1.13c.05-.03.08-1.15.08-1.15s.58 1.6.78 1.59c.2-.02.14-.22.14-.22l-3-.48z" fill="#f5cd28"/><path d="M38.67 15.06l-.64-.72c-.01-.01-.01-.03.01-.04a.03.03 0 0 1 .04 0l.58.74.04-.98c.32.2.64.4.7.41.03-.05-.07-.56-.18-1.02.33.39.79 1.06.86 1.1 0-.04.03-.61.04-1.12.34.75.71 1.56.81 1.56.05 0 .08-.02.1-.05.04-.05.02-.14.02-.14.05-.02.09.1.03.18-.03.04-.08.07-.14.07-.21 0-.67-1.23-.81-1.6.03 1.13-.02 1.16-.04 1.17-.03.02-.07.04-.86-1.15.11.2.29.94.22 1.05-.15.03-.6-.31-.73-.42l-.05.96z" fill="#8e1841"/><path d="M37.62 13.03s.9.82.99.77c.09-.05-.37-.95-.37-.95s.51.49.71.53c.2.04.07-.63.07-.63s.61.52.71.49c.1-.02.05-.49.05-.49s.4.4.42.4-.08-1.14-.08-1.14.89.94.95.92l-3.45.1z" fill="#f5cd28"/><path d="M38.61 13.82c-.13 0-.61-.41-1.01-.77a.03.03 0 0 1 0-.04.03.03 0 0 1 .04 0c.41.38.88.76.96.76.02-.05-.18-.51-.39-.91.19.1.59.45.75.48.1-.08.07-.41.03-.6.33.21.66.46.74.45.04-.01.06-.23.03-.45.23.15.43.35.46.36-.03-.04-.08-.7-.12-1.1.38.32.91.87.99.89-.01.07-.08.08-.98-.87.16 1.1.14 1.12.13 1.14-.04.01-.06.01-.47-.39.07.12.1.47-.02.5-.1.04-.57-.35-.73-.49.06.08.13.5.02.6-.01.01-.08.02-.09.02-.21-.04-.71-.51-.73-.53.37.58.49.91.41.95h-.02" fill="#8e1841"/><path d="M34.03 13.32c.04.06.19 1.23 1.99.76.17-.09.1.33.09.45.08-.01.94-.32 1.54.12-.07-.48-.2-.81-.71-1.09-.25-.05-.44.08-.44.08s-2.18 0-2.47-.32" fill="#f5cd28"/><path d="M37.65 14.67c-.01 0-.01 0-.02-.01a1.31 1.31 0 0 0-.78-.23c-.3 0-.56.07-.68.1-.01 0-.05.01-.05 0-.01-.01-.04-.01-.04-.02l.01-.08c.01-.1.03-.3-.01-.35-.34.08-.6.12-.84.12-.65 0-1.07-.29-1.23-.85 0-.01-.01-.02-.01-.03.31.75.96.98 2.01.7l.11.01c.05.06.04.22.02.39l-.01.07c.13-.08.4-.15.71-.15.3 0 .55.07.76.2-.07-.44-.21-.74-.69-.99-.03-.01-.07-.01-.11-.01-.17 0-.29.08-.29.08-.57.01-2.24-.02-2.51-.32 0-.01 0-.03.01-.03.01-.01.03-.03.04-.01.2.22 1.41.3 2.4.3.02 0 .17-.09.36-.09.04 0 .09 0 .13.01.53.29.67.61.74 1.11 0 .01 0 .02-.01.03-.01.05-.02.05-.02.05" fill="#8e1841"/><path d="M33.04 20.75c-.03.14-.13.18-.4.56.12.17.67.42.82.29.14-.08.15-.43.15-.43.29.43.8 1.12 1.38 1.26.43.14.87-.14.87-.58 0-.43-.65-1.13-.94-1.42-.72-.87-.66-2.51-2.03-2.28-.01.01-.06.2-.19.23.11.21.17.39-.09.46.21.2.24.35-.03.45.16.21.35.29-.02.48.38.37.46.92.48.98" fill="#f5cd28"/><path d="M35.22 22.5c-.08 0-.16-.01-.24-.04-.43-.11-.88-.52-1.37-1.24.03.09 0 .34-.13.41-.03.03-.08.04-.14.04-.23 0-.62-.2-.72-.34.12-.21.2-.31.26-.39.08-.09.11-.13.13-.2-.04-.18-.14-.63-.48-.96.13-.11.19-.16.2-.21.01-.05-.04-.1-.1-.16-.03-.03-.06-.07-.09-.11.11-.09.17-.13.18-.18.01-.06-.04-.15-.15-.26.1-.07.15-.11.17-.15.03-.07-.01-.18-.08-.31.09-.06.14-.13.19-.25.12-.05.2-.05.28-.05.74 0 1 .63 1.27 1.29.15.36.3.73.54 1.02.29.28.95 1 .95 1.44 0 .37-.29.65-.67.65m-1.64-1.33c.55.72.99 1.13 1.42 1.23.42.14.83-.15.83-.55 0-.42-.65-1.12-.93-1.4-.25-.3-.4-.68-.55-1.04-.29-.71-.57-1.38-1.45-1.23-.03.13-.1.21-.19.23.08.08.15.22.1.32-.03.07-.09.11-.19.13.15.08.2.18.18.27-.01.07-.08.13-.21.18.04-.01.07.03.1.06.07.08.13.14.11.22-.01.07-.08.13-.23.2.35.29.46.76.49.91-.01.14-.05.19-.13.28-.06.08-.14.18-.26.35.11.11.66.35.78.25.1-.06.13-.32.13-.41" fill="#8e1841"/><path d="M32.68 8.5c-.44.63-.48 7.57-.35 8.97-.44.28-1.25.16-1.47.07.11-.5.49-8.55 1.82-9.04" fill="#f5cd28"/><path d="M31.57 17.67c-.3 0-.59-.05-.72-.11 0-.13.03-.48.07-.96.19-2.31.64-7.72 1.75-8.14-.39.66-.45 7.52-.3 8.99-.25.19-.57.22-.8.22m1.09-9.19c-1.04.45-1.5 6.03-1.67 8.13-.04.51-.07.84-.09.93.1.01.39.07.68.07.22 0 .53-.03.75-.17-.14-1.23-.12-8.31.33-8.96" fill="#8e1841"/><path d="M31.45 22.72s-1.92.27-1.11-.87c.69-.3.68.41.42.64.32.04.53-.17.57-.48-.39-.53.17-.87.14-.87-1.34.3-1.52-.62-1.02-.77.63.04.43.24.68.42.45-.42.72-.46.99-.03.27-.42.66-.38.68-.33.44.74-.53.78-.92.69.33.36.2.71.09.96.01.25.2.29.51.39-.66-1.82 2.33.49-.68.26.01.08.01.16.01.24.25.04.42.1.5.36-.1.14-.27.16-.52.06 0 0 .15.42-.12.54-.23-.14-.26-.47-.26-.47-.13.16-.31.06-.47-.08.14-.33.54-.17.51-.66M29.8 17.16c.11-.52 1.33-.46.75.11.38.62 1.57.53 2.01.18-.38-.71.65-.56.6-.01-.12.96-3.49.83-3.36-.28M52 26.38c.36.68 1 2.28 1.35 2.66.33.3 1.16.26 1.42-.07 0 0 .53.55.75.71.13-.05.2-.17.2-.17-.22-.23-.51-.37-.65-.8.22-.29.34-.85.19-1.28-.63-1.07-2.74-.65-3.26-1.05" fill="#f5cd28"/><path d="M55.51 29.71l-.01-.01c-.21-.16-.73-.69-.75-.71-.16.32-1.09.37-1.41.08-.24-.26-.6-1.04-.91-1.72-.17-.37-.33-.71-.45-.94.23.11.64.14 1.11.18.8.07 1.79.15 2.2.83.15.46.02 1.03-.19 1.32.11.28.28.43.46.58.07.06.14.12.2.19 0 .04-.08.17-.22.22l-.03-.02zm-.76-.77c.05 0 .56.52.78.7.11-.05.17-.15.17-.15-.06-.03-.12-.08-.19-.14-.18-.15-.36-.31-.47-.63.21-.3.34-.85.19-1.29-.39-.64-1.36-.73-2.14-.8-.48-.04-.9-.08-1.1-.23.17.19.33.54.5.91.31.68.67 1.46.9 1.71.28.26 1.13.22 1.36-.08" fill="#8e1841"/><path d="M29.39 7.95c-.36-.68-1-2.27-1.36-2.66-.33-.29-1.16-.26-1.42.08 0 0-.53-.55-.75-.71-.13.04-.21.16-.21.16.22.23.51.37.65.8-.22.29-.34.85-.19 1.28.65 1.07 2.76.65 3.28 1.05" fill="#f5cd28"/><path d="M29.37 7.98c-.19-.14-.6-.18-1.07-.22-.8-.07-1.79-.15-2.2-.83-.15-.46-.02-1.03.19-1.32-.11-.28-.28-.43-.45-.58-.07-.06-.14-.12-.2-.19 0-.05.08-.17.22-.22.24.17.76.7.78.72.16-.32 1.09-.37 1.41-.08.24.26.6 1.03.91 1.72.17.37.33.71.45.95l-.04.05zm-3.52-3.3c-.09.05-.16.16-.16.16.06.03.12.08.19.14.18.15.36.31.47.63-.21.3-.33.85-.19 1.28.39.64 1.36.73 2.14.8.42.04.78.07 1 .18-.12-.23-.26-.53-.4-.85-.31-.68-.67-1.46-.9-1.7-.3-.26-1.15-.22-1.37.07-.04-.01-.57-.55-.78-.71" fill="#8e1841"/><path d="M29.17 26.28c-.68.36-2.28 1-2.66 1.36-.3.33-.26 1.16.07 1.42 0 0-.55.53-.71.75.04.13.17.21.17.21.24-.21.37-.51.8-.66.29.22.85.34 1.28.19 1.07-.65.65-2.76 1.05-3.27" fill="#f5cd28"/><path d="M26.05 30.04l-.02-.01c-.01 0-.13-.09-.18-.22.17-.24.7-.76.72-.78-.15-.07-.25-.3-.28-.58-.03-.34.05-.65.2-.83.26-.24 1.03-.59 1.72-.91.37-.17.71-.33.95-.45-.11.23-.14.64-.18 1.12-.07.8-.15 1.79-.83 2.19-.14.05-.28.07-.44.07-.32 0-.67-.1-.88-.26-.27.11-.43.28-.57.45-.06.07-.12.14-.19.2l-.02.01zm3.1-3.78c-.2.17-.54.33-.91.5-.68.31-1.45.67-1.7.9-.14.16-.22.47-.18.78.03.26.12.48.26.59 0 .05-.54.58-.71.79.03.06.1.12.14.15.06-.06.11-.12.16-.18.15-.18.31-.36.63-.47.34.23.9.32 1.28.19.65-.38.73-1.36.8-2.14.04-.5.07-.91.23-1.11" fill="#8e1841"/><path d="M52.06 7.95c.36-.68 1-2.27 1.36-2.66.33-.3 1.16-.26 1.42.07 0 0 .53-.55.75-.71.13.04.21.16.21.16-.22.23-.51.37-.65.8.22.29.34.85.19 1.28-.66 1.08-2.77.66-3.28 1.06" fill="#f5cd28"/><path d="M52.08 7.98l-.05-.04c.13-.23.28-.58.45-.95.32-.69.67-1.46.91-1.72.33-.3 1.22-.25 1.46.08-.02-.03.49-.55.7-.72.17.04.25.17.25.17-.07.11-.13.16-.2.22-.17.15-.35.3-.45.61.21.26.34.83.19 1.28-.41.68-1.4.77-2.2.84-.47.05-.88.08-1.06.23m2-2.86c-.27 0-.51.07-.64.2-.23.24-.58 1.02-.9 1.7-.15.32-.29.62-.4.85.22-.11.59-.14 1.01-.17.78-.07 1.76-.15 2.15-.8.14-.43.02-.98-.19-1.25.1-.35.29-.51.46-.66.07-.06.13-.11.19-.17-.02 0-.09-.09-.19-.12-.18.16-.71.7-.71.7-.18-.17-.46-.28-.78-.28" fill="#8e1841"/><path d="M30.34 18.35c-.03.22.5.31 1.03.32.54 0 1.09-.09 1.11-.24.01-.27-.47-.04-1.01-.04-.53-.01-.98-.23-1.13-.04" fill="#f5cd28"/><path d="M31.4 18.7h-.02c-.2 0-.85-.02-1.02-.22-.04-.04-.05-.08-.04-.13.1-.14.29-.11.59-.06.17.03.37.06.58.07.21 0 .39-.03.54-.06.24-.04.4-.05.46.02.03.03.04.07.04.11-.04.21-.75.27-1.13.27m-.85-.4c-.09 0-.15.02-.18.06 0 .02.01.04.04.07.11.12.48.2.98.2l.02.03v-.03c.61 0 1.04-.11 1.06-.21 0-.03-.01-.05-.02-.07-.05-.05-.2-.03-.41 0-.16.02-.34.05-.54.05-.23 0-.43-.04-.6-.07-.14-.01-.26-.03-.35-.03M30.39 18.96c.01.21.53.25.99.27.46.01.93-.08 1.01-.23-.08-.23-.59-.04-1.01-.03-.42.01-.88-.2-.99-.01" fill="#f5cd28"/><path d="M31.47 19.26h-.09c-.47-.02-1.01-.07-1.02-.3.05-.1.15-.11.22-.11.09 0 .2.02.32.04a2.043 2.043 0 0 0 .89 0c.13-.02.26-.04.36-.04.1 0 .23.01.27.14-.1.2-.57.27-.95.27m-.89-.35c-.09 0-.14.02-.16.06.01.12.33.2.96.22h.09c.43 0 .82-.09.89-.21-.04-.07-.28-.07-.57-.03-.14.03-.28.05-.42.05-.16.02-.34-.03-.49-.05-.11-.02-.22-.04-.3-.04M30.54 19.51c-.04.15.42.27.85.27.42 0 1.02-.16 1.03-.33-.02-.13-.62.04-1.02.06-.41.01-.86-.15-.86 0" fill="#f5cd28"/><path d="M31.39 19.81h-.01c-.33 0-.75-.08-.85-.21a.116.116 0 0 1-.02-.1c0-.08.11-.08.15-.08.07 0 .16.01.26.02.13.02.28.04.42.04.2-.01.38-.03.54-.06.15-.03.3-.05.4-.05.04 0 .15 0 .16.07-.01.21-.64.37-1.05.37m-.73-.33c-.06 0-.09.01-.09.03.09.15.45.24.82.24l.01.03v-.03c.43 0 .98-.17.98-.3 0-.01-.22-.01-.48.03-.17.02-.35.05-.5.06-.22-.01-.35-.02-.48-.04-.11-.01-.2-.02-.26-.02M30.49 20.07c.03.15.56.2 1.02.17.46-.04.92-.18.96-.34-.02-.11-.55.08-.98.1-.45.02-1.01-.06-1 .07" fill="#f5cd28"/><path d="M31.23 20.28c-.17 0-.73-.01-.77-.2.06-.09.15-.11.35-.11l.48.01h.2c.19-.01.39-.05.56-.08.14-.03.27-.05.34-.05.02 0 .1 0 .11.06-.05.21-.55.34-.99.38-.1-.02-.19-.01-.28-.01m-.43-.25c-.17 0-.26.01-.28.04.01.07.26.15.71.15.09 0 .18 0 .27-.01.47-.04.9-.18.94-.32-.12.01-.24.03-.38.06-.18.03-.38.07-.57.08h-.69z" fill="#f5cd28"/></svg>