<svg xmlns="http://www.w3.org/2000/svg" viewBox="0 0 58.92 34.37"><path fill="#fff" d="M0 0h58.92v34.37H0z"/><path fill="#3d9546" d="M0 24.06h58.92v10.31H0z"/><path fill="#1f189b" d="M0 0h58.92v10.31H0z"/><path d="M29.43 10.95c-.2 0-.39.22-.39.22l.02 2.32-.73.77h.59l-.01 1.33-3.5 4.72-.52-.18-.9 1.93s2.24 1.4 5.49 1.36c3.57-.04 5.51-1.43 5.51-1.43l-.94-1.91-.46.2-3.55-4.69v-1.37h.59l-.81-.76v-2.31c.01 0-.19-.2-.39-.2"/><path d="M29.35 23.45c-3.15 0-5.35-1.35-5.37-1.37l.89-1.96.55.16 3.48-4.71v-1.32l-.57.03.71-.81-.02-2.3c.01-.03.21-.24.41-.25.21 0 .41.2.42.21v2.33l.8.74-.61.05.03 1.34 3.54 4.68.43-.21.97 1.92c-.03.05-1.99 1.42-5.53 1.47h-.13zm-5.33-1.38c.04 0 2.22 1.33 5.33 1.33h.13c3.52-.04 5.47-1.41 5.49-1.42l-.95-1.88-.42.21-3.58-4.7-.01-1.38.62-.03-.82-.72v-2.33c-.01 0-.19-.18-.37-.18-.19.01-.37.21-.37.21l.02 2.3-.74.78.57-.04.02 1.36-3.51 4.73-.55-.17-.86 1.93z"/><path d="M30.74 16.63h-2.58l-.04-.07c-.04-.08-.89-1.9-.75-3.22.14-1.3.88-2.05 2.02-2.07 1.27 0 1.93.64 2.12 2.01.19 1.33-.71 3.2-.75 3.27l-.02.08zm-2.43-.25h2.26c.16-.35.85-1.94.69-3.06-.18-1.24-.74-1.79-1.83-1.79-1.05.01-1.68.67-1.81 1.84-.12 1.1.54 2.65.69 3.01"/><path d="M25.2 20.92c-.04.05-.33.64-.33.64l.5-.11-.17-.53zM25.49 21.67l-.53.17.63.25zM25.73 20.93l.26.78.65-.18-.17-.37zM26.14 21.99l.09.31.86.22-.35-.73zM27.09 21.33l.3.73.65-.26-.21-.31zM27.51 22.32l.1.28 1.01.14-.42-.66zM28.47 21.54l.37.65.94-.35-.1-.25zM29.01 22.42l.2.35 1.17-.04-.44-.65zM30.24 21.57l.32.54.74-.36-.2-.29zM31.46 21.97l-.74.37.2.32.99-.16zM31.69 21.41l.39.47.62-.49-.21-.22zM32.83 21.66l-.59.45.15.28.82-.22zM33.65 20.72l.15.21-.41.61-.43-.54zM33.93 21.25l.25.5-.5.17-.04-.23z" fill="#fff"/></svg>