<svg xmlns="http://www.w3.org/2000/svg" viewBox="0 0 58.92 34.37"><path fill="#b01f35" d="M0 0h58.92v34.37H0z"/><path fill="#296437" d="M27.12 14.43l-7.59.01 8.64 6.59 1.29-.98-5.23-4 2.39-.01z"/><path fill="#296437" d="M31.81 14.44l-2.35-7.59-3.3 10.68 1.3.98 2-6.46.75 2.39z"/><path fill="#296437" d="M33.26 19.13l6.13-4.69H28.72l-.5 1.6h6.47l-1.93 1.48z"/><path fill="#296437" d="M29.46 22.03l6.14 4.68-3.3-10.67h-1.6l2 6.47-1.94-1.47z"/><path fill="#296437" d="M25.66 19.13l-2.33 7.58 8.63-6.59-.5-1.61-5.23 4 .73-2.39z"/></svg>