<svg xmlns="http://www.w3.org/2000/svg" viewBox="0 0 58.92 34.37"><path fill="#22368f" d="M0 0h58.92v34.37H0z"/><path fill="#fff" d="M12.55 23.21l-.44-7.32-1.54 4.03.69-4.26-2.52 3.5 1.76-3.94-3.35 2.73 2.73-3.35-3.94 1.77 3.5-2.53-4.26.69 4.03-1.54-7.31-.44 7.31-.44-4.03-1.54 4.26.69-3.5-2.53 3.94 1.77-2.73-3.35 3.35 2.73-1.76-3.94 2.52 3.5-.69-4.26 1.54 4.03.44-7.32.44 7.32 1.54-4.03-.69 4.26 2.52-3.5-1.76 3.94 3.35-2.73-2.73 3.35 3.94-1.77-3.5 2.53 4.26-.69-4.03 1.54 7.32.44-7.32.44 4.03 1.54-4.26-.69 3.5 2.53-3.94-1.77 2.73 3.35-3.35-2.73 1.76 3.94-2.52-3.5.69 4.26-1.54-4.03zM0 32.72v1.1l58.92-19.79V.55z"/><path fill="#ce731e" d="M0 32.72v.55L58.92 7.29V.55z"/></svg>