<svg xmlns="http://www.w3.org/2000/svg" viewBox="0 0 58.92 34.37"><path fill="#c0001a" d="M0 0h58.92v34.37H0z"/><path d="M50.09 34.37h8.84L29.46 17.19l20.63 17.18zM0 0l29.46 17.19L8.84 0H0z" fill="#f8e72a"/><path d="M26.52 34.37h5.89l-2.95-17.19-2.94 17.19zm0-34.37l2.95 17.19L32.41 0h-5.89z" fill="#f8e72a"/><path d="M0 34.37h8.84l20.62-17.19L0 34.37zM50.09 0L29.46 17.19 58.92 0h-8.83z" fill="#f8e72a"/><path d="M0 20.62l29.46-3.44L0 13.75v6.87zm29.46-3.43l29.46 3.44v-6.88l-29.46 3.44z" fill="#f8e72a"/><path d="M29.46 11.05c3.39 0 6.14 2.75 6.14 6.14 0 3.39-2.75 6.14-6.14 6.14-3.39 0-6.14-2.75-6.14-6.14 0-3.39 2.75-6.14 6.14-6.14" fill="#c0001a"/><path d="M29.46 12.28c2.71 0 4.91 2.2 4.91 4.91s-2.2 4.91-4.91 4.91-4.91-2.2-4.91-4.91c0-2.72 2.2-4.91 4.91-4.91" fill="#f8e72a"/></svg>