<svg xmlns="http://www.w3.org/2000/svg" viewBox="0 0 58.92 34.37"><path fill="#c8242a" d="M0 0h58.92v34.37H0z"/><path fill="#323f9d" d="M0 0h26.79v17.05H0z"/><path d="M15.61 8.62c0 1.22-1.01 2.22-2.25 2.22s-2.25-.99-2.25-2.22 1.01-2.22 2.25-2.22 2.25.99 2.25 2.22m-7-.5l.26-1.03.73.3.4-.83-.63-.4.63-.86.6.59.66-.59-.4-.66.96-.5.23.83.89-.27-.1-.76 1.02-.03-.07.79.92.3.23-.83.93.46-.43.7.73.56.56-.59.63.79-.66.47.43.83.73-.27.23 1.03-.76.07-.03.92.76.07-.23 1.06-.76-.33-.33.86.63.4-.63.83-.53-.59-.73.59.43.7-.96.46-.26-.79-.89.23.1.79-1.06.03.1-.79-.86-.23-.3.76-.89-.46.43-.66-.76-.56-.56.56-.66-.79.69-.5-.43-.81-.7.27-.3-1.03.82-.07v-.92l-.81-.1zM14.11 3.38l-.72-.49-.72.49.26-.82-.7-.52.88-.01.29-.81.28.81.88.02-.7.51zM14.01 15.83l-.72-.49-.72.49.26-.82-.7-.52.88-.01.29-.81.29.81.87.02-.7.51zM17.02 3.98l-.72-.49-.72.49.26-.82-.7-.52.88-.02.29-.81.28.82.88.01-.7.52zM16.92 15.3l-.72-.49-.72.49.26-.82-.7-.52.88-.01.29-.81.28.81.88.02-.7.51zM11.34 3.98l-.72-.49-.72.49.26-.82-.7-.52.88-.02.29-.81.28.82.88.01-.7.52zM11.24 15.17l-.72-.49-.72.49.26-.82-.7-.52.88-.01.29-.81.28.81.88.02-.7.51zM9.09 5.57l-.72-.49-.72.48.26-.81-.7-.52.88-.02.29-.81.28.81.88.02-.7.52zM9.09 13.25l-.72-.49-.72.49.26-.82-.7-.52.88-.02.29-.8.28.81.88.02-.7.51zM7.97 7.95l-.72-.49-.72.49.26-.82-.7-.52.88-.01.29-.81.28.81.88.02-.7.51zM7.97 10.6l-.72-.49-.72.49.26-.82-.7-.52.88-.02.29-.8.28.81.88.02-.7.51zM17.44 5.7l.72-.49.72.49-.26-.82.7-.52-.88-.02-.29-.8-.28.81-.88.02.7.51zM17.64 13.38l.71-.49.72.49-.25-.82.69-.52-.87-.01-.29-.81-.29.81-.87.02.7.51zM18.63 8.15l.71-.49.73.49-.26-.82.7-.52-.88-.01-.29-.81-.29.81-.87.02.7.51zM18.83 10.73l.71-.49.72.49-.25-.82.69-.52-.87-.01-.29-.81-.29.81-.87.02.7.51z" fill-rule="evenodd" clip-rule="evenodd" fill="#fff"/><path d="M16.53 6.41c.45 1.59.14 2.45.02 2.47-.15-.07-.17-1.69-.82-2.1-.62-.38-.25-.75-.08-.89.17-.09.69-.15.88.52" fill-rule="evenodd" clip-rule="evenodd" fill="#fff"/><path d="M16.54 8.9c-.07-.03-.1-.18-.16-.5-.1-.53-.24-1.33-.67-1.61-.22-.14-.34-.29-.35-.45-.01-.16.08-.32.27-.49.04-.02.13-.05.26-.05.19 0 .52.08.67.59.37 1.3.24 2.19.07 2.44-.03.05-.05.07-.09.07zm-.65-3.04c-.12 0-.2.03-.23.04-.17.15-.25.29-.24.44.01.14.12.28.33.4.45.28.6 1.1.7 1.64.03.19.07.41.11.45.01-.01.02-.02.03-.04.11-.17.32-.98-.08-2.39-.15-.46-.45-.54-.62-.54" fill="#323f9d"/><path d="M14.81 8.48c-1.16 2.63-.71 4.4-1.15 4.39-.45.01-.57-1.63.26-4.37 1.06-3.45 2.4-3.16 2.56-2.19-.88.41-1 .52-1.67 2.17" fill-rule="evenodd" clip-rule="evenodd" fill="#fff"/><path d="M13.67 12.9c-.08 0-.15-.04-.2-.11-.3-.41-.29-1.92.43-4.3.55-1.78 1.28-2.85 1.97-2.85.33 0 .58.26.65.66-.89.45-1.01.55-1.68 2.19-.68 1.53-.8 2.79-.88 3.55-.06.55-.09.86-.29.86m2.19-7.21c-.25 0-1.11.2-1.91 2.81-.69 2.25-.74 3.84-.44 4.25.04.06.09.09.15.09h.01c.15 0 .18-.3.23-.81.08-.76.21-2.02.89-3.57.67-1.66.79-1.76 1.69-2.19-.08-.34-.32-.58-.62-.58" fill="#323f9d"/><path d="M16.3 9.35c.19 1.7-.38 2.44-.52 2.42-.17-.11.47-1.16-.51-2.32-.56-.65.05-.41.28-.5.21-.02.66-.31.75.4" fill-rule="evenodd" clip-rule="evenodd" fill="#fff"/><path d="M15.78 11.8h-.01c-.07-.05-.06-.16-.03-.34.07-.41.19-1.17-.5-1.99-.2-.23-.27-.36-.23-.44.03-.08.15-.08.28-.08.12 0 .19 0 .24-.02l.15-.03c.08-.02.17-.04.25-.04.22 0 .35.16.39.5.18 1.66-.34 2.29-.4 2.35-.03.04-.09.09-.14.09M15.33 9c-.15 0-.24 0-.26.05-.02.04.01.13.22.38.71.84.58 1.62.51 2.03-.02.13-.04.24-.01.27.02 0 .05-.02.1-.08.21-.23.53-.98.38-2.31-.05-.41-.21-.45-.33-.45-.08 0-.17.02-.24.04-.06.02-.11.03-.15.03-.06.04-.14.04-.22.04z" fill="#323f9d"/><path d="M14.41 11.03c-.45 1.03-.64 2.27-1.16 2.12-.54-.14-.02-1.89.67-3.12.85-1.49 2.38-1.88 2.35-.8-1.05.17-1.52.97-1.86 1.8" fill-rule="evenodd" clip-rule="evenodd" fill="#fff"/><path d="M13.33 13.19c-.03 0-.06 0-.09-.01-.09-.02-.15-.08-.19-.18-.21-.51.26-1.95.84-2.98.71-1.25 1.86-1.68 2.25-1.28.11.11.16.28.16.49-1.06.19-1.52.98-1.86 1.81-.13.29-.24.61-.34.9-.24.7-.43 1.25-.77 1.25m2.4-4.54c-.49 0-1.27.48-1.79 1.4-.56.99-1.05 2.44-.84 2.93.03.08.08.13.15.15.36.1.55-.49.79-1.2.1-.3.21-.61.34-.91.35-.84.82-1.64 1.88-1.81-.02-.17-.07-.32-.17-.42a.474.474 0 0 0-.36-.14" fill="#323f9d"/><path d="M10.55 8.3c-.45 1.93-.35 3.13-.23 3.09.17.02.12-1.84.89-2.6.72-.73.32-.59.15-.86-.33-.14-.59-.54-.81.37" fill-rule="evenodd" clip-rule="evenodd" fill="#fff"/><path d="M10.31 11.42l-.04-.03c-.13-.16-.15-1.36.25-3.1.16-.65.39-.65.67-.49.06.03.12.07.18.09.05.08.11.12.16.16.06.04.11.08.12.15.01.09-.06.23-.42.6-.51.5-.66 1.49-.75 2.08-.06.4-.09.54-.17.54zm.6-3.67c-.08 0-.21.06-.33.56-.44 1.91-.34 2.97-.26 3.05.04-.03.08-.26.11-.48.09-.6.24-1.61.77-2.12.29-.29.41-.46.4-.55 0-.04-.04-.07-.1-.11-.05-.04-.11-.08-.16-.16-.05-.01-.11-.05-.17-.09-.1-.05-.19-.1-.26-.1" fill="#323f9d"/><path d="M12.32 10.38c.53 1.31.88 2.9 1.31 2.69.46-.2-.28-2.42-1.01-3.99-.63-1.24-1.1-1.39-1.79-1.35.81.32 1.07 1.6 1.49 2.65" fill-rule="evenodd" clip-rule="evenodd" fill="#fff"/><path d="M13.56 13.12c-.3 0-.54-.7-.84-1.57-.13-.38-.27-.78-.42-1.15-.09-.22-.17-.45-.25-.67-.31-.88-.6-1.71-1.23-1.96.07-.07.13-.08.18-.08.61 0 1.06.22 1.64 1.38.6 1.27 1.34 3.31 1.12 3.89-.03.07-.07.12-.12.14-.02.01-.05.02-.08.02M11 7.75c-.06 0-.11 0-.17.01.67.21.96 1.05 1.28 1.94.08.22.16.45.24.67.16.38.29.78.42 1.16.27.79.53 1.54.79 1.54.02 0 .04-.01.07-.02.04-.02.07-.05.09-.11.19-.5-.43-2.39-1.12-3.84-.58-1.13-1.01-1.35-1.6-1.35" fill="#323f9d"/><path d="M12.41 9.66c.4 1.66.57 3.65 1.03 3.45.48-.18-.01-2.98-.59-4.98-.5-1.59-1.27-1.57-1.98-1.61 1.14.55 1.24 1.8 1.54 3.14" fill-rule="evenodd" clip-rule="evenodd" fill="#fff"/><path d="M13.38 13.15c-.32 0-.49-.89-.7-2.02-.09-.48-.19-.98-.3-1.46-.04-.19-.08-.37-.12-.55-.24-1.13-.44-2.1-1.4-2.58l.11-.05c.67.04 1.43.08 1.91 1.63.55 1.91 1.11 4.82.57 5.02l-.07.01zm-2.5-6.61c1 .44 1.21 1.42 1.45 2.56.04.18.08.36.12.55.12.48.21.99.3 1.46.19 1.02.37 1.97.64 1.97v.03l.05-.04c.43-.16.03-2.74-.61-4.95-.47-1.5-1.18-1.54-1.86-1.59l-.09.01z" fill="#323f9d"/><path d="M10.76 6.58c-1.04.86-1.03 2.58-.84 2.61.21.04.32-1.37.95-1.89.67-.54.77-.24 1.53-.19-.2-.44-.79-1.26-1.64-.53" fill-rule="evenodd" clip-rule="evenodd" fill="#fff"/><path d="M9.93 9.22h-.01c-.04 0-.07-.05-.09-.13-.13-.43.04-1.81.91-2.53.23-.2.46-.3.69-.3.46 0 .82.43 1 .84-.25.02-.41-.01-.55-.04-.32-.07-.47-.15-.99.26-.37.31-.56.92-.7 1.37-.1.33-.16.53-.26.53m1.5-2.9c-.21 0-.43.1-.65.29-.9.74-.99 2.13-.9 2.47.02.06.04.08.05.08.06 0 .13-.25.21-.49.14-.46.33-1.08.72-1.4.44-.34.67-.35 1.04-.27.14.03.3.06.51.08-.09-.09-.42-.76-.98-.76" fill="#323f9d"/><path d="M12.97 4.87c.14.28.12.56-.05.64-.17.07-.41-.09-.56-.37-.14-.28-.12-.56.04-.64.18-.07.43.09.57.37" fill-rule="evenodd" clip-rule="evenodd" fill="#fff"/><path d="M12.84 5.56c-.17 0-.38-.16-.49-.4-.1-.19-.12-.38-.07-.52.03-.07.07-.13.13-.16.18-.08.45.1.6.38.1.19.12.38.07.52-.04.07-.08.13-.14.16-.03.01-.07.02-.1.02m-.34-1.04c-.03 0-.05 0-.08.01-.04.02-.08.06-.1.12-.04.12-.02.31.07.48.13.26.37.42.52.35.05-.02.08-.06.1-.12.04-.13.02-.31-.07-.48-.11-.21-.29-.36-.44-.36" fill="#323f9d"/><path d="M12.97 5.63c.11.29.07.57-.1.63-.17.06-.4-.12-.52-.41s-.07-.57.1-.63c.17-.06.41.13.52.41" fill-rule="evenodd" clip-rule="evenodd" fill="#fff"/><path d="M12.8 6.31c-.18 0-.37-.18-.48-.44-.08-.19-.09-.39-.03-.53.03-.07.08-.12.15-.14l.08-.01c.18 0 .38.18.48.44.08.2.09.39.03.53-.03.07-.08.12-.15.14l-.08.01zm-.28-1.07c-.11.03-.15.06-.17.12-.05.12-.04.31.03.48.09.24.27.41.43.41v.03l.06-.04c.05-.02.09-.05.11-.11.05-.12.04-.3-.03-.49-.1-.23-.28-.4-.43-.4" fill="#323f9d"/><path d="M13.51 5.51c.04.31-.08.57-.26.59-.18.02-.36-.22-.4-.53-.04-.31.08-.57.26-.59.18-.02.36.22.4.53" fill-rule="evenodd" clip-rule="evenodd" fill="#fff"/><path d="M13.24 6.12c-.19 0-.37-.24-.41-.56-.03-.21.01-.4.11-.52.05-.06.11-.1.17-.1.21 0 .39.24.43.56.03.21-.01.4-.11.52-.05.06-.11.1-.17.1h-.02zM13.13 5c-.06.01-.11.03-.15.08-.08.1-.12.29-.1.48.04.28.19.51.35.51v.03l.01-.03c.05 0 .1-.03.14-.08.08-.1.12-.29.09-.47-.02-.29-.18-.52-.34-.52" fill="#323f9d"/><path d="M13.14 6.37c.06.31-.03.58-.21.6-.18.03-.38-.2-.44-.5s.03-.58.21-.6c.18-.03.37.2.44.5" fill-rule="evenodd" clip-rule="evenodd" fill="#fff"/><path d="M12.89 7.01c-.19 0-.38-.23-.44-.53-.04-.2-.01-.4.07-.53.04-.06.1-.1.17-.11.23-.01.41.22.47.52.04.2.02.4-.07.52-.04.07-.1.1-.17.11l-.03.02zm-.16-1.11c-.08.01-.12.04-.16.09-.08.11-.1.29-.06.48.05.27.22.48.38.48v.03l.03-.03c.05-.01.1-.04.13-.09.08-.11.1-.29.06-.48-.06-.27-.22-.48-.38-.48" fill="#323f9d"/><path d="M13.14 7.07c.06.31-.03.58-.21.6-.18.03-.38-.2-.44-.5-.06-.31.03-.58.21-.61.18-.02.37.2.44.51" fill-rule="evenodd" clip-rule="evenodd" fill="#fff"/><path d="M12.89 7.7c-.19 0-.37-.23-.43-.53-.04-.21-.02-.4.07-.52.04-.07.1-.1.17-.11.22 0 .41.23.47.52.04.2.01.4-.07.52-.04.06-.1.1-.17.11l-.04.01zm-.16-1.11c-.08.01-.12.04-.16.09-.07.11-.1.29-.06.48.05.27.22.48.38.48v.03l.03-.03c.05-.01.1-.04.13-.09.08-.11.1-.29.06-.48-.06-.27-.22-.48-.38-.48" fill="#323f9d"/><path d="M13.69 6.34c-.02.31-.18.55-.36.53-.18-.02-.32-.28-.3-.59.02-.31.18-.55.36-.53.18.02.31.28.3.59" fill-rule="evenodd" clip-rule="evenodd" fill="#fff"/><path d="M13.35 6.9h-.02c-.2-.02-.34-.29-.32-.63.02-.31.18-.56.37-.56.22.02.36.29.35.63-.03.32-.19.56-.38.56m.04-1.12c-.17 0-.31.23-.33.5-.01.3.11.55.27.57l.02.03v-.03c.16 0 .29-.23.31-.51.01-.29-.11-.55-.27-.56z" fill="#323f9d"/><path d="M13.69 7.04c-.02.31-.18.55-.36.53-.18-.02-.32-.28-.3-.59.02-.31.18-.55.36-.53.18.01.31.28.3.59" fill-rule="evenodd" clip-rule="evenodd" fill="#fff"/><path d="M13.35 7.6h-.02c-.2-.02-.34-.3-.33-.63.02-.31.18-.56.37-.56.22.02.36.29.35.63-.02.32-.18.56-.37.56m.04-1.13c-.17 0-.31.23-.33.5-.01.29.11.55.27.56l.02.03v-.02c.16 0 .29-.22.31-.5.01-.3-.11-.55-.27-.57z" fill="#323f9d"/><path d="M12.77 7.87c0 .31-.15.56-.33.55-.18-.01-.33-.27-.33-.58 0-.31.15-.56.33-.55.18.01.33.27.33.58" fill-rule="evenodd" clip-rule="evenodd" fill="#fff"/><path d="M12.45 8.45h-.01c-.2-.01-.36-.28-.35-.61 0-.33.15-.58.35-.58.21.01.37.28.37.61-.01.32-.17.58-.36.58m-.01-1.13c-.17 0-.3.23-.3.52 0 .29.14.54.3.55l.01.03v-.03c.16 0 .29-.23.29-.52 0-.29-.13-.54-.3-.55" fill="#323f9d"/><path d="M13.27 7.87c0 .31-.15.56-.33.55-.18-.01-.33-.27-.33-.58 0-.31.15-.56.33-.55.18.01.33.27.33.58" fill-rule="evenodd" clip-rule="evenodd" fill="#fff"/><path d="M12.94 8.45h-.01c-.2-.01-.35-.27-.35-.61 0-.33.16-.58.35-.58.21.01.37.28.36.61 0 .33-.15.58-.35.58m0-1.13c-.17 0-.3.23-.3.52 0 .29.13.54.3.55l.01.03v-.03c.16 0 .29-.23.29-.52 0-.29-.14-.54-.3-.55" fill="#323f9d"/><path d="M13.81 7.96c-.08.3-.28.5-.46.45-.17-.05-.25-.34-.17-.64.08-.3.28-.5.46-.45.17.05.25.33.17.64" fill-rule="evenodd" clip-rule="evenodd" fill="#fff"/><path d="M13.41 8.44l-.07-.01c-.19-.06-.27-.36-.19-.68.07-.28.25-.48.43-.48.26.07.34.37.26.69-.07.28-.25.48-.43.48m.21-1.1c-.19 0-.35.18-.41.43-.07.28 0 .56.15.61l.05.01c.15 0 .31-.19.37-.44.08-.29.01-.56-.15-.61h-.01z" fill="#323f9d"/><path d="M12.74 8.63c0 .31-.15.56-.33.55-.18-.01-.33-.27-.33-.58 0-.31.15-.56.33-.55.18.01.33.27.33.58" fill-rule="evenodd" clip-rule="evenodd" fill="#fff"/><path d="M12.42 9.21h-.02c-.2-.01-.35-.27-.35-.61 0-.33.15-.58.35-.58.21.01.37.28.36.61 0 .33-.15.58-.34.58m-.01-1.13c-.17 0-.3.23-.3.52 0 .29.13.54.3.55l.01.03v-.03c.16 0 .29-.23.29-.52 0-.29-.13-.54-.3-.55" fill="#323f9d"/><path d="M13.23 8.43c0 .31-.15.56-.33.55-.18-.01-.33-.27-.33-.58 0-.31.15-.56.33-.55.19.01.33.27.33.58" fill-rule="evenodd" clip-rule="evenodd" fill="#fff"/><path d="M12.91 9.01h-.01c-.2-.01-.36-.28-.36-.61 0-.33.15-.58.35-.58.21.01.37.28.36.61.01.33-.15.58-.34.58m-.01-1.13c-.17 0-.3.23-.3.52 0 .29.13.54.3.55l.01.03v-.03c.16 0 .29-.23.29-.52 0-.29-.13-.54-.3-.55z" fill="#323f9d"/><path d="M13.78 8.65c-.08.3-.28.5-.46.45-.17-.05-.25-.34-.17-.64.08-.3.28-.5.46-.45.17.05.25.34.17.64" fill-rule="evenodd" clip-rule="evenodd" fill="#fff"/><path d="M13.38 9.14l-.07-.01c-.19-.06-.27-.36-.19-.68.07-.28.25-.48.43-.48.26.07.34.37.26.69-.08.27-.26.48-.43.48m.21-1.11c-.19 0-.35.19-.41.43-.07.28 0 .56.15.61l.05.01c.15 0 .31-.19.37-.43.08-.28.01-.56-.15-.61-.01 0-.01-.01-.01-.01" fill="#323f9d"/><path d="M13.85 12.54c.05.39-.1.72-.34.74-.24.02-.46-.29-.51-.68-.05-.39.11-.72.34-.74.24-.01.47.29.51.68" fill-rule="evenodd" clip-rule="evenodd" fill="#fff"/><path d="M13.5 13.31c-.24 0-.47-.31-.52-.71-.03-.26.02-.5.14-.64.06-.08.14-.12.23-.13.27 0 .5.31.54.7.03.26-.02.5-.14.65-.06.08-.14.12-.23.13h-.02zm-.14-1.42c-.09.01-.15.04-.2.11-.11.13-.16.36-.13.6.04.36.25.65.47.65v.03l.02-.03c.07-.01.13-.04.19-.1.11-.13.16-.36.13-.6-.06-.37-.27-.66-.48-.66" fill="#323f9d"/><path d="M12.51 9.39c0 .31-.15.56-.33.55-.18-.01-.33-.27-.33-.58 0-.31.15-.56.33-.55.18.01.33.27.33.58" fill-rule="evenodd" clip-rule="evenodd" fill="#fff"/><path d="M12.18 9.97h-.01c-.2-.01-.36-.28-.35-.61 0-.33.15-.58.35-.58.21.01.37.28.37.61-.01.33-.16.58-.36.58m0-1.13c-.17 0-.3.23-.3.52 0 .29.13.54.3.55l.01.03v-.03c.16 0 .29-.23.29-.52 0-.29-.14-.54-.3-.55z" fill="#323f9d"/><path d="M13.1 9.23c0 .31-.15.56-.33.55-.18-.01-.33-.27-.33-.58 0-.31.15-.56.33-.55.18.01.33.27.33.58" fill-rule="evenodd" clip-rule="evenodd" fill="#fff"/><path d="M12.78 9.8h-.01c-.2-.01-.36-.28-.35-.61 0-.33.15-.58.35-.58.21.01.37.28.36.61 0 .33-.16.58-.35.58m-.01-1.12c-.17 0-.3.23-.3.52 0 .29.14.54.3.55l.01.03v-.03c.16 0 .29-.23.29-.52 0-.3-.13-.54-.3-.55z" fill="#323f9d"/><path d="M13.55 9.41c-.08.3-.28.5-.46.45-.17-.05-.25-.34-.17-.64.08-.3.28-.5.46-.45.17.05.25.34.17.64" fill-rule="evenodd" clip-rule="evenodd" fill="#fff"/><path d="M13.15 9.9l-.07-.01c-.19-.06-.27-.36-.19-.68.07-.28.25-.48.43-.48.26.07.34.37.26.69-.08.27-.26.48-.43.48m.21-1.1c-.19 0-.35.18-.41.43-.07.28 0 .56.15.61l.05.01c.15 0 .31-.19.37-.44.07-.29.01-.56-.15-.61h-.01z" fill="#323f9d"/><path d="M12.76 10.12c-.05.31-.23.53-.41.49-.18-.04-.28-.31-.24-.62.05-.31.23-.53.41-.49.19.04.29.31.24.62" fill-rule="evenodd" clip-rule="evenodd" fill="#fff"/><path d="M12.39 10.64h-.04c-.2-.04-.31-.33-.26-.66.05-.3.22-.52.4-.52.24.04.35.34.3.66-.04.3-.22.52-.4.52m.13-1.11c-.18 0-.33.2-.37.47-.05.29.05.56.21.59h.03c.15 0 .3-.21.34-.47.05-.29-.05-.56-.21-.59z" fill="#323f9d"/><path d="M13.25 10.2c-.05.31-.23.53-.41.49-.18-.04-.28-.32-.24-.62.05-.31.23-.53.41-.49.19.03.29.31.24.62" fill-rule="evenodd" clip-rule="evenodd" fill="#fff"/><path d="M12.88 10.72h-.04c-.2-.04-.31-.33-.26-.66.05-.3.22-.52.4-.52.24.04.35.34.3.66-.05.3-.22.52-.4.52m.13-1.12c-.18 0-.33.21-.37.47-.05.29.05.56.21.59h.03c.15 0 .3-.21.34-.47.05-.28-.05-.55-.21-.59z" fill="#323f9d"/><path d="M13.79 10.3c-.12.29-.36.45-.52.37-.16-.08-.19-.38-.07-.66.12-.29.36-.45.52-.37.16.08.19.37.07.66" fill-rule="evenodd" clip-rule="evenodd" fill="#fff"/><path d="M13.36 10.72c-.04 0-.07-.01-.1-.02-.18-.09-.22-.4-.08-.7.13-.3.38-.48.56-.39.18.09.21.4.09.7-.12.24-.3.41-.47.41m.27-1.07c-.14 0-.31.15-.41.38-.12.27-.09.55.06.63.14.06.37-.1.48-.36.12-.27.09-.55-.06-.63-.02-.02-.04-.02-.07-.02" fill="#323f9d"/><path d="M13.33 11.77c.04.31-.08.57-.26.58-.18.01-.36-.23-.4-.54-.04-.31.08-.57.26-.58.18-.01.36.23.4.54" fill-rule="evenodd" clip-rule="evenodd" fill="#fff"/><path d="M13.05 12.38c-.19 0-.37-.25-.41-.56-.02-.21.02-.4.11-.52.05-.06.11-.09.18-.1.21 0 .39.25.43.56.03.21-.02.4-.11.52-.05.06-.11.09-.18.1h-.02zm-.1-1.12a.19.19 0 0 0-.15.08c-.08.1-.12.28-.1.47.03.28.19.51.35.51v.03l.01-.03c.05 0 .1-.03.14-.08.08-.1.12-.28.1-.47-.03-.28-.19-.51-.35-.51" fill="#323f9d"/><path d="M14.23 11.91c-.1.3-.31.48-.48.42-.17-.06-.23-.36-.13-.65.1-.3.31-.48.48-.42.17.06.23.36.13.65" fill-rule="evenodd" clip-rule="evenodd" fill="#fff"/><path d="M13.82 12.37l-.08-.01c-.19-.07-.25-.38-.15-.69.09-.27.27-.45.44-.45l.08.01c.19.07.25.38.15.69-.09.27-.27.45-.44.45m.25-1.08c-.2 0-.35.17-.43.4-.09.28-.04.56.12.62l.06.01c.15 0 .31-.17.39-.41.09-.28.04-.56-.11-.62h-.03z" fill="#323f9d"/><path d="M13.79 11.71c0 .31-.15.56-.33.55-.18-.01-.33-.27-.33-.58 0-.31.15-.56.33-.55.18.01.33.27.33.58" fill-rule="evenodd" clip-rule="evenodd" fill="#fff"/><path d="M13.47 12.29h-.01c-.2-.01-.36-.27-.36-.61 0-.33.15-.58.35-.58.21.01.37.28.37.61 0 .33-.15.58-.35.58m-.01-1.13c-.17 0-.3.23-.3.52 0 .29.13.54.3.55l.01.03v-.03c.16 0 .29-.23.29-.52 0-.3-.13-.54-.3-.55" fill="#323f9d"/><path d="M13.13 10.92c0 .31-.15.56-.33.55-.18-.01-.33-.27-.33-.58 0-.31.15-.56.33-.55.18.01.33.26.33.58" fill-rule="evenodd" clip-rule="evenodd" fill="#fff"/><path d="M12.81 11.49h-.01c-.2-.01-.36-.28-.36-.61 0-.33.15-.58.35-.58.21.01.37.28.37.61 0 .33-.16.58-.35.58m-.01-1.12c-.17 0-.3.23-.3.52 0 .29.14.54.3.55l.01.03v-.03c.16 0 .29-.23.29-.52 0-.3-.13-.55-.3-.55" fill="#323f9d"/><path d="M13.63 10.92c0 .31-.15.56-.33.55-.18-.01-.33-.27-.33-.58 0-.31.15-.56.33-.55.18.01.33.26.33.58" fill-rule="evenodd" clip-rule="evenodd" fill="#fff"/><path d="M13.3 11.49h-.01c-.2-.01-.36-.28-.36-.61 0-.33.15-.58.35-.58.21.01.37.28.37.61 0 .33-.15.58-.35.58m0-1.12c-.17 0-.3.23-.3.52 0 .29.14.54.3.55l.01.03v-.03c.16 0 .29-.23.29-.52 0-.3-.14-.55-.3-.55" fill="#323f9d"/><path d="M14.04 10.24c-.08.3-.28.5-.46.45-.17-.05-.25-.34-.17-.64.08-.3.28-.5.46-.45.17.05.25.34.17.64" fill-rule="evenodd" clip-rule="evenodd" fill="#fff"/><path d="M13.64 10.72l-.07-.01c-.19-.06-.28-.36-.19-.68.07-.28.25-.48.43-.48.25.07.34.37.26.69-.07.28-.25.48-.43.48m.21-1.1c-.19 0-.35.19-.41.43-.07.28 0 .56.15.61l.05.01c.15 0 .31-.19.37-.44.07-.28 0-.56-.15-.61h-.01z" fill="#323f9d"/><path d="M14.17 10.93c-.08.3-.28.5-.46.45-.17-.05-.25-.34-.17-.64.08-.3.28-.5.46-.45.17.05.25.34.17.64" fill-rule="evenodd" clip-rule="evenodd" fill="#fff"/><path d="M13.77 11.42l-.07-.01c-.19-.06-.28-.36-.19-.68.07-.28.25-.48.43-.48.26.07.34.37.26.69-.07.28-.25.48-.43.48m.21-1.1c-.19 0-.35.18-.41.43-.07.28 0 .56.15.61l.05.01c.15 0 .31-.19.37-.44.07-.29.01-.56-.15-.61h-.01z" fill="#323f9d"/><path d="M14.57 11.06c-.08.3-.28.5-.46.45-.17-.05-.25-.34-.17-.64.08-.3.28-.5.46-.45.17.05.25.34.17.64" fill-rule="evenodd" clip-rule="evenodd" fill="#fff"/><path d="M14.17 11.55l-.06-.01c-.19-.06-.28-.36-.19-.68.07-.28.25-.48.43-.48.26.07.34.37.26.69-.09.28-.27.48-.44.48m.21-1.1c-.19 0-.35.18-.41.43-.07.28 0 .56.15.61l.05.01c.15 0 .31-.19.37-.44.07-.29 0-.56-.15-.61h-.01z" fill="#323f9d"/><path d="M14.34 9.44c-.08.3-.28.5-.46.45-.17-.05-.25-.34-.17-.64.08-.3.28-.5.46-.45.17.05.25.34.17.64" fill-rule="evenodd" clip-rule="evenodd" fill="#fff"/><path d="M13.94 9.93l-.07-.01c-.19-.06-.28-.36-.19-.68.07-.28.25-.48.43-.48.26.07.34.36.26.69-.08.28-.26.48-.43.48m.2-1.1c-.19 0-.35.18-.41.43-.07.28 0 .56.15.61l.05.01c.15 0 .31-.19.37-.43.07-.29 0-.56-.15-.61h-.01z" fill="#323f9d"/><path d="M14.88 6.29c-.01.31-.16.55-.34.54-.18-.01-.32-.27-.31-.59.01-.31.16-.55.34-.54.18.02.32.28.31.59" fill-rule="evenodd" clip-rule="evenodd" fill="#fff"/><path d="M14.55 6.86h-.02c-.2-.01-.35-.28-.34-.62.01-.32.17-.57.36-.57.22.02.36.29.36.62-.01.32-.17.57-.36.57m.01-1.13c-.17 0-.31.23-.31.51-.01.3.12.54.29.56l.01.03V6.8c.16 0 .29-.23.3-.51.01-.3-.12-.55-.29-.56z" fill="#323f9d"/><path d="M14.5 10.17c-.08.3-.28.5-.46.45-.17-.05-.25-.34-.17-.64.08-.3.28-.5.46-.45.17.05.25.34.17.64" fill-rule="evenodd" clip-rule="evenodd" fill="#fff"/><path d="M14.11 10.65l-.07-.01c-.19-.06-.28-.36-.19-.68.07-.28.25-.48.43-.48.26.07.34.37.26.69-.08.28-.26.48-.43.48m.2-1.1c-.19 0-.35.19-.41.43-.07.28 0 .56.15.61l.05.01c.15 0 .31-.19.37-.44.07-.28 0-.56-.15-.61h-.01z" fill="#323f9d"/><path d="M14.9 10.27c-.08.3-.28.5-.46.45-.17-.05-.25-.34-.17-.64.08-.3.28-.5.46-.45.17.05.25.34.17.64" fill-rule="evenodd" clip-rule="evenodd" fill="#fff"/><path d="M14.5 10.75l-.07-.01c-.19-.06-.28-.36-.19-.68.07-.28.25-.48.43-.48.26.07.34.37.26.69-.07.28-.25.48-.43.48m.21-1.1c-.19 0-.35.19-.41.43-.07.28 0 .56.15.61l.05.01c.15 0 .31-.19.37-.44.07-.28.01-.56-.15-.61h-.01z" fill="#323f9d"/><path d="M14.55 6.98c-.01.31-.16.56-.35.54-.18-.01-.32-.27-.31-.59.01-.31.16-.55.34-.54.19.02.33.28.32.59" fill-rule="evenodd" clip-rule="evenodd" fill="#fff"/><path d="M14.22 7.55h-.02c-.2-.02-.35-.29-.34-.62.01-.32.17-.57.36-.57.21.01.36.29.36.62-.01.32-.17.57-.36.57m.01-1.12c-.17 0-.31.23-.31.51-.01.29.12.54.29.56l.01.03V7.5c.16 0 .3-.23.3-.51.01-.3-.12-.55-.29-.56z" fill="#323f9d"/><path d="M15.11 7c-.02.31-.19.55-.37.52-.18-.02-.31-.29-.29-.6.02-.31.19-.55.37-.52.19.02.31.29.29.6" fill-rule="evenodd" clip-rule="evenodd" fill="#fff"/><path d="M14.76 7.55h-.03c-.2-.02-.34-.31-.31-.63.02-.31.18-.55.38-.55.22.03.36.31.34.64-.02.3-.19.54-.38.54m.06-1.12c-.18 0-.32.22-.34.5-.02.29.1.55.26.57h.02c.16 0 .3-.22.32-.5.02-.29-.1-.55-.26-.57z" fill="#323f9d"/><path d="M14.48 7.61c-.01.31-.16.55-.34.54-.18-.01-.32-.27-.31-.59.01-.31.16-.55.34-.54.18.02.32.28.31.59" fill-rule="evenodd" clip-rule="evenodd" fill="#fff"/><path d="M14.15 8.18h-.02c-.2-.01-.35-.28-.34-.62.02-.31.17-.56.36-.56.22.01.37.29.36.62-.01.31-.16.56-.36.56m.02-1.13c-.17 0-.31.23-.31.51-.01.29.12.54.29.56l.01.03v-.03c.16 0 .29-.23.3-.51 0-.29-.13-.54-.29-.56z" fill="#323f9d"/><path d="M15.04 7.69c-.02.31-.19.55-.37.52-.18-.02-.31-.29-.29-.6.02-.31.19-.54.37-.52.19.03.32.29.29.6" fill-rule="evenodd" clip-rule="evenodd" fill="#fff"/><path d="M14.7 8.25h-.03c-.2-.02-.34-.3-.31-.63.02-.31.19-.55.37-.55.22.03.36.31.34.63-.02.31-.18.55-.37.55m.05-1.13c-.18 0-.31.22-.34.5-.02.29.1.55.26.57h.02c.16 0 .3-.22.32-.5.03-.29-.09-.55-.26-.57z" fill="#323f9d"/><path d="M14.55 8.44c-.01.31-.16.56-.35.54-.18-.01-.32-.27-.31-.59.01-.31.16-.55.34-.54.19.02.33.28.32.59" fill-rule="evenodd" clip-rule="evenodd" fill="#fff"/><path d="M14.22 9.01h-.02c-.2-.02-.35-.29-.34-.62.01-.32.17-.57.36-.57.21.01.36.29.36.62-.01.32-.17.57-.36.57m.01-1.13c-.17 0-.31.23-.31.51-.01.3.12.55.29.56l.01.03v-.03c.16 0 .3-.23.3-.51.01-.29-.12-.55-.29-.56z" fill="#323f9d"/><path d="M14.8 9.31c-.08.3-.28.5-.46.45-.17-.05-.25-.34-.17-.64.08-.3.28-.5.46-.45.17.05.25.34.17.64" fill-rule="evenodd" clip-rule="evenodd" fill="#fff"/><path d="M14.4 9.8l-.07-.01c-.19-.06-.28-.36-.19-.68.07-.28.25-.48.43-.48.26.07.34.37.26.69-.07.27-.25.48-.43.48m.21-1.11c-.19 0-.35.18-.41.43-.07.28 0 .56.15.61l.05.01c.15 0 .31-.19.37-.43.07-.29.01-.56-.15-.61h-.01z" fill="#323f9d"/><path d="M15.23 9.44c-.08.3-.28.5-.46.45-.17-.05-.25-.34-.17-.64.08-.3.28-.5.46-.45.17.05.25.34.17.64" fill-rule="evenodd" clip-rule="evenodd" fill="#fff"/><path d="M14.83 9.93l-.07-.01c-.19-.06-.28-.36-.19-.68.07-.28.25-.48.43-.48.26.07.34.37.26.69-.07.28-.25.48-.43.48m.21-1.1c-.19 0-.35.18-.41.43-.07.28-.01.56.15.61l.05.01c.15 0 .31-.19.37-.43.07-.29.01-.56-.15-.61h-.01z" fill="#323f9d"/><path d="M15.18 8.46c-.03.31-.19.54-.37.52-.18-.02-.31-.29-.29-.6.02-.31.19-.55.37-.52.18.02.31.29.29.6" fill-rule="evenodd" clip-rule="evenodd" fill="#fff"/><path d="M14.83 9.01h-.03c-.2-.02-.34-.31-.31-.63.02-.31.19-.55.37-.55.22.03.36.31.34.64-.02.3-.18.54-.37.54m.06-1.13c-.18 0-.32.22-.34.5-.02.29.1.55.26.57h.02c.16 0 .3-.22.32-.5.02-.29-.1-.55-.26-.57z" fill="#323f9d"/></svg>