<svg xmlns="http://www.w3.org/2000/svg" viewBox="0 0 58.93 34.37"><path fill="#c9002a" d="M0 0h58.93v34.37H0z"/><path fill="#63accc" d="M19.64 0h19.64v34.37H19.64z"/><path d="M9.82 9.82c1.49 0 2.7 1.21 2.7 2.7 0 1.49-1.21 2.7-2.7 2.7-1.49 0-2.7-1.21-2.7-2.7 0-1.49 1.21-2.7 2.7-2.7" fill="#f5eb2e"/><path d="M9.82 8.35a2.949 2.949 0 1 1 0 5.9 2.949 2.949 0 1 1 0-5.9" fill="#c9002a"/><path d="M9.82 9.82a1.965 1.965 0 0 1 0 3.93c-1.09 0-1.96-.88-1.96-1.97 0-1.08.87-1.96 1.96-1.96M9.77 5.43c-.37.27-.09.7-.12.94-.03.25-.15.3-.21.5-.07.26-.04.53.02.64.05.1.08.18.1.26 0 .01 0 .01.01.02v.07c0 .13-.11.25-.25.25s-.24-.11-.24-.25v-.02-.02-.01-.01-.01-.01c.04-.13.16-.24.15-.41 0-.22-.15-.33-.18-.4-.01-.06-.04-.19.01-.33-.1.13-.22.23-.22.37 0 .1.06.21.06.36-.01.18-.3.29-.31.73a1.23 1.23 0 1 0 2.46 0c-.01-.44-.3-.56-.3-.73-.01-.15.05-.26.05-.36 0-.14-.12-.24-.22-.37.06.14.02.27-.01.32-.03.07-.18.18-.18.4 0 .17.12.28.15.41v.08c0 .13-.11.25-.25.25-.1 0-.2-.07-.23-.16-.01-.03-.02-.05-.02-.08 0-.02 0-.03.01-.04v-.01-.01-.01-.01-.01-.01c.02-.09.07-.17.1-.23.04-.11.12-.28.12-.51 0-.17-.04-.55-.25-.84-.14-.23-.24-.33-.3-.48-.03-.07 0-.17.05-.27M4.42 15.71h2.46v11.78H4.42zM12.77 15.71h2.46v11.78h-2.46zM7.37 15.72h4.91l-2.46 1.47M7.36 17.68h4.91v.98H7.36zM7.36 24.55h4.91v.98H7.36zM7.37 26.03h4.91L9.82 27.5M9.82 19.15c1.36 0 2.46 1.1 2.46 2.46 0 1.36-1.1 2.46-2.46 2.46-1.36 0-2.46-1.1-2.46-2.46 0-1.36 1.1-2.46 2.46-2.46" fill="#f5eb2e"/><path d="M9.82 18.91c.77 0 1.4.63 1.4 1.4 0 .77-.63 1.4-1.4 1.4-.77 0-1.4-.63-1.4-1.4 0-.78.63-1.4 1.4-1.4" fill="#c9002a"/><path d="M9.82 19.1c.67 0 1.2.54 1.2 1.2s-.54 1.2-1.2 1.2c-.66 0-1.2-.54-1.2-1.2s.54-1.2 1.2-1.2" fill="#f5eb2e"/><path d="M9.82 19.82a.49.49 0 1 1-.002.982.49.49 0 0 1 .002-.982M9.82 21.51c.77 0 1.4.63 1.4 1.4 0 .77-.63 1.4-1.4 1.4-.77 0-1.4-.63-1.4-1.4 0-.77.63-1.4 1.4-1.4" fill="#c9002a"/><path d="M9.82 21.71c.67 0 1.2.54 1.2 1.2s-.54 1.2-1.2 1.2c-.66 0-1.2-.54-1.2-1.2s.54-1.2 1.2-1.2" fill="#f5eb2e"/><path d="M9.82 22.42a.49.49 0 1 1-.002.982.49.49 0 0 1 .002-.982" fill="#c9002a"/></svg>