<svg xmlns="http://www.w3.org/2000/svg" viewBox="0 0 58.93 34.37"><path fill="#33795e" d="M0 0h58.93v34.37H0z"/><path d="M29.46 19.53c-.87.6-1.79 1.9-3.91 1.9-3 0-4.11-.88-5-1.54-.03-.1.76-.46.76-.46 1.2.84 2.54 1.58 5.03 1.47-3.08-.27-5.16-1.95-5.79-3.5 1.67-1.15 4.43-1.13 6.69.46-.71-.87-3.07-1.84-4.83-1.57-.25-.26-.47-.59-.73-.85 2.03-.45 4.85.84 5.89 1.89-1.09-1.73-1.89-3.69-.6-6.08.25.24.54.48.79.72-.97 1.75-.62 3.8.17 5.23-1.36-2.77-.27-5.5 1.52-6.83 1.79 1.33 2.88 4.06 1.52 6.83.78-1.43 1.14-3.48.17-5.23.25-.24.54-.48.79-.72 1.29 2.39.5 4.35-.6 6.08 1.04-1.05 3.86-2.34 5.89-1.89-.25.26-.47.59-.73.85-1.77-.27-4.13.7-4.83 1.57 2.26-1.59 5.02-1.61 6.69-.46-.63 1.55-2.71 3.23-5.79 3.5 2.49.11 3.83-.63 5.03-1.47 0 0 .79.36.76.46-.89.67-2 1.54-5 1.54-2.1 0-3.02-1.3-3.89-1.9" fill="#fff"/><path d="M29.46 20.11c-1.25 1.03-2 1.69-3.65 1.69l-4.98-.01c.13.24.26.47.41.69l4.72.01c2.27 0 3.51-1.44 3.51-1.44s1.24 1.44 3.51 1.44l4.72-.01c.14-.22.28-.46.4-.69l-4.98.01c-1.66-.01-2.41-.66-3.66-1.69" fill="#fff"/><path fill="#f2d02f" d="M29.46 5.64l.46 1.38h1.47l-1.19.86.45 1.38-1.19-.85-1.19.85.45-1.38-1.19-.86h1.48zM20.6 11.83l.89.18.46-.78.1.9.9.19-.84.37.09.9-.61-.67-.84.36.46-.78zM23.71 7.8l.68.6.8-.45-.38.83.68.6-.91-.09-.37.83-.19-.89-.91-.09.79-.46zM38.33 11.83l-.9.18-.46-.78-.09.9-.9.19.84.37-.1.9.61-.67.84.36-.46-.78zM35.21 7.8l-.68.6-.79-.45.37.83-.68.6.91-.09.37.83.19-.89.92-.09-.8-.46z"/><path d="M21.67 23.1c.06.08.13.16.19.24h15.21c.06-.08.13-.16.19-.24H21.67zm.84.96c.16.17.34.33.51.48H35.9c.18-.15.35-.32.51-.48h-13.9zm1.11.97c.36.27.73.51 1.13.72h9.43c.39-.21.77-.45 1.13-.72H23.62zm1.59.96c1.25.6 2.65.94 4.13.96h.25c1.48-.02 2.88-.36 4.12-.96h-8.5z" fill="#fff"/></svg>