<svg xmlns="http://www.w3.org/2000/svg" viewBox="0 0 58.92 34.37"><path fill="#376fb8" d="M0 0h58.92v34.37H0z"/><path d="M32.87 25.76s1.04-1.1 2.04-.89c.3-1.16 1.43-1.25 1.43-1.25s-.11-1.28 1.34-1.56c.04-.87.92-1.59.92-1.59s-.18-1.35.74-1.66c-.56-1.07.19-1.85.18-1.87-.01-.02-.95-1.69-.11-2.17-.89-.75-.6-1.6-.6-1.6s-.97-.25-.62-1.41c-.8-.14-.96-1.43-.96-1.43s-1.23.25-1.38-.82c-.81.13-.9-.67-.91-.67-.01 0-1.61.43-1.93-.78-.62.32-.89-.25-.89-.25s-.89.44-1.42-.41c-1.06.66-1.65-.03-1.65-.03s-1.39.94-1.85.23c-.82.83-1.55.47-1.55.47s-.62 1.1-1.62.82c-.23 1.02-1.38 1.04-1.38 1.04s.12.9-1.26 1.14c-.18 1.06-.9 1.24-.9 1.24s.07 1.03-.58 1.36c.23.58-.37 1.29-.37 1.29s.64.8-.23 1.7c.84.22.23 1.67.23 1.67s1.16.52.43 1.48c.83.27.57.93.58 1.32.53.24 1 .12.77 1.19 1.63.18.86 1.08.86 1.08s.76.03.46.63c1.39-.03 1.59 1.04 1.59 1.04s1.29-.34 1.46.16c.17.5-.56 3.86-.56 3.86s-1.09 0-1.9-.87c-1.9-.05-1.48-1.3-1.51-1.3-.03 0-.63.23-.94-.81-1.27.26-1.23-.81-1.24-.82-.01-.01-.57-.26-.36-.79-1.31.12-1.21-1.16-1.21-1.16-.29-.12-.39-.38-.35-.65-.17-.06-1.33-.08-.73-1.61-1.11-.67-.42-1.44-.42-1.44s-1.53-.79-.35-1.7c-.88-1.3.07-1.95.07-1.95s-1.22-1.24.02-2.12c-.2-1.88.92-2.33.92-2.33s-.59-1.53 1.01-2.17c.1-1.55 1.22-1.59 1.22-1.59s.03-1.23 1.79-1.11c.35-1.09 1.55-.87 1.55-.87s.37-1.33 2-.69c.83-1.62 2.06-.79 2.06-.79s.78-.51 1.17-.35c.49-.85 1.55-.03 2.23.13.25-.1 1.13-.76 1.81.08.9-.59 1.67.47 1.67.47s1.24-.63 1.82.81c2.63-.24 2.25 1.48 2.25 1.48s2.07-.47 1.62 1.59C41.19 8.66 41 9.9 41 9.9s1.19.9.67 1.71c1.06.05.67 1.07.67 1.07s.81.31.14 1.57c1.55 1.24.3 2.47.29 2.46-.01-.01.83 1 .07 2.16.23 1.84-.7 2.31-.7 2.31s.24 1.19-.8 1.53c-.02 1.4-1.34 1.57-1.34 1.57s.35.61-.96 1.25c-.05.94-1.42 1.01-1.42 1.01s-.13 1.72-1.87 1.26c-.42 1.38-2.46.97-2.5.95-.03-.04-.38-2.98-.38-2.99" fill="#fff"/><path d="M25.18 29.14h-.04c-.05 0-1.12-.01-1.94-.89h-.01c-.61 0-1.07-.16-1.32-.46-.26-.3-.23-.66-.2-.82-.02.01-.06.01-.1.01-.26 0-.6-.15-.82-.82-.75.14-1.21-.19-1.25-.86-.33-.17-.47-.44-.39-.75-.39.02-.68-.08-.89-.31-.33-.36-.3-.9-.29-.92-.24-.06-.39-.3-.36-.6-.01 0-.02 0-.04-.01-.18-.03-.57-.11-.75-.45-.15-.28-.13-.67.06-1.17-.36-.23-.57-.49-.61-.78-.05-.31.1-.55.17-.66-.18-.11-.72-.46-.76-.94-.03-.27.12-.54.42-.79-.73-1.12-.12-1.78.07-1.94-.14-.16-.56-.68-.51-1.26.03-.35.22-.65.58-.9-.2-1.63.67-2.19.88-2.31-.08-.27-.41-1.6 1.06-2.19.06-1.35.96-1.56 1.19-1.59.03-.24.25-1.21 1.84-1.11.24-.95 1.26-.92 1.5-.89.07-.19.38-.86 1.22-.86.24 0 .5.05.79.16.43-.82.97-.99 1.35-.99.42 0 .74.21.77.22-.04-.01.7-.46 1.1-.35.16-.25.38-.37.67-.37.33 0 .68.15 1.03.3.21.09.4.17.57.21 0-.01.05-.04.1-.06.2-.1.53-.28.88-.28.32 0 .59.13.82.4.18-.11.36-.16.55-.16.58 0 1.01.49 1.12.64.09-.04.32-.12.6-.12.39 0 .93.17 1.25.98.12-.05.28-.06.43-.06.75 0 1.29.19 1.58.56.28.35.27.75.25.93.25-.04 1.03-.14 1.44.37.22.28.28.69.18 1.24.67.06 1.15.26 1.43.61.31.39.25.8.25.82.04-.02 1.13.82.71 1.65.28.03.48.14.59.31.18.28.09.65.05.78.08.04.25.16.34.39.12.31.05.71-.19 1.19.84.7.84 1.39.67 1.85-.1.28-.28.53-.38.63.16.22.72 1.15.04 2.18.24 1.79-.65 2.29-.72 2.32.04.01.24 1.19-.81 1.53.02 1.2-1 1.5-1.28 1.56.02.07.04.19-.01.34-.1.33-.44.64-1 .91-.02.83-1.14.99-1.39 1.01-.04.25-.25 1.34-1.37 1.34-.16 0-.33-.02-.51-.07-.23.65-.87 1.01-1.82 1.01-.39 0-.71-.06-.74-.08-.08-.04-.42-2.99-.42-3.02.05-.08.91-.97 1.84-.97.07 0 .15.01.22.02.28-.99 1.18-1.2 1.41-1.23 0-.25.08-1.31 1.39-1.57-.01-.82.84-1.53.89-1.58-.02 0-.17-1.29.7-1.64-.21-.45-.34-1.11.19-1.83.01 0-.23-.42-.36-.9-.17-.61-.09-1.05.22-1.28-.71-.64-.62-1.35-.57-1.55-.12-.04-.39-.17-.56-.46-.15-.26-.17-.57-.07-.94-.69-.17-.89-1.15-.93-1.41-.24.03-1.21.12-1.38-.82-.49.06-.8-.2-.91-.7-.15.07-.38.1-.58.1-.49 0-1.12-.15-1.33-.83-.11.05-.22.07-.32.07-.32 0-.49-.23-.56-.33-.09.04-.28.1-.51.1-.26 0-.63-.09-.91-.5-.3.17-.59.26-.86.26-.42 0-.69-.21-.78-.3-.16.1-.78.46-1.29.46-.24 0-.43-.08-.56-.24-.73.71-1.35.52-1.52.45-.11.18-.58.85-1.32.85-.09 0-.19-.01-.28-.03-.23.86-1.12 1-1.36 1.02 0 .21-.1.93-1.31 1.14-.12.9-.68 1.17-.85 1.22.01.21-.01 1.02-.57 1.35.17.52-.25 1.11-.37 1.26.11.17.5.88-.2 1.67.14.06.24.15.31.29.22.45-.03 1.18-.11 1.38.14.07.53.31.63.71.06.25 0 .51-.18.77.64.24.59.74.56 1.11-.01.09-.02.17-.01.24.08-.01.17.03.26.06.39.13.69.23.52 1.08.56.07.89.24 1 .5.09.23-.02.46-.1.58.13.02.34.08.43.24.06.1.07.23.01.38 1.16.04 1.48.81 1.54 1.02.13-.03.46-.1.78-.1.39 0 .62.1.69.31.17.51-.53 3.76-.56 3.9v.06zm-3.48-2.28l.09.04-.01.07c-.02.12-.07.47.17.75.23.27.66.42 1.28.44.73.76 1.64.85 1.85.87.25-1.17.68-3.41.55-3.79-.05-.2-.34-.24-.57-.24-.38 0-.8.11-.81.11l-.06.02-.01-.06c-.01-.04-.2-.99-1.48-.99h-.09L22.6 24c.07-.15.08-.26.03-.35-.11-.18-.44-.2-.44-.2h-.12l.08-.09s.24-.29.14-.55c-.09-.22-.42-.38-.96-.43l-.06-.01.01-.06c.17-.81-.05-.89-.43-1.01-.1-.03-.2-.07-.3-.11-.04-.13-.03-.21-.02-.3.04-.38.08-.81-.55-1.02l-.08-.02.05-.07c.2-.26.27-.51.21-.74-.11-.42-.61-.65-.62-.65l-.05-.02.02-.05c0-.01.36-.87.13-1.33a.489.489 0 0 0-.33-.26l-.09-.02.07-.07c.82-.85.23-1.62.23-1.63l-.03-.03.03-.04c.01-.01.57-.69.36-1.23l-.02-.05.05-.02c.61-.31.55-1.29.55-1.3v-.05l.05-.01c.03-.01.69-.19.86-1.19 1.35-.27 1.26-1.09 1.26-1.12l-.01-.06h.06c.04 0 1.11-.03 1.32-.99v-.1l.06.02c.1.03.21.04.31.04.76 0 1.24-.83 1.24-.84l.02-.04.05.02s.67.37 1.48-.46l.05-.05.04.06c.11.16.27.24.5.24.55 0 1.26-.46 1.27-.47l.04-.03.03.04s.26.3.73.3c.27 0 .55-.09.85-.28l.05-.03.03.05c.21.33.49.5.84.5.28 0 .5-.11.5-.11l.05-.03.03.05c.01.01.15.32.48.32.1 0 .21-.03.33-.09l.07-.03.02.07c.18.67.77.81 1.24.81.2 0 .41-.03.61-.07h.04l.04.06c.07.31.27.7.84.61l.06-.01.01.06c.09.66.61.8 1.02.8.17 0 .28-.03.29-.03l.06-.01.01.06c0 .01.17 1.25.91 1.38l.06.01-.02.06c-.11.36-.1.67.04.91.18.33.54.42.54.42l.06.02-.02.06c-.01.03-.26.82.58 1.54l.06.05-.07.04c-.32.18-.4.59-.24 1.19.13.47.36.9.37.9l.02.03-.05.07c-.52.71-.37 1.36-.15 1.77l.03.06-.07.02c-.86.29-.7 1.58-.7 1.59-.03.06-.88.77-.92 1.6-1.43.32-1.34 1.5-1.34 1.55l.01.06h-.06c-.04 0-1.09.1-1.38 1.21l-.01.05-.05-.01c-.08-.02-.16-.02-.25-.02-.88 0-1.73.89-1.74.9.03.12.35 2.78.4 2.9-.01-.02.29.04.67.04.65 0 1.48-.17 1.73-.98l.02-.05.05.01c.19.05.37.08.54.08 1.15 0 1.26-1.23 1.26-1.28v-.05h.05c.01 0 1.32-.09 1.36-.96.7-.37.91-.68.98-.88.06-.2-.01-.33-.01-.33l-.04-.07.08-.01c.05-.01 1.27-.18 1.29-1.51 1.02-.37.81-1.47.8-1.52.04-.07.92-.54.7-2.31.7-1.09.02-2.02-.06-2.13l.04-.09c.03-.04.42-.47.43-1.04 0-.47-.25-.91-.75-1.31l-.04-.03.02-.04c.25-.46.32-.84.21-1.13-.1-.26-.32-.35-.32-.35l-.05-.02.02-.05s.16-.44-.02-.73c-.11-.16-.31-.25-.59-.26h-.1l.05-.08c.48-.76-.65-1.62-.66-1.63-.02-.11.04-.5-.24-.84-.27-.33-.74-.53-1.41-.57h-.07l.02-.07c.12-.54.07-.94-.14-1.21-.45-.55-1.41-.31-1.41-.31l-.09.02.02-.09c0-.01.11-.51-.22-.91-.33-.42-.96-.59-1.97-.5-.3-.63-.7-.95-1.21-.95-.33 0-.59.13-.59.13l-.04.02-.03-.04c0-.01-.46-.62-1.06-.62-.18 0-.36.06-.53.17l-.04.03-.03-.04c-.21-.26-.47-.4-.77-.4-.33 0-.63.16-.83.26-.06.03-.11.06-.15.07-.21-.04-.41-.13-.63-.22-.61-.25-1.27-.44-1.57.07l-.03.04-.04-.01c-.32-.13-1.11.34-1.12.35-.07 0-.37-.2-.77-.2-.51 0-.94.33-1.27.97l-.02.05-.05-.02c-.28-.13-.55-.18-.79-.18-.89 0-1.12.79-1.13.82l-.01.05-.05-.01c-.01 0-1.15-.19-1.47.84-.14.03-.22.03-.29.03-1.45 0-1.5 1.02-1.5 1.06v.05h-.05c-.04 0-1.07.06-1.16 1.53-1.56.66-1.04 2.08-1.01 2.15l.02.05-.05.02c-.04.02-1.08.46-.88 2.27-.35.28-.52.55-.55.87-.05.63.51 1.21.52 1.22l.02.05-.06.04c-.04.02-.89.64-.06 1.87l.03.05-.04.03c-.3.23-.45.48-.42.72.05.51.76.88.76.88l.06.03-.05.05s-.24.28-.19.63c.04.27.24.51.6.73l.04.02-.02.05c-.19.49-.22.86-.08 1.12.16.29.49.36.68.39.04.01.08.02.1.02l.04.02-.01.05c-.03.21.03.47.32.59.04.06 0 .57.3.89.2.21.49.3.88.26l.09-.01-.03.09c-.15.39.14.61.32.71l.04.07c.02.29.15.79.81.79.11 0 .23-.01.36-.04l.05-.01.02.05c.2.65.5.79.72.79.08 0 .13-.01.15-.02"/><path d="M20.24 9.28c.01 0 .44.38.36.95-.08.57-.41 1.36-.34 1.95.04.24.02.66.02.66s-.39-.56-.4-1.16c-.01-.6.43-1.17.43-1.61 0-.45-.08-.8-.07-.79" fill="#3b7b0f"/><path d="M20.28 12.89c-.02 0-.03-.01-.05-.02-.02-.02-.41-.58-.41-1.19 0-.33.13-.66.24-.95.1-.24.18-.47.18-.66 0-.32-.04-.6-.06-.72 0-.02-.01-.1.01-.11.06-.02.08-.02.19.1.13.15.33.47.27.89-.03.21-.09.44-.15.68-.11.44-.23.89-.19 1.26.04.24.02.65.02.67 0 .03-.02.05-.04.05h-.01m.03-3.46c.03.15.06.38.06.63 0 .21-.09.45-.19.7-.12.29-.24.6-.23.91 0 .38.17.76.29.96 0-.14-.01-.33-.03-.45-.04-.39.08-.85.19-1.3.06-.24.12-.47.15-.67a1 1 0 0 0-.24-.78"/><path d="M20.03 9.45s-.57.55-.65 1.08c-.05.27-.07 1.55-.08 2.11-.01.17-.08.86-.1 1.11-.02.25.42-.43.45-.98-.01-.57-.01-1.76.04-1.95.05-.23.04-.49.12-.72.1-.32.22-.65.22-.65" fill="#3b7b0f"/><path d="M19.22 13.85c-.02 0-.04-.01-.05-.02a.292.292 0 0 1-.02-.09c.01-.15.04-.45.06-.7.02-.18.03-.33.04-.4.01-.67.03-1.85.08-2.12.08-.54.64-1.08.66-1.1a.06.06 0 0 1 .08 0c.03.03.03.03-.06.29l-.14.43c-.05.13-.06.27-.08.41-.01.1-.02.21-.04.3-.05.16-.06 1.25-.04 1.93-.03.43-.34 1.07-.49 1.07m.67-4.17c-.17.2-.41.53-.45.85-.04.19-.07.96-.08 2.1-.01.07-.02.23-.04.41-.02.22-.05.48-.06.64.11-.15.31-.55.33-.92-.01-.43-.02-1.75.05-1.96.02-.09.03-.19.04-.28.01-.15.03-.29.08-.44l.13-.4z"/><path d="M32.6 7.66s.74-.34.95-.98c.21-.64-.64-.64-.75-.44-.11.2.09.71.04.84-.05.14-.36.46-.24.58" fill="#f6d128"/><path d="M32.59 7.7l-.02-.02c-.1-.1.04-.3.14-.46.04-.06.08-.12.09-.15.02-.05-.01-.17-.03-.3-.04-.2-.08-.42-.01-.54.1-.17.62-.17.78.05.08.11.09.25.03.42-.21.64-.94.98-.97 1h-.01zm.53-1.54c-.14 0-.26.04-.29.1-.06.11-.02.33.02.51.03.15.05.27.03.33-.02.04-.06.1-.1.16-.08.12-.19.29-.16.37.13-.06.73-.4.91-.95.05-.15.04-.27-.02-.36-.08-.1-.22-.16-.39-.16" fill="#e08728"/><path d="M26.03 7.9s.48-.66.35-1.32-.87-.25-.87-.02.43.57.45.71c.02.14-.09.57.07.63" fill="#f6d128"/><path d="M26.04 7.93l-.02-.01c-.13-.04-.12-.28-.1-.47.01-.07.01-.14.01-.18-.01-.05-.09-.15-.17-.25-.13-.15-.27-.32-.27-.47 0-.16.28-.37.54-.37.12 0 .33.05.39.38.13.66-.34 1.32-.36 1.34l-.02.03zm-.02-1.68c-.24 0-.48.2-.48.31 0 .12.15.29.26.43.1.12.18.21.19.28.01.04 0 .11-.01.19-.01.15-.03.34.04.4.08-.12.44-.7.34-1.27-.05-.28-.21-.34-.34-.34" fill="#e08728"/><path d="M24.73 8.29s.48-.66.35-1.32c-.12-.66-.87-.25-.87-.02s.43.57.45.71-.09.57.07.63" fill="#f6d128"/><path d="M24.74 8.32l-.02-.01c-.13-.04-.11-.28-.1-.47.01-.07.01-.14.01-.18-.01-.05-.09-.15-.17-.25-.13-.15-.28-.33-.28-.47 0-.15.28-.37.54-.37.12 0 .33.05.39.38.13.66-.34 1.32-.36 1.34l-.01.03zm-.02-1.68c-.24 0-.48.2-.48.31 0 .12.14.29.26.43.1.12.18.21.18.28.01.04 0 .11-.01.19 0 .15-.02.35.05.4.08-.12.45-.7.34-1.27-.05-.28-.21-.34-.34-.34" fill="#e08728"/><path d="M23.29 8.73s.48-.66.35-1.32-.87-.25-.87-.02.43.57.45.71c.01.15-.09.58.07.63" fill="#f6d128"/><path d="M23.3 8.77l-.02-.01c-.14-.04-.12-.28-.1-.47.01-.07.01-.14.01-.18-.01-.05-.09-.15-.17-.25-.13-.15-.28-.33-.28-.47 0-.15.28-.37.54-.37.12 0 .33.05.39.38.13.66-.34 1.31-.36 1.34l-.01.03zm-.02-1.68c-.24 0-.48.2-.48.31 0 .12.14.29.26.43.1.11.18.21.18.28.01.05 0 .11-.01.19-.01.15-.03.34.04.4.08-.12.44-.7.34-1.27-.05-.28-.21-.34-.33-.34" fill="#e08728"/><path d="M22.27 9.75s.48-.66.35-1.32-.87-.25-.87-.02.43.57.45.71c.02.15-.09.58.07.63" fill="#f6d128"/><path d="M22.28 9.78l-.02-.01c-.14-.04-.12-.28-.1-.47.01-.07.01-.14.01-.18-.01-.04-.09-.14-.17-.24-.13-.15-.28-.33-.28-.47 0-.15.28-.37.54-.37.12 0 .33.05.39.38.13.66-.34 1.32-.36 1.34l-.01.02zm-.02-1.68c-.24 0-.48.2-.48.31 0 .12.14.29.26.43.1.12.18.21.18.28.01.05 0 .11-.01.19-.01.15-.03.34.04.4.08-.12.44-.7.34-1.27-.04-.28-.2-.34-.33-.34" fill="#e08728"/><path d="M21.2 10.73s.48-.66.36-1.32c-.13-.66-.87-.25-.87-.02s.43.57.45.71c.01.15-.1.57.06.63" fill="#f6d128"/><path d="M21.22 10.76l-.02-.01c-.13-.04-.11-.28-.1-.47.01-.07.01-.14.01-.18-.01-.05-.09-.15-.17-.24-.13-.15-.28-.33-.28-.47 0-.15.28-.37.54-.37.12 0 .33.05.39.38.13.66-.34 1.32-.36 1.34l-.01.02zm-.02-1.68c-.24 0-.48.2-.48.31 0 .12.14.29.26.43.1.12.17.21.18.28.01.04 0 .11-.01.19-.01.15-.03.35.04.4.08-.12.45-.7.34-1.27-.05-.28-.21-.34-.33-.34" fill="#e08728"/><path d="M23.66 5.02s-.64.51-.7 1.18c-.06.67.77.47.83.25.06-.23-.26-.67-.24-.81.03-.14.25-.52.11-.62" fill="#f6d128"/><path d="M23.36 6.68c-.1 0-.23-.02-.33-.12-.08-.09-.11-.21-.1-.37.06-.67.68-1.17.71-1.2.15.08.07.3.01.47-.03.07-.05.13-.06.17-.01.05.05.17.1.28.08.18.18.39.14.53-.04.14-.26.24-.47.24m.28-1.63c.01.02-.6.52-.65 1.15-.01.14.01.25.08.32.08.09.2.1.28.1.2 0 .39-.1.41-.19.03-.12-.06-.32-.14-.49-.06-.14-.11-.25-.1-.32.01-.04.03-.11.06-.18.07-.14.14-.34.06-.39" fill="#e08728"/><path d="M25.8 4.36s-.64.51-.7 1.17c-.06.67.77.47.84.25.06-.22-.26-.66-.24-.8.02-.14.24-.52.1-.62" fill="#f6d128"/><path d="M25.5 6.03c-.1 0-.23-.02-.33-.13-.08-.09-.11-.21-.1-.37.06-.67.68-1.17.71-1.19.15.08.07.3 0 .47-.03.07-.05.13-.06.17-.01.05.05.17.1.28.08.18.18.39.14.53-.03.13-.25.24-.46.24m.28-1.64c.01.02-.6.51-.65 1.15-.01.14.02.25.08.33.08.09.2.1.28.1.2 0 .39-.1.41-.19.03-.12-.06-.32-.14-.49-.06-.14-.11-.25-.1-.31.01-.05.03-.11.06-.19.07-.15.14-.35.06-.4" fill="#e08728"/><path d="M17.83 10.13s.13.81.69 1.18c.56.37.79-.45.62-.61-.17-.16-.71-.09-.82-.18-.11-.09-.34-.46-.49-.39" fill="#f6d128"/><path d="M18.8 11.43c-.09 0-.19-.03-.29-.1-.56-.37-.7-1.16-.71-1.2v-.03l.08-.01c.11 0 .23.14.34.27.05.05.09.11.13.13.04.03.17.04.3.05.2.01.42.03.53.13.08.08.08.27.01.45-.09.2-.23.31-.39.31m-.92-1.28c-.01 0 .13.78.67 1.13.32.21.53-.07.58-.18.06-.15.06-.33 0-.39-.09-.09-.31-.1-.49-.12-.15-.01-.27-.02-.33-.06-.04-.03-.08-.08-.13-.14-.09-.09-.22-.24-.3-.24z" fill="#e08728"/><path d="M16.77 12.87s.01.82.5 1.27c.49.46.85-.32.71-.51s-.68-.2-.78-.31c-.11-.1-.27-.51-.43-.45" fill="#f6d128"/><path d="M17.57 14.31c-.11 0-.21-.05-.32-.15-.5-.46-.51-1.26-.51-1.29.18-.04.28.14.38.29l.1.15c.04.04.16.07.28.1.2.05.41.1.5.22.06.08.04.24-.03.4-.1.17-.25.28-.4.28m-.78-1.42c0 .02.02.8.49 1.23.1.09.19.13.28.13.13 0 .26-.1.35-.26.07-.13.08-.28.04-.33-.07-.1-.29-.15-.47-.19-.15-.04-.26-.06-.31-.11a.855.855 0 0 1-.11-.16c-.07-.14-.18-.31-.27-.31" fill="#e08728"/><path d="M19.23 15.92s-.29-.76-.91-1.02c-.62-.25-.69.6-.49.72.19.13.71-.05.84.01.13.07.43.39.56.29" fill="#f6d128"/><path d="M19.16 15.97c-.11 0-.24-.11-.36-.2a.918.918 0 0 0-.15-.11c-.04-.02-.17-.01-.3.01-.21.03-.44.04-.54-.02-.1-.07-.14-.31-.08-.51.08-.28.31-.39.6-.27.63.26.92 1 .93 1.03l.01.04-.11.03zm-.58-.38c.05 0 .08.01.1.02.04.02.1.06.16.11.11.08.24.18.33.18v.03l.04-.04c-.02 0-.31-.72-.9-.97-.32-.13-.48.1-.52.23-.06.19-.02.39.06.44.09.06.31.04.51.02.07-.01.16-.02.22-.02" fill="#e08728"/><path d="M18.72 14.6s.49-.65.38-1.31c-.11-.66-.87-.27-.87-.04-.01.23.42.58.43.72.01.15-.1.57.06.63" fill="#f6d128"/><path d="M18.73 14.63l-.02-.01c-.13-.05-.11-.28-.09-.47.01-.07.01-.14.01-.18 0-.05-.09-.15-.17-.25-.13-.15-.27-.33-.27-.48 0-.16.29-.36.54-.36.12 0 .34.05.4.39.11.67-.37 1.31-.39 1.33l-.01.03zm0-1.68c-.24 0-.47.19-.48.3 0 .12.14.3.25.44.1.12.17.21.18.28 0 .05 0 .11-.01.19-.02.15-.04.34.03.4.08-.12.46-.69.36-1.27-.04-.28-.2-.34-.33-.34" fill="#e08728"/><path d="M34.11 8.32s.74-.34.95-.98c.21-.64-.64-.64-.75-.44-.11.2.09.71.04.84-.05.14-.35.46-.24.58" fill="#f6d128"/><path d="M34.1 8.36l-.02-.02c-.09-.1.03-.29.14-.46.04-.06.08-.12.09-.15.02-.05-.01-.17-.03-.3-.04-.2-.08-.42-.01-.54.1-.17.62-.17.78.05.08.11.09.25.03.41-.21.64-.94.98-.97 1l-.01.01zm.53-1.54c-.14 0-.26.04-.29.1-.06.11-.02.33.02.51.03.15.05.27.03.33-.02.04-.06.1-.1.17-.08.12-.19.29-.16.37.13-.07.73-.4.91-.95.05-.15.04-.27-.02-.36-.08-.11-.22-.17-.39-.17" fill="#e08728"/><path d="M36.35 9.44s.44-.69.27-1.34c-.17-.65-.89-.19-.87.04.01.23.46.54.49.68.03.14-.05.58.11.62" fill="#f6d128"/><path d="M36.37 9.48l-.02-.01c-.14-.04-.13-.27-.13-.46 0-.07 0-.14-.01-.18-.01-.05-.1-.14-.19-.23-.14-.14-.3-.31-.31-.45 0-.06.03-.13.09-.2.1-.1.27-.21.45-.21.11 0 .31.05.39.36.17.65-.25 1.33-.27 1.36v.02zm-.11-1.68c-.16 0-.32.1-.4.19-.05.06-.08.11-.08.15.01.12.16.28.29.42.1.11.19.19.2.26.01.04.01.11.01.19 0 .15-.01.35.07.39.07-.12.4-.73.25-1.29-.06-.21-.18-.31-.34-.31" fill="#e08728"/><path d="M42.47 15.79s-.29-.76-.91-1.02c-.62-.25-.68.6-.49.73.2.13.71-.05.84.01.12.06.43.38.56.28" fill="#f6d128"/><path d="M42.41 15.84c-.11 0-.24-.11-.36-.2-.06-.04-.11-.09-.15-.1-.04-.02-.16-.01-.3.01-.21.03-.44.04-.54-.02-.1-.07-.14-.31-.08-.51.08-.28.31-.39.6-.27.63.26.92 1 .93 1.03l.01.04-.11.02zm-.59-.37c.05 0 .08.01.1.02.04.02.1.06.16.11.11.08.24.19.33.19v.03l.04-.05c-.02 0-.31-.72-.91-.96-.32-.13-.48.1-.52.23-.06.19-.02.39.06.44.09.06.31.04.51.02a.97.97 0 0 1 .23-.03" fill="#e08728"/><path d="M39.48 16.26s.02-.82.51-1.26c.5-.45.85.33.71.51-.14.19-.69.2-.79.3-.1.1-.27.51-.43.45" fill="#f6d128"/><path d="M39.51 16.3l-.04-.01c-.02-.06 0-.86.51-1.31.26-.24.56-.16.72.15.08.16.09.33.03.41-.09.11-.31.16-.51.21-.12.03-.25.05-.28.09-.03.03-.07.09-.11.15-.1.14-.2.31-.32.31m.78-1.41c-.09 0-.19.04-.28.13-.43.39-.5 1.08-.5 1.22.09 0 .19-.17.27-.29.04-.07.08-.13.11-.16.05-.05.17-.07.31-.11.18-.04.39-.09.47-.18.04-.06.03-.21-.04-.34-.08-.17-.2-.27-.34-.27" fill="#e08728"/><path d="M39 7.61s-.76-.29-1.37 0c-.6.29-.01.91.21.85.22-.06.44-.57.57-.62.14-.05.58-.06.59-.23" fill="#f6d128"/><path d="M37.81 8.5c-.16 0-.41-.21-.46-.44-.03-.11-.03-.32.27-.46.18-.09.4-.14.64-.14.4 0 .73.13.75.13.01.17-.22.21-.41.25-.07.01-.14.02-.17.04-.05.01-.12.12-.2.22-.11.17-.24.35-.38.39l-.04.01zm.45-.99c-.23 0-.44.04-.62.13-.19.09-.28.23-.24.4.05.22.28.4.4.4v.03l.03-.03c.12-.03.25-.22.35-.37.09-.13.15-.22.22-.25.04-.02.11-.03.19-.04.16-.03.37-.07.38-.16-.03.01-.34-.11-.71-.11" fill="#e08728"/><path d="M37.25 6.15s-.76-.29-1.37 0c-.6.3 0 .91.22.85.22-.06.44-.57.57-.62.13-.05.57-.06.58-.23" fill="#f6d128"/><path d="M36.07 7.04c-.16 0-.41-.21-.46-.44-.03-.11-.03-.32.27-.46.18-.09.4-.14.64-.14.4 0 .73.13.75.13.01.17-.22.21-.41.25-.07.01-.14.03-.18.04-.05.02-.12.13-.19.23-.11.16-.24.35-.38.39h-.04zm.44-.99c-.23 0-.44.04-.62.13-.19.09-.28.23-.24.4.05.22.28.4.4.4v.03l.03-.03c.12-.03.25-.22.35-.36.09-.13.15-.23.22-.25.04-.02.11-.03.19-.04.16-.03.36-.07.38-.16-.02 0-.33-.12-.71-.12" fill="#e08728"/><path d="M34.65 4.76s-.65.5-.71 1.16c-.06.67.77.48.83.26.07-.22-.25-.67-.23-.81.02-.13.25-.52.11-.61" fill="#f6d128"/><path d="M34.33 6.42c-.1 0-.24-.02-.33-.13-.08-.09-.11-.21-.1-.37.07-.67.7-1.17.72-1.19.15.08.07.3 0 .48-.03.07-.05.13-.06.17-.01.05.04.17.09.28.08.18.17.39.13.53-.02.12-.24.23-.45.23m.3-1.64c.01.02-.6.51-.67 1.14-.01.14.01.25.08.33.08.09.2.11.29.11.2 0 .38-.1.41-.18.04-.12-.06-.33-.13-.49-.06-.14-.11-.25-.1-.32.01-.04.03-.11.06-.18.06-.15.14-.35.06-.41" fill="#e08728"/><path d="M32.95 4.35s-.3.76-.01 1.37c.29.6.91.02.85-.21-.06-.22-.56-.44-.61-.57-.05-.14-.06-.58-.23-.59" fill="#f6d128"/><path d="M33.3 6.01c-.11 0-.26-.05-.37-.28-.29-.61-.01-1.36 0-1.39.18 0 .21.22.24.41.01.07.03.14.04.18.02.05.13.12.23.19.16.12.35.24.39.39.02.07-.01.16-.09.26-.09.11-.26.24-.44.24m-.35-1.63c.02.01-.25.75.02 1.32.17.36.57.21.71.02.06-.08.09-.16.08-.21-.03-.12-.21-.25-.36-.35-.13-.09-.22-.15-.25-.22a.686.686 0 0 1-.04-.19c-.03-.15-.06-.36-.16-.37" fill="#e08728"/><path d="M28.14 7.28s.53-.62.45-1.29c-.08-.67-.85-.31-.87-.08-.02.23.39.6.39.74.02.15-.12.57.03.63" fill="#f6d128"/><path d="M28.15 7.32l-.02-.01c-.13-.06-.1-.29-.07-.47.01-.07.02-.14.02-.18 0-.05-.08-.16-.15-.26-.12-.16-.25-.35-.24-.49.01-.15.29-.33.53-.33.13 0 .36.05.4.41.08.67-.44 1.28-.46 1.31l-.01.02zm.07-1.68c-.22 0-.46.16-.47.28-.01.12.12.3.23.45.09.12.16.22.16.29 0 .05-.01.11-.02.19-.02.14-.05.34.01.4.09-.11.49-.67.43-1.25-.03-.3-.2-.36-.34-.36" fill="#e08728"/><path d="M31.02 8.62s1.26.08 1.32.81c.06.72-.3 1.17-.3 1.17s.16 1.57-1.08 2.03c-1.33.16-3.4.03-3.4.03s-.61.15-.86-1.11c-.25-1.27-.32-2.16-.32-2.16s.13-.71 1.02-.75c.89-.06 3.61 0 3.62-.02" fill="#89888a"/><path d="M29.24 12.75c-.9 0-1.67-.05-1.68-.05-.25.01-.7-.11-.91-1.16-.25-1.25-.32-2.16-.32-2.16 0-.02.14-.77 1.07-.81.56-.03 1.85-.02 2.72-.01l.72.01h.17c.07 0 1.33.09 1.39.85.06.74-.29 1.18-.31 1.21.02 0 .15 1.58-1.1 2.04-.47.06-1.05.08-1.75.08m-1.73-.15c.14 0 .88.04 1.72.04.7 0 1.27-.03 1.72-.08 1.17-.44 1.03-1.95 1.03-1.96.02-.04.36-.47.3-1.17-.06-.67-1.26-.75-1.27-.75h-.89c-.87-.01-2.15-.02-2.72.01-.83.04-.96.68-.96.71 0 0 .07.89.32 2.14.2 1 .62 1.07.74 1.07h.01z"/><path d="M31.42 11.83c-.03 0-.05-.02-.06-.04-.07-.36.55-1.15.62-1.24.02-.03.05-.03.08-.01.02.02.03.06.01.08-.18.23-.65.88-.6 1.14.01.03-.01.06-.04.07h-.01"/><path d="M31.12 12.57c.17.14.33.3.36.82.04.52.07 1.04.07 1.04l.88 7.96.78 5.76.05.89s-.18.65-.71.71c-.38.79-2.44 1.02-2.64 1.01-.18-.01-.84-.28-1.24-.25-.4.04-1.09.3-1.4.26-.31-.04-1.01-.28-1.13-.79-.87-.27-1.01-.94-1.01-.94l.94-6.66.91-8.42s.11-1.12.56-1.29c.48-.03 2.9.06 3.58-.1" fill="#89888a"/><path d="M27.36 30.84h-.09c-.26-.04-1.04-.27-1.18-.83-.85-.24-1-.91-1.01-.94l.94-6.68.91-8.42c0-.05.11-1.16.59-1.34.14-.02.42-.02.77-.02h.61c.87 0 1.82-.01 2.19-.1.24.17.4.34.43.88l.07 1.04.88 7.96.78 5.75.05.9c-.01.05-.2.71-.76.77-.35.8-2.38 1.02-2.64 1.02-.09 0-.21-.04-.37-.09-.25-.07-.56-.16-.8-.16h-.07c-.16.02-.39.07-.6.13-.24.06-.51.13-.7.13m.94-18.11c-.35 0-.62 0-.75.01-.33.12-.48.93-.51 1.24l-.91 8.42-.94 6.66c.01.01.15.61.97.87.16.54.88.75 1.12.79l.07.01c.17 0 .44-.07.69-.13.22-.05.45-.11.62-.13.25-.02.63.08.92.17.15.04.27.08.33.08.37 0 2.25-.27 2.59-.98.52-.08.7-.69.7-.7l-.05-.87-.78-5.75-.89-7.96-.07-1.04c-.03-.49-.17-.64-.34-.78-.34.1-1.24.11-2.17.11h-.6z"/><path d="M26.2 24.09h.11v5.89h-.11zM32.122 24.865l.52 4.852-.109.012-.52-4.852z"/><path d="M17.29 18.38c-.46-.01-1.41-.31-1.45-1.15-.03-.51.09-.73.19-.92.07-.14.13-.25.15-.44.04-.5.05-2.77.05-2.79 0-.03.02-.05.04-.05.02-.01.05 0 .06.02.02.02.39.55.47.86.08.35.2.91.36 1.14.77 1.13 1.16 1.86 1.19 2.23.01.24-.13.54-.34.76-.15.16-.39.34-.72.34zm-.95-5.12c0 .56-.02 2.19-.05 2.61-.02.22-.09.36-.16.49-.1.19-.2.39-.18.87.04.75.91 1.02 1.33 1.04.29-.01.51-.17.64-.3.19-.2.31-.47.31-.67-.02-.24-.24-.8-1.14-2.12-.2-.3-.33-.85-.4-1.19-.04-.23-.23-.54-.35-.73M20.35 9.67c-.34 0-.69-.12-.89-.23a.966.966 0 0 1-.42-.64c-.06-.29-.02-.61.1-.8.19-.26.61-.46 1.04-.67.38-.18.78-.37 1.11-.63.25-.34.59-.55.84-.7l.09-.06c.31-.17.71-.2.72-.2-.2.32-.93 1.22-1.26 2.13-.09.18-.1.32-.11.47-.01.22-.03.46-.31.88-.2.3-.51.45-.91.45m2.55-3.88c-.08.03-.4.07-.65.21l-.1.06c-.24.15-.58.35-.82.69-.34.27-.74.46-1.12.64-.43.21-.84.4-1.02.65-.11.18-.15.48-.09.75.04.19.14.45.4.61.14.08.48.22.85.22.38 0 .67-.14.86-.42.27-.4.29-.63.3-.85.01-.15.02-.3.12-.49.32-.9 1.03-1.79 1.27-2.07M28.76 5.82c-.7 0-1.06-.65-1.15-1-.07-.32.05-.59.16-.76.16-.25.42-.44.65-.49.33-.04.73.13 1.18.31.39.16.82.33 1.24.39.2.02.39.03.57.03.25.01.47.01.63.05.34.11.63.37.65.38-.06.05-.16.04-.3.04-.43 0-1.28.07-2.11.54-.19.06-.3.12-.41.18-.19.1-.38.21-.9.3-.07.02-.14.03-.21.03m-.23-2.19c-.03 0-.07 0-.1.01-.2.04-.45.23-.6.46-.1.16-.22.41-.16.71.09.33.42.96 1.09.96.07 0 .13 0 .2-.02.51-.09.7-.19.88-.29.12-.06.23-.13.42-.18 1.04-.58 2.12-.55 2.36-.54-.09-.04-.33-.23-.6-.31-.15-.04-.37-.04-.61-.05-.18-.01-.38-.01-.58-.03-.43-.06-.87-.24-1.26-.4-.38-.17-.75-.32-1.04-.32M42.32 14.17c-.23-.06-.45-.33-.72-.68-.28-.37-.64-.82-1.12-1.14-.15-.13-.28-.17-.42-.22-.2-.06-.43-.13-.77-.51-.55-.61-.09-1.48.22-1.8.22-.22.5-.26.7-.26.31 0 .62.12.79.29.2.24.28.67.36 1.16.07.41.15.88.32 1.27.31.36.44.77.52 1.04.03.1.05.18.07.26.07.24.13.44.08.56-.01.02-.02.03-.03.03M40.2 9.64c-.18 0-.44.04-.65.24-.3.31-.74 1.14-.21 1.71.33.36.54.43.74.49.14.04.28.09.44.23.48.32.84.78 1.13 1.15.26.33.46.58.65.65.03-.11-.02-.29-.09-.5-.02-.08-.05-.16-.07-.24-.09-.28-.22-.68-.52-1.04-.18-.4-.26-.87-.33-1.29-.08-.47-.16-.9-.35-1.13-.14-.17-.45-.27-.74-.27M41.99 21.46c-.01 0-.01 0-.02-.01-.24-.18-.28-.58-.32-1.03-.04-.46-.08-.99-.33-1.47-.07-.19-.15-.3-.24-.41-.14-.18-.28-.37-.39-.87-.18-.81.57-1.27 1-1.4.58-.15 1.16.38 1.25.76.09.46-.06.91-.22 1.38-.12.34-.24.69-.27 1.07-.01.12-.03.3-.06.5-.03.27-.07.55-.06.68.03.31-.24.68-.33.81.01-.02-.01-.01-.01-.01m-.07-5.17c-.07 0-.14.01-.2.03-.41.13-1.13.57-.96 1.33.11.49.25.67.38.85.09.12.17.23.24.43.25.49.29 1.02.33 1.49.04.45.07.8.27.97.1-.14.33-.47.3-.74-.01-.13.02-.42.06-.7.02-.19.05-.37.05-.49.04-.39.16-.74.28-1.09.16-.46.31-.9.22-1.34-.07-.31-.48-.74-.97-.74" fill="#6600b1"/><path d="M35.73 27.82c-.27-.11-.44-.25-.49-.41-.04-.13 0-.22 0-.23l.1.05s-.03.06.01.14c.03.09.13.21.43.34l-.05.11zM36.54 26.57l-.03-.11c.03-.01.71-.17 1.18 0l-.04.11c-.43-.17-1.1-.01-1.11 0M38.99 25.56c-.49-.38-.49-.68-.47-.79l.11.01v.01c-.01.07-.02.32.43.68l-.07.09zM40.01 24.35c-.66 0-1.06-.28-1.08-.29l.07-.1s.39.26 1.05.28v.11h-.04zM34.56 26.07l-.08-.08c.38-.35.36-1.1.36-1.11h.11c.01.03.03.8-.39 1.19M36.73 23.77c-.27 0-.47-.05-.49-.05l.03-.11c.01 0 .65.16 1.17-.1l.05.1c-.26.13-.53.16-.76.16M41.22 22.74c-.6 0-.74-.17-.76-.19l.09-.07s.15.18.83.15l.01.11h-.17M38.49 22.24c-.45 0-.87-.14-.87-.14l.05-.1-.03.05.03-.05c.01 0 .84.28 1.35.03l.05.1c-.18.09-.38.11-.58.11M39.57 19.71c-.21-.73-.27-.83-.28-.84l-.01-.07.06-.02c.04.01.08.01.34.91l-.11.02zM39.58 17l-.05-.1c.36-.2.4-.65.4-.65l.11.01c-.01.02-.05.52-.46.74M41.97 14.94c-.12-.22.38-.64.48-.72l.07.09c-.26.21-.5.49-.45.58l-.1.05zM39.49 14.82l-.07-.09c.43-.31.18-.75.17-.77l.1-.06c.01 0 .32.54-.2.92M38.9 12.23c-.21-.4-.67-.38-.68-.38l-.01-.11c.02 0 .55-.02.79.45l-.1.04zM37.25 10.29h.39v.11h-.39zM39.23 8.91l-.08-.08c.09-.1.13-.17.09-.23l.1-.04h-.06l.05-.03c.07.12.03.25-.1.38M35.92 9.57l-.11-.01c.04-.49-.21-.91-.22-.91l.1-.06c.01.01.28.44.23.98M37.22 7.22l-.01-.11c.08-.01.35-.12.5-.19l.05.1c-.04.03-.41.19-.54.2M35.53 6.24c-.26-.19-.17-.66-.13-.77l.06-.05v.06l.05.03c-.02.04-.12.49.09.65l-.07.08zM35 8.9l-.1-.05c.16-.28.1-.34.02-.46-.07-.1-.17-.22-.17-.49h.11c0 .23.08.33.15.42.11.15.17.26-.01.58M33.05 8.08l-.11-.01c0-.13.72-.7.77-.7l.03.11c-.08.04-.66.51-.69.6M32.16 7.84l-.11-.02c.07-.37-.21-.65-.21-.65l.08-.08c.01.01.32.32.24.75M30.69 7.51l-.06-.1c.15-.09.29-.42.33-.54l.11.04c-.01.02-.17.48-.38.6M29.05 7.45l-.06-.1c.09-.05.23-.27.39-.6l.1.05c-.09.21-.28.57-.43.65M27.26 7.64l-.09-.08c.27-.32.06-.74.06-.74l.04-.09.07.06c.09.19.17.57-.08.85M26.65 5.04l-.09-.07c.2-.27.18-.58.17-.62l.09-.06c.04.04.06.43-.17.75M24.12 5.73l-.02-.11c.51-.1.5-.38.49-.46l.11-.01h-.06l.06-.01c.02.1.03.46-.58.59M24.03 8.93c-.62-.1-.63-.12-.65-.15l.08-.07c.04.02.32.07.58.11l-.01.11zM21.98 10.18l-.06-.09c.01-.01.02-.02.74-.24l.03.11s-.66.2-.71.22M21.26 11.12c-.12 0-.27-.02-.42-.04l-.04-.12.06.01c.37.05.5.04.53.02l.05.1c-.03.03-.1.03-.18.03M20.55 12.35l-.11-.02c.11-.71 0-.82 0-.82l.06-.1c.04.02.18.16.05.94M18.201 9.338l.284.424-.091.06-.284-.423zM17.84 12.13c-.23-.05-.46-.22-.68-.51l.03-.05-.02-.05.08.04c.26.33.48.44.61.47l-.02.1zM19.43 13.85l-.01-.11c.05-.01.46-.1.51-.13l.06.1c-.08.05-.54.14-.56.14M19.23 15.47v-.06l-.05-.02a.69.69 0 0 1 .38-.53l.06.1c-.19.1-.3.25-.32.44l-.07.07zM19.31 16.7c-.23-.06-.62-.48-.62-.55h.11-.06l.05-.02c.03.04.34.42.54.47l-.02.1z"/><path d="M18.55 17.02l-.03-.11.02.05-.02-.05c.16-.11.49-.34.86-.31l-.01.11c-.33-.02-.64.19-.75.27l-.07.04zM19.19 18.41c-.44 0-.64-.09-.74-.18-.09-.08-.09-.15-.09-.16h.11s.04.3 1.04.22l.01.11c-.12.01-.23.01-.33.01"/><path d="M18.58 19.37l-.11-.02c0-.03.34-.78 1.01-1.06l.04.11c-.63.26-.94.97-.94.97M19.46 20.3l-.11-.03c.01-.01.11-.34.67-.56l.04.11c-.5.19-.6.48-.6.48M20.04 21.55l-.07-.09c.04-.03.4-.33.55-.38l.04.11c-.11.04-.41.27-.52.36M20.72 22.58c-.18 0-.26-.08-.27-.09l.08-.08s.22.2.76-.18l.07.09c-.29.2-.49.26-.64.26M18.82 22.92c-.23-.35-.89-.27-1.16-.21l-.03-.05.01-.06c.37-.07 1.01-.14 1.28.26l-.1.06zM17.99 23.42l-.02-.11c.22-.03.95-.11 1.08-.01l-.07.09c-.07-.05-.57-.02-.99.03M21.35 23.69c-.1 0-.13-.03-.15-.05l-.02-.11.1.03c.01 0 .11.08.94-.23l.04.11c-.52.2-.77.25-.91.25M22.46 24.83l-.06-.1c.1-.06.11-.14.1-.29 0-.13-.01-.29.09-.47l.1.06c-.09.15-.08.28-.08.4.01.15.01.3-.15.4M19.26 24.52l-.07-.09.02-.01c.24-.12.34-.33.31-.63l.11-.01c.02.24-.02.57-.37.74M19.57 25.35l-.03-.11.01.05.04-.07c.33-.13.69-.23.81-.1l-.08.08c-.03-.04-.16-.06-.68.14l-.07.01zM20.85 26.1l-.11-.02c.01-.1.1-.59.3-.66l.04.11c-.11.04-.2.36-.23.57M21.74 26.99v-.11c.01 0 .51-.01.71-.17l.07.09c-.24.18-.76.19-.78.19M23.41 25.23c-.44 0-.68-.11-.71-.14l.08-.09s.46.25 1.45 0l.03.11c-.34.09-.62.12-.85.12M23.31 28.21l-.11-.01c.01-.13-.09-.67-.13-.87l.11-.02c.01.02.15.73.13.9"/><path d="M41.34 16.19c-.03-.24-.14-.45-.3-.55a.342.342 0 0 0-.46.06c-.13.14-.19.37-.16.61s.15.45.3.55c.16.1.33.08.46-.06s.19-.37.16-.61" fill="#cb0423"/><path d="M40.93 16.95a.36.36 0 0 1-.22-.07c-.16-.1-.28-.32-.32-.57-.03-.25.03-.49.17-.63.13-.14.33-.17.5-.06.16.11.28.32.32.57.03.24-.03.49-.16.63-.09.09-.19.13-.29.13m-.09-1.34c-.09 0-.17.04-.24.11-.12.13-.18.36-.15.58.03.23.14.43.29.53.06.04.12.06.19.06.09 0 .17-.04.24-.11.12-.13.18-.36.15-.58-.03-.23-.14-.43-.29-.53a.38.38 0 0 0-.19-.06"/><path d="M41.24 14.99c-.03-.24-.14-.45-.3-.55a.342.342 0 0 0-.46.06c-.13.14-.19.37-.16.61s.15.45.3.55c.16.1.33.08.46-.06s.19-.38.16-.61" fill="#cb0423"/><path d="M40.83 15.74a.36.36 0 0 1-.22-.07c-.16-.11-.28-.32-.32-.57-.03-.25.03-.49.17-.63.14-.15.33-.17.5-.06.16.1.28.32.31.57.03.25-.03.49-.17.63-.07.09-.17.13-.27.13m-.09-1.34c-.09 0-.17.04-.24.11-.12.13-.18.35-.15.58.03.23.14.43.29.53.06.04.12.06.19.06.09 0 .17-.04.23-.11.12-.13.18-.35.15-.58-.03-.23-.14-.43-.29-.53a.3.3 0 0 0-.18-.06"/><path d="M41 13.7c-.05-.23-.18-.43-.35-.52a.335.335 0 0 0-.45.1c-.11.15-.15.38-.1.62.05.24.18.43.35.52.17.09.34.05.45-.1.11-.15.15-.38.1-.62" fill="#cb0423"/><path d="M40.62 14.49c-.06 0-.13-.02-.19-.05-.17-.09-.31-.3-.36-.54-.05-.24-.01-.49.11-.64.12-.16.31-.2.49-.11.17.09.31.3.37.54.05.24.01.49-.11.64-.09.11-.19.16-.31.16m-.15-1.33c-.1 0-.19.05-.25.13-.11.14-.15.37-.1.59.05.23.18.42.33.5.05.03.11.04.16.04.1 0 .18-.05.25-.13.11-.14.15-.37.1-.59-.05-.23-.18-.42-.33-.5a.42.42 0 0 0-.16-.04"/><path d="M40.55 12.36c-.11-.21-.29-.37-.47-.42a.343.343 0 0 0-.41.21c-.07.17-.05.41.06.63.11.21.29.37.47.41.18.04.34-.04.41-.21.07-.17.05-.41-.06-.62" fill="#cb0423"/><path d="M40.29 13.23c-.03 0-.07 0-.1-.01-.19-.04-.38-.21-.49-.43-.11-.22-.14-.47-.06-.65.08-.18.25-.27.45-.23.19.04.38.21.49.43.11.22.14.47.06.65-.07.15-.19.24-.35.24m-.3-1.27a.3.3 0 0 0-.29.2c-.07.16-.05.39.06.6.1.21.28.36.45.4.17.04.31-.04.38-.19.07-.16.05-.39-.06-.6-.11-.21-.28-.36-.45-.4-.03-.01-.06-.01-.09-.01"/><path d="M40.08 11.28c-.11-.21-.29-.37-.47-.41a.343.343 0 0 0-.41.21c-.07.17-.05.41.06.62.11.21.29.37.47.42.18.04.34-.04.41-.21.07-.18.04-.42-.06-.63" fill="#cb0423"/><path d="M39.82 12.15c-.03 0-.07 0-.1-.01-.19-.04-.38-.21-.49-.43-.11-.22-.14-.47-.06-.65.08-.19.25-.27.45-.23.19.05.38.21.49.43.11.22.14.47.06.65-.07.16-.2.24-.35.24m-.31-1.27c-.13 0-.24.07-.29.21-.07.16-.05.39.06.6.1.21.27.36.45.4.16.04.31-.03.38-.19s.05-.4-.06-.6c-.1-.21-.28-.36-.45-.4-.03-.02-.06-.02-.09-.02"/><path d="M39.4 10.19c-.13-.2-.32-.35-.5-.37a.338.338 0 0 0-.39.24c-.06.18-.02.41.11.62.13.21.32.35.5.38.18.03.34-.07.39-.24.06-.19.02-.42-.11-.63" fill="#cb0423"/><path d="M39.18 11.09h-.07a.76.76 0 0 1-.52-.39c-.13-.21-.17-.45-.11-.64.05-.17.19-.27.36-.27.26.03.46.18.59.39.13.21.17.46.11.64-.06.17-.19.27-.36.27m-.3-1.24c-.19 0-.3.08-.35.22-.05.17-.01.4.11.59.12.2.31.34.48.36l.06.01c.14 0 .25-.08.3-.23.06-.17.02-.4-.11-.59-.12-.2-.31-.33-.48-.36h-.01z"/><path d="M38.64 9.15c-.15-.19-.35-.31-.54-.32-.19-.01-.33.1-.37.28-.04.18.02.41.17.6.14.19.35.31.54.32.19.01.33-.1.37-.28.04-.18-.02-.41-.17-.6" fill="#cb0423"/><path d="M38.47 10.06h-.02c-.19-.01-.41-.14-.56-.34-.15-.2-.22-.44-.18-.63.04-.19.18-.3.37-.3.22.01.43.14.58.33.15.2.22.44.18.63-.04.2-.18.31-.37.31m-.37-1.21c-.18 0-.3.1-.34.26-.04.17.02.4.17.58.14.18.34.3.52.31l.02.03V10c.16 0 .28-.1.32-.26.04-.17-.03-.4-.16-.58-.15-.18-.35-.3-.53-.31z"/><path d="M37.74 8.17c-.17-.17-.39-.26-.57-.24-.19.02-.31.14-.32.33-.02.19.08.41.25.57.17.17.39.26.58.24.19-.02.31-.14.32-.33.01-.18-.08-.4-.26-.57" fill="#cb0423"/><path d="M37.63 9.11c-.18 0-.39-.09-.55-.25-.18-.17-.28-.4-.26-.6.02-.2.15-.34.35-.36.21-.01.44.09.6.25.18.17.28.4.27.6-.02.2-.15.34-.35.36h-.06zm-.42-1.15c-.21.02-.32.13-.34.3-.01.18.08.39.25.55.15.15.34.24.51.24v.03l.04-.03c.17-.02.28-.13.3-.3.01-.18-.08-.39-.25-.55-.15-.15-.34-.24-.51-.24"/><path d="M36.73 7.28c-.19-.15-.41-.22-.6-.19-.18.03-.29.17-.29.36 0 .19.12.4.31.55.19.15.41.22.6.19.18-.04.29-.17.29-.36 0-.2-.12-.4-.31-.55" fill="#cb0423"/><path d="M36.65 8.22a.85.85 0 0 1-.52-.2c-.19-.16-.31-.37-.32-.57 0-.2.12-.35.32-.39.2-.04.43.04.62.19s.32.37.32.57c0 .2-.12.35-.32.39-.03.01-.06.01-.1.01m-.42-1.11c-.03 0-.06 0-.09.01-.17.03-.27.16-.27.33.01.18.12.38.3.53.18.14.4.21.57.18.17-.03.27-.15.27-.33 0-.18-.12-.38-.3-.52a.728.728 0 0 0-.48-.2"/><path d="M35.66 6.56c-.21-.12-.45-.15-.62-.09-.17.07-.26.22-.23.4.03.18.18.37.39.49.21.12.45.15.62.09.18-.07.26-.22.23-.4-.03-.19-.18-.37-.39-.49" fill="#cb0423"/><path d="M35.63 7.51c-.14 0-.3-.04-.44-.12-.21-.12-.37-.31-.41-.51-.04-.2.06-.36.24-.43s.43-.03.65.09c.22.12.37.32.41.51.04.2-.06.37-.25.44-.06.01-.13.02-.2.02m-.39-1.04c-.07 0-.13.01-.19.03-.16.06-.24.2-.21.37.03.18.18.36.38.47.13.07.28.12.41.12.07 0 .13-.01.19-.03.16-.06.24-.2.21-.37-.03-.18-.18-.35-.38-.47a.834.834 0 0 0-.41-.12"/><path d="M34.46 5.92c-.22-.1-.46-.11-.63-.02-.17.08-.24.24-.19.42.05.18.22.35.43.45.22.1.46.11.63.03.17-.08.24-.24.19-.42-.04-.19-.21-.36-.43-.46" fill="#cb0423"/><path d="M34.45 6.88c-.13 0-.26-.03-.38-.09-.23-.1-.4-.28-.45-.47-.05-.19.02-.37.21-.46.17-.08.42-.06.64.04.23.1.4.28.45.47.06.2-.02.37-.21.46-.07.03-.16.05-.26.05m-.36-1.01c-.09 0-.18.02-.25.05-.15.08-.21.22-.17.39.05.17.21.33.42.43.21.1.44.11.6.03.16-.07.22-.22.17-.39-.05-.17-.21-.34-.42-.43a.853.853 0 0 0-.35-.08"/><path d="M33.28 5.45c-.23-.08-.47-.08-.63.01-.16.09-.22.26-.16.43.06.18.24.34.47.42.22.08.46.08.63-.01.16-.09.22-.26.16-.43-.06-.18-.24-.34-.47-.42" fill="#cb0423"/><path d="M33.28 6.4a.96.96 0 0 1-.33-.06c-.23-.09-.42-.26-.48-.44-.07-.19 0-.37.17-.47.17-.1.42-.1.65-.02.23.09.42.25.48.44.07.19 0 .37-.17.47-.09.06-.2.08-.32.08m-.32-.98c-.11 0-.21.02-.29.07-.15.08-.2.24-.15.4.06.17.23.32.45.4.21.08.45.07.6-.01.15-.08.2-.24.15-.4-.06-.17-.23-.32-.45-.4a.853.853 0 0 0-.31-.06"/><path d="M32.09 5.07c-.23-.07-.47-.04-.62.06-.15.1-.2.27-.13.44.08.17.27.32.5.39.23.07.47.04.62-.06.15-.1.2-.27.13-.44-.08-.17-.27-.32-.5-.39" fill="#cb0423"/><path d="M32.09 6.03c-.09 0-.18-.01-.27-.04-.24-.07-.44-.22-.52-.4a.37.37 0 0 1 .14-.48c.16-.1.41-.13.65-.06.24.07.43.22.52.4.08.18.03.37-.14.48-.1.06-.23.1-.38.1m-.26-.96c-.14 0-.26.03-.35.09-.14.09-.19.25-.12.41.07.16.26.3.48.37.22.07.46.04.6-.06.14-.1.19-.25.12-.41-.07-.16-.26-.3-.48-.37-.08-.02-.17-.03-.25-.03"/><path d="M30.77 4.85c-.24-.03-.47.03-.61.16s-.16.3-.06.46c.1.16.31.27.55.3.24.03.47-.03.61-.16s.16-.3.06-.46c-.1-.15-.31-.27-.55-.3" fill="#cb0423"/><path d="M30.78 5.81c-.04 0-.08 0-.13-.01-.25-.03-.47-.15-.57-.32a.372.372 0 0 1 .06-.5c.14-.13.38-.19.63-.16.24.03.46.15.57.32.11.17.09.36-.06.5-.12.1-.3.17-.5.17m-.13-.94c-.19 0-.36.06-.46.16-.13.12-.15.28-.05.42.1.15.3.26.53.29.23.03.45-.03.58-.15.13-.12.15-.28.05-.42-.1-.15-.3-.26-.53-.29-.04-.01-.08-.01-.12-.01"/><path d="M29.47 4.78c-.24-.01-.47.07-.59.2-.13.14-.13.31-.02.46.11.15.33.25.57.26.24.01.47-.07.59-.21a.34.34 0 0 0 .02-.46c-.11-.15-.33-.24-.57-.25" fill="#cb0423"/><path d="M29.47 5.73h-.04c-.25-.01-.48-.11-.6-.27-.12-.16-.12-.35.02-.5.13-.13.34-.22.57-.22.29.01.52.11.64.27.13.16.12.35-.02.5-.12.14-.33.22-.57.22m-.01-.92c-.26 0-.45.07-.56.2a.31.31 0 0 0-.02.42c.11.14.32.23.55.24l.04.03v-.03c.22 0 .42-.07.53-.2.11-.13.12-.29.02-.42-.11-.14-.32-.23-.56-.24z"/><path d="M28.28 4.82c-.24-.01-.47.07-.59.21-.13.14-.13.31-.02.46.11.15.33.24.57.25.24.01.47-.07.59-.21a.34.34 0 0 0 .02-.46c-.11-.15-.33-.24-.57-.25" fill="#cb0423"/><path d="M28.28 5.77h-.04c-.25-.01-.48-.11-.6-.27-.12-.16-.12-.35.02-.5.12-.14.34-.22.57-.22.29.01.52.11.64.27.12.16.11.35-.02.5-.12.14-.33.22-.57.22m-.01-.92c-.26 0-.45.07-.56.2a.31.31 0 0 0-.02.42c.11.14.32.23.55.24l.04.03v-.03c.22 0 .42-.07.53-.2.12-.13.12-.28.02-.42-.11-.14-.32-.23-.56-.24z"/><path d="M26.88 4.98c-.24.05-.43.19-.52.35-.08.17-.04.34.1.45.15.11.39.15.62.09.23-.05.43-.19.52-.35.09-.17.05-.34-.1-.45-.15-.1-.38-.14-.62-.09" fill="#cb0423"/><path d="M26.88 5.94c-.17 0-.32-.05-.42-.13a.375.375 0 0 1-.11-.49c.09-.17.3-.32.54-.37.24-.05.49-.02.64.1.16.12.2.31.11.49-.09.17-.29.32-.54.37-.08.02-.15.03-.22.03m.22-.95c-.07 0-.14.01-.21.03-.23.05-.41.18-.5.34-.08.16-.04.31.1.41.14.11.37.14.59.09.23-.05.42-.18.5-.34.08-.15.04-.31-.09-.41a.625.625 0 0 0-.39-.12"/><path d="M25.61 5.3c-.23.07-.41.22-.49.4a.34.34 0 0 0 .14.44c.16.1.4.12.63.04.23-.07.41-.23.49-.4a.34.34 0 0 0-.14-.44c-.16-.09-.4-.11-.63-.04" fill="#cb0423"/><path d="M25.61 6.26c-.14 0-.26-.03-.36-.09a.37.37 0 0 1-.15-.48c.08-.18.27-.34.5-.41.23-.07.49-.06.65.05.17.11.23.29.15.48-.08.18-.27.34-.51.41-.09.02-.18.04-.28.04m.29-.97c-.09 0-.18.01-.27.04-.22.07-.4.22-.47.38-.07.16-.02.31.13.41.15.09.38.11.6.04.22-.07.4-.21.47-.38.07-.16.02-.31-.13-.41a.6.6 0 0 0-.33-.08"/><path d="M24.45 5.8c-.22.1-.39.27-.44.45-.05.18.02.34.19.42.17.08.41.07.63-.03.22-.1.38-.27.43-.45a.338.338 0 0 0-.19-.42c-.16-.08-.4-.07-.62.03" fill="#cb0423"/><path d="M24.47 6.75c-.1 0-.19-.02-.27-.06-.18-.09-.26-.26-.21-.45.05-.19.22-.37.45-.47.22-.1.48-.11.65-.03.19.09.27.26.21.46-.05.19-.22.37-.45.47-.12.05-.25.08-.38.08m.35-1.01c-.12 0-.24.03-.36.08-.21.1-.37.26-.42.43-.04.18.03.32.18.39.16.08.4.07.6-.03.21-.1.37-.26.42-.43.05-.17-.02-.31-.17-.39a.618.618 0 0 0-.25-.05"/><path d="M23.3 6.39c-.21.12-.36.31-.4.49-.03.18.05.34.23.4s.41.03.62-.09c.21-.12.36-.3.4-.49a.33.33 0 0 0-.23-.4c-.18-.06-.41-.03-.62.09" fill="#cb0423"/><path d="M23.33 7.34a.71.71 0 0 1-.21-.03c-.19-.07-.28-.24-.24-.44.04-.19.19-.39.41-.51.21-.12.46-.15.65-.08.19.07.28.24.24.44-.04.19-.19.39-.41.51-.14.07-.3.11-.44.11m.39-1.04c-.13 0-.28.04-.41.12-.2.11-.35.29-.38.47-.03.17.05.31.21.37.16.06.4.03.6-.08.2-.11.35-.29.38-.47a.316.316 0 0 0-.21-.37.406.406 0 0 0-.19-.04"/><path d="M22.21 7.13c-.2.14-.33.34-.34.53-.01.19.09.33.27.38.18.05.41-.01.61-.15.2-.14.33-.34.34-.53.02-.19-.09-.33-.27-.38-.19-.05-.42.01-.61.15" fill="#cb0423"/><path d="M22.27 8.08a.59.59 0 0 1-.14-.02.366.366 0 0 1-.29-.41c.02-.2.15-.41.35-.55.2-.14.45-.2.63-.16.2.05.31.21.29.41-.02.2-.15.41-.35.55-.15.12-.33.18-.49.18m.41-1.09c-.15 0-.32.06-.46.16-.19.13-.31.33-.33.5-.01.17.08.3.25.35.17.04.4-.01.58-.15.19-.13.31-.33.33-.5.01-.17-.08-.3-.25-.34a.373.373 0 0 0-.12-.02"/><path d="M21.2 7.9c-.18.16-.3.37-.3.56 0 .18.12.32.3.35.18.03.41-.05.59-.2.18-.16.29-.37.29-.55a.34.34 0 0 0-.3-.35c-.18-.04-.4.03-.58.19" fill="#cb0423"/><path d="M21.28 8.84c-.03 0-.06 0-.09-.01a.364.364 0 0 1-.32-.38c0-.2.11-.42.3-.58.19-.16.42-.24.62-.21s.32.18.32.38c0 .19-.11.41-.3.58-.16.14-.35.22-.53.22m.43-1.12c-.16 0-.34.07-.49.2-.18.15-.29.35-.28.53 0 .17.11.29.28.32.18.03.39-.05.57-.2.18-.15.28-.35.28-.53 0-.17-.11-.3-.27-.32h-.09"/><path d="M20.3 8.83c-.17.17-.27.39-.25.57.02.19.14.31.32.33.19.02.41-.08.58-.24.17-.17.27-.39.25-.57-.01-.19-.14-.31-.32-.33-.19-.02-.41.07-.58.24" fill="#cb0423"/><path d="M20.42 9.77h-.05c-.2-.02-.33-.16-.35-.36-.02-.2.08-.43.26-.6.16-.16.37-.26.55-.26.25.02.38.16.4.36.02.19-.09.42-.26.6-.16.16-.37.26-.55.26m.45-1.15c-.21 0-.4.09-.55.24-.16.16-.26.37-.24.55.01.17.13.29.3.3l.04.03v-.03c.17 0 .36-.09.51-.24.16-.16.26-.37.24-.55-.01-.17-.12-.29-.3-.3z"/><path d="M19.53 9.87c-.16.18-.23.41-.21.59.03.18.16.3.35.3.19 0 .4-.11.55-.29.16-.18.24-.41.2-.59a.34.34 0 0 0-.35-.3c-.17-.01-.38.11-.54.29" fill="#cb0423"/><path d="M19.69 10.79c-.21 0-.35-.13-.39-.33-.03-.19.05-.43.21-.62.16-.18.38-.3.57-.3.21 0 .35.13.38.33.03.19-.05.43-.21.62-.15.19-.37.3-.56.3m.4-1.18c-.18 0-.38.11-.53.28-.15.18-.23.39-.2.57.03.17.15.27.32.27l.01.03v-.03c.17 0 .38-.11.53-.28.15-.17.23-.39.2-.57-.04-.17-.16-.27-.33-.27"/><path d="M18.83 10.93c-.14.2-.19.43-.14.61.05.18.2.28.38.26.19-.02.39-.15.52-.35.14-.2.19-.43.14-.61a.341.341 0 0 0-.38-.26c-.18.02-.38.15-.52.35" fill="#cb0423"/><path d="M19.03 11.84c-.18 0-.32-.11-.37-.29-.05-.19 0-.43.15-.63.14-.2.35-.34.54-.36h.01c.22 0 .36.11.4.29.05.19 0 .43-.14.63s-.35.34-.54.36h-.05zm.36-1.23c-.22.02-.41.15-.54.34-.13.19-.18.41-.14.59.04.15.16.24.31.24v.03l.04-.03c.18-.02.37-.15.5-.34.13-.19.18-.41.14-.59a.303.303 0 0 0-.31-.24"/><path d="M18.24 12.14c-.1.22-.11.46-.03.63.08.17.24.24.42.19.18-.05.35-.22.45-.43.1-.22.11-.46.03-.63a.338.338 0 0 0-.42-.19c-.17.04-.35.21-.45.43" fill="#cb0423"/><path d="M18.52 13c-.15 0-.27-.08-.34-.23-.08-.18-.07-.42.03-.65.11-.23.28-.4.47-.45.19-.05.37.03.46.21.08.18.07.43-.03.65-.11.23-.28.4-.47.45-.04.01-.08.02-.12.02m.29-1.28c-.03 0-.07 0-.1.01-.17.05-.34.21-.43.42-.1.21-.11.44-.03.6.07.16.22.22.39.18.17-.05.34-.21.43-.42.1-.21.11-.44.03-.6-.07-.13-.17-.19-.29-.19"/><path d="M17.78 13.39c-.08.23-.07.47.02.63.09.16.26.22.44.15s.33-.25.41-.47c.08-.23.07-.46-.02-.63-.1-.16-.26-.22-.44-.16-.17.08-.33.25-.41.48" fill="#cb0423"/><path d="M18.1 14.23a.36.36 0 0 1-.32-.2c-.1-.17-.11-.41-.02-.65.08-.23.25-.42.43-.49s.37 0 .47.17c.1.17.11.42.03.65-.08.23-.25.42-.43.49-.06.02-.11.03-.16.03m.23-1.31c-.04 0-.08.01-.13.02-.17.07-.32.24-.39.46-.08.22-.07.45.02.6.09.15.24.2.4.14.17-.06.32-.24.4-.46.08-.22.07-.45-.02-.6a.345.345 0 0 0-.28-.16"/><path d="M17.38 15.77c-.02.19.04.38.18.48.13.11.31.12.46.04.15-.09.26-.26.28-.45.02-.19-.04-.38-.18-.48a.39.39 0 0 0-.46-.03c-.15.08-.26.25-.28.44" fill="#cb0423"/><path d="M17.81 16.38c-.1 0-.19-.03-.27-.1-.14-.11-.21-.31-.19-.51.02-.2.14-.38.3-.47.16-.09.36-.07.49.04.14.11.21.31.19.51-.02.2-.14.38-.3.47-.07.04-.15.06-.22.06m.06-1.08c-.07 0-.13.02-.2.05-.14.08-.25.24-.27.43-.02.18.04.36.16.46.07.05.15.08.24.08.07 0 .13-.02.19-.05.14-.08.25-.24.27-.43a.489.489 0 0 0-.17-.45.28.28 0 0 0-.22-.09"/><path d="M17.49 14.66c-.06.23-.02.47.09.62.11.15.28.19.45.1s.3-.28.35-.52c.05-.23.02-.47-.09-.62a.335.335 0 0 0-.45-.1c-.17.09-.3.29-.35.52" fill="#cb0423"/><path d="M17.86 15.46c-.12 0-.22-.05-.3-.16-.12-.15-.16-.4-.1-.65.05-.24.2-.45.37-.54.18-.09.37-.05.49.11s.16.4.1.64c-.05.24-.2.45-.37.54a.38.38 0 0 1-.19.06m.15-1.33c-.05 0-.11.01-.16.04-.16.08-.29.27-.34.5-.05.23-.02.45.09.6.1.14.26.17.41.09.16-.08.29-.27.34-.5.05-.22.02-.45-.09-.59a.297.297 0 0 0-.25-.14"/><path d="M40.38 14.09c.15-.16.28-.2.45-.14-.06-.41-.19-.55-.35-.5-.16.04-.23.26-.1.64M40.6 15.34c.16-.14.3-.18.46-.11-.03-.42-.15-.57-.31-.53-.16.04-.24.25-.15.64M40.08 12.95c.1-.19.22-.27.4-.26-.16-.39-.32-.49-.47-.4-.14.1-.15.32.07.66M39.52 11.82c.1-.19.22-.27.4-.26-.16-.39-.33-.49-.47-.4-.13.09-.15.32.07.66M38.19 9.73c.07-.2.18-.3.36-.31-.22-.36-.4-.43-.53-.32-.13.11-.1.34.17.63M37.32 8.83c.06-.2.16-.3.34-.33-.24-.35-.42-.41-.54-.3-.12.12-.09.34.2.63M35.49 7.28c0-.21.06-.34.23-.42-.33-.25-.52-.26-.6-.12-.09.15.01.36.37.54M36.44 8c.03-.21.12-.32.3-.38-.28-.31-.47-.35-.57-.22-.11.13-.05.35.27.6M34.4 6.68c-.03-.21.03-.35.18-.44-.36-.22-.55-.21-.61-.05-.06.15.05.34.43.49M33.29 6.2c-.06-.21-.02-.35.12-.46-.38-.17-.57-.13-.61.03-.05.16.09.34.49.43M32.09 5.83c-.07-.2-.05-.34.08-.47-.4-.13-.58-.08-.61.08-.03.17.13.33.53.39M30.92 5.6c-.09-.2-.08-.34.04-.48-.4-.1-.58-.04-.6.13-.02.17.15.32.56.35M29.67 5.51c-.11-.19-.11-.33-.01-.48-.41-.06-.59.02-.58.19 0 .17.19.3.59.29M27.23 5.69c-.15-.15-.19-.29-.12-.46-.42.04-.56.16-.52.33.04.16.25.24.64.13M28.43 5.53c-.13-.17-.15-.31-.06-.47-.42-.02-.58.09-.56.25.03.16.22.28.62.22M26.06 5.94c-.17-.13-.23-.26-.19-.44-.41.1-.53.24-.47.4.07.15.28.21.66.04M23.8 6.98c-.19-.1-.27-.22-.27-.4-.38.17-.48.34-.38.48.09.14.32.15.65-.08M24.89 6.42c-.18-.11-.24-.24-.22-.42-.4.13-.51.28-.44.43.08.15.3.18.66-.01M21.78 8.39c-.21-.05-.31-.15-.34-.33-.33.25-.39.43-.28.55.12.11.34.07.62-.22M22.75 7.6c-.2-.07-.3-.18-.32-.36-.35.22-.43.4-.32.53.11.12.33.1.64-.17M20.92 9.23c-.21-.03-.32-.12-.37-.3-.31.28-.35.47-.22.57.13.11.34.05.59-.27M20.16 10.23c-.22-.01-.33-.09-.4-.26-.28.31-.31.5-.17.59.13.09.35.01.57-.33M19.51 11.25c-.22.02-.35-.04-.43-.2-.23.35-.23.54-.08.61.15.07.35-.04.51-.41M18.95 12.34c-.21.05-.35 0-.46-.14-.19.37-.16.56 0 .62.16.04.34-.09.46-.48M18.5 13.45c-.2.08-.34.06-.47-.07-.12.4-.07.58.1.61.16.03.31-.13.37-.54M18.2 14.7c-.19.09-.34.08-.48-.04-.1.41-.03.59.14.6.16.01.31-.16.34-.56M18.07 15.73c-.18.1-.33.11-.48.04-.05.33.03.46.2.45.17-.01.3-.17.28-.49M39.02 10.81c.07-.2.18-.3.36-.31-.22-.36-.39-.43-.52-.33-.12.11-.1.33.16.64M40.74 16.6c.16-.14.3-.18.46-.11-.03-.42-.15-.57-.31-.53-.16.04-.25.25-.15.64" fill="#f8e329"/><path d="M39.11 9.82c-.01 0-.47.47-.39 1.04.08.57.44 1.27.38 1.86-.07.59-.17.98-.17.98s.55-.63.55-1.22c0-.6-.38-1.39-.38-1.83 0-.45.02-.84.01-.83" fill="#3b7b0f"/><path d="M38.92 13.75c-.01 0-.02 0-.03-.01-.02-.01-.03-.04-.03-.07 0 0 .11-.4.17-.97.04-.35-.08-.76-.2-1.15-.07-.25-.14-.48-.18-.7-.07-.5.25-.91.36-1.03.06-.07.07-.07.09-.07.06.04.06.04.05.3 0 .15-.01.36-.01.58 0 .19.08.47.16.76.1.35.21.74.21 1.07 0 .61-.55 1.24-.57 1.26.01.03-.01.03-.02.03m.13-3.79c-.11.15-.34.5-.28.89.03.21.1.44.17.68.12.4.25.82.2 1.19-.04.3-.08.55-.12.73.16-.23.38-.61.38-.98 0-.32-.11-.7-.21-1.04-.09-.3-.17-.58-.17-.79 0-.22.01-.43.01-.59.02-.03.02-.07.02-.09"/><path d="M39.97 11.73s-.37.27-.33.89c.04.62.68 1.76.68 1.76s.47.96.45 1.21c-.02.25.09-.24.04-.79-.05-.55-.75-1.76-.75-1.76s-.15-.25-.14-.66c.02-.41.06-.65.05-.65" fill="#3b7b0f"/><path d="M40.77 15.71c-.02 0-.03-.01-.04-.02a.36.36 0 0 1-.02-.11c.01-.19-.32-.92-.45-1.18-.02-.04-.64-1.16-.68-1.78-.04-.64.34-.93.35-.94.02-.02.05-.01.07.01.01.01.01.1.01.11-.01.1-.03.29-.04.58-.01.39.13.63.13.63.03.05.71 1.23.76 1.78.03.4-.01.85-.05.9 0 .01-.02.02-.04.02m-.87-3.82c-.1.13-.22.36-.2.73.03.6.66 1.72.67 1.73.04.08.27.57.39.93.01-.14.01-.3-.01-.48-.04-.53-.74-1.72-.74-1.73-.01-.01-.16-.27-.14-.69.01-.22.02-.38.03-.49"/><path d="M28.98 4.05c0-.13-.14-.23-.32-.23s-.32.1-.32.23.15.23.32.23.32-.11.32-.23M29.12 4.59c0-.12-.15-.22-.33-.22-.18 0-.33.1-.33.22s.15.22.33.22c.18 0 .33-.1.33-.22M29.53 3.95s-.38.29-.22.4c.16.11.59-.25.59-.25l-.37-.15zM40.68 10.46c0-.08-.04-.16-.1-.2a.182.182 0 0 0-.2 0c-.06.04-.1.11-.1.2 0 .08.04.15.1.2.06.04.14.04.2 0 .06-.05.1-.12.1-.2M40.53 9.91c0-.13-.09-.24-.21-.24-.11 0-.21.11-.21.24 0 .14.09.25.21.25s.21-.11.21-.25M40.63 11.02c0-.07-.04-.13-.08-.13s-.08.06-.08.13.04.13.08.13.08-.06.08-.13M40.96 10.03c0-.08-.04-.14-.08-.14s-.08.07-.08.14c0 .08.04.15.08.15.05 0 .08-.07.08-.15M40.05 10.13c0-.07-.04-.12-.08-.12s-.08.05-.08.12c0 .06.04.12.08.12.05 0 .08-.05.08-.12M40.2 10.91c0-.1-.08-.19-.17-.19-.09 0-.17.09-.17.19 0 .11.08.19.17.19.09 0 .17-.08.17-.19M39.74 10.57c0-.09-.06-.16-.15-.16-.08 0-.14.07-.14.16s.06.16.14.16c.09 0 .15-.07.15-.16M39.67 10.11c0-.05-.02-.09-.06-.12a.105.105 0 0 0-.13 0c-.04.02-.06.07-.06.12 0 .05.02.09.06.12.04.02.09.02.13 0 .04-.03.06-.07.06-.12M41.73 12.45c-.19-.25-.49-.35-.67-.23-.18.12-.18.41.01.66.19.25.48.35.67.23.18-.12.18-.41-.01-.66M42.26 17c.04-.3-.11-.57-.33-.59-.22-.03-.42.2-.46.5-.04.3.11.57.33.6.22.02.43-.21.46-.51M42.38 19.65c.06-.3-.06-.58-.28-.62-.21-.04-.44.16-.5.46-.06.3.06.58.28.62.21.04.43-.16.5-.46M42.89 17.17c0-.12-.08-.22-.18-.22s-.18.1-.18.22.08.22.18.22.18-.1.18-.22M42.44 17.67l-.37.42s-.35.01-.33.12c.02.11.48.45.48.59 0 .14.31-.03.31-.03l.25-.76c0-.01-.01-.53-.15-.52-.14.01-.18.17-.19.18M18.05 17.5c0-.1-.08-.18-.18-.18s-.17.08-.17.18c0 .1.08.18.18.18s.17-.08.17-.18M18.22 16.96c0-.1-.08-.19-.18-.19-.1 0-.18.08-.18.19 0 .1.08.19.18.19.1 0 .18-.08.18-.19M16.77 14.4c-.07-.15-.21-.23-.31-.19-.1.05-.13.21-.07.35.07.15.2.23.31.18.11-.04.14-.2.07-.34M17.21 15.99c-.09-.19-.28-.3-.42-.24-.14.06-.18.27-.09.46s.28.3.42.24c.14-.06.18-.26.09-.46M17.68 17.17c.03-.24-.07-.46-.22-.49-.15-.03-.3.13-.33.38-.03.24.07.46.22.49.15.02.3-.14.33-.38M16.92 17.34c.09-.22.06-.46-.08-.53s-.33.05-.42.27c-.09.22-.06.46.08.54.14.06.33-.06.42-.28" fill="#6600b1"/><path d="M16.58 16.83c0-.11-.09-.2-.2-.2s-.2.09-.2.2c0 .12.09.21.2.21s.2-.09.2-.21M16.42 16.32c0-.1-.08-.19-.18-.19-.1 0-.18.08-.18.19 0 .1.08.19.18.19.11 0 .18-.08.18-.19M16.59 15.34c0-.17-.08-.31-.17-.31-.09 0-.17.14-.17.31 0 .17.08.31.17.31.09.01.17-.13.17-.31M17.12 15.27c.02-.17-.03-.32-.13-.33-.09-.01-.19.12-.21.29-.02.17.03.32.13.33.09.01.19-.12.21-.29M20.88 7.76c.07-.24 0-.49-.16-.55-.16-.06-.34.09-.41.34-.07.24 0 .49.16.55.15.06.34-.1.41-.34M20.17 8.84c.21-.18.3-.42.2-.55-.1-.13-.35-.08-.56.1-.21.18-.3.43-.2.55s.35.08.56-.1M19.75 8.24c.21-.15.3-.36.2-.47-.1-.11-.35-.07-.55.08-.21.15-.3.37-.2.47.1.11.34.08.55-.08M21.36 7.19c.14-.1.2-.25.13-.33-.07-.07-.23-.05-.37.06-.14.11-.2.25-.14.33.07.07.24.04.38-.06" fill="#6600b1"/><path d="M20.52 8.21c.1-.15.1-.31.02-.35-.09-.05-.24.03-.33.18-.1.15-.1.3-.01.36.08.04.22-.04.32-.19M21.73 7.58c.15-.13.21-.29.13-.38-.08-.08-.27-.04-.41.08-.15.13-.21.29-.13.37.07.09.26.05.41-.07M19.54 9.06c.14-.01.25-.08.24-.16-.01-.08-.13-.14-.27-.13-.14.01-.25.08-.24.16.01.07.13.13.27.13M22.19 6.79c.1-.15.1-.31.01-.35-.09-.05-.24.03-.33.18-.09.15-.1.31-.01.36.08.04.23-.04.33-.19" fill="#6600b1"/><path d="M38.12 11.28s.44-.69.27-1.34c-.17-.65-.89-.19-.87.04.01.23.46.54.49.68.02.14-.06.57.11.62" fill="#f6d128"/><path d="M38.13 11.31h-.02c-.14-.04-.13-.27-.13-.46 0-.07 0-.14-.01-.18-.01-.05-.1-.14-.18-.23-.14-.15-.3-.31-.31-.45 0-.06.03-.13.09-.2.1-.1.27-.21.45-.21.11 0 .31.05.39.36.17.65-.25 1.33-.27 1.36l-.01.01zm-.11-1.68c-.16 0-.32.09-.41.19-.05.05-.08.11-.08.15.01.12.16.28.29.41.1.11.19.2.2.26.01.04.01.11.01.19 0 .15-.01.34.07.39.07-.12.4-.73.25-1.29-.05-.19-.16-.3-.33-.3" fill="#e08728"/><path d="M29.79 5.54s1.57.06 1.58 1.08c-.01.16 0 .35-.06.8.31-.17.52-.63.48-.93.01-1.04-1.4-1.75-2-.95" fill="#3b7b0f"/><path d="M31.32 7.48c-.01 0-.03 0-.04-.01-.02-.01-.03-.04-.03-.07.05-.37.05-.56.05-.7v-.09c-.01-.93-1.5-1-1.51-1-.03 0-.05-.02-.06-.04a.062.062 0 0 1 .01-.07c.39-.51 1.22-.46 1.73.06.26.26.4.59.4.92.04.31-.17.81-.52 1h-.03m-1.38-2c.4.04 1.49.24 1.5 1.14v.09c0 .12-.01.28-.04.56.22-.19.35-.55.32-.77 0-.31-.13-.6-.36-.83-.24-.24-.57-.39-.88-.39a.731.731 0 0 0-.54.2"/><path d="M28.8 5.49s1.27-.27 1.27.75c.01 1.02-.4 1.18-.4 1.18s.97-.21.98-1.24c0-1.03-1.25-1.49-1.85-.69" fill="#3b7b0f"/><path d="M29.67 7.49c-.03 0-.06-.02-.07-.05-.01-.04.01-.07.04-.09 0 0 .37-.17.36-1.11 0-.58-.47-.71-.86-.71-.19 0-.33.03-.33.03-.03 0-.06-.01-.08-.03-.02-.03-.02-.06 0-.08.39-.53 1.19-.55 1.65-.1.22.22.33.51.33.83 0 1.08-1.02 1.31-1.03 1.31h-.01m-.53-2.1c.64 0 1 .31 1 .86.01.51-.1.82-.2 1 .27-.14.63-.45.64-1.06 0-.36-.16-.6-.29-.73-.35-.35-.95-.38-1.31-.05.05-.02.1-.02.16-.02"/><path d="M33.1 27.42s5.92-1.67 7.71-8.94c-1.04 7.46-7.52 9.83-7.52 9.83l-.19-.89z" fill="#f0df76"/><path d="M33.29 28.34h-.02c-.01 0-.01-.01-.02-.02l-.19-.89c.08-.05 5.95-1.79 7.71-8.96-.97 7.41-7.42 9.84-7.48 9.86.01.01 0 .01 0 .01m7.49-9.87c-1.71 7.22-7.62 8.96-7.68 8.98l.2.82c.5-.19 6.49-2.7 7.48-9.8"/><path d="M33.7 27.88c.18 0 .64-.5.9-.56.26-.06.29-.32-.01-.33-.3-.01-.56.34-.56.34s-.26.22-.53.25-.09.36.2.3M37.12 25.33s-.62.36-.53.44c.09.09.64-.34.64-.35.01 0 .23-.27-.11-.09" fill="#801612"/><path d="M36.62 25.81l-.06-.02c0-.17.45-.44.54-.49.09-.05.15-.07.18-.07.08.09-.03.21-.03.21-.01.02-.46.37-.63.37m.66-.52c-.01.01-.05.02-.15.07-.29.17-.53.35-.52.39h.01c.13 0 .55-.32.59-.35.02-.02.07-.09.07-.11M34.97 26.95s-.19-.07.29-.25c.47-.18.44-.4.6-.48.16-.09.48-.32.55-.18.07.14-.35.4-.44.43-.1.03-.57.46-.7.5-.15.04-.24.02-.3-.02M37.62 24.92c-.01 0-.01 0-.02-.01l.04-.09c-.04 0 .01-.06.35-.43.02-.02.05-.02.07 0 .02.02.02.05 0 .07-.35.4-.4.46-.44.46M38.25 24.2c-.01 0-.02 0-.03-.01-.02-.02-.02-.05-.01-.06l.39-.47c.01-.02.04-.02.06-.01.02.02.02.04.01.06l-.39.47c0 .01-.01.02-.03.02M38.81 23.45c-.01 0-.02 0-.02-.01-.02-.01-.03-.04-.01-.06l.43-.69c.01-.02.04-.02.06-.01.02.01.02.04.01.06l-.43.69c-.01.02-.02.02-.04.02M39.4 22.49h-.02c-.02-.01-.03-.03-.02-.05l.35-.71c.01-.02.03-.03.05-.02.02.01.03.03.02.05l-.36.71c.01.01 0 .02-.02.02M39.87 21.5h-.02c-.02-.01-.03-.03-.02-.05l.12-.25c.01-.02.03-.02.05-.02.02.01.03.03.02.05l-.12.25c0 .01-.01.02-.03.02" fill="#801612"/><path d="M25.33 27.26s-5.87-1.7-7.64-9.1c1.03 7.6 7.45 10.01 7.45 10.01l.19-.91z" fill="#f0df76"/><path d="M25.14 28.2s0-.01 0 0c-.07-.03-6.46-2.5-7.48-10.03 1.81 7.28 7.62 9.05 7.68 9.07l-.17.94c0 .01-.01.02-.02.02 0-.01 0 0-.01 0m-7.48-10.03c1.03 7.21 6.96 9.76 7.46 9.96l.18-.87c-.09 0-5.89-1.8-7.64-9.09"/><path d="M24.73 27.73c-.18 0-.63-.51-.89-.57-.26-.06-.29-.32.01-.33.3-.01.55.34.55.34s.26.23.52.25c.28.03.11.38-.19.31M21.35 25.14s.61.36.52.45c-.09.09-.63-.34-.64-.35 0-.01-.22-.29.12-.1" fill="#801612"/><path d="M21.84 25.63c-.17 0-.62-.37-.63-.37 0 0-.11-.12-.08-.18.09-.03.15-.01.23.04.09.05.53.32.55.45l-.07.06zm-.65-.53c0 .01.05.09.07.11.05.04.46.36.58.36v.03l.01-.03c.01-.04-.23-.23-.52-.4-.09-.06-.13-.07-.14-.07M23.48 26.78s.18-.07-.29-.25c-.47-.19-.44-.4-.59-.49-.15-.09-.48-.32-.54-.19-.07.14.34.41.44.44.1.03.56.47.7.51.13.04.22.02.28-.02M20.85 24.71c-.03 0-.08-.06-.44-.47a.048.048 0 0 1 0-.07c.02-.02.05-.02.07 0 .33.38.39.44.4.44l-.03.04.02.04c-.01.02-.02.02-.02.02M20.23 23.98c-.01 0-.03-.01-.04-.02l-.38-.48c-.02-.02-.01-.05.01-.06.02-.02.05-.01.06.01l.38.48c.02.02.01.05-.01.06 0 .01-.01.01-.02.01M19.67 23.23c-.01 0-.03-.01-.04-.02l-.43-.71c-.01-.02-.01-.04.01-.06.02-.01.04-.01.05.01l.43.71c.01.02.01.04-.01.05.01.01 0 .02-.01.02M19.09 22.24c-.01 0-.03-.01-.03-.02l-.35-.73c-.01-.02 0-.04.02-.05.02-.01.04 0 .05.02l.35.73c.01.02 0 .04-.02.05h-.02M18.62 21.24c-.01 0-.03-.01-.03-.02l-.11-.26c-.01-.02 0-.04.02-.05.02-.01.04 0 .05.02l.12.26c.01.02 0 .04-.02.05h-.03" fill="#801612"/><path d="M41.09 17.14c.03.46.48.89.3 1.69-.22.9-1.01 3.05-.87 3.43-.23-.32-.2-.62-.21-1.07-.02-.45.65-2.11.71-2.67-.01-.51.04-1.19.07-1.38" fill="#3b7b0f"/><path d="M40.52 22.32c-.02 0-.04-.01-.06-.03-.21-.28-.21-.55-.22-.89l-.01-.21c-.01-.25.17-.83.37-1.43.15-.49.32-.99.34-1.25 0-.48.05-1.19.08-1.38.01-.04.04-.06.08-.06.03 0 .06.03.07.07.01.15.07.3.14.48.12.31.28.7.16 1.23-.07.29-.2.71-.34 1.16-.26.84-.62 1.99-.53 2.22.01.03 0 .07-.03.09h-.05m.6-4.77c-.02.28-.04.66-.04.97-.03.27-.18.76-.35 1.28-.18.57-.37 1.16-.36 1.38l.01.22c.01.21.01.39.06.56.05-.41.26-1.11.54-1.99.14-.45.27-.86.34-1.15.11-.49-.03-.84-.15-1.15-.02-.04-.03-.08-.05-.12"/><path d="M41.09 17.15s.73.92.69 1.65c-.04.73-.45 1.58-.31 1.96-.23-.32-.29-.52-.31-.97-.02-.45.36-.94.28-1.43-.08-.48-.36-1.21-.35-1.21" fill="#3b7b0f"/><path d="M41.47 20.83c-.02 0-.04-.01-.06-.03-.23-.32-.3-.54-.32-1.01-.01-.22.07-.44.14-.66.09-.25.18-.51.14-.76-.06-.36-.23-.86-.31-1.08-.05-.15-.05-.15-.03-.18.01-.02.04-.03.06-.03.02 0 .04.01.06.03.03.04.74.95.7 1.7-.02.33-.11.69-.19 1.01-.1.38-.19.74-.12.92.01.04 0 .07-.03.09h-.04m-.15-3.2c.07.23.15.5.19.73.05.28-.05.56-.14.83-.07.22-.15.42-.14.61.02.32.05.5.15.69.02-.2.08-.44.15-.7.08-.31.17-.66.19-.98.01-.41-.2-.86-.4-1.18"/><path d="M17.25 17.35c-.03.46-.37.86-.2 1.66.22.9 1.02 2.05.89 3.36.23-.32.3-.68.32-1.13.02-.45-.88-1.95-.94-2.51.01-.5-.04-1.19-.07-1.38" fill="#3b7b0f"/><path d="M17.95 22.44c-.01 0-.02 0-.03-.01a.075.075 0 0 1-.05-.07c.08-.87-.25-1.67-.54-2.38a8.15 8.15 0 0 1-.35-.96c-.12-.54-.01-.91.09-1.23.05-.15.09-.3.1-.45 0-.04.03-.06.07-.07.05 0 .07.02.08.06.03.2.08.9.08 1.39.03.25.25.75.47 1.23.25.54.48 1.04.47 1.29-.02.39-.07.8-.33 1.16-.01.03-.04.04-.06.04m-.73-4.63c0 .01-.01.02-.01.03-.09.3-.2.65-.09 1.16.07.29.2.6.34.93.27.64.57 1.36.57 2.15.12-.27.15-.56.16-.84.01-.21-.23-.73-.45-1.22s-.46-1-.49-1.28c.01-.3-.01-.65-.03-.93"/><path d="M17.25 17.36s-.71.89-.67 1.62c.01.49.9 2.51.77 2.89.23-.32.3-.28.29-.77-.26-1.24-.73-2.04-.65-2.52.08-.48.27-1.22.26-1.22" fill="#3b7b0f"/><path d="M17.35 21.95c-.01 0-.02 0-.03-.01-.03-.02-.05-.05-.03-.09.07-.19-.2-.97-.41-1.6-.19-.56-.36-1.04-.36-1.27-.04-.74.66-1.63.68-1.67.01-.02.04-.03.06-.03.02 0 .04.01.06.03.02.03.02.03-.03.27-.06.25-.16.68-.21 1.01-.04.25.08.61.24 1.08.13.38.29.86.41 1.42.01.41-.03.48-.18.67-.03.04-.07.09-.12.15-.04.03-.06.04-.08.04m-.25-4.24c-.2.32-.47.83-.45 1.27 0 .2.18.72.35 1.22.22.66.39 1.15.42 1.46.12-.15.15-.2.14-.55-.11-.54-.27-1.01-.4-1.39-.17-.5-.29-.86-.25-1.15.05-.26.13-.61.19-.86"/><path fill="#fff" d="M29.35 9.2l1.77 5.43h5.7l-4.61 3.35 1.76 5.43-4.62-3.36-4.61 3.36 1.76-5.43-4.61-3.35h5.7z"/><path d="M33.97 23.45c-.01 0-.02 0-.03-.01l-4.61-3.35-4.56 3.35c-.02.01-.04.01-.05 0-.02-.01-.02-.03-.02-.05l1.76-5.43-4.6-3.3c-.01-.01-.02-.03-.01-.05.01-.02.02-.03.04-.03h5.71l1.72-5.4c.01-.03.07-.03.09 0l1.76 5.43 5.66-.03c.02 0 .04.01.04.03.01.02 0 .04-.01.05l-4.62 3.35 1.78 5.38c.01.02 0 .04-.02.05-.01.01-.02.01-.03.01m-4.64-3.43l4.56 3.28-1.73-5.3 4.52-3.33h-5.57l-1.76-5.33-1.72 5.3-5.61.03 4.51 3.28-1.71 5.34 4.51-3.27z"/></svg>