<svg xmlns="http://www.w3.org/2000/svg" viewBox="0 0 58.92 34.37"><path fill="#3d9635" d="M0 0h58.92v34.37H0z"/><path d="M29.46 1.79c6.13 0 11.1 4.97 11.1 11.1s-4.97 11.1-11.1 11.1-11.1-4.97-11.1-11.1 4.97-11.1 11.1-11.1" fill="#f4c327"/><path d="M18.72 10.03c0 5.93 4.81 10.74 10.74 10.74 5.93 0 10.74-4.81 10.74-10.74v-8.6H18.72" fill="#3d9635"/><path fill="#f4c327" d="M29.46 5.73l-1.33 4.09 2.05.66z"/><path fill="#f4c327" d="M29.46 5.73l1.33 4.09-2.04.66z"/><path fill="#f4c327" d="M33.55 8.7h-4.3v2.15z"/><path fill="#f4c327" d="M33.55 8.7l-3.48 2.52-1.26-1.73z"/><path fill="#f4c327" d="M25.38 8.7l3.47 2.52 1.26-1.73z"/><path fill="#f4c327" d="M25.38 8.7h4.29v2.15z"/><path fill="#f4c327" d="M31.99 13.5l-1.33-4.09-2.04.67z"/><path fill="#f4c327" d="M31.99 13.5l-3.48-2.52 1.26-1.74z"/><path fill="#f4c327" d="M26.94 13.5l3.47-2.52-1.26-1.74z"/><path fill="#f4c327" d="M26.94 13.5l1.32-4.09 2.05.67z"/></svg>