<svg xmlns="http://www.w3.org/2000/svg" viewBox="0 0 58.92 34.37"><path fill="#120065" d="M0 0h58.92v34.37H0z"/><path d="M38.39 9.79H51.2l-.01 9.12c.11 3.67-2.18 5.94-6.38 6.97-2.99-.74-6.43-2.28-6.43-6.86l.01-9.23z" fill="#fff"/><path d="M38.67 10.07h12.25l-.02 8.73c.1 3.51-2.08 5.69-6.1 6.67-2.85-.71-6.14-2.18-6.15-6.57l.02-8.83z" fill="#48a0b9"/><path d="M44.8 25.49c-2.64-.66-6.16-2.06-6.16-6.59l.02-8.84 12.26-.02v8.75c.1 3.44-1.96 5.69-6.12 6.7zm6.1-15.42l-12.23.01v8.82c0 4.51 3.5 5.9 6.13 6.56 4.14-1.01 6.18-3.25 6.08-6.66l.02-8.73z"/><path d="M50.82 19.84c-.45 3.35-3.03 4.82-6.02 5.6-2.65-.71-5.5-1.85-6.05-5.58l12.07-.02z" fill="#973c1a"/><path d="M41.93 11.68l2.39.01-.02-1.1.87.01.01 1.09h2.38l.01.86-2.39.01-.02 10.06-.85.01-.01-10.08-2.37.01z"/><path d="M42.39 20.25l2.18 2.26c.75-.83.23-3.93-.76-4.5-.12.36-.32.81-.54.95-.47.32-1.63.7-1.24.94.09-.12.32-.24.43.03.13.43-.48.46-.48.46s-.39-.05-.46-.44.58-.76.63-.78c.05-.02.9-.25 1.04-.99.18-.73.36-.63.39-.64 1.1.11 1.82 2.08 1.86 3.47.04 1.39-.56 2.3-.67 2.36-.11.06-2.62-2.98-2.62-2.98l.24-.14z" fill="#f09727"/><path d="M44.77 23.39c-.16 0-2.38-2.68-2.63-2.99l.03-.02c-.1.03-.19.03-.19.03-.01 0-.4-.05-.47-.45-.07-.42.63-.79.64-.8.35-.11.92-.38 1.03-.98.16-.65.32-.65.38-.65 1.13.11 1.86 2.1 1.9 3.48.04 1.4-.57 2.32-.68 2.38h-.01zm-2.41-3.1c-.03.03-.07.05-.11.06l-.09.05c.98 1.17 2.48 2.94 2.61 2.96.11-.07.7-.97.66-2.35-.04-1.37-.76-3.34-1.85-3.45-.16 0-.28.21-.38.63-.12.61-.69.89-1.03.99-.02.01-.71.37-.64.77.06.38.44.43.44.43s.13-.01.26-.05l.13-.08c.09-.07.11-.18.08-.3-.09-.21-.32-.15-.4-.03-.08-.03-.11-.07-.1-.12.01-.16.37-.34.76-.53.21-.1.43-.21.57-.31.21-.14.41-.58.53-.94.49.26.91 1.14 1.08 2.23.13.81.12 1.84-.29 2.28l-2.17-2.23 2.17 2.21c.31-.37.42-1.23.26-2.26-.17-1.08-.58-1.95-1.04-2.22-.1.36-.3.81-.52.95-.15.1-.36.21-.57.31-.36.18-.73.36-.74.5 0 .03.02.07.07.1.05-.1.29-.32.43.04.04.14.01.25-.08.33l-.01-.01.01.01-.04.03z"/><path d="M44.01 22.23l-.04-4.08H44zM43.76 21.93c-.03 0-.04-3.7-.04-3.71h.03l.01 3.71M43.5 21.71l-.04-2.95h.02zM43.28 21.41l-.04-2.44h.03zM43.04 21.14l-.03-2.06h.03zM42.79 20.87l-.03-1.63h.03zM42.57 20.62l-.03-1.25h.03z"/><path d="M44.62 23.07l-2.28-2.54a.03.03 0 0 1 0-.04c.01-.01.02-.01.03 0l2.25 2.58zM44.79 22.99h-.02c-.02-.01-.03-.04-.02-.06.92-1.79-.06-4-.08-4.02-.01-.02 0-.05.02-.06.02-.01.05 0 .06.02.01.02 1.02 2.27.07 4.1 0 .02-.01.02-.03.02M42.09 20.09h-.02c-.02-.01-.04-.03-.03-.06.01-.02.06-.14.14-.16.01-.01.09.02.1.03.02.01.02.04 0 .06-.02.02-.04.02-.06.01-.06-.01-.08.06-.1.1.01.01-.01.02-.03.02M41.73 20.11c-.01 0-.02 0-.03-.01a.323.323 0 0 1-.08-.21c.01-.22.26-.44.26-.45.02-.01.05-.01.06 0 .02.02.01.05 0 .06 0 0-.23.21-.23.39 0 .05.01.1.05.14.02.02.02.05 0 .06 0 .01-.02.02-.03.02" fill="#f7df29"/><path d="M0 0v1.67l26.59 13.3h3.35V13.3L3.35 0H0zm29.93 0v1.67L3.35 14.97H0V13.3L26.59 0h3.34z" fill="#fff"/><path d="M12.47 14.97h4.99V0h-4.99v14.97zM0 9.98h29.93V4.99H0v4.99z" fill="#fff"/><path d="M0 8.98h29.93V5.99H0v2.99zm13.47 5.99h2.99V0h-2.99v14.97zM0 14.97l9.98-4.99h2.23l-9.98 4.99H0zM0 0l9.98 4.99H7.75L0 1.12V0zm17.72 4.99L27.7 0h2.23l-9.98 4.99h-2.23zm12.21 9.98l-9.98-4.99h2.23l7.75 3.87v1.12z" fill="#ba0019"/><path d="M45.19 13.81c.15-.13.23-.21.32-.19.09.01.22.01.31-.02s.56-.09.75-.02c.06.01.15.04.28.15.13.11.33.31.26.85s-.04.77-.07 1.07c-.05.53-.17.97-.38.94.29.5.32.93.5 1.28.19.35.3 1.05.23 1.81-.07.76-.27 2.48.33 3.63-.1.07-.35 0-.56-.23-.21-.23-.31-.22-.49-.09-.55.42-1.06.92-1.81.42-.17-.11-.23-.25-.1-.6.32-.88.47-2.08.42-2.65v-6.35z" fill="#348128"/><path d="M45.49 23.62c-.21 0-.41-.07-.63-.21-.17-.11-.24-.25-.11-.62.31-.87.47-2.07.42-2.64v-6.34c.16-.15.23-.21.32-.21.17.02.25.01.33-.02.11-.03.6-.07.76-.02.08.01.17.06.29.16.11.09.34.28.27.86-.04.33-.05.55-.05.74 0 .11-.01.22-.02.34-.04.43-.14.95-.37.95.15.26.23.53.3.76.05.18.11.35.19.5.21.38.3 1.11.23 1.82l-.02.11c-.08.84-.23 2.4.34 3.49-.11.14-.33.05-.58-.21-.22-.23-.31-.21-.47-.09l-.14.11c-.33.25-.67.52-1.06.52m.02-9.99c-.09 0-.16.06-.27.15l-.04 6.37c.05.57-.11 1.78-.42 2.65-.13.35-.06.48.1.59.61.41 1.14.09 1.65-.31l.14-.11c.17-.13.28-.16.51.09.18.2.44.3.54.23-.58-1.08-.43-2.65-.35-3.49l.01-.13c.08-.81-.06-1.49-.23-1.8-.08-.15-.13-.32-.19-.5-.07-.23-.15-.49-.31-.78.2-.02.32-.35.38-.94.01-.11.01-.22.02-.33.01-.19.01-.41.05-.74.07-.56-.15-.74-.26-.83-.11-.09-.2-.14-.28-.15-.17-.06-.65-.01-.74.02-.08.01-.21.02-.31.01z"/><path d="M45.71 13.27c.04.12.06.28-.01.42-.06.14-.08.32.03.53.17-.24.42-.2.56-.34.14-.14.17-.28.28-.31-.11-.09-.27-.19-.24-.47.04-.27.42-.5.07-.91-.22-.27-.55-.19-.69-.09-.07.05-.12.12-.14.17-.02.05 0 .15-.05.22-.04.04-.08.09-.13.12-.03.02-.05.06-.02.1.01.02.04.02.07.03-.01.03-.03.06-.05.09-.02.02-.01.04.01.06-.03.09.03.09-.01.16-.03.05-.07.12.04.18.04.01.2.05.28.04" fill="#f9dfce"/><path d="M45.73 14.25l-.01-.02a.577.577 0 0 1-.03-.54c.06-.14.04-.28.01-.39.06.12.08.26.01.4-.07.16-.06.32.02.49.1-.13.22-.17.34-.21.08-.03.16-.05.21-.11.06-.06.1-.12.13-.17.04-.05.07-.1.11-.13a.55.55 0 0 1-.09.14c-.03.05-.08.11-.14.17-.06.06-.14.09-.23.12-.12.04-.24.08-.33.22v.03zm.81-.71c-.14-.09-.25-.2-.22-.44.01-.09.06-.17.1-.25.1-.18.21-.37-.03-.65-.28-.34-.56-.17-.67-.09-.07.05-.12.12-.14.16-.01.02-.01.04-.01.07 0 .05 0 .11-.04.15a.8.8 0 0 1-.13.13l-.02.07-.04-.04c0-.02.02-.04.04-.06.05-.03.09-.08.13-.12.03-.03.03-.09.03-.13 0-.03 0-.06.01-.08.02-.05.08-.13.15-.17.12-.08.41-.26.71.09.25.3.13.5.03.68-.04.08-.09.16-.1.24-.03.24.09.34.2.42.01.01 0 .01 0 .02m-.9-.27c-.09 0-.18-.02-.21-.04a.12.12 0 0 1-.08-.09c-.01-.04.01-.08.03-.11.01-.09 0-.12.01-.16.01-.09.03-.12.04-.15l-.04-.03.06.04c-.01.02-.03.06-.05.09 0 .09 0 .11.01.14.01.02.01.05-.01.08-.02.04-.04.07-.03.1.01.03.03.05.07.07.03.01.14.04.22.04.01.01.01.01.01.02h-.03"/><path d="M44.31 14.7c-.2.05-.53-.03-.77-.01-.11.01-.2-.04-.18-.15.01-.11.03-.27.01-.42-.04-.23.08-.56.24-.92.16-.36.24-.56.24-.73 0-.11.01-.24.11-.3.07-.05.09-.09.12-.13.06-.09.12-.11.13-.06 0 .03-.01.06-.04.1.06-.05.17-.12.2-.14.02-.02.15-.11.16-.02.05-.03.08-.02.1 0 .01.03.01.04-.02.06.04-.01.08.06.01.11.04-.01.08.05.01.11s-.15.1-.17.15c-.02.05-.2.18-.27.21s-.07.07-.07.17c0 1.11-.13 1.02-.13 1.28 0 .07-.01.14.06.12.07-.02.18-.06.29-.06v.63z" fill="#f9dfce"/><path d="M44.15 14.73c-.08 0-.16-.01-.24-.01-.13-.01-.25-.02-.37-.01-.08.01-.14-.02-.16-.05-.03-.03-.04-.07-.03-.12.02-.11.03-.27.01-.42-.04-.25.1-.61.24-.93.16-.37.24-.56.24-.73 0-.12.01-.25.12-.31.06-.04.08-.07.1-.1.06-.08.1-.12.13-.12.04.06.03.1.02.13.03-.04.08-.08.12-.1.07-.05.13-.09.18-.09l.1.02c.06.06.05.08.04.1l-.01-.06-.02.01-.08-.02c-.04-.02-.09 0-.14.03-.09.05-.15.09-.2.13.01-.06.02-.09.01-.11-.03-.02-.06.01-.1.06-.04.06-.06.1-.12.14-.09.06-.1.18-.1.29 0 .17-.07.36-.24.73-.14.31-.27.67-.24.91.02.15.01.31-.01.43-.01.04 0 .07.02.09.02.03.06.04.11.04.2-.02.27-.01.4.01.15.01.3.02.39 0l-.01-.61c-.09.01-.18.04-.25.06h-.07c-.02-.02-.02-.05-.01-.09 0-.12.01-.17.04-.24.04-.14.1-.34.1-1.08 0-.1 0-.15.08-.18.07-.03.24-.16.26-.2.02-.03.06-.06.1-.1.02-.02.05-.04.07-.06.03-.03.04-.05.03-.07.04.03.02.06-.01.09-.03.02-.05.04-.08.06a.45.45 0 0 0-.1.09c-.03.05-.2.18-.27.21-.06.02-.06.05-.06.16 0 .75-.06.95-.1 1.09-.02.07-.03.11-.03.2l.01.1c.12-.03.22-.06.32-.06l.02.64c-.09.04-.15.05-.21.05"/><path d="M44.35 17.09c.32-.16.7-.22.89-.27.19-.05.5-.2.65-.28.15-.08.27-.19.36-.22.09-.03.18-.09.24-.19.28-.55.43-.99.43-1.37 0-.25-.06-.53-.31-.33-.23.19-.48.55-.55.82-.1.4-.19.49-.21.57-.02.08-.1.08-.2.1-.43.09-.52.16-.84.4-.32.24-.66.45-.89.58-.23.13-.27.14-.32.25-.05.1-.1.18-.14.23-.04.05-.06.1-.05.16.01.05-.01.26-.02.33 0 .07.01.09.04.09s.07-.01.08-.1c-.01.08.11.06.11-.01 0 .09.12.04.13-.05 0 .06.1.02.11-.01.02-.07.04-.15.07-.21.04-.08.09-.19.17-.25.1-.07.06-.15.25-.24" fill="#f9dfce"/><path d="M43.45 17.97c-.06-.01-.07-.06-.07-.11l.01-.08c.01-.09.02-.21.01-.25-.01-.07.01-.12.05-.17.04-.04.09-.12.14-.23.05-.1.09-.12.26-.22l.07-.04c.15-.08.53-.3.89-.58.32-.24.42-.3.85-.4.12-.02.17-.03.19-.09.01-.02.02-.05.04-.08.04-.08.1-.2.17-.49.07-.26.31-.63.55-.83.26-.22.33.18.33.34 0 .36-.13.79-.43 1.37-.06.13-.18.18-.25.2-.04.02-.1.05-.17.1-.06.04-.12.08-.19.12-.19.1-.48.24-.66.28l-.15.04c-.21.05-.49.11-.74.24-.12.06-.14.11-.17.15-.02.03-.03.06-.07.09-.07.05-.11.14-.15.22-.04.07-.05.13-.07.19-.02.07-.07.1-.1.1-.02.02-.08.06-.12.06l-.05-.06c.02.05-.02.08-.06.08l-.05-.07c.08.04.11.02.11-.01.08.03.12 0 .13-.05l.12-.01h-.01c.03-.11.05-.17.07-.21.05-.11.1-.2.17-.26.04-.02.05-.05.07-.08.03-.05.06-.1.18-.16.26-.13.54-.19.75-.24l.14-.03c.17-.05.46-.18.65-.28.07-.04.13-.08.19-.12.07-.04.13-.09.17-.1a.39.39 0 0 0 .23-.19c.3-.58.43-1 .43-1.36 0-.12-.04-.52-.29-.32-.24.19-.48.56-.54.81-.07.29-.14.41-.17.49-.02.03-.03.05-.03.08-.02.07-.09.09-.16.1-.47.1-.57.17-.88.4-.36.27-.75.49-.9.58l-.07.04c-.17.1-.2.12-.25.2-.05.11-.1.19-.14.23-.04.04-.05.09-.04.15.01.03 0 .16-.01.25l-.01.08c0 .07.02.08.03.08h.01c.04 0 .05-.05.06-.09 0 .12-.05.14-.07.14"/><path d="M46.68 22.98c.02.08.06.17.08.23.01.05-.01.07-.02.1-.08.16-.16.41-.17.55-.01.08-.06.15-.09.2-.03.05-.02.09.05.14.03.02.13-.01.14-.06.04.04.1.02.13-.03.03.03.09.01.12-.04.03.02.08-.02.1-.05.05.03.1 0 .11-.1 0-.02.01-.05.03-.08.01-.02.02-.07.02-.11 0-.04.02-.12.06-.17.03-.06.09-.16.07-.25-.02-.09-.06-.08-.09-.21-.08-.08-.19-.2-.3-.21-.13-.01-.2.06-.24.09" fill="#f9dfce"/><path d="M46.55 24.21l-.04-.01c-.07-.05-.08-.1-.05-.16.04-.07.08-.14.08-.2.01-.13.09-.39.17-.55l.02-.09c-.01-.03-.02-.06-.03-.1-.01-.04-.03-.09-.04-.13.07-.07.13-.11.22-.11.13.01.24.12.32.21.02.08.04.1.06.13.02.02.03.04.04.09.03.1-.03.2-.07.26-.04.06-.06.13-.06.17 0 .04 0 .09-.02.12-.01.02-.02.05-.03.07 0 .09-.05.13-.09.13-.04.01-.07.05-.11.05-.04.03-.07.05-.11.05-.04.02-.08.04-.12.04-.02 0-.09.03-.14.03m.35-1.31c-.09 0-.14.04-.18.07-.01.05 0 .09.02.13.01.04.03.07.03.1.01.05 0 .07-.02.09-.09.18-.17.43-.18.56-.01.07-.04.13-.07.18-.04.07-.04.1.03.15l.02.01c.04 0 .09-.03.1-.05.09.01.12-.01.13-.04.07.01.1-.01.12-.04.05 0 .08-.03.1-.05.11 0 .1-.04.1-.1 0-.03.02-.06.03-.09a.25.25 0 0 0 .02-.1c0-.04.02-.13.06-.18.04-.06.09-.15.07-.24a.3.3 0 0 0-.04-.08.312.312 0 0 1-.06-.13c-.07-.07-.18-.18-.28-.19z"/><path d="M44.63 23.6c.1.1.33.11.48-.06-.06-.03-.18-.08-.24-.13-.07.07-.16.16-.24.19" fill="#f9dfce"/><path d="M44.83 23.68c-.08 0-.15-.03-.2-.07.08-.05.17-.14.24-.21.07.04.19.1.26.13-.08.1-.19.15-.3.15m.04-.27c-.06.08-.15.17-.23.2.05.02.11.04.18.04.1 0 .21-.05.28-.13-.05 0-.17-.06-.23-.11"/><path d="M45.65 12.16c.04-.25.22-.25.33-.22.05.01.16.02.27-.01.21-.06.38.02.35.22.06.04.12.14.11.23-.01.09.01.12.09.13.08.01.25.11.14.24.11.06.19.23.13.34-.06.11-.23.13-.3.03-.08.04-.21.04-.29-.04-.05.07-.19.06-.22 0s-.07-.09-.12-.1c-.06-.02-.06-.18.02-.19-.01-.05-.01-.1.01-.13s0-.07-.05-.11c-.05-.04-.09-.19-.04-.27-.09.03-.28-.05-.32-.11-.02-.06-.07-.06-.11-.01" fill="#7c0211"/><path d="M46.91 13.21c-.06 0-.11-.03-.15-.07-.05.05-.18.07-.29-.04-.01.07-.19.06-.22 0a.182.182 0 0 0-.11-.1c-.04-.01-.05-.07-.05-.11 0-.06.03-.1.08-.11-.02-.03-.02-.09.01-.12 0-.04-.01-.07-.04-.09-.05-.04-.08-.15-.07-.23.02.08.05.18.09.21.04.03.06.06.06.09a.21.21 0 0 0-.02.15c-.05.03-.06.07-.07.1 0 .04.01.07.03.08.06.02.1.05.13.11.02.05.15.05.19 0 .13.09.22.07.29.03.1.1.25.07.3-.02.05-.1-.03-.26-.13-.32.03-.06.04-.1.02-.13-.02-.06-.11-.1-.15-.11-.1-.01-.11-.07-.1-.15.01-.08-.05-.18-.1-.22 0-.08-.01-.14-.05-.18-.06-.06-.16-.08-.29-.04-.1.03-.26.01-.28.01-.18-.04-.28.02-.32.2l-.03.01c.03-.2.15-.28.35-.23.02 0 .17.02.26-.01.14-.04.26-.02.32.05.04.04.06.11.05.18.06.03.12.14.11.23-.01.08.01.11.07.12.05.01.15.05.18.13.01.03.02.08-.03.14.11.05.2.22.13.34-.03.06-.1.1-.17.1m-.89-.93c-.11 0-.22-.06-.25-.1-.02-.02-.04-.04-.06-.04h-.01c.05-.02.07-.01.09.02.03.04.17.11.26.11v.01h-.03zM45.71 13.28l-.01-.03c.07-.01.11-.03.15-.05.04-.02.09-.04.14-.04-.05.02-.09.05-.13.07a.37.37 0 0 1-.15.05"/><path d="M46.25 12.2a.15.15 0 0 1-.11-.04c-.09-.09-.2-.14-.29-.11a.13.13 0 0 0-.08.06l-.01.06-.02-.07a.14.14 0 0 1 .1-.08c.1-.03.22.01.32.12.04.04.14.04.17.03-.01.02-.04.03-.08.03M46.86 12.81h-.02c-.07-.01-.15-.09-.22-.24-.04-.07-.07-.08-.11-.1a.128.128 0 0 1-.1-.09c-.05-.13-.26-.09-.3-.09l-.01-.03c.13-.03.29-.02.33.11.02.05.05.06.09.08.04.01.09.03.13.11.07.14.14.21.2.22.03 0 .06-.01.08-.03-.01.05-.04.06-.07.06M46.47 13.1c-.04-.05-.05-.15-.03-.21-.05-.04-.02-.16 0-.21 0 .06-.01.16.02.2-.02.07 0 .16.03.2l-.02.02z"/><path d="M46.51 12.71a.19.19 0 0 1-.17-.11c-.07-.02-.11-.12-.11-.19h.03c0 .06.03.14.09.17.02.05.1.14.22.12-.02.01-.04.01-.06.01M46.6 12.16a.733.733 0 0 0-.32-.15c.15-.01.25.06.34.13l-.02.02zM45.51 15.96c.2-.22.13-.67.07-1-.05-.31 0-.56.14-.76l.02.02c-.14.19-.19.43-.14.71.07.36.15.81-.09 1.03M45.87 16.73c-.08 0-.16-.02-.23-.05.16.04.36.03.49-.05.13-.09.37-.1.54-.06l-.01.03c-.17-.04-.4-.04-.52.05-.07.05-.17.08-.27.08"/><path d="M46.11 17.99c-.06-.26-.05-.52-.03-.74.01-.11.01-.21.01-.29 0-.26.07-.38.22-.41l.01.03c-.12.02-.2.09-.2.38 0 .09-.01.18-.01.29-.02.22-.03.48 0 .74M45.9 16.96c-.05-.24.04-.27.13-.29l.03.02h-.02c-.09.03-.16.04-.14.27M45.58 16.97h-.03c0-.13.04-.23.09-.27.03-.02.06-.02.09-.02l-.07.04c-.04.03-.07.13-.08.25M47.23 20.64c-.08-.18-.09-.52-.1-.91-.01-.54-.03-1.21-.18-1.7-.03-.09-.05-.16-.08-.23-.07-.19-.12-.35-.16-.66-.04-.38-.09-.5-.16-.54.05.07.08.2.07.4h-.03c0-.21-.02-.34-.08-.39-.02-.02-.04-.03-.06-.03h-.02c.03-.03.06-.02.08-.01.1.01.17.12.22.57.03.31.09.47.15.66.02.07.05.14.08.23.15.5.17 1.17.19 1.71.02.38.02.72.08.9"/><path d="M47.05 21.96c-.06-.2-.19-.5-.34-.88-.11-.26-.23-.56-.35-.9.46-1.45.28-2.34.03-3.08l.03-.01c.26.75.43 1.64-.03 3.09.12.33.24.63.35.89.16.38.28.68.31.89M45.56 18.97l-.03-.01c.02-.06.01-.1-.01-.16-.03-.1-.07-.26.04-.68.07-.27.08-.43.04-.51.07.08.06.24-.01.52-.1.41-.06.56-.04.66.02.06.03.11.01.18"/><path d="M45.7 19.17c.05-.22-.01-.49-.06-.72-.04-.18-.07-.35-.04-.47l.03.01c-.03.12.01.28.05.46.04.23.09.5.02.72M46.15 23.39c.1-.09.09-.28.09-.43v-.11c.04-.77-.23-1.34-.66-2.21l-.07-.13c-.08-.16-.14-.27-.13-.47.01-.14-.01-.29-.02-.45-.01-.13-.02-.25-.02-.35h.03c0 .11.01.23.02.35.02.16.03.32.02.45-.01.19.05.3.13.45l.07.13c.44.87.7 1.45.66 2.22v.11c0 .17 0 .37-.12.44M45.36 23.61h-.01v-.03c.02 0 .08-.01.13-.14.05-.12.23-.9.15-1.43.1.54-.08 1.32-.13 1.44-.03.11-.08.16-.14.16M45.67 23.39c.08-.28.08-.63.06-.77h.03c.01.14.02.49-.09.77"/><path d="M46.03 23.01c.03-.25.02-.57-.04-.89l.03-.01c.07.33.07.66.01.9M45.84 23.55c.07-.05.04-.29.03-.43l-.01-.11h.03l.01.11c.01.18.03.41-.06.43M47.12 22.99c-.14-.09-.25-.43-.37-.78-.11-.32-.22-.66-.35-.86l.03-.02c.13.2.24.54.35.86.11.36.22.69.34.8M46.62 22.83v-.01c-.01-.11-.02-.26-.07-.32.09.06.1.2.1.32l-.03.01zM43.64 17.85l-.01-.05c.01-.23.01-.26.09-.34-.05.09-.05.11-.06.34l-.02.05zM43.54 17.85h-.03v-.12c0-.11 0-.18.06-.28-.04.11-.03.17-.03.28v.12zM44.29 12.22l.05-.07c.15-.12.22-.17.25-.18V12c-.02.01-.11.07-.24.17l-.06.05zM44.35 12.31c.02-.05.07-.09.11-.12.06-.05.1-.09.14-.1l.01.03c-.03.01-.08.05-.13.09-.05.03-.09.06-.13.1M45.6 12.39c.05.07.1.06.11.11.01.04.02.05.03.06.01.01-.02.01-.04 0s-.06-.01-.08-.01c-.03 0-.06-.03-.04-.03.02 0 .02-.01.01-.02 0-.01.01-.04.02-.04s0 0-.01-.02c0-.03-.01-.07 0-.05M45.63 12.32c.06.01.16.04.21.1.04.05.01.03-.01.04a.14.14 0 0 1-.09-.04c-.02-.03-.08-.06-.12-.07-.02-.01-.04-.03.01-.03"/></svg>