<svg xmlns="http://www.w3.org/2000/svg" viewBox="0 0 58.92 34.37"><path fill="#bd0034" d="M29.46 0h29.46v34.37H29.46z"/><path fill="#fff" d="M0 0h29.46v34.37H0z"/><path d="M6.82 5.23c0 .06-.06.1-.14.1-.08 0-.14-.04-.14-.1 0-.05.06-.1.14-.1.07 0 .14.05.14.1" fill="#efecec"/><path d="M2.46 4.75v2.53h2.53c0 .42.42.84.84.84v2.53h2.53V8.13c.42 0 .84-.42.84-.84h2.53V4.75H9.2c0-.42-.42-.84-.84-.84V1.38H5.83v2.53c-.42 0-.84.42-.84.84H2.46z" fill="#d30038"/><path d="M2.54 4.83V7.2h2.53c0 .42.42.84.84.84v2.53h2.36V8.04c.42 0 .84-.42.84-.84h2.53V4.83H9.12c0-.42-.42-.84-.84-.84V1.46H5.91v2.53c-.42 0-.84.42-.84.84H2.54z" fill="#bd0034"/><path d="M2.62 4.92v2.2h2.53c0 .42.42.84.84.84v2.53h2.19V7.96c.42 0 .84-.42.84-.84h2.53v-2.2H9.04c0-.42-.42-.84-.84-.84V1.55H6v2.53c-.42 0-.84.42-.84.84H2.62z" fill="#91857c"/><path d="M2.71 5v2.03h2.53c0 .42.42.84.85.84v2.53h2.02V7.87c.42 0 .84-.42.84-.84h2.53V5H8.95c0-.42-.42-.85-.84-.85V1.63H6.08v2.53c-.42 0-.84.42-.84.84H2.71z" fill="#cacaca"/><path d="M6.1 3.95c.15.15.03.51-.26.81-.3.3-.66.42-.81.27-.15-.15-.03-.51.27-.81.3-.3.66-.42.8-.27" fill="#cecece"/><path d="M5.93 4.13c.15.15.11.43-.09.63s-.48.24-.63.09c-.15-.15-.11-.43.09-.63s.48-.24.63-.09" fill="#91857c"/><path fill="#cecece" d="M5.18 4.58l.06-.06.24.12-.12-.24.06-.06.24.47zM5.963 4.517L5.9 4.58l-.364-.358.063-.064zM9.16 5.02c-.15.15-.51.03-.8-.26-.3-.3-.42-.66-.27-.81.15-.15.51-.03.8.27.3.3.42.66.27.8"/><path d="M8.98 4.85c-.15.14-.43.1-.62-.09-.2-.2-.24-.48-.09-.63.15-.15.43-.11.62.09.2.2.24.48.09.63" fill="#91857c"/><path fill="#cecece" d="M8.53 4.1l.07.06-.12.24.23-.12.06.06-.47.24zM8.592 4.878l-.063-.065.363-.357.063.064zM8.09 8.08c-.15-.15-.03-.51.27-.8.29-.3.66-.42.8-.27.15.15.03.51-.27.8-.29.3-.65.42-.8.27"/><path d="M8.27 7.9c-.15-.15-.11-.43.09-.62.2-.2.48-.24.63-.09.15.15.11.43-.09.63-.2.19-.49.23-.63.08" fill="#91857c"/><path fill="#cecece" d="M9.01 7.46l-.06.05-.24-.12.12.24-.06.06-.24-.47zM8.233 7.52l.055-.058.367.355-.056.057zM5.03 7.01c.15-.15.51-.03.8.27.3.3.42.66.27.81-.14.14-.5.02-.8-.28-.3-.29-.42-.65-.27-.8"/><path d="M5.21 7.19c.15-.15.43-.11.63.09s.24.48.09.63c-.15.14-.43.1-.63-.1-.2-.19-.24-.48-.09-.62" fill="#91857c"/><path fill="#cecece" d="M5.66 7.93l-.06-.06.12-.24-.24.12-.06-.06.48-.24zM5.604 7.16l.063.064-.364.357-.063-.064z"/><path d="M7.1 7.8a1.786 1.786 0 1 1 0-3.57c.48 0 .93.18 1.26.52.34.34.52.79.52 1.27s-.18.93-.52 1.26c-.34.34-.79.52-1.26.52m0-3.54c-.97 0-1.76.79-1.76 1.76a1.763 1.763 0 0 0 3 1.25c.33-.33.51-.77.51-1.24s-.18-.91-.51-1.24c-.33-.35-.78-.53-1.24-.53" fill="#91857c"/><path d="M7.1 7.38c-.75 0-1.36-.61-1.36-1.36 0-.75.61-1.36 1.36-1.36.75 0 1.36.61 1.36 1.36 0 .75-.61 1.36-1.36 1.36m0-2.7a1.34 1.34 0 1 0 1.34 1.34c-.01-.74-.61-1.34-1.34-1.34" fill="#91857c"/><path d="M6.51 7.45c0 .03-.02.06-.04.07-.03.02-.06.02-.08 0-.04-.01-.05-.04-.05-.07 0-.03.02-.06.04-.07a.06.06 0 0 1 .08 0c.03.01.05.04.05.07M7.86 7.45c0 .03-.02.06-.04.07-.03.02-.06.02-.08 0-.04-.01-.05-.04-.05-.07 0-.03.02-.06.04-.07.03-.02.06-.02.08 0 .03.01.05.04.05.07M7.04 7.45v.09h-.11c-.11 0-.11.09 0 .09h.11v.09c0 .09.1.1.1.01l.01-.09h.11c.11 0 .11-.09 0-.09h-.11v-.1c0-.09-.11-.09-.11 0"/><path d="M8.06 6.27c.03-.01.08 0 .08 0s0 .02-.01.03c.01.01.06 0 .06 0l-.03.03c.02 0 .04.02.04.02s-.04.01-.06 0c.01.02.01.04.01.04s-.06-.01-.09-.06v-.06zM7.94 6.24c-.01.04-.14-.04-.14-.04s.06.09.14.1v-.06zM6.41 7.02h1.44l.11-.08-.19-.1-.28-.1-.12-.06-.21.01-.17.09-.25.03-.05.07-.18.01-.29-.01.48.08-.39-.02z" fill="#91857c"/><path d="M7.85 7.03H6.41l-.11-.09.4.01-.48-.06.46-.02.05-.06.25-.03.18-.09.21-.01.12.06.47.2-.11.09zm-1.54-.08l.1.07h1.43l.11-.09-.58-.25-.21.01-.17.1-.25.03-.05.06-.18.02-.29-.01.48.06h-.39z"/><path d="M7.18 6.61c-.18-.1-.23.14-.31.2.1.02.18-.08.27-.13.07.19.17.06.17.06s.11.18.26.1c.04.03.08 0 .08 0s.06.01.07-.01c.04.01.07-.03.07-.03s.06 0 .07-.03c.09.02.21-.19.21-.19l.04-.07.06-.01s0-.04-.03-.03c0-.02-.02-.03-.05-.03 0-.01-.01-.02-.01-.02-.04.01-.05.14-.05.14s-.09.07-.12.08c0-.07-.13-.18-.1-.22.03-.04.11.08.18.05.07-.02.1-.11.11-.18-.02-.05-.07-.13-.07-.13h-.05l-.04-.1s-.08.05-.08.1.09.09.09.09-.05.03-.1.02c0 .05.06.04.08.04.01.03.05.05.05.05s.02.06-.04.05c-.05 0-.12-.13-.2-.07-.08.06.04.17.04.17s-.07.04-.12.14c-.18-.15-.28-.08-.48-.04" fill="#91857c"/><path d="M7.5 6.87c-.1 0-.17-.1-.19-.12 0 .02-.13.07-.18-.07a.17.17 0 0 1-.06.06c-.05.04-.11.08-.17.08v-.01c.07-.01.11-.05.16-.08.03-.02.05-.04.08-.05.07.14.17.07.17.07.02 0 .14.16.26.09h.09l.07-.01c.07-.03.12-.03.13-.06.1 0 .21-.19.21-.19l.04-.07H8.1l-.01-.07c-.04-.01-.05.09-.05.12 0 .01-.09.08-.13.09-.01-.04-.04-.08-.06-.12-.03-.04-.06-.08-.05-.11l.08.01c.03.02.06.04.08.04.08-.02.12-.11.12-.18l-.06-.12c.04.03.07.08.08.12 0 .08-.04.17-.11.19-.06 0-.09-.02-.11-.04-.07 0-.04.04-.02.08.03.04.06.08.06.12.02-.02.11-.09.11-.09 0-.01 0-.13.06-.14l.06.05-.06.13c0 .01-.11.19-.21.19-.02.03-.08.03-.09.03l-.1.04-.11-.01v.01c-.02.01-.05.02-.08.02m-.6-.07c0-.02.02-.05.03-.08.06-.09.14-.18.26-.12l.1-.02c.15-.04.26-.04.39.06.03-.09.1-.13.11-.14-.01 0-.07-.06-.07-.12l.08-.07c.04 0 .07.03.1.05 0 .02.02.04.04.04.03-.03 0-.05-.02-.09l.06.04-.04.07c-.02 0-.04-.02-.07-.04-.03-.03-.06-.05-.09-.05l-.06.06c0 .05.06.12.06.12 0 .01-.07.05-.11.15-.15-.1-.24-.1-.38-.06l-.1.02c-.14-.07-.19.03-.25.11-.01.03-.03.05-.04.07m1-.52l.04-.02c-.02-.01-.09-.05-.09-.1s.08-.11.09-.11l.01.03-.01-.02c-.01.02-.07.07-.07.1 0 .04.06.07.08.08v.02c-.02.01-.03.01-.05.02"/><path d="M6.92 6.36c.08.07.03.18.05.2.03.02.07-.01.07-.01.08.02.22-.02.22-.02.07.03.04-.02.08-.01.03.08.14.06.14.06s-.1-.1-.16-.13c-.05.03-.19.04-.21.03-.03 0-.01-.03-.02-.05.05-.05.01-.18-.02-.22-.11-.08-.25.05-.15.15" fill="#91857c"/><path d="M7.46 6.59c-.04 0-.1-.01-.13-.07-.07.02-.16.05-.23.05l-.1.01-.04-.07c0-.05 0-.1-.04-.14-.04-.04-.05-.08-.03-.12.02-.07.11-.09.18-.05.03.05.07.18.02.23.1.05.19.04.23.02.07.03.17.13.17.13l-.03.01zm-.12-.08c.03.06.09.07.13.07v.01l.02-.01c-.01 0-.11-.09-.16-.12-.05.03-.15.03-.19.03l-.06-.07c.05-.05.01-.17-.02-.21-.05-.03-.14-.01-.16.04-.01.03 0 .07.03.1.05.05.04.11.04.16l.03.06.04-.03c.13 0 .22-.02.22-.02l.08-.01z"/><path d="M6.43 6.15c-.09.02-.25-.12-.33-.07-.08.06-.04.2.01.27.05.06-.07.09-.11.13-.03.03.01.08.01.08l.03.02v.05l.02.06s.02.02.02 0c.02.02 0 .06.04.07-.01-.04.01-.12.01-.12s.07 0 .09-.03c.02-.02-.02-.08-.02-.08h.02c-.02-.02-.03-.07-.03-.07s.09-.03.09-.1-.15-.15-.1-.18c.06-.04.17.11.26.04s.03 0 .03 0 .05-.1-.04-.07" fill="#91857c"/><path d="M6.13 6.76h-.02l-.07-.13v-.01.01h.01l.06.1c0-.03.01-.08.01-.09.05 0 .08-.01.09-.02.01-.03-.01-.07-.01-.09l-.01-.07s.09-.03.09-.09c0-.03-.03-.06-.06-.09-.03-.04-.05-.06-.05-.08.02-.01.03-.02.04-.02-.03.03 0 .06.02.08.03.03.06.07.07.1 0 .07-.09.1-.1.11.02.06.05.12.03.15-.02.03-.06.03-.09.03-.01.02-.03.08-.01.1v.01zm-.11-.19h-.01c-.02-.02-.04-.07-.01-.1.08-.05.11-.07.11-.09a.88.88 0 0 1-.06-.17c-.01-.06.01-.11.05-.13.08-.02.13 0 .17.02.05.02.09.04.13.04l.08.01-.01.04-.06-.03c-.04 0-.09-.02-.14-.04-.05-.02-.09-.04-.13-.04-.08.04-.08.09-.08.13.01.05.03.1.05.13.01.07-.03.09-.06.11-.07.06-.04.1-.04.1l.01.02z"/><path d="M6.91 5.15c-.12-.05-.38-.06-.52-.13-.06.01-.09.05-.09.08-.07 0-.11.1-.1.12-.12-.05-.18.13-.14.17-.1 0-.09.14-.1.17-.03.08.01.11.07.08.01.03 0 .05-.03.06.18.2.27-.13.43-.13.19-.05.27-.14.27-.14l.07.01.14-.29z" fill="#91857c"/><path d="M6.12 5.77c-.04 0-.08-.02-.12-.06l-.05-.07c-.01-.02-.01-.04 0-.08.01-.08.02-.17.11-.17-.02-.01-.02-.06-.01-.1.03-.06.06-.09.11-.09.02 0 .03-.03.05-.05.01-.02.04-.06.08-.06 0-.02.03-.07.1-.07.08.04.19.06.3.07.08.01.17.03.22.05l-.13.3-.08-.01s-.07.09-.27.15c-.06 0-.11.05-.16.1s-.1.09-.15.09m-.15-.14l.07.01-.04.07c.1.08.18.04.26-.04.05-.05.1-.1.17-.1.19-.05.26-.15.26-.15l.08.01.13-.28c-.05-.02-.13-.03-.22-.05-.11-.02-.22-.04-.3-.08-.06 0-.08.05-.08.07-.04.01-.07.05-.08.06l.01.02-.04.05c-.07-.01-.1.02-.12.07-.02.04-.02.08 0 .1-.08.01-.09.09-.1.14v.1z"/><path d="M7.26 5c0 .1-.08.18-.18.18s-.19-.07-.19-.18c0-.1.08-.18.18-.18s.19.08.19.18" fill="#91857c"/><path d="M7.07 5.2c-.1 0-.19-.09-.19-.2 0-.21.38-.21.38 0 0 .11-.08.2-.19.2m0-.37c-.09 0-.17.08-.17.17 0 .2.35.2.35 0 0-.09-.08-.17-.18-.17"/><path d="M6.75 6.45c-.11-.02-.3-.14-.32-.29.11-.42.65-.2.7-.51-.01-.21.02-.42.14-.59.05-.07.12-.09.12-.09s.01.05 0 .08c.09-.01.21.04.3.05.02.04.02.06.01.1 0 .03-.04.02-.04.02-.02.02-.05.04-.11.03-.04.03-.14.04-.14.04s.2.21.16.27c.04.02.1.11.1.11s.14-.07.18-.14c.08 0 .21.08.27.09.09.08.17.14.17.14s-.09.06-.13-.02c-.05 0-.16-.11-.3-.08 0 .13-.15.22-.15.22s.13-.02.21.03c.07.06.18.15.18.15l.1.17s-.09.02-.13-.1c-.03.1-.03-.06-.16-.13-.04 0-.06.01-.1-.02-.1.03-.21.08-.35.07-.1.03-.17.11-.27.16s-.13.02-.13.02h-.08c-.01.05 0 .12-.05.14.03.03-.02.16-.07.18.02.08.09.11.16.15 0 0 .06-.03.1.01.04.04.08.14.08.14s-.08.01-.11 0c-.02-.02-.02-.05-.05-.04-.19-.17-.3-.1-.31-.14-.02-.04.04-.15.02-.22" fill="#91857c"/><path d="M7.16 6.85h-.07c-.19-.15-.27-.16-.32-.16l-.03-.03c.09.01.18.02.3.14l.12.05.04-.02c-.01 0-.04-.07-.07-.11.05.05.07.11.07.11l-.04.02zm-.04-.14l-.1-.01c-.09-.05-.14-.08-.16-.15.03-.02.06-.08.07-.13-.01.07-.03.12-.06.13.02.06.07.09.13.12l.08.01c.01.01.03.02.04.03zm-.39-.06a.085.085 0 0 1 0-.07c.01-.04.02-.09.01-.12-.12-.02-.3-.14-.32-.29.06-.23.24-.27.41-.31.15-.03.27-.06.29-.2-.01-.24.03-.44.14-.6a.22.22 0 0 1 .13-.09c.01 0 .01.03.01.05l-.01-.05v.01s-.07.02-.12.08c-.1.16-.15.35-.14.58-.02.16-.15.19-.3.22-.16.04-.34.08-.4.3.02.14.2.26.32.28.02.04 0 .09-.01.13-.01.04-.01.06-.01.08m.36-.41h-.06l.03-.02c.04.01.07 0 .13-.02.04-.02.08-.05.12-.07a.42.42 0 0 1 .14-.09c.13 0 .21-.02.28-.04l.07-.02.1.02c.06.02.1.06.12.1-.04-.03-.07-.07-.12-.09l-.09-.03v.01l-.07.02c-.07.02-.15.05-.24.05-.09.01-.14.04-.18.08-.04.02-.08.05-.13.07-.04.02-.08.03-.1.03m1.09-.01c-.03 0-.06-.01-.09-.05.05.04.08.04.1.04l-.09-.15s-.11-.09-.19-.15a.353.353 0 0 0-.14-.03h-.01c.07-.01.12 0 .16.02.08.07.19.15.19.15l.1.17h-.03m-.42-.37c.02-.04.08-.11.09-.19.14-.01.2.02.24.05l.06.03v-.01l.07.04-.09-.14c-.03 0-.07-.02-.11-.04a.332.332 0 0 0-.16-.05c-.04.06-.17.13-.17.13-.01 0-.07-.09-.11-.11.02-.06-.12-.22-.17-.27.01-.01.1-.02.14-.05.07.01.09-.01.11-.03.04-.06.04-.07.02-.12-.03 0-.07-.01-.12-.02-.05-.01-.1-.03-.15-.03.06-.01.11 0 .16.02.04.01.08.02.12.02.03.05.03.07.02.11-.06.04-.09.06-.13.06a.61.61 0 0 1-.17.04c.03.01.21.2.17.27.04.01.1.09.1.1 0-.01.13-.07.17-.14.05 0 .11.02.17.05.05.02.09.04.11.05l.16.13c0 .02-.11.05-.15-.01 0 0-.03-.02-.06-.03-.04-.02-.1-.06-.17-.06-.03.09-.1.16-.15.2"/><path d="M6.28 5.69c.01-.02.09.01.09.01l.13.08.26.17.09.13-.17-.05-.23-.2-.13-.08s-.05-.05-.04-.06" fill="#91857c"/><path d="M6.87 6.1l-.19-.06-.36-.28c-.02-.02-.05-.06-.04-.08.04 0 .09.01.09.02l.39.25.11.15zm-.57-.42l.39.34.14.04-.08-.1-.45-.28z"/><path d="M7.84 6.12c-.09-.03-.32.25-.32.25l.17.18s.01-.31.15-.43" fill="#91857c"/><path d="M7.7 6.57l-.18-.2c.01-.02.21-.26.31-.26 0 0 0 .01-.01.01-.1.03-.29.25-.29.26l.15.16c0-.06.02-.25.1-.37-.08.14-.08.38-.08.38v.02z"/><path d="M6.73 5.36c-.05.06-.05.19.01.24.01.08.07.23.12.25.06.02.29.07.38.05-.02.14.1.26.2.34 0 .01 0 .03.01.04.01.02.06.02.07.01.02.03.14.05.15.03.01-.01-.17-.14-.21-.18-.03-.06-.1-.21-.11-.32-.1-.1-.25-.1-.25-.1v-.21l.01-.23-.08-.04s.02-.01.03-.02c.02.01.06-.03.06-.04.02.01.04.01.04 0s.01-.05.01-.07c.06-.05-.01-.17-.1-.17-.09 0-.12.11-.11.12.01.04.01.05 0 .06-.02.01-.05.03-.05.03s-.05-.03-.12 0c-.06.03-.14.06-.14.1-.03 0-.08.04-.09.07-.03 0-.06.02-.11.1-.1.04-.1.25-.1.25s-.03.05-.03.07c0 .02.01.04.02.04 0 .01.02.03.03.02 0 .01.02.02.03.02 0 .01.04.01.04 0v-.06s.04.02.04.01c.01-.01 0-.03-.01-.04 0-.01-.03-.02-.04-.05.01-.03.04-.07.04-.07s.11-.08.12-.16c.08.01.12-.06.14-.09" fill="#91857c"/><path d="M7.64 6.34c-.03 0-.11-.01-.13-.04.04.02.1.03.13.03v.01l.02-.02c-.01-.01-.08-.06-.13-.1-.03-.03-.07-.05-.08-.07-.01-.02-.1-.19-.12-.32-.08-.1-.23-.1-.23-.1v-.45l-.08-.03v-.01l.15-.14c.02-.02.03-.05.01-.08-.01-.04-.06-.08-.11-.08a.09.09 0 0 0-.07.03c-.03.03-.04.08-.04.08l-.05.1h-.12v.01c-.06.02-.13.06-.13.1-.03 0-.08.03-.08.06-.04.01-.08.04-.12.11-.1.04-.1.25-.1.25l-.01.04v-.04h-.01c0-.01.01-.21.11-.26.05-.07.08-.11.11-.11.01-.03.06-.07.09-.07 0-.04.07-.08.14-.1l.12.01v-.01l.04-.08c0-.01.01-.05.03-.09a.09.09 0 0 1 .08-.04c.06 0 .11.05.13.09.02.03.01.07-.02.09l-.03.08c-.02 0-.06.04-.08.04l.05.04v.45c.01-.01.15 0 .24.1.02.14.1.3.11.32.01.01.05.04.08.07.12.09.14.11.13.12l-.03.01zm-.46-.43c-.13 0-.27-.03-.32-.05-.05-.02-.12-.18-.12-.26-.06-.04-.06-.13-.04-.2-.02.03-.06.06-.1.06-.02.07-.12.15-.13.15 0 0-.02.04-.01.07l.04.1-.08.05-.07-.06.05.04.05-.06c-.01-.1.01-.14.01-.15 0 0 .11-.09.12-.15.08-.01.11-.05.14-.08v.01c0-.01.01-.01.01-.02-.01.01-.01.02-.02.03-.02.06-.02.16.04.21.01.09.07.23.12.25.05.01.23.05.33.05v.01h-.02z"/><path d="M6.55 5.06C6.57 5 6.66 5 6.66 5s.03-.08.15-.03c.04-.03.16.02.16.02s.04-.06.1-.05c.11.01.13.1.12.12-.06.02-.16-.05-.24-.03-.04.03-.11.05-.14.09-.07.01-.15-.07-.26-.06" fill="#91857c"/><path d="M6.8 5.13c-.03 0-.06-.01-.1-.02a.241.241 0 0 0-.15-.04v-.01c.06-.01.11.01.15.03.04.01.07.03.1.03v.01l.01-.02c.01-.02.06-.05.1-.07l.08-.03c.03 0 .07.01.1.02s.06.02.08.02c-.02-.08-.04-.11-.1-.11-.07.01-.1.05-.1.05-.01 0-.07-.02-.12-.02h-.12c-.06 0-.07.04-.07.04-.03 0-.09.01-.11.05.02-.06.08-.06.1-.06 0 0 .06-.08.16-.03.09-.01.15.01.16.01 0 0 .04-.05.09-.05.07.01.1.04.12.07l.02.07c-.05.01-.08 0-.11-.01a.355.355 0 0 0-.1-.02l-.07.02c-.04.02-.09.04-.1.07H6.8z"/><path d="M6.77 5.16c.03-.02.09-.05.14-.01.05.05.12.1.12.1l.08.03.03.02-.02.37c-.08-.07-.15-.09-.2-.18-.03-.04-.01-.13-.06-.19-.05-.06-.1-.1-.09-.14" fill="#91857c"/><path d="M7.12 5.69l-.01-.01c-.03-.03-.06-.05-.08-.07-.04-.03-.08-.06-.12-.11-.01-.02-.01-.05-.02-.08 0-.04-.01-.08-.03-.12-.07-.09-.1-.12-.09-.15.01-.01.05-.03.09-.03.01.01.02.02.04.03-.07-.01-.1 0-.13.01 0 .02.02.05.06.09.07.08.07.13.08.17 0 .03.01.05.02.07.03.05.06.08.11.11.02.02.05.04.08.06l.01-.12.01.13-.02.02z"/><path d="M6.97 5.27s.04-.01.05 0c.01.01.03.01.03.02.02 0 .03.01.03.02.01 0 .02.03.02.03l-.01.03s-.02-.02-.02-.03c-.01-.01-.03-.01-.04-.03-.02 0-.03-.01-.03-.02-.02 0-.03-.02-.03-.02" fill="#91857c"/><path d="M7.33 5.02c-.03-.03-.07 0-.07 0l-.11.2-.06.03v.15l.04.15-.01.11s.06-.05.06-.08c.01-.03-.02-.12-.02-.12s-.03-.06.01-.17c.04-.11.13-.2.16-.27" fill="#91857c"/><path d="M7.11 5.68l.02-.13-.05-.14v-.16l.05-.04.12-.2.07.01c0 .04-.02.07-.05.11-.04.05-.07.1-.1.16-.04.1-.01.16-.01.16 0 .01.03.1.02.13 0 .03-.06.09-.06.09l-.01.01zm.21-.66l-.17.2-.05.19.04.14-.01.09c.02-.02.04-.04.04-.06 0-.02-.01-.09-.02-.12 0 0-.03-.06.01-.17.02-.06.06-.11.1-.16.02-.04.05-.08.06-.11"/><path d="M7.61 5.2s-.18.26-.47.35c-.08.01-.05-.2-.05-.2l-.02.01s-.05.2.06.21c.29-.06.51-.37.51-.37h-.03z" fill="#91857c"/><path d="M7.13 5.57l-.06-.02c-.04-.06-.01-.19-.01-.19.01.01.01.01.01.02-.01.04-.01.12.02.16l.04.03v-.02c.2-.04.36-.19.45-.29-.07.11-.24.27-.45.31zm.01-.02c-.01-.01-.02-.01-.03-.02.31-.09.49-.33.49-.34.01 0 .01.02 0 .04-.07.08-.23.25-.46.32"/><path d="M7.73 6.66s-.03.02-.06 0c-.02-.04-.07-.04-.07-.04s-.04-.1-.09-.07c0-.05-.06-.02-.06-.02s0-.07-.07-.06c.03-.08-.08-.08-.08-.08s0-.09-.16-.07c.35-.16.63.25.63.25l-.04.09z" fill="#91857c"/><path d="M7.66 6.67a.1.1 0 0 0-.06-.05c-.01 0-.03-.05-.06-.06h-.01l-.09-.03h-.01l-.05-.06c-.03-.07-.08-.07-.08-.07-.06-.07-.1-.08-.17-.07.35-.17.63.23.63.24.01.01-.2-.27-.47-.27-.05 0-.1.01-.16.04.07-.03.12-.02.15 0 .02.05.08.04.1.08l.12.1c.08.03.1.09.1.09s.05.01.06.06h.07-.07z"/><path d="M7.89 6.7s.08.09.12.09c.04 0 .05-.09.05-.09s.02.04.04.03c0 .03.03.03.03.03s-.08.17-.29.01l.05-.07z" fill="#91857c"/><path d="M8 6.85c-.05 0-.1-.02-.17-.07.08.04.14.07.2.05.06-.01.08-.07.08-.07l-.04-.05c0 .02-.01.09-.05.09s-.12-.08-.13-.09l.01-.02c.02.02.1.08.12.09.03 0 .04-.06.04-.08h.02v.01l.06.06s-.03.06-.09.08H8"/><path d="M7.26 6.73l-.03.12s-.04.03-.03.04c.01.01.07-.01.07-.01s.09-.01.12-.04c.02.04.06.05.06.05v-.03h.04s.01-.04-.02-.05c0-.02.02-.05-.03-.04-.03.03-.11.07-.13.05-.02-.01.08-.05.06-.11l-.11.02z" fill="#91857c"/><path d="M7.2 6.89l.05-.16h.01l-.02.12c.06.02.13 0 .15-.02l.05.04.02-.06.03.05c-.01.01-.03.02-.04.02l.01.01h-.01c-.03 0-.04-.01-.05-.04-.03.02-.12.03-.12.03l-.08.01zM5.45 6.45l.12-.03-.02-.05c0-.01-.01-.02-.01-.02h-.03v-.01l.1-.02v.01c-.01 0-.02.01-.02.01s-.01.01-.01.02v.02l.01.05.08-.03c.01 0 .03-.01.03-.01l.01-.01v-.03h.01l.03.13h-.01v-.01c0-.01-.01-.02-.02-.02h-.03l-.2.04c-.01 0-.02.01-.03.01l-.01.01v.03h-.01l-.04-.22.06-.02v.01c-.01.01-.02.01-.02.02-.01 0-.01.01-.01.02v.04l.02.06zm-.08-.52c0-.04.02-.07.05-.1.04-.03.07-.04.12-.04.05 0 .08.02.11.05.03.03.04.07.04.11 0 .04-.02.08-.05.1-.03.03-.07.04-.12.04-.05 0-.09-.02-.12-.06a.169.169 0 0 1-.03-.1m.02 0c0 .03.01.05.03.07.03.02.06.03.11.04.05 0 .09 0 .12-.02.01-.02.02-.04.02-.07a.09.09 0 0 0-.03-.07c-.02-.02-.06-.03-.1-.03-.05 0-.09.01-.12.02-.02.01-.03.03-.03.06m.44-.55l-.03.07-.17.05c0 .01 0 .01-.01.02v.02l.08.02c.02.01.03.01.04.01.01 0 .01-.01.02-.02v-.01h.01l-.05.12h-.01v-.01c.01-.01 0-.02 0-.03 0 0-.01-.01-.03-.02l-.18-.07c-.01 0-.03-.01-.03 0-.01 0-.01.01-.02.02v.01l-.01-.01.04-.1c.01-.03.02-.05.03-.06.01-.01.02-.02.04-.03.02-.01.03-.01.05 0 .02.01.03.02.04.03.01.01.01.04.01.06l.1-.03c.02 0 .04-.01.05-.02 0 0 .01-.01.03-.02zm-.22.15c0-.01 0-.01 0 0 0-.01.01-.01.01-.01.01-.03.01-.05.01-.07a.176.176 0 0 0-.05-.04c-.02-.01-.03-.01-.05 0-.01.01-.03.02-.03.04 0 .01-.01.02-.01.03l.12.05zm.64-1.01l.06.08H6.3c-.02-.01-.03-.02-.05-.03-.02-.01-.05 0-.07.02-.04.02-.05.05-.05.09 0 .03.01.06.03.09l.06.06c.02.02.04.02.07.02.02 0 .04-.01.06-.02l.02-.02c0-.01 0-.02.01-.03l-.05-.08-.02-.02H6.3c-.01 0-.01 0-.02.01v-.01l.1-.07.01.01h-.01c-.02.01-.03.02-.03.03 0 .01.01.01.01.03l.05.08c0 .02-.01.03-.02.04-.02.02-.03.03-.05.04-.05.03-.09.04-.14.03-.03-.02-.06-.04-.08-.07a.09.09 0 0 1-.03-.07c0-.03 0-.07.02-.09a.17.17 0 0 1 .06-.06c.01-.01.02-.01.03-.02.01 0 .02-.01.04-.01.01 0 .01 0 .02-.01v-.01c-.01.01-.01 0-.01-.01zm.5.03l-.12.04v.08s0 .01.01.01h.03v.01l-.1.01v-.01c.01-.01.02-.01.02-.02.01.01.01-.01.02-.04l.04-.27h.01l.17.22c0 .02.01.03.02.03s.02.01.03 0v.01l-.11.03v-.01c.01 0 .02-.01.02-.01v-.01c0-.01-.01-.02-.02-.03l-.02-.04zm-.01-.01l-.09-.1-.01.13.1-.03zm.53 0l-.02.08-.23-.01V4.6h.01c.01 0 .02 0 .03-.01 0 0 .01-.02.01-.03l.01-.2v-.04h-.05v-.01h.14v.01h-.03c-.01 0-.01.01-.01.01v.03l-.03.2v.03s0 .01.01.01h.11c.01 0 .02-.01.03-.02.01-.01.01-.02.02-.04m.41.11l-.05.07-.22-.07v-.01h.04s.01-.01.01-.03l.06-.19c.01-.02.02-.03.01-.03 0-.01-.01-.02-.02-.02H7.5v-.01l.13.04v.01c-.01-.01-.02-.01-.03-.01-.01 0-.01 0-.02.01 0 0-.01.01-.01.03l-.06.18c0 .01-.01.02 0 .03v.01s.01.01.03.01l.02.01c.02.01.04.01.05.01.01 0 .02 0 .03-.01.01-.01.02-.02.04-.03m.32.17l-.1-.07-.04.03c-.01 0-.02.01-.02.02v.01c0 .01.01.01.02.02v.01l-.09-.06.01-.01c.01.01.02.01.02.01.01 0 .03-.01.05-.02l.23-.14h.01l-.06.27c-.01.02-.01.03 0 .04 0 .01.01.02.02.03l-.01.01-.1-.07v-.01c.01.01.02.01.03.01.01 0 .01 0 .01-.01s.01-.02.01-.03L8 4.82zm.01-.02l.03-.13-.12.07.09.06zm.36.07l.05.07-.08.28.14-.11c.02-.01.03-.01.03-.02s0-.02-.01-.03l-.01-.01h.01l.06.08h-.01c-.01-.01-.02-.01-.03-.01-.01 0-.02.01-.03.02l-.2.14h-.01l.08-.31-.15.11c-.01.01-.02.02-.02.03 0 .01 0 .02.01.03l-.01.01-.06-.09h.01l.01.01c.01.01.02.01.03.01.01 0 .02-.01.03-.01l.17-.13v-.03c0-.01 0-.01-.01-.02 0 0-.01-.01 0-.02zm.38.7l-.07.03v-.01c.01 0 .02-.01.02-.01.01-.01.01-.01.01-.02v-.03l-.01-.05-.22.08c-.02.01-.03.01-.03.02v.04h-.01L8.4 5.5h.01v.01c0 .01.01.02.02.02s.02 0 .03-.01l.22-.08-.01-.03c0-.02-.01-.03-.01-.03-.01-.01-.02-.01-.03-.01H8.6v-.01l.07-.02.08.23zm-.24.54v-.08l.14-.11v-.03h-.09c-.02 0-.03 0-.04.01-.01.01-.01.02-.01.03v.01H8.5l-.01-.13h.01v.01c0 .01 0 .02.01.03h.03l.2-.01c.02 0 .03 0 .03-.01.01-.01.01-.02.01-.03v-.01h.02v.18c0 .02-.01.03-.03.04-.01.02-.02.02-.04.02s-.04 0-.05-.01a.163.163 0 0 1-.03-.06l-.09.07c-.01.02-.03.03-.03.04-.01.01-.01.02-.02.04zm.14-.22v.01c0 .03.01.05.02.07.01.01.03.02.05.02.02 0 .03-.01.04-.02.01-.01.02-.03.01-.05 0-.01 0-.02-.01-.03h-.11zm.09.62l-.03.1H8.7V6.6v-.02c0-.01 0-.02-.01-.02l-.02-.02-.09-.1-.08-.02h-.04c-.01 0-.01.01-.02.02v.01h-.01l.03-.12h.01v.04s.01.01.03.01l.07.02.14-.05c.02-.01.03-.01.03-.01l.02-.02s0-.01.01-.01h.01l-.02.12h-.01v-.01-.02c0-.01-.01-.01-.01-.01s-.01 0-.03.01l-.11.03.07.08c.01.02.02.02.03.02h.01s.01 0 .01-.01c0 .01.01 0 .02-.01z"/></svg>