<svg xmlns="http://www.w3.org/2000/svg" viewBox="0 0 58.92 34.37"><path d="M0 0h58.92v17.19H0z"/><path fill="#4f9f3a" d="M0 17.19h58.92v17.19H0z"/><path fill="#bc0030" d="M0 11.46h58.92v11.46H0zM29.46 5.67c-3.22 0-5.95 2.06-6.97 4.93h13.94c-1.02-2.87-3.75-4.93-6.97-4.93M29.46 1.37c-.25 0-.35.37-.35.74 0 .9.11 1.37.35 2.69.23-1.33.34-1.8.34-2.69.01-.36-.09-.74-.34-.74m-1.01.05c-.25.02-.31.4-.28.77.08.89.23 1.35.58 2.65.12-1.34.18-1.82.11-2.71-.04-.37-.17-.73-.41-.71m2.03 0c-.25-.02-.37.34-.4.71-.08.89-.01 1.37.11 2.71.35-1.3.5-1.76.58-2.65.02-.37-.04-.75-.29-.77m-3 .13h-.05c-.24.04-.27.43-.21.79.16.88.35 1.33.81 2.59 0-1.35.03-1.83-.13-2.71-.06-.34-.2-.67-.42-.67m3.96 0c-.22 0-.36.33-.42.68-.16.88-.13 1.36-.13 2.71.46-1.26.65-1.71.8-2.59.07-.37.04-.75-.21-.79 0-.01-.02-.01-.04-.01m-4.96.22c-.01 0-.03 0-.05.01-.23.06-.23.44-.13.8.23.87.46 1.29 1.03 2.51-.12-1.34-.13-1.83-.36-2.69-.1-.33-.27-.65-.49-.63m5.96 0c-.22-.02-.39.3-.48.64-.23.87-.25 1.35-.36 2.69.57-1.22.8-1.65 1.03-2.51.1-.36.1-.74-.14-.81-.02-.01-.04-.01-.05-.01m-6.89.3c-.03 0-.06 0-.09.01-.23.09-.19.47-.07.82.31.84.57 1.25 1.24 2.41-.24-1.33-.29-1.81-.6-2.65-.1-.3-.28-.58-.48-.59m7.82 0c-.2.01-.38.29-.49.59-.31.84-.36 1.32-.6 2.65.67-1.17.93-1.57 1.24-2.41.13-.35.16-.73-.07-.82-.02-.01-.05-.01-.08-.01m-8.76.38c-.03 0-.05.01-.08.02-.23.11-.16.48 0 .82.38.82.68 1.19 1.45 2.29-.35-1.3-.45-1.77-.83-2.59-.14-.28-.34-.55-.54-.54m9.71 0c-.2-.01-.4.26-.54.55-.38.82-.48 1.29-.83 2.59.77-1.1 1.07-1.48 1.45-2.29.16-.34.22-.71 0-.82a.16.16 0 0 0-.08-.03m-10.62.46c-.03.01-.06.01-.08.03-.21.13-.11.49.08.82.45.78.78 1.13 1.64 2.16-.46-1.26-.6-1.73-1.05-2.5-.17-.29-.39-.54-.59-.51m11.48 0c-.19.01-.39.24-.54.5-.45.78-.59 1.24-1.05 2.5.87-1.03 1.19-1.39 1.64-2.16.18-.32.29-.69.07-.82a.43.43 0 0 0-.12-.02m-12.3.54c-.04 0-.08.01-.12.04-.2.14-.07.5.15.81.52.73.87 1.06 1.82 2.01-.57-1.22-.75-1.67-1.26-2.4-.18-.25-.4-.47-.59-.46m13.16 0c-.19-.01-.41.21-.59.46-.52.74-.69 1.18-1.26 2.4.95-.95 1.31-1.28 1.82-2.01.21-.31.35-.67.15-.81-.03-.03-.07-.04-.12-.04m-13.97.61c-.04.01-.08.03-.12.05-.19.16-.02.51.21.79.58.69.96.97 1.99 1.84-.67-1.17-.89-1.6-1.47-2.28-.18-.23-.43-.43-.61-.4m14.74 0c-.18.01-.4.19-.58.4-.58.69-.79 1.12-1.47 2.28 1.03-.86 1.42-1.15 1.99-1.84.24-.29.4-.63.21-.79-.03-.04-.09-.06-.15-.05m-15.45.67c-.06 0-.11.02-.16.07-.17.18.02.51.28.77.63.64 1.05.89 2.15 1.66-.77-1.1-1.03-1.51-1.66-2.15-.2-.2-.44-.36-.61-.35m16.21 0c-.18-.01-.42.15-.61.35-.64.63-.89 1.04-1.66 2.15 1.1-.77 1.51-1.03 2.15-1.66.26-.26.46-.59.28-.77a.213.213 0 0 0-.16-.07m-16.86.74c-.08 0-.15.02-.2.08-.16.19.06.5.35.74.69.58 1.12.79 2.28 1.47-.87-1.03-1.15-1.42-1.84-1.99-.19-.17-.42-.3-.59-.3m17.51 0c-.17.01-.4.13-.6.3-.68.58-.97.96-1.84 1.99 1.17-.67 1.6-.89 2.29-1.47.29-.24.51-.55.35-.74a.27.27 0 0 0-.2-.08m-18.14.79c-.08 0-.14.04-.19.1-.14.2.11.49.41.71.73.52 1.18.69 2.4 1.26-.95-.95-1.27-1.31-2.01-1.82-.2-.15-.44-.26-.61-.25m18.72 0c-.17.01-.38.11-.57.25-.74.52-1.06.87-2.01 1.82 1.22-.57 1.67-.74 2.4-1.26.31-.21.56-.51.42-.71a.247.247 0 0 0-.24-.1m-19.23.84c-.1 0-.18.04-.23.12-.12.21.15.48.47.67.78.45 1.24.59 2.51 1.05-1.03-.87-1.38-1.2-2.16-1.64-.21-.12-.42-.2-.59-.2m19.78 0c-.17 0-.39.08-.59.2-.78.45-1.13.78-2.16 1.64 1.27-.46 1.73-.6 2.51-1.05.32-.19.6-.46.47-.67-.04-.08-.13-.12-.23-.12m-20.16.88c-.15-.01-.27.03-.32.14-.1.23.19.47.53.62.81.38 1.29.48 2.59.83-1.1-.77-1.48-1.07-2.3-1.45-.17-.08-.35-.13-.5-.14m20.54 0c-.15.01-.33.06-.5.14-.81.38-1.19.68-2.3 1.45 1.3-.35 1.77-.45 2.59-.83.34-.16.63-.4.53-.62-.05-.11-.17-.15-.32-.14m-20.94.91c-.15 0-.26.05-.31.17-.08.23.23.45.58.58.84.31 1.32.37 2.65.6-1.17-.67-1.57-.94-2.41-1.24-.18-.06-.36-.11-.51-.11m21.35 0c-.15 0-.33.04-.51.1-.85.31-1.25.57-2.42 1.24 1.33-.23 1.81-.29 2.65-.6.35-.13.67-.34.58-.58-.04-.1-.15-.15-.3-.16m-21.56.95c-.21 0-.37.05-.41.2-.06.24.27.43.63.53.05.01.1.02.15.04h1.84c-.72-.34-1.14-.52-1.81-.7-.13-.05-.27-.07-.4-.07m21.76 0c-.12 0-.26.03-.4.06-.67.18-1.09.36-1.81.7h1.84c.05-.01.1-.02.15-.04.36-.1.7-.29.63-.53-.04-.14-.2-.2-.41-.19"/></svg>