<svg xmlns="http://www.w3.org/2000/svg" viewBox="0 0 58.92 34.37"><path d="M0 0h58.92v34.37H0z"/><path fill="#fff" d="M0 0h58.92v11.82H0z"/><path fill="#317267" d="M0 0h58.92v10.74H0z"/><path fill="#fff" d="M0 22.54h58.92v11.83H0z"/><path fill="#f5e129" d="M0 23.63h58.92v10.74H0z"/><path fill="#c0003b" d="M0 0v34.37l22.56-17.18z"/><path fill="#f5e129" d="M11.71 23.63l-4.19-3.07-4.19 3.07 1.62-4.93-4.21-3.03 5.2.02 1.58-4.95 1.58 4.95 5.19-.03-4.21 3.04z"/><path d="M3.88 20.19H6.9c.24.27.78.39 1.3 0 .95-.52 2.78 0 2.78 0l.36-.38-.88-2.88-.32-.34s-.68-.4-1.96-.27c-1.28.14-1.74-.04-1.74-.04s-1.13.13-1.44.29l-.36.36-.76 3.26z" fill="#fff"/><path d="M7.5 20.47c-.25 0-.49-.1-.63-.26l-2.99.01.73-3.31c.01-.02.34-.35.37-.38.32-.16 1.42-.29 1.46-.3.03 0 .48.18 1.74.04 1.29-.13 1.96.26 1.98.28l.32.34.89 2.9-.37.43c-.04.03-.85-.22-1.67-.22-.47 0-.85.08-1.12.23-.21.15-.46.24-.71.24m-.6-.32c.16.16.37.25.6.25.23 0 .46-.08.68-.24.29-.16.68-.24 1.16-.24.82 0 1.64.23 1.65.23l.33-.37-.89-2.85-.31-.32s-.68-.39-1.93-.26c-1.29.14-1.74-.04-1.75-.04.01 0-1.11.14-1.41.29l-.35.36-.77 3.24 2.99-.05z"/><path d="M7.48 20.47c-.21 0-.42-.08-.63-.23.06-.12.27-.34.67-.53-1.15-.45-3-.23-3.03-.23-.02.01-.04-.01-.04-.03 0-.02.01-.04.03-.04.1-.01 1.95-.23 3.09.27.57-.27 1.48-.47 2.8-.29.02 0 .03.02.03.04s-.02.04-.04.03c-1.3-.18-2.17.02-2.71.26.24.11.43.26.58.45-.26.21-.51.3-.75.3m.12-.73c-.49.23-.69.48-.7.49.41.26.81.25 1.28-.07-.14-.18-.34-.31-.58-.42"/><path d="M7.58 19.74l-.03-3.18h.05zM10.71 19.13l-.6-2.51.06-.02zM4.74 17.91c-.01 0-.01 0 0 0-.03-.01-.04-.03-.04-.05l.3-1.3c0-.02.02-.03.04-.03s.03.02.03.04l-.3 1.3c0 .02-.02.04-.03.04"/><path d="M1.92 20.54l.71.83c.08.05.16.04.23 0l1.05-1.26.44-.55c.07-.08.09-.17.08-.25l.85-.75c.07 0 .11.01.18.02-.08-.02-.14-.06-.08-.15l.19-.15.15.19s-.21.27-.23.27h-.23l-.44.4.19.17.29.8.36-.25-.23-.82.5-.55-.19-.29.13-.17s1.75 1.1 2.42.81c.02.01.04-.78.04-.78s-1.81-.19-1.85-.55c-.04-.36.4-.4.4-.4l-.19-.27.04-.15.31.4.72-.61 4.21 4.8c.23-.09.28-.15.3-.38l-4.13-4.73.32-.34c.06-.07.08-.1.08-.21l.48-.42c.15.05.24.14.32.25l1.33-1.13c.03.04.14.07.21.03l2.2-2.11-2.4 1.69-.08-.06c0-.07.09-.09 0-.21-.09-.11-.23.11-.25.11-.02 0-.35-.12-.42-.26l-.02.39-.61.55-.46-.02-.67.65-.08.25.1.21s-.36.31-.36.29c0-.02-.07-.09-.08-.1l.31-.28.04-.19-.1-.15c-.03.02-.42.44-.44.39-.03-.04-1.14-1.29-1.14-1.29l.06-.23-.72-.78c-.26-.09-.67-.1-.76.46-.06.14-.6.03-.6.03l-.3.07-1.66 2.35.93 1.12 1.89-2.4.06-.68.4.44c.13.02.26.02.38-.04l1.12 1.25-.19.18c.06.07.11.11.17.18.06-.04.12-.09.19-.14.02.03.06.08.08.11-.1.05-.16.12-.26.17-.15-.1-.3-.22-.28-.42l-.63.53-.02.1-1.88 1.58-.17.02-.04.49 1.22-1.01v-.15l.13.1.95-.76s.06.08.04.08-.84.76-.84.76l-.02.08-.15.13-.08-.06-1.14 1.01h-.18l-.63.63c-.16.01-.3.03-.44.13l-1.13 1z"/><path d="M2.74 21.44c-.04 0-.09-.01-.14-.04l-.72-.84 1.13-1.05c.15-.1.28-.12.46-.14l.61-.62.19-.01 1.11-1 .13.06.11-.19c.64-.59.8-.74.85-.77-.02 0-.03-.02-.05-.04l-.9.76-.17-.11.06.12-1.23 1.04.01-.51.2-.05 1.85-1.55.01-.08.64-.55c.05.21.18.32.33.41.01-.03.05-.06.09-.09.04-.03.08-.06.13-.09h-.05l-.17.1-.22-.19.19-.23-1.12-1.2c-.05.07-.21.07-.36.05l-.42-.46.01.66-1.9 2.42-.98-1.11 1.66-2.4.32-.08c.02 0 .23.04.4.04.15 0 .18-.03.19-.04.1-.67.61-.55.8-.48l.73.79-.06.26c.02 0 1.09 1.21 1.13 1.25.02-.02.22-.22.3-.31.05-.05.09-.08.09-.09l.11.12.04-.13.68-.67.49.01.58-.56.01-.36c.13.11.43.22.46.23.05-.07.11-.14.19-.14.01 0 .08.04.09.04.07.09.05.15.02.19l.05.07 2.36-1.69c.01-.01.03-.01.05.01.01.01.01.03 0 .05l-2.2 2.11c-.1.06-.21.02-.26-.03l-1.28 1.13c-.14-.13-.23-.2-.35-.25l-.45.41c.01.09-.01.13-.08.21l-.32.34c.04 0 4.09 4.65 4.12 4.69-.01.28-.07.34-.31.44l-4.25-4.81-.66.61-.37-.4.02.14.18.24c-.03.06-.24.08-.34.21-.05.06-.06.13-.05.21.03.24 1.13.44 1.82.52.01.85 0 .85-.04.85-.07.03-.17.05-.28.05-.78 0-2.11-.83-2.16-.86l-.08.16.19.25-.51.59.24.79-.37.29-.34-.81-.18-.16.44-.45.25-.01c.01-.01.11-.14.2-.26l-.14-.15-.14.15c-.01.05 0 .07.07.09.02 0 .03.02.03.04s-.02.03-.04.03l-.18-.02-.82.74c.02.04.01.15-.08.25L2.9 21.39c-.07.04-.11.05-.16.05m2.67-3.64l-1.09 1.01-.19.01-.61.62c-.19.02-.32.04-.45.13l-1.13 1 .71.78c.05.03.12.03.18-.01l1.49-1.8c.07-.09.08-.17.08-.23l.86-.78h.07v-.01c-.01-.03 0-.08.03-.12l.2-.15.2.2c-.22.33-.24.33-.26.33h-.24l-.42.39.19.12.3.81.3-.27-.25-.78.51-.58-.19-.25.14-.22c.06 0 1.41.84 2.17.84.1 0 .19-.02.26-.05 0-.03.01-.48.02-.75-.15.02-1.81-.17-1.85-.54-.01-.1.01-.19.07-.26.12-.15.35-.17.36-.17l-.22-.22.04-.18.38.39.66-.61 4.26 4.8c.18-.1.22-.15.23-.35-.02-.01-.34-.37-4.12-4.71l.32-.38c.06-.06.07-.09.07-.19l.51-.47c.17.04.28.12.37.26l1.28-1.14c.06.02.11.04.16.04l1.88-1.77-1.98 1.4-.13-.06c-.01-.01 0-.09.01-.1.02-.03.03-.05-.02-.12-.08-.02-.13.05-.16.08a.21.21 0 0 1-.06.04c-.04 0-.37-.12-.45-.28l.04.37-.62.59-.49-.01-.64.65-.07.24.1.18c-.35.35-.37.35-.39.35-.04-.04-.07-.07-.08-.09-.01-.01-.03-.07-.02-.08l.31-.27.01-.1-.07-.17c-.01.02-.03.03-.05.05-.25.25-.33.32-.38.32-.07-.05-1.17-1.3-1.17-1.3l.06-.26-.71-.74c-.05-.01-.14-.04-.24-.04-.26 0-.41.16-.46.48-.03.07-.11.1-.25.1-.18 0-.39-.04-.4-.05l-.28.06-1.64 2.34.92 1.07 1.84-2.4.05-.66.46.42c.02-.01.07 0 .11 0 .08 0 .16-.01.22-.05l1.16 1.26-.19.23.09.04.08.09.05-.07.11-.05c.01-.01.07.04.08.06l.04.06c-.06.08-.1.11-.14.14-.04.03-.08.06-.13.09-.19-.1-.35-.24-.34-.45l-.57.56v.07l-1.89 1.58-.19.03-.01.45 1.16-1.04-.01-.12.18.08.9-.76c.12.09.11.11.1.13-.06.04-.54.48-.85.77l-.01.07-.16.15-.11-.07zm2.69-2.38l-.01.04-.32.3c.06.02.08.04.09.06 0-.05.16-.19.3-.31l-.06-.09z"/></svg>