<svg xmlns="http://www.w3.org/2000/svg" xmlns:xlink="http://www.w3.org/1999/xlink" viewBox="0 0 58.93 34.37"><defs><path id="a" d="M0 0h58.93v34.37H0z"/></defs><clipPath id="b"><use xlink:href="#a" overflow="visible"/></clipPath><path clip-path="url(#b)" fill="#1f357e" d="M0 0v34.37L58.93 0z"/><path clip-path="url(#b)" fill="#3d9546" d="M58.93 0L0 34.37h58.93z"/><path transform="rotate(59.743 29.461 17.186)" clip-path="url(#b)" fill="#fff" d="M23.34-16.92h12.25V51.3H23.34z"/><path transform="rotate(59.743 29.462 17.187)" clip-path="url(#b)" fill="#c0003b" d="M24.87-16.92h9.19V51.3h-9.19z"/><path clip-path="url(#b)" fill="#f5cd28" d="M17.4 12.32l-2.53-.44.43 2.53-1.98-1.64-.88 2.41-.89-2.41-1.98 1.64.44-2.53-2.54.44 1.65-1.98-2.41-.89 2.41-.89-1.65-1.97 2.54.43-.44-2.53 1.98 1.64.89-2.41.88 2.41 1.98-1.64-.43 2.53 2.53-.43-1.64 1.97 2.4.89-2.4.89z"/><path d="M15.87 9.45a3.44 3.44 0 1 1-3.44-3.44c1.9.01 3.44 1.55 3.44 3.44" clip-path="url(#b)" fill="#1f357e"/><path d="M15.3 9.45c0 1.58-1.28 2.87-2.87 2.87s-2.86-1.28-2.86-2.87c0-1.58 1.28-2.86 2.86-2.86s2.87 1.28 2.87 2.86" clip-path="url(#b)" fill="#f5cd28"/></svg>