<svg xmlns="http://www.w3.org/2000/svg" viewBox="0 0 58.92 34.37"><path fill="#fff" d="M17.93 0h23.06v34.37H17.93z"/><path d="M29.44 3.79l-.15 1.68c-.19.03-.38.06-.57.08 0 0 .39.22.46.45.01.04.01.07-.01.09-.01.01-.01.02-.02.02-.11.09-.45.04-.45.04s.44.38.48.52v.03c0 .01-.01.01-.02.02-.1.1-.6.12-.6.12s.55.39.58.61c.03.2 0 .32 0 .34-.04-.03-.92-.78-1.49-.56-.03.01-.05.03-.05.04v.02c.04.12.84.25 1.4.74-.01.12-1.6-.39-1.66-.07.05.09 1.7.33 1.83.55-.61.02-1.87-.14-1.83.07-.13.23 1.19.1 1.74.29.16.18.15.34-.14.36-.53-.26-1.73-.44-1.73-.12 0 0 .01 0 .01.01.13.07 1.25.04 1.66.31-.59.14-2.6-.27-2.62-.07.06.09.38.5.92.48.55-.02 1.81.22 1.9.39v.02c-.04.12-1.67-.36-2.29-.07-.65.31 1.86.12 2.27.5.41.38-.82-.03-.82-.03s-1.71-.24-1.96-.12c-.26.12-.55.39-.55.39s.17.34.34.28c.02-.01.04-.01.05-.01v.01c.01.05-.12.2-.12.2s2.39.58 2.92 1.1c.53.51-3.04-.8-3.04-.8s-1.44.53.09.56c-.17.25.07.4.09.41 0 0 2.53.53 2.79.94.26.41-1.73-.4-2.17-.62-.43-.21-1.62.11-1.69.21v.02c.08.08.61.2.63.35 0 .01 0 .02-.01.03-.07.13-.7.19-.73.31v.01c0 .14 3.2.8 4.05 1.52.86.72-2.51-.86-2.51-.86s.19.26 0 .33-.86-.96-1.95-.33c-.2.26.96.47 1.25.5-.1.26-.19.34.22.6.04.03.07.04.08.05-.06-.01-.8-.39-.88-.4h-.01c0 .03.09.45.09.45-.38-.31-.84-.4-1.27-.09 0 .02 0 .31.43.49-.24.5.28.34 1.1.8-1.22-.32-1.32.27-.45.41.87.14 3.27.22 3.83.96.12.15.15.23.13.26-.09.09-.96-.54-1.09-.57 0 0 0 .01-.01.01-.03.07-.06.36-.06.36-.36-.21-.7-.4-1.14-.49-.04.07-.03.17-.06.23-.4-.28-.74-.48-1.32-.51-.02.09-.05.18-.07.28 0 0-.48-.6-1.42 0-.52.38 1.98.14 2.39.58.41.45.09.51.09.51-.34-.12-.68-.25-1.03-.38 0 0-1.21-.22-1.56.05-.34.27 4.99.94 5.15 1.67.1.4-1.25-.42-2.43-.77-.04.13-.09.26-.14.39-.03-.03-.48-.47-.99-.55 0 .06.1.46.1.46s-1.31-.61-1.98-.29c-.67.32 2.32.49 2.6.8.03.03.04.06.04.07v.01c-.07.1-.96-.26-1.05-.08-.1.21-1.56-.38-1.54-.1.02.27.21.43.21.43s3.03.29 3.13.65c.1.36-1.67-.21-1.67-.21s-.17.26-.04.38c0 .01.01.01.01.01-.06-.02-1.02-.65-.93-.17-.38-.15-1.35-.62-1.21-.26.13.35 2.67.86 2.75.87-.07.01-1.14.1-1.09.38-1.44-.88-1.43-.35-1.4-.31-.08-.01-1.85-.45-.44.31.75.41.94.57.94.63v.01c-.03.02-.1.01-.12.01.02.03.13.33.13.38v.01c-.06-.02-.99-.52-1.31-.55-.33-.04-1.87.43-.22 1.15 1.64.72 2.65-.17 3.56-.07.91.1 1.33.26 1.25.55-.09.29-.93-.95-1.81.12-1.01-.2-1.69-.31-1.17.43-1.64-.61-2.65.19-.58.51 2.03.06 3.28-.5 3.28-.5s.34.63.84.19c.47-.42.51.12.53.17.04-.01.48-.21.48-.21h.12v4.1c.55.01 1.11.01 1.66.02 0 0-.53-3.57-.24-4.05.28-.46.55-.41.57-.41 0 0 1.08.32 1.2.27l.01-.01c.09-.08 0-.4.55-.35.17-.06.1-.33.21-.4h.01s.01 0 .01-.01h.02c.17-.02 3.47.92 4.19.03-.19-.5-.84-.04-1.01-.02-.15 0-.8-.31-1.18 0-.34-.26-1.9-.43-1.9-.43-.2-.21 3.71.1 3.93-.05.46-.46-.86-.41-1.06-.26-.37-.22-.82-.21-1.1-.05-.13-.32-1.4-.18-2.11-.27-.23-.13-.19-.21-.03-.29 1.47.07 2.94.26 4.43.19.4-.52-.51-.72-1.06-.28-.33-.53-.99-.02-1.44-.07-.44-.05-.24-.6.33-.51.56.08 1.57-.04 1.76-.29.19-.26-.11-.52-1.04-.27-.31-.31-1.01 0-1.33.1-.43-.24-1.44-.03-1.78.05-.34-.21 1.76-.55 1.76-.55.81-.01 1.26-.15 1.52-.22 1.22-.65-.02-.73-.66-.25-.4-.31-.78.03-1.14.15-.34.11-.96.19-1.04.16.05-.08.97-.64.97-.64s1.2-.09 1.44-.12c.15-.02.66-.26.66-.35 0-.05-.22-.05-.86.11-.58.05-.92.02-1.14.04-.36-.04-.51-.07-.54-.11 0 0-.01 0-.01-.01s0-.01.01-.02l.01-.01c.09-.07.65-.12.65-.12s1.73-.16 1.84-.25c.04-.71-1.46-.38-1.51-.38 0-.5-1.36-.01-1.42 0a.164.164 0 0 1-.09-.1c0-.01 0-.03.01-.04.03-.1.24-.18.24-.18.38-.09.94-.12 1.09-.24 0 0 1.06-.01 1.19-.29-.26-.72-2.25.13-2.51.26-.05 0-.09-.01-.1-.04-.09-.13.34-.55.36-.56.07-.02 1.65-.1 2.41-1.13.05-.64-.9.36-.9.36-.07-.82-1.04.05-1.61.12-.56.07-.58-.26-.19-.31.39-.05.84-.02 1.06-.62.22-.6.89.03 1.01-.19s-.22-.4-.24-.41c0 0 .5-.52-.31-.5-.8.02-1.83-.1-1.85-.1.05-.02.86-.33 1.62-.31.79.02.36-.56-.39-.56s-1.14-.26-1.14-.26c.43-.16.86-.32 1.28-.48-.03-.12-.06-.24-.08-.36 0 0 .75-.6-.31-.46-1.06.14-1.18.15-1.18.15s-2.09.32-2.14.32c-.02 0-.23-.07-.26-.15 0 0 0-.01-.01-.01v-.01-.01c.01-.04.07-.09.24-.13.55-.14 2.48-.53 2.77-.43.04.01.07.01.08 0 .11-.1-.25-.73-1.14-.82-1.03-.1-1.66.26-1.66.26s-.67-.24-.05-.45c.62-.2 1.59.07 1.59.07s1.09-.33.19-.46c-.91-.14-1.19.12-1.61.14-.17-.21 1.42-.26 1.52-.43-.17-.31-1.15 0-1.73 0-.24-.1-.26-.27.02-.38.59-.02 1.14.01 1.73-.01-.02-.31 0-.68-.02-1-.74-.14-1.62.1-2.04.08.11-.34 1.72-.43 1.9-.52.37-.46-1.54-.01-1.59 0-.34-.05-.32-.26-.1-.39.49-.06 1.61.07 1.52-.26-.06-.32-.77-.15-1.06-.08-.29.07-.72.02-.72.02-.19-.25 1.68-.15 1.66-.34-.02-.22-1.18-.07-1.57-.05-.3-.21 1.42-.35 1.5-.38.06-.57-1.2 0-1.44 0-.04 0-.07-.01-.09-.03-.01 0-.01-.01-.02-.02-.08-.1-.01-.32-.01-.32s.45-.2.48-.25c0 0 0-.01-.01-.01-.05-.04-.36-.15-.4-.15-.02-.05.01-.39.01-.39s.36-.27.38-.37v.06h-.01c-.09-.04-.46.08-.46.08v-.35s.33-.04.36-.19v-.02-.01C30 5.71 30 5.71 30 5.7c-.07-.1-.38-.11-.38-.11l-.18-1.8m-.3 5.86v.23s-.38-.02-.45-.08v-.01-.01s0-.01.01-.01l.01-.01c.12-.09.37-.09.43-.11-.01.01-.01.01 0 0zm.54.32c.01 0 .77.01.83.11v.03c-.06.12-.82.2-.82.2l-.01-.34zm-.04.46c.05.01.36.02.4.07-.07.08-.35.1-.37.1-.01 0-.03-.17-.03-.17m-2.29.62c.25-.01.73.04 1.65.3 0 .02.02.26.01.29-.01-.01-1.66-.48-1.81-.47h-.01-.01s-.01 0-.01-.01h-.01c-.01 0-.01-.01-.01-.01v-.01c0-.01.01-.01.01-.02.01-.04.07-.06.19-.07m.86.7c.26-.01.89.14.92.14 0 .05.03.29 0 .34-.05-.01-.98-.31-1.02-.43v-.01c0-.01 0-.01.01-.01 0-.02.04-.03.09-.03m2.58.65c.25 0 .43.02.36.09-.18.21-1.42.38-1.42.38l-.02-.38c.03 0 .66-.08 1.08-.09m-3.54 1.18c.21-.01.7.1 1.79.57l.01.27s-1.85-.56-1.91-.65c-.04-.05-.09-.18.11-.19m3.62.41c.06 0 .1 0 .11.02v.02c0 .01-.01.02-.02.03-.17.19-1.09.39-1.09.39v-.25c.05-.02.72-.2 1-.21m-4.05.03c.27-.02.9.13 2.29.79 0 .01.01.23.01.26-.08-.03-2.51-.88-2.51-.88-.01-.01-.04-.16.21-.17m4.62 1.07c.07 0 .12 0 .13.02v.01c0 .01-.01.02-.02.03-.22.2-1.62.44-1.67.44-.01-.05.02-.21.02-.23.09-.02 1.16-.26 1.54-.27m-4.13.62c.42-.02 1.69.56 1.75.58-.01.03-.01.24-.01.27-.03-.02-1.77-.74-1.85-.68-.05-.12 0-.16.11-.17m3.74.15c.09 0 .15 0 .17.01l.01.01s0 .01-.01.01c-.13.11-1.32.35-1.32.35l-.01-.24c.03-.01.8-.12 1.16-.14m-.1.77c.08 0 .14 0 .16.02v.01h-.01c-.13.12-1.14.34-1.14.34s-.03-.24-.03-.25c.03 0 .71-.11 1.02-.12m-4.28.06c.25-.02.85.08 2.35.63l.05.29s-2.49-.8-2.56-.83v-.01c0-.01.01-.02.01-.03.02-.02.06-.04.15-.05m3.29.64c.03.01.45.02.52.08v.01c-.07.1-.5.14-.5.14s-.01-.17-.02-.23m1.01.57c.1 0 .17.01.18.04.01.02-.01.05-.05.09-.36.29-1.14.35-1.14.35v-.32c.04-.02.68-.15 1.01-.16m.99.3c.12 0 .18.02.19.05v.03c0 .04-.05.08-.08.11-.12.11-2.06.73-2.06.73s-.02-.41-.01-.45c1.15-.35 1.7-.46 1.96-.47m-1.25 1.15c.12-.01.22 0 .25.03l.01.01v.02c0 .01 0 .01-.01.02-.17.16-.97.19-.97.19v-.2c.14-.01.48-.06.72-.07m.8.34c.04 0 .06.01.07.01v.01c0 .01-.01.02-.04.04-.32.23-1.53.46-1.53.46s.02-.16.02-.2c.03 0 1.19-.32 1.48-.32m.68.25c.14 0 .25.02.31.07-.01.04-.1.25-.42.34-.4-.04-2.09.46-2.12.47 0-.03.02-.2.02-.2.6-.35 1.65-.68 2.21-.68m-4.32.98h.01c.73.08 1 .35 1.08.46-.14.26-1.3-.32-1.18-.44.01-.01.04-.02.09-.02m4.18.05c.03 0 .06 0 .07.02.01.01.02.01.02.02.01.01.01.03.01.04-.08.12-.47.07-.49.07.03-.01.25-.15.39-.15m-1.56.79c.05 0 .1 0 .12.02l.01.01v.01c0 .02 0 .03-.01.06-.11.22-.62.13-.62.13v-.15c.05.01.32-.07.5-.08m-2.95.57c.15-.01.29.09.43.17.32-.06.96.05.96.05v.29c-.06.01-.82-.02-.99-.13-.14 0-.53-.21-.56-.31v-.01c.05-.04.11-.06.16-.06m3.31.14c.12-.01.17.03.08.16-.26.37-.93.22-.93.22l-.03-.23c.24.01.67-.14.88-.15m-2.49.74c.27-.01.56.1.56.1.01.01.14.29.02.38 0 0-.01.01-.02.01-.15.08-.87-.06-.91-.35.09-.1.22-.13.35-.14m-2.78.14c.25-.01.52.14.55.15l-.01.28s-.49-.14-.64-.41c.03-.01.07-.02.1-.02m4.69.04c.27 0 .6.06.65.16.01.02.01.04-.01.06-.14.16-.91.02-.91.02v-.2c.08-.03.17-.04.27-.04" fill="#337b40"/><path d="M30.38 29.42l-1.66-.02-.04-4.14-.08.04c.01 0-.43.2-.47.21l-.05-.07c-.04-.2-.17-.38-.46-.11-.13.11-.25.17-.38.17-.31 0-.5-.34-.52-.36 0 .04-1.27.58-3.25.51-.77-.12-1.22-.32-1.2-.55.01-.16.27-.26.66-.26.24 0 .63.04 1.13.23-.21-.18-.26-.34-.21-.45.1-.2.6-.13 1.37.02.22-.29.49-.45.79-.45.3 0 .56.15.75.27.09.05.17.1.21.1.04-.08.03-.13 0-.17-.1-.16-.48-.27-1.2-.35-.32-.04-.65.05-1.01.15-.71.19-1.65.32-2.56-.08-.55-.24-.81-.48-.76-.72.07-.32.71-.5.96-.5.29.03.87.32 1.19.47.1.05.16.08.18.08-.04-.02-.14-.3-.16-.34l.05-.06.11.02-.03-.02c0-.02-.08-.14-.92-.59-.52-.28-.58-.38-.56-.44.02-.07.11-.07.18-.07.22 0 .61.09.78.12l.01.01c0-.03.01-.05.02-.08.03-.05.09-.11.24-.11.24 0 .63.16 1.16.48 0-.02.01-.03.02-.05.12-.16.56-.24.86-.28-.65-.13-2.42-.53-2.54-.85-.02-.06-.02-.1 0-.13.1-.14.66.09 1.06.26l.2.08c-.07-.03-.06-.09-.02-.13.13-.15.65.13.88.26l.06.03c-.17-.1 0-.35.01-.36.04.01 1.07.31 1.5.31.12 0 .16-.02.17-.04-.07-.28-1.93-.55-3.09-.66a.65.65 0 0 1-.24-.46c0-.01.02-.06.02-.07.08-.09.41-.02.79.07.35.08.71.12.73.08.06-.11.38-.05.67.02.14.03.28.07.35.07-.12-.16-.78-.28-1.36-.38-.82-.14-1.33-.23-1.35-.39-.01-.07.09-.12.12-.14.13-.07.3-.1.5-.1.65 0 1.43.35 1.51.39-.07-.04-.15-.36-.15-.42.57.04 1.04.49 1.06.51l.08-.38c.51.12 1 .33 1.43.51.42.18.79.34.94.34l.05-.06c-.09-.41-2-.83-3.4-1.13-1.25-.27-1.73-.39-1.76-.51 0-.01.02-.06.03-.07.12-.1.35-.15.68-.15.43 0 .9.08.91.09l1.03.38s.05-.02.07-.08c.01-.05.01-.16-.19-.38-.2-.21-.93-.26-1.53-.3-.6-.04-.91-.07-.95-.19-.02-.07.06-.12.08-.14.28-.18.56-.27.81-.27.43 0 .65.27.66.28l-.03-.12.03-.14c.63 0 .99.22 1.35.48-.01-.02-.01-.04 0-.07.01-.04.01-.09.03-.13.49.07.84.27 1.18.47-.04-.04-.01-.27.02-.34.1-.02.23.05.44.19.24.15.56.35.66.35 0 0-.01-.05-.13-.21-.44-.58-2.05-.75-3.12-.86-.27-.03-.51-.05-.68-.08-.37-.06-.62-.21-.61-.37.02-.18.33-.25.79-.17-.19-.09-.36-.14-.49-.19-.22-.07-.37-.12-.41-.24-.03-.07-.02-.17.05-.3-.45-.15-.43-.48-.43-.48.43-.35.9-.29 1.32.06-.08-.07-.14-.38-.14-.41.09-.03.25.05.52.17.03.02.07.03.1.05-.16-.15-.13-.25-.06-.43l.02-.07c-.15.03-1.15-.12-1.26-.37a.13.13 0 0 1 .02-.13c.25-.15.5-.22.73-.22.45 0 .78.24 1 .4.1.07.18.13.22.13.04-.01.06-.03.06-.05.02-.07-.05-.18-.07-.22-.01-.01-.01-.03 0-.05.01-.01.03-.02.04-.01.02.01 2.23 1.04 2.58 1.04.02.01 0-.03-.11-.12-.55-.46-2.09-.9-3.1-1.2-.85-.24-.97-.29-.97-.35.02-.1.16-.14.38-.2.14-.04.33-.09.35-.14-.01-.07-.23-.16-.37-.21-.13-.05-.21-.08-.25-.12 0-.01-.01-.07-.01-.07.07-.1.81-.3 1.31-.3.18 0 .33.03.43.07.38.19 1.7.73 2.07.73l.08-.08-.03.02c-.2-.32-1.89-.74-2.76-.93-.04-.02-.15-.1-.17-.22-.02-.08 0-.16.06-.25-.59.05-.69-.05-.7-.13-.03-.18.48-.39.64-.44.05.01 2.53.92 3.02.92-.51-.56-2.88-1.14-2.9-1.14.04-.13.09-.21.09-.23l-.07.04c-.17 0-.31-.27-.33-.3.02-.05.31-.32.57-.44.05-.03.16-.04.32-.04.56 0 1.65.15 1.67.15.01 0 .58.19.8.19.06-.01.06-.03-.01-.09-.19-.18-.93-.23-1.51-.27-.64-.04-.86-.06-.88-.16-.01-.06.06-.1.13-.13.35-.17 1.22-.07 1.78.02.21.03.37.06.46.06-.03-.12-1.18-.35-1.77-.35h-.09c-.61 0-.92-.5-.92-.5 0-.1.12-.11.26-.11.2 0 .53.03.87.07.57.06 1.25.12 1.51.06-.29-.11-.88-.16-1.27-.19-.23-.02-.35-.03-.4-.05-.06-.16.02-.27.39-.27.39 0 .99.13 1.33.3.09-.01.16-.04.18-.09.02-.05-.01-.13-.09-.22-.23-.07-.63-.09-.99-.11-.45-.02-.71-.04-.76-.14-.01-.01 0-.08 0-.09.06-.1.2-.12.49-.12.18 0 .4.01.62.02.22.01.44.02.62.02h.13c-.1-.06-.77-.21-1.22-.31-.48-.11-.61-.14-.63-.18.02-.16.24-.16.31-.16.24 0 .58.07.86.12.2.04.38.07.46.07-.31-.25-.74-.41-1.03-.52-.23-.08-.33-.12-.35-.19.01-.07.04-.09.07-.11.57-.22 1.49.54 1.53.56-.04-.07-.04-.18-.06-.31-.03-.17-.42-.48-.57-.59.21-.08.53-.11.59-.18-.02-.1-.29-.36-.46-.51.03-.06.1-.06.2-.06.12 0 .21-.02.25-.05-.05-.27-.42-.49-.43-.49l.3-.09.28-.04.12-1.64c0-.02.02-.03.04-.03s.04.01.04.03l.17 1.79c0-.03.29-.02.37.09l.02.09c-.04.17-.36.21-.39.22l.03.29c.02-.04.25-.11.37-.11.01 0 .07.01.07.01l.04.06c-.02.13-.33.36-.39.41 0 .13-.01.32.01.34.03-.01.34.09.4.14-.01.11-.31.25-.48.33 0 .03-.03.19.02.26.08.07.19.02.43-.05.4-.12.92-.24 1.07-.08.04.05.06.12.05.2-.04.04-.13.05-.26.07-.83.1-1.26.19-1.27.26.08.01.19 0 .31-.01.24-.02.54-.04.79-.04.34 0 .5.05.51.15-.08.13-.37.15-.83.19-.32.02-.81.05-.84.13.03 0 .48.03.69-.02.16-.04.45-.11.7-.11.24 0 .38.07.41.21.01.05 0 .09-.03.13-.12.15-.56.15-.99.16-.2 0-.39 0-.54.02-.08.05-.13.13-.12.19.01.06.1.11.23.13 1.07-.24 1.58-.27 1.66-.11.02.05.01.1-.05.17-.07.04-.23.06-.52.1-.49.07-1.3.19-1.37.41.16-.05.35-.07.56-.1.45-.06 1.02-.11 1.45-.03.04.19.04.35.04.52 0 .18 0 .35.01.51-.2.04-.36.05-.52.05l-.77-.01c-.15 0-.31 0-.46.01-.1.04-.17.1-.17.15 0 .05.06.11.17.16.17 0 .41-.04.65-.07.52-.07.99-.11 1.1.09-.05.12-.33.17-.77.24-.28.04-.74.11-.76.18.11-.01.23-.04.37-.08.28-.07.61-.16 1.22-.07.26.04.38.1.39.19.01.16-.43.31-.57.35-.04 0-1.09-.24-1.59-.07-.2.07-.24.13-.24.16 0 .08.19.18.29.22-.01-.01.62-.36 1.65-.26.71.07 1.1.48 1.18.72.03.07.02.13-.01.16l-.11-.02-.01.03c-.02-.01-.06-.01-.14-.01-.54 0-2.09.32-2.61.44-.19.05-.21.09-.21.1.03.07.21.13.24.14.04 0 1.41-.21 2.13-.32 0 0 .12-.02 1.18-.15.39-.05.56-.01.6.1.06.16-.23.4-.27.42l.1.32-1.28.51c.1.01.48.2 1.1.2.48 0 .85.23.85.43 0 .06-.04.12-.11.16-.07.03-.17.05-.31.05h-.1c-.55 0-1.13.17-1.39.25.29.03.94.09 1.52.09h.16c.29 0 .43.05.48.16.06.15-.1.34-.14.39.04-.01.21.09.26.23.02.06.01.12-.02.18-.05.1-.19.07-.37.01-.25-.08-.54-.11-.64.17-.2.55-.6.59-.95.63l-.14.02c-.16.02-.24.09-.24.14 0 .06.14.13.42.1.18-.02.4-.13.62-.23.26-.12.5-.24.69-.24.2 0 .31.13.33.38-.01-.1.68-.75.86-.56.04.04.05.11.04.21-.32.45-.99.99-2.38 1.15-.17.12-.45.44-.4.52.01.02.05.02.07.02.22-.11 1.25-.54 1.93-.54.34 0 .54.1.62.31-.13.32-1.11.34-1.22.34-.08.07-.33.11-.62.16-.16.02-.32.05-.46.08-.07.03-.19.1-.21.16 0 .05.03.08.07.1-.01-.01.02-.02.07-.03.29-.09 1.12-.3 1.31-.1.04.04.06.1.06.16.31-.1.55-.12.7-.12.34 0 .58.07.7.2.07.08.11.18.1.29-.14.13-1.59.27-1.88.29-.21.02-.56.07-.63.11.02-.02.11.03.51.07.06 0 .13-.01.21-.01h.2c.19 0 .43 0 .73-.03.38-.1.64-.15.77-.15.03 0 .13 0 .13.07 0 .13-.57.38-.69.39-.24.03-1.39.12-1.44.12-.33.21-.9.57-.94.63.22-.04.71-.11 1-.2.08-.03.17-.07.26-.11.3-.14.64-.25.91-.03.25-.22.64-.32.89-.32.17 0 .27.04.3.13.03.12-.15.29-.54.5-.33.09-.78.21-1.54.23-.95.15-1.76.37-1.76.46.23-.04 1.4-.26 1.8-.03l.12-.06c.38-.13.98-.28 1.22-.04.51-.18.98-.13 1.09.07.04.08.02.16-.04.25-.2.28-1.23.39-1.8.31-.31-.05-.52.11-.53.26 0 .1.07.16.21.18.19 0 .35-.04.51-.08.38-.1.77-.14.96.17.28-.32 1.01-.33 1.14-.06.04.08.05.2-.08.38-.24.02-.46.03-.67.03-.78 0-1.56-.06-2.32-.11-.49-.04-.98-.07-1.47-.09-.05.03-.09.06-.09.09 0 .02.02.06.14.14.22.03.52.03.82.03.62.01 1.21.02 1.31.25.2-.21.75-.17 1.09.03.06-.07.36-.11.6-.11.18 0 .5.02.57.18.03.07 0 .16-.1.25-.04.03-.14.05-.61.05-.38 0-.88-.02-1.39-.03-.51-.01-1.01-.03-1.38-.03-.45 0-.54.03-.55.04.04-.03 1.55.14 1.9.4.15-.2.69-.13.98-.05.08.02.14.04.18.04.03 0 .1-.03.18-.07.14-.06.34-.15.51-.15.17 0 .29.08.36.25-.22.3-.67.43-1.34.43-.89 0-1.94-.23-2.51-.35-.19-.04-.33-.07-.37-.07-.07.03-.08.09-.09.15-.02.1-.05.21-.16.25h-.12c-.29 0-.33.12-.36.23-.01.04-.03.09-.06.11l-.08.03c-.23 0-1.13-.27-1.17-.28-.1 0-.3.03-.52.39-.28.46.24 3.99.25 4.03 0 .01 0 .02-.01.03-.06-.03-.07-.03-.08-.03m-1.65-4.19l.04 4.14 1.58-.02c-.06-.42-.51-3.57-.23-4.04.24-.39.47-.43.56-.43.06.01.97.28 1.19.28.05-.02.06-.05.07-.09.04-.13.09-.32.54-.28.06-.03.08-.11.1-.2.02-.08.03-.16.09-.2l.07-.02c.04 0 .15.02.39.07.56.12 1.61.34 2.49.34.65 0 1.08-.12 1.28-.37a.325.325 0 0 0-.3-.17c-.16 0-.33.08-.48.14-.09.04-.15.07-.2.07-.04.01-.11-.02-.2-.04-.28-.08-.74-.15-.96.03-.38-.25-1.91-.42-1.92-.42-.01 0-.03-.02-.03-.03-.01-.01-.01-.03-.01-.04.02-.04.08-.08.62-.08.37 0 .88.02 1.39.03.51.02 1.02.03 1.39.03.44 0 .54-.02.56-.04.04-.04.1-.11.07-.17-.03-.08-.23-.13-.5-.13-.25 0-.52.04-.6.1-.39-.19-.82-.21-1.11-.05-.13-.21-.75-.22-1.3-.23-.3 0-.6-.01-.84-.04-.14-.08-.19-.14-.19-.2 0-.07.07-.12.14-.16.51.02 1 .05 1.49.09.97.07 1.96.14 2.96.1.06-.1.08-.2.04-.28-.11-.22-.74-.2-1.08.07-.27-.3-.57-.24-.93-.15-.16.04-.32.09-.46.09-.28-.03-.35-.16-.34-.26.01-.19.24-.38.61-.33.54.08 1.55-.04 1.73-.28.03-.05.07-.11.03-.17-.08-.16-.49-.18-1.04-.04-.31-.24-.82-.08-1.18.05l-.15.1c-.16-.08-.35-.11-.61-.11-.48 0-1.02.13-1.17.16-.02 0-.04-.03-.05-.04a.169.169 0 0 1-.03-.06c.04-.21 1.41-.45 1.83-.52.76-.01 1.2-.13 1.46-.21.55-.28.55-.41.55-.43-.03-.12-.69-.09-1.12.23-.36-.2-.6-.09-.88.04-.09.04-.18.08-.26.11-.3.1-.79.17-.98.17-.05 0-.07-.01-.08-.01.03-.15.81-.63.96-.72.03-.01 1.21-.09 1.45-.13.16-.02.61-.25.63-.32-.18.01-.44.06-.82.15-.31.03-.55.03-.74.03h-.2c-.08 0-.15 0-.21.01-.51-.05-.55-.1-.57-.12 0-.01-.01-.07 0-.07.1-.08.59-.13.68-.14.66-.06 1.74-.18 1.82-.24a.31.31 0 0 0-.09-.22c-.11-.11-.33-.18-.65-.18-.14 0-.39.01-.71.08-.06-.08-.07-.11-.1-.14-.16-.16-.96.04-1.24.12-.05.02-.09.03-.1.03-.09-.04-.12-.09-.13-.13.04-.17.24-.25.27-.26.14-.04.31-.06.47-.08.25-.04.52-.08.6-.15.31-.01 1.08-.06 1.18-.28-.06-.15-.25-.23-.55-.23-.67 0-1.68.42-1.91.54-.08 0-.12-.01-.15-.05-.11-.16.36-.61.36-.61a.31.31 0 0 1 .08-.02c1.36-.16 2.01-.69 2.32-1.11 0-.08-.02-.12-.03-.13h-.02c-.24 0-.65.39-.8.54-.09-.3-.21-.34-.32-.34-.18 0-.42.12-.66.23-.23.11-.46.22-.65.24-.36.05-.49-.06-.5-.16-.01-.09.09-.19.3-.22l.14-.02c.36-.04.7-.07.89-.58.07-.2.2-.29.38-.29.12 0 .24.04.35.08.08.03.16.05.21.05.08-.07.09-.11.08-.15-.03-.11-.17-.2-.24-.24.04-.11.17-.27.12-.38-.03-.08-.16-.12-.37-.12h-.2c-.78 0-1.68-.1-1.69-.1-.02 0-.03-.02-.03-.03 0-.02.01-.03.02-.04.03-.01.81-.31 1.58-.31h.1c.12 0 .22-.02.28-.04.05-.02.07-.05.07-.09 0-.14-.33-.36-.78-.36-.75 0-1.15-.25-1.16-.26l.39-.21.9-.34-.06-.12-.05-.2c.12-.12.28-.29.25-.38-.03-.07-.2-.1-.52-.06-1.06.14-1.18.15-1.18.16-.08.01-2.09.32-2.14.32-.01 0-.26-.06-.3-.17 0-.12.09-.17.26-.21.59-.15 2.5-.53 2.79-.42.05 0 .06-.03.04-.08-.06-.19-.42-.6-1.12-.67-1.01-.1-1.63.25-1.64.25-.06-.01-.37-.12-.37-.28 0-.09.09-.17.29-.23.52-.17 1.61.07 1.61.07.24-.08.51-.2.5-.27 0-.01-.02-.07-.33-.12-.6-.09-.92-.01-1.19.06-.14.03-.27.07-.41.07 0 0-.03-.02-.04-.04-.01-.01-.01-.04-.01-.05.04-.1.34-.15.82-.22.29-.04.68-.1.72-.16-.08-.08-.55-.08-1.02-.01-.23.03-.48.07-.67.07-.15-.06-.22-.14-.22-.23 0-.06.04-.15.23-.22.17-.01.33-.01.48-.01l.77.01c.16 0 .32 0 .49-.01-.04-.12-.04-.3-.04-.47 0-.17 0-.33-.01-.49-.14 0-.31-.01-.48-.01-.32 0-.63.04-.91.07-.21.03-.4.05-.55.05-.01 0-.05-.01-.06-.02-.01-.01-.04-.02-.03-.03.08-.24.72-.35 1.43-.45.23-.03.43-.06.48-.09.02-.03.03-.06.02-.08-.01-.01-.04-.05-.25-.05-.27 0-.7.07-1.29.2-.29-.02-.34-.12-.35-.18-.02-.09.05-.2.17-.27.16-.02.35-.02.56-.03.37 0 .84 0 .94-.13.02-.02.02-.04.01-.07-.02-.1-.13-.16-.34-.16-.23 0-.52.07-.68.1-.23.06-.73.02-.73.02-.01 0-.03-.03-.03-.04-.01-.01-.01-.05-.01-.06.05-.11.38-.14.9-.17.29-.02.73-.05.76-.11 0-.02-.04-.08-.44-.08-.24 0-.54.03-.78.05-.13.01-.24.02-.32.02-.01 0-.04-.03-.05-.04-.01-.01-.03-.05-.02-.06.04-.14.52-.22 1.34-.32a.96.96 0 0 0 .22-.03c-.02-.04-.03-.08-.06-.12-.12-.13-.63-.01-1 .1-.29.09-.42.11-.49.05-.11-.13-.04-.35-.04-.37.23-.11.46-.23.48-.26-.05 0-.34-.1-.38-.1-.06-.08-.04-.33-.04-.43.16-.13.37-.31.38-.38-.16 0-.43.09-.43.09l-.05-.38c.11-.04.34-.09.36-.2-.05-.09-.25-.12-.36-.13l-.17-1.44-.12 1.28-.55.11c.11.03.39.21.45.4.02.06 0 .1-.02.12-.08.07-.18.09-.32.09-.06 0-.11 0-.15-.01.12.04.45.34.49.47 0 .01-.02.07-.02.08-.11.1-.51.13-.61.14.11.01.57.36.6.57.02.13.02.25 0 .35-.09 0-.76-.57-1.3-.57-.08 0-.15.01-.22.04-.02.05.14.11.27.16.33.13.77.3 1.12.6.01.01-.01.04-.02.05-.01.01-.05.03-.06.03-.09 0-.27-.04-.48-.07-.28-.05-.62-.12-.85-.12-.1 0-.23.01-.24.08.03 0 .32.07.58.12.66.14 1.16.27 1.24.4l-.17.06c-.18 0-.4-.01-.62-.02-.22-.01-.44-.02-.62-.02-.32 0-.4.03-.42.05.03.11.4.13.69.14.36.02.77.04 1.02.13.11.12.15.22.12.3-.03.08-.12.12-.26.13-.55-.26-1.67-.38-1.68-.15.03.01.19.01.37.03.4.03 1.01.08 1.29.27-.1.09-.21.09-.37.09-.33 0-.78-.05-1.18-.09-.34-.03-.66-.07-.87-.07-.15 0-.19.02-.19.02.01.01.3.44.85.44h.09c.56 0 1.78.23 1.88.41-.01.09-.07.09-.1.09-.09 0-.26-.03-.47-.06-.55-.09-1.4-.19-1.74-.03-.08.04-.09.05-.09.06.04.04.47.07.81.09.63.04 1.34.09 1.56.29.08.07.11.13.09.17-.02.05-.1.05-.13.05-.23 0-.8-.19-.82-.2-.01 0-1.09-.15-1.65-.15-.19 0-.26.02-.29.03-.25.12-.54.38-.54.39.05.03.16.22.27.22l.09-.02.06.05c0 .06-.09.18-.13.23.09-.05 2.39.53 2.92 1.04.04.04.08.09.06.13-.02.04-.08.05-.12.05-.51 0-2.92-.89-3.02-.92-.27.11-.58.28-.56.36 0 .03.07.12.66.13-.02.13-.03.19-.02.25.02.1.11.16.13.17.09.01 2.54.53 2.8.95.03.05.04.09.02.12-.02.04-.06.05-.13.05-.4 0-1.75-.56-2.11-.74-.09-.05-.22-.07-.39-.07-.53 0-1.2.21-1.25.27.02.01.13.04.22.08.2.07.4.15.42.26-.05.12-.19.16-.41.22-.12.03-.32.08-.33.13.04.03.46.15.91.28 1.02.3 2.57.74 3.13 1.21.14.12.16.17.15.21a.3.3 0 0 1-.08.04c-.33 0-2.06-.79-2.51-1 .02.05.04.12.02.18-.01.03-.04.07-.1.1-.1 0-.18-.05-.3-.14-.21-.15-.54-.39-.96-.39-.22 0-.46.07-.69.2.08.23.9.4 1.23.43v.12c-.08.2-.11.27.24.49.05.03.08.05.09.06 0 .02 0 .07-.02.07-.04-.01-.17-.06-.44-.2-.18-.09-.41-.2-.45-.21.04.01.12.4.12.4-.51-.26-.9-.33-1.28-.05.01 0 .02.27.42.43-.04.16-.05.24-.03.29.04.08.17.13.37.2.19.07.46.16.76.33.02.01.02.03.02.04-.01.02-.03.03-.04.02-.57-.15-.97-.07-.97.04-.01.09.16.23.54.3.17.03.41.05.68.08 1.08.12 2.71.29 3.17.89.13.17.17.26.13.3-.16.01-.41-.13-.75-.34-.16-.1-.33-.2-.37-.21.01.04-.01.23-.02.34-.41-.17-.74-.37-1.18-.46.03.01.02.05.01.09-.01.04-.01.09-.03.12-.42-.25-.76-.46-1.35-.49v.11l-.03.14c-.07 0-.27-.24-.67-.24-.24 0-.5.09-.77.26-.05.04-.06.05-.06.06.02.08.5.11.88.14.64.04 1.36.09 1.58.33.17.19.24.34.21.45-.03.1-.14.12-.14.13l-1.05-.38s-.46-.08-.89-.08c-.31 0-.53.04-.63.13.04.09.92.28 1.7.45 1.91.42 3.37.77 3.46 1.19.01.05.01.08-.01.11-.09.12-.49-.05-1.08-.3-.43-.18-.92-.39-1.38-.53l-.09.37c-.07 0-.53-.45-1.03-.52.04.01.1.26.14.42-.07.04-.87-.34-1.53-.34-.19 0-.35.03-.47.09-.06.03-.08.05-.08.06.02.11.75.23 1.29.33.65.11 1.27.22 1.4.36.04.04.05.08.05.1a.53.53 0 0 1-.1.06c-.08 0-.21-.03-.36-.07-.25-.06-.57-.11-.59-.05-.03.06-.11.07-.17.07-.15 0-.4-.06-.64-.11-.35-.08-.7-.11-.72-.09.01.27.19.41.19.42.29.02 3.03.29 3.14.67 0 .01-.01.09-.02.1-.03.04-.1.07-.22.07-.43 0-1.38-.29-1.48-.32.01.03-.11.22-.01.31 0 .02.01.08-.01.08-.02-.01-.06-.02-.11-.05-.19-.11-.7-.37-.78-.27-.02.02-.02.06-.01.11l-.25-.04c-.3-.13-.71-.3-.9-.3l-.06.08c.11.3 2.32.77 2.72.85.02 0 .03.02.03.04s-.02.03-.03.03c-.33.03-.92.12-1.04.27 0 .01-.01.06-.03.07-.01.01-.04.05-.05.03-1.01-.62-1.26-.56-1.34-.43-.02.03-.02.07-.02.08-.04.05-.08.05-.12.04-.16-.07-.54-.16-.74-.16-.09 0-.11.02-.11.02 0 .01.01.08.52.36.95.52.96.62.96.66-.01.01-.04.06-.05.06 0 .01-.03.02-.07.02.01.02.11.29.11.35-.07.03-.14 0-.24-.05-.29-.14-.88-.43-1.12-.46-.27 0-.86.17-.92.44-.04.19.21.41.72.64.89.39 1.81.26 2.51.08.37-.1.71-.19 1.03-.15.76.08 1.13.2 1.25.38.04.07.05.14.03.22-.03.11-.15.07-.34-.04-.18-.11-.43-.26-.71-.26-.28 0-.53.14-.77.43-.74-.11-1.25-.2-1.33-.05-.04.08.01.22.16.43-.54-.13-.92-.17-1.15-.17-.37 0-.58.1-.59.2-.01.11.22.32 1.13.47h.3c1.82 0 2.95-.49 2.96-.5.05.02.23.35.5.35.11 0 .22-.05.33-.15.13-.11.23-.17.33-.17.19 0 .24.24.26.33.01 0 .43-.2.43-.2l.15-.01zm-2.6-1.45c-.12 0-.54-.14-.68-.4.06-.06.09-.07.13-.07h.04c.1 0 .28.03.53.15.03.05.02.32.02.32h-.04m-.52-.43l-.03.04c-.03 0-.06.01-.09.02.15.18.53.31.62.33-.02-.04-.02-.22-.02-.23-.18-.07-.35-.12-.48-.12v-.04zm3.18.4c-.26 0-.77-.14-.82-.41.09-.12.22-.16.38-.17h.05c.26 0 .52.09.53.1.05.07.17.34.03.44-.05.03-.1.04-.17.04m-.39-.54l-.04.04c-.14.01-.25.05-.32.12.05.22.75.35.87.29.08-.07.02-.25-.02-.33-.01 0-.25-.08-.49-.08v-.04zm2.19.51c-.26 0-.58-.06-.59-.06l-.03-.24c.1-.06.19-.07.3-.07h.01c.24 0 .61.06.68.18.01.01-.01.09-.02.1-.05.06-.16.09-.35.09m-.51-.11c.08 0 .32.04.52.04.21 0 .27-.04.29-.06-.03-.08-.31-.16-.61-.16v-.04l-.01.04c-.11 0-.19.01-.26.03l.03.16c.01-.01.02-.01.04-.01m.23-.7c-.18 0-.31-.03-.32-.03l-.06-.26c0-.01 0-.02.01-.03.01-.01.02-.01.03-.01v.03l.02-.03c.13 0 .31-.04.48-.08.14-.03.28-.07.38-.07.05 0 .13 0 .15.05.03.05-.01.12-.05.17-.15.22-.43.26-.64.26m-.25-.08c.04 0 .14.01.25.01.19 0 .45-.04.58-.23.05-.07.04-.09.04-.09l-.06-.05-.02.04c-.09 0-.22.03-.36.07-.17.04-.34.08-.48.08l.02.17h.03m-1.19.05c-.16 0-.79-.03-.95-.14-.13-.01-.54-.2-.58-.33.07-.1.13-.11.19-.12h.02c.13 0 .25.07.36.14l.07.04c.05-.02.13-.03.23-.03.32 0 .72.07.73.07l.03.32c-.01.02-.09.05-.1.05m-1.32-.55l-.01.04c-.05 0-.09.02-.14.04.04.06.41.27.54.27.15.09.72.13.94.13l.02-.24c-.02.02-.39-.04-.68-.04-.09 0-.17.01-.23.02l-.1-.05c-.11-.07-.21-.13-.32-.13v-.04zm2.66-.28c-.12 0-.21-.01-.21-.01l-.03-.19c0-.03.01-.03.14-.06.11-.02.26-.06.38-.06.08 0 .12.01.14.02.04.07.04.1.02.13-.07.14-.28.17-.44.17m-.17-.17v.1c.02-.01.09 0 .17 0 .12 0 .32-.02.38-.13 0-.03-.02-.04-.07-.04-.14 0-.29.04-.39.06-.04 0-.07 0-.09.01m-1.24-.4c-.33 0-.99-.33-1.06-.49-.01-.01 0-.07.01-.08.02-.02.06-.03.11-.03h.01c.78.08 1.05.39 1.11.48-.02.1-.08.12-.18.12m-.93-.56v.04c-.05 0-.06.01-.06.01.01.08.66.44.99.44.05 0 .11-.01.13-.05-.06-.04-.31-.33-1.05-.41l-.01-.03zm4.01.24c-.1 0-.19-.01-.21-.01-.02 0-.03-.02-.04-.03 0-.02 0-.03.02-.04.13-.07.29-.14.4-.15.01 0 .09.02.1.02 0 .01.05.09.05.09-.05.09-.15.12-.32.12m-.08-.07h.07c.19 0 .24-.04.25-.06v-.05l-.06.02v-.04.04c-.08.01-.18.05-.26.09zm-1.8-.24c-.01 0-.02 0-.03-.01-.01-.01-.04-.01-.04-.03 0-.03.02-.21.02-.21.61-.38 1.67-.71 2.24-.71h.01c.15 0 .26.03.32.07.01.1-.09.32-.43.42-.33 0-1.04.16-2.08.46.01.01 0 .01-.01.01m.02-.2c.01.01-.01.15-.01.17 1.04-.34 1.77-.5 2.04-.5.33-.08.42-.27.42-.31a1.06 1.06 0 0 0-.26-.03v-.04l-.01.04c-.55 0-1.61.33-2.18.67m-.01-.4c-.04-.04-.03-.2-.02-.24.05-.03.13-.05.25-.08.37-.09 1.05-.27 1.27-.27 0-.01.09.03.1.04 0 .01-.04.08-.05.09-.32.22-1.5.45-1.55.46m1.5-.53c-.21.01-.91.19-1.25.27-.19.05-.22.05-.23.05.02.01.02.14.02.16.03-.04 1.15-.26 1.46-.48m-1.53-.06l-.04-.24c.1-.04.21-.05.33-.06.14-.02.3-.03.43-.04h.07c.15 0 .19.03.21.04 0 .01.02.06.01.07-.18.2-.92.22-1.01.23m.79-.31l-.07.04c-.13 0-.28.02-.43.04-.12.01-.23.02-.3.03l.04.17c.18-.04.78-.09.91-.21-.01 0-.04-.02-.15-.02v-.05zm-.74-.21c-.05-.13-.06-.45-.06-.49 1.01-.33 1.67-.48 1.98-.5h.03c.11 0 .17.02.19.07.01.08-.02.13-.07.18-.11.12-1.87.68-2.07.74m1.96-.94l-.03.04c-.3.01-.95.17-1.94.47.02.01.03.41.03.41.73-.28 1.91-.68 2-.76.05-.05.06-.08.06-.09 0 0-.02-.03-.13-.03v-.04zm-2.03.21l-.04-.36c0-.02.01-.04.03-.04l.09-.01c.2-.04.66-.13.92-.14.15-.01.2.02.22.06.02.05-.02.1-.06.13-.36.3-1.13.36-1.16.36m.03-.33v.29c.03-.04.75-.1 1.08-.37.04-.04.03-.06-.08-.06-.28.01-.75.1-.94.14h-.06zm-.92-.43h-.01s-2.49-.8-2.56-.83c0-.01-.01-.09 0-.1.03-.04.09-.06.18-.06.43 0 1.23.22 2.36.63l.07.32c0 .01 0 .03-.01.03s-.02.01-.03.01m-2.35-.93c-.13.01-.16.03-.17.04.04.01 2.1.67 2.48.79l-.04-.23c-1.41-.49-2.01-.6-2.27-.6m3.27.9c-.04-.03-.06-.23-.07-.29 0-.01 0-.03.01-.03.01-.01.02-.01.03-.01l-.01.04.06-.03c.22.02.43.04.49.09 0 .01.02.07.02.07-.07.12-.45.15-.53.16m.01-.26l.03.22c.14-.05.4-.09.43-.15-.04-.02-.19-.04-.45-.06l-.01-.01zm-.03-.33c-.04-.03-.07-.28-.07-.29.05-.04.1-.04.17-.05.22-.03.66-.09.89-.1H31c.1 0 .13.02.15.03l-.03.04.02.03c-.15.12-1.07.32-1.17.34m-.03-.25c.03.01.06.21.06.21.33-.11.88-.24 1.05-.33H31v-.04l-.04.04c-.24.01-.67.07-.89.1-.06.01-.11.02-.13.02m-.85-.22c-.14-.01-1.69-.65-1.87-.65v-.04.04c-.07-.08-.08-.14-.05-.17.02-.04.07-.06.15-.07.4 0 1.3.38 1.64.53.07.03.11.05.12.05.02.06.02.11.02.17-.01.06-.01.13-.01.14m-1.86-.72c.22.02 1.56.57 1.8.67-.01-.02-.01-.05-.01-.08 0-.07 0-.1.01-.13-.02.01-.06-.01-.11-.03-.33-.14-1.23-.52-1.58-.52-.07 0-.1.02-.11.03-.01.01-.01.04 0 .06m2.67.44l-.05-.28c.07-.04.84-.16 1.2-.18h.06c.09 0 .12.01.13.02 0 .01.02.07.01.07-.14.13-1.23.35-1.35.37m1.21-.42l-.06.04c-.35.02-1.11.13-1.15.14l.04.21c.38-.11 1-.26 1.21-.35h-.03v-.04zm-1.23-.24v-.04l-.01.03c-.01 0-.01-.01-.02-.01a.538.538 0 0 1 .01-.25c.01-.02.05-.05.07-.04.01-.01.15-.04.34-.08.37-.07.92-.18 1.18-.19.1.01.14.01.16.03 0 .01-.01.08-.02.09-.25.22-1.7.46-1.71.46m1.59-.53l-.03.04c-.24.01-.8.12-1.16.19-.2.04-.35.07-.38.07.01.08.01.14.01.17.15-.03 1.42-.25 1.62-.43l-.06-.04zm-2.31-.01c-.14 0-2.56-.85-2.56-.85a.134.134 0 0 1 0-.15c.04-.05.12-.08.22-.09h.04c.39 0 1.15.27 2.27.8.03.23.03.27.03.29m-2.3-1.06l-.04.04c-.08 0-.14.02-.17.06-.03.04 2.23.83 2.46.91-.03-.03-.04-.14-.04-.19-1.36-.65-1.96-.79-2.22-.79v-.03zm3.02.45l-.04-.29c0-.02.02-.03.04-.04.01 0 .08-.02.17-.04.23-.05.63-.15.82-.16.08 0 .12.01.14.03 0 .01-.01.09-.01.09-.18.21-1.08.4-1.12.41m.03-.26v.22c.21-.09.9-.26 1.03-.41-.26.01-.65.1-.88.16-.07.01-.12.03-.15.03m-.86.25h-.01c-.44-.13-1.87-.57-1.93-.67-.02-.03-.06-.1-.03-.16.02-.05.08-.08.17-.08.32 0 .92.19 1.81.57l.03.3c0 .01-.01.02-.02.03-.01.01-.01.01-.02.01m-1.77-.84c-.08 0-.12.02-.13.04-.01.02 0 .06.02.09.07.07 1.15.41 1.84.62l-.01-.22c-1.07-.43-1.53-.53-1.72-.53m2.46-.71l-.06-.41c.04-.04.67-.13 1.11-.13h.07c.26 0 .32.03.33.07.01.01-.01.07-.02.08-.17.21-1.3.37-1.43.39m1.12-.47h-.07c-.43.01-1.07.09-1.07.09l.05.34c.3-.08 1.21-.24 1.35-.4.01 0-.02-.03-.26-.03m-1.71-.2c-.12 0-1.05-.29-1.09-.43.05-.08.09-.1.15-.1h.03c.19 0 .5.06.71.1.1.02.17.03.19.03.01 0 .02.03.03.04.01.01.01.05.01.06.01.16.01.26-.01.3h-.02m-.92-.49l-.02.04c-.05 0-.07.01-.08.02.04.08.85.35.99.39-.01-.02-.02-.18-.02-.24.01-.03-.07-.04-.17-.06-.21-.04-.52-.1-.7-.1v-.05zm.81-.1c-.15 0-1.69-.44-1.85-.44v-.04.04c-.01 0-.07-.02-.07-.02 0-.01-.03-.06-.02-.07.06-.08.14-.1.25-.11h.01c.39 0 .94.1 1.65.3.01 0 .03.07.03.09.01.14.01.22 0 .25zm-1.62-.56c-.2.01-.24.04-.25.05l.03.01c.18 0 1.68.44 1.81.47-.04-.02-.05-.16-.05-.21-.86-.27-1.32-.32-1.54-.32m2.25-.42c-.05-.05-.06-.17-.07-.23 0-.01 0-.02.01-.03.01-.01.02-.01.03-.01.02 0 .05.01.1.01.2.02.3.03.33.08 0 .02-.01.08-.03.08-.05.08-.37.1-.37.1m.01-.2c.01.06.01.13.02.14.01-.02.26-.04.31-.1-.02-.01-.21-.02-.27-.03-.02 0-.04-.01-.06-.01m.02-.15l-.05-.36c0-.01 0-.02.01-.03.01-.01.02-.01.03-.01.03 0 .78 0 .86.12-.06.2-.66.27-.85.28m.02-.32l.01.29c.32-.07.72-.15.75-.21-.04-.05-.49-.08-.76-.08m-.7-.1c-.14 0-.31-.02-.36-.07 0-.01-.02-.08-.01-.08.13-.1.3-.11.4-.12.03 0 .06-.01.07-.01l.01.04-.01-.02.01.04.01.01h-.01l.04.2c-.03.01-.08.01-.15.01m.09-.2c-.01 0-.03 0-.05.01-.09.01-.25.02-.34.09.04.03.27.06.42.06l-.03-.16z" fill="#3b8310"/><path fill="#337b40" d="M0 0h17.93v34.37H0zM40.99 0h17.93v34.37H40.99z"/></svg>