<svg xmlns="http://www.w3.org/2000/svg" viewBox="0 0 58.92 34.37"><path fill="#3564c2" d="M0 22.92h58.92v11.46H0zM0 0h58.92v11.46H0z"/><path fill="#fff" d="M0 11.46h58.92v11.46H0z"/><path fill="#f5cd28" d="M26.01 19.18l3.45-5.98 3.46 5.98z"/><path fill="#95d4fd" d="M26.35 18.98l3.11-5.39 3.12 5.39z"/><path d="M26.97 18.48c-.04 0-.09-.01-.13-.01l-.09-.02-.01-.06.11.03c.09.01.18.03.29.03a.61.61 0 0 1-.17.03M26.67 18.87l-.07-.04c.04-.01.06-.05.11-.11.08-.03.12-.01.17 0 .03.01.06.02.11.02.06.04.16.03.22 0l.09-.01-.07.06c-.06.03-.18.05-.26 0-.03 0-.07-.01-.1-.02-.04-.01-.07-.02-.12-.01-.04.05-.06.09-.08.11M27.28 18.93c-.09-.01-.15-.01-.24-.01l-.09-.03v.03c-.06 0-.09 0-.1-.01l-.01.01v-.03c.05-.02.09-.03.11-.03h.09c.1 0 .18 0 .24.07M28.15 18.46c-.12 0-.16-.04-.19-.16a.327.327 0 0 0-.19.02h-.1l-.02-.06h.11c.06-.03.17-.03.24 0 .04.13.06.14.15.15 0-.02.05-.04.08-.06l.08.02c-.08.05-.12.07-.14.09h-.02zM27.95 18.78l-.07-.04c.04-.01.07-.05.11-.11.09-.07.15-.1.28-.07.11.08.14.11.23.12.05 0 .09-.01.13-.02.03 0 .06-.01.1-.01-.03.06-.06.07-.08.07-.04.01-.08.01-.14.01-.1-.01-.14-.04-.21-.09-.14-.05-.17-.03-.25.03-.06.05-.09.09-.1.11M28.57 18.98c-.09 0-.16-.03-.22-.06l-.08-.03c-.02.02-.05.04-.07.05l-.02-.04h.02c0-.02.03-.03.07-.05l.11.03c.06.03.12.05.2.05.03 0 .05-.01.08-.01a.36.36 0 0 1 .11-.02c-.04.06-.07.07-.1.07-.04 0-.07 0-.1.01M29.32 18.35c-.09-.03-.18-.03-.27-.03h-.11l-.02-.06h.1c.12 0 .21 0 .3.03h.28l-.28.06zM29.45 18.71c-.11-.01-.15-.04-.21-.08l-.06-.04c-.06-.06-.15-.07-.23-.08-.03.02-.06.04-.08.05l-.02-.04h.02c-.01-.02.02-.03.07-.06.11.01.22.03.29.09l.06.04c.05.04.09.07.18.07.08-.04.1-.05.14-.06l-.05.08c-.04.01-.07.03-.11.03M29.59 18.85a.78.78 0 0 1-.22-.03c-.08-.05-.17 0-.2.02l-.03-.04c.05-.04.17-.09.26-.03.07.02.16.03.25.02.04-.01.07-.03.1-.04.05-.02.1-.04.13-.07l.01-.01h.07l-.06.06a.42.42 0 0 1-.12.07c-.03.01-.07.03-.09.04-.04.01-.07.01-.1.01M30.35 18.5c-.09-.04-.23-.03-.29-.03l-.03-.03.03-.03c.07 0 .21-.01.3.03.06-.02.1-.06.15-.12l.05-.05c.1-.01.17-.01.24.02-.08.03-.15.02-.22.02-.09.11-.13.17-.23.19M30.43 18.83l-.02-.05s.09-.02.15-.03c.06-.08.11-.04.15-.01.02.02.04.03.07.04.08-.03.13-.1.18-.19.01.11-.05.21-.17.25-.06-.01-.08-.03-.1-.05-.04-.03-.05-.04-.09.01-.08 0-.17.03-.17.03M30.68 18.6l-.02-.04h.02c-.01-.02.02-.04.07-.08l.05-.05c.03-.04.07-.07.15-.08.05-.07.11-.01.15.02-.08 0-.1 0-.13.03-.08.01-.1.04-.13.07-.02.02-.04.03-.06.05-.05.04-.08.06-.1.08M31.12 18.83l-.06-.01c.01-.02.04-.16.06-.21.07-.04.11-.07.16-.06.04.01.07.05.11.11.02 0 .06.02.1.04l.12.06c-.06.04-.1.01-.15-.01a.467.467 0 0 0-.1-.05c-.04-.07-.06-.09-.08-.1-.02 0-.05.01-.1.04-.02.04-.05.17-.06.19M31.64 18.5c-.08-.13-.1-.19-.18-.21 0 .05-.02.1-.03.12l-.07-.03c.03-.02.05-.07.09-.14.13.01.17.09.2.18.09.01.15.01.2-.04-.03.11-.11.12-.21.12M32.29 18.78c-.09-.01-.12-.04-.15-.07-.03-.03-.05-.05-.1-.07-.04-.03-.08-.01-.13.1l-.05-.02c.03-.07.08-.15.14-.16l.07.04c.04.01.07.04.1.07.03.02.05.05.1.07-.02-.04.01-.05.07-.06-.03.06-.04.07-.05.1M30.08 18.87l-.02-.04h.02c0-.02.03-.03.07-.06.09-.07.13-.1.18-.2a.37.37 0 0 1 .15 0c.05.01.09.02.15.02-.06.06-.11.05-.16.04-.04-.01-.07-.01-.12-.02-.03.09-.07.13-.15.19-.07.05-.1.06-.12.07M27.41 18.51h-.06c0-.03.03-.06.14-.12.04-.04.08-.03.12-.02l.06.07c-.03 0-.06-.01-.08-.02l-.07.01c-.08.05-.11.07-.11.08M27.73 18.8c-.03 0-.05-.01-.06-.02a.247.247 0 0 0-.09-.04c-.03.02-.06.04-.08.05l-.02-.04h.02c0-.02.03-.03.07-.06.06.01.09.02.12.04s.06.03.11.04c-.02.02-.05.03-.07.03" fill="#95d4fd"/><path fill="#fff" d="M29.47 17.76l-.02-4.11h.02z"/><path fill="#fff" d="M27.97 16.19v-.03h2.98z"/><path fill="#fff" d="M31.7 17.46l-3.34-1.89.02-.03z"/><path fill="#fff" d="M27.24 17.49l3.34-1.96.02.02z"/><path fill="#fff" d="M28.8 17.36l-.02-.01 1.26-2.18z"/><path fill="#fff" d="M30.26 17.53l-1.43-2.42.03-.01z"/><path d="M29.92 16.18c0 .25-.21.46-.46.46s-.46-.21-.46-.46.21-.46.46-.46.46.21.46.46" fill="#95d4fd"/><path d="M32.01 18.01l-1.54.03s.01.23.11.23c.1.01 1.38-.02 1.43.09.05.1-1.24.16-1.24.16s1.14-.01 1.2.08c.06.09-.63.1-.57.12.05.02.81-.02.88.07.07.09-.34.14-.34.14s.62.06.64.06c-.16-.27-.57-.98-.57-.98" fill="#487ba2"/><path d="M29.23 15.88c-.05.03.12.06.1.16-.01.08-.1.18-.14.25s.18.33.38.19.18-.39.11-.44c-.16-.1-.26-.27-.45-.16" fill="#c0003b"/><path d="M29.52 16.47a.524.524 0 0 0-.13-.13c-.05-.03-.13-.05-.15-.03 0 0 0 .02-.01.03-.01 0-.01.02-.01.01 0 0 0-.05.01-.05.04-.03.13.01.17.04.04.01.13.09.12.13"/><path d="M28.14 16.81c.18-.04.23.17.29.21.06.03.21.05.26.08.04.02.2.13.2.13s.07-.19.15-.21c.08-.02.43.22.43.22s.04-.22.13-.2c.09.03.56.38.56.38s.02-.12.12-.16c.1-.04.44.18.44.18s.04-.17.11-.17c.2 0 .86.72 1.01.73.07.01-.24.1-.24.1s.05.05.02.09-.94.01-.94.01.03.06.01.08c-.03.04-3.98.06-3.98.06.37-.63 1.1-1.45 1.43-1.53" fill="#5b7133"/><path d="M29.7 18.32c.14-.03.04-.42-.72-1 1.2.83.44.95 1.67.98-.22.01-.95.02-.95.02M29.51 17.29s1.14.88 1.18.92c.06 0 .24.01.24.01s-.15-.02-1.42-.93" fill="#263732"/><path d="M30.18 17.46s.95.75.8.75c-.16 0 .52.02.64-.01-.61-.03-.48-.06-1.44-.74M30.76 17.49l.84.63s.13-.04.2-.07c-.24.03-.29-.08-1.04-.56" fill="#263732"/><path d="M28.29 16.9c.06.05.08.13.12.15.04.03.43.21.65.43.21.22.54.51.43.54-.12.04-.23-.09-.23-.09s.16.27-.05.28c-.22.02-.75-.78-.75-.78s.26.73-.07.7c-.33-.03-.29-.55-.29-.55s-.09.25-.15.24c-.07-.01 0-.32 0-.32s-.37.63-.52.55c-.15-.07.57-1.21.86-1.15M29.07 17.11c-.01-.06.05-.04.16.02.12.06 1.06.79 1.03.86-.02.07-1.14-.53-1.19-.88M29.76 17.23c-.07-.02.75.81.94.76.19-.05-.89-.74-.94-.76M30.33 17.3c-.09-.01.79.79.98.75.19-.04-.84-.73-.98-.75M30.84 17.35c-.1.02.66.6.75.59.1 0-.52-.63-.75-.59" fill="#93c438"/><path d="M28.23 15.73s.47-.55 1.23-.55 1.23.55 1.23.55l-.19-.33s-.38-.38-1.04-.38-1.04.38-1.04.38l-.19.33z" fill="#b0008a"/><path d="M30.39 15.2s-.33-.28-.93-.28c-.59 0-.93.29-.93.29l-.15.26s.36-.41 1.08-.41c.72 0 1.08.41 1.08.41l-.15-.27z" fill="#c0003b"/><path d="M30.27 14.97s-.31-.23-.81-.23c-.51 0-.78.21-.78.21l-.16.28s.3-.3.94-.3.95.3.95.3l-.14-.26z" fill="#f3cd2d"/><path d="M30.13 14.75l.15.25s-.3-.22-.82-.22c-.51 0-.82.24-.82.24l.15-.26s.21-.15.67-.15c.47 0 .67.14.67.14" fill="#93c438"/><path d="M30.03 14.57l.13.21s-.3-.15-.69-.15c-.4 0-.71.19-.71.19l.12-.2s.21-.13.59-.13.56.08.56.08" fill="#6091be"/><path d="M29.96 14.46l.1.17s-.19-.12-.6-.12c-.42 0-.6.12-.6.12l.1-.18s.18-.07.5-.07c.33.01.5.08.5.08" fill="#2f4791"/><path d="M28.71 18.4l1.55.02s-.27.03-.26.06c.01.03.55.05.55.05s-.33.02-.34.06c-.01.03.15.05.15.05s-.3.03-.3.06.39.05.36.05c-.03 0-.51.01-.51.05s.35.12.35.12l-2.04.04s.32-.05.32-.11c0-.07-.23-.08-.23-.08s.83.02.87-.02c.03-.05-.18-.08-.18-.08s.33.02.35-.02c.02-.04-.44-.1-.44-.1s.27.01.31-.04c.04-.05-.51-.11-.51-.11" fill="#fff"/><path d="M28.41 18.44s-1.53.05-1.66.14c-.13.08.85.17.85.17s-1.02.01-1.1.1c-.08.1.61.08.61.08l-.76.05.37-.63 1.69.09z" fill="#487ba2"/><path d="M25 18.55c.02.05-.01.11-.07.13-.05.02-.11-.01-.13-.07-.02-.05.01-.11.06-.13.07-.02.13.01.14.07M25.16 19.52c-.06.06-.11.09-.07.18l-.03.02-.17-.35.03-.02c.03.06.05.07.08.06.02-.01.04-.03.05-.04l.1-.09-.12-.25-.07.01c-.03 0-.06.01-.09.02-.05.03-.05.08-.03.13l-.03.02-.12-.26.03-.02c.07.08.13.08.22.07l.6-.05.11.12-.49.45zm.31-.53l-.37.04.1.22.27-.26z" fill="#f3cd2d"/><path d="M25.06 19.72l-.16-.35c.02.01.03.01.05.02l.11.33.04-.02c-.04-.08 0-.12.05-.17l.51-.48-.11-.12-.67.06c-.04 0-.07-.01-.1-.03.04.01.07.02.1.02l.67-.06.12.13-.5.48c-.07.06-.1.09-.07.18l-.04.01h.01-.01zm-.07-.3c-.01 0-.03-.01-.04-.03.02.01.03.02.04.03l.17-.15-.12-.25-.07.01c-.04.01-.07.01-.09.02-.06.03-.04.1-.03.12l-.03-.04c.01-.04.02-.07.05-.08.02-.01.05-.02.08-.02l.09-.01.12.26-.17.14z"/><path d="M25.71 20.39c-.06.05-.06.08-.02.15l-.03.02-.23-.32.03-.02c.05.07.08.07.14.03l.46-.34-.71.22-.02-.03.4-.61-.36.27c-.14.11-.15.13-.1.21l-.03.02-.16-.23.03-.02c.07.07.09.07.23-.03l.34-.25c.07-.05.06-.09.02-.15l.03-.02.19.26-.3.44.51-.16.18.26-.03.02c-.05-.06-.08-.08-.14-.03l-.43.31z" fill="#f3cd2d"/><path d="M25.65 20.55l-.23-.32c.02 0 .04.01.05.01l.18.31.03-.03c-.05-.06-.04-.1.02-.15l.42-.32c.06-.04.08-.04.12-.01-.02-.01-.04-.02-.05-.02l-.49.34c-.06.04-.06.08-.02.14l-.03.05zm-.12-.28c-.02 0-.04-.01-.05-.02.02.01.04.01.05.01l.5-.35-.43.33c-.02.02-.05.03-.07.03m-.18-.15l.03-.05.68-.19-.71.24zm.96-.05c-.02 0-.03-.01-.05-.01l-.15-.24-.5.16.29-.45-.03-.04.04.04-.3.45.5-.16.2.25zm-1.04-.12l-.04-.04c0-.06.03-.09.14-.17l.36-.27-.35.27c-.15.11-.16.12-.11.21m-.09-.17c-.02 0-.04-.01-.06-.02.07.02.08.03.2-.07l.34-.25c.07-.05.06-.08.02-.14l.04.04c0 .04-.01.07-.06.1l-.34.25c-.06.06-.1.09-.14.09"/><path d="M25.84 20.67c.06.05.09.05.14 0l.35-.4c.05-.06.05-.09-.01-.15l.02-.03.49.44-.08.2-.03-.01c.01-.12-.02-.26-.11-.34-.07-.07-.1-.04-.15.02l-.14.16.01.02c.08.07.13.09.23.03l.03.03-.21.24-.03-.03c.05-.1.03-.16-.05-.23l-.02-.02-.15.17c-.04.05-.07.08-.01.13.1.09.24.12.37.1l.01.03-.2.1-.49-.44.03-.02z" fill="#f3cd2d"/><path d="M26.3 21.15l-.49-.45h.05l.45.44.04-.02-.05.03zm.16-.12h-.05c-.08 0-.2-.02-.3-.1-.03-.03-.02-.11.01-.14l.15-.17c.07.06.1.1.11.16-.01-.05-.04-.09-.09-.13l-.16.16c-.03.03-.04.1-.01.13.12.11.26.11.37.1l-.03-.01zm-.55-.31c-.01 0-.03-.01-.05-.02.06 0 .07.01.11-.04l.35-.4c.02-.03.03-.05.03-.07 0-.02-.02-.04-.05-.07l.05.04c0 .01.01.02.01.03 0 .02-.01.05-.04.08l-.35.4c-.01.04-.04.05-.06.05m.8-.13c-.03-.08-.06-.15-.11-.19-.07-.07-.09-.04-.14.02l-.06.07.05-.07c.06-.06.08-.09.16-.02.05.03.08.1.1.19"/><path d="M27.09 21.45c-.01.09-.01.16.07.22l-.02.03-.23-.14c0-.03 0-.07.01-.1l.02-.15c.02-.15-.01-.19-.05-.21l-.13.21c-.04.07-.03.1.03.15l-.02.03-.33-.21.02-.03c.07.04.1.04.14-.03l.28-.45c.04-.06.03-.1-.04-.14l.02-.03.4.25c.14.09.17.22.11.32-.06.1-.18.1-.28.05.01.04.01.08.01.12l-.01.11zm-.16-.39c.15.1.23.08.29-.02.06-.09.02-.16-.07-.23-.06-.04-.08-.02-.11.04l-.12.2.01.01z" fill="#f3cd2d"/><path d="M27.14 21.71l-.23-.15v-.09l.02-.17c.02-.15-.01-.19-.05-.21l-.12.21c-.04.06-.03.09.03.14l-.06-.03c-.02-.04-.01-.07.01-.11l.13-.21c.05.02.08.06.06.22l-.02.15c-.01.04-.01.07-.01.1l.22.14.02-.02c-.08-.05-.07-.13-.07-.22l.01-.13c0-.05.01-.09-.01-.12.14.03.23.03.28-.06.06-.1.02-.22-.11-.31l-.09-.06.1.05c.13.08.18.22.12.32-.06.09-.17.11-.29.06.02.03.02.07.02.1l-.01.15c-.01.08-.01.16.06.22l-.01.03zm-.61-.45c-.01 0-.03 0-.04-.01h.04c.03 0 .04-.02.07-.05l.28-.45c.04-.06.03-.1-.03-.13l.06.03c.02.04.01.07-.02.11l-.28.45c-.02.03-.05.05-.08.05m.57-.14c-.05 0-.1-.02-.17-.06.08.03.13.05.17.06.05-.01.09-.04.12-.09.05-.09.03-.15-.07-.22l-.05-.02c-.02 0-.04.02-.06.05l-.05.08.04-.09c.02-.04.04-.06.07-.06l.05.02c.11.07.13.14.07.23-.03.08-.07.1-.12.1"/><path d="M27.55 21.14c.03-.07.02-.1-.06-.14l.01-.03.35.16-.01.03c-.07-.03-.11-.02-.14.05l-.2.49c-.03.07-.02.1.05.14l-.01.03-.35-.16.01-.03c.07.03.11.02.14-.05l.21-.49z" fill="#f3cd2d"/><path d="M27.54 21.87l-.36-.16.01-.01.34.16.01-.03c-.07-.03-.09-.07-.05-.14l.22-.48c.02-.05.05-.07.08-.07l.06-.01-.06.02c-.03 0-.05.02-.07.06l-.22.49c-.03.07-.02.1.05.13l-.01.04zm-.34-.17l.06-.02c.03 0 .05-.02.07-.06l.22-.48c.03-.07.02-.1-.05-.13l.06.02c.02.03.02.07 0 .11l-.22.48c-.02.05-.04.07-.08.07l-.06.01z"/><path d="M28.42 21.56h-.05c-.01-.12-.07-.25-.18-.29-.16-.05-.26.14-.3.26-.08.25.01.4.13.44.1.03.19-.02.27-.08l.02.03c-.11.1-.24.16-.39.11a.374.374 0 0 1-.23-.49c.07-.22.28-.39.5-.32.04.01.06.03.09.05.02.02.04.03.06.04.03.01.06 0 .08 0h.01l-.01.25z" fill="#f3cd2d"/><path d="M28.03 22.05c-.04 0-.07-.01-.11-.02-.2-.07-.3-.28-.24-.5.07-.23.3-.39.5-.32.04.01.07.03.09.05l.06.04v-.01h.08l-.08.01-.07-.04c-.02-.01-.05-.03-.09-.05-.2-.06-.42.08-.49.31-.07.21.04.42.23.49.1.03.19.02.28-.03-.04.06-.1.07-.16.07m-.13-.18c-.05-.08-.06-.19-.02-.34.02-.06.1-.27.25-.27.02.01.04.01.05.02h-.01c-.18 0-.26.2-.28.26-.04.14-.03.25.01.33"/><path d="M28.97 22.06c.01.08.01.14.11.16v.04l-.38-.06.01-.04c.07.01.09 0 .09-.03v-.07l-.02-.13-.27-.04-.03.06c-.01.03-.03.06-.04.09-.01.06.04.09.08.1l-.01.04-.29-.05v-.04c.11-.01.14-.06.18-.15l.3-.53.17-.03.1.68zm-.26-.57l-.18.33.24.04-.06-.37z" fill="#f3cd2d"/><path d="M29.07 22.25l-.38-.06.09-.07c-.01.04-.02.04-.05.04l.33.08v-.03c-.09-.01-.1-.07-.11-.14l-.1-.7-.16.03-.3.53c-.03.06-.06.1-.11.13.04-.03.06-.08.1-.13l.3-.53.17-.03.1.69c.01.09.02.14.11.16l.01.03zm-.56-.13h-.05c-.03-.02-.05-.05-.04-.09 0-.03.02-.06.04-.09l.03-.06.28.04.02.14c0 .03 0 .05-.01.06l-.02-.2-.27-.04-.03.06c-.01.03-.03.06-.04.09 0 .06.07.08.09.09"/><path d="M30.09 21.64l-.05.02c-.05-.1-.15-.21-.28-.2-.17.01-.19.22-.18.35.02.27.15.37.28.36.11-.01.17-.09.22-.17l.03.02c-.07.14-.16.23-.32.24-.22.01-.38-.16-.39-.37-.01-.23.12-.46.35-.47.04 0 .07 0 .1.01s.05.02.07.01c.03 0 .05-.02.08-.03l.01-.01.08.24z" fill="#f3cd2d"/><path d="M29.77 22.26c-.2 0-.36-.16-.37-.38-.01-.22.12-.46.36-.48.05-.02.08.01.1.01l.07.01c.03 0 .05-.01.07-.03v.01c-.03.02-.05.03-.07.03l-.07-.01c-.02-.01-.05-.01-.08-.01-.25.01-.38.25-.36.47.01.21.17.37.36.37v.01l.02-.01c.08-.01.15-.03.21-.09-.05.07-.13.1-.21.1h-.03zm.09-.09c-.13 0-.26-.1-.28-.36-.01-.17.04-.35.19-.36.09 0 .15.04.2.1a.265.265 0 0 0-.19-.09c-.2.01-.19.29-.19.35.02.26.15.36.26.36.12-.01.18-.08.23-.17 0 .03-.01.05-.02.07-.05.04-.11.09-.2.1z"/><path d="M30.24 22.16c.08-.02.1-.05.08-.12l-.12-.52c-.02-.07-.05-.09-.13-.07l-.01-.04.64-.15.11.18-.03.02a.389.389 0 0 0-.34-.1c-.09.02-.09.06-.07.14l.05.21h.02c.1-.03.15-.05.16-.17l.04-.01.07.31-.04.01c-.05-.1-.11-.12-.22-.09h-.02l.05.23c.01.06.03.1.11.08a.45.45 0 0 0 .29-.25l.03.01-.03.22-.64.15v-.04z" fill="#f3cd2d"/><path d="M30.25 22.2l-.01-.04c.04-.02.07-.03.08-.05.01-.02.01-.04 0-.08l-.12-.52c-.01-.06-.03-.08-.07-.08l.02-.01c.04.02.05.04.06.08l.12.52c.01.04.01.06 0 .08-.01.02-.04.03-.08.04l.01.03.64-.17v.04l-.65.16zm.34-.13c-.08 0-.09-.04-.1-.09l-.05-.23c.17-.06.17-.03.21.02-.06-.03-.09-.04-.18-.02l.03.23c.01.06.03.08.07.08.15-.03.25-.12.32-.25v.05c-.08.11-.18.18-.29.21h-.01m-.18-.49l-.03-.08c-.02-.08-.03-.12.07-.14.1-.01.17.01.24.04a.555.555 0 0 0-.17-.03c-.16.03-.15.06-.13.14l.02.07z"/><path d="M31.61 21.49l-.15-.34c-.04-.08-.07-.13-.17-.09l-.02-.04.26-.12.02.03c-.09.06-.08.1-.04.19l.24.56-.09.04-.65-.4.17.39c.05.11.07.13.18.1l.01.03-.28.13-.01-.03c.09-.06.09-.1.05-.19l-.2-.46c-.04-.02-.1-.03-.14-.02l-.01-.03.25-.11.58.36z" fill="#f3cd2d"/><path d="M31.1 21.99l-.02-.04c.09-.06.09-.1.05-.19l-.2-.46c-.03-.01-.06-.02-.1-.02l-.04-.03c.08.02.11.02.14.04l.2.47c.04.09.04.14-.06.2l.01.02.06-.03-.04.04zm.24-.15h-.04c-.06 0-.08-.04-.12-.12l-.17-.39.66.39.09-.04-.25-.55c-.03-.06-.04-.1-.01-.14-.01.05 0 .08.03.14l.24.56-.09.05-.66-.4.18.38c.05.11.05.13.18.1l-.04.02zm.28-.35l-.58-.35-.24.11-.01-.01.25-.11.58.36-.16-.33c-.03-.06-.05-.1-.1-.1l-.03-.02.03.01c.06 0 .08.04.11.11l.15.33z"/><path d="M32.13 20.5l.17.15-.03.03c-.09-.04-.23-.07-.32-.01l.35.52c.04.07.08.07.14.02l.02.03-.32.22-.02-.03c.06-.04.07-.08.03-.14l-.35-.52c-.08.07-.11.19-.1.3l-.04.01-.08-.21.55-.37z" fill="#f3cd2d"/><path d="M32.15 21.47l-.02-.03c.07-.05.07-.08.03-.14l-.35-.52c-.08.08-.1.2-.09.3l-.03-.04c.02-.09.04-.2.12-.26l.36.52c.04.06.04.11-.03.15l.01.02.07-.05-.07.05zm.23-.22c-.03 0-.05-.02-.08-.06l-.35-.52c.06-.05.15-.05.25-.02-.11 0-.19-.01-.24.02l.35.51c.04.06.07.07.14.02l-.04.04c-.01.01-.02.01-.03.01m-.78-.35l-.02-.03.54-.38.18.15h-.05l-.13-.15-.53.38.01.03z"/><path d="M33.06 20.46c.08.03.15.05.23-.01l.03.03-.19.19-.1-.03-.14-.05c-.15-.05-.18-.03-.22 0l.17.18c.06.05.09.05.15 0l.03.03-.28.28-.02-.03c.06-.05.06-.09 0-.15l-.37-.38c-.05-.05-.09-.05-.15 0l-.03-.03.33-.33c.12-.11.25-.12.33-.04.08.09.05.2-.01.29.04-.01.08.01.12.02l.12.03zm-.42.06c.13-.13.13-.21.05-.29-.08-.08-.15-.06-.23.02-.05.05-.03.07.01.12l.16.17.01-.02z" fill="#f3cd2d"/><path d="M32.73 21.06l-.03-.03c.06-.06.06-.09.01-.15l-.37-.38c-.05-.05-.08-.05-.14 0l.04-.04c.04-.01.07-.01.11.03l.37.38c.06.06.05.1-.01.15l.02.02.06-.06-.06.08zm.18-.26c-.02 0-.05-.01-.07-.04l-.17-.18c.04-.05.09-.06.22-.01l.24.09.04-.04-.04.05-.24-.09c-.12-.05-.18-.04-.21 0l.17.17c.05.06.08.06.14 0l-.04.04c-.02 0-.03.01-.04.01m-.26-.27c.13-.15.11-.22.04-.29-.07-.07-.14-.07-.22.02-.05.05-.04.06.01.11l.07.07-.07-.06c-.04-.05-.06-.07-.01-.13.09-.09.16-.1.24-.02.07.09.06.17-.06.3m.54-.04c-.04 0-.08-.01-.12-.02l-.13-.04a.292.292 0 0 0-.09-.02c0-.01.01 0 .02 0 .03 0 .05.01.07.02l.13.04c.08.02.16.04.22-.01l-.03.04c-.03-.02-.05-.01-.07-.01m-.33-.16c.02-.07.04-.15-.03-.23-.08-.08-.22-.07-.32.04l-.07.07.07-.08c.11-.11.25-.13.34-.04.06.08.04.18.01.24"/><path d="M33.62 19.74c.08.02.13.05.19-.03l.03.02-.22.31-.03-.02c.04-.06.04-.08.01-.1l-.06-.03-.13-.04-.16.23.04.06c.02.02.04.05.06.07.04.03.09 0 .12-.03l.03.02-.17.24-.03-.02c.03-.1 0-.15-.05-.23l-.34-.51.05-.16.66.22zm-.61-.01l.21.31.14-.2-.35-.11z" fill="#f3cd2d"/><path d="M33.34 20.45l-.03-.02c.03-.1 0-.15-.05-.23l-.34-.51.05-.16.66.21c.1.04.14.04.18-.03l-.03.05c-.05.02-.09.01-.15-.01l-.66-.22-.04.16.34.5c.06.09.08.14.05.24l.02.02.04-.05-.04.05zm.05-.22c-.07-.03-.09-.06-.11-.09l-.04-.06.16-.23.13.04c.02.01.04.02.05.03l-.18-.07-.16.23.04.06c.02.03.04.05.06.07.06.01.09 0 .11-.03l-.02.04c0 .01-.02.01-.04.01m-.17-.19l-.22-.32.36.12-.14.2z"/><path d="M33.82 19.66c.03-.07.02-.11-.04-.14l-.47-.24c-.07-.03-.1-.02-.14.05l-.03-.02.18-.35.03.02c-.03.07-.03.11.04.14l.47.24c.06.03.08.04.12-.03.06-.12.03-.26-.02-.38l.02-.02.17.16-.29.6-.04-.03z" fill="#f3cd2d"/><path d="M33.86 19.69l-.04-.02c.03-.08.02-.11-.04-.14l-.47-.24c-.08-.02-.11 0-.13.05l.02-.06c.02-.01.03-.02.05-.02l.53.26c.07.03.08.07.05.15l.02.01.29-.6-.03-.03.04.03-.29.61zm.07-.3l-.54-.26c-.05-.03-.07-.05-.07-.09.01.03.03.05.07.08l.47.24c.08.02.1.01.11-.03.05-.1.04-.23-.02-.38l.03.02c.04.15.04.26-.01.36 0 .04-.02.06-.04.06"/><path d="M33.9 18.55a.1.1 0 0 1 .13-.06.1.1 0 0 1 .06.13c-.02.05-.07.08-.13.07-.04-.03-.07-.09-.06-.14" fill="#f3cd2d"/><path d="M34 18.68h-.03c-.05-.02-.09-.08-.07-.13.01-.04.06-.07.1-.07.09.02.12.08.1.14-.01.03-.05.06-.1.06"/><path d="M25.01 17.55c.07-.05.13-.1.12-.2h.04l.04.27c-.03.02-.06.04-.08.06l-.13.09c-.13.09-.14.13-.13.18l.24-.04c.08-.01.1-.04.08-.12l.04-.01.06.39-.03.01c-.01-.08-.04-.1-.12-.09l-.52.08c-.08.01-.1.04-.08.12l-.04.01-.07-.47c-.03-.16.05-.28.16-.29.12-.02.19.08.23.18.02-.04.05-.06.09-.08l.1-.09zm-.19.38c-.03-.18-.1-.22-.21-.2-.11.02-.14.08-.12.2.01.07.04.07.1.06l.23-.04v-.02z" fill="#f3cd2d"/><path d="M24.5 18.3l-.07-.47c-.02-.16.04-.28.16-.3.13-.02.21.11.23.18.01-.04.04-.06.07-.08l.11-.08c.07-.05.13-.1.12-.19l.02.05c-.03.06-.08.1-.13.14l-.11.08c-.04.03-.07.05-.08.08-.03-.07-.09-.18-.2-.18-.14.02-.21.14-.18.29l.06.48.04-.01c-.01-.04-.01-.06.01-.08.01-.02.04-.03.08-.03l.52-.08c.05-.01.09.01.1.03a.09.09 0 0 0-.07-.03l-.55.09c-.04.01-.06.02-.07.03-.01.02-.01.04-.01.08h-.05zm.07-.3c-.06 0-.08-.02-.09-.07-.01-.07 0-.12.02-.16.02-.03.06-.04.1-.05h.04c.1 0 .15.06.17.21h-.01c-.03-.15-.08-.21-.16-.21l-.04.01c-.05.01-.08.02-.1.05-.02.03-.03.08-.02.15.01.05.02.06.05.06l.15-.02-.09.03h-.02m.3-.05c-.01-.05-.01-.1.12-.19l.12-.09c.04-.03.06-.04.08-.06l-.01-.04.01.05c-.02.02-.04.04-.06.05l-.13.1c-.13.09-.13.13-.13.18l.24-.05c.07-.01.09-.04.08-.12l.02.07c-.02.04-.04.05-.1.06l-.24.04z"/><path d="M25.13 17.32c0-.08-.02-.11-.1-.11l-.53-.02c-.08 0-.1.03-.1.11h-.04l.02-.67.21-.06.01.04c-.1.07-.18.18-.19.31 0 .1.03.1.11.1l.21.01v-.02c0-.11-.01-.16-.12-.2v-.04l.32.01v.04c-.11.03-.14.08-.14.19v.02l.23.01c.06 0 .11 0 .11-.08.01-.14-.07-.26-.16-.35l.03-.05.2.09-.03.66h-.04z" fill="#f3cd2d"/><path d="M25.17 17.32h-.04c0-.08-.02-.11-.1-.11l-.53-.02c-.05 0-.1.02-.1.1v-.07c.02-.03.05-.04.09-.04l.54.02c.08 0 .1.03.1.12h.03l.02-.66-.03-.01.04.01-.02.66zm-.12-.29l-.24-.01c0-.09.01-.15.05-.18a.38.38 0 0 0-.05.15l.22.03c.07 0 .1-.01.1-.07.01-.17-.1-.29-.16-.35l.04.01c.06.08.13.19.13.34 0 .07-.04.08-.09.08m-.51-.02c-.08 0-.12 0-.11-.11 0-.07.03-.15.09-.21-.05.07-.07.15-.08.21-.01.09.02.09.1.11l.08-.01-.08.01z"/><path d="M24.91 16.17l.22.05c.07.02.1 0 .12-.08l.04.01-.08.39-.04-.01c.02-.08 0-.11-.07-.13l-.51-.12c-.07-.02-.1 0-.12.08l-.03-.01.08-.39c.05-.24.17-.31.28-.29.2.04.17.24.14.39l-.03.11zm-.05-.01l.01-.06c.03-.13-.01-.2-.13-.23-.12-.03-.18.03-.2.13-.02.09.01.1.09.11l.23.05z" fill="#f3cd2d"/><path d="M25.21 16.54l-.04-.01c.01-.05 0-.07-.01-.09-.01-.02-.03-.03-.07-.04l-.51-.11c-.08 0-.1.02-.11.08l.01-.06a.09.09 0 0 1 .07-.03l.56.12c.04.01.06.02.07.04.01.02.01.05 0 .09l.03.01.01-.1-.01.1zm-.04-.31l-.27-.06.02-.1c.04-.17.05-.35-.14-.39-.15-.01-.23.1-.27.28l-.02.09.01-.09c.04-.19.13-.29.24-.29.24.05.22.23.18.4l-.02.09.22.04c.08 0 .1-.02.11-.08l-.01.06c0 .04-.02.05-.05.05m-.54-.12c-.07-.02-.11-.02-.09-.12.02-.09.07-.14.15-.14l.06.01c.12.03.16.1.13.23h-.01c.02-.15-.02-.2-.13-.22l-.05-.01c-.08 0-.12.04-.14.13-.02.09.01.1.08.12h.04-.04z"/><path d="M25.19 15.5c.18.08.26.04.3-.07.06-.15-.01-.23-.16-.29l-.35-.15c-.07-.03-.1-.01-.13.06l-.03-.01.1-.25.03.01c-.03.07-.02.11.05.14l.36.15c.18.07.24.19.16.39-.08.2-.21.27-.37.2l-.38-.16c-.07-.03-.1-.01-.13.06l-.03-.01.15-.37.03.01c-.03.07-.02.11.05.14l.35.15z" fill="#f3cd2d"/><path d="M25.26 15.71c-.04 0-.07-.01-.11-.02l-.38-.16c-.08-.01-.1.01-.13.06l.02-.06c.02-.02.04-.02.06-.02l.44.17c.16.06.29-.01.36-.2.04-.1.05-.18.02-.24-.03-.06-.08-.1-.17-.14l-.37-.16c-.04-.01-.06-.03-.07-.05-.01-.01-.01-.03 0-.05.01.02.01.03.01.05.01.02.03.03.06.05l.36.15c.09.04.15.09.18.15.03.07.02.15-.02.25-.06.14-.15.22-.26.22m.09-.17c-.04 0-.1-.01-.16-.04l-.36-.15c-.05-.02-.07-.04-.07-.08.01.03.03.05.07.07l.36.15c.07.03.12.04.16.05.06-.01.11-.04.14-.12.05-.13.01-.22-.16-.29l-.35-.15c-.09-.01-.11.01-.13.06l.01-.04c.02-.02.04-.02.06-.02l.41.16c.17.07.22.16.16.3-.02.07-.07.1-.14.1"/><path d="M25.63 15.14l-.03-.02c.04-.07.04-.1-.03-.14l-.44-.29c-.07-.04-.1-.03-.14.04l-.03-.02.21-.34c.15-.24.25-.24.34-.19.1.06.08.19.04.28.08-.09.19-.17.31-.09.11.07.13.2.01.38l-.24.39zm-.19-.55c.07-.12.07-.2-.03-.26s-.16-.02-.22.07c-.01.02-.03.05-.02.08.01.02.03.03.04.04l.2.13.03-.06zm.2.21c.08.05.11.08.17-.02.06-.09.06-.19-.06-.26-.08-.05-.16-.07-.27.1l-.03.05.19.13z" fill="#f3cd2d"/><path d="M25.64 15.14l-.04-.02c.04-.07.03-.11-.03-.15l-.44-.28c-.09-.02-.11-.01-.14.03l.03-.05c.02-.01.03-.01.05-.01l.07.03.44.28c.07.04.07.08.03.15l.02.01.25-.4c.1-.17.1-.29-.01-.37-.12-.07-.23.01-.31.09v-.01c.07-.09.19-.17.31-.09.12.08.12.21.02.38l-.25.41zm.1-.29c-.03 0-.05-.02-.09-.04l-.2-.13c.14-.24.19-.24.31-.17.14.09.11.19.07.27-.04.05-.07.07-.09.07m-.09-.37c-.06 0-.11.05-.17.14l.16.17c.09.05.11.07.17-.02.06-.1.04-.19-.06-.26-.04-.01-.07-.03-.1-.03m-.21.12c.06-.14.05-.2-.03-.26-.09-.05-.15-.04-.21.06-.01.01-.02.03-.02.05 0-.02.01-.04.01-.05.07-.1.14-.12.23-.06.09.05.1.13.02.26m-.31-.16l.04-.08c.13-.2.23-.26.34-.19.11.07.07.2.05.27.01-.07.04-.2-.06-.26-.11-.07-.21-.01-.33.19l-.04.07z"/><path d="M26.05 14.43c.05-.06.05-.1 0-.15l-.39-.36c-.06-.05-.09-.05-.15.01l-.03-.03.26-.29.03.03c-.05.06-.05.1 0 .15l.39.36c.05.04.07.06.12 0 .09-.1.1-.24.08-.37l.03-.01.11.2-.44.49-.01-.03z" fill="#f3cd2d"/><path d="M26.07 14.46l-.03-.03c.03-.04.04-.06.04-.08 0-.02-.01-.04-.04-.06l-.39-.36c-.06-.05-.08-.05-.14.01l.03-.05c.04-.02.07-.01.11.03l.39.36c.03.03.04.05.04.07 0 .02-.01.05-.04.08l.02.02.44-.49-.02-.03.03.03-.44.5zm.16-.27c-.02 0-.04-.02-.07-.04l-.39-.35c-.04-.04-.05-.07-.04-.1 0 .04.01.06.05.09l.39.36c.03.03.04.04.06.04.13-.12.16-.24.14-.41l.03.03c0 .15-.03.27-.1.34-.04.03-.05.04-.07.04"/><path d="M26.23 13.33c-.05-.06-.08-.06-.15-.01l-.02-.03.3-.25.02.03c-.06.05-.07.09-.02.15l.34.41c.05.06.09.06.15.01l.02.03-.3.25-.02-.03c.06-.05.06-.09.02-.15l-.34-.41z" fill="#f3cd2d"/><path d="M26.57 13.92l-.03-.03c.06-.06.06-.09.02-.15l-.34-.41c-.05-.06-.08-.06-.14-.01l.04-.04c.04-.01.07 0 .11.04l.34.41c.05.06.04.1-.02.15l.01.02.07-.06-.06.08zm.21-.24c-.03 0-.05-.01-.08-.05l-.33-.41c-.03-.04-.04-.07-.03-.1 0 .04 0 .06.03.1l.34.41c.05.06.08.06.14.01l-.04.04c-.01-.01-.02 0-.03 0"/><path d="M27.17 12.78l-.03.04c-.1-.06-.23-.11-.34-.04-.14.09-.06.29.01.4.14.23.31.25.41.18.09-.06.11-.16.11-.26h.04c.01.15-.03.28-.17.37-.18.12-.41.05-.52-.13-.12-.19-.11-.46.08-.59.03-.02.06-.03.09-.04.03-.01.05-.01.07-.02.02-.02.04-.04.05-.06l.01-.01.19.16z" fill="#f3cd2d"/><path d="M27.01 13.53c-.13 0-.26-.08-.33-.2-.12-.18-.12-.46.08-.59.04-.02.07-.03.09-.04l.07-.02c.02-.01.04-.04.05-.06-.01.03-.03.05-.05.06l-.07.02c-.03.01-.06.02-.09.04-.19.13-.19.4-.08.58.11.17.35.24.51.13a.4.4 0 0 0 .15-.19c-.01.08-.06.15-.14.19-.05.05-.12.08-.19.08m.1-.14c-.06 0-.19-.03-.31-.22-.09-.14-.14-.32-.01-.41.08-.05.19-.03.27 0-.09-.02-.19-.04-.26.01-.16.1-.02.34.01.39.19.3.33.23.41.18.09-.06.11-.16.11-.25.01.02.01.05.02.07-.02.07-.05.15-.12.19-.04.03-.08.04-.12.04"/><path d="M28.06 12.83c.05.06.08.11.18.08l.01.03-.36.15-.01-.03c.06-.03.07-.05.06-.08a.21.21 0 0 0-.04-.06l-.09-.1-.26.11V13c0 .03 0 .06.01.09.02.05.08.05.12.04l.01.03-.27.11-.01-.03c.08-.07.08-.13.08-.22l-.02-.61.13-.11.46.53zm-.51-.34l.01.38.22-.09-.23-.29z" fill="#f3cd2d"/><path d="M27.44 13.28l-.01-.04c.08-.07.08-.13.08-.22l-.02-.61.13-.11.44.54c.05.06.07.09.12.09l.04.02c-.09-.01-.12-.05-.15-.08l-.45-.55-.12.11.02.61c0 .1 0 .16-.08.23l.01.03.27-.11c-.09-.02-.12-.02-.14-.06-.01-.03-.01-.07-.01-.09v-.08l.26-.11.09.11.03.06-.12-.16-.25.11-.01.03c0 .03 0 .06.01.09s.04.04.07.04l.06.03-.27.12zm.12-.41l-.02-.4.24.3-.22.1z"/><path d="M28.57 12.83c.08-.01.1-.04.09-.11l-.06-.53c-.01-.08-.04-.1-.12-.09v-.03l.38-.04c.07-.01.13-.01.19.01.15.04.26.16.28.35.02.18-.07.32-.2.39-.06.03-.12.04-.19.05l-.38.04.01-.04zm.27-.15c.01.08.01.11.11.1.14-.02.23-.1.19-.4-.03-.27-.14-.33-.28-.31-.08.01-.08.04-.07.11l.05.5z" fill="#f3cd2d"/><path d="M28.57 12.87l-.01-.04c.08-.02.1-.04.09-.12l-.06-.53c-.01-.07-.03-.09-.08-.09l.04-.01c.04.02.05.05.05.09l.06.53c.01.08-.02.11-.1.12l.01.05v-.01l.38-.04c.08-.01.14-.02.18-.05.14-.07.21-.22.19-.39a.387.387 0 0 0-.28-.35.393.393 0 0 0-.19-.01l-.08.01.07-.02a.41.41 0 0 1 .48.37c.02.17-.06.32-.2.4a.74.74 0 0 1-.19.05l-.36.04zm.36-.08c-.09 0-.1-.03-.1-.1l-.06-.51c-.01-.07-.01-.11.08-.12h.04c.15 0 .22.1.25.32.03.26-.03.39-.2.41h-.01m-.03-.73l-.04.01c-.08.01-.08.03-.07.1l.06.51c.01.07.01.09.06.09.14-.01.26-.07.23-.4-.03-.21-.1-.3-.24-.31z"/><path d="M29.39 12.74c.08 0 .11-.02.11-.1l.04-.53c0-.08-.02-.1-.1-.11v-.04l.66.04.06.21-.03.01c-.07-.1-.17-.19-.3-.2-.1 0-.1.03-.1.11l-.01.22h.02c.11.01.16-.01.2-.12h.04l-.02.32h-.04c-.02-.11-.08-.14-.18-.15h-.02l-.01.23c0 .07 0 .11.08.11.14.01.26-.06.35-.15l.03.02-.1.2-.66-.04-.02-.03z" fill="#f3cd2d"/><path d="M30.04 12.83l-.66-.05c.02-.01.04-.02.05-.03l.6.07.02-.05-.01.06zm-.26-.06c-.11-.01-.11-.05-.11-.12l.02-.23c.09 0 .14.02.18.06-.04-.04-.09-.05-.15-.05l-.03.22c0 .06 0 .1.07.11.14 0 .25-.05.35-.15l-.01.05c-.11.06-.22.11-.32.11m-.33-.03c.03-.03.04-.05.05-.1l.04-.53c0-.07-.02-.1-.09-.1h.07c.03.02.04.05.04.1l-.04.53c-.02.06-.04.09-.07.1m.26-.56l-.01-.03c0-.08.01-.11.09-.11s.16.04.23.09c-.07-.04-.14-.08-.21-.08-.09 0-.09.03-.1.1v.03z"/><path d="M31.13 12.86l.12-.35c.03-.09.04-.14-.06-.18l.01-.03.27.09-.01.03c-.1-.02-.13.02-.16.11l-.19.58-.09-.03-.22-.74-.13.4c-.04.11-.03.14.07.2l-.01.03-.29-.1.01-.04c.1.02.13-.01.16-.1l.16-.48a.201.201 0 0 0-.09-.11l.01-.03.26.09.18.66z" fill="#f3cd2d"/><path d="M31.11 13.12l-.1-.03-.22-.74-.13.4c-.04.11-.03.14.07.19l-.06-.01c-.05-.06-.05-.09-.02-.18l.14-.4.23.74.08.03.19-.58c.02-.07.04-.11.1-.12-.06.03-.07.06-.09.12l-.19.58zm-.5-.2l-.19-.04.06-.04c.06 0 .08-.02.11-.1l.16-.48a.313.313 0 0 0-.09-.11l.04.01c.03.03.05.06.06.1l-.16.48c-.02.08-.05.11-.12.11l.13.07zm.52-.05l-.2-.66-.04-.02.05.01.19.67.11-.35c.03-.09.04-.14-.06-.18l.06.01c.04.05.03.1.01.17l-.12.35z"/><path d="M31.59 12.61c.03-.07.02-.1-.05-.14l.01-.03.35.18-.01.03c-.07-.04-.1-.03-.14.04l-.24.47c-.03.07-.02.1.05.14l-.02.03-.35-.18.02-.03c.07.04.1.03.14-.04l.24-.47z" fill="#f3cd2d"/><path d="M31.55 13.35l-.35-.18.05-.01.3.18.01-.03c-.07-.03-.09-.07-.05-.14l.24-.47c.02-.04.05-.07.08-.07l.02.01-.02.01c-.03 0-.05.02-.07.06l-.24.48c-.03.06-.02.1.05.13l-.02.03zm-.27-.19l-.02-.01.02-.01c.03 0 .05-.02.07-.06l.24-.48c.03-.07.02-.1-.05-.13l.06.02c.02.03.02.07-.01.11l-.24.47c-.01.07-.04.09-.07.09"/><path d="M32.47 13.26l-.05-.02c.02-.11.01-.26-.1-.33-.14-.09-.29.06-.36.17-.15.22-.1.39 0 .46.09.06.19.04.28 0l.01.03c-.14.07-.27.08-.4-.01-.18-.12-.21-.36-.09-.54.13-.19.38-.29.56-.16.03.02.05.05.07.07.02.02.03.04.05.05.02.02.05.02.08.03h.01l-.06.25z" fill="#f3cd2d"/><path d="M32.06 13.64a.33.33 0 0 1-.19-.06c-.18-.12-.21-.36-.09-.55.13-.2.4-.28.57-.16.03.02.05.05.07.07l.05.06c.02.02.05.02.08.02v.01c-.02-.01-.06-.01-.08-.02l-.05-.06c-.02-.02-.04-.05-.07-.07-.17-.11-.43-.03-.56.16a.38.38 0 0 0 .09.53c.1.07.2.08.31.04-.05.02-.09.03-.13.03m.03-.06c-.05 0-.09-.01-.13-.04-.11-.07-.15-.24 0-.46.08-.13.24-.25.36-.17.07.05.1.14.1.21-.02-.07-.04-.15-.11-.2-.12-.08-.27.04-.35.17-.14.21-.1.38 0 .45.08.06.19.03.28 0l-.03.03c-.03 0-.07.01-.12.01"/><path d="M32.78 14.11c-.04.07-.07.12 0 .19l-.03.03-.27-.27.03-.03c.05.05.07.05.1.03.02-.02.03-.04.03-.05l.06-.12-.2-.2-.06.03c-.03.01-.06.03-.08.05-.04.04-.02.09.01.13l-.03.03-.21-.21.03-.03c.09.05.15.03.23-.01l.55-.26.15.08-.31.61zm.1-.61l-.34.16.17.17.17-.33z" fill="#f3cd2d"/><path d="M32.74 14.33l-.27-.27h.05l.23.26.02-.02c-.07-.06-.04-.11-.01-.18l.32-.63-.15-.07-.54.26c-.08.04-.13.06-.2.03.03-.01.05 0 .06 0 .04 0 .08-.02.13-.04l.55-.26.15.08-.31.62c-.04.08-.07.13 0 .19l-.03.03zm-.17-.26c-.01 0-.02 0-.04-.02.02.01.03.01.04.02l.12-.2-.2-.19-.06.04c-.03.02-.06.03-.08.05-.05.05 0 .1.01.12l-.04-.03c-.01-.04-.01-.07.02-.1.02-.02.05-.03.07-.05l.07-.04.21.2-.12.2z"/><path d="M33.29 14.8c-.04.07-.07.14-.03.23l-.03.02-.15-.22c.01-.03.03-.06.05-.09l.08-.13c.08-.14.06-.18.04-.22l-.2.14c-.06.04-.07.08-.02.15l-.03.02-.22-.33.03-.02c.04.06.08.07.14.03l.43-.3c.06-.04.07-.08.02-.15l.03-.02.26.39c.09.14.08.27-.02.33-.1.07-.21.01-.28-.07 0 .04-.02.08-.04.12l-.06.12zm.01-.43c.1.15.18.16.28.1.09-.06.09-.14.02-.24-.04-.06-.07-.05-.12-.01l-.19.13.01.02z" fill="#f3cd2d"/><path d="M33.23 15.05l-.15-.22c.01-.03.02-.05.03-.07l.09-.16c.08-.13.06-.17.04-.21l-.19.14c-.06.04-.07.07-.02.14l-.04-.05c0-.04.02-.07.06-.1l.2-.14c.03.04.05.09-.03.22l-.08.13c-.03.05-.04.07-.05.09l.15.21.03-.02c-.05-.08-.01-.15.03-.23l.06-.12c.03-.05.04-.08.04-.11.11.09.2.11.28.06.1-.07.1-.2.02-.33l-.06-.09.07.08c.09.13.08.27-.02.34-.08.06-.19.03-.29-.06.01.04-.01.07-.03.1l-.07.13c-.04.07-.07.14-.03.22l-.04.05zm.24-.54c-.06 0-.12-.04-.18-.14.11.14.17.16.27.09.08-.06.09-.13.02-.23l-.05-.04-.14.09.14-.09.06.04c.07.11.06.18-.02.24-.03.02-.06.04-.1.04m-.59-.11c-.02 0-.04-.01-.05-.02.02 0 .03.01.05.02l.5-.34c.03-.02.05-.04.05-.06 0-.02 0-.04-.03-.08l.04.04V14c0 .02-.02.04-.05.07l-.43.3c-.04.02-.06.03-.08.03"/><path d="M33.69 15.69c-.06.05-.11.08-.08.18l-.03.01-.14-.36.03-.02c.03.06.05.07.08.06.02-.01.04-.02.05-.04l.1-.09-.1-.26h-.07c-.03 0-.06 0-.09.01-.05.02-.05.08-.04.12l-.03.01-.11-.27.03-.01c.07.08.13.08.22.08l.6-.02.11.13-.53.47zm.33-.51l-.37.01.09.22.28-.23z" fill="#f3cd2d"/><path d="M33.57 15.89l-.14-.36c.02.01.03.01.04.02l.11.33.03-.01c-.04-.08.01-.12.06-.17l.54-.45-.11-.12-.6.02c-.09 0-.13-.01-.17-.03.04.02.08.02.13.02l.64-.02.11.13-.53.45c-.07.06-.11.09-.08.17l-.03.02zm-.05-.31c-.02 0-.03-.01-.04-.03.02.01.03.02.04.02l.17-.13-.11-.25-.07.01a.2.2 0 0 0-.09.02c-.06.02-.04.1-.03.12l-.03-.05c.01-.04.02-.07.06-.08.02-.01.05-.01.08-.02h.09l.11.26-.18.13z"/><path d="M34.28 16.46l-.02-.03c.11-.13.17-.21.15-.3-.02-.1-.14-.19-.41-.14-.27.05-.35.16-.33.28.02.12.11.12.21.1.09-.02.09-.04.08-.13l.04-.01.07.37-.04.01c-.03-.09-.05-.09-.14-.08l-.16.03c-.02-.08-.02-.08-.05-.15a.442.442 0 0 1-.06-.16c-.05-.23.08-.41.31-.46.22-.04.47.06.52.3.01.03 0 .06 0 .09s-.01.05 0 .07c.01.03.03.06.05.08l-.22.13z" fill="#f3cd2d"/><path d="M34.03 16.61c-.02-.06-.04-.08-.07-.08l-.21.04c-.02-.07-.03-.08-.05-.14a.41.41 0 0 1-.07-.17c-.02-.11-.01-.22.05-.3.06-.08.15-.14.26-.16.2-.04.47.05.52.31.01.03 0 .05 0 .08v.08c0 .02.03.06.05.08l-.21.12c.01-.02.02-.04.03-.05l.18-.07c-.02-.01-.05-.05-.05-.08v-.07-.08c-.05-.25-.31-.34-.51-.3-.11.02-.2.08-.26.16-.05.08-.07.18-.05.29.01.06.03.1.06.16.03.07.04.07.06.15l.15-.04c.09-.02.11 0 .12.07l.04-.02-.01-.03.01.04-.04.01zm-.23-.23c-.08 0-.12-.03-.14-.11-.03-.14.08-.23.33-.28.31-.07.4.08.42.14.01.06-.01.12-.04.18.03-.07.05-.12.03-.18-.01-.05-.11-.19-.4-.13-.24.05-.35.14-.32.27.02.1.1.12.21.1.09-.02.09-.04.08-.12l.02.07c-.01.04-.03.05-.1.07-.04-.01-.06-.01-.09-.01"/><path d="M34 16.9c-.2 0-.25.07-.25.19 0 .16.1.21.26.21l.38-.01c.07 0 .1-.03.1-.11h.03l.01.27h-.03c0-.08-.03-.11-.1-.11H34c-.19 0-.29-.08-.3-.29 0-.22.09-.33.26-.33l.41-.01c.08 0 .1-.03.1-.11h.04l.01.4h-.04c0-.08-.03-.11-.1-.1H34z" fill="#f3cd2d"/><path d="M34.49 17.44c0-.07-.02-.1-.09-.1l-.4.01c-.21 0-.3-.1-.3-.3 0-.12.03-.21.08-.27.04-.05.11-.07.19-.07l.41-.01c.07 0 .09-.03.09-.1l.01.07c-.02.03-.05.05-.1.05l-.41.01c-.08 0-.14.02-.18.07-.05.05-.08.14-.08.26 0 .2.09.29.28.29l.4-.01c.08 0 .11.03.11.1h.03v-.03l.01.03h-.05zm-.48-.15c-.18 0-.26-.07-.27-.21 0-.06.01-.1.04-.13.04-.04.11-.06.22-.06l.38-.01c.05 0 .08.01.1.04-.02-.03-.05-.03-.09-.03l-.39.01c-.1 0-.17.02-.21.06-.03.03-.04.07-.04.12 0 .14.08.2.24.2l.4-.01c.07 0 .09-.03.09-.1l.01.06c-.02.04-.05.05-.1.05l-.38.01z"/><path d="M33.8 18.14c-.08.01-.14.01-.16.11l-.04-.01.06-.38.04.01c-.01.07 0 .09.03.09h.07l.13-.02.05-.28-.07-.03c-.03-.01-.06-.03-.09-.04-.06-.01-.08.04-.1.08l-.04-.01.05-.29.03.01c.01.1.06.14.15.18l.53.3.02.17-.66.11zm.55-.26l-.33-.19-.04.24.37-.05z" fill="#f3cd2d"/><path d="M33.64 18.26l-.04-.01.06-.39.02.05-.08.33.04.02-.01-.01c.02-.1.07-.1.15-.11l.69-.1-.03-.16-.52-.3a.285.285 0 0 1-.13-.11c.04.04.08.07.13.1l.53.31.03.17-.68.1c-.09.01-.14.02-.16.11zm.16-.29c-.03 0-.05 0-.06-.01l.19-.02.04-.27-.06-.03a.16.16 0 0 0-.08-.03c-.06.01-.08.06-.09.08v-.04c.02-.02.04-.05.08-.05.04.01.07.02.1.03l.07.04-.04.28-.15.02z"/></svg>