<svg xmlns="http://www.w3.org/2000/svg" viewBox="0 0 58.92 34.37"><path d="M18.96 2.35l21.49 13.46H23.89l17.26 17.26H18.96V2.35zM17.66 0v34.37h26.63L27.03 17.11h17.96L17.66 0z" fill="#22368f"/><path fill="#bc0030" d="M18.31 1.18v32.54h24.41L25.46 16.46h17.26z"/><path d="M24.41 15.59c2.68 0 4.86-2.17 4.86-4.86a5.279 5.279 0 0 1-2.18 2.57l-.42-.31.82-.61-.99-.25.52-.88-1.01.15.15-1.01-.88.52-.25-.99-.61.82-.62-.83-.25.99-.88-.52.15 1.01-1.01-.15.52.88-.99.25.82.61-.42.31a5.228 5.228 0 0 1-2.18-2.57 4.846 4.846 0 0 0 4.85 4.87M27.61 25.95l2.02-.86-2.02-.86 1.32-1.75-2.18.27.27-2.18-1.75 1.32-.86-2.02-.86 2.02-1.75-1.32.27 2.18-2.19-.27 1.33 1.75-2.03.86 2.03.86-1.33 1.76 2.19-.28-.27 2.19 1.75-1.33.86 2.03.86-2.03 1.75 1.33-.27-2.19 2.18.28z" fill="#fff"/></svg>