<svg xmlns="http://www.w3.org/2000/svg" viewBox="0 0 58.92 34.37"><path fill="#f3d02f" d="M0 0h58.92v34.37H0z"/><path fill="#192967" d="M0 0h29.46v14.73H0z"/><path fill="#fff" d="M26.17 0L0 13.08v1.65h3.29L29.46 1.65V0z"/><path fill="#fff" d="M0 0v1.65l26.17 13.08h3.29v-1.65L3.29 0z"/><path fill="#fff" d="M12.28 0h4.91v14.73h-4.91z"/><path fill="#fff" d="M0 4.91h29.46v4.91H0z"/><path fill="#bc0030" d="M0 5.89h29.46v2.95H0z"/><path fill="#bc0030" d="M13.26 0h2.95v14.73h-2.95zM9.82 9.82L0 14.73h2.2l9.82-4.91zM17.44 4.91h2.2L29.46 0h-2.2zM29.46 14.73v-1.1l-7.62-3.81h-2.2zM0 0v1.1l7.62 3.81h2.2z"/><path d="M17.19 7.37c0-1.36-1.1-2.46-2.46-2.46a2.45 2.45 0 0 0-2.45 2.46c0 1.36 1.1 2.46 2.45 2.46a2.471 2.471 0 0 0 2.46-2.46" fill="#192967"/><path fill="#f3d02f" d="M12.4 6.61h1.78l.55-1.7.55 1.7h1.79l-1.45 1.05.55 1.69-1.44-1.05-1.44 1.05.55-1.69zM13.33 11.96h1.07l.33-1.02.33 1.02h1.07l-.86.63.33 1.02-.87-.63-.87.63.33-1.02zM13.33 2.14h1.07l.33-1.02.33 1.02h1.07l-.86.63.33 1.02-.87-.63-.87.63.33-1.02zM4.74 7.05h1.07l.33-1.02.33 1.02h1.07l-.87.63L7 8.7l-.86-.63-.87.63.33-1.02zM21.92 7.05h1.07l.33-1.02.33 1.02h1.08l-.87.63.33 1.02-.87-.63-.86.63.33-1.02z"/></svg>