<svg xmlns="http://www.w3.org/2000/svg" viewBox="0 0 58.92 34.37"><path fill="#e8333c" d="M0 0h58.92v34.37H0z"/><path fill="#3d9546" d="M17.19 22.92h41.74v11.46H17.19z"/><path fill="#fff" d="M17.19 0h41.74v11.46H17.19zM11.4 5.93h1.85c.1 0 .18.08.18.17v.87c0 .1-.08.17-.18.17H11.4c-.1 0-.18-.08-.18-.17V6.1c-.01-.09.08-.17.18-.17"/><path d="M13.24 7.16H11.4c-.11 0-.2-.08-.2-.19V6.1c0-.1.09-.19.2-.19h1.85c.11 0 .2.08.2.19v.87c-.01.11-.1.19-.21.19M11.4 5.95c-.09 0-.17.07-.17.16v.87c0 .09.08.16.17.16h1.85c.09 0 .17-.07.17-.16V6.1c0-.09-.08-.16-.17-.16H11.4z" fill="#dc1f34"/><path d="M11.44 5.98h1.75c.1 0 .17.07.17.16v.8c0 .09-.08.16-.17.16h-1.75c-.1 0-.17-.07-.17-.16v-.8c0-.09.08-.16.17-.16" fill="#fff"/><path d="M13.2 7.11h-1.75c-.1 0-.19-.08-.19-.17v-.8c0-.09.08-.17.19-.17h1.75c.1 0 .19.08.19.17v.8c0 .09-.09.17-.19.17M11.44 6c-.09 0-.16.06-.16.14v.8c0 .08.07.15.16.15h1.75c.09 0 .16-.07.16-.15v-.8c.01-.08-.06-.14-.15-.14h-1.76z" fill="#dc1f34"/><path fill="#fff" d="M12.25 6.28l.1.01.01.05.08.04.07-.05.09.04-.08.05.02.06h.09v.09h-.07l-.04.05.08.06-.06.06-.08-.06-.1.02v.08l-.11.01-.02-.08-.09-.04-.06.06-.08-.04.05-.07-.06-.04h-.08l-.01-.11.09.01.05-.07-.06-.05.08-.06.07.05.1-.02z"/><path fill="#dc1f34" d="M12.23 6.81l-.01-.09-.09-.03-.04.05L12 6.7l.04-.08-.13-.02-.02-.13.1-.01.04-.06-.06-.03.09-.08.07.05.07-.02-.07.04-.07-.05-.08.06.07.03-.05.09-.1-.01.02.1.08-.01.06.04-.05.09.08.02.04-.06.11.04.02.08.1-.01-.02-.07.12-.03.09.05.05-.05-.1-.05.05-.06.08-.01-.01-.07-.09.02-.03-.08.09-.06-.08-.02-.06.05-.19-.08.09-.03.1.09.05-.06.1.05-.07.07.1.04.02.1-.09.01.05.09-.06.08-.09-.06-.1.03.02.06z"/><path d="M12.28 6.43c.06 0 .12.05.12.1s-.05.1-.12.1c-.07 0-.12-.04-.12-.1 0-.06.05-.1.12-.1" fill="#fff"/><path d="M12.28 6.64c-.07 0-.13-.05-.13-.11 0-.13.26-.13.26 0 0 .06-.06.11-.13.11m0-.2c-.06 0-.1.04-.1.08 0 .09.21.09.21 0a.11.11 0 0 0-.11-.08" fill="#dc1f34"/><path d="M11.55 6.03l-.17.15.17-.15zM11.67 6.03l-.17.15.17-.15zM11.78 6.03l-.17.15.17-.15zM11.9 6.03l-.17.15.17-.15zM12.01 6.03l-.17.15.17-.15zM12.12 6.03l-.17.15.17-.15zM12.24 6.03l-.17.15.17-.15zM12.35 6.03l-.17.15.17-.15zM12.46 6.03l-.17.15.17-.15zM12.58 6.03l-.17.15.17-.15zM12.69 6.03l-.17.15.17-.15zM12.8 6.03l-.17.15.17-.15zM12.35 6.03l-.17.15.17-.15zM12.92 6.03l-.17.15.17-.15zM13.03 6.03l-.17.15.17-.15zM13.14 6.03l-.17.15.17-.15zM13.26 6.03l-.17.15.17-.15zM13.09 6.03l.17.15-.17-.15zM12.97 6.03l.17.15-.17-.15zM12.86 6.03l.17.15-.17-.15zM12.75 6.03l.17.15-.17-.15zM12.63 6.03l.17.15-.17-.15zM12.52 6.03l.17.15-.17-.15zM12.41 6.03l.17.15-.17-.15zM12.29 6.03l.17.15-.17-.15zM12.18 6.03l.17.15-.17-.15zM12.07 6.03l.17.15-.17-.15zM11.95 6.03l.17.15-.17-.15zM11.84 6.03l.17.15-.17-.15zM12.29 6.03l.17.15-.17-.15zM11.73 6.03l.17.15-.17-.15zM11.61 6.03l.17.15-.17-.15zM11.5 6.03l.17.15-.17-.15zM11.38 6.03l.17.15-.17-.15zM11.55 6.89l-.17.15.17-.15zM11.67 6.89l-.17.15.17-.15zM11.78 6.89l-.17.15.17-.15zM11.9 6.89l-.17.15.17-.15zM12.01 6.89l-.17.15.17-.15zM12.12 6.89l-.17.15.17-.15zM12.24 6.89l-.17.15.17-.15zM12.35 6.89l-.17.15.17-.15zM12.46 6.89l-.17.15.17-.15zM12.58 6.89l-.17.15.17-.15zM12.69 6.89l-.17.15.17-.15zM12.8 6.89l-.17.15.17-.15zM12.35 6.89l-.17.15.17-.15zM12.92 6.89l-.17.15.17-.15zM13.03 6.89l-.17.15.17-.15zM13.14 6.89l-.17.15.17-.15zM13.26 6.89l-.17.15.17-.15zM13.09 6.89l.17.15-.17-.15zM12.97 6.89l.17.15-.17-.15zM12.86 6.89l.17.15-.17-.15zM12.75 6.89l.17.15-.17-.15zM12.63 6.89l.17.15-.17-.15zM12.52 6.89l.17.15-.17-.15zM12.41 6.89l.17.15-.17-.15zM12.29 6.89l.17.15-.17-.15zM12.18 6.89l.17.15-.17-.15zM12.07 6.89l.17.15-.17-.15zM11.95 6.89l.17.15-.17-.15zM11.84 6.89l.17.15-.17-.15zM12.29 6.89l.17.15-.17-.15zM11.73 6.89l.17.15-.17-.15zM11.61 6.89l.17.15-.17-.15zM11.5 6.89l.17.15-.17-.15zM11.38 6.89l.17.15-.17-.15zM3.96 5.88H5.8c.1 0 .18.08.18.17v.87c0 .1-.08.17-.18.17H3.96c-.1 0-.18-.08-.18-.17v-.87c-.01-.09.07-.17.18-.17" fill="#fff"/><path d="M5.8 7.11H3.96c-.11 0-.2-.08-.2-.19v-.87c0-.1.09-.19.2-.19H5.8c.11.01.2.09.2.19v.87c0 .11-.09.19-.2.19M3.96 5.89c-.09 0-.17.07-.17.16v.87c0 .09.08.16.17.16H5.8c.09 0 .17-.07.17-.16v-.87c0-.09-.08-.16-.17-.16H3.96z" fill="#dc1f34"/><path d="M4 5.93h1.75c.1 0 .17.07.17.16v.8c0 .09-.08.16-.17.16H4c-.1 0-.17-.07-.17-.16v-.8c0-.09.08-.16.17-.16" fill="#fff"/><path d="M5.76 7.06H4c-.1 0-.19-.08-.19-.17v-.8c0-.1.08-.17.19-.17h1.75c.1 0 .19.08.19.17v.8c.01.09-.08.17-.18.17M4 5.95c-.09 0-.16.06-.16.15v.8c0 .08.07.15.16.15h1.75c.09 0 .16-.07.16-.15v-.8c0-.08-.07-.15-.16-.15H4z" fill="#dc1f34"/><path fill="#fff" d="M4.81 6.23l.1.01.01.05.08.04.07-.05.08.04-.07.05.02.06h.09v.09h-.07l-.04.05.08.06-.06.06-.08-.06-.1.02v.08l-.11.01-.02-.08-.09-.04-.06.06-.08-.04.05-.07-.06-.04h-.08l-.01-.11.09.01.05-.07-.06-.05.08-.06.07.05.1-.02z"/><path fill="#dc1f34" d="M4.79 6.76l-.01-.09-.09-.03-.04.05-.1-.04.05-.08-.06-.03-.07.01-.02-.13.1-.01.04-.06-.06-.03.09-.08.07.05.07-.01-.07.03-.07-.05-.08.06.07.03-.05.09-.1-.01.02.1.07-.01.07.04-.05.09.08.02.04-.06.11.04.02.07h.1l-.02-.07.12-.04.08.06.05-.05-.09-.05.04-.06.09-.01-.01-.07-.1.02-.02-.08.09-.06-.08-.02-.06.05-.19-.08.09-.04.1.1.05-.06.1.05-.08.07.11.04.02.1-.1.01.06.09-.07.08-.09-.06-.09.03.02.06z"/><path d="M4.84 6.37c.06 0 .12.05.12.1 0 .06-.05.1-.12.1-.06 0-.12-.04-.12-.1 0-.05.05-.1.12-.1" fill="#fff"/><path d="M4.84 6.59c-.07 0-.13-.05-.13-.11 0-.13.26-.13.26 0 0 .06-.06.11-.13.11m0-.2c-.06 0-.1.04-.1.08 0 .1.21.09.21 0-.01-.04-.06-.08-.11-.08" fill="#dc1f34"/><path d="M4.11 5.98l-.17.15.17-.15zM4.23 5.98l-.17.15.17-.15zM4.34 5.98l-.17.15.17-.15zM4.45 5.98l-.17.15.17-.15zM4.57 5.98l-.17.15.17-.15zM4.68 5.98l-.17.15.17-.15zM4.79 5.98l-.17.15.17-.15zM4.91 5.98l-.17.15.17-.15zM5.02 5.98l-.17.15.17-.15zM5.14 5.98l-.17.15.17-.15zM5.25 5.98l-.17.15.17-.15zM5.36 5.98l-.17.15.17-.15zM4.91 5.98l-.17.15.17-.15zM5.48 5.98l-.17.15.17-.15zM5.59 5.98l-.17.15.17-.15zM5.7 5.98l-.17.15.17-.15zM5.82 5.98l-.17.15.17-.15zM5.65 5.98l.17.15-.17-.15zM5.53 5.98l.17.15-.17-.15zM5.42 5.98l.17.15-.17-.15zM5.31 5.98l.17.15-.17-.15zM5.19 5.98l.17.15-.17-.15zM5.08 5.98l.17.15-.17-.15zM4.97 5.98l.17.15-.17-.15zM4.85 5.98l.17.15-.17-.15zM4.74 5.98l.17.15-.17-.15zM4.63 5.98l.17.15-.17-.15zM4.51 5.98l.17.15-.17-.15zM4.4 5.98l.17.15-.17-.15zM4.85 5.98l.17.15-.17-.15zM4.28 5.98l.17.15-.17-.15zM4.17 5.98l.17.15-.17-.15zM4.06 5.98l.17.15-.17-.15zM3.94 5.98l.17.15-.17-.15zM4.11 6.84l-.17.15.17-.15zM4.23 6.84l-.17.15.17-.15zM4.34 6.84l-.17.15.17-.15zM4.45 6.84l-.17.15.17-.15zM4.57 6.84l-.17.15.17-.15zM4.68 6.84l-.17.15.17-.15zM4.79 6.84l-.17.15.17-.15zM4.91 6.84l-.17.15.17-.15zM5.02 6.84l-.17.15.17-.15zM5.14 6.84l-.17.15.17-.15zM5.25 6.84l-.17.15.17-.15zM5.36 6.84l-.17.15.17-.15zM4.91 6.84l-.17.15.17-.15zM5.48 6.84l-.17.15.17-.15zM5.59 6.84l-.17.15.17-.15zM5.7 6.84l-.17.15.17-.15zM5.82 6.84l-.17.15.17-.15zM5.65 6.84l.17.15-.17-.15zM5.53 6.84l.17.15-.17-.15zM5.42 6.84l.17.15-.17-.15zM5.31 6.84l.17.15-.17-.15zM5.19 6.84l.17.15-.17-.15zM5.08 6.84l.17.15-.17-.15zM4.97 6.84l.17.15-.17-.15zM4.85 6.84l.17.15-.17-.15zM4.74 6.84l.17.15-.17-.15zM4.63 6.84l.17.15-.17-.15zM4.51 6.84l.17.15-.17-.15zM4.4 6.84l.17.15-.17-.15zM4.85 6.84l.17.15-.17-.15zM4.28 6.84l.17.15-.17-.15zM4.17 6.84l.17.15-.17-.15zM4.06 6.84l.17.15-.17-.15zM3.94 6.84l.17.15-.17-.15zM7.25 8.43c-2.76 2.7-3.93 3.04-3.38 3.25s2.33-1.17 4.17-3.02c1.85-1.85 2.98-3.49 2.43-3.71-.55-.22-.29.61-3.22 3.48" fill="#fff"/><path d="M4 11.72a.59.59 0 0 1-.14-.02c-.09-.04-.13-.08-.14-.12-.02-.12.2-.3.68-.67.57-.45 1.53-1.21 2.83-2.48C8.82 6.87 9.48 5.91 9.82 5.4c.3-.44.37-.57.65-.46.08.03.13.09.14.17.1.5-.93 1.93-2.56 3.56-1.88 1.88-3.43 3.05-4.05 3.05m6.32-6.79c-.15 0-.24.14-.47.48-.35.51-1 1.47-2.59 3.02a31.152 31.152 0 0 1-2.84 2.48c-.44.35-.69.54-.67.65.01.04.04.07.12.1.04.01.08.02.13.02.61 0 2.16-1.16 4.03-3.04 1.63-1.63 2.66-3.05 2.56-3.54-.01-.07-.06-.12-.12-.15-.06-.01-.11-.02-.15-.02" fill="#dc1f34"/><path d="M4.93 10.39l.97.25c-.91.86-1.93 1.22-2.21 1.06-.3-.15.5-.5 1.24-1.31" fill="#fff"/><path d="M3.85 11.75c-.07 0-.14-.01-.18-.04a.134.134 0 0 1-.07-.08c-.01-.1.16-.24.42-.45.24-.2.57-.46.89-.81l.98.25c-.74.75-1.61 1.13-2.04 1.13m1.07-1.35c-.3.34-.64.61-.88.81-.24.2-.42.34-.41.42 0 .02.02.04.05.06.28.15 1.32-.23 2.2-1.06l-.96-.23z" fill="#dc1f34"/><path d="M4.93 10.49l.8.2c-.89.83-1.76 1.06-1.99.96-.23-.1.47-.38 1.19-1.16" fill="#fff"/><path d="M3.87 11.69c-.06 0-.11-.01-.14-.02l-.05-.06c-.01-.07.11-.16.32-.32.24-.18.57-.44.92-.81l.81.2c-.77.75-1.54 1.01-1.86 1.01m1.05-1.19c-.33.37-.66.62-.9.81-.18.14-.32.24-.31.3.07.05.11.05.16.05.32 0 1.07-.26 1.84-.98l-.79-.18zM7.52 8.65c.02-.09.02-.12.01-.14l.02.03.01-.04.01.07c.08.04.1.04.13.03.03-.01.05-.03.07-.04l.06-.05c.03-.05.03-.07.03-.11.01-.02.01-.08.01-.1h.03c0 .01-.01.07-.01.1s0 .05-.01.08l-.04.07c-.01.02-.03.03-.05.04-.02.02-.05.03-.07.04-.04.01-.06.01-.1.01l-.05-.04-.05.05zM7.2 8.91h-.04c-.01.01-.03.01-.05 0V8.9h-.06l.05-.03.04.01.06-.1c0-.02.01-.03.04-.05l.07-.04c.03-.01.06-.02.1-.02h.1c.03.01.06.01.09.03l.02.04v-.01c-.06-.02-.09-.03-.12-.03h-.1c-.03 0-.06.01-.09.01l-.16.17.02.01c.01.01.02.01.03.02M6.84 9.45l.04-.06s-.03-.03-.04-.06l-.03-.06.04-.07.17-.09.05-.05v.04l-.09.05.01.01-.15.09.06.14-.06.06zM6.46 9.81c-.04 0-.06-.03-.07-.06l-.01-.08c0-.03 0-.06.01-.09l.05-.06.16-.09h.1c.03.01.09.03.11.03l-.01.03c-.01 0-.08-.02-.1-.03l-.18.01.01.01c-.02.02-.03.04-.06.05l-.07.06h.01c0 .02-.01.05-.01.08v.08h.01c.02.01.03.04.05.06M6.13 10.15l-.05-.03.15-.04.07-.07v-.13l-.04-.04.04.04-.03-.02-.04-.07.11.16.03-.01.02.02.09-.04-.02.04-.07.02-.07-.04-.01.08zM5.6 10.51l-.02-.03c0-.04 0-.06-.01-.08l-.03-.15.12.13.09.04c.1 0 .12 0 .15-.01l.05-.05c.02-.09.02-.11.01-.14l-.04-.12.03.02.05.09c.01.03.01.06.01.09l-.03.07-.07.06c-.03.01-.06.01-.09.01-.01.01-.06.01-.08 0a.09.09 0 0 1-.07-.03l-.12-.09.03.08.01-.01c.01.03.01.05.01.08v.04z" fill="#dc1f34"/><path d="M4.14 11.46c-.06 0-.09-.01-.11-.01.03-.02.06-.01.11-.01.06-.01.08-.02.1-.04.02-.03.01-.04 0-.07-.03-.03-.02-.07-.01-.12.01-.05.04-.08.07-.1.02-.02.05-.02.09-.02.06.01.11.03.15.06l.07.06-.01-.01c.02.01.05.02.08.02-.02.03-.05.02-.09 0l-.08-.05c-.04-.02-.08-.04-.12-.05l-.09.02c-.02.02-.04.04-.05.08-.01.04-.01.07.01.09.02.04.02.06 0 .1a.19.19 0 0 1-.1.05h-.02m.88-.36a.337.337 0 0 1-.04-.12c-.01-.05-.01-.08-.03-.09a.435.435 0 0 0-.07-.06l-.01-.01.03.04c-.05.03-.07.04-.12.04-.06 0-.08-.02-.1-.05l-.06.17.05-.16.04-.03c.02.02.03.03.08.04.04 0 .05-.01.08-.02 0-.04 0-.05-.03-.06l.01-.03.07.04c.03.01.05.03.07.06.02.02.02.05.03.08.01.05.02.1.03.13.03-.01.04-.02.07-.03l.03-.07-.01-.01c0-.04 0-.07.03-.1.02-.02.05-.02.09-.02.06 0 .1-.02.12-.03-.01-.08-.02-.08-.06-.1-.04-.02-.06-.03-.11-.03l-.08.05c-.04.01-.1.01-.12-.02l.01-.05v.01c.02.04.06.05.09.04.03-.03.05-.04.09-.05.06 0 .08.02.11.03.04.02.07.03.09.07l-.03.08c-.03.02-.06.03-.11.04l-.09.02c-.02.02-.02.04-.02.08l-.03.11c-.04.01-.05.01-.1.01" fill="#dc1f34"/><path d="M10.39 6c1.22-2.11 2.03-3.91 1.81-4.01-.22-.1-1.4 1.53-2.62 3.64l.81.37z" fill="#fff"/><path d="M10.4 6.01l-.82-.37c1.18-2.07 2.32-3.67 2.6-3.67l.07.05c.09.3-.7 2.01-1.84 3.98l-.01.01zm1.81-3.98c-.32 0-1.46 1.62-2.61 3.6l.79.35c1.11-1.93 1.92-3.67 1.82-3.95z" fill="#dc1f34"/><path d="M10.31 5.96c1.18-2.04 1.99-3.76 1.81-3.84-.18-.08-1.28 1.51-2.46 3.54l.65.3z" fill="#fff"/><path d="M10.32 5.96l-.02-.01c1.1-1.9 1.91-3.57 1.83-3.8-.17-.08-1.18 1.32-2.46 3.52C10.7 3.84 11.91 2 12.13 2.11c.11.27-.68 1.92-1.81 3.85" fill="#dc1f34"/><path d="M10.11 4.9c-.14.24-.3.51-.44.76l.65.3c.15-.26.31-.52.44-.76l-.65-.3z" fill="#fff"/><path d="M10.32 5.98l-.66-.3.15-.28c.1-.17.2-.35.29-.5l.66.29c-.09.19-.2.38-.31.57l-.13.22zm-.22-1.07c-.07.15-.17.32-.27.49l-.15.27.63.27.12-.21c.11-.18.22-.37.31-.54l-.64-.28z" fill="#dc1f34"/><path d="M10.16 4.98c-.14.24-.24.42-.39.67l.49.22c.15-.26.26-.43.39-.67l-.49-.22z" fill="#fff"/><path d="M10.26 5.89l-.5-.23.14-.28c.08-.14.15-.27.24-.42l.5.22c-.08.17-.15.3-.23.43l-.15.28zm-.1-.9c-.07.15-.15.27-.23.41l-.15.26.47.2.15-.25c.08-.14.15-.26.24-.41l-.48-.21z" fill="#dc1f34"/><path fill="#fff" d="M10.51 5.25l-.32-.14-.28.49.32.15z"/><path d="M10.23 5.77l-.33-.16.28-.52.34.14-.29.54zm-.04-.65l-.27.49.3.12.28-.48-.31-.13z" fill="#dc1f34"/><path d="M10.51 5.25l-.6.35.6-.35z" fill="#fff"/><path fill="#dc1f34" d="M9.91 5.61l.6-.37.01.03z"/><path d="M10.23 5.75l-.04-.65.04.65z" fill="#fff"/><path fill="#dc1f34" d="M10.21 5.75l-.03-.65.06.65z"/><path d="M11.97 2.73l-.32-.15.32.15z" fill="#fff"/><path fill="#dc1f34" d="M11.97 2.75l-.32-.15.33.12z"/><path d="M11.93 2.34c-.05.01-.08.06-.07.1.01.04.06.07.11.06.05-.01.08-.06.07-.1-.01-.05-.06-.07-.11-.06" fill="#db001e"/><path d="M9.92 8.38c2.76 2.7 3.93 3.04 3.38 3.25-.55.22-2.33-1.17-4.17-3.02C7.28 6.76 6.14 5.12 6.7 4.9c.55-.22.28.61 3.22 3.48" fill="#fff"/><path d="M13.16 11.67c-.62 0-2.17-1.17-4.05-3.05-1.63-1.64-2.66-3.07-2.56-3.56.02-.08.07-.14.14-.17.28-.11.35.01.65.46.35.51 1 1.47 2.59 3.02 1.3 1.27 2.26 2.03 2.83 2.48.48.38.7.55.68.68-.01.05-.05.09-.14.12-.04.01-.08.02-.14.02M6.84 4.88a.44.44 0 0 0-.14.03c-.07.03-.11.08-.12.15-.1.49.92 1.91 2.55 3.54 2.02 2.02 3.66 3.22 4.16 3.02.08-.03.12-.06.12-.1.01-.11-.23-.3-.67-.65-.57-.45-1.53-1.21-2.83-2.48-1.59-1.56-2.25-2.51-2.6-3.03-.23-.34-.32-.48-.47-.48" fill="#dc1f34"/><path d="M12.24 10.34l-.97.25c.91.86 1.93 1.22 2.21 1.06.29-.15-.51-.5-1.24-1.31" fill="#fff"/><path d="M13.31 11.7c-.43 0-1.29-.39-2.05-1.1l.97-.28c.33.35.66.62.9.81.26.21.43.35.42.45 0 .03-.02.06-.07.08-.03.03-.09.04-.17.04m-1.08-1.35l-.95.26c.76.69 1.61 1.07 2.04 1.07.07 0 .13-.01.17-.03.03-.02.05-.04.05-.06.01-.08-.17-.22-.41-.42-.25-.21-.59-.47-.9-.82" fill="#dc1f34"/><path d="M12.24 10.44l-.8.2c.89.83 1.76 1.07 1.99.96.23-.1-.48-.38-1.19-1.16" fill="#fff"/><path d="M13.29 11.64c-.32 0-1.09-.26-1.86-.99l.8-.23c.36.38.69.63.93.81.21.16.33.25.32.32v.01l-.05.05c-.03.02-.08.03-.14.03m-1.06-1.19l-.78.21c.91.81 1.77 1.03 1.98.94.04-.09-.09-.19-.28-.33-.23-.18-.58-.45-.92-.82M9.63 8.59l-.04-.04-.04.03a.17.17 0 0 1-.1 0c-.02-.01-.06-.02-.08-.04a.22.22 0 0 1-.06-.05l-.04-.07-.01-.13.02-.04.02.17.09.1c.01.01.04.02.07.04.03.01.05.01.08.01l.05-.02c0-.03.01-.06.01-.08l.01.08.02.04zM10.04 8.83l-.19-.18v.01c-.03-.01-.06-.01-.09-.01h-.1c-.04.01-.06.01-.09.02h-.05l.01-.01c.06-.03.09-.04.13-.04h.1c.04 0 .07 0 .1.01l.07.06.01-.01.1.15zM10.34 9.4l-.1-.02.09-.18-.03-.03c-.08-.04-.11-.05-.13-.06l-.07-.04-.03-.07c-.07.01-.11.01-.14.01l-.02-.03h.02c.02 0 .07.01.08 0l.08-.05.03.1.23.16c.01.06 0 .08-.02.1l-.05.07.06.04zM10.73 9.78c0-.04.01-.06.02-.09l.01-.07c0-.03 0-.06-.01-.08l-.05-.07v.01c-.03-.01-.04-.02-.07-.04l-.07-.04v.02h-.1c-.02.01-.08.03-.1.03l-.01-.03c.02 0 .08-.02.1-.03h.1l.09.03c.02.02.03.03.06.04.03.03.05.06.06.07.01.03.01.06.01.09v.08a.3.3 0 0 1-.04.08M11.08 10.08l-.11-.01-.09-.07-.04-.11-.03.03-.03-.01.1-.14-.01.05v-.01.04l-.02.04.03.06.1.11.05.01.22-.08.03.04-.05-.02zM11.59 10.5l-.04-.07c0-.04 0-.07.01-.09l.04-.07h-.01l-.18.1.01.01c-.02.01-.07.01-.09 0-.02 0-.05 0-.08-.01l-.1-.13c0-.04 0-.07.01-.09l.03-.08.06-.02-.06.06v.04l-.01.07.02.07c.08.05.1.05.13.05h.07l.13-.05.07-.12v.03l.01-.02.01.01-.06.14-.02.08h.01l.04.09z" fill="#dc1f34"/><path d="M13.03 11.42c-.07-.02-.1-.02-.12-.05-.02-.05-.02-.07 0-.1s.02-.05.01-.1c-.01-.04-.03-.06-.05-.08l-.07-.02c-.05.01-.1.03-.13.05l-.08.05a.29.29 0 0 1-.14.03l.09-.19.01-.07-.04-.04-.03-.1c0 .04-.01.05-.08.06-.05 0-.07-.01-.09-.02-.01-.02-.01-.04-.01-.06-.03.02-.05.04-.07.06l-.03.09c-.01.03-.02.08-.03.11-.06.01-.08 0-.11-.01l-.03-.09c0-.05 0-.06-.03-.09-.01-.01-.03-.02-.07-.01a.335.335 0 0 1-.14-.04l-.03-.08c.03-.04.05-.05.09-.07.03-.02.06-.03.11-.04.05.01.06.02.08.04.05.02.09.02.1 0l.03-.03v.01c-.04.07-.09.08-.13.07l-.09-.07v.01c-.05 0-.07.02-.1.03-.04.02-.06.03-.08.06.04.06.08.07.12.08.05 0 .09 0 .11.02.03.03.03.05.03.1v.09l.01-.01c.03.01.04.02.09.02 0-.02.01-.07.01-.1.01-.06.02-.09.03-.1.02-.03.04-.05.07-.07l.04-.02.02-.02.02-.01-.05.1c.03 0 .04.01.08.01.05 0 .06-.01.08-.04l.01-.02.07.26-.02.09c-.01.02-.01.04-.03.06.01-.01.03-.01.06-.03l.09-.04-.01-.01c.04-.03.09-.05.13-.06.06 0 .09 0 .11.02.03.02.05.05.06.09.01.05.01.09-.01.12-.01.03-.02.04 0 .08.02.02.04.02.08.03.06 0 .09-.01.11-.01.02.05-.02.06-.05.06" fill="#dc1f34"/><path d="M6.77 5.95C5.55 3.83 4.74 2.04 4.96 1.93c.22-.1 1.4 1.53 2.62 3.64l-.81.38z" fill="#fff"/><path d="M6.76 5.96c-1.15-1.99-1.94-3.7-1.85-3.99l.07-.05c.28 0 1.42 1.6 2.61 3.65l-.83.39zM4.98 1.95c-.13.31.68 2.04 1.8 3.98l.8-.36c-1.18-2-2.33-3.62-2.6-3.62" fill="#dc1f34"/><path d="M6.85 5.91C5.67 3.87 4.86 2.15 5.04 2.07c.18-.08 1.28 1.5 2.46 3.54l-.65.3z" fill="#fff"/><path d="M6.84 5.92C5.72 3.98 4.93 2.33 5 2.09c.01-.01.03-.01.04-.01-.08.26.73 1.93 1.82 3.82l-.02.02zm.67-.32c-1.06-1.78-1.93-3.04-2.3-3.41.45.41 1.43 1.91 2.3 3.41" fill="#dc1f34"/><path d="M7.05 4.85c.15.23.3.51.45.76l-.65.3c-.15-.26-.31-.53-.44-.77l.64-.29z" fill="#fff"/><path d="M6.84 5.93l-.17-.3c-.09-.16-.19-.33-.27-.48l.65-.32c.12.17.23.36.33.54l.13.23-.67.33zm.2-1.08l-.63.3c.1.14.19.3.29.47l.16.27.63-.29-.14-.21c-.1-.18-.21-.37-.31-.54" fill="#dc1f34"/><path d="M7 4.93c.14.24.24.42.39.67l-.48.23c-.15-.26-.26-.44-.4-.68L7 4.93z" fill="#fff"/><path d="M6.9 5.84l-.14-.24c-.09-.15-.17-.28-.26-.44l.49-.24c.11.15.19.28.26.42l.15.26-.5.24zm.09-.9l-.47.22c.1.14.18.28.26.42l.13.22.47-.22-.15-.23c-.08-.14-.15-.26-.24-.41" fill="#dc1f34"/><path fill="#fff" d="M6.65 5.2l.32-.15.29.5-.33.15z"/><path d="M6.93 5.72l-.3-.51.33-.17.31.5-.34.18zm.03-.66l-.31.16.29.46.31-.14-.29-.48z" fill="#dc1f34"/><path d="M6.65 5.2l.61.35-.61-.35z" fill="#fff"/><path fill="#dc1f34" d="M7.27 5.54l-.63-.32.02-.03z"/><path d="M6.93 5.7l.04-.64-.04.64zM5.19 2.68l.32-.15-.32.15z" fill="#fff"/><path d="M5.23 2.29c.05.01.08.06.07.1-.01.05-.06.07-.11.06-.05-.01-.08-.06-.07-.1.01-.05.06-.07.11-.06" fill="#db001e"/><path d="M5.21 2.47h-.03c-.04-.02-.09-.08-.08-.13.01-.04.06-.07.1-.07.09.02.13.08.11.13-.01.04-.05.07-.1.07" fill="#dc1f34"/><path d="M7.75 4.87c0 1.77.01 2.44-.12 2.53-.12.1-3.57 0-3.57.51S6.9 8.92 7.75 8.92c1.14 0 1.7-.51 1.7-1.52V4.87h-1.7z" fill="#fff"/><path d="M7.75 8.93c-.83 0-3.71-.5-3.71-1.03 0-.37 1.66-.43 2.75-.46.42-.01.79-.03.82-.05.12-.08.11-.69.11-2.18v-.34l1.72-.01.03 2.54c0 1.02-.58 1.53-1.72 1.53m1.69-4.06l-1.69.01.01.33c0 1.53 0 2.11-.13 2.2-.03.03-.31.04-.83.06-1.02.04-2.73.1-2.73.43 0 .48 2.76 1 3.68 1 1.12 0 1.69-.51 1.69-1.51V4.87z" fill="#dc1f34"/><path d="M7.75 5.37v.25c.57.08 1.14.08 1.7 0v-.25c-.57.09-1.13.09-1.7 0" fill="#fff"/><path d="M8.6 5.7c-.28 0-.57-.02-.85-.06l-.02-.27c.6.06 1.15.07 1.71-.01l.02.27c-.29.05-.58.07-.86.07m-.85-.31l.02.24c.53.05 1.12.07 1.68-.02l-.01-.24c-.54.12-1.13.1-1.69.02" fill="#dc1f34"/><path d="M7.75 4.87v.25c.57.08 1.14.08 1.7 0v-.25c-.57.08-1.13.08-1.7 0" fill="#fff"/><path d="M8.6 5.2c-.28 0-.57-.02-.85-.06l-.02-.27c.6.05 1.15.07 1.71-.01l.02.27c-.29.05-.58.07-.86.07m-.85-.32l.02.24c.53.06 1.12.07 1.68-.01l-.01-.24c-.54.11-1.13.1-1.69.01" fill="#dc1f34"/><path d="M7.75 5.12v.25c.57.09 1.14.09 1.7 0v-.25c-.57.08-1.13.08-1.7 0" fill="#fff"/><path d="M8.6 5.45c-.28 0-.57-.02-.85-.06l-.02-.27c.6.05 1.15.07 1.71-.02l.02.27c-.29.06-.58.08-.86.08m-.85-.32l.02.24c.53.06 1.12.07 1.68-.01l-.01-.24c-.54.11-1.13.1-1.69.01" fill="#dc1f34"/><path d="M7.75 5.63v.25c.57.08 1.14.08 1.7 0v-.25c-.57.08-1.13.08-1.7 0" fill="#fff"/><path d="M8.6 5.96c-.28 0-.57-.02-.85-.06l-.02-.27c.6.05 1.15.07 1.71-.01l.02.27c-.29.05-.58.07-.86.07m-.85-.32l.02.24c.53.06 1.12.07 1.68-.01l-.01-.24c-.54.11-1.13.1-1.69.01" fill="#dc1f34"/><path d="M7.83 5.21c.04 0 .08.03.08.06s-.03.05-.08.05c-.04 0-.08-.02-.08-.05 0-.04.03-.06.08-.06M8.14 5.24c.04 0 .08.03.08.06s-.03.05-.08.05c-.04 0-.08-.02-.08-.05 0-.04.03-.06.08-.06M8.45 5.26c.04 0 .08.03.08.06s-.03.05-.08.05c-.04 0-.08-.02-.08-.05 0-.03.03-.06.08-.06M8.76 5.26c.04 0 .08.03.08.06s-.04.05-.08.05-.08-.02-.08-.05c0-.03.03-.06.08-.06M9.06 5.24c.04 0 .08.03.08.06s-.03.05-.08.05c-.04 0-.08-.02-.08-.05.01-.04.04-.06.08-.06M9.37 5.21c.04 0 .08.03.08.06s-.03.05-.08.05c-.04 0-.08-.02-.08-.05.01-.04.04-.06.08-.06M7.75 6.13l1.7 1.37-1.7-1.37z" fill="#fff"/><path fill="#dc1f34" d="M9.46 7.49L7.74 6.14l.02-.02z"/><path d="M7.92 6.13l1.53 1.22-1.53-1.22z" fill="#fff"/><path fill="#dc1f34" d="M9.46 7.34l-1.55-1.2.02-.02z"/><path d="M8.15 6.18l1.3 1.02-1.3-1.02z" fill="#fff"/><path fill="#dc1f34" d="M9.46 7.19L8.14 6.2l.01-.03z"/><path d="M8.32 6.18l1.14.86-1.14-.86z" fill="#fff"/><path fill="#dc1f34" d="M9.46 7.03L8.31 6.2l.01-.03z"/><path d="M8.49 6.18l.97.71-.97-.71z" fill="#fff"/><path fill="#dc1f34" d="M9.46 6.88l-.98-.69.02-.02z"/><path d="M8.66 6.18l.79.56-.79-.56z" fill="#fff"/><path fill="#dc1f34" d="M9.46 6.73l-.81-.53.02-.03z"/><path d="M8.83 6.18l.62.41-.62-.41z" fill="#fff"/><path fill="#dc1f34" d="M9.46 6.58l-.64-.39.02-.02z"/><path d="M9 6.18l.45.31L9 6.18zM9.17 6.18l.28.2-.28-.2zM9.34 6.18l.11.1-.11-.1zM7.75 6.28l1.7 1.37-1.7-1.37z" fill="#fff"/><path fill="#dc1f34" d="M9.46 7.64L7.74 6.3l.02-.03z"/><path d="M9.45 6.13L7.58 7.65l1.87-1.52z" fill="#fff"/><path fill="#dc1f34" d="M7.59 7.66l1.85-1.54.02.02z"/><path d="M9.28 6.13L7.64 7.45l1.64-1.32z" fill="#fff"/><path fill="#dc1f34" d="M7.64 7.46l1.63-1.34.02.02z"/><path d="M9.05 6.18L7.75 7.2l1.3-1.02z" fill="#fff"/><path fill="#dc1f34" d="M7.76 7.21l1.29-1.04.01.02z"/><path d="M8.88 6.18l-1.13.86 1.13-.86z" fill="#fff"/><path fill="#dc1f34" d="M7.76 7.06l1.12-.89.01.03z"/><path d="M8.71 6.18l-.96.71.96-.71z" fill="#fff"/><path fill="#dc1f34" d="M7.76 6.9l.95-.73.01.03z"/><path d="M8.54 6.18l-.79.56.79-.56z" fill="#fff"/><path fill="#dc1f34" d="M7.76 6.75l.77-.58.02.02z"/><path d="M8.37 6.18l-.62.41.62-.41z" fill="#fff"/><path fill="#dc1f34" d="M7.76 6.6l.6-.43.02.03z"/><path d="M8.2 6.18l-.45.31.45-.31zM8.03 6.18l-.28.2.28-.2zM7.86 6.18l-.11.1.11-.1zM9.45 6.28L7.58 7.8l1.87-1.52z" fill="#fff"/><path fill="#dc1f34" d="M7.59 7.82l1.85-1.54.02.02z"/><path d="M9.45 6.44L7.58 7.96l1.87-1.52z" fill="#fff"/><path fill="#dc1f34" d="M7.59 7.97l1.85-1.54.02.02z"/><path d="M9.45 6.59L7.58 8.11l1.87-1.52z" fill="#fff"/><path fill="#dc1f34" d="M7.59 8.12l1.85-1.54.02.02z"/><path d="M9.45 6.74L7.58 8.26l1.87-1.52z" fill="#fff"/><path fill="#dc1f34" d="M7.59 8.27l1.85-1.54.02.02z"/><path d="M9.45 6.89L7.58 8.41l1.87-1.52z" fill="#fff"/><path fill="#dc1f34" d="M7.59 8.42l1.85-1.54.02.02z"/><path d="M9.45 7.04L7.58 8.56l1.87-1.52z" fill="#fff"/><path fill="#dc1f34" d="M7.59 8.58l1.85-1.55.02.03z"/><path d="M9.45 7.2L7.58 8.72 9.45 7.2z" fill="#fff"/><path fill="#dc1f34" d="M7.59 8.73l1.85-1.54.02.02z"/><path d="M9.45 7.35L7.58 8.87l1.87-1.52z" fill="#fff"/><path fill="#dc1f34" d="M7.59 8.88l1.85-1.54.02.02z"/><path d="M9.45 7.5L7.69 8.92 9.45 7.5z" fill="#fff"/><path fill="#dc1f34" d="M7.7 8.93l1.74-1.44.02.02z"/><path d="M9.45 7.65L7.86 8.92l1.59-1.27z" fill="#fff"/><path fill="#dc1f34" d="M7.87 8.93l1.57-1.29.02.02z"/><path d="M9.4 7.86L8.15 8.87 9.4 7.86z" fill="#fff"/><path fill="#dc1f34" d="M8.15 8.88l1.24-1.04.01.02z"/><path d="M9.34 8.06l-1.02.81 1.02-.81z" fill="#fff"/><path fill="#dc1f34" d="M8.33 8.88l1-.83.02.02z"/><path d="M9.23 8.31l-.52.41.52-.41zM7.75 6.44L9.4 7.76 7.75 6.44z" fill="#fff"/><path fill="#dc1f34" d="M9.4 7.74L7.74 6.45l.02-.02z"/><path d="M7.75 6.59L9.4 7.91 7.75 6.59z" fill="#fff"/><path fill="#dc1f34" d="M9.4 7.89L7.74 6.6l.02-.02z"/><path d="M7.75 6.74l1.59 1.27-1.59-1.27z" fill="#fff"/><path fill="#dc1f34" d="M9.35 8L7.74 6.75l.02-.02z"/><path d="M7.75 6.89l1.59 1.27-1.59-1.27z" fill="#fff"/><path fill="#dc1f34" d="M9.35 8.15L7.74 6.9l.02-.02z"/><path d="M7.75 7.04l1.53 1.22-1.53-1.22z" fill="#fff"/><path fill="#dc1f34" d="M9.29 8.25L7.74 7.06l.02-.03z"/><path d="M7.69 7.15l1.53 1.22-1.53-1.22z" fill="#fff"/><path fill="#dc1f34" d="M9.23 8.35L7.68 7.16l.02-.03z"/><path d="M7.69 7.3l1.42 1.11L7.69 7.3z" fill="#fff"/><path fill="#dc1f34" d="M9.12 8.4L7.68 7.31l.02-.02z"/><path d="M7.64 7.4l1.42 1.12L7.64 7.4z" fill="#fff"/><path fill="#dc1f34" d="M9.06 8.5L7.63 7.41l.01-.02z"/><path d="M7.58 7.5l1.36 1.06L7.58 7.5z" fill="#fff"/><path fill="#dc1f34" d="M8.95 8.55L7.57 7.51l.02-.02z"/><path d="M7.58 7.65l1.31 1.01-1.31-1.01z" fill="#fff"/><path fill="#dc1f34" d="M8.89 8.65l-1.32-.99.02-.02z"/><path d="M7.58 7.8l1.14.91-1.14-.91z" fill="#fff"/><path fill="#dc1f34" d="M8.72 8.7l-1.15-.88.02-.03z"/><path d="M7.75 5.88v.25c.57.08 1.14.08 1.7 0v-.25c-.57.08-1.13.08-1.7 0" fill="#fff"/><path d="M8.6 6.21c-.28 0-.57-.02-.85-.06l-.02-.27c.6.05 1.15.07 1.71-.02l.02.27c-.29.06-.58.08-.86.08m-.85-.32l.02.24c.53.06 1.12.07 1.68-.01l-.01-.24c-.54.11-1.13.1-1.69.01" fill="#dc1f34"/><path d="M7.58 7.96l1.02.81-1.02-.81z" fill="#fff"/><path fill="#dc1f34" d="M8.61 8.76l-1.04-.79.02-.03z"/><path d="M7.58 8.11l.91.71-.91-.71z" fill="#fff"/><path fill="#dc1f34" d="M8.5 8.8l-.93-.68.02-.02z"/><path d="M7.58 8.26l.79.61-.79-.61z" fill="#fff"/><path fill="#dc1f34" d="M8.38 8.86l-.81-.59.02-.02z"/><path d="M7.58 8.41l.57.46-.57-.46z" fill="#fff"/><path fill="#dc1f34" d="M8.15 8.86l-.58-.44.02-.02z"/><path d="M7.58 8.56l.45.35-.45-.35zM7.58 8.72l.28.2-.28-.2zM7.83 5.97c.04 0 .08.03.08.06s-.03.05-.08.05c-.04 0-.08-.02-.08-.05 0-.04.03-.06.08-.06M8.14 6c.04 0 .08.03.08.06s-.03.05-.08.05c-.04 0-.08-.02-.08-.05 0-.04.03-.06.08-.06M8.45 6.02c.04 0 .08.03.08.06s-.03.05-.08.05c-.04 0-.08-.02-.08-.05 0-.03.03-.06.08-.06M8.76 6.02c.04 0 .08.03.08.06s-.04.05-.08.05-.08-.02-.08-.05c0-.03.03-.06.08-.06M9.06 6c.04 0 .08.03.08.06s-.03.05-.08.05c-.04 0-.08-.02-.08-.05.01-.04.04-.06.08-.06M9.37 5.97c.04 0 .08.03.08.06s-.03.05-.08.05c-.04 0-.08-.02-.08-.05.01-.04.04-.06.08-.06M5.31 8.51l2.04-1.06-2.04 1.06z" fill="#fff"/><path fill="#dc1f34" d="M5.31 8.53L5.3 8.5l2.04-1.06z"/><path d="M5.19 8.46l1.93-1.01-1.93 1.01z" fill="#fff"/><path fill="#dc1f34" d="M5.2 8.48l-.01-.03 1.93-1.01z"/><path d="M5.14 8.36l1.76-.91-1.76.91z" fill="#fff"/><path fill="#dc1f34" d="M5.14 8.37l-.01-.02 1.76-.91z"/><path d="M5.08 8.26l1.53-.81-1.53.81z" fill="#fff"/><path fill="#dc1f34" d="M5.09 8.27l-.02-.02 1.54-.81z"/><path d="M4.97 8.16l1.42-.71-1.42.71z" fill="#fff"/><path fill="#dc1f34" d="M4.97 8.17l-.01-.02 1.42-.71z"/><path d="M5.02 8.01l.97-.51-.97.51z" fill="#fff"/><path fill="#dc1f34" d="M5.03 8.02l-.01-.03.96-.5z"/><path d="M4.97 7.91l.73-.41-.73.41z" fill="#fff"/><path fill="#dc1f34" d="M4.97 7.92l-.01-.03.74-.4z"/><path d="M4.97 7.75l.51-.25-.51.25zM5.48 8.56l1.93-1.01-1.93 1.01z" fill="#fff"/><path fill="#dc1f34" d="M5.48 8.58l-.01-.03L7.4 7.54z"/><path d="M5.65 8.61l1.82-.96-1.82.96z" fill="#fff"/><path fill="#dc1f34" d="M5.65 8.63l-.01-.03 1.82-.96z"/><path d="M5.82 8.67l1.7-.91-1.7.91z" fill="#fff"/><path fill="#dc1f34" d="M5.82 8.68l-.01-.03 1.71-.91z"/><path d="M5.99 8.72l1.42-.76-1.42.76z" fill="#fff"/><path fill="#dc1f34" d="M5.99 8.73l-.01-.03 1.42-.76z"/><path d="M6.21 8.72l1.25-.66-1.25.66z" fill="#fff"/><path fill="#dc1f34" d="M6.22 8.73l-.01-.03 1.25-.66z"/><path d="M6.38 8.77l1.08-.56-1.08.56z" fill="#fff"/><path fill="#dc1f34" d="M6.39 8.78l-.01-.03 1.08-.55z"/><path d="M6.56 8.82l.85-.46-.85.46z" fill="#fff"/><path fill="#dc1f34" d="M6.56 8.83l-.01-.03.85-.45z"/><path d="M6.78 8.82l.68-.35-.68.35z" fill="#fff"/><path fill="#dc1f34" d="M6.79 8.83l-.01-.03.68-.35z"/><path d="M7.01 8.87l.45-.25-.45.25zM7.24 8.87l.28-.15-.28.15zM7.64 7.4h-.29c-.09.51-.09 1.01 0 1.52h.29c-.1-.51-.1-1.01 0-1.52" fill="#fff"/><path d="M7.65 8.93h-.3c-.11-.51-.11-1.03-.01-1.53l.3-.01c-.08.51-.08 1.02.01 1.53v.01zM7.62 7.4l-.27.01c-.08.49-.08 1 .01 1.5l.26-.01c-.09-.5-.09-1 0-1.5" fill="#dc1f34"/><path d="M4.28 8.11l.69-.51-.69.51z" fill="#fff"/><path fill="#dc1f34" d="M4.29 8.12l-.02-.02.69-.51z"/><path d="M4.28 7.75l.68.61-.68-.61z" fill="#fff"/><path fill="#dc1f34" d="M4.97 8.35l-.7-.58.02-.03z"/><path d="M5.31 7.5l-.34.05c-.08.32-.08.59 0 .91l.34.1a2.37 2.37 0 0 1 0-1.06" fill="#fff"/><path d="M5.33 8.58l-.37-.1a1.73 1.73 0 0 1-.01-.93l.35-.06c-.05.33-.05.75.02 1.07l.01.02zM5.29 7.5l-.32.07c-.07.3-.07.57.01.89l.31.09a2.65 2.65 0 0 1 0-1.05" fill="#dc1f34"/><path d="M9.45 4.97v-.26c-.26 0-.43-.15-.43-.3h-.85c0 .15-.17.3-.43.3v.25h1.71z" fill="#fff"/><path d="M9.47 4.98H7.75l-.02-.27c.27-.01.43-.16.43-.3l.87-.02c.01.09.05.16.12.21.08.07.18.1.3.1l.02.28zm-.46-.57l-.84.02c.01.14-.15.3-.42.3l.01.24 1.67-.02v-.24a.44.44 0 0 1-.3-.08.276.276 0 0 1-.12-.22" fill="#dc1f34"/><path fill="#fff" d="M8.23 4.11h.73v.3h-.73z"/><path d="M8.98 4.43h-.75l-.01-.32.74-.01.02.33zm-.03-.32l-.72.01.01.29.7-.01v-.29z" fill="#dc1f34"/><path fill="#fff" d="M8.3 3.8h.61v.3H8.3z"/><path d="M8.92 4.12H8.3l-.02-.32.62-.01.02.33zm-.03-.32l-.59.02.01.29.58-.01v-.3z" fill="#dc1f34"/><path fill="#fff" d="M8.3 3.5h.61v.3H8.3z"/><path d="M8.92 3.82H8.3l-.02-.32.62-.02.02.34zm-.03-.32l-.59.01.01.29.58-.01V3.5z" fill="#dc1f34"/><path fill="#fff" d="M8.36 3.09h.49v.4h-.49z"/><path d="M8.86 3.51h-.5l-.02-.41.5-.02.02.43zm-.03-.41l-.47.01.01.39.46-.01V3.1z" fill="#dc1f34"/><path fill="#fff" d="M8.34 2.74h.53v.35h-.53z"/><path d="M8.88 3.11h-.54l-.02-.37.54-.01.02.38zm-.03-.37l-.51.01.01.35.5-.02v-.34z" fill="#dc1f34"/><path d="M8.63 1.93c.39 0 .7.22.7.48 0 .27-.31.48-.7.48-.39 0-.71-.22-.71-.48 0-.27.32-.48.71-.48" fill="#fff"/><path d="M8.63 2.91c-.4 0-.72-.22-.72-.5 0-.27.32-.49.72-.49.4 0 .72.22.72.49s-.33.5-.72.5m0-.96c-.38 0-.69.21-.69.47s.31.47.69.47c.38 0 .69-.21.69-.47 0-.27-.31-.47-.69-.47" fill="#dc1f34"/><path d="M8.98 2.38c0 .13.18.36.18.36a1 1 0 0 1-.53.15c-.19 0-.44-.04-.53-.15 0 0 .18-.22.18-.36 0-.13-.18-.3-.18-.3.13-.09.33-.15.53-.15a1 1 0 0 1 .53.15s-.18.17-.18.3" fill="#fff"/><path d="M8.63 2.91c-.1 0-.42-.01-.54-.16 0-.02.17-.24.17-.36 0-.13-.17-.29-.17-.29.28-.23.8-.21 1.07-.02.01.01-.16.18-.16.3 0 .13.17.34.17.35-.14.12-.35.18-.54.18m-.52-.82c.02 0 .18.16.18.29 0 .14-.17.35-.18.36.11.12.42.13.52.13.18 0 .39-.06.52-.15-.02 0-.18-.21-.18-.34 0-.14.17-.31.18-.31-.26-.13-.78-.16-1.04.02z" fill="#dc1f34"/><path d="M8.86 2.38c0 .13.18.41.18.41-.13.09-.22.1-.41.1-.19 0-.32.01-.41-.1 0 0 .18-.27.18-.41 0-.13-.18-.35-.18-.35.13-.09.22-.1.41-.1.19 0 .28.01.41.1 0 0-.18.22-.18.35" fill="#fff"/><path d="M8.52 2.91c-.13 0-.23-.01-.31-.11 0-.02.17-.29.17-.41s-.17-.35-.17-.35c.13-.11.22-.13.42-.13.2 0 .29.02.42.1 0 .02-.17.24-.17.36s.17.4.17.4c-.13.12-.22.14-.42.14h-.11zm-.29-.87c.02 0 .18.21.18.34 0 .14-.17.4-.18.41.07.08.16.09.29.09v.02l.05-.02c.25 0 .34-.01.46-.1-.02 0-.18-.26-.18-.39s.17-.35.18-.36c-.12-.06-.21-.08-.4-.08s-.28.01-.4.09z" fill="#dc1f34"/><path d="M7.92 2.28c.1 0 .18.07.18.15 0 .08-.08.15-.18.15-.1 0-.18-.07-.18-.15.01-.08.09-.15.18-.15" fill="#fff"/><path d="M7.92 2.6c-.1 0-.19-.08-.19-.17 0-.19.38-.19.38 0 0 .1-.08.17-.19.17m0-.3c-.09 0-.16.06-.16.14 0 .15.32.15.32 0 .01-.08-.07-.14-.16-.14" fill="#dc1f34"/><path d="M9.33 2.28c.1 0 .18.07.18.15 0 .08-.08.15-.18.15-.1 0-.18-.07-.18-.15.01-.08.09-.15.18-.15" fill="#fff"/><path d="M9.33 2.6c-.11 0-.19-.08-.19-.17 0-.19.38-.19.38 0 0 .1-.08.17-.19.17m0-.3c-.09 0-.16.06-.16.14 0 .15.32.15.32 0 0-.08-.07-.14-.16-.14" fill="#dc1f34"/><path d="M8.63 2.28c.1 0 .18.07.18.15 0 .08-.08.15-.18.15-.1 0-.18-.07-.18-.15 0-.08.08-.15.18-.15" fill="#fff"/><path d="M8.63 2.6c-.11 0-.19-.08-.19-.17 0-.19.38-.19.38 0 0 .1-.09.17-.19.17m0-.3c-.09 0-.16.06-.16.14 0 .15.32.15.32 0 0-.08-.07-.14-.16-.14" fill="#dc1f34"/><path d="M8.63 1.78c.1 0 .18.07.18.15s-.08.15-.18.15c-.1 0-.18-.07-.18-.15s.08-.15.18-.15" fill="#fff"/><path d="M8.63 2.1c-.11 0-.19-.07-.19-.17 0-.18.38-.18.38 0 0 .09-.09.17-.19.17m0-.31c-.09 0-.16.06-.16.14 0 .15.32.15.32 0 0-.08-.07-.14-.16-.14" fill="#dc1f34"/><path d="M8.11 4.66c.1 0 .18.07.18.15s-.08.16-.18.16c-.1 0-.18-.07-.18-.15s.08-.16.18-.16" fill="#fff"/><path d="M8.11 4.98c-.11 0-.2-.07-.2-.17 0-.18.39-.18.39 0 .01.1-.08.17-.19.17m0-.3c-.09 0-.17.06-.17.14 0 .15.34.15.34 0 0-.08-.07-.14-.17-.14" fill="#dc1f34"/><path d="M9.09 4.66c.1 0 .18.07.18.15s-.08.16-.18.16c-.1 0-.18-.07-.18-.15s.08-.16.18-.16" fill="#fff"/><path d="M9.09 4.98c-.11 0-.2-.07-.2-.17 0-.18.39-.18.39 0 0 .1-.09.17-.19.17m0-.3c-.09 0-.17.06-.17.14 0 .15.34.15.34 0-.01-.08-.08-.14-.17-.14" fill="#dc1f34"/><path fill="#fff" d="M8.17 4.41h.85l-.42.46z"/><path d="M8.6 4.89l-.44-.47.86-.02-.42.49zm.41-.49l-.84.03.43.42.41-.45z" fill="#dc1f34"/><path d="M8.6 4.56c.13 0 .24.09.24.2 0 .11-.11.2-.24.2s-.24-.09-.24-.2c0-.11.11-.2.24-.2" fill="#fff"/><path d="M8.6 4.98c-.14 0-.26-.1-.26-.22s.12-.22.26-.22.26.1.26.22-.12.22-.26.22m0-.4c-.13 0-.23.08-.23.19 0 .21.46.21.46 0 0-.11-.1-.19-.23-.19" fill="#dc1f34"/><path d="M7.73 6.28H8.9c.04 0 .07.03.07.06v.19c0 .03-.03.06-.07.06H7.73c-.04 0-.07-.02-.07-.06v-.19c0-.03.03-.06.07-.06" fill="#fff"/><path d="M8.9 6.6H7.73c-.05 0-.09-.03-.09-.07v-.2c0-.04.04-.07.09-.07H8.9c.05 0 .09.03.09.07v.2c-.01.04-.04.07-.09.07m-1.17-.3l-.05.23 1.22.05c.03 0 .06-.02.06-.04v-.2L7.73 6.3z" fill="#dc1f34"/><path d="M9.37 6.03c-.16 0-.28.12-.28.26v.23c0 .15.13.27.28.27.16 0 .28-.12.28-.27V6.3c0-.15-.12-.27-.28-.27m0 .1c-.09 0-.17.09-.17.21v.13c0 .12.08.21.17.21.09 0 .17-.09.17-.21v-.12c0-.12-.08-.22-.17-.22" fill="#fff"/><path d="M9.37 6.81c-.17 0-.3-.13-.3-.28V6.3c0-.15.13-.28.3-.28.16 0 .3.13.3.28v.23c0 .15-.14.28-.3.28m0-.76c-.15 0-.27.11-.27.25v.23c0 .14.12.25.27.25.15 0 .27-.11.27-.25V6.3c0-.14-.12-.25-.27-.25m0 .66c-.1 0-.19-.1-.19-.23v-.13c0-.13.08-.23.19-.23.1 0 .18.1.18.23v.13c0 .12-.08.23-.18.23m0-.56c-.09 0-.16.09-.16.2v.13c0 .22.31.22.31 0v-.13c0-.11-.07-.2-.15-.2" fill="#dc1f34"/><path d="M7.89 6.08c-.09 0-.17.09-.17.21v.24c0 .11.08.21.17.21.09 0 .17-.1.17-.21v-.24c0-.11-.07-.21-.17-.21m0-.1c-.16 0-.28.12-.28.26v.33c0 .15.13.27.28.27.16 0 .28-.12.28-.27v-.32c.01-.15-.12-.27-.28-.27" fill="#fff"/><path d="M7.89 6.86c-.17 0-.3-.13-.3-.28v-.33c0-.15.13-.28.3-.28.16 0 .3.13.3.28v.33c0 .15-.13.28-.3.28m0-.86c-.15 0-.27.11-.27.25v.33c0 .14.12.25.27.25.15 0 .27-.11.27-.25v-.33c0-.14-.12-.25-.27-.25m0 .76c-.1 0-.19-.1-.19-.22v-.25c0-.13.08-.23.19-.23.1 0 .19.1.19.23v.24c0 .12-.09.23-.19.23m0-.66c-.09 0-.16.09-.16.2v.24c0 .22.31.21.31 0v-.25c.01-.1-.06-.19-.15-.19" fill="#dc1f34"/><path d="M7.44 6.18c-.09 0-.17.09-.17.21v.05c0 .12.08.21.17.21.09 0 .17-.1.17-.21V6.4c0-.12-.08-.22-.17-.22m0-.1c-.16 0-.28.12-.28.26v.16c0 .15.13.27.28.27.16 0 .28-.12.28-.27v-.15c0-.15-.13-.27-.28-.27" fill="#fff"/><path d="M7.44 6.78c-.16 0-.3-.13-.3-.28v-.15c0-.15.13-.28.3-.28.16 0 .3.13.3.28v.15c-.01.15-.14.28-.3.28m0-.68c-.15 0-.27.11-.27.25v.15c0 .14.12.25.27.25.15 0 .27-.11.27-.25v-.15c0-.14-.13-.25-.27-.25m0 .58c-.1 0-.19-.1-.19-.23 0-.36.37-.3.37-.05 0 .18-.08.28-.18.28m0-.48c-.09 0-.16.09-.16.2 0 .33.31.27.31.05 0-.16-.07-.25-.15-.25" fill="#dc1f34"/><path d="M6.75 6.04c-.17 0-.31.11-.31.24v.26c0 .13.14.24.31.24.17 0 .31-.11.31-.24v-.26c0-.13-.14-.24-.31-.24m0-.11c-.28 0-.51.13-.51.3v.37c0 .16.23.3.51.3s.51-.13.51-.3v-.37c.01-.17-.22-.3-.51-.3" fill="#fff"/><path d="M6.75 6.91c-.29 0-.53-.14-.53-.31v-.37c0-.17.24-.31.53-.31.29 0 .53.14.53.31v.37c0 .17-.24.31-.53.31m0-.96c-.27 0-.5.13-.5.28v.37c0 .16.22.28.5.28.27 0 .5-.13.5-.28v-.37c0-.16-.22-.28-.5-.28m0 .84c-.18 0-.32-.11-.32-.25v-.26c0-.14.14-.25.32-.25s.32.11.32.25v.26c.01.14-.14.25-.32.25m0-.73c-.16 0-.29.1-.29.22v.26c0 .12.13.22.29.22.16 0 .29-.1.29-.22v-.26c.01-.12-.12-.22-.29-.22" fill="#dc1f34"/><path d="M10.45 6.1c-.17 0-.31.11-.31.24v.26c0 .13.14.24.31.24.17 0 .31-.11.31-.24v-.27c-.01-.13-.14-.23-.31-.23m0-.12c-.28 0-.51.13-.51.3v.37c0 .16.23.3.51.3s.51-.13.51-.3v-.37c0-.17-.23-.3-.51-.3" fill="#fff"/><path d="M10.45 6.96c-.3 0-.53-.14-.53-.31v-.37c0-.17.23-.31.53-.31.29 0 .52.14.52.31v.37c0 .17-.23.31-.52.31m0-.96c-.27 0-.5.13-.5.28v.37c0 .15.22.28.5.28.27 0 .5-.13.5-.28v-.37c-.01-.16-.23-.28-.5-.28m0 .85c-.18 0-.32-.11-.32-.25v-.27c0-.14.14-.25.32-.25s.32.11.32.25v.26c0 .14-.15.26-.32.26m0-.74c-.16 0-.29.1-.29.22v.26c0 .12.13.22.29.22.16 0 .29-.1.29-.22v-.26c0-.12-.13-.22-.29-.22" fill="#dc1f34"/><path d="M9.52 6.28h.61c.02 0 .04.03.04.06v.19c0 .03-.02.06-.04.06h-.61c-.02 0-.04-.02-.04-.06v-.19c0-.03.02-.06.04-.06" fill="#fff"/><path d="M10.13 6.6H9.5l-.03-.07v-.21l.05-.05h.62l.04.07v.21l-.05.05zm-.61-.3l-.02.23.63.05.02-.05v-.2l-.63-.03z" fill="#dc1f34"/><path d="M8.88 6.24h.35c.01 0 .02.03.02.07v.26c0 .04-.01.07-.02.07h-.35c-.01 0-.02-.03-.02-.07v-.26c0-.04 0-.07.02-.07" fill="#fff"/><path d="M9.23 6.65h-.35c-.03 0-.04-.04-.04-.09v-.25c0-.04.01-.09.04-.09h.35c.03 0 .04.05.04.09v.26c0 .04-.01.08-.04.08m-.35-.4l-.01.32.36.06.01-.32-.36-.06z" fill="#dc1f34"/><path d="M7 6.24h.35c.01 0 .02.03.02.07v.26c0 .04-.01.07-.02.07H7c-.01 0-.02-.03-.02-.07v-.26c0-.04.01-.07.02-.07" fill="#fff"/><path d="M7.36 6.65H7c-.03 0-.04-.04-.04-.09v-.25c0-.04.01-.09.04-.09h.35c.03 0 .04.05.04.09v.26c0 .04-.01.08-.03.08M7 6.25v.32l.36.06.01-.32L7 6.25z" fill="#dc1f34"/><path d="M5.78 6.18h.71c.02 0 .04.04.04.09v.33c0 .05-.02.09-.04.09h-.71c-.03 0-.04-.04-.04-.09v-.32c-.01-.06.01-.1.04-.1" fill="#fff"/><path d="M6.48 6.71h-.7c-.03 0-.06-.04-.06-.1v-.33c0-.06.03-.11.06-.11h.71c.03 0 .06.05.06.11v.32c-.01.06-.03.11-.07.11m-.7-.51c-.01 0-.03.03-.03.08v.32c0 .04.02.08.03.08h.71c.01 0 .03-.03.03-.08v-.32c0-.05-.02-.08-.03-.08h-.71z" fill="#dc1f34"/><path d="M10.71 6.24h.66c.02 0 .04.04.04.09v.33c0 .05-.02.09-.04.09h-.66c-.02 0-.04-.04-.04-.09v-.34c0-.04.02-.08.04-.08" fill="#fff"/><path d="M11.37 6.76h-.66c-.04 0-.06-.05-.06-.1v-.34c0-.06.02-.1.06-.1h.66c.03 0 .06.05.06.1v.33c0 .05-.02.11-.06.11m-.66-.51c-.01 0-.03.03-.03.07v.33c0 .05.02.08.03.08h.66c.01 0 .03-.03.03-.08v-.33c0-.04-.02-.07-.03-.07h-.66z" fill="#dc1f34"/></svg>