<svg xmlns="http://www.w3.org/2000/svg" viewBox="0 0 58.92 34.37"><path fill="#fff" d="M0 0h58.92v34.37H0z"/><path fill="#3564c2" d="M16.57 4.3l-1.33 4.08 2.05.67z"/><path fill="#3564c2" d="M16.57 4.3l1.33 4.08-2.04.67z"/><path fill="#3564c2" d="M20.66 7.27h-4.3v2.14z"/><path fill="#3564c2" d="M20.66 7.27l-3.48 2.52-1.26-1.74z"/><path fill="#3564c2" d="M12.48 7.27l3.48 2.52 1.26-1.74z"/><path fill="#3564c2" d="M12.48 7.27h4.3v2.14z"/><path fill="#3564c2" d="M19.1 12.07l-1.33-4.09-2.04.67z"/><path fill="#3564c2" d="M19.1 12.07l-3.48-2.53 1.26-1.73z"/><path fill="#3564c2" d="M14.05 12.07l3.47-2.53-1.26-1.73z"/><path fill="#3564c2" d="M14.05 12.07l1.32-4.09 2.05.67zM0 17.19h29.46v17.19H0z"/><path fill="#c0003b" d="M29.46 0h29.46v17.19H29.46zM42.35 21.48l-1.33 4.09 2.05.66z"/><path fill="#c0003b" d="M42.35 21.48l1.33 4.09-2.05.66z"/><path fill="#c0003b" d="M46.44 24.45h-4.3v2.15z"/><path fill="#c0003b" d="M46.44 24.45l-3.48 2.53-1.26-1.74z"/><path fill="#c0003b" d="M38.26 24.45l3.48 2.53L43 25.24z"/><path fill="#c0003b" d="M38.26 24.45h4.3v2.15z"/><path fill="#c0003b" d="M44.88 29.26l-1.33-4.09-2.04.66z"/><path fill="#c0003b" d="M44.88 29.26l-3.48-2.53 1.26-1.74z"/><path fill="#c0003b" d="M39.83 29.26l3.47-2.53-1.26-1.74z"/><path fill="#c0003b" d="M39.83 29.26l1.32-4.09 2.05.66z"/></svg>