<svg xmlns="http://www.w3.org/2000/svg" viewBox="0 0 58.92 34.37"><path fill="#bc0030" d="M0 0h58.92v34.37H0z"/><path fill="#fff" d="M0 8.59h58.92v17.19H0z"/><path d="M27.73 23.67c-.53.03-1.06.39-1.31.58.45.19.92.35 1.43.45.8.14 1.61.13 2.42.13.13-.02.26-.03.39-.06l1.7-.57s-.82-.54-1.46-.52c-.65.02-1.08.66-1.61.61-.52-.05-.73-.63-1.48-.63-.03.01-.05 0-.08.01" fill="#273b98"/><path d="M30.24 24.9c-.79 0-1.6 0-2.4-.13-.5-.1-.99-.26-1.44-.46l-.11-.05.09-.07c.27-.21.81-.56 1.35-.59h.07c.44 0 .71.2.95.36.18.13.33.25.54.27h.01c.27 0 .48-.13.7-.27.26-.15.54-.33.89-.34.7 0 1.47.51 1.5.53l.12.08-1.83.62-.4.06h-.04zm-3.67-.67c.41.17.85.31 1.3.4.79.13 1.6.13 2.38.13v.07l.01-.07c.13-.01.26-.03.39-.05l1.54-.52c-.24-.14-.79-.43-1.26-.43-.35.01-.61.17-.86.32-.24.15-.48.29-.73.29-.31-.02-.49-.16-.68-.29-.23-.17-.46-.34-.86-.34-.5.02-.96.29-1.23.49M24.65 23.23l9.64.04s-.83-.89-1.82-.91c-.98-.02-.71.41-1.46.47s-.94-.45-1.63-.43c-.69.02-1.09.43-1.61.46-.52.02-1.19-.52-1.59-.5-.4.02-1.82.62-1.82.62l.29.25z" fill="#273b98"/><path d="M34.45 23.34l-9.8-.04-.39-.33.1-.04c.06-.02 1.43-.6 1.84-.62.22 0 .47.11.72.23.28.13.58.27.84.27.26-.01.47-.1.69-.2.26-.11.56-.24.95-.26.36 0 .58.11.79.22.24.13.46.24.83.21.32-.03.44-.12.56-.22.16-.13.33-.26.84-.26 1.06.02 1.89.9 1.93.93l.1.11zM24.5 23l.19.18 9.43.02c-.26-.24-.92-.76-1.65-.78h-.01c-.52 0-.66.11-.81.23-.14.11-.28.22-.64.25-.42.03-.67-.1-.9-.23-.21-.11-.4-.21-.69-.21-.4.01-.67.13-.94.25-.23.1-.46.2-.71.21-.32 0-.62-.14-.92-.28-.24-.11-.48-.22-.64-.22-.33.02-1.38.45-1.71.58M23.42 22.09l11.9.04c.19-.27-.58-.91-1.29-.97-.58.02-1 .6-1.48.62-.48.02-1.02-.6-1.56-.58-.54.02-1.11.58-1.65.58-.54 0-.94-.6-1.63-.6s-1 .66-1.52.62c-.52-.04-.98-.66-1.48-.66s-1.33.74-1.5.7c-.19-.04.19.31.21.25" fill="#273b98"/><path d="M35.35 22.2h-.03l-11.85-.04-.06.01c-.09 0-.33-.21-.33-.31v-.07l.09-.01c.11 0 .29-.11.45-.22.34-.21.76-.48 1.07-.48.28 0 .54.17.79.34.23.15.46.3.7.32h.01c.25 0 .42-.12.62-.26.24-.17.51-.36.89-.36s.68.18.95.33c.23.14.44.26.68.26.26 0 .54-.14.81-.28s.55-.28.83-.29c.32 0 .59.16.86.31.24.14.47.27.68.27.23-.01.44-.14.65-.28.26-.16.53-.33.85-.34.58.05 1.2.47 1.35.79.06.14.03.23 0 .28l-.01.03zm-12.13-.29c.05.02.15.11.19.12l11.86.03c.01-.03 0-.07-.02-.12-.13-.29-.72-.67-1.24-.71-.28.01-.53.17-.78.32-.23.15-.45.29-.7.3-.27 0-.51-.14-.77-.28-.25-.15-.52-.3-.77-.3-.27.01-.54.15-.8.28-.29.15-.58.3-.87.3-.27 0-.5-.14-.75-.28-.26-.16-.53-.32-.88-.32-.34 0-.58.17-.82.33-.21.15-.41.29-.66.29-.32-.03-.57-.19-.82-.35-.25-.16-.48-.31-.71-.31-.28 0-.7.26-1 .46-.23.15-.36.23-.46.24" fill="#273b98"/><path d="M27.99 15.55l2.73.72v-3.86c-1.25.06-2.29-2.35-.08-2.52-2.17-.31-2.42.25-2.67.85l.02 4.81z" fill="#bc0030"/><path d="M30.72 16.36h-.02l-2.73-.72c-.04-.01-.06-.04-.06-.08l-.02-4.81c.21-.52.42-1.02 1.68-1.02.3 0 .67.03 1.08.09.04.01.07.04.07.09 0 .04-.03.08-.08.08-.79.06-1.23.43-1.21 1.02.02.6.58 1.33 1.24 1.33.02 0 .07.01.08.02.02.02.05.04.05.06v3.86c0 .02-.01.05-.03.07-.01 0-.03.01-.05.01m-2.65-.87l2.57.68V12.5c-.77-.05-1.35-.82-1.37-1.49-.02-.53.28-.91.82-1.09-.19-.02-.37-.03-.52-.03-1.15 0-1.33.43-1.52.88l.02 4.72zM26.26 18.36l6.18.02-6.18-.02z" fill="#5b001a"/><path d="M32.44 18.5l-6.18-.02c-.07 0-.12-.05-.12-.12 0-.07.05-.12.12-.12l6.18.02c.07 0 .12.05.12.12 0 .07-.06.12-.12.12M26.55 16.89l.73.97-.73-.97zM27.28 17.94c-.02 0-.05-.01-.06-.03l-.73-.97a.081.081 0 0 1 .02-.11c.03-.03.08-.02.11.01l.73.97c.03.04.02.08-.01.11-.03.02-.04.02-.06.02M26.55 17.86l.79-.95-.79.95z" fill="#5b001a"/><path d="M26.55 17.94c-.02 0-.04-.01-.05-.02-.03-.03-.04-.08-.01-.11l.79-.95c.03-.03.08-.04.11-.01s.04.08.01.11l-.79.95c-.02.02-.04.03-.06.03M26.97 16.83l-.02.6.02-.6z" fill="#5b001a"/><path d="M26.95 17.51c-.05 0-.08-.04-.08-.08l.02-.6c0-.04.04-.09.08-.07.04 0 .08.04.08.08l-.02.6c-.01.04-.04.07-.08.07M27.72 16.89l.73.97-.73-.97zM28.45 17.94c-.02 0-.05-.01-.06-.03l-.73-.97a.081.081 0 0 1 .02-.11c.03-.03.08-.02.11.01l.73.97c.03.04.02.08-.01.11-.03.02-.04.02-.06.02M27.72 17.86l.79-.95-.79.95z" fill="#5b001a"/><path d="M27.72 17.94c-.02 0-.04-.01-.05-.02-.03-.03-.04-.08-.01-.11l.79-.95c.03-.03.08-.04.11-.01s.04.08.01.11l-.79.95c-.02.02-.04.03-.06.03M28.14 16.83l-.02.6.02-.6z" fill="#5b001a"/><path d="M28.12 17.51c-.05 0-.08-.04-.08-.08l.02-.6c0-.04.03-.09.08-.07.04 0 .08.04.08.08l-.02.6c-.01.04-.04.07-.08.07M28.91 16.89l.73.97-.73-.97zM29.64 17.94c-.02 0-.05-.01-.06-.03l-.73-.97c-.03-.03-.02-.08.02-.11s.08-.02.11.01l.73.97c.03.04.02.08-.01.11-.03.02-.04.02-.06.02M28.91 17.86l.79-.95-.79.95z" fill="#5b001a"/><path d="M28.91 17.94c-.02 0-.04-.01-.05-.02-.03-.03-.04-.08-.01-.11l.79-.95c.03-.03.08-.04.11-.01s.04.08.01.11l-.79.95c-.02.02-.04.03-.06.03M29.33 16.83l-.02.6.02-.6z" fill="#5b001a"/><path d="M29.31 17.51c-.05 0-.08-.04-.08-.08l.02-.6c0-.04.04-.09.08-.07.04 0 .08.04.08.08l-.02.6c-.01.04-.04.07-.08.07M30.14 16.89l.73.97-.73-.97zM30.87 17.94c-.02 0-.05-.01-.06-.03l-.73-.97c-.03-.03-.02-.08.02-.11s.08-.02.11.01l.73.97c.03.04.02.08-.01.11-.03.02-.04.02-.06.02M30.14 17.86l.79-.95-.79.95z" fill="#5b001a"/><path d="M30.14 17.94c-.02 0-.04-.01-.05-.02-.03-.03-.04-.08-.01-.11l.79-.95c.03-.03.08-.04.11-.01s.04.08.01.11l-.79.95c-.01.02-.04.03-.06.03M30.56 16.83l-.02.6.02-.6z" fill="#5b001a"/><path d="M30.54 17.51c-.05 0-.08-.04-.08-.08l.02-.6c0-.04.03-.09.08-.07.04 0 .08.04.08.08l-.02.6c-.01.04-.04.07-.08.07M31.33 16.89l.73.97-.73-.97z" fill="#5b001a"/><path d="M32.06 17.94c-.02 0-.05-.01-.06-.03l-.73-.97a.081.081 0 0 1 .02-.11c.03-.03.08-.02.11.01l.73.97c.03.04.02.08-.01.11-.03.02-.04.02-.06.02M31.33 17.86l.79-.95-.79.95z" fill="#5b001a"/><path d="M31.33 17.94c-.02 0-.04-.01-.05-.02-.03-.03-.04-.08-.01-.11l.79-.95c.03-.03.08-.04.11-.01s.04.08.01.11l-.79.95c-.01.02-.04.03-.06.03M31.75 16.83l-.02.6.02-.6z" fill="#5b001a"/><path d="M31.73 17.51c-.05 0-.08-.04-.08-.08l.02-.6c0-.04.03-.09.08-.07.04 0 .08.04.08.08l-.02.6c-.01.04-.04.07-.08.07" fill="#5b001a"/><path fill="#f0992a" d="M22.1 18.42l2.63.02v-1.63l-3-.14zM21.98 16.17l2.8.27-.03-1.15-2.73-1.08zM22.54 13.86l2.15 1.03.31-.31s-.2-.14-.19-.26c0-.12.2-.14.2-.28 0-.13-.22-.14-.22-.27-.02-.14.17-.28.17-.28l-1.94-1.67-.48 2.04zM36.65 18.44h-2.77l-.02-1.59 3.04-.22zM36.72 16.15c-.03-.26-.07-.52-.13-.77-.08-.34-.18-.67-.31-1-.01-.02-.02-.05-.03-.07l-2.38.99.02 1.18 2.83-.33zM35.1 12.33l-1.42 1.07v.01c.01.06.14.21.15.32-.01.17-.15.25-.18.32v.05s0 .01.01.01c.04.06.18.09.18.22 0 .14-.13.22-.14.23.16.11.19.24.23.37l2.13-1.11c-.27-.52-.58-1.03-.96-1.49M31.14 16.45l1.19-.05.02-.47zM27.51 16.41l-1.25-.03v-.5zM27.5 16.27l-1.25-.63v-.83s-.15.02-.13-.14c.01-.34.92.63 1.38.94v.66zM31.14 16.19l-.01-.54s1.13-1.01 1.37-1.19c0 .21-.13.37-.13.37v.79l-1.23.57zM23.84 11.67c.02.02 1.27 1.39 1.27 1.39.03-.13.32-.15.61-.13.29.02.53-.02.53.19s-.15.18-.15.32.22.13.22.32-.16.15-.16.29c0 .12.17.13.17.13l1.18 1.14.01-1.21-2.44-3.79-1.24 1.35zM25.79 10.24c.02.06 1.65 3.34 1.65 3.34s.02-3.09.3-3.25l-.46-.84-1.49.75zM31.13 9.89l-.62 2.14s.3.04.54.02c.06 0 .1.01.11.03.01 0 .01.01.01.02 0 0 0 .01.01.01v.03c-.01.06-.04.12-.04.12v1.38l1.74-3.08c-.36-.18-.73-.34-1.14-.46-.21-.1-.41-.16-.61-.21M33.3 10.78l-2.16 3.32v1.28l1.42-1.35.04-.04v-.01-.01-.01-.01-.01-.01c-.04-.04-.15-.06-.16-.18 0-.02.01-.04.02-.06.03-.06.09-.06.13-.11.02-.03.04-.07.04-.13 0-.05-.01-.08-.01-.1v-.01l-.01-.01c-.02-.02-.04-.02-.07-.04h-.01l-.01-.01-.01-.01c-.01-.02-.03-.05-.04-.1-.01-.02-.01-.04 0-.07 0 0 0-.01.01-.01 0 0 0-.01.01-.01 0-.01.01-.02.02-.03l.01-.01c.05-.05.15-.08.35-.08.35 0 .72-.07.78.08l1.11-1.11c-.44-.44-.92-.83-1.46-1.15"/><path d="M28.6 19.04c-.59.98-2.19.68-2.56.01-.11-.04-.04-4.2-.04-4.2s-.18-.08-.19-.21c-.01-.13.24-.14.24-.31 0-.17-.25-.1-.26-.27 0-.16.27-.14.26-.29-.01-.16-.3-.14-.32-.29-.01-.12.21-.23.27-.28h-.2c-.15 0-.3.01-.46.01-.32 0 .01.07 0 .26 0 .12-.17.2-.18.3-.01.11.23.19.24.32 0 .11-.23.12-.23.23.02.18.21.22.2.33 0 .11-.26.15-.26.24.01.17.04 4.28.04 4.28.42 2.09 2.78 2.63 3.45-.13" fill="#bc0030"/><path d="M26.87 21.01c-.85 0-1.58-.75-1.79-1.83 0-.06-.03-4.13-.04-4.29 0-.1.09-.14.16-.18.03-.02.09-.05.1-.07 0-.01-.03-.04-.05-.06-.06-.06-.14-.13-.15-.26-.01-.11.09-.16.15-.19.02-.01.07-.04.07-.05 0-.03-.06-.07-.1-.1-.07-.05-.14-.12-.14-.21.01-.08.06-.14.11-.19.04-.04.07-.08.07-.12 0-.04-.04-.08-.08-.12-.02-.02-.07-.11-.06-.15.03-.07.12-.07.22-.07l.46-.01h.01c.03 0 .22-.03.25.06.01.03.02.07-.01.09l-.07.05c-.05.04-.17.12-.17.16 0 .02.04.04.1.07.08.04.2.09.21.22.01.13-.1.18-.17.22-.07.03-.09.05-.09.07 0 .02.01.03.08.06s.18.07.18.21c0 .13-.1.2-.17.24-.03.02-.07.05-.07.06 0 .06.1.12.14.14.03.01.05.04.05.08-.02 1.51-.04 3.97.03 4.15.19.34.72.58 1.26.58.51 0 .93-.21 1.16-.59.02-.04.06-.05.1-.04.04.02.06.06.05.1-.29 1.24-.96 1.97-1.8 1.97m-1.51-7.71c.04.05.07.11.06.17 0 .1-.06.17-.11.22-.03.03-.06.07-.06.09.01.01.05.05.08.07.07.06.15.13.16.23 0 .11-.1.16-.16.19-.02.01-.06.03-.07.04.01.06.05.1.1.14.05.05.11.1.11.19 0 .11-.11.16-.18.21-.03.01-.07.04-.08.05.01.15.04 4.09.04 4.26.19.98.86 1.68 1.63 1.68.67 0 1.23-.54 1.54-1.45-.27.23-.63.36-1.04.36-.61 0-1.18-.27-1.4-.67-.04.02-.12.01-.06-4.18-.07-.04-.18-.12-.19-.25-.01-.11.08-.17.15-.21.06-.04.09-.07.09-.1 0-.02 0-.03-.07-.06s-.18-.07-.18-.21c0-.14.11-.19.18-.23.05-.03.08-.04.08-.06 0-.03-.04-.05-.11-.08-.08-.04-.19-.09-.2-.21-.01-.08.04-.15.11-.21l-.42.02z" fill="#5b001a"/><path d="M30.15 19.04c.59.98 2.19.68 2.56.01.11-.03.05-4.19.05-4.19s.18-.08.18-.21c.01-.13-.23-.14-.23-.31 0-.17.24-.1.24-.27 0-.16-.25-.15-.24-.3.01-.17.21-.15.22-.3.01-.13-.12-.21-.18-.27h.19c.15 0 .3.01.46.01.32 0-.01.07 0 .26 0 .12.16.2.18.3.01.11-.23.19-.23.32 0 .11.23.12.22.23-.01.18-.21.22-.2.33 0 .11.26.15.26.24-.01.17-.04 4.28-.04 4.28-.41 2.09-2.77 2.63-3.44-.13" fill="#bc0030"/><path d="M31.88 21.01c-.84 0-1.51-.73-1.81-1.95-.01-.04.01-.08.05-.1.04-.02.08 0 .1.03.23.37.65.59 1.16.59.54 0 1.07-.24 1.25-.58.07-.18.06-2.64.03-4.15 0-.03.02-.06.05-.08.04-.02.13-.08.14-.14 0-.01-.04-.04-.07-.06-.06-.04-.16-.11-.16-.24 0-.14.11-.18.17-.21.07-.03.07-.03.07-.06s-.02-.04-.08-.08c-.07-.04-.17-.1-.15-.22.01-.13.09-.18.15-.22.05-.04.07-.05.07-.08 0-.06-.05-.11-.12-.16-.03-.02-.05-.08-.04-.11.01-.03.03-.08.06-.07h.18l.46.01c.1 0 .19 0 .22.07.01.03-.03.12-.06.14-.04.03-.08.07-.08.12 0 .04.04.08.07.12.04.05.09.11.1.18.01.1-.07.16-.14.22-.04.03-.09.08-.1.11.01.01.05.03.07.04.07.03.16.08.15.19-.01.13-.09.2-.15.26-.02.02-.05.05-.05.06.01.01.07.04.1.06.08.04.16.09.16.18-.01.17-.04 4.24-.04 4.28-.18 1.1-.91 1.85-1.76 1.85m-1.54-1.62c.31.92.87 1.46 1.54 1.46.77 0 1.44-.7 1.63-1.69 0-.15.03-4.1.04-4.27 0 .01-.05-.01-.08-.03-.08-.04-.18-.1-.18-.2 0-.09.06-.15.11-.19.05-.05.09-.09.1-.15l-.06-.03c-.07-.03-.16-.08-.16-.19 0-.1.09-.17.15-.23.03-.02.07-.06.08-.08 0-.01-.04-.05-.06-.08-.05-.06-.11-.13-.11-.22 0-.07.03-.13.06-.17l-.42-.01c.04.05.07.12.06.19-.01.12-.09.17-.14.21-.05.04-.08.05-.08.09 0 .02.01.03.07.06.07.04.17.09.17.22 0 .14-.11.19-.18.21-.07.03-.07.04-.07.06 0 .04.03.06.09.1.06.04.14.1.14.21-.01.13-.12.21-.18.25.07 4.18-.03 4.2-.11 4.23-.16.35-.74.62-1.35.62-.43-.01-.79-.14-1.06-.37" fill="#5b001a"/><path d="M28.02 20.96h2.66c.02-.02-.6-.91-1.33-.84-.82.01-1.37.84-1.33.84" fill="#273b98"/><path d="M28.02 21.02h-.07v-.07c0-.1.58-.89 1.39-.91h.08c.73 0 1.28.81 1.31.88l.02.04-.03.04-2.7.02zm1.4-.85h-.07c-.62.02-1.07.51-1.22.71h2.43c-.15-.2-.61-.71-1.14-.71M36.49 20.89h-3.63s.47-.27.6-.53c.23.13.17.25.64.27.47.02.92-.53 1.37-.51.44.03 1.02.79 1.02.77" fill="#273b98"/><path d="M36.49 20.96h-3.88l.21-.12s.45-.27.57-.5l.03-.06.06.03c.08.04.13.09.17.13.08.07.14.13.44.14.23 0 .45-.13.66-.25.22-.13.45-.26.68-.26.43.02.9.56 1.05.73l.18.12-.17.04zm-3.41-.14h3.26c-.37-.41-.66-.62-.88-.63-.22 0-.42.12-.63.24-.23.13-.46.27-.71.27-.38-.02-.46-.09-.55-.18-.03-.02-.06-.05-.09-.07-.1.14-.27.28-.4.37M22.17 20.89h3.63s-.47-.27-.6-.53c-.24.13-.17.25-.64.27-.47.02-.92-.53-1.37-.51-.45.03-1.02.79-1.02.77" fill="#273b98"/><path d="M25.8 20.96h-3.85l.18-.12c.19-.22.66-.75 1.06-.77.26 0 .49.13.7.26.21.12.43.25.64.25.32-.02.38-.07.46-.14a.92.92 0 0 1 .17-.13l.06-.03.03.06c.12.23.57.5.57.5l.21.12h-.23zm-3.48-.14h3.26c-.13-.09-.3-.23-.4-.37-.04.02-.07.05-.09.07-.1.09-.18.16-.53.18-.27 0-.51-.14-.73-.27-.21-.12-.41-.24-.61-.24-.24.02-.54.23-.9.63M22.44 19.76l2.59.02s-.17-.35-.19-.79c-.67-.23-1.21.49-1.69.52-.48.03-.98-.51-.98-.51l.27.76z" fill="#273b98"/><path d="M25.13 19.85l-2.74-.02-.29-.81.11-.07c.01.01.47.5.91.5.2-.01.39-.12.59-.24.33-.2.75-.41 1.15-.27l.04.01V19c.02.42.18.76.18.76l.05.09zm-2.64-.15l2.44.02c-.05-.13-.13-.38-.15-.67-.34-.1-.68.09-.99.27-.22.13-.43.25-.63.26-.33 0-.64-.2-.83-.36l.16.48zM36.26 19.76l-2.59.02s.17-.35.19-.79c.67-.23 1.21.49 1.69.52.48.02.98-.52.98-.52l-.27.77z" fill="#273b98"/><path d="M33.56 19.85l.04-.1s.16-.35.18-.76v-.04l.04-.01c.4-.14.81.07 1.15.27.21.12.4.23.57.24.46 0 .92-.49.93-.5l.11.07-.29.81-2.73.02zm.36-.8c-.02.29-.1.54-.15.67l2.44-.02.17-.47c-.19.16-.5.35-.8.35-.23-.01-.44-.13-.66-.26-.32-.18-.67-.37-1-.27M28.68 19.78l1.31-.04s.02-.39-.67-.39c-.68 0-.62.45-.64.43" fill="#273b98"/><path d="M28.55 19.85l.07-.1c.06-.39.42-.47.71-.47s.5.07.62.2c.12.12.11.26.11.26v.06l-1.51.05zm.78-.43c-.44 0-.54.19-.56.3l.18-.01c0-.01-.01-.02-.01-.03 0-.07.13-.07.13 0 0 .01 0 .02-.01.02l.85-.03a.282.282 0 0 0-.07-.11c-.09-.09-.27-.14-.51-.14" fill="#273b98"/><path d="M27.89 19.22c.23-.12.44-.25.58-.53l-.9.02s-.42.25-.63.51h.95z" fill="#5b001a"/><path d="M27.92 19.35H26.7l.15-.2c.22-.28.64-.53.66-.55l1.16-.04-.09.18c-.16.31-.38.45-.64.59l-.02.02zm-.69-.24h.63c.16-.09.29-.17.39-.29l-.67.01c.01.01-.18.13-.35.28M30.79 19.22c-.23-.12-.44-.25-.59-.53l.9.02s.42.25.63.51h-.94z" fill="#5b001a"/><path d="M31.97 19.35h-1.18c-.31-.15-.53-.29-.69-.6l-.1-.19 1.1.03c.08.03.5.28.72.56l.15.2zm-1.55-.54c.11.14.25.22.42.31l.6-.01c-.19-.17-.4-.3-.41-.3h-.61z" fill="#5b001a"/><path d="M0 25.78h58.92V8.59H0v17.19zm28.66-16.1c1.07 0 2.01 0 3.09.4 6.04 1.9 6.85 10.42 1.48 13.67-.94.68-1.88.95-2.95 1.08-.81 0-1.61 0-2.42-.13-5.91-1.22-7.79-9.07-3.36-13.13 1.2-1.08 2.55-1.62 4.16-1.89" fill="#fff"/></svg>