<svg xmlns="http://www.w3.org/2000/svg" viewBox="0 0 58.92 34.37"><path d="M0 0h58.92v34.37H0z"/><path fill="#bc0030" d="M0 0l58.92 34.37V0z"/><path d="M38.21 9.99c-.34.44-1.14-.44-2.1-.46-.96-.02-1.64.92-1.92 1.24-.28.32-1.18 2-1.16 2.18.02.18.56-.5.76-.62.02.24-.22.52-.16.6.06.08.7-.48.92-.5.06.16-.12.32-.06.56.08.08.44-.4.68-.5.04.18-.22.52-.08.74.1.02.7-.68.9-.76.2-.08-.1.66 0 .72.18-.12.74-.76.92-.84.18-.08-.02.82.06.82.22-.16.78-.92.84-1.04.06-.12-.06 1.16.56 1.84.62.68 1.56 1.46 1.66 1.46.12-.22-.04-.68.06-.66.28.3.8.74.92.74s-.08-.48.08-.48c.32.3 1.24 1.48 3.04 2.02-.12-.34-.38-.64-.4-.8.12.02.54.22.62.2.08-.02-.88-1.2-.82-1.36.22-.02.32.12.4.02-.1-.16-.94-1.1-.94-1.32 0-.22.26.04.34 0 .08-.04-.32-.88-.24-.98.08-.1.96.54 1.18.54.22 0 .06-.78.16-.82.1-.04.84.42 1 .42.16 0 .14-.34.2-.3.06.04 1.8 1.78 1.2 3.82-.6 1.46-1.8 2.24-3.56 1.6.1.16 1.04.94 2.06.66 1.02-.28 2.26-1.08 2.12-3.08-.14-2-.8-2.28-.9-2.58-.1-.3.16.08.38.16s-.04-.42-.1-.64c-.06-.22.66.46.84.52.18.06-.42-1.64-.6-1.76-.18-.12.18.04.3.08s-1.1-1.86-1.36-1.86.22-.1.36-.1c.14 0-1.4-1.24-1.66-1.24s.56-.32.64-.34c.14.02-1.78-1.02-3.5.02-.1-.08.81-.71.84-.98.01-.07-.3-.22-.32-.3-.02-.08.48-.32.5-.5-.12-.16-.34-.1-.46-.14-.03-.15.42-.52.38-.68-.03-.09-.36-.12-.44-.06-.08.06.21-.42.16-.56-.04-.06-.2-.02-.36.02-.1-.02.52-.88.4-1s-1.8.88-2.42 2c-.62 1.12-.14 2.02-.22 2.4-.08.38-.18.76-.44.76s-.86-.4-1.06-.6c-.2-.2-.24-.34-.52-.42-.28-.08-.92.16-1.16.18-.24.02-1.18-.18-1.24-.12-.06.06.92.42 1.14.54.22.12.24.28.4.38.16.1 1.66.54 1.18 1.16" fill="#f3d02f"/><path d="M44.07 12.81c.48.48 3.72 2.64 3.72 5.28s-2.36 2.56-3.04 2.48c.76.64 3.64.52 3.64-2.48 0-2.64-3.72-5.28-4.2-5.52-.48-.24-.6-.24-.12.24" fill="#f3d02f"/><path fill="#fff" d="M15.17 10.65l.5 1.72h1.73l-1.36 1.05.5 1.68-1.37-1.05-1.37 1 .51-1.63-1.37-1.05h1.68zM9.92 17.37l.5 1.72h1.73l-1.37 1.05.51 1.67-1.37-1.05-1.37 1 .5-1.62-1.36-1.05h1.68zM20.4 16.89l.5 1.72h1.73l-1.37 1.05.5 1.67-1.36-1.05-1.37 1.01.5-1.63-1.37-1.05h1.69zM15.17 26.44l.5 1.72h1.73l-1.36 1.05.5 1.67-1.37-1.05-1.37 1 .51-1.62-1.37-1.05h1.68zM17.51 22.78l.26.86h.86l-.68.53.25.83-.69-.52-.68.5.25-.81-.68-.53h.84z"/></svg>