<svg xmlns="http://www.w3.org/2000/svg" viewBox="0 0 58.92 34.37"><path fill="#2534a4" d="M0 0h58.92v17.19H0z"/><path fill="#bc0030" d="M0 17.18h58.92v17.19H0z"/><path fill="#fff" d="M0 0v34.37l29.92-17.18z"/><path fill="#f3d02f" d="M4.04 31.06l-1.33-.77-1.14 1.04.33-1.51-1.34-.76 1.53-.15.31-1.51.62 1.41 1.53-.17-1.14 1.02zM8.07 14.08l-1.12-1.92-.64-.07 1.53 2.18.23-.19zm-.87.87l-2.35-1.81-.08-1.05.95-.03 1.95 2.38-.47.51zm-.35.42l-1.94-1.1-.08-.64 2.2 1.5-.18.24zM10.84 13.68l.59-2.15-.4-.51-.48 2.62.29.04zm-1.23 0l-.36-2.95.69-.8.69.65-.33 3.06-.69.04zm-.55.03l-.58-2.15.4-.51.47 2.62-.29.04zM13.09 15.41l1.95-1.07.09-.64-2.22 1.47.18.24zm-.86-.89l1.87-2.3 1.06-.06.01.95L12.74 15l-.51-.48zm-.4-.37l1.14-1.91.64-.07-1.56 2.16-.22-.18zM13.43 18.1l2.15.59.51-.4-2.62-.48-.04.29zm.01-1.24l2.95-.36.8.69-.66.69-3.06-.33-.03-.69zm-.04-.54l2.15-.58.51.4-2.62.47-.04-.29zM11.8 20.29l1.13 1.92.64.07-1.54-2.17-.23.18zm.87-.89l2.36 1.8.09 1.05-.95.04-1.96-2.37.46-.52zm.35-.41l1.94 1.08.08.64-2.2-1.49.18-.23zM9.04 20.7l-.57 2.15.4.51.46-2.63-.29-.03zm1.24-.01l.38 2.95-.69.8-.7-.65.31-3.06.7-.04zm.54-.04l.59 2.15-.4.51-.49-2.62.3-.04zM6.8 19.01l-1.93 1.1-.08.65 2.19-1.51-.18-.24zm.87.88l-1.83 2.34-1.06.07-.02-.95 2.4-1.92.51.46zm.41.36l-1.11 1.93-.64.07 1.53-2.18.22.18zM6.42 16.3l-2.15-.57-.51.4 2.62.46.04-.29zm0 1.23l-2.94.38-.81-.69.65-.7 3.06.31.04.7zm.04.55l-2.15.59-.51-.4 2.62-.49.04.3z"/><path d="M9.93 13.56a3.63 3.63 0 1 1 0 7.26 3.63 3.63 0 0 1 0-7.26M22.4 18.43l.91-1.24-.91-1.24 1.46.48.9-1.25-.01 1.54 1.47.46-1.47.47.01 1.54-.89-1.25zM4.04 2.93l-1.33.77-1.14-1.03.33 1.5-1.34.76 1.53.16.31 1.5.62-1.41 1.53.18-1.14-1.03z" fill="#f3d02f"/></svg>