<svg xmlns="http://www.w3.org/2000/svg" viewBox="0 0 58.93 34.37"><path fill="#fff" d="M0 0h58.93v34.37H0z"/><path fill="#2a680b" d="M14.73 0h44.19v34.37H14.73z"/><path d="M35.9 6.87c5.68 0 10.29 4.62 10.29 10.31 0 5.7-4.61 10.31-10.29 10.31-5.68 0-10.29-4.62-10.29-10.31S30.22 6.87 35.9 6.87" fill="#fff"/><path d="M32.26 7.78c3.89-3.47 9.86-3.12 13.32.79 3.46 3.9 3.11 9.88-.78 13.34-3.89 3.47-9.86 3.12-13.32-.78-3.46-3.91-3.11-9.88.78-13.35" fill="#2a680b"/><path fill="#fff" d="M43.59 10.34l-3.14 1.37.69 1.58z"/><path fill="#fff" d="M43.59 10.34l-1.73 2.96-1.48-.87z"/><path fill="#fff" d="M43.99 14.36l-2.28-2.57-1.28 1.14z"/><path fill="#fff" d="M43.99 14.36l-3.35-.74.36-1.68z"/><path fill="#fff" d="M39.65 9.47l.34 3.42 1.71-.17z"/><path fill="#fff" d="M39.65 9.47l2.28 2.57-1.28 1.14z"/><path fill="#fff" d="M40.29 15.98l1.74-2.97-1.48-.87z"/><path fill="#fff" d="M40.29 15.98l-.33-3.42 1.7-.17z"/><path fill="#fff" d="M37.61 12.96l3.36.73.36-1.68z"/><path fill="#fff" d="M37.61 12.96l3.15-1.38.69 1.57z"/></svg>