<svg xmlns="http://www.w3.org/2000/svg" viewBox="0 0 58.93 34.37"><path fill="#1a237b" d="M29.46 0V1.65l-6.52 3.26h6.52v4.91h-6.52l6.52 3.26v2.02H26.9l-9.71-4.86v4.86h-4.91v-4.86L2.56 15.1H0v19.27h58.92V0zM0 9.82v3.26l6.53-3.26zM0 4.91h6.53L0 1.65zM12.28 0H3.29l8.99 4.49zM17.19 0v4.49L26.17 0z"/><path fill="#fff" d="M6.53 9.82L0 13.08v.18l6.88-3.44zM21.84 9.82l7.62 3.81v-.55l-6.53-3.26zM0 1.65l6.53 3.26h1.1L0 1.1zM12.28 9.82h-.26L1.46 15.1h1.1l9.72-4.86zM12.28 4.49L3.29 0h-.34l9.33 4.66zM22.59 4.91h.35l6.52-3.26v-.18zM17.19 10.07v.17l9.71 4.86h.35zM17.19 4.91h.25L27.27 0h-1.1l-8.98 4.49z"/><path fill="#bd0034" d="M9.82 9.82L0 14.73v.37h1.46l10.56-5.28zM19.64 9.82l9.82 4.91v-1.1l-7.62-3.81zM0 1.1l7.63 3.81h2.19L0 0zM19.64 4.91L29.46 0h-2.19l-9.82 4.91z"/><path fill="#fff" d="M17.44 9.82h-.25v.25l10.06 5.03H28zM12.02 4.91h.26v-.25L2.95 0H2.2zM22.59 4.91l6.87-3.44V1.1l-7.62 3.81zM6.88 9.82L0 13.26v.37l7.63-3.81z"/><path fill="#fff" d="M0 0l9.82 4.91h2.2L2.2 0zM29.46 1.1V0l-9.82 4.91h2.2zM7.62 9.82L0 13.63v1.1l9.82-4.91zM28 15.1h1.46v-.37l-9.82-4.91h-2.2zM20.97 5.89h8.49v-.98h-6.53zM13.26 4.98V0h-.98v4.49zM13.26 9.75l-.98.49v4.86h.98zM16.2 9.75v5.35h.99v-4.86zM0 4.91v.98h8.49l-1.96-.98zM0 8.84v.98h6.53l1.96-.98zM16.2 4.98l.99-.49V0h-.99zM22.93 9.82h6.53v-.98h-8.49z"/><path fill="#fff" d="M13.26 4.98l-.98-.49v.17l.98.5zM17.44 4.91h-.25v-.42l-.99.49v.55zM21.84 9.82h1.09l-1.96-.98h-1.1zM20.97 5.89l1.96-.98h-.34l-1.97.98zM7.62 4.91H6.53l1.96.98h1.1zM8.49 8.84l-1.96.98h.34l1.97-.98zM12.02 9.82h.26v.42l.98-.49V9.2zM16.2 9.75l.99.49v-.17l-.99-.5z"/><path fill="#fff" d="M17.68 8.84l1.96.98h2.2l-1.97-.98zM11.79 5.89l-1.97-.98h-2.2l1.97.98zM13.26 8.84h-1.47l-1.97.98h2.2l1.24-.62zM16.2 5.89h1.48l1.96-.98h-2.19l-1.25.62zM13.26 5.16l-.98-.5v.25h-.26l1.24.62zM8.84 8.84l-1.97.98h.75l1.97-.98zM17.44 9.82L16.2 9.2v.37l.99.5v-.25zM19.87 5.89h.75l1.97-.98h-.75z"/><path fill="#fff" d="M16.2 8.84v.36l1.25.62h2.19l-1.96-.98zM13.26 5.89v-.36l-1.24-.62h-2.2l1.97.98zM11.79 8.84h-2.2l-1.97.98h2.2zM19.87 5.89l1.97-.98h-2.2l-1.96.98z"/><path fill="#bd0034" d="M16.2 4.98V0h-1.47v5.72zM0 7.36v1.48h8.49l2.95-1.48zM20.97 8.84h8.49V7.36H18.02zM0 5.89v1.47h11.44L8.49 5.89zM14.73 9.01l-1.47.74v5.35h1.47z"/><path fill="#bd0034" d="M14.73 5.72V0h-1.47v4.98zM14.73 15.1h1.47V9.75l-1.47-.74zM18.02 7.36h11.44V5.89h-8.49zM14.73 8.84v.17l1.47.74v-.18z"/><path fill="#bd0034" d="M14.73 9.01v-.17l-.37-.19-1.1.55v.55zM12.53 7.36L9.59 5.89h-1.1l2.95 1.47h.34zM14.73 5.89v-.17l-1.47-.74v.18zM16.93 7.36l2.94 1.48h1.1l-2.95-1.48h-.34zM11.79 7.36h-.35L8.49 8.84h.35zM14.73 5.89l.38.19 1.09-.55v-.55l-1.47.74z"/><path fill="#bd0034" d="M17.68 7.36h.35l2.94-1.47h-.35zM17.68 8.84h2.19l-2.94-1.48h-2.2zM17.68 5.89H16.2v-.36l-1.09.55 1.09.55zM11.79 8.84h1.47v.36l1.1-.55-1.1-.55zM11.79 5.89h-2.2l2.95 1.47h2.19zM14.73 8.46l-.37.19.37.19z"/><path fill="#bd0034" d="M14.73 8.84l1.47.73V9.2l-1.47-.74zM12.53 7.36h-.75l.38.19zM14.73 6.27v-.38l-1.47-.73v.37z"/><path fill="#bd0034" d="M15.11 6.08l-.38-.19v.38zM11.79 7.36L8.84 8.84h.75l2.57-1.29zM16.93 7.36h.75l-.38-.18zM17.68 7.36l2.94-1.47h-.75L17.3 7.18zM17.3 7.18l2.57-1.29h-2.19l-1.48.74zM14.73 8.46v-1.1l-1.47.74 1.1.55z"/><path fill="#bd0034" d="M12.16 7.55L9.59 8.84h2.19l1.48-.74zM17.68 8.84l-2.95-1.48v1.1l1.47.74v-.36zM13.26 8.1l1.47-.74h-2.2l-.37.19zM16.2 6.63l-1.47.73h2.2l.37-.18z"/><path fill="#bd0034" d="M14.73 7.36l1.47-.73-1.09-.55-.38.19z"/><path fill="#bd0034" d="M14.73 6.27l-1.47-.74v.36h-1.47l2.94 1.47z"/><path d="M39.32 17.45c-.63.54-1.23 1.31-1.37 2.01-.41 1.98-.96 2.42-1.81 1.99 0 1.06.93 1.14 1.34.52 0 1 .36 1.86 1.18 2.6.34.31.41.1.24-.25-.16-.34-.16-1.45-.49-2.09.52.38 1.29.16 1.23-.87-.67.39-1.34.38-1.41-.55-.09-1.08.34-2.67 1.09-3.36" fill="#f0e030"/><path d="M38.9 24.75c-.06 0-.15-.05-.27-.16-.78-.71-1.17-1.55-1.18-2.56-.16.22-.4.36-.65.36-.32 0-.69-.24-.69-.93v-.02l.02.01c.2.1.37.15.52.15.57 0 .96-.66 1.27-2.13.16-.76.82-1.54 1.38-2.02l.02.02c-.75.69-1.17 2.29-1.09 3.36.04.51.26.78.65.78.21 0 .47-.08.74-.24l.02-.01v.02c.02.37-.06.66-.23.84-.13.14-.3.21-.5.21-.16 0-.33-.05-.47-.14.18.38.25.9.32 1.32.04.31.08.58.15.72.08.17.11.32.07.38-.02.02-.05.04-.08.04m-1.42-2.82v.05c0 1.03.38 1.87 1.17 2.59.13.12.21.15.25.15.02 0 .04-.01.04-.02.04-.06.01-.19-.07-.35-.07-.14-.11-.42-.15-.73-.07-.44-.15-.99-.34-1.36l-.03-.05.05.03c.15.11.33.17.5.17.19 0 .35-.07.48-.2.17-.18.24-.45.22-.8-.27.15-.52.23-.73.23-.28 0-.63-.14-.68-.81-.07-.96.26-2.36.88-3.14-.49.48-.99 1.14-1.13 1.79-.31 1.49-.71 2.15-1.3 2.15-.15 0-.32-.05-.52-.14.01.65.36.88.66.88.25 0 .49-.15.65-.39l.05-.05z"/><path d="M38.52 9.59c.04-.39-.04-.79-.33-1.05-.55-.49-1.1-.33-1.5.07-.6-.33-.93.83-1.61.64.11.38.29.54.64.41-.36.33 0 .72-.43 1.11.77.24 1.18-.18 1.14-.91.29.26.75.24 1-.05-.41-.13-.41-.48-.24-.82.25-.5 1.4-.48 1.33.6" fill="#f0e030"/><path d="M35.7 10.85c-.12 0-.26-.02-.41-.07l-.02-.01.02-.02c.22-.2.22-.4.23-.59.01-.17.01-.32.15-.47-.29.09-.48-.05-.6-.44l-.01-.02.03.01c.05.01.1.02.15.02.26 0 .46-.19.66-.38.19-.18.37-.34.58-.34.07 0 .14.02.21.05.25-.24.52-.36.79-.36.25 0 .49.1.72.31.26.23.38.62.33 1.06h-.03c.02-.29-.05-.52-.2-.68a.716.716 0 0 0-.53-.22c-.26 0-.48.12-.57.3-.1.21-.13.4-.07.55.05.12.15.2.31.25l.02.01-.01.02c-.13.15-.32.24-.52.24-.17 0-.34-.06-.47-.17.01.33-.07.59-.23.76a.78.78 0 0 1-.53.19m-.38-.1c.38.12.68.07.88-.13.16-.17.24-.43.22-.77v-.04l.03.02a.699.699 0 0 0 .97-.03.465.465 0 0 1-.3-.26c-.06-.15-.04-.35.07-.57.1-.19.33-.32.6-.32.22 0 .41.08.55.23.09.1.15.22.19.36-.03-.29-.14-.53-.32-.69-.23-.2-.46-.3-.7-.3-.27 0-.54.13-.78.36l-.03.01-.01-.01a.42.42 0 0 0-.21-.06c-.2 0-.38.16-.56.33-.2.19-.41.38-.68.38-.04 0-.09 0-.13-.02.09.29.22.42.4.42.06 0 .13-.02.21-.04l.07-.03-.06.05c-.17.15-.18.32-.18.5-.01.21-.02.41-.23.61"/><path d="M40.3 15.27c-.87.46-2.45.26-2.6-.87-.15-1.13.95-1.63 1.24-1.78.46-.23.82.18.67.65.51-.18.62-.77.38-1.11.67.05 1.29-.46 1.55-1.18-.24.22-.88.07-1.4.04.16-.18.16-.53.11-.71-.55.57-1.36.31-2.42 1.96.16-.57.47-1.72.65-2.47.02-.07.03-.15.04-.23.07-1.08-1.08-1.1-1.33-.61.27.3.13.66.03 1.19-.11.64-.36 2.11-.57 2.6-.07-.77-.57-.82-.67-1.19-.15.1-.23.36-.2.54-.18-.2-.8.05-1.03-.24-.25.49.15.98.55 1.19-.24.02-.29.3-.55.3.35.41.71.57 1.13.6.42.03.73.19.98.69.41.84 1.97 1.37 3.44.63" fill="#437428"/><path d="M38.84 15.64c-.88 0-1.7-.4-1.99-.97-.23-.45-.51-.65-.97-.69-.45-.04-.81-.22-1.14-.61l-.02-.03h.03c.13 0 .21-.07.29-.15.06-.06.13-.12.22-.14-.43-.24-.75-.73-.52-1.19l.01-.02.01.02c.11.14.32.16.52.16h.12c.14 0 .27 0 .35.06-.01-.18.06-.41.21-.51l.02-.01.02.01c.04.14.13.24.24.34.17.17.37.36.42.79.18-.48.39-1.62.51-2.32l.04-.22c.02-.09.04-.18.05-.26.08-.39.14-.67-.08-.92l-.01-.01v-.01c.1-.19.33-.32.6-.32.22 0 .41.08.55.23.16.17.23.41.21.7-.01.07-.02.15-.04.23-.17.73-.46 1.79-.63 2.38.68-1.02 1.25-1.27 1.71-1.48.25-.11.47-.21.66-.4l.02-.02v.02c.05.18.05.51-.1.7.12.01.24.02.37.04.19.02.39.04.55.04.22 0 .36-.04.44-.12l.04-.04V11c-.27.73-.89 1.22-1.54 1.19.11.17.14.41.07.62-.07.23-.24.4-.48.49l-.03.01.01-.03c.06-.2.03-.39-.07-.53-.13-.17-.36-.22-.58-.1l-.03.01c-.33.16-1.35.67-1.21 1.75.1.8.92 1.08 1.58 1.08.32 0 .65-.07.91-.18.03-.01.06-.03.09-.04l.01.02c-.03.02-.06.03-.09.05-.42.19-.88.3-1.35.3m-4.05-2.26c.32.37.66.54 1.1.58.47.04.76.24.99.7.28.56 1.09.95 1.96.95.32 0 .64-.05.95-.15-.16.03-.33.05-.49.05-.67 0-1.5-.29-1.61-1.11-.14-1.1.88-1.61 1.22-1.78l.03-.02c.24-.12.48-.07.62.12.1.14.13.33.08.53a.728.728 0 0 0 .34-1.08l-.02-.02h.03c.63.05 1.24-.41 1.52-1.12-.09.06-.23.09-.42.09-.17 0-.37-.02-.56-.04-.13-.02-.27-.03-.39-.04h-.03l.02-.02c.15-.16.16-.49.12-.67-.19.18-.4.28-.65.39-.47.21-1.06.47-1.75 1.55l-.05.08.03-.09c.16-.57.47-1.7.65-2.47.02-.08.03-.15.04-.22.02-.29-.05-.52-.2-.68a.716.716 0 0 0-.53-.22c-.25 0-.47.12-.57.29.22.25.16.54.08.94-.02.08-.04.17-.05.26l-.05.22c-.13.72-.34 1.94-.53 2.38l-.02.05v-.06c-.04-.46-.24-.66-.42-.83-.1-.1-.2-.2-.25-.34-.14.1-.2.35-.17.51l.01.05-.03-.04c-.07-.08-.21-.08-.36-.08h-.12c-.2 0-.41-.01-.53-.15-.21.45.13.93.56 1.15l.05.02-.05.01c-.11.01-.18.07-.25.14-.1.08-.18.16-.3.17"/><path d="M42.45 14.27c-.49 1.36-1.83 2.32-2.43 2.47-1.03.25-3.13 1.27-3.69 1.79a.69.69 0 0 1-.23-.09c-.28-.19-.51-.83-.02-1.37 1.54-1.44 3.18-.82 4.21-1.8-.87.46-2.45.26-2.6-.87.93.25 2.61.26 3.95-1.18.19.2.71.82.81 1.05" fill="#f0e030"/><path d="M36.33 18.55a.598.598 0 0 1-.24-.1c-.16-.11-.28-.34-.3-.58-.02-.2.01-.51.29-.81.84-.79 1.73-.96 2.51-1.12.6-.12 1.18-.23 1.63-.61-.26.12-.59.19-.92.19-.67 0-1.5-.29-1.61-1.11v-.02h.02c.22.06.57.13 1 .13.79 0 1.94-.23 2.94-1.3l.01-.01.01.01c.19.21.7.82.8 1.05v.01c-.5 1.37-1.83 2.33-2.44 2.48-1.03.24-3.13 1.26-3.7 1.79zm4.05-3.34l-.08.07c-.47.45-1.08.57-1.72.69-.78.15-1.66.32-2.5 1.11-.27.29-.3.59-.28.79.03.23.14.45.29.56.05.04.13.07.22.09.57-.52 2.67-1.54 3.69-1.79.6-.15 1.93-1.09 2.42-2.45-.1-.22-.59-.81-.78-1.02a3.95 3.95 0 0 1-2.95 1.29c-.42 0-.77-.07-.99-.12.12.78.92 1.06 1.57 1.06.37 0 .72-.08 1-.23l.11-.05z"/><path d="M39.32 17.45c-.78.66-1.18 2.28-1.1 3.37.02.3.11.51.24.64.06-.62.49-2.23 1.59-2.94.93-.6 2.38-1.96 2.92-3.51-.1-.28-.26-.47-.57-.67-.53 1.46-1.96 2.16-3.08 3.11" fill="#437428"/><path d="M38.47 21.49l-.02-.02c-.14-.14-.22-.35-.24-.65-.08-1.11.32-2.71 1.1-3.38.28-.24.59-.47.88-.69.88-.65 1.8-1.33 2.2-2.42l.01-.02.02.01c.31.2.48.39.58.68v.01c-.57 1.65-2.11 2.99-2.93 3.52-1.14.74-1.54 2.41-1.59 2.93l-.01.03zm3.94-7.13c-.4 1.09-1.32 1.77-2.2 2.42-.3.22-.6.45-.88.68-.76.64-1.17 2.25-1.09 3.36.02.27.09.47.21.6.06-.56.46-2.18 1.6-2.92.82-.53 2.35-1.86 2.92-3.5-.11-.26-.27-.45-.56-.64"/><path d="M41.95 13.64c-.28.42-.91.99-1.51 1.22.13-.15.17-.33.18-.49-.77.29-2.3.26-2.92.03.93.25 2.61.26 3.95-1.18.13.15.25.28.3.42" fill="#406e3d"/><path d="M40.39 14.9l.04-.05c.1-.11.16-.27.17-.46-.35.13-.9.21-1.5.21-.58 0-1.1-.07-1.41-.18l.01-.03c.22.06.57.13 1 .13.79 0 1.94-.23 2.94-1.3l.01-.01.01.01c.12.14.25.28.31.42v.01l-.01.01c-.28.42-.91.99-1.52 1.22l-.05.02zm.25-.55v.02a.84.84 0 0 1-.15.46c.58-.24 1.18-.78 1.45-1.19-.06-.13-.17-.27-.29-.39a3.95 3.95 0 0 1-2.95 1.29c-.1 0-.19 0-.28-.01.21.02.44.03.68.03.61 0 1.16-.08 1.51-.21h.03z"/><path d="M36.08 17.07c-1.25 1.17-.43 2.19.06 2.42-.13.82.64.72.62 1.4.31-.18.39-.65.34-1.03.39.42 1.39-.05 1.6.73.13-.86-.54-1.73-1.37-1.65.34-.31.15-.82-.18-.95-.07.64-.78.64-1.06.44-.27-.19-.5-.83-.01-1.36" fill="#437428"/><path d="M36.75 20.91v-.03c.01-.31-.15-.45-.31-.61-.19-.17-.38-.35-.31-.79-.24-.12-.63-.47-.71-.98-.05-.34.01-.87.65-1.46l.02.02c-.27.29-.3.59-.28.79.03.23.14.45.29.56.1.07.25.11.41.11.13 0 .58-.04.63-.54v-.02l.02.01c.18.07.32.26.36.46.03.18-.02.35-.15.48.37-.02.73.14.99.45.29.33.42.79.35 1.22l-.01.07v-.05c-.12-.45-.51-.48-.88-.51-.25-.02-.52-.04-.69-.19.04.38-.05.83-.35 1l-.03.01zm-.81-3.68c-.39.42-.55.86-.48 1.28.08.5.46.85.7.96h.01v.01c-.07.43.11.6.3.77.16.15.32.3.32.6.28-.18.36-.63.31-1l-.01-.04.03.03c.16.17.42.19.7.21.37.03.74.06.89.47.04-.41-.09-.82-.36-1.14-.27-.31-.63-.47-1.01-.43h-.04l.03-.03c.14-.13.2-.3.17-.48a.577.577 0 0 0-.32-.43c-.05.4-.37.55-.66.55-.16 0-.32-.05-.42-.12-.16-.11-.28-.34-.3-.58a.843.843 0 0 1 .14-.63"/><path d="M38.78 24.5c-.14.08-.13.25-.04.37.17.23-.12.75.43.86.16.03.29-.07.35-.25.17-.52-.38-.58-.43-.82-.04-.25-.19-.23-.31-.16" fill="#f0e030"/><path d="M39.24 25.74c-.02 0-.04 0-.06-.01-.37-.07-.37-.33-.38-.55 0-.12 0-.24-.06-.32-.05-.07-.08-.16-.06-.24.01-.06.05-.11.11-.15.05-.03.1-.05.15-.05.07 0 .16.04.19.21.02.08.1.15.18.21.16.12.35.27.24.61-.07.2-.18.29-.31.29m-.31-1.27a.22.22 0 0 0-.13.04c-.05.03-.08.07-.09.13-.01.07.01.15.06.22.06.08.07.2.07.33.01.22.01.45.36.52.15.03.27-.06.34-.24.11-.32-.07-.46-.23-.58-.09-.07-.18-.14-.19-.23-.06-.13-.11-.19-.19-.19"/><path d="M39.25 25.46c-.18.09-.34.21-.27.79.03.24.02.83-.2.84.13.07.41.14.52-.02.11.18.36.13.46-.1.13.1.31-.07.31-.23.11.07.34-.03.29-.39.14.05.32-.05.38-.14-.2-.04-.72-.32-.84-.54-.12-.2-.44-.31-.65-.21" fill="#f0e030"/><path d="M39.49 27.2c-.07 0-.14-.03-.19-.1-.12.13-.39.08-.53 0l-.05-.02h.06c.03 0 .06-.02.08-.04.12-.14.13-.59.1-.78-.07-.59.09-.72.28-.81.22-.1.55.01.67.24.12.22.64.49.83.53l.02.01-.01.02c-.07.09-.24.19-.38.15.03.24-.07.34-.12.37-.05.03-.12.04-.17.02a.32.32 0 0 1-.16.23c-.06.03-.11.02-.16 0-.06.11-.15.19-.26.2h-.01m-.18-.16l.01.01c.04.07.11.11.19.1.1-.01.19-.08.24-.19-.09-.08-.26-.31-.29-.52h.03c.03.2.19.42.27.5l.01.01c.05.04.1.03.14.01a.29.29 0 0 0 .15-.22c-.12-.07-.39-.41-.45-.65l.03-.01c.06.22.3.55.42.63l.02.02c.05.03.11.03.16-.01.04-.03.14-.12.1-.35-.15-.04-.55-.31-.72-.59l.02-.01c.16.26.53.52.69.57l.02.01c.12.04.28-.04.35-.11-.22-.05-.71-.32-.83-.54-.12-.21-.43-.32-.63-.22-.18.09-.33.2-.26.78.02.21.02.65-.11.8-.02.02-.04.03-.06.04.13.05.36.1.46-.02-.06-.1-.07-.43-.03-.64l.03.01c-.02.17-.01.49.04.59m.23-15.94l-.01-.02c.13-.07.32-.1.62-.08v.03c-.31-.03-.49 0-.61.07m-3.11-2.17l-.02-.02c.09-.13.18-.24.28-.34l.02.02c-.1.1-.19.21-.28.34"/><path d="M47.89 17.08c2.01 1.68 2.14 3.02 1.83 3.81-.16-.74-1-1.88-1.86-2.17l.03-1.64z" fill="#f0e030"/><path d="M49.72 20.94l-.01-.05c-.17-.77-1.02-1.88-1.85-2.16l-.01-.01v-.01l.03-1.66.02.02c2.19 1.83 2.09 3.18 1.83 3.82l-.01.05zm-1.85-2.23c.82.29 1.66 1.36 1.85 2.13.24-.65.28-1.96-1.82-3.73l-.03 1.6z"/><path d="M44.3 16.13h3.72v4.41c0 3.76-2.09 5.98-4.21 7.15-2.12-1.17-4.21-3.4-4.21-7.15v-4.41h2.61c0 .23.02.57.29.92.62-.06 1.31-.52 1.8-.92" fill="#437428"/><path d="M43.81 27.71c-1.22-.68-2.2-1.56-2.92-2.62-.87-1.3-1.31-2.83-1.31-4.55v-4.42h2.64v.01c.01.28.04.59.29.9.66-.07 1.4-.6 1.78-.91h3.74v4.42c0 1.72-.44 3.26-1.31 4.55-.71 1.07-1.69 1.95-2.91 2.62zm-4.2-11.56v4.4c0 4.18 2.63 6.27 4.2 7.14 1.57-.87 4.2-2.96 4.2-7.14v-4.4h-3.7c-.39.32-1.13.85-1.8.92h-.01l-.01-.01c-.28-.35-.29-.72-.3-.91h-2.58z"/><path d="M48.02 16.13v4.41c0 1.14-.19 2.13-.52 3l-3.7-6.78-3.7 6.78c-.32-.87-.51-1.86-.51-3v-4.41h8.43z" fill="#376bc3"/><path d="M47.51 23.58l-3.7-6.79-3.7 6.79-.01-.03a8.55 8.55 0 0 1-.52-3v-4.42h8.46v4.42c0 1.08-.17 2.08-.52 3l-.01.03zm-7.9-7.43v4.4c0 1.06.17 2.06.5 2.96l3.7-6.78.01.02 3.68 6.76c.33-.9.5-1.9.5-2.96v-4.4h-8.39z"/><path d="M47.62 23.21c-.07.2-.18.53-.28.73l-3.54-6.57-3.54 6.57c-.09-.2-.21-.52-.28-.73l3.81-7.07 3.83 7.07z" fill="#f0e030"/><path d="M47.34 23.97l-.01-.03-3.52-6.55-3.54 6.57-.01-.03a6.93 6.93 0 0 1-.28-.73v-.01h.01l3.82-7.09 3.83 7.1v.01c-.07.22-.19.53-.28.73l-.02.03zm-7.33-.75c.07.21.18.5.26.69l3.53-6.57 3.54 6.57c.09-.19.19-.49.26-.69l-3.8-7.04-3.79 7.04z"/><path d="M45.49 25.63c.1.05.28.14.36.17.2-.39.23-.95.16-1.44-.21.54-.93.52-1.13.85.12.06.23.14.33.21-.25.24-.82.66-1.15.75v-3.5c0-.25-.08-.45-.08-.65v-.72c0-.16-.03-.4-.18-.4s-.18.24-.18.4v.73c0 .2-.08.44-.08.65v3.5c-.18-.52-.88-.34-1.21-.87.13-.03.26-.04.39-.02-.24-.83-.91-.9-1.05-1.14 0 .34-.15 1.14.08 1.49.05-.06.13-.13.22-.18.28.6 1.52.61 1.82 1.6.25-.37 1.1-.79 1.7-1.43" fill="#f0e030"/><path d="M43.8 27.1l-.01-.03c-.17-.57-.65-.81-1.08-1.03-.31-.16-.61-.31-.73-.56-.09.05-.16.11-.2.17l-.01.02-.01-.02c-.17-.26-.13-.79-.1-1.17.01-.13.02-.24.02-.32v-.06l.03.05c.04.08.14.14.26.21.26.16.62.37.78.93l.01.02h-.02a.931.931 0 0 0-.37.01c.16.23.39.32.62.4.23.08.44.16.55.38v-3.43c0-.11.02-.22.04-.34.02-.11.04-.22.04-.32v-.71c0-.13.02-.42.19-.42s.19.29.19.42v.73c0 .1.02.19.04.29.02.11.04.23.04.36v3.48c.33-.11.87-.5 1.11-.73-.1-.07-.2-.14-.31-.2l-.01-.01.01-.01c.09-.14.27-.22.46-.3.26-.11.55-.24.67-.54l.02-.05.01.06c.07.56.01 1.09-.16 1.45l-.01.01h-.01c-.08-.03-.24-.11-.34-.16h-.01c-.3.32-.66.59-.98.82-.31.23-.58.42-.69.6h-.04zm-1.81-1.66l.01.01c.12.25.41.4.73.56.43.21.91.46 1.09 1.02.13-.18.38-.36.68-.58.32-.24.68-.5.98-.82l.01-.01.03.01c.09.05.25.13.33.16.17-.34.23-.84.16-1.36-.13.28-.41.4-.66.51-.18.08-.35.15-.44.28.11.06.22.13.32.2l.01.01-.01.01c-.24.23-.81.66-1.15.76l-.02.01v-3.52c0-.13-.02-.24-.04-.36-.02-.1-.04-.2-.04-.3v-.73c0-.09-.01-.39-.17-.39s-.16.3-.16.39v.73c0 .1-.02.21-.04.32-.02.11-.04.23-.04.33v3.59l-.03-.08c-.09-.26-.32-.35-.56-.43-.24-.08-.48-.17-.64-.43l-.01-.02h.02c.13-.03.26-.04.38-.02-.17-.54-.51-.74-.76-.9a.896.896 0 0 1-.25-.18c0 .08-.01.17-.02.28-.03.37-.07.88.09 1.14.05-.06.13-.12.21-.17l-.01-.02z"/><path d="M43.81 22.72c.28 0 1.16-.09 1.48-.09.08 0 .15-.13.15-.28 0-.15-.07-.28-.15-.28-.32 0-1.2-.09-1.48-.09s-1.16.09-1.48.09c-.08 0-.15.13-.15.28 0 .15.07.28.15.28.32 0 1.2.09 1.48.09" fill="#f0e030"/><path d="M43.81 22.73c-.13 0-.41-.02-.69-.04-.31-.02-.62-.05-.78-.05-.09 0-.17-.13-.17-.29 0-.16.07-.29.17-.29.16 0 .48-.02.78-.05.29-.02.56-.04.69-.04.13 0 .41.02.69.04.3.02.62.05.78.05.09 0 .16.13.16.29 0 .16-.07.29-.16.29-.16 0-.48.02-.78.05-.29.02-.56.04-.69.04m0-.73c-.13 0-.41.02-.69.04-.3.02-.62.05-.79.05-.07 0-.14.12-.14.26s.06.26.14.26c.17 0 .48.02.79.05.29.02.56.04.69.04.13 0 .41-.02.69-.04.31-.02.62-.05.79-.05.07 0 .13-.12.13-.26s-.06-.26-.13-.26c-.17 0-.48-.03-.79-.05-.29-.02-.56-.04-.69-.04"/><path d="M43.63 21.28a.34.34 0 0 0-.22-.07c-.19 0-.34.14-.34.3 0 .17.15.31.34.31.18 0 .33-.14.33-.31 0-.13.19-.13.19 0 0 .26-.24.48-.52.48-.29 0-.53-.22-.53-.48 0-.27.24-.48.53-.48.09 0 .17.02.24.06a.92.92 0 0 0-.02.19" fill="#f0e030"/><path d="M43.41 22.01c-.3 0-.54-.22-.54-.49s.24-.49.54-.49c.08 0 .17.02.25.05l.01.01v.02a.99.99 0 0 0-.02.18v.03l-.02-.02a.314.314 0 0 0-.21-.07c-.18 0-.32.13-.32.29s.14.29.32.29c.17 0 .32-.13.32-.29 0-.15.22-.15.22 0-.01.26-.26.49-.55.49m0-.96c-.28 0-.51.21-.51.47s.23.47.51.47.51-.21.51-.47c0-.11-.16-.11-.16 0 0 .18-.16.32-.35.32-.19 0-.35-.14-.35-.32s.16-.32.35-.32c.07 0 .15.02.21.06 0-.06.01-.11.02-.16a.505.505 0 0 0-.23-.05"/><path d="M42.33 22.63c.08 0 .15-.13.15-.28 0-.15-.07-.28-.15-.28" fill="#f0e030"/><path d="M42.33 22.64v-.03c.07 0 .14-.12.14-.26s-.06-.26-.14-.26v-.03c.09 0 .16.13.16.29 0 .16-.07.29-.16.29"/><path d="M42.45 22.63c.08 0 .15-.13.15-.28 0-.15-.07-.28-.15-.28" fill="#f0e030"/><path d="M42.45 22.64v-.03c.07 0 .14-.12.14-.26s-.06-.26-.14-.26v-.03c.09 0 .16.13.16.29.01.16-.07.29-.16.29"/><path d="M43.26 22.68c.1 0 .18-.15.18-.33 0-.19-.08-.33-.18-.33" fill="#f0e030"/><path d="M43.26 22.7v-.03c.09 0 .17-.15.17-.32s-.08-.32-.17-.32V22c.11 0 .19.15.19.35 0 .19-.08.35-.19.35"/><path d="M43.45 22.7c.1 0 .19-.16.19-.35 0-.19-.08-.35-.19-.35" fill="#f0e030"/><path d="M43.45 22.71v-.03c.09 0 .18-.15.18-.34 0-.19-.08-.33-.18-.33v-.03c.11 0 .2.16.2.36s-.09.37-.2.37"/><path d="M44.07 22.7c.11 0 .19-.16.19-.35 0-.2-.08-.35-.19-.35" fill="#f0e030"/><path d="M44.07 22.72v-.03c.1 0 .18-.15.18-.34 0-.19-.08-.34-.18-.34v-.03c.12 0 .21.16.21.37s-.09.37-.21.37"/><path d="M44.27 22.69c.1 0 .19-.15.19-.34 0-.19-.08-.34-.19-.34" fill="#f0e030"/><path d="M44.27 22.7v-.03c.1 0 .17-.15.17-.33 0-.18-.08-.33-.17-.33v-.03c.11 0 .2.16.2.36 0 .21-.08.36-.2.36"/><path d="M45.15 22.63c.08 0 .15-.13.15-.28s-.07-.28-.15-.28" fill="#f0e030"/><path d="M45.15 22.65v-.03c.08 0 .14-.12.14-.27 0-.14-.06-.27-.14-.27v-.03c.09 0 .17.13.17.3 0 .16-.08.3-.17.3"/><path d="M41.99 25.46c.1-.06.22-.12.35-.15" fill="#f0e030"/><path d="M41.99 25.47l-.02-.02c.11-.07.23-.12.35-.15l.01.03c-.11.03-.23.08-.34.14"/><path d="M45.31 25.49c-.03-.02-.06-.04-.1-.07" fill="#f0e030"/><path d="M45.3 25.51l-.02-.01c-.02-.02-.05-.03-.08-.05l.02-.02c.03.02.05.04.08.05l.02.01-.02.02z"/><path d="M45.49 25.63c.23-.25.42-.52.52-.84" fill="#f0e030"/><path d="M45.5 25.64l-.02-.02c.26-.28.43-.55.52-.84l.03.01c-.1.3-.27.57-.53.85"/><path d="M43.06 19.25c0-.08.07-.11.14-.17.09-.07.13-.1.21-.1h1.07c.08 0 .1.02.1.09v1.46c0 .07-.02.09-.1.09h-1.43v-1.39" fill="#fff"/><path d="M44.48 20.64h-1.44v-1.4c.01-.07.06-.1.11-.15.01-.01.02-.01.03-.02l.02-.01c.08-.06.12-.09.2-.09h1.07c.09 0 .11.03.11.11v1.46c.02.07-.01.1-.1.1m-1.41-.03h1.41c.07 0 .08-.02.08-.08v-1.46c0-.06-.01-.08-.08-.08h-1.07c-.07 0-.11.03-.19.08l-.02.01c-.01.01-.02.02-.03.02-.06.04-.1.07-.1.13v1.38z"/><path d="M44.22 20.75c.14 0 .12 0 .21-.1.1-.1.1-.09.1-.19v-1.33c0-.07-.02-.09-.09-.09h-.99c-.08 0-.11.03-.2.1-.07.05-.13.09-.13.16v1.45h1.1z" fill="#e3e3e3"/><path d="M44.22 20.76H43.1v-1.47c0-.07.05-.11.11-.15.01-.01.02-.01.03-.02l.02-.01c.07-.06.11-.08.19-.08h.99c.08 0 .1.02.1.1v1.35c0 .08 0 .08-.1.18l-.04.04c-.06.06-.06.06-.18.06m-1.09-.02h1.09c.11 0 .11 0 .16-.05l.04-.04c.09-.09.09-.09.09-.16v-1.35c0-.06-.01-.07-.08-.07h-.99c-.07 0-.1.03-.17.08l-.02.01c-.01.01-.02.02-.03.02-.05.04-.09.07-.09.13v1.43z"/><path d="M44.33 20.72c0 .07-.02.09-.1.09h-1.07c-.08 0-.1-.02-.1-.09v-1.46c0-.07.02-.09.1-.09h1.07c.08 0 .1.02.1.09v1.46z" fill="#fff"/><path d="M44.23 20.83h-1.07c-.08 0-.11-.03-.11-.11v-1.46c0-.08.03-.11.11-.11h1.07c.09 0 .11.03.11.11v1.46c0 .08-.03.11-.11.11m-1.07-1.65c-.07 0-.08.01-.08.08v1.46c0 .07.01.08.08.08h1.07c.07 0 .08-.02.08-.08v-1.46c0-.06-.01-.08-.08-.08h-1.07z"/><path d="M46.4 15.28c.21.23.28.55.16.85h-.31c.13-.39.05-.77-.51-.82-.83-.07-1.8 1.53-3.25 1.73-.42-.51-.4-1.47.14-1.93-.28-.8-.87-1.69-1.27-2.07-.26-.04-.57-.06-.77-.05.21-.46.82-.94 1.31-1.13.08-.12.17-.23.25-.33.05-.63 3.04-.34 3.67.06 0 .71.27 3.05.58 3.69" fill="#91857c"/><path d="M42.49 17.06c-.46-.54-.39-1.5.13-1.95-.28-.8-.86-1.67-1.26-2.05-.26-.04-.57-.07-.77-.05h-.03l.01-.02c.22-.48.84-.95 1.31-1.14.07-.1.14-.2.24-.32.03-.33.79-.37 1.24-.37.94 0 2.09.2 2.46.42h.01v.01c0 .69.28 3.05.59 3.68.21.24.28.56.17.86l-.01.01h-.34l.01-.02c.05-.16.09-.39-.02-.57-.09-.13-.25-.21-.47-.23-.38-.03-.79.29-1.28.68-.57.45-1.2.96-1.99 1.06zm-1.78-4.08c.19 0 .44.02.66.06h.01c.41.38 1 1.26 1.28 2.08v.01l-.01.01c-.51.43-.58 1.37-.14 1.9.77-.11 1.39-.61 1.95-1.05.49-.39.9-.72 1.3-.68.24.02.4.1.5.24.09.14.1.34.03.58h.28c.1-.29.04-.6-.16-.83-.31-.64-.59-2.98-.59-3.69-.37-.22-1.5-.42-2.44-.42-.75 0-1.19.13-1.21.35v.01c-.1.12-.18.23-.24.33l-.01.01c-.46.18-1.06.65-1.29 1.11.01-.02.04-.02.08-.02"/><path d="M42.78 15.71c-.07-1.09-.51-1.98-1.13-2.6.29.08.9.08 1.31-.21.54-.36 1.94-.99 2.46-.72.04.09.07.29.03.42-.12-.33-1.48.18-1.86.33-.37.17-.53.4-.4.92-.21-.18-.14-.35-.36-.48.09.21.16.6.19.91-.08-.22-.23-.69-.55-.97.28.54.52 1.83.4 2.52.22 0 .71-.21.9-.37-.17.25-.67.42-.98.48-.14.17-.24.61-.23.86-.03-.31.07-1.04.22-1.09M46.4 15.28c-.27-.3-.78-.46-1.42-.29.1-.05.31-.13.5-.16-.03-.17-.18-.91-.2-1.09l.18-.07c.09.44.21.95.28 1.15.06.02.19.04.3.1-.05-.17-.33-1.4-.32-1.53l.24-.13c.1.66.26 1.63.44 2.02"/><path d="M46.26 16.13c.13-.39.05-.77-.51-.82-.43-.04-.9.38-1.45.82h1.96z" fill="#91857c"/><path d="M46.27 16.15h-2.01l.03-.03c.06-.04.12-.09.18-.14.48-.38.89-.71 1.28-.68.24.02.4.1.5.24.09.15.1.36.02.61zm-1.93-.03h1.9c.05-.16.09-.39-.02-.56-.09-.13-.24-.21-.47-.23-.38-.03-.79.29-1.26.67l-.15.12"/><path d="M42.65 12.61c-.25.03-.79-.02-1.07-.1.02-.08.05-.15.08-.23-.17.11-.5.34-.62.49.39.08 1.2.12 1.61-.16" fill="#91857c"/><path d="M42.78 15.86c-.01-.21-.06-.45-.15-.73l.03-.01c.1.28.15.53.16.74h-.04zm-.73-2.69c-.16 0-.3-.02-.4-.05-.08-.02-.18-.04-.29-.06v-.03c.11.02.21.04.29.06.3.08.9.07 1.29-.21.04-.03.08-.06.14-.1.49-.36 1.51-1.12 2.65-1.21v.03c-1.13.09-2.15.84-2.63 1.2-.05.04-.1.07-.14.1-.27.21-.62.27-.91.27m-.37-.33c-.1 0-.2 0-.29-.01-.12-.01-.23-.02-.33-.04H41l.01-.02c.09-.11.29-.27.62-.49.06-.12.14-.26.24-.41l.02.02c-.09.13-.16.25-.22.37l-.02.04c-.04.08-.06.15-.08.22.27.08.8.13 1.05.1.99-.67 1.9-1.02 2.78-1.07v.03c-.88.05-1.78.39-2.77 1.06h-.01c-.21.15-.59.2-.94.2m-.62-.08c.4.08 1.12.1 1.52-.13-.27.02-.77-.03-1.01-.11h-.01v-.01c.01-.06.03-.12.06-.18-.14.08-.43.28-.56.43"/><path d="M47.89 17.08c1.37.95 2.38 1.86 2.68 3.33.29 1.47.85 1.86 1.54 1.47-.16.85-1.01.95-1.73.29.07.98-.33 2.15-1.34 2.58-.07-.59.32-1.05.21-1.54-.05-.21-.07-.7.21-.93-.54.18-1.39-.16-1.47-.96.62.29 1.42.34 1.73-.44.31-.78.18-2.12-1.83-3.8" fill="#437428"/><path d="M49.02 24.78v-.02c-.03-.29.05-.55.12-.8.08-.25.15-.49.09-.73-.04-.17-.08-.64.17-.9-.08.02-.16.03-.25.03-.52 0-1.11-.36-1.18-1.02v-.03l.02.01c.27.13.54.2.79.2.31 0 .71-.11.92-.63.25-.64.35-1.97-1.82-3.79l.02-.02c1.44 1 2.4 1.9 2.69 3.34.21 1.06.57 1.6 1.05 1.6.14 0 .3-.05.46-.14l.03-.01-.01.03c-.09.46-.39.73-.8.73-.3 0-.63-.14-.93-.41.05.98-.34 2.14-1.35 2.56h-.02zm.51-2.53l-.06.05c-.26.21-.26.67-.21.92.06.25-.01.49-.09.75-.07.24-.15.49-.12.77.99-.43 1.38-1.59 1.31-2.56v-.03l.03.02c.3.27.63.42.93.42.39 0 .67-.25.77-.68-.16.08-.31.13-.45.13-.5 0-.87-.55-1.08-1.62-.27-1.35-1.13-2.23-2.43-3.16 1.96 1.73 1.86 3.01 1.61 3.63-.21.54-.63.65-.95.65-.24 0-.51-.06-.78-.19.08.63.65.97 1.15.97.11 0 .21-.02.3-.05l.07-.02z"/><path d="M49.62 9.44c.42-1.11 1.53-1 1.91-.52 1.09-.62 1.24.78 2.17.51-.02.26-.33.51-.67.49.36.33-.15.82.62 1.11-.65.32-1.56-.03-1.81-.92-.21.42-.98.42-1.29.08.67-.18.62-.8.24-1.04-.37-.25-1.04-.15-1.17.29" fill="#437428"/><path d="M53.13 11.16c-.5 0-1.09-.31-1.29-1.01-.11.19-.36.3-.65.3-.27 0-.51-.09-.65-.25l-.02-.02.02-.01c.39-.1.48-.34.5-.47a.564.564 0 0 0-.26-.55.892.892 0 0 0-.47-.13c-.29 0-.54.12-.64.32-.01.03-.03.07-.04.1l-.03-.01c.01-.03.02-.07.04-.1.22-.49.62-.78 1.1-.78.32 0 .62.13.79.34.19-.1.36-.15.51-.15.3 0 .51.18.72.35.2.17.41.35.7.35.07 0 .15-.01.23-.04l.02-.01v.02c-.02.27-.32.5-.65.51.13.13.13.29.13.44.01.23.01.47.46.64l.03.01-.03.01c-.15.09-.33.14-.52.14m-1.28-1.09l.01.04c.19.71.78 1.02 1.28 1.02.17 0 .34-.04.49-.1-.43-.18-.44-.42-.44-.66 0-.16-.01-.32-.15-.44l-.05-.03h.04c.32.02.62-.2.65-.46-.08.02-.15.03-.22.03-.29 0-.51-.18-.71-.36-.2-.17-.41-.35-.7-.35-.16 0-.32.05-.51.16l-.01.01-.01-.01c-.17-.21-.46-.34-.77-.34-.42 0-.77.22-1 .62.13-.12.34-.2.57-.2.18 0 .35.05.49.13.2.13.31.36.27.58-.04.23-.22.4-.5.48.14.14.37.22.61.22.29 0 .54-.12.64-.32l.02-.02z"/><path d="M46.31 11.88c.3.98.94 1.9 1.61 2.52.78.72 1.97.54 2.63-.15.01 1.37-1.4 1.48-2.19 1.05-.35-.19-.63-.09-.3.21.51.46 1.62.8 2.92 1.08 2.29.49 1.47 2.3.8 2.29.19 0 .35-.21.07-.45-1.98-1.78-6.02-1.08-5.95-5.07-.42 1.04-2.17.64-1.36-.61.26.21.72.23.85-.1.1-.26.03-.7-.42-1.08.07-.01.24 0 .22-.19.02.11.12.27.38.22.07.11.15.19.26.15.02-.01.08-.04.06-.15.03.22.28.3.42.28" fill="#437428"/><path d="M51.8 18.89l-.01-.03c.09 0 .17-.05.2-.12.03-.09-.01-.2-.13-.31-.68-.61-1.61-.93-2.52-1.25-1.7-.59-3.45-1.19-3.44-3.76-.19.4-.57.54-.86.54-.28 0-.53-.13-.64-.33-.13-.23-.07-.55.15-.89l.01-.01.01.01c.12.1.28.15.43.15.19 0 .34-.09.4-.24.11-.27.02-.7-.42-1.06l-.03-.02H45c.05 0 .12-.01.16-.05.02-.03.03-.07.03-.12h.03c.01.04.05.22.27.22.03 0 .06 0 .09-.01h.01v.01c.09.14.16.18.24.15.04-.02.06-.05.05-.11v-.03l.03-.01v.03c.04.17.24.23.36.23h.05v.01c.29.92.87 1.84 1.61 2.52.33.3.74.46 1.19.46.53 0 1.06-.22 1.42-.6l.02-.03v.04c0 .39-.1.7-.33.92-.23.23-.57.36-.97.36-.32 0-.65-.08-.91-.23a.673.673 0 0 0-.31-.09c-.06 0-.1.02-.11.05-.02.05.03.14.14.24.45.4 1.37.74 2.92 1.07 1.52.32 1.54 1.2 1.52 1.46-.05.43-.38.83-.71.83m-5.87-5.61v.08c-.04 2.61 1.64 3.19 3.42 3.8.91.31 1.84.64 2.53 1.25.17.16.16.28.14.34-.01.03-.03.06-.05.08.25-.1.48-.44.52-.8.04-.32-.04-1.11-1.49-1.43-1.55-.33-2.48-.68-2.93-1.08-.15-.14-.17-.22-.15-.27.02-.04.07-.07.14-.07.09 0 .21.03.32.1.26.14.59.22.9.22.39 0 .73-.13.95-.35.21-.21.32-.5.32-.87-.37.37-.89.59-1.42.59-.46 0-.88-.16-1.21-.46-.74-.68-1.33-1.59-1.62-2.51h-.03c-.11 0-.29-.05-.36-.2-.01.04-.04.06-.07.07-.02.01-.04.01-.06.01-.09 0-.15-.08-.21-.16-.03.01-.06.01-.09.01-.14 0-.23-.08-.27-.17l-.03.06c-.04.05-.11.06-.16.06.42.37.51.8.4 1.07-.07.17-.22.26-.43.26-.15 0-.31-.06-.43-.15-.21.32-.26.62-.14.85.11.2.34.32.61.32.3 0 .69-.15.86-.59l.04-.06z"/><path d="M48.36 15.3c.95.62 2.02.62 3-.52.31-.36.8-.67 1.14-.7.34-.03.33-.36.59-.42-.16-.05-.23-.25-.47-.22.61-.21.43-.7.73-.94-.24.09-.63-.28-.98.19.09-.22-.03-.47-.12-.57.03.25-.48.29-.58.91-.05.35-.24.33-.28-.21-.02-.39-.21-1.49-.44-2.04-.23-.56-.28-1.32.03-1.43a.606.606 0 0 0-.19-.2c-.37-.25-1.04-.15-1.17.29-.43 1.11.77 1.75.67 2.96-.18-.9-1.63-1.13-1.62-2.01-.47.21-.41.61-.23.92-.29-.46-.96.29-1.54-.33-.07.82.65 1.13 1.24 1.16-.29.52.1.97.49 1.11.02-.91 1.89-.54 1.91 1.03.03 1.33-1.41 1.45-2.18 1.02" fill="#f0e030"/><path d="M49.62 15.73c-.42 0-.84-.14-1.26-.42l.01-.03c.25.14.57.22.88.22.4 0 .74-.13.97-.36.21-.21.32-.51.31-.88-.01-1.03-.8-1.51-1.33-1.51-.34 0-.54.18-.55.48v.02l-.02-.01c-.2-.08-.46-.26-.56-.53-.07-.19-.05-.38.05-.58-.22-.02-.71-.09-1.01-.43a.954.954 0 0 1-.22-.74v-.03l.02.02c.16.17.34.26.56.26.13 0 .25-.03.37-.05.1-.02.2-.04.29-.04.1 0 .17.02.23.07-.06-.14-.11-.32-.06-.48.05-.15.16-.26.35-.34l.02-.01v.02c-.01.45.37.73.77 1.02.34.25.7.51.82.9.01-.51-.2-.91-.4-1.3-.26-.49-.5-.96-.27-1.56.1-.27.37-.44.73-.44.18 0 .35.05.49.14.08.05.15.12.2.21l.01.02-.02-.01c-.06.02-.11.08-.15.16-.11.26-.06.8.13 1.26.23.55.42 1.65.44 2.04.02.3.08.43.14.43.04 0 .09-.07.11-.22.06-.37.26-.54.41-.66.11-.09.18-.15.17-.25v-.05l.03.03c.07.08.19.3.15.51a.51.51 0 0 1 .4-.19c.09 0 .17.02.26.04.11.02.21.04.28.02l.08-.03-.07.06c-.12.09-.16.22-.2.35-.07.2-.14.42-.46.56.11.01.18.07.25.13.05.04.09.08.15.1l.05.02-.05.01c-.11.03-.17.11-.23.19-.08.11-.16.22-.36.23-.33.03-.82.33-1.13.7-.56.61-1.15.93-1.78.93m-1.03-.31c.35.19.69.29 1.03.29.62 0 1.2-.31 1.74-.93.32-.37.82-.67 1.15-.71.18-.02.26-.12.34-.22.05-.07.11-.15.21-.19a.38.38 0 0 1-.13-.09c-.08-.07-.16-.13-.3-.12l-.12.01.12-.04c.36-.13.44-.35.52-.57.04-.12.08-.24.17-.33a.688.688 0 0 1-.24-.03c-.08-.02-.16-.04-.25-.04-.17 0-.3.08-.42.24l-.07.09.04-.11c.07-.18-.01-.4-.09-.52-.01.09-.09.15-.18.23-.15.12-.35.29-.4.65-.02.15-.08.25-.14.25-.09 0-.15-.17-.17-.46-.02-.39-.21-1.49-.44-2.04-.19-.46-.24-1.01-.13-1.28.04-.08.08-.14.15-.16a.517.517 0 0 0-.18-.18.892.892 0 0 0-.47-.13c-.26 0-.59.11-.68.41-.23.6.01 1.05.27 1.54.22.42.45.85.4 1.42l-.01.1-.02-.1c-.08-.43-.46-.7-.83-.97-.4-.29-.78-.57-.79-1.02-.16.08-.27.19-.31.32-.06.2.03.42.11.57l-.03.02a.327.327 0 0 0-.29-.15c-.09 0-.18.02-.29.04-.12.03-.24.05-.37.05-.22 0-.4-.08-.56-.24-.01.27.06.5.22.68.3.35.81.41 1.01.43h.02l-.01.02c-.11.19-.13.39-.06.57.09.26.33.43.52.51.01-.3.24-.49.58-.49.54 0 1.35.49 1.36 1.54 0 .38-.1.68-.32.9-.23.24-.58.36-.99.36-.23 0-.47-.05-.67-.12"/><path d="M50.99 16.59c2.29.49 1.47 2.31.8 2.29-.43-.01-.83-.37-.86-.68-.49.26-.36.78.02.98-1.03-.12-1.46.55-1.49 1.3.19-.34.76-.37.97-.29.21.07.76.11.98-.13-.18.15.12.52-.14.79.86-.03 1.23-.83 1.09-1.18 1.12-1.02.9-2.67-1.37-3.08" fill="#f0e030"/><path d="M51.24 20.86l.02-.02c.13-.15.11-.32.09-.47-.01-.09-.03-.17-.01-.24-.16.11-.38.13-.51.13-.15 0-.3-.02-.4-.06a.852.852 0 0 0-.25-.03c-.26 0-.58.08-.71.32l-.03.05v-.06c.02-.64.37-1.33 1.27-1.33.05 0 .11 0 .17.01a.619.619 0 0 1-.29-.5c0-.2.12-.36.33-.47l.02-.01v.02c.02.29.42.66.84.67h.01c.31 0 .63-.4.68-.83.04-.32-.04-1.12-1.49-1.43l.02-.03c1.08.19 1.78.68 1.98 1.38.17.58-.05 1.22-.6 1.71.07.17.02.43-.13.65-.21.33-.57.53-.98.54h-.03zm.17-.82l.02.02c-.01.01-.01.02-.02.02-.05.07-.04.16-.02.28.02.15.05.32-.07.47.38-.02.72-.21.92-.53.14-.22.19-.47.12-.64v-.01l.01-.01c.54-.49.76-1.12.6-1.69-.16-.55-.65-.97-1.4-1.22.96.39.98 1.07.96 1.29-.05.46-.38.86-.71.86h-.01c-.44-.01-.83-.37-.87-.67-.19.11-.29.26-.29.44 0 .2.13.4.33.5l.07.04-.07-.01c-.08-.01-.16-.01-.23-.01-.86 0-1.2.63-1.24 1.24.15-.21.46-.29.7-.29.1 0 .19.01.25.03.08.03.22.06.4.06.14 0 .4-.02.55-.16-.02.01-.01 0 0-.01"/><path d="M49.25 24.35c.15.1.13.29.03.41-.2.25.1.84-.52.94-.18.03-.32-.09-.38-.3-.17-.58.45-.62.51-.89.07-.27.24-.24.36-.16" fill="#f0e030"/><path d="M48.71 25.72c-.16 0-.28-.11-.34-.31-.11-.38.11-.54.29-.67.1-.07.19-.14.22-.23.04-.18.14-.22.21-.22.05 0 .11.02.17.06.06.04.1.1.11.17.01.09-.01.19-.08.27-.07.09-.08.21-.08.35-.02.25-.03.53-.45.6-.02-.02-.04-.02-.05-.02m.38-1.41c-.09 0-.15.07-.18.2-.03.1-.12.17-.23.25-.18.13-.38.28-.28.64.06.21.19.32.36.29.39-.06.41-.32.42-.57.01-.14.01-.27.09-.37.06-.07.09-.16.07-.24a.215.215 0 0 0-.1-.15.295.295 0 0 0-.15-.05"/><path d="M48.69 25.41c.2.1.37.24.27.9-.05.27-.06.93.18.95-.15.07-.46.13-.58-.04-.13.2-.41.13-.51-.13-.15.11-.34-.1-.34-.27-.13.08-.38-.05-.3-.44-.16.05-.35-.07-.42-.17.23-.03.82-.32.96-.56.15-.26.51-.36.74-.24" fill="#f0e030"/><path d="M48.35 27.34h-.03c-.12-.01-.23-.1-.28-.24-.05.03-.11.03-.17 0a.359.359 0 0 1-.17-.27c-.06.02-.13.01-.19-.03-.05-.03-.16-.15-.11-.42-.16.03-.35-.08-.42-.18l-.01-.02h.02c.22-.04.81-.32.95-.56.15-.24.52-.35.76-.23.21.1.38.25.27.91-.04.22-.05.71.08.88.03.03.06.05.09.05h.06l-.05.02c-.16.07-.46.13-.59-.03-.05.08-.13.12-.21.12m-.28-.25c.05.13.15.21.26.23.09.01.16-.03.22-.11l.01-.01c.06-.11.09-.46.06-.68h.03c.04.23 0 .6-.07.71.11.14.36.11.52.05a.304.304 0 0 1-.07-.05c-.14-.18-.12-.67-.09-.9.1-.64-.05-.78-.26-.88-.23-.12-.58-.01-.72.22-.15.24-.71.52-.95.57.07.09.25.19.39.15l.02-.01c.17-.05.61-.32.8-.61l.02.02c-.2.3-.66.59-.83.62-.05.26.05.37.1.4.06.04.13.05.18.02l.02-.01c.14-.08.43-.44.5-.68l.03.01c-.08.26-.4.64-.53.71 0 .1.07.21.15.26.04.02.1.04.16-.01l.01-.01c.1-.08.29-.32.33-.54l.03.01c-.02.19-.22.44-.32.52"/><path d="M45.91 13.36c-.03 1.67.67 2.52 1.63 3.07-.36-.21-.2-.95-.69-1.19.11-.01.29.16.58.09-.14-.31-.37-.78-.9-.85.14-.02.44.03.64-.04-.27-.42-1-.22-1.26-1.08" fill="#f0e030"/><path d="M47.54 16.44c-1.16-.66-1.66-1.61-1.64-3.08v-.1l.03.09c.15.52.48.65.78.76.19.08.37.15.49.32l.01.02-.02.01c-.1.04-.23.04-.32.04h-.18c.46.13.66.58.78.83l.01.02h-.02c-.05.01-.09.02-.14.02-.12 0-.22-.04-.3-.07a.145.145 0 0 0-.07-.02c.21.14.28.39.34.63.06.22.12.42.27.52l-.02.01zm-1.61-2.99c0 1.36.46 2.26 1.5 2.9-.09-.11-.13-.27-.18-.43-.07-.26-.14-.53-.4-.65l-.05-.02h.06c.04 0 .09.02.15.04.08.03.17.07.29.07.04 0 .08 0 .12-.01-.12-.27-.35-.76-.88-.82l-.12-.02.12-.01h.32c.08 0 .2 0 .29-.04-.11-.15-.28-.22-.46-.29-.28-.13-.6-.26-.76-.72"/><path d="M45.74 11.76c-.06-.02-.11-.08-.16-.15-.26.05-.36-.11-.38-.22.02.19-.15.18-.22.19.46.38.52.82.42 1.08-.13.33-.59.31-.85.1-.03.7.87.92 1.19.05 0 .15.19.13.24.33.24-.39.06-.93-.24-1.38" fill="#f0e030"/><path d="M45.09 13.39c-.15 0-.28-.06-.38-.16a.628.628 0 0 1-.16-.47v-.03l.02.02c.12.1.28.15.43.15.19 0 .34-.09.4-.24.11-.27.02-.7-.42-1.06l-.03-.02h.06c.05 0 .12-.01.16-.05.02-.03.03-.07.03-.12h.03c.01.04.05.22.27.22.03 0 .06 0 .09-.01h.01v.01c.06.09.1.13.15.15l.01.01c.36.53.45 1.05.25 1.38l-.02.03-.01-.03c-.02-.1-.08-.14-.14-.18-.04-.03-.08-.06-.09-.1-.14.3-.39.5-.66.5m-.52-.61c0 .16.05.31.15.42.1.1.23.15.36.15.28 0 .52-.21.65-.56l.03-.08v.08c0 .06.04.09.09.13.05.04.1.08.14.16.18-.32.08-.81-.26-1.32-.05-.02-.1-.07-.16-.15-.03.01-.06.01-.09.01-.14 0-.23-.08-.27-.17l-.03.06c-.04.05-.11.06-.16.06.43.37.51.8.4 1.07-.07.17-.22.26-.43.26-.14.02-.3-.03-.42-.12"/><path d="M44.31 8.45c-.41-.38-.6-1-.58-1.36.02-.36.16-.75.69-.59-.16 0-.05.33-.22.36.14.05.33-.06.35-.14.03.11.24.08.26.21.08-.07-.01-.38-.13-.45.09-.05.14-.3.1-.42-.08.02-.2.13-.23.29.04-.13-.01-.46-.24-.51-.07.09-.08.31.01.43-.21-.05-.52.09-.6.27.02-.22.05-.52.18-.72.04-.07-.07-.18-.15-.02-.16-.31-.58-.47-.77-.32-.19.15-.44-.07-.6.17-.15.25-.68.27-.65.53.02.16-.02.4-.1.48-.19.21.09.37.14.55-.03-.62.96-1.83 1.94-1.35-.09.16-.17.46-.2.84-.04.55.04 1.34.58 1.8l.22-.05z" fill="#437428"/><path d="M44.09 8.52c-.59-.5-.63-1.35-.59-1.81.03-.35.1-.66.19-.83a.976.976 0 0 0-.44-.1c-.47 0-.84.31-1.01.5-.29.3-.47.68-.45.95l.01.14-.04-.14c-.01-.06-.06-.12-.1-.17-.08-.12-.17-.24-.04-.39.07-.08.11-.32.09-.47-.02-.15.15-.23.32-.31.13-.06.27-.13.34-.23a.26.26 0 0 1 .24-.13h.09c.03 0 .06.01.09.01.05 0 .12-.01.18-.06.05-.04.12-.06.2-.06.22 0 .47.15.59.36.04-.05.07-.06.1-.06s.06.02.07.05c.01.03.01.06 0 .08-.12.18-.16.46-.17.65.09-.13.3-.23.49-.23.02 0 .04 0 .06.01-.07-.13-.06-.33.01-.42v-.01h.01c.18.04.25.24.26.39.05-.1.13-.17.2-.18h.01v.01c.04.12 0 .35-.09.43.08.06.14.21.15.32 0 .05 0 .11-.04.14l-.02.02v-.03c-.01-.06-.07-.08-.13-.1-.05-.02-.1-.04-.12-.08-.04.06-.17.13-.28.13-.03 0-.06 0-.08-.01l-.05-.02.05-.01c.08-.02.09-.1.1-.18.01-.07.02-.13.07-.16-.06-.02-.12-.02-.17-.02-.36 0-.44.38-.45.61-.01.33.15.96.57 1.35l.02.02-.24.04zm-.84-2.77c.16 0 .32.04.47.11l.01.01-.01.01c-.09.16-.17.48-.19.84-.03.45 0 1.29.57 1.78l.18-.05c-.41-.4-.58-1.03-.57-1.36.01-.24.09-.64.48-.64.07 0 .15.01.23.04l.09.03h-.1c-.07 0-.08.06-.09.15-.01.07-.02.15-.08.19.12.01.27-.08.29-.14l.01-.04.01.04c.01.05.07.07.12.09.05.02.11.04.14.09.01-.02.01-.05.01-.09-.01-.11-.08-.27-.15-.31l-.02-.01.02-.01c.08-.04.13-.27.09-.39-.07.02-.16.11-.2.24 0 .02-.01.03-.01.05l-.03-.01c0-.02.01-.03.01-.05.02-.13-.03-.39-.23-.44-.06.09-.07.29.01.41l.02.03-.04-.01c-.03-.01-.06-.01-.09-.01-.2 0-.43.13-.49.27l-.01.07.01-.09c.01-.18.04-.52.18-.73.01-.01.01-.03 0-.05-.01-.02-.03-.03-.04-.03-.03 0-.06.03-.08.07l-.01.03-.01-.03c-.12-.23-.38-.37-.57-.37a.28.28 0 0 0-.18.06c-.07.06-.14.06-.2.06-.03 0-.06 0-.09-.01h-.09c-.08 0-.16.01-.22.11-.07.11-.21.18-.35.24-.16.08-.31.15-.3.28.02.16-.02.4-.1.49-.12.13-.04.24.04.36.03.04.05.07.07.12.02-.27.2-.62.46-.9.17-.19.54-.5 1.03-.5"/><path d="M44.6 6.51c0-.15.25-.34.59-.33.41 0 .73.38 1.06.34.33-.04.17.15.1.2-.07.05-.11.12-.09.21.02.09-.02.15-.15.07-.29-.18-.59.07-.98-.07-.33-.14-.52-.2-.53-.42" fill="#bd0034"/><path d="M46.22 7.04c-.03 0-.07-.01-.11-.04a.41.41 0 0 0-.25-.07c-.07 0-.14.01-.21.02-.08.01-.16.02-.25.02-.1 0-.18-.01-.27-.05l-.01-.01c-.33-.12-.52-.19-.53-.42 0-.05.02-.11.07-.16.09-.09.27-.19.52-.19h.01c.21 0 .39.1.57.19.17.09.33.17.49.15.13-.01.2 0 .21.05.02.06-.06.14-.1.17-.04.03-.11.09-.08.2.01.04.01.08-.01.1-.01.03-.02.04-.05.04m-.36-.14c.1 0 .19.02.26.07.05.03.08.04.1.04.01 0 .02 0 .03-.01.01-.01.01-.04 0-.08-.02-.09.01-.17.09-.23.04-.03.11-.1.1-.14-.01-.03-.08-.04-.18-.03-.17.02-.33-.07-.51-.16-.17-.09-.35-.18-.56-.19h-.01c-.24 0-.42.1-.5.18-.04.05-.07.1-.07.14.01.21.19.27.51.39l.02.01c.08.03.17.04.26.04.08 0 .16-.01.24-.02.08.01.15-.01.22-.01"/><path d="M42.92 10.36c-.16-.51-.78-1.08-1.09-1.21l-.02-.28c.16-.07.55-.38.74-.55 1.22.59 2.89-.24 3.66-1.11l.29.19-.15.2-.15-.09c-.19.23-.89.89-1.1 1.03.29.07.68.12.78.11.69-.49 1.22-.93 1.49-.97l.22.3-.2.14-.15-.09c-.74.6-1.57 1.93-1.89 2.81-.47-.09-2.1-.03-2.43-.48" fill="#91857c"/><path d="M45.35 10.86h-.01c-.13-.03-.36-.04-.62-.06-.66-.04-1.57-.1-1.81-.43v-.01c-.17-.53-.79-1.08-1.08-1.2h-.01l-.02-.3h.01c.16-.06.55-.37.73-.54l.01-.01h.01c1.27.61 2.93-.3 3.64-1.11l.32.2-.16.22-.16-.09c-.19.22-.83.83-1.07 1 .28.07.64.11.74.11.15-.11.3-.21.43-.31.48-.35.85-.62 1.06-.65h.01l.24.31-.22.15-.15-.09c-.58.48-1.23 1.42-1.63 2.22v.01c-.1.2-.19.4-.25.57l-.01.01zm-2.42-.51c.24.31 1.14.37 1.79.41.26.02.48.03.61.06.06-.18.15-.37.25-.57 0-.01 0-.02-.01-.04-.05-.09-.37-.19-.66-.23-.27-.04-1.41-.13-1.93-.11v-.03c.53-.02 1.66.07 1.94.11.22.03.62.12.69.24.4-.8 1.04-1.72 1.62-2.19l.01-.01.16.09.18-.13-.21-.27c-.2.03-.57.3-1.04.64-.14.1-.28.21-.44.32-.68.48-1.83.5-2.53.04-.3.21-.47.88-.36 1.47h-.03c-.11-.61.07-1.29.38-1.5l.01-.01.01.01c.68.45 1.79.44 2.47-.02-.15-.01-.48-.05-.74-.11l-.03-.01c-.09-.03-.17-.05-.22-.08-.15.13-.49.23-.88.24v.01c.38-.02.72-.11.86-.24l.01-.01.01.01c.05.03.14.06.24.08.22-.15.91-.8 1.09-1.02l.01-.01.15.08.13-.17-.27-.17c-.73.81-2.38 1.72-3.66 1.11-.17.18-.54.47-.71.54l.02.26c.29.13.91.68 1.08 1.21m.29-.55l-.17-.17.17-.17.17.17-.17.17zm-.13-.18l.13.13.13-.13-.13-.12-.13.12z"/><path d="M43.58 6.74c-.19-.26-.71-.35-.82.01-.05.15-.12.32-.24.39-.12.08-.09.3-.04.39.13.24.02.47.27.62 0-.19.28-.39.51-.43.24-.05.6-.26.65-.5.04-.24.13-.44-.33-.48" fill="#437428"/><path d="M42.76 8.17l-.02-.01c-.16-.1-.18-.22-.2-.36-.01-.08-.02-.17-.07-.27s-.09-.33.04-.41c.1-.06.18-.18.24-.39.05-.15.18-.24.36-.24s.37.09.47.23c.18.02.28.06.34.13.06.08.03.19.01.31 0 .02-.01.03-.01.05-.05.24-.42.46-.66.51-.23.05-.5.24-.5.42v.03zm.35-1.65c-.17 0-.29.08-.34.23-.06.21-.15.34-.25.4-.11.07-.09.28-.04.37.05.1.07.19.08.28.02.13.04.24.16.33.02-.18.29-.37.53-.42.23-.05.59-.26.63-.49 0-.02.01-.04.01-.05.02-.12.05-.21-.01-.29-.05-.07-.15-.11-.32-.12h-.01v-.01c-.08-.14-.27-.23-.44-.23"/><path d="M42.4 9.09h.06v.45c.01 0 .03.01.04.02l.38-.22.03.06-.39.22c0 .01.01.03 0 .04l.38.22-.03.06-.39-.22c-.01.01-.02.02-.04.02v.45h-.04v-.45c-.01 0-.03-.01-.04-.02l-.38.22-.03-.06.39-.22v-.04l-.38-.22.03-.06.39.22c.01-.01.02-.02.04-.02l-.02-.45z" fill="#91857c"/><path d="M42.48 10.19h-.09v-.45c-.01 0-.02-.01-.03-.01l-.39.22-.05-.08.39-.23v-.03l-.39-.22.05-.08.39.22.02-.02v-.44h.09v.45c.01 0 .02.01.03.01l.39-.22.05.08-.39.23v.03l.39.23-.04.08-.39-.23c-.01.01-.01.01-.03.02v.44zm-.06-.02h.04v-.44h.01c.01 0 .02-.01.03-.02V9.7l.38.22.02-.03-.38-.22v-.01-.05l.38-.22-.02-.03-.38.21v-.01c-.01-.01-.02-.01-.03-.02h-.01V9.1h-.04v.44h-.01c-.01.01-.02.01-.03.02l-.01.01-.39-.22-.02.03.38.22V9.66l-.38.22.02.03.38-.22.01.01c.01.01.02.01.03.02h.01l.01.45z"/><path d="M42.98 10.18a.77.77 0 1 1-.55-1.31c.25 0 .47.12.62.3-.04.1-.09.32-.09.41a.524.524 0 0 0-.53-.47c-.29 0-.53.24-.53.53 0 .29.24.53.53.53.24 0 .46-.17.52-.39 0 .08 0 .32.03.4" fill="#91857c"/><path d="M42.43 10.42c-.44 0-.79-.35-.79-.79 0-.44.35-.79.79-.79.25 0 .48.11.63.31l.01.01v.01c-.04.09-.09.31-.09.41h-.03a.518.518 0 0 0-.51-.46c-.28 0-.52.23-.52.52 0 .28.23.51.52.51.23 0 .44-.16.5-.38l.03-.11v.11c0 .2.01.35.03.41v.01l-.01.01c-.14.14-.34.22-.56.22m0-1.55a.76.76 0 1 0 0 1.52c.2 0 .39-.08.53-.22-.02-.07-.03-.21-.03-.33-.09.19-.29.33-.5.33-.3 0-.54-.24-.54-.54 0-.3.24-.54.54-.54.25 0 .46.16.52.39.02-.11.05-.24.08-.31a.739.739 0 0 0-.6-.3"/><path d="M42.11 10.92c-.05-.06-.14-.21-.13-.33.07-.01.21.04.28.11-.01-.08-.04-.26-.02-.34.09.03.28.14.34.26-.02-.08-.05-.29-.02-.42.1.06.26.21.29.32.01-.16.07-.43.11-.5.07.07.19.14.26.24.02-.13.08-.29.18-.33.07.08.19.27.21.48.07-.02.17-.15.21-.21.04.07.08.18.06.32.09-.08.2-.2.22-.29.06.05.19.17.22.3-.02-.11-.01-.3-.04-.4.12.07.22.18.24.3.03-.11.11-.32.17-.37.07.13.13.29.12.42.04-.08.11-.23.17-.26.06.09.05.29.03.39.06-.08.16-.18.23-.21.01.05.01.15 0 .22.07-.04.19-.26.24-.38.11.06.23.25.24.35.08-.03.24-.18.29-.26 0 .06.02.21-.01.33.05-.05.1-.15.12-.19.03.08.01.28-.03.39.08-.07.18-.11.25-.11.01.14-.09.38-.18.56-.76-.22-2.4-.3-4.05-.39" fill="#437428"/><path d="M46.19 11.33h-.01c-.75-.21-2.27-.29-3.87-.38l-.21-.01c-.04-.05-.14-.21-.13-.34v-.01h.01c.07-.01.18.03.26.09 0-.01 0-.02-.01-.04-.01-.09-.03-.21-.01-.27v-.02l.02.01c.07.02.23.11.31.21-.01-.09-.03-.25 0-.36v-.02l.02.01c.08.05.22.17.28.28.02-.17.07-.39.11-.45l.01-.01.01-.02c.03.03.06.05.1.08.05.04.1.08.15.13.02-.13.08-.27.18-.31h.01l.01.01c.07.07.18.25.22.47a.61.61 0 0 0 .19-.2l.01-.02.01.02c.03.04.08.14.07.29.1-.1.17-.19.19-.26v-.02l.02.01c.05.04.13.12.19.22v-.05c0-.09-.01-.18-.03-.25l-.01-.03.03.02c.11.06.2.16.24.26.04-.12.1-.28.16-.33l.01-.01.01.01c.05.11.11.24.12.36.04-.08.09-.19.15-.21H45l.01.01c.05.08.05.24.04.35.06-.07.15-.15.2-.17l.02-.01v.02c.01.04.01.12.01.19.07-.07.17-.25.2-.35l.01-.02.01.01c.12.06.22.24.24.34.08-.04.23-.17.27-.25l.03-.05v.1c0 .06.01.15 0 .23.02-.04.05-.08.06-.11.01-.01.01-.03.02-.03l.01-.03.01.03c.03.08.01.24-.01.35.07-.05.16-.08.22-.08h.01v.01c.01.17-.14.48-.18.57l.01.03zm-4.08-.43l.19.01c1.6.09 3.11.17 3.87.38.05-.1.17-.37.17-.53-.06.01-.15.04-.22.1l-.04.03.01-.05c.03-.09.05-.25.03-.34-.03.05-.07.12-.11.16l-.04.04.01-.05c.02-.09.02-.2.01-.27v-.02c-.07.09-.2.2-.27.23l-.02.01v-.02a.57.57 0 0 0-.21-.33c-.04.11-.16.32-.24.37l-.03.02.01-.03a.67.67 0 0 0 0-.2c-.06.04-.15.13-.21.2l-.04.05.01-.06c.01-.09.02-.28-.02-.37-.05.03-.1.15-.14.22l-.05.09v-.07c.01-.13-.05-.27-.11-.39-.06.06-.12.24-.15.35l-.02.06-.01-.06a.442.442 0 0 0-.21-.28c.01.06.02.14.02.22 0 .06 0 .11.01.15l-.03.01a.55.55 0 0 0-.2-.28c-.04.1-.14.2-.22.28l-.03.03.01-.04a.555.555 0 0 0-.04-.29c-.05.07-.14.17-.21.2l-.02.01v-.02a.9.9 0 0 0-.2-.46c-.09.04-.15.19-.16.31v.04l-.02-.03a.572.572 0 0 0-.16-.15c-.03-.02-.06-.05-.09-.07-.05.08-.1.33-.1.47v.08l-.03-.08c-.03-.1-.18-.24-.27-.3-.03.14.01.37.02.4l.02.1-.05-.09c-.06-.12-.23-.21-.32-.25-.01.06.01.17.02.25 0 .03.01.05.01.07v.04l-.03-.03a.417.417 0 0 0-.25-.1c.03.09.11.22.15.28"/><path d="M44.84 6.59c0-.06.13-.19.37-.19.29 0 .56.21.79.2.23-.02.12.06.07.08-.05.02-.08.05-.06.09s-.01.05-.11.02c-.21-.07-.41.03-.68-.03-.24-.05-.37-.08-.38-.17M42.36 11.41c-.25.3-.49.25-.54.06-.05-.19.13-.28.07-.44s.1-.24.19-.16c.08.07.34-.16.46.08.11.25.2.42.14.51-.07.09-.27.04-.32-.05" fill="#f0e030"/><path d="M42.02 11.63c-.1 0-.18-.06-.21-.16-.02-.1.01-.17.04-.24.03-.07.06-.12.03-.2-.02-.06-.02-.11.01-.15.03-.04.07-.06.12-.06.03 0 .06.01.09.03.02.02.07.01.13-.01.05-.01.1-.03.15-.03.08 0 .14.04.18.12l.03.05c.1.22.18.38.11.47-.03.04-.07.06-.13.06a.27.27 0 0 1-.2-.09c-.12.14-.24.21-.35.21m-.02-.79c-.04 0-.07.02-.09.05-.02.02-.03.06-.01.13.04.09 0 .16-.03.22s-.06.13-.04.22c.02.09.09.14.18.14.11 0 .22-.07.33-.21l.01-.02.01.02c.03.05.11.09.18.09.05 0 .08-.02.11-.05.06-.08-.02-.24-.12-.45l-.02-.05c-.03-.07-.08-.11-.15-.11-.05 0-.09.01-.14.03-.07.02-.13.03-.16 0-.01 0-.04-.01-.06-.01"/><path d="M43.41 10.96c-.05-.1.21-.31.34-.17.13.15.34-.16.45.07.11.24.15.36.21.49s-.31.2-.42.09c.02.08-.32.14-.41-.08-.05-.12-.1-.25-.17-.4" fill="#f0e030"/><path d="M43.83 11.53c-.13 0-.23-.06-.27-.16-.02-.04-.03-.08-.05-.13-.03-.08-.07-.18-.11-.27a.117.117 0 0 1 .02-.11c.04-.06.13-.13.22-.13.05 0 .09.02.12.06.02.03.05.04.08.04.04 0 .08-.02.11-.03.04-.02.08-.03.12-.03.06 0 .1.03.13.1.08.15.12.26.15.35.02.04.04.09.05.13.01.03.01.05 0 .08-.04.06-.16.09-.25.09-.07 0-.13-.02-.18-.04v.01c0 .02-.07.04-.14.04m-.19-.77c-.08 0-.16.06-.2.11-.02.03-.03.07-.02.09.04.1.08.19.11.27.02.04.04.09.05.13.06.13.2.14.24.14.07 0 .12-.02.14-.04v-.01l-.01-.05.05.03c.04.03.1.05.18.05.1 0 .19-.03.22-.08.01-.01.01-.03 0-.05a.578.578 0 0 1-.05-.14c-.04-.09-.08-.2-.15-.35-.04-.08-.08-.08-.11-.08a.26.26 0 0 0-.11.03c-.04.02-.08.03-.12.03-.04 0-.07-.02-.1-.05-.04-.01-.08-.03-.12-.03"/><path d="M45.11 11.1c-.06-.11.24-.28.39-.07.04-.09.34-.1.35.15.02.25.03.4.04.49.01.1-.18.19-.31-.06-.24.05-.35-.09-.38-.23a.913.913 0 0 0-.09-.28" fill="#f0e030"/><path d="M45.79 11.78c-.05 0-.13-.02-.21-.16-.2.04-.35-.06-.39-.24-.03-.14-.06-.21-.09-.28a.097.097 0 0 1 .01-.09c.03-.06.12-.1.21-.1.07 0 .14.03.19.09.03-.03.08-.05.14-.05.1 0 .22.06.24.22.01.15.02.26.03.35 0 .06.01.1.01.14 0 .03-.01.05-.03.08-.04.03-.08.04-.11.04m-.2-.19v.01c.05.1.12.15.19.15.03 0 .06-.01.08-.03.02-.02.02-.04.02-.05 0-.04-.01-.09-.01-.14-.01-.09-.01-.2-.03-.35-.01-.14-.11-.19-.21-.19-.06 0-.11.02-.12.05l-.01.02-.01-.02a.209.209 0 0 0-.18-.09c-.08 0-.15.04-.18.09-.01.01-.02.04 0 .06.03.07.06.14.09.29.01.07.07.23.27.23.03 0 .06 0 .09-.01l.01-.02z"/><path d="M42.52 10.94c-.04-.08.21-.24.38-.12s.4-.11.5.11c.2.44.21.48.15.56s-.32.05-.39-.07c-.01.08-.24.07-.36 0-.13-.06-.23-.34-.28-.48" fill="#437428"/><path d="M43.41 11.55c-.09 0-.2-.03-.25-.1-.02.03-.07.04-.13.04-.08 0-.17-.02-.23-.05-.14-.07-.23-.33-.28-.48l-.01-.02c-.01-.02 0-.04.01-.07.04-.06.14-.11.24-.11.06 0 .1.02.15.05.03.02.07.04.12.04.04 0 .07-.01.11-.01.04-.01.07-.01.11-.01.08 0 .13.04.16.11.2.45.22.49.15.58-.03.01-.08.03-.15.03m-.26-.17l.02.04c.04.07.15.11.24.11.06 0 .1-.02.12-.04.05-.08.05-.1-.15-.55-.03-.07-.07-.09-.14-.09-.03 0-.07.01-.1.01-.04.01-.08.01-.12.01a.23.23 0 0 1-.14-.04.201.201 0 0 0-.13-.04c-.09 0-.18.05-.21.1-.01.01-.02.03-.01.04l.01.02c.05.15.14.4.27.47.06.03.14.05.22.05.07 0 .11-.02.12-.05v-.04z"/><path d="M44.24 10.96c-.06-.13.33-.24.49-.02.09-.08.27-.08.38.16.11.24.12.38.05.43-.06.04-.25.08-.32-.03-.09.06-.37.01-.43-.15-.06-.15-.11-.28-.17-.39" fill="#437428"/><path d="M45 11.59c-.08 0-.13-.02-.17-.07a.25.25 0 0 1-.1.02c-.13 0-.29-.06-.34-.18-.06-.16-.12-.29-.17-.4a.062.062 0 0 1 .01-.07c.03-.05.13-.09.23-.09.11 0 .21.04.28.12.03-.03.08-.04.13-.04.11 0 .2.08.26.21.11.25.12.39.04.46-.03.02-.11.04-.17.04m-.16-.11l.01.01c.03.06.11.07.15.07.06 0 .12-.02.15-.04.07-.05.06-.18-.05-.42-.06-.13-.14-.2-.24-.2-.05 0-.09.02-.12.04l-.01.01-.01-.01a.31.31 0 0 0-.26-.12c-.09 0-.17.03-.2.07-.01.02-.01.03 0 .05.06.11.11.24.17.4.04.11.19.16.31.16.04 0 .08-.01.1-.02z"/><path d="M45.86 11.2c-.01-.11.2-.17.28 0 .08.17.33.02.35.3 0 .05-.03.26-.11.35-.08.1-.46 0-.48-.21l-.04-.44" fill="#437428"/><path d="M46.27 11.9c-.04 0-.08-.01-.12-.02-.11-.03-.25-.11-.26-.24 0-.02 0-.03-.01-.05 0-.07-.07-.11-.14-.16-.09-.06-.19-.13-.2-.27h.03c0 .12.1.18.19.24a.4.4 0 0 1 .12.1c-.01-.13-.02-.22-.02-.3-.01-.05.03-.1.1-.12.07-.02.16.01.21.11 0 0 0 .01.01.01.03.05.09.07.14.08.09.02.18.04.2.21 0 .05-.03.26-.11.36-.04.03-.08.05-.14.05m-.28-.8c-.01 0-.02 0-.04.01-.04.01-.08.04-.07.09.01.11.01.23.04.44.01.11.14.19.24.22.1.03.18.02.21-.02.08-.1.11-.29.1-.34-.01-.15-.09-.17-.17-.18a.358.358 0 0 1-.11-.04c.01.04.02.09.02.15h-.03c0-.1-.01-.15-.04-.21v-.01c-.04-.08-.1-.11-.15-.11m-.42.52a.7.7 0 0 0-.25-.28l.01-.03c.09.04.19.16.26.29l-.02.02zm-.74-.11l-.02-.04c-.04-.07-.08-.12-.09-.17l.03-.01c.01.05.05.1.08.16l.02.04-.02.02zm-.85-.06a.648.648 0 0 1-.19-.21l.03-.01c.04.08.12.16.18.2l-.02.02zm-.83-.02a.76.76 0 0 1-.15-.28l.03-.01c.02.09.09.2.15.27l-.03.02zm1.26-.01c-.09-.01-.19-.15-.22-.19-.05-.06-.14-.19-.28-.2V11c.15.02.25.16.3.22.06.08.14.17.2.18v.02zm-2.06-.01l-.02-.02c-.06-.08-.13-.17-.2-.17-.04 0-.08.03-.13.09l-.02-.02c.05-.07.1-.1.15-.1.09 0 .16.1.22.18l.01.02-.01.02zm2.48-.27c-.03-.06-.07-.12-.11-.19l.02-.02c.05.07.09.13.12.19l-.03.02z"/></svg>