<svg xmlns="http://www.w3.org/2000/svg" viewBox="0 0 58.92 34.37"><path fill="#d80031" d="M0 0h58.92v34.37H0z"/><path d="M0 24.08h58.92H0zm0-13.79h58.92H0z" fill="#292c2f"/><path d="M0 27.51h58.92v-6.86H0v6.86zm0-13.78h58.92V6.86H0v6.87z" fill="#fff"/><path fill="#2f3c85" d="M0 0v34.37l29.71-17.16z"/><path fill-rule="evenodd" clip-rule="evenodd" fill="#fff" d="M9.92 11.46l-1.77 5.42 2.72.89z"/><path fill-rule="evenodd" clip-rule="evenodd" fill="#fff" d="M9.92 11.46l1.72 5.42-2.72.89z"/><path fill-rule="evenodd" clip-rule="evenodd" fill="#fff" d="M15.35 15.44H9.64v2.82z"/><path fill-rule="evenodd" clip-rule="evenodd" fill="#fff" d="M15.35 15.44l-4.65 3.32-1.67-2.27z"/><path fill-rule="evenodd" clip-rule="evenodd" fill="#fff" d="M4.43 15.44l4.66 3.32 1.66-2.27z"/><path fill-rule="evenodd" clip-rule="evenodd" fill="#fff" d="M4.43 15.44h5.77v2.82z"/><path fill-rule="evenodd" clip-rule="evenodd" fill="#fff" d="M13.25 21.81l-1.78-5.43-2.71.89z"/><path fill-rule="evenodd" clip-rule="evenodd" fill="#fff" d="M13.25 21.81l-4.6-3.38 1.66-2.27z"/><path fill-rule="evenodd" clip-rule="evenodd" fill="#fff" d="M6.54 21.81l4.6-3.38-1.66-2.27z"/><path fill-rule="evenodd" clip-rule="evenodd" fill="#fff" d="M6.54 21.81l1.77-5.43 2.72.89z"/></svg>