<svg xmlns="http://www.w3.org/2000/svg" viewBox="0 0 58.92 34.37"><path fill="#fff" d="M0 11.46h58.92v11.46H0z"/><path fill="#2534a4" d="M0 22.92h58.92v11.46H0z"/><path fill="#bc0030" d="M0 0h58.92v11.46H0z"/><path d="M33.83 17.19c0 2.41-1.96 4.37-4.37 4.37a4.36 4.36 0 0 1-4.36-4.37c0-2.41 1.96-4.36 4.36-4.36a4.36 4.36 0 0 1 4.37 4.36" fill="#fff"/><path d="M29.46 21.62c-2.45 0-4.44-1.99-4.44-4.44s1.99-4.44 4.44-4.44 4.44 1.99 4.44 4.44-1.99 4.44-4.44 4.44m0-8.73c-2.37 0-4.29 1.93-4.29 4.29 0 2.37 1.93 4.29 4.29 4.29 2.37 0 4.29-1.93 4.29-4.29.01-2.36-1.92-4.29-4.29-4.29"/><path d="M29.46 13.44a3.74 3.74 0 1 0 3.74 3.74c.01-2.06-1.67-3.74-3.74-3.74m0 6.55c-1.55 0-2.81-1.26-2.81-2.81s1.26-2.81 2.81-2.81 2.81 1.26 2.81 2.81c0 1.56-1.26 2.81-2.81 2.81" fill="#bc0030"/><path d="M29.46 20.93c-2.07 0-3.75-1.68-3.75-3.75 0-2.07 1.68-3.75 3.75-3.75 2.07 0 3.75 1.68 3.75 3.75 0 2.07-1.68 3.75-3.75 3.75m0-7.48c-2.06 0-3.74 1.68-3.74 3.74 0 2.06 1.68 3.74 3.74 3.74 2.06 0 3.74-1.68 3.74-3.74a3.74 3.74 0 0 0-3.74-3.74m0 6.55c-1.55 0-2.81-1.26-2.81-2.81s1.26-2.81 2.81-2.81 2.81 1.26 2.81 2.81S31.01 20 29.46 20m0-5.62c-1.55 0-2.8 1.26-2.8 2.8 0 1.55 1.26 2.8 2.8 2.8 1.55 0 2.8-1.26 2.8-2.8 0-1.54-1.25-2.8-2.8-2.8"/><path d="M30.05 15.15s1.68.73 1.39 2.22c-.29 1.5-1.23 1.49-1.6 1.65-.37.17-.62.4-.77.37-.14-.03-.34-.14-.34-.14s-.02.25.28.29c.3.04.68-.39.87-.44.18-.05 1.33-.17 1.61-1.7.33-1.62-1.43-2.21-1.44-2.25" fill="#2a690b"/><path d="M29.06 19.55h-.04c-.29-.04-.28-.29-.28-.29.01 0 .2.11.34.14.11 0 .22-.07.37-.15.11-.07.24-.15.4-.22.06-.03.14-.05.23-.08.45-.13 1.12-.33 1.37-1.57.23-1.16-.74-1.85-1.16-2.1l-.14-.07c-.07-.03-.09-.04-.09-.05 0-.01.09.03.23.11l-.01.01c.98.5 1.41 1.24 1.23 2.14-.17.94-.7 1.51-1.56 1.69-.12.03-.22.1-.33.18-.18.11-.38.26-.56.26m-.32-.3c0 .01-.01.24.28.28h.04c.18 0 .38-.14.55-.27.11-.08.2-.15.27-.17.91-.19 1.43-.76 1.6-1.69.18-.89-.24-1.63-1.22-2.14.43.24 1.4.94 1.17 2.1-.24 1.25-.92 1.45-1.37 1.58-.09.03-.17.05-.23.08-.15.07-.28.15-.39.22-.15.09-.26.16-.35.16-.16-.04-.35-.15-.35-.15"/><path d="M30.9 15.46c.03.13.03.23 0 .23s-.08-.1-.11-.22c-.03-.13-.03-.23 0-.23s.08.1.11.22" fill="#2a690b"/><path d="M30.9 15.7c-.04 0-.09-.11-.12-.22-.03-.1-.03-.2-.01-.23h.02c-.03.03-.02.12.01.22.03.14.08.22.1.23l.01-.02c.02-.02.01-.11-.01-.22-.03-.1-.06-.18-.09-.2.04.03.08.12.1.2.03.1.03.2.01.22l-.02.02z"/><path d="M30.84 15.48c.06.12.08.22.06.23-.03.01-.1-.08-.16-.2s-.08-.22-.05-.23c.03 0 .09.08.15.2" fill="#2a690b"/><path d="M30.89 15.72c-.04 0-.11-.1-.15-.2-.05-.1-.08-.19-.06-.23h.02c-.02.03 0 .12.06.22.05.12.11.2.13.21.02-.04-.01-.14-.06-.23a.607.607 0 0 0-.12-.18c.04.03.09.1.13.17.05.1.08.2.06.23l-.01.01z"/><path d="M30.68 15.59c.12.04.21.09.21.12s-.1.03-.22-.01c-.12-.03-.21-.09-.21-.12s.1-.02.22.01" fill="#2a690b"/><path d="M30.83 15.74a.55.55 0 0 1-.16-.03c-.11-.03-.22-.09-.21-.13.02-.01.04-.01.06-.01-.04.04.04.09.16.13.05.02.11.03.15.04l.05-.02c0-.03-.08-.08-.21-.12-.04-.01-.09-.02-.12-.03.05 0 .09.01.13.02.11.03.22.09.21.13l-.06.02z"/><path d="M30.7 15.53c.11.07.19.15.17.18-.01.03-.11-.01-.22-.08s-.19-.15-.17-.18c.01-.03.11.01.22.08" fill="#2a690b"/><path d="M30.85 15.72c-.04 0-.12-.04-.2-.09-.1-.07-.19-.15-.18-.18h.02c-.03.03.04.1.16.18.09.05.17.08.2.09l.02-.02c.01-.02-.06-.1-.17-.17-.08-.05-.15-.09-.19-.09.06 0 .13.04.2.08.1.06.19.15.17.18l-.03.02z"/><path d="M30.77 15.5c.09.1.15.19.13.21-.02.02-.11-.04-.2-.14-.09-.1-.15-.19-.13-.21.02-.01.11.05.2.14" fill="#2a690b"/><path d="M30.89 15.72c-.04 0-.12-.06-.2-.14-.08-.09-.16-.19-.13-.22.05-.01.13.05.21.14.08.08.16.19.13.22h-.01zm-.31-.35c-.02.02.02.11.12.21.09.09.16.14.19.14l.01-.01c.02-.02-.03-.1-.13-.21-.09-.09-.16-.13-.19-.13"/><path d="M30.89 15.71s-.06.04-.08.04c-.02.01-.03-.02-.08 0a.17.17 0 0 0-.08.09c-.01.02.01.03.06.01.05-.03.07-.07.09-.08.03-.02.07-.04.09-.05.01-.02.04-.07.06-.1.02-.03.09-.07.11-.13.02-.04.01-.08-.01-.07-.03.01-.07.06-.09.09-.02.03 0 .07-.02.1-.01.04-.05.1-.05.1" fill="#2a690b"/><path d="M30.67 15.87l-.02-.01c.01-.05.04-.09.08-.11h.08c.02 0 .08-.04.08-.04l.06-.09.02-.1c.02-.03.06-.08.09-.09l.02.07c-.02.03-.05.06-.08.09l-.06.07c-.02.02-.03.05-.04.06-.03.01-.07.04-.09.05-.04.04-.06.06-.09.08l-.05.02z"/><path d="M31.41 15.89c0 .19-.03.34-.07.33-.04-.01-.08-.17-.08-.36 0-.19.03-.34.07-.33.04 0 .08.17.08.36" fill="#2a690b"/><path d="M31.34 16.22c-.06-.01-.09-.19-.09-.37 0-.15.02-.29.05-.32.01 0 .01 0 .02.01-.04.04-.07.17-.06.32 0 .19.04.34.08.36l.01-.02c.03-.03.05-.16.05-.31 0-.14-.02-.25-.04-.31.04.07.05.19.05.31 0 .16-.02.29-.05.32l-.02.01z"/><path d="M31.32 15.88c.04.2.04.36 0 .36s-.11-.15-.15-.35c-.04-.2-.04-.35 0-.36.04 0 .11.16.15.35" fill="#2a690b"/><path d="M31.32 16.24c-.05 0-.12-.18-.15-.35-.04-.17-.04-.31-.01-.35h.02c-.04.04-.03.19 0 .35.04.21.11.34.14.35l.01-.02c.03-.03.02-.18-.02-.34-.03-.16-.08-.27-.11-.32.05.05.09.19.12.32.04.17.04.31.01.35l-.01.01z"/><path d="M31.05 15.97c.15.1.27.22.25.27-.01.04-.15 0-.3-.11-.15-.1-.27-.22-.25-.26.01-.06.15-.01.3.1" fill="#2a690b"/><path d="M31.27 16.25c-.06 0-.16-.05-.28-.13-.16-.11-.27-.23-.25-.27h.03c-.03.05.07.16.23.27.12.07.22.12.27.13l.03-.02c.01-.04-.08-.15-.25-.26-.08-.05-.15-.09-.21-.11.07.02.14.05.21.1.16.1.27.22.25.27l-.03.02z"/><path d="M31.11 15.89c.13.15.21.3.18.34-.03.03-.15-.07-.28-.22-.13-.15-.21-.3-.18-.33.03-.04.15.06.28.21" fill="#2a690b"/><path d="M31.27 16.23c-.05 0-.16-.09-.27-.23-.11-.14-.21-.3-.18-.34.06-.01.17.08.29.22.11.14.21.3.18.34l-.02.01zm-.43-.56c-.03.03.03.17.17.33.11.13.22.22.26.22v.01l.01-.01c.02-.03-.04-.16-.18-.33-.1-.13-.21-.22-.26-.22"/><path d="M31.22 15.88c.1.18.15.34.11.36-.03.02-.14-.11-.24-.29-.1-.18-.15-.34-.11-.36.04-.02.14.11.24.29" fill="#2a690b"/><path d="M31.32 16.25c-.04 0-.14-.12-.23-.29-.09-.16-.15-.34-.11-.36.04-.01.15.11.24.29.09.16.15.34.11.37l-.01-.01zm-.33-.66c-.04.02 0 .17.11.36.1.18.19.29.23.29l.01-.01c.03-.02-.01-.16-.11-.36-.11-.15-.2-.28-.24-.28"/><path d="M31.31 16.23s-.1.02-.13.02c-.02 0-.04-.04-.11-.03-.07.01-.12.06-.14.09-.02.03.01.05.09.04.08-.01.11-.06.15-.08.04-.01.1-.03.14-.03.02-.03.09-.08.12-.12.03-.03.14-.07.19-.13.04-.05.05-.11 0-.1-.04.01-.11.06-.15.1-.03.04-.03.1-.06.13-.02.04-.1.12-.1.11" fill="#2a690b"/><path d="M30.98 16.36l-.05-.02c0-.01.01-.02.01-.03l.04.05.04-.01c.05-.01.08-.03.1-.05.09-.04.15-.05.19-.05.01-.02.05-.05.08-.08.05-.04.07-.06.1-.07.04-.02.1-.05.13-.09.02-.02.03-.04.03-.06.01.02-.01.05-.02.07a.38.38 0 0 1-.13.09c-.03.02-.05.03-.06.04-.06.06-.1.09-.12.11-.04 0-.1.02-.14.03-.07.04-.1.07-.15.08l-.05-.01zm-.03-.05c.03-.04.07-.07.13-.08l.09.02c.04.01.14-.01.14-.01l.11-.1c.02-.02.02-.04.03-.07.01-.03.01-.05.03-.07.03-.04.1-.09.15-.1l.02.02c-.07 0-.13.05-.16.08-.02.02-.02.04-.03.07-.01.03-.02.05-.03.07l-.11.1c0 .01-.12.02-.13.03l-.09-.03c-.08 0-.13.04-.15.07"/><path d="M31.68 16.58c-.03.19-.09.33-.13.31-.04-.02-.05-.19-.01-.38.03-.19.09-.33.13-.31.04.02.05.19.01.38" fill="#2a690b"/><path d="M31.56 16.9h-.01c-.05-.02-.05-.21-.02-.38.03-.16.08-.32.13-.32.06.02.06.21.03.38-.03.18-.09.32-.13.32m.11-.69c-.04 0-.09.12-.12.31-.03.2-.02.36.01.37h.01c.03 0 .09-.12.12-.31.02-.19.02-.35-.02-.37"/><path d="M31.6 16.56c.01.2-.02.36-.06.35-.04-.01-.08-.17-.09-.37-.01-.2.02-.36.07-.35.04.01.07.17.08.37" fill="#2a690b"/><path d="M31.54 16.92c-.05-.01-.09-.2-.09-.38-.01-.17.02-.31.05-.35h.02c-.04.04-.06.18-.06.34 0 .23.04.37.08.39l.01-.01c.03-.03.05-.17.05-.34 0-.16-.03-.28-.05-.33.04.06.06.2.06.33.01.17-.02.31-.05.35h-.02z"/><path d="M31.32 16.59c.13.13.22.27.2.31-.02.04-.15-.03-.28-.17-.13-.13-.22-.27-.2-.31.03-.03.15.04.28.17" fill="#2a690b"/><path d="M31.5 16.92c-.05 0-.15-.07-.26-.18-.14-.13-.22-.27-.2-.32h.02c-.03.05.04.18.18.31.11.11.21.18.26.19l.02-.02c.02-.03-.06-.17-.2-.31a.77.77 0 0 0-.21-.16c.07.02.14.08.22.16.14.14.22.27.2.32l-.03.01z"/><path d="M31.39 16.53c.1.18.15.34.11.37-.03.03-.14-.1-.23-.27-.1-.17-.15-.34-.11-.37.03-.03.13.09.23.27" fill="#2a690b"/><path d="M31.49 16.9c-.04 0-.14-.12-.22-.28-.09-.16-.15-.34-.11-.37.07 0 .15.11.24.27.09.16.15.34.11.37l-.02.01zm-.32-.64c-.04.03 0 .17.11.36.08.16.18.27.22.27l.01-.01c.03-.02-.01-.17-.11-.36-.1-.14-.19-.26-.23-.26"/><path d="M31.5 16.54c.06.2.08.36.04.38-.04.01-.12-.13-.18-.33-.06-.19-.08-.36-.04-.38.03-.01.12.13.18.33" fill="#2a690b"/><path d="M31.53 16.92c-.05 0-.13-.17-.18-.33-.06-.17-.09-.36-.04-.38.05 0 .13.14.18.33.07.17.1.36.04.38zm-.21-.71c-.03.01-.02.16.04.37.06.2.14.33.17.33v-.01c.03-.01.02-.16-.05-.37-.05-.18-.13-.32-.16-.32"/><path d="M31.52 16.91h-.13c-.02 0-.03-.05-.1-.05s-.13.03-.16.06c-.02.02 0 .05.08.06.08 0 .12-.04.16-.04.04 0 .11-.01.14 0 .03-.02.1-.07.14-.09.04-.03.15-.04.22-.09.05-.05.06-.1.02-.1-.05 0-.12.03-.16.07-.04.03-.04.1-.09.12-.03 0-.11.06-.12.06" fill="#2a690b"/><path d="M31.39 16.93l.07-.01c.01 0 .02 0 .03-.01h-.1c-.04-.03-.06-.05-.1-.05-.06 0-.1.02-.13.04.08-.07.18-.04.21-.01l.08.02c.07 0 .1-.03.13-.04.08-.05.09-.08.1-.1.01-.02.02-.05.05-.06.04-.03.11-.06.16-.06.01.01.01.01.01.02a.218.218 0 0 0-.17.05c-.02.02-.03.04-.04.06-.01.03-.03.05-.05.06l-.06.04c-.01.01-.02.01-.02.02.02-.01.03-.02.04-.02.07-.04.09-.05.12-.06.05-.02.11-.03.14-.07.02-.02.04-.04.04-.06 0 .02-.02.05-.04.06-.04.03-.1.05-.15.07-.03.01-.06.02-.07.02-.08.05-.12.08-.13.09h-.12z"/><path d="M31.7 17.36c-.1.16-.21.27-.24.23-.03-.03.03-.19.13-.36.1-.16.21-.27.24-.23.04.04-.02.2-.13.36" fill="#2a690b"/><path d="M31.48 17.61l-.02-.01c-.03-.04.04-.21.13-.36.09-.14.18-.24.23-.24l.01.01c-.05.01-.15.1-.23.23-.11.18-.16.32-.13.35l.01.02c.03-.01.12-.09.22-.25.09-.14.13-.26.14-.32 0 .07-.05.19-.13.32-.09.15-.19.25-.23.25"/><path d="M31.64 17.31c-.07.19-.16.32-.2.3-.03-.02 0-.19.07-.38s.16-.32.2-.3c.03.02 0 .19-.07.38" fill="#2a690b"/><path d="M31.45 17.62h-.01c-.04-.03 0-.22.07-.39.07-.18.15-.3.19-.3.05.03.01.22-.06.39-.07.17-.15.3-.19.3m.25-.69c-.04 0-.12.11-.19.3-.08.2-.1.36-.07.38h.01c.03 0 .11-.11.18-.3.08-.2.1-.36.07-.38z"/><path d="M31.37 17.22c.07.18.09.34.06.37-.04.03-.12-.09-.19-.27-.07-.18-.1-.34-.06-.37.04-.02.12.09.19.27" fill="#2a690b"/><path d="M31.42 17.6c-.04 0-.12-.11-.18-.27-.07-.18-.09-.35-.06-.38.06 0 .13.11.19.27.07.18.09.35.06.38h-.01zm-.22-.65c-.04.03-.02.18.05.37.07.17.14.27.17.27v.01l.01-.01c.03-.02.01-.18-.06-.37-.07-.17-.14-.27-.17-.27"/><path d="M31.46 17.19c.02.2 0 .38-.04.39-.04.01-.09-.14-.11-.35-.02-.2 0-.38.04-.38.04-.02.09.14.11.34" fill="#2a690b"/><path d="M31.42 17.58c-.05 0-.09-.18-.11-.35-.02-.18-.01-.38.04-.39.05 0 .09.18.11.35.02.18.01.38-.04.39zm-.06-.73c-.04.01-.06.16-.04.38.02.21.06.34.1.34v-.01c.03-.01.05-.16.04-.38-.03-.2-.07-.33-.1-.33"/><path d="M31.55 17.24c-.02.21-.07.37-.11.37-.04 0-.05-.17-.04-.38.02-.21.07-.37.11-.37.05.01.06.18.04.38" fill="#2a690b"/><path d="M31.44 17.61l-.02-.01c-.03-.04-.04-.19-.02-.37s.06-.37.11-.37c.05.05.06.2.04.38-.01.19-.06.37-.11.37m.08-.74c-.04 0-.09.14-.11.36-.02.18-.01.33.02.37l.01.01c.03 0 .08-.14.1-.36.02-.19.01-.34-.02-.38z"/><path d="M31.43 17.6s-.1-.04-.12-.05c-.02-.01-.01-.06-.07-.09a.227.227 0 0 0-.16-.01c-.03.01-.02.05.05.08.07.04.13.01.16.03.04.01.1.04.13.06.03-.01.11-.02.16-.03.04-.01.15.03.23 0 .06-.02.1-.07.05-.09a.322.322 0 0 0-.17-.01c-.05.01-.08.07-.13.08a.79.79 0 0 1-.13.03" fill="#2a690b"/><path d="M31.43 17.62a.517.517 0 0 0-.13-.06c.07.02.11.03.13.05.03-.01.07-.01.11-.02h.12c.03 0 .06.01.09.01.08-.02.11-.03.13-.05-.01.02-.03.04-.06.05-.1.01-.13 0-.16 0h-.07c-.09 0-.14.01-.16.02zm.01-.02c-.01 0-.1-.04-.12-.05-.02-.05-.03-.07-.07-.09-.04-.02-.07-.02-.09-.02l-.08.03c0 .02.02.04.06.06.04.02.07.02.1.02.02 0 .04.01.06.01-.09 0-.12-.01-.16-.03-.05-.02-.07-.05-.07-.07l.09-.04c.02 0 .06 0 .1.02.04.02.05.05.06.07.02.04.11.08.12.09.01-.01.04-.01.07-.02.09-.01.11-.03.13-.05.02-.02.04-.03.06-.04.05-.01.13-.01.17.01v.02c-.06-.05-.13-.03-.18-.02-.08.06-.1.08-.13.08-.08.02-.11.02-.12.02"/><path d="M31.5 18.15c-.17.14-.32.22-.34.17-.02-.05.1-.2.26-.34.17-.14.32-.22.34-.17.02.05-.1.2-.26.34" fill="#2a690b"/><path d="M31.18 18.34l-.03-.02c-.02-.05.1-.21.26-.35.13-.11.26-.19.32-.19.01.01.01.01.01.02-.07.01-.2.07-.32.17-.18.15-.28.3-.26.34l.02.03c.06-.01.18-.08.31-.19.11-.09.19-.18.23-.25-.04.07-.12.17-.22.25-.13.12-.26.19-.32.19"/><path d="M31.44 18.07c-.14.18-.28.3-.31.26-.03-.04.06-.21.2-.4.14-.18.28-.3.31-.26.03.04-.06.22-.2.4" fill="#2a690b"/><path d="M31.14 18.34l-.02-.01c-.04-.04.07-.24.2-.4.12-.16.25-.27.3-.27l.01.01c-.06 0-.18.11-.3.26-.15.19-.23.36-.2.39l.01.02c.05-.01.17-.12.29-.27.11-.14.18-.27.2-.34-.01.09-.1.22-.19.35-.12.15-.25.26-.3.26"/><path d="M31.18 17.88c.02.22-.01.41-.06.43-.05.02-.1-.14-.12-.36-.02-.22.01-.41.06-.43.05-.03.1.14.12.36" fill="#2a690b"/><path d="M31.11 18.31c-.05 0-.1-.15-.11-.37-.02-.22.01-.41.06-.44.07 0 .11.19.12.37.02.23-.01.42-.07.44zm-.05-.79c-.05.02-.08.19-.06.43.02.22.07.36.11.36l.01-.01c.04-.02.07-.19.06-.43-.03-.22-.08-.35-.12-.35"/><path d="M31.28 17.87c-.05.23-.12.42-.17.41-.05 0-.05-.19 0-.42.05-.23.12-.41.17-.41s.05.19 0 .42" fill="#2a690b"/><path d="M31.11 18.29l-.02-.01c-.03-.04-.03-.21.01-.41.04-.21.12-.42.17-.42 0 0 .01.01.01.02-.03.01-.13.16-.18.4-.04.2-.04.37-.01.41l.02.01c.04-.01.11-.17.16-.42.03-.16.04-.31.03-.38.02.08.01.22-.02.38-.04.21-.11.42-.17.42"/><path d="M31.37 17.96c-.09.22-.2.39-.24.37-.04-.02 0-.21.09-.43s.2-.39.24-.37c.03.02 0 .22-.09.43" fill="#2a690b"/><path d="M31.13 18.34c-.04-.07-.01-.24.08-.44.09-.21.19-.37.24-.37.06.02.01.24-.07.44-.1.21-.2.37-.25.37m.32-.8c-.04 0-.14.14-.23.37-.08.19-.12.36-.1.41l.01.01c.04 0 .14-.14.23-.37.1-.23.12-.41.09-.42z"/><path d="M31.12 18.31s-.09-.08-.11-.1c-.02-.02.01-.07-.05-.13a.319.319 0 0 0-.17-.07c-.04 0-.04.04.03.11s.13.06.17.09c.04.03.1.08.12.11.04 0 .13.02.18.03.05.01.16.08.25.09.08 0 .13-.04.09-.07a.316.316 0 0 0-.19-.07c-.06-.01-.11.05-.16.04-.04-.01-.16-.02-.16-.03" fill="#2a690b"/><path d="M31.55 18.45c-.06 0-.13-.03-.18-.06-.03-.01-.06-.03-.08-.03-.1-.02-.15-.03-.18-.03-.03-.03-.08-.08-.12-.11.07.04.11.08.13.11.03 0 .08.01.13.02.07.01.1.03.13.04.05.03.12.05.17.05v.01-.01c.03 0 .06-.01.07-.02a.09.09 0 0 1-.07.03m.08-.06c-.05-.06-.13-.08-.19-.09-.04-.02-.06.01-.08.02-.02.01-.05.02-.07.02l-.09-.01c-.08-.01-.09-.01-.09-.02 0 0-.1-.08-.11-.1-.01-.06-.01-.09-.05-.13.04.04.04.07.04.1.02.05.1.12.11.13.01.01.05.01.08.02.03 0 .06.01.08.01.04 0 .06-.01.08-.02.02-.01.05-.02.08-.02.07.01.16.03.2.07.01 0 .01.01.01.02"/><path d="M30.95 18.84c-.24.04-.43.02-.42-.03.01-.06.2-.14.44-.18.24-.04.42-.02.42.03 0 .06-.2.14-.44.18" fill="#2a690b"/><path d="M30.72 18.87c-.09 0-.16-.01-.18-.04v-.02c.05.06.21.06.41.03.17-.03.32-.08.39-.12-.07.05-.22.1-.39.13-.09.01-.17.02-.23.02m-.13-.12c.07-.05.22-.1.38-.13.21-.04.38-.03.42.01v.02c-.05-.06-.21-.06-.41-.02-.17.03-.32.08-.39.12"/><path d="M30.94 18.73c-.24.09-.44.12-.44.07-.01-.05.17-.17.41-.26.23-.09.43-.12.44-.07.01.05-.17.17-.41.26" fill="#2a690b"/><path d="M30.57 18.83c-.05 0-.07-.01-.07-.03-.01-.06.17-.17.41-.27.23-.09.44-.12.45-.06s-.17.17-.41.27c-.15.05-.3.09-.38.09m.69-.37a.93.93 0 0 0-.35.08c-.25.1-.41.21-.41.26l.06.02c.08 0 .22-.04.38-.09.25-.1.41-.21.41-.26-.03-.01-.06-.01-.09-.01"/><path d="M30.8 18.4c-.1.22-.23.39-.29.38-.06-.01-.02-.2.08-.42.1-.22.23-.39.29-.38.06.01.02.2-.08.42" fill="#2a690b"/><path d="M30.51 18.78c-.01-.01-.01-.01-.01-.02l.01.01c.06 0 .18-.17.28-.37.06-.12.1-.24.11-.31 0 .08-.04.2-.1.32-.1.2-.23.37-.29.37m-.03-.08c0-.08.04-.21.1-.34.1-.21.23-.38.29-.38 0 .01.01.01.01.02-.08 0-.2.16-.29.36-.06.13-.1.26-.11.34"/><path d="M30.9 18.45c-.17.19-.34.32-.39.29-.04-.03.06-.21.23-.4.17-.19.34-.32.39-.29.04.03-.06.21-.23.4" fill="#2a690b"/><path d="M30.53 18.76l-.02-.01v-.02l.02.02c.06 0 .22-.13.37-.3.09-.1.16-.2.2-.28-.03.08-.11.18-.2.28-.15.18-.31.31-.37.31m-.02-.08c.02-.09.11-.21.22-.34.15-.17.31-.3.38-.3 0 .01.01.02.01.03-.09 0-.23.12-.37.28-.12.13-.21.26-.24.33"/><path d="M30.93 18.59c-.21.16-.4.25-.43.21-.03-.04.11-.2.32-.36.21-.16.4-.25.43-.21.03.04-.11.2-.32.36" fill="#2a690b"/><path d="M30.53 18.82l-.03-.01v-.03l.03.03c.07 0 .23-.09.4-.22.1-.08.19-.16.25-.22.03-.04.06-.07.07-.1 0 .03-.03.07-.06.1-.06.07-.15.15-.25.22-.18.13-.35.23-.41.23m-.02-.06c.04-.08.15-.2.31-.32.17-.13.34-.22.41-.22.01.01.01.01.01.02-.07.01-.25.09-.42.21-.16.11-.28.24-.31.31"/><path d="M30.5 18.78s-.05-.13-.05-.16c-.01-.03.05-.07.02-.15a.4.4 0 0 0-.13-.17c-.04-.02-.07.02-.04.12.03.1.1.13.12.18.02.05.05.13.06.18.04.02.12.09.16.13.04.03.11.17.2.23.07.05.15.04.13-.02a.39.39 0 0 0-.14-.17c-.05-.04-.13-.02-.18-.06-.04-.03-.15-.1-.15-.11" fill="#2a690b"/><path d="M30.93 19.18c-.03 0-.06-.01-.09-.03-.06-.03-.1-.1-.14-.15a.555.555 0 0 0-.06-.08c-.09-.07-.13-.11-.16-.13a1.15 1.15 0 0 0-.06-.17c.04.07.06.13.06.17.02.01.07.05.11.09.07.05.09.08.11.11.04.05.08.12.14.15.03.02.06.03.09.04zm.03-.04a.328.328 0 0 0-.14-.18c-.02-.02-.05-.02-.09-.03-.03 0-.07-.01-.09-.03l-.07-.05c-.07-.06-.08-.06-.08-.07-.01 0-.05-.15-.05-.15.02-.06.04-.09.02-.15a.238.238 0 0 1 0 0c.02.05 0 .09-.01.11-.01.06.04.18.04.19 0 .01.04.04.07.06l.07.05c.02.02.05.03.09.03.03 0 .07.01.09.03.05.04.12.11.14.17l.01.02zm-.54-.53a.505.505 0 0 1-.12-.18c-.02-.06-.02-.1 0-.12.01 0 .02 0 .03.01-.04.02-.03.06-.02.11.02.06.05.1.08.13.01.01.02.03.03.05"/><path d="M30.24 19.23c-.24 0-.44-.05-.44-.12 0-.07.2-.13.44-.13s.44.05.44.12c.01.07-.19.12-.44.13" fill="#2a690b"/><path d="M30.22 19.23c-.19 0-.35-.03-.4-.09v-.03c.06.08.22.11.4.12l.02-.01c.24 0 .44-.06.44-.13 0-.06-.19-.12-.41-.12-.16 0-.3.03-.39.06.08-.04.21-.07.36-.07.26 0 .45.05.45.13 0 .07-.2.13-.45.14h-.02z"/><path d="M30.18 18.83c-.16.2-.32.33-.38.28-.05-.04.03-.24.19-.44.15-.2.32-.33.38-.28.05.04-.03.24-.19.44" fill="#2a690b"/><path d="M29.84 19.13l-.03-.01c-.05-.05.03-.24.18-.45.13-.17.28-.29.35-.29.01 0 .01.01.02.01-.09-.03-.23.12-.36.28-.15.2-.23.39-.18.43l.02.03c.07-.01.21-.13.34-.3.1-.13.17-.26.19-.35-.01.09-.08.22-.19.35-.12.18-.27.3-.34.3"/><path d="M30.25 19.03c-.23.1-.43.13-.46.06-.02-.07.14-.2.37-.29.23-.1.43-.12.46-.06.02.06-.15.2-.37.29" fill="#2a690b"/><path d="M29.88 19.13c-.05 0-.09-.01-.1-.04-.03-.07.14-.2.37-.3.22-.1.44-.13.46-.06.03.07-.14.2-.37.3a.82.82 0 0 1-.36.1m.64-.42c-.09 0-.22.04-.36.09-.22.1-.39.23-.36.29.02.06.23.03.45-.06s.39-.23.36-.29c-.01-.02-.04-.03-.09-.03"/><path d="M30.37 15.19c.11.1.18.2.15.21-.03.02-.14-.05-.25-.15-.11-.1-.18-.2-.15-.21.02-.03.14.04.25.15" fill="#2a690b"/><path d="M30.51 15.4c-.04 0-.15-.07-.25-.16s-.16-.17-.16-.21h.02c-.01.04.04.11.15.2.1.1.2.16.24.17l.01-.01c.01-.03-.05-.11-.15-.21a.923.923 0 0 0-.2-.14c.06.02.13.07.2.14.1.09.16.17.16.21l-.02.01z"/><path d="M30.23 15.3c.15.02.28.06.28.09.01.03-.11.04-.26.02-.15-.02-.28-.06-.29-.09 0-.03.12-.04.27-.02" fill="#2a690b"/><path d="M30.4 15.43c-.04 0-.09 0-.15-.01-.14-.02-.28-.06-.29-.1.04-.07.17-.04.27-.03.13.02.28.06.29.1-.02.03-.08.04-.12.04m-.31-.14c-.06 0-.1.01-.11.02 0 .03.12.08.28.1.13.02.24.01.26-.01 0-.03-.12-.08-.28-.1-.06-.01-.11-.01-.15-.01"/><path d="M30.29 15.23c.14.07.25.15.23.18-.01.02-.14-.01-.29-.09-.14-.07-.25-.15-.23-.18.01-.02.14.01.29.09" fill="#2a690b"/><path d="M30.49 15.42c-.05 0-.15-.04-.27-.1-.13-.06-.22-.14-.23-.17.01 0 .02-.01.03-.01 0 .04.1.11.21.17.11.06.22.1.26.11l.01-.01-.01.01zm.02-.02c-.01-.03-.09-.1-.23-.17a.912.912 0 0 0-.2-.08c.06.01.13.04.21.08.12.06.22.13.22.17z"/><path d="M28.29 18.8s.37.08.69.2c.32.12.81.52.94.54.15.01.35-.04.43-.26-.23.06-.36.15-.58.03-.08-.03-.33-.26-.6-.38-.28-.12-.83-.26-.83-.26l-.05.13z" fill="#2a690b"/><path d="M29.95 19.54h-.03c-.06-.01-.2-.1-.35-.2-.18-.12-.42-.28-.59-.34-.32-.11-.69-.2-.69-.2l.05-.13c.02 0 .56.14.84.26.17.08.34.2.45.28.07.05.12.09.15.1.16.09.29.06.45.01l.13-.04c-.08.24-.31.26-.41.26m-1.65-.74c.02 0 .38.08.69.19.18.07.41.22.6.34.15.1.29.19.35.2h.02c.09 0 .32-.02.4-.25l-.12.05c-.17.05-.3.08-.46-.01-.03-.01-.08-.05-.15-.1-.12-.09-.28-.21-.45-.28a6.45 6.45 0 0 0-.83-.26l-.05.12"/><path fill="#2a690b" d="M28.69 15.45l.42-.23-.47.12-.05.09z"/><path d="M28.69 15.45l-.1-.02.05-.09.47-.12c.01 0-.41.22-.42.23zm.42-.23l-.47.13-.05.08.1.02c.02-.02.09-.06.42-.23"/><path d="M29.09 15.55c-.17-.03-.42-.09-.58-.1.11-.13.27-.33.36-.46-.06.12-.16.29-.2.4.12.06.29.11.42.16" fill="#2a690b"/><path d="M29.09 15.55l-.13-.02c-.15-.03-.33-.06-.46-.07.11-.13.26-.34.36-.47l-.05.12c-.05.1-.11.2-.14.28.07.04.17.07.27.11l.15.05zm-.22-.56c-.09.14-.24.34-.35.47.12 0 .3.04.45.07l.07.01-.09-.03c-.1-.03-.2-.07-.28-.11.03-.09.08-.19.14-.29l.06-.12z"/><path fill="#2a690b" d="M28.61 15.47l.38-.29-.44.2-.04.09z"/><path d="M28.61 15.48l-.1-.01.03-.1.44-.2c.01.01-.36.29-.37.31zm.38-.3l-.44.21-.04.09h.1c.02-.03.08-.08.38-.3"/><path d="M29.02 15.55c-.17-.03-.42-.09-.59-.1.11-.13.26-.34.35-.48-.06.13-.16.29-.19.41.12.06.3.12.43.17" fill="#2a690b"/><path d="M29.01 15.55l-.13-.02c-.15-.03-.33-.07-.45-.08.11-.13.25-.34.34-.47-.09.15-.23.34-.34.47.12 0 .3.04.45.07l.08.02-.09-.03c-.1-.03-.2-.07-.28-.11.03-.09.08-.2.13-.3l.05-.1-.04.09c-.05.1-.11.21-.14.3.08.04.18.07.28.11l.14.05z"/><path fill="#2a690b" d="M28.55 15.5l.44-.19-.48.08-.06.08z"/><path d="M28.55 15.5l-.1-.03.06-.08.48-.08c-.11.05-.43.18-.44.19zm.44-.19l-.48.09-.06.08.09.02c.03-.02.11-.05.45-.19"/><path d="M28.97 15.55c-.17-.01-.43-.05-.59-.04.09-.14.22-.38.29-.52-.04.13-.12.31-.14.44.12.05.3.08.44.12" fill="#2a690b"/><path d="M28.96 15.55l-.15-.01c-.14-.01-.3-.03-.42-.03.14 0 .28.01.42.02l.09.01-.1-.03c-.1-.02-.21-.05-.29-.08.01-.1.06-.22.1-.33l.03-.07-.02.07c-.04.11-.08.23-.1.32.08.03.18.06.29.08l.15.05zm-.48-.2c.06-.12.13-.25.18-.34-.06.11-.12.23-.18.34"/><path fill="#2a690b" d="M28.5 15.5l.31-.37-.39.29-.02.09z"/><path d="M28.4 15.52l.02-.1.39-.29c-.08.11-.29.36-.3.37l-.11.02zm.4-.39l-.38.29-.02.09.09-.02c.01 0 .04-.04.31-.36"/><path d="M28.96 15.57c-.18 0-.46-.02-.63 0 .08-.16.19-.43.26-.59-.03.15-.1.35-.11.49.14.05.34.07.48.1" fill="#2a690b"/><path d="M28.96 15.58l-.15-.01c-.16 0-.35-.01-.48 0a5.15 5.15 0 0 1 0 0c.12-.03.32-.01.48-.01h.1c-.03-.01-.07-.01-.11-.02-.11-.02-.23-.04-.32-.07 0-.1.04-.23.07-.35l.02-.09-.01.1c-.03.12-.06.24-.07.34.09.03.2.05.32.07.05.01.1.02.15.04z"/><path fill="#2a690b" d="M28.44 15.59l.37-.36-.45.25-.03.11z"/><path d="M28.44 15.59h-.11l.03-.11.45-.25c-.14.14-.36.35-.37.36zm.36-.36l-.44.25-.03.1h.1c.02-.02.09-.08.37-.35"/><path d="M28.88 15.59c-.19 0-.49-.01-.68.01.12-.18.3-.47.4-.66-.07.17-.18.39-.22.54.14.05.35.07.5.11" fill="#2a690b"/><path d="M28.19 15.6c.13-.19.3-.48.4-.66-.1.19-.26.47-.38.65.1-.01.22-.01.34-.01h.31c-.03 0-.09-.01-.15-.02-.12-.02-.24-.04-.33-.07.03-.11.09-.26.15-.39l.06-.14-.05.15c-.06.13-.12.28-.15.38.09.03.21.05.33.07.06.01.12.02.17.03l-.16.01h-.17c-.13-.01-.26-.01-.37 0z"/><path fill="#2a690b" d="M28.32 15.61l.47-.39-.53.28-.06.11z"/><path d="M28.2 15.62l.06-.12.53-.28c-.15.14-.46.39-.46.4h-.13zm.58-.41l-.53.29-.05.11h.11c.01 0 .05-.04.47-.4"/><path d="M28.81 15.6c-.19.03-.49.06-.67.11.1-.19.23-.51.31-.7-.04.17-.12.4-.14.56.14.03.35.02.5.03" fill="#2a690b"/><path d="M28.13 15.71c.1-.19.22-.5.3-.69-.08.21-.19.49-.29.67.14-.04.34-.06.51-.08l.16-.02c-.05.01-.11 0-.17 0-.12 0-.24 0-.34-.03.01-.11.05-.27.09-.41l.03-.11-.02.11c-.04.14-.08.29-.09.4.09.01.21.02.33.02h.17l-.16.03c-.17.05-.37.07-.52.11z"/><path fill="#2a690b" d="M28.26 15.69l.36-.5-.46.41-.02.12z"/><path d="M28.14 15.73l.03-.13.45-.41c-.09.14-.35.49-.35.51l-.13.03zm.47-.54l-.45.41-.02.12.11-.03c0-.01.04-.06.36-.5"/><path d="M28.71 15.66c-.19.02-.49.03-.68.07.11-.19.26-.49.34-.68-.05.17-.14.4-.17.55.14.04.35.04.51.06" fill="#2a690b"/><path d="M28.02 15.74c.11-.2.26-.5.35-.69l-.05.17c-.05.14-.09.28-.11.39.09.02.21.03.32.03.06 0 .12.01.18.02l-.16.02c-.18.01-.38.02-.53.06zm.35-.69c-.08.19-.22.49-.33.67.14-.03.34-.04.51-.06l.16-.01c-.05 0-.11 0-.18-.01-.12-.01-.24-.01-.33-.04.02-.11.07-.26.11-.39l.06-.16z"/><path fill="#2a690b" d="M28.19 15.74l.46-.39-.52.28-.06.11z"/><path d="M28.07 15.75l.06-.13.53-.28c-.15.14-.45.4-.46.4l-.13.01zm.58-.41l-.52.29-.05.11h.11s.05-.05.46-.4"/><path d="M28.65 15.68c-.19.04-.49.09-.68.15.09-.2.2-.51.27-.71-.04.17-.1.41-.11.56.15.02.36 0 .52 0" fill="#2a690b"/><path d="M27.97 15.84c.09-.19.19-.48.26-.67v.01c-.08.23-.17.48-.24.65.14-.04.34-.08.52-.12l.15-.03c-.05.01-.11.01-.17.02-.12.01-.24.01-.34 0 0-.12.04-.27.07-.41l.02-.07-.01.07c-.03.14-.07.29-.08.4h.33c.06 0 .12-.01.18-.01l-.15.04c-.19.03-.39.07-.54.12z"/><path fill="#2a690b" d="M28.11 15.76l.3-.54-.4.47-.01.12z"/><path d="M28 15.82v-.13l.4-.47c-.09.19-.28.54-.29.55l-.11.05zm.4-.6l-.39.48v.11l.1-.05s.03-.06.29-.54"/><path d="M28.65 15.71c-.21.06-.53.13-.72.2.08-.22.16-.58.21-.8-.02.2-.06.46-.05.63.16.01.39-.02.56-.03" fill="#2a690b"/><path d="M27.92 15.91v-.01c.07-.22.16-.58.21-.8l-.01.18c-.02.16-.04.33-.03.45h.08c.09 0 .19-.01.28-.02.07-.01.13-.01.19-.02l-.17.05c-.18.06-.4.12-.55.17zm.22-.81a8.5 8.5 0 0 1-.2.8c.15-.05.36-.11.54-.15l.17-.04c-.06.01-.12.02-.19.02-.13.01-.26.02-.37.01-.01-.13.01-.3.03-.46l.02-.18z"/><path d="M28.06 15.89c-.01 0 .37-.55.37-.55l-.47.44-.02.14.12-.03z" fill="#2a690b"/><path d="M27.93 15.93l.02-.14.48-.45c-.09.15-.36.53-.36.55l-.14.04zm.49-.59l-.47.45-.02.13.11-.03c.01-.01.05-.07.38-.55"/><path d="M28.57 15.77c-.2.06-.52.15-.71.23.06-.22.13-.58.17-.8-.01.19-.04.46-.02.63.16.01.39-.04.56-.06" fill="#2a690b"/><path d="M27.85 16.01c.07-.23.14-.59.18-.81v.19c-.01.09-.02.19-.02.28-.01-.09 0-.19.01-.28l.01-.19c-.03.22-.1.57-.16.8.14-.06.35-.12.53-.18l.17-.05c-.06.01-.12.02-.19.03-.11.02-.23.03-.33.03v-.01c.12-.01.23-.02.34-.04.07-.01.13-.02.19-.03l-.17.06c-.2.07-.41.14-.56.2z"/><path fill="#2a690b" d="M27.98 15.97l.28-.6-.4.52v.14z"/><path d="M27.86 16.03v-.15l.4-.52c-.07.17-.27.59-.27.61l-.13.06zm.4-.67l-.39.53v.13l.11-.05s.02-.07.28-.61"/><path d="M28.49 15.85c-.21.05-.53.11-.73.18.08-.22.18-.57.25-.79-.03.19-.08.45-.08.63.16.02.39-.01.56-.02" fill="#2a690b"/><path d="M27.75 16.03c.09-.22.19-.57.25-.79-.05.22-.15.56-.23.77.14-.05.36-.09.54-.13l.18-.04c-.06.01-.12.01-.19.02-.13.01-.26.02-.37 0 0-.13.02-.3.05-.45l.02-.15-.02.15c-.02.16-.05.33-.05.45.09 0 .23 0 .36-.01.07 0 .13-.01.19-.01l-.18.05c-.17.04-.39.09-.55.14z"/><path fill="#2a690b" d="M27.91 16.03l.46-.47-.54.35-.04.13z"/><path d="M27.78 16.04l.05-.14.54-.35c-.12.13-.44.47-.45.48l-.14.01zm.59-.49l-.54.36-.04.13.12-.01c0-.01.05-.06.46-.48"/><path d="M28.4 15.94c-.21.03-.53.06-.72.11.1-.21.22-.56.29-.78-.04.19-.11.45-.12.63.15.03.38.02.55.04" fill="#2a690b"/><path d="M27.67 16.05c.09-.21.2-.53.28-.74v.01c-.08.25-.18.54-.26.72.15-.03.36-.06.54-.08l.17-.02h-.19c-.13-.01-.26-.01-.36-.03.01-.13.04-.31.08-.47l.02-.08-.01.08c-.04.16-.07.33-.08.46.1.02.23.02.36.03.07 0 .13 0 .19.01l-.17.03c-.2.01-.42.04-.57.08z"/><path d="M27.82 15.98c-.01 0 .31-.59.31-.59l-.42.5-.01.14.12-.05z" fill="#2a690b"/><path d="M27.7 16.03l.01-.15.43-.5c-.08.16-.3.58-.31.59l-.13.06zm.43-.64l-.42.5-.01.13.11-.04c.01-.01.04-.07.32-.59"/><path d="M28.42 15.86c-.23.09-.57.22-.79.33.07-.27.14-.69.19-.95-.01.22-.04.53-.02.73.18.01.44-.07.62-.11" fill="#2a690b"/><path d="M27.63 16.21v-.01c.07-.26.14-.69.19-.95v.21c-.01.18-.02.38-.01.52.11-.01.26-.04.4-.07.07-.02.15-.03.21-.05l-.19.08c-.2.08-.43.18-.6.27zm.19-.96c-.04.26-.11.67-.18.94.16-.08.39-.17.58-.25l.19-.08c-.06.02-.14.04-.21.05-.14.03-.29.07-.41.07-.02-.14-.01-.34 0-.53l.03-.2z"/><path d="M27.78 16.16c-.01 0 .38-.68.38-.68l-.5.57-.01.16.13-.05z" fill="#2a690b"/><path d="M27.64 16.22l.02-.17.5-.58c-.12.23-.36.67-.37.68l-.15.07zm.51-.74l-.49.58-.01.15.13-.05c0-.01.03-.07.37-.68"/><path d="M28.34 15.95c-.22.1-.56.25-.77.37.06-.27.11-.69.15-.94 0 .22-.02.52.01.72.17-.02.42-.11.61-.15" fill="#2a690b"/><path d="M27.56 16.33c.06-.27.11-.69.15-.94-.03.26-.08.66-.13.93.15-.09.38-.2.58-.28l.18-.08c-.06.02-.13.04-.21.07-.14.04-.29.08-.4.09-.02-.14-.02-.34-.02-.52v-.18l.01.18c0 .18-.01.38.01.52.11-.01.26-.05.4-.1.07-.02.15-.04.21-.06l-.18.09c-.2.08-.44.18-.6.28z"/><path fill="#2a690b" d="M27.7 16.26l.28-.73-.41.66.01.15z"/><path d="M27.57 16.35l-.01-.17.41-.65c-.09.25-.26.72-.27.73l-.13.09zm.4-.82l-.4.66.01.15.12-.08s.02-.06.27-.73"/><path d="M28.24 16.01c-.22.1-.56.25-.77.38.06-.27.11-.69.14-.94.01.22-.01.53.02.72.18-.02.43-.12.61-.16" fill="#2a690b"/><path d="M27.47 16.4v-.01c.05-.27.11-.68.14-.94l.01.22c0 .18 0 .37.02.5.11-.01.26-.06.4-.1l.21-.06-.17.09c-.21.09-.45.2-.61.3zm.14-.95c-.02.25-.07.67-.13.93.15-.09.39-.2.58-.29l.18-.08c-.06.02-.13.04-.2.07-.14.04-.29.09-.4.1-.03-.14-.02-.33-.02-.51v-.22z"/><path fill="#2a690b" d="M27.64 16.35l.43-.65-.54.53-.03.16z"/><path d="M27.5 16.4l.03-.17.54-.53c-.14.22-.41.63-.42.65l-.15.05zm.56-.7l-.53.53-.02.15.13-.04.42-.64"/><path d="M28.22 15.98c-.19.16-.5.39-.68.56 0-.27-.04-.68-.06-.94.05.21.1.51.17.69.17-.07.4-.22.57-.31" fill="#2a690b"/><path d="M27.54 16.54c0-.26-.03-.63-.05-.88v.01c.03.3.06.63.06.85.13-.13.34-.29.51-.42l.16-.13c-.05.04-.12.08-.19.12-.13.07-.27.15-.38.19-.05-.13-.1-.32-.13-.49l-.01-.06.02.06c.04.17.07.36.12.49.11-.04.24-.12.37-.2.07-.04.14-.08.2-.11l-.16.13c-.18.15-.38.31-.52.44z"/><path d="M27.66 16.38c-.01 0 .05-.77.05-.77l-.2.75.06.14.09-.12z" fill="#2a690b"/><path d="M27.56 16.51l-.06-.15.2-.75c-.01.21-.04.75-.04.77l-.1.13zm.15-.9l-.2.75.05.13.09-.11c.01 0 .01-.05.06-.77"/><path d="M28.17 16.05c-.2.16-.51.38-.68.55 0-.27-.03-.68-.05-.94.05.21.09.51.16.69.16-.06.39-.21.57-.3" fill="#2a690b"/><path d="M27.48 16.61v-.01c0-.26-.03-.65-.05-.91.03.28.06.65.06.9.13-.12.33-.28.5-.41l.17-.13c-.05.04-.12.07-.19.11-.13.07-.27.15-.38.19-.05-.13-.09-.31-.13-.49l-.03-.13.03.13c.04.17.07.36.12.48.11-.04.24-.12.38-.2.07-.04.13-.08.19-.1l-.17.14c-.16.14-.36.3-.5.43z"/><path fill="#2a690b" d="M27.61 16.51l.2-.75-.34.69.03.16z"/><path d="M27.49 16.61l-.03-.16.34-.7c-.06.26-.19.74-.19.76l-.12.1zm.32-.85l-.33.7.03.15.11-.09c-.01-.01 0-.08.19-.76"/><path d="M28.14 16.07c-.19.18-.48.45-.65.65-.03-.27-.11-.7-.16-.96.07.21.16.51.24.69.18-.09.4-.27.57-.38" fill="#2a690b"/><path d="M27.5 16.72c-.03-.28-.11-.68-.16-.94.06.28.13.66.16.92.12-.15.31-.33.48-.49l.16-.15c-.05.05-.12.09-.19.14-.13.09-.26.19-.37.24a2.52 2.52 0 0 1-.18-.49l-.04-.14.05.13c.06.17.12.36.18.48.1-.06.23-.15.36-.24.07-.05.13-.1.19-.14l-.16.16c-.16.18-.35.37-.48.52z"/><path d="M27.61 16.61c-.01 0 .04-.8.04-.8l-.2.78.06.15.1-.13z" fill="#2a690b"/><path d="M27.51 16.74l-.06-.15.2-.78-.03.8-.11.13zm.14-.93l-.19.78.06.14.09-.12c0-.01 0-.08.04-.8"/><path d="M28.08 16.2c-.2.16-.51.4-.69.58-.01-.28-.05-.71-.08-.98.06.22.11.53.19.71.18-.06.41-.22.58-.31" fill="#2a690b"/><path d="M27.39 16.79a14.4 14.4 0 0 0-.08-.98l.06.21c.04.18.08.37.14.5.11-.04.25-.13.39-.21.07-.04.13-.08.19-.11l-.16.14c-.19.14-.4.31-.54.45zm-.08-.98c.04.26.08.68.09.96.13-.13.34-.3.51-.44l.17-.14c-.05.04-.12.08-.19.12-.13.08-.27.17-.39.21-.06-.13-.1-.33-.14-.51l-.05-.2z"/><path d="M30.88 17.02c0 .78-.63 1.41-1.41 1.41-.78 0-1.41-.63-1.41-1.41 0-.78.63-1.41 1.41-1.41.77 0 1.41.63 1.41 1.41" fill="#3e60bd"/><path fill="#2a690b" d="M27.55 16.7l.28-.75-.42.66.02.17z"/><path d="M27.42 16.79l-.01-.17.42-.67c-.09.26-.27.74-.27.76l-.14.08zm.41-.84l-.41.67.01.15.12-.07c0-.01.02-.07.28-.75"/><path d="M28.08 16.2c-.18.19-.46.46-.61.66-.03-.28-.11-.71-.15-.97.07.21.15.52.23.69.16-.08.37-.26.53-.38" fill="#2a690b"/><path d="M27.47 16.87v-.01c-.02-.27-.1-.66-.15-.93v.01c.06.29.12.66.15.91.12-.15.3-.34.46-.5l.14-.15c-.05.05-.11.1-.17.14-.12.09-.24.19-.35.25-.07-.13-.12-.32-.18-.5l-.03-.1.04.1c.05.18.11.37.17.49.1-.06.22-.15.34-.25.06-.05.13-.1.18-.14l-.14.16c-.15.17-.34.36-.46.52z"/><path fill="#2a690b" d="M27.57 16.74l-.04-.8-.13.8.08.13z"/><path d="M27.48 16.88l-.08-.14.13-.8c.02.27.04.78.04.8l-.09.14zm.05-.94l-.12.8.07.13.08-.13c0-.01-.01-.08-.03-.8"/><path d="M28 16.26c-.17.19-.44.47-.59.67-.04-.28-.13-.71-.18-.97.08.22.16.52.25.69.16-.09.36-.27.52-.39" fill="#2a690b"/><path d="M27.4 16.94c-.04-.29-.13-.71-.18-.97.07.27.15.67.19.95.11-.15.29-.34.44-.51l.14-.15c-.05.05-.11.09-.17.14-.12.1-.24.2-.35.25-.07-.13-.13-.31-.19-.49l-.06-.18.07.18c.06.17.12.36.18.49.1-.06.22-.16.34-.25l.17-.14-.14.16c-.14.16-.32.36-.44.52z"/><path d="M27.52 16.82c-.01 0 .09-.81.09-.81l-.24.77.05.16.1-.12z" fill="#2a690b"/><path d="M27.42 16.94l-.05-.16.24-.77c-.02.27-.08.79-.08.81l-.11.12zm.19-.93l-.23.77.04.15.1-.1c-.01-.02 0-.09.09-.82"/><path d="M27.96 16.29c-.15.2-.4.51-.54.72-.06-.27-.18-.69-.26-.95.09.21.2.5.3.66.17-.09.35-.3.5-.43" fill="#2a690b"/><path d="M27.42 17.02c-.06-.28-.18-.68-.25-.94.09.27.2.65.25.91.1-.16.26-.36.4-.54l.13-.17c-.04.05-.1.1-.15.16-.11.11-.23.22-.33.29-.08-.12-.16-.3-.23-.48l-.06-.13.06.13c.07.17.15.36.22.47.09-.07.21-.18.32-.29.06-.05.11-.11.16-.15l-.13.17c-.12.19-.29.4-.39.57z"/><path d="M27.52 16.89c-.01 0-.05-.81-.05-.81l-.1.8.07.14.08-.13z" fill="#2a690b"/><path d="M27.44 17.04l-.08-.15.1-.81c.02.27.06.79.06.81l-.08.15zm.02-.96l-.1.8.07.13.08-.13c0 .01-.01-.06-.05-.8"/><path d="M27.94 16.34c-.15.21-.38.53-.5.75-.07-.27-.22-.69-.3-.94.1.2.23.49.34.65.14-.11.32-.32.46-.46" fill="#2a690b"/><path d="M27.44 17.1v-.01c-.07-.25-.19-.61-.28-.87l-.02-.07.1.19c.08.17.17.35.25.46.09-.07.2-.19.3-.3.05-.06.11-.12.16-.16l-.12.18c-.13.19-.29.41-.38.58h-.01zm-.31-.95l.03.07c.09.25.21.61.28.86.09-.17.24-.38.38-.57l.12-.17c-.04.05-.09.11-.15.17-.1.11-.21.23-.31.3-.09-.12-.17-.3-.25-.47l-.1-.19z"/><path fill="#2a690b" d="M27.57 16.97l.08-.82-.23.77.05.16z"/><path d="M27.46 17.09l-.05-.17.23-.77c-.02.28-.08.8-.08.82l-.1.12zm.19-.94l-.23.77.05.15.1-.11c-.01.01 0-.06.08-.81"/><path d="M27.91 16.42c-.13.23-.33.58-.43.82-.1-.26-.28-.65-.39-.89.12.18.27.46.4.6.14-.14.29-.38.42-.53" fill="#2a690b"/><path d="M27.48 17.25l-.01-.01c-.09-.26-.27-.64-.38-.88.12.24.29.61.39.87.08-.17.2-.4.31-.6l.11-.21c-.03.06-.08.12-.13.19-.09.13-.19.26-.29.35-.09-.1-.2-.27-.29-.42l-.1-.16.1.15c.09.15.2.32.28.42.09-.09.18-.22.28-.35.05-.07.09-.13.14-.18l-.1.21c-.1.2-.23.43-.31.62z"/><path fill="#2a690b" d="M27.54 17.04l-.23-.78.08.82.1.11z"/><path d="M27.49 17.2l-.11-.12-.08-.82c.08.26.23.76.23.77l-.04.17zm-.18-.94l.08.81.1.11.05-.15c-.01 0-.03-.06-.23-.77"/><path d="M27.91 16.51c-.13.23-.34.58-.45.81-.1-.26-.28-.65-.39-.89.12.18.28.46.4.6.14-.13.3-.37.44-.52" fill="#2a690b"/><path d="M27.46 17.33c-.1-.27-.28-.66-.39-.9l.12.17c.1.15.2.32.29.42.08-.09.19-.21.28-.34.05-.07.1-.13.15-.19l-.11.21c-.12.21-.26.45-.34.63zm-.39-.9c.12.23.3.62.39.88.08-.18.21-.41.33-.61l.12-.2c-.04.06-.09.13-.14.19-.1.13-.2.26-.29.34-.1-.11-.2-.27-.3-.43l-.11-.17z"/><path d="M27.55 17.18c-.01 0-.09-.81-.09-.81l-.07.81.08.14.08-.14z" fill="#2a690b"/><path d="M27.47 17.33l-.09-.15.07-.81c.03.27.09.8.09.81l-.07.15zm-.01-.96l-.07.81.08.13.07-.13s-.01-.07-.08-.81"/><path d="M27.92 16.58c-.14.23-.35.57-.47.81-.09-.26-.27-.66-.38-.9.12.19.27.46.39.61.16-.13.33-.37.46-.52" fill="#2a690b"/><path d="M27.46 17.39c-.09-.27-.27-.66-.38-.91.11.24.29.62.38.88.09-.18.23-.42.36-.63l.1-.17c-.04.06-.09.12-.15.19-.1.12-.2.25-.29.33-.1-.11-.2-.27-.29-.43l-.1-.17.11.17c.09.15.19.32.28.43.09-.08.19-.21.29-.33.05-.07.1-.13.15-.18l-.09.17c-.13.21-.28.46-.37.65z"/><path fill="#2a690b" d="M27.54 17.25l-.15-.8v.82l.09.12z"/><path d="M27.48 17.4l-.1-.14.01-.82c.06.27.15.78.16.8l-.07.16zm-.09-.95v.82l.09.12.06-.14s-.02-.07-.15-.8"/><path d="M27.86 16.69c-.15.22-.38.55-.5.77-.08-.27-.24-.67-.33-.92.11.2.24.48.36.63.16-.11.33-.33.47-.48" fill="#2a690b"/><path d="M27.36 17.47c-.08-.27-.22-.64-.32-.89v.01c.11.28.25.62.32.86.09-.17.24-.39.37-.58l.12-.18c-.04.05-.1.11-.15.17-.1.12-.21.24-.32.32-.09-.11-.18-.29-.27-.45l-.05-.09.05.09c.09.16.18.34.26.45.09-.08.2-.2.31-.31.05-.06.11-.12.16-.17l-.12.19c-.11.18-.26.4-.36.58z"/><path d="M27.47 17.34c-.01 0 .07-.82.07-.82l-.22.77.05.16.1-.11z" fill="#2a690b"/><path d="M27.37 17.46l-.06-.16.22-.78c-.02.28-.06.8-.06.82l-.1.12zm.17-.94l-.21.78.05.15.1-.11c-.01-.01-.01-.08.06-.82"/><path d="M27.87 16.71c-.12.24-.33.59-.43.84-.1-.26-.3-.64-.42-.87.13.18.29.44.42.58.15-.14.3-.39.43-.55" fill="#2a690b"/><path d="M27.45 17.56c-.1-.25-.27-.59-.39-.83l.01.01c.14.27.3.58.39.8.07-.18.2-.41.31-.62l.11-.21c-.04.06-.08.13-.13.19-.09.13-.19.27-.29.36-.1-.1-.21-.26-.31-.41l-.05-.07.05.06c.1.15.21.31.3.41.08-.09.18-.23.28-.36.05-.07.09-.13.14-.19l-.1.22c-.12.21-.25.45-.32.64z"/><path d="M27.45 17.4c-.01 0-.25-.76-.25-.76l.1.81.11.11.04-.16z" fill="#2a690b"/><path d="M27.4 17.57l-.11-.11-.1-.81c.09.25.25.74.26.76l-.05.16zm-.21-.93l.1.81.1.1.04-.15c.01 0-.01-.05-.24-.76"/><path d="M27.84 16.77c-.09.26-.23.65-.3.91-.14-.23-.39-.56-.54-.77.15.15.35.37.5.48.12-.15.24-.43.34-.62" fill="#2a690b"/><path d="M27.55 17.7c-.13-.22-.35-.51-.5-.71l-.05-.07.15.14c.12.13.25.26.36.34.07-.11.14-.26.21-.4l.11-.22-.06.21c-.08.22-.17.5-.22.71zm-.55-.78l.05.06c.15.2.36.49.49.69.05-.2.14-.47.22-.7l.07-.21c-.03.07-.07.15-.1.23-.07.15-.15.3-.22.4-.11-.08-.24-.21-.36-.34l-.15-.13z"/><path d="M27.67 17.47c-.01 0-.27-.75-.27-.75l.12.8.11.1.04-.15z" fill="#2a690b"/><path d="M27.63 17.63l-.12-.11-.12-.81c.1.25.27.73.28.75l-.04.17zm-.24-.91l.13.8.1.1.04-.15c0-.01-.02-.06-.27-.75"/><path d="M27.84 16.85c-.09.26-.23.66-.29.92-.14-.23-.39-.56-.54-.76.15.15.35.37.5.48.11-.17.23-.45.33-.64" fill="#2a690b"/><path d="M27.55 17.78l-.01-.01c-.14-.23-.39-.56-.55-.76l.15.14c.12.12.25.25.36.33.07-.11.14-.26.22-.41.04-.08.07-.15.11-.22l-.07.22c-.08.23-.17.5-.21.69v.02zm-.55-.77c.16.2.4.52.55.75.05-.19.14-.46.21-.68l.07-.22c-.03.07-.06.14-.1.22-.07.15-.15.31-.22.41-.11-.08-.24-.21-.36-.33l-.15-.15z"/><path fill="#2a690b" d="M27.67 17.59l-.35-.7.2.78.13.09z"/><path d="M27.65 17.77l-.13-.09-.2-.78c.12.23.35.68.35.7l-.02.17zm-.33-.88l.21.78.11.08.02-.16s-.03-.05-.34-.7"/><path d="M27.81 16.92c-.05.27-.15.68-.18.95-.17-.21-.45-.5-.63-.68.17.13.39.32.55.4.1-.18.18-.47.26-.67" fill="#2a690b"/><path d="M27.63 17.88c-.16-.19-.41-.45-.58-.63l-.05-.06.16.11c.14.11.28.22.4.28.06-.12.11-.28.17-.44.03-.08.05-.17.08-.24l-.04.23c-.05.26-.11.54-.14.75zM27 17.2l.06.05c.17.18.42.43.57.61.02-.2.08-.47.13-.71l.05-.23c-.02.07-.05.15-.08.24-.05.16-.11.32-.17.44-.12-.06-.27-.17-.41-.28L27 17.2z"/><path d="M27.69 17.7c-.01 0-.19-.78-.19-.78l.03.82.1.12.06-.16z" fill="#2a690b"/><path d="M27.64 17.86l-.1-.13-.03-.82c.07.26.19.77.2.78l-.07.17zm-.14-.94l.04.82.09.11.06-.15s-.02-.06-.19-.78"/><path d="M27.81 17c-.03.27-.09.7-.09.97-.18-.18-.5-.43-.68-.59.18.1.42.26.59.32.07-.19.12-.49.18-.7" fill="#2a690b"/><path d="M27.72 17.98c-.18-.18-.47-.42-.66-.57h.01c.22.17.48.38.65.55 0-.21.04-.49.07-.74l.02-.22c-.01.08-.03.16-.05.25-.04.16-.08.33-.13.46-.13-.04-.29-.14-.43-.22l-.08-.05.08.04c.14.08.3.18.42.23.04-.12.08-.29.12-.45.02-.09.04-.17.06-.25l-.02.22c-.02.24-.05.54-.06.75z"/><path fill="#2a690b" d="M27.7 17.76l-.5-.57.38.69.14.05z"/><path d="M27.72 17.93l-.14-.05-.38-.68.5.56.02.17zm-.52-.73l.38.68.13.04-.02-.16c.01 0-.03-.04-.49-.56"/><path d="M27.82 17.1c-.03.28-.09.7-.09.97-.18-.18-.49-.44-.68-.59.18.1.42.26.59.32.07-.19.12-.49.18-.7" fill="#2a690b"/><path d="M27.73 18.08c-.18-.18-.47-.42-.66-.57h.01c.22.17.48.38.65.55.01-.2.04-.47.07-.72l.03-.24c-.01.07-.03.15-.05.24-.04.16-.08.34-.13.46-.13-.04-.29-.14-.43-.23l-.08-.05.08.04c.14.09.3.18.42.23.05-.12.09-.3.13-.46.02-.09.04-.17.06-.24l-.02.25c-.04.25-.07.53-.08.74z"/><path d="M27.76 17.89c-.01 0-.38-.68-.38-.68l.24.77.13.08.01-.17z" fill="#2a690b"/><path d="M27.75 18.07l-.13-.09-.24-.77c.11.18.38.67.39.68l-.02.18zm-.38-.86l.25.76.12.08.02-.16c-.01 0-.04-.05-.39-.68"/><path d="M27.84 17.21c-.02.28-.06.7-.05.98-.19-.17-.51-.41-.71-.55.18.09.43.24.6.29.07-.2.11-.5.16-.72" fill="#2a690b"/><path d="M27.8 18.19c-.19-.17-.49-.39-.68-.53h.01c.22.16.49.36.67.51 0-.2.02-.48.04-.73l.02-.24c-.01.08-.03.16-.04.25-.03.17-.07.34-.11.47-.13-.04-.29-.12-.44-.2l-.08-.04.08.03c.15.08.31.16.43.2.04-.13.07-.3.11-.46.02-.09.03-.17.05-.25l-.01.24c-.04.26-.06.54-.05.75z"/><path d="M27.81 18.02c-.01 0-.47-.6-.47-.6l.34.71.13.05v-.16z" fill="#2a690b"/><path d="M27.82 18.19l-.14-.06-.35-.71c.16.2.47.58.48.59l.01.18zm-.49-.77l.35.7.13.05-.01-.16c0 .01-.04-.03-.47-.59"/><path d="M27.85 17.34c-.02.28-.06.71-.05.98-.19-.17-.51-.4-.71-.54.18.09.43.23.6.28.07-.2.11-.51.16-.72" fill="#2a690b"/><path d="M27.81 18.32c-.2-.18-.52-.41-.72-.55l.18.08c.15.08.3.16.43.2.04-.13.07-.3.11-.47.02-.08.03-.17.05-.24l-.01.22a6.7 6.7 0 0 0-.03.75v.01zm-.72-.55c.2.14.51.36.71.53 0-.2.02-.5.03-.75l.02-.22a2.4 2.4 0 0 1-.04.24c-.03.17-.07.35-.11.48-.13-.03-.29-.12-.43-.2l-.18-.08z"/><path fill="#2a690b" d="M27.85 18.12l-.33-.72.18.79.12.09z"/><path d="M27.82 18.29l-.13-.1-.19-.79c.12.24.33.7.34.72l-.02.17zm-.31-.89l.19.79.11.09.03-.16s-.03-.06-.33-.72"/><path d="M27.86 17.42c.01.28.01.71.04.98-.21-.14-.55-.33-.75-.45.19.07.45.18.62.2.05-.2.06-.51.09-.73" fill="#2a690b"/><path d="M27.91 18.41c-.21-.14-.52-.32-.73-.44.23.12.53.29.72.42-.02-.2-.03-.48-.04-.73l-.01-.24c0 .08-.01.17-.02.26-.02.17-.03.35-.07.48-.13-.02-.29-.08-.45-.14l-.09-.03.09.03c.16.06.32.12.45.14.03-.13.04-.3.06-.47.01-.09.02-.18.03-.25l.02.24c.01.23.02.52.04.73z"/><path d="M27.91 18.09c0 .01-.6-.41-.6-.41l.51.56.14.01-.05-.16z" fill="#2a690b"/><path d="M27.96 18.25l-.15-.01-.52-.56c.17.11.59.4.61.41l.06.16zm-.66-.57l.52.56.13.01-.05-.15c-.01-.01-.38-.26-.6-.42"/><path d="M27.88 17.45c.02.28.05.71.09.97-.21-.13-.57-.31-.78-.42.19.06.46.16.63.18.05-.2.04-.51.06-.73" fill="#2a690b"/><path d="M27.98 18.43c-.21-.13-.53-.29-.75-.4h.01c.25.11.54.26.73.38-.03-.2-.06-.5-.07-.75l-.02-.22v.24c-.01.17-.01.35-.04.49-.13-.01-.3-.07-.46-.12l-.08-.02.08.01c.16.05.33.11.45.12.02-.13.03-.32.04-.49 0-.09.01-.17.01-.24l.02.22c.02.27.04.57.08.78z"/><path fill="#2a690b" d="M27.97 18.25l-.5-.58.38.69.14.05z"/><path d="M27.99 18.42l-.14-.05-.38-.7c.17.19.49.56.51.57l.01.18zm-.53-.75l.39.69.13.05-.02-.16c.01 0-.04-.05-.5-.58"/><path d="M27.93 17.56c.03.28.08.7.13.97-.22-.12-.57-.28-.79-.37.2.04.46.13.64.14.02-.21.01-.52.02-.74" fill="#2a690b"/><path d="M28.07 18.53c-.22-.12-.55-.26-.77-.36h.01c.24.1.55.23.75.34-.04-.2-.08-.5-.11-.75l-.02-.21c.01.08.01.16.01.25 0 .17 0 .35-.02.48-.13 0-.29-.05-.45-.09l-.1-.03.1.02c.16.04.32.08.45.09.02-.13.02-.31.02-.48v-.25l.03.2c.01.28.05.58.1.79z"/><path fill="#2a690b" d="M28.07 18.34l-.6-.42.51.57.14.01z"/><path d="M28.13 18.51l-.15-.01-.51-.57c.21.14.59.41.6.42l.06.16zm-.66-.59l.51.56.13.01-.05-.15s-.32-.23-.59-.42"/><path d="M27.94 17.67c.05.27.12.7.2.96-.23-.1-.59-.22-.81-.29.2.03.47.09.64.08.02-.22-.02-.52-.03-.75" fill="#2a690b"/><path d="M28.15 18.63a9.783 9.783 0 0 1-.02-.01c-.05-.19-.11-.47-.15-.72l-.04-.23c.01.08.02.17.02.26.01.17.02.35.01.48-.16 0-.31-.02-.46-.05l-.09-.01.1.01c.15.02.3.05.42.05.04-.13.03-.31.01-.48-.01-.09-.01-.18-.02-.26l.05.23c.06.25.11.53.17.73z"/><path d="M28.14 18.43c-.01 0-.5-.59-.5-.59l.37.7.14.05-.01-.16z" fill="#2a690b"/><path d="M28.16 18.6l-.14-.06-.38-.7c.17.19.49.57.5.58l.02.18zm-.52-.76l.38.7.13.05-.01-.16c-.01 0-.05-.04-.5-.59"/><path d="M27.98 17.75c.08.27.19.68.28.93-.23-.07-.6-.14-.83-.19.2 0 .47.03.64-.01 0-.21-.07-.51-.09-.73" fill="#2a690b"/><path d="M28.27 18.68h-.01c-.23-.07-.59-.14-.82-.18.24.04.58.1.8.17-.07-.18-.15-.45-.21-.69l-.07-.23c.02.08.03.16.05.25.03.17.06.34.06.48-.13.03-.3.02-.46.02h-.13l.13-.01c.16.01.34.01.46-.01-.01-.14-.03-.31-.06-.48-.01-.09-.03-.17-.04-.25l.08.23c.07.24.14.51.22.7z"/><path fill="#2a690b" d="M28.17 18.43l-.7-.15.66.33.14-.05z"/><path d="M28.13 18.61l-.66-.33c.23.04.67.14.69.14l.1.13-.13.06zm-.66-.33l.66.32.13-.05-.1-.12c-.01 0-.66-.14-.69-.15"/><path d="M28.02 17.83c.08.27.18.68.28.93-.23-.07-.6-.15-.83-.19.2 0 .47.03.64 0 0-.22-.06-.52-.09-.74" fill="#2a690b"/><path d="M28.31 18.77c-.23-.07-.56-.14-.79-.18h.01c.26.04.57.11.77.17-.07-.19-.15-.47-.22-.71l-.06-.22c.02.08.03.16.04.24.03.17.06.35.06.49-.13.03-.3.02-.46.01h-.07l.07-.01c.08 0 .16.01.23.01.08 0 .16 0 .22-.02a4.49 4.49 0 0 0-.06-.48c-.01-.09-.03-.17-.04-.25l.07.22c.08.25.16.53.23.73z"/><path fill="#2a690b" d="M28.28 18.5l-.66-.32.59.48.14-.01z"/><path d="M28.21 18.67l-.6-.48c.18.08.65.31.67.31l.08.15-.15.02zm-.6-.48l.6.47.14-.01-.08-.14c-.01-.01-.5-.25-.66-.32"/><path d="M27.99 17.88c.13.24.32.62.47.84-.24-.02-.62-.01-.85 0 .19-.04.46-.08.63-.15-.05-.2-.18-.48-.25-.69" fill="#2a690b"/><path d="M27.61 18.73l.18-.04c.16-.03.33-.06.45-.11-.03-.13-.1-.3-.16-.46-.03-.08-.07-.16-.09-.24l.11.2c.12.22.25.48.36.65-.24 0-.59 0-.82.01h-.01l-.02-.01zm.37-.85c.03.07.06.15.1.23.06.16.13.33.16.46-.12.05-.29.09-.45.12l-.13.03c.23-.01.57-.02.8 0-.12-.16-.25-.42-.37-.64l-.11-.2z"/><path d="M28.38 18.57c0 .01-.69-.19-.69-.19l.65.36.14-.04-.1-.13z" fill="#2a690b"/><path d="M28.34 18.75l-.65-.37c.19.04.67.18.69.18l.1.14-.14.05zm-.65-.36l.65.36.13-.04-.1-.13-.68-.19"/><path d="M28.06 17.98c.13.24.33.62.48.84-.24-.02-.62 0-.85.01.19-.05.46-.08.63-.16-.06-.2-.19-.48-.26-.69" fill="#2a690b"/><path d="M27.69 18.84l.18-.05c.16-.03.33-.07.44-.11-.03-.13-.1-.3-.17-.46-.03-.08-.06-.16-.09-.23l.13.22c.12.21.25.46.36.62h-.26c-.2 0-.42.01-.58.02h-.01v-.01zm.36-.86c.03.07.06.15.1.23.06.16.13.33.16.47-.12.05-.28.09-.45.12l-.13.03c.23-.01.57-.02.8-.01-.11-.15-.24-.4-.36-.61l-.12-.23z"/><path fill="#2a690b" d="M28.47 18.63l-.64-.38.56.53h.14z"/><path d="M28.54 18.79h-.15l-.56-.54c.22.12.63.37.65.38l.06.16zm-.71-.54l.56.53h.14l-.06-.15c-.01 0-.41-.24-.64-.38"/><path d="M28.11 18.04c.15.23.38.58.55.78-.24.02-.61.08-.83.12.18-.07.45-.14.6-.24-.07-.19-.22-.46-.32-.66" fill="#2a690b"/><path d="M27.83 18.95l.17-.07c.16-.05.32-.11.43-.18-.04-.13-.13-.29-.2-.43-.04-.08-.08-.16-.11-.23l.13.18c.14.21.3.45.42.6-.24.02-.59.08-.82.12h-.01l-.01.01zm.28-.91c.04.07.08.14.12.22.08.15.16.31.2.44-.11.07-.27.13-.43.18l-.12.04c.23-.04.56-.1.78-.11-.13-.14-.29-.38-.43-.59l-.12-.18z"/><path fill="#2a690b" d="M28.52 18.69l-.7-.02.69.2.12-.07z"/><path d="M28.51 18.88l-.69-.2c0-.01.55.01.67.01l.01.01c-.15.01-.68-.02-.68-.02l.69.2.12-.08-.03-.03.04.03-.13.08z"/><path fill="#2a690b" d="M28.92 15.33l.5-.08-.5.01-.09.04z"/><path d="M28.92 15.34l-.08-.03.09-.05.5-.01c-.01 0-.5.08-.51.09zm.5-.1l-.5.02-.08.04.08.02c.02 0 .1-.01.5-.08"/><path d="M29.19 15.44c-.15-.04-.36-.11-.51-.15.16-.06.39-.17.53-.24-.11.07-.27.16-.36.23.09.05.24.11.34.16" fill="#2a690b"/><path d="M29.19 15.44l-.13-.04c-.13-.04-.27-.08-.38-.11.16-.07.39-.18.53-.25-.14.08-.37.18-.53.25.11.01.25.06.38.1l.07.02-.05-.02c-.08-.04-.17-.08-.22-.11.06-.06.16-.12.25-.17l.1-.06-.1.07c-.09.05-.19.11-.25.16.05.03.14.07.22.1l.11.06z"/><path fill="#2a690b" d="M28.9 15.35l.48-.13-.5.06-.08.05z"/><path d="M28.9 15.35l-.1-.02.07-.06.5-.06c.01.01-.46.14-.47.14zm.48-.14l-.5.07-.07.05.09.01c.01 0 .09-.03.48-.13"/><path d="M29.22 15.47c-.17-.02-.43-.05-.6-.05.13-.11.3-.3.41-.41-.07.11-.19.25-.24.35.11.05.3.08.43.11" fill="#2a690b"/><path d="M29.21 15.48l-.14-.01c-.15-.02-.33-.03-.45-.03.12-.12.29-.3.4-.42-.11.12-.28.3-.4.41.12-.01.3.01.45.03l.08.01-.09-.02c-.1-.02-.2-.04-.27-.07.03-.08.1-.17.16-.25l.07-.1-.06.1c-.06.08-.13.17-.16.24.07.02.17.04.27.07l.14.04z"/><path fill="#2a690b" d="M28.72 15.38l.5-.05-.49-.02-.09.04z"/><path d="M28.72 15.39l-.08-.03.09-.05.49.01c0 .01-.49.06-.5.07z"/><path d="M29.09 15.49c-.16-.03-.39-.08-.54-.1.15-.07.36-.2.49-.27-.1.07-.24.17-.32.25.1.04.26.08.37.12" fill="#2a690b"/><path d="M29.09 15.5l-.14-.03c-.14-.03-.29-.06-.4-.07.14-.08.36-.2.49-.28-.13.09-.34.21-.48.28.11.01.27.04.4.07l.07.01-.05-.02c-.09-.03-.18-.06-.24-.09.05-.06.14-.12.22-.18l.09-.06-.08.07c-.08.06-.17.12-.22.17.06.02.16.05.24.08l.1.05z"/><path fill="#2a690b" d="M28.67 15.38l.44-.19-.48.12-.06.06z"/><path d="M28.67 15.38h-.1l.05-.07.49-.13c.01.01-.42.19-.44.2zm.44-.2l-.48.14-.05.06h.1c.01-.01.08-.05.43-.2"/><path d="M29.07 15.55c-.13-.05-.32-.14-.45-.18.1-.09.23-.25.32-.35-.06.1-.15.22-.19.32.09.07.23.14.32.21" fill="#2a690b"/><path d="M29.07 15.55l-.1-.04c-.12-.05-.26-.11-.35-.14.09-.09.22-.25.31-.35-.09.11-.21.26-.3.34.09.02.24.08.35.13l.04.02-.06-.04a.853.853 0 0 1-.21-.14c.03-.08.08-.16.13-.24l.04-.07-.03.07c-.05.08-.1.16-.13.23.05.04.13.09.21.14l.1.09z"/><path fill="#2a690b" d="M28.7 15.41l.34-.15-.37.05-.05.07z"/><path d="M28.7 15.41l-.08-.03.04-.07.38-.05c-.13.06-.33.15-.34.15zm.34-.15l-.37.06-.04.06.07.02c.01 0 .07-.03.34-.14"/><path d="M28.41 18.62c0 .01-.71.01-.71.01l.72.18.12-.08-.13-.11z" fill="#2a690b"/><path d="M28.42 18.81l-.72-.18c.19-.01.69-.01.71-.01l.13.11-.12.08zm-.01-.18s-.07.01-.71.01l.72.17.12-.08-.13-.1z"/><path d="M28.54 18.67c0 .01-.72-.17-.72-.17l.69.34.14-.04-.11-.13z" fill="#2a690b"/><path d="M28.51 18.85l-.7-.34c.24.05.71.16.72.16l.11.13-.13.05zm-.69-.34l.69.33.13-.04-.11-.12c-.02-.01-.69-.17-.71-.17"/><path fill="#2a690b" d="M28.66 18.72l-.72-.04.72.22.12-.07z"/><path d="M28.66 18.9l-.72-.22c0-.01.63.03.71.03l.13.11-.12.08zm-.72-.21l.72.21.12-.07-.12-.1c-.11-.02-.72-.04-.72-.04z"/><path d="M28.2 18.21c.19.21.46.53.66.72-.24.03-.6.13-.83.19.18-.09.43-.18.57-.28-.08-.2-.27-.44-.4-.63" fill="#2a690b"/><path d="M28.04 19.12l.16-.08c.15-.07.31-.14.41-.21-.06-.12-.17-.27-.27-.41-.05-.07-.1-.15-.14-.21l.15.16c.17.19.37.41.52.55-.23.04-.57.13-.8.19h-.01l-.02.01zm.16-.91c.05.06.1.13.15.2.1.14.2.29.27.42-.1.08-.26.15-.41.22l-.12.05c.22-.06.55-.15.78-.18-.15-.13-.35-.36-.52-.55l-.15-.16z"/><path fill="#2a690b" d="M28.76 18.75l-.72-.23.67.4.15-.03z"/><path d="M28.71 18.92l-.67-.4c.24.07.7.23.72.23l.1.14-.15.03zm-.67-.4l.68.39.14-.03-.1-.13c-.02.01-.65-.2-.72-.23"/><path d="M28.27 18.26c.2.19.51.48.72.64-.23.07-.57.21-.79.3.17-.11.4-.24.53-.36-.11-.18-.32-.4-.46-.58" fill="#2a690b"/><path d="M28.2 19.2l.15-.1c.14-.09.28-.18.38-.26-.07-.11-.19-.25-.3-.38-.06-.07-.11-.14-.16-.2l.18.16c.18.17.39.36.55.48-.23.07-.56.21-.77.3h-.03zm.07-.94c.05.06.11.13.17.19.11.13.23.27.3.39-.09.09-.24.18-.38.27l-.11.07c.21-.09.52-.22.74-.28-.16-.11-.37-.31-.55-.47l-.17-.17z"/><path d="M28.81 18.8c0 .01-.68.13-.68.13l.72.05.1-.1-.14-.08z" fill="#2a690b"/><path d="M28.85 18.99l-.72-.05c.18-.04.66-.14.68-.14l.14.08-.1.11zm-.04-.19s-.05.02-.68.14l.71.04.1-.1-.13-.08z"/><path d="M28.67 18.76c0 .01-.71.06-.71.06l.73.13.11-.08-.13-.11z" fill="#2a690b"/><path d="M28.7 18.94l-.73-.13c.19-.02.69-.06.71-.06l.14.1-.12.09zm-.03-.18s-.07.01-.71.06l.73.12.11-.08-.13-.1z"/><path d="M28.8 18.79c0 .01-.73-.12-.73-.12l.72.29.13-.05-.12-.12z" fill="#2a690b"/><path d="M28.79 18.97l-.72-.29c.01-.01.7.11.73.11l.12.12-.13.06zm-.72-.29l.72.28.13-.05-.12-.11c-.04 0-.7-.12-.73-.12"/><path d="M28.93 18.83c0 .01-.72.01-.72.01l.73.17.12-.08-.13-.1z" fill="#2a690b"/><path d="M28.94 19.02l-.73-.16c.2-.01.7-.02.72-.02l.13.1-.12.08zm-.01-.18s-.07.01-.72.01l.73.16.12-.08-.13-.09z"/><path d="M28.43 18.36c.2.19.5.5.71.67-.24.05-.59.17-.81.25.17-.1.42-.21.55-.32-.1-.19-.31-.42-.45-.6" fill="#2a690b"/><path d="M28.34 19.28l.16-.1c.14-.08.29-.15.39-.23-.07-.11-.19-.26-.3-.39-.06-.07-.11-.14-.16-.2l.18.16c.18.18.39.38.54.5-.23.06-.58.18-.8.25h-.01v.01zm.09-.92c.05.06.11.12.16.19.11.13.22.27.3.39-.1.09-.25.17-.39.24l-.12.06c.22-.07.54-.18.76-.23a5.94 5.94 0 0 1-.55-.5l-.16-.15z"/><path d="M29.03 18.86c0 .01-.73-.18-.73-.18l.7.35.14-.04-.11-.13z" fill="#2a690b"/><path d="M29 19.04l-.7-.35c.25.06.71.18.73.18l.11.13-.14.04zm-.71-.36l.7.34.14-.04-.11-.12c-.02.01-.7-.17-.73-.18"/><path d="M28.5 18.4c.22.17.54.45.77.59-.23.08-.56.25-.76.35.16-.12.38-.26.5-.39-.13-.17-.35-.38-.51-.55" fill="#2a690b"/><path d="M28.51 19.35l.14-.12c.13-.09.27-.19.35-.28a5.17 5.17 0 0 0-.33-.36c-.06-.06-.12-.13-.17-.18l.19.14c.19.16.42.34.58.44-.21.09-.52.24-.73.34l-.03.02zm-.01-.95c.06.05.12.11.18.17.12.12.25.25.33.37-.08.1-.22.2-.35.29l-.11.08c.21-.1.51-.25.72-.33-.16-.1-.39-.28-.58-.43l-.19-.15z"/><path d="M29.09 18.9c0 .01-.67.18-.67.18h.72l.09-.11-.14-.07z" fill="#2a690b"/><path d="M28.42 19.09c.18-.06.65-.18.67-.19l.15.07-.09.11-.73.01zm.67-.18s-.07.02-.64.17h.69l.09-.1-.14-.07z"/><path fill="#f5cd28" d="M30.23 17.98l-.77-.52-.76.52.29-.84-.67-.53h.86l.28-.84.29.84h.86l-.67.53z"/><path d="M30.24 18l-.78-.54-.76.53.28-.85-.67-.52.86-.01.28-.84.3.85h.85l-.67.54.31.84zm-.78-2.23l-.28.84h-.86l.67.52-.28.85.76-.53.76.52-.28-.83.67-.53-.86.01-.3-.85z"/><path d="M32.32 17.86l.25.09.41-.08-.03.08-.21.04c-.04.01-.08.01-.12.02.03.03.05.06.08.09l.13.16-.03.08-.26-.33-.25-.09.03-.06zM33.01 16.91l.01.07-.36.04c-.06.01-.11.01-.15 0a.207.207 0 0 1-.1-.06c-.03-.03-.04-.07-.05-.12a.19.19 0 0 1 .02-.13c.02-.03.04-.06.08-.08.04-.02.09-.03.15-.04l.36-.04.01.07-.36.04c-.05.01-.09.02-.12.03a.12.12 0 0 0-.05.05c-.01.02-.01.05-.01.08.01.05.02.09.05.11.03.02.08.02.16.02l.36-.04zM32.51 16.19l.07-.01.05.23-.22.05a.382.382 0 0 1-.09-.09.37.37 0 0 1-.05-.11c-.01-.05-.01-.1.01-.15.02-.05.05-.09.09-.12s.09-.05.16-.07c.06-.01.12-.01.17 0 .05.01.1.04.13.07.03.04.06.08.07.14.01.04.01.08 0 .11s-.02.06-.04.09c-.02.02-.05.04-.09.06l-.03-.06c.03-.01.05-.03.07-.04.02-.02.03-.04.03-.06 0-.02.01-.05 0-.08s-.02-.06-.04-.08a.145.145 0 0 0-.12-.07c-.04-.01-.08 0-.13 0-.05.01-.1.03-.13.05a.16.16 0 0 0-.07.09c-.01.04-.01.07-.01.11.01.03.02.06.04.09s.04.05.06.06l.11-.02-.04-.19zM29.91 14.23l.11-.61.07.01-.1.54.27.05-.01.07zM29.3 14.19v-.62h.4v.07h-.32v.19h.3v.07h-.3v.21h.33v.08zM27.59 14.58l.07-.03c.03.06.05.12.04.17-.01.05-.03.1-.08.13-.05.04-.09.06-.14.06-.05 0-.09-.01-.14-.03a.449.449 0 0 1-.13-.11.597.597 0 0 1-.09-.15.379.379 0 0 1 0-.15.21.21 0 0 1 .08-.11c.04-.04.09-.05.14-.05.05 0 .1.02.15.05l-.04.06a.186.186 0 0 0-.11-.04c-.03 0-.06.01-.09.04s-.05.06-.06.09c-.01.04 0 .07.01.11.02.04.04.07.07.1.03.04.07.07.1.09.04.02.07.03.11.03.03 0 .07-.02.09-.04.03-.03.05-.06.05-.1 0-.03-.01-.08-.03-.12M26.914 14.653l.462.414-.047.052-.462-.414zM27.03 15.47l-.49-.37.04-.06.43.33.17-.21.06.04zM26.1 15.84l.03-.07.33.13c.06.02.1.05.13.07.03.03.05.06.06.1.01.04 0 .08-.02.13s-.04.08-.07.11c-.03.02-.07.03-.11.03-.04 0-.09-.01-.15-.04l-.33-.13.03-.06.33.13c.05.02.09.03.12.03s.05-.01.07-.02a.18.18 0 0 0 .05-.07c.02-.05.02-.09 0-.12s-.06-.06-.14-.09l-.33-.13zM26.47 17.34l-.62.01-.01-.4h.08v.33l.19-.01v-.3h.07v.3h.21v-.34h.07zM28.78 14.28l-.12-.61.19-.04c.04-.01.08-.01.1-.01.03 0 .06.01.09.03.03.02.06.05.09.09.02.04.04.09.05.14.01.04.01.09.01.13 0 .04-.01.07-.02.1s-.02.05-.04.07c-.01.02-.03.03-.06.04-.02.01-.05.02-.08.03l-.21.03zm.06-.09l.11-.02c.04-.01.06-.02.08-.03.02-.01.03-.03.04-.04a.2.2 0 0 0 .02-.09c0-.03 0-.07-.01-.12a.26.26 0 0 0-.06-.14.156.156 0 0 0-.08-.06c-.02 0-.05 0-.1.01l-.11.02.11.47zM30.79 14.52l.29-.55.18.1c.03.02.06.03.07.04.02.02.04.04.05.06.01.02.01.04.01.07 0 .03-.01.06-.02.08-.02.05-.06.08-.1.1-.04.02-.1.01-.17-.02l-.13-.07-.12.22-.06-.03zm.22-.25l.13.07c.04.02.08.03.1.02a.145.145 0 0 0 .09-.13c0-.02-.01-.04-.02-.05-.01-.01-.03-.02-.06-.04l-.13-.06-.11.19zM31.11 14.69l.57-.32.06.05-.25.61-.06-.05.08-.18-.17-.15-.17.1-.06-.06zm.29-.09l.14.12.07-.17c.02-.05.04-.09.06-.12l-.1.07-.17.1zM31.55 15.1l.49-.38.15.19c.03.04.05.07.06.1.01.03 0 .05-.01.09-.01.03-.03.05-.06.08a.15.15 0 0 1-.11.04c-.04 0-.08-.02-.12-.06v.05c-.01.03-.01.06-.03.1l-.08.18-.06-.07.06-.14c.02-.04.03-.07.04-.09.01-.02.01-.04.01-.05 0-.01 0-.03-.01-.04 0-.01-.01-.02-.02-.03l-.05-.07-.22.17-.04-.07zm.32-.15l.09.12c.02.03.04.04.05.05.02.01.04.01.06.01.02 0 .04-.01.05-.02.02-.02.04-.04.04-.07 0-.03-.01-.05-.03-.09l-.11-.14-.15.14zM31.88 15.53l.65-.12.04.07-.43.5-.04-.07.13-.15-.11-.2-.19.04-.05-.07zm.3.01l.09.16.12-.13c.04-.04.07-.07.09-.1-.04.02-.08.03-.12.03l-.18.04zM32.43 17.13l.59.27-.01.08-.64.16.01-.08.19-.04.02-.23-.18-.08.02-.08zm.24.19l-.02.19.18-.04c.06-.01.1-.02.13-.03-.04-.01-.08-.03-.11-.04l-.18-.08zM26.57 17.91l-.61.14-.05-.24c-.01-.05-.01-.09-.01-.11.01-.03.02-.05.04-.07.02-.02.05-.03.09-.04.04-.01.08 0 .12.01.03.02.06.05.08.1.01-.02.01-.04.02-.05a.5.5 0 0 1 .07-.08l.14-.13.02.09-.11.1c-.03.03-.06.05-.07.07-.02.02-.03.03-.03.05-.01.01-.01.03-.01.04 0 .01 0 .02.01.04l.02.08.27-.06.01.06zm-.36.01l-.03-.15a.689.689 0 0 0-.03-.08c-.01-.01-.03-.03-.05-.03a.064.064 0 0 0-.06 0c-.03.01-.05.02-.07.04-.01.02-.02.05-.01.09l.04.17.21-.04zM26.49 16.79l-.62-.05.02-.21c0-.04.01-.07.01-.08.01-.03.02-.05.04-.07.01-.02.04-.03.06-.04.03-.01.05-.01.09-.01.05.01.1.03.13.06s.05.09.04.17l-.01.14.25.02-.01.07zm-.32-.1l.01-.14c0-.05 0-.08-.02-.1a.15.15 0 0 0-.08-.04c-.03 0-.05 0-.07.01-.02.01-.03.02-.04.04-.01.01-.01.03-.01.07l-.01.14.22.02zM26.75 15.88l-.52-.35.11-.17c.02-.04.05-.06.07-.07.03-.02.05-.02.08-.02s.06.01.08.03c.02.01.04.03.05.06.01.02.02.05.02.08.03-.02.06-.03.09-.03s.06.01.09.03c.03.02.05.04.06.06l.03.06c0 .02 0 .04-.01.07a.3.3 0 0 1-.04.08l-.11.17zm-.26-.26l.07-.1c.02-.03.03-.05.03-.06v-.05a.078.078 0 0 0-.04-.04c-.02-.01-.03-.02-.05-.02-.02 0-.03 0-.05.01-.01.01-.03.03-.05.07l-.06.09.15.1zm.24.16l.08-.11c.01-.02.02-.03.02-.04.01-.02.01-.03.01-.04 0-.01-.01-.03-.01-.04-.01-.01-.02-.03-.04-.04-.02-.01-.04-.02-.06-.02-.02 0-.04.01-.05.02-.02.01-.03.03-.05.06l-.07.11.17.1zM27.77 14.69l-.15-.64.07-.04.52.4-.07.04-.15-.13-.2.12.05.19-.07.06zm0-.3l.16-.1-.14-.11c-.04-.04-.08-.06-.1-.09.01.04.03.08.04.12l.04.18z" fill="#f8e72a"/></svg>