<svg xmlns="http://www.w3.org/2000/svg" viewBox="0 0 58.93 34.37"><path fill="#3e81c5" d="M0 0h58.93v17.19H0z"/><path fill="#f1d62f" d="M0 17.18h58.93v8.59H0z"/><path fill="#347d59" d="M0 25.78h58.93v8.59H0z"/><path fill="#dfad29" d="M55.43 12.51l-2.66-2.04 1.28 3.1-2.04-2.66.43 3.33-1.28-3.1-.44 3.33-.44-3.33-1.29 3.1.44-3.33-2.05 2.66 1.29-3.1L46 12.51l2.05-2.66-3.11 1.28 2.67-2.04-3.34.44 3.11-1.29-3.33-.44 3.33-.44-3.11-1.29 3.34.44-2.67-2.05 3.11 1.29L46 3.08l2.67 2.05-1.29-3.11 2.05 2.67-.44-3.33 1.29 3.1.44-3.33.44 3.33 1.28-3.1-.43 3.33 2.04-2.67-1.28 3.11 2.66-2.05-2.04 2.67 3.1-1.29-2.66 2.05 3.33-.44-3.1 1.29 3.33.44-3.33.44 3.1 1.29-3.33-.44 2.66 2.04-3.1-1.28z"/><path d="M53.15 7.8c0 1.34-1.09 2.43-2.43 2.43s-2.43-1.09-2.43-2.43 1.08-2.43 2.43-2.43 2.43 1.09 2.43 2.43" fill="#dfad29"/><path d="M50.72 10.35c-1.4 0-2.55-1.14-2.55-2.55s1.14-2.55 2.55-2.55c1.4 0 2.55 1.14 2.55 2.55 0 1.4-1.15 2.55-2.55 2.55m0-4.86c-1.27 0-2.31 1.04-2.31 2.31s1.04 2.31 2.31 2.31 2.31-1.04 2.31-2.31-1.04-2.31-2.31-2.31" fill="#3e81c5"/></svg>