<svg xmlns="http://www.w3.org/2000/svg" viewBox="0 0 58.93 34.37"><path fill="#325d37" d="M2.96 34.37h55.96V1.73z"/><path fill="#2d4db6" d="M0 0v32.64L55.96 0z"/><path fill="#f3d02f" d="M0 34.37h2.96L58.92 1.73V0z"/><path fill="#f3d02f" d="M55.96 0L0 32.64v1.73L58.92 0z"/><path fill="#fff" d="M10.31 7.65l-.91 2.81 1.4.45z"/><path fill="#fff" d="M10.31 7.65l.91 2.81-1.4.45z"/><path fill="#fff" d="M13.11 9.69h-2.94v1.47z"/><path fill="#fff" d="M13.11 9.69l-2.38 1.73-.87-1.19z"/><path fill="#fff" d="M7.51 9.69l2.38 1.73.87-1.19z"/><path fill="#fff" d="M7.51 9.69h2.95v1.47z"/><path fill="#fff" d="M12.04 12.98l-.91-2.8-1.4.46z"/><path fill="#fff" d="M12.04 12.98l-2.38-1.73.87-1.19z"/><path fill="#fff" d="M8.58 12.98l2.38-1.73-.86-1.19z"/><path fill="#fff" d="M8.58 12.98l.91-2.8 1.4.46zM15.73 13.07l-.91 2.8 1.4.46z"/><path fill="#fff" d="M15.73 13.07l.91 2.8-1.4.46z"/><path fill="#fff" d="M18.53 15.11h-2.95v1.47z"/><path fill="#fff" d="M18.53 15.11l-2.38 1.73-.87-1.19z"/><path fill="#fff" d="M12.93 15.11l2.38 1.73.87-1.19z"/><path fill="#fff" d="M12.93 15.11h2.94v1.47z"/><path fill="#fff" d="M17.46 18.4l-.91-2.8-1.4.45z"/><path fill="#fff" d="M17.46 18.4l-2.38-1.73.86-1.19z"/><path fill="#fff" d="M14 18.4l2.38-1.73-.87-1.19z"/><path fill="#fff" d="M14 18.4l.91-2.8 1.4.45zM4.89 13.07l-.91 2.8 1.41.46z"/><path fill="#fff" d="M4.89 13.07l.91 2.8-1.4.46z"/><path fill="#fff" d="M7.7 15.11H4.75v1.47z"/><path fill="#fff" d="M7.7 15.11l-2.39 1.73-.86-1.19z"/><path fill="#fff" d="M2.09 15.11l2.39 1.73.86-1.19z"/><path fill="#fff" d="M2.09 15.11h2.95v1.47z"/><path fill="#fff" d="M6.63 18.4l-.91-2.8-1.41.45z"/><path fill="#fff" d="M6.63 18.4l-2.39-1.73.87-1.19z"/><path fill="#fff" d="M3.16 18.4l2.39-1.73-.87-1.19z"/><path fill="#fff" d="M3.16 18.4l.91-2.8 1.4.45zM4.89 2.24l-.91 2.8 1.41.46z"/><path fill="#fff" d="M4.89 2.24l.91 2.8-1.4.46z"/><path fill="#fff" d="M7.7 4.27H4.75v1.48z"/><path fill="#fff" d="M7.7 4.27L5.31 6.01l-.86-1.2z"/><path fill="#fff" d="M2.09 4.27l2.39 1.74.86-1.2z"/><path fill="#fff" d="M2.09 4.27h2.95v1.48z"/><path fill="#fff" d="M6.63 7.57l-.91-2.8-1.41.45z"/><path fill="#fff" d="M6.63 7.57L4.24 5.84l.87-1.2z"/><path fill="#fff" d="M3.16 7.57l2.39-1.73-.87-1.2z"/><path fill="#fff" d="M3.16 7.57l.91-2.8 1.4.45zM15.73 2.24l-.91 2.8 1.4.46z"/><path fill="#fff" d="M15.73 2.24l.91 2.8-1.4.46z"/><path fill="#fff" d="M18.53 4.27h-2.95v1.48z"/><path fill="#fff" d="M18.53 4.27l-2.38 1.74-.87-1.2z"/><path fill="#fff" d="M12.93 4.27l2.38 1.74.87-1.2z"/><path fill="#fff" d="M12.93 4.27h2.94v1.48z"/><path fill="#fff" d="M17.46 7.57l-.91-2.8-1.4.45z"/><path fill="#fff" d="M17.46 7.57l-2.38-1.73.86-1.2z"/><path fill="#fff" d="M14 7.57l2.38-1.73-.87-1.2z"/><path fill="#fff" d="M14 7.57l.91-2.8 1.4.45z"/></svg>