<svg xmlns="http://www.w3.org/2000/svg" viewBox="0 0 58.92 34.37"><path fill="#120065" d="M0 0h58.92v34.37H0z"/><path fill="#fff" d="M25.83 0l-8.69 4.33V0h-4.89v4.33L3.55 0H0v1.79l6.21 3.12H0v4.91h6.21L0 12.94v1.79h3.55l8.7-4.33v4.33h4.89V10.4l8.69 4.33h3.59v-1.79l-6.25-3.12h6.25V4.91h-6.25l6.25-3.12V0z"/><path fill="#bc0030" d="M27.11 0l-9.82 4.91h2.35L29.42 0zM29.42 14.73l-9.79-4.91h2.36l7.43 3.74zM0 1.17l7.47 3.74h2.37L0 0zM9.82 9.82L0 14.73h2.35l9.82-4.91z"/><path fill="#bc0030" d="M13.29 0v5.93H0V8.8h13.29v5.93h2.88V8.8h13.25V5.93H16.17V0z"/><path d="M49.05 14.47c-.01 3.34-.54 6.94-4.86 8.66-4.33-1.71-4.85-5.31-4.86-8.66h9.72z" fill="#99c2fd"/><path d="M44.19 23.23l-.04-.02c-4.31-1.71-4.92-5.22-4.93-8.75v-.1h9.93v.1c-.01 3.54-.62 7.04-4.93 8.75l-.03.02zm-4.76-8.66c.02 3.42.64 6.79 4.76 8.44 4.12-1.65 4.74-5.03 4.76-8.44h-9.52z" fill="#fff"/><path d="M44.19 23.12c1.96-.78 3.14-1.94 3.85-3.29-.11 0-.33 0-.42-.01-.11-.01-4.15-.41-4.63-.59-.41-.15-2 .13-2.74.39.69 1.44 1.88 2.69 3.94 3.5" fill="#4968c5"/><path d="M41.17 21.05c.07-.02.19-.02.24-.01.06.01.07.02.09-.05.02-.06.07-.05.11-.01.04.03.13.01.17-.04.04-.05.05-.05.09-.01.04.04.05.03.09.02.04-.01.1-.05.13-.11s.08-.08.11-.05.05.05.09.04c.04 0 .05.03.04.08-.01.05.02.06.11-.01.08.08.11.05.11-.04 0-.08-.02-.4-.05-.44a.684.684 0 0 1-.07-.26c-.01-.18-.01-.19-.23-.3 0-.07-.01-.09-.17-.08.01-.02-.02-.09-.05-.11-.03-.02-.04-.04-.02-.11.07.01.13 0 .17-.06.04-.05.16-.04.24-.01.07.03.17.04.31.01.05-.04.14-.09.24-.14.1-.05.12-.07.13-.15.01-.19-.05-.41-.11-.51-.05-.1-.07-.23-.14-.39-.08-.17-.08-.22-.17-.32-.02-.03-.05-.05-.06-.11 0-.06-.03-.14-.09-.2-.16-.15-.22-.62-.29-.97-.04-.2-.01-.67-.1-.75-.14-.12-.21-.09-.31-.13-.07-.1-.1-.29-.17-.46-.1.02-.17.12-.24.16-.07.04-.08.04-.08.13s-.05.23-.15.38c-.1.15-.26.11-.39.33-.29-.36-.3-.46-.32-.56-.02-.1-.07-.12-.23-.27 0-.04-.02-.21-.01-.31-.12-.1-.21-.09-.27-.01-.06.08-.1.19-.19.23-.05.07-.22.24-.35.45.12 1.84.53 3.68 1.79 5.15" fill="#58340c"/><path d="M49.05 14.47c0-1.26-.07-2.48-.04-3.55-1.62-.72-3.74-.87-4.83-.87-1.08 0-3.21.15-4.83.87.03 1.07-.04 2.29-.04 3.55h9.74z" fill="#fcff2c"/><path d="M49.15 14.57h-9.92v-.1c0-.55.01-1.08.02-1.61.02-.69.03-1.34.01-1.94v-.07l.06-.03c1.83-.82 4.19-.88 4.87-.88.68 0 3.04.07 4.87.88l.06.03v.07c-.02.6 0 1.25.01 1.94.01.52.02 1.06.02 1.61v.1zm-9.72-.2h9.52c0-.51-.01-1.01-.02-1.5-.01-.66-.03-1.29-.01-1.89-1.78-.78-4.06-.84-4.72-.84-.66 0-2.95.06-4.73.84.01.59 0 1.22-.02 1.89-.01.48-.02.99-.02 1.5" fill="#fff"/><path d="M39.59 15.92c.05.09.15.23.16.31.04-.08.07-.11.07-.16.01-.05.06-.14.04-.19-.02-.05-.04-.09.02-.05.06.04.05.1.03.2-.03.26-.14.31-.16.49.16.37.04.5.21.86.03.02.1-.01.12-.01.09-.06.16-.04.29-.01.13.03.2.12.2.2 0 .08 0 .1.03.15.03.05.08.12.07.17-.01.05.01.09.03.11.02.03-.01.09-.02.13-.02.04-.01.08.05.16.06.08.21.41.21.61s.01.29.09.32c.08.04.11.07.1.15-.01.08.04.53.05.6.01.07.04.05.07.09.03.04.05.08.16.08s.21-.01.28 0c.1.13.15.31.18.43.02.11.02.26.06.26.04 0 .07.01.06-.13-.01-.14-.02-.16-.07-.23s-.07-.1-.05-.14c.03-.04.03-.11.02-.17-.01-.05-.03-.13.06-.03.09.11.12.13.15.17.02.04.04.11.03.17-.01.06.01.09.04.06.04-.03.08.02.06.09-.02.07.01.11.07.13.06.02.09.04.11.08.01.05.07.07.07-.02 0-.1-.04-.3-.06-.36a.821.821 0 0 1-.05-.28c-.01-.08-.02-.1-.06-.11-.04-.02-.07-.04-.07-.08-.01-.04-.04-.05-.06-.05-.02 0-.05-.02-.06-.04-.01-.03-.03-.03-.05-.03-.02 0-.07.01-.08-.03a.35.35 0 0 0-.06-.14c-.03-.04-.05-.05-.05-.17s-.01-.14-.04-.18c-.04-.04-.1-.15-.13-.2-.03-.05-.05-.1-.05 0s0 .15.06.19c.06.04.08.04.05.09-.03.05 0 .09.01.13.01.04.03.07 0 .11-.03.04-.06.03-.06-.03a.283.283 0 0 0-.04-.18c-.03-.05-.05-.08-.08-.05-.03.02-.06-.01-.04-.03.02-.02.02-.04 0-.05-.02-.02-.02-.03.01-.07.03-.03.03-.05.01-.12-.02-.08-.13-.45-.19-.53-.05-.08-.05-.15.02-.06.07.08.13.16.13.23.01.07.02.11.04.14.02.03.04.02.05-.04.01-.06.05-.04-.02-.15-.07-.11-.21-.3-.27-.63-.05-.34-.07-.56-.13-.65-.05-.09-.07-.11-.07-.19-.01-.09 0-.17-.04-.24-.04-.06-.06-.07-.07.02-.01.09 0 .31.03.34.03.04.01.13.01.19-.01.05-.09.11.08.21.07.04.06.1.05.14-.01.04-.02.03-.06-.03a.854.854 0 0 0-.11-.14c-.04-.03-.04-.05-.04-.13 0-.07.02-.13 0-.15-.02-.03-.03-.01-.04.04-.01.04-.02.16-.04.19s-.03.01-.05-.06c-.02-.07 0-.18.04-.3s.06-.25.03-.41c-.03-.16-.02-.21-.14-.34-.12-.13-.26-.26-.32-.42-.06-.16-.07-.31-.13-.38a.968.968 0 0 0-.21-.2v-.24c0-.06-.03-.09-.1-.09-.07.01-.11.07-.15.15-.04.08-.07.04-.13.18-.07.13-.16.2-.16.35" fill="#c0601c"/><path d="M39.98 17.48c.04.03.08.05.15.01.07-.03.14-.13.23-.04.08.09.13.24.13.36s0 .33.13.46c.13.12.2.25.21.41 0 .16.06.4.08.47.02.06.05.14.1.18.04.04.07.16.08.29 0 .13-.02.22 0 .28.02.06 0 .12-.05.08-.05-.03-.06-.05-.08-.1-.03-.05-.06-.04-.03.03.03.08.11.16.18.16.07 0 .09.01.13.05.04.04.05.06.12.06.07 0 .08 0 .15.02.07.02.07.01.11 0 .04-.01.07.02.1.09.03.07.09.26.09.31 0 .05 0 .11.04.16s.03.11-.02.07c-.04-.03-.04-.02-.07-.02-.03.01-.05-.01-.1-.04-.04-.03-.02-.02-.06-.09-.04-.06-.07-.08-.07-.04 0 .05-.01.11-.04.08-.03-.02-.05-.02-.07 0-.03.03-.04.05-.07 0-.03-.05-.07-.05-.1-.06-.03-.01-.03-.01-.05-.06-.02-.05-.06-.06-.11-.06s-.06-.02-.07-.05c-.01-.03-.03-.05-.05-.07-.02-.02-.01-.05-.02-.09-.01-.04-.04-.02-.06-.03-.02-.01-.04-.01-.04-.06 0-.05-.02-.07-.04-.11-.02-.04 0-.08.01-.12.01-.04 0-.07-.03-.11-.03-.04-.01-.07-.09-.15-.08-.08-.13-.01-.15-.18-.03-.18-.08-.54-.13-.6-.05-.06-.08-.1-.13-.12-.05-.02-.08 0-.08-.1-.01-.1-.04-.23-.1-.29-.06-.07-.09-.08-.12-.11s-.04-.07 0-.16.03-.21.02-.27a.656.656 0 0 1-.01-.2c.01-.06 0-.14-.01-.18-.02-.02-.04-.03-.01-.06M41.26 15.97c-.07.09-.15.17-.25.24-.1.07-.23.13-.15.25.07.12.13.13.14.23.01.09.04.17.11.19.07.02.1.01.1.16s0 .21.06.26c.06.06.06.11.08.25s.03.43.11.62c.09.2.28.57.26.65-.02.08-.05.14.03.23.09.09.14.23.15.31.01.08.02.1.11.08.08-.03.13-.06.16-.09s.08-.03.16.02c.08.04.2.08.27.04s.11-.11.17-.11c.1-.07.13-.22.16-.26.02-.04.01-.04-.04-.09-.04-.04-.02-.11-.03-.18-.01-.07-.04-.18-.12-.33-.09-.16-.14-.35-.19-.4-.06-.05-.08-.17-.09-.23-.01-.06-.07-.11-.11-.15-.04-.04-.09-.11-.14-.36-.05-.25-.08-.43-.08-.47 0-.04-.01-.05-.05-.06-.04-.02-.06-.09-.05-.12.01-.03-.01-.07-.03-.11-.01-.04 0-.12.03-.16.03-.04.02-.16-.01-.26s-.06-.18-.17-.2c-.11-.02-.13-.04-.18-.14-.04-.09-.09-.26-.1-.29-.01-.03-.04-.04-.12.03-.08.07-.11.09-.11.23 0 .09.01.11.04.16s.03.06.06.2c.02.13.14.35-.02.47-.15.12-.13.15-.13.23.01.08-.04.14-.07.02-.03-.12 0-.19.09-.25.08-.06.16-.13.11-.21-.06-.08-.08-.26-.09-.35-.01-.09-.02-.11-.07-.05" fill="#c0601c"/><path d="M39.99 17.78c-.01.06.01.12.01.17 0 .06.02.18-.02.27-.04.09-.03.14 0 .16h.01c.09-.03.1-.13.07-.17a.181.181 0 0 1 .01-.16c.03-.05.03-.08 0-.11s-.03-.03 0-.14c.04-.08-.02-.08-.08-.02M40.9 19.15c-.02-.06-.08-.31-.08-.47a.589.589 0 0 0-.21-.41c-.1-.1-.13-.25-.13-.37-.08-.05-.11-.03-.1.06.01.1.1.14.09.28-.01.14-.01.1.05.17.07.07.09.13.06.16-.04.03-.04.08.01.09.05.02.05.07.04.12-.01.05.04.06.07.1.03.03.03.12.01.17-.03.05-.03.13.02.09.05-.04.07-.01.11.06.03.06.06.04.1.02-.02-.01-.03-.04-.04-.07M41.59 20.39c-.03.06-.07.04-.1.01s-.07-.03-.05-.09c.02-.06.01-.07-.03-.1l-.01-.01h-.05c-.08 0-.08-.02-.12-.06-.01-.01-.02-.02-.03-.02v.04c0 .06 0 .05-.06.06-.06.02-.05-.06-.06-.11 0-.01-.01-.02-.01-.03-.07-.01-.14-.08-.16-.15-.03-.08.01-.09.03-.04.03.05.04.07.08.1.05.03.06-.02.05-.08-.01-.02-.01-.04-.01-.07a.12.12 0 0 0-.05-.05c-.09-.04-.06-.05-.05-.12.01-.07-.01-.07-.07-.03-.05.04-.06-.01-.06-.11 0-.11-.07-.11-.09-.03-.02.07-.04.03-.07-.08-.03-.1-.08-.13-.08-.03 0 .09-.03.11-.09.06.01.06.02.12.03.17.03.17.07.11.15.18.08.08.06.11.09.15.03.04.04.06.03.11-.01.04-.03.08-.01.11.01.04.04.05.04.11 0 .05.02.05.04.06.01.01.03 0 .04.01.01-.02.03-.04.04-.06.06-.07.16.01.19.08.03.08.07.1.12.04.05-.07.03-.05.08 0 .05.06.07.05.07.05s.05-.02.09.01c.04.03.06.03.13-.08.09-.1-.01-.06-.04 0M41.78 17.47c.02-.16.01-.31.07-.37.07-.06.14-.17.14.07-.01.24-.01.23-.06.28-.05.05-.09.07-.04.16.05.09.06.1.05.24-.01.14-.01.2.05.27.06.07.07.08.09.16.01.08.06.19.13.24.06.06.13.22.14.33.01.11.11.14.2.22.09.08-.02.14-.09.1-.07-.04-.04 0-.09.05-.04.05-.06.06-.09-.03s-.15-.14-.21-.16c-.06-.02-.11-.11-.16-.21-.04-.08-.13-.14-.2-.14.02.06.03.1.03.13-.02.08-.05.14.03.23.09.09.14.23.15.3.01.08.02.1.11.08.08-.03.13-.06.16-.09.03-.04.08-.03.16.02.08.04.2.08.27.04s.11-.11.17-.11c.1-.07.13-.22.16-.26.02-.04.01-.04-.04-.09-.04-.04-.02-.11-.03-.18-.01-.07-.04-.18-.12-.33-.09-.16-.14-.35-.19-.4-.06-.05-.08-.17-.09-.23-.01-.06-.07-.11-.11-.15-.04-.04-.09-.11-.14-.36-.04-.19-.07-.34-.08-.42-.05.08-.09.1-.1.05-.02-.06-.05-.1-.08-.06-.03.04-.04-.04-.04-.07 0-.04-.01-.04-.04-.04s-.01-.05-.02-.16c-.01-.1-.04-.12-.05.01-.01.13-.08.21-.06.23.03.03.01.09-.01.17-.03.08-.01.14.01.19.02.06-.01.16-.03.25-.04.1.03.2.05.04M40.49 16.2c-.05 0-.09.05-.06.21.02.1-.06.08-.08.03-.03-.05-.05-.16-.11-.25s-.03.06-.04.15c-.01.09.05.09.1.16s.01.1-.05.1c-.06 0-.03.11-.01.19.01.08-.01.09-.06.03-.04-.06-.01-.16-.01-.28.01-.12.01-.09-.07-.12s-.06-.04-.04-.11c.03-.07.06-.11.02-.14-.04-.04-.03-.06.03-.06.06-.01.04-.05.08-.07.05-.01.07.01.08-.08.01-.08.03-.13.09-.1.05.1.1.28.13.34M41.2 17.03c0 .15 0 .21.06.26.06.06.06.11.08.25.03.14.03.43.11.62.03.06.06.13.1.21.05-.04.09-.1.1-.13.02-.05-.04-.15-.09-.23-.05-.09.01-.11.06-.22.05-.11-.01-.11-.08-.14-.08-.03-.08-.1-.12-.21a.309.309 0 0 1-.01-.23c.03-.06.01-.11-.05-.13-.06-.01-.04-.06-.02-.13s.04-.09-.05-.07c-.07.02-.08.03-.1.05.01.03.01.06.01.1" fill="#4bb917"/><path d="M42.02 17.33c-.01.09-.01.13-.03.16-.02.03-.01.07.01.11.02.04.04.1.02.18-.02.08.01.14.06.16.04.02.06 0 .05.1-.01.1.04.2.09.25.05.04.09.11.08.16-.01.04.04.09.08.11.05.02.04.03.04.06s.02.03.08.04c.06.02.1.05.16.13s.16.12.14.04c-.01-.09 0-.14-.09-.18-.08-.04-.15-.25-.18-.39-.04-.14-.15-.33-.21-.37-.01-.1.01-.15-.06-.2-.06-.05-.08-.11-.08-.16s-.04-.11-.06-.13c-.03-.01-.04-.05-.04-.09-.01-.06-.06-.06-.06.02" fill="#58340c"/><path d="M41.64 21.13c.13-.01.47-.11.51-.14.09.06.23.14.3.14-.12.03-.2.01-.24-.01.02.04.06.1.09.1-.12 0-.25-.03-.29-.07-.1.04-.27.05-.37-.02M41.87 21.29c.04.01.27.05.3.05-.08.06-.01.13.11.11-.06.01-.13.03-.08.04.11.02.4-.06.46-.09-.1.14-.59.26-.79-.11M42.07 21.62c.06-.03.21-.02.28.01-.07.03-.23.03-.28-.01" fill="#59da62"/><path d="M42.3 21.61c.11-.02.42.06.52-.01-.04.1-.23.11-.3.09-.07-.02-.13-.05-.18-.04.04-.02 0-.02-.04-.04"/><path d="M42.41 21.76c.08.01.38-.02.47-.06.09.03.28.08.33.08-.09.05-.26.02-.32 0-.16.06-.29.07-.48-.02" fill="#59da62"/><path d="M42.55 21.81c.12.03.22.01.33-.03.04.01.12.03.2.03.05.03.13.07.19.08-.07.03-.33 0-.39-.03-.13 0-.36.03-.42.08.01-.04.04-.09.09-.13" fill="#59da62"/><path d="M42.41 21.21c.09.03.42.02.59-.06.07-.03.11.02.03.05-.28.1-.49.13-.65.05-.06-.04-.07-.07.03-.04"/><path d="M44.04 20.76c-.41.19-.68.25-1.25.07-.05-.02-.09 0-.03.04s.37.12.45.13c.07 0 .05.04 0 .05-.05.01-.06.04 0 .02.06-.03.4-.03.54.04.06.03.08.03.07 0-.01-.02.03-.04.07-.04.04 0 .07-.02.04-.03-.04-.01-.04-.02-.01-.04.03-.01.03-.03-.01-.03-.04-.01-.07-.02-.03-.04.04-.02.09-.03.14-.04.01-.02-.01-.1.02-.13" fill="#59da62"/><path d="M43.36 20.81c.23.02.67-.09.89-.31.08.05.19.1.25.11.06.01.11.06.02.06s-.22-.04-.28-.06c-.3.19-.66.25-.88.23-.06-.01-.07-.04 0-.03"/><path d="M42.67 19.53c.08.06.22.15.4.14.09.07.23.13.29.14-.12.05-.26.09-.29.14-.06-.05-.13-.05-.15-.07-.05.04-.04.07-.01.09.04.02.3.07.37.05.07-.02.08.04.03.05-.14.05-.42 0-.52-.15-.1-.15-.18-.21-.44-.07-.03-.07-.03-.09-.08-.09s-.14-.07-.07-.07c.09 0 .3-.03.47-.16" fill="#59da62"/><path d="M42.73 19.88c-.04.01-.17.08-.21.09-.05 0-.13.07-.04.07.08 0 .19-.09.25-.09.05-.02.06-.09 0-.07M42.99 20.14c-.03.01-.17.04-.2.04-.04 0-.08.01-.07.03 0 .03.01.04-.04.04-.06-.01-.1.02-.12.03-.01.02-.02.03.03.04a.2.2 0 0 0 .15-.02c.06-.03.13-.07.19-.08.07 0 .14-.09.06-.08" fill="#59da62"/><path d="M42.8 20.31c.06.04.35.14.45.13.1-.01.08.04.01.06-.16.03-.36-.04-.49-.14-.08-.06-.01-.08.03-.05"/><path d="M44.16 20.45a.97.97 0 0 1-.53.02c-.09-.02-.17-.03-.11.03.06.06.26.1.37.07-.4.09-.5.08-.6.07-.1-.02-.28-.01-.36-.01-.06.01-.14 0-.17-.02s-.05-.06.06-.05c.1.01.12-.01.03-.02s-.22.02-.09.1c.12.08.39-.01.56.04.17.05.53.08.88-.19 0-.02.03-.06-.04-.04M43.08 20.13c.01.03.01.06 0 .07-.01.02-.01.04.03.02.04-.03.06-.06.09-.04.03.02.12.02.16.01.04 0 .05-.01 0-.04a.556.556 0 0 0-.15-.03c-.03 0-.07-.01-.1-.02s-.03 0-.03.03" fill="#59da62"/><path d="M43.65 20.23c-.05 0-.13-.03-.17-.04-.04-.02-.1-.02-.06.04.04.06.24.1.31.07s.04-.06.11-.02c.07.04.14.07.19.07.05 0 .07 0 .01-.03-.05-.03-.08-.04-.09-.07-.01-.03-.01-.04.04-.03.05.02.11.04.15.03.04-.02.12-.07.18-.07l.02-.04c-.1-.01-.16.02-.18.03-.03.01-.08.02-.13.01s-.12-.01-.13-.03c-.02-.01-.02-.02.03-.03.04-.01.06-.04 0-.03-.06.01-.21 0-.3-.02-.08-.03-.12-.03-.15-.02-.04.01-.03.05.02.05s.16.01.2.05c.04.04.03.04-.01.02-.04-.01-.13 0-.04.06" fill="#59da62"/><path d="M44.34 20.13l-.02.04c.1 0 .34.02.42.07.07-.06.06-.08.11-.07.05.01.12.03.15.01.03-.02.05-.01.08-.01s.1-.01.14-.03c.04-.02.12-.06.17-.06.05 0 .11-.01.02-.02a.638.638 0 0 0-.26.03c-.05.02-.18.03-.26.03-.08 0-.19.04-.28.02-.09-.02-.21-.01-.27-.01" fill="#59da62"/><path d="M45.57 20.09c-.16.12-.35.15-.58.16-.07 0-.05.02.01.03.24.02.52-.06.61-.16.03-.03.03-.08-.04-.03"/><path d="M44.49 20.36c.07 0 .31.06.39.09.06-.01.08-.02.06-.04-.01-.02-.02-.04.09-.04.11.01.35 0 .4 0 .04-.02.12-.08.16-.08-.1.01-.49.03-.55.02-.05-.01-.08 0-.11.02s-.05.03-.09.01c-.04-.02-.11-.04-.15-.01-.05.02-.13 0-.2.03" fill="#59da62"/><path d="M45.42 20.37c.04-.02.12-.08.16-.08.07-.01.15.02.19.03.04 0 .07 0 .05-.03-.03-.03 0-.08.11-.07.11.01.16.03.27.02.11-.01.15.07.35-.01-.01.08.02.09.06.07.04-.02.08-.01.14.04.07.05.45.05.54.04.09-.02.14.03.07.05-.07.02-.08.05-.07.07.02.02.03.05-.05.04-.09-.01-.1.02-.14.05-.04.03-.05.04-.17.02-.12-.02-.14-.01-.2.01-.06.01-.08.01-.14-.01a.676.676 0 0 0-.29-.02c-.09.03-.15.05-.22.03-.08-.02-.08-.01-.03-.06.05-.05.06-.04.15-.05.09-.01.16-.03.09-.07-.06-.04-.08-.03-.17.01-.08.04-.13.07-.22.02-.1-.05-.14-.04-.21-.03-.07.01-.18-.03-.27-.07M45.74 20.53c-.12.02-.15-.06-.28-.04-.04 0-.12.06-.02.05.1-.01.2.05.3.04.1-.02.06-.06 0-.05M45.6 20.62c.06-.02.2.02.25.01.05-.01.11.02.05.04s-.2-.03-.26-.02c-.07.03-.13.01-.04-.03M44.33 20.97c.09 0 .4-.01.53-.28.01-.02.02-.03.06 0 .04.03.18.12.46.14.08.01.16.05.01.04-.16-.01-.4-.05-.48-.1-.15.2-.4.23-.58.23-.11-.01-.09-.04 0-.03" fill="#59da62"/><path d="M45.01 20.61c-.04.06-.19.16-.26.16-.07.01-.27-.01-.32-.03-.05-.02-.11-.01-.04.04s.25.09.32.07c.07-.02.15-.04.21 0 .06.03.16.1.22.09.06-.01.18-.01.23 0 .04.02.11.07.01.04-.1-.03-.19-.01-.24-.03.05.08.17.2.28.2.02 0 .04.04-.01.07.05.02.17.04.23-.01-.02.02-.01.03.02.05.03.01.06.03.01.04-.05 0-.16.02-.19 0 .1.07.37.17.65.12.05-.01.08-.03-.01-.03-.18 0-.19 0-.22-.02s-.03-.03.02-.05c.05-.02.18-.03.23-.03.05 0 .11-.02 0-.02s-.24 0-.3-.02c-.05-.02-.09-.04-.04-.08.06-.04.11-.03.14-.06-.18 0-.39-.1-.27-.18.03-.02.02-.02-.03-.03-.04-.01-.18-.04-.23-.07-.06-.03-.02-.06.03-.07-.09 0-.3-.05-.44-.15M46.57 20.6c-.1.07-.28.1-.35.1s-.09.02-.03.03c.06.01.13.02.15.01.03-.01.04-.01.08.01s.12.03.2.01c.07-.02.2-.03.25-.03.05 0 .11.01.01-.02a.792.792 0 0 0-.31 0c-.04.01-.15 0-.09-.02s.11-.05.14-.07c-.02-.01-.03-.01-.05-.02M46.52 20.81c-.08.06-.2.12-.32.13.11.04.2.15.28.15a.45.45 0 0 1-.12.06c.07.02.19 0 .28-.05.16.04.37.02.44-.04a.62.62 0 0 1-.29-.08c.05 0 .1-.03.12-.06-.12 0-.33-.06-.39-.11" fill="#59da62"/><path d="M46.35 21.14c.05 0 .09-.04.12-.06-.09.03-.47-.03-.58-.13-.12-.1-.12-.02-.03.05.07.07.21.18.49.14M46.63 21.38c-.05.03-.28.04-.35.03-.07-.02-.11-.01-.09.02.02.03.03.06-.04.05-.06-.01-.17 0-.21.02-.04.02-.1.05-.01.04.09-.02.18-.03.26-.02.07.02.33.02.38 0 .05-.02.02-.02-.01-.02-.02 0-.04-.02 0-.03.04-.01.06-.06.07-.09M44.42 21.08c-.1.04-.42.13-.5.13-.11.05-.19.07-.24.07.04.03.18.06.24.05-.03.03-.11.07-.13.09.09-.01.19.01.23.02a.61.61 0 0 1-.35.08c.03.04.06.07.11.07-.1.03-.22.03-.29.01.03.05.05.09.09.09-.08.01-.19.02-.28-.03.07.09.22.12.45.1.23-.03.42-.13.47-.17-.1.01-.22.02-.29 0 .13-.03.4-.15.45-.2-.05 0-.11-.01-.14-.04.07.01.34-.02.42-.05a.285.285 0 0 1-.18-.12c.33.11.71.07.89.03.04-.01.05-.06-.04-.06-.15.01-.44-.03-.51-.07.07.05.16.09.21.1-.14.02-.33.05-.61-.1" fill="#59da62"/><path d="M43.78 21.42c.03-.02.1-.05.13-.09-.06.02-.2-.02-.24-.05.05 0 .14-.03.24-.07-.19-.01-.32-.01-.39-.04-.07-.04-.2-.03-.24-.02-.05.01-.03.09.17.07-.09.06-.32.08-.4.06.02.07.04.14.02.18.11.07.4.14.55.13-.13-.05-.2-.1-.09-.11.1-.02.16-.04.25-.06" fill="#59da62"/><path d="M43.45 21.76c.25-.02.59-.02.86-.26.07-.06.12-.04.05.02-.14.13-.5.3-.84.31-.13.01-.19-.06-.07-.07"/><path d="M45.36 21.34c-.07.02-.24.05-.3.05-.05-.01-.13-.01-.17.02-.04.03-.04.04.01.05.06 0 .13.01.17.01-.05.03-.08.06-.09.08.08-.02.24.02.29.04-.03.01-.07 0-.1-.02.14.15.57.15.64.13-.03.02-.06.05-.09.06.12.02.26.02.39-.06-.04.01-.18 0-.21-.01.03-.03.07-.05.1-.06-.05-.01-.22-.01-.26.02.02-.03.05-.07.08-.09-.21 0-.46 0-.56-.05.15.02.31-.07.38-.07-.12-.02-.25-.05-.28-.1M44.82 21.46c-.1.02-.26.06-.3.09-.04.02-.09.04.01.04.09 0 .35.01.4.02-.14-.02-.33-.03-.37-.03-.04 0-.08 0-.01-.02.07-.03.16-.08.27-.1M44.62 21.7c.04 0 .2 0 .26-.05.07.05.19.12.28.12.08 0 .07.02 0 .03s-.21-.03-.28-.09c-.1.04-.18.01-.26-.01M43.38 22.42c.16.06.38.11.54.06.09.08.28.09.38.06.1-.02.19-.03.3.01.11.04.34.04.4.09-.06 0-.18 0-.21.01s-.01.03.04.05c-.18-.01-.49.07-.59.15.03-.08.14-.19.31-.19-.1-.03-.4-.04-.5.02a.338.338 0 0 1-.07-.11c-.15.1-.47-.03-.6-.15M42.96 22.12c.2-.03.33-.09.39-.15.04.03.18.06.34.01-.03.02-.04.07-.02.09-.1 0-.3.05-.37.09-.07.03-.26.06-.32.02-.07-.02-.07-.05-.02-.06" fill="#59da62"/><path d="M43.66 22.08c-.1 0-.3.05-.37.09.01.03.02.07.02.1.19-.07.63-.11.8-.08-.08 0-.23.08-.32.1.21-.02.41.03.46.04.05.01.06.05.02.09-.04.04-.06.04.03.05.09 0 .26-.01.34-.08-.03-.03-.11-.02-.14-.04.06-.02.12-.06.14-.09-.14 0-.2-.01-.24-.01-.05-.01-.08-.03-.02-.06s.08-.06.1-.08c-.1.03-.27.05-.4-.05.05.01.17.01.21-.01-.05-.02-.08-.04-.12-.04.11-.05.33-.1.59 0 .13-.01.28 0 .38.02.04-.04.13-.14.18-.17-.31.03-.88-.03-.87-.2-.1.13-.33.21-.44.18-.01.05.03.11.07.14-.08 0-.27.02-.35 0 .05.05.14.09.19.09-.11 0-.17.02-.26.01" fill="#59da62"/><path d="M44.31 22.46c.09 0 .26-.01.34-.08-.03-.03-.11-.02-.14-.04.06-.02.12-.06.14-.09.22-.02.42-.01.52-.04.1-.03.34-.01.39-.03-.21.03-.26.05-.27.09-.01.04.07.06.12.06-.1-.01-.21.1-.23.14-.13-.07-.19.01-.2.04-.05-.02-.23-.02-.32.06-.12-.03-.19-.05-.31-.03.08-.02.07-.07-.04-.08M45.33 21.84c.07 0 .23.01.28 0-.04.02-.09.05-.1.07.18-.02.43-.04.5-.02a.34.34 0 0 0-.22.07c-.05.03-.02.05.04.06.06.01.14.06.03.04-.11-.02-.33-.02-.38-.01-.05.01-.08-.02-.01-.03.08-.01.13-.04.17-.06-.06.02-.19.02-.22.01-.04-.01-.06-.03-.02-.04.04-.01.01-.03-.03-.02-.05.01-.16.05-.22.11.07-.09.13-.15.18-.18" fill="#59da62"/><path d="M44.52 21.95c.09.1.19.15.36.16.04 0 .1.05.01.05-.22.01-.33-.05-.43-.19-.02-.02.02-.06.06-.02M45.86 20.1c.12.06.35.1.54.1.03 0 .1.03.02.04a.933.933 0 0 1-.57-.11c-.06-.03-.04-.05.01-.03"/><path d="M45.97 20.09c.18 0 .32 0 .37.05.11-.03.29-.05.33-.04.04.01.09-.01-.01-.03-.1-.02-.33-.03-.4-.02-.07.01-.3.02-.37.01.05.01.07.01.08.03M46.68 20.17c.08-.04.33 0 .4-.03-.05.06.17.07.36.02-.08.05-.23.06-.3.08-.07.03-.11.01-.16-.02a.524.524 0 0 0-.3-.05" fill="#59da62"/><path d="M47.45 20.15c-.19.05-.42.05-.36-.02-.08.03-.32-.01-.41.04.09-.05.15-.01.22-.12.04.01.13.01.17-.03.06.01.16.04.18.07.03.03.08-.01.04-.05.09-.03.03.04.24-.01.04-.01.15-.03.18-.03-.08.04-.16.1-.26.15" fill="#59da62"/><path d="M43.67 19.26c0-.4-.04-3.77-.04-4.55 0-.18-.1-.15-.1 0v4.53c.05.01.11.01.14.02" fill="#fcff2c"/><path d="M43.68 19.27h-.02v-.01l-.05.01-.1-.02-.01-4.54c0-.16.12-.18.12 0 0 .55.02 2.38.03 3.55l.03 1.01zm-.1-4.67c-.02 0-.04.04-.04.11v4.53l.11.02-.01-.99c-.01-1.18-.03-3.01-.03-3.55.01-.09-.01-.12-.03-.12"/><path fill="#fcff2c" d="M45.15 14.47l.17 4.8-.03.03-.1.01-.1-4.84z"/><path d="M45.18 19.32v-.01l-.11-4.86h.08l.18 4.82-.04.01-.15-4.81.06 4.82h.06z"/><path d="M46.55 18.52a1323 1323 0 0 0-.1-3.87c0-.15-.09-.12-.09.01.01.9.06 3.41.07 3.86h.12" fill="#fcff2c"/><path d="M46.48 18.54l-.05-.01c-.01-.46-.06-2.97-.07-3.86 0-.05.01-.09.03-.11.05-.01.08.02.08.1.02.85.06 2.38.08 3.27l.02.6-.09.01zm-.07-3.98c-.02.02-.04.05-.04.09.01.9.06 3.4.07 3.86l.04-.01.03-.59c-.02-.89-.06-2.41-.08-3.27.01-.05-.01-.08-.02-.08"/><path d="M44.34 15.26l-1.42-.02c-.08.29.28.28.41.21.15.12.27.11.36.01.12.1.28.07.34.01.17.13.34 0 .31-.21" fill="#fff"/><path d="M43.53 15.55c-.06 0-.14-.03-.21-.09-.08.07-.32.06-.39-.04-.04-.04-.04-.11-.02-.18l1.43.01c.03.09.01.17-.03.22-.07.08-.19.09-.28.01-.04.06-.18.13-.34-.01-.04.05-.09.08-.16.08m-.2-.11c.16.11.26.11.35.01.19.12.28.07.34.01.12.06.21.06.27-.01.04-.04.05-.11.04-.19l-1.4-.01c-.01.06 0 .11.03.15.1.15.28.08.37.04"/><path d="M44.44 15.98L43 15.97c-.25.24.07.36.35.19.04.08.21.13.34.06.12.1.28.03.36-.05.14.07.32.09.39-.19" fill="#fff"/><path d="M43.82 16.28c-.05 0-.1-.01-.14-.05-.09.07-.3.02-.35-.07-.14.12-.39.1-.43 0-.02-.04-.01-.1.09-.2h1.46c-.03.18-.12.27-.23.27-.05 0-.11-.02-.17-.05a.35.35 0 0 1-.23.1m-.14-.07c.14.09.28.02.35-.05.25.09.34.03.4-.19l-1.43.01c-.06.06-.09.13-.07.17.03.09.25.09.42 0 .05.08.22.12.33.06"/><path d="M44.4 16.88l-1.39-.01c-.03.25.26.22.37.15.11.17.34.13.43.03.13.09.26.07.32-.02.15.14.28-.03.27-.15" fill="#fff"/><path d="M43.59 17.15c-.1 0-.18-.04-.23-.12-.07.07-.26.07-.33-.01a.191.191 0 0 1-.04-.15h1.41c.02.07-.01.13-.05.18-.03.04-.07.05-.11.05-.04 0-.08-.02-.12-.05-.04.09-.2.1-.32.02-.04.05-.12.08-.21.08m-.22-.14c.08.1.17.11.22.11.08 0 .16-.03.2-.08.15.07.25.07.32-.02.05.03.09.04.12.04.04 0 .07-.02.09-.05.04-.04.06-.1.05-.15h-1.38c.01.05.02.09.05.12.1.13.25.08.33.03"/><path d="M44.47 17.79l-1.56-.03c-.09.27.15.31.27.25.04.15.24.1.3-.01.08.08.18.04.23-.02.02.15.2.15.34.03.27.2.54-.03.42-.22" fill="#fff"/><path d="M43.3 18.12c-.07 0-.12-.04-.13-.11-.03.07-.2.04-.25-.04-.03-.04-.05-.11-.01-.22l1.57.02c.05.07.06.14.02.2-.04.07-.13.12-.23.12-.07 0-.15-.03-.23-.08-.11.12-.32.11-.34-.04-.01.06-.15.1-.23.02-.01.08-.1.13-.17.13m-.13-.12c.04.08.09.09.13.09.07 0 .14-.04.17-.1.12.06.19.03.23-.02.06.13.21.14.34.02.08.05.16.07.23.07.09 0 .17-.04.21-.11.03-.05.03-.11-.01-.17l-1.55-.02c-.01.08-.01.14.02.19.04.07.16.09.23.05"/><path d="M45.85 17.41l-1.3-.01c.06.27.19.33.39.18.15.16.41.1.47.02.29.23.45-.03.44-.19" fill="#fff"/><path d="M45.63 17.7c-.07 0-.14-.03-.21-.09-.04.1-.35.11-.48-.02-.16.16-.33.09-.4-.18h1.31c.02.08-.01.17-.07.24-.05.03-.1.05-.15.05m-.22-.1c.09.06.15.08.21.08.05 0 .1-.02.13-.06a.31.31 0 0 0 .08-.21h-1.29c.08.24.19.3.39.16.17.13.42.1.48.03"/><path d="M45.72 16.52l-1.26-.04c.02.32.32.31.48.17.12.15.32.11.4 0 .16.17.42.07.38-.13" fill="#fff"/><path d="M45.14 16.77c-.08 0-.15-.03-.21-.1-.05.06-.14.1-.23.1-.15 0-.24-.1-.26-.28l1.27.03c.03.07.01.12-.02.16-.08.1-.26.1-.37-.01-.01.06-.1.1-.18.1m-.21-.12c.13.13.32.11.4 0 .13.09.28.09.35.01.03-.03.04-.08.03-.13l-1.24-.03c.03.21.18.24.24.24.08 0 .16-.04.22-.09"/><path d="M45.88 15.52h-1.35c.02.23.31.35.54.14.06.26.31.17.42.07.15.2.51-.02.39-.21" fill="#fff"/><path d="M45.26 15.85c-.1 0-.17-.06-.2-.18-.08.1-.18.12-.24.12-.16 0-.29-.11-.3-.26l1.36-.01c.04.06.05.12.02.17-.05.08-.15.14-.25.14-.07 0-.13-.03-.17-.08-.03.04-.12.1-.22.1m-.19-.2c.09.22.31.17.41.08.06.06.13.07.17.07.09 0 .18-.05.23-.13.02-.03.03-.08 0-.14l-1.34.01c.02.12.14.22.29.22.05 0 .14-.02.24-.11"/><path d="M45.8 14.84l-1.21.02c-.02.2.27.28.37.12.06.1.26.09.32-.01.1.15.21.05.25 0 .14.11.29.06.27-.13" fill="#fff"/><path d="M44.81 15.08c-.07 0-.13-.03-.18-.07-.04-.04-.05-.09-.05-.15l1.22-.03c.02.08.01.13-.02.17-.02.03-.06.04-.1.04-.05 0-.1-.02-.15-.05-.02.07-.17.12-.25 0-.02.1-.26.1-.32.01-.02.04-.08.08-.15.08m.98-.23l-1.19.03c.01.04.02.08.05.12.08.09.24.08.31-.01.09.09.27.08.32-.01.12.11.2.06.25 0 .06.03.11.05.15.05.03 0 .06-.01.08-.04.03-.04.04-.09.03-.14"/><path d="M47.22 15.29l-1.48-.02c-.01.16.15.22.25.16 0 .15.21.2.34.08.09.13.36.17.46-.01.22.17.45.05.43-.21" fill="#fff"/><path d="M46.57 15.63c-.1 0-.2-.04-.25-.11-.08.12-.34.06-.34-.09-.02.07-.14.04-.2-.02-.04-.04-.05-.08-.05-.14l1.49.01c.02.1 0 .19-.05.24-.09.1-.25.09-.38-.01-.04.07-.12.12-.22.12m-.25-.14c.13.13.37.14.46-.01.16.1.29.1.37.01.05-.05.07-.13.06-.21l-1.47-.01c.01.03.02.08.06.11.05.05.13.06.19.02.03.19.23.18.33.09"/><path d="M47.2 16.5l-1.45-.01c.01.2.24.27.38.16.03.17.21.18.32.1.13.14.34.15.46 0 .17.06.3-.09.29-.25" fill="#fff"/><path d="M46.68 16.88c-.09 0-.18-.04-.24-.12-.06.09-.28.1-.32-.1-.07.13-.37.06-.38-.17l1.46-.01c.02.09 0 .17-.05.22-.04.05-.1.07-.16.07-.03 0-.06-.01-.09-.01a.26.26 0 0 1-.22.12m-.24-.14c.16.14.35.14.46 0 .04 0 .07.01.09.01.05 0 .1-.02.14-.07.04-.05.07-.11.06-.18h-1.43c.03.18.26.23.37.14.05.16.2.19.31.1"/><path d="M47.12 17.59l-1.14-.02c0 .2.24.23.35.12.11.13.28.13.38.03.14.13.38.1.41-.13" fill="#fff"/><path d="M46.9 17.81c-.07 0-.14-.03-.2-.08-.06.11-.27.1-.38-.03-.06.11-.35.09-.35-.13h1.16c-.02.18-.13.24-.23.24m-.21-.1c.07.05.14.07.2.07.09 0 .19-.05.21-.2h-1.13c.02.19.25.19.34.1.14.12.29.13.38.03M45.29 19.3c-.62.01-1.25.01-1.67-.05-.42-.06-.56-.12-.85-.3-.43-.26-.54-.33-1.16-.69-.09-.05-.2.01-.06.1.62.41.86.56 1.15.76.31.2.51.38.7.59.24.28.43.28.54.24.11-.04.29-.1.46-.06.18.04.41.05.53.03.11.1.37.08.51.05s.25-.05.35-.03c.1.02.25 0 .35-.01.1-.02.37-.04.55-.02.19.03.38.01.5-.03s.35-.03.42 0c.11-.08.16-.18.18-.29.13-.02.17-.03.2-.1.05-.13.1-.26.11-.32h.05l.01-.12-.1-.12.04-.23.11-.03a.65.65 0 0 0-.05-.22c-.67.03-1.33.05-1.8.06-.05.04-.11.15-.12.22-.29.05-.46.07-.53.09-.07.02-.12.02-.17.1-.09.14-.18.29-.25.38"/><path d="M45.2 20.01c-.09 0-.21-.01-.28-.08-.1.03-.37.02-.53-.02-.15-.04-.34.01-.45.06-.17.06-.36-.02-.55-.24-.21-.23-.4-.4-.69-.59l-1.15-.76c-.07-.05-.07-.08-.07-.1v-.01l.07-.03c.02 0 .05.01.07.02.62.36.72.43 1.16.69.29.17.42.23.85.29.27.04.63.06 1.14.06h.53c.03-.04.07-.1.11-.17.04-.07.09-.14.14-.2.06-.08.11-.09.17-.1.05-.01.11-.02.2-.03l.34-.05c0-.06.06-.17.12-.22.48-.01 1.13-.04 1.8-.06.04.05.07.16.06.23l-.12.04-.03.22.1.11-.01.13c-.07.06-.11.19-.17.32-.03.08-.08.1-.21.11a.41.41 0 0 1-.18.28 1.18 1.18 0 0 0-.42.01c-.13.04-.32.05-.5.03-.18-.03-.45 0-.55.02-.11.02-.27.03-.36.01-.1-.02-.2-.01-.35.03h-.24m-.28-.1c.14.12.35.08.51.05.15-.03.26-.05.36-.03.09.02.25.01.35-.01.1-.02.37-.04.56-.02.18.02.37.01.49-.03.1-.03.34-.03.43-.01.08-.07.14-.16.17-.28.14-.03.17-.04.2-.11.05-.13.1-.26.11-.32l.07-.12-.1-.11.04-.24.12-.04c-.01-.05-.03-.16-.06-.2-.66.03-1.32.05-1.78.06-.05.04-.1.15-.11.21l-.35.06c-.09.01-.15.02-.19.03-.08.02-.11.02-.17.09-.05.07-.1.14-.14.2-.04.06-.08.13-.12.17-.74.03-1.33 0-1.68-.05-.43-.07-.57-.13-.85-.3-.44-.26-.54-.32-1.16-.69h-.11c0 .02.01.04.06.08l1.15.75c.29.19.49.36.7.6.19.21.37.3.52.24.12-.05.31-.1.47-.06.14.1.38.11.51.08"/><path d="M47.44 18.49c.03-.11.12-.42.28-.99.03-.1-.07-.13-.1-.01-.19.67-.26.92-.28 1 .03.01.08 0 .1 0"/><path d="M47.44 18.51l-.1-.01.05-.01.05.01.01-.07c.04-.15.12-.44.26-.92l.01-.07h-.03c-.01 0-.04.02-.05.07l-.29 1v-.01.01h-.01l.28-1.01c.02-.05.04-.09.08-.09.05.04.06.07.05.1-.13.48-.22.78-.26.92l-.05.08z"/><path d="M48.48 17.37c-.23.12-.34.16-.44.12-.1-.04-.24-.06-.32-.02v.03c-.1.35-.17.6-.21.77.17.06.46.07.52-.01.07-.07.26-.06.35-.05.06-.08.09-.18.07-.23-.02-.05-.01-.13.01-.2.02-.06.06-.27.02-.41" fill="#fff"/><path d="M44.41 19.31l.02-.07h-.17l.02.05-.04-.05-.03.06.02-.06h-.11l.02.05-.02-.05h-.07l-.03.05.02-.05h-.01l.01-.01H44l.01.05-.01-.05-.11.01.01.03-.01-.03h.01l-.16-.73-.12-.48.02-.01.04.06-.02-.07.02-.01.02.08h.04l-.01-.02.02-.01.01.03h.07l-.06.01.02.06h.05l-.02-.05.02-.01.33.92.67-1.38.02.01-.03.06h.02l.04-.09.02.01-.03.08h.03l.03-.1.03.01-.03.09.02-.01.01-.06.03.01-.43 1.69.17-.7h-.1l-.03.1.1-.01v.02h-.11l-.03.09.11-.01v.02h-.12l-.04.11.11-.01v.02h-.12l-.03.1.13-.01v.03h-.14l-.04.13.14-.01v.03h-.15l-.01.08zm-.28-.08l.12-.02-.05-.12-.06.01h.06v.02h-.07l-.02.04.02.07.11-.01-.11.01zm-.59.01h-.02v-.08h-.12l-.01.06.01-.06-.12.03.01-.03h-.14.04l.02-.11h-.11l-.02.07.02-.07h-.01.01l.02-.11h-.02.01l.02-.11.02-.11.14-.62.02.01v.02l.05-.04h.02l-.01.03h.03l.01-.07h.02l-.01.06.05-.01.01-.08h.02l-.01.08h.01v-.07.07h.01l-.01.07h.01l-.01.09h.01l.03.98zm-.83-.33c.01-.08.02-.17.04-.27-.07.07-.14.14-.2.19l.2-.23c.03-.21.06-.46.1-.7-.3.29-.57.53-.75.67l-.01-.02c.18-.14.46-.39.77-.69.05-.36.11-.72.14-.99h.02c-.03.26-.08.61-.14.96.35-.34.73-.74 1.03-1.1-.13-.07-.24-.15-.27-.2l.02-.01c.03.04.14.12.27.19.24-.29.43-.56.51-.75-.07.19-.25.46-.49.75.14.08.29.14.38.14-.09.01-.25-.05-.39-.12-.3.37-.69.78-1.05 1.13-.04.25-.08.5-.11.71.06-.07.12-.14.18-.2.1-.11.2-.22.29-.3l.02.02c-.08.08-.18.19-.28.3-.07.08-.14.15-.21.23-.04.11-.06.21-.07.29m3.15-.1l.01-.04-.04-.09h.01l-.05-.14h.01l-.05-.14h.01l-.05-.13-.05-.14-.16-.47.02-.01.02.07h.03l-.01-.03.02-.01.02.04h.03l-.01-.02.02-.01.01.03.05-.01-.02-.03.02.03h.02l-.01.03.07.11h.02v.02l.07.11h.01V18l.07.12h.01v.01l.07.11.15-.49.09.01.01-.05.02.01-.02.05.05-.01v.01h.05l-.05.01-.03.13h.07l.02-.11.02.01-.18.85.02.03-.03.02-.02.07.01-.07h-.1l-.01.05.01.03-.01-.03-.01.04-.02-.01.01-.07-.01-.01-.1.01-.01.04.02.04-.02-.04.04.03.01-.06-.01-.04-.1.01-.02.07.01.03-.01-.03-.02.04zm.36-.26l.05.08.11-.61-.08.01-.03.12h.08l-.08.01-.02.13h.08l-.08.01-.03.13h.08l-.08.01-.02.1.02.01h.05-.05zm.4-.02c.05-.03.09-.07.14-.11l-.03-.07h.01l-.03-.11h.01l-.03-.1-.09-.35.02-.01.01.03.05-.01-.02-.05.02-.01.02.06.05-.01-.02-.05.02-.01c-.13-.12-.26-.25-.38-.39-.08.12-.26.21-.34.23v-.02c.07-.01.25-.1.34-.21-.55-.62-1.06-1.37-1.45-1.95l-.02-.02c-.11.07-.23.13-.33.15l-.01-.02c.09-.03.21-.08.32-.15l-.23-.34.02-.01.23.34a.7.7 0 0 0 .19-.15c-.04.06-.11.11-.18.16l.01.02c.39.57.89 1.32 1.44 1.94.01-.01.01-.02.02-.04-.01.02-.01.03-.02.04.14.16.29.32.43.45h.05l.03.08c.08.08.17.15.25.21.12-.11.22-.23.32-.35a.21.21 0 0 0-.04-.06c-.5-.33-.96-.83-1.31-1.31-.11.07-.22.13-.31.16l-.01-.02c.09-.03.2-.09.31-.15-.13-.19-.25-.37-.34-.54l.02-.01c.09.17.21.36.34.54.09-.06.18-.13.24-.2-.05.08-.14.16-.23.22.34.48.8.98 1.28 1.32-.28-.5-.45-1.11-.66-1.87l-.06-.22.08.21c.22.78.39 1.4.68 1.91 0 0 .01 0 .01.01.03-.04.07-.08.1-.13l.02.02c-.03.04-.06.08-.09.13.01.01.03.02.04.03-.02-.01-.03-.02-.04-.03l-.01.01c.01.02.03.05.04.07l-.02.01a.21.21 0 0 0-.04-.06c-.1.12-.2.24-.32.35.08.06.16.12.24.17-.08-.05-.17-.1-.25-.16-.04.04-.09.08-.14.13l.1.28-.11-.27H47c-.02.02-.04.03-.06.05l.01.04.09-.01v.03h-.09l.03.09.1-.01v.03H47l.02.05-.02-.06h-.1l.02.05-.02-.05h-.13l.01.06-.03-.06h.01l-.01-.02c-.04.03-.08.07-.13.1m.28-.64l.11.31c.04-.04.08-.08.13-.12-.08-.06-.16-.12-.24-.19m.9.44c-.1 0-.22-.02-.3-.05l.21-.79c.1-.08.24-.06.34-.02.1.04.21-.01.43-.12l.01-.01.01.02c.04.14.01.35-.02.43-.02.06-.03.15-.01.19.02.06-.01.16-.07.24-.12 0-.29-.01-.35.05-.05.04-.14.06-.25.06m.04-.87a.36.36 0 0 0-.11.02l-.2.76c.14.08.43.08.49.02.07-.07.25-.07.35-.06.07-.07.09-.17.07-.21-.02-.05-.01-.14.01-.21.02-.07.05-.26.02-.4-.22.11-.33.16-.43.12a.71.71 0 0 0-.2-.04m-6.14.87c.41-.44 1.05-1.58 1.41-2.37-.03.01-.06.02-.08.03.03-.01.06-.03.09-.05.09-.19.15-.35.2-.49l.02.01c-.04.13-.11.28-.19.46.13-.07.29-.18.37-.24l.02.02c-.08.07-.26.18-.39.24-.37.8-1.02 1.96-1.45 2.39m1.41-.56l-.01-.03c.13-.04.35-.15.56-.29 0 0-.01 0-.01-.01l.02-.02c.01 0 .01.01.02.01.17-.12.34-.26.46-.39-.11.14-.27.29-.44.41.27.18.47.29.62.32-.16 0-.37-.11-.64-.3-.23.15-.45.26-.58.3m3.84-.2c-.15-.03-.37-.23-.45-.34l.02-.02c.1.13.31.32.43.36m-2.34-.16c.15-.07.34-.25.51-.41h.02v.02c-.17.16-.36.35-.53.39m1.17-.01c-.23-.04-.48-.29-.55-.36l.02-.02c.19.19.39.34.53.38m-2.72-.52l-.01-.02c.11-.05.32-.15.47-.31-.14.18-.35.28-.46.33m2.6-.37c-.14-.03-.24-.13-.34-.23-.04-.03-.08-.07-.12-.1l.02-.02c.04.03.08.07.12.1.09.1.2.2.32.25m-1.12-.01c.25-.1.5-.31.58-.37l.02.02c-.08.06-.34.28-.6.35m2.33-.02c-.13-.02-.34-.25-.4-.35l.02-.01c.07.1.27.32.38.36m-2.63-.52c-.2 0-.47-.16-.61-.27l.02-.02c.12.09.43.29.64.29h-.05m1.5-.45c-.15-.01-.42-.15-.57-.32l.02-.02c.14.17.41.3.55.34m.17-.23s-.01 0 0 0c.14-.02.36-.2.45-.29l.02.02c-.1.1-.32.27-.47.27m.87-.01c-.11 0-.27-.16-.33-.26l.02-.01c.07.1.24.26.31.27zm-3.73-.01c.12-.06.28-.19.47-.41l.02.02c-.13.15-.33.34-.49.39m1.09-.01c-.17 0-.42-.21-.52-.36l.02-.01c.09.14.34.34.5.37m.46-.38l-.01-.02c.08-.02.35-.09.49-.28-.12.21-.4.28-.48.3m1.1-.04c-.17 0-.4-.16-.56-.29l.02-.02c.13.11.39.3.55.31h-.01z"/><path d="M43.47 19.68c.16-.1.45-.08.59.02.17-.09.48-.07.62.06.22-.15.4-.17.61-.02.17-.12.42-.13.62.01.19-.09.4-.16.59.03-.11-.08-.35-.15-.59.04-.18-.19-.51-.12-.62.01a.394.394 0 0 0-.6.01c-.19-.16-.48-.16-.63-.04-.12-.1-.3-.18-.59-.12" fill="#4bb917"/><path d="M46.38 19.45c-.85.15-2.69.04-3.09-.06-.14-.03-.1-.08.02-.06.47.11 1.46.11 2.01.08.11-.14.27-.38.32-.45.05-.07.07-.07.18-.09.19-.03.3-.05.46-.08v.06c-.01.01-.03.03-.04.03 0 .11.02.38.04.47.02 0 .05-.01.06-.01.04.01.07.1.04.11" fill="#c0601c"/><path d="M47.76 19.49h.11c.04 0 .08-.03.11-.08.02-.05.09-.25.11-.33l-.09-.13c.02-.11.04-.25.05-.28.04-.02.09-.03.11-.04 0-.02-.01-.09-.03-.11-.36.01-1.45.05-1.65.06-.05 0-.07 0-.09.07-.1.38.04.91.42 1.21.03.02.06 0 .02-.04-.06-.06-.16-.18-.23-.3h.27c.02.09.09.28.1.31.01.03.05.04.03-.01-.04-.11-.05-.24-.07-.3.07 0 .2 0 .28-.01 0 .1.02.24.02.28 0 .04.04.04.04 0v-.27c.09 0 .2-.01.25-.01-.01.06-.02.24-.02.27-.01.04.02.06.03 0 .01-.06.03-.2.04-.28.04 0 .13 0 .17-.01-.01.06-.06.23-.07.28-.02.04.01.05.03 0-.01-.04.05-.21.06-.28" fill="#c0601c"/><path d="M46.55 19.45c-.03-.06-.12-.27-.13-.42.08 0 .27-.01.36-.01.01.11.05.36.07.42-.1.01-.24.01-.3.01M46.85 19.03c.01.09.06.39.06.42.08 0 .26 0 .29-.01 0-.08-.02-.38-.02-.42-.07 0-.29 0-.33.01M46.44 18.65c-.02.08-.02.24-.01.31.09 0 .32 0 .35-.01-.01-.08-.02-.22-.03-.31-.07.01-.26.01-.31.01M46.82 18.64c0 .07.02.26.02.31.08 0 .28-.01.35-.01 0-.07-.02-.29-.02-.32-.1.02-.28.02-.35.02M47.24 18.63c0 .07.01.27.01.31.09 0 .25 0 .3-.01 0-.07.01-.27.01-.32-.1.01-.25.02-.32.02M47.62 18.62c0 .06-.01.27-.01.32.08 0 .28-.01.32-.01.02-.07.04-.25.05-.32-.08 0-.3.01-.36.01M47.95 18.99c-.11 0-.29.01-.34.01-.01.13-.03.37-.03.42.1 0 .29-.01.33-.01.03-.06.1-.26.12-.32-.03-.03-.05-.06-.08-.1M47.25 19.02c0 .05.01.39.01.42.06 0 .22 0 .25-.01.01-.13.03-.39.03-.42-.1 0-.21 0-.29.01M45.84 18.93l-.14.02c-.06.1-.3.42-.33.46.17 0 .42-.01.49-.02-.01-.08-.02-.42-.02-.46M45.9 18.92c0 .11.01.4.02.48.08-.01.23-.02.29-.02-.01-.14-.04-.47-.04-.51-.07.02-.2.04-.27.05M44.48 17.77c.02 0 .02.02 0 .02l-1.57-.02c-.02 0-.02-.02 0-.02l1.57.02z"/><path d="M44.48 17.8l-1.57-.02.79-.01.79.02v.01zm0-.03h-.77l.77-.01v.01zM45.71 16.52c.02 0 .02.02 0 .02l-1.25-.04c-.02 0-.02-.02 0-.02l1.25.04z"/><path d="M45.71 16.54l-1.25-.04h.64l.61.01v.01-.01.03zm0-.02l-.6-.01h.6v.01zM44.4 16.87c.02 0 .02.02 0 .02l-1.4-.01c-.02 0-.02-.02 0-.02l1.4.01z"/><path d="M44.4 16.9l-1.4-.01.7-.01.7.01v-.01.02zm0-.02h-.68l.68-.02v.02zM44.44 15.97c.02 0 .02.02 0 .02l-1.46-.01c-.02 0-.02-.02 0-.02l1.46.01z"/><path d="M44.44 16l-1.46-.01 1.46-.02v.01-.01.03zm-.72-.03l.71-.02v.02h-.71zM44.34 15.26c.02 0 .02.02 0 .02l-1.42-.02c-.02 0-.02-.02 0-.02l1.42.02z"/><path d="M44.34 15.28l-1.42-.02.71-.01.71.02v-.01.02zm0-.02h-.7l.7-.01v.01z"/><path d="M45.8 14.84c.02 0 .02.02 0 .02l-1.22.01c-.02 0-.02-.02 0-.02l1.22-.01z" fill="#fff"/><path d="M44.59 14.88l-.03-.02 1.24-.03-.45.02.45-.01zM45.88 15.52c.02 0 .02.02 0 .02h-1.34c-.02 0-.02-.02 0-.02h1.34z"/><path d="M45.88 15.54h-1.34l1.34-.02zM47.2 16.49c.02 0 .02.02 0 .02h-1.45c-.02 0-.02-.02 0-.02h1.45z"/><path d="M47.2 16.51h-1.45l1.45-.02v.02zm-.71-.02l.71-.02v.02h-.71zM47.22 15.28c.02 0 .02.02 0 .02l-1.48-.01c-.02 0-.02-.02 0-.02l1.48.01z"/><path d="M47.22 15.3l-1.48-.02.72-.01.75.01.01.02zm0-.02h-.74l.74-.01v.01zM45.85 17.4c.02 0 .02.02 0 .02l-1.3-.01c-.02 0-.02-.02 0-.02l1.3.01z"/><path d="M45.85 17.43l-1.3-.01 1.3-.01v.01-.01zM47.12 17.58c.02 0 .02.02 0 .02l-1.14-.02c-.02 0-.02-.02 0-.02l1.14.02z"/><path d="M47.12 17.61l-1.14-.02.57-.01.57.02v-.01.02zm0-.03h-.56l.56-.01v.01z"/><path d="M48.15 17.8c.03-.07.04-.23.02-.3a.19.19 0 0 1-.13-.01c-.02-.01-.05-.01-.07-.02 0 .08-.04.29-.07.37-.06.02-.19 0-.27-.03-.02.07-.04.13-.06.19.09.02.21.02.3 0-.01.12-.02.23-.09.31.11 0 .21-.01.24-.05l.01-.01c.05-.08.05-.19.06-.27.04 0 .08-.01.11-.03.02-.02.06-.03.09-.03s.08 0 .14-.03c0-.04.01-.08.02-.12.01-.02.01-.05.02-.09-.07.06-.24.12-.32.12" fill="#db0037"/><path d="M47.8 18.33h-.02c.06-.1.07-.21.08-.32-.06.05-.2.04-.29.01l.04-.18h.01l-.04.17h.13c.05 0 .11-.01.15-.01a.51.51 0 0 1-.06.31c.1 0 .18-.02.21-.05.05-.07.06-.15.06-.21l.03-.07c.04 0 .07-.01.09-.03.03-.02.06-.03.1-.03.04 0 .08 0 .14-.03-.01-.02 0-.06.01-.11.01-.02.01-.05.02-.09a.68.68 0 0 1-.31.11c.01-.06.02-.16.01-.24.03.08.02.18 0 .23.07-.02.23-.08.31-.11.01.05 0 .09 0 .11a.36.36 0 0 0-.02.11c-.06.03-.11.04-.15.04-.05 0-.07.01-.09.03-.02.02-.07.03-.1.03-.01.11-.02.19-.06.26-.06.07-.18.07-.25.07m.03-.47c-.06 0-.14-.01-.19-.03.06-.01.13 0 .19 0 .09-.08.12-.29.12-.37.04 0 .07 0 .09.01.02.01.05.01.07.01l.02.02c-.05.01-.08 0-.1-.01a.145.145 0 0 0-.07-.02c.01.07-.02.28-.06.36v.01l-.07.02zM43.08 10.87c-.16 0-.51.01-.59.05-.07.04-.11.06.02.08.13.02.35.08.47.16.12.07.22.2.19.39-.1.56.2 1.1.62 1.3.04.02.05.04.04.11-.01.08-.04.2-.06.24-.02.03-.03.08.04.06-.05.09-.16.28-.2.33-.34-.04-.62.01-.64.36 0 .04.01.09.06 0 .05-.09.11-.17.26-.2a.49.49 0 0 0-.1.33c.01.08.04.12.07.03.04-.1.1-.19.18-.24.03-.02.05-.03.02.03-.02.06.01.19.05.23.04.04.06.03.05-.05-.01-.07.01-.22.1-.27.13-.07.23-.03.29.06.05.09.1 0 .04-.1-.06-.1-.11-.17-.21-.18.08-.14.18-.32.2-.35.02-.03.05-.05.08-.03.03.02.05.02.08-.04s.08-.23.14-.3c.04-.01.09-.02.11-.04.09.13.17.28.19.31.02.03.04.05.02.11-.02.07-.09.28-.1.33-.25.01-.37.01-.45.15-.04.06.02.08.08.05s.14-.06.19-.05c.04.01.06.03.02.05-.16.08-.25.17-.24.31 0 .05.02.07.06.01.05-.09.15-.19.27-.21-.01.11.02.28.09.31.07.04.08 0 .05-.07-.04-.11 0-.21.05-.27.11-.12.36.05.4.09.05.04.09.06.06-.05-.03-.14-.24-.22-.41-.25.05-.23.18-.71.25-.87.1.06.18-.09.35-.03.29.11.72.38.79.44.08.06.1.05.14.01.04-.03.1 0 .15.01.05.01.1.02.03-.11s-.22-.36-.49-.53c.16.01.37.01.37-.03s-.25-.12-.35-.13c.1-.02.24-.08.31-.16.04-.05-.01-.06-.15-.06-.44-.01-.67-.01-.9-.14-.37-.21-.58-.44-.76-.53-.1-.05-.16-.17-.19-.27-.12-.32-.11-.47-.4-.58-.27-.07-.59.07-.74.2"/><path d="M43.1 10.94c-.07 0-.21-.02-.33-.01-.03 0-.06.02.01.02.06.01.24.05.3.07.06.02.03.05-.02.04-.06-.01-.07.01-.03.04.23.16.25.22.19.77.04.03.08.05.11.07.04.02.03.05-.01.04-.04-.01-.08.01-.01.02.06.01.09.04.03.04s-.13.05-.01.04c.12-.01.17.04.03.04s-.09.05-.01.05c.13 0 .1.04.06.04-.03 0-.05.04.04.04.09-.01.12-.01.15-.01.03.01.05.03 0 .03s-.05.04.03.04c.07 0 .1.02.04.04-.03 0-.06.02.01.03.13.02.14.05.1.06s-.05.03.01.04c.06.01.11.02.06.04-.05.01-.08.04-.01.05.06.01.12.03.07.04-.05.02-.06.05 0 .04.06 0 .08.03.04.06-.04.02-.07.04-.1 0s-.04-.06-.05-.03c-.01.03-.03.01-.05-.04-.02-.05-.06-.06-.05-.02.01.04-.04.04-.08.02.17.17.41.32.81.16.04-.01.04 0 .07.06.03.06.1.18.13.22.03.05.05.01.06-.04.05-.18.09-.31.11-.35.01-.05.09-.1.07.07.06-.04.32-.08.52 0 .22.08.44.21.56.3.02.02.05.03.1.03s.07-.01-.03-.11c-.1-.09-.06-.14.01-.09.06.05.1.02.05-.04-.05-.05-.16-.16-.2-.19-.04-.03-.04-.04-.13-.04-.08-.01-.27-.01-.32-.01-.05 0-.07.01.05.05.12.04.36.2.41.23.05.04.09.12-.03.05-.12-.07-.48-.3-.73-.39-.56.04-1 .11-1.33-.25-.16-.17-.17-.57.1-.73-.05-.04-.04-.07-.02-.08.02-.01.03-.02.01-.05-.02-.03-.02-.05 0-.06-.06-.03-.08-.07-.08-.11-.07-.02-.1-.1-.2-.07s-.14.01-.17-.02-.05-.04-.11-.03c-.05 0-.1-.02-.1-.04 0-.03.05-.04.12-.01.15.07.27.1.37-.03.09-.13-.03-.24-.2-.27-.23-.05-.36.08-.42.14" fill="#fff"/><path d="M44.63 13.11l-.03-.02c-.05-.09-.11-.18-.13-.23l-.04-.07-.01.02c-.31.13-.58.08-.82-.17l.09-.02h.07l.12.09.05-.04h-.01l-.08-.05.06-.05c-.01 0-.03-.01-.08-.02v-.02c.04 0 .1.01.1.04l-.06.05c.09 0 .1.01.11.03-.05.06-.07.07-.09.07l-.15-.09-.07.01c.17.19.45.26.75.13.06 0 .06.02.08.06.02.05.07.13.11.19l.03.06v-.01.01l.03-.07c.05-.17.09-.31.11-.35v-.01l.05-.04c.04.03.04.07.03.13.03-.07.26-.11.51-.02.22.08.45.21.56.3.02.02.04.03.08.03.05-.01.04-.03-.03-.08-.05-.04-.07-.09-.06-.11H46c-.01-.07-.13-.18-.16-.21-.04-.03-.05-.03-.12-.04-.08-.01-.26-.01-.32-.01.18.07.43.23.47.26.03.02.06.06.05.09-.04.01-.06 0-.1-.02-.39-.25-.61-.35-.73-.39l-.15.01c-.15.01-.28.02-.41.02-.25 0-.54-.03-.77-.29-.09-.09-.13-.26-.11-.41.02-.15.1-.27.21-.34-.03-.01-.05-.03-.05-.05l.01-.11c-.04-.04-.07-.08-.07-.13-.02.01-.04-.01-.07-.03-.03-.02-.05-.04-.09-.04-.17.03-.17.02-.22-.02a.114.114 0 0 0-.08-.03c-.08 0-.12-.02-.12-.05.08-.04.1-.03.13-.02.13.06.27.09.35-.02.03-.04.04-.08.02-.12-.02-.06-.11-.12-.22-.14a.57.57 0 0 0-.35.14l-.09.01c-.07 0-.16-.01-.24-.01.07-.09.17-.02.24-.02.13-.06.24-.16.38-.16.18.03.27.09.3.16.02.05.01.1-.03.14-.09.12-.24.09-.38.03-.03-.01-.05-.02-.07-.02-.03.03.01.04.06.04.07 0 .09.01.11.03.02.02.08.04.16.02.08 0 .11.02.14.04.02.02.04.03.07.04.01.05.03.08.08.11l.03.12-.01.1a.44.44 0 0 0-.2.32c-.02.15.02.3.1.39.22.24.5.28.75.28.13 0 .27-.01.41-.02l.16-.01c.12.04.34.14.74.39.06.02.04-.01.01-.03-.07-.05-.3-.19-.41-.23-.09-.03-.1-.04-.1-.05.11-.02.29-.02.37-.01.08.01.09.01.12.04.05.03.17.14.21.2l-.01.08-.1-.04c-.01.01 0 .04.05.09.07.06.08.09.08.11l-.03.05c-.04 0-.07-.02-.09-.03-.11-.08-.33-.21-.55-.29-.26-.1-.46-.03-.51 0a.424.424 0 0 0-.02-.11c-.05.08-.09.21-.15.39-.01.03-.03.05-.05.05m-1-.75l-.1-.07.07-.04c-.08-.01-.11 0-.17 0h-.01l-.07-.03.06-.03c-.01 0-.02-.01-.08-.01-.04 0-.09-.01-.09-.04 0-.02.03-.03.1-.03.05 0 .07-.01.07-.01l-.06-.02-.03.02-.08-.02c0-.02.05-.04.08-.04l-.07-.05h.04l-.01.01c.04 0 .1.02.1.05l-.11.04.09-.01c.04 0 .09.01.09.03 0 .02-.03.04-.1.04s-.08.01-.08.01c.1.01.17.01.17.04l-.06.04h.17l.08.04-.07.03c.08.01.13.01.13.03l-.06.02zm-.32-.4a.673.673 0 0 1-.11-.07c.05-.56.03-.61-.19-.77l.02-.03c.23.18.25.26.19.79.04.02.07.04.11.05l-.02.03z"/><path d="M43.99 10.9a.57.57 0 0 0-.2-.13c-.05-.02-.05.03-.03.05-.02.03-.03.11.01.13.04.02.04.05 0 .07-.05.03-.03.17.05.13.03-.01.05-.01.04.01-.01.02 0 .05.03.05.02.01.02.04.01.05-.01.01 0 .02.03.02s.03.07-.02.09c.06 0 .07-.01.09.04.02.05.08.06.08.12s-.01.07-.08.06c-.07-.01-.1.01-.12.04-.02.03-.03.05.03.05.05 0 .06.03.01.05-.05.02-.14.01-.15.06-.01.05 0 .08.04.05.04-.02.12-.05.15-.07.03-.02.06-.02.09.02s.01.09-.04.05c-.05-.04-.07 0-.09.02-.03.02-.07.03-.11.03s-.07.01-.07.1c.02.29.24.5.65.49.41-.01.61-.01.67 0-.14-.08-.22-.12-.27-.11-.05.01-.09.01-.07-.02.02-.04 0-.04-.02-.05-.02-.02-.05-.04-.09.01-.04.05-.14.1-.2.11-.05.01-.11.01-.06-.04s.15-.06.19-.09c.03-.02.03-.03.03-.05 0-.02-.01-.06.05-.03.12.07.32.17.36.17.05 0 .08-.02.04-.05-.05-.03-.06-.07-.05-.09.01-.01.02-.03.1.01s.21.11.26.13c.05.02.11.01.01-.06-.1-.07-.4-.27-.49-.33-.09-.07-.05.01-.04.04.01.02-.06.05-.09.02-.04-.03-.06-.06-.01-.09.05-.03.06-.03-.01-.09-.07-.06-.09-.06-.08-.01.02.05.02.11-.05.08-.08-.03-.11-.07-.06-.09.05-.03.11-.04.03-.11s-.05 0-.07.04c-.02.04-.08.04-.11.01s-.05-.06-.03-.08c.02-.02.02-.04.05-.02.03.02.09.01.02-.05-.06-.06-.09-.03-.08 0 .02.03-.04.09-.12.01-.04-.04-.04-.08 0-.09.04-.01.04-.03.02-.07-.13-.22-.07-.42-.23-.59" fill="#fff"/><path d="M44.38 12.52c-.38 0-.63-.19-.65-.51 0-.05 0-.08.02-.1.1-.02.14-.03.16-.05l.06-.04.07.03-.04-.07c-.06.03-.11.05-.16.07l-.09.01c.01-.1.05-.11.09-.12l.09-.03-.08-.03c.03-.08.06-.1.11-.1l.07.01-.01-.11-.09-.09c.04-.01.06 0 .07.03.06.06.08.08.08.12 0 .04 0 .07-.05.07l-.07-.01c-.04 0-.05.01-.07.04l.07.06c-.06.05-.09.06-.11.06-.04.01-.07.01-.08.03.1.01.15-.02.18-.03.07-.01.09 0 .1.03l-.02.09-.07-.03c-.08.06-.12.07-.17.07-.05.02-.05.05-.05.09.02.3.25.48.62.48v.01l.02-.01.54-.01h.13c-.13-.04-.21-.08-.26-.08l-.09-.01-.01-.08-.01.01h-.08l.01.01c-.04.04-.15.1-.2.11l-.1-.01c.05-.08.11-.1.15-.11l.15-.1c.19.11.32.17.36.17.01-.05-.01-.08-.02-.1.06-.06.09-.05.12-.02.08.04.21.1.26.12-.05-.07-.14-.13-.23-.2-.11-.07-.21-.14-.25-.17l-.09.07c-.07-.03-.09-.06-.09-.08l.07-.06c-.08-.08-.1-.09-.11-.09.02-.02.04-.01.08.03.04.03.06.05.06.07l-.05.04.06.05.04-.09.07.02c.04.03.15.11.25.18.09.06.19.13.24.16.04.03.06.06.06.07l-.08.01a2.08 2.08 0 0 1-.26-.13.174.174 0 0 0-.07-.03l.03.08-.06.09c-.06 0-.23-.09-.37-.17-.03.04-.04.05-.07.08-.1.04-.16.05-.18.08.1 0 .2-.04.24-.08l.11-.01.01.01.02.07c.12 0 .2.05.33.11-.03.02-.07.02-.14.02h-.57zm.21-.55c-.06-.02-.09-.05-.09-.07l.1-.09-.05-.05v.01l-.12.06c-.03 0-.05-.01-.07-.02l-.04-.07.06-.07-.07.04c-.02 0-.05-.01-.08-.04-.02-.03-.04-.06-.03-.08l.05-.04-.01.03c.03.1.06.1.07.1l.03-.07c.04-.01.07 0 .09.03v.08l-.08.01.02.07.06.01.05-.02v-.04l.09-.01c.03.03.04.05.04.07v.01l-.05.05c-.03.04-.01.06.04.08l.05-.07h-.01c.01-.01.01-.02.02-.03.02.07.02.1.01.11l-.08.01zm-.34-.43c-.09-.15-.11-.25-.14-.35a.517.517 0 0 0-.32-.41c-.02.07-.03.11-.03.14l.06.08c-.05.05-.06.09-.05.11l.12.09.04.08c.04.05.04.08.03.1l-.1-.21c-.09.01-.11-.01-.12-.04-.01-.04 0-.09.03-.1l-.03-.09c-.01-.03 0-.08.02-.11l.04-.06c.05.02.15.07.2.13.09.09.11.19.13.29.02.1.05.2.12.31v.04z"/><path d="M44.02 10.93c-.02.02-.02.02-.05.04-.03.02-.04.08.01.07.04 0 .06-.02.07-.04 0-.03-.02-.05-.03-.07M43.85 10.8c-.04.04-.05.06-.03.06.02 0 .01 0 0 .03-.02.03.04.04.06.02.02-.02.03-.03.04 0 .01.02.04 0 .07-.02a.805.805 0 0 0-.14-.09" fill="#c0601c"/><path d="M43.78 11.03c-.05.03-.03.17.05.13.03-.01.05-.01.04.01v.03c.03-.01.06-.03.09-.07.05-.05 0-.05-.07-.05s-.1-.01-.02-.06c.06-.04.02-.06-.07-.05.01.02 0 .04-.02.06M44.08 11.34c-.04-.04-.02-.06.03-.09.01 0 .02-.01.02-.02l-.03-.14a.17.17 0 0 0-.06.08c-.01.03-.02.06-.06.05-.03-.01-.06.03-.07.06h.02c.01 0 .02.02.02.04.1 0 .11.06.13.11.02.05.04.04.05.02.02-.02-.01-.07-.05-.11" fill="#c0601c"/><path d="M44.11 11.9c-.02.04-.02.04-.08.04s-.13.01-.16.05c-.01.01-.11.01-.11.06 0 .04 0 .08.04.08s.05.01.03.04c-.02.03-.03.08.05.09.08.01.13-.02.15.02.02.04 0 .11.01.14.02.03.07.04.14.07.05.02.25.03.31.02.06-.01.04-.04-.02-.05-.06-.01-.1-.01-.12-.06-.01-.04-.03-.07.01-.1.03-.04.07-.07.05-.13-.02-.06-.05-.13-.12-.15-.07-.02-.05-.12-.12-.13-.03-.01-.05-.01-.06.01" fill="#fcff2c"/><path d="M43.77 12.47c.06.01.11.02.06.04-.05.01-.08.04-.01.05.06.01.12.03.07.04-.05.02-.06.05 0 .04.06 0 .08.03.04.06-.04.02-.07.04-.1 0s-.04-.06-.05-.03c-.01.03-.03.01-.05-.04-.02-.05-.06-.06-.05-.02.01.04-.04.04-.08.02.05.05.1.09.15.13.07-.02.14 0 .16 0 .03 0 .11.02.16.05.04.02.07-.02.05-.07-.02-.05-.02-.03-.05-.01-.02.03-.03-.01-.03-.07 0-.05-.03-.03-.04 0 0 .03-.02-.02 0-.04.01-.03 0-.04-.03-.03-.02.01-.03 0-.03-.05s-.03-.04-.04-.02c-.01.02-.03-.01-.06-.05s-.06-.01-.11.01c.01-.01.02-.01.04-.01" fill="#c0601c"/><path d="M44.41 12.8c-.29.12-.5.07-.66-.04.07-.02.14 0 .16 0 .03 0 .11.02.15.04.05.02.07-.02.06-.07.04.05.07.09.12.08.05.01.13 0 .17-.01M43.79 11.46c-.02-.06-.03-.07-.07-.07-.03 0-.05 0-.08-.02-.04-.01-.08 0-.09.07-.01.06-.05.1-.1.13-.05.04-.08.07-.08.14 0 .06-.02.08-.05.13-.02.02-.04.04-.06.07.02.01.04.03.07.04.04.02.03.04-.01.04-.04-.01-.08.01-.01.03.06.01.09.04.03.04s-.13.05-.01.04c.12-.01.17.04.03.04s-.09.05-.01.05c.13 0 .1.04.06.04s-.05.05.04.04c.01-.01.02-.03.03-.05.01-.04.03-.17.08-.2.05-.04.07-.09.07-.12 0-.04.07-.19.12-.23.04-.06.06-.15.04-.21" fill="#fcff2c"/><path d="M43.69 11.47c-.05-.03-.1-.01-.1.05 0 .06-.03.08-.07.1-.04.02-.08.08-.09.13-.01.05.01.08-.03.12-.04.04-.04.07-.01.09.02.02.02.02.04.06.01.03.07 0 .07-.04s.01-.04.05-.06c.04-.02.1-.13.09-.15-.01-.03-.05-.05 0-.09.05-.04.1-.04.1-.08s.01-.05.03-.07c0-.02-.05-.04-.08-.06" fill="#c0601c"/><path d="M43.69 11.41c-.03-.01-.05.06-.01.07.05.01.06-.05.01-.07M43.68 11.5c-.04 0-.08.05-.02.04.06 0 .08-.04.02-.04M43.61 11.59c-.04.02-.03.07.02.03.06-.03.07-.07-.02-.03M43.55 11.67c-.04.02-.03.07.02.03.06-.04.07-.08-.02-.03"/><path d="M43.48 11.7c-.04.02-.01.07.04.03.05-.03.05-.08-.04-.03M43.52 11.74c-.04.02-.01.07.04.03.06-.03.05-.07-.04-.03"/><path d="M43.46 11.76c-.04.02-.01.07.04.03.05-.03.05-.07-.04-.03M43.5 11.81c-.04.02-.01.07.04.03.05-.03.05-.07-.04-.03"/><path d="M43.44 11.85c-.04.02-.01.07.04.03.05-.04.05-.08-.04-.03"/><path d="M43.44 11.89c-.04.02-.01.07.04.03.06-.03.05-.07-.04-.03"/><path d="M43.42 12.34c-.04 0-.06.06-.01.07.05.01.06.02.06.05 0 .04.01.08.06.09.05 0 .09-.05.05-.07-.04-.02-.08-.03-.08-.07-.02-.05-.06-.07-.08-.07" fill="#c0601c"/><path d="M44.72 12.04c.01.01.02.02.02.03.04.03.1 0 .09-.02-.01-.02-.05-.1.04-.04.08.06.39.27.49.34.1.07.04.08-.01.06a2.08 2.08 0 0 1-.26-.13c-.08-.04-.09-.03-.1-.01-.01.01 0 .04.03.07-.05.01-.12 0-.15-.05a.847.847 0 0 0-.14-.19c-.01-.04-.01-.05-.01-.06" fill="#fcff2c"/><path d="M47.36 20.75c-.07.05-.15.13-.1.24l.02-.01c.26-.32.48-.65.67-.99 0-.01.01-.02.01-.03-.07.06-.19.13-.24.14.03.09-.12.2-.2.23.03.05.02.13-.05.15.01.05-.04.05-.1.07-.06.03-.1.05-.12.08.04-.02.08-.03.11-.02.03.01.03.05-.02.06-.05.01-.08.04-.1.06.09-.04.18-.03.12.02" fill="#59da62"/><path d="M44.21 11.94c-.08-.07-.1-.02-.07.02s.01.06-.06.07c-.07.01-.17.03-.21.03-.04 0-.09.06.01.05.1-.01.27-.04.32-.06.03-.02.07-.06.01-.11"/><path d="M43.86 12.12l-.06-.05.06-.03c.04 0 .14-.01.21-.02l.08-.02-.02-.03.01-.07c.02 0 .04.01.07.04l.04.06c0 .02-.02.04-.06.06-.05.02-.22.05-.32.06h-.01zm.34-.17c-.04.07-.07.09-.12.09-.07.01-.18.02-.22.02v.04l.01-.01c.1-.01.27-.04.31-.06l.06-.03-.04-.05z"/><path d="M44.36 12.06c-.07-.06-.09-.04-.07 0 .02.04-.01.05-.06.06-.04.01-.21.07-.28.08-.07.01-.09.06.02.05.11 0 .31-.09.33-.1.02-.02.03-.05.06-.03.03.01.05-.01 0-.06"/><path d="M43.96 12.27c-.07 0-.08-.02-.08-.03v-.01l.07-.03c.07-.01.22-.06.27-.07l.04-.01-.02.03c-.07.02-.22.07-.29.08l.01.04.01-.01c.1 0 .3-.09.33-.1l.07-.03-.07-.07c.03-.02.05-.01.07.01l.03.07-.07.02c-.05.02-.25.11-.37.11z"/><path d="M44.41 12.23a.95.95 0 0 1-.21.09c-.05.01-.09.07.01.06.1-.01.22-.1.25-.12.03-.02.05-.03.07-.03.03 0 .08-.03-.01-.08s-.14-.03-.1.01c.05.04.01.05-.01.07"/><path d="M44.19 12.39l-.06-.04.06-.05a.95.95 0 0 0 .21-.09v-.09c.07-.02.1-.01.13.01.06.03.06.06.06.07l-.1.05c-.09.06-.19.12-.27.13h-.03zm.25-.26l-.02.1c-.05.03-.17.09-.22.1l-.01.04.02-.01c.08-.01.17-.07.22-.1l.1-.05c-.04-.07-.07-.08-.09-.08M43.58 10.89c-.13-.08-.28.09-.14.19.13.09.26-.11.14-.19"/><path d="M43.42 10.97h.04c-.01.04.03.1.09.08-.05.04-.15 0-.13-.08M43.92 12.9c.04.01.18.03.22.03-.03.05-.05.08-.06.12-.01.04-.02.04-.02-.02 0-.05-.03-.09-.06-.03s-.04.08-.06.1c-.01.02-.03.03-.03-.03s.01-.11.01-.17" fill="#fff"/><path d="M44.19 23.15h-.01c-4.27-1.69-4.87-5.17-4.88-8.68h.02c-.03-.56-.01-1.09 0-1.6.02-.69.03-1.34.01-1.95 1.83-.84 4.18-.9 4.85-.9.68 0 3.02.07 4.84.88 0 .63.01 1.28.03 1.97.01.52.02 1.06.02 1.6l-.03.03c.02 3.51-.59 6.96-4.85 8.65zm-4.86-8.66c.04 3.46.63 6.92 4.86 8.6 4.22-1.68 4.82-5.13 4.84-8.6h-9.7zm4.86-4.42c-.67 0-3.01.06-4.82.87.03.58.02 1.23 0 1.93-.01.52-.02 1.06-.02 1.6l9.67-.03c0-.53-.01-1.06-.02-1.58-.02-.69-.03-1.34-.01-1.95-1.78-.78-4.12-.84-4.8-.84"/></svg>