<svg xmlns="http://www.w3.org/2000/svg" viewBox="0 0 58.92 34.37"><path fill="#fff" d="M0 0h58.92v34.37H0z"/><path fill="#ea0020" d="M0 22.92h58.92v11.46H0z"/><path fill="#3555e2" d="M0 11.46h58.92v11.46H0z"/><path d="M13.03 6.61c-.11.05-.21.09-.32.15l.33 5.2a5.849 5.849 0 0 0 4.16 5.24 5.77 5.77 0 0 0 2.46-1.47 5.849 5.849 0 0 0 1.7-3.77l.33-5.2c-.1-.05-.21-.1-.32-.15l-.34 5.32a5.467 5.467 0 0 1-1.61 3.56c-.63.63-1.39 1.09-2.23 1.36-.83-.27-1.6-.73-2.23-1.36a5.589 5.589 0 0 1-1.61-3.56l-.32-5.32" fill="#ea0020"/><path d="M21.37 6.61c-1.3-.57-2.72-.88-4.17-.88-1.45 0-2.87.31-4.17.88l.34 5.32c.08 1.34.65 2.61 1.61 3.56.63.63 1.39 1.09 2.23 1.36.83-.27 1.6-.73 2.23-1.36.95-.96 1.52-2.22 1.61-3.56" fill="#3555e2"/><path fill="#f8e72a" d="M17.45 8.22l.19-.26-.32.04-.12-.29-.13.29-.31-.04.19.26-.19.25.31-.03.13.28.12-.28.32.03M16.27 6.65l.19-.25-.31.03-.13-.29-.13.29-.31-.03.19.25-.19.25.31-.03.13.28.13-.28.31.03M18.63 6.65l.18-.25-.31.03-.12-.29-.13.29-.31-.03.18.25-.18.25.31-.03.13.28.12-.28.31.03"/><path d="M20.56 12.7l-1.68-2.24-.67.9-1.01-2.02-1.01 2.02-.67-.9-1.68 2.24c0 .3.12.58.33.79a1.112 1.112 0 0 0 1.35.18c.08-.05.18-.08.27-.11.29-.08.59-.04.85.11.17.1.36.15.56.15.2 0 .39-.05.56-.15.26-.15.56-.19.85-.11.1.03.19.07.27.11a1.112 1.112 0 0 0 1.35-.18c.21-.2.33-.49.33-.79" fill="#fff"/><path d="M14.23 13.92c.08.15.16.3.25.45.24.11.5.13.76.07.1-.02.19-.06.27-.11.17-.1.36-.15.56-.15.2 0 .39.05.56.15.26.15.56.19.85.11.1-.02.19-.06.27-.11.17-.1.36-.15.56-.15.2 0 .39.05.56.15a1.1 1.1 0 0 0 1.03.04c.09-.14.18-.3.26-.45-.05.02-.11.05-.16.08-.08.05-.18.09-.27.11a1.1 1.1 0 0 1-.85-.11c-.17-.1-.36-.15-.56-.15-.2 0-.39.05-.56.15-.08.05-.18.09-.27.11a1.1 1.1 0 0 1-.85-.11 1.12 1.12 0 0 0-1.12 0c-.09.05-.18.09-.27.11a1.1 1.1 0 0 1-.85-.11c-.06-.03-.11-.06-.17-.08" fill="#fff"/><path d="M19.62 14.78c-.13.17-.27.33-.43.48-.57.57-1.25.99-2 1.25-.75-.26-1.43-.68-2-1.25a4.81 4.81 0 0 1-.42-.48c.15.03.31.02.47-.02.1-.03.19-.06.27-.11a1.12 1.12 0 0 1 1.12 0c.26.15.56.19.85.11.1-.03.19-.06.27-.11.17-.1.36-.15.56-.15.2 0 .39.05.56.15.23.13.5.17.75.13" fill="#fff"/></svg>