<svg xmlns="http://www.w3.org/2000/svg" viewBox="0 0 58.92 34.37"><path fill="#fff" d="M0 0h58.92v34.37H0z"/><path fill="#2534a4" d="M0 11.46h58.92v22.92H0z"/><path fill="#bc0030" d="M0 22.92h58.92v11.46H0z"/><path d="M8.91 8.08c-.69.05-.5.89-.58 1.37-.25 3.29-.58 6.68.42 9.88.79 2.58 2.68 4.71 4.98 6.09.56.31 1.11.71 1.74.88.65-.18 1.23-.59 1.82-.93 2.26-1.37 4.11-3.49 4.89-6.04 1.02-3.25.66-6.7.41-10.04-.03-.46.03-1.26-.65-1.21H8.91z" fill="#fff"/><path d="M15.47 8.59v17.18C7.52 21.93 8.39 15.55 8.91 8.59h6.56zm0 0v17.18c7.95-3.85 7.08-10.23 6.55-17.18h-6.55z" fill="#bc0030"/><path d="M16.4 13.31c.83 0 1.69.15 2.51.32-.24-.8-.24-1.29 0-2.08-.82.16-1.67.32-2.51.32h-1.86c-.84 0-1.69-.15-2.51-.32.24.8.24 1.29 0 2.08.82-.16 1.67-.32 2.51-.32h1.86zM17.12 16.44c.84 0 1.69.15 2.51.32-.24-.8-.24-1.28 0-2.08-.82.16-1.67.32-2.51.32h-3.3c-.83 0-1.69-.15-2.51-.32.24.8.24 1.28 0 2.08.82-.16 1.67-.32 2.51-.32h3.3z" fill="#fff"/><path d="M14.42 9.25c.16.82.32 1.66.32 2.5V22.4h1.46V11.75c0-.83.15-1.68.32-2.5-.81.24-1.3.24-2.1 0" fill="#fff"/><path d="M12.17 19.81c-.94 0-1.71.76-1.71 1.7 0 .07.01.14.02.21.33.49.71.95 1.16 1.4.17.05.34.09.53.09.94 0 1.71-.76 1.71-1.7-.01-.94-.77-1.7-1.71-1.7" fill="#2534a4"/><path d="M15.47 18.81c-1.2 0-2.17.97-2.17 2.16 0 1.19.97 2.16 2.17 2.16s2.17-.97 2.17-2.16c0-1.19-.98-2.16-2.17-2.16" fill="#2534a4"/><path d="M18.77 19.81c-.94 0-1.71.76-1.71 1.7s.76 1.7 1.71 1.7c.18 0 .36-.04.53-.09.44-.45.83-.92 1.16-1.4.01-.07.02-.13.02-.2-.01-.95-.77-1.71-1.71-1.71" fill="#2534a4"/><path d="M10.75 22.08c1.04 1.39 2.54 2.64 4.72 3.7 2.17-1.05 3.67-2.3 4.72-3.7h-9.44z" fill="#2534a4"/></svg>