<svg xmlns="http://www.w3.org/2000/svg" viewBox="0 0 58.92 34.37"><path fill="#4a5bb5" d="M0 0h58.92v34.37H0z"/><path fill="#f6d928" d="M0 6.14h58.92v22.1H0z"/><path fill="#a1001d" d="M0 8.59h58.92v17.19H0z"/><path d="M9.18 16.82H50.2c.2 0 .36.16.36.37 0 .2-.16.37-.36.37H9.18a.36.36 0 0 1-.36-.37c0-.21.16-.37.36-.37" fill-rule="evenodd" clip-rule="evenodd" fill="#f6d928"/><path d="M50.2 17.6H9.18c-.23 0-.41-.18-.41-.41 0-.23.18-.42.41-.42H50.2c.22 0 .41.19.41.42 0 .23-.19.41-.41.41m-41.02-.73c-.18 0-.32.15-.32.32 0 .18.14.32.32.32H50.2c.17 0 .31-.14.31-.32s-.14-.32-.31-.32H9.18z"/><path fill-rule="evenodd" clip-rule="evenodd" fill="#fff" d="M46.03 13.26l-2.08.73 2.08.74 2.09-.74z"/><path d="M46.03 14.78L43.82 14l2.2-.77 2.22.77-2.21.78zm-1.96-.79l1.96.69 1.97-.69-1.98-.7-1.95.7z"/><path d="M14.51 13.75h30.15c.15 0 .27.11.27.24 0 .14-.12.25-.27.25H14.51c-.15 0-.27-.11-.27-.25 0-.13.12-.24.27-.24" fill-rule="evenodd" clip-rule="evenodd" fill="#f6d928"/><path d="M44.66 14.28H14.51c-.17 0-.31-.13-.31-.29s.14-.29.31-.29h30.15c.17 0 .31.13.31.29s-.14.29-.31.29m-30.15-.49c-.12 0-.22.09-.22.2s.1.2.22.2h30.15c.12 0 .22-.09.22-.2s-.1-.2-.22-.2H14.51z"/><path d="M43.7 14.29v-.09c.1 0 .2-.1.2-.2s-.1-.2-.2-.2v-.09c.15 0 .29.14.29.29 0 .14-.14.29-.29.29m.49-.01v-.08c.1 0 .2-.1.2-.2s-.1-.2-.2-.2v-.09c.15 0 .29.14.29.29 0 .14-.14.28-.29.28m-.24 0v-.08c.1 0 .2-.1.2-.2s-.1-.2-.2-.2v-.09c.15 0 .29.14.29.29 0 .14-.15.28-.29.28"/><path fill-rule="evenodd" clip-rule="evenodd" fill="#fff" d="M44.07 14.73l-2.09.74 2.09.74 2.09-.74z"/><path d="M44.07 16.25l-2.21-.78 2.2-.77 2.22.77-2.21.78zm-1.97-.78l1.96.69 1.96-.69-1.98-.7-1.94.7z"/><path d="M12.54 15.22H42.7c.15 0 .27.11.27.25s-.12.24-.27.24H12.54c-.15 0-.27-.11-.27-.24 0-.14.12-.25.27-.25" fill-rule="evenodd" clip-rule="evenodd" fill="#f6d928"/><path d="M42.7 15.76H12.54c-.17 0-.31-.13-.31-.29 0-.16.14-.29.31-.29H42.7c.17 0 .31.13.31.29 0 .16-.14.29-.31.29m-30.16-.49c-.12 0-.22.09-.22.2 0 .11.1.2.22.2H42.7c.12 0 .22-.09.22-.2 0-.11-.1-.2-.22-.2H12.54z"/><path d="M42.23 15.76v-.09c.1 0 .2-.1.2-.2s-.1-.2-.2-.2v-.09c.15 0 .29.14.29.29 0 .14-.15.29-.29.29m-.25 0v-.09c.1 0 .2-.1.2-.2s-.1-.2-.2-.2v-.09c.15 0 .29.14.29.29 0 .14-.14.29-.29.29m-.24 0v-.09c.1 0 .2-.1.2-.2s-.1-.2-.2-.2v-.09c.15 0 .29.14.29.29 0 .14-.15.29-.29.29"/><path d="M47.62 16.89c-.37.64.29-.21 1.89.86.3.2.55.73.55 1.1-.07-.05-.13-.16-.21-.24-.12.12.11.65.15.9-.25-.14-.23-.2-.31-.38.02.21-.04.78.06 1-.2-.06-.19-.21-.29-.25.07.25-.06.52-.03.8-.11-.12-.24-.2-.29-.25-.01.13-.22.49-.23.61a.292.292 0 0 1-.14-.21c-.12.15-.55.72-.58.89-.33-.29-1.19-1.01-1.3-1.39-.1.22-.24.29-.52.45-.11-.6-.53-1.28-.31-1.8-.16.09-.29.19-.44.3.15-.85.91-1.88 2-2.39" fill-rule="evenodd" clip-rule="evenodd" fill="#485ba3"/><path d="M48.21 21.8l-.13-.11c-.39-.34-1.12-.97-1.22-1.33-.04.22-.18.3-.45.45l-.04.02-.04-.03c-.04-.2-.1-.4-.17-.6-.14-.42-.29-.86-.13-1.22-.11.13-.23.22-.39.33.11-.98.93-1.98 1.96-2.46.01.1-.07.24-.05.26 0 0 .01.01.08.01h.18c.2 0 .82 0 1.71.6.3.2.57.74.57 1.13-.09 0-.13-.05-.17-.1-.03-.04-.06-.08-.1-.11-.02.06.06.35.12.55.04.12.07.24.08.33-.22-.07-.27-.13-.31-.22v.12c-.01.24-.01.57.05.71-.16.01-.21-.07-.25-.13-.03-.04-.04-.07-.07-.08.08.1.06.24.04.4-.02.12-.04.25-.02.37-.14-.05-.22-.12-.28-.17l-.06-.05c.05.05-.01.17-.06.3-.05.12-.11.23-.11.29-.16-.04-.19-.15-.2-.21-.12.23-.49.74-.52.89l-.02.06zm-1.35-1.46c.16.35.9.99 1.26 1.3l.05.05c.1-.25.57-.85.57-.85.07.07.1.15.18.21-.05-.04.01-.16.07-.29.05-.12.11-.24.11-.3l.12.03c.06.05.15.12.23.2-.07-.11-.05-.24-.03-.36.02-.14.04-.28.01-.41.09-.02.12.02.15.06.04.06.07.11.18.15-.11-.12-.1-.44-.1-.7v-.27l.1.08c.04.11.07.16.26.27-.06-.05-.09-.16-.13-.28-.08-.27-.15-.52-.06-.61.09.03.12.08.15.12.04.04.07.09.1.11-.05-.34-.31-.85-.59-1.04-.88-.59-1.48-.59-1.67-.59h-.18c-.06 0-.12 0-.14-.04-.03-.05 0-.11.1-.28-.97.51-1.78 1.49-1.94 2.43.11-.15.24-.24.4-.34-.1.38.04.8.18 1.21.07.2.14.41.17.6.23-.19.36-.26.45-.46"/><path d="M46.24 20.08c.15-.31.3-.41.4-.6.18-.35.2-.63.36-.59.15.04.15.18-.05.53-.21.34-.3.42-.71.66M47.28 20.82c-.02-.24.05-.33.04-.48-.02-.27-.13-.45.01-.46.14-.01.21.08.21.35 0 .26-.05.33-.26.59M48.07 21.28c-.06-.33-.02-.47-.06-.69-.07-.37-.2-.62-.07-.65.13-.03.21.09.26.46.05.39.03.49-.13.88M48.9 18.98c-.19-.15-.31-.16-.43-.25-.22-.17-.33-.34-.4-.25-.07.09-.02.18.21.34.22.15.3.16.62.16M48.76 20.07c-.1-.21-.21-.27-.28-.4-.12-.24-.12-.45-.24-.39-.13.05-.14.16 0 .39s.21.27.52.4" fill-rule="evenodd" clip-rule="evenodd" fill="#980015"/><path d="M10.62 17.51c-.02-.19.02-.21-.1-.35.17.07.17.26.38.12.07-.04.11-.04.02-.25.21.01.91.25 1.02.26.29.01.83-.31 1.2.09.36.36.24.74.24 1.24-.14-.07-.07-.1-.23-.28.11.44-.01 1.22-.01 1.69-.06-.11-.05-.07-.11-.18-.15.42-.33.51-.33 1.01-.06-.2 0-.15-.06-.26-.15.32-1.14.6-.76.92-.35-.2-.5-.18-.65-.36-.07.04-.12.13-.18.24-.61-.28-.39-.88-.87-1.28-.08.17-.04.14-.13.42-.1-.38-.12-.62-.23-.9-.09.15-.09.09-.26.33-.07-.46-.18-.58-.14-.88-.18.13-.06.08-.24.23.18-1.21.92-2.09 1.44-1.81" fill-rule="evenodd" clip-rule="evenodd" fill="#485ba3"/><path d="M11.87 21.55c-.14-.08-.25-.13-.34-.16a.665.665 0 0 1-.32-.21c0 .04-.05.13-.11.23-.41-.14-.5-.41-.59-.68-.07-.21-.14-.42-.35-.59.02.08.02.11 0 .17-.01.05-.02.11-.07.23l-.05.15-.04-.15c-.03-.13-.06-.25-.08-.36-.04-.17-.07-.31-.12-.46-.02.03-.04.05-.06.07-.03.03-.07.08-.15.19l-.06.09-.02-.11a3.36 3.36 0 0 0-.09-.41c-.04-.14-.07-.24-.06-.38-.02.02-.02.02-.03.04-.02.02-.04.05-.13.13l-.09.08.02-.12c.16-1.12.87-2.04 1.43-1.85v-.05c0-.08 0-.11-.08-.21l-.11-.14.16.07c.07.03.11.07.15.11.07.07.1.08.19.02.06-.03.07-.04 0-.19l-.03-.06h.07c.13.01.41.09.66.16.16.04.32.09.36.09.07-.01.19-.02.29-.05.31-.07.71-.1.94.15.29.3.28.61.26.97-.01.09-.01.19-.01.3v.07l-.06-.03c-.08-.04-.1-.07-.13-.11.03.29.01.64-.02.96-.01.19-.03.37-.03.52v.18l-.08-.16c-.02-.05-.04-.07-.05-.08 0 0-.01-.01-.01-.02-.04.1-.09.19-.13.26-.1.18-.17.32-.17.64v.32l-.09-.31c-.03-.1-.03-.14-.03-.17-.09.11-.24.2-.39.3-.19.12-.39.25-.4.37 0 .04.02.08.07.13l-.02.06zm-.66-.44c.14.1.22.14.35.19.06.02.12.05.2.09v-.05c.01-.16.22-.29.44-.43.18-.11.36-.23.41-.34l.04-.08.04.07v.01c.03-.17.09-.28.16-.41.05-.1.1-.2.15-.34l.04-.1.05.09c.01.02.02.04.03.05.01-.11.01-.24.02-.38.03-.4.06-.86-.02-1.15l-.05-.18.12.15c.07.08.1.14.12.18.01.02.02.04.03.05 0-.08 0-.15.01-.22.02-.35.03-.63-.23-.9-.21-.22-.56-.19-.85-.12-.11.02-.21.05-.3.05-.07 0-.19-.04-.4-.1-.2-.06-.43-.13-.57-.15.05.14.04.18-.05.23-.15.09-.22.06-.28 0 0 .02 0 .05.01.07 0 .03 0 .07.01.12l.01.08-.07-.04c-.44-.23-1.14.48-1.35 1.63.01-.01.01-.02.02-.02.02-.03.04-.05.13-.12l.08-.06-.01.1c-.03.18 0 .28.05.44.02.09.05.19.08.32.05-.06.07-.09.1-.12s.05-.05.1-.13l.05-.08.03.08c.07.19.11.35.15.55.01.06.03.13.04.2.01-.03.01-.05.02-.07.01-.06.02-.1.07-.2.29.17.37.4.44.62.09.26.17.5.48.64-.03-.09.03-.17.1-.22"/><path d="M9.88 19.46c.16-.38.3-.5.4-.75.18-.43.21-.78.36-.73.15.05.15.23-.05.66-.21.42-.3.51-.71.82M10.47 20.41c.06-.34.16-.47.2-.69.07-.39.03-.68.17-.66.14.02.17.16.08.55-.09.39-.16.48-.45.8M11.18 21.08c.02-.33.1-.46.11-.68.02-.38-.05-.65.08-.65s.18.14.14.51c-.05.38-.1.48-.33.82M12.7 18.9c-.29-.29-.47-.34-.65-.53-.33-.33-.49-.63-.61-.52-.12.11-.05.27.3.58.34.31.46.36.96.47M12.52 20.02c-.19-.29-.33-.37-.45-.55-.22-.33-.29-.61-.41-.54-.12.07-.09.22.14.54.23.31.32.37.72.55" fill-rule="evenodd" clip-rule="evenodd" fill="#980015"/><path d="M41.74 17.19c-2.45 2.45-5.73 7.37-12.28 7.37-5.73 0-9.82-4.91-12.28-7.37 2.46-2.46 6.55-7.37 12.28-7.37 6.55 0 9.82 4.91 12.28 7.37" fill-rule="evenodd" clip-rule="evenodd" fill="#fff"/><path d="M29.46 24.59c-5.15 0-8.96-3.93-11.49-6.54-.29-.3-.56-.58-.82-.84.25-.31.53-.59.82-.89 2.52-2.61 6.34-6.54 11.49-6.54 5.55 0 8.76 3.52 11.1 6.09.43.47.83.91 1.2 1.29-.38.44-.78.88-1.21 1.35-2.33 2.56-5.54 6.08-11.09 6.08m0-14.73c-5.12 0-8.92 3.92-11.43 6.52-.29.3-.56.58-.82.83.25.2.53.48.82.78 2.51 2.59 6.31 6.52 11.43 6.52 5.52 0 8.71-3.51 11.04-6.06.43-.47.83-.91 1.21-1.29-.38-.32-.78-.76-1.21-1.23-2.33-2.56-5.52-6.07-11.04-6.07"/><path d="M28.6 12.38c.65.73.11 1.03.8 1.08.73.05.32.77.93.8.43.02-.04 1.73.37 2.3.42.59.77.17.78.6.01.44-1.15.4-1.17 1.75-.03.78-.97.83-1.02 1.34-.05.47 1.85.74 1.82 1.16-.03.42-2.06.36-2.15.84-.05.43 2.79.79 3.02 2.04-.42.14-1.63.27-2.54.27-5.73 0-9.82-4.91-12.28-7.36 2.45-2.46 6.55-7.37 12.28-7.37.02-.01-1.68 1.54-.84 2.55" fill-rule="evenodd" clip-rule="evenodd"/><path fill-rule="evenodd" clip-rule="evenodd" fill="#fff" d="M21.77 14.57h.6v1.96h-.6zM21.77 17.84h.6v1.96h-.6zM22.96 14.57h.6v1.96h-.6zM22.96 17.84h.6v1.96h-.6zM24.15 14.57h.6v1.96h-.6zM24.15 17.84h.6v1.96h-.6zM25.34 14.57h.6v1.96h-.6zM25.34 17.84h.6v1.96h-.6zM26.53 14.57h.6v1.96h-.6zM26.53 17.84h.6v1.96h-.6zM27.72 14.57h.6v1.96h-.6zM27.72 17.84h.6v1.96h-.6z"/><path fill-rule="evenodd" clip-rule="evenodd" d="M30.77 14.57h.6v1.96h-.6zM30.77 17.84h.6v1.96h-.6zM31.96 14.57h.6v1.96h-.6zM31.96 17.84h.6v1.96h-.6zM33.15 14.57h.6v1.96h-.6zM33.15 17.84h.6v1.96h-.6zM34.34 14.57h.6v1.96h-.6zM34.34 17.84h.6v1.96h-.6zM35.53 14.57h.6v1.96h-.6zM35.53 17.84h.6v1.96h-.6zM36.72 14.57h.6v1.96h-.6zM36.72 17.84h.6v1.96h-.6z"/><path d="M25.49 11.13c-.34.66.59-.22 2.06.88.27.2.66 1.01.66 1.39-.31-.07-.87-.38-.87-.38s.66.65.66 1.4c-.23-.14-.34-.12-.42-.3 0 .24.2.4.2.77a3.89 3.89 0 0 0-.45-.3c.22.38-.39 1.1-.09 1.34-.54-.08-1.08-.42-1.3-.79-.11.08-.13.2-.13.33.02.01-.81-.62-.74-.86-.11.16-.13.24-.15.42-.3-.3-.58-.6-.69-.99-.14.18-.14.18-.28.35-.1-.62-.1-.6.1-1.12-.14.1-.26.19-.4.31.14-.89.84-1.93 1.84-2.45" fill-rule="evenodd" clip-rule="evenodd" fill="#485ba3"/><path d="M27.36 15.99l-.12-.02c-.54-.08-1.1-.42-1.32-.81-.05.08-.07.19-.07.31-.06.04-.46-.32-.59-.45-.17-.18-.24-.31-.22-.4-.05.17-.06.25-.08.42-.36-.28-.65-.59-.75-.99-.01.1-.05.15-.09.19l-.18.23-.02-.1c-.1-.58-.1-.59.09-1.08-.08.1-.2.19-.34.31.1-1 .86-2.02 1.8-2.51-.01.15-.03.22-.02.25.02.02.09.03.15.03h.23c.39 0 1 .06 1.74.61.28.21.67 1.03.67 1.41-.28-.03-.68-.22-.84-.31.18.15.63.7.63 1.33-.13-.02-.19-.05-.25-.07a.418.418 0 0 1-.17-.11c.03.06.05.11.08.17.06.13.12.27.12.48-.22-.1-.36-.19-.49-.27.16.15.07.42-.02.68-.09.26-.17.5-.03.61l.09.09zm-1.43-.87c.24.36.74.68 1.23.77-.09-.15-.01-.37.07-.61.08-.25.17-.5.07-.67.18.03.33.12.49.26-.05-.18-.11-.31-.17-.43-.05-.1-.09-.2-.09-.31.11.09.16.12.27.16.05.02.12.06.2.11-.05-.7-.68-1.34-.69-1.35.05-.05.59.25.9.32-.04-.33-.42-1.13-.69-1.33-.72-.54-1.31-.6-1.7-.6h-.23c-.09 0-.18 0-.21-.06-.03-.05-.01-.13.06-.27-.88.52-1.63 1.52-1.77 2.48.09-.15.21-.24.35-.34l.09-.06-.05.13c-.18.48-.18.48-.09 1.05l.08-.17.14-.18c.16.4.44.69.74.99-.03-.16-.01-.25.1-.41 0 .21.62.73.78.85-.02-.11-.01-.24.12-.33"/><path d="M24.65 14.34c.05-.45.17-.62.21-.92.06-.51-.01-.89.17-.88.18.01.23.2.14.71-.08.52-.16.64-.52 1.09M25.6 15.17c-.04-.38.03-.54.01-.79-.04-.43-.17-.73-.02-.75.16-.03.24.12.26.56.02.43-.02.55-.25.98M27.08 15.85c-.16-.33-.3-.43-.4-.64-.18-.37-.22-.68-.36-.63-.14.06-.13.21.07.58s.3.44.69.69M27.6 12.89c-.41-.22-.62-.22-.89-.36-.47-.24-.74-.52-.83-.37-.1.15.03.3.51.52.48.23.63.24 1.21.21M27.75 14.12c-.3-.25-.48-.28-.67-.44-.34-.28-.51-.56-.62-.44-.11.11-.04.26.32.52.35.26.47.3.97.36" fill-rule="evenodd" clip-rule="evenodd" fill="#980015"/></svg>