<svg xmlns="http://www.w3.org/2000/svg" viewBox="0 0 58.92 34.37"><path fill="#120065" d="M0 0h58.92v34.37H0z"/><path d="M49.54 11.62v4.18c0 3.43-1.35 6.58-5.35 8.49-4-1.91-5.35-5.06-5.35-8.49v-4.18h10.7z" fill="#fff"/><path d="M44.19 24.31c-3.56-1.7-5.36-4.56-5.36-8.5v-4.18l10.71-.01.01 4.2c.01 3.93-1.8 6.79-5.36 8.49zm5.34-12.69l-10.69.01.01 4.17c0 3.93 1.79 6.78 5.34 8.47 3.54-1.69 5.34-4.54 5.34-8.47v-4.18z"/><path d="M49.18 12.05v3.9c0 3.2-1.26 6.13-4.99 7.92-3.73-1.78-4.99-4.71-4.99-7.92v-3.9h9.98z" fill="#f2c227"/><path d="M44.19 23.88c-3.32-1.59-5-4.25-5-7.93v-3.9l9.99-.01.01 3.91c.01 3.68-1.68 6.35-5 7.93zm4.98-11.83l-9.97.01.01 3.89c0 3.67 1.67 6.32 4.98 7.9 3.3-1.58 4.98-4.24 4.98-7.9v-3.9z"/><path d="M41.87 13.76a.428.428 0 0 0-.26-.09c.02-.26-.17-.38-.31-.43-.14-.05-.19-.1-.21-.21-.02-.11-.1-.17-.22-.21-.13-.04-.23-.16-.28-.22-.05-.06-.07-.05-.1.05-.04.1-.18.29-.05.3-.1.08-.15.17-.09.29-.07.05-.12.13-.03.16s.11.05.12.08c-.08 0-.1.16.09.2-.04.01-.06.14.02.14-.11 0-.2.16-.34.16s-.21.03-.21.09c-.01.06-.08.13-.11.16.1.01.17 0 .22-.04.05-.04.14-.05.2-.01s.19.07.25.06c-.13.09-.23.21-.24.32-.01.12-.09.25-.18.28a.47.47 0 0 0-.25.25c.11.29.28.35.44.43.29.13.47.23.59.36.12.13.17.04.35.26.18.23.35.66.53.74.18.07.41.02.54-.21.12-.21.21-2.52-.47-2.91" fill="#f09b47"/><path d="M41.95 16.93c-.06 0-.11-.01-.16-.03-.12-.05-.22-.23-.34-.43a2.36 2.36 0 0 0-.2-.31c-.1-.13-.16-.15-.22-.18-.04-.02-.08-.03-.13-.09-.12-.13-.3-.22-.59-.36-.17-.08-.33-.15-.44-.43.04-.12.16-.22.26-.26.08-.03.16-.16.18-.28.01-.08.05-.16.13-.24-.06.08-.11.16-.12.24a.4.4 0 0 1-.18.29.45.45 0 0 0-.25.24c.11.27.26.34.42.41.3.14.49.24.6.37.05.05.09.07.13.09.06.02.12.05.22.18.07.09.13.2.2.31.11.18.22.38.33.42.19.08.42 0 .53-.2.1-.17.16-1.44-.06-2.24-.1-.35-.23-.58-.4-.68a.41.41 0 0 0-.26-.09c.02-.26-.16-.38-.31-.43-.14-.05-.19-.1-.21-.22-.02-.11-.09-.17-.22-.21a.634.634 0 0 1-.29-.23c-.06-.04-.07.01-.09.05-.01.02-.03.06-.04.09-.02.05-.05.1-.06.13 0-.04.02-.09.04-.14.02-.03.03-.07.04-.09.02-.06.04-.1.06-.1.15.16.24.24.33.26.13.04.2.11.23.22.02.11.08.16.21.21.13.04.34.16.31.43.09 0 .18.02.26.09.17.1.31.33.41.68.22.82.16 2.07.06 2.25-.08.19-.22.28-.38.28m-1.46-2.68c-.08 0-.15-.02-.19-.05-.05-.04-.14-.04-.2.01-.04.03-.09.05-.16.05l-.04-.01c.11-.01.15-.02.19-.05.06-.05.16-.05.21-.01.05.04.14.06.21.06h-.02m-.6-.02h-.02c.05-.04.11-.11.11-.16.01-.06.08-.1.22-.1.07 0 .13-.04.18-.09.04-.03.08-.06.13-.07-.02 0-.03-.02-.04-.05 0-.04.01-.08.04-.09-.11-.01-.16-.08-.15-.13 0-.04.03-.07.07-.07-.01-.01-.03-.04-.12-.07l-.05-.05c-.01-.03.02-.08.08-.12-.03-.06-.04-.12 0-.18-.02.07-.02.12.01.19-.05.05-.08.09-.07.12.14.07.16.1.17.12-.03.01-.06.03-.06.06 0 .05.04.11.14.13-.02.02-.03.05-.03.09 0 .02.01.05.05.05h-.01c-.05.01-.09.05-.14.08-.06.04-.12.09-.19.09-.13 0-.21.03-.21.08 0 .08-.08.15-.11.17"/><path d="M42.18 12.8c-.17.18-.39.36-.35.69.04.32.07.85-.23 1.04-.3.18-.45.64-.08.9.36.26.37.59.43.89.06.3.22.54.46.34.24.04.37-.06.37-.25s.01-.3.19-.36.23-.12.31-.29c.08-.16.13-.23.08-.33a.71.71 0 0 1-.03-.44c.04-.15-.05-.22-.1-.31a.402.402 0 0 1-.04-.29c.02-.12-.04-.2-.12-.26-.08-.06-.12-.12-.1-.22.02-.1-.06-.16-.15-.23a.382.382 0 0 1-.16-.31c.01-.15-.27-.49-.48-.57" fill="#f08d80"/><path d="M42.24 16.73c-.13 0-.24-.16-.29-.42l-.02-.12c-.05-.27-.1-.54-.41-.77a.513.513 0 0 1-.22-.43.65.65 0 0 1 .3-.49c.29-.17.27-.67.23-1.03-.03-.29.14-.48.29-.63l.06-.06c.23.09.5.42.5.57 0 .13.05.22.15.31.09.07.17.14.15.24-.02.09.01.15.1.21.1.07.14.16.12.26-.03.13 0 .2.04.29.08.13.13.2.1.32-.04.15-.01.34.03.43.04.09.01.16-.06.29-.1.2-.15.27-.34.33-.18.06-.19.17-.19.36 0 .08-.02.15-.07.19-.07.06-.17.08-.31.06-.05.07-.11.09-.16.09m-.07-3.93l-.05.06c-.16.16-.32.33-.29.62.04.36.06.87-.23 1.04-.17.1-.29.29-.29.48 0 .12.03.28.21.42.32.23.37.51.41.78l.02.12c.07.36.25.5.45.33.15.01.24 0 .3-.06.05-.04.07-.11.07-.19 0-.19.01-.31.2-.37.18-.06.23-.12.31-.28.09-.17.13-.24.08-.32a.782.782 0 0 1-.03-.44c.03-.11-.02-.18-.06-.25-.08-.14-.1-.22-.08-.35.02-.1-.02-.18-.12-.25-.09-.07-.12-.13-.1-.22.02-.09-.06-.15-.14-.22a.388.388 0 0 1-.16-.32c-.01-.16-.28-.49-.5-.58"/><path d="M42.24 16.73c.4-.1.37-.77.31-1.04s-.21-.67-.1-.99c.17-.45-.21-.87-.11-1.04.1-.17.08-.26.07-.31-.01-.05-.1-.1-.11.02-.01.12-.04.16-.11.23s-.05.23 0 .4.17.44-.01.79c-.18.35-.11.51-.04.67.12.25.38 1.13.1 1.27" fill="#f296df"/><path d="M42.19 16.75l.05-.02c.28-.14.01-1.03-.09-1.26-.07-.17-.14-.33.04-.67.16-.32.08-.56.03-.74-.08-.25-.08-.39-.01-.46s.1-.11.11-.22c0-.07.04-.08.05-.08.03 0 .06.03.07.06.01.06.02.16-.07.32-.04.07 0 .17.05.31.07.2.16.46.06.72-.09.25-.01.56.05.8.02.06.03.12.04.18.06.26.11.94-.31 1.05l-.07.01zm.17-3.45c-.02 0-.04.03-.04.07-.01.12-.04.16-.11.23-.06.06-.06.19 0 .4.07.22.15.47-.01.79-.18.34-.11.49-.04.65.1.24.35 1.06.13 1.26.36-.14.31-.78.26-1.02-.01-.06-.03-.12-.04-.18-.07-.25-.15-.56-.05-.81.1-.26.01-.51-.06-.71-.05-.14-.09-.25-.05-.32.1-.18.08-.27.07-.31-.02-.02-.04-.05-.06-.05m-2.01 2.11h-.02v-.01c.05.01.09-.01.12-.06.02-.05.04-.08.1-.08.07 0 .16-.02.18-.07.08-.04.12-.06.16-.13.08-.17.13-.29.28-.33-.13.06-.19.17-.24.28-.07.14-.12.16-.15.17-.07.09-.2.1-.23.1-.05 0-.07.02-.08.06-.04.05-.08.07-.12.07m.21-1.16c.03-.05.1-.08.16-.11.08-.04.16-.08.18-.13-.02.06-.09.1-.18.14-.06.03-.12.07-.16.1m.25-.41c-.03 0-.06 0-.1-.01-.05-.01-.11-.01-.16-.01v-.01c.05 0 .11 0 .16.01.08.01.15.01.16-.01 0 .02-.03.03-.06.03m.49 0c.03-.08.11-.17.31-.17v.01c-.19 0-.27.08-.31.16m-.09-.08c.01-.05-.01-.07-.03-.1-.02-.03-.06-.07-.04-.15.03-.12.03-.13-.07-.16-.06-.02-.06-.05-.05-.1 0-.05 0-.1-.07-.15-.03-.02-.04-.06-.05-.08-.01-.04-.02-.09-.11-.12v-.01c.1.03.11.08.12.13.01.03.01.05.04.08.07.05.07.11.07.16 0 .04 0 .07.05.08.11.03.11.06.08.18-.02.07.01.1.03.14.03.03.05.05.03.1"/><path d="M45.1 18.04c.07.1 0 .21.11.25.13.05.02.23.18.29.14.06 0 .23.15.3.14.07-.02.23.16.32s-.04.3.1.38c.14.08-.04.29.11.37.16.08-.07.24.08.35.15.11-.03.29.11.39.15.1-.09.24.06.39.11.12-.04.23.05.4.06.11-.06.57-.38.53-.11.19-.56.36-.72.31-.16.11-.67.27-.94.02-.26.25-.78.09-.93-.02-.16.06-.6-.12-.72-.31-.32.04-.43-.41-.38-.53.09-.17-.07-.29.05-.4.15-.15-.09-.29.06-.39.15-.1-.03-.28.11-.39.15-.11-.08-.27.08-.35.16-.08-.02-.29.11-.37.14-.08-.08-.28.1-.38.18-.09.02-.25.16-.32.15-.08.01-.25.15-.3.16-.06.04-.24.18-.29.12-.04.04-.15.12-.25.36.12 1.41.22 1.84 0" fill="#44a82f"/><path d="M44.57 22.47c-.17 0-.3-.05-.39-.13-.2.21-.75.11-.93-.02-.09.05-.43-.06-.61-.2.2.13.5.23.62.18.16.11.72.24.93.03.23.2.75.11.94-.02.2.05.61-.12.72-.31.18 0 .26-.09.31-.16.08-.13.1-.29.07-.35a.284.284 0 0 1-.01-.22c.01-.06.03-.12-.03-.18-.08-.08-.05-.15-.03-.22.02-.07.04-.12-.03-.17-.08-.05-.07-.13-.06-.2.01-.07.02-.14-.05-.19-.08-.06-.06-.13-.04-.19.02-.07.03-.12-.04-.16-.09-.04-.08-.12-.07-.2.01-.07.02-.13-.05-.17-.07-.04-.05-.11-.04-.17.02-.08.03-.15-.06-.2-.1-.05-.1-.12-.1-.19 0-.06 0-.1-.06-.13-.08-.04-.08-.11-.08-.17 0-.06 0-.11-.07-.13-.09-.04-.1-.1-.1-.16-.01-.06-.01-.1-.07-.13-.07-.03-.08-.08-.08-.13 0-.04-.01-.08-.04-.12-.21.11-.55.14-.8.14-.39 0-.82-.06-1.02-.14-.02.04-.03.08-.03.12-.01.05-.01.1-.08.13-.06.02-.07.07-.07.13-.01.06-.01.13-.1.16-.07.03-.07.08-.07.13 0 .06 0 .13-.09.17-.06.03-.06.08-.06.13 0 .06 0 .14-.1.19-.09.05-.08.13-.06.2.01.07.03.14-.04.17-.06.04-.06.1-.05.17.01.08.02.15-.07.2-.07.04-.06.09-.04.16.02.06.04.14-.04.19-.07.06-.06.12-.05.19.01.07.02.14-.06.2-.07.05-.05.1-.03.16.02.07.05.14-.03.22-.06.06-.04.11-.03.18.01.06.03.14-.01.22-.03.06-.01.23.07.35.04.07.13.16.26.16l-.03.01a.3.3 0 0 1-.27-.16c-.08-.13-.1-.3-.07-.37a.26.26 0 0 0 .01-.21c-.01-.07-.03-.13.04-.19.07-.07.05-.14.02-.21-.02-.07-.04-.13.03-.18.07-.05.06-.12.06-.18-.01-.07-.02-.14.06-.2.07-.05.05-.12.03-.18-.02-.07-.04-.13.05-.17.08-.04.07-.11.06-.18-.01-.07-.02-.14.05-.18.06-.04.05-.09.03-.16-.02-.08-.03-.16.07-.21.09-.05.09-.11.09-.17 0-.06 0-.11.07-.15.07-.04.08-.1.08-.16s0-.12.08-.15.09-.09.09-.15c.01-.05.01-.11.08-.14.06-.02.07-.07.07-.12 0-.04.01-.09.04-.13.21.08.64.14 1.03.14.25 0 .59-.02.8-.13.04.04.04.09.05.13.01.05.01.1.07.12.07.03.08.08.08.14.01.06.01.12.09.15.07.03.07.09.08.15 0 .06 0 .12.08.16.07.04.07.09.07.15s0 .13.09.17c.1.05.08.14.07.21-.01.07-.03.13.03.16.07.04.06.11.05.18-.01.07-.02.15.06.18.09.04.07.11.05.17-.02.06-.04.13.03.18.08.06.07.13.06.2-.01.07-.02.13.06.18.08.05.05.11.03.18-.02.07-.05.13.03.21.06.06.05.12.03.19-.01.06-.03.13.01.21.03.07.01.24-.07.37-.03.06-.12.15-.26.15-.16.18-.61.36-.76.31-.1.07-.33.16-.55.16"/><path d="M43.41 18.63c0 .05 0 .1-.05.17-.1.14.05.21-.07.35-.11.15.02.24-.1.37-.13.13.02.24-.1.38-.13.14.02.23-.1.35-.13.13.02.26-.1.39-.13.13.02.29-.11.43-.14.15.02.26-.09.38s-.01.23-.09.31c.14-.1.14-.26.24-.34.1-.08-.03-.19.02-.25.06-.06.01-.3.11-.41.1-.11.01-.34.1-.42.09-.08.02-.32.14-.4.11-.08 0-.27.09-.38.09-.1 0-.26.09-.39s0-.24.07-.34c.02-.05.02-.38-.05-.2" fill="#f2c227"/><path d="M42.59 21.76l-.01-.01c.03-.03.03-.08.03-.12 0-.06 0-.12.06-.19.05-.05.04-.1.04-.16-.01-.06-.02-.13.05-.21.07-.07.06-.15.06-.23-.01-.07-.01-.15.05-.21.06-.06.05-.12.05-.19-.01-.07-.01-.13.05-.2.06-.06.06-.11.05-.17-.01-.06-.01-.12.05-.18.06-.07.06-.13.05-.19-.01-.06-.01-.13.05-.19.06-.06.06-.12.05-.17 0-.06-.01-.12.05-.19.06-.07.05-.13.04-.18-.01-.05-.02-.1.03-.17.05-.06.05-.11.05-.16v-.01l.04-.06c.04.05.03.22.01.26-.03.04-.03.09-.02.15 0 .06.01.13-.04.2-.04.06-.04.13-.04.2s0 .14-.05.19c-.04.05-.04.12-.04.18 0 .07.01.15-.06.2-.06.04-.07.13-.08.21-.01.08-.02.15-.06.19-.04.04-.04.11-.04.19 0 .09 0 .18-.06.24s-.07.17-.08.26c-.01.07-.01.13-.04.15-.02.02-.01.05 0 .09.02.05.04.11-.02.16-.05.04-.07.09-.1.15-.01.04-.04.11-.12.17m.86-3.17c-.04.1-.04.15-.09.22-.05.06-.04.11-.03.16.01.05.02.11-.04.19-.05.07-.05.13-.05.18 0 .06.01.11-.06.18-.06.06-.06.12-.05.18.01.06.01.13-.05.2a.19.19 0 0 0-.05.18c.01.06.01.11-.05.18-.06.06-.06.12-.05.19.01.07.01.13-.05.2-.06.06-.06.13-.05.2.01.08.01.16-.06.24-.07.07-.06.14-.05.2.01.06.02.12-.04.17-.06.06-.06.12-.06.18 0 .03 0 .06-.01.09a.47.47 0 0 0 .1-.16c.03-.06.05-.11.1-.15.05-.04.04-.09.02-.14-.01-.04-.03-.08 0-.11.02-.02.03-.08.03-.15.01-.09.02-.2.08-.26.05-.06.05-.14.06-.23 0-.08 0-.15.05-.2.04-.04.05-.1.06-.18.01-.09.02-.18.08-.22.06-.04.05-.11.05-.19 0-.07-.01-.14.04-.19.04-.05.04-.11.04-.18 0-.07 0-.14.05-.21.05-.07.04-.13.04-.19 0-.05-.01-.1.02-.15.04-.03.05-.2.02-.23"/><path d="M43.74 18.78c-.08.15.06.18-.05.33-.1.15.06.26-.06.41-.11.15.06.23-.04.38s.04.23-.05.34c-.09.11.07.23-.05.36-.11.14.05.24-.05.37s.03.26-.05.37c-.08.1.06.25-.06.39-.11.14.02.23-.05.32.14-.04.09-.24.14-.27.05-.04-.02-.3.06-.37s-.05-.28.02-.37c.13-.15.02-.26.09-.38.07-.12-.03-.27.03-.35.1-.14-.04-.26.03-.36.1-.14-.02-.26.05-.35.11-.14-.01-.29.03-.36.08-.09.15-.41.01-.46" fill="#f2c227"/><path d="M43.29 22.05l.01-.02c.03-.04.02-.08.01-.12-.01-.06-.03-.12.04-.2.06-.07.05-.15.04-.22-.01-.06-.02-.12.02-.17.04-.05.03-.1.02-.16-.01-.07-.02-.14.03-.2.04-.06.03-.11.01-.16-.01-.06-.03-.13.03-.2s.04-.13.03-.2c-.01-.06-.03-.11.02-.17.04-.05.03-.1.02-.15-.01-.06-.03-.12.03-.2.05-.07.03-.13.02-.18-.02-.06-.03-.12.03-.2.06-.07.04-.14.03-.2-.01-.06-.03-.13.03-.21.05-.07.04-.12.03-.17a.193.193 0 0 1 .02-.16c.04.01.07.04.08.08.04.12-.01.32-.05.38-.02.03-.01.07 0 .11.01.07.03.16-.03.25-.03.04-.02.08-.02.14.01.07.02.14-.04.22-.03.04-.02.09-.01.15s.03.14-.02.21c-.03.04-.02.09-.01.14.01.07.02.14-.02.21-.03.05-.03.1-.03.15 0 .07.01.14-.07.23-.04.04-.02.12-.01.19.01.08.03.15-.02.18-.04.04-.04.13-.04.22 0 .07 0 .13-.02.15-.02.01-.02.05-.03.09-.01.07-.02.16-.11.19h-.02zm.45-3.27a.2.2 0 0 0-.01.15c.01.05.02.1-.03.18-.05.07-.04.13-.02.2.01.07.03.14-.03.21-.06.07-.04.13-.03.19.02.06.03.11-.02.19s-.04.13-.02.19c.01.05.02.1-.02.16-.04.05-.03.1-.02.16.02.06.03.13-.03.21-.06.07-.04.13-.03.19.01.05.03.11-.02.18-.05.06-.03.13-.02.19.01.06.02.12-.02.17-.04.04-.03.1-.02.16.01.07.02.15-.04.23-.06.07-.05.13-.03.19.01.04.02.08 0 .11.07-.03.08-.11.08-.17.01-.04.01-.08.03-.1.02-.02.02-.08.02-.14 0-.09 0-.19.04-.23.04-.03.02-.1.01-.17s-.03-.15.01-.2c.07-.08.07-.15.06-.22 0-.05-.01-.1.03-.16s.03-.14.02-.2c-.01-.06-.02-.11.01-.15.05-.07.03-.14.02-.2-.01-.06-.03-.11.01-.16.06-.08.04-.15.03-.21-.01-.05-.02-.1.02-.15.06-.08.05-.17.03-.24-.01-.05-.02-.09 0-.12.03-.05.08-.25.04-.36 0-.04-.02-.07-.05-.08"/><path d="M44.19 18.9c-.08.2.06.28.01.44-.04.16.06.28-.01.45-.07.17.09.3 0 .53-.09.22.06.28 0 .5-.07.26.11.39 0 .58-.11.18.13.24.01.43-.06.09.01.33.1.04.09-.28-.07-.31.01-.43.08-.11-.03-.42.01-.58.04-.16-.08-.38-.01-.55.07-.17-.11-.36-.04-.5.07-.15-.03-.33.03-.45.07-.12-.05-.28-.02-.35.03-.05-.03-.3-.09-.11" fill="#f2c227"/><path d="M44.21 22.02l-.03-.02a.205.205 0 0 1 .01-.17c.06-.09.03-.15-.01-.21-.03-.06-.06-.13-.01-.22.06-.09.04-.17.01-.27-.02-.09-.05-.18-.01-.31.03-.1.01-.17-.01-.24-.02-.08-.04-.15.01-.27.05-.12.03-.21 0-.3-.02-.08-.04-.15 0-.23.04-.09.02-.17.01-.24a.493.493 0 0 1 0-.21c.02-.07 0-.12-.01-.18-.02-.07-.04-.14 0-.26.02-.05.03-.08.05-.08.05.06.07.17.05.21-.01.03 0 .07.02.12.02.07.05.16.01.23-.03.06-.02.13-.01.21.01.08.02.17-.02.25-.04.07-.01.15.02.24s.06.18.02.27c-.04.1-.02.21-.01.31.01.08.03.16.01.23-.02.07 0 .16.01.26.01.13.03.25-.01.32-.03.05-.02.08-.01.13.02.06.05.14 0 .3-.03.08-.06.13-.09.13m.02-3.18c-.02 0-.03.02-.04.06-.04.11-.02.18 0 .25.02.06.03.12.01.19-.02.07-.01.13 0 .2.01.08.02.16-.01.25-.03.08-.01.15.01.22.02.09.04.18-.01.31-.05.12-.03.19-.01.26.02.07.04.13.01.24a.59.59 0 0 0 .01.3c.02.1.05.18-.01.28-.05.09-.02.14.01.21.03.06.07.13.01.23-.03.04-.03.12-.01.15l.02.01c.01 0 .04-.01.08-.13.05-.15.02-.23 0-.29-.02-.05-.03-.09.01-.14.04-.06.03-.19.01-.31-.01-.1-.02-.19-.01-.26s0-.15-.01-.23c-.02-.11-.04-.22.01-.32.04-.08.01-.17-.02-.26-.03-.08-.06-.17-.02-.24.04-.07.03-.16.02-.24-.01-.08-.02-.15.02-.21.04-.07.01-.15-.01-.22-.01-.05-.03-.1-.01-.13.02-.04 0-.14-.02-.18h-.04"/><path d="M45.04 18.17c0-1.29-.18-1.73-.86-1.73-.67 0-.86.45-.86 1.73h1.72z" fill="#db0037"/><path d="M44.19 22.33c.02-.1 0-.17-.01-.24a.338.338 0 0 1 .01-.26c.04-.1.01-.16-.01-.22-.03-.06-.06-.12 0-.22.06-.09.04-.17.01-.27-.02-.09-.05-.18-.01-.31.03-.1.01-.17-.01-.23-.02-.08-.04-.15.01-.27.05-.12.03-.21 0-.3-.02-.08-.04-.15 0-.23.04-.09.02-.17.01-.24-.01-.07-.02-.13 0-.21.02-.07.01-.12-.01-.18a.382.382 0 0 1 0-.26c.04-.1.02-.21.01-.32a.91.91 0 0 1-.01-.33h.01c-.03.11-.01.22.01.32.02.11.04.22-.01.33-.04.11-.02.18 0 .25a.3.3 0 0 1 .01.19c-.02.07-.01.13 0 .2.01.08.03.15-.01.25-.03.08-.01.15 0 .22.02.09.05.18 0 .31-.05.12-.03.19-.01.26.02.07.04.13.01.24a.59.59 0 0 0 .01.3c.02.1.04.18-.02.28-.05.09-.03.14 0 .2s.06.13.01.23c-.05.1-.03.17-.01.25.03.09.05.16.01.26m.97-.07c0-.06-.05-.16-.1-.22-.03-.04-.02-.08-.01-.13.01-.06.03-.12-.03-.19-.06-.08-.05-.16-.04-.23.01-.06.02-.11-.02-.16s-.03-.11-.02-.17c.01-.07.02-.13-.03-.19-.04-.06-.03-.12-.02-.18.01-.06.03-.12-.03-.19s-.04-.14-.03-.21c.01-.05.03-.11-.01-.16-.05-.06-.03-.11-.02-.16.01-.05.03-.11-.02-.19-.05-.07-.04-.13-.02-.19s.03-.11-.03-.19a.209.209 0 0 1-.03-.21c.01-.07.02-.13-.02-.2-.06-.08-.04-.13-.03-.18.01-.04.02-.09-.01-.16-.04-.07-.02-.12-.01-.17.01-.05.03-.09-.02-.15s-.04-.11-.02-.16c.01-.04.02-.07.01-.12h-.79c-.01.04 0 .08.01.12.01.05.03.1-.02.16s-.04.1-.02.15c.01.04.03.09-.01.17-.04.07-.03.11-.01.16.01.05.02.1-.03.18-.05.07-.04.13-.02.2.01.07.03.14-.03.21-.06.07-.04.13-.02.19.01.06.03.12-.02.19-.05.08-.04.13-.02.19.01.05.02.1-.02.16-.04.05-.03.1-.01.16.01.06.03.13-.03.21-.06.07-.04.13-.03.19.01.05.03.11-.02.18-.05.06-.04.13-.02.19.01.06.02.12-.02.17-.04.04-.03.1-.02.16.01.07.02.15-.04.23-.06.07-.05.13-.03.19.01.05.02.09-.01.13-.05.06-.1.16-.08.22-.03-.06.02-.16.07-.22.03-.04.02-.07.01-.12-.01-.06-.03-.12.04-.2.06-.07.05-.15.04-.22-.01-.06-.02-.12.02-.17.04-.05.03-.1.02-.16-.01-.07-.02-.14.03-.2.04-.06.03-.11.01-.16-.01-.06-.03-.13.03-.2s.04-.13.03-.19c-.01-.06-.03-.11.02-.17.04-.05.03-.1.02-.15-.01-.05-.03-.12.03-.2.05-.07.03-.13.02-.18-.02-.06-.03-.12.03-.2.06-.07.04-.14.03-.2-.01-.06-.03-.13.03-.21.05-.07.04-.12.03-.17a.193.193 0 0 1 .02-.16c.04-.07.02-.11.01-.16-.02-.05-.03-.09.03-.16.05-.06.03-.1.02-.15-.01-.04-.02-.08-.01-.12h-.25v.07c0 .06.01.12-.05.19-.07.08-.07.13-.07.19 0 .05 0 .11-.05.18-.05.06-.04.11-.03.16.01.05.02.11-.04.19-.06.07-.05.13-.05.18.01.06.01.12-.06.18-.06.06-.06.12-.05.18.01.06.01.13-.05.2a.19.19 0 0 0-.05.18c.01.05.01.11-.05.18-.06.06-.06.12-.05.19.01.06.01.14-.05.2-.06.06-.06.13-.05.2 0 .08.01.16-.06.24-.07.07-.06.14-.05.2.01.06.02.12-.04.17-.06.06-.06.12-.06.18 0 .05 0 .09-.03.13-.08.08-.09.18-.06.23-.05-.05-.03-.16.05-.24.04-.04.03-.08.03-.12 0-.06 0-.12.06-.19.05-.05.05-.1.04-.16-.01-.06-.02-.14.06-.22.07-.07.06-.15.06-.22-.01-.07-.01-.15.05-.21.06-.06.06-.12.05-.19-.01-.07-.01-.13.05-.2.06-.06.06-.11.05-.17a.208.208 0 0 1 .05-.19c.06-.07.06-.13.05-.19-.01-.06-.01-.13.05-.19.06-.06.06-.12.05-.17a.208.208 0 0 1 .05-.19c.06-.07.05-.13.04-.18-.01-.05-.02-.1.03-.17.05-.06.05-.11.05-.17 0-.06 0-.12.07-.2.06-.07.05-.13.05-.19v-.07h-.19c-.01-1.34.19-1.75.86-1.75.66 0 .86.41.86 1.74l-.01.01h-.19v.07c-.01.06-.01.11.05.19.07.08.07.14.07.2 0 .05 0 .1.05.17s.04.12.03.17c-.01.05-.02.11.04.18.06.08.05.14.05.19 0 .06-.01.11.05.17.06.07.06.13.05.19-.01.06-.01.12.05.19.06.07.06.13.05.19-.01.05-.01.1.05.17.07.07.06.13.05.2-.01.07-.01.13.05.19.06.06.06.13.05.21-.01.07-.01.15.06.22.07.08.06.15.05.22-.01.06-.02.11.04.16.07.06.06.13.06.19 0 .05 0 .09.03.12.08.08.09.2.06.25.02-.06.01-.16-.07-.24-.04-.04-.04-.09-.03-.13 0-.06 0-.12-.06-.18s-.05-.11-.04-.17c.01-.06.02-.13-.05-.2-.07-.08-.07-.16-.06-.24.01-.07.01-.14-.05-.2-.07-.06-.06-.13-.05-.2.01-.07.01-.13-.05-.19a.19.19 0 0 1-.05-.18.19.19 0 0 0-.05-.18c-.07-.07-.06-.13-.05-.2.01-.06.01-.12-.05-.18-.07-.07-.06-.12-.06-.18s.01-.11-.05-.18a.208.208 0 0 1-.04-.19c.01-.05.02-.1-.03-.16-.05-.07-.05-.12-.05-.18s0-.11-.06-.19a.192.192 0 0 1-.05-.19v-.07h-.25c.01.05 0 .09-.01.12-.01.05-.03.09.02.15.06.07.04.11.03.16-.01.04-.03.09.01.16s.03.12.02.16c-.01.05-.02.09.03.17.05.08.04.14.03.21-.01.07-.03.13.03.2.06.08.04.14.03.2-.02.05-.03.11.02.18.05.08.04.14.03.2-.01.05-.02.09.02.15s.03.11.02.17c-.01.06-.03.13.03.19.06.07.05.14.03.2-.01.05-.03.11.02.16.05.07.04.14.03.2-.01.06-.02.12.02.16.04.05.03.11.02.17-.01.07-.02.15.04.22.07.08.05.15.04.2-.01.04-.02.08.01.12-.08.06-.03.16-.04.22m-.97-5.82c-.65 0-.85.4-.85 1.73h.19c0-.04.02-.07.05-.11l.01.01c-.03.03-.05.07-.05.1h.25l.03-.06.01.01c-.01.02-.02.04-.03.05h.78c-.01-.02-.01-.03-.03-.05l.01-.01c.01.02.03.04.03.06h.25c0-.03-.02-.06-.05-.09l.01-.01c.04.04.05.07.05.1h.19c0-1.33-.2-1.73-.85-1.73"/><path d="M43.33 18.17c0-1.29.18-1.73.86-1.73-.31 0-.5.24-.55.4-.05.16-.02.15.04.09.07-.06.03.07-.02.15-.06.07-.11.29-.03.22.08-.07.14.01.06.13-.08.12-.16.4-.07.3.08-.1.1.06.05.14-.05.08-.05.15 0 .12.05-.04.04.13-.01.19h-.33z"/><path d="M43.66 18.18h-.33c-.01-1.34.2-1.75.86-1.75a.61.61 0 0 0-.54.41c-.03.09-.03.11-.02.12.01 0 .05-.03.06-.04.01 0 .01 0 .02.01-.05.04-.06.04-.07.04-.02-.02-.02-.04.01-.14.05-.15.23-.38.51-.4-.62.03-.81.44-.81 1.74l.32-.01c.02-.03.03-.08.03-.12 0 .05-.02.1-.04.14zm-.08-.43c-.03-.05.03-.24.1-.33.03-.05.04-.09.04-.11.01.04 0 .07-.03.12-.07.1-.12.28-.11.31l.08-.05c.01.01.01.01.02.03l-.1.03zM44.91 18.1c0-1.01-.13-1.31-.38-1.42-.14-.06-.15-.05-.08.05.07.09.06.22-.01.13s-.08-.11-.11-.07c-.03.04.07.23.15.4.06.14.02.21-.07.07-.09-.14-.09-.01-.01.1.1.15.1.6.1.79l.41-.05z"/><path d="M44.5 18.15v-.02c0-.2 0-.62-.1-.77-.05-.07-.07-.14-.05-.16.03-.01.05.01.08.05.04.07.07.07.07.07.02-.02.01-.07-.01-.14l-.05-.12c-.07-.16-.11-.25-.09-.28.01 0 .02-.01.03-.01-.03.05.02.17.07.29l.05.12c.03.07.04.12.02.14-.04.01-.08-.03-.1-.07-.04-.05-.05-.06-.05-.06-.01.02.01.09.05.15.1.15.1.57.1.77v.01l.4-.05c-.01-1.05-.14-1.31-.38-1.4-.06-.02-.09-.04-.11-.04-.01.01.02.06.04.07.04.05.06.13.04.16-.01-.01-.03-.02-.04-.03.04-.01.02-.07-.01-.12-.04-.05-.05-.07-.04-.08.03-.01.07 0 .13.03.24.1.38.36.38 1.42l-.43.07z"/><path d="M44.19 18.36c.27 0 .56-.05.76-.13.23-.09.25-.17.17-.27-.06-.07-.18-.03-.3.02s-.45.09-.62.09c-.17 0-.5-.03-.62-.09-.12-.05-.24-.09-.3-.02-.08.1-.07.18.17.27.17.08.47.13.74.13" fill="#db0037"/><path d="M44.19 18.37c-.27 0-.56-.05-.76-.13-.13-.05-.2-.1-.21-.15-.01-.04 0-.08.04-.13.05-.07.19-.03.31.02s.45.08.62.08c.17 0 .5-.03.62-.08.11-.05.26-.09.31-.02.04.05.05.09.04.13-.01.06-.08.1-.21.15-.2.08-.49.13-.76.13m-.84-.44c-.04 0-.07.01-.09.04-.04.04-.05.08-.04.12.01.05.08.1.2.15.4.15 1.11.15 1.51 0 .13-.05.19-.1.2-.15.01-.03 0-.07-.04-.12-.05-.06-.18-.02-.29.02-.12.05-.45.09-.63.09-.17 0-.5-.03-.62-.09a.51.51 0 0 0-.2-.06"/><path d="M46.79 16.65s.18.31.3.53c.13.22.23.27.33.21.09-.06.01-.25-.06-.33-.08-.09-.49-.49-.49-.49l-.08.08z" fill-rule="evenodd" clip-rule="evenodd" fill="#ab582a"/><path d="M47.34 17.42c-.08 0-.16-.08-.26-.24l-.3-.52.09-.1c.01 0 .42.4.5.49.06.07.11.18.1.26-.01.03-.02.06-.04.08-.03.02-.06.03-.09.03m-.47-.85l-.07.09.3.52c.09.15.17.23.24.23.02 0 .05-.01.07-.02.02-.02.03-.04.04-.07.01-.08-.04-.19-.1-.25-.07-.1-.48-.5-.48-.5"/><path d="M46.75 16.67a7447757648895881 7447757648895881 0 0 0 .41.58c-.04-.11-.3-.63-.3-.63l-.11.05z" fill-rule="evenodd" clip-rule="evenodd" fill="#ab582a"/><path d="M47.07 17.6c-.1 0-.17-.11-.21-.32l-.12-.6.11-.06c.01 0 .27.53.31.63.04.08.05.21.01.29-.01.03-.04.05-.07.06h-.03zm-.22-.97l-.1.06.12.59c.04.21.11.31.2.31v.01l.04-.01c.03-.01.04-.02.06-.05a.42.42 0 0 0-.01-.27c-.05-.12-.31-.64-.31-.64"/><path d="M46.67 16.69v.62c0 .26.06.36.18.36.11-.01.13-.2.11-.32-.02-.11-.17-.68-.17-.68l-.12.02z" fill-rule="evenodd" clip-rule="evenodd" fill="#ab582a"/><path d="M46.84 17.66c-.12 0-.18-.12-.18-.36v-.62l.12-.04c.01 0 .16.57.18.69.02.09.01.22-.04.29-.01.03-.04.04-.08.04zm-.06-1l-.11.03v.61c0 .23.05.35.16.35v.01l.01-.01c.02 0 .05-.01.06-.04.05-.06.06-.18.04-.27-.01-.11-.16-.68-.16-.68"/><path d="M46.67 16.68c.32 0 .36-.12.36-.12s.07-.24.04-.3c-.04-.06-.39-.06-.39-.06v.48z" fill-rule="evenodd" clip-rule="evenodd" fill="#ab582a"/><path d="M46.66 16.69v-.5c.05-.01.37-.01.41.06.04.06-.03.29-.04.31 0 0-.04.12-.37.13zm.01-.49l.01.47c.3-.01.34-.11.34-.11.02-.07.07-.25.04-.3-.03-.04-.25-.06-.39-.06"/><path d="M46.67 16.44c.35 0 .4-.12.4-.12s.12-.24.06-.31c-.06-.06-.46-.06-.46-.06v.49z" fill-rule="evenodd" clip-rule="evenodd" fill="#ab582a"/><path d="M46.67 16.44l-.01-.49c.02-.01.41-.01.47.06.06.06-.05.3-.06.31.01 0-.05.12-.4.12m0-.48l.01.47c.33 0 .39-.12.39-.12.03-.07.1-.25.06-.3s-.35-.05-.46-.05"/><path d="M46.67 16.19c.29 0 .46-.12.46-.12s.11-.24.06-.3c-.06-.06-.52-.06-.52-.06v.48z" fill-rule="evenodd" clip-rule="evenodd" fill="#ab582a"/><path d="M46.67 16.2l-.01-.49c.06-.01.47-.01.53.06.06.06-.05.3-.06.31.01 0-.17.12-.46.12m0-.48l.01.47c.28 0 .45-.12.45-.12.03-.06.1-.25.06-.29-.05-.05-.36-.06-.52-.06"/><path d="M46.87 13.95s.29-.3.79-.61c.5-.3.86-.54.93-.49 0 .06-.43.37-.79.61-.36.24-.79.61-.79.61l-.14-.12z" fill-rule="evenodd" clip-rule="evenodd" fill="#ab582a"/><path d="M47.01 14.08l-.15-.13c0-.01.29-.32.79-.62l.17-.11c.37-.22.64-.39.73-.39v.01c-.12.01-.38.17-.73.38l-.17.11c-.49.3-.78.6-.79.61l.14.11c.04-.04.45-.38.78-.6.45-.31.65-.46.73-.54-.09.1-.34.28-.72.55-.34.25-.77.61-.78.62z"/><path d="M46.9 14.19s.28-.18.82-.43c.53-.22 1.29-.18 1.29-.12-.07.06-.72.06-1.14.24-.41.17-.83.42-.83.42l-.14-.11z" fill-rule="evenodd" clip-rule="evenodd" fill="#ab582a"/><path d="M47.04 14.32l-.14-.12c0-.01.29-.19.83-.44.38-.16.84-.17.97-.17.03 0 .33 0 .33.05-.03.03-.14.05-.3.06-.25.03-.59.07-.85.19-.41.18-.83.43-.84.43zm1.65-.71c-.13 0-.58.01-.96.17-.54.24-.82.42-.82.42l.14.11c.04-.02.44-.26.82-.42.26-.11.6-.15.85-.18.15-.02.27-.03.29-.06 0-.02-.1-.04-.32-.04"/><path d="M46.9 14.61s.25-.12.82-.3 1.33-.06 1.33 0c-.07.06-.69.02-1.12.12-.44.1-.9.3-.9.3l-.13-.12z" fill-rule="evenodd" clip-rule="evenodd" fill="#ab582a"/><path d="M47.05 14.74l-.15-.13c0-.01.26-.13.83-.31.25-.08.52-.1.71-.1.31 0 .63.05.63.1-.04.03-.18.04-.38.05-.23.01-.51.02-.74.07-.44.11-.9.32-.9.32zm1.38-.52c-.18 0-.45.02-.7.1-.57.18-.82.3-.82.3l.14.11c.04-.02.47-.21.89-.31.23-.05.51-.06.74-.08.18-.01.34-.02.38-.04-.01-.02-.27-.08-.63-.08"/><path d="M46.93 15.04s.29-.24.9-.3c.62-.06 1.12.3 1.12.36-.07.06-.64-.27-1.07-.22-.45.05-.8.28-.8.28l-.15-.12z" fill-rule="evenodd" clip-rule="evenodd" fill="#ab582a"/><path d="M47.07 15.17l-.15-.12c0-.01.3-.26.9-.32.62-.05 1.12.31 1.12.37-.08.01-.17-.02-.29-.06-.22-.08-.53-.19-.79-.16-.44.05-.78.28-.79.29zm.9-.44c-.05 0-.09 0-.14.01-.6.06-.89.3-.89.3l.14.11c.04-.02.37-.23.8-.28.26-.02.57.08.79.16.11.04.2.07.25.07.02-.05-.39-.37-.95-.37"/><path d="M46.67 15.89c.52-.01.52-.16.52-.16s.11-.24.06-.31c-.06-.06-.58-.02-.58-.02v.49z" fill-rule="evenodd" clip-rule="evenodd" fill="#ab582a"/><path d="M46.67 15.9v-.5c.01-.01.15-.02.3-.02.25 0 .28.03.29.04.06.06-.05.3-.06.31 0 .01-.01.16-.53.17zm.3-.5c-.15 0-.29.01-.29.01l.01.47c.5-.01.51-.15.51-.15.03-.07.1-.25.06-.3-.03-.01-.08-.03-.29-.03"/><path d="M46.67 15.65c.52-.01.58-.12.58-.12s.12-.24.06-.31c-.06-.06-.63-.06-.63-.06v.49z" fill-rule="evenodd" clip-rule="evenodd" fill="#ab582a"/><path d="M46.67 15.65v-.49c.03-.01.59-.01.65.06.06.06-.05.3-.06.31-.01 0-.07.12-.59.12zm0-.48l.01.47c.5-.01.56-.12.56-.12.03-.07.1-.25.06-.29-.04-.05-.47-.06-.63-.06"/><path d="M46.67 15.34c.52-.01.63-.12.63-.12s.12-.24.06-.3-.69-.06-.69-.06v.48z" fill-rule="evenodd" clip-rule="evenodd" fill="#ab582a"/><path d="M46.67 15.35v-.49c.07-.01.65-.01.7.06.06.06-.05.3-.06.31 0 0-.12.11-.64.12zm0-.49l.01.47c.5-.01.62-.12.62-.12.03-.07.1-.25.06-.29-.05-.05-.51-.06-.69-.06"/><path d="M46.67 15.04c.52 0 .69-.12.69-.12s.06-.24 0-.31c-.06-.06-.69-.06-.69-.06v.49z" fill-rule="evenodd" clip-rule="evenodd" fill="#ab582a"/><path d="M46.67 15.04v-.49c.07-.01.65-.01.7.06.06.06.01.3 0 .31-.01.01-.18.12-.7.12zm0-.48l.01.47c.51 0 .68-.12.68-.12s.05-.24 0-.29c-.05-.05-.51-.06-.69-.06"/><path d="M46.79 13.7s.46-.3.46-.55c0-.24-.2-.49-.26-.61.11 0 .38.37.38.61 0 .27-.43.67-.43.67l-.15-.12z" fill-rule="evenodd" clip-rule="evenodd" fill="#ab582a"/><path d="M46.93 13.83l-.15-.13c.01-.01.46-.31.46-.55 0-.18-.11-.36-.19-.49-.03-.04-.05-.09-.07-.12.12-.01.39.37.39.6 0 .28-.42.67-.44.69zm.06-1.28c.02.02.04.06.07.1.08.13.2.31.2.5 0 .24-.44.54-.46.55l.14.11c.04-.04.43-.41.43-.66-.01-.24-.27-.6-.38-.6"/><path d="M46.79 13.7s-.06-.18-.06-.55c0-.42.25-.69.35-.79.02.09-.23.43-.23.79 0 .27.09.67.09.67l-.15-.12z" fill-rule="evenodd" clip-rule="evenodd" fill="#ab582a"/><path d="M46.94 13.84l-.16-.13s-.06-.19-.06-.55c0-.29.12-.56.35-.79.02.04-.01.12-.06.21-.07.15-.16.36-.16.58 0 .26.08.66.09.67v.01zm.13-1.47c-.22.24-.33.5-.33.79 0 .36.06.54.06.55l.13.1c-.02-.08-.08-.42-.08-.65 0-.22.1-.43.16-.59.04-.1.07-.17.06-.2"/><path d="M46.67 14.73c.52-.01.69-.12.69-.12s0-.24-.06-.3-.63-.06-.63-.06v.48z" fill-rule="evenodd" clip-rule="evenodd" fill="#ab582a"/><path d="M46.67 14.74v-.5c.03-.01.59-.01.65.06.06.06.06.3.06.31-.02.01-.19.13-.71.13zm0-.49l.01.47c.5-.01.68-.12.68-.12s0-.24-.06-.29c-.04-.04-.47-.06-.63-.06"/><path d="M46.67 14.43c.52 0 .63-.12.63-.12s0-.24-.06-.31c-.06-.06-.58-.06-.58-.06v.49z" fill-rule="evenodd" clip-rule="evenodd" fill="#ab582a"/><path d="M46.67 14.44v-.49c.03-.01.53-.01.59.06.06.06.06.3.06.31-.01 0-.13.11-.65.12zm0-.49l.01.47c.5 0 .62-.12.62-.12s0-.24-.06-.29c-.04-.05-.42-.06-.57-.06"/><path d="M48.17 18.08c-.18-.42-.23-1.15-.23-1.28 0-.34.11-2.01.12-2.67.01-.67-.4-1.03-.81-1.03-.35 0-.58.24-.58.61h.17c0-.24.17-.43.4-.43.35 0 .61.29.63.85.02.65-.07 2.34-.06 2.8.03.45.18.85.36 1.15" fill-rule="evenodd" clip-rule="evenodd" fill="#ab582a"/><path d="M48.16 18.09c-.22-.36-.34-.77-.35-1.16-.01-.19.01-.62.03-1.1.02-.62.04-1.33.03-1.7-.02-.51-.26-.83-.61-.83-.22 0-.38.18-.38.41l-.19.02c-.02-.39.22-.65.58-.65.2 0 .39.08.54.23.19.19.29.48.29.82-.01.37-.04 1.04-.07 1.63-.02.48-.05.89-.05 1.05 0 .09.04.84.23 1.27l-.05.01zm-.91-4.83c.38 0 .63.33.65.87.01.37-.01 1.08-.03 1.7-.02.47-.03.9-.03 1.09.01.32.09.64.23.94-.12-.43-.15-.98-.15-1.06 0-.15.02-.57.05-1.05.03-.59.07-1.26.07-1.63 0-.32-.1-.6-.28-.79a.72.72 0 0 0-.51-.22c-.33 0-.56.24-.56.59l.15-.02c-.01-.23.17-.42.41-.42" fill="#f2c227"/><path d="M46.56 16.65s-.18.31-.31.53c-.13.22-.23.27-.33.21-.09-.06-.01-.25.06-.33.08-.09.49-.49.49-.49l.09.08z" fill-rule="evenodd" clip-rule="evenodd" fill="#ab582a"/><path d="M46 17.42c-.03 0-.06-.01-.08-.03-.03-.02-.04-.04-.04-.08-.01-.08.05-.2.1-.26.08-.09.49-.49.49-.49l.09.09-.3.53c-.09.16-.18.24-.26.24m.47-.85c0 .01-.4.4-.48.49-.05.07-.11.17-.1.25 0 .03.02.05.04.07.1.07.2 0 .32-.2l.3-.53-.08-.08z"/><path d="M46.67 13.67c.4 0 .58.35.58.34l-.12.11c-.06.06-.46.06-.46.06v-.51z" fill-rule="evenodd" clip-rule="evenodd" fill="#ab582a"/><path d="M46.69 14.19l-.02-.01v-.52c.35-.01.52.23.59.33l-.11.13c-.07.07-.45.07-.46.07m-.02-.51l.01.51v-.01c.11 0 .39-.01.44-.06l.12-.12a.687.687 0 0 0-.57-.32"/><path d="M46.6 16.67l-.12.6c-.05.25-.13.34-.24.31-.11-.03-.09-.23-.05-.33.04-.11.3-.63.3-.63l.11.05z" fill-rule="evenodd" clip-rule="evenodd" fill="#ab582a"/><path d="M46.27 17.6l-.04-.01a.134.134 0 0 1-.07-.06c-.04-.07-.02-.2.01-.29.04-.11.3-.63.3-.63l.12.05-.12.61c-.03.22-.1.33-.2.33m.22-.97c0 .01-.25.52-.29.63-.03.08-.05.21-.01.28.01.03.03.04.06.05h.04c.09 0 .15-.1.2-.31l.12-.6-.12-.05z"/><path d="M46.67 16.69v.62c0 .26-.06.36-.18.36-.11-.01-.13-.2-.11-.32.02-.11.17-.68.17-.68l.12.02z" fill-rule="evenodd" clip-rule="evenodd" fill="#ab582a"/><path d="M46.5 17.66c-.04 0-.06-.02-.08-.04-.05-.06-.06-.2-.04-.29.02-.11.17-.68.17-.68l.13.02.01.62c-.01.26-.07.37-.19.37m.06-1c0 .01-.14.56-.17.68-.02.09-.01.21.04.27.02.02.04.04.07.04l.01.01v-.01c.11 0 .16-.11.16-.35v-.62l-.11-.02z"/><path d="M46.67 16.68c-.32 0-.36-.12-.36-.12s-.07-.24-.04-.3c.04-.06.39-.06.39-.06v.48z" fill-rule="evenodd" clip-rule="evenodd" fill="#ab582a"/><path d="M46.68 16.69c-.34 0-.38-.12-.38-.13-.01-.02-.07-.25-.04-.31.04-.07.37-.07.4-.07l.02.51zm-.02-.5c-.13.01-.35.03-.38.07-.03.05.02.23.04.3 0 0 .04.11.34.11v-.48z"/><path d="M46.67 16.44c-.35 0-.4-.12-.4-.12s-.11-.24-.06-.31c.06-.06.46-.06.46-.06v.49z" fill-rule="evenodd" clip-rule="evenodd" fill="#ab582a"/><path d="M46.68 16.44c-.35 0-.42-.12-.42-.13 0-.01-.12-.25-.06-.31s.45-.06.47-.06l.01.5zm-.01-.49c-.1.01-.4.02-.45.06-.04.05.03.23.06.3 0 0 .06.12.39.12v-.48z"/><path d="M46.67 16.19c-.29 0-.46-.12-.46-.12s-.11-.24-.06-.3c.06-.06.52-.06.52-.06v.48z" fill-rule="evenodd" clip-rule="evenodd" fill="#ab582a"/><path d="M46.68 16.2c-.29 0-.47-.12-.47-.12-.01-.01-.12-.25-.06-.32.06-.06.48-.06.52-.06l.01.5zm-.46-.13s.17.12.45.12v-.48c-.15.01-.46.02-.51.06-.04.05.03.23.06.3"/><path d="M46.48 13.95s-.29-.3-.79-.61c-.5-.3-.86-.54-.93-.49 0 .06.43.37.79.61.36.24.79.61.79.61l.14-.12z" fill-rule="evenodd" clip-rule="evenodd" fill="#ab582a"/><path d="M46.34 14.08c-.01-.01-.44-.37-.79-.61-.52-.36-.79-.56-.79-.61h.03c-.02.02.06.12.76.6.33.23.74.57.78.6l.14-.12c-.01 0-.3-.3-.79-.6l-.18-.11c-.32-.19-.56-.34-.67-.38.14.04.38.18.68.36l.18.11c.5.3.79.6.79.61l-.14.15z"/><path d="M46.45 14.19s-.28-.18-.83-.43c-.53-.22-1.29-.18-1.29-.12.07.06.72.06 1.15.24.41.17.82.42.82.42l.15-.11z" fill-rule="evenodd" clip-rule="evenodd" fill="#ab582a"/><path d="M46.3 14.32c-.01-.01-.42-.26-.83-.43-.26-.11-.6-.15-.85-.19-.16-.02-.27-.04-.3-.06 0-.06.29-.06.33-.06.13 0 .58.01.96.17.54.24.82.42.83.43l-.14.14zm-1.64-.71c-.22 0-.32.03-.32.04.02.02.14.03.29.05.25.03.59.07.85.18.38.16.78.4.82.42l.14-.12c-.01 0-.3-.18-.82-.41-.38-.15-.83-.16-.96-.16"/><path d="M46.44 14.61s-.25-.12-.83-.3c-.57-.18-1.33-.06-1.33 0 .07.06.69.02 1.12.12.44.1.9.3.9.3l.14-.12z" fill-rule="evenodd" clip-rule="evenodd" fill="#ab582a"/><path d="M46.3 14.74c-.01 0-.46-.21-.9-.31-.23-.05-.51-.07-.74-.07-.2-.01-.35-.02-.38-.05 0-.06.32-.11.63-.11.18 0 .45.02.7.1.57.18.82.3.83.3l-.14.14zm-1.39-.52c-.36 0-.62.06-.62.09.03.02.19.03.37.04.23.01.51.02.74.08.42.09.85.28.89.3l.14-.12c-.02-.01-.27-.12-.82-.29-.24-.08-.51-.1-.7-.1"/><path d="M46.42 15.04s-.29-.24-.9-.3c-.62-.06-1.12.3-1.12.36.07.06.64-.27 1.07-.22.46.05.8.28.8.28l.15-.12z" fill-rule="evenodd" clip-rule="evenodd" fill="#ab582a"/><path d="M46.27 15.17c-.01 0-.35-.23-.8-.28-.26-.03-.57.08-.79.16-.12.04-.21.07-.26.07v-.01c.06-.01.15-.04.25-.07.22-.08.54-.18.79-.16.42.04.76.25.8.28l.14-.12s-.28-.23-.89-.29c-.46-.04-.85.15-1.02.27.16-.13.56-.32 1.02-.28.61.06.9.3.9.31l-.14.12z"/><path d="M46.67 15.89c-.52-.01-.52-.16-.52-.16s-.12-.24-.06-.31c.06-.06.58-.02.58-.02v.49z" fill-rule="evenodd" clip-rule="evenodd" fill="#ab582a"/><path d="M46.68 15.9c-.53-.01-.53-.16-.53-.16-.01-.01-.12-.25-.06-.31.01-.01.04-.04.29-.04.15 0 .29.01.29.01l.01.5zm-.3-.5c-.21 0-.27.02-.28.03-.04.05.03.23.06.29 0 .01.01.15.51.15v-.47c-.01.01-.15 0-.29 0"/><path d="M46.67 15.65c-.52-.01-.58-.12-.58-.12s-.12-.24-.06-.31c.06-.06.63-.06.63-.06v.49z" fill-rule="evenodd" clip-rule="evenodd" fill="#ab582a"/><path d="M46.68 15.65c-.53 0-.59-.12-.59-.13-.01-.01-.12-.25-.06-.31s.62-.07.64-.07l.01.51zm-.01-.49c-.15.01-.58.02-.62.07-.04.05.03.23.06.29 0 0 .06.11.56.12v-.48z"/><path d="M46.67 15.34c-.52-.01-.63-.12-.63-.12s-.12-.24-.06-.3.69-.06.69-.06v.48z" fill-rule="evenodd" clip-rule="evenodd" fill="#ab582a"/><path d="M46.68 15.35c-.52-.01-.64-.12-.65-.13-.01-.01-.12-.25-.06-.32.06-.06.63-.06.7-.06l.01.51zm-.63-.13s.12.11.62.12v-.48c-.17.01-.63.02-.68.06-.05.05.02.23.06.3"/><path d="M46.67 15.04c-.52 0-.69-.12-.69-.12s-.06-.24 0-.31c.06-.06.69-.06.69-.06v.49z" fill-rule="evenodd" clip-rule="evenodd" fill="#ab582a"/><path d="M46.68 15.05c-.52 0-.7-.12-.7-.12-.01-.01-.06-.25 0-.32.06-.06.63-.06.7-.06v.5zm-.69-.14s.18.11.68.12v-.48c-.17.01-.63.02-.68.07-.06.05 0 .29 0 .29"/><path d="M46.56 13.7s-.46-.3-.46-.55c0-.24.2-.49.26-.61-.12 0-.38.37-.38.61 0 .27.43.67.43.67l.15-.12z" fill-rule="evenodd" clip-rule="evenodd" fill="#ab582a"/><path d="M46.41 13.83c-.02-.02-.44-.41-.44-.68 0-.23.26-.61.38-.61-.01.04-.03.08-.06.13-.08.13-.19.31-.19.49 0 .24.45.54.46.54l-.15.13zm-.06-1.29c-.1.01-.36.37-.36.61 0 .25.38.62.43.66l.14-.12c-.02 0-.46-.3-.46-.54 0-.18.11-.36.19-.49.02-.05.05-.09.06-.12"/><path d="M46.56 13.7s.06-.18.06-.55c0-.42-.25-.69-.35-.79-.02.09.23.43.23.79 0 .27-.09.67-.09.67l.15-.12z" fill-rule="evenodd" clip-rule="evenodd" fill="#ab582a"/><path d="M46.4 13.84l.01-.02s.08-.4.08-.67c0-.22-.1-.43-.16-.58-.04-.1-.08-.17-.07-.21.24.23.36.5.36.79 0 .36-.06.55-.06.55l-.16.14zm-.14-1.47c0 .03.04.11.08.2.07.15.16.36.16.59 0 .23-.07.57-.08.65l.13-.11s.06-.18.06-.54c0-.29-.12-.56-.35-.79"/><path d="M46.67 14.73c-.52-.01-.69-.12-.69-.12s0-.24.06-.3.63-.06.63-.06v.48z" fill-rule="evenodd" clip-rule="evenodd" fill="#ab582a"/><path d="M46.68 14.74c-.52-.01-.7-.12-.7-.12 0-.02 0-.25.06-.32.06-.06.62-.06.64-.06v.5zm-.69-.13c.01 0 .18.11.68.12v-.48c-.15.01-.58.02-.62.07-.06.05-.06.29-.06.29"/><path d="M46.67 14.43c-.52 0-.63-.12-.63-.12s0-.24.06-.31c.06-.06.58-.06.58-.06v.49z" fill-rule="evenodd" clip-rule="evenodd" fill="#ab582a"/><path d="M46.68 14.44c-.52 0-.64-.12-.65-.13 0-.02 0-.25.06-.31s.56-.06.58-.06l.01.5zm-.63-.13s.13.11.62.11v-.48c-.14.01-.52.02-.56.07-.06.06-.06.29-.06.3"/><path d="M45.17 18.08c.18-.42.23-1.15.23-1.28 0-.34-.11-2.01-.11-2.67-.01-.67.4-1.03.81-1.03.35 0 .58.24.58.61h-.18c0-.24-.17-.43-.4-.43-.35 0-.61.29-.63.85-.02.65.07 2.34.06 2.8-.02.45-.18.85-.36 1.15" fill-rule="evenodd" clip-rule="evenodd" fill="#ab582a"/><path d="M45.19 18.09l-.03-.02c.18-.43.23-1.18.23-1.27 0-.15-.02-.58-.05-1.05-.03-.58-.06-1.25-.07-1.62-.01-.33.1-.62.29-.82.15-.15.34-.23.54-.23.36 0 .59.25.59.63l-.19.02c-.02-.25-.18-.43-.4-.43-.36 0-.6.32-.62.83-.01.37.01 1.07.03 1.7.02.47.03.9.03 1.1-.01.39-.14.8-.35 1.16m.91-4.98a.72.72 0 0 0-.51.22c-.18.19-.28.47-.28.79 0 .37.04 1.03.07 1.62.03.48.05.9.05 1.06 0 .08-.03.63-.16 1.06.14-.3.23-.63.23-.94.01-.2-.01-.62-.03-1.09-.02-.62-.04-1.33-.03-1.7.02-.54.27-.87.65-.87.24 0 .42.19.42.45l.15-.02c-.01-.34-.23-.58-.56-.58" fill="#f2c227"/><path d="M46.67 13.67c-.4 0-.58.35-.58.34l.12.11c.06.06.46.06.46.06v-.51z" fill-rule="evenodd" clip-rule="evenodd" fill="#ab582a"/><path d="M46.66 14.19c-.02 0-.39 0-.45-.06l-.12-.11c.07-.12.25-.36.58-.36v.53h-.01zm.01-.52a.69.69 0 0 0-.56.34l.11.11c.05.05.33.06.44.06v.01l.01-.01v-.51z"/><path fill-rule="evenodd" clip-rule="evenodd" fill="#120065" d="M0 0h29.46v14.73H0z"/><path d="M0 0v1.65l26.17 13.09h3.29v-1.65L3.29 0H0zm29.46 0v1.65L3.29 14.73H0v-1.65L26.17 0h3.29z" fill="#fff"/><path d="M12.28 14.73h4.91V0h-4.91v14.73zM0 9.82h29.46V4.91H0v4.91z" fill="#fff"/><path d="M0 8.84h29.46V5.89H0v2.95zm13.26 5.89h2.95V0h-2.95v14.73zM0 14.73l9.82-4.91h2.2L2.2 14.73H0zM0 0l9.82 4.91H7.63L0 1.1V0zm17.44 4.91L27.27 0h2.2l-9.82 4.91h-2.21zm12.02 9.82l-9.82-4.91h2.19l7.63 3.81v1.1z" fill="#ba0019"/></svg>