<svg xmlns="http://www.w3.org/2000/svg" viewBox="0 0 58.92 34.37"><path fill="#162954" d="M0 0h6.87v13.56H0z"/><path fill="#162954" d="M20.78 0v13.92H0v20.45h58.92V0z"/><path fill="#fff" d="M6.87 0h6.88v13.56H6.87z"/><path fill="#bc0030" d="M13.75 0h6.69v13.56h-6.69z"/><path fill="#fff" d="M20.62 0v13.75H6.87v-.19H0v.36h20.8V0z"/><path fill="#fff" d="M6.87 13.56h6.88v.19H6.87zM20.43 13.56h-6.68v.19h6.87V0h-.19zM35.12 13.53l1.11 1.76h3.15v6.14l-2.36-3.7-3.18 5.07h1.98l.3-.56h1.98l2.28 3.65 2.28-3.65h1.98l.3.56h1.98l-3.18-5.07-2.36 3.7v-3.39h1.42l1.05-1.68h-2.47v-1.08h3.15l1.11-1.76H35.12zm1.91 6.33l.77 1.2-1.37.01.6-1.21zm6.64.12l.62 1.08-1.25-.01.63-1.07zM44.2 24.17l.41 1.27h1.33l-1.08.78.42 1.27-1.08-.79-1.08.79.42-1.27-1.09-.78h1.34zM40.32 27.13l.41 1.27h1.34l-1.09.78.42 1.27-1.08-.8-1.08.8.42-1.27-1.08-.78h1.34zM36.55 24.17l-.4 1.28-1.34-.01 1.08.78-.42 1.27 1.08-.79 1.08.79-.42-1.27 1.09-.78-1.34.01z"/><path fill="#fff" d="M47.46 15.48l.4 1.28 1.34-.01-1.09.78.42 1.27-1.07-.79-1.08.79.42-1.27-1.09-.78 1.34.01zM33.34 15.46l.4 1.27 1.34-.01-1.09.79.42 1.27-1.07-.8-1.08.8.42-1.27-1.09-.79 1.34.01z"/></svg>