<svg xmlns="http://www.w3.org/2000/svg" viewBox="0 0 58.92 34.37"><path fill="#2d6b4f" d="M0 0h58.92v34.37H0z"/><path fill="#f5cd28" d="M0 6.88h58.92v6.87H0zM0 20.62h58.92v6.88H0z"/><path fill="#c0003b" d="M0 0h20.62v20.62H0z"/><path fill="#fff" d="M10.31 3.78L8.29 9.99 11.4 11z"/><path fill="#fff" d="M10.31 3.78l2.02 6.21L9.22 11z"/><path fill="#fff" d="M16.52 8.29H9.99v3.27z"/><path fill="#fff" d="M16.52 8.29l-5.28 3.84-1.92-2.64z"/><path fill="#fff" d="M4.1 8.29l5.28 3.84 1.92-2.64z"/><path fill="#fff" d="M4.1 8.29h6.53v3.27z"/><path fill="#fff" d="M14.15 15.6l-2.02-6.21-3.1 1z"/><path fill="#fff" d="M14.15 15.6l-5.28-3.84 1.92-2.64z"/><path fill="#fff" d="M6.47 15.6l5.29-3.84-1.92-2.64z"/><path fill="#fff" d="M6.47 15.6l2.02-6.21 3.11 1z"/></svg>