<svg xmlns="http://www.w3.org/2000/svg" viewBox="0 0 58.92 34.37"><path fill="#58b44d" d="M0 24.56h58.92v9.82H0z"/><path fill="#fff" d="M0 9.82h58.92v14.74H0z"/><path fill="#ea0042" d="M0 0h58.92v9.81H0z"/><path d="M29.42 20.68c.29.35 1.32.71 2.21.26.14.41 1.25 1.09 2.24.37-1.08-.15-1.67-.51-2.27-1.31-.6.48-1.58.05-1.79-.18l.01-2.79 1.43-1.4c0-.3-.92-1.16-1.83-1.16-.92 0-1.84.86-1.84 1.16l1.43 1.4.01 2.79c-.22.23-1.2.66-1.79.18-.6.8-1.18 1.16-2.27 1.31.99.72 2.1.05 2.24-.37.89.44 1.93.08 2.22-.26zm-.01-4.13c-.36-.61-1.08-.84-1.08-.84s.37-.6 1.08-.6c.71 0 1.08.6 1.08.6s-.72.22-1.08.84" fill="#cfb428"/><path d="M29.42 22.12c-1.31 0-2.14.46-2.57.94l-.37-.39c.33-.41.78-.55.89-1.06.11-.36-.14-.64-.14-.64s.37.51 1.29.51c.56 0 .9-.63.9-.63m0 .01s.34.63.9.63c.92 0 1.29-.51 1.29-.51s-.25.28-.14.64c.11.51.56.65.89 1.06l-.37.39c-.43-.48-1.26-.94-2.57-.94M35.73 17.57l.25.76h.8l-.65.47.25.77-.65-.47-.65.47.25-.77-.65-.47h.8zM34.89 14.44l.25.76h.8l-.65.47.25.77-.65-.48-.65.48.25-.77-.65-.47h.8zM32.6 12.14l.24.77h.81l-.65.47.24.77-.64-.48-.65.48.24-.77-.65-.47h.81zM29.46 11.31l.25.76h.8l-.65.47.25.77-.65-.48-.65.48.25-.77-.65-.47h.8zM26.33 12.14l.25.77h.8l-.65.47.25.77-.65-.48-.65.48.25-.77-.65-.47h.8zM24.04 14.44l.24.76h.81l-.65.47.25.77-.65-.48-.65.48.25-.77-.66-.47h.81zM23.2 17.57l.25.76h.8l-.65.47.25.77-.65-.47-.65.47.25-.77-.65-.47h.8z" fill="#cfb428"/></svg>