<svg xmlns="http://www.w3.org/2000/svg" viewBox="0 0 58.92 34.37"><path fill="#130065" d="M0 0h58.92v34.37H0z"/><path fill="#fff" d="M6.98 3.18h1.21l.37-1.15.38 1.15h1.2l-.97.7.37 1.15-.98-.71-.97.71.37-1.15zM2.16 8.03h1.21l.37-1.15.37 1.15h1.21l-.97.71.37 1.14-.98-.71-.97.71.37-1.14zM11.29 6.82h1.08l.33-1.02.33 1.02h1.07l-.87.64.33 1.01-.86-.63-.87.63.33-1.01zM6.81 15.64h1.34l.41-1.27.42 1.27h1.34l-1.09.79.42 1.27-1.09-.78-1.08.78.41-1.27z"/><path d="M0 34.37C18.92 23.37 26.83 9.73 47.19 0c-5.53 8.16-4.39 26.62 11.73 34.27L0 34.37z" fill-rule="evenodd" clip-rule="evenodd" fill="#f5cb28"/><path fill="#130065" d="M0 30.93h58.92v1.72H0z"/></svg>