<svg xmlns="http://www.w3.org/2000/svg" viewBox="0 0 58.92 34.37"><path fill="#307359" d="M0 0h58.92v34.37H0z"/><path fill="#bf0236" d="M6.19 0h9.28v34.37H6.19z"/><path fill-rule="evenodd" clip-rule="evenodd" fill="#e0852a" d="M6.19 9.6v-.27l.4-.66-.1-.13.23-.37-.07-.13-.16.26-.07-.13.53-.93.1.13-.1.14.17.26.4-.66-.4-.63-.17.23.1.13-.1.14-.53-.94.07-.13.16.27.07-.14-.23-.36.1-.13-.4-.67v-.26l.53.93-.07.13.24.36-.17.27.17.27.23-.4.53.93-.53.93-.23-.4-.17.26.17.27-.24.37.07.13z"/><path fill-rule="evenodd" clip-rule="evenodd" fill="#e0852a" d="M6.19 6.31l.1.27v.39h.23l.13.14-.13.13h-.23v.4l-.1.26zM6.19 15.91v-.27l.4-.66-.1-.13.23-.4-.07-.14-.16.27-.07-.13.53-.9.1.13-.1.14.17.26.4-.66-.4-.63-.17.23.1.13-.1.14-.53-.94.07-.13.16.27.07-.14-.23-.39.1-.14-.4-.63v-.26l.53.89-.07.14.24.39-.17.27.17.27.23-.4.53.93-.53.89-.23-.36-.17.27.17.23-.24.4.07.13z"/><path fill-rule="evenodd" clip-rule="evenodd" fill="#e0852a" d="M6.19 12.62l.1.27v.4h.23l.13.13-.13.13h-.23v.4l-.1.27zM6.19 22.22v-.27l.4-.66-.1-.13.23-.4-.07-.14-.16.27-.07-.13.53-.9.1.1-.1.13.17.27.4-.63-.4-.67-.17.27.1.13-.1.13-.53-.93.07-.13.16.27.07-.14-.23-.39.1-.14-.4-.66v-.27l.53.93-.07.14.24.39-.17.27.17.27.23-.4.53.93-.53.89-.23-.39-.17.26.17.27-.24.4.07.13z"/><path fill-rule="evenodd" clip-rule="evenodd" fill="#e0852a" d="M6.19 18.93l.1.27v.39h.23l.13.14-.13.13h-.23v.37l-.1.26zM6.19 28.13v-.27l.4-.66-.1-.13.23-.4-.07-.13-.16.26-.07-.13.53-.93.1.13-.1.13.17.27.4-.66-.4-.63-.17.26.1.13-.1.14-.53-.93.07-.14.16.27.07-.13-.23-.4.1-.13-.4-.67v-.26l.53.93-.07.13.24.4-.17.26.17.27.23-.4.53.93-.53.9-.23-.4-.17.26.17.27-.24.4.07.13z"/><path fill-rule="evenodd" clip-rule="evenodd" fill="#e0852a" d="M6.19 24.84l.1.27v.4h.23l.13.1-.13.13h-.23v.4l-.1.26zM15.47 9.6v-.27l-.4-.66.1-.13-.24-.37.07-.13.17.26.06-.13-.53-.93-.1.13.1.14-.16.26-.37-.66.37-.63.16.23-.1.13.1.14.53-.94-.06-.13-.17.27-.07-.14.24-.36-.1-.13.4-.67v-.26l-.54.93.07.13-.23.36.16.27-.16.27-.23-.4-.54.93.54.93.23-.4.16.26-.16.27.23.37-.07.13z"/><path fill-rule="evenodd" clip-rule="evenodd" fill="#e0852a" d="M15.47 6.31l-.07.27v.39h-.23l-.17.14.17.13h.23v.4l.07.26zM15.47 15.91v-.27l-.4-.66.1-.13-.24-.4.07-.14.17.27.06-.13-.53-.9-.1.13.1.14-.16.26-.37-.66.37-.63.16.23-.1.13.1.14.53-.94-.06-.13-.17.27-.07-.14.24-.39-.1-.14.4-.63v-.26l-.54.89.07.14-.23.39.16.27-.16.27-.23-.4-.54.93.54.89.23-.36.16.27-.16.23.23.4-.07.13z"/><path fill-rule="evenodd" clip-rule="evenodd" fill="#e0852a" d="M15.47 12.62l-.07.27v.4h-.23l-.17.13.17.13h.23v.4l.07.27zM15.47 22.22v-.27l-.4-.66.1-.13-.24-.4.07-.14.17.27.06-.13-.53-.9-.1.1.1.13-.16.27-.37-.63.37-.67.16.27-.1.13.1.13.53-.93-.06-.13-.17.27-.07-.14.24-.39-.1-.14.4-.66v-.27l-.54.93.07.14-.23.39.16.27-.16.27-.23-.4-.54.93.54.89.23-.39.16.26-.16.27.23.4-.07.13z"/><path fill-rule="evenodd" clip-rule="evenodd" fill="#e0852a" d="M15.47 18.93l-.07.27v.39h-.23l-.17.14.17.13h.23v.37l.07.26zM15.47 28.13v-.27l-.4-.66.1-.13-.24-.4.07-.13.17.26.06-.13-.53-.93-.1.13.1.13-.16.27-.37-.66.37-.63.16.26-.1.13.1.14.53-.93-.06-.14-.17.27-.07-.13.24-.4-.1-.13.4-.67v-.26l-.54.93.07.13-.23.4.16.26-.16.27-.23-.4-.54.93.54.9.23-.4.16.26-.16.27.23.4-.07.13z"/><path fill-rule="evenodd" clip-rule="evenodd" fill="#e0852a" d="M15.47 24.84l-.07.27v.4h-.23l-.17.1.17.13h.23v.4l.07.26zM6.19 2.52v-.26l.4-.67-.1-.13.23-.4-.07-.13-.16.27-.07-.14.53-.93.1.14-.1.13.17.26.4-.66h.13l-.53.93-.23-.4-.17.27.17.26-.24.4.07.13zM6.19 0h.46l-.13.13h-.23v.4l-.1.27zM15.47 2.52v-.26l-.4-.67.1-.13-.24-.4.07-.13.17.27.06-.14-.53-.93-.1.14.1.13-.16.26-.37-.66H14l.54.93.23-.4.16.27-.16.26.23.4-.07.13zM15.47 0H15l.17.13h.23v.4l.07.27zM10.05 34.07s.33-.5 1.2-.66c.83-.13.96.36 1.46.36.47 0 1.23-.36 1.23-.36s-.76.66-1.36.63c-.57 0-.77-.33-1.36-.27-.61.04-1.17.34-1.17.3"/><path d="M11.68 34.07s-.33-.5-1.16-.66c-.83-.13-1 .36-1.46.36-.5 0-1.23-.36-1.23-.36s.73.66 1.33.63c.6 0 .8-.33 1.4-.27.58.04 1.12.34 1.12.3" fill-rule="evenodd" clip-rule="evenodd" fill="#e0852a"/><path d="M8.95 33.24c-.1-.13-.27-.73-.17-.8.13-.03.53.57.5 1.1-.27.1-1.13-.07-1.13-.2.07-.23.56-.16.8-.1" fill-rule="evenodd" clip-rule="evenodd" fill="#e0852a"/><path d="M8.42 32.75c-.07-.17-.13-.8-.03-.83.17 0 .43.66.3 1.19-.27.03-1.1-.33-1.03-.5.09-.2.56 0 .76.14" fill-rule="evenodd" clip-rule="evenodd" fill="#e0852a"/><path d="M7.98 32.15c-.03-.13-.03-.76.07-.8.17 0 .37.73.17 1.2-.27.03-1.07-.46-1-.6.13-.2.56.07.76.2" fill-rule="evenodd" clip-rule="evenodd" fill="#e0852a"/><path d="M7.65 31.55c-.03-.17.07-.8.17-.8.17.03.27.8 0 1.23-.27-.03-.97-.63-.9-.76.13-.17.56.17.73.33" fill-rule="evenodd" clip-rule="evenodd" fill="#e0852a"/><path d="M7.42 30.92c0-.17.13-.76.27-.76.13.07.17.8-.13 1.23-.3-.1-.9-.83-.83-.93.16-.14.52.26.69.46" fill-rule="evenodd" clip-rule="evenodd" fill="#e0852a"/><path d="M7.48 30.19c-.03.63-.17.63-.4.17-.13-.17-.13-.93-.03-.93.13-.04.43.49.43.76M12.77 33.31c.07-.13.23-.73.13-.8-.13-.03-.53.57-.5 1.1.27.1 1.13-.07 1.13-.2-.06-.23-.56-.17-.76-.1" fill-rule="evenodd" clip-rule="evenodd" fill="#e0852a"/><path d="M13.27 32.81c.07-.17.13-.8.03-.83-.17 0-.43.66-.3 1.19.27.03 1.1-.33 1.06-.5-.09-.19-.56.01-.79.14" fill-rule="evenodd" clip-rule="evenodd" fill="#e0852a"/><path d="M13.7 32.22c.03-.13.07-.76-.07-.8-.13 0-.37.73-.17 1.2.27.03 1.06-.46 1-.6-.12-.2-.56.06-.76.2" fill-rule="evenodd" clip-rule="evenodd" fill="#e0852a"/><path d="M14.04 31.62c.03-.17-.03-.8-.17-.8-.13.03-.27.8 0 1.23.27-.03.96-.63.9-.76-.13-.17-.53.16-.73.33" fill-rule="evenodd" clip-rule="evenodd" fill="#e0852a"/><path d="M14.27 30.99c0-.17-.13-.76-.27-.76-.13.07-.17.8.17 1.23.27-.07.87-.83.8-.93-.17-.14-.53.26-.7.46" fill-rule="evenodd" clip-rule="evenodd" fill="#e0852a"/><path d="M14.24 30.26c0 .63.13.63.37.17.13-.17.13-.93.03-.93-.14-.04-.4.49-.4.76" fill-rule="evenodd" clip-rule="evenodd" fill="#e0852a"/><path fill-rule="evenodd" clip-rule="evenodd" fill="#c03f2a" d="M14.04 23.65h-.47v.39h-.43v.4h-1.8l-.3.4.17.2h.73l.17-.2h-.77l.17-.2h1.03l-.43.6h-1.07l-.3-.2-.29.2H9.41l-.43-.6h1.03l.14.2h-.74l.17.2h.73l.14-.2-.3-.4H8.52v-.4h-.44v-.39h-.43v-1.83h.43v-.4h.44v-.4h1.63l.3-.4-.14-.2h-.73l-.17.2h.74l-.14.2H8.98l.43-.6h1.04l.29.2.3-.2h1.07l.43.6h-1.03l-.17-.2h.77l-.17-.2h-.73l-.17.2.3.4h1.8v.4h.43v.4h.47z"/><path fill="none" d="M14.04 23.65h-.47v.39h-.43v.4h-1.8l-.3.4.17.2h.73l.17-.2h-.77l.17-.2h1.03l-.43.6h-1.07l-.3-.2-.29.2H9.41l-.43-.6h1.03l.14.2h-.74l.17.2h.73l.14-.2-.3-.4H8.52v-.4h-.44v-.39h-.43v-1.83h.43v-.4h.44v-.4h1.63l.3-.4-.14-.2h-.73l-.17.2h.74l-.14.2H8.98l.43-.6h1.04l.29.2.3-.2h1.07l.43.6h-1.03l-.17-.2h.77l-.17-.2h-.73l-.17.2.3.4h1.8v.4h.43v.4h.47z"/><path fill-rule="evenodd" clip-rule="evenodd" fill="#307359" d="M7.78 22.05v1.4h.44v.4h.46v.39h1.46l.6.6.6-.6h1.63v-.39h.47v-.4h.43v-1.43h-.43v-.4l-.47.04v-.44h-1.63l-.6-.6-.6.6H8.68v.44h-.46v.39z"/><path d="M7.88 23.45h-.2v-1.4h.2v1.4zm-.1.1h-.1v-.1h.1v.1zm0-.2h.43v.2h-.43v-.2zm.44 0h.1v.1h-.1v-.1zm.1.5h-.2v-.4h.2v.4zm-.1.1h-.1v-.1h.1v.1zm0-.2h.47v.2h-.47v-.2zm.46 0h.1v.1h-.1v-.1zm.1.49h-.2v-.4h.2v.4zm-.1.1h-.1v-.1h.1v.1zm0-.19h1.46v.2H8.68v-.2zm1.47 0h.1l-.1.1v-.1zm.09 0l.57.6-.13.17-.6-.6.16-.17zm.57.76l-.07.07-.07-.07.07-.07.07.07zm-.13-.17l.6-.6.13.17-.6.6-.13-.17zm.6-.59h.06v.1l-.06-.1zm.06 0h1.63v.2h-1.63v-.2zm1.73.19h-.1v-.1h.1v.1zm-.2-.49h.2v.4h-.2v-.4zm0-.1h.1v.1h-.1v-.1zm.1 0h.47v.2h-.47v-.2zm.57.2h-.1v-.1h.1v.1zm-.2-.5h.2v.4h-.2v-.4zm0-.1h.1v.1h-.1v-.1zm.1 0h.43v.2h-.43v-.2zm.53.2h-.1v-.1h.1v.1zm-.2-1.53h.2v1.43h-.2v-1.43zm.1-.1h.1v.1h-.1v-.1zm0 .2h-.43v-.2h.43v.2zm-.43 0h-.1v-.1h.1v.1zm-.1-.5h.2v.4h-.2v-.4zm.1-.1h.1v.1h-.1v-.1zm0 .2l-.47.03v-.2l.47-.03v.2zm-.47.03h-.1v-.1h.1v.1zm-.1-.53h.2v.43h-.2v-.43zm.1-.1h.1v.1h-.1v-.1zm0 .2h-1.63v-.2h1.63v.2zm-1.63 0h-.06l.07-.1v.1zm-.06 0l-.6-.6.13-.17.6.6-.13.17zm-.6-.76l.07-.07.07.07-.07.07-.07-.07zm.13.16l-.57.6-.17-.17.6-.6.14.17zm-.57.6h-.1v-.1l.1.1zm-.09 0H8.68v-.2h1.46v.2zm-1.57-.2h.1v.1h-.1v-.1zm.2.53h-.2v-.43h.2v.43zm0 .1h-.1v-.1h.1v.1zm-.1 0h-.46v-.2h.47v.2zm-.56-.2h.1v.1h-.1v-.1zm.2.5h-.2v-.4h.2v.4zm0 .1h-.1v-.1h.1v.1zm-.1 0h-.44v-.2h.43v.2zm-.54-.2h.1v.1h-.1v-.1z" fill="#e0852a"/><path fill-rule="evenodd" clip-rule="evenodd" fill="#c03f2a" d="M9.88 21.42l-.9 1v-1zM11.64 21.42l.9 1v-1zM9.88 24.05l-.9-1v1zM11.64 24.05l.9-1v1zM11.94 22.02l-.3.4h.6zM9.58 22.02l-.3.4h.6zM9.58 23.45l-.3-.4h.6zM11.94 23.45l-.3-.4h.6z"/><path fill-rule="evenodd" clip-rule="evenodd" fill="#e0852a" d="M10.74 24.44l-.3-.39h.6zM10.74 22.42l-.3-.4h.6zM10.74 21.02l-.3.4h.6zM10.74 23.05l-.3.4h.6zM11.64 22.42h.6v.2h-.6z"/><path fill="none" d="M11.64 22.42h.6v.2h-.6z"/><path fill-rule="evenodd" clip-rule="evenodd" fill="#cf3b1d" d="M9.41 22.62h.3v.23h-.3z"/><path fill="none" d="M9.41 22.62h.3v.23h-.3z"/><path fill-rule="evenodd" clip-rule="evenodd" fill="#cf3b1d" d="M11.81 22.62h.3v.23h-.3z"/><path fill="none" d="M11.81 22.62h.3v.23h-.3z"/><path fill-rule="evenodd" clip-rule="evenodd" fill="#ad3b2b" d="M10.44 21.42h.6v.2h-.6z"/><path fill="none" d="M10.44 21.42h.6v.2h-.6z"/><path fill-rule="evenodd" clip-rule="evenodd" fill="#ad3b2b" d="M10.44 21.82h.6v.2h-.6z"/><path fill="none" d="M10.44 21.82h.6v.2h-.6z"/><path fill-rule="evenodd" clip-rule="evenodd" fill="#ad3b2b" d="M10.31 21.62h.9v.2h-.9z"/><path fill="none" d="M10.31 21.62h.9v.2h-.9z"/><path fill-rule="evenodd" clip-rule="evenodd" fill="#ad3b2b" d="M10.44 23.45h.6v.2h-.6z"/><path fill="none" d="M10.44 23.45h.6v.2h-.6z"/><path fill-rule="evenodd" clip-rule="evenodd" fill="#ad3b2b" d="M10.44 23.85h.6v.2h-.6z"/><path fill="none" d="M10.44 23.85h.6v.2h-.6z"/><path fill-rule="evenodd" clip-rule="evenodd" fill="#ad3b2b" d="M10.31 23.65h.9v.2h-.9z"/><path fill="none" d="M10.31 23.65h.9v.2h-.9z"/><path fill-rule="evenodd" clip-rule="evenodd" fill="#e0852a" d="M11.64 22.85h.6v.2h-.6z"/><path fill="none" d="M11.64 22.85h.6v.2h-.6z"/><path fill-rule="evenodd" clip-rule="evenodd" fill="#e0852a" d="M9.28 22.42h.6v.2h-.6z"/><path fill="none" d="M9.28 22.42h.6v.2h-.6z"/><path fill-rule="evenodd" clip-rule="evenodd" fill="#e0852a" d="M9.28 22.85h.6v.2h-.6z"/><path fill="none" d="M9.28 22.85h.6v.2h-.6z"/><path fill-rule="evenodd" clip-rule="evenodd" fill="#e0852a" d="M9.11 22.62h.3v.23h-.3z"/><path fill="none" d="M9.11 22.62h.3v.23h-.3z"/><path fill-rule="evenodd" clip-rule="evenodd" fill="#e0852a" d="M9.71 22.62h.3v.23h-.3z"/><path fill="none" d="M9.71 22.62h.3v.23h-.3z"/><path fill-rule="evenodd" clip-rule="evenodd" fill="#e0852a" d="M11.51 22.62h.3v.23h-.3z"/><path fill="none" d="M11.51 22.62h.3v.23h-.3z"/><path fill-rule="evenodd" clip-rule="evenodd" fill="#e0852a" d="M12.11 22.62h.27v.23h-.27z"/><path fill="none" d="M12.11 22.62h.27v.23h-.27z"/><path d="M10.41 23.75s0 .03-.03.03l-.03-.03c0-.03.03-.07.03-.07.03 0 .03.03.03.07M10.81 23.75s-.03.03-.07.03l-.03-.03c0-.03.03-.07.03-.07.04 0 .07.03.07.07M11.18 23.71c0 .03-.03.07-.03.07-.03 0-.07-.03-.07-.07 0 0 .03-.03.07-.03l.03.03zM10.58 23.55l-.03.03c-.03 0-.03-.03-.03-.03 0-.03 0-.07.03-.07-.01 0 .03.03.03.07M11.01 23.51c0 .03 0 .07-.03.07s-.03-.03-.03-.07c0 0 0-.03.03-.03s.03.03.03.03M10.58 23.91c0 .03-.03.07-.03.07-.03 0-.03-.03-.03-.07 0 0 0-.03.03-.03l.03.03zM11.01 23.95c0 .03 0 .03-.03.03s-.03 0-.03-.03 0-.07.03-.07.03.03.03.07M11.61 22.72c0 .03-.03.07-.03.07-.03 0-.03-.03-.03-.07 0-.03 0-.03.03-.03 0-.01.03-.01.03.03M11.98 22.72c0 .03 0 .07-.03.07s-.03-.03-.03-.07c0-.03 0-.03.03-.03.03-.01.03-.01.03.03M12.34 22.72c0 .03 0 .07-.03.07s-.03-.03-.03-.07c0-.03 0-.03.03-.03.03-.01.03-.01.03.03M11.74 22.52c0 .03 0 .07-.03.07 0 0-.03-.03-.03-.07 0-.03.03-.03.03-.03.03-.01.03-.01.03.03M12.21 22.52c0 .03-.03.07-.03.07-.03 0-.07-.03-.07-.07 0-.03.03-.03.07-.03-.01-.01.03-.01.03.03M11.74 22.92c0 .03 0 .07-.03.07 0 0-.03-.03-.03-.07 0-.03.03-.03.03-.03.03-.01.03-.01.03.03M12.21 22.92c0 .03-.03.07-.03.07-.03 0-.07-.03-.07-.07 0 0 .03-.03.07-.03l.03.03zM10.41 21.72c0 .03 0 .07-.03.07 0 0-.03-.03-.03-.07l.03-.03c.03 0 .03.03.03.03M10.78 21.72c0 .03 0 .07-.03.07 0 0-.03-.03-.03-.07l.03-.03c.03 0 .03.03.03.03M11.18 21.72c0 .03-.03.07-.07.07 0 0-.03-.03-.03-.07 0-.03.03-.03.03-.03.03 0 .07 0 .07.03M10.58 21.52c0 .03-.03.07-.03.07-.03 0-.03-.03-.03-.07 0 0 0-.03.03-.03l.03.03zM11.01 21.52c0 .03 0 .07-.03.07s-.03-.03-.03-.07c0-.03 0-.03.03-.03s.03 0 .03.03M10.58 21.92c0 .03-.03.07-.03.07-.03 0-.07-.03-.07-.07 0-.03.03-.03.07-.03-.01 0 .03 0 .03.03M11.01 21.95s0 .03-.03.03-.03-.03-.03-.03c0-.03 0-.07.03-.07s.03.04.03.07M9.25 22.75c0 .03-.03.03-.03.03-.03 0-.07 0-.07-.03s.03-.07.07-.07c-.01 0 .03.04.03.07M9.61 22.75c0 .03-.03.03-.03.03-.03 0-.03 0-.03-.03s0-.07.03-.07c0 0 .03.04.03.07M9.98 22.75l-.03.03c-.03 0-.03-.03-.03-.03 0-.03 0-.07.03-.07 0 0 .03.04.03.07M9.38 22.55c0 .03 0 .03-.03.03s-.03 0-.03-.03 0-.07.03-.07.03.04.03.07M9.81 22.55s0 .03-.03.03l-.03-.03c0-.03.03-.07.03-.07.03.01.03.04.03.07M9.38 22.95s0 .03-.03.03-.03-.03-.03-.03c0-.03 0-.07.03-.07s.03.04.03.07M9.81 22.95c0 .03 0 .03-.03.03 0 0-.03 0-.03-.03s.03-.07.03-.07c.03 0 .03.04.03.07M11.34 18.37l.27-.14.23.14zM10.58 18.37l.26-.14.24.14zM9.81 18.37l.27-.14.23.14zM11.34 14.88l.27.13.23-.13zM10.58 14.88l.26.13.24-.13zM9.81 14.88l.27.13.23-.13z" fill-rule="evenodd" clip-rule="evenodd" fill="#fff"/><path fill-rule="evenodd" clip-rule="evenodd" fill="#307359" d="M11.14 18.3l-.3.27-.3-.27-.3.27-.29-.27v.13l.19.14-.09.09v.14h.09l.1-.14.1.14h.1v-.14l-.1-.09.2-.14.2.14-.1.09v.14h.1l.1-.14.1.14h.1v-.14l-.1-.09.2-.14.2.14-.1.09v.14h.1l.07-.14.1.14h.1v-.14l-.1-.09.2-.14v-.13l-.3.27zM11.14 14.85l-.3-.24-.3.24-.3-.24-.29.24v-.1l.19-.14-.09-.1v-.13h.09l.1.13.1-.13h.1v.13l-.1.1.2.14.2-.14-.1-.1v-.13h.1l.1.13.1-.13h.1v.13l-.1.1.2.14.2-.14-.1-.1v-.13h.1l.07.13.1-.13h.1v.13l-.1.1.2.14v.1l-.3-.24zM13.37 16.84l.33-.27-.33-.23.33-.27-.33-.26h.17l.16.17.17-.07h.17v.07l-.17.09.17.07v.1h-.17l-.17-.1-.16.2.16.17.17-.1h.17v.1l-.17.06.17.1v.1h-.17l-.17-.1-.16.17.16.16.17-.06h.17V17l-.17.1.17.1v.07h-.17l-.17-.07-.16.17h-.17l.33-.27zM8.28 16.84l-.33-.27.33-.23-.33-.27.33-.26h-.16l-.17.17-.17-.07h-.13v.07l.13.09-.13.07v.1h.13l.17-.1.17.2-.17.17-.17-.1h-.13v.1l.13.06-.13.1v.1h.13l.17-.1.17.17-.17.16-.17-.06h-.13V17l.13.1-.13.1v.07h.13l.17-.07.17.17h.16l-.33-.27zM13.5 17.7h.13v.13h-.13z"/><path fill="none" d="M13.5 17.7h.13v.13h-.13z"/><path fill-rule="evenodd" clip-rule="evenodd" fill="#307359" d="M13.37 17.83h.13v.13h-.13z"/><path fill="none" d="M13.37 17.83h.13v.13h-.13z"/><path fill-rule="evenodd" clip-rule="evenodd" fill="#307359" d="M12.74 18.43h.13v.13h-.13z"/><path fill="none" d="M12.74 18.43h.13v.13h-.13z"/><path fill-rule="evenodd" clip-rule="evenodd" fill="#307359" d="M12.87 18.3H13v.13h-.13z"/><path fill="none" d="M12.87 18.3H13v.13h-.13z"/><path fill-rule="evenodd" clip-rule="evenodd" fill="#307359" d="M8.65 18.3h.13v.13h-.13z"/><path fill="none" d="M8.65 18.3h.13v.13h-.13z"/><path fill-rule="evenodd" clip-rule="evenodd" fill="#307359" d="M8.02 17.7h.13v.13h-.13z"/><path fill="none" d="M8.02 17.7h.13v.13h-.13z"/><path fill-rule="evenodd" clip-rule="evenodd" fill="#307359" d="M8.15 17.83h.13v.13h-.13z"/><path fill="none" d="M8.15 17.83h.13v.13h-.13z"/><path fill-rule="evenodd" clip-rule="evenodd" fill="#307359" d="M8.15 15.21h.13v.13h-.13z"/><path fill="none" d="M8.15 15.21h.13v.13h-.13z"/><path fill-rule="evenodd" clip-rule="evenodd" fill="#307359" d="M8.02 15.34h.13v.1h-.13z"/><path fill="none" d="M8.02 15.34h.13v.1h-.13z"/><path fill-rule="evenodd" clip-rule="evenodd" fill="#307359" d="M8.78 14.61h.13v.13h-.13z"/><path fill="none" d="M8.78 14.61h.13v.13h-.13z"/><path fill-rule="evenodd" clip-rule="evenodd" fill="#307359" d="M8.65 14.75h.13v.1h-.13z"/><path fill="none" d="M8.65 14.75h.13v.1h-.13z"/><path fill-rule="evenodd" clip-rule="evenodd" fill="#307359" d="M12.74 14.61h.13v.13h-.13z"/><path fill="none" d="M12.74 14.61h.13v.13h-.13z"/><path fill-rule="evenodd" clip-rule="evenodd" fill="#307359" d="M12.87 14.75H13v.1h-.13z"/><path fill="none" d="M12.87 14.75H13v.1h-.13z"/><path fill-rule="evenodd" clip-rule="evenodd" fill="#307359" d="M13.37 15.21h.13v.13h-.13z"/><path fill="none" d="M13.37 15.21h.13v.13h-.13z"/><path fill-rule="evenodd" clip-rule="evenodd" fill="#307359" d="M13.5 15.34h.13v.1h-.13z"/><path fill="none" d="M13.5 15.34h.13v.1h-.13z"/><path fill-rule="evenodd" clip-rule="evenodd" fill="#307359" d="M8.78 18.43h.13v.13h-.13z"/><path fill="none" d="M8.78 18.43h.13v.13h-.13z"/><path d="M10.44 16.57h-.37v-.23h.23v-.2h.27v-.2h.23v.23c-.19 0-.36.17-.36.4" fill-rule="evenodd" clip-rule="evenodd" fill="#fff"/><path d="M11.18 16.57h.4v-.23h-.27v-.2h-.23v-.2h-.27v.23c.2 0 .37.17.37.4" fill-rule="evenodd" clip-rule="evenodd" fill="#e0852a"/><path d="M11.18 16.57h.4v.23h-.27v.23h-.23v.2h-.27V17c.2 0 .37-.2.37-.43" fill-rule="evenodd" clip-rule="evenodd" fill="#fff"/><path d="M10.44 16.57h-.37v.23h.23v.23h.27v.2h.23V17c-.19 0-.36-.2-.36-.43" fill-rule="evenodd" clip-rule="evenodd" fill="#e0852a"/><path d="M11.18 16.57h-.37v-.4c.2 0 .37.2.37.4" fill-rule="evenodd" clip-rule="evenodd" fill="#307359"/><path d="M11.18 16.57h-.37V17c.2 0 .37-.2.37-.43" fill-rule="evenodd" clip-rule="evenodd" fill="#c03f2a"/><path d="M10.44 16.57h.37V17c-.2 0-.37-.2-.37-.43" fill-rule="evenodd" clip-rule="evenodd" fill="#307359"/><path d="M10.44 16.57h.37v-.4c-.2 0-.37.2-.37.4" fill-rule="evenodd" clip-rule="evenodd" fill="#c03f2a"/><path fill-rule="evenodd" clip-rule="evenodd" fill="#307359" d="M11.21 18.07l-.37-.24-.4.24-.36-.24-.4.24v-.1l.26-.14-.13-.13v-.1h.13l.14.1.1-.1h.13v.1l-.13.13.26.14.27-.14-.13-.13v-.1h.13l.13.1.1-.1h.14v.1l-.14.13.27.14.27-.14-.14-.13v-.1h.14l.13.1.1-.1h.13v.1l-.13.13.26.14v.1l-.36-.24zM11.21 15.11l-.37.23-.4-.23-.36.23-.4-.23v.1l.26.13-.13.1v.14h.13l.14-.14.1.14h.13v-.14l-.13-.1.26-.13.27.13-.13.1v.14h.13l.13-.14.1.14h.14v-.14l-.14-.1.27-.13.27.13-.14.1v.14h.14l.13-.14.1.14h.13v-.14l-.13-.1.26-.13v-.1l-.36.23zM12.61 16.87l-.17-.3.17-.3-.17-.29.17-.27h-.1l-.07.2-.1-.1h-.1v.1l.1.07-.1.09v.1h.1l.1-.1.07.2-.07.2-.1-.1h-.1v.1l.1.1-.1.1v.1h.1l.1-.1.07.2-.07.2-.1-.1h-.1v.1l.1.1-.1.1v.1h.1l.1-.1.07.2h.1l-.17-.3z"/><path d="M9.68 15.21l-.5.5v1.76l.5.5h2.3l.5-.5v-1.76l-.5-.5h-2.3zm-.13-.36l-1.26 1.2v1.1l1.26 1.16h2.56l1.26-1.16v-1.1l-1.26-1.2H9.55z" fill-rule="evenodd" clip-rule="evenodd" fill="#307359"/><path d="M9.68 15.21l-.5.5v1.76l.5.5h2.3l.5-.5v-1.76l-.5-.5h-2.3zm-.13-.36l-1.26 1.2v1.1l1.26 1.16h2.56l1.26-1.16v-1.1l-1.26-1.2H9.55z" fill="none"/><path fill-rule="evenodd" clip-rule="evenodd" fill="#e0852a" d="M10.21 18.07l.2.23.2-.23z"/><path fill="none" d="M10.21 18.07l.2.23.2-.23z"/><path fill-rule="evenodd" clip-rule="evenodd" fill="#e0852a" d="M10.21 15.11l.2-.26.2.26z"/><path fill="none" d="M10.21 15.11l.2-.26.2.26z"/><path fill-rule="evenodd" clip-rule="evenodd" fill="#e0852a" d="M11.04 15.11l.2-.26.2.26z"/><path fill="none" d="M11.04 15.11l.2-.26.2.26z"/><path fill-rule="evenodd" clip-rule="evenodd" fill="#e0852a" d="M11.04 18.07l.2.23.2-.23z"/><path fill="none" d="M11.04 18.07l.2.23.2-.23z"/><path fill-rule="evenodd" clip-rule="evenodd" fill="#c03f2a" d="M9.81 15.11l.2-.26.2.26z"/><path fill="none" d="M9.81 15.11l.2-.26.2.26z"/><path fill-rule="evenodd" clip-rule="evenodd" fill="#c03f2a" d="M10.61 15.11l.23-.26.2.26z"/><path fill="none" d="M10.61 15.11l.23-.26.2.26z"/><path fill-rule="evenodd" clip-rule="evenodd" fill="#c03f2a" d="M11.44 15.11l.2-.26.2.26z"/><path fill="none" d="M11.44 15.11l.2-.26.2.26z"/><path fill-rule="evenodd" clip-rule="evenodd" fill="#c03f2a" d="M9.31 17.7l.37.37h-.37z"/><path fill="none" d="M9.31 17.7l.37.37h-.37z"/><path fill-rule="evenodd" clip-rule="evenodd" fill="#307359" d="M9.05 16.87l.2-.3-.2-.3.2-.29-.2-.27h.1l.1.2.06-.1h.1v.1l-.1.07.1.09v.1h-.1l-.06-.1-.1.2.1.2.06-.1h.1v.1l-.1.1.1.1v.1h-.1l-.06-.1-.1.2.1.2.06-.1h.1v.1l-.1.1.1.1v.1h-.1l-.06-.1-.1.2h-.1l.2-.3z"/><path fill-rule="evenodd" clip-rule="evenodd" fill="#c03f2a" d="M12.74 16.27h.53l.1.1-.1.1h-.53z"/><path fill="none" d="M12.74 16.27h.53l.1.1-.1.1h-.53z"/><path fill-rule="evenodd" clip-rule="evenodd" fill="#c03f2a" d="M9.31 15.44l-.26.27v1.76l.26.23h-.4v-2.26z"/><path fill="none" d="M9.31 15.44l-.26.27v1.76l.26.23h-.4v-2.26z"/><path fill-rule="evenodd" clip-rule="evenodd" fill="#c03f2a" d="M9.81 18.07l.2.23.2-.23z"/><path fill="none" d="M9.81 18.07l.2.23.2-.23z"/><path fill-rule="evenodd" clip-rule="evenodd" fill="#c03f2a" d="M10.61 18.07l.23.23.2-.23z"/><path fill="none" d="M10.61 18.07l.23.23.2-.23z"/><path fill-rule="evenodd" clip-rule="evenodd" fill="#c03f2a" d="M11.44 18.07l.2.23.2-.23z"/><path fill="none" d="M11.44 18.07l.2.23.2-.23z"/><path fill-rule="evenodd" clip-rule="evenodd" fill="#c03f2a" d="M12.37 15.44l.24.27v1.76l-.24.23h.37v-2.26z"/><path fill="none" d="M12.37 15.44l.24.27v1.76l-.24.23h.37v-2.26z"/><path fill-rule="evenodd" clip-rule="evenodd" fill="#c03f2a" d="M12.37 17.7l-.4.37h.4z"/><path fill="none" d="M12.37 17.7l-.4.37h.4z"/><path fill-rule="evenodd" clip-rule="evenodd" fill="#c03f2a" d="M12.37 15.44l-.4-.33h.4z"/><path fill="none" d="M12.37 15.44l-.4-.33h.4z"/><path fill-rule="evenodd" clip-rule="evenodd" fill="#c03f2a" d="M9.31 15.44l.37-.33h-.37z"/><path fill="none" d="M9.31 15.44l.37-.33h-.37z"/><path d="M9.68 15.21l-.5.5v1.76l.5.5h2.3l.5-.5v-1.76l-.5-.5h-2.3zm0-.1l-.63.6v1.76l.63.6h2.3l.63-.6v-1.76l-.63-.6h-2.3z" fill-rule="evenodd" clip-rule="evenodd" fill="#307359"/><path d="M9.68 15.21l-.5.5v1.76l.5.5h2.3l.5-.5v-1.76l-.5-.5h-2.3zm0-.1l-.63.6v1.76l.63.6h2.3l.63-.6v-1.76l-.63-.6h-2.3z" fill="none"/><path fill-rule="evenodd" clip-rule="evenodd" fill="#e0852a" d="M12.74 16.47h.53l.1.1-.1.14h-.53z"/><path fill="none" d="M12.74 16.47h.53l.1.1-.1.14h-.53z"/><path fill-rule="evenodd" clip-rule="evenodd" fill="#c03f2a" d="M12.74 16.71h.53l.1.1-.1.09h-.53z"/><path fill="none" d="M12.74 16.71h.53l.1.1-.1.09h-.53z"/><path fill-rule="evenodd" clip-rule="evenodd" fill="#e0852a" d="M12.74 16.9h.53l.1.1-.1.14h-.53z"/><path fill="none" d="M12.74 16.9h.53l.1.1-.1.14h-.53z"/><path fill-rule="evenodd" clip-rule="evenodd" fill="#e0852a" d="M12.74 16.04h.53l.1.13-.1.1h-.53z"/><path fill="none" d="M12.74 16.04h.53l.1.13-.1.1h-.53z"/><path fill-rule="evenodd" clip-rule="evenodd" fill="#c03f2a" d="M8.91 16.27h-.5l-.13.1.13.1h.5z"/><path fill="none" d="M8.91 16.27h-.5l-.13.1.13.1h.5z"/><path fill-rule="evenodd" clip-rule="evenodd" fill="#e0852a" d="M8.91 16.47h-.5l-.13.1.13.14h.5z"/><path fill="none" d="M8.91 16.47h-.5l-.13.1.13.14h.5z"/><path fill-rule="evenodd" clip-rule="evenodd" fill="#c03f2a" d="M8.91 16.71h-.5l-.13.1.13.09h.5z"/><path fill="none" d="M8.91 16.71h-.5l-.13.1.13.09h.5z"/><path fill-rule="evenodd" clip-rule="evenodd" fill="#e0852a" d="M8.91 16.9h-.5l-.13.1.13.14h.5z"/><path fill="none" d="M8.91 16.9h-.5l-.13.1.13.14h.5z"/><path fill-rule="evenodd" clip-rule="evenodd" fill="#e0852a" d="M8.91 16.04h-.5l-.13.13.13.1h.5z"/><path fill="none" d="M8.91 16.04h-.5l-.13.13.13.1h.5z"/><path d="M8.15 15.34v2.49h.63v.6h4.09v-.6h.63v-2.49h-.63v-.6H8.78v.6h-.63zm.13.1v2.26h.63v.6h3.82v-.6h.63v-2.26h-.63v-.6H8.91v.6h-.63z" fill-rule="evenodd" clip-rule="evenodd" fill="#ab3b2c"/><path d="M8.15 15.34v2.49h.63v.6h4.09v-.6h.63v-2.49h-.63v-.6H8.78v.6h-.63zm.13.1v2.26h.63v.6h3.82v-.6h.63v-2.26h-.63v-.6H8.91v.6h-.63z" fill="none"/><path fill-rule="evenodd" clip-rule="evenodd" fill="#c03f2a" d="M14.04 3.12l-.4-.6v-.43l-.37-.46h-.8l-.63-.43H9.81l-.63.43h-.76l-.4.46v.43l-.37.6v1.17l.37.59v.43l.4.44h.76l.63.43h2.03l.63-.43h.8l.37-.44v-.43l.4-.59z"/><path fill="none" d="M14.04 3.12l-.4-.6v-.43l-.37-.46h-.8l-.63-.43H9.81l-.63.43h-.76l-.4.46v.43l-.37.6v1.17l.37.59v.43l.4.44h.76l.63.43h2.03l.63-.43h.8l.37-.44v-.43l.4-.59z"/><path fill-rule="evenodd" clip-rule="evenodd" fill="#e0852a" d="M7.75 3.69v.43l.4.6v.43l.37.46h.79l.64.43h.89V3.69z"/><path fill-rule="evenodd" clip-rule="evenodd" fill="#c03f2a" d="M9.75 4.72l-.47.36h-.27l.1.14-.2.26.1.13.27-.13.1.13.03-.33.54-.4z"/><path fill-rule="evenodd" clip-rule="evenodd" fill="#c03f2a" d="M9.25 4.42l-.47.4h-.3l.1.1-.16.26.06.13.3-.13.1.13.03-.33.5-.4zM8.98 3.85l-.47.37h-.26l.1.13-.2.23.1.14.26-.14.1.14.04-.34.53-.4z"/><path fill-rule="evenodd" clip-rule="evenodd" fill="#e0852a" d="M13.9 3.69v-.44l-.4-.59v-.44l-.36-.43h-.77l-.66-.46h-.87v2.36z"/><path fill-rule="evenodd" clip-rule="evenodd" fill="#c03f2a" d="M10.84 6.05h-.26l-.27-.3h-.43l-.23-.14.13-.16.23.16h.23l.24-.46.36.17v.29h-.36z"/><path fill-rule="evenodd" clip-rule="evenodd" fill="#fff" d="M7.75 3.69v-.44l.4-.59v-.44l.37-.43h.79l.64-.46h.89v2.36z"/><path fill-rule="evenodd" clip-rule="evenodd" fill="#c03f2a" d="M10.84 1.33h-.26l-.27.3h-.43l-.23.16.13.14.23-.14h.23l.24.43.36-.13v-.3h-.36z"/><path fill-rule="evenodd" clip-rule="evenodd" fill="#c03f2a" d="M10.84 1.33h.24l.26.3h.43l.24.16-.1.14-.27-.14h-.23l-.23.43-.34-.13v-.3h.34z"/><path fill-rule="evenodd" clip-rule="evenodd" fill="#fff" d="M13.9 3.69v.43l-.4.6v.43l-.36.46h-.77l-.66.43h-.87V3.69z"/><path fill-rule="evenodd" clip-rule="evenodd" fill="#c03f2a" d="M10.84 6.05h.24l.26-.3h.43l.24-.14-.1-.16-.27.16h-.23l-.23-.46-.34.17v.29h.34zM9.25 2.96l-.47-.37h-.3l.1-.13-.16-.27.06-.1.3.1.1-.1.03.33.5.4zM11.91 2.66l.46-.37h.27l-.07-.13.17-.23-.1-.14-.27.14-.1-.14-.03.34-.53.39z"/><path fill-rule="evenodd" clip-rule="evenodd" fill="#c03f2a" d="M9.75 2.66l-.47-.37h-.27l.1-.13-.2-.23.1-.14.27.14.1-.14.03.34.54.39zM8.98 3.55l-.47-.39h-.26l.1-.1-.2-.27.1-.13.26.13.1-.13.04.33.53.4z"/><path fill-rule="evenodd" clip-rule="evenodd" fill="#fff" d="M7.98 3.69h.14l.1.16.13-.16h2.49v2.06h-.13l.13.13v.16l-.36-.43v-.16h.1v.16h.13v-.16l-.96-.63h-.8v-.63l-.37-.34h-.23l-.13.13.13.14h-.13z"/><path fill-rule="evenodd" clip-rule="evenodd" fill="#e0852a" d="M7.98 3.69h.14l.1-.14.13.14h2.49V1.63h-.13l.13-.14v-.16l-.36.46v.14h.1v-.14h.13v.14l-.96.66h-.8v.63l-.37.33h-.23l-.13-.16.13-.14h-.13z"/><path fill-rule="evenodd" clip-rule="evenodd" fill="#307359" d="M8.52 3.69h2.32v1.76l-1.03-.73h-.76v-.6z"/><path fill-rule="evenodd" clip-rule="evenodd" fill="#c03f2a" d="M12.41 2.96l.46-.37h.3l-.1-.13.2-.27-.1-.1-.3.1-.06-.1-.07.33-.5.4zM12.67 3.55l.47-.39h.26l-.06-.1.16-.27-.1-.13-.26.13-.1-.13-.03.33-.54.4z"/><path fill-rule="evenodd" clip-rule="evenodd" fill="#fff" d="M13.67 3.69h-.13l-.1-.14-.14.14h-2.46V1.63h.1l-.1-.14v-.16l.34.46v.14h-.1v-.14h-.14v.14l.97.66h.8v.63l.36.33h.23l.14-.16-.14-.14h.14z"/><path fill-rule="evenodd" clip-rule="evenodd" fill="#307359" d="M13.14 3.69h-2.3V1.93l1 .73h.77v.59z"/><path fill-rule="evenodd" clip-rule="evenodd" fill="#c03f2a" d="M11.91 4.72l.46.36h.27l-.07.14.17.26-.1.13-.27-.13-.1.13-.03-.33-.53-.4z"/><path fill-rule="evenodd" clip-rule="evenodd" fill="#c03f2a" d="M12.41 4.42l.46.4h.3l-.1.1.2.26-.1.13-.3-.13-.06.13-.07-.33-.5-.4zM12.67 3.85l.47.37h.26l-.06.13.16.23-.1.14-.26-.14-.1.14-.03-.34-.54-.4z"/><path fill-rule="evenodd" clip-rule="evenodd" fill="#e0852a" d="M13.67 3.69h-.13l-.1.16-.14-.16h-2.46v2.06h.1l-.1.13v.16l.34-.43v-.16h-.1v.16h-.14v-.16l.97-.63h.8v-.63l.36-.34h.23l.14.13-.14.14h.14z"/><path fill-rule="evenodd" clip-rule="evenodd" fill="#c03f2a" d="M13.14 3.69h-2.3v1.76l1-.73h.77v-.6zM8.52 3.69h2.32V1.93l-1.03.73h-.76v.59zM11.08 3.69l.63-.44h.4l-.14-.13.27-.3-.13-.16-.4.16-.1-.16-.07.39-.7.47z"/><path fill-rule="evenodd" clip-rule="evenodd" fill="#c03f2a" d="M10.58 3.69l-.63.43h-.4l.13.17-.27.29.14.14.4-.14.13.14.03-.4.73-.47z"/><path fill-rule="evenodd" clip-rule="evenodd" fill="#307359" d="M10.58 3.69l-.63-.44h-.4l.13-.13-.27-.3.14-.16.4.16.13-.16.03.39.73.47zM11.08 3.69l.63.43h.4l-.14.17.27.29-.13.14-.4-.14-.1.14-.07-.4-.7-.47z"/><path fill-rule="evenodd" clip-rule="evenodd" fill="#fff" d="M10.08 3.69l.76-.73.77.73-.77.73z"/><path fill-rule="evenodd" clip-rule="evenodd" fill="#c03f2a" d="M8.35 3.98l.1.14-.1.17h-.13l-.34-.6h.1l.24.43h.13l-.13-.14.13-.13h.23v.13zM8.35 3.39l.1-.14-.1-.13h-.13l-.34.57h.1l.24-.44h.13l-.13.14.13.16h.23v-.16zM13.31 3.98l-.1.14.1.17h.13l.33-.6h-.1l-.23.43h-.13l.13-.14-.13-.13h-.24v.13zM13.31 3.39l-.1-.14.1-.13h.13l.33.57h-.1l-.23-.44h-.13l.13.14-.13.16h-.24v-.16zM10.71 3.12h.23v1.16h-.23z"/><path fill-rule="evenodd" clip-rule="evenodd" fill="#c03f2a" d="M10.34 3.39h.97v.6h-.97z"/><path fill-rule="evenodd" clip-rule="evenodd" fill="#307359" d="M9.78 26.67L7.65 27.9v2.09l2.13 1.23h2.13l2.13-1.23V27.9l-2.13-1.23z"/><path fill="none" d="M9.78 26.67L7.65 27.9v2.09l2.13 1.23h2.13l2.13-1.23V27.9l-2.13-1.23z"/><path fill-rule="evenodd" clip-rule="evenodd" fill="#cf3b1d" d="M8.42 28.46h.13v-.3h.26v.3h.14v-.7h-.14v.3h-.26v-.3h-.13zM11.68 30.82h.13v-.3h.26v.3h.14v-.7h-.14v.3h-.26v-.3h-.13zM12.71 28.46h.13v-.3h.27v.3h.13v-.7h-.13v.3h-.27v-.3h-.13zM12.71 29.66h.13v-.3h.27v.3h.13v-.73h-.13v.33h-.27v-.33h-.13z"/><path fill-rule="evenodd" clip-rule="evenodd" fill="#e0852a" d="M10.84 31.12v-2.19h3.06v.99l-2.03 1.2zM10.84 26.77v2.16H7.75v-.97l2.06-1.19z"/><path fill-rule="evenodd" clip-rule="evenodd" fill="#fff" d="M10.84 26.77v2.16h3.06v-.97l-2.03-1.19zM10.84 31.12v-2.19H7.75v.99l2.06 1.2z"/><path d="M12.47 28.06h1.23l-1.23-.6v.6zm1.43-.1v.96h-1.93v-.76h-.43l-.5-.3v-.7l.3-.3h-.4v1h-.1v-1.1h1.03l2.03 1.2z" fill-rule="evenodd" clip-rule="evenodd" fill="#e0852a"/><path d="M12.47 28.06h1.23l-1.23-.6v.6zm1.43-.1v.96h-1.93v-.76h-.43l-.5-.3v-.7l.3-.3h-.4v1h-.1v-1.1h1.03l2.03 1.2z" fill="none"/><path fill-rule="evenodd" clip-rule="evenodd" fill="#c03f2a" d="M9.81 28.26v1.37h.3l.73.39.7-.39h.33v-1.37h-.33l-.7-.4-.73.4z"/><path d="M9.18 29.82H7.95l1.23.6v-.6zm-1.43.1v-1h1.96v.8h.4l.5.3v.7l-.3.3h.4v-1h.13v1.1H9.81l-2.06-1.2z" fill-rule="evenodd" clip-rule="evenodd" fill="#e0852a"/><path d="M9.18 29.82H7.95l1.23.6v-.6zm-1.43.1v-1h1.96v.8h.4l.5.3v.7l-.3.3h.4v-1h.13v1.1H9.81l-2.06-1.2z" fill="none"/><path d="M9.18 28.06H7.95l1.23-.6v.6zm-1.43-.1v.96h1.96v-.76h.4l.5-.3v-.7l-.3-.3h.4v1h.13v-1.1H9.81l-2.06 1.2z" fill-rule="evenodd" clip-rule="evenodd" fill="#fff"/><path d="M9.18 28.06H7.95l1.23-.6v.6zm-1.43-.1v.96h1.96v-.76h.4l.5-.3v-.7l-.3-.3h.4v1h.13v-1.1H9.81l-2.06 1.2z" fill="none"/><path d="M12.47 29.82h1.23l-1.23.6v-.6zm1.43.1v-1h-1.93v.8h-.43l-.5.3v.7l.3.3h-.4v-1h-.1v1.1h1.03l2.03-1.2z" fill-rule="evenodd" clip-rule="evenodd" fill="#fff"/><path d="M12.47 29.82h1.23l-1.23.6v-.6zm1.43.1v-1h-1.93v.8h-.43l-.5.3v.7l.3.3h-.4v-1h-.1v1.1h1.03l2.03-1.2z" fill="none"/><path fill-rule="evenodd" clip-rule="evenodd" fill="#c03f2a" d="M8.35 29.72h.13v-.29h.27v.29h.13v-.69h-.13v.29h-.27v-.29h-.13zM9.58 30.72h.13v-.3h.27v.3h.13v-.7h-.13v.3h-.27v-.3h-.13zM8.35 28.16h.13v.3h.27v-.3h.13v.7h-.13v-.3h-.27v.3h-.13zM9.58 27.17h.13v.3h.27v-.3h.13v.69h-.13v-.3h-.27v.3h-.13zM12.77 28.86h.14v-.3h.26v.3h.13v-.7h-.13v.3h-.26v-.3h-.14zM11.54 30.72h.14v-.3h.26v.3h.13v-.7h-.13v.3h-.26v-.3h-.14zM12.77 29.72h.14v-.29h.26v.29h.13v-.69h-.13v.29h-.26v-.29h-.14zM11.54 27.86h.14v-.3h.26v.3h.13v-.69h-.13v.3h-.26v-.3h-.14z"/><path fill-rule="evenodd" clip-rule="evenodd" fill="#307359" d="M10.94 28.93l.4-.34h.2v.17h-.2v.1h.3v-.37h-.3v-.26h-.4v.26h.1v-.19h.2v.19l-.4.37-.43-.37v-.19h.2v.19h.1v-.26h-.4v.26h-.3v.37h.3v-.1h-.2v-.17h.2l.4.34-.4.36h-.2v-.16h.2v-.1h-.3v.36h.3v.27h.4v-.27h-.1v.2h-.2v-.2l.43-.36.4.36v.2h-.2v-.2h-.1v.27h.4v-.27h.3v-.36h-.3v.1h.2v.16h-.2z"/><path fill-rule="evenodd" clip-rule="evenodd" fill="#c03f2a" d="M7.95 10.56l.2-.27h1.2l.89-1.12h1.2l.9 1.12h1.16l.2.27-.2.27h-1.16l-.9 1.16h-1.2l-.89-1.16h-1.2z"/><path fill-rule="evenodd" clip-rule="evenodd" fill="#c03f2a" d="M8.05 10.26l.1-.1h1.23l.93-1.09h1.03l.93 1.09h1.24l.09.1-.09.1h-1.24l-.83.96h-1.23l-.83-.96H8.15z"/><path fill="none" d="M8.05 10.26l.1-.1h1.23l.93-1.09h1.03l.93 1.09h1.24l.09.1-.09.1h-1.24l-.83.96h-1.23l-.83-.96H8.15z"/><path d="M11.34 10.36l.4.43-.2.23-.1-.1h-.1v.1l.1.13h.2l.2-.23v-.23l-.4-.46.4-.47v-.2l-.2-.23h-.2l-.1.1v.13h.1l.1-.13.2.23-.4.46-.4-.46.4-.46v-.1h-.1l-.4.46-.4-.46h-.1v.1l.4.46-.4.46-.4-.46.2-.23.1.13h.1v-.13l-.1-.1h-.2l-.2.23v.2l.4.47-.4.46v.23l.2.23h.2l.1-.13v-.1h-.1l-.1.1-.2-.23.4-.43.4.43-.4.46v.13h.1l.4-.47.4.47h.1v-.13l-.4-.46.4-.43zm-.5-.6l-.4.47.4.46.4-.46-.4-.47z" fill-rule="evenodd" clip-rule="evenodd" fill="#e0852a"/><path d="M11.34 10.36l.4.43-.2.23-.1-.1h-.1v.1l.1.13h.2l.2-.23v-.23l-.4-.46.4-.47v-.2l-.2-.23h-.2l-.1.1v.13h.1l.1-.13.2.23-.4.46-.4-.46.4-.46v-.1h-.1l-.4.46-.4-.46h-.1v.1l.4.46-.4.46-.4-.46.2-.23.1.13h.1v-.13l-.1-.1h-.2l-.2.23v.2l.4.47-.4.46v.23l.2.23h.2l.1-.13v-.1h-.1l-.1.1-.2-.23.4-.43.4.43-.4.46v.13h.1l.4-.47.4.47h.1v-.13l-.4-.46.4-.43zm-.5-.6l-.4.47.4.46.4-.46-.4-.47z" fill="none"/><path fill-rule="evenodd" clip-rule="evenodd" fill="#e0852a" d="M10.24 11.49v.9l.1-.1.1.1.1-.1.1.1.1-.1.1.1.1-.1.1.1.1-.1.1.1.1-.1.1.1v-.9zM11.44 8.97v-.9l-.1.1-.1-.1-.1.1-.1-.1-.1.1-.1-.1-.1.1-.1-.1-.1.1-.1-.1-.1.1-.1-.1v.9zM13.11 10v-.9l-.11.1-.09-.1-.1.1-.1-.1-.07.1-.1-.1-.1.1-.1-.1v.9zM9.35 10v-.9l-.1.1-.1-.1-.1.1-.1-.1-.1.1-.1-.1-.1.1-.1-.1v.9zM13.11 10.46v.93l-.11-.13-.09.13-.1-.13-.1.13-.07-.13-.1.13-.1-.13-.1.13v-.93zM9.35 10.46v.93l-.1-.13-.1.13-.1-.13-.1.13-.1-.13-.1.13-.1-.13-.1.13v-.93z"/><path fill-rule="evenodd" clip-rule="evenodd" fill="#307359" d="M11.44 11.49v.56l.1-.09.1.09.1-.09.1.09.1-.09.1.09.1-.09.1.09.1-.09v-1.5zM10.24 11.49v.56l-.1-.09-.09.09-.1-.09-.1.09-.1-.09-.1.09-.1-.09-.1.09-.1-.09v-1.5zM10.24 8.97V8.4l-.1.14-.09-.14-.1.14-.1-.14-.1.14-.1-.14-.1.14-.1-.14-.1.14V10zM11.44 8.97V8.4l.1.14.1-.14.1.14.1-.14.1.14.1-.14.1.14.1-.14.1.14V10zM8.55 11.16l-.1-.13-.1.13-.1-.13-.1.13-.1-.13-.1.13-.1-.13-.1.13V9.33l.1.1.1-.1.1.1.1-.1.1.1.1-.1.1.1.1-.1V10h-.4l-.2.23.2.23h.4zM13.11 11.16l.1-.13.09.13.1-.13.1.13.1-.13.1.13.1-.13.1.13V9.33l-.1.1-.1-.1-.1.1-.1-.1-.1.1-.1-.1-.09.1-.1-.1V10h.39l.2.23-.2.23h-.39z"/><path d="M9.75 11.56s-.1.1-.1.13.1.13.13.13c.07 0 .13-.07.13-.13 0-.03-.1-.13-.1-.13v-.17s.2.3.2.17c0-.1-.2-.27-.2-.27h-.06s-.2.2-.2.27c0 .13.2-.17.2-.17v.17z" fill-rule="evenodd" clip-rule="evenodd" fill="#fff"/><path d="M10.78 11.92s-.1.1-.1.17.1.2.17.2c.03 0 .13-.13.13-.2s-.1-.17-.1-.17v-.27s.17.4.17.23c0-.13-.17-.37-.17-.37h-.1s-.2.3-.17.37c0 .17.17-.23.17-.23v.27z" fill-rule="evenodd" clip-rule="evenodd" fill="#c03f2a"/><path d="M9.95 10.23c0 .07-.1.13-.2.13-.13 0-.2-.07-.2-.13 0-.07.07-.1.2-.1.1 0 .2.03.2.1M11.04 10.23c0 .07-.1.13-.2.13-.13 0-.2-.07-.2-.13 0-.07.07-.1.2-.1.1 0 .2.03.2.1M12.14 10.23c0 .07-.1.13-.2.13-.13 0-.2-.07-.2-.13 0-.07.07-.1.2-.1.1 0 .2.03.2.1" fill-rule="evenodd" clip-rule="evenodd" fill="#307359"/><path d="M9.71 8.93s-.07-.1-.07-.17c0-.03.07-.13.1-.13.07 0 .13.1.13.13 0 .07-.07.17-.07.17v.17s.17-.3.17-.17c0 .1-.17.27-.17.27h-.1s-.17-.2-.17-.27c0-.13.17.17.17.17v-.17z" fill-rule="evenodd" clip-rule="evenodd" fill="#fff"/><path d="M10.74 8.57s-.1-.13-.1-.2c0-.03.13-.17.17-.17.07 0 .13.1.13.17s-.1.2-.1.2v.27s.2-.43.2-.23c0 .13-.2.33-.2.33h-.1s-.2-.26-.17-.33c0-.2.17.23.17.23v-.27z" fill-rule="evenodd" clip-rule="evenodd" fill="#c03f2a"/><path d="M11.87 11.56s-.1.1-.1.13.1.13.13.13.13-.07.13-.13c0-.03-.1-.13-.1-.13v-.17s.2.3.2.17c0-.1-.2-.27-.2-.27h-.07s-.2.2-.2.27c0 .13.2-.17.2-.17v.17zM11.84 8.93s-.07-.1-.07-.17c-.03-.03.07-.13.1-.13.07 0 .13.1.13.13 0 .07-.07.17-.07.17v.17s.17-.3.17-.17c0 .1-.17.27-.17.27h-.1s-.17-.2-.17-.27c0-.13.17.17.17.17v-.17z" fill-rule="evenodd" clip-rule="evenodd" fill="#fff"/><path d="M8.88 10.93s-.13.1-.13.13.13.13.17.13c.07 0 .17-.1.17-.13s-.1-.13-.1-.13v-.17s.2.27.2.13c0-.07-.2-.23-.2-.23h-.1s-.23.2-.2.23c0 .13.2-.13.2-.13v.17zM8.85 9.63s-.1-.07-.1-.13c0-.03.1-.13.17-.13s.17.1.17.13c0 .07-.13.13-.13.13v.17s.2-.27.2-.13c0 .07-.2.23-.2.23h-.1s-.23-.2-.2-.23c0-.13.2.13.2.13v-.17zM12.71 10.89s-.1.1-.1.13c-.03.03.1.13.17.13.03 0 .17-.1.17-.13s-.13-.13-.13-.13v-.17s.2.27.2.17-.2-.23-.2-.23h-.1s-.23.17-.2.23c0 .1.2-.17.2-.17v.17zM12.67 9.6s-.1-.07-.1-.13c0-.03.1-.1.17-.1s.17.07.17.1c0 .07-.13.13-.13.13v.17s.2-.27.2-.13c0 .07-.2.23-.2.23h-.1s-.23-.2-.2-.23c0-.13.2.13.2.13V9.6z" fill-rule="evenodd" clip-rule="evenodd" fill="#c03f2a"/><path d="M8.05 10.93c-.03-.1 0-.13 0-.17-.03-.03.1-.13.13-.13s.1.1.1.13v.17l-.07-.13c-.07.2-.07.2-.1 0l-.06.13zM8.05 9.6c-.03.07 0 .13 0 .17 0 .03.1.13.13.13s.1-.1.1-.17V9.6l-.06.13c-.07-.2-.07-.2-.1 0l-.07-.13zM13.44 10.89c-.03-.07-.03-.1-.03-.17 0-.03.1-.1.13-.1.07 0 .13.07.13.13 0 .03 0 .07-.03.17l-.03-.13c-.07.17-.07.17-.1-.03l-.07.13zM13.44 9.6c-.04.06-.04.1-.04.13 0 .07.1.13.13.13.07 0 .13-.1.13-.13v-.16l-.06.13c-.07-.2-.07-.2-.1 0l-.06-.1z" fill-rule="evenodd" clip-rule="evenodd" fill="#fff"/><path d="M10.21 12.42v-.33h-.93v-.63h-.83v-.23h-.7V9.27h.7v-.2h.83V8.4h.93v-.3h1.23v.3h.93v.66h.83v.2h.7v1.96h-.7v.23h-.83v.63h-.93v.33h-1.23zm-.1.1v-.3h-.93v-.66h-.83v-.23h-.7V9.17h.7v-.2h.83V8.3h.93v-.33h1.43v.33h.93v.66h.83v.2h.73v2.16h-.73v.23h-.83v.66h-.93v.3h-1.43z" fill-rule="evenodd" clip-rule="evenodd" fill="#c03f2a"/><path d="M10.21 12.42v-.33h-.93v-.63h-.83v-.23h-.7V9.27h.7v-.2h.83V8.4h.93v-.3h1.23v.3h.93v.66h.83v.2h.7v1.96h-.7v.23h-.83v.63h-.93v.33h-1.23zm-.1.1v-.3h-.93v-.66h-.83v-.23h-.7V9.17h.7v-.2h.83V8.3h.93v-.33h1.43v.33h.93v.66h.83v.2h.73v2.16h-.73v.23h-.83v.66h-.93v.3h-1.43z" fill="none"/><path d="M28.21 7.71c0-2.36-1.93-4.28-4.29-4.28-2.36 0-4.26 1.93-4.26 4.28 0 2.39 1.9 4.28 4.26 4.28s4.29-1.89 4.29-4.28" fill-rule="evenodd" clip-rule="evenodd" fill="#fff"/><path d="M27.04 7.04c0-2.32-1.9-4.22-4.23-4.22-2.33 0-4.22 1.9-4.22 4.22 0 2.36 1.9 4.25 4.22 4.25a4.23 4.23 0 0 0 4.23-4.25" fill-rule="evenodd" clip-rule="evenodd" fill="#307359"/><path fill-rule="evenodd" clip-rule="evenodd" fill="#fbfcfc" d="M24.48 5.31h-.6l-.16.6-.2-.6h-.6l.46-.36-.2-.57.5.34.5-.34-.16.57zM22.32 4.22l-.6.03-.17.57-.19-.57-.6-.03.46-.37-.2-.56.5.33.47-.33-.14.56zM22.32 6.41h-.6l-.17.56-.19-.56h-.6l.46-.36-.2-.6.5.36.47-.36-.14.6zM22.32 8.6h-.6l-.17.57-.19-.57h-.6l.46-.36-.2-.6.5.36.47-.36-.14.6zM20.16 7.47h-.6l-.17.6-.2-.6h-.6l.47-.36-.2-.57.5.34.5-.34-.17.57z"/><path fill-rule="evenodd" clip-rule="evenodd" fill="#c03f2a" d="M11.54 30.72h.14v-.3h.26v.3h.13v-.7h-.13v.3h-.26v-.3h-.14z"/></svg>