<svg xmlns="http://www.w3.org/2000/svg" viewBox="0 0 58.92 34.37"><path fill="#d30025" d="M0 0h58.92v34.37H0z"/><path d="M29.46 8.59c4.74 0 8.59 3.85 8.59 8.59s-3.85 8.59-8.59 8.59c-4.75 0-8.6-3.85-8.6-8.59.01-4.74 3.85-8.59 8.6-8.59" fill="#fff"/><path d="M29.46 10.74c3.56 0 6.44 2.89 6.44 6.45s-2.88 6.44-6.44 6.44c-3.56 0-6.45-2.88-6.45-6.44.01-3.56 2.89-6.45 6.45-6.45" fill="#d30025"/><path d="M31.18 12.03c2.85 0 5.15 2.31 5.15 5.16s-2.31 5.16-5.15 5.16a5.16 5.16 0 1 1 0-10.32" fill="#fff"/><path fill="#d30025" d="M27.31 17.19l3.68 1.19.6-1.84"/><path fill="#d30025" d="M27.31 17.19l3.68-1.2.6 1.84"/><path fill="#d30025" d="M29.98 13.51v3.87h1.94"/><path fill="#d30025" d="M29.98 13.51l2.28 3.13-1.57 1.14"/><path fill="#d30025" d="M29.98 20.87l2.28-3.13-1.57-1.14"/><path fill="#d30025" d="M29.98 20.87V17h1.94"/><path fill="#d30025" d="M34.31 14.91l-3.68 1.2.6 1.84"/><path fill="#d30025" d="M34.31 14.91l-2.27 3.13-1.57-1.13"/><path fill="#d30025" d="M34.31 19.46l-2.27-3.13-1.57 1.14"/><path fill="#d30025" d="M34.31 19.46l-3.68-1.2.6-1.83"/></svg>