<svg xmlns="http://www.w3.org/2000/svg" viewBox="0 0 58.92 34.37"><path fill="#d00027" d="M0 0h58.92v34.37H0z"/><path d="M17.19 8.59c4.75 0 8.59 3.85 8.59 8.59s-3.85 8.59-8.59 8.59c-4.75 0-8.59-3.85-8.59-8.59-.01-4.74 3.84-8.59 8.59-8.59" fill="#fff"/><path d="M19.33 10.31a6.88 6.88 0 1 1 0 13.76c-3.8 0-6.87-3.08-6.87-6.88s3.08-6.88 6.87-6.88" fill="#d00027"/><path fill="#fff" d="M24.45 17.19l4.08 1.33.67-2.05z"/><path fill="#fff" d="M24.45 17.19l4.08-1.33.67 2.04z"/><path fill="#fff" d="M27.42 13.1v4.3h2.14z"/><path fill="#fff" d="M27.42 13.1l2.52 3.48-1.74 1.26z"/><path fill="#fff" d="M27.42 21.27l2.52-3.47-1.74-1.26z"/><path fill="#fff" d="M27.42 21.27v-4.29h2.14z"/><path fill="#fff" d="M32.22 14.66l-4.09 1.33.67 2.04z"/><path fill="#fff" d="M32.22 14.66l-2.53 3.48-1.74-1.26z"/><path fill="#fff" d="M32.22 19.71l-2.53-3.47-1.74 1.26z"/><path fill="#fff" d="M32.22 19.71l-4.09-1.33.67-2.04z"/></svg>