<svg xmlns="http://www.w3.org/2000/svg" viewBox="0 0 58.92 34.37"><path fill="#80a7d8" d="M0 0h58.92v34.37H0z"/><path fill-rule="evenodd" clip-rule="evenodd" fill="#f3d02f" d="M56.57 8.49l-1.7-1.16-1.7 1.16.65-1.87-1.69-1.16h2.09l.65-1.88.65 1.88h2.1l-1.7 1.16zM51.3 23.47l-1.69-1.16-1.7 1.16.65-1.88-1.7-1.16h2.1l.65-1.88.64 1.88h2.1l-1.7 1.16zM56.57 20.08l-1.7-1.17-1.7 1.17.65-1.88-1.69-1.16h2.09l.65-1.88.65 1.88h2.1l-1.7 1.16zM33.92 30.94l-1.69-1.16-1.7 1.16.65-1.88-1.7-1.16h2.1l.65-1.88.64 1.88h2.1l-1.7 1.16zM36.59 19.05l1.69 1.16 1.7-1.16-.65 1.87 1.7 1.16h-2.1l-.65 1.88-.64-1.88h-2.1l1.7-1.16zM42.77 10.49l1.7 1.16 1.7-1.16-.65 1.88 1.7 1.16h-2.1l-.65 1.87-.65-1.87h-2.09l1.69-1.16zM47.97 8.71l1.7 1.17 1.7-1.17-.65 1.88 1.69 1.16h-2.09l-.65 1.88-.65-1.88h-2.09l1.69-1.16zM42.77 23.52l1.7 1.17 1.7-1.17-.65 1.88 1.7 1.16h-2.1l-.65 1.88-.65-1.88h-2.09l1.69-1.16zM36.59 25.04l1.69 1.16 1.7-1.16-.65 1.87 1.7 1.16h-2.1l-.65 1.88-.64-1.88h-2.1l1.7-1.16z"/><path fill="#1b257d" d="M0 0h29.46v14.73H0z"/><path fill="#fff" d="M26.17 0L0 13.08v1.65h3.29L29.46 1.65V0z"/><path fill="#fff" d="M0 0v1.65l26.17 13.08h3.29v-1.65L3.29 0z"/><path fill="#fff" d="M12.28 0v4.91H0v4.91h12.28v4.91h4.91V9.82h12.27V4.91H17.19V0z"/><path fill="#c0003b" d="M13.26 0v5.89H0v2.95h13.26v5.89h2.94V8.84h13.26V5.89H16.2V0z"/><path fill-rule="evenodd" clip-rule="evenodd" fill="#c0003b" d="M17.44 4.91h2.2L29.46 0h-2.19z"/><path fill="#c0003b" d="M0 1.1l7.62 3.81h2.2L0 0z"/><path fill-rule="evenodd" clip-rule="evenodd" fill="#c0003b" d="M29.46 14.73v-1.1l-7.62-3.81h-2.2z"/><path fill="#c0003b" d="M9.82 9.82L0 14.73h2.2l9.82-4.91z"/></svg>