<svg xmlns="http://www.w3.org/2000/svg" viewBox="0 0 58.92 34.37"><path fill="#d10e2f" d="M0 0h58.92v34.37H0z"/><path fill="#1c2666" d="M0 0h25.78v17.19H0z"/><path d="M14.61 8.59l-1.72 6.44-1.72-6.44 1.72-6.45m0 8.17l6.44-1.72-6.44-1.72-6.45 1.72" fill="#fff"/><path d="M14.38 9.45l-4.71 4.72 1.73-6.44 4.71-4.72m-4.08 7.07l6.44 1.73-4.72-4.71-6.44-1.73" fill="#fff"/><path d="M13.75 10.08l-6.44 1.73 4.72-4.71 6.44-1.73M11.4 9.45l4.71 4.72-1.74-6.44-4.7-4.72" fill="#fff"/><path d="M12.89 4.94a3.651 3.651 0 0 1 0 7.3 3.651 3.651 0 0 1 0-7.3" fill="#1c2666"/><path d="M12.89 5.37c1.78 0 3.22 1.44 3.22 3.22 0 1.78-1.44 3.22-3.22 3.22-1.78 0-3.22-1.44-3.22-3.22 0-1.78 1.44-3.22 3.22-3.22" fill="#fff"/></svg>