<svg xmlns="http://www.w3.org/2000/svg" viewBox="0 0 58.92 34.37"><path d="M0 0h58.92v34.37H0z"/><path fill="#f8e82a" d="M0 5.73h58.92v5.73H0z"/><path fill="#cc3220" d="M0 11.46h58.92v5.73H0z"/><path fill="#f8e82a" d="M0 22.92h58.92v5.73H0z"/><path fill="#cc3220" d="M0 28.64h58.92v5.73H0z"/><path d="M34.81 17.19a5.35 5.35 0 1 1-5.35-5.35c2.96 0 5.35 2.39 5.35 5.35" fill="#fffcff"/><path d="M29.46 22.57c-2.97 0-5.38-2.41-5.38-5.38 0-2.97 2.41-5.38 5.38-5.38 2.97 0 5.38 2.41 5.38 5.38 0 2.96-2.41 5.38-5.38 5.38m0-10.71c-2.94 0-5.32 2.39-5.32 5.32 0 2.94 2.39 5.32 5.32 5.32a5.33 5.33 0 0 0 5.32-5.32c0-2.93-2.38-5.32-5.32-5.32"/><path d="M28.52 13.08l-.35-.64c.13-.13.36-.24.72-.24 0 .02-.04.7-.04.7l-.33.18z" fill="#cc2920"/><path d="M28.5 13.12l-.36-.67c.17-.19.42-.28.74-.28.03.05-.01.73-.01.73l-.37.22zm.36-.91c-.28.03-.52.11-.67.26l.34.58.31-.16c-.02-.01.02-.66.02-.68"/><path d="M28.85 12.91l.05-.71s.72-.04 1.11.43c.01-.01-.38.55-.38.55l-.78-.27z" fill="#f8e82a"/><path d="M29.64 13.21l-.8-.27.03-.76h.07c.17 0 .74.03 1.08.44.01.02.01.02-.38.58v.01zm-.69-.98l-.07.68.74.23c.06-.09.36-.51.37-.53-.33-.34-.88-.38-1.04-.38"/><path d="M29.64 13.18l.35-.55c.24.25.33.43.37.7 0 .01-.56.14-.56.13 0-.01-.16-.28-.16-.28" fill="#cc2920"/><path d="M29.8 13.48l-.03-.02c-.01-.02-.15-.26-.16-.27l.35-.58c.29.25.39.43.43.71-.01.05-.58.16-.59.16m-.14-.29c.01 0 .12.17.15.24.09-.02.5-.12.53-.13-.05-.23-.14-.4-.38-.65l-.3.54z"/><path d="M28.69 22.23s.66-.76 1.96-.6c-.2-.32-.82-.28-.82-.28s-.2-1.48-.04-1.55c.15-.07.8.01.8.01.09 0 .23-.23.12-.38-.12-.15-.46-.71-.32-.82.14-.11.9.06.9.06l-2.15-2.75s-.22-1.04.22-1.54c.53-.44.48-.91.46-.91-.07-.48-.8-.83-1.3-.38-.29.36-.1.62-.1.62s-.77.21-.8.34c-.03.13.87-.02.87-.02l-.09.61s-1.74 1.59-.41 2.96c.01-.01.04-.06.04-.06s.47.58.96.71c.46.48.42.4.42.4s.09.75.01.9c-.12-.04-1.3-.08-1.47-.01-.16.05-.77.02-.62 1.01.12-.27.22-.51.22-.51s-.02.36.13.49c-.02-.38.14-.63.14-.63s.03.41.12.48c.09.06.09-.67.6-.61.51.06.87.04.87.04s.17 1.43.12 1.57c-.36-.09-1.24.04-1.29.26.51-.03.75.03.75.03s-.43.35-.3.56"/><path d="M28.69 22.28l-.02-.03c-.12-.2.18-.51.27-.59-.05.01-.2-.01-.43-.01-.08 0-.17 0-.27.01.03-.3.96-.39 1.3-.31 0-.08-.08-.94-.15-1.52-.05.02-.41.02-.85-.04h-.01c-.33 0-.43.29-.48.46-.03.1-.05.15-.09.15-.1-.06-.14-.33-.16-.45-.02.1-.11.3-.09.57-.2-.11-.18-.47-.18-.49l-.17.52c-.19-.9.28-.99.51-1.04.03 0 .06-.01.07-.01.08-.03.34-.04.53-.04.4 0 .88.03.96.05.03-.09-.01-.59-.04-.85-.01 0-.09-.07-.41-.4-.46-.12-.89-.62-.96-.7l.04-.04c0 .01.47.57.95.7.35.36.41.4.42.41.04.15.11.79.02.93-.16-.01-1.35-.05-1.49 0-.02.01-.05.01-.08.02-.23.04-.65.12-.52.96l.17-.51c.05.02.04.36.17.48-.07-.36.09-.62.1-.63.06.18.11.43.16.47 0-.01.02-.07.03-.12.06-.19.17-.5.49-.5.6.07.93.05.93.05.05.17.2 1.47.14 1.61-.11 0-.21-.01-.32-.01-.42 0-.93.11-.97.26.07-.04.17-.04.25-.04.32 0 .48.04.48.04-.09.14-.33.39-.28.56.14-.14.81-.72 1.95-.57-.18-.21-.63-.22-.77-.22l-.09-.03c-.05-.35-.18-1.51-.03-1.58.13-.06.81 0 .81 0 .02 0 .07-.04.1-.1.02-.03.06-.14-.01-.23-.08-.1-.38-.56-.35-.77 0-.04.02-.07.04-.08.14-.1.9.05.93.05l-2.18-2.71c-.01-.05-.22-1.07.22-1.57.48-.4.47-.83.45-.87-.08-.49-.83-.76-1.26-.38-.27.33-.1.57-.1.58-.38.15-.78.29-.79.36 0 0 .02.02.15.02.25 0 .68-.08.69-.08l-.05.65c-.02.03-.88.82-.91 1.76-.01.43.15.83.49 1.18v-.01c.01.04-.01.05-.01.05-.39-.37-.56-.78-.54-1.23.03-.96.91-1.77.92-1.78l.08-.59c-.02.04-.42.11-.66.11-.14 0-.17-.02-.19-.04.02-.18.65-.37.8-.41-.04-.02-.18-.29.09-.62.46-.42 1.27-.11 1.35.4.03.07.04.52-.47.93-.42.48-.21 1.5-.21 1.51l2.14 2.74c-.03.04-.46-.05-.73-.05-.12 0-.16.02-.17.03-.04.22.21.64.32.78.06.08.07.18.02.29-.03.07-.09.14-.15.14-.01 0-.3-.04-.54-.04-.15 0-.22.01-.24.03-.08.04-.03.82.06 1.52.21-.03.66 0 .82.27-.15.03-.27.02-.38.02-1.03 0-1.57.61-1.58.61l-.04.01z"/><path d="M28.9 14.42s-1.27 1.4-.72 2.47c.03-.15.02-.24.04-.24-.03-.02.16.13.14.1 0-.08-.06-.24-.06-.24.06.01.11.03.17.04-.03-.06-.07-.13-.1-.19l.24.03s-.09-.23-.06-.23.2.02.2.02c-.35-.65-.01-1.19.15-1.76" fill="#9ba49a"/><path d="M28.19 16.97l-.04-.07c-.55-1.07.71-2.49.73-2.5.01.14-.03.26-.07.38-.16.45-.31.88-.03 1.39-.03.04-.2.03-.23.03.02 0 .05.11.09.19l-.27.01.13.14-.15.01v-.01s.04.14.04.21c-.06.03-.2-.08-.2-.08.04.08.03.15.02.22l-.02.08zm.67-2.54c-.09.17-1.1 1.39-.7 2.36 0-.03.01-.06.01-.08l.03-.08c.04.02.14.1.16.1-.03-.04-.07-.16-.09-.21l-.02-.05.22.06-.13-.15.27-.01c-.11-.18-.1-.21-.09-.22.06-.01.23 0 .23 0-.32-.49-.16-.95 0-1.39.04-.11.08-.22.11-.33M29.34 13.22s.07.48-.19.62c-.04.03-.21.09-.18.18.03.13.1.11.21.09.26-.05.58-.63.16-.89" fill="#9ba49a"/><path d="M29.06 14.16c-.07 0-.11-.04-.13-.13-.03-.1.09-.16.16-.19.28-.15.22-.61.22-.62.21.08.29.25.25.45-.04.22-.22.44-.39.47-.04.01-.08.02-.11.02m.28-.91c.04.06.08.48-.18.62-.11.06-.18.1-.17.15.02.08.05.08.07.08.02 0 .05-.01.09-.02.16-.03.32-.23.36-.42a.38.38 0 0 0-.17-.41" fill="#9ba49a"/><path d="M28.87 13.63a.1.1 0 0 1-.1.1c-.06 0-.1-.04-.1-.1 0-.06.04-.1.1-.1.05 0 .1.05.1.1" fill="#fff"/><path d="M28.46 14.04c-.07.06-.42.42-.07.56.36-.1.26-.16.34-.24 0-.18-.18-.22-.27-.32" fill="#cc2920"/><path d="M28.39 14.62h-.01c-.1-.04-.15-.1-.17-.17-.03-.17.18-.38.23-.43.07.03.1.06.14.09.08.06.17.12.17.25l-.04.07c-.02.06-.06.12-.32.19zm.05-.57c-.02.06-.19.24-.17.38.01.05.05.1.12.13.24-.07.26-.12.27-.16.01-.02.02-.05.05-.07-.01-.07-.08-.12-.16-.18-.04-.03-.08-.06-.11-.1"/><path d="M29.23 17.49c-.02.08-.1.37.01.6.31-.13.45-.09.55-.02-.25-.21-.35-.29-.56-.58" fill="#9ba49a"/><path d="M29.23 18.13l-.01-.02c-.11-.22-.04-.5-.02-.6l.01.01c.02.1-.03.34.05.54.21-.09.36-.1.49-.04-.24-.14-.34-.23-.54-.5.26.25.36.34.6.53-.1.01-.15-.01-.23-.01-.09 0-.2.03-.33.08l-.02.01z" fill="#9ba49a"/><path d="M29.75 18.88l.02.68s.24.04.35 0c.11-.05-.01-.48-.37-.68" fill="#fff"/><path d="M29.98 19.61c-.11 0-.21-.02-.21-.02l-.04-.71c.33.14.47.45.46.61-.01.07-.04.09-.06.1-.04.01-.09.02-.15.02m-.15-.07c.07 0 .22.01.28-.01.03-.19-.1-.48-.37-.63l.06.65c0-.01.02-.01.03-.01" fill="#fff"/><path d="M31.48 18.96s-.44-1.06-1.56-1.33-.98-1.46-.88-1.54c.05-.1.08-.26.41-.11.32.15 1.81.9 2.02.94.21.04.03 2.06.01 2.04" fill="#9ba49a"/><path d="M31.48 18.99l-.03-.02c-.02-.04-.46-1.05-1.54-1.31-.64-.15-.86-.59-.93-.92-.07-.31-.02-.61.04-.66.05-.13.15-.25.44-.11l.37.18c.56.27 1.48.73 1.64.76.2.03.12 1.23.07 1.74-.02.34-.03.34-.06.34m-2.26-3.04c-.09 0-.12.06-.15.13-.05.06-.11.35-.03.67.08.31.29.71.88.85.94.23 1.41 1 1.54 1.26.04-.35.14-1.69.01-1.9-.17-.04-.92-.41-1.68-.78l-.37-.18a.534.534 0 0 0-.2-.05"/><path d="M30.41 17.63c-.02.01 1.5.9 1.04 1.66.43-.29.29-.79.29-.79s.35.92-.51 1.37c.09.08.15.06.15.06l-.14.15s-.07.11.51-.17c-.16.13-.17.22-.17.22s.04.12.42-.21c-.3.33-.37.5-.37.49.82-.07 2.62-2.75-.57-3.54.17.18.15.15.15.15l-.8.61z" fill="#cc2920"/><path d="M31.59 20.44l.03-.05.02.01-.02-.02c.04-.09.12-.2.22-.32-.08.07-.15.1-.2.1h-.02l-.05-.04c0-.02.02-.12.18-.25-.24.18-.41.24-.47.24l-.05-.06.13-.13c-.03.02-.07 0-.13-.04.53-.31.59-.78.56-1.09-.02.16-.09.36-.31.51.14-.33.11-.84-1.01-1.61-.08-.05-.08-.06-.08-.07l.81-.62-.15-.11c1.72.37 1.9 1.3 1.86 1.82-.07.88-.83 1.69-1.27 1.73h-.05zm.4-.55c-.12.2-.23.36-.3.48.43-.1 1.1-.85 1.17-1.67.07-.86-.57-1.5-1.79-1.81.19.12.19.12.18.14l-.79.59c.01 0 .02.01.04.02.93.64 1.26 1.19.98 1.65.37-.31.24-.79.24-.79h.01c.01.01.02.02.03.04.09.2.25.95-.5 1.34.06 0 .1.01.12.01l-.01.01s0 .01-.01.01l-.1.18c.03-.03.14-.05.48-.22-.12.16-.13.25-.13.25.06 0 .16-.03.38-.23"/><path d="M30.48 17.36c.21.15.28.2.3.27-.19-.04-.36-.03-.36-.03s-.41-.39-.48-.42c-.06 0-.37-.2-.37-.2-.16-.08-.3-.63.28-.47.6.29.69.31.69.31.24.08.48.15.72.23.14.16.28.31.42.46 0 0-.74-.37-.83-.37.2.16.32.39.32.39-.24-.07-.44-.13-.69-.17" fill="#fff"/><path d="M30.83 17.67l-.05-.01c-.11-.02-.22-.03-.29-.03l-.08-.01c-.16-.15-.42-.39-.47-.41-.05 0-.3-.16-.38-.2-.09-.05-.18-.24-.15-.38.02-.08.14-.23.45-.14.59.28.69.31.69.31l.72.23.43.47c-.32-.1-.79-.32-.85-.32.22.12.34.34.34.35l.03.06-.11-.03c-.21-.06-.39-.11-.61-.15l-.01-.06c.23.04.42.09.63.15-.03-.04-.14-.2-.29-.32.11-.04.78.29.86.32l-.24-.19-.21-.23-.7-.21c-.01 0-.1-.03-.7-.32-.2-.05-.35-.02-.37.1-.03.12.05.28.12.32.15.1.33.2.36.2.09.03.46.39.5.43.09-.01.19-.01.28.01-.04-.04-.1-.09-.23-.18v-.01c.22.1.29.15.31.22l.02.03zM27.61 14.09s.71-.17.79-.15l-.79.15z"/><path d="M27.62 14.12l-.01-.06c.12-.03.71-.17.81-.15-.08.05-.51.14-.8.21" fill="#fff"/></svg>