<svg xmlns="http://www.w3.org/2000/svg" viewBox="0 0 58.92 34.37"><path fill="#fff" d="M0 0h58.92v34.37H0z"/><path d="M0 30.55h58.92v-3.82H0v3.82zm0-7.63h58.92V19.1H0v3.82zm19.1-7.64h39.82v-3.82H19.1v3.82zm0-7.64h39.82V3.82H19.1v3.82z" fill="#3e73b7"/><path d="M9.58 9.58l.17 2.82c-2.6 1.88-1 2.99-2.88 3.6 1.27-1.27-.39-1.27 1.05-4.15" fill-rule="evenodd" clip-rule="evenodd" fill="#eac126"/><path d="M9.63 9.58l.17 2.82h-.11l-.22-2.82h.16zm.17 2.82v.06l-.06-.06h.06zm0 .06c-1.38 1-1.55 1.77-1.72 2.32h-.16c.17-.61.39-1.44 1.77-2.44l.11.12zm-1.72 2.32c-.17.61-.28 1-1.16 1.27l-.05-.11c.83-.28.94-.66 1.05-1.16h.16zm-1.16 1.27l-.28.11.17-.16h.06l.05.05zM6.81 16c.55-.61.55-.94.44-1.38h.17c.06.44.11.83-.5 1.44L6.81 16zm.44-1.39c-.06-.55-.17-1.27.61-2.77l.11.06c-.72 1.49-.66 2.16-.55 2.71h-.17z" fill="#292c2f"/><path d="M8.69 11.73c-.66 1.16-.83 2.05-.89 2.77l-.17-.05c.11-.66.28-1.61.94-2.77l.12.05zm-.88 2.77c-.11.72-.22 1.27-.89 1.55l-.06-.11c.61-.28.66-.78.78-1.49l.17.05z" fill="#292c2f"/><path d="M9.58 9.58L9.36 6.7c2.6-1.88 1-2.99 2.88-3.6-1.22 1.33.39 1.33-1.05 4.15" fill-rule="evenodd" clip-rule="evenodd" fill="#eac126"/><path d="M9.47 9.58L9.3 6.75l.11-.05.22 2.88h-.16zM9.3 6.75V6.7h.06l-.06.05zm0-.05c1.38-1 1.61-1.77 1.72-2.38l.17.05c-.17.61-.39 1.38-1.77 2.38L9.3 6.7zm1.72-2.38c.17-.56.28-1 1.16-1.28l.06.11c-.83.28-.94.67-1.05 1.22l-.17-.05zm1.16-1.28l.28-.05-.17.17-.05-.06-.06-.06zm.11.11c-.55.61-.55.89-.44 1.33l-.17.06c-.06-.5-.11-.83.5-1.5l.11.11zm-.44 1.33c.05.55.17 1.27-.61 2.82l-.11-.05c.72-1.49.66-2.21.55-2.71l.17-.06z" fill="#292c2f"/><path d="M10.41 7.36c.66-1.16.83-2.05.94-2.71h.11c-.11.72-.28 1.61-.94 2.77l-.11-.06zm.94-2.71c.11-.77.17-1.27.83-1.61l.06.11c-.61.28-.66.78-.78 1.5h-.11z" fill="#292c2f"/><path d="M9.58 9.58l-2.88.16c-1.88-2.6-2.99-1-3.6-2.88 1.33 1.27 1.27-.33 4.15 1.05" fill-rule="evenodd" clip-rule="evenodd" fill="#eac126"/><path d="M9.58 9.63l-2.88.22v-.16l2.82-.17.06.11zm-2.88.22l-.06-.05.06-.06v.11zm-.06-.05C5.7 8.41 4.93 8.25 4.32 8.08v-.11c.66.17 1.44.33 2.44 1.77l-.12.06zM4.32 8.08c-.55-.17-1-.28-1.27-1.16l.11-.06c.27.83.66.94 1.16 1.11v.11zM3.05 6.92l-.11-.22.22.17H3.1l-.05.05zm.11-.06c.61.55.89.5 1.33.44l.05.11c-.5.05-.83.11-1.49-.5l.11-.05zm1.33.45c.55-.11 1.27-.22 2.82.55l-.11.11c-1.5-.72-2.16-.61-2.66-.55l-.05-.11z" fill="#292c2f"/><path d="M7.36 8.75c-1.16-.72-2.04-.83-2.71-.95v-.16c.72.11 1.6.28 2.77 1l-.06.11zM4.65 7.8c-.77-.11-1.27-.22-1.6-.88l.11-.06c.28.61.78.72 1.5.78v.16z" fill="#292c2f"/><path d="M9.58 9.58l2.82-.22c1.88 2.6 2.99 1.05 3.6 2.88-1.33-1.22-1.27.39-4.15-1.05" fill-rule="evenodd" clip-rule="evenodd" fill="#eac126"/><path d="M9.52 9.52l2.88-.22v.11l-2.82.22-.06-.11zm2.88-.22h.06l-.06.05V9.3zm.06 0c.94 1.38 1.72 1.61 2.33 1.77v.11c-.66-.17-1.44-.39-2.44-1.77l.11-.11zm2.32 1.77c.55.11 1 .22 1.27 1.16h-.11c-.28-.83-.67-.94-1.16-1.05v-.11zm1.28 1.16l.11.22-.22-.17.05-.05h.06zm-.11.06c-.55-.55-.89-.5-1.33-.45l-.06-.11c.5-.11.83-.17 1.5.44l-.11.12zm-1.33-.45c-.55.06-1.27.17-2.77-.61l.06-.11c1.5.78 2.16.66 2.66.61l.05.11z" fill="#292c2f"/><path d="M11.74 10.41c1.16.66 2.05.83 2.77.94l-.06.11c-.66-.11-1.61-.22-2.77-.94l.06-.11zm2.77.94c.72.11 1.22.17 1.55.89l-.11.06c-.28-.67-.78-.72-1.49-.83l.05-.12z" fill="#292c2f"/><path d="M9.58 9.58L7.7 11.73c-3.21-.55-2.88 1.39-4.6.5 1.83-.06.67-1.16 3.65-2.22" fill-rule="evenodd" clip-rule="evenodd" fill="#eac126"/><path d="M9.58 9.58l-1.83 2.16-.11-.06 1.88-2.16.06.06zm-1.83 2.15l-.05.06v-.05h.05zm-.05.06c-1.66-.28-2.38.11-2.88.44l-.11-.11c.55-.33 1.27-.78 2.99-.5v.17zm-2.88.44c-.5.28-.89.5-1.77.06l.06-.11c.83.39 1.16.22 1.6-.05l.11.1zm-1.77.06l-.22-.11h.27v.06l-.05.05zm.05-.11c.83-.05 1-.27 1.27-.66l.11.11c-.28.39-.5.67-1.38.67v-.12zm1.27-.67c.33-.44.77-1 2.38-1.55l.06.11c-1.61.55-2.05 1.11-2.32 1.55l-.12-.11z" fill="#292c2f"/><path d="M7.42 10.52c-1.33.33-2.05.89-2.6 1.27l-.06-.11c.55-.39 1.27-.94 2.6-1.27l.06.11zm-2.6 1.27c-.61.44-1 .78-1.72.5v-.11c.66.22 1.05-.05 1.66-.5l.06.11z" fill="#292c2f"/><path d="M9.58 9.58l1.83-2.16c3.21.5 2.88-1.44 4.6-.55-1.83.06-.66 1.22-3.65 2.21" fill-rule="evenodd" clip-rule="evenodd" fill="#eac126"/><path d="M9.52 9.52l1.83-2.16.11.11-1.88 2.1-.06-.05zm1.83-2.16h.06v.06l-.06-.06zm.06 0c1.66.28 2.38-.17 2.88-.44l.11.11c-.55.33-1.27.72-2.99.44v-.11zm2.88-.44c.55-.33.88-.5 1.77-.11l-.06.11c-.83-.39-1.16-.17-1.6.11l-.11-.11zm1.77-.11l.22.11-.28.05v-.11l.06-.05zm-.06.16c-.83 0-1 .28-1.27.61l-.11-.06c.33-.39.5-.66 1.38-.72v.17zm-1.27.61c-.33.44-.77 1-2.38 1.55l-.06-.11c1.61-.5 2.05-1.11 2.33-1.49l.11.05z" fill="#292c2f"/><path d="M11.68 8.58c1.33-.28 2.05-.83 2.6-1.27l.05.11c-.55.44-1.27 1-2.6 1.33l-.05-.17zm2.61-1.27c.61-.44 1.05-.72 1.72-.5v.11c-.66-.22-1.05.11-1.66.5l-.06-.11z" fill="#292c2f"/><path d="M9.58 9.58L7.42 7.69c.5-3.21-1.44-2.88-.55-4.59.06 1.83 1.22.67 2.22 3.65" fill-rule="evenodd" clip-rule="evenodd" fill="#eac126"/><path d="M9.52 9.63L7.36 7.75l.11-.11 2.1 1.88-.05.11zM7.36 7.75v-.06h.06l-.06.06zm0-.06c.23-1.66-.16-2.38-.44-2.87l.11-.05c.28.55.72 1.22.44 2.93h-.11zm-.44-2.87c-.33-.5-.55-.89-.11-1.72l.11.05c-.39.78-.17 1.11.11 1.61l-.11.06zM6.81 3.1l.11-.22v.22h-.11zm.11 0c.06.83.28 1 .66 1.27l-.05.11c-.39-.27-.66-.49-.72-1.38h.11zm.67 1.27c.44.33 1 .78 1.55 2.38l-.11.06c-.56-1.61-1.11-1.99-1.5-2.33l.06-.11z" fill="#292c2f"/><path d="M8.58 7.42c-.28-1.33-.83-2.05-1.27-2.6l.11-.05c.44.55 1 1.27 1.33 2.66h-.17zm-1.27-2.6c-.44-.61-.72-1-.5-1.72h.11c-.22.66.06 1.05.5 1.66l-.11.06z" fill="#292c2f"/><path d="M9.58 9.58l2.1 1.83c-.5 3.21 1.44 2.88.55 4.59-.05-1.77-1.22-.61-2.21-3.65" fill-rule="evenodd" clip-rule="evenodd" fill="#eac126"/><path d="M9.58 9.52l2.16 1.83-.06.11-2.16-1.83.06-.11zm2.16 1.83l.05.06-.05.05-.06-.05.06-.06zm0 .11c-.22 1.66.17 2.33.44 2.88l-.11.06c-.28-.55-.72-1.27-.44-2.99l.11.05zm.44 2.88c.33.5.55.89.11 1.72l-.11-.06c.39-.77.17-1.16-.11-1.61l.11-.05zm.11 1.71l-.11.22V16h.06l.05.05zm-.11-.05c-.06-.77-.28-1-.66-1.27l.05-.06c.39.28.66.44.72 1.33h-.11zm-.66-1.28c-.44-.28-1-.72-1.55-2.38h.11c.55 1.55 1.11 1.99 1.49 2.33l-.05.05z" fill="#292c2f"/><path d="M10.52 11.68c.33 1.33.83 2.05 1.27 2.6l-.11.11c-.44-.61-1-1.33-1.27-2.66l.11-.05zm1.27 2.6c.44.61.72 1.05.5 1.77l-.11-.05c.22-.66-.06-1.05-.5-1.61l.11-.11z" fill="#292c2f"/><path fill-rule="evenodd" clip-rule="evenodd" fill="#eac126" d="M9.58 9.58h1.22l-1.22 6.97-1.27-6.97h1.27v6.97"/><path d="M9.58 9.52h1.22v.11H9.58v-.11zm1.22 0h.11v.06h-.11v-.06zm.11.06l-1.27 6.97h-.17l1.27-6.97h.17zm-1.28 6.97l-.06.33-.11-.33H9.63zm-.16 0L8.19 9.58h.17l1.27 6.97h-.16zM8.19 9.52h.11v.06h-.11v-.06zm.12 0h1.27v.11H8.31v-.11zm1.27 0h.05v.06h-.05v-.06zm.05 7.03h-.16V9.58h.17v6.97z" fill="#292c2f"/><path fill-rule="evenodd" clip-rule="evenodd" fill="#eac126" d="M9.58 9.58H8.31l1.27-7.04 1.22 7.04H9.58V2.54"/><path d="M9.58 9.63H8.31v-.11h1.27v.11zm-1.27 0H8.2v-.05h.11v.05zm-.12-.05l1.27-7.03.17.05-1.27 6.98h-.17zm1.28-7.04l.11-.33.06.33H9.47zm.16 0l1.27 7.03h-.17L9.47 2.6l.16-.06zm1.28 7.09h-.11v-.05h.11v.05zm-.11 0H9.58v-.11h1.22v.11zm-1.22 0h-.11v-.05h.11v.05zm-.11-7.09h.17v7.03h-.17V2.54z" fill="#292c2f"/><path fill-rule="evenodd" clip-rule="evenodd" fill="#eac126" d="M9.58 9.58v1.27L2.55 9.58 9.58 8.3v1.28H2.55"/><path d="M9.63 10.85h-.16V9.58h.17v1.27zm0 0v.06h-.11l.06-.06h.05zm-.11.05L2.55 9.63l.05-.11 6.98 1.27-.06.11zM2.55 9.63l-.34-.05.33-.06v.11zm0-.11l6.98-1.27.06.11L2.6 9.63l-.05-.11zm6.97-1.27l.11-.06v.11h-.05l-.06-.05zm.11 1.33h-.16V8.3h.17v1.28zm0 .05h-.05v-.05h.05v.05zm-.05 0H2.55v-.11h7.03v.11z" fill="#292c2f"/><path fill-rule="evenodd" clip-rule="evenodd" fill="#eac126" d="M9.58 9.58V8.3l6.98 1.28-6.98 1.27V9.58h6.98"/><path d="M9.47 8.3h.17v1.27h-.17V8.3zm0 0v-.11l.11.06v.05h-.11zm.11-.05l6.98 1.27-.06.11-6.98-1.27.06-.11zm6.97 1.27l.33.06-.33.06v-.12zm0 .11L9.58 10.9l-.06-.11 6.98-1.27.05.11zM9.58 10.9h-.11v-.06h.11v.06zm-.11-1.32h.17v1.27h-.17V9.58zm0-.06h.11v.06h-.11v-.06zm.11 0h6.98v.11H9.58v-.11z" fill="#292c2f"/><path fill-rule="evenodd" clip-rule="evenodd" fill="#eac126" d="M9.58 9.58l.88.88L4.6 14.5l4.04-5.86.94.94L4.6 14.5"/><path d="M9.58 9.52l.94.89-.11.11-.89-.89.06-.11zm.94.89l.06.06-.11.06v-.06l.05-.06zm-.06.11l-5.81 4.04-.05-.11 5.81-4.04.05.11zm-5.81 4.04l-.28.22.17-.33.06.05.05.06zm-.11-.11l4.04-5.81.11.06-4.04 5.87-.11-.12zm4.04-5.82l.05-.05.06.05h-.11zm.11 0l.89.89-.06.11-.94-.94.11-.06zm.89.89l.05.06-.05.05v-.11zm0 .11l-4.93 4.93-.05-.11 4.93-4.93.05.11z" fill="#292c2f"/><path fill-rule="evenodd" clip-rule="evenodd" fill="#eac126" d="M9.58 9.58l-.94-.94 5.87-4.04-4.05 5.86-.88-.88 4.93-4.98"/><path d="M9.52 9.63l-.94-.94.11-.05.88.88-.05.11zm-.94-.94v-.06h.06l-.06.06zm.06-.06l5.81-4.1.05.11-5.81 4.05-.05-.06zm5.81-4.09l.28-.17-.17.28-.05-.05-.06-.06zm.11.11l-4.04 5.86-.11-.11 4.04-5.81.11.06zm-4.04 5.87l-.06.06-.06-.06.06-.06.06.06zm-.11 0l-.89-.89.05-.11.94.89-.1.11zm-.89-.89l-.05-.05.06-.06.05.06-.06.05zm0-.11l4.93-4.92.11.05-4.98 4.98-.06-.11z" fill="#292c2f"/><path fill-rule="evenodd" clip-rule="evenodd" fill="#eac126" d="M9.58 9.58l-.94.88L4.6 4.6l5.86 4.04-.88.94L4.6 4.6"/><path d="M9.58 9.63l-.88.89-.11-.11.94-.89.05.11zm-.89.89l-.06.06-.06-.06.06-.06.06.06zm-.11 0L4.54 4.65l.11-.05 4.04 5.81-.11.11zM4.54 4.65l-.17-.28.28.17-.05.06-.06.05zm.11-.11l5.81 4.1-.06.06-5.8-4.05.05-.11zm5.81 4.09h.11l-.05.06-.06-.06zm.06.06l-.94.94-.06-.11.89-.89.11.06zm-.94.94h-.06l.05-.05v.05zm-.06 0L4.6 4.65l.05-.05 4.93 4.92-.06.11z" fill="#292c2f"/><path fill-rule="evenodd" clip-rule="evenodd" fill="#eac126" d="M9.58 9.58l.88-.94 4.05 5.86-5.87-4.04.94-.88 4.93 4.92"/><path d="M9.52 9.52l.89-.88.11.05-.94.94-.06-.11zm.89-.89l.05-.05.06.05h-.11zm.11 0l4.04 5.81-.11.11-4.04-5.87.11-.05zm4.04 5.82l.17.33-.28-.22.06-.06.05-.05zm-.11.11l-5.81-4.04.06-.11 5.81 4.04-.06.11zm-5.81-4.04l-.05-.06v-.05l.05.05v.06zm-.06-.11l.94-.89.06.11-.89.89-.11-.11zm.94-.89l.06-.05v.11l-.06-.06zm.06 0l4.98 4.93-.11.11-4.93-4.93.06-.11z" fill="#292c2f"/><path d="M11.9 9.58c0-1.33-1.05-2.32-2.33-2.32-1.33 0-2.38 1-2.38 2.32 0 1.27 1.05 2.32 2.38 2.32 1.28 0 2.33-1.05 2.33-2.32" fill-rule="evenodd" clip-rule="evenodd" fill="#eac126"/><path d="M11.79 9.58c0-.66-.22-1.22-.66-1.6l.11-.11c.44.44.72 1.05.72 1.72h-.17zm-.66-1.61c-.39-.44-.94-.66-1.55-.66v-.17c.61 0 1.22.28 1.66.72l-.11.11zm-1.55-.66c-.66 0-1.22.22-1.6.66l-.12-.11c.44-.44 1.05-.72 1.72-.72v.17zm-1.61.66c-.44.39-.66.94-.66 1.6h-.17c0-.66.28-1.27.72-1.72l.11.12zm-.66 1.61c0 .61.22 1.16.66 1.6l-.11.06c-.44-.44-.72-1-.72-1.66h.17zm.66 1.6c.39.39.94.66 1.6.66v.11c-.66 0-1.27-.28-1.72-.72l.12-.05zm1.61.66c.61 0 1.16-.27 1.55-.66l.11.06c-.44.44-1.05.72-1.66.72v-.12zm1.55-.66c.44-.44.66-1 .66-1.6h.17c0 .67-.28 1.22-.72 1.66l-.11-.06z" fill="#292c2f"/><path d="M11.24 8.63c-.11.17-.22-.11-.72-.11-.55 0-.61.28-.72.22-.06-.05.44-.44.61-.44.17-.05.66.11.83.33M10.63 8.8c.17.17.05.44-.11.44s-.44-.28-.28-.44" fill-rule="evenodd" clip-rule="evenodd" fill="#292c2f"/><path d="M9.97 9.02c0-.27.22-.33.55-.33s.5.28.61.33c-.11 0-.28-.22-.61-.22s-.33 0-.55.22" fill-rule="evenodd" clip-rule="evenodd" fill="#292c2f"/><path d="M10.02 9.08c.06-.11.17.11.44.11.22 0 .33-.05.5-.17.11-.11-.22.28-.44.28s-.55-.17-.5-.22" fill-rule="evenodd" clip-rule="evenodd" fill="#292c2f"/><path d="M10.74 9.19c.28-.11.11-.33 0-.39.06.06.22.28 0 .39M9.58 10.46c.11 0 .17-.05.33-.05.17 0 .55.28.77.17-.5.22-.28.06-1.11.06h-.1" fill-rule="evenodd" clip-rule="evenodd" fill="#292c2f"/><path d="M10.8 10.79c-.11-.17-.06-.11-.28-.39.22.17.22.23.28.39" fill-rule="evenodd" clip-rule="evenodd" fill="#292c2f"/><path d="M9.58 10.96c.5 0 .44-.11 1.11-.39-.5.06-.61.22-1.11.22h-.11M9.58 10.18c.11 0 .17-.11.33-.11.17 0 .39.05.5.17.05 0-.06-.17-.22-.17-.17-.06-.11-.33-.28-.39 0 .11.05.11.05.22s-.17.11-.22 0c.06.17-.11.17-.17.17M7.86 8.63c.11.17.22-.11.72-.11.55 0 .61.28.72.22.06-.05-.44-.44-.61-.44-.16-.05-.66.11-.83.33M8.47 8.8c-.16.17-.05.44.11.44s.45-.27.28-.44" fill-rule="evenodd" clip-rule="evenodd" fill="#292c2f"/><path d="M9.14 9.02c0-.27-.22-.33-.55-.33s-.5.28-.61.33c.17 0 .28-.22.61-.22s.32 0 .55.22" fill-rule="evenodd" clip-rule="evenodd" fill="#292c2f"/><path d="M9.08 9.08c-.05-.11-.17.11-.44.11-.22 0-.33-.05-.5-.17-.11-.11.22.28.44.28.28 0 .56-.17.5-.22" fill-rule="evenodd" clip-rule="evenodd" fill="#292c2f"/><path d="M8.36 9.19c-.28-.11-.11-.33 0-.39-.05.06-.22.28 0 .39M9.58 10.46c-.17 0-.22-.05-.39-.05s-.55.28-.77.17c.5.22.28.06 1.16.06h.05" fill-rule="evenodd" clip-rule="evenodd" fill="#292c2f"/><path d="M8.31 10.79c.11-.17.11-.11.28-.39-.17.17-.23.23-.28.39" fill-rule="evenodd" clip-rule="evenodd" fill="#292c2f"/><path d="M9.58 10.96c-.55 0-.44-.11-1.16-.39.5.06.61.22 1.16.22h.05M9.58 10.18c-.17 0-.22-.11-.39-.11s-.39.05-.5.17c-.06 0 .06-.17.22-.17.17-.06.11-.33.28-.39 0 .11-.06.11-.06.22s.17.11.22 0c-.06.17.11.17.22.17M9.58 11.18c-.11 0-.39.06 0 .06.33 0 .05-.06 0-.06" fill-rule="evenodd" clip-rule="evenodd" fill="#292c2f"/></svg>