<svg xmlns="http://www.w3.org/2000/svg" viewBox="0 0 58.92 34.37"><path fill="#4497b1" d="M0 0h58.92v11H0z"/><path fill="#bc0030" d="M0 11h58.92v.69H0z"/><path fill="#fff" d="M0 11.69h58.92v11H0z"/><path fill="#bc0030" d="M0 22.69h58.92v.69H0z"/><path fill="#50b63f" d="M0 23.37h58.92v11H0z"/><path d="M13.75 5.5c0 2.28-1.85 4.12-4.13 4.12A4.12 4.12 0 0 1 5.5 5.5a4.13 4.13 0 0 1 4.12-4.13c2.28 0 4.13 1.85 4.13 4.13" fill="#fff"/><path d="M14.92 5.5a3.44 3.44 0 1 1-6.88 0 3.44 3.44 0 0 1 6.88 0" fill="#4497b1"/><path fill="#fff" d="M20.07 1.37l-.25.79.39.13z"/><path fill="#fff" d="M20.07 1.37l.26.79-.39.13z"/><path fill="#fff" d="M20.86 1.95h-.83v.41z"/><path fill="#fff" d="M20.86 1.95l-.67.48-.24-.33z"/><path fill="#fff" d="M19.29 1.95l.67.48.24-.33z"/><path fill="#fff" d="M19.29 1.95h.82v.41z"/><path fill="#fff" d="M20.56 2.87l-.26-.79-.39.13z"/><path fill="#fff" d="M20.56 2.87l-.67-.49.24-.33z"/><path fill="#fff" d="M19.59 2.87l.67-.49-.25-.33z"/><path fill="#fff" d="M19.59 2.87l.25-.79.39.13zM23.37 1.37l-.25.79.39.13z"/><path fill="#fff" d="M23.37 1.37l.26.79-.39.13z"/><path fill="#fff" d="M24.16 1.95h-.83v.41z"/><path fill="#fff" d="M24.16 1.95l-.67.48-.24-.33z"/><path fill="#fff" d="M22.59 1.95l.67.48.24-.33z"/><path fill="#fff" d="M22.59 1.95h.82v.41z"/><path fill="#fff" d="M23.86 2.87l-.26-.79-.39.13z"/><path fill="#fff" d="M23.86 2.87l-.67-.49.24-.33z"/><path fill="#fff" d="M22.89 2.87l.67-.49-.25-.33z"/><path fill="#fff" d="M22.89 2.87l.25-.79.39.13zM26.67 1.37l-.25.79.39.13z"/><path fill="#fff" d="M26.67 1.37l.26.79-.39.13z"/><path fill="#fff" d="M27.46 1.95h-.83v.41z"/><path fill="#fff" d="M27.46 1.95l-.67.48-.24-.33z"/><path fill="#fff" d="M25.89 1.95l.67.48.24-.33z"/><path fill="#fff" d="M25.89 1.95h.82v.41z"/><path fill="#fff" d="M27.16 2.87l-.26-.79-.39.13z"/><path fill="#fff" d="M27.16 2.87l-.67-.49.24-.33z"/><path fill="#fff" d="M26.19 2.87l.67-.49-.25-.33z"/><path fill="#fff" d="M26.19 2.87l.25-.79.39.13zM16.77 4.68l-.25.78.39.13z"/><path fill="#fff" d="M16.77 4.68l.26.78-.39.13z"/><path fill="#fff" d="M17.56 5.24h-.83v.42z"/><path fill="#fff" d="M17.56 5.24l-.67.49-.24-.33z"/><path fill="#fff" d="M15.99 5.24l.67.49.24-.33z"/><path fill="#fff" d="M15.99 5.24h.82v.42z"/><path fill="#fff" d="M17.26 6.17L17 5.38l-.39.13z"/><path fill="#fff" d="M17.26 6.17l-.67-.49.24-.33z"/><path fill="#fff" d="M16.29 6.17l.67-.49-.25-.33z"/><path fill="#fff" d="M16.29 6.17l.25-.79.39.13zM20.07 4.68l-.25.78.39.13z"/><path fill="#fff" d="M20.07 4.68l.26.78-.39.13z"/><path fill="#fff" d="M20.86 5.24h-.83v.42z"/><path fill="#fff" d="M20.86 5.24l-.67.49-.24-.33z"/><path fill="#fff" d="M19.29 5.24l.67.49.24-.33z"/><path fill="#fff" d="M19.29 5.24h.82v.42z"/><path fill="#fff" d="M20.56 6.17l-.26-.79-.39.13z"/><path fill="#fff" d="M20.56 6.17l-.67-.49.24-.33z"/><path fill="#fff" d="M19.59 6.17l.67-.49-.25-.33z"/><path fill="#fff" d="M19.59 6.17l.25-.79.39.13zM23.37 4.68l-.25.78.39.13z"/><path fill="#fff" d="M23.37 4.68l.26.78-.39.13z"/><path fill="#fff" d="M24.16 5.24h-.83v.42z"/><path fill="#fff" d="M24.16 5.24l-.67.49-.24-.33z"/><path fill="#fff" d="M22.59 5.24l.67.49.24-.33z"/><path fill="#fff" d="M22.59 5.24h.82v.42z"/><path fill="#fff" d="M23.86 6.17l-.26-.79-.39.13z"/><path fill="#fff" d="M23.86 6.17l-.67-.49.24-.33z"/><path fill="#fff" d="M22.89 6.17l.67-.49-.25-.33z"/><path fill="#fff" d="M22.89 6.17l.25-.79.39.13zM26.67 4.68l-.25.78.39.13z"/><path fill="#fff" d="M26.67 4.68l.26.78-.39.13z"/><path fill="#fff" d="M27.46 5.24h-.83v.42z"/><path fill="#fff" d="M27.46 5.24l-.67.49-.24-.33z"/><path fill="#fff" d="M25.89 5.24l.67.49.24-.33z"/><path fill="#fff" d="M25.89 5.24h.82v.42z"/><path fill="#fff" d="M27.16 6.17l-.26-.79-.39.13z"/><path fill="#fff" d="M27.16 6.17l-.67-.49.24-.33z"/><path fill="#fff" d="M26.19 6.17l.67-.49-.25-.33z"/><path fill="#fff" d="M26.19 6.17l.25-.79.39.13zM13.47 7.97l-.25.79.39.13z"/><path fill="#fff" d="M13.47 7.97l.26.79-.39.13z"/><path fill="#fff" d="M14.26 8.54h-.83v.42z"/><path fill="#fff" d="M14.26 8.54l-.67.49-.24-.34z"/><path fill="#fff" d="M12.69 8.54l.67.49.24-.34z"/><path fill="#fff" d="M12.69 8.54h.82v.42z"/><path fill="#fff" d="M13.96 9.47l-.26-.79-.39.13z"/><path fill="#fff" d="M13.96 9.47l-.67-.49.24-.33z"/><path fill="#fff" d="M12.99 9.47l.67-.49-.25-.33z"/><path fill="#fff" d="M12.99 9.47l.25-.79.4.13zM16.77 7.97l-.25.79.39.13z"/><path fill="#fff" d="M16.77 7.97l.26.79-.39.13z"/><path fill="#fff" d="M17.56 8.54h-.83v.42z"/><path fill="#fff" d="M17.56 8.54l-.67.49-.24-.34z"/><path fill="#fff" d="M15.99 8.54l.67.49.24-.34z"/><path fill="#fff" d="M15.99 8.54h.82v.42z"/><path fill="#fff" d="M17.26 9.47L17 8.68l-.39.13z"/><path fill="#fff" d="M17.26 9.47l-.67-.49.24-.33z"/><path fill="#fff" d="M16.29 9.47l.67-.49-.25-.33z"/><path fill="#fff" d="M16.29 9.47l.25-.79.39.13zM20.07 7.97l-.25.79.39.13z"/><path fill="#fff" d="M20.07 7.97l.26.79-.39.13z"/><path fill="#fff" d="M20.86 8.54h-.83v.42z"/><path fill="#fff" d="M20.86 8.54l-.67.49-.24-.34z"/><path fill="#fff" d="M19.29 8.54l.67.49.24-.34z"/><path fill="#fff" d="M19.29 8.54h.82v.42z"/><path fill="#fff" d="M20.56 9.47l-.26-.79-.39.13z"/><path fill="#fff" d="M20.56 9.47l-.67-.49.24-.33z"/><path fill="#fff" d="M19.59 9.47l.67-.49-.25-.33z"/><path fill="#fff" d="M19.59 9.47l.25-.79.39.13zM23.37 7.97l-.25.79.39.13z"/><path fill="#fff" d="M23.37 7.97l.26.79-.39.13z"/><path fill="#fff" d="M24.16 8.54h-.83v.42z"/><path fill="#fff" d="M24.16 8.54l-.67.49-.24-.34z"/><path fill="#fff" d="M22.59 8.54l.67.49.24-.34z"/><path fill="#fff" d="M22.59 8.54h.82v.42z"/><path fill="#fff" d="M23.86 9.47l-.26-.79-.39.13z"/><path fill="#fff" d="M23.86 9.47l-.67-.49.24-.33z"/><path fill="#fff" d="M22.89 9.47l.67-.49-.25-.33z"/><path fill="#fff" d="M22.89 9.47l.25-.79.39.13zM26.67 7.97l-.25.79.39.13z"/><path fill="#fff" d="M26.67 7.97l.26.79-.39.13z"/><path fill="#fff" d="M27.46 8.54h-.83v.42z"/><path fill="#fff" d="M27.46 8.54l-.67.49-.24-.34z"/><path fill="#fff" d="M25.89 8.54l.67.49.24-.34z"/><path fill="#fff" d="M25.89 8.54h.82v.42z"/><path fill="#fff" d="M27.16 9.47l-.26-.79-.39.13z"/><path fill="#fff" d="M27.16 9.47l-.67-.49.24-.33z"/><path fill="#fff" d="M26.19 9.47l.67-.49-.25-.33z"/><path fill="#fff" d="M26.19 9.47l.25-.79.39.13z"/></svg>