<svg xmlns="http://www.w3.org/2000/svg" viewBox="0 0 58.92 34.37"><path fill="#eed12f" d="M0 0h58.92v11.46H0z"/><path fill="#242ea7" d="M0 11.46h58.92v11.46H0z"/><path fill="#bd0034" d="M0 22.92h58.92v11.46H0z"/><path fill="#fff" d="M26.9 15.54l.46-3.27 1.54 2.91-2.96-1.44 3.25-.57zM30.02 15.18l1.55-2.9.46 3.26-2.29-2.37 3.24.57zM24.08 16.94l-.68-3.23 2.45 2.21-3.28-.34 2.85-1.65zM33.08 15.92l2.44-2.21-.68 3.23-1.34-3.01 2.85 1.65zM21.92 19.22l-1.75-2.8 3.06 1.24-3.2.79 2.12-2.52zM35.7 17.66l3.05-1.24-1.74 2.8-.24-3.29 2.12 2.52zM20.66 22.1l-2.59-2.03 3.29.11-2.73 1.85 1.13-3.1zM37.56 20.18l3.3-.11-2.6 2.03.91-3.17 1.12 3.1z"/></svg>