<svg xmlns="http://www.w3.org/2000/svg" viewBox="0 0 58.92 34.37"><path fill="#120065" d="M0 0h58.92v34.37H0z"/><path d="M38.61 8.38l12.45-.05-.02 11.09s.44 1.68-5.22 4.25c2.03-.21 4.25-2.38 4.25-2.38s.9-1.15 1.34-.51c.44.65.85.97 1.18 1.22.32.26.58.95.09 1.46s-1.25.58-1.46-.05c-.32.16-2.31 2.57-6.38 2.68-4.14-.07-6.4-2.7-6.4-2.7s-.55.88-1.34.19c-.76-.9-.19-1.48-.19-1.48s.65-.37.83-.63c.3-.35.39-.81.9-.81.6.04.83.53.83.53s2.08 2.19 4.32 2.47c-5.06-2.43-5.24-3.93-5.22-4.3l.04-10.98z" fill="#fff"/><path d="M38.91 8.68l11.88-.07v10.67c.02 1.39-2.31 2.8-5.96 4.6-3.77-1.94-5.94-3.12-5.96-4.62l.04-10.58z" fill="#28632e"/><path d="M44.82 23.92l-.02-.01c-3.8-1.96-5.96-3.15-5.98-4.66l.05-10.58 11.91-.11.04 10.71c.02 1.38-2.27 2.8-5.98 4.63l-.02.02zm5.93-15.31l-11.84.1-.01 10.55c.02 1.47 2.15 2.64 5.92 4.58 3.67-1.81 5.94-3.21 5.92-4.55V8.61z"/><path fill="#edc526" d="M40.36 20.46l-.05-.04.7-1.03.76 1.03-.76-.99z"/><path d="M41.18 20.05c0 .08-.06.14-.14.14-.08 0-.14-.06-.14-.14 0-.08.06-.14.14-.14.08 0 .14.07.14.14" fill="#edc526"/><path d="M41.04 20.21c-.09 0-.16-.07-.16-.16 0-.17.31-.17.31 0 .01.09-.06.16-.15.16m0-.28c-.07 0-.12.06-.12.12 0 .14.24.14.24 0 0-.07-.05-.12-.12-.12"/><path d="M40.47 21.2h1.09s.02-.14-.11-.23c.57-.08.42-.58.9-.61.09.01-.25.21-.25.21s-.29.21-.16.31c.1.08.15-.05.16-.15.01-.1.46-.16.4-.45-.11-.24-.73.16-.73.16h-.45c-.03-.05-.15-.25-.28-.25-.15 0-.26.25-.26.25h-1.01s-.03.26.48.31c.12.15.2.19.31.23-.07.06-.09.13-.09.22" fill="#edc526"/><path d="M41.57 21.22h-1.1c-.02-.13.01-.19.07-.25-.1-.01-.19-.05-.31-.2-.2-.01-.35-.07-.43-.17-.06-.08-.05-.15-.05-.15l1.03-.02c-.01 0 .09-.25.26-.25.15 0 .29.25.29.26l.43-.01c.01-.01.65-.36.75-.15.05.2-.14.3-.27.37-.06.03-.12.06-.12.09-.01.06-.04.19-.12.19l-.07-.03a.09.09 0 0 1-.04-.08c0-.11.19-.25.2-.25.12-.07.25-.16.26-.19-.22.02-.3.14-.39.27-.1.14-.2.3-.51.35.15.06.13.2.13.21l-.01.01zm-1.79-.76c.01.01.01.06.05.11.05.06.16.14.42.16.12.15.21.19.31.23a.39.39 0 0 0-.07.23l1.05-.01c0-.04-.01-.13-.11-.19.29-.07.39-.22.49-.36.09-.14.18-.27.42-.28.04.07-.11.17-.24.25-.05.03-.18.14-.18.22l.01.07H42c.05 0 .08-.08.09-.16.01-.04.07-.08.14-.12.13-.07.29-.15.26-.32-.08-.17-.7.17-.7.17h-.46c-.06-.09-.17-.25-.28-.25-.14.01-.24.24-.24.24l-1.03.01z"/><path d="M40.55 21v-.04h.9zM40.54 20.95c-.35-.07-.43-.48-.43-.5l.04-.01s.08.41.39.51"/><linearGradient id="a" gradientUnits="userSpaceOnUse" x1="-447.137" y1="169.267" x2="-446.137" y2="169.267" gradientTransform="matrix(-.5221 -.3937 -.1741 1.1807 -164.036 -356.042)"><stop offset="0" stop-color="#ea0020"/><stop offset="1" stop-color="#fcff2c"/></linearGradient><path fill="url(#a)" d="M40.2 20.75l-.56-.42.19-1.29.56.43z"/><path d="M40.09 20.46h-.24c-.01-.08 0-.11.01-.13.01-.03.02-.05.02-.12.01-.12-.03-.17-.06-.21-.03-.03-.06-.07-.06-.14s.05-.15.11-.22c.06-.09.13-.19.11-.28.21.09.25.24.16.38-.02.05 0 .06.03.1.04.04.09.09.08.2-.03.1-.06.16-.09.21-.03.06-.05.1-.07.18v.03zM40 19.37c.05.09-.02.19-.09.29-.05.07-.1.14-.1.2s.02.09.05.12c.04.04.08.1.06.23.01.08-.01.1-.02.13-.01.02-.02.05-.03.1l.19-.02c.02-.08.04-.13.07-.18.03-.05.06-.1.09-.2 0-.09-.04-.13-.07-.17-.03-.03-.07-.07-.04-.14.11-.17 0-.29-.11-.36"/><path d="M41.17 19.44c0 .07-.06.13-.13.13s-.13-.06-.13-.13.06-.13.13-.13.13.05.13.13" fill="#edc526"/><path d="M41.04 19.58c-.08 0-.15-.06-.15-.15 0-.16.29-.16.29 0 .01.09-.06.15-.14.15m0-.26c-.06 0-.11.05-.11.11 0 .12.22.12.22 0 0-.06-.05-.11-.11-.11"/><path fill="#edc526" d="M40.32 18.33l-.05-.03.71-1.03.75 1.04-.75-1z"/><path d="M41.14 17.93c0 .08-.06.14-.14.14-.08 0-.14-.06-.14-.14 0-.08.06-.14.14-.14.08 0 .14.07.14.14" fill="#edc526"/><path d="M41 18.09c-.09 0-.16-.07-.16-.16 0-.17.31-.17.31 0 .01.09-.06.16-.15.16m0-.28c-.07 0-.12.06-.12.12 0 .14.24.14.24 0 0-.06-.05-.12-.12-.12"/><path d="M40.43 19.08h1.09s.02-.14-.11-.23c.57-.08.42-.58.9-.61.09.01-.25.21-.25.21s-.29.2-.16.31c.1.08.15-.05.16-.15.01-.1.46-.16.4-.45-.11-.23-.73.16-.73.16h-.45c-.03-.05-.15-.25-.28-.25-.15.01-.26.26-.26.26h-1s-.03.26.48.31c.12.15.2.19.31.23-.08.05-.1.12-.1.21" fill="#edc526"/><path d="M41.53 19.1h-1.1c-.02-.13.01-.19.07-.25-.1-.01-.19-.06-.31-.21-.2-.01-.35-.07-.43-.17-.06-.08-.05-.15-.05-.15l1.03-.02c-.01 0 .1-.25.26-.25.15 0 .28.24.29.26l.43-.01c.01-.01.65-.36.75-.15.05.2-.14.3-.27.37-.06.03-.12.07-.12.09-.01.06-.04.19-.12.19l-.07-.03a.09.09 0 0 1-.04-.08c0-.11.19-.25.2-.25.12-.07.25-.16.26-.19-.22.02-.3.14-.39.27-.1.14-.2.3-.5.34.15.06.13.2.13.21l-.02.03zm-1.79-.76c.01.01.01.06.05.11.05.06.16.14.42.16.13.15.21.19.31.23a.39.39 0 0 0-.07.23l1.05-.01c0-.04-.01-.13-.11-.19.29-.07.39-.22.49-.36.09-.14.18-.27.42-.28.04.07-.11.17-.24.25-.05.03-.18.14-.18.22l.01.07.06.01c.05 0 .07-.08.09-.16.01-.04.07-.08.14-.12.13-.07.29-.15.26-.32-.08-.17-.7.16-.7.17h-.46c-.06-.09-.17-.25-.28-.25-.14 0-.24.24-.24.24h-1.02z"/><path d="M40.51 18.88v-.04h.9zM40.51 18.83c-.35-.07-.43-.49-.43-.5l.04-.01c-.01 0 .07.41.39.51"/><linearGradient id="b" gradientUnits="userSpaceOnUse" x1="-447.301" y1="168.469" x2="-446.301" y2="168.469" gradientTransform="matrix(-.5217 -.3934 -.174 1.1796 -164.115 -356.943)"><stop offset="0" stop-color="#ea0020"/><stop offset="1" stop-color="#fcff2c"/></linearGradient><path fill="url(#b)" d="M40.16 18.63l-.56-.42.19-1.29.56.43z"/><path d="M40.05 18.34h-.24c-.01-.08 0-.1.01-.13s.02-.05.02-.12c.01-.13-.03-.17-.06-.21a.184.184 0 0 1-.06-.14c0-.07.05-.15.11-.22.06-.09.13-.19.11-.28.21.09.25.24.16.39-.02.05 0 .07.03.1.04.03.09.09.08.2-.03.1-.06.16-.09.22s-.05.1-.07.18v.01zm-.09-1.09c.05.09-.02.19-.09.29-.05.07-.1.14-.1.2s.02.09.05.12c.04.04.08.09.06.23.01.08-.01.1-.02.13-.01.02-.02.04-.03.1l.19-.02c.02-.08.04-.13.07-.18.03-.05.06-.11.09-.2 0-.09-.04-.13-.07-.17-.03-.03-.07-.07-.04-.14.11-.17 0-.29-.11-.36"/><path d="M41.13 17.31c0 .07-.06.13-.13.13s-.13-.06-.13-.13.06-.13.13-.13c.07.01.13.06.13.13" fill="#edc526"/><path d="M41 17.46c-.08 0-.15-.07-.15-.15 0-.16.29-.16.29 0 .01.08-.06.15-.14.15m0-.25c-.06 0-.11.05-.11.11 0 .12.22.12.22 0 0-.07-.05-.11-.11-.11"/><path fill="#edc526" d="M47.77 16.41l-.05-.03.7-1.03.76 1.03-.76-1z"/><path d="M48.59 16.01c0 .08-.06.14-.14.14-.08 0-.14-.06-.14-.14 0-.08.06-.14.14-.14.08 0 .14.06.14.14" fill="#edc526"/><path d="M48.45 16.16c-.09 0-.16-.07-.16-.16 0-.17.31-.17.31 0 0 .09-.07.16-.15.16m0-.27c-.07 0-.12.06-.12.12 0 .14.24.14.24 0 0-.07-.05-.12-.12-.12"/><path d="M47.88 17.15h1.09s.02-.14-.11-.22c.57-.08.42-.58.9-.61.09.01-.25.21-.25.21s-.29.2-.16.31c.1.08.15-.05.16-.15.01-.1.46-.16.4-.45-.11-.24-.73.16-.73.16h-.45c-.03-.05-.15-.25-.28-.25-.15.01-.26.26-.26.26h-1.01s-.03.26.48.31c.12.15.2.19.31.23-.07.04-.09.11-.09.2" fill="#edc526"/><path d="M48.98 17.17h-1.1c-.02-.12.01-.19.07-.25-.1-.01-.19-.05-.31-.21-.2-.01-.35-.07-.43-.17-.06-.08-.05-.15-.05-.15l1.03-.02c-.01 0 .1-.25.26-.25.14 0 .27.22.29.26l.43-.01c.01-.01.65-.36.75-.15.05.2-.14.3-.27.37-.06.03-.12.06-.12.09-.01.06-.04.19-.12.19l-.07-.03a.09.09 0 0 1-.04-.08c0-.11.19-.25.2-.25.12-.07.25-.16.26-.19-.22.02-.3.14-.39.27-.1.14-.2.3-.51.34.15.06.13.2.13.21l-.01.03zm-1.79-.75c.01.01.01.06.05.11.05.06.16.14.42.17.13.15.21.19.31.23a.37.37 0 0 0-.07.23l1.05-.01c0-.04-.01-.13-.11-.19.29-.07.39-.22.49-.36.09-.14.18-.27.42-.28.04.07-.11.17-.24.25-.05.04-.18.14-.18.22l.01.07.06.01c.05 0 .07-.09.08-.16.01-.04.07-.08.14-.12.13-.07.29-.15.26-.32-.08-.17-.7.16-.7.17h-.46c-.07-.1-.18-.25-.28-.25-.14 0-.24.24-.24.24l-1.01-.01z"/><path d="M47.96 16.95v-.04h.9zM47.95 16.9c-.35-.07-.43-.49-.43-.5l.04-.01c0 .01.07.42.39.51"/><linearGradient id="c" gradientUnits="userSpaceOnUse" x1="-447.143" y1="169.257" x2="-446.143" y2="169.257" gradientTransform="matrix(-.5221 -.3937 -.1741 1.1807 -156.682 -360.112)"><stop offset="0" stop-color="#ea0020"/><stop offset="1" stop-color="#fcff2c"/></linearGradient><path fill="url(#c)" d="M47.61 16.71l-.56-.43.19-1.28.56.42z"/><path d="M47.5 16.41h-.24c-.01-.08 0-.11.01-.13.01-.03.02-.04.02-.11.01-.13-.03-.17-.06-.21-.03-.03-.06-.07-.06-.14s.05-.15.11-.22c.06-.09.13-.18.11-.28.12.04.18.11.2.19.01.06 0 .13-.04.2-.02.05 0 .06.03.1.04.04.09.09.08.2-.03.1-.06.16-.09.21-.03.05-.05.1-.07.18v.01zm-.1-1.08c.05.09-.02.19-.09.29-.05.07-.1.14-.1.2s.02.09.05.12c.04.04.08.09.07.23.01.08-.01.1-.02.13-.01.02-.02.04-.03.1l.19-.02c.02-.08.04-.13.07-.18.03-.05.06-.11.09-.2 0-.09-.04-.13-.07-.17-.03-.03-.07-.07-.04-.14.04-.06.05-.12.04-.17a.32.32 0 0 0-.16-.19"/><path d="M48.58 15.39c0 .07-.06.13-.13.13s-.13-.06-.13-.13.06-.13.13-.13.13.06.13.13" fill="#edc526"/><path d="M48.45 15.54c-.08 0-.15-.07-.15-.15 0-.16.29-.16.29 0 0 .08-.06.15-.14.15m0-.26c-.06 0-.11.05-.11.11 0 .12.22.12.22 0 0-.06-.05-.11-.11-.11"/><path fill="#edc526" d="M40.5 14.35l-.05-.03.7-1.03.75 1.03-.75-1z"/><path d="M41.31 13.95c0 .08-.06.14-.14.14-.08 0-.14-.06-.14-.14 0-.08.06-.14.14-.14.08 0 .14.06.14.14" fill="#edc526"/><path d="M41.17 14.1c-.09 0-.16-.07-.16-.16 0-.17.31-.17.31 0 .01.09-.06.16-.15.16m0-.28c-.07 0-.12.06-.12.12 0 .14.24.14.24 0 .01-.06-.05-.12-.12-.12"/><path d="M40.6 15.09h1.09s.02-.14-.11-.23c.57-.08.42-.58.9-.61.09.01-.25.21-.25.21s-.29.2-.16.31c.1.08.15-.05.16-.15.01-.1.46-.16.4-.45-.11-.24-.73.16-.73.16h-.45c-.03-.05-.15-.25-.28-.25-.15 0-.26.25-.26.25H39.9s-.03.26.48.31c.12.15.2.19.31.23-.07.06-.09.13-.09.22" fill="#edc526"/><path d="M41.71 15.12h-1.1c-.02-.09-.01-.18.07-.25-.1-.01-.19-.05-.31-.21-.2-.01-.35-.07-.43-.17-.06-.08-.05-.15-.05-.15l1.03-.02c-.01 0 .1-.25.26-.25.14 0 .26.2.29.26l.43-.01c.01-.01.37-.23.59-.23.08 0 .13.03.16.09.05.2-.14.3-.27.37-.06.03-.12.07-.12.09-.01.06-.04.19-.12.19l-.07-.03a.09.09 0 0 1-.04-.08c0-.11.19-.25.2-.25.12-.07.25-.16.26-.19-.22.02-.3.14-.39.27-.1.14-.2.3-.5.34.15.06.13.2.13.21l-.02.02zm-1.8-.76c.01.01.01.06.05.11.05.06.16.14.42.16.13.15.21.19.31.23a.39.39 0 0 0-.07.23l1.05-.01c0-.04-.01-.13-.11-.19.29-.07.39-.22.49-.36.09-.14.18-.27.42-.28.04.07-.11.17-.24.25-.05.04-.18.14-.18.22l.01.07.06.01c.05 0 .08-.08.09-.16.01-.04.07-.08.14-.12.13-.07.29-.15.26-.32-.08-.17-.7.17-.7.17h-.46c-.08-.12-.19-.25-.28-.25-.14.01-.24.24-.24.24h-1.02z"/><path d="M40.68 14.89v-.04h.91zM40.68 14.84c-.35-.07-.43-.48-.43-.5l.04-.01c0 .01.07.42.39.51"/><linearGradient id="d" gradientUnits="userSpaceOnUse" x1="-447.226" y1="168.842" x2="-446.226" y2="168.842" gradientTransform="matrix(-.5219 -.3935 -.174 1.1801 -163.92 -361.496)"><stop offset="0" stop-color="#ea0020"/><stop offset="1" stop-color="#fcff2c"/></linearGradient><path fill="url(#d)" d="M40.34 14.65l-.56-.43.19-1.28.56.42z"/><path d="M40.23 14.35h-.24c-.01-.08 0-.11.01-.13.01-.02.02-.04.02-.11.01-.12-.03-.17-.06-.21-.03-.03-.06-.07-.06-.14s.05-.15.11-.22c.06-.09.13-.19.11-.28.12.04.18.11.2.19.01.06 0 .13-.04.2-.02.05 0 .06.03.1.04.04.09.09.08.2-.03.1-.06.16-.09.21-.03.06-.05.1-.07.18v.01zm-.1-1.08c.05.09-.02.19-.09.29-.05.07-.1.14-.1.2s.02.09.05.12c.03.04.08.09.06.23.01.08-.01.1-.02.13-.01.02-.02.04-.03.1l.19-.02c.02-.08.04-.13.07-.18.03-.05.06-.11.09-.2 0-.09-.04-.13-.07-.17-.03-.03-.07-.07-.04-.14.04-.06.05-.12.04-.17-.01-.08-.06-.14-.15-.19"/><path d="M41.3 13.33c0 .07-.06.13-.13.13s-.13-.06-.13-.13.06-.13.13-.13.13.06.13.13" fill="#edc526"/><path d="M41.17 13.48c-.08 0-.15-.07-.15-.15 0-.16.29-.16.29 0 .01.08-.05.15-.14.15m0-.26c-.06 0-.11.05-.11.11 0 .12.22.12.22 0 0-.06-.05-.11-.11-.11"/><path fill="#edc526" d="M40.51 12.32l-.05-.03.7-1.03.76 1.03-.76-.99z"/><path d="M41.33 11.92c0 .08-.06.14-.14.14-.08 0-.14-.06-.14-.14 0-.08.06-.14.14-.14.08 0 .14.06.14.14" fill="#edc526"/><path d="M41.19 12.08c-.09 0-.16-.07-.16-.16 0-.17.31-.17.31 0 .01.09-.06.16-.15.16m0-.28c-.07 0-.12.06-.12.12 0 .14.24.14.24 0 0-.07-.05-.12-.12-.12"/><path d="M40.62 13.07h1.09s.02-.14-.11-.23c.57-.08.42-.58.9-.61.09.01-.25.21-.25.21s-.29.2-.16.31c.1.08.15-.05.16-.15.01-.1.46-.16.4-.45-.11-.24-.73.16-.73.16h-.45c-.03-.05-.15-.25-.28-.25-.15.01-.26.26-.26.26h-1.01s-.03.26.48.31c.12.15.2.19.31.23-.07.05-.09.12-.09.21" fill="#edc526"/><path d="M41.72 13.09h-1.1c-.02-.09-.01-.18.07-.25-.1-.01-.19-.06-.31-.21-.2-.01-.35-.07-.43-.17-.06-.08-.05-.15-.05-.15l1.03-.02c-.01 0 .1-.25.26-.25.14 0 .27.22.3.26l.43-.01c.01-.01.65-.36.75-.15.05.2-.14.3-.27.37-.06.03-.12.06-.13.09-.01.06-.04.19-.12.19l-.07-.03a.09.09 0 0 1-.04-.08c0-.11.19-.25.2-.25.12-.07.25-.16.26-.19-.22.02-.3.14-.39.27-.1.14-.2.3-.51.34.15.06.13.2.13.21l-.01.03zm-1.79-.76c.01.01.01.06.05.11.05.06.16.14.42.16.12.15.21.19.31.24a.39.39 0 0 0-.07.23l1.05-.02c0-.04-.01-.13-.11-.19.29-.07.39-.22.49-.36.09-.14.18-.27.42-.28.04.07-.11.17-.24.25-.05.03-.18.14-.18.22l.01.07.06.01c.05 0 .08-.08.09-.16.01-.04.07-.08.14-.12.13-.07.29-.15.26-.32-.08-.17-.7.16-.7.17h-.46c-.07-.1-.18-.25-.28-.25-.14 0-.24.24-.24.24h-1.02z"/><path d="M40.7 12.87v-.04l.9-.01zM40.69 12.82c-.35-.07-.43-.48-.43-.5l.04-.01s.08.41.39.51"/><linearGradient id="e" gradientUnits="userSpaceOnUse" x1="-446.973" y1="170.092" x2="-445.973" y2="170.092" gradientTransform="matrix(-.5226 -.3941 -.1743 1.1818 -163.84 -365.428)"><stop offset="0" stop-color="#ea0020"/><stop offset="1" stop-color="#fcff2c"/></linearGradient><path fill="url(#e)" d="M40.35 12.62l-.56-.42.19-1.29.56.43z"/><path d="M40.24 12.33H40c-.01-.08 0-.11.01-.13.01-.03.02-.05.01-.11.01-.13-.02-.17-.06-.21a.184.184 0 0 1-.06-.14c0-.07.05-.15.1-.22.06-.09.13-.19.11-.28.13.04.18.11.2.19.01.06 0 .13-.04.19-.02.05 0 .07.03.1.04.03.09.09.08.2-.03.1-.06.16-.09.21-.03.06-.05.1-.07.19l.02.01zm-.09-1.09c.05.09-.02.19-.09.29-.05.07-.1.14-.1.2s.02.09.05.12c.03.04.08.09.06.23.01.07-.01.1-.02.13-.01.02-.02.04-.03.1l.19-.02c.02-.08.04-.13.07-.18.03-.05.06-.11.09-.2 0-.09-.03-.13-.07-.17-.03-.03-.07-.07-.04-.14.04-.06.05-.11.04-.17-.01-.07-.07-.13-.15-.19"/><path d="M41.32 11.3c0 .07-.06.13-.13.13s-.13-.06-.13-.13.06-.13.13-.13.13.06.13.13" fill="#edc526"/><path d="M41.19 11.45c-.08 0-.15-.07-.15-.15 0-.16.29-.16.29 0 .01.08-.06.15-.14.15m0-.26c-.06 0-.11.05-.11.11 0 .12.22.12.22 0 0-.06-.05-.11-.11-.11"/><path fill="#edc526" d="M40.55 10.27l-.05-.03.7-1.03.76 1.03-.76-1z"/><path d="M41.37 9.87c0 .08-.06.14-.14.14-.08 0-.14-.06-.14-.14 0-.08.06-.14.14-.14.08 0 .14.06.14.14" fill="#edc526"/><path d="M41.23 10.03c-.09 0-.16-.07-.16-.16 0-.17.31-.17.31 0 0 .08-.07.16-.15.16m0-.29c-.07 0-.12.06-.12.12 0 .14.24.14.24 0 0-.06-.05-.12-.12-.12"/><path d="M40.66 11.01h1.09s.02-.14-.11-.23c.57-.08.42-.58.9-.61.09.02-.25.22-.25.22s-.29.2-.16.31c.1.08.15-.05.16-.15.01-.1.46-.16.4-.45-.11-.24-.73.16-.73.16h-.45c-.03-.05-.16-.26-.28-.26-.15.01-.26.26-.26.26h-1.01s-.03.26.48.31c.12.15.2.19.31.23-.07.06-.09.12-.09.21" fill="#edc526"/><path d="M41.76 11.04h-1.1c-.02-.12.01-.19.07-.25-.1-.01-.19-.05-.31-.21-.2-.01-.35-.07-.43-.17-.06-.08-.05-.15-.05-.15l1.03-.02c-.01 0 .1-.25.26-.25.14 0 .27.22.3.26l.43-.01c.01-.01.65-.36.75-.15.05.2-.14.3-.27.37-.06.03-.12.06-.13.09-.01.06-.03.19-.12.19l-.07-.03a.09.09 0 0 1-.04-.08c0-.11.19-.25.2-.25.12-.07.25-.16.26-.19-.22.02-.3.14-.39.27-.1.14-.2.3-.51.35.15.06.13.2.13.21l-.01.02zm-1.79-.76c.01.01.01.06.05.11.05.06.16.14.42.16.13.15.21.2.31.24a.39.39 0 0 0-.07.23l1.05-.02c0-.04-.01-.13-.11-.19.29-.07.39-.22.49-.36.09-.14.18-.27.42-.28.04.07-.11.17-.24.25-.05.04-.18.14-.18.22l.01.07.06.01c.05 0 .08-.09.09-.16.01-.04.07-.08.14-.12.13-.07.29-.15.26-.32-.08-.17-.7.16-.7.17h-.46c-.07-.1-.18-.25-.28-.25-.14 0-.24.24-.24.24h-1.02z"/><path d="M40.74 10.81v-.03l.9-.01zM40.73 10.76c-.35-.06-.43-.48-.43-.5l.04-.01c0 .01.07.42.39.51"/><linearGradient id="f" gradientUnits="userSpaceOnUse" x1="-446.937" y1="170.248" x2="-445.937" y2="170.248" gradientTransform="matrix(-.5227 -.3941 -.1743 1.182 -163.792 -367.718)"><stop offset="0" stop-color="#ea0020"/><stop offset="1" stop-color="#fcff2c"/></linearGradient><path fill="url(#f)" d="M40.39 10.57l-.56-.42.19-1.29.56.42z"/><path d="M40.28 10.27h-.24c-.01-.08 0-.11.01-.13.01-.03.02-.04.01-.11.01-.13-.02-.17-.06-.21a.184.184 0 0 1-.06-.14c0-.07.05-.15.11-.22.06-.09.13-.19.11-.28.13.04.18.11.2.19.01.06 0 .13-.04.19-.02.05 0 .07.03.1.04.04.09.09.08.2-.03.1-.06.16-.09.21-.03.06-.05.1-.07.18l.01.02zm-.1-1.08c.05.09-.02.19-.09.29-.05.07-.09.14-.09.2s.02.09.05.12c.03.04.08.09.06.23.01.07-.01.1-.02.13-.01.02-.02.04-.03.1l.19-.02c.02-.08.04-.13.07-.18.03-.05.06-.11.09-.2 0-.09-.04-.13-.07-.17-.03-.03-.07-.07-.04-.14.04-.06.05-.12.04-.17a.32.32 0 0 0-.16-.19"/><path d="M41.36 9.25c0 .07-.06.13-.13.13s-.13-.06-.13-.13.06-.13.13-.13.13.06.13.13" fill="#edc526"/><path d="M41.23 9.4c-.08 0-.15-.07-.15-.15 0-.16.29-.16.29 0 .01.08-.06.15-.14.15m0-.26c-.06 0-.11.05-.11.11 0 .12.22.12.22 0 0-.06-.05-.11-.11-.11"/><path fill="#edc526" d="M47.83 10.3l-.05-.03.7-1.03.75 1.03-.75-1z"/><path d="M48.64 9.9c0 .08-.06.14-.14.14-.08 0-.14-.06-.14-.14 0-.08.06-.14.14-.14.08 0 .14.06.14.14" fill="#edc526"/><path d="M48.5 10.06c-.09 0-.16-.07-.16-.16 0-.17.31-.17.31 0 .01.09-.06.16-.15.16m0-.28c-.07 0-.12.06-.12.12 0 .14.24.14.24 0 .01-.07-.05-.12-.12-.12"/><path d="M47.93 11.05h1.09s.02-.14-.11-.23c.57-.08.42-.58.9-.61.09.02-.25.22-.25.22s-.29.2-.16.31c.1.08.15-.05.16-.15.01-.1.46-.16.4-.45-.11-.24-.73.16-.73.16h-.45c-.03-.05-.15-.25-.28-.25-.15.01-.26.26-.26.26h-1s-.03.26.48.31c.11.15.2.19.31.23-.08.04-.1.11-.1.2" fill="#edc526"/><path d="M49.04 11.07h-1.1c-.02-.09-.01-.18.07-.25-.1-.01-.19-.05-.31-.21-.2-.01-.35-.07-.43-.17-.06-.08-.05-.15-.05-.15l1.03-.02c-.01 0 .1-.25.26-.25.14 0 .27.22.29.26l.43-.01c.01-.01.65-.36.75-.15.05.2-.14.3-.27.37-.06.03-.12.06-.12.09-.01.06-.04.19-.12.19l-.07-.03a.09.09 0 0 1-.04-.08c0-.11.19-.25.2-.25.12-.07.25-.16.26-.19-.22.02-.3.14-.39.27-.1.14-.2.3-.51.34.15.06.13.2.13.21l-.01.03zm-1.79-.76c.01.01.01.06.05.11.05.06.16.14.42.16.12.15.21.2.31.24a.39.39 0 0 0-.07.23l1.04-.02c0-.04-.01-.13-.11-.19.29-.07.39-.22.49-.36.09-.14.18-.27.42-.28.04.07-.11.17-.24.25-.05.04-.18.14-.18.22l.01.07.06.01c.05 0 .07-.08.09-.16.01-.04.07-.08.14-.12.13-.07.29-.15.26-.32-.08-.17-.7.16-.71.17h-.46c-.07-.1-.18-.25-.28-.25-.14 0-.24.24-.24.24h-1z"/><path d="M48.01 10.85v-.04l.91-.01zM48.01 10.8c-.35-.06-.43-.48-.43-.5l.04-.01s.07.41.39.51"/><linearGradient id="g" gradientUnits="userSpaceOnUse" x1="-447.227" y1="168.835" x2="-446.227" y2="168.835" gradientTransform="matrix(-.5219 -.3935 -.174 1.1801 -156.64 -365.567)"><stop offset="0" stop-color="#ea0020"/><stop offset="1" stop-color="#fcff2c"/></linearGradient><path fill="url(#g)" d="M47.67 10.6l-.56-.42.19-1.29.56.43z"/><path d="M47.56 10.3h-.24c-.01-.08 0-.11.01-.13.01-.03.02-.04.02-.11.01-.13-.03-.17-.06-.21a.184.184 0 0 1-.06-.14c0-.07.05-.15.11-.22.06-.09.13-.18.11-.28.12.04.18.11.2.19.01.06 0 .13-.04.2-.02.05 0 .06.03.1.04.04.09.09.08.2-.03.1-.06.16-.09.21-.03.06-.05.1-.07.18v.01zm-.1-1.08c.05.09-.02.19-.09.29-.05.07-.1.14-.1.2s.02.09.05.12c.04.04.08.09.07.23.01.08-.01.1-.02.13-.01.02-.02.04-.03.1l.19-.02c.02-.08.04-.13.07-.18.03-.05.06-.11.09-.2 0-.09-.04-.13-.07-.17-.03-.03-.07-.07-.04-.14.04-.06.05-.12.04-.17-.02-.07-.07-.13-.16-.19"/><path d="M48.63 9.28c0 .07-.06.13-.13.13s-.13-.06-.13-.13.06-.13.13-.13.13.06.13.13" fill="#edc526"/><path d="M48.5 9.43c-.08 0-.15-.07-.15-.15 0-.16.29-.16.29 0 .01.08-.06.15-.14.15m0-.26c-.06 0-.11.05-.11.11 0 .12.22.12.22 0 0-.06-.05-.11-.11-.11"/><path fill="#edc526" d="M47.76 12.32l-.05-.03.7-1.03.76 1.03-.76-1z"/><path d="M48.58 11.92c0 .08-.06.14-.14.14-.08 0-.14-.07-.14-.14 0-.08.06-.14.14-.14.07 0 .14.06.14.14" fill="#edc526"/><path d="M48.44 12.07c-.09 0-.16-.07-.16-.16 0-.17.31-.17.31 0 0 .09-.07.16-.15.16m0-.27c-.07 0-.12.06-.12.12 0 .14.24.14.24 0 0-.07-.06-.12-.12-.12"/><path d="M47.87 13.06h1.09s.02-.14-.11-.23c.57-.08.42-.58.9-.61.09.01-.25.21-.25.21s-.29.2-.16.31c.1.08.15-.05.16-.15.01-.1.46-.16.4-.45-.11-.23-.73.16-.73.16h-.45c-.03-.05-.15-.25-.28-.25-.15.01-.26.25-.26.25h-1.01s-.03.26.48.31c.12.15.2.19.31.23-.08.07-.09.13-.09.22" fill="#edc526"/><path d="M48.97 13.08h-1.1c-.02-.13.01-.19.07-.25-.1-.01-.19-.05-.31-.21-.2-.01-.35-.07-.43-.17-.06-.08-.05-.15-.05-.15l1.03-.02c-.01 0 .1-.25.26-.25.14 0 .26.2.29.26l.43-.01c.01-.01.37-.23.59-.23.08 0 .13.03.16.09.05.2-.14.3-.27.37-.06.03-.12.06-.12.09-.01.07-.04.19-.12.19l-.07-.03a.09.09 0 0 1-.04-.08c0-.11.19-.25.2-.25.12-.07.25-.16.26-.19-.22.02-.3.14-.39.27-.1.14-.2.3-.51.34.15.06.13.2.13.21l-.01.02zm-1.79-.75c.01.01.01.06.05.11.05.06.16.14.42.16.12.15.21.19.31.23a.39.39 0 0 0-.07.23l1.05-.02c0-.04-.01-.13-.11-.19.29-.07.39-.22.49-.36.09-.14.18-.27.42-.28.04.07-.11.17-.24.25-.05.03-.18.14-.18.22l.02.07.06.01c.05 0 .07-.08.09-.16.01-.04.07-.08.14-.12.13-.07.29-.15.25-.32-.08-.17-.7.17-.7.17h-.46c-.04-.05-.16-.25-.28-.25-.14 0-.24.24-.24.24l-1.02.01z"/><path d="M47.94 12.86v-.04h.91zM47.94 12.81c-.35-.07-.43-.48-.43-.5l.04-.01c0 .01.07.42.39.51"/><linearGradient id="h" gradientUnits="userSpaceOnUse" x1="-447.23" y1="168.836" x2="-446.23" y2="168.836" gradientTransform="matrix(-.5219 -.3935 -.174 1.1801 -156.708 -363.552)"><stop offset="0" stop-color="#ea0020"/><stop offset="1" stop-color="#fcff2c"/></linearGradient><path fill="url(#h)" d="M47.6 12.62l-.56-.42.19-1.29.56.42z"/><path d="M47.49 12.32h-.24c-.01-.08 0-.11.01-.13.01-.03.02-.05.01-.11.01-.13-.02-.17-.06-.21a.184.184 0 0 1-.06-.14c0-.07.05-.15.11-.22.06-.09.13-.19.11-.28.12.04.18.11.2.19.01.06 0 .13-.04.19-.02.05 0 .07.03.1.04.04.09.09.08.2-.03.1-.06.16-.09.21-.03.05-.05.1-.07.18l.01.02zm-.1-1.08c.05.09-.02.19-.09.29-.05.07-.1.14-.1.2s.02.09.05.12c.04.04.08.09.07.23.01.08-.01.1-.02.13-.01.02-.02.05-.03.1l.19-.02c.02-.08.04-.13.07-.18.03-.05.06-.11.09-.2 0-.09-.04-.13-.07-.17-.03-.03-.07-.07-.04-.14.04-.06.05-.12.04-.17-.02-.07-.07-.13-.16-.19"/><path d="M48.57 11.3c0 .07-.06.13-.13.13s-.13-.06-.13-.13.06-.13.13-.13.13.06.13.13" fill="#edc526"/><path d="M48.44 11.45c-.08 0-.15-.07-.15-.15 0-.16.29-.16.29 0 0 .08-.06.15-.14.15m0-.26c-.06 0-.11.05-.11.11 0 .12.22.12.22 0 0-.06-.05-.11-.11-.11"/><path fill="#edc526" d="M47.67 14.38l-.05-.03.7-1.03.76 1.03-.76-1z"/><path d="M48.49 13.98c0 .08-.06.14-.14.14-.08 0-.14-.06-.14-.14 0-.08.06-.14.14-.14.08 0 .14.06.14.14" fill="#edc526"/><path d="M48.35 14.13c-.09 0-.16-.07-.16-.16 0-.17.31-.17.31 0 0 .09-.07.16-.15.16m0-.27c-.07 0-.12.06-.12.12 0 .14.24.14.24 0 0-.07-.05-.12-.12-.12"/><path d="M47.78 15.13h1.09s.02-.14-.11-.23c.57-.08.42-.58.9-.61.09.01-.25.21-.25.21s-.29.2-.16.31c.1.08.15-.05.16-.15.01-.1.46-.16.4-.45-.11-.23-.73.16-.73.16h-.45c-.03-.05-.15-.25-.28-.25-.15.01-.26.25-.26.25h-1.01s-.03.26.48.31c.12.15.2.19.31.23-.07.06-.09.12-.09.22" fill="#edc526"/><path d="M48.88 15.15h-1.1c-.02-.13.01-.19.07-.25-.1-.01-.19-.05-.31-.21-.2-.02-.35-.07-.43-.17-.06-.08-.05-.15-.05-.15l1.03-.02c-.01 0 .1-.25.26-.26.15 0 .28.24.29.26l.43-.01c.01-.01.37-.23.59-.23.08 0 .13.03.16.09.05.2-.14.3-.27.37-.06.03-.12.06-.12.09-.01.06-.04.19-.12.19l-.07-.03a.09.09 0 0 1-.04-.08c0-.11.19-.25.2-.25.12-.07.25-.16.26-.19-.22.02-.3.14-.39.27-.1.14-.2.3-.5.35.15.06.13.2.13.21l-.02.02zm-1.79-.76c.01.01.01.06.05.11.05.06.16.14.42.16.13.15.21.19.31.23a.39.39 0 0 0-.07.23l1.05-.01c0-.04-.01-.13-.11-.19.29-.07.39-.22.49-.36.09-.14.18-.27.42-.28.04.07-.11.17-.24.25-.05.03-.18.14-.18.22l.02.07.06.01c.05 0 .07-.09.08-.16.01-.04.07-.08.14-.12.13-.07.29-.15.26-.33-.08-.17-.7.17-.7.17h-.46c-.06-.09-.17-.25-.28-.25-.14.01-.24.24-.24.24l-1.02.01z"/><path d="M47.86 14.92v-.03l.9-.01zM47.85 14.88c-.35-.07-.43-.48-.43-.5l.04-.01s.07.41.39.51"/><linearGradient id="i" gradientUnits="userSpaceOnUse" x1="-447.081" y1="169.544" x2="-446.081" y2="169.544" gradientTransform="matrix(-.5223 -.3938 -.1742 1.1811 -156.763 -362.575)"><stop offset="0" stop-color="#ea0020"/><stop offset="1" stop-color="#fcff2c"/></linearGradient><path fill="url(#i)" d="M47.51 14.68l-.56-.43.19-1.28.56.42z"/><path d="M47.4 14.38h-.24c-.01-.08 0-.11.01-.13.01-.03.02-.04.01-.11.01-.12-.02-.17-.06-.21-.03-.03-.06-.07-.06-.14s.05-.15.11-.22c.06-.09.13-.19.11-.28.13.04.18.11.2.19.01.06 0 .13-.04.2-.02.05 0 .07.04.1.04.04.09.09.08.2-.03.1-.06.16-.09.21-.03.06-.05.1-.07.18v.01zm-.1-1.08c.05.09-.02.19-.09.29-.05.07-.1.14-.1.2s.02.09.05.12c.04.04.08.09.07.23.01.08-.01.1-.02.13-.01.02-.02.05-.03.1l.19-.02c.02-.08.04-.13.07-.18.03-.05.06-.11.09-.2 0-.09-.04-.13-.07-.17-.03-.03-.07-.07-.04-.14.04-.06.05-.12.04-.17-.02-.07-.07-.13-.16-.19"/><path d="M48.48 13.36c0 .07-.06.13-.13.13s-.13-.06-.13-.13.06-.13.13-.13.13.06.13.13" fill="#edc526"/><path d="M48.35 13.51c-.08 0-.15-.07-.15-.15 0-.16.29-.16.29 0 .01.08-.06.15-.14.15m0-.26c-.06 0-.11.05-.11.11 0 .12.22.12.22 0 0-.06-.05-.11-.11-.11"/><path fill="#edc526" d="M49.11 20.48l-.71-1.03-.63 1.03-.07-.04.7-1.03.77 1.03z"/><path d="M48.58 20.07c0 .08-.06.14-.14.14-.08 0-.14-.06-.14-.14 0-.08.06-.14.14-.14.07 0 .14.07.14.14" fill="#edc526"/><path d="M48.44 20.24c-.09 0-.16-.07-.16-.16 0-.18.33-.18.33 0-.01.08-.08.16-.17.16m0-.28c-.06 0-.12.05-.12.12 0 .13.23.13.23 0 0-.07-.05-.12-.11-.12"/><path d="M47.87 21.22h1.09s.02-.14-.11-.23c.57-.08.42-.58.9-.61.09.01-.25.21-.25.21s-.29.2-.16.31c.1.08.15-.05.16-.15.01-.1.46-.16.4-.45-.11-.23-.73.16-.73.16h-.45c-.03-.05-.15-.25-.28-.25-.15.01-.26.26-.26.26h-1.01s-.03.26.48.31c.12.15.2.19.31.23-.08.05-.09.12-.09.21" fill="#edc526"/><path d="M48.97 21.25h-1.11c-.02-.13 0-.2.07-.26-.1 0-.19-.04-.31-.2-.2-.01-.35-.07-.43-.17-.06-.08-.05-.15-.05-.16l1.03-.02c-.01 0 .1-.25.26-.26.15 0 .28.22.3.27l.43-.01c0-.01.37-.23.59-.23.08 0 .14.03.16.09.05.21-.14.3-.28.38-.05.03-.12.06-.12.09-.01.07-.04.2-.13.2l-.08-.03c-.03-.02-.04-.05-.04-.09 0-.11.18-.24.2-.26.12-.07.25-.16.26-.18-.21.03-.29.14-.38.28-.1.14-.2.3-.51.35.15.05.13.2.13.2l.01.01zm-1.79-.76c.01.01.02.06.05.1.05.06.16.14.41.16.13.15.21.19.31.23a.42.42 0 0 0-.07.24l1.04-.02a.2.2 0 0 0-.1-.18c.29-.08.39-.23.49-.37.09-.14.18-.27.42-.28.04.05.05.09-.24.26-.05.03-.18.14-.18.22l.01.07h.06c.04 0 .07-.08.08-.16.01-.05.07-.08.15-.12.13-.07.29-.15.25-.32-.07-.16-.69.17-.7.17h-.46c-.07-.1-.18-.25-.28-.25-.13.01-.23.24-.24.24l-1 .01z"/><path d="M47.94 21.02v-.05h.91zM47.94 20.97c-.36-.06-.43-.48-.44-.5l.05-.01c0 .01.08.41.39.51"/><linearGradient id="j" gradientUnits="userSpaceOnUse" x1="-447.145" y1="169.244" x2="-446.145" y2="169.244" gradientTransform="matrix(-.5221 -.3937 -.1741 1.1807 -156.694 -356.026)"><stop offset="0" stop-color="#ea0020"/><stop offset="1" stop-color="#fcff2c"/></linearGradient><path fill="url(#j)" d="M47.6 20.77l-.56-.42.19-1.28.56.42z"/><path d="M47.49 20.48h-.24c-.02-.09-.01-.12.01-.14.01-.02.02-.04.01-.11.01-.12-.02-.16-.06-.2a.192.192 0 0 1-.06-.15c0-.07.05-.15.11-.23.06-.09.13-.18.11-.28.13.04.19.11.21.19.01.06 0 .13-.04.2-.02.04 0 .06.03.09.04.04.09.09.08.21-.03.1-.07.16-.09.22-.03.06-.05.1-.07.18v.02zm-.1-1.08c.06.09-.02.19-.08.29-.05.07-.1.14-.1.2s.02.08.05.12c.03.04.08.09.07.23.01.08-.01.1-.02.13-.01.02-.02.04-.02.09l.18-.02c.02-.08.04-.13.07-.18.03-.05.06-.1.09-.2 0-.09-.03-.13-.07-.16-.03-.03-.07-.07-.04-.15.04-.06.05-.12.04-.17a.365.365 0 0 0-.17-.18"/><path d="M48.57 19.46c0 .07-.06.13-.13.13s-.13-.06-.13-.13.06-.13.13-.13.13.06.13.13" fill="#edc526"/><path d="M48.44 19.61c-.08 0-.15-.07-.15-.15 0-.17.3-.17.3 0 0 .08-.07.15-.15.15m0-.26c-.06 0-.1.05-.1.11 0 .12.21.12.21 0-.01-.06-.05-.11-.11-.11"/><path fill="#edc526" d="M47.75 18.44l-.05-.04.7-1.03.75 1.04-.75-1z"/><path d="M48.57 18.04c0 .08-.06.14-.14.14-.08 0-.14-.06-.14-.14 0-.08.06-.14.14-.14.07-.01.14.06.14.14" fill="#edc526"/><path d="M48.43 18.19c-.09 0-.16-.07-.16-.16 0-.17.31-.17.31 0 0 .09-.07.16-.15.16m0-.28c-.07 0-.12.06-.12.12 0 .14.24.14.24 0 0-.06-.06-.12-.12-.12"/><path d="M47.86 19.18h1.09s.02-.14-.11-.23c.57-.08.42-.58.9-.61.09.01-.25.21-.25.21s-.29.2-.16.31c.1.08.15-.05.16-.15.01-.1.46-.17.4-.45-.11-.23-.73.16-.73.16h-.45c-.03-.05-.15-.25-.28-.25-.15.01-.26.25-.26.25h-1.01s-.03.26.48.31c.12.15.2.19.31.23-.08.06-.1.13-.09.22" fill="#edc526"/><path d="M48.96 19.2h-1.1c-.02-.13.01-.19.07-.25-.1-.01-.19-.06-.31-.21-.2-.01-.35-.07-.43-.17-.06-.08-.05-.15-.05-.15l1.03-.02c-.01 0 .1-.25.26-.26.14 0 .27.22.29.26l.43-.01c.01-.01.37-.23.59-.23.08 0 .13.03.16.09.05.2-.14.3-.27.37-.06.03-.12.06-.12.09-.01.07-.04.19-.12.19l-.07-.03a.09.09 0 0 1-.04-.08c0-.11.19-.25.2-.25.12-.07.25-.16.26-.19-.22.02-.3.14-.39.27-.1.14-.2.3-.51.34.15.06.13.2.13.21l-.01.03zm-1.79-.75c.01.01.01.06.05.11.05.06.16.14.42.16.12.15.21.19.31.23a.39.39 0 0 0-.07.23l1.05-.01c0-.04-.01-.13-.11-.19.29-.07.39-.22.49-.36.09-.14.18-.27.42-.28.04.07-.11.17-.24.25-.05.03-.18.14-.18.22l.01.07.06.01c.05 0 .07-.08.08-.16.01-.04.07-.08.14-.12.13-.07.29-.16.26-.33-.08-.17-.7.17-.7.17h-.46c-.07-.1-.18-.25-.28-.25-.14.01-.24.24-.24.24l-1.01.01z"/><path d="M47.93 18.98v-.04h.91zM47.93 18.93c-.35-.07-.43-.48-.43-.5l.04-.01c0 .01.07.42.39.51"/><linearGradient id="k" gradientUnits="userSpaceOnUse" x1="-447.081" y1="169.551" x2="-446.081" y2="169.551" gradientTransform="matrix(-.5223 -.3938 -.1742 1.1811 -156.686 -358.53)"><stop offset="0" stop-color="#ea0020"/><stop offset="1" stop-color="#fcff2c"/></linearGradient><path fill="url(#k)" d="M47.59 18.73l-.56-.42.19-1.28.56.42z"/><path d="M47.48 18.44h-.24c-.01-.08 0-.11.01-.13.01-.02.02-.04.01-.11.01-.12-.02-.17-.06-.2a.184.184 0 0 1-.06-.14c0-.07.05-.15.11-.22.06-.09.13-.18.11-.28.12.04.18.11.2.19.01.06 0 .13-.04.2-.02.05 0 .07.03.1.04.04.09.09.08.2-.03.1-.06.16-.09.22-.03.05-.05.1-.07.18l.01-.01zm-.1-1.08c.05.09-.02.19-.09.29-.05.07-.1.14-.1.2s.02.09.05.12c.04.04.08.09.07.23.01.07-.01.1-.02.13-.01.02-.02.04-.03.1l.19-.02c.02-.08.04-.13.07-.18.03-.05.06-.11.09-.2 0-.09-.04-.13-.07-.17-.03-.03-.07-.07-.04-.14.04-.06.05-.12.04-.17-.02-.08-.07-.14-.16-.19"/><path d="M48.55 17.42c0 .07-.06.13-.13.13s-.13-.06-.13-.13.06-.13.13-.13.13.06.13.13" fill="#edc526"/><path d="M48.43 17.56c-.08 0-.15-.07-.15-.15 0-.16.29-.16.29 0 0 .09-.06.15-.14.15m0-.25c-.06 0-.11.05-.11.11 0 .12.22.12.22 0 0-.06-.05-.11-.11-.11"/><path fill="#edc526" d="M41.83 16.54l-.05-.03.7-1.03.75 1.03-.75-1z"/><path d="M42.64 16.14c0 .08-.06.14-.14.14-.08 0-.14-.06-.14-.14 0-.08.06-.14.14-.14.08 0 .14.06.14.14" fill="#edc526"/><path d="M42.5 16.3c-.09 0-.16-.07-.16-.16 0-.17.31-.17.31 0 .01.08-.06.16-.15.16m0-.28c-.07 0-.12.06-.12.12 0 .14.24.14.24 0 .01-.07-.05-.12-.12-.12"/><path d="M41.93 17.29h1.09s.02-.14-.11-.23c.57-.08.42-.58.9-.61.09.02-.25.22-.25.22s-.29.2-.16.31c.1.08.15-.05.16-.15.01-.1.46-.16.4-.45-.11-.24-.73.16-.73.16h-.45c-.03-.05-.15-.25-.28-.25-.15.01-.26.26-.26.26h-1s-.03.26.48.31c.12.15.2.19.31.23-.08.04-.1.11-.1.2" fill="#edc526"/><path d="M43.04 17.31h-1.1c-.02-.09-.01-.18.07-.25-.1-.01-.19-.05-.31-.21-.2-.01-.35-.07-.43-.17-.06-.08-.05-.15-.05-.15l1.03-.02c-.01 0 .1-.25.26-.25.14 0 .26.2.3.26l.43-.01c.01-.01.65-.36.75-.15.05.2-.14.3-.27.37-.06.03-.12.06-.13.09-.01.07-.04.19-.12.19l-.07-.03a.09.09 0 0 1-.04-.08c0-.11.19-.25.2-.25.12-.07.25-.16.26-.19-.22.02-.3.14-.39.27-.1.14-.2.3-.51.34.15.06.13.2.13.21l-.01.03zm-1.8-.76c.01.01.01.06.05.11.05.06.16.14.42.16.12.15.21.2.31.23a.39.39 0 0 0-.07.23l1.05-.01c0-.04-.01-.13-.11-.19.29-.07.39-.22.49-.36.09-.14.18-.27.42-.28.04.07-.11.17-.24.25-.05.04-.18.14-.18.22l.01.07.06.01c.05 0 .07-.08.09-.16.01-.04.07-.08.14-.12.13-.07.29-.15.26-.32-.08-.17-.7.17-.7.17h-.46c-.08-.12-.19-.25-.28-.25-.14 0-.24.24-.24.24h-1.02z"/><path d="M42.01 17.08v-.03l.91-.01zM42.01 17.04c-.35-.06-.43-.48-.43-.5l.04-.01c-.01 0 .07.41.39.51"/><linearGradient id="l" gradientUnits="userSpaceOnUse" x1="-447.052" y1="169.691" x2="-446.052" y2="169.691" gradientTransform="matrix(-.5224 -.3939 -.1742 1.1813 -162.558 -360.606)"><stop offset="0" stop-color="#ea0020"/><stop offset="1" stop-color="#fcff2c"/></linearGradient><path fill="url(#l)" d="M41.67 16.84l-.56-.42.19-1.29.56.42z"/><path d="M41.56 16.54h-.24c-.01-.08 0-.11.01-.13.01-.03.02-.04.01-.11.01-.13-.02-.17-.06-.21-.03-.03-.06-.07-.06-.14s.05-.15.1-.22c.06-.09.13-.18.11-.28.12.04.18.11.2.19.01.06 0 .13-.04.2-.02.05 0 .06.03.1.04.04.09.09.08.2-.03.1-.06.16-.09.21-.03.05-.05.1-.07.18l.02.01zm-.1-1.08c.05.09-.02.19-.09.29-.05.07-.1.14-.1.2s.02.09.05.12c.04.04.08.09.06.23.01.07-.01.1-.02.13-.01.02-.02.04-.03.1l.19-.02c.02-.08.04-.13.07-.18.03-.05.06-.11.09-.2 0-.09-.03-.13-.07-.17-.03-.03-.07-.07-.04-.14.04-.06.05-.12.04-.17-.01-.07-.07-.13-.15-.19"/><path d="M42.63 15.52c0 .07-.06.13-.13.13s-.13-.06-.13-.13.06-.13.13-.13.13.06.13.13" fill="#edc526"/><path d="M42.5 15.67c-.08 0-.15-.07-.15-.15 0-.16.29-.16.29 0 .01.08-.06.15-.14.15m0-.26c-.06 0-.11.05-.11.11 0 .12.22.12.22 0 0-.06-.05-.11-.11-.11"/><path d="M45.55 21.42s.28.65.61.25c.32-.4.21-.57.21-.57l-.73-.4-.21.45.12.27z" fill="#edc526"/><path d="M45.94 21.82c-.23 0-.4-.38-.41-.39l-.13-.27.21-.47.75.39c.01.01.13.2-.2.6-.06.09-.14.14-.22.14m-.31-1.1l-.19.44.13.25c0 .01.16.37.37.37.07 0 .14-.04.2-.12.31-.38.2-.55.2-.55l-.71-.39z"/><path d="M46.17 21.33s.05.01.09-.06c.04-.07-.09-.1-.14-.18l-.06.13.11.11z" fill="#f5c3b4"/><path d="M46.18 21.35l-.14-.12.06-.15c.05.03.08.05.11.07.05.03.1.07.07.13-.04.06-.08.07-.1.07"/><path d="M44.54 21.16l-.64.34s-.32.06-.34 0c-.02-.06.01-.12.17-.13s.61-.42.61-.42l.2.21z" fill="#f5c3b4"/><path d="M43.66 21.55c-.07 0-.11-.01-.12-.04v-.01l.01-.08c.03-.04.09-.06.19-.07.16-.01.6-.41.6-.41l.22.2-.64.38c-.02 0-.16.03-.26.03m.67-.58c.01.02-.43.41-.6.42-.11.01-.14.03-.16.05 0 .05.01.07.08.07.1 0 .24-.03.24-.03l.63-.34-.19-.17z"/><path d="M44.54 9.82s.02.15.02.23c.01.08-.13.24-.13.24-.01-.01-.07.01-.06.06.01.05.1.06.1.06s-.04.16 0 .17c.04.01-.1.21 0 .27.1.06.28.13.35.11.08-.02 0 .31 0 .31l-.22.47 1.21-.13-.25-.4s-.12-.08-.09-.31c.03-.23-.02-1.26-.02-1.26l-.85-.12-.06.3z" fill="#f5c3b4"/><path d="M44.58 11.76l.23-.5c.02-.1.05-.25.03-.28-.13.02-.29-.07-.37-.11-.08-.04-.04-.15-.02-.22-.02-.1 0-.2.01-.24-.01.01-.09-.01-.1-.06l.07-.08c.02-.01.13-.15.12-.22l-.02-.23.06-.3.89.1c.02.06.06 1.06.03 1.28-.03.21.08.29.08.29l.26.41-1.27.16zm.02-2.22l-.04.28.02.22c.01.07-.08.19-.12.23l-.07.04c0 .05.06.06.08.07 0 .09-.01.16 0 .18.03.03.02.05 0 .1-.03.08-.05.15 0 .17.1.06.24.11.32.11.11.07.06.28.04.33l-.21.45 1.18-.12-.27-.37s-.12-.09-.09-.32c.03-.22-.02-1.25-.02-1.25l-.82-.12z"/><path d="M44.32 11.62s-.39.18-.38.67c-.1.47-.16.94-.16.94s-.46.53-.61.72c-.14.19-.35.58-.43.68-.08.1-.39.44-.38.57.01.13-.07.69.24.75.08.03.33-.65.33-.65s.01-.29-.07-.35c-.09-.06.19-.24.19-.24s.53-.39.65-.48c.12-.09.44-.46.44-.46l.18-2.15z" fill="#f5c3b4"/><path d="M42.61 15.96h-.01c-.27-.06-.25-.47-.25-.67v-.09c-.01-.1.15-.3.32-.5l.06-.08c.03-.04.1-.14.17-.26.09-.15.19-.31.27-.42.14-.19.6-.71.61-.72 0 0 .05-.47.15-.94a.71.71 0 0 1 .39-.68l-.15 2.17c-.02.03-.33.38-.45.47-.12.1-.65.48-.65.48-.08.06-.2.16-.2.2.1.07.09.35.09.38-.08.2-.26.66-.35.66m1.69-4.34c-.03.04-.35.23-.34.66-.1.48-.16.95-.16.95 0 .01-.47.54-.61.73-.08.1-.18.27-.27.42-.07.11-.13.22-.17.26l-.06.08c-.11.13-.31.38-.31.47v.09c-.01.19-.02.59.22.64v.02-.02c.05-.01.2-.33.31-.63 0-.07 0-.29-.06-.33-.03-.12.15-.25.19-.27 0 0 .53-.39.65-.48.12-.09.44-.45.44-.45l.17-2.14z"/><path d="M44.77 11.25s.1.28.33.23c.23-.05.5-.26.5-.26s.21-.01.24.02.57.56.56.72c-.02.17-.25.12-.34.23-.09.11-.23.39-.19.59.04.21.16.47.14.57-.02.1-.1.14-.1.19 0 .06.07.15.07.25s-.09.25-.08.36c.02.1.02.4.02.4l-.02 1.39s.08.05.09.13c.01.08.54 2.37.54 2.37s-.02.07-.08.07c-.06-.01.21.35.22.46.01.1.28.91.27 1.01-.01.11-.05.36-.07.36-.02.01.17.51.14.58-.03.08-.35.07-.35.07l-.09-.02s.01.1-.06.11c-.06.01-.53-.02-.53-.02s-.13.2-.21.2c-.08-.01-.18-.15-.21-.13-.02.03.07.16.05.2-.02.04-.43.13-.5-.07-.08-.19.05-.14.02-.18-.02-.04-.2-.14-.26-.11-.06.03.14.08.13.16-.01.08-.17.2-.24.2-.06 0-.21-.29-.43-.26-.22.03-.36.09-.36.09s-.26.11-.37.09c-.11-.02-.16-.11-.16-.16s.08-.25.07-.31c-.01-.06-.07-.13-.07-.22s.18-.42.18-.42l-.01-1.45s-.17 0-.17-.1c-.01-.1.25-2.29.29-2.43.04-.14.14-.64.14-.64s-.12.06-.13 0c-.01-.06.35-1.31.35-1.31s.06-.62.06-.79c0-.16-.03-.39-.03-.39s-.32-.14-.33-.35c-.03-.33.31-.52.35-.63l.16-.44s.19-.31.47-.36" fill="#fff"/><path d="M45.37 21.4c-.14 0-.24-.04-.27-.13-.05-.13-.02-.16.02-.18a.457.457 0 0 0-.21-.1c.07.06.13.09.13.14-.01.09-.18.22-.26.22-.03 0-.06-.03-.1-.08-.07-.08-.17-.18-.29-.18-.25.03-.39.09-.39.09-.01 0-.22.09-.34.09-.16-.03-.21-.12-.21-.18 0-.02.01-.06.03-.13.02-.07.04-.16.04-.19a.16.16 0 0 0-.03-.08.331.331 0 0 1-.04-.15c0-.1.16-.39.18-.43l-.01-1.44c-.01.02-.16.01-.17-.1-.01-.11.25-2.3.29-2.44.03-.12.11-.51.14-.62-.01.01-.04.02-.07.02-.01-.01-.01-.02-.01-.04.04.01.08-.01.09-.02.03.02-.08.53-.12.67-.03.13-.3 2.33-.29 2.43.01.08.15.09.15.09l.03 1.47c-.05.1-.18.35-.18.42 0 .05.02.09.04.13.01.03.03.06.03.09.01.04-.02.12-.04.2-.01.05-.03.1-.03.11 0 .03.03.12.14.14.12-.01.36-.08.36-.09.01 0 .15-.06.37-.09.19-.01.28.11.36.19.03.03.07.07.08.07.05 0 .21-.11.22-.18 0-.03-.05-.06-.08-.08l-.06-.06c.13-.03.28.05.31.09-.04.06-.07.07-.02.19.04.09.17.11.24.11.12 0 .22-.03.23-.05.01-.01-.01-.06-.03-.09-.02-.05-.04-.09-.02-.11.04-.01.06.01.1.04.04.03.08.07.12.08.05 0 .15-.11.19-.19.02-.01.38.02.51.02.08-.01.07-.09.07-.09h.11c.19 0 .32-.02.33-.06.02-.04-.05-.25-.09-.38-.06-.18-.06-.2-.04-.22.01-.02.05-.22.06-.35 0-.06-.08-.36-.16-.6-.06-.2-.11-.37-.11-.41 0-.05-.08-.17-.13-.27-.08-.14-.1-.18-.09-.2.07-.01.08-.06.08-.06-.02-.08-.53-2.28-.54-2.36-.01-.07-.08-.11-.08-.11l.01-1.4s-.01-.3-.02-.4c-.01-.06.02-.13.04-.2.02-.06.04-.11.04-.15 0-.06-.02-.11-.04-.15-.01-.04-.03-.07-.03-.1s.02-.06.04-.08c.02-.03.05-.06.06-.11.01-.06-.03-.17-.07-.29-.03-.09-.06-.19-.08-.28-.04-.22.11-.5.19-.61.04-.05.11-.07.17-.09.08-.02.16-.04.17-.13.01-.09-.2-.36-.55-.7-.01-.01-.06-.03-.19-.03-.05.01-.31.21-.54.26h-.01c-.25 0-.34-.23-.34-.24-.25.06-.42.35-.42.35l-.16.44c-.01.04-.05.08-.1.13-.11.11-.26.27-.24.49.01.19.32.33.32.33.01.01.04.24.04.41 0 .17-.06.79-.06.79-.12.42-.29 1.03-.34 1.23.03-.3.25-1.07.31-1.24 0 0 .06-.62.06-.78 0-.16-.03-.39-.03-.39-.01.01-.32-.13-.33-.35-.02-.24.14-.41.25-.52.05-.05.09-.09.1-.12l.16-.44c.01-.02.18-.31.47-.36.02.01.11.24.28.24.27-.05.53-.26.54-.26.24-.01.26.01.27.02.22.22.58.6.57.74-.01.11-.11.14-.19.16-.06.02-.12.04-.15.08-.08.1-.22.37-.18.58.02.09.05.18.07.27.04.13.08.25.07.31-.01.06-.04.1-.07.13-.03.08-.02.11-.01.14-.01.04.01.1.01.16 0 .05-.02.11-.04.17-.02.06-.05.13-.04.18.02.1.02.4.02.4l-.02 1.39c.01-.01.08.04.09.13.01.06.35 1.58.54 2.37 0 .01-.03.09-.09.09 0 0 .05.09.09.15.07.11.14.23.14.28 0 .04.06.22.11.41.09.32.16.55.16.61 0 0-.03.37-.08.38.01 0 .04.09.06.17.07.21.11.36.09.41-.03.07-.2.08-.35.08l-.11-.02c.03.02.01.1-.05.11-.18.01-.53-.02-.53-.02 0 .01-.12.2-.21.2a.29.29 0 0 1-.15-.09c-.05-.04-.03 0-.02.02.02.05.04.1.03.13a.71.71 0 0 1-.27.05"/><path d="M44.65 21.25s-.76.4-.87.43c-.11.03-.18-.13-.07-.16.11-.03.28-.05.28-.05s-.26-.2-.25-.21c.01-.01.35-.14.36-.14s.11.21.18.19c.07-.01.28-.17.28-.17s.11.13.09.11" fill="#edc526"/><path d="M43.75 21.71c-.06 0-.11-.06-.12-.11-.01-.05.02-.09.07-.1.11-.03.29-.05.29-.05-.27-.17-.27-.18-.27-.19.02-.03.38-.15.38-.15.06.08.13.19.17.19.06-.01.22-.13.27-.17.13.12.13.12.13.13-.04.02-.78.41-.89.44l-.03.01zm0-.43c.02 0 .14.1.25.18-.01.03-.18.05-.29.08-.04.01-.04.04-.04.06.01.03.04.07.08.07v.02l.02-.02c.1-.03.81-.4.87-.43 0-.02-.1-.08-.1-.08 0 .02-.19.16-.26.18-.07 0-.13-.08-.18-.17-.02-.02-.33.09-.35.11z"/><path d="M45.73 21.47c.07.09.1.25.27.16s-.08-.27-.08-.27l-.19.11z" fill="#f5c3b4"/><path d="M45.91 21.68c-.08 0-.11-.06-.15-.13-.01-.02-.03-.05-.04-.07l.19-.14c.03 0 .17.11.17.21 0 .04-.02.07-.07.09-.04.03-.07.04-.1.04m-.16-.19c.02 0 .03.02.04.05.05.08.09.14.2.08.03-.02.05-.04.05-.06 0-.07-.1-.15-.13-.17l-.16.1z"/><path d="M46.03 21.46s.08.06.15-.01c.07-.07-.14-.22-.14-.22l-.1.12.09.11z" fill="#f5c3b4"/><path d="M46.11 21.5c-.05 0-.08-.03-.09-.03l-.1-.11.1-.14c.04.01.18.11.19.19-.04.08-.07.09-.1.09m-.08-.26l-.08.12.15.11c.02 0 .04-.01.06-.03.01-.08-.09-.17-.13-.2M45.13 12.16c-.05-.16.58-.57.66-.62l.02.03c-.27.17-.69.48-.68.59M45.89 12.28c-.09-.18.25-.46.26-.47l.02.03c.01 0-.33.28-.28.44M44.69 12.59c-.04-.01-.01-.13-.04-.28-.02-.11-.1-.27-.16-.38a.657.657 0 0 1-.06-.12c-.02-.08.07-.28.08-.3l.03.02c-.04.08-.09.22-.08.27.01.02.03.06.06.11.06.12.15.28.17.4.02.16 0 .27 0 .28M44.63 12.55c-.05-.07-.17-.28-.22-.33-.05-.05-.08-.28-.08-.31h.04c.01.1.04.26.07.29.05.05.18.26.19.35M44.35 12.99c-.04 0-.07-.01-.07-.02l.02-.03s.05.02.12 0c.06-.02.16-.09.25-.28-.05.18-.14.28-.24.32-.04 0-.06.01-.08.01M45.47 13.05c-.11 0-.24-.03-.39-.12-.21-.12-.16-.4-.14-.48.02-.08.03-.08.04-.08l.02.03c-.01.01-.07.18-.03.33.02.08.06.13.13.17.25.14.43.12.54.09.11-.04.22-.11.22-.11.02.03-.1.1-.21.14-.05.02-.11.03-.18.03M45.67 13.88c-.79-.48-.81-1-.81-1.02h.04c-.01.01.02.52.77 1.02M45.21 14c-.33-.18-.32-.63-.32-.65h.04c-.01.01-.01.45.28.65M44.35 13.58c.13-.09.32-.59.38-.77l.03.01c0 .03-.23.69-.41.76M44.62 13.98c.03-.18.03-.66.03-.67h.04c.01.02 0 .49-.07.67M44.85 14.29c-.17 0-.32-.18-.33-.19l.03-.02s.15.19.31.17c.08-.01.14-.06.19-.11.06-.05.11-.1.18-.08.03.01.06.02.1.04.09.04.2.09.4.07-.2.06-.32.01-.41-.03-.03-.01-.06-.03-.09-.03-.05-.02-.09.03-.14.07-.06.05-.12.11-.21.12-.01-.01-.02-.01-.03-.01M45.48 15.24c-.02-.18-.03-.37-.07-.39-.08-.04-.08-.39-.08-.46h.04c0 .19.02.4.06.43.07.04.05.33.05.42M44.22 15.27c-.05-.18.02-.38.07-.52.06-.18.07-.55.07-.56h.04c0 .02-.01.38-.06.52-.06.19-.13.39-.12.56M43.92 17.76c-.13-.85.2-2.3.21-2.32l.04.01c-.01.02-.34 1.46-.25 2.31M44.15 16.8c-.12-.19.05-1.24.06-1.29l.04.01c-.01.01-.17 1.08-.1 1.28"/><path d="M44.67 15.53c-.19 0-.52-.02-.53-.02v-.04l.66.05c0 .01-.05.01-.13.01M45.17 15.52c-.17 0-.28-.06-.29-.06l.02-.03s.18.1.42.08c-.05.01-.1.01-.15.01M44.76 18.25c.01-.41.04-2.25.04-2.27h.04c0 .01-.03 1.86-.08 2.27M46.13 18.17c-.15-.13-.35-1.7-.36-1.77h.04c.07.56.22 1.65.32 1.77M45.61 18.16c-.11-.11-.23-1.5-.23-1.56h.04c.03.4.13 1.46.19 1.56M43.61 18.7l-.01-.04s.24-.08.46-.31c.09.09.17.14.26.15.19.03.38-.13.38-.13.03 0 .34.21.61.16.11-.03.19-.09.26-.2.42.25.61-.03.61-.04.07.06.19.22.27.2-.11.06-.24-.13-.27-.17 0 .04-.22.3-.61.04-.04.11-.14.18-.25.21-.28.06-.59-.15-.61-.16.01.01-.18.16-.38.14a.353.353 0 0 1-.26-.16c-.21.22-.45.3-.46.31M46.57 20.49c-.48-.38-.78-1.77-.8-1.83l.04-.01c.01.01.32 1.44.76 1.84"/><path d="M44.34 20.56c-.11-.84-.15-2.04-.15-2.05h.04c0 .01.04 1.21.11 2.05M44.08 20.72c0-.06.04-.48.05-.85h.04c0 .13-.04.79-.09.85"/><path d="M44.8 21.21s-.01 0 0 0c-.09-.01-.13-.14-.14-.21-.02-.11-.04-.24-.13-.28-.07-.03-.17.01-.3.1-.17.12-.3.16-.41.13a.227.227 0 0 1-.14-.16l.04-.01s.03.1.12.13.22-.01.37-.12c.14-.11.26-.14.34-.11.11.04.13.19.14.25.02.09.06.22.12.23.03-.01.07-.03.11-.1-.03.11-.08.15-.12.15M45.45 21.01c-.03 0-.06-.01-.08-.02-.15-.08-.12-.36-.12-.38h.04s-.02.27.1.34c.09.05.23-.01.42-.17.24-.19.43-.27.57-.21.16.07.2.28.21.37-.04-.08-.08-.28-.22-.34-.12-.05-.3.02-.53.21-.16.14-.29.2-.39.2"/><path d="M44.52 9.77s.17.02.27-.03c.09-.06.21-.08.28.03.08.11.13.1.13.1s-.12.29 0 .32.17.03.18.07c.01.04-.1.13-.07.17.03.04.09.09.1.12.01.03-.07.16-.05.2.02.03.09.16.14.16.05 0 .02.19.16.15.14-.05.13-.17.13-.17s.15-.02.19-.16.14-.16.14-.16.19-.1-.06-.26c0-1.11-.72-.99-.72-.99s-.09-.2-.23-.17c-.14.02-.15.19-.25.17-.1-.02-.13-.09-.13-.08-.01.01-.09.16-.09.21 0 .04-.28-.06-.25.15 0 .2.14.19.13.17" fill="#905115"/><path d="M45.62 11.08c-.07 0-.09-.07-.1-.11-.06-.04-.1-.11-.15-.18-.04-.05-.02-.09.01-.16.01-.02.02-.06.02-.07 0-.02-.03-.04-.05-.07-.07-.08-.03-.12 0-.16.03-.07 0-.08-.06-.09l-.08-.02c-.09-.13-.03-.31-.01-.34-.01.02-.06 0-.13-.09s-.16-.1-.27-.03c-.1.06-.28.03-.28.04-.06.01-.15-.04-.17-.2-.01-.05 0-.09.03-.11.04-.04.1-.05.16-.05h.07c-.01-.04.08-.2.09-.21.06.03.08.06.15.07.04.02.06-.02.09-.06.03-.04.08-.1.15-.11.18.03.25.18.25.18.21-.01.72.06.72.99.09.04.13.1.13.16 0 .07-.08.11-.08.11-.01 0-.09.03-.13.15-.04.13-.17.16-.2.17.01.01 0 .13-.14.17l-.02.02zm-.69-1.4c.06 0 .11.03.15.08.07.09.11.1.12.1 0 .08-.05.24-.02.3l.1.04c.07.02.11.03.12.07.01.02-.01.05-.04.08-.02.02-.04.06-.03.07.06.07.09.1.1.13 0 .02-.01.04-.02.09-.01.03-.03.09-.03.1.04.06.1.15.13.15h.01l.04.07c.01.05.03.09.07.09v.02l.03-.03c.13-.04.12-.15.12-.15.02-.02.15-.05.19-.17.04-.14.14-.17.15-.18 0 0 .05-.03.06-.08 0-.04-.04-.09-.12-.14-.01-.89-.46-.99-.65-.99h-.01l-.06-.01s-.07-.16-.19-.16c-.09.01-.12.06-.15.1-.03.04-.06.08-.11.08-.1-.01-.13-.06-.15-.08 0 .01-.07.15-.07.18l-.08.03c-.07 0-.13 0-.15.03-.02.02-.02.04-.02.08.01.14.08.17.12.17.02-.01.05 0 .1 0s.13-.01.17-.03c.03-.03.08-.04.12-.04"/><path d="M45.68 10.06c-.04 0-.15-.08-.1-.25-.1.03-.19.01-.25-.06-.09-.1-.07-.25-.07-.26l.04.01s-.02.14.06.22c.05.06.13.08.24.07-.02.19.1.25.1.25-.01.02-.02.02-.02.02M45.96 10.53c.03-.07.05-.11.05-.14 0-.05-.05-.08-.06-.08l.01-.03c.02 0 .07.04.08.09.02.03.02.09-.08.16M45.91 10.76c-.02 0-.06-.01-.1-.02-.04-.03-.15-.11-.22-.09-.1.02-.18-.07-.18-.08l.03-.02s.07.08.15.06c.09-.03.24.08.24.09.04.01.1.02.11.02.01.03 0 .04-.03.04M45.01 10.89c-.04 0-.07-.01-.07-.01l.01-.04c.01 0 .25.09.42-.31-.1.31-.26.36-.36.36"/><path d="M46.37 12c.01 0 .26.78.29.98.03.2.13.98.09 1.1-.04.11-.44.64-.49.77-.05.14-.33.65-.33.65s-.07.5-.1.53c-.03.03.08.15.07.19-.01.05-.23.27-.32.24-.09-.02-.24-.13-.25-.24-.01-.1.01-.44.08-.53.07-.09.44-.96.47-1.02.02-.06.34-.74.35-.86.01-.12-.1-.39-.21-.49-.26-.73-.16-1.17.35-1.32" fill="#f5c3b4"/><path d="M45.6 16.47h-.02c-.1-.03-.26-.14-.27-.25-.01-.1.01-.45.08-.54.03-.03.13-.23.44-.97l.05-.11c.08-.17.31-.7.32-.79.01-.11-.1-.38-.2-.48-.16-.47-.18-.8-.06-1.03.08-.15.22-.26.43-.32.05 0 .31.98.32.99.03.19.13.99.09 1.1-.02.06-.12.2-.23.36-.11.16-.24.35-.26.41-.05.14-.32.63-.33.65-.03.18-.08.51-.11.53 0 .01.02.05.04.07.02.04.05.08.04.11-.02.06-.22.27-.33.27m.76-4.46c-.17.06-.31.16-.38.31-.11.22-.1.55.06.99.11.1.22.38.21.5-.01.09-.19.51-.32.81l-.06.1.02.01c-.25.59-.4.92-.45.97-.06.08-.08.4-.07.51.01.09.15.2.24.22h.01c.09 0 .28-.2.29-.24 0-.01-.02-.05-.04-.08-.03-.05-.06-.1-.03-.12.02-.02.06-.28.1-.51 0-.01.29-.52.33-.65.03-.07.15-.25.27-.42.1-.15.2-.3.22-.35.04-.1-.06-.87-.09-1.09-.06-.18-.3-.92-.31-.96M42.6 15.92c-.02-.19-.24-.56-.24-.56l.03-.02c.01.02.23.38.21.58"/><path d="M45.52 16.39c-.04-.1-.06-.18-.1-.21-.04-.04-.08-.03-.08-.03v-.04s.06-.01.11.04.08.13.07.24c.07-.36.29-.38.3-.38 0 .04-.2.06-.3.38"/><path d="M44.78 24.02c3.33-.09 5.48-2.5 5.45-2.52-.02-.02.44-.67.81-.58.37.09.9 1.18 1.55 1.41.32.51-.09.97-.23 1.06-.14.09-.76.35-.86-.02-.09-.37-.28-.3-.28-.3s-2.96 2.89-6.38 2.77c-3.53.02-6.45-2.77-6.45-2.77l-.25.28s-.28.3-.42.28c-.14-.02-.74-.41-.78-.81-.05-.39.37-.65.37-.65s1.02-.78 1.13-1.2c.23-.23.67.16.67.16s2.69 3.07 5.67 2.89" fill="#edc526"/><path d="M45.05 25.89h-.2c-3.53 0-6.44-2.76-6.47-2.78l-.2.28c-.03.03-.27.29-.43.29-.17-.02-.79-.43-.84-.84-.05-.41.37-.67.39-.68.01-.01 1.01-.78 1.12-1.18.25-.28.72.13.73.15.03.03 2.71 3.06 5.63 2.88 3.33-.09 5.41-2.47 5.42-2.5.05-.13.5-.68.85-.6.18.04.38.28.61.56.28.34.6.72.95.85.35.53-.04 1.01-.22 1.13-.09.06-.36.18-.58.18-.18 0-.29-.08-.33-.22-.06-.25-.16-.28-.21-.28-.05 0-2.91 2.76-6.22 2.76m-6.68-2.84c.08.03 2.97 2.76 6.43 2.76h.24c3.28 0 6.12-2.74 6.15-2.77.13-.01.27.03.34.32.03.11.11.17.26.17.21 0 .47-.12.54-.17.1-.07.54-.51.22-1.01-.35-.12-.67-.51-.96-.85-.21-.26-.41-.5-.57-.54h-.01c-.37 0-.74.48-.75.54-.01.04-2.1 2.46-5.49 2.56-.09.01-.17.01-.26.01-2.86 0-5.4-2.88-5.43-2.91 0 0-.44-.34-.62-.16-.11.41-1.09 1.17-1.14 1.21-.01 0-.4.25-.35.61.04.37.62.75.75.77.1 0 .29-.16.38-.26l.27-.28z"/><path d="M38.39 23.09s-.69-.68-.79-.79c-.07-.08-.27-.05-.34-.03l-.02-.07c.03-.01.3-.08.41.05.1.12.79.79.79.79l-.05.05z"/><path d="M38.17 23.36l-.07-.02c.03-.1.03-.18-.02-.26-.12-.21-.49-.29-.49-.29l.26-.27.04.06-.25.19c.09-.02.38.07.5.28.06.09.07.2.03.31M51.26 23.09l-.06-.05c.02-.02.55-.61.77-.77.23-.17.39-.09.39-.09l-.04.07s-.12-.06-.31.08c-.21.15-.75.75-.75.76"/><path d="M51.5 23.4c-.04-.18-.02-.33.07-.45.15-.21.44-.23.45-.23l-.32-.16.05-.06.3.23c-.02.07-.29.09-.42.26-.07.1-.09.23-.06.39l-.07.02z"/><path fill="#120065" d="M0 0h29.84v14.92H0z"/><path d="M0 0v1.67l26.51 13.25h3.34v-1.67L3.34 0H0zm29.84 0v1.67L3.34 14.92H0v-1.67L26.51 0h3.33z" fill="#fff"/><path d="M12.43 14.92h4.97V0h-4.97v14.92zM0 9.95h29.84V4.97H0v4.98z" fill="#fff"/><path d="M0 8.95h29.84V5.97H0v2.98zm13.43 5.97h2.98V0h-2.98v14.92zM0 14.92l9.95-4.97h2.23l-9.95 4.97H0zM0 0l9.95 4.97H7.72L0 1.11V0zm17.67 4.98L27.62 0h2.22l-9.95 4.97h-2.22zm12.17 9.94l-9.95-4.97h2.22l7.72 3.86v1.11z" fill="#ba0019"/><path d="M40.77 22.97l-.02.03a.17.17 0 0 0-.14-.01c-.04.01-.11.05-.22.11l-.92.53-.02-.02.23-1.07c.03-.13.04-.21.04-.24s-.02-.06-.06-.09l.02-.03.49.35-.02.03-.02-.01c-.04-.03-.08-.05-.1-.05-.02 0-.03.01-.04.02-.01.01-.01.02-.02.04-.01.01-.01.06-.03.13l-.15.67.53-.31c.06-.04.1-.06.12-.08l.04-.04c.01-.01.02-.03.02-.05 0-.02-.01-.04-.02-.05-.02-.02-.04-.05-.08-.07l.02-.03.35.24zm.33 1.59l-.02.03-.58-.32.02-.03.04.02c.03.02.06.03.09.03.02 0 .04-.01.05-.02.01-.01.03-.04.07-.1l.4-.73c.03-.06.05-.09.05-.11 0-.02 0-.04-.02-.06a.17.17 0 0 0-.06-.06l-.04-.02.02-.03.58.32-.02.03-.04-.02a.161.161 0 0 0-.09-.03c-.02 0-.04.01-.06.02-.01.01-.03.04-.07.1l-.4.73c-.03.06-.05.09-.05.11 0 .02 0 .03.02.06.01.02.03.04.07.06l.04.02zm2.12-.5l-.15.42-.03-.01c0-.13-.03-.24-.08-.33s-.13-.15-.22-.18a.358.358 0 0 0-.25 0c-.08.03-.14.08-.2.16s-.1.17-.14.26c-.04.11-.06.22-.07.31-.01.1.02.17.06.24.05.06.11.11.19.14.03.01.06.02.09.02s.07.01.1.01l.09-.25c.02-.05.03-.08.02-.1 0-.02-.01-.03-.03-.05a.161.161 0 0 0-.07-.04l-.03-.01.01-.03.58.21-.01.03c-.05-.01-.08-.02-.1-.01-.02 0-.04.01-.06.03-.01.01-.02.03-.04.08l-.09.25c-.09.01-.18 0-.27-.01a.771.771 0 0 1-.26-.07c-.11-.04-.2-.09-.27-.14a.896.896 0 0 1-.15-.19.601.601 0 0 1-.03-.51c.06-.18.18-.31.35-.38.17-.08.35-.09.54-.02.06.02.11.05.15.07.03.01.06.04.11.09.05.04.08.06.09.07h.05a.17.17 0 0 0 .06-.06h.06zm.89 1.43l-.01.04-.65-.1.01-.03.04.01c.04 0 .07 0 .09-.01.02-.01.03-.02.04-.04.01-.01.02-.05.03-.12l.12-.82c.01-.06.01-.1.01-.12-.01-.02-.02-.03-.04-.05a.339.339 0 0 0-.08-.03l-.04-.01v-.03l.65.1v.03l-.04-.01c-.04-.01-.07 0-.09.01-.02.01-.03.02-.04.04-.01.01-.02.05-.03.11l-.12.82c-.01.06-.01.1-.01.12.01.02.02.03.03.05.02.01.05.02.08.03l.05.01zm1.7-.41l-.03.45-1.12.06v-.03h.04a.2.2 0 0 0 .09-.02c.02-.01.03-.03.04-.05.01-.02.01-.06 0-.12l-.04-.83c0-.06-.01-.1-.02-.12-.01-.01-.02-.03-.04-.04-.02-.01-.05-.01-.08-.01h-.04v-.04l.67-.03v.03h-.06a.2.2 0 0 0-.09.02c-.02.01-.03.02-.04.05-.01.01-.01.05 0 .12l.04.81c0 .06.01.1.02.12.01.02.02.03.05.04.02 0 .06.01.11 0l.11-.01c.07 0 .12-.02.16-.05.04-.03.08-.06.11-.12.03-.05.06-.13.08-.23h.04zm1.22-.21l-.43.13-.02.13v.11c.01.03.03.05.06.06.02.01.06 0 .13-.01l.01.03-.4.12-.01-.03c.04-.02.07-.05.09-.09.02-.04.03-.11.05-.21l.15-1.1.02-.01.73.86c.07.08.12.13.15.15.03.01.06.01.1.01l.01.03-.59.18-.01-.03.02-.01c.05-.02.08-.03.09-.05.01-.01.01-.03.01-.05 0-.01-.01-.02-.01-.03 0 0-.02-.02-.05-.06l-.1-.13zm-.05-.06l-.31-.36-.06.47.37-.11zm1.62-1.65l.16.3-.03.02c-.06-.06-.1-.1-.14-.12a.277.277 0 0 0-.13-.03c-.03 0-.06.02-.12.04l-.08.05.46.86c.03.06.05.09.07.1.01.01.03.02.06.02s.05-.01.08-.02l.04-.02.02.03-.59.31-.02-.03.04-.02c.03-.02.06-.04.07-.06.01-.01.01-.03.01-.06 0-.02-.02-.05-.05-.11l-.45-.85-.08.04c-.08.04-.12.09-.14.14-.02.07-.02.15.01.24l-.03.01-.16-.3 1-.54zm.76-.45l.31.41.02-.02c.06-.05.09-.1.09-.17 0-.06-.03-.13-.08-.22l.03-.02.4.53-.03.02a.603.603 0 0 0-.14-.11c-.05-.02-.09-.03-.12-.02-.04.01-.08.03-.12.06l.21.28c.04.06.07.09.08.1.01.01.03.01.05.01s.04-.01.07-.03l.06-.05c.1-.07.15-.15.18-.24.02-.09.01-.19-.03-.29l.03-.02.2.36-.87.66-.02-.03.03-.03c.03-.02.05-.04.06-.07.01-.02.01-.04 0-.06 0-.02-.02-.05-.06-.1l-.5-.66a.75.75 0 0 0-.07-.08c-.02-.01-.04-.02-.06-.02-.03 0-.06.01-.09.04l-.03.03-.02-.03.85-.64.22.3-.03.02a.456.456 0 0 0-.18-.11.292.292 0 0 0-.16.01c-.04.01-.09.05-.17.1l-.11.09z"/></svg>