<svg xmlns="http://www.w3.org/2000/svg" viewBox="0 0 58.92 34.37"><path fill="#fff" d="M0 0h58.92v34.37H0z"/><path d="M34.03 12.38c0-.24-.08-.7-.33-.85-.32-.17-.32-.27-.35-.49-.03-.22.54-.63.54-.63s-.51-.23-.71-.21c-.19.03-.57.07-.62.12-.05.05-.33-.93-.15-1.08.18-.15.55.36.55.36s.24-.57-.62-1.65c.3-2.11-1.67-2.6-2.12-2.59-.37-.05-1.34.29-1.49.76-.49.17-.52.59-.52.59s-1 .18-1.13 1.06c.59-.49.98.05.98.05s.51.36.78.37c.27.01-.26.9-.41 1.06-.15.15-.8.75-.77.78.02.04.5.18.48.4-.03.22-1.47.89-1.39 1.06.37-.12.66-.03.66-.03.05.36-.09.79-.34.92h6.96z" fill-rule="evenodd" clip-rule="evenodd" fill="#f6d628"/><path d="M34.08 12.43h-7.2l.17-.1c.22-.12.36-.51.32-.85-.02.01-.11-.01-.22-.01-.13 0-.25.02-.38.06-.03-.03-.04-.06-.03-.1.02-.12.24-.25.66-.51.27-.17.68-.42.69-.5.01-.13-.24-.24-.35-.29-.08-.04-.1-.05-.11-.07-.03-.05-.04-.06.6-.68l.18-.17c.14-.14.53-.81.47-.96-.3-.03-.81-.38-.83-.39-.01-.01-.18-.25-.46-.25-.15 0-.3.07-.46.19l-.1.08.02-.13c.13-.87 1.09-1.08 1.17-1.1-.03-.01.02-.42.51-.59.13-.47 1.14-.81 1.51-.76.33 0 1.16.2 1.7.82.41.47.57 1.09.47 1.82.86 1.06.63 1.64.61 1.66l-.04.08-.05-.07c-.1-.14-.31-.37-.43-.37-.06.03-.08.05-.08.15-.02.29.14.82.18.87-.01-.05.15-.07.5-.12l.09-.01c.29 0 .72.2.73.21l.08.05-.07.05c-.21.15-.54.45-.52.58.02.22.03.3.32.45.28.18.35.67.35.9v.06zm-6.85-.1h6.75c-.01-.25-.09-.63-.3-.76-.32-.16-.34-.28-.37-.5-.03-.22.32-.51.49-.65-.14-.06-.42-.17-.57-.17l-.11.01c-.15.02-.46.06-.5.09-.08.02-.11-.02-.15-.13-.05-.13-.27-.87-.07-1.03.15-.13.43.13.56.28.03-.2 0-.71-.63-1.5.09-.74-.06-1.33-.45-1.78-.51-.59-1.31-.78-1.61-.78h-.1c-.42 0-1.23.34-1.36.73-.48.18-.51.56-.51.58-.05.05-.91.21-1.11.93.14-.09.28-.13.41-.13.33 0 .52.26.53.28.01 0 .5.34.75.35.05 0 .09.03.11.08.09.22-.37.94-.49 1.06l-.2.16c-.16.15-.49.46-.57.56 0 .01.03.01.05.02.16.07.44.2.41.4-.01.13-.29.3-.74.58-.2.12-.48.29-.59.39.26-.06.57 0 .57 0 .08.37-.02.73-.2.93"/><path d="M33.65 22.02s.06.78-.26 1.1c1.45.09 2.24 1.57 2.25 1.93.01.35-.44.63-.44.63s.16.63-.45.74c.01.6-.41.6-.41.6s-.16.5-.64.47c-.14.72-.89.71-.89.71s-.43 1.05-1.07.64c-.41.89-1.48.85-1.89 0-.22-.01-.72.29-1.02-.6-.67.12-.93-.73-.93-.73s-.45-.04-.62-.48c-.53-.1-.43-.63-.43-.63s-.52-.14-.51-.72c-.42-.25-.38-.69-.38-.69s.33-1.55 2.23-1.88c-.3-.43-.26-1.06-.26-1.06l5.72-.03z" fill-rule="evenodd" clip-rule="evenodd" fill="#f6d628"/><path d="M30.81 29.54c-.42 0-.8-.26-1-.68 0 .03-.05.04-.1.05-.07.01-.14.02-.22.02-.33 0-.55-.22-.71-.68.01.04-.03.05-.08.05-.59 0-.83-.72-.85-.78-.01.03-.44-.03-.62-.48-.49-.08-.44-.58-.44-.65-.04.02-.52-.15-.51-.72-.42-.22-.38-.68-.38-.7 0-.02.35-1.55 2.19-1.91-.26-.44-.23-1-.23-1.03l5.78-.06c.05.07.11.74-.16 1.11 1.42.16 2.19 1.63 2.2 1.97.01.36-.4.63-.46.67.03.01.08.28-.06.5-.08.13-.22.21-.41.25.05.18-.01.35-.12.47-.12.12-.26.13-.29.13.02.03-.15.47-.61.47-.14.7-.89.71-.93.71.03 0-.28.74-.78.74-.09 0-.18-.03-.27-.07-.19.38-.54.62-.94.62m-.97-.76c.24.41.59.65.97.65s.71-.23.89-.62c.01-.01.02-.03.03-.03.02 0 .03 0 .04.01.09.06.18.09.27.09.43 0 .73-.7.73-.7.12-.03.76-.05.89-.7.01-.02.06-.04.09-.04.41 0 .55-.42.56-.44.05-.03.17-.04.27-.14.09-.1.14-.25.13-.45.2-.08.31-.15.38-.25.13-.2.06-.47.06-.47.03-.06.46-.32.44-.64-.01-.33-.78-1.79-2.21-1.88-.02 0-.04-.01-.04-.03-.01-.02 0-.04.01-.06.31-.3.25-1.05.25-1.06l-5.67.06c.04.04.03.59.29.98.01.01.01.03 0 .05-.01.02-.02.03-.04.03-1.85.32-2.18 1.82-2.19 1.83 0 .01-.03.41.36.64.01.58.49.72.5.72.03.08-.04.53.43.63.19.44.6.48.61.48.05.05.3.84.92.73.34.82.66.65.87.62.07 0 .11-.01.16-.01"/><path d="M24.55 13.14s-1.04 1.12-1.56.28c-.52-.83.72-1.07.74-1.08.01-.01.72-.24.78-1.54.06-1.3-1.55-2.15-2.01-2.26-.46-.11-1.79-.11-1.79-.11s-4.88-1.18-5.38-1.54c-.5-.36-5.12-1.21-5.12-1.21s-.73-.09-.67.57c.06.66.68.74.68.74s-.52.41-.46.77c.06.36.46.94 1.27.85-.09 1.29 1.69 1.49 1.69 1.49s.19 1.85 1.84 1.76c.39 1.27 1.87 1.32 1.87 1.32s.69.86 1.69.93c.58 1.44 1.84 1.04 1.84 1.04s-.09.91.49.91c-.3 1.04.82 1.18 1.24.98.11.22.49.89 1.35.47.52.77 1.36.41 1.36.41s.19.61.93.38c.74-.26-.8-5.12-.78-5.16" fill-rule="evenodd" clip-rule="evenodd" fill="#f6d628"/><path d="M25.01 18.4c-.4 0-.58-.28-.65-.41-.2.07-.86.26-1.35-.41-.18.08-.34.12-.5.12-.25 0-.59-.1-.86-.59-.11.04-.24.06-.38.06-.34 0-.64-.13-.8-.34-.14-.18-.18-.43-.11-.72a.514.514 0 0 1-.28-.15c-.19-.21-.2-.57-.19-.74-.07.01-.19.03-.33.03-.39 0-1.1-.15-1.5-1.13-.96-.02-1.65-.87-1.69-.91 0 .01-1.45-.05-1.86-1.29h-.07c-1.43 0-1.73-1.48-1.77-1.77-.29-.05-1.73-.33-1.71-1.48-.81.06-1.2-.52-1.27-.91-.05-.29.23-.6.38-.75-.2-.07-.56-.25-.6-.76-.01-.18.03-.33.13-.44.22-.24.62-.19.62-.18.19.03 4.64.85 5.15 1.22.49.35 5.31 1.51 5.36 1.53.04-.01 1.33 0 1.79.11.45.11 2.12.97 2.06 2.33-.05 1.08-.53 1.46-.81 1.59-.58.16-.76.36-.82.51-.06.14-.02.31.09.49.12.19.26.28.45.28.47 0 1-.56 1-.57.02-.02.06-.03.08-.01.03.02.04.05.02.08.01-.01.04.1.09.27.92 3.19 1.12 4.75.66 4.9-.11.02-.22.04-.33.04m-.61-.56c.01 0 .02 0 .03.01.02.01.03.02.04.04 0 .02.13.39.55.39.09 0 .19-.02.3-.05.21-.07.4-.77-.74-4.74-.03-.09-.05-.16-.06-.21-.18.17-.6.53-1.01.53-.23 0-.42-.11-.56-.34-.14-.22-.17-.42-.1-.61.1-.25.38-.44.84-.56.24-.11.72-.44.77-1.49.06-1.26-1.54-2.1-1.96-2.2-.45-.11-1.77-.11-1.78-.11-.22-.05-4.92-1.19-5.42-1.55-.39-.28-3.5-.9-5.09-1.2 0 0-.34-.04-.51.14-.08.09-.11.21-.1.36.06.6.61.68.62.68.03 0 .05.02.05.05.01.02 0 .05-.02.07-.01 0-.49.39-.43.71.06.35.43.88 1.2.79.02 0 .04 0 .05.02.01.01.02.03.02.05-.09 1.21 1.62 1.42 1.64 1.42.03 0 .05.03.06.06.01.07.19 1.71 1.65 1.71h.12c.03 0 .06.02.06.04.37 1.21 1.79 1.27 1.81 1.27.06.03.73.87 1.7.93.4.91 1 1.09 1.43 1.09.22 0 .38-.05.38-.05.02-.01.04 0 .06.01s.03.04.02.06c0 0-.05.5.16.73.07.08.15.11.26.11.02 0 .04.01.05.03.01.01.02.04.01.06-.08.28-.06.51.07.68.14.18.4.29.7.29.14 0 .28-.03.38-.07.03-.01.07 0 .08.03.28.56.71.71 1.26.44.03-.02.06-.01.08.02.21.31.49.46.85.46.25 0 .44-.08.44-.08.03-.02.04-.02.04-.02"/><path d="M21.34 9.34s1.15.13 1 1.9l-1-1.9z" fill-rule="evenodd" clip-rule="evenodd" fill="#f6d628"/><path d="M22.35 11.31c-.04 0-.07-.03-.06-.07.14-1.69-.94-1.83-.95-1.83-.04 0-.06-.04-.06-.07 0-.04.03-.07.07-.06.01 0 1.21.15 1.06 1.97 0 .03-.03.06-.06.06"/><path d="M16.98 7.51s-2.2 1.51 1.91 1.98l-1.91-1.98z" fill-rule="evenodd" clip-rule="evenodd" fill="#f6d628"/><path d="M18.9 9.55c-1.57-.18-2.42-.53-2.55-1.05-.13-.54.57-1.03.6-1.05a.065.065 0 1 1 .07.11c-.01 0-.66.46-.55.91.08.31.56.74 2.43.95.04 0 .06.04.06.07 0 .04-.03.06-.06.06"/><path d="M17.61 9.28c-.02.03-1.04 1.24.85 1.6-.89.85.79 1.13.79 1.13s-.35.89.66 1.13c-.33.93.75.88.75.88s.03 1.13 1.32 1.11c-.02.77.88.82.88.82s.27.83 1.13.58c.09.58.69.45.69.45l-7.07-7.7z" fill-rule="evenodd" clip-rule="evenodd" fill="#f6d628"/><path d="M24.54 17.07c-.11 0-.25-.02-.38-.11a.595.595 0 0 1-.23-.34c-.75.18-1.06-.44-1.13-.6-.18-.02-.87-.15-.9-.81-1.1-.02-1.28-.87-1.31-1.11-.15 0-.53-.04-.72-.29-.11-.15-.13-.36-.06-.61-.29-.08-.5-.23-.61-.44a.95.95 0 0 1-.05-.69c-.22-.05-.89-.22-1.01-.6-.05-.17.01-.35.18-.54-.56-.13-.9-.35-1.03-.66-.11-.29-.02-.64.25-1.01.02-.03.06-.05.09-.03.03.02.05.05.03.08 0 0-.01.02-.02.02-.24.33-.32.64-.23.88.11.29.46.49 1.05.6.02 0 .04.02.05.04.01.02 0 .05-.02.06-.2.19-.27.35-.23.5.1.31.74.49.98.52.02 0 .04.01.04.03.01.02.01.03 0 .06 0 0-.13.35.03.66.1.19.3.32.59.39.02 0 .03.01.04.03.01.01.01.04 0 .05-.08.24-.08.42.02.55.19.26.67.24.67.24.02 0 .03.01.05.02.01.01.02.03.02.04 0 .04.03 1.04 1.25 1.05.01 0 .03.01.05.02.01.01.02.03.02.05-.01.7.78.75.82.75.03 0 .05.02.06.04.01.03.26.77 1.05.54.02-.01.04 0 .05.01s.03.03.03.04c.02.15.09.26.19.33.18.12.43.07.43.07.04 0 .07.01.08.05.01.03-.01.07-.05.08 0 .02-.06.04-.14.04"/><path d="M24.42 17.92s.05-.8-.14-.96l.14.96z" fill-rule="evenodd" clip-rule="evenodd" fill="#f3f52c"/><path d="M24.42 17.98c-.04 0-.07-.03-.06-.07.02-.3 0-.81-.12-.91-.03-.02-.03-.06-.01-.09.02-.03.06-.03.09-.01.2.17.17.87.16 1.01 0 .05-.03.07-.06.07"/><path d="M22.99 17.48c.02-.02.38-.74.25-.86l-.25.86z" fill-rule="evenodd" clip-rule="evenodd" fill="#f3f52c"/><path d="M22.99 17.54c-.02 0-.04-.01-.05-.02-.02-.03-.02-.06 0-.08.08-.12.32-.7.26-.78-.02-.03-.02-.07 0-.09.02-.02.06-.02.09 0 .03.03.05.08.04.14 0 .24-.26.78-.3.81-.01.02-.02.02-.04.02"/><path d="M21.67 17.02l.97-.96-.97.96z" fill-rule="evenodd" clip-rule="evenodd" fill="#f3f52c"/><path d="M21.67 17.09c-.02 0-.03-.01-.05-.02-.03-.03-.02-.06 0-.09l.97-.96c.03-.03.07-.03.09 0 .02.03.02.07 0 .09l-.97.96c0 .01-.02.02-.04.02"/><path d="M20.45 16.08c.02-.02 1.48-.93 1.48-.93l-1.48.93z" fill-rule="evenodd" clip-rule="evenodd" fill="#f3f52c"/><path d="M20.45 16.15c-.02 0-.04-.01-.05-.02-.02-.03-.02-.07.01-.09.01-.01.02-.02 1.49-.93a.065.065 0 1 1 .07.11c-.57.36-1.43.89-1.47.92-.02 0-.04.01-.05.01"/><path d="M19.93 15.15c.01-.02.83-.36.86-.66l-.86.66z" fill-rule="evenodd" clip-rule="evenodd" fill="#f3f52c"/><path d="M19.95 15.21c-.02 0-.03 0-.04-.01-.03-.02-.05-.06-.02-.08.01-.01.07-.04.08-.05.62-.3.76-.48.77-.58 0-.04.03-.07.07-.06.03 0 .06.03.06.07-.03.26-.49.51-.84.68a.16.16 0 0 1-.08.03"/><path d="M18.13 14.1s1.98.42 2.32-.03l-2.32.03z" fill-rule="evenodd" clip-rule="evenodd" fill="#f6d628"/><path d="M19.63 14.35c-.64 0-1.39-.16-1.52-.18-.03-.01-.06-.04-.05-.08.01-.04.04-.05.08-.05.54.12 2 .34 2.26-.01.02-.03.06-.03.09-.01.03.02.04.06.01.09-.14.18-.48.24-.87.24"/><path d="M16.48 13.16c.08 0 2.97.31 3.23-.05l-3.23.05z" fill-rule="evenodd" clip-rule="evenodd" fill="#f6d628"/><path d="M18.63 13.35c-.5 0-1.17-.04-2.01-.11-.08-.01-.12-.01-.14-.01-.04 0-.06-.03-.06-.06 0-.04.03-.07.06-.07.01 0 .06.01.15.01 2.55.23 2.97.05 3.04-.03.02-.03.06-.04.09-.02s.03.06.01.09c-.1.13-.48.2-1.14.2"/><path d="M14.56 11.86c.05-.02 3.42.63 4.38.14l-4.38-.14z" fill-rule="evenodd" clip-rule="evenodd" fill="#f6d628"/><path d="M17.72 12.24c-1.05 0-2.36-.2-2.91-.29-.13-.02-.22-.03-.24-.03-.03.01-.06-.01-.07-.04-.01-.03.02-.07.05-.08.02-.01.02-.01.28.03 2.19.34 3.57.38 4.09.11.03-.01.07 0 .09.03.01.03 0 .07-.03.09-.28.14-.74.18-1.26.18"/><path d="M12.95 10.11c.08 0 4.49 1.07 5.15.74l-5.15-.74z" fill-rule="evenodd" clip-rule="evenodd" fill="#f6d628"/><path d="M17.64 10.98c-.95 0-2.88-.4-4.37-.73-.19-.04-.31-.07-.33-.07-.04 0-.06-.03-.06-.06s.03-.06.07-.06c.02 0 .05.01.35.07 2.81.62 4.41.85 4.76.67.03-.01.07 0 .09.03.02.03 0 .07-.03.09-.09.04-.26.06-.48.06"/><path d="M11.27 8.58c.03 0 5.26 1.22 5.92.72l-5.92-.72z" fill-rule="evenodd" clip-rule="evenodd" fill="#f6d628"/><path d="M16.49 9.48c-1.14 0-3.28-.41-5.09-.81l-.14-.03c-.03 0-.06-.03-.06-.06 0-.04.03-.06.07-.06.01 0 .01 0 .15.03 3.27.72 5.36.98 5.72.7.03-.02.07-.02.09.01.02.03.02.07-.01.09-.12.09-.38.13-.73.13"/><path d="M10.59 7.09c.02 0 5.01 1.63 5.43 1.23l-5.43-1.23z" fill-rule="evenodd" clip-rule="evenodd" fill="#f6d628"/><path d="M15.72 8.43c-.88 0-3.14-.65-5.04-1.25l-.11-.03c-.04 0-.06-.03-.06-.07 0-.03.04-.06.07-.06.01 0 .01 0 .14.04 3.61 1.14 5.08 1.37 5.25 1.2.03-.02.07-.02.09 0 .03.03.02.07 0 .09-.05.06-.17.08-.34.08"/><path d="M37.08 13.18s1.04 1.12 1.55.28c.52-.83-.72-1.07-.74-1.08-.01-.02-.72-.24-.78-1.54-.06-1.3 1.55-2.15 2.01-2.26.46-.11 1.79-.11 1.79-.11s4.88-1.18 5.38-1.54 5.12-1.21 5.12-1.21.74-.1.68.56c-.06.66-.68.74-.68.74s.52.41.46.77c-.06.36-.46.94-1.27.85.09 1.29-1.7 1.49-1.7 1.49s-.19 1.85-1.84 1.76c-.39 1.27-1.87 1.32-1.87 1.32s-.69.86-1.7.93c-.58 1.44-1.84 1.04-1.84 1.04s.09.91-.49.91c.3 1.03-.82 1.18-1.24.97-.11.22-.49.89-1.35.47-.52.77-1.36.41-1.36.41s-.19.61-.93.38c-.73-.24.81-5.11.8-5.14" fill-rule="evenodd" clip-rule="evenodd" fill="#f6d628"/><path d="M36.61 18.43c-.1 0-.22-.02-.33-.06-.47-.15-.26-1.71.66-4.91.05-.16.08-.27.08-.29-.01-.03 0-.05.03-.06.03-.02.06 0 .09.03.01.01.54.57 1 .57.19 0 .33-.09.45-.28.11-.19.14-.35.09-.49-.06-.14-.23-.34-.75-.49l-.07-.03c-.27-.13-.75-.5-.8-1.58-.07-1.36 1.6-2.22 2.06-2.32.46-.11 1.75-.11 1.8-.11.03-.01 4.86-1.18 5.35-1.53.51-.36 4.95-1.18 5.14-1.22.01 0 .41-.06.63.18.1.11.14.26.12.45-.05.51-.41.7-.6.76.15.14.43.45.38.75-.07.38-.46.97-1.27.91.02 1.15-1.42 1.43-1.71 1.48-.05.29-.35 1.77-1.77 1.77h-.07c-.42 1.25-1.9 1.32-1.91 1.32.02.01-.67.86-1.69.93-.34.94-1.05 1.09-1.44 1.09-.14 0-.26-.02-.33-.03 0 .17-.01.53-.2.74-.07.08-.17.13-.28.15.07.29.03.53-.11.72-.16.21-.46.34-.81.34-.14 0-.27-.02-.38-.06-.26.48-.61.59-.86.59-.16 0-.32-.04-.5-.12-.49.67-1.15.47-1.35.41-.07.11-.25.39-.65.39m.5-5.13c-.01.05-.03.11-.06.2-1.14 3.98-.95 4.69-.74 4.75.11.03.21.05.29.05.42 0 .54-.37.55-.39.01-.01.02-.03.03-.04.01-.01.04-.01.05 0 0 0 .19.08.44.08.36 0 .64-.16.85-.47.02-.02.05-.04.08-.02.55.27.99.11 1.26-.44.01-.03.06-.05.09-.03.1.05.24.07.38.07.3 0 .57-.11.7-.29.13-.17.15-.4.07-.68-.01-.02 0-.04.01-.06.01-.01.03-.03.05-.03.11 0 .2-.04.27-.11.21-.23.16-.72.16-.73 0-.02.01-.04.02-.06.02-.01.04-.02.06-.01 0 0 .16.05.38.05.43 0 1.03-.18 1.38-1.05 1.02-.1 1.7-.93 1.71-.94.06-.03 1.48-.09 1.86-1.3.01-.03.02-.05.07-.05h.12c1.46 0 1.65-1.63 1.65-1.7 0-.03.03-.05.06-.06.02 0 1.73-.21 1.64-1.42 0-.02.01-.04.02-.05.01-.01.03-.02.05-.02.77.08 1.14-.45 1.2-.8.05-.26-.29-.6-.43-.71-.02-.01-.03-.04-.02-.07.01-.03.03-.04.05-.05.02 0 .56-.08.62-.68.01-.15-.02-.27-.09-.35-.17-.19-.5-.15-.51-.15-1.59.29-4.7.92-5.09 1.2-.51.36-5.21 1.5-5.41 1.55-.03 0-1.35 0-1.79.11-.42.1-2.02.93-1.96 2.19.05 1.05.53 1.38.73 1.48.5.14.78.33.88.58.07.18.04.39-.1.61-.14.23-.33.34-.56.34-.42.04-.84-.33-1.02-.5"/><path d="M40.28 9.38s-1.15.13-1.01 1.9l1.01-1.9z" fill-rule="evenodd" clip-rule="evenodd" fill="#f6d628"/><path d="M39.27 11.34c-.03 0-.06-.02-.06-.06-.14-1.81 1.05-1.97 1.06-1.97.03-.01.07.02.07.06 0 .03-.02.07-.06.07-.04 0-1.08.14-.95 1.83.01.04-.02.07-.06.07z"/><path d="M44.64 7.55s2.2 1.51-1.92 1.98l1.92-1.98z" fill-rule="evenodd" clip-rule="evenodd" fill="#f6d628"/><path d="M42.73 9.59c-.03 0-.06-.02-.06-.06 0-.03.02-.07.06-.07 1.87-.21 2.35-.64 2.43-.95.11-.45-.54-.91-.54-.91a.065.065 0 1 1 .07-.11c.03.02.73.51.6 1.05-.14.52-1 .87-2.56 1.05"/><path d="M44.01 9.32c.01.03 1.04 1.24-.85 1.6.9.85-.79 1.13-.79 1.13s.35.9-.66 1.13c.33.93-.75.88-.75.88s-.03 1.13-1.32 1.11c.01.77-.88.82-.88.82s-.26.83-1.13.58c-.1.58-.69.45-.69.45l7.07-7.7z" fill-rule="evenodd" clip-rule="evenodd" fill="#f6d628"/><path d="M37.08 17.1c-.08 0-.14-.01-.15-.01-.04-.01-.06-.04-.05-.08.01-.04.04-.06.08-.05 0 0 .25.05.43-.07.1-.07.16-.18.19-.33 0-.02.01-.03.03-.05.02-.01.04-.01.05-.01.79.23 1.04-.51 1.05-.54.01-.03.03-.04.06-.04s.83-.05.82-.75c0-.01.01-.03.02-.05.01-.01.04-.01.05-.02h.03c1.18 0 1.23-1.01 1.23-1.05 0-.02.01-.03.02-.04.01-.01.03-.02.05-.01.01 0 .48.01.67-.24.1-.13.1-.32.02-.55-.01-.02 0-.04 0-.05.01-.02.02-.03.04-.03.29-.07.49-.2.59-.39.16-.3.03-.65.03-.66a.064.064 0 0 1 0-.06c.01-.02.03-.03.04-.03.24-.04.89-.21.98-.52.04-.14-.03-.31-.23-.5-.02-.01-.02-.04-.02-.06.01-.02.03-.04.05-.04.58-.11.93-.31 1.05-.6.1-.24.01-.56-.23-.88-.01-.03-.01-.08.02-.1.03-.01.06-.02.07.01.28.38.36.73.25 1.02-.12.31-.47.53-1.03.65.17.19.23.38.18.54-.12.38-.79.55-1.01.6.04.13.09.42-.05.69-.11.2-.31.34-.61.42.07.25.05.45-.06.61-.19.25-.57.29-.72.29-.03.24-.21 1.1-1.31 1.12-.03.66-.72.79-.9.81-.07.17-.38.78-1.13.6-.04.15-.11.27-.23.35-.11.08-.26.1-.37.1"/><path d="M37.2 17.95s-.05-.8.14-.96l-.14.96z" fill-rule="evenodd" clip-rule="evenodd" fill="#f3f52c"/><path d="M37.2 18.02c-.03 0-.06-.03-.06-.06-.01-.14-.04-.84.16-1.01.03-.02.07-.02.09.01.02.03.02.07-.01.09-.12.1-.14.61-.12.91.01.02-.02.06-.06.06z"/><path d="M38.63 17.51c-.02-.02-.38-.74-.25-.86l.25.86z" fill-rule="evenodd" clip-rule="evenodd" fill="#f3f52c"/><path d="M38.63 17.58c-.02 0-.04-.01-.05-.02-.01-.01-.43-.77-.25-.95.03-.03.07-.03.09 0 .03.03.03.07 0 .09-.07.07.18.65.26.78.03.03.02.06-.01.09-.01 0-.02.01-.04.01"/><path d="M39.95 17.06l-.97-.96.97.96z" fill-rule="evenodd" clip-rule="evenodd" fill="#f3f52c"/><path d="M39.95 17.12c-.02 0-.03-.01-.05-.02l-.97-.96c-.03-.03-.03-.07 0-.09.02-.03.07-.03.09 0l.97.96c.02.02.02.07 0 .09-.01.02-.02.02-.04.02"/><path d="M41.17 16.12c-.02-.02-1.48-.93-1.48-.93l1.48.93z" fill-rule="evenodd" clip-rule="evenodd" fill="#f6d628"/><path d="M41.17 16.18c-.01 0-.03 0-.04-.01-.05-.03-.9-.57-1.47-.92a.065.065 0 1 1 .07-.11c1.47.92 1.48.93 1.49.94.02.02.02.06 0 .09-.01 0-.03.01-.05.01"/><path d="M41.69 15.19c-.02-.02-.83-.36-.86-.66l.86.66z" fill-rule="evenodd" clip-rule="evenodd" fill="#f3f52c"/><path d="M41.69 15.25c-.01 0-.03 0-.04-.01-.4-.19-.86-.45-.89-.71 0-.04.02-.07.06-.07.04-.01.07.02.07.06.01.1.15.28.77.58.01 0 .07.03.07.04.03.02.03.07 0 .09-.01.02-.02.02-.04.02"/><path d="M43.5 14.14s-1.98.43-2.32-.03l2.32.03z" fill-rule="evenodd" clip-rule="evenodd" fill="#f6d628"/><path d="M41.99 14.38c-.39 0-.73-.06-.87-.24-.02-.03-.02-.07.01-.09.03-.02.07-.01.09.01.26.35 1.72.12 2.26 0 .04 0 .07.02.08.05.01.03-.01.07-.05.08-.13.04-.88.19-1.52.19"/><path d="M45.15 13.2c-.08 0-2.97.31-3.23-.05l3.23.05z" fill-rule="evenodd" clip-rule="evenodd" fill="#f6d628"/><path d="M43 13.39c-.67 0-1.04-.07-1.14-.2-.02-.03-.01-.07.01-.09.03-.02.07-.02.09.01.06.09.49.26 3.04.03.08-.01.14-.01.15-.01.04 0 .06.03.06.06s-.03.06-.06.06c-.01 0-.06.01-.13.01-.85.09-1.52.13-2.02.13"/><path d="M47.06 11.89c-.05-.02-3.42.63-4.38.14l4.38-.14z" fill-rule="evenodd" clip-rule="evenodd" fill="#f6d628"/><path d="M43.91 12.28c-.52 0-.98-.05-1.26-.19a.08.08 0 0 1-.03-.09c.02-.03.06-.05.09-.03.52.27 1.9.23 4.09-.11.25-.04.26-.04.28-.03.03.01.05.05.04.08-.01.03-.04.05-.07.04-.02 0-.11.01-.24.04-.54.09-1.85.29-2.9.29"/><path d="M48.68 10.15c-.08 0-4.49 1.07-5.15.74l5.15-.74z" fill-rule="evenodd" clip-rule="evenodd" fill="#f6d628"/><path d="M43.98 11.02c-.22 0-.38-.02-.48-.07a.08.08 0 0 1-.03-.09c.02-.03.05-.04.09-.03.35.17 1.96-.05 4.77-.67.3-.07.34-.07.36-.07.03 0 .06.03.06.06s-.03.06-.06.06-.14.03-.33.07c-1.5.34-3.43.74-4.38.74"/><path d="M50.35 8.61c-.03 0-5.26 1.22-5.92.72l5.92-.72z" fill-rule="evenodd" clip-rule="evenodd" fill="#f6d628"/><path d="M45.14 9.52c-.36 0-.62-.04-.74-.13-.03-.02-.03-.06-.01-.09.02-.03.06-.03.09-.01.37.27 2.45.02 5.73-.71.14-.03.14-.03.15-.03.04 0 .07.03.07.06s-.02.06-.06.06l-.13.03c-1.82.41-3.96.82-5.1.82"/><path d="M51.03 7.12c-.02 0-5.01 1.63-5.43 1.23l5.43-1.23z" fill-rule="evenodd" clip-rule="evenodd" fill="#f6d628"/><path d="M45.9 8.47c-.17 0-.29-.02-.35-.08-.03-.03-.03-.07 0-.09.02-.02.07-.02.09 0 .17.17 1.65-.06 5.26-1.21.12-.04.12-.04.13-.04.04 0 .07.03.07.06s-.02.06-.05.06l-.11.03c-1.9.62-4.16 1.27-5.04 1.27"/><path d="M43.08 15.08s-.31 4.39-.32 4.38c-.01-.01-.64-.77-.64-.77l-1.93 6.05.45 1.32-1.12 3.68-.93-1.17-1.5.6 1.2-3.88 1.11-.8 2-5.96-1.11.14 2.79-3.59z" fill-rule="evenodd" clip-rule="evenodd" fill="#5bcddb"/><path d="M39.53 29.86l-.99-1.25-1.54.66 1.23-3.98 1.13-.82 1.95-5.86-1.15.15 2.97-3.82-.01.17c-.31 4.42-.31 4.42-.37 4.43-.04-.02-.05-.03-.62-.71l-1.9 5.96.45 1.29-1.15 3.78zm-.97-1.34l.92 1.12 1.1-3.59-.45-1.29 1.96-6.17.06.07s.39.48.56.67c.05-.55.22-2.94.3-4.09L40.4 18.6l1.07-.13-2.03 6.04-1.13.82-1.15 3.75 1.4-.56z"/><path d="M47.34 16.89S45.01 20.62 45 20.6c-.01-.01-.21-.98-.21-.98l-3.83 3.56-4.1 3.95-.01-.81-1.4-.17 1.85-1.42.95-.16 5.98-5.42-1.04-.4 4.15-1.86z" fill-rule="evenodd" clip-rule="evenodd" fill="#5bcddb"/><path d="M36.81 27.26l-.01-.94-1.48-.14 1.95-1.49.97-.17 5.89-5.35-1.08-.41 4.41-1.98-.09.14c-2.34 3.73-2.35 3.74-2.38 3.74-.05-.03-.06-.05-.24-.93l-3.77 3.5-4.17 4.03zm-1.23-1.15l1.28.16.05.75 4.02-3.88 3.9-3.62.02.09s.12.6.18.86c.3-.46 1.57-2.49 2.18-3.47l-3.88 1.74 1.01.38-6.04 5.48-.98.17-1.74 1.34z"/><path d="M36.91 26.35l-.09-.05c.03-.05 1.18-1.05 2.14-1.87l.07.08c-.82.69-2.06 1.76-2.12 1.84"/><path d="M46.09 13.74s-1.14 4.25-1.15 4.23c-.01-.01-.48-.88-.48-.88l-4.63 7.95.19 1.38-1.66 3.04-.68-1.33-1.58.3 1.78-3.22 1.24-.57 4.68-7.85-1.11-.08 3.4-2.97z" fill-rule="evenodd" clip-rule="evenodd" fill="#5bcddb"/><path d="M38.36 29.58l-.73-1.42-1.64.35 1.83-3.32 1.26-.59 4.61-7.75-1.16-.08 3.64-3.18-.04.16c-1.14 4.26-1.15 4.26-1.19 4.27-.05-.02-.07-.03-.5-.82l-4.58 7.87.2 1.35-1.7 3.16zm-.69-1.49l.69 1.27 1.62-2.96-.2-1.35 4.68-8.06.04.08s.29.54.42.77c.15-.51.73-2.65 1.07-3.96l-3.2 2.8 1.07.07-4.72 7.92-1.26.59-1.7 3.1 1.49-.27h-.02c0-.02 0-.04 1.6-2.84l.09.05c-.43.75-1.56 2.73-1.59 2.81l-.08-.02z"/><path fill-rule="evenodd" clip-rule="evenodd" fill="#5bcddb" d="M6.29 12.94l2.79.02-.28.67 1.22 4.81 1.47-4.8-.52-.7h2.9l-.62.67-2.4 6.89.63.9H8.69l.62-.9-2.35-6.86z"/><path d="M11.57 21.45H8.59l.68-.98-2.35-6.81-.75-.77 2.99.01-.31.74 1.18 4.61 1.42-4.63-.57-.73H14l-.7.76-2.38 6.86.65.94zm-2.79-.1h2.6l-.57-.82 2.39-6.93.55-.6h-2.68l.46.62-1.52 5.03-1.26-5 .25-.64L6.41 13l.59.6 2.36 6.88-.58.87z"/><path fill-rule="evenodd" clip-rule="evenodd" fill="#5bcddb" d="M49.07 13.11h2.65l-.43.59-.01 7.01.59.66h-2.8l.56-.71-.01-6.95z"/><path d="M51.99 21.42h-3.02l.62-.79-.02-6.92-.61-.66h2.86l-.49.68v6.98l.66.71zm-2.81-.1h2.58l-.52-.57v-7.04l.38-.54h-2.43l.47.52.03 6.98-.51.65zM28.96 8.26l-.03-.1c.12-.03.44-.15.47-.31.03-.18-.6-.52-.76-.57-.14-.04-.44-.41-.49-.48l.08-.06c.14.17.36.43.44.45.07.02.88.38.83.68-.04.26-.49.38-.54.39m1.07-.86c-.49 0-.62-.57-.62-.58l-.69-.65.07-.07.65.62c.5-.11 1.1.32 1.13.33.02.03.04.1-.01.17-.06.1-.22.16-.45.18h-.08m-.53-.59c.04.12.17.54.58.49.26-.02.35-.09.38-.13.03-.04-.51-.43-.96-.36"/><path d="M24.41 27.55l.95-.79s-.21-.43-.97-.42c-.71-.5-1.93-1.67-1.93-1.67l-.61-1.66s.5-.15.61-.55c.11-.4-.03-.9-.08-.95-.05-.05-.55.08-.69.29-.15.21-.37 1.01-.71.74-.34-.27.05-.58.05-.58s.34-.42.32-.64c-.01-.22-.45-.9-.5-.92-.05-.02-.14.88-.27.98-.13.1-.31.5-.57.27-.26-.23.13-.56.13-.56s.72-.39.02-1.66c-.21.55-.61.9-.61.9s-.19.34-.37.05c-.18-.29.21-.56.21-.56s.63-.37.64-.92c.02-.55-.76-1.17-.76-1.17s-.05 1.01-.29 1.14c-.24.13-.34.34-.61.11-.27-.22.21-.72.21-.72s.84-.84.79-1.32c-.05-.48-.1-.56-.1-.56s-.63.39-.71.58c-.08.19-.34.89-.66.68-.22-.26.19-.76.19-.76s.31-.34.29-.48c-.01-.15-.26-.58-.72-1-.07-.13-.1-.64-.1-.64s-.35.42-.34.64c.01.22-.03.68.01 1.17.05.5-.39-.16-.39-.16l.08-1.61s-.61-.74-1.35-1.02c.27.4.26.79.26.79s-.31.66-.31.84c0 .18.35.95 1.01 1.47-1-1.08-2.24-.72-2.61-.93.18.21.71 1 .65 1.21-.07.21.95.64.95.64l1.08.02s.53.37.58.61c.05.24-.77-.45-1.1-.43-.32.02-1.17-.11-1.17-.11s.51.48.53.69c.02.21.24.69.55.82.31.13 1.13.18 1.13.18s.35-.21.42.02c.06.23-.47.4-.47.4s-.55 0-.72-.15c-.18-.14-.21-.38-1-.48-.08.66.43 1.34.43 1.34s2.17-.18 2.16.29c-.01.47-1.8.05-1.87-.1-.06-.15.08.92.5 1.14.42.22 1.35.11 1.47.06.11-.05.53-.1.53.15 0 .24-2.13.43-2.16.37-.03-.06.32.82 1.17.77.85-.05 1.22-.31 1.22-.31s.51-.1.56.11c.05.21-.52.3-.52.3s-1.35.03-1.4-.03c-.05-.06.31.85 1.26.84.71-.06.76-.37.9-.42.21-.05.66-.05.72-.03.06.01 1.19.8 1.19.8l2.9 2.9z" fill-rule="evenodd" clip-rule="evenodd" fill="#3b8511"/><path d="M24.41 27.6c-.01 0-.03 0-.04-.01l-2.87-2.9c-.41-.29-1.11-.77-1.17-.79-.02 0-.47-.02-.7.03-.02.01-.05.04-.09.08-.11.11-.29.3-.82.35-.5 0-.83-.23-1.01-.42-.2-.2-.3-.42-.3-.47 0-.01 0-.03.01-.04a1.2 1.2 0 0 1-.78-.39c-.18-.19-.28-.4-.28-.43 0-.03.02-.05.05-.05.03.01.04.02.12.02.58 0 1.94-.19 1.99-.33 0-.2-.37-.13-.46-.1-.07.03-.38.08-.71.08-.24 0-.58-.02-.8-.14-.4-.22-.56-1.12-.54-1.21.02 0 .1-.02.11 0 .06.07.79.28 1.33.28.16 0 .43-.02.44-.16a.09.09 0 0 0-.03-.07c-.07-.08-.32-.2-1.21-.2-.46 0-.86.03-.86.03-.07-.05-.57-.72-.49-1.39 0-.01.01-.03.02-.03.01-.01.02-.01.04-.01.65.08.8.26.93.4.03.03.06.07.09.09.13.11.54.14.69.14.11-.04.46-.19.42-.34-.04-.14-.34.01-.34.01-.06 0-.86-.04-1.17-.17-.33-.14-.56-.64-.58-.86-.01-.14-.32-.48-.51-.66-.02-.01-.02-.04-.01-.06.01-.02.03-.03.05-.03.01 0 .75.11 1.1.11h.08c.18 0 .45.16.69.31.14.08.31.18.36.18-.05-.17-.43-.47-.58-.57l-1.05-.01c-.34-.14-1.07-.48-1-.71.05-.17-.43-.91-.64-1.16a.048.048 0 0 1 0-.07c.02-.02.04-.02.06-.01.1.06.28.07.52.08.41.03.94.06 1.47.36-.31-.41-.47-.8-.47-.93 0-.18.28-.79.31-.86 0 0 0-.36-.25-.74a.064.064 0 0 1 0-.06c.01-.02.04-.03.06-.02.74.28 1.35 1 1.37 1.03l-.07 1.64c.1.14.24.29.28.29 0 0 .01-.03 0-.13-.03-.32-.02-.61-.02-.85 0-.14.01-.25 0-.33-.02-.24.31-.64.35-.68.01-.02.03-.02.06-.02.02.01.03.02.03.04.01.14.04.53.09.63.46.41.71.85.73 1.02.02.16-.25.46-.3.52-.11.13-.35.5-.19.69.02.01.05.02.08.02.21 0 .4-.47.48-.65.1-.24.68-.6.74-.64.01-.01.03-.01.04-.01.01 0 .03.01.03.02.01.01.06.11.1.59.05.5-.77 1.33-.8 1.36 0 0-.29.3-.28.52 0 .05.02.1.07.13.16.13.25.09.39-.01.05-.03.1-.07.16-.11.16-.08.24-.72.26-1.1 0-.02.01-.03.03-.04.02-.01.04-.01.05.01.03.03.79.65.78 1.22-.02.57-.64.94-.67.96-.01.01-.34.25-.19.49.11.18.25.01.28-.05.01-.02.41-.36.61-.9.01-.02.02-.03.04-.03s.04.01.05.03c.29.51.38.95.28 1.3-.09.31-.3.43-.31.43 0 0-.19.17-.19.33 0 .06.02.1.07.15.15.13.28-.02.38-.15.04-.05.08-.1.12-.13.06-.05.13-.43.17-.64.06-.3.07-.36.13-.36.11.03.54.74.55.97.02.24-.3.63-.33.68-.01.01-.18.14-.18.3 0 .08.04.15.12.21.21.17.38-.22.51-.49.05-.1.09-.19.13-.24.14-.2.55-.32.69-.32.01 0 .07.02.08.03.07.07.21.59.09 1-.1.35-.46.51-.59.56l.59 1.61c.01 0 1.22 1.16 1.91 1.65h.03c.74 0 .95.42.96.44l-.96.85c.01.01 0 .01-.01.01m-4.25-3.81c.05 0 .17 0 .21.01.07.02.87.57 1.21.81l2.84 2.87.91-.75c-.04 0-.25-.33-.89-.33-.01 0-.06 0-.07-.01-.7-.5-1.93-1.67-1.94-1.68l-.62-1.68c-.01-.01 0-.03 0-.04l.03-.03s.47-.14.58-.51c.11-.39-.03-.85-.07-.9-.13.01-.5.12-.61.28-.03.05-.07.13-.12.23-.15.33-.4.74-.67.53-.11-.09-.16-.18-.16-.29 0-.2.2-.36.21-.37.08-.1.31-.43.3-.6-.01-.19-.36-.74-.45-.86.02.05 0 .16-.02.26-.07.36-.13.63-.21.69-.03.02-.06.06-.1.11-.13.16-.33.34-.53.16a.295.295 0 0 1-.11-.22c0-.21.23-.41.24-.42.01-.01.2-.11.27-.38.09-.3.01-.67-.22-1.12-.22.49-.57.81-.58.82 0 .01-.1.18-.25.18-.08 0-.14-.05-.2-.14-.16-.26.08-.53.22-.63.01-.01.61-.36.62-.88.01-.42-.47-.89-.66-1.07-.02.28-.09.96-.31 1.08-.06.03-.11.07-.15.1-.15.11-.31.18-.52.01a.261.261 0 0 1-.1-.2c-.01-.26.29-.58.31-.6.01-.01.82-.82.77-1.28-.03-.28-.06-.43-.07-.49-.2.13-.58.39-.63.52-.13.31-.42.91-.74.7-.26-.3.16-.81.18-.83.12-.14.29-.36.28-.44-.01-.12-.24-.54-.71-.96-.06-.11-.09-.38-.1-.55-.11.15-.26.38-.25.51.01.08 0 .2 0 .34-.01.23-.01.52.02.84.01.11 0 .18-.03.21a.15.15 0 0 1-.07.03c-.12 0-.31-.26-.38-.37l.07-1.64c-.02 0-.53-.61-1.17-.9.19.36.18.67.18.68-.09.2-.3.7-.3.83s.23.66.67 1.13c.11.08.22.18.33.3.02.02.02.05 0 .07-.02.02-.05.02-.07.01-.12-.09-.23-.2-.33-.31-.6-.45-1.24-.5-1.71-.53-.15-.01-.29-.02-.39-.04.21.29.62.91.55 1.12-.03.09.4.36.92.58l1.06.01c.08.05.58.4.63.65 0 .02-.01.07-.01.08-.06.07-.22-.02-.48-.17-.22-.13-.49-.29-.64-.29l-.08-.05v.05c-.26 0-.72-.06-.96-.09.16.16.42.45.44.61.02.2.24.66.52.78.29.12 1.06.17 1.11.17-.01-.01.14-.09.27-.09.1 0 .17.05.2.14.08.26-.44.44-.5.47-.04.01-.58 0-.77-.15-.04-.03-.07-.07-.1-.1-.12-.13-.25-.28-.81-.36-.04.59.39 1.19.43 1.24.01-.02.4-.05.83-.05.71 0 1.14.08 1.29.23.04.04.06.09.06.15-.01.17-.19.26-.54.26-.43 0-1.09-.14-1.33-.27.04.24.19.85.48 1 .2.11.52.13.75.13.34 0 .63-.04.67-.07.05-.02.15-.04.26-.04.22 0 .34.09.34.24 0 .31-1.95.43-2.1.43h-.04c.1.15.42.66 1.04.66.89-.05 1.26-.29 1.26-.3.02-.01.14-.03.28-.03.22 0 .34.06.37.18.01.04 0 .09-.03.13-.11.16-.49.23-.53.24-.01 0-.35.01-.69.01-.37 0-.56-.01-.65-.02.1.16.44.71 1.16.71.51-.04.67-.21.78-.31.04-.04.08-.08.14-.1.08-.03.31-.04.48-.04m-2.57-.36c.1.01.27.02.6.02.34 0 .68-.01.68-.01.1-.02.39-.09.46-.19-.01-.13-.16-.15-.25-.15-.12 0-.24.02-.24.02s-.37.26-1.23.31h-.02z"/><path d="M24.39 27.59c-.02 0-.03-.01-.04-.02-.23-.36-.31-.67-.24-.91s.27-.33.28-.34c.03-.01.06 0 .07.03.01.03 0 .06-.03.07-.01 0-.16.08-.22.28-.06.22.01.49.22.82.01.02.01.06-.01.07h-.03m-5.77-3.61c-.3 0-.43-.12-.44-.12a.048.048 0 0 1 0-.07c.02-.02.05-.02.07-.01 0 0 .31.26 1.06-.07.03-.01.06 0 .07.02.01.03 0 .06-.03.07-.31.14-.55.18-.73.18m-.82-.97c-.23 0-.38-.06-.45-.09-.03 0-.07-.03-.07-.06s.01-.06.04-.06c.01 0 .07.02.07.02.13.06.54.23 1.34-.19.03-.01.06 0 .07.02.01.02 0 .06-.02.07-.42.22-.74.29-.98.29m3.22-.01c-.06 0-.11-.01-.18-.02-.03-.01-.05-.03-.04-.06 0-.03.03-.04.06-.04.76.13 1.07-.73 1.09-.77.01-.03.04-.04.07-.03.03.01.04.04.03.06-.01.01-.3.86-1.03.86m-.59-.87c-.03 0-.05-.02-.05-.05 0-.03.02-.05.05-.05.37-.01.53-.76.53-.76.01-.03.03-.04.06-.04.03.01.05.03.04.06 0 .03-.17.82-.63.84zm-3-.29c-.61 0-.86-.31-.87-.33-.02-.02-.01-.06.01-.07.02-.02.05-.01.07.01.01.02.38.47 1.35.21.03 0 .06.01.06.04.01.03-.01.06-.03.06-.23.06-.42.08-.59.08m2.1-.82c-.02 0-.05-.02-.05-.04-.01-.03.01-.06.04-.06.32-.06.47-.52.47-.58 0-.03.01-.07.05-.05.03 0 .05.02.05.05.01.08-.16.61-.56.68zm-2.65-.58c-.72 0-1.1-.4-1.12-.42a.048.048 0 0 1 0-.07c.02-.02.05-.02.07 0 0 0 .48.49 1.32.37.03 0 .05.02.06.05 0 .03-.01.05-.04.06-.1.01-.2.01-.29.01m1.94-.69c-.03 0-.07-.02-.07-.05 0-.03.03-.08.05-.05.22 0 .37-.05.48-.17.2-.21.18-.56.17-.67l.05-.03.05.03c.01.13.03.5-.2.75-.13.12-.31.19-.53.19m-1.8-.68c-.5 0-1.43-.58-1.47-.61-.02-.01-.03-.05-.02-.07.01-.02.05-.03.07-.02.01.01 1.01.62 1.46.59.03 0 .05.02.06.04 0 .03-.02.06-.05.06-.01.01-.03.01-.05.01m1.06-1.06h-.05c-.03 0-.05-.03-.05-.05 0-.03 0-.04.05-.05.58.02.83-.56.84-.57.01-.02.04-.04.07-.03.03.01.04.04.03.07 0 0-.27.63-.89.63m-1.69-.55c-.54 0-.94-.12-1.17-.37-.23-.24-.21-.5-.21-.51 0-.03.03-.04.05-.05.03 0 .05.02.05.05 0 .01-.01.24.19.44.23.24.67.35 1.26.33.02-.01.05.02.05.05 0 .03-.02.05-.05.05-.06.01-.11.01-.17.01m.99-.27c-.02 0-.04-.01-.05-.03-.01-.03.01-.06.03-.07.24-.08.39-.2.44-.37.1-.29-.11-.63-.12-.63-.01-.02-.01-.06.01-.07.02-.01.06-.01.07.01.01.01.25.38.13.72-.07.2-.24.34-.51.43.01 0 0 .01 0 .01m-.54-.29c-.01 0-.02 0-.03-.01-.79-.48-.77-1.99-.77-2.06 0-.03.03-.04.05-.05.03 0 .05.02.05.05 0 .01-.02 1.52.71 1.97.03.02.03.05.02.07.01.02-.01.03-.03.03"/><path d="M36.23 18.46s.63.61.64.73c.01.13.17.72.33.81.16.09.81.6.9.81.09.2.66 1.06.66 1.06s.53 1.09.88 1.18c.35.09 1.35-.06 1.55.42.2.48.15 1.18.15 1.18s-.24.21-.35.09c-.12-.13-.32.63-.67.42-.48-1.03-1.74-.86-1.74-.86s.28-.43-.85-.81c-1.76.3-2.28-1.53-2.28-1.53l-1-.87 1.78-2.63z" fill-rule="evenodd" clip-rule="evenodd" fill="#f6d628"/><path d="M40.45 25.23c-.05 0-.1-.01-.15-.04-.36-.75-1.11-.86-1.52-.86-.12 0-.19.01-.19.01l-.11.01.06-.09s.05-.08.01-.19c-.05-.14-.24-.35-.83-.55-.11.03-.24.04-.36.04-1.47 0-1.94-1.59-1.94-1.6l-.98-.84 1.8-2.74.04.04c.15.14.65.63.66.77.01.15.17.7.3.77.16.08.82.61.92.83.09.2.65 1.05.65 1.06.15.3.58 1.09.85 1.15.1.02.24.03.42.03.45.02 1.02.04 1.17.41.21.49.16 1.17.16 1.2-.05.07-.33.25-.44.12-.01.01-.06.09-.1.14-.11.14-.24.33-.42.33m-.08-.11c.02 0 .05.01.08.01.13 0 .24-.16.32-.29.07-.11.12-.18.19-.18l.07.03c.14.02.24-.06.28-.09-.01 0 .03-.66-.17-1.12-.13-.31-.66-.33-1.08-.35-.18-.01-.33-.01-.44-.04-.37-.09-.86-1.09-.92-1.2-.02-.03-.57-.86-.66-1.06-.08-.19-.71-.7-.88-.78-.2-.11-.35-.75-.35-.85-.01-.07-.3-.39-.58-.66l-1.74 2.57.99.8c.02.05.55 1.81 2.23 1.52.53.17.83.38.92.61.03.08.02.14.01.19.28-.02 1.29-.03 1.73.89z"/><path fill-rule="evenodd" clip-rule="evenodd" fill="#f6d628" d="M35.21 21.06l.79.37-.07-.67z"/><path d="M36.06 21.51l-.87-.4.05-.1.7.33-.06-.58.11-.01z"/><path fill-rule="evenodd" clip-rule="evenodd" fill="#f6d628" d="M36.33 20.96l.72.35-.29-.58z"/><path d="M37.16 21.43l-.86-.42.05-.1.58.29-.22-.44.09-.05z"/><path fill-rule="evenodd" clip-rule="evenodd" fill="#f6d628" d="M36.29 20.01l.71.38-.33-.73z"/><path d="M37.1 20.51l-.84-.45.05-.09.58.31-.27-.6.09-.04z"/><path d="M37.41 23.49s-.81-1.06-.8-1.06c.01 0 1.38.26 1.38.26l-.5-1.09 1.25.33-1.33 1.56z" fill-rule="evenodd" clip-rule="evenodd" fill="#f6d628"/><path d="M37.37 23.52c-.82-1.08-.82-1.08-.8-1.12.05-.03.06-.03 1.33.22l-.51-1.09 1.36.35-.03.1-1.14-.3.5 1.08-.1-.02s-.92-.18-1.25-.24l.72.96-.08.06z"/><path d="M39.74 23.65s.8.18.77 1.5l-.77-1.5z" fill-rule="evenodd" clip-rule="evenodd" fill="#f6d628"/><path d="M40.56 25.16h-.1c.03-1.27-.7-1.44-.73-1.45l.02-.1c.03 0 .84.19.81 1.55"/><path d="M40.16 23.45s.86-.05.81 1.29l-.81-1.29z" fill-rule="evenodd" clip-rule="evenodd" fill="#f6d628"/><path d="M41.02 24.74h-.1c.02-.48-.08-.83-.29-1.04-.21-.21-.46-.19-.46-.2l-.01-.1c.02 0 .3-.01.54.22.23.23.34.61.32 1.12"/><path d="M25.33 18.62s-.63.61-.65.73c-.01.13-.27.64-.43.73-.16.09-.73.66-.82.86-.09.2-.63 1.09-.63 1.09s-.62.9-.98.99c-.43.04-1.26.12-1.46.6-.2.48.11 1.22.35 1.22.35.16.52.32.63.19.19.06.08.22.44.01-.27-.35-.24-.68.03-.77.27-.09.71.32.71.32s.16-.74 1.28-1.13c1.76.3 2.23-1.11 2.35-1.45.28-.38.71-.48 1.06-.71l-1.88-2.68z" fill-rule="evenodd" clip-rule="evenodd" fill="#f6d628"/><path d="M21.53 25.2c-.05 0-.09-.03-.11-.06a.289.289 0 0 0-.1-.06c.01.02-.03.05-.08.05-.08 0-.17-.05-.29-.11-.07-.04-.16-.08-.26-.13-.06 0-.15-.06-.23-.18-.18-.27-.28-.76-.14-1.1.22-.53 1.12-.6 1.51-.63.26-.07.77-.72.94-.97 0-.01.54-.88.63-1.08.1-.22.67-.8.84-.89.14-.08.39-.57.41-.69.01-.13.51-.62.66-.76l.04-.04 1.94 2.77-.04.03c-.12.08-.25.15-.38.21-.25.13-.49.25-.67.49-.36 1.01-1.01 1.51-1.92 1.51-.15 0-.31-.01-.48-.04-1.06.36-1.22 1.08-1.23 1.08l-.02.09-.07-.06s-.34-.32-.59-.32c-.15.04-.21.1-.24.18-.04.14.02.33.16.52l.04.05-.05.03c-.14.08-.21.11-.27.11m-.18-.21c.07.02.11.06.14.08l.04.03c.03 0 .08-.02.17-.07-.14-.2-.2-.4-.15-.57.03-.11.12-.2.24-.23.21-.08.56.16.7.28.07-.21.36-.77 1.29-1.08.19.03.34.04.49.04 1.31 0 1.7-1.08 1.82-1.44.21-.3.47-.43.72-.56.11-.06.22-.11.32-.18l-1.81-2.59c-.28.27-.58.59-.59.66-.01.13-.28.67-.46.77-.15.08-.71.64-.8.84-.09.2-.61 1.06-.63 1.09-.03.04-.64.92-1.01 1.02-.37.03-1.23.1-1.43.57-.13.31-.04.75.13 1 .06.09.12.14.17.14.13.05.21.1.29.14.11.06.19.1.24.1l.02-.03.1-.01z"/><path d="M21.28 25.07c-.02 0-.04-.01-.05-.03-.13-.42-.12-.76.04-1.03.2-.34.57-.41.59-.41.03-.01.06.01.06.04s-.01.06-.04.06c0 0-.34.07-.52.37-.14.24-.15.55-.03.94.01.03-.01.06-.03.06h-.02m2.89-1.53c-.01 0-.01 0-.02-.01-.03-.01-.04-.04-.02-.07.09-.18.42-.6.61-.85a.18.18 0 0 0 .05-.07c-.32.07-1.16.24-1.16.24-.02 0-.04 0-.05-.02-.01-.01-.02-.03-.01-.05l.38-.99-1.02.2c-.03 0-.06-.01-.06-.04s.01-.05.04-.06l1.11-.22c.02 0 .04 0 .05.02.01.01.01.03.01.05l-.38.98c1.19-.25 1.2-.25 1.2-.25.06.06.06.06-.09.26-.18.23-.52.67-.6.83 0 .04-.02.05-.04.05m1.39-1.99c-.01 0-.02 0-.03-.01-.02-.01-.03-.03-.02-.05l.06-.58c0-.03.03-.05.06-.05s.05.03.04.06l-.05.48.73-.39c.02-.01.06 0 .07.02.01.03 0 .06-.02.07l-.81.43c-.02.02-.02.02-.03.02m-1.04-.19c-.01 0-.03-.01-.04-.02-.02-.01-.02-.04-.01-.06l.35-.6c.01-.02.05-.03.07-.02.02.01.03.04.02.07l-.27.46.62-.28c.03-.01.06 0 .07.02.01.03 0 .06-.03.07l-.77.35c.01.01 0 .01-.01.01m.13-1c-.01 0-.03 0-.04-.02-.01-.01-.02-.04-.01-.06l.24-.49c.01-.03.04-.04.07-.03s.04.04.02.07l-.18.36.54-.23c.02-.01.06 0 .07.03.01.03 0 .06-.03.07l-.66.28c-.01.02-.01.02-.02.02M20.71 24.84c-.13-.46-.1-.82.08-1.07.24-.32.64-.33.65-.33v.1s-.37.02-.57.29c-.17.22-.19.56-.07.99l-.09.02zM35.18 25.71c-.03 0-.06-.02-.06-.05 0-.02-.57-2.19-2.44-2.03-.04 0-.06-.02-.07-.06-.01-.03.02-.07.05-.07.18-.04.31-.13.38-.26.15-.29-.01-.69-.01-.7l.06-.02-.01-.07c.02 0 .09-.01.14.34.04.32-.04.56-.23.71 1.73.1 2.25 2.11 2.25 2.13.01.03-.01.07-.05.08h-.01"/><path d="M29.84 28.91c-.03 0-.05-.02-.05-.05-.01-.15-.16-3.59.58-4.18.04-.04.09-.06.13-.07a.234.234 0 0 1-.07-.07c-.01.01-.03.02-.05 0-.02-.01-.05-.02-.07-.04a.341.341 0 0 0-.28 0c-.79.39-1.14 3.73-1.15 3.76 0 .03-.03.05-.06.04s-.05-.03-.05-.06c.01-.14.36-3.43 1.21-3.84.05-.02.1-.04.15-.04a.742.742 0 0 1-.16-.2c-.01.01-.02.01-.03.01h-.02l-.01.01c-.05.04-1.67 1.57-1.93 3.33 0 .03-.03.04-.06.05-.03 0-.05-.03-.04-.06.23-1.6 1.57-3.04 1.92-3.35a.866.866 0 0 1-.24-.1c-.24.15-2.09 1.4-2.23 2.95 0 .03-.02.05-.06.05-.03 0-.05-.03-.05-.06.13-1.53 1.85-2.76 2.25-3.01-.04-.04-.07-.07-.09-.12-.01.01-.03.01-.04.01a.52.52 0 0 1-.23-.07c-.02.01-2.33 1.37-2.23 2.57 0 .03-.02.05-.05.06-.03 0-.05-.02-.06-.05-.1-1.2 1.96-2.48 2.25-2.65l-.02-.02c-.02-.02-.03-.05-.05-.07-.01.01-.03.02-.04.01a.594.594 0 0 1-.38-.15c-.01 0-.01 0-.02.01-.02 0-1.73.35-2.15 2.18-.01.03-.04.05-.06.04-.03-.01-.05-.03-.04-.06.4-1.76 1.96-2.19 2.2-2.25-.17-.27-.11-.71-.08-.89 0-.06.1-.06.1 0v.02c-.04.18-.1.61.09.85.08.1.19.15.33.15-.04-.13-.07-.33-.01-.63 0-.06.11-.07.11-.01v.03c-.07.41 0 .62.08.71.06.08.14.12.25.12-.1-.29.03-.62.04-.63.01-.03.04-.03.07-.03.03.01.04.04.03.07 0 0-.15.37 0 .64.03.05.06.09.11.12.01 0 .01.01.02.01.08.06.18.1.31.12-.13-.3-.06-.59-.06-.6.01-.03.04-.05.06-.04.03.01.04.03.04.06-.01.03-.14.59.41.91-.12-.28 0-.64.01-.66.01-.03.04-.04.07-.03.03.01.04.04.03.06 0 0-.12.38.01.62.05.09.14.16.25.19h.01c.01 0 .01.01.02.01 0-.01.01-.01.02-.02.03-.02.06-.03.09-.04.44-.22.29-.78.29-.81-.01-.03.01-.06.04-.06.03-.01.06.01.06.03 0 .01.13.52-.19.82.05.01.09.03.13.05.78.5.62 4.12.62 4.27 0 .03-.03.06-.05.05-.03 0-.05-.03-.05-.05 0-.04.16-3.72-.57-4.18a.253.253 0 0 0-.24-.03c-.03.01-.06.03-.09.04-.02.01-.04 0-.05-.01-.01.02-.04.03-.06.02h-.01c-.1-.02-.18-.01-.26.06-.7.56-.54 4.06-.54 4.1-.01.06-.03.08-.06.08zm2.99-.66c-.03 0-.05-.02-.05-.04 0-.04-.38-3.71-1.46-3.82-.02 0-.04-.02-.05-.05 0-.02.01-.05.04-.06.15-.05.25-.13.3-.24.09-.22-.05-.5-.05-.51-.01-.03 0-.06.02-.07.03-.01.06 0 .07.02.01.01.16.31.06.57l.02.02s.01-.01.02-.01.03-.01.04-.01c.43-.12.42-.61.37-.9 0-.06.1-.08.1-.03.04.25.03.47-.02.63.51-.31.36-.91.35-.92-.01-.03.01-.06.04-.06.03-.01.06.01.06.04 0 .01.15.61-.32.97 1.96.5 2.43 2.56 2.44 2.58.01.03-.01.06-.04.06-.03.01-.06-.01-.06-.04-.01-.02-.49-2.1-2.48-2.53-.01 0-.03-.01-.03-.02-.04.08-.09.15-.16.2 1.2.13 2.31 2.81 2.36 2.94.01.03 0 .06-.03.07-.03.01-.06 0-.07-.03-.01-.03-1.3-3.11-2.49-2.86.42.43 1.94 2.06 1.93 3.33 0 .03-.02.05-.05.05-.03 0-.05-.02-.05-.05.01-1.33-1.78-3.13-1.98-3.34-.04.07-.1.12-.18.16 1.05.41 1.39 3.73 1.4 3.88 0 .05-.02.07-.05.07z"/><path d="M30.78 23.96l-.02-.01c-4.9-2.24-7.47-7.65-5.99-12.59l.02-.06.06.03c.02.01 1.61.88 2.79.88h.09c1.19-.05 3.01-.83 3.02-.83.06.01 1.67.91 2.96.78 1.29-.12 3.11-.83 3.13-.83l.06-.02.01.06c1.08 5.4-1.32 10.34-6.11 12.58l-.02.01zm-5.93-12.5c-1.43 4.87 1.11 10.18 5.93 12.39 4.72-2.22 7.09-7.08 6.05-12.4-.32.12-1.92.71-3.1.82-1.31.13-2.95-.78-2.97-.79.02.01-1.81.79-3.02.84h-.1c-1.09 0-2.49-.7-2.79-.86"/><path d="M24.82 11.38s1.7.94 2.91.89c1.22-.05 3.04-.84 3.04-.84s1.62.91 2.94.79 3.14-.84 3.14-.84c1.09 5.44-1.4 10.33-6.08 12.53-4.97-2.28-7.38-7.74-5.95-12.53" fill-rule="evenodd" clip-rule="evenodd" fill="#b30c40"/><path d="M30.78 23.98l-.03-.01c-4.9-2.24-7.48-7.66-5.99-12.6l.02-.08.07.04c.02.01 1.61.88 2.79.88h.09c1.19-.05 3-.82 3.02-.83.08.01 1.68.9 2.96.78 1.29-.12 3.11-.83 3.13-.83l.07-.03.01.08c1.08 5.4-1.32 10.35-6.12 12.59l-.02.01zm-5.92-12.51c-1.42 4.86 1.12 10.15 5.92 12.36 4.7-2.22 7.07-7.06 6.04-12.37-.35.13-1.93.7-3.09.81-1.33.13-2.92-.76-2.98-.79-.02.03-1.79.79-3.01.84h-.1c-1.08.02-2.45-.67-2.78-.85"/><path d="M24.82 11.38s.42.24 1 .46c.58.23 1.31.45 1.91.43 1.22-.05 3.04-.84 3.04-.84s1.62.91 2.94.79 3.14-.84 3.14-.84c.27 1.58.4 2.39.16 3.96l-12.55-.07c-.14-1.57-.13-2.2.36-3.89" fill-rule="evenodd" clip-rule="evenodd" fill="#1c2a7d"/><path d="M37.08 15.4h-.06l-12.6-.07-.01-.06c-.17-1.62-.14-2.25.34-3.91l.02-.08.07.04s.43.24.99.46c.7.27 1.32.42 1.79.42h.09c1.19-.05 3-.82 3.02-.83.08.01 1.68.9 2.96.78 1.29-.12 3.11-.83 3.13-.83l.07-.03.01.08c.27 1.59.4 2.39.17 3.97l.01.06zm-12.54-.2l12.43.07c.22-1.5.09-2.29-.16-3.8-.36.13-1.93.7-3.09.81-1.33.13-2.92-.76-2.98-.79-.02.04-1.79.8-3.01.85h-.1c-.5 0-1.12-.14-1.84-.43a8.75 8.75 0 0 1-.94-.43c-.44 1.56-.46 2.19-.31 3.72"/><path fill-rule="evenodd" clip-rule="evenodd" fill="#fff" d="M25.27 15.32l-.01 2.97.83 1.48-.01-4.45zM27.35 15.33l.01 6.12.81.74-.01-6.86zM29.38 15.36v7.78l.82.45v-8.23zM36.4 15.39l.02 2.54-.77 1.56-.06-4.1zM34.39 15.37l-.02 5.9-.8.75.01-6.65zM32.28 15.37l.01 7.68-.83.51.01-8.19z"/><path d="M30.78 23.96l-.02-.01c-4.9-2.24-7.47-7.65-5.99-12.59l.02-.06.06.03c.02.01 1.61.88 2.79.88h.09c1.19-.05 3.01-.83 3.02-.83.06.01 1.67.91 2.96.78 1.29-.12 3.11-.83 3.13-.83l.06-.02.01.06c1.08 5.4-1.32 10.34-6.11 12.58l-.02.01zm-5.93-12.5c-1.43 4.87 1.11 10.18 5.93 12.39 4.72-2.22 7.09-7.08 6.05-12.4-.32.12-1.92.71-3.1.82-1.31.13-2.95-.78-2.97-.79.02.01-1.81.79-3.02.84h-.1c-1.09 0-2.49-.7-2.79-.86"/></svg>