<svg xmlns="http://www.w3.org/2000/svg" viewBox="0 0 58.92 34.37"><path fill="#c0003b" d="M0 0h58.92v17.19H0z"/><path fill="#3d9546" d="M0 17.19h58.92v17.19H0z"/><path d="M0 0v34.37l33.34-17.18z"/><path d="M0 14.11h58.92v6.15H0z"/><path fill="#f5cd28" d="M0 31.93l28.6-14.74L0 2.44z"/><path fill="#f5cd28" d="M0 16.28h58.92v1.81H0z"/><path d="M0 29.89l24.65-12.7L0 4.48z"/><path d="M6.96 20.47v1.96c1.7 0 5.05-1.31 5.05-5.51 0-4.2-3.57-4.98-4.63-4.98-1.07 0-4.36.76-4.36 4.2 0 3.44 3.23 3.76 3.87 3.76.64 0 3.02-.57 2.75-3.15 0 .73-.83 2.28-2.56 2.28-1.74 0-2.82-1.29-2.82-2.57 0-1.27 1.05-2.98 2.88-2.98 1.83 0 3.17 1.62 3.17 3.26 0 1.65-1.29 3.73-3.35 3.73" fill="#f3cd2d"/><path d="M5.47 17.93l.1.06s.81-1.84 2.97-3.15c-.27.15-1.72.87-3.07 3.09" fill="#f3cd2d"/><path d="M5.59 18.03l-.13-.08c.59-1.02 1.6-2.34 3.04-3.11-.43.25-.82.55-1.17.87.34-.3.73-.59 1.17-.87l.06.03C6.43 16.16 5.61 17.98 5.6 18l-.01.03zm.65-1.16c-.3.38-.54.74-.75 1.07l.06.02c.05-.11.27-.54.69-1.09" fill="#f3cd2d"/><path d="M5.68 17.61s-.25-.51-.03-.74c.22-.23.12.6.12.6l.1-.14s-.15-.63.02-.76c.17-.13.08.6.08.6l.1-.13s-.11-.61.05-.72c.16-.11.06.57.06.57l.12-.14s-.09-.58.11-.72.02.55.02.55l.13-.14s-.06-.53.11-.65c.17-.12.02.5.02.5l.12-.13s-.04-.5.13-.61c.16-.11.01.47.01.47l.13-.12s-.03-.5.17-.59c.2-.1-.04.47-.04.47l.14-.12s.04-.58.22-.63c.17-.05-.08.51-.08.51l.13-.1s.07-.5.26-.56c.19-.06-.12.45-.12.45l.13-.1s.14-.5.32-.55c.18-.06-.18.46-.18.46l.12-.08s.2-.45.36-.48c.16-.03-.18.37-.18.37l.15-.09s.26-.47.35-.32c.09.14-.36.35-.36.35l-.18.11s.54-.25.61-.12c.06.13-.75.21-.75.21l-.13.09s.54-.15.48-.01c-.07.14-.6.11-.6.11l-.13.09s.54-.13.47-.01c-.07.13-.6.11-.6.11l-.13.11s.53-.14.45.02c-.08.16-.68.15-.68.15l-.14.15s.56-.19.51-.04c-.05.15-.69.23-.69.23l-.14.14s.6-.2.42-.02c-.18.18-.62.23-.62.23l-.17.21s.6-.36.51-.16c-.08.2-.67.34-.67.34l-.12.14s.54-.31.48-.14c-.05.17-.63.36-.63.36l-.1.13s.63-.38.58-.19c-.05.19-.66.33-.66.33l-.05.14s.59-.33.59-.17c.01.16-.69.32-.69.32l-.01-.14z" fill="#f3cd2d"/><path d="M8.91 17.93l-.1.06S8 16.15 5.84 14.84c.27.15 1.72.87 3.07 3.09" fill="#f3cd2d"/><path d="M8.79 18.03L8.78 18c-.01-.02-.83-1.85-2.96-3.13l.02-.01-.01-.01.02-.03c.01.01.02.01.03.02 1.45.78 2.46 2.1 3.05 3.07l-.14.12zm-.85-1.41c.54.65.81 1.19.88 1.32l.07-.05c-.25-.37-.56-.82-.95-1.27" fill="#f3cd2d"/><path d="M8.7 17.61s.25-.51.03-.74c-.22-.23-.12.6-.12.6l-.1-.14s.15-.63-.02-.76c-.17-.13-.08.6-.08.6l-.1-.13s.11-.61-.05-.72c-.16-.11-.06.58-.06.58l-.12-.14s.09-.58-.11-.72-.02.55-.02.55l-.13-.14s.06-.53-.11-.65c-.17-.12-.02.5-.02.5l-.12-.13s.04-.5-.13-.61c-.16-.11-.01.47-.01.47l-.13-.11s.03-.5-.17-.59c-.2-.1.04.47.04.47l-.14-.12s-.04-.58-.21-.63c-.17-.05.08.51.08.51l-.13-.1s-.07-.5-.26-.56c-.19-.06.12.45.12.45l-.13-.1s-.14-.5-.32-.55c-.18-.06.19.46.19.46l-.12-.08s-.2-.45-.36-.48c-.16-.03.18.37.18.37l-.15-.09s-.26-.47-.35-.32c-.09.14.36.35.36.35l.15.09s-.54-.25-.61-.12c-.07.13.75.21.75.21l.13.09s-.54-.15-.48-.01c.06.14.6.11.6.11l.12.09s-.54-.13-.47-.01c.07.13.6.11.6.11l.13.11s-.53-.14-.45.02c.08.16.68.15.68.15l.15.14s-.56-.19-.51-.04c.05.15.69.23.69.23l.14.14s-.6-.2-.42-.02c.18.18.61.23.61.23l.17.21s-.6-.36-.51-.16c.08.2.67.34.67.34l.12.14s-.54-.31-.48-.14c.05.17.63.36.63.36l.09.13s-.63-.38-.58-.19c.05.19.66.33.66.33l.08.12s-.58-.33-.59-.17c-.01.16.69.32.69.32l.01-.11z" fill="#f3cd2d"/></svg>