<svg xmlns="http://www.w3.org/2000/svg" viewBox="0 0 58.92 34.37"><path fill="#2a4c9e" d="M0 0h58.92v34.37H0z"/><path d="M29.72 10.89c.2.23.33.47.33.75-.17.08-.4.12-.54.27.84-.12 1.01.86 1.95.49.03.14.17.25.34.2l.1-.27c.37-.1.27.5.67.38.2.17.07.45.2.66 0 .23.1.44.2.64.1-.12.17-.29.4-.23.17.18.3.35.34.55-.07.39-.17.72.23.92v.12c.27.12.87-.12.87.35-.04.17.17.02.23.12.17-.07.4-.03.6-.03.17.35-.2.61-.3.92.17.17.1.47.07.67l-.1.05c.27.05.61-.03.84.12l.44.17c.2-.12.43-.13.7-.12.2.15-.07.4.1.52.24 0 .44.04.47.24l.04.07c.17-.3.64-.1.84-.32.34 0 .4.37.57.57.07.52-.57.76-.37 1.28-.14.25-.4.45-.6.69.07.03.03.12.03.17-.2.12-.03.47-.3.5-.03.22-.43.13-.3.37.27.35-.13.57-.13.89-.17.19-.5-.17-.5.19-.2.05-.4-.19-.54.02-.07.24.13.32.1.55.33-.03.44.3.57.5l.34.34c-.34.27-.77-.04-1.17.11-.1-.05 0-.18-.1-.23-.1-.12-.3-.12-.47-.15.03.15-.27.2-.14.39 0 .05.07.2-.07.2-.27.09-.23-.23-.47-.11-.3.11-.07.57-.5.52.07.4-.67.67-.17 1.02.07.07.03.2.03.3-.3.27-.84.17-1.17.07-.27-.07-.1-.41-.2-.59-.1-.17-.4-.29-.4-.52-.2-.08-.37-.14-.51-.3-.47.45-1.04.89-1.71.91-.3.15-.47.76-.94.51-.18.3-.74 0-.77.43-.22.09-.12.37-.25.5-.05.34 0 .62.28.82.12.25-.25.25-.1.49.03.08 0 .2-.05.24-.1.05-.13.1-.1.2-.09 0-.12.05-.18.11-.08.17-.35.25-.54.37-.18.05-.32-.08-.44-.2-.04.18-.19.29-.37.29-.27 0-.22-.23-.42-.34.08-.3-.19-.43-.1-.7.22-.17.59-.29.49-.64-.24-.28-.15-.7-.39-1.04-.15-.13-.4-.33-.32-.65.22-.25 0-.56-.12-.82-.05-.22-.18-.42-.18-.67-.37-.22-.39-.79-.91-.84-.37 0-.44-.47-.81-.44-.04-.07-.12-.12-.19-.18-.27.18-.6-.05-.94.03-.22-.37.18-.87-.4-1.09v-.23c.07.03.1-.03.12-.07.03-.25-.42-.28-.24-.57-.1-.09-.22-.12-.15-.29-.25-.52-1.01-.47-1.18-.99.14-.11.14-.23.19-.34-.12-.2-.15-.42-.12-.64.12-.03.18-.18.25-.3-.15-.1-.34-.25-.5-.2-.3-.05-.52-.29-.79-.42-.07-.07-.03-.18-.03-.27.37-.12-.05-.64.4-.57.12-.15.37-.2.55-.32.19-.03.34.03.52.09.15.2.42.11.57.28.15-.03.34-.12.52-.03 0-.29.13-.45.34-.65.03-.12.22-.2.37-.27.29.07.62.07.82-.13.13.08.25-.08.4-.08.18-.04.33.02.47.1.02-.34.6-.05.72-.45.14-.27-.37-.37-.34-.6-.08-.27.12-.4.22-.58.12-.05.25-.12.4-.09.39-.13.08-.92.71-.64 0 .08-.03.18.02.2.22 0 .25-.25.4-.34.07-.23-.08-.52.12-.7.1-.02.18-.05.25-.14 0-.18-.1-.29-.25-.4-.05.08-.18.02-.27.05 0-.2-.12-.34-.15-.52-.1-.05-.15-.13-.12-.25.15-.15 0-.52.35-.43.13-.12.37-.03.5-.24.35-.2.82-.2 1.09-.57.12.02.25-.1.37 0 .06.17.38.09.38.29" fill="#edad49"/><path fill="#fff" d="M19.34 10.77l-1.25-.87-1.24.87.47-1.41-1.24-.87 1.54.01.47-1.42.47 1.42 1.55-.01-1.25.87zM23.53 9.43l-1.24-.88-1.25.88.48-1.41-1.25-.87h1.54l.48-1.41.47 1.41h1.54l-1.25.87zM32.91 8.51l-1.24-.88-1.25.88.48-1.41-1.25-.87h1.54l.48-1.41.47 1.41h1.54l-1.25.87zM37.44 9.43l-1.24-.88-1.24.88.47-1.41-1.25-.87h1.55l.47-1.41.47 1.41h1.54l-1.25.87zM27.99 8.51l-1.24-.88-1.24.88.47-1.41-1.24-.87h1.54l.47-1.41.47 1.41h1.54l-1.24.87zM42.08 10.77l-1.25-.87-1.24.87.48-1.41-1.25-.87 1.54.01.47-1.42.47 1.42 1.55-.01-1.25.87z"/></svg>