<svg xmlns="http://www.w3.org/2000/svg" viewBox="0 0 58.92 34.37"><path fill="#d03033" d="M10.33 0l17.18 11.46h31.41V0z"/><path fill="#fff" d="M30.95 13.75h27.97v-2.29H27.51zM27.51 22.92h31.41v-2.3H30.95z"/><path fill="#1f189b" d="M27.51 22.92L10.32 34.37h48.6V22.92z"/><path d="M0 11.46h6.86L0 6.89zM0 11.46v11.46h6.86l8.59-5.73-8.59-5.73zM0 22.92v4.57l6.86-4.57z"/><path fill="#f2b126" d="M0 6.88l15.45 10.31L0 27.49v2.75l19.58-13.05L0 4.13z"/><path fill="#32784c" d="M0 0v4.13l19.58 13.06L0 30.24v4.13h6.19l20.63-13.75h32.1v-6.87h-32.1L6.19 0z"/></svg>