<svg xmlns="http://www.w3.org/2000/svg" viewBox="0 0 58.93 34.37"><path fill="#3e8b11" d="M0 0h58.92v34.37H0z"/><path fill="#df7a21" d="M52.01 14.11h6.91v20.26h-6.91z"/><path d="M45.1 14.1h6.91v20.26H45.1z"/><path fill="#cb0423" d="M38.05 14.12h7.05v20.26h-7.05z"/><path d="M54.29 5.03s2.6-1.11 2.85-1.34c.12.14-1.04 1.54-3.29 2.05 2.04-.48 3.78-2 4.14-1.95.1.02.08 1.48-4.6 2.74 3.23-.85 5.11-2.41 5.09-2.24.02.03-.32 1.23-3.15 2.16.79-.19 2.94-1.49 2.91-1.24.07.1-2.08 2.85-5.95 1.96 3.1.8 5.1-1.13 5.39-1.1.06.01-.57 1.7-4.47 1.8 1.87-.2 1.33-.01 1.33-.01s-1.1.86-2.43.28c1.04.29 1.16.3 1.18.39-.07.11-.93.29-1.75-.16.66.27 1.26.32 1.27.42-.01.04-.43.28-.81.11-.38-.17-3.86-2.32-3.86-2.32l5.94-1.63.21.08z" fill="#df7a21"/><path d="M52.29 9.01c-.11 0-.22-.02-.31-.07-.38-.17-3.73-2.23-3.87-2.32-.02-.01-.03-.03-.02-.05 0-.02.02-.04.04-.04l5.94-1.63.25.08c.86-.38 2.61-1.16 2.8-1.33.01-.01.03-.01.04-.01.01 0 .02.01.03.02.01.01.02.07.01.09-.03.14-.27.45-.7.8.2-.12.39-.23.55-.33.46-.28.76-.47.92-.47.02 0 .08.07.09.09.02.18-.12.56-.69 1.03.28-.16.52-.3.69-.4.27-.16.36-.22.41-.22.01.01.06.05.06.07-.04.18-.24.56-.75.97.21-.1.35-.15.42-.15.01 0 .06.02.07.03l.02.08c-.02.1-.28.43-.72.81a.26.26 0 0 1 .11-.03c.03 0 .06.04.06.06-.01.2-.62 1.32-3.07 1.71v.01c.01.04-.03.08-.1.1-.01.01-.57.44-1.37.48.1.04.14.07.15.13-.05.11-.28.18-.55.19.04.02.07.05.07.08-.03.08-.31.22-.58.22M48.26 6.6c.57.35 3.42 2.1 3.76 2.25.29.13.72-.05.75-.09-.04.01-.19-.03-.35-.07-.33-.04-.63-.14-.9-.29-.02-.01-.03-.04-.02-.06.01-.02.04-.03.07-.02.33.14.65.22.87.27.45.05.8-.06.83-.09-.02 0-.1-.03-.46-.13-.23-.03-.47-.09-.7-.19-.02-.01-.04-.04-.03-.06.01-.02.04-.04.06-.03l.7.19a2.52 2.52 0 0 0 1.67-.45h-.09c-.37.05-.77.08-1.2.09-.03-.01-.05-.02-.05-.05 0-.03.02-.05.05-.05.57-.06.97-.09 1.2-.09 2.58-.34 3.22-1.49 3.23-1.65-.01.04-.17.14-.35.24-.19.11-.44.26-.74.41-.38.2-.78.36-1.2.47-1 .28-2.03.29-3.06.02-.03-.01-.04-.03-.03-.06.01-.03.03-.04.06-.03 1.04.24 2.06.24 3.01-.02.38-.11.76-.26 1.16-.46 1.13-.59 1.68-1.35 1.7-1.43-.12.01-.61.26-.9.41-.4.25-.9.49-1.46.7-.19.08-.36.14-.5.17-.02.01-.05-.01-.06-.04-.01-.03.01-.05.03-.06.17-.06.33-.12.49-.17.36-.16.81-.38 1.21-.58l.23-.12c.94-.59 1.17-1.13 1.19-1.23-.01.04-.16.13-.32.23-.33.2-.89.54-1.63.9-.63.34-1.43.66-2.38.94-.23.07-.46.14-.7.2-.03.01-.05-.01-.06-.03-.01-.03.01-.05.03-.06.25-.07.48-.13.7-.2.8-.25 1.6-.56 2.37-.94 1.47-.78 1.56-1.44 1.52-1.51-.11.01-.44.21-.85.47-.44.27-.98.6-1.61.9-.51.26-1.06.46-1.63.59-.03 0-.05-.01-.06-.04-.01-.02.01-.05.04-.05a7.57 7.57 0 0 0 1.61-.59c.97-.5 1.49-1.08 1.61-1.31-.55.33-2.66 1.23-2.76 1.28L54.06 5l-5.8 1.6z"/><path d="M47.31 10.83c-.52 0-.54.46-.54.46s-.04.03-.01.26c.09-.15.13-.2.13-.2.06.01.3.08.68-.22-.35.36-.14.49-.14.49s-.08.28.18.34c-.08-.12-.03-.22-.03-.22s.37-.04.34-.49c.01.41.24.51.24.51s0 .23.24.24c-.13-.11-.1-.29-.1-.29s.31-.22.05-.61c.16-.09.29-.35.29-.35s-.21-.09-.32-.17c-.05-.1-.01-.65-.01-.65l-.13-.71-.37 1.11c.01-.14.02.5-.5.5" fill="#df7a21"/><path d="M48.39 12.07c-.22-.02-.29-.19-.29-.28-.02 0-.12-.05-.19-.24-.09.2-.27.24-.32.26.01.01 0 .07.05.14.01.02.01.04 0 .06-.01.02-.04.02-.05.02a.267.267 0 0 1-.19-.13.338.338 0 0 1-.03-.25c-.01 0-.05-.04-.06-.11-.01-.06.01-.13.04-.2-.17.08-.37.1-.46.08 0 .02-.04.07-.1.17-.01.02-.03.03-.05.02-.02 0-.04-.02-.04-.04-.03-.22.01-.28.03-.3-.01 0 .02-.48.57-.48.36 0 .43-.33.45-.42v-.01c0-.01.01-.02.01-.03l.36-1.09c.01-.02.02-.03.05-.03.02 0 .04.02.05.04l.13.71c-.02.24-.03.58 0 .64.08.06.29.14.29.15l.03.03v.04c-.01.01-.12.23-.26.34.22.36-.04.6-.08.63.01 0 0 .13.1.22.02.01.02.04.01.06-.01-.01-.03 0-.05 0m-.47-.84c.02 0 .05.01.05.04.02.37.2.46.21.47.02.04.03.13.09.19-.04-.1-.02-.19-.02-.2.03-.04.29-.23.06-.57-.01-.01-.01-.03-.01-.04 0-.01.01-.03.02-.03.1-.06.2-.21.24-.28-.07-.03-.2-.09-.28-.15-.07-.13-.03-.6-.03-.69l-.09-.51-.3.92s-.05.53-.55.53c-.47 0-.49.4-.49.42-.01.02-.02.04-.02.09.03-.05.05-.07.05-.07.08-.01.12 0 .16 0 .16 0 .33-.07.52-.22.02-.02.05-.02.07 0 .02.02.02.05 0 .07-.16.17-.19.28-.19.34.01.06.04.08.04.08.02.06-.01.17.04.25.01.01.02.02.02.03-.01-.08.01-.13.01-.14.05-.03.35-.07.34-.45.01-.05.03-.08.06-.08z"/><path d="M49.89 9.23c.01.01.39.44.76.41.14-.11-.29-.37-.29-.42.15.14.78.68 1.18.48.16-.23-.29-.2-.78-.81.34.23 1.2.74 1.61.54.17-.18-.9-.76-1.25-1.2l-.92-.48-1.25 1.02.94.46z" fill="#df7a21"/><path d="M51.35 9.79c-.21 0-.43-.11-.63-.23v.03c0 .02-.03.08-.04.09h-.02c-.39 0-.71-.31-.8-.41l-.93-.45c-.02 0-.02-.02-.03-.04 0-.01.01-.03.02-.04l1.25-1.02.97.46c.16.2.45.42.7.61.36.27.58.44.59.58 0 .01-.02.08-.03.09-.38.2-.95-.11-1.35-.34.14.13.27.21.36.27.12.07.19.12.21.2.01.04-.01.09-.04.14-.08.04-.15.06-.23.06m-.99-.62c.01 0 .02 0 .03.01.11.1.77.64 1.13.47 0-.08-.07-.13-.16-.18-.16-.1-.39-.25-.64-.56-.02-.02-.01-.04 0-.06.02-.02.04-.02.07-.01.17.11 1.17.72 1.55.54-.02-.1-.31-.32-.56-.52-.26-.2-.55-.42-.7-.61l-.9-.46-1.14.97.87.42c.2.2.47.41.71.41.01-.06-.12-.17-.19-.23-.08-.07-.12-.11-.12-.15 0-.02.01-.04.03-.04h.02"/><path d="M48.48 5.74s.42-.25 2.12-.13c.18.02 1.16-.33 1.47-.43.49-.09 2.06-.44 2.49-.76.3-.03-.08.55-.46.69-.4.18-1.86.69-2.37.62.62.01.27.52-.76.28.49.27.31.32.31.32s-.87.05-1.1-.15c.58.22.34.3.34.3s-.6.06-.87-.07c.42.13.21.21.21.21s-.34.06-.63-.05c-.29-.1-.73-.83-.75-.83" fill="#df7a21"/><path d="M49.63 6.68c-.16 0-.3-.02-.42-.06-.23-.08-.53-.51-.68-.73-.04-.05-.06-.09-.07-.1-.02 0-.03-.01-.03-.03-.01-.02.02-.04.04-.05.01-.01.45-.26 2.15-.13.2 0 .88-.24 1.24-.36l.2-.07c.65-.12 2.09-.46 2.47-.75.13-.01.17.03.18.09.03.17-.28.57-.6.69-.35.16-1.43.54-2.07.61.04.04.04.08.04.1-.01.15-.35.3-.87.23.14.1.15.16.15.2 0 .02-.05.07-.07.08-.02 0-.38.02-.69-.02.02.02.02.05.02.07 0 .02-.06.09-.08.09-.02 0-.36.03-.58.01v.03c0 .05-.05.09-.09.1-.01-.02-.11 0-.24 0m-1.07-.92c.01.02.03.04.04.06.13.19.43.62.64.7.11.04.24.06.39.06.13 0 .22-.01.22-.01.02-.01 0-.03-.1-.07a.564.564 0 0 1-.12-.04c-.02-.01-.03-.04-.03-.06.01-.02.04-.04.06-.03.05.01.09.03.12.04.1.03.25.04.43.04.17 0 .3-.01.31-.01 0-.01 0-.04-.14-.11a.548.548 0 0 1-.23-.1c-.02-.02-.02-.04-.01-.06.01-.02.04-.03.06-.02.1.04.17.07.23.1.29.07.79.05.85.05-.02-.01-.05-.08-.33-.23-.02-.01-.03-.04-.02-.06.01-.02.03-.04.06-.03.18.04.35.06.51.06.34 0 .5-.11.5-.16 0-.02-.04-.06-.17-.08h-.1c-.02 0-.04-.03-.04-.05 0-.03.02-.05.05-.05.04 0 .07 0 .1.01.59 0 1.9-.46 2.25-.62.29-.1.55-.47.54-.58-.46.3-2.02.65-2.54.74l-.2.07c-.54.19-1.08.37-1.26.37-.36-.03-.65-.04-.89-.04-.73-.02-1.06.07-1.18.11"/><path d="M49.16 9.47l.06 1.12s-.03.06-.06.09-.8-.12-.69.46c0 .24 0 .3.17.43-.04-.16-.03-.27-.03-.27s.21.13.43-.22c-.14.35-.04.47-.01.48.03.06-.06.35.23.34-.11-.11-.06-.26-.06-.26s.3-.05.2-.59c.11-.11.15 0 .15 0s.03.32.3.26c.12.07-.02.24-.02.24s.19.01.25-.16c.06-.16.13-.45-.19-.57-.04-.11.13-.13.13-.13s.2.07.26.17.04-.26-.21-.3c-.31-.01-.33-.07-.33-.09 0-.01-.05-.81-.08-1.04l-.5.04z" fill="#df7a21"/><path d="M49.25 11.96c-.26 0-.26-.21-.26-.31l-.05-.11c-.02-.04-.04-.11-.02-.24-.11.09-.2.09-.26.08 0 .04.01.11.03.19.01.02 0 .04-.02.06-.02.01-.04.01-.06 0-.18-.15-.18-.22-.18-.47-.03-.14 0-.26.07-.35.12-.15.35-.16.51-.16h.11c.04-.02.07-.07.07-.07l-.07-1.09.54-.09c.08.27.13 1.05.13 1.09 0 0 .04.03.28.04.22.03.29.26.29.35 0 .04-.1.06-.12.02-.04-.07-.18-.13-.23-.14-.01 0-.05.02-.06.03.15.07.33.23.19.64-.07.18-.27.19-.29.19-.02 0-.04-.01-.05-.03-.01-.02-.01-.04.01-.05.02-.03.06-.1.05-.14-.26-.01-.33-.22-.34-.32-.01.22-.03.4-.11.52-.06.09-.14.12-.17.12.02.01 0 .11.07.18.01.02.02.03.01.06-.03-.01-.04 0-.07 0zm-.21-.92c.01 0 .01 0 .02.01.02.01.03.04.02.06-.12.29-.06.41-.04.42.04.05.04.08.04.13 0 .09.01.16.07.19-.04-.1-.01-.2 0-.21.04-.03.11-.05.15-.12.07-.1.08-.25.04-.45.14-.22.23-.08.25-.03 0 .02.03.24.18.24.01 0 .08-.01.09 0 .04.02.06.05.07.09a.2.2 0 0 1-.02.13c.04-.02.09-.05.11-.11.1-.27.04-.43-.16-.51-.05-.09-.03-.12-.02-.15.04-.07.15-.07.16-.07.03.01.13.04.21.1-.01-.01-.02-.03-.03-.04a.216.216 0 0 0-.14-.09c-.09 0-.37-.01-.37-.14 0-.03-.05-.81-.08-1.04l-.44.08.11 1.07c-.01.03-.04.09-.07.13-.01.01-.07.02-.08.02H49c-.08 0-.33 0-.44.13-.05.06-.07.15-.05.27 0 .16 0 .23.04.29-.01-.08 0-.12 0-.12 0-.02.01-.03.03-.04.01-.01.03 0 .05 0 0 0 .18.1.36-.21.01-.02.03-.03.05-.03"/><path d="M50.23 10.42c0-.05-.52-.76-.39-.85.13.03.35.35.53.25-.05-.13-.21-.06-.39-.38-.18-.36-.21-.91-.84-1.51.41.63 1.33 1 1.37.82.04-.18-.82-.88-.77-1.05.17.34 1.03 1.11 1.66 1.05.04-.15-.52-.44-.66-.72-.4-.27-1.49-1.21-1.51-1.42-.39-.57-.64-.75-.75-.82-.04-.05-.05-.1-.06-.13-.24-.57.08-.76.27-.79.16-.02.2.01.31-.05-.13-.05-.27-.1-.4-.15.17.13.62.02.52.38.19-.07.61-.56-.47-.68-.35-.4-1.79-.63-2.15 1.12.03.02.04.04.14.11-.45-.22-1.68-.39-2.12-.46-1.19-.34-2.43-1.17-2.55-1.07-.16.07.72.89.67.91-.76-.44-1.46-.76-2.11-1.05-.46-.17-.91-.57-.96-.49-.17.35.73 1.22.9 1.32.17.1 1.48.71 1.46.72-1.98-.9-2.31-1.06-2.41-1.17-.18-.04-.6-.61-.72-.57-.07.06.07.97 1.01 1.38.15.11 2.02.78 2.01.84 0 .01-2.14-.88-2.23-.91-.41-.16-.92-.73-1.01-.67-.09.06.23.67.65.86.22.1 1.06.51 1.81.78.05.02-1.36-.53-2.03-.82-.31-.17-.45-.38-.5-.34-.07.04.11.95 2.28 1.46.06.02.76-.17.73-.14-.01.01-.7.16-.77.15-.06-.01-.44.05-.45.07-.02.06.14.39 1.26.32.14-.01.92-.28.85-.22-.03.03-1.06.36-1.14.37-.07.01-.43.05-.44.09 0 .04.29.27.89.31.53.03 1.55-.33 1.52-.3-.02.02-.98.35-1 .37-.04.02-.38.04-.4.06-.03.07.51.57 2.08.03-.16.22-.92.36-.92.4 0 .03.17.19.44.25.13.03.32.02.48 0 .3-.06.62-.18 1.02-.55.05.12-1 .65-.96.7.23.21.99-.03 1.04-.05.05-.03 1.46-.82 1.45-.91.02.12-1.82 1.12-1.8 1.16.12.19.74-.01.77-.03.03-.02.8-.43.82-.45.02-.01-.91.54-.83.63-.04.36 1.45-.25 1.57-.32.06-.04-.72.34-.72.52.25.42 1.05.29 1.17.19.06-.05-.07.31-.03.28.01-.01.17-.19.23-.33-.02.12-.11.3-.16.52-.05.21-.07.45-.14.71-.02.11.49-.22.42-1.01.04.41-.16 1.18-.11 1.22.11.08.4-.39.43-.7.09.16.27.49.43.57-.02-.24 0-.23-.07-.46.04-.32.05-.75.06-1.23.43.82.6 1.17.48 1.8.13.06.33-.44.32-.69.2.69.9.79.92.77" fill="#df7a21"/><path d="M50.21 10.46c-.1 0-.63-.12-.85-.64-.04.18-.12.39-.21.49-.04.04-.07.06-.11.06-.02 0-.06-.03-.06-.05.11-.57-.02-.89-.41-1.64-.01.43-.02.8-.05 1.08.05.17.06.21.06.32l.01.14c-.19-.03-.35-.27-.45-.44-.07.28-.28.63-.42.63-.09-.05-.08-.11-.03-.42 0-.03.01-.05.01-.08-.1.19-.24.29-.3.29a.374.374 0 0 1-.06-.07c.04-.15.06-.29.08-.42.02-.1.03-.2.05-.3.02-.09.05-.17.07-.24-.04.05-.08.09-.09.1-.07-.03-.07-.06-.04-.17.01-.04.03-.12.03-.13-.02.07-.24.12-.47.12-.2 0-.55-.04-.71-.31 0-.08.09-.18.21-.27-.42.15-.92.28-1.04.15a.103.103 0 0 1-.03-.1c0-.05.07-.12.17-.2l-.11.06c-.04.02-.71.19-.83.01-.02-.03-.02-.04.15-.15-.28.07-.7.1-.84-.03-.01-.06.03-.1.16-.19-.06.02-.13.04-.18.05-.18.03-.37.03-.5 0-.25-.06-.48-.23-.47-.3 0-.04.03-.05.22-.1.14-.04.35-.1.5-.18-.38.11-.73.17-1.03.17-.53 0-.78-.17-.84-.26-.01-.01-.02-.06-.01-.07.01-.03.05-.04.26-.06.06-.01.14-.01.16-.02.01-.01.04-.02.21-.08-.23.05-.47.09-.66.09-.56-.02-.86-.2-.93-.3 0-.1.05-.13.41-.17.03 0 .14-.03.26-.07-.9.04-1.13-.17-1.19-.26-.03-.04-.04-.08-.03-.11.01-.04.2-.07.33-.08-1.57-.41-2.08-1.04-2.14-1.36-.01-.06 0-.1.02-.12.09-.01.12.02.2.09.08.07.19.16.34.25.01 0 .01.01.02.01-.29-.22-.51-.59-.52-.74 0-.02.02-.08.03-.09.11-.01.21.07.4.23.08.06.17.14.26.2-.35-.34-.44-.73-.46-.83-.01-.07-.03-.19.01-.23.11-.01.23.1.41.27.13.13.27.28.35.29.07.07.25.17.8.42-.3-.26-.95-.95-.79-1.28.12-.03.21.02.38.13.18.11.41.25.64.34.61.27 1.25.56 1.94.95-.03-.03-.05-.06-.08-.08-.35-.38-.52-.58-.5-.67.01 0 .08-.06.09-.06.1 0 .34.12.7.3.49.25 1.17.59 1.83.78l.17.03c.48.07 1.33.21 1.8.37.24-1.32 1.05-1.45 1.38-1.45.32 0 .64.12.8.3.44.03.69.16.72.35.02.18-.16.34-.27.38-.03-.12-.04-.17-.06-.21a.078.078 0 0 0-.04-.04c0 .01-.01.01-.02.01-.08.04-.13.04-.2.05-.03 0-.07 0-.12.01-.04.01-.19.04-.27.18-.08.14-.06.32.04.56.01.04.02.08.06.12.21.12.47.4.76.82.03.2 1.04 1.1 1.5 1.41.08.14.24.28.39.4.18.15.32.27.29.37-.06.03-.09.03-.11.03-.33 0-.7-.19-1.01-.42.16.18.25.31.23.39-.01.03-.03.08-.13.08-.16 0-.49-.13-.79-.35.13.22.2.42.26.61.04.12.08.23.12.32.1.18.19.23.27.27.05.03.1.05.13.11-.05.07-.08.08-.11.08-.11 0-.21-.09-.3-.16-.06-.05-.12-.1-.16-.1 0 .01.03.13.32.6.1.16.12.19.12.22l-.1.01zm-.87-.87c.02 0 .03.01.04.03.13.58.65.74.8.76a.488.488 0 0 1-.1-.13c-.22-.36-.38-.64-.27-.71.09 0 .15.05.22.11.08.07.18.14.26.14.03 0 0-.01-.05-.04a.635.635 0 0 1-.3-.3 2.2 2.2 0 0 1-.13-.34c-.08-.24-.17-.5-.38-.79-.13-.12-.24-.24-.33-.38-.01-.01-.01-.04.01-.05.01-.01.04-.01.05 0 .13.12.24.25.33.38.35.31.76.47.92.47.07-.09-.16-.34-.33-.52-.26-.27-.41-.45-.39-.54 0-.02.02-.03.03-.03.01 0 .03.01.04.02.18.36 1.02 1.09 1.62 1.03-.02-.02-.17-.15-.3-.26-.15-.13-.32-.27-.39-.41-.34-.22-1.48-1.19-1.51-1.43-.28-.39-.53-.66-.73-.78-.06-.06-.07-.11-.08-.15-.11-.26-.12-.47-.03-.63.1-.17.28-.21.33-.22.05-.01.1-.01.13-.01h.07l-.07-.02c-.11-.03-.18-.05-.23-.09-.02-.01-.02-.03-.01-.05.01-.02.03-.03.05-.02l.23.07c.12.02.24.04.3.14.04.06.04.13.02.22.03-.08.18-.21.16-.35-.02-.15-.26-.26-.67-.3-.14-.14-.42-.28-.76-.28-.32 0-1.09.13-1.34 1.37.03 0 .05.02.12.07.02.01.02.04.01.05-.01.02-.03.03-.05.02-.4-.19-1.39-.35-1.93-.43l-.18-.03c-.67-.19-1.35-.53-1.85-.78-.31-.16-.58-.29-.66-.29-.03.07.32.45.47.6.21.22.22.24.22.28-.81-.41-1.51-.73-2.16-1.02a4.01 4.01 0 0 1-.65-.35c-.12-.07-.24-.15-.28-.15-.13.3.72 1.15.9 1.26.09.05.48.24.83.41.4.19.56.27.62.3 0 0 .01 0 .01.01.02.02.02.03.02.04-.01-.01-.02-.01-.03-.02l-.03.04c-.03-.02-.34-.17-.62-.3-.13-.06-.26-.13-.39-.18-1.15-.5-1.33-.6-1.41-.68-.08-.01-.22-.15-.37-.3-.11-.11-.26-.26-.31-.26.01.01.01.15.08.35.09.25.33.7.93.96.02.02.07.04.21.1l.1.04c.2.08.45.18.71.28 1.02.4 1.02.41 1 .46-.01.01-.03.01-.06 0 0 0-.01-.01-.02-.01-.14-.04-.51-.19-1.65-.66l-.1-.04c-.24-.1-.41-.17-.43-.18-.22-.09-.47-.29-.67-.44-.13-.1-.27-.22-.31-.22-.02.06.26.61.65.79l.2.09c.19.09.46.22.77.35l.59.23c.11.04.17.07.21.09.01 0 .02.01.03.01.03.01.02.02.02.03-.01 0-.03-.01-.04-.01l-.02.04a1.7 1.7 0 0 0-.26-.1l-.11-.04c-.17-.06-.32-.13-.48-.19-.39-.16-.86-.35-1.18-.48-.16-.09-.28-.19-.36-.26a.405.405 0 0 0-.1-.08c.01 0 .01.07.07.19.12.24.59.82 2.2 1.2.08-.01.15-.02.23-.04l.25-.06c.16-.04.21-.05.23-.05 0 .01.04.06.02.07-.02.02-.49.11-.5.11-.09.02-.16.03-.21.04-.04.01-.07.01-.09.01-.11 0-.39.04-.42.06.12.12.37.3 1.23.25.06 0 .29-.07.47-.13.22-.07.34-.1.38-.1.01.02.04.07.03.08-.05.04-1.1.38-1.16.38-.27.03-.39.06-.42.07.06.02.32.22.87.25.47 0 1.1-.19 1.38-.27.23-.07.16-.04.18-.01.01.01 0 .03 0 .04-.02.02-.05.03-.6.23-.2.07-.39.14-.41.15-.02.01-.07.02-.19.03-.07.01-.18.02-.2.03.03.02.26.21.79.21.36 0 .78-.08 1.25-.24.02-.01.03 0 .04.01.01.01.01.03 0 .05-.11.16-.5.27-.75.34-.07.02-.16.05-.18.06.02-.01.17.13.42.19.12.03.3.02.47 0 .28-.06.59-.16 1-.54.1.1-.05.21-.54.5-.15.09-.33.2-.35.23.05.01.14.04.28.04.3 0 .67-.12.7-.14.39-.21 1.38-.79 1.44-.89 0-.02.01-.03.03-.03.01-.01.04.02.04.04.01.08-.15.2-1.21.82-.28.16-.57.33-.59.36-.01 0 .09.02.2.02.22 0 .5-.09.53-.1l.19-.1c.24-.13.62-.33.64-.34.02-.01.04-.01.05.01.01.02 0 .04-.02.06-.44.26-.79.52-.81.58.03.06.05.08.14.08.29 0 .9-.22 1.24-.37.13-.07.15-.07.15-.07.02 0 .03.01.04.03.01.02 0 .04-.02.05-.02.01-.07.03-.14.07-.33.17-.56.35-.56.42.13.22.46.25.64.25.23 0 .42-.05.47-.09.09.03.08.07.05.2 0 .01-.01.02-.01.03.04-.07.12-.18.15-.26.01-.02.02-.03.05-.02.02.01.03.03.03.04-.01.06-.04.14-.07.23-.03.09-.07.19-.09.29a2.5 2.5 0 0 0-.05.29c-.02.13-.04.27-.08.42.03-.03.28-.25.34-.69.01-.1.01-.19.01-.27 0-.02.01-.06.03-.07.01-.01.03-.01.04-.01.01 0 .01 0 .01.01a2 2 0 0 1 0 .35c-.02.18-.05.36-.07.52-.02.14-.05.31-.04.33.08-.01.33-.38.36-.68 0-.02.01-.03.03-.04.02 0 .04 0 .04.02.08.14.27.48.41.55l-.06-.1c-.01-.11-.01-.14-.06-.31.04-.31.04-.69.05-1.14v-.11c0-.02.01-.03.03-.04.02 0 .04 0 .04.02.42.8.61 1.17.49 1.83l.03-.07c.1-.11.22-.43.21-.63-.03-.02-.01-.03.01-.04z"/><path d="M43.07 5.2s-.29.22-.66.21c.09.36.85.08.85.08s-.37.4-.62.47c.16.13.81.08.92.02.11-.07.31-.32.31-.32s-.68.78-.77.77c-.01.09.71.06.86-.08.15-.13.53-.34.53-.34s-1 .69-1.05.69c.37.1 1.11-.11 1.59-.41-.7.47-.77.56-1.13.71.32.07.48.29 1.56-.18.62-.29.97-.83.97-.83-.38.51-.99.95-1.66 1.38-.04.08.71.4 1.68-.61L43.07 5.2z" fill="#df7a21"/><path d="M45.11 7.52c-.17 0-.29-.04-.34-.07-.02-.01-.05-.07-.04-.09.24-.16.48-.32.7-.48-.89.38-1.15.29-1.4.21-.05-.01-.1-.03-.15-.04-.02 0-.03-.02-.03-.04s.01-.03.02-.04c.25-.11.35-.18.62-.37.01-.01.03-.02.04-.03-.4.16-.84.25-1.12.17 0 0-.01-.02-.01-.04s.02-.03.04-.03c.02-.01.13-.08.28-.18-.24.05-.55.06-.64.01a.21.21 0 0 1-.04-.06c.07-.03.22-.18.41-.38-.24.05-.7.06-.85-.06.18-.1.4-.3.52-.43-.17.05-.45.1-.62.01a.25.25 0 0 1-.13-.17c.38-.04.67-.25.67-.25.02-.01.04-.01.05.01.01.02.01.04-.01.06-.01.01-.32.24-.68.21.05 0 .08.04.13.07.22.11.7-.06.7-.06.02 0 .04 0 .05.01.01.02.01.03 0 .05-.01.02-.38.41-.64.48.16.05.79.01.9-.05.02-.01.04-.03.07-.05.08-.08.15-.17.23-.26.01-.02.04-.02.05 0 .02.01.02.04.01.06-.01.01-.12.16-.23.26-.23.25-.49.52-.57.53.12 0 .7-.03.83-.15.15-.14.52-.33.53-.34.02-.01.04 0 .05.01.01.02.01.04-.01.05-.56.39-.82.56-.94.64.36.04 1-.15 1.45-.42.02-.01.04-.01.05.01.01.02.01.04-.01.06-.21.14-.37.25-.49.34-.23.16-.35.24-.54.33.02 0 .03.01.05.01.24.08.49.16 1.38-.22.21-.1.39-.23.54-.36.16-.15.3-.3.42-.46.01-.01.04-.02.05-.01.02.01.02.04.01.05-.01.02-.17.25-.45.49-.36.33-.79.62-1.21.89.02-.01.1.02.22.04.2.02.74-.01 1.4-.7.01-.01.04-.02.05 0 .02.01.02.04 0 .06-.56.58-1.06.72-1.37.72"/><path d="M48.3 7.37s.06.31.32.54c.26.23.28.46.28.46l-.6-1z" fill="#df7a21"/><path d="M48.9 8.41c-.02 0-.04-.01-.04-.03 0 0-.02-.22-.27-.44-.27-.24-.33-.55-.34-.56 0-.02.01-.04.03-.05.02-.01.04.01.05.03 0 0 .07.3.31.52.27.24.29.48.29.49.01.02-.01.03-.03.04z"/><path d="M48.16 5.38s.09.27.36.45c.28.17.68.73.72.82.03.12.19.97.18 1.06l-1.26-2.33z" fill="#df7a21"/><path d="M49.41 7.75c-.03 0-.04-.02-.04-.04.01-.08-.14-.92-.17-1.04-.03-.09-.43-.63-.7-.8a.983.983 0 0 1-.37-.47c-.01-.02 0-.04.02-.05.02-.01.04.01.05.03 0 0 .09.26.34.43.28.18.7.75.73.85.03.1.19.97.18 1.08 0 0-.02.01-.04.01"/><path d="M46.51 5.8c.02.1-.38.63.17 1.25-.5.61-.5.69-.5.69s.28.16.78-.27c.82 1.01.55 1.48.55 1.48l-1-3.15z" fill="#df7a21"/><path d="M47.51 8.98h-.02c-.02-.01-.02-.03-.01-.06 0 0 .25-.46-.55-1.43-.46.45-.76.29-.77.28-.02-.09.16-.35.49-.75-.45-.45-.29-.9-.21-1.12.01-.04.03-.09.03-.1 0-.02.01-.04.03-.04.03 0 .04.01.05.03.01.03-.01.07-.03.14-.08.22-.23.62.19 1.09-.4.54-.48.68-.49.72h.06c.1 0 .33-.02.66-.3.89 1.03.62 1.51.61 1.53-.02 0-.03.01-.04.01"/><path d="M47.44 8.22s-.08-.11.06-.51c.12.15.26.18.32.24s.68.15.72.56l-1.1-.29z" fill="#df7a21"/><path d="M48.54 8.55c-.02 0-.04-.02-.04-.04-.03-.29-.38-.41-.57-.48-.08-.02-.12-.03-.14-.05-.02-.02-.05-.04-.08-.06-.07-.04-.15-.09-.24-.18-.06.36 0 .47.01.47.01.02 0 .04-.01.06-.02.01-.04.01-.05-.01-.01-.01-.08-.14.05-.55.14.08.22.12.28.16.04.02.07.04.1.07.01.01.06.03.11.04.21.07.59.21.63.55-.01 0-.03.02-.05.02z"/><path d="M48.17 4.41c0-.03-.13-.3-.59.04.25.01.5.16.59-.04" fill="#df7a21"/><path d="M48 4.55c-.07 0-.13-.02-.21-.03-.07-.01-.14-.03-.21-.04h-.11l.09-.07c.16-.12.3-.18.42-.18.16 0 .24.13.24.17-.05.11-.12.15-.22.15m-.31-.13c.04.01.08.01.12.02.07.02.14.03.19.03.07 0 .11-.02.14-.08-.02.01-.17-.14-.45.03"/><path d="M52.64 5.64c.02.01 1.4.31 1.86.16-.59.78-1.75.25-1.75.25.57.17.6.16.78.32.06.15-1.05.08-1.42-.13 1.02.32 1.04.3 1.08.42.05.17-1.67-.05-1.82-.28.46.35.71.42.96.59-.31.14-.88.27-1.94-.47 1.39 1.26 2.64 1.18 2.83 1.41-.48.71-2.35-.42-3.21-1-.86-.57 1.88 1.39 2.13 1.35-.13.19-1.03.02-1.09-.07l1.59-2.55z" fill="#df7a21"/><path d="M51.81 8.4h-.01c-.29 0-.73-.09-.78-.18l.07-.04c.04.05.49.16.81.14a.96.96 0 0 0 .15-.03c-.45-.16-1.98-1.26-2.21-1.43l-.01-.01-.02-.02c.04-.07.04-.07.23.05.8.53 2.69 1.69 3.15 1.01-.05-.01-.21-.05-.43-.11-.53-.14-1.43-.37-2.4-1.25-.02-.02-.02-.04 0-.06.01-.02.04-.02.05-.01 1.02.72 1.57.61 1.9.47-.09.01-.17-.03-.27-.07-.17-.09-.35-.18-.61-.37a.306.306 0 0 1-.1-.08c-.01-.02-.01-.04.01-.05.01-.01.04-.01.05 0 .03.02.06.05.09.07.17.09.57.18 1.01.23.43.05.63.03.65 0-.02-.06-.02-.07-.54-.22l-.06-.02c-.19-.03-.36-.08-.47-.14-.02-.01-.02-.03-.02-.05.01-.02.03-.03.05-.02l.46.14c.4.07.87.08.91.02-.1-.08-.15-.1-.3-.15-.26-.05-.45-.13-.46-.13-.02-.01-.03-.03-.02-.05.01-.02.03-.03.05-.02l.22.06c.1.03.17.05.23.07.36.07.85.08 1.19-.28-.54.08-1.73-.17-1.77-.19l.03-.07c.06.02 1.39.3 1.83.16.01 0 .03 0 .04.02.01.01.01.03 0 .05-.29.38-.71.46-1.08.43a.7.7 0 0 1 .1.08c.01.01.01.04.01.05 0 .01-.01.04-.02.05-.06.05-.29.07-.55.05.18.07.2.09.23.18.01.02-.03.07-.05.08-.15.07-.94 0-1.44-.14.13.08.24.14.35.19.09.05.18.09.26.15-.29.18-.73.29-1.47-.09.77.56 1.46.74 1.9.85.24.06.4.1.47.18-.35.55-1.36.17-2.28-.33.53.35 1.08.7 1.16.68.02 0 .03.01.04.02.01.01.01.03 0 .04-.02.06-.14.09-.33.09"/><path d="M53 6.96c-.16.03-.64.03-.71.01l.71-.01z" fill="#df7a21"/><path d="M52.53 7.02c-.12 0-.22 0-.25-.01-.02 0-.04-.02-.03-.04 0-.02.03-.04.05-.03.07.01.54.01.7-.01.02 0 .04.01.05.04 0 .02-.01.04-.03.04-.11 0-.32.01-.49.01"/><path d="M42.67 4.99s1.05.55 1.49.51c-.12.11-.29.16-.29.16.11.04.42.21.88.1-.11.11-.25.23-.25.23s.4.15.85-.08c-.14.17-.21.29-.21.29l.31.02-2.78-1.23z" fill="#df7a21"/><path d="M45.43 6.26l-.32-.02c-.02-.04.01-.13.09-.23-.39.15-.72.03-.73.02-.01-.05.06-.13.15-.21-.36.05-.62-.06-.74-.11-.01 0-.04-.03-.04-.04 0-.02 0-.04.01-.04 0 0 .09-.03.18-.08-.49-.04-1.35-.5-1.39-.51-.02-.01-.03-.03-.02-.06.01-.02.03-.03.05-.02.01.01 1.05.56 1.47.51.01 0 .03.01.04.02.01.01 0 .03-.01.05-.07.06-.15.1-.21.13.17.07.42.14.76.06.02 0 .04 0 .04.02.01.01.01.04-.01.05-.09.09-.19.18-.24.22.03-.01.1 0 .2 0 .15 0 .36-.02.58-.14.02-.01.04 0 .05.01.01.02.01.04 0 .05-.14.17-.21.29-.21.29l.28-.04c.02 0 .04.02.04.04.02.02 0 .03-.02.03"/><path d="M28.89 22.35c.03 0 .12-.05.04-.05-.03-.01-.12.05-.04.05" fill="#fff"/></svg>