<svg version="1.1" xmlns="http://www.w3.org/2000/svg" xmlns:xlink="http://www.w3.org/1999/xlink" x="0px" y="0px"
	 viewBox="0 0 58.92 34.37" style="enable-background:new 0 0 58.92 34.37;" xml:space="preserve">
<rect style="fill:#4A9318;" width="58.92" height="34.37"/>
<rect y="4.91" style="fill:#F6D128;" width="58.92" height="24.55"/>
<rect y="9.82" style="fill:#CB0423;" width="58.92" height="14.73"/>
<rect y="14.73" width="58.92" height="4.91"/>
<polygon points="0,0 0,34.37 1.25,34.37 24.15,17.19 1.25,0 "/>
<polygon style="fill:#FFFFFF;" points="0,0 0,34.37 22.9,17.19 "/>
<polygon style="fill:#CB0423;" points="9.27,8.46 5.41,16.29 11.27,19.18 "/>
<polygon style="fill:#CB0423;" points="9.27,8.46 13.13,16.29 7.26,19.18 "/>
<polygon style="fill:#CB0423;" points="9.27,8.46 6.35,16.68 12.51,18.88 "/>
<polygon style="fill:#CB0423;" points="9.27,8.46 12.19,16.68 6.03,18.88 "/>
<polygon style="fill:#CB0423;" points="17.56,14.49 8.93,13.23 7.99,19.71 "/>
<polygon style="fill:#CB0423;" points="0.97,14.49 9.6,13.23 10.55,19.71 "/>
<polygon style="fill:#CB0423;" points="17.56,14.49 8.84,14.25 8.66,20.79 "/>
<polygon style="fill:#CB0423;" points="0.97,14.49 9.69,14.25 9.87,20.79 "/>
<polygon style="fill:#CB0423;" points="13.68,23.26 12.14,15.91 8.48,16.68 "/>
<polygon style="fill:#CB0423;" points="13.68,23.26 7.17,19.53 9.03,16.28 "/>
<polygon style="fill:#CB0423;" points="4.86,23.26 11.37,19.53 9.51,16.28 "/>
<polygon style="fill:#CB0423;" points="4.86,23.26 6.39,15.91 10.06,16.68 "/>
<path d="M12.26,22.64c0-1.1,0.19-2.15,0.59-3.27c0.18-0.51,0.66-1.55,0.78-1.71c0.01-0.02,0.22,0.03,0.45,0.09
	c0.48,0.14,0.61,0.11,0.61-0.11c0-0.13-0.49-0.56-2.9-2.58c-1.62-1.36-2.95-2.43-3.02-2.43s-0.13-0.04-0.14-0.08
	c-0.02-0.04-0.09-0.57-0.17-1.17c-0.08-0.6-0.19-1.19-0.24-1.31C8.07,9.7,7.75,9.51,7.25,9.48C6.86,9.45,6.78,9.46,6.52,9.62
	C6.35,9.72,6.14,9.78,6,9.78c-0.29,0-0.52,0.22-0.52,0.5v0.18l0.42-0.01c0.23-0.01,0.35,0,0.26,0.02c-0.3,0.06-0.18,0.48,0.17,0.61
	c0.38,0.14,0.36,0.06,0.36,1.83c0,1.46-0.01,1.66-0.12,2c-0.15,0.49-0.15,1.22,0,1.71c0.06,0.2,0.11,0.38,0.12,0.4
	c0,0.03-0.18,0.26-0.4,0.53c-0.4,0.48-0.64,0.99-0.64,1.35c0,0.08-0.05,0.22-0.12,0.31c-0.15,0.21-0.15,0.56-0.01,0.7
	c0.15,0.14,0.76,2.67,0.76,3.15c0,0.17,0.03,0.17,0.96-0.03c0.75-0.16,2.52-0.2,3.42-0.07c0.41,0.06,0.9,0.15,1.07,0.19
	C12.29,23.32,12.26,23.35,12.26,22.64"/>
<path style="fill:#FCFF2C;" d="M11.51,23c-0.82-0.2-1.74-0.27-2.78-0.23C8.2,22.8,7.65,22.84,7.5,22.87l-0.27,0.05l-0.07-0.45
	C7.13,22.23,7.11,22.02,7.11,22c0.01-0.01,0.27-0.06,0.57-0.1c1.04-0.15,3.25-0.09,4.27,0.11l0.19,0.04v0.54
	c0,0.39-0.02,0.54-0.07,0.53C12.03,23.13,11.78,23.07,11.51,23"/>
<path style="fill:#FCFF2C;" d="M6.4,23.04c0-0.13-0.32-1.68-0.46-2.23c-0.1-0.37-0.17-0.7-0.17-0.73c0-0.03,0.09,0.01,0.2,0.08
	c0.11,0.07,0.24,0.14,0.3,0.14c0.3,0,0.46,0.45,0.71,1.97c0.04,0.21,0.08,0.45,0.09,0.53C7.1,22.92,7.06,22.94,6.81,23
	C6.48,23.08,6.4,23.09,6.4,23.04"/>
<path style="fill:#FCFF2C;" d="M12.06,21.86c-0.02-0.03,0.01-0.09,0.05-0.14c0.07-0.06,0.09-0.06,0.09,0.02
	C12.2,21.86,12.11,21.94,12.06,21.86"/>
<path style="fill:#FCFF2C;" d="M7.4,21.61c0.15-0.17,0.16-0.17,0.28-0.05c0.12,0.11,0.12,0.13,0.02,0.17
	c-0.06,0.03-0.18,0.05-0.28,0.05l-0.17,0L7.4,21.61z"/>
<path style="fill:#FCFF2C;" d="M11.23,21.71c0.01-0.04,0.07-0.11,0.14-0.16c0.1-0.07,0.13-0.06,0.22,0.08l0.1,0.16h-0.24
	C11.29,21.78,11.22,21.76,11.23,21.71"/>
<path style="fill:#FCFF2C;" d="M11.75,21.62c-0.07-0.1-0.12-0.19-0.11-0.2c0.01-0.01,0.13,0,0.27,0.03l0.25,0.05l-0.14,0.15
	l-0.14,0.15L11.75,21.62z"/>
<path style="fill:#FCFF2C;" d="M7.01,21.63C6.96,21.5,7.07,21.4,7.23,21.4c0.13,0,0.13,0.01-0.04,0.19
	C7.06,21.73,7.04,21.73,7.01,21.63"/>
<path style="fill:#FCFF2C;" d="M8.36,21.51l0.15-0.18l0.15,0.15c0.08,0.08,0.16,0.15,0.17,0.15c0.01,0.01-0.13,0.02-0.3,0.03
	l-0.32,0.02L8.36,21.51z"/>
<path style="fill:#FCFF2C;" d="M10.42,21.66l-0.19-0.04l0.14-0.15l0.14-0.14l0.17,0.19C10.85,21.74,10.83,21.75,10.42,21.66"/>
<path style="fill:#FCFF2C;" d="M7.85,21.49l-0.14-0.16h0.21c0.11,0,0.25-0.02,0.31-0.04c0.08-0.03,0.07,0-0.04,0.16
	c-0.08,0.11-0.15,0.2-0.17,0.2C8.01,21.65,7.93,21.58,7.85,21.49"/>
<path style="fill:#FCFF2C;" d="M9.33,21.46l0.17-0.19l0.16,0.17c0.09,0.1,0.16,0.18,0.16,0.19c0,0.01-0.15,0.02-0.33,0.02H9.17
	L9.33,21.46z"/>
<path style="fill:#FCFF2C;" d="M10.87,21.49l-0.14-0.16H11c0.29,0,0.33,0.05,0.17,0.22C11.03,21.68,11.03,21.68,10.87,21.49"/>
<path style="fill:#FCFF2C;" d="M8.84,21.43L8.7,21.27h0.31h0.31l-0.14,0.16C9.02,21.63,9.01,21.63,8.84,21.43"/>
<path style="fill:#FCFF2C;" d="M9.88,21.43l-0.14-0.16h0.31h0.31l-0.14,0.16C10.06,21.63,10.05,21.63,9.88,21.43"/>
<path style="fill:#FCFF2C;" d="M11.74,21.27c-0.14-0.03-0.72-0.09-1.28-0.13c-0.98-0.08-2.18-0.04-3.26,0.11
	c-0.22,0.03-0.27,0.02-0.27-0.06c0-0.17,1.16-0.28,2.96-0.28c0.88,0,1.77,0.03,1.99,0.05c0.36,0.05,0.39,0.07,0.39,0.21
	C12.26,21.35,12.21,21.36,11.74,21.27"/>
<path style="fill:#FCFF2C;" d="M7.23,20.72c0.12-0.12,0.24-0.22,0.26-0.22c0.03,0,0.11,0.07,0.18,0.16l0.13,0.16l-0.28,0.04
	c-0.15,0.02-0.33,0.05-0.4,0.07C7.04,20.93,7.07,20.88,7.23,20.72"/>
<path style="fill:#FCFF2C;" d="M6.82,20.75c-0.04-0.13-0.03-0.16,0.07-0.21c0.07-0.03,0.17-0.04,0.23-0.03
	c0.1,0.01,0.09,0.04-0.07,0.21L6.87,20.9L6.82,20.75z"/>
<path style="fill:#FCFF2C;" d="M12.2,20.82c0-0.03,0.04-0.07,0.08-0.09c0.06-0.02,0.07-0.01,0.05,0.06
	C12.3,20.89,12.2,20.92,12.2,20.82"/>
<path style="fill:#FCFF2C;" d="M8.31,20.59c0.09-0.11,0.16-0.2,0.16-0.2c0-0.01,0.08,0.07,0.18,0.17l0.18,0.18l-0.34,0.02
	l-0.34,0.02L8.31,20.59z"/>
<path style="fill:#FCFF2C;" d="M11.41,20.77l-0.25-0.02l0.18-0.17l0.18-0.17l0.14,0.15c0.15,0.16,0.18,0.26,0.07,0.24
	C11.68,20.8,11.54,20.78,11.41,20.77"/>
<path style="fill:#FCFF2C;" d="M7.82,20.59l-0.17-0.15l0.28-0.05c0.15-0.03,0.29-0.03,0.3-0.02c0.01,0.01-0.04,0.1-0.11,0.2
	l-0.13,0.17L7.82,20.59z"/>
<path style="fill:#FCFF2C;" d="M10.36,20.7l-0.13-0.04l0.15-0.15c0.13-0.13,0.16-0.14,0.24-0.07c0.05,0.05,0.12,0.14,0.15,0.2
	c0.05,0.1,0.04,0.12-0.1,0.11C10.57,20.74,10.43,20.72,10.36,20.7"/>
<path style="fill:#FCFF2C;" d="M11.82,20.55l-0.17-0.2l0.14,0.04c0.08,0.02,0.25,0.04,0.38,0.04l0.23,0l-0.17,0.16
	c-0.1,0.09-0.19,0.16-0.21,0.16C12.01,20.75,11.92,20.66,11.82,20.55"/>
<path style="fill:#FCFF2C;" d="M8.85,20.54c-0.07-0.08-0.12-0.17-0.12-0.19c0-0.02,0.15-0.04,0.33-0.04h0.33l-0.11,0.14
	C9.08,20.67,8.98,20.7,8.85,20.54"/>
<path style="fill:#FCFF2C;" d="M9.38,20.52c0.19-0.18,0.25-0.18,0.37,0.02c0.08,0.14,0.08,0.14-0.23,0.14l-0.31,0L9.38,20.52z"/>
<path style="fill:#FCFF2C;" d="M10.82,20.49l-0.14-0.19h0.14c0.08,0,0.22,0.02,0.32,0.04l0.18,0.04l-0.16,0.15
	c-0.09,0.08-0.17,0.15-0.19,0.15C10.97,20.68,10.9,20.59,10.82,20.49"/>
<path style="fill:#FCFF2C;" d="M9.88,20.46L9.75,20.3h0.31h0.31l-0.14,0.16C10.06,20.66,10.05,20.66,9.88,20.46"/>
<path style="fill:#FCFF2C;" d="M6.78,20.25c0.02-0.06,0.07-0.26,0.11-0.43l0.07-0.32l0.64-0.35c0.35-0.2,0.74-0.44,0.87-0.55
	s0.26-0.22,0.3-0.24c0.09-0.06,1.77,0.07,2.51,0.19c0.57,0.09,1.58,0.29,1.61,0.32c0.01,0.01-0.08,0.3-0.2,0.65
	c-0.11,0.35-0.22,0.68-0.23,0.73c-0.02,0.07-0.09,0.08-0.28,0.04c-0.95-0.16-3.7-0.14-4.76,0.03C6.82,20.39,6.73,20.39,6.78,20.25"
	/>
<path d="M11.63,19.85c0.37-0.42,0.12-1.1-0.41-1.1c-0.34,0-0.58,0.27-0.58,0.65C10.64,19.98,11.26,20.27,11.63,19.85"/>
<path style="fill:#FCFF2C;" d="M11,19.84c-0.32-0.18-0.29-0.74,0.03-0.89c0.32-0.15,0.64,0.08,0.64,0.46
	C11.68,19.76,11.3,20,11,19.84"/>
<path d="M9.3,19.81c0.35-0.33,0.27-0.91-0.15-1.1c-0.28-0.13-0.57-0.02-0.72,0.26c-0.17,0.31-0.14,0.53,0.09,0.79
	C8.77,20.04,9.04,20.06,9.3,19.81"/>
<path style="fill:#FCFF2C;" d="M8.74,19.78c-0.43-0.19-0.28-0.97,0.19-0.97c0.46,0,0.61,0.7,0.2,0.94
	C8.94,19.86,8.92,19.86,8.74,19.78"/>
<path style="fill:#FCFF2C;" d="M6.52,20.07c0.08-0.24,0.07-0.54-0.02-0.54c-0.05,0-0.08,0.08-0.08,0.23c0,0.13-0.04,0.26-0.08,0.31
	c-0.06,0.07-0.07,0.02-0.04-0.29c0.02-0.21,0.01-0.37-0.02-0.37c-0.05,0-0.15,0.31-0.19,0.58c-0.02,0.16-0.02,0.16-0.07-0.03
	c-0.04-0.15-0.02-0.24,0.08-0.43c0.07-0.13,0.13-0.33,0.13-0.43c0-0.16,0.11-0.31,0.64-0.89c0.36-0.38,0.77-0.86,0.92-1.06
	c0.26-0.34,0.27-0.38,0.26-0.73c-0.01-0.2-0.03-0.38-0.05-0.41c-0.07-0.08-0.16,0.31-0.12,0.53c0.03,0.19,0,0.26-0.38,0.73
	c-0.23,0.28-0.61,0.72-0.85,0.96c-0.45,0.45-0.61,0.69-0.61,0.91c0,0.07-0.05,0.25-0.11,0.4c-0.06,0.15-0.1,0.31-0.08,0.35
	c0.02,0.04,0.01,0.04-0.04,0c-0.05-0.05-0.05-0.15-0.01-0.35c0.03-0.15,0.04-0.31,0.03-0.33c-0.06-0.11-0.14,0.03-0.17,0.34
	c-0.02,0.18-0.06,0.3-0.09,0.28c-0.08-0.06-0.06-0.38,0.05-0.54c0.05-0.08,0.12-0.28,0.15-0.45c0.08-0.45,0.26-0.81,0.66-1.3
	c0.2-0.25,0.37-0.46,0.37-0.47c0-0.01-0.05-0.19-0.12-0.4c-0.15-0.48-0.16-1.22-0.02-1.67c0.15-0.47,0.45-0.94,0.92-1.43
	c0.49-0.51,0.96-0.82,1.18-0.78c0.19,0.03,5.81,4.73,5.81,4.86c0,0.05-0.05,0.09-0.1,0.09c-0.06,0-1.48-0.43-3.17-0.96
	c-2.7-0.84-3.09-0.98-3.2-1.13c-0.17-0.21-0.17-0.54-0.02-0.76c0.07-0.09,0.12-0.2,0.12-0.25c0-0.14-0.29,0.22-0.34,0.43
	c-0.07,0.25,0.05,0.67,0.23,0.8c0.07,0.05,0.58,0.24,1.14,0.42c0.96,0.3,1.02,0.34,1.07,0.5c0.12,0.41-0.28,0.88-0.86,1.01
	c-0.19,0.04-0.43,0.16-0.59,0.3c-0.65,0.53-1.11,0.84-1.49,1.01c-0.23,0.1-0.44,0.22-0.48,0.26c-0.04,0.04-0.1,0.23-0.13,0.42
	c-0.07,0.4-0.1,0.46-0.21,0.46C6.48,20.24,6.48,20.2,6.52,20.07"/>
<path style="fill:#FCFF2C;" d="M12.41,18.59c-0.6-0.15-1.54-0.29-2.5-0.37l-0.92-0.08l0.35-0.14c0.19-0.08,0.47-0.21,0.61-0.3
	c0.23-0.13,0.32-0.15,0.67-0.13c0.52,0.04,0.87-0.06,1-0.29c0.05-0.1,0.11-0.19,0.11-0.2c0.01-0.01,0.42,0.1,0.91,0.25l0.9,0.28
	l-0.17,0.33c-0.1,0.18-0.22,0.42-0.27,0.54C12.98,18.71,12.95,18.72,12.41,18.59"/>
<path style="fill:#FCFF2C;" d="M10.37,17.41c-0.05-0.03-0.05-0.07,0.01-0.16c0.05-0.07,0.09-0.09,0.11-0.05
	C10.54,17.3,10.45,17.47,10.37,17.41"/>
<path style="fill:#FCFF2C;" d="M10.58,17.4c0-0.08,0.04-0.08,0.09,0c0.02,0.04,0.01,0.06-0.03,0.06S10.58,17.43,10.58,17.4"/>
<path style="fill:#FCFF2C;" d="M10.87,17.36c0-0.06,0.03-0.08,0.06-0.06c0.07,0.05,0.07,0.16,0,0.16
	C10.9,17.46,10.87,17.42,10.87,17.36"/>
<path style="fill:#FCFF2C;" d="M11.14,17.36c-0.02-0.02-0.04-0.09-0.04-0.15c0-0.07,0.02-0.08,0.06-0.03
	c0.04,0.04,0.06,0.11,0.04,0.15C11.2,17.37,11.17,17.38,11.14,17.36"/>
<path style="fill:#FCFF2C;" d="M10.68,17.23c-0.02-0.02-0.04-0.09-0.04-0.15c0-0.07,0.02-0.08,0.06-0.03
	c0.04,0.04,0.06,0.11,0.04,0.15C10.73,17.24,10.7,17.25,10.68,17.23"/>
<path style="fill:#FCFF2C;" d="M11.36,17.2c-0.06-0.11,0.01-0.14,0.09-0.03c0.05,0.06,0.05,0.1,0.01,0.1
	C11.43,17.27,11.38,17.24,11.36,17.2"/>
<path style="fill:#FCFF2C;" d="M10.9,17.08c-0.02-0.03-0.01-0.08,0.02-0.1c0.03-0.02,0.06,0.01,0.06,0.06
	C10.99,17.15,10.95,17.17,10.9,17.08"/>
<path style="fill:#FCFF2C;" d="M11.16,16.97c0-0.05,0.02-0.08,0.06-0.06c0.08,0.05,0.08,0.16,0,0.16
	C11.19,17.07,11.16,17.03,11.16,16.97"/>
<path style="fill:#FCFF2C;" d="M10.46,16.92c0-0.11,0.03-0.13,0.08-0.04c0.02,0.03,0.01,0.08-0.03,0.1
	C10.49,17,10.46,16.97,10.46,16.92"/>
<path style="fill:#FCFF2C;" d="M10.7,16.84c0-0.05,0.03-0.08,0.06-0.06c0.07,0.05,0.07,0.16,0,0.16
	C10.72,16.95,10.7,16.9,10.7,16.84"/>
<path style="fill:#FCFF2C;" d="M6.8,13.74c-0.02-0.28-0.02-0.93,0-1.44c0.03-1.07,0.01-1.17-0.32-1.29c-0.27-0.1-0.36-0.18-0.36-0.3
	c0-0.08,0.06-0.09,0.35-0.06c0.31,0.04,0.35,0.03,0.33-0.06c-0.03-0.17-0.44-0.29-0.87-0.27c-0.34,0.02-0.38,0.01-0.36-0.09
	c0.05-0.2,0.24-0.33,0.52-0.36c0.15-0.02,0.38-0.09,0.5-0.16C6.78,9.6,6.9,9.58,7.25,9.6c0.76,0.04,0.9,0.27,1.1,1.71
	c0.08,0.56,0.14,1.08,0.14,1.16c0,0.1-0.1,0.21-0.37,0.4c-0.39,0.28-0.9,0.79-1.15,1.16l-0.15,0.22L6.8,13.74z"/>
<path d="M7.36,10.36c0.09-0.11,0.09-0.16,0.04-0.29c-0.08-0.2-0.18-0.16-0.14,0.07c0.02,0.13,0.01,0.17-0.09,0.17
	s-0.12-0.04-0.12-0.2c0-0.17-0.01-0.19-0.09-0.12c-0.11,0.1-0.11,0.25,0.01,0.4C7.09,10.53,7.23,10.53,7.36,10.36"/>
</svg>
